solid B-16-Plag.066
facet normal 0 0 0
outer loop
vertex 16.636904 14.451490 5.099372
vertex 16.616426 14.472244 5.099372
vertex 16.636904 14.472244 5.099372
endloop
endfacet
facet normal 0 0 0
outer loop
vertex 16.657379 14.451490 5.099372
vertex 16.636904 14.451490 5.099372
vertex 16.657379 14.472244 5.099372
endloop
endfacet
facet normal 0 0 0
outer loop
vertex 16.657379 14.472244 5.099372
vertex 16.636904 14.451490 5.099372
vertex 16.636904 14.472244 5.099372
endloop
endfacet
facet normal 0 0 0
outer loop
vertex 16.616426 14.472244 5.099372
vertex 16.595951 14.472244 5.099372
vertex 16.616426 14.492998 5.099372
endloop
endfacet
facet normal 0 0 0
outer loop
vertex 16.616426 14.492998 5.099372
vertex 16.595951 14.472244 5.099372
vertex 16.595951 14.492998 5.099372
endloop
endfacet
facet normal 0 0 0
outer loop
vertex 16.636904 14.472244 5.099372
vertex 16.616426 14.472244 5.099372
vertex 16.636904 14.492998 5.099372
endloop
endfacet
facet normal 0 0 0
outer loop
vertex 16.636904 14.492998 5.099372
vertex 16.616426 14.472244 5.099372
vertex 16.616426 14.492998 5.099372
endloop
endfacet
facet normal 0 0 0
outer loop
vertex 16.657379 14.472244 5.099372
vertex 16.636904 14.472244 5.099372
vertex 16.657379 14.492998 5.099372
endloop
endfacet
facet normal 0 0 0
outer loop
vertex 16.657379 14.492998 5.099372
vertex 16.636904 14.472244 5.099372
vertex 16.636904 14.492998 5.099372
endloop
endfacet
facet normal 0 0 0
outer loop
vertex 16.616426 14.492998 5.099372
vertex 16.595951 14.492998 5.099372
vertex 16.616426 14.513750 5.099372
endloop
endfacet
facet normal 0 0 0
outer loop
vertex 16.616426 14.513750 5.099372
vertex 16.595951 14.492998 5.099372
vertex 16.595951 14.513750 5.099372
endloop
endfacet
facet normal 0 0 0
outer loop
vertex 16.636904 14.492998 5.099372
vertex 16.616426 14.492998 5.099372
vertex 16.636904 14.513750 5.099372
endloop
endfacet
facet normal 0 0 0
outer loop
vertex 16.636904 14.513750 5.099372
vertex 16.616426 14.492998 5.099372
vertex 16.616426 14.513750 5.099372
endloop
endfacet
facet normal 0 0 0
outer loop
vertex 16.657379 14.492998 5.099372
vertex 16.636904 14.492998 5.099372
vertex 16.657379 14.513750 5.099372
endloop
endfacet
facet normal 0 0 0
outer loop
vertex 16.657379 14.513750 5.099372
vertex 16.636904 14.492998 5.099372
vertex 16.636904 14.513750 5.099372
endloop
endfacet
facet normal 0 0 0
outer loop
vertex 16.616426 14.513750 5.099372
vertex 16.595951 14.513750 5.099372
vertex 16.616426 14.534504 5.099372
endloop
endfacet
facet normal 0 0 0
outer loop
vertex 16.616426 14.534504 5.099372
vertex 16.595951 14.513750 5.099372
vertex 16.595951 14.534504 5.099372
endloop
endfacet
facet normal 0 0 0
outer loop
vertex 16.636904 14.513750 5.099372
vertex 16.616426 14.513750 5.099372
vertex 16.636904 14.534504 5.099372
endloop
endfacet
facet normal 0 0 0
outer loop
vertex 16.636904 14.534504 5.099372
vertex 16.616426 14.513750 5.099372
vertex 16.616426 14.534504 5.099372
endloop
endfacet
facet normal 0 0 0
outer loop
vertex 16.636904 14.534504 5.099372
vertex 16.657379 14.513750 5.099372
vertex 16.636904 14.513750 5.099372
endloop
endfacet
facet normal 0 0 0
outer loop
vertex 16.616426 14.534504 5.099372
vertex 16.595951 14.534504 5.099372
vertex 16.616426 14.555258 5.099372
endloop
endfacet
facet normal 0 0 0
outer loop
vertex 16.616426 14.555258 5.099372
vertex 16.595951 14.534504 5.099372
vertex 16.595951 14.555258 5.099372
endloop
endfacet
facet normal 0 0 0
outer loop
vertex 16.616426 14.555258 5.099372
vertex 16.636904 14.534504 5.099372
vertex 16.616426 14.534504 5.099372
endloop
endfacet
facet normal 0 0 0
outer loop
vertex 16.595951 14.576012 5.099372
vertex 16.616426 14.555258 5.099372
vertex 16.595951 14.555258 5.099372
endloop
endfacet
facet normal 0 0 0
outer loop
vertex 16.636904 14.430738 5.099372
vertex 16.657379 14.451490 5.099372
vertex 16.636904 14.451490 5.099372
endloop
endfacet
facet normal 0 0 0
outer loop
vertex 16.636904 14.451490 5.099372
vertex 16.636904 14.472244 5.119372
vertex 16.616426 14.472244 5.099372
endloop
endfacet
facet normal 0 0 0
outer loop
vertex 16.657379 14.451490 5.099372
vertex 16.636904 14.472244 5.119372
vertex 16.636904 14.451490 5.099372
endloop
endfacet
facet normal 0 0 0
outer loop
vertex 16.657379 14.472244 5.119372
vertex 16.636904 14.472244 5.119372
vertex 16.657379 14.451490 5.099372
endloop
endfacet
facet normal 0 0 0
outer loop
vertex 16.657379 14.472244 5.119372
vertex 16.657379 14.451490 5.099372
vertex 16.657379 14.472244 5.099372
endloop
endfacet
facet normal 0 0 0
outer loop
vertex 16.616426 14.492998 5.119372
vertex 16.595951 14.492998 5.099372
vertex 16.616426 14.472244 5.099372
endloop
endfacet
facet normal 0 0 0
outer loop
vertex 16.595951 14.492998 5.099372
vertex 16.595951 14.472244 5.099372
vertex 16.616426 14.472244 5.099372
endloop
endfacet
facet normal 0 0 0
outer loop
vertex 16.636904 14.472244 5.119372
vertex 16.616426 14.492998 5.119372
vertex 16.616426 14.472244 5.099372
endloop
endfacet
facet normal 0 0 0
outer loop
vertex 16.677855 14.492998 5.119372
vertex 16.657379 14.472244 5.119372
vertex 16.657379 14.492998 5.099372
endloop
endfacet
facet normal 0 0 0
outer loop
vertex 16.657379 14.472244 5.119372
vertex 16.657379 14.472244 5.099372
vertex 16.657379 14.492998 5.099372
endloop
endfacet
facet normal 0 0 0
outer loop
vertex 16.616426 14.513750 5.119372
vertex 16.595951 14.492998 5.099372
vertex 16.616426 14.492998 5.119372
endloop
endfacet
facet normal 0 0 0
outer loop
vertex 16.595951 14.513750 5.099372
vertex 16.595951 14.492998 5.099372
vertex 16.616426 14.513750 5.119372
endloop
endfacet
facet normal 0 0 0
outer loop
vertex 16.677855 14.492998 5.119372
vertex 16.657379 14.513750 5.099372
vertex 16.677855 14.513750 5.119372
endloop
endfacet
facet normal 0 0 0
outer loop
vertex 16.657379 14.492998 5.099372
vertex 16.657379 14.513750 5.099372
vertex 16.677855 14.492998 5.119372
endloop
endfacet
facet normal 0 0 0
outer loop
vertex 16.595951 14.513750 5.099372
vertex 16.595951 14.534504 5.119372
vertex 16.595951 14.534504 5.099372
endloop
endfacet
facet normal 0 0 0
outer loop
vertex 16.616426 14.513750 5.119372
vertex 16.595951 14.534504 5.119372
vertex 16.595951 14.513750 5.099372
endloop
endfacet
facet normal 0 0 0
outer loop
vertex 16.657379 14.513750 5.099372
vertex 16.636904 14.534504 5.099372
vertex 16.657379 14.534504 5.119372
endloop
endfacet
facet normal 0 0 0
outer loop
vertex 16.657379 14.513750 5.099372
vertex 16.657379 14.534504 5.119372
vertex 16.677855 14.513750 5.119372
endloop
endfacet
facet normal 0 0 0
outer loop
vertex 16.657379 14.534504 5.119372
vertex 16.677855 14.534504 5.119372
vertex 16.677855 14.513750 5.119372
endloop
endfacet
facet normal 0 0 0
outer loop
vertex 16.595951 14.534504 5.099372
vertex 16.595951 14.534504 5.119372
vertex 16.595951 14.555258 5.099372
endloop
endfacet
facet normal 0 0 0
outer loop
vertex 16.595951 14.534504 5.119372
vertex 16.595951 14.555258 5.119372
vertex 16.595951 14.555258 5.099372
endloop
endfacet
facet normal 0 0 0
outer loop
vertex 16.636904 14.534504 5.099372
vertex 16.616426 14.555258 5.099372
vertex 16.636904 14.555258 5.119372
endloop
endfacet
facet normal 0 0 0
outer loop
vertex 16.636904 14.534504 5.099372
vertex 16.636904 14.555258 5.119372
vertex 16.657379 14.534504 5.119372
endloop
endfacet
facet normal 0 0 0
outer loop
vertex 16.636904 14.555258 5.119372
vertex 16.657379 14.555258 5.119372
vertex 16.657379 14.534504 5.119372
endloop
endfacet
facet normal 0 0 0
outer loop
vertex 16.677855 14.534504 5.119372
vertex 16.657379 14.534504 5.119372
vertex 16.677855 14.555258 5.119372
endloop
endfacet
facet normal 0 0 0
outer loop
vertex 16.677855 14.555258 5.119372
vertex 16.657379 14.534504 5.119372
vertex 16.657379 14.555258 5.119372
endloop
endfacet
facet normal 0 0 0
outer loop
vertex 16.595951 14.555258 5.119372
vertex 16.595951 14.576012 5.099372
vertex 16.595951 14.555258 5.099372
endloop
endfacet
facet normal 0 0 0
outer loop
vertex 16.595951 14.576012 5.099372
vertex 16.595951 14.555258 5.119372
vertex 16.616426 14.555258 5.099372
endloop
endfacet
facet normal 0 0 0
outer loop
vertex 16.616426 14.576012 5.119372
vertex 16.616426 14.555258 5.099372
vertex 16.595951 14.555258 5.119372
endloop
endfacet
facet normal 0 0 0
outer loop
vertex 16.616426 14.555258 5.099372
vertex 16.616426 14.576012 5.119372
vertex 16.636904 14.555258 5.119372
endloop
endfacet
facet normal 0 0 0
outer loop
vertex 16.616426 14.576012 5.119372
vertex 16.636904 14.576012 5.119372
vertex 16.636904 14.555258 5.119372
endloop
endfacet
facet normal 0 0 0
outer loop
vertex 16.657379 14.555258 5.119372
vertex 16.636904 14.555258 5.119372
vertex 16.657379 14.576012 5.119372
endloop
endfacet
facet normal 0 0 0
outer loop
vertex 16.657379 14.576012 5.119372
vertex 16.636904 14.555258 5.119372
vertex 16.636904 14.576012 5.119372
endloop
endfacet
facet normal 0 0 0
outer loop
vertex 16.677855 14.555258 5.119372
vertex 16.657379 14.555258 5.119372
vertex 16.677855 14.576012 5.119372
endloop
endfacet
facet normal 0 0 0
outer loop
vertex 16.677855 14.576012 5.119372
vertex 16.657379 14.555258 5.119372
vertex 16.657379 14.576012 5.119372
endloop
endfacet
facet normal 0 0 0
outer loop
vertex 16.636904 14.576012 5.119372
vertex 16.616426 14.576012 5.119372
vertex 16.636904 14.596764 5.119372
endloop
endfacet
facet normal 0 0 0
outer loop
vertex 16.636904 14.596764 5.119372
vertex 16.616426 14.576012 5.119372
vertex 16.616426 14.596764 5.119372
endloop
endfacet
facet normal 0 0 0
outer loop
vertex 16.636904 14.596764 5.119372
vertex 16.657379 14.576012 5.119372
vertex 16.636904 14.576012 5.119372
endloop
endfacet
facet normal 0 0 0
outer loop
vertex 16.616426 14.596764 5.119372
vertex 16.636904 14.617517 5.119372
vertex 16.636904 14.596764 5.119372
endloop
endfacet
facet normal 0 0 0
outer loop
vertex 16.657379 14.472244 5.119372
vertex 16.657379 14.472244 5.139372
vertex 16.636904 14.472244 5.119372
endloop
endfacet
facet normal 0 0 0
outer loop
vertex 16.636904 14.472244 5.119372
vertex 16.657379 14.472244 5.139372
vertex 16.636904 14.472244 5.139372
endloop
endfacet
facet normal 0 0 0
outer loop
vertex 16.657379 14.472244 5.119372
vertex 16.677855 14.472244 5.139372
vertex 16.657379 14.472244 5.139372
endloop
endfacet
facet normal 0 0 0
outer loop
vertex 16.636904 14.472244 5.139372
vertex 16.616426 14.492998 5.119372
vertex 16.636904 14.472244 5.119372
endloop
endfacet
facet normal 0 0 0
outer loop
vertex 16.616426 14.492998 5.139372
vertex 16.616426 14.492998 5.119372
vertex 16.636904 14.472244 5.139372
endloop
endfacet
facet normal 0 0 0
outer loop
vertex 16.657379 14.472244 5.119372
vertex 16.677855 14.492998 5.119372
vertex 16.677855 14.472244 5.139372
endloop
endfacet
facet normal 0 0 0
outer loop
vertex 16.677855 14.472244 5.139372
vertex 16.677855 14.492998 5.119372
vertex 16.677855 14.492998 5.139372
endloop
endfacet
facet normal 0 0 0
outer loop
vertex 16.616426 14.492998 5.139372
vertex 16.616426 14.513750 5.119372
vertex 16.616426 14.492998 5.119372
endloop
endfacet
facet normal 0 0 0
outer loop
vertex 16.616426 14.492998 5.139372
vertex 16.636904 14.513750 5.139372
vertex 16.616426 14.513750 5.119372
endloop
endfacet
facet normal 0 0 0
outer loop
vertex 16.698330 14.513750 5.139372
vertex 16.677855 14.492998 5.139372
vertex 16.677855 14.513750 5.119372
endloop
endfacet
facet normal 0 0 0
outer loop
vertex 16.677855 14.492998 5.139372
vertex 16.677855 14.492998 5.119372
vertex 16.677855 14.513750 5.119372
endloop
endfacet
facet normal 0 0 0
outer loop
vertex 16.616426 14.513750 5.119372
vertex 16.616426 14.534504 5.139372
vertex 16.595951 14.534504 5.119372
endloop
endfacet
facet normal 0 0 0
outer loop
vertex 16.636904 14.513750 5.139372
vertex 16.616426 14.534504 5.139372
vertex 16.616426 14.513750 5.119372
endloop
endfacet
facet normal 0 0 0
outer loop
vertex 16.698330 14.513750 5.139372
vertex 16.677855 14.534504 5.119372
vertex 16.698330 14.534504 5.139372
endloop
endfacet
facet normal 0 0 0
outer loop
vertex 16.677855 14.513750 5.119372
vertex 16.677855 14.534504 5.119372
vertex 16.698330 14.513750 5.139372
endloop
endfacet
facet normal 0 0 0
outer loop
vertex 16.616426 14.555258 5.139372
vertex 16.595951 14.534504 5.119372
vertex 16.616426 14.534504 5.139372
endloop
endfacet
facet normal 0 0 0
outer loop
vertex 16.595951 14.555258 5.119372
vertex 16.595951 14.534504 5.119372
vertex 16.616426 14.555258 5.139372
endloop
endfacet
facet normal 0 0 0
outer loop
vertex 16.698330 14.534504 5.139372
vertex 16.677855 14.555258 5.119372
vertex 16.698330 14.555258 5.139372
endloop
endfacet
facet normal 0 0 0
outer loop
vertex 16.677855 14.534504 5.119372
vertex 16.677855 14.555258 5.119372
vertex 16.698330 14.534504 5.139372
endloop
endfacet
facet normal 0 0 0
outer loop
vertex 16.595951 14.555258 5.119372
vertex 16.616426 14.555258 5.139372
vertex 16.616426 14.576012 5.119372
endloop
endfacet
facet normal 0 0 0
outer loop
vertex 16.616426 14.555258 5.139372
vertex 16.616426 14.576012 5.139372
vertex 16.616426 14.576012 5.119372
endloop
endfacet
facet normal 0 0 0
outer loop
vertex 16.698330 14.555258 5.139372
vertex 16.677855 14.576012 5.119372
vertex 16.698330 14.576012 5.139372
endloop
endfacet
facet normal 0 0 0
outer loop
vertex 16.677855 14.555258 5.119372
vertex 16.677855 14.576012 5.119372
vertex 16.698330 14.555258 5.139372
endloop
endfacet
facet normal 0 0 0
outer loop
vertex 16.616426 14.576012 5.139372
vertex 16.616426 14.596764 5.119372
vertex 16.616426 14.576012 5.119372
endloop
endfacet
facet normal 0 0 0
outer loop
vertex 16.616426 14.576012 5.139372
vertex 16.636904 14.596764 5.139372
vertex 16.616426 14.596764 5.119372
endloop
endfacet
facet normal 0 0 0
outer loop
vertex 16.657379 14.576012 5.119372
vertex 16.636904 14.596764 5.119372
vertex 16.657379 14.596764 5.139372
endloop
endfacet
facet normal 0 0 0
outer loop
vertex 16.657379 14.576012 5.119372
vertex 16.677855 14.596764 5.139372
vertex 16.677855 14.576012 5.119372
endloop
endfacet
facet normal 0 0 0
outer loop
vertex 16.657379 14.596764 5.139372
vertex 16.677855 14.596764 5.139372
vertex 16.657379 14.576012 5.119372
endloop
endfacet
facet normal 0 0 0
outer loop
vertex 16.677855 14.576012 5.119372
vertex 16.677855 14.596764 5.139372
vertex 16.698330 14.576012 5.139372
endloop
endfacet
facet normal 0 0 0
outer loop
vertex 16.616426 14.596764 5.119372
vertex 16.636904 14.596764 5.139372
vertex 16.636904 14.617517 5.119372
endloop
endfacet
facet normal 0 0 0
outer loop
vertex 16.636904 14.596764 5.139372
vertex 16.636904 14.617517 5.139372
vertex 16.636904 14.617517 5.119372
endloop
endfacet
facet normal 0 0 0
outer loop
vertex 16.657379 14.596764 5.139372
vertex 16.636904 14.617517 5.119372
vertex 16.657379 14.617517 5.139372
endloop
endfacet
facet normal 0 0 0
outer loop
vertex 16.636904 14.596764 5.119372
vertex 16.636904 14.617517 5.119372
vertex 16.657379 14.596764 5.139372
endloop
endfacet
facet normal 0 0 0
outer loop
vertex 16.657379 14.617517 5.139372
vertex 16.677855 14.596764 5.139372
vertex 16.657379 14.596764 5.139372
endloop
endfacet
facet normal 0 0 0
outer loop
vertex 16.657379 14.617517 5.139372
vertex 16.636904 14.617517 5.119372
vertex 16.636904 14.617517 5.139372
endloop
endfacet
facet normal 0 0 0
outer loop
vertex 16.616426 14.492998 5.139372
vertex 16.636904 14.472244 5.139372
vertex 16.636904 14.492998 5.139372
endloop
endfacet
facet normal 0 0 0
outer loop
vertex 16.657379 14.492998 5.159372
vertex 16.636904 14.492998 5.139372
vertex 16.657379 14.472244 5.139372
endloop
endfacet
facet normal 0 0 0
outer loop
vertex 16.636904 14.492998 5.139372
vertex 16.636904 14.472244 5.139372
vertex 16.657379 14.472244 5.139372
endloop
endfacet
facet normal 0 0 0
outer loop
vertex 16.677855 14.472244 5.139372
vertex 16.657379 14.492998 5.159372
vertex 16.657379 14.472244 5.139372
endloop
endfacet
facet normal 0 0 0
outer loop
vertex 16.677855 14.492998 5.159372
vertex 16.657379 14.492998 5.159372
vertex 16.677855 14.472244 5.139372
endloop
endfacet
facet normal 0 0 0
outer loop
vertex 16.677855 14.492998 5.159372
vertex 16.677855 14.472244 5.139372
vertex 16.677855 14.492998 5.139372
endloop
endfacet
facet normal 0 0 0
outer loop
vertex 16.636904 14.513750 5.159372
vertex 16.616426 14.492998 5.139372
vertex 16.636904 14.492998 5.139372
endloop
endfacet
facet normal 0 0 0
outer loop
vertex 16.636904 14.513750 5.159372
vertex 16.636904 14.513750 5.139372
vertex 16.616426 14.492998 5.139372
endloop
endfacet
facet normal 0 0 0
outer loop
vertex 16.657379 14.492998 5.159372
vertex 16.636904 14.513750 5.159372
vertex 16.636904 14.492998 5.139372
endloop
endfacet
facet normal 0 0 0
outer loop
vertex 16.677855 14.492998 5.139372
vertex 16.698330 14.513750 5.159372
vertex 16.677855 14.492998 5.159372
endloop
endfacet
facet normal 0 0 0
outer loop
vertex 16.698330 14.513750 5.139372
vertex 16.698330 14.513750 5.159372
vertex 16.677855 14.492998 5.139372
endloop
endfacet
facet normal 0 0 0
outer loop
vertex 16.616426 14.534504 5.139372
vertex 16.636904 14.513750 5.139372
vertex 16.636904 14.534504 5.159372
endloop
endfacet
facet normal 0 0 0
outer loop
vertex 16.636904 14.513750 5.139372
vertex 16.636904 14.513750 5.159372
vertex 16.636904 14.534504 5.159372
endloop
endfacet
facet normal 0 0 0
outer loop
vertex 16.698330 14.513750 5.139372
vertex 16.698330 14.534504 5.139372
vertex 16.698330 14.513750 5.159372
endloop
endfacet
facet normal 0 0 0
outer loop
vertex 16.698330 14.513750 5.159372
vertex 16.698330 14.534504 5.139372
vertex 16.698330 14.534504 5.159372
endloop
endfacet
facet normal 0 0 0
outer loop
vertex 16.616426 14.534504 5.139372
vertex 16.616426 14.555258 5.159372
vertex 16.616426 14.555258 5.139372
endloop
endfacet
facet normal 0 0 0
outer loop
vertex 16.636904 14.534504 5.159372
vertex 16.616426 14.555258 5.159372
vertex 16.616426 14.534504 5.139372
endloop
endfacet
facet normal 0 0 0
outer loop
vertex 16.698330 14.534504 5.139372
vertex 16.698330 14.555258 5.139372
vertex 16.698330 14.534504 5.159372
endloop
endfacet
facet normal 0 0 0
outer loop
vertex 16.698330 14.534504 5.159372
vertex 16.698330 14.555258 5.139372
vertex 16.698330 14.555258 5.159372
endloop
endfacet
facet normal 0 0 0
outer loop
vertex 16.616426 14.555258 5.139372
vertex 16.616426 14.555258 5.159372
vertex 16.616426 14.576012 5.139372
endloop
endfacet
facet normal 0 0 0
outer loop
vertex 16.616426 14.555258 5.159372
vertex 16.616426 14.576012 5.159372
vertex 16.616426 14.576012 5.139372
endloop
endfacet
facet normal 0 0 0
outer loop
vertex 16.698330 14.576012 5.139372
vertex 16.677855 14.576012 5.159372
vertex 16.698330 14.555258 5.159372
endloop
endfacet
facet normal 0 0 0
outer loop
vertex 16.698330 14.576012 5.139372
vertex 16.698330 14.555258 5.159372
vertex 16.698330 14.555258 5.139372
endloop
endfacet
facet normal 0 0 0
outer loop
vertex 16.616426 14.576012 5.159372
vertex 16.636904 14.596764 5.139372
vertex 16.616426 14.576012 5.139372
endloop
endfacet
facet normal 0 0 0
outer loop
vertex 16.636904 14.596764 5.159372
vertex 16.636904 14.596764 5.139372
vertex 16.616426 14.576012 5.159372
endloop
endfacet
facet normal 0 0 0
outer loop
vertex 16.698330 14.576012 5.139372
vertex 16.677855 14.596764 5.139372
vertex 16.677855 14.576012 5.159372
endloop
endfacet
facet normal 0 0 0
outer loop
vertex 16.677855 14.596764 5.139372
vertex 16.677855 14.596764 5.159372
vertex 16.677855 14.576012 5.159372
endloop
endfacet
facet normal 0 0 0
outer loop
vertex 16.636904 14.596764 5.159372
vertex 16.636904 14.617517 5.139372
vertex 16.636904 14.596764 5.139372
endloop
endfacet
facet normal 0 0 0
outer loop
vertex 16.636904 14.596764 5.159372
vertex 16.657379 14.617517 5.159372
vertex 16.636904 14.617517 5.139372
endloop
endfacet
facet normal 0 0 0
outer loop
vertex 16.677855 14.596764 5.139372
vertex 16.657379 14.617517 5.159372
vertex 16.677855 14.596764 5.159372
endloop
endfacet
facet normal 0 0 0
outer loop
vertex 16.657379 14.617517 5.139372
vertex 16.657379 14.617517 5.159372
vertex 16.677855 14.596764 5.139372
endloop
endfacet
facet normal 0 0 0
outer loop
vertex 16.636904 14.617517 5.139372
vertex 16.657379 14.617517 5.159372
vertex 16.657379 14.617517 5.139372
endloop
endfacet
facet normal 0 0 0
outer loop
vertex 16.636904 14.513750 5.159372
vertex 16.657379 14.492998 5.159372
vertex 16.657379 14.513750 5.159372
endloop
endfacet
facet normal 0 0 0
outer loop
vertex 16.677855 14.492998 5.159372
vertex 16.677855 14.513750 5.159372
vertex 16.657379 14.492998 5.159372
endloop
endfacet
facet normal 0 0 0
outer loop
vertex 16.677855 14.513750 5.159372
vertex 16.657379 14.513750 5.159372
vertex 16.657379 14.492998 5.159372
endloop
endfacet
facet normal 0 0 0
outer loop
vertex 16.677855 14.492998 5.159372
vertex 16.698330 14.513750 5.159372
vertex 16.677855 14.513750 5.159372
endloop
endfacet
facet normal 0 0 0
outer loop
vertex 16.657379 14.513750 5.159372
vertex 16.657379 14.534504 5.159372
vertex 16.636904 14.513750 5.159372
endloop
endfacet
facet normal 0 0 0
outer loop
vertex 16.657379 14.534504 5.159372
vertex 16.636904 14.534504 5.159372
vertex 16.636904 14.513750 5.159372
endloop
endfacet
facet normal 0 0 0
outer loop
vertex 16.677855 14.513750 5.159372
vertex 16.677855 14.534504 5.159372
vertex 16.657379 14.513750 5.159372
endloop
endfacet
facet normal 0 0 0
outer loop
vertex 16.677855 14.534504 5.159372
vertex 16.657379 14.534504 5.159372
vertex 16.657379 14.513750 5.159372
endloop
endfacet
facet normal 0 0 0
outer loop
vertex 16.698330 14.513750 5.159372
vertex 16.698330 14.534504 5.159372
vertex 16.677855 14.513750 5.159372
endloop
endfacet
facet normal 0 0 0
outer loop
vertex 16.698330 14.534504 5.159372
vertex 16.677855 14.534504 5.159372
vertex 16.677855 14.513750 5.159372
endloop
endfacet
facet normal 0 0 0
outer loop
vertex 16.616426 14.555258 5.159372
vertex 16.636904 14.534504 5.159372
vertex 16.636904 14.555258 5.159372
endloop
endfacet
facet normal 0 0 0
outer loop
vertex 16.657379 14.534504 5.159372
vertex 16.657379 14.555258 5.159372
vertex 16.636904 14.534504 5.159372
endloop
endfacet
facet normal 0 0 0
outer loop
vertex 16.657379 14.555258 5.159372
vertex 16.636904 14.555258 5.159372
vertex 16.636904 14.534504 5.159372
endloop
endfacet
facet normal 0 0 0
outer loop
vertex 16.677855 14.534504 5.159372
vertex 16.677855 14.555258 5.159372
vertex 16.657379 14.534504 5.159372
endloop
endfacet
facet normal 0 0 0
outer loop
vertex 16.677855 14.555258 5.159372
vertex 16.657379 14.555258 5.159372
vertex 16.657379 14.534504 5.159372
endloop
endfacet
facet normal 0 0 0
outer loop
vertex 16.698330 14.534504 5.159372
vertex 16.698330 14.555258 5.159372
vertex 16.677855 14.534504 5.159372
endloop
endfacet
facet normal 0 0 0
outer loop
vertex 16.698330 14.555258 5.159372
vertex 16.677855 14.555258 5.159372
vertex 16.677855 14.534504 5.159372
endloop
endfacet
facet normal 0 0 0
outer loop
vertex 16.636904 14.555258 5.159372
vertex 16.636904 14.576012 5.159372
vertex 16.616426 14.555258 5.159372
endloop
endfacet
facet normal 0 0 0
outer loop
vertex 16.636904 14.576012 5.159372
vertex 16.616426 14.576012 5.159372
vertex 16.616426 14.555258 5.159372
endloop
endfacet
facet normal 0 0 0
outer loop
vertex 16.657379 14.555258 5.159372
vertex 16.657379 14.576012 5.159372
vertex 16.636904 14.555258 5.159372
endloop
endfacet
facet normal 0 0 0
outer loop
vertex 16.657379 14.576012 5.159372
vertex 16.636904 14.576012 5.159372
vertex 16.636904 14.555258 5.159372
endloop
endfacet
facet normal 0 0 0
outer loop
vertex 16.677855 14.555258 5.159372
vertex 16.677855 14.576012 5.159372
vertex 16.657379 14.555258 5.159372
endloop
endfacet
facet normal 0 0 0
outer loop
vertex 16.677855 14.576012 5.159372
vertex 16.657379 14.576012 5.159372
vertex 16.657379 14.555258 5.159372
endloop
endfacet
facet normal 0 0 0
outer loop
vertex 16.698330 14.555258 5.159372
vertex 16.677855 14.576012 5.159372
vertex 16.677855 14.555258 5.159372
endloop
endfacet
facet normal 0 0 0
outer loop
vertex 16.636904 14.596764 5.159372
vertex 16.616426 14.576012 5.159372
vertex 16.636904 14.576012 5.159372
endloop
endfacet
facet normal 0 0 0
outer loop
vertex 16.657379 14.576012 5.159372
vertex 16.657379 14.596764 5.159372
vertex 16.636904 14.576012 5.159372
endloop
endfacet
facet normal 0 0 0
outer loop
vertex 16.657379 14.596764 5.159372
vertex 16.636904 14.596764 5.159372
vertex 16.636904 14.576012 5.159372
endloop
endfacet
facet normal 0 0 0
outer loop
vertex 16.677855 14.576012 5.159372
vertex 16.677855 14.596764 5.159372
vertex 16.657379 14.576012 5.159372
endloop
endfacet
facet normal 0 0 0
outer loop
vertex 16.677855 14.596764 5.159372
vertex 16.657379 14.596764 5.159372
vertex 16.657379 14.576012 5.159372
endloop
endfacet
facet normal 0 0 0
outer loop
vertex 16.657379 14.617517 5.159372
vertex 16.636904 14.596764 5.159372
vertex 16.657379 14.596764 5.159372
endloop
endfacet
facet normal 0 0 0
outer loop
vertex 16.677855 14.596764 5.159372
vertex 16.657379 14.617517 5.159372
vertex 16.657379 14.596764 5.159372
endloop
endfacet
endsolid B-16-Plag.066
