solid B-16-Plag.292
facet normal 0 0 0
outer loop
vertex 18.049734 14.264711 11.939372
vertex 18.029257 14.285464 11.939372
vertex 18.049734 14.285464 11.939372
endloop
endfacet
facet normal 0 0 0
outer loop
vertex 18.070210 14.264711 11.939372
vertex 18.049734 14.264711 11.939372
vertex 18.070210 14.285464 11.939372
endloop
endfacet
facet normal 0 0 0
outer loop
vertex 18.070210 14.285464 11.939372
vertex 18.049734 14.264711 11.939372
vertex 18.049734 14.285464 11.939372
endloop
endfacet
facet normal 0 0 0
outer loop
vertex 18.090685 14.285464 11.939372
vertex 18.070210 14.264711 11.939372
vertex 18.070210 14.285464 11.939372
endloop
endfacet
facet normal 0 0 0
outer loop
vertex 18.029257 14.285464 11.939372
vertex 18.008781 14.285464 11.939372
vertex 18.029257 14.306217 11.939372
endloop
endfacet
facet normal 0 0 0
outer loop
vertex 18.029257 14.306217 11.939372
vertex 18.008781 14.285464 11.939372
vertex 18.008781 14.306217 11.939372
endloop
endfacet
facet normal 0 0 0
outer loop
vertex 18.049734 14.285464 11.939372
vertex 18.029257 14.285464 11.939372
vertex 18.049734 14.306217 11.939372
endloop
endfacet
facet normal 0 0 0
outer loop
vertex 18.049734 14.306217 11.939372
vertex 18.029257 14.285464 11.939372
vertex 18.029257 14.306217 11.939372
endloop
endfacet
facet normal 0 0 0
outer loop
vertex 18.070210 14.285464 11.939372
vertex 18.049734 14.285464 11.939372
vertex 18.070210 14.306217 11.939372
endloop
endfacet
facet normal 0 0 0
outer loop
vertex 18.070210 14.306217 11.939372
vertex 18.049734 14.285464 11.939372
vertex 18.049734 14.306217 11.939372
endloop
endfacet
facet normal 0 0 0
outer loop
vertex 18.070210 14.306217 11.939372
vertex 18.090685 14.285464 11.939372
vertex 18.070210 14.285464 11.939372
endloop
endfacet
facet normal 0 0 0
outer loop
vertex 18.049734 14.243958 11.959372
vertex 18.029257 14.264711 11.959372
vertex 18.049734 14.264711 11.939372
endloop
endfacet
facet normal 0 0 0
outer loop
vertex 18.070210 14.264711 11.939372
vertex 18.049734 14.243958 11.959372
vertex 18.049734 14.264711 11.939372
endloop
endfacet
facet normal 0 0 0
outer loop
vertex 18.070210 14.243958 11.959372
vertex 18.049734 14.243958 11.959372
vertex 18.070210 14.264711 11.939372
endloop
endfacet
facet normal 0 0 0
outer loop
vertex 18.070210 14.264711 11.939372
vertex 18.090685 14.264711 11.959372
vertex 18.070210 14.243958 11.959372
endloop
endfacet
facet normal 0 0 0
outer loop
vertex 18.029257 14.264711 11.959372
vertex 18.008781 14.285464 11.959372
vertex 18.029257 14.285464 11.939372
endloop
endfacet
facet normal 0 0 0
outer loop
vertex 18.008781 14.285464 11.959372
vertex 18.008781 14.285464 11.939372
vertex 18.029257 14.285464 11.939372
endloop
endfacet
facet normal 0 0 0
outer loop
vertex 18.049734 14.264711 11.939372
vertex 18.029257 14.264711 11.959372
vertex 18.029257 14.285464 11.939372
endloop
endfacet
facet normal 0 0 0
outer loop
vertex 18.070210 14.264711 11.939372
vertex 18.090685 14.285464 11.939372
vertex 18.090685 14.264711 11.959372
endloop
endfacet
facet normal 0 0 0
outer loop
vertex 18.090685 14.264711 11.959372
vertex 18.090685 14.285464 11.939372
vertex 18.090685 14.285464 11.959372
endloop
endfacet
facet normal 0 0 0
outer loop
vertex 18.008781 14.285464 11.939372
vertex 18.008781 14.285464 11.959372
vertex 18.008781 14.306217 11.939372
endloop
endfacet
facet normal 0 0 0
outer loop
vertex 18.008781 14.285464 11.959372
vertex 18.008781 14.306217 11.959372
vertex 18.008781 14.306217 11.939372
endloop
endfacet
facet normal 0 0 0
outer loop
vertex 18.090685 14.285464 11.939372
vertex 18.070210 14.306217 11.959372
vertex 18.090685 14.285464 11.959372
endloop
endfacet
facet normal 0 0 0
outer loop
vertex 18.070210 14.306217 11.939372
vertex 18.070210 14.306217 11.959372
vertex 18.090685 14.285464 11.939372
endloop
endfacet
facet normal 0 0 0
outer loop
vertex 18.029257 14.306217 11.939372
vertex 18.008781 14.306217 11.939372
vertex 18.029257 14.306217 11.959372
endloop
endfacet
facet normal 0 0 0
outer loop
vertex 18.008781 14.306217 11.939372
vertex 18.008781 14.306217 11.959372
vertex 18.029257 14.306217 11.959372
endloop
endfacet
facet normal 0 0 0
outer loop
vertex 18.049734 14.306217 11.939372
vertex 18.029257 14.306217 11.939372
vertex 18.049734 14.306217 11.959372
endloop
endfacet
facet normal 0 0 0
outer loop
vertex 18.029257 14.306217 11.939372
vertex 18.029257 14.306217 11.959372
vertex 18.049734 14.306217 11.959372
endloop
endfacet
facet normal 0 0 0
outer loop
vertex 18.070210 14.306217 11.939372
vertex 18.049734 14.306217 11.939372
vertex 18.070210 14.306217 11.959372
endloop
endfacet
facet normal 0 0 0
outer loop
vertex 18.049734 14.306217 11.939372
vertex 18.049734 14.306217 11.959372
vertex 18.070210 14.306217 11.959372
endloop
endfacet
facet normal 0 0 0
outer loop
vertex 18.029257 14.264711 11.959372
vertex 18.049734 14.243958 11.959372
vertex 18.049734 14.264711 11.959372
endloop
endfacet
facet normal 0 0 0
outer loop
vertex 18.070210 14.243958 11.959372
vertex 18.070210 14.264711 11.959372
vertex 18.049734 14.243958 11.959372
endloop
endfacet
facet normal 0 0 0
outer loop
vertex 18.070210 14.264711 11.959372
vertex 18.049734 14.264711 11.959372
vertex 18.049734 14.243958 11.959372
endloop
endfacet
facet normal 0 0 0
outer loop
vertex 18.090685 14.243958 11.959372
vertex 18.090685 14.264711 11.959372
vertex 18.070210 14.243958 11.959372
endloop
endfacet
facet normal 0 0 0
outer loop
vertex 18.090685 14.264711 11.959372
vertex 18.070210 14.264711 11.959372
vertex 18.070210 14.243958 11.959372
endloop
endfacet
facet normal 0 0 0
outer loop
vertex 18.008781 14.285464 11.959372
vertex 18.029257 14.264711 11.959372
vertex 18.029257 14.285464 11.959372
endloop
endfacet
facet normal 0 0 0
outer loop
vertex 18.049734 14.264711 11.959372
vertex 18.049734 14.285464 11.959372
vertex 18.029257 14.264711 11.959372
endloop
endfacet
facet normal 0 0 0
outer loop
vertex 18.049734 14.285464 11.959372
vertex 18.029257 14.285464 11.959372
vertex 18.029257 14.264711 11.959372
endloop
endfacet
facet normal 0 0 0
outer loop
vertex 18.070210 14.264711 11.959372
vertex 18.070210 14.285464 11.959372
vertex 18.049734 14.264711 11.959372
endloop
endfacet
facet normal 0 0 0
outer loop
vertex 18.070210 14.285464 11.959372
vertex 18.049734 14.285464 11.959372
vertex 18.049734 14.264711 11.959372
endloop
endfacet
facet normal 0 0 0
outer loop
vertex 18.090685 14.264711 11.959372
vertex 18.090685 14.285464 11.959372
vertex 18.070210 14.264711 11.959372
endloop
endfacet
facet normal 0 0 0
outer loop
vertex 18.090685 14.285464 11.959372
vertex 18.070210 14.285464 11.959372
vertex 18.070210 14.264711 11.959372
endloop
endfacet
facet normal 0 0 0
outer loop
vertex 18.029257 14.285464 11.959372
vertex 18.029257 14.306217 11.959372
vertex 18.008781 14.285464 11.959372
endloop
endfacet
facet normal 0 0 0
outer loop
vertex 18.029257 14.306217 11.959372
vertex 18.008781 14.306217 11.959372
vertex 18.008781 14.285464 11.959372
endloop
endfacet
facet normal 0 0 0
outer loop
vertex 18.049734 14.285464 11.959372
vertex 18.049734 14.306217 11.959372
vertex 18.029257 14.285464 11.959372
endloop
endfacet
facet normal 0 0 0
outer loop
vertex 18.049734 14.306217 11.959372
vertex 18.029257 14.306217 11.959372
vertex 18.029257 14.285464 11.959372
endloop
endfacet
facet normal 0 0 0
outer loop
vertex 18.070210 14.285464 11.959372
vertex 18.070210 14.306217 11.959372
vertex 18.049734 14.285464 11.959372
endloop
endfacet
facet normal 0 0 0
outer loop
vertex 18.070210 14.306217 11.959372
vertex 18.049734 14.306217 11.959372
vertex 18.049734 14.285464 11.959372
endloop
endfacet
facet normal 0 0 0
outer loop
vertex 18.090685 14.285464 11.959372
vertex 18.070210 14.306217 11.959372
vertex 18.070210 14.285464 11.959372
endloop
endfacet
endsolid B-16-Plag.292
