solid B-16-Plag.091
facet normal 0 0 0
outer loop
vertex 14.527895 8.640561 6.019372
vertex 14.507420 8.661314 6.019372
vertex 14.527895 8.661314 6.019372
endloop
endfacet
facet normal 0 0 0
outer loop
vertex 14.548372 8.661314 6.019372
vertex 14.527895 8.640561 6.019372
vertex 14.527895 8.661314 6.019372
endloop
endfacet
facet normal 0 0 0
outer loop
vertex 14.507420 8.661314 6.019372
vertex 14.486944 8.682068 6.019372
vertex 14.507420 8.682068 6.019372
endloop
endfacet
facet normal 0 0 0
outer loop
vertex 14.527895 8.661314 6.019372
vertex 14.507420 8.661314 6.019372
vertex 14.527895 8.682068 6.019372
endloop
endfacet
facet normal 0 0 0
outer loop
vertex 14.527895 8.682068 6.019372
vertex 14.507420 8.661314 6.019372
vertex 14.507420 8.682068 6.019372
endloop
endfacet
facet normal 0 0 0
outer loop
vertex 14.548372 8.661314 6.019372
vertex 14.527895 8.661314 6.019372
vertex 14.548372 8.682068 6.019372
endloop
endfacet
facet normal 0 0 0
outer loop
vertex 14.548372 8.682068 6.019372
vertex 14.527895 8.661314 6.019372
vertex 14.527895 8.682068 6.019372
endloop
endfacet
facet normal 0 0 0
outer loop
vertex 14.507420 8.682068 6.019372
vertex 14.486944 8.682068 6.019372
vertex 14.507420 8.702821 6.019372
endloop
endfacet
facet normal 0 0 0
outer loop
vertex 14.507420 8.702821 6.019372
vertex 14.486944 8.682068 6.019372
vertex 14.486944 8.702821 6.019372
endloop
endfacet
facet normal 0 0 0
outer loop
vertex 14.527895 8.682068 6.019372
vertex 14.507420 8.682068 6.019372
vertex 14.527895 8.702821 6.019372
endloop
endfacet
facet normal 0 0 0
outer loop
vertex 14.527895 8.702821 6.019372
vertex 14.507420 8.682068 6.019372
vertex 14.507420 8.702821 6.019372
endloop
endfacet
facet normal 0 0 0
outer loop
vertex 14.548372 8.682068 6.019372
vertex 14.527895 8.682068 6.019372
vertex 14.548372 8.702821 6.019372
endloop
endfacet
facet normal 0 0 0
outer loop
vertex 14.548372 8.702821 6.019372
vertex 14.527895 8.682068 6.019372
vertex 14.527895 8.702821 6.019372
endloop
endfacet
facet normal 0 0 0
outer loop
vertex 14.568848 8.702821 6.019372
vertex 14.548372 8.682068 6.019372
vertex 14.548372 8.702821 6.019372
endloop
endfacet
facet normal 0 0 0
outer loop
vertex 14.486944 8.702821 6.019372
vertex 14.466469 8.723575 6.019372
vertex 14.486944 8.723575 6.019372
endloop
endfacet
facet normal 0 0 0
outer loop
vertex 14.507420 8.702821 6.019372
vertex 14.486944 8.702821 6.019372
vertex 14.507420 8.723575 6.019372
endloop
endfacet
facet normal 0 0 0
outer loop
vertex 14.507420 8.723575 6.019372
vertex 14.486944 8.702821 6.019372
vertex 14.486944 8.723575 6.019372
endloop
endfacet
facet normal 0 0 0
outer loop
vertex 14.527895 8.702821 6.019372
vertex 14.507420 8.702821 6.019372
vertex 14.527895 8.723575 6.019372
endloop
endfacet
facet normal 0 0 0
outer loop
vertex 14.527895 8.723575 6.019372
vertex 14.507420 8.702821 6.019372
vertex 14.507420 8.723575 6.019372
endloop
endfacet
facet normal 0 0 0
outer loop
vertex 14.548372 8.702821 6.019372
vertex 14.527895 8.702821 6.019372
vertex 14.548372 8.723575 6.019372
endloop
endfacet
facet normal 0 0 0
outer loop
vertex 14.548372 8.723575 6.019372
vertex 14.527895 8.702821 6.019372
vertex 14.527895 8.723575 6.019372
endloop
endfacet
facet normal 0 0 0
outer loop
vertex 14.568848 8.702821 6.019372
vertex 14.548372 8.702821 6.019372
vertex 14.568848 8.723575 6.019372
endloop
endfacet
facet normal 0 0 0
outer loop
vertex 14.568848 8.723575 6.019372
vertex 14.548372 8.702821 6.019372
vertex 14.548372 8.723575 6.019372
endloop
endfacet
facet normal 0 0 0
outer loop
vertex 14.486944 8.723575 6.019372
vertex 14.466469 8.723575 6.019372
vertex 14.486944 8.744328 6.019372
endloop
endfacet
facet normal 0 0 0
outer loop
vertex 14.486944 8.744328 6.019372
vertex 14.466469 8.723575 6.019372
vertex 14.466469 8.744328 6.019372
endloop
endfacet
facet normal 0 0 0
outer loop
vertex 14.507420 8.723575 6.019372
vertex 14.486944 8.723575 6.019372
vertex 14.507420 8.744328 6.019372
endloop
endfacet
facet normal 0 0 0
outer loop
vertex 14.507420 8.744328 6.019372
vertex 14.486944 8.723575 6.019372
vertex 14.486944 8.744328 6.019372
endloop
endfacet
facet normal 0 0 0
outer loop
vertex 14.527895 8.723575 6.019372
vertex 14.507420 8.723575 6.019372
vertex 14.527895 8.744328 6.019372
endloop
endfacet
facet normal 0 0 0
outer loop
vertex 14.527895 8.744328 6.019372
vertex 14.507420 8.723575 6.019372
vertex 14.507420 8.744328 6.019372
endloop
endfacet
facet normal 0 0 0
outer loop
vertex 14.548372 8.723575 6.019372
vertex 14.527895 8.723575 6.019372
vertex 14.548372 8.744328 6.019372
endloop
endfacet
facet normal 0 0 0
outer loop
vertex 14.548372 8.744328 6.019372
vertex 14.527895 8.723575 6.019372
vertex 14.527895 8.744328 6.019372
endloop
endfacet
facet normal 0 0 0
outer loop
vertex 14.568848 8.723575 6.019372
vertex 14.548372 8.723575 6.019372
vertex 14.568848 8.744328 6.019372
endloop
endfacet
facet normal 0 0 0
outer loop
vertex 14.568848 8.744328 6.019372
vertex 14.548372 8.723575 6.019372
vertex 14.548372 8.744328 6.019372
endloop
endfacet
facet normal 0 0 0
outer loop
vertex 14.486944 8.744328 6.019372
vertex 14.466469 8.744328 6.019372
vertex 14.486944 8.765080 6.019372
endloop
endfacet
facet normal 0 0 0
outer loop
vertex 14.486944 8.765080 6.019372
vertex 14.466469 8.744328 6.019372
vertex 14.466469 8.765080 6.019372
endloop
endfacet
facet normal 0 0 0
outer loop
vertex 14.507420 8.744328 6.019372
vertex 14.486944 8.744328 6.019372
vertex 14.507420 8.765080 6.019372
endloop
endfacet
facet normal 0 0 0
outer loop
vertex 14.507420 8.765080 6.019372
vertex 14.486944 8.744328 6.019372
vertex 14.486944 8.765080 6.019372
endloop
endfacet
facet normal 0 0 0
outer loop
vertex 14.527895 8.744328 6.019372
vertex 14.507420 8.744328 6.019372
vertex 14.527895 8.765080 6.019372
endloop
endfacet
facet normal 0 0 0
outer loop
vertex 14.527895 8.765080 6.019372
vertex 14.507420 8.744328 6.019372
vertex 14.507420 8.765080 6.019372
endloop
endfacet
facet normal 0 0 0
outer loop
vertex 14.548372 8.744328 6.019372
vertex 14.527895 8.744328 6.019372
vertex 14.548372 8.765080 6.019372
endloop
endfacet
facet normal 0 0 0
outer loop
vertex 14.548372 8.765080 6.019372
vertex 14.527895 8.744328 6.019372
vertex 14.527895 8.765080 6.019372
endloop
endfacet
facet normal 0 0 0
outer loop
vertex 14.548372 8.765080 6.019372
vertex 14.568848 8.744328 6.019372
vertex 14.548372 8.744328 6.019372
endloop
endfacet
facet normal 0 0 0
outer loop
vertex 14.466469 8.765080 6.019372
vertex 14.486944 8.785834 6.019372
vertex 14.486944 8.765080 6.019372
endloop
endfacet
facet normal 0 0 0
outer loop
vertex 14.507420 8.765080 6.019372
vertex 14.486944 8.765080 6.019372
vertex 14.507420 8.785834 6.019372
endloop
endfacet
facet normal 0 0 0
outer loop
vertex 14.507420 8.785834 6.019372
vertex 14.486944 8.765080 6.019372
vertex 14.486944 8.785834 6.019372
endloop
endfacet
facet normal 0 0 0
outer loop
vertex 14.527895 8.765080 6.019372
vertex 14.507420 8.765080 6.019372
vertex 14.527895 8.785834 6.019372
endloop
endfacet
facet normal 0 0 0
outer loop
vertex 14.527895 8.785834 6.019372
vertex 14.507420 8.765080 6.019372
vertex 14.507420 8.785834 6.019372
endloop
endfacet
facet normal 0 0 0
outer loop
vertex 14.527895 8.785834 6.019372
vertex 14.548372 8.765080 6.019372
vertex 14.527895 8.765080 6.019372
endloop
endfacet
facet normal 0 0 0
outer loop
vertex 14.507420 8.785834 6.019372
vertex 14.486944 8.785834 6.019372
vertex 14.507420 8.806587 6.019372
endloop
endfacet
facet normal 0 0 0
outer loop
vertex 14.507420 8.806587 6.019372
vertex 14.486944 8.785834 6.019372
vertex 14.486944 8.806587 6.019372
endloop
endfacet
facet normal 0 0 0
outer loop
vertex 14.527895 8.785834 6.019372
vertex 14.507420 8.785834 6.019372
vertex 14.527895 8.806587 6.019372
endloop
endfacet
facet normal 0 0 0
outer loop
vertex 14.527895 8.806587 6.019372
vertex 14.507420 8.785834 6.019372
vertex 14.507420 8.806587 6.019372
endloop
endfacet
facet normal 0 0 0
outer loop
vertex 14.507420 8.806587 6.019372
vertex 14.486944 8.806587 6.019372
vertex 14.507420 8.827341 6.019372
endloop
endfacet
facet normal 0 0 0
outer loop
vertex 14.507420 8.827341 6.019372
vertex 14.486944 8.806587 6.019372
vertex 14.486944 8.827341 6.019372
endloop
endfacet
facet normal 0 0 0
outer loop
vertex 14.507420 8.827341 6.019372
vertex 14.527895 8.806587 6.019372
vertex 14.507420 8.806587 6.019372
endloop
endfacet
facet normal 0 0 0
outer loop
vertex 14.507420 8.640561 6.039371
vertex 14.527895 8.640561 6.019372
vertex 14.527895 8.640561 6.039371
endloop
endfacet
facet normal 0 0 0
outer loop
vertex 14.527895 8.640561 6.019372
vertex 14.548372 8.640561 6.039371
vertex 14.527895 8.640561 6.039371
endloop
endfacet
facet normal 0 0 0
outer loop
vertex 14.507420 8.640561 6.039371
vertex 14.486944 8.661314 6.039371
vertex 14.507420 8.661314 6.019372
endloop
endfacet
facet normal 0 0 0
outer loop
vertex 14.527895 8.640561 6.019372
vertex 14.507420 8.640561 6.039371
vertex 14.507420 8.661314 6.019372
endloop
endfacet
facet normal 0 0 0
outer loop
vertex 14.527895 8.640561 6.019372
vertex 14.548372 8.661314 6.019372
vertex 14.548372 8.640561 6.039371
endloop
endfacet
facet normal 0 0 0
outer loop
vertex 14.548372 8.661314 6.019372
vertex 14.568848 8.661314 6.039371
vertex 14.548372 8.640561 6.039371
endloop
endfacet
facet normal 0 0 0
outer loop
vertex 14.486944 8.682068 6.019372
vertex 14.486944 8.661314 6.039371
vertex 14.466469 8.682068 6.039371
endloop
endfacet
facet normal 0 0 0
outer loop
vertex 14.486944 8.661314 6.039371
vertex 14.466469 8.661314 6.039371
vertex 14.466469 8.682068 6.039371
endloop
endfacet
facet normal 0 0 0
outer loop
vertex 14.507420 8.661314 6.019372
vertex 14.486944 8.661314 6.039371
vertex 14.486944 8.682068 6.019372
endloop
endfacet
facet normal 0 0 0
outer loop
vertex 14.568848 8.661314 6.039371
vertex 14.548372 8.661314 6.019372
vertex 14.548372 8.682068 6.039371
endloop
endfacet
facet normal 0 0 0
outer loop
vertex 14.548372 8.661314 6.019372
vertex 14.548372 8.682068 6.019372
vertex 14.548372 8.682068 6.039371
endloop
endfacet
facet normal 0 0 0
outer loop
vertex 14.486944 8.682068 6.019372
vertex 14.466469 8.702821 6.039371
vertex 14.486944 8.702821 6.019372
endloop
endfacet
facet normal 0 0 0
outer loop
vertex 14.466469 8.682068 6.039371
vertex 14.466469 8.702821 6.039371
vertex 14.486944 8.682068 6.019372
endloop
endfacet
facet normal 0 0 0
outer loop
vertex 14.568848 8.702821 6.019372
vertex 14.548372 8.702821 6.039371
vertex 14.548372 8.682068 6.019372
endloop
endfacet
facet normal 0 0 0
outer loop
vertex 14.548372 8.702821 6.039371
vertex 14.548372 8.682068 6.039371
vertex 14.548372 8.682068 6.019372
endloop
endfacet
facet normal 0 0 0
outer loop
vertex 14.466469 8.723575 6.019372
vertex 14.466469 8.702821 6.039371
vertex 14.466469 8.723575 6.039371
endloop
endfacet
facet normal 0 0 0
outer loop
vertex 14.486944 8.702821 6.019372
vertex 14.466469 8.702821 6.039371
vertex 14.466469 8.723575 6.019372
endloop
endfacet
facet normal 0 0 0
outer loop
vertex 14.568848 8.723575 6.019372
vertex 14.548372 8.702821 6.039371
vertex 14.568848 8.702821 6.019372
endloop
endfacet
facet normal 0 0 0
outer loop
vertex 14.548372 8.723575 6.039371
vertex 14.548372 8.702821 6.039371
vertex 14.568848 8.723575 6.019372
endloop
endfacet
facet normal 0 0 0
outer loop
vertex 14.466469 8.723575 6.019372
vertex 14.466469 8.723575 6.039371
vertex 14.466469 8.744328 6.019372
endloop
endfacet
facet normal 0 0 0
outer loop
vertex 14.466469 8.723575 6.039371
vertex 14.466469 8.744328 6.039371
vertex 14.466469 8.744328 6.019372
endloop
endfacet
facet normal 0 0 0
outer loop
vertex 14.568848 8.723575 6.019372
vertex 14.568848 8.744328 6.039371
vertex 14.548372 8.723575 6.039371
endloop
endfacet
facet normal 0 0 0
outer loop
vertex 14.568848 8.744328 6.039371
vertex 14.568848 8.723575 6.019372
vertex 14.568848 8.744328 6.019372
endloop
endfacet
facet normal 0 0 0
outer loop
vertex 14.466469 8.744328 6.019372
vertex 14.466469 8.744328 6.039371
vertex 14.466469 8.765080 6.019372
endloop
endfacet
facet normal 0 0 0
outer loop
vertex 14.466469 8.744328 6.039371
vertex 14.466469 8.765080 6.039371
vertex 14.466469 8.765080 6.019372
endloop
endfacet
facet normal 0 0 0
outer loop
vertex 14.568848 8.744328 6.019372
vertex 14.548372 8.765080 6.039371
vertex 14.568848 8.744328 6.039371
endloop
endfacet
facet normal 0 0 0
outer loop
vertex 14.548372 8.765080 6.019372
vertex 14.548372 8.765080 6.039371
vertex 14.568848 8.744328 6.019372
endloop
endfacet
facet normal 0 0 0
outer loop
vertex 14.466469 8.785834 6.039371
vertex 14.466469 8.765080 6.019372
vertex 14.466469 8.765080 6.039371
endloop
endfacet
facet normal 0 0 0
outer loop
vertex 14.466469 8.765080 6.019372
vertex 14.466469 8.785834 6.039371
vertex 14.486944 8.785834 6.019372
endloop
endfacet
facet normal 0 0 0
outer loop
vertex 14.548372 8.765080 6.019372
vertex 14.527895 8.785834 6.019372
vertex 14.548372 8.785834 6.039371
endloop
endfacet
facet normal 0 0 0
outer loop
vertex 14.548372 8.765080 6.019372
vertex 14.548372 8.785834 6.039371
vertex 14.548372 8.765080 6.039371
endloop
endfacet
facet normal 0 0 0
outer loop
vertex 14.466469 8.785834 6.039371
vertex 14.445992 8.806587 6.039371
vertex 14.466469 8.806587 6.039371
endloop
endfacet
facet normal 0 0 0
outer loop
vertex 14.486944 8.785834 6.019372
vertex 14.466469 8.806587 6.039371
vertex 14.486944 8.806587 6.019372
endloop
endfacet
facet normal 0 0 0
outer loop
vertex 14.466469 8.785834 6.039371
vertex 14.466469 8.806587 6.039371
vertex 14.486944 8.785834 6.019372
endloop
endfacet
facet normal 0 0 0
outer loop
vertex 14.548372 8.785834 6.039371
vertex 14.527895 8.785834 6.019372
vertex 14.527895 8.806587 6.039371
endloop
endfacet
facet normal 0 0 0
outer loop
vertex 14.527895 8.785834 6.019372
vertex 14.527895 8.806587 6.019372
vertex 14.527895 8.806587 6.039371
endloop
endfacet
facet normal 0 0 0
outer loop
vertex 14.466469 8.806587 6.039371
vertex 14.486944 8.827341 6.039371
vertex 14.486944 8.806587 6.019372
endloop
endfacet
facet normal 0 0 0
outer loop
vertex 14.486944 8.827341 6.039371
vertex 14.486944 8.827341 6.019372
vertex 14.486944 8.806587 6.019372
endloop
endfacet
facet normal 0 0 0
outer loop
vertex 14.527895 8.806587 6.019372
vertex 14.507420 8.827341 6.019372
vertex 14.527895 8.827341 6.039371
endloop
endfacet
facet normal 0 0 0
outer loop
vertex 14.527895 8.806587 6.019372
vertex 14.527895 8.827341 6.039371
vertex 14.527895 8.806587 6.039371
endloop
endfacet
facet normal 0 0 0
outer loop
vertex 14.486944 8.848094 6.039371
vertex 14.486944 8.827341 6.019372
vertex 14.486944 8.827341 6.039371
endloop
endfacet
facet normal 0 0 0
outer loop
vertex 14.486944 8.848094 6.039371
vertex 14.507420 8.827341 6.039371
vertex 14.486944 8.827341 6.019372
endloop
endfacet
facet normal 0 0 0
outer loop
vertex 14.507420 8.827341 6.039371
vertex 14.507420 8.827341 6.019372
vertex 14.486944 8.827341 6.019372
endloop
endfacet
facet normal 0 0 0
outer loop
vertex 14.527895 8.827341 6.039371
vertex 14.507420 8.827341 6.019372
vertex 14.507420 8.827341 6.039371
endloop
endfacet
facet normal 0 0 0
outer loop
vertex 14.527895 8.640561 6.039371
vertex 14.527895 8.640561 6.059372
vertex 14.507420 8.640561 6.039371
endloop
endfacet
facet normal 0 0 0
outer loop
vertex 14.507420 8.640561 6.039371
vertex 14.527895 8.640561 6.059372
vertex 14.507420 8.640561 6.059372
endloop
endfacet
facet normal 0 0 0
outer loop
vertex 14.548372 8.640561 6.039371
vertex 14.527895 8.640561 6.059372
vertex 14.527895 8.640561 6.039371
endloop
endfacet
facet normal 0 0 0
outer loop
vertex 14.486944 8.661314 6.059372
vertex 14.466469 8.661314 6.039371
vertex 14.486944 8.661314 6.039371
endloop
endfacet
facet normal 0 0 0
outer loop
vertex 14.507420 8.640561 6.059372
vertex 14.486944 8.661314 6.039371
vertex 14.507420 8.640561 6.039371
endloop
endfacet
facet normal 0 0 0
outer loop
vertex 14.486944 8.661314 6.059372
vertex 14.486944 8.661314 6.039371
vertex 14.507420 8.640561 6.059372
endloop
endfacet
facet normal 0 0 0
outer loop
vertex 14.548372 8.640561 6.039371
vertex 14.548372 8.661314 6.059372
vertex 14.527895 8.640561 6.059372
endloop
endfacet
facet normal 0 0 0
outer loop
vertex 14.568848 8.661314 6.039371
vertex 14.548372 8.661314 6.059372
vertex 14.548372 8.640561 6.039371
endloop
endfacet
facet normal 0 0 0
outer loop
vertex 14.486944 8.682068 6.059372
vertex 14.466469 8.661314 6.039371
vertex 14.486944 8.661314 6.059372
endloop
endfacet
facet normal 0 0 0
outer loop
vertex 14.466469 8.682068 6.039371
vertex 14.466469 8.661314 6.039371
vertex 14.486944 8.682068 6.059372
endloop
endfacet
facet normal 0 0 0
outer loop
vertex 14.568848 8.682068 6.059372
vertex 14.548372 8.661314 6.059372
vertex 14.548372 8.682068 6.039371
endloop
endfacet
facet normal 0 0 0
outer loop
vertex 14.568848 8.661314 6.039371
vertex 14.548372 8.682068 6.039371
vertex 14.548372 8.661314 6.059372
endloop
endfacet
facet normal 0 0 0
outer loop
vertex 14.466469 8.682068 6.039371
vertex 14.466469 8.702821 6.059372
vertex 14.466469 8.702821 6.039371
endloop
endfacet
facet normal 0 0 0
outer loop
vertex 14.486944 8.682068 6.059372
vertex 14.466469 8.702821 6.059372
vertex 14.466469 8.682068 6.039371
endloop
endfacet
facet normal 0 0 0
outer loop
vertex 14.568848 8.682068 6.059372
vertex 14.548372 8.702821 6.039371
vertex 14.568848 8.702821 6.059372
endloop
endfacet
facet normal 0 0 0
outer loop
vertex 14.548372 8.682068 6.039371
vertex 14.548372 8.702821 6.039371
vertex 14.568848 8.682068 6.059372
endloop
endfacet
facet normal 0 0 0
outer loop
vertex 14.589323 8.682068 6.059372
vertex 14.568848 8.682068 6.059372
vertex 14.589323 8.702821 6.059372
endloop
endfacet
facet normal 0 0 0
outer loop
vertex 14.589323 8.702821 6.059372
vertex 14.568848 8.682068 6.059372
vertex 14.568848 8.702821 6.059372
endloop
endfacet
facet normal 0 0 0
outer loop
vertex 14.466469 8.702821 6.039371
vertex 14.466469 8.702821 6.059372
vertex 14.466469 8.723575 6.039371
endloop
endfacet
facet normal 0 0 0
outer loop
vertex 14.466469 8.702821 6.059372
vertex 14.466469 8.723575 6.059372
vertex 14.466469 8.723575 6.039371
endloop
endfacet
facet normal 0 0 0
outer loop
vertex 14.568848 8.702821 6.059372
vertex 14.548372 8.723575 6.039371
vertex 14.568848 8.723575 6.059372
endloop
endfacet
facet normal 0 0 0
outer loop
vertex 14.548372 8.702821 6.039371
vertex 14.548372 8.723575 6.039371
vertex 14.568848 8.702821 6.059372
endloop
endfacet
facet normal 0 0 0
outer loop
vertex 14.589323 8.702821 6.059372
vertex 14.568848 8.702821 6.059372
vertex 14.589323 8.723575 6.059372
endloop
endfacet
facet normal 0 0 0
outer loop
vertex 14.589323 8.723575 6.059372
vertex 14.568848 8.702821 6.059372
vertex 14.568848 8.723575 6.059372
endloop
endfacet
facet normal 0 0 0
outer loop
vertex 14.466469 8.723575 6.039371
vertex 14.466469 8.723575 6.059372
vertex 14.466469 8.744328 6.039371
endloop
endfacet
facet normal 0 0 0
outer loop
vertex 14.466469 8.723575 6.059372
vertex 14.466469 8.744328 6.059372
vertex 14.466469 8.744328 6.039371
endloop
endfacet
facet normal 0 0 0
outer loop
vertex 14.548372 8.723575 6.039371
vertex 14.568848 8.744328 6.039371
vertex 14.568848 8.723575 6.059372
endloop
endfacet
facet normal 0 0 0
outer loop
vertex 14.568848 8.744328 6.039371
vertex 14.589323 8.744328 6.059372
vertex 14.568848 8.723575 6.059372
endloop
endfacet
facet normal 0 0 0
outer loop
vertex 14.589323 8.744328 6.059372
vertex 14.589323 8.723575 6.059372
vertex 14.568848 8.723575 6.059372
endloop
endfacet
facet normal 0 0 0
outer loop
vertex 14.466469 8.744328 6.039371
vertex 14.466469 8.744328 6.059372
vertex 14.466469 8.765080 6.039371
endloop
endfacet
facet normal 0 0 0
outer loop
vertex 14.466469 8.744328 6.059372
vertex 14.466469 8.765080 6.059372
vertex 14.466469 8.765080 6.039371
endloop
endfacet
facet normal 0 0 0
outer loop
vertex 14.568848 8.744328 6.039371
vertex 14.548372 8.765080 6.039371
vertex 14.568848 8.765080 6.059372
endloop
endfacet
facet normal 0 0 0
outer loop
vertex 14.568848 8.744328 6.039371
vertex 14.568848 8.765080 6.059372
vertex 14.589323 8.744328 6.059372
endloop
endfacet
facet normal 0 0 0
outer loop
vertex 14.466469 8.765080 6.039371
vertex 14.466469 8.765080 6.059372
vertex 14.466469 8.785834 6.039371
endloop
endfacet
facet normal 0 0 0
outer loop
vertex 14.466469 8.765080 6.059372
vertex 14.466469 8.785834 6.059372
vertex 14.466469 8.785834 6.039371
endloop
endfacet
facet normal 0 0 0
outer loop
vertex 14.568848 8.765080 6.059372
vertex 14.548372 8.765080 6.039371
vertex 14.548372 8.785834 6.059372
endloop
endfacet
facet normal 0 0 0
outer loop
vertex 14.548372 8.765080 6.039371
vertex 14.548372 8.785834 6.039371
vertex 14.548372 8.785834 6.059372
endloop
endfacet
facet normal 0 0 0
outer loop
vertex 14.445992 8.806587 6.039371
vertex 14.466469 8.785834 6.039371
vertex 14.466469 8.806587 6.059372
endloop
endfacet
facet normal 0 0 0
outer loop
vertex 14.466469 8.785834 6.039371
vertex 14.466469 8.785834 6.059372
vertex 14.466469 8.806587 6.059372
endloop
endfacet
facet normal 0 0 0
outer loop
vertex 14.548372 8.785834 6.039371
vertex 14.527895 8.806587 6.039371
vertex 14.548372 8.806587 6.059372
endloop
endfacet
facet normal 0 0 0
outer loop
vertex 14.548372 8.785834 6.039371
vertex 14.548372 8.806587 6.059372
vertex 14.548372 8.785834 6.059372
endloop
endfacet
facet normal 0 0 0
outer loop
vertex 14.445992 8.806587 6.039371
vertex 14.466469 8.827341 6.059372
vertex 14.466469 8.806587 6.039371
endloop
endfacet
facet normal 0 0 0
outer loop
vertex 14.445992 8.806587 6.039371
vertex 14.466469 8.806587 6.059372
vertex 14.466469 8.827341 6.059372
endloop
endfacet
facet normal 0 0 0
outer loop
vertex 14.466469 8.806587 6.039371
vertex 14.466469 8.827341 6.059372
vertex 14.486944 8.827341 6.039371
endloop
endfacet
facet normal 0 0 0
outer loop
vertex 14.548372 8.806587 6.059372
vertex 14.527895 8.827341 6.039371
vertex 14.548372 8.827341 6.059372
endloop
endfacet
facet normal 0 0 0
outer loop
vertex 14.527895 8.806587 6.039371
vertex 14.527895 8.827341 6.039371
vertex 14.548372 8.806587 6.059372
endloop
endfacet
facet normal 0 0 0
outer loop
vertex 14.486944 8.827341 6.039371
vertex 14.466469 8.848094 6.059372
vertex 14.486944 8.848094 6.039371
endloop
endfacet
facet normal 0 0 0
outer loop
vertex 14.466469 8.827341 6.059372
vertex 14.466469 8.848094 6.059372
vertex 14.486944 8.827341 6.039371
endloop
endfacet
facet normal 0 0 0
outer loop
vertex 14.507420 8.827341 6.039371
vertex 14.486944 8.848094 6.039371
vertex 14.507420 8.848094 6.059372
endloop
endfacet
facet normal 0 0 0
outer loop
vertex 14.507420 8.827341 6.039371
vertex 14.527895 8.848094 6.059372
vertex 14.527895 8.827341 6.039371
endloop
endfacet
facet normal 0 0 0
outer loop
vertex 14.507420 8.848094 6.059372
vertex 14.527895 8.848094 6.059372
vertex 14.507420 8.827341 6.039371
endloop
endfacet
facet normal 0 0 0
outer loop
vertex 14.527895 8.827341 6.039371
vertex 14.527895 8.848094 6.059372
vertex 14.548372 8.827341 6.059372
endloop
endfacet
facet normal 0 0 0
outer loop
vertex 14.486944 8.848094 6.039371
vertex 14.466469 8.868848 6.059372
vertex 14.486944 8.868848 6.039371
endloop
endfacet
facet normal 0 0 0
outer loop
vertex 14.466469 8.848094 6.059372
vertex 14.466469 8.868848 6.059372
vertex 14.486944 8.848094 6.039371
endloop
endfacet
facet normal 0 0 0
outer loop
vertex 14.507420 8.848094 6.059372
vertex 14.486944 8.868848 6.039371
vertex 14.507420 8.868848 6.059372
endloop
endfacet
facet normal 0 0 0
outer loop
vertex 14.486944 8.848094 6.039371
vertex 14.486944 8.868848 6.039371
vertex 14.507420 8.848094 6.059372
endloop
endfacet
facet normal 0 0 0
outer loop
vertex 14.507420 8.868848 6.059372
vertex 14.527895 8.848094 6.059372
vertex 14.507420 8.848094 6.059372
endloop
endfacet
facet normal 0 0 0
outer loop
vertex 14.486944 8.868848 6.039371
vertex 14.466469 8.868848 6.059372
vertex 14.486944 8.868848 6.059372
endloop
endfacet
facet normal 0 0 0
outer loop
vertex 14.507420 8.868848 6.059372
vertex 14.486944 8.868848 6.039371
vertex 14.486944 8.868848 6.059372
endloop
endfacet
facet normal 0 0 0
outer loop
vertex 14.507420 8.640561 6.059372
vertex 14.507420 8.661314 6.079371
vertex 14.486944 8.661314 6.059372
endloop
endfacet
facet normal 0 0 0
outer loop
vertex 14.507420 8.661314 6.079371
vertex 14.486944 8.661314 6.079371
vertex 14.486944 8.661314 6.059372
endloop
endfacet
facet normal 0 0 0
outer loop
vertex 14.527895 8.640561 6.059372
vertex 14.507420 8.661314 6.079371
vertex 14.507420 8.640561 6.059372
endloop
endfacet
facet normal 0 0 0
outer loop
vertex 14.527895 8.661314 6.079371
vertex 14.507420 8.661314 6.079371
vertex 14.527895 8.640561 6.059372
endloop
endfacet
facet normal 0 0 0
outer loop
vertex 14.527895 8.640561 6.059372
vertex 14.548372 8.661314 6.059372
vertex 14.527895 8.661314 6.079371
endloop
endfacet
facet normal 0 0 0
outer loop
vertex 14.548372 8.661314 6.059372
vertex 14.548372 8.661314 6.079371
vertex 14.527895 8.661314 6.079371
endloop
endfacet
facet normal 0 0 0
outer loop
vertex 14.486944 8.661314 6.059372
vertex 14.486944 8.661314 6.079371
vertex 14.486944 8.682068 6.059372
endloop
endfacet
facet normal 0 0 0
outer loop
vertex 14.486944 8.661314 6.079371
vertex 14.486944 8.682068 6.079371
vertex 14.486944 8.682068 6.059372
endloop
endfacet
facet normal 0 0 0
outer loop
vertex 14.548372 8.661314 6.059372
vertex 14.568848 8.682068 6.079371
vertex 14.548372 8.661314 6.079371
endloop
endfacet
facet normal 0 0 0
outer loop
vertex 14.568848 8.682068 6.059372
vertex 14.568848 8.682068 6.079371
vertex 14.548372 8.661314 6.059372
endloop
endfacet
facet normal 0 0 0
outer loop
vertex 14.589323 8.682068 6.059372
vertex 14.568848 8.682068 6.079371
vertex 14.568848 8.682068 6.059372
endloop
endfacet
facet normal 0 0 0
outer loop
vertex 14.466469 8.702821 6.059372
vertex 14.486944 8.682068 6.059372
vertex 14.486944 8.702821 6.079371
endloop
endfacet
facet normal 0 0 0
outer loop
vertex 14.486944 8.682068 6.059372
vertex 14.486944 8.682068 6.079371
vertex 14.486944 8.702821 6.079371
endloop
endfacet
facet normal 0 0 0
outer loop
vertex 14.589323 8.702821 6.059372
vertex 14.568848 8.682068 6.079371
vertex 14.589323 8.682068 6.059372
endloop
endfacet
facet normal 0 0 0
outer loop
vertex 14.568848 8.702821 6.079371
vertex 14.568848 8.682068 6.079371
vertex 14.589323 8.702821 6.059372
endloop
endfacet
facet normal 0 0 0
outer loop
vertex 14.486944 8.723575 6.079371
vertex 14.466469 8.702821 6.059372
vertex 14.486944 8.702821 6.079371
endloop
endfacet
facet normal 0 0 0
outer loop
vertex 14.466469 8.723575 6.059372
vertex 14.466469 8.702821 6.059372
vertex 14.486944 8.723575 6.079371
endloop
endfacet
facet normal 0 0 0
outer loop
vertex 14.589323 8.723575 6.059372
vertex 14.568848 8.702821 6.079371
vertex 14.589323 8.702821 6.059372
endloop
endfacet
facet normal 0 0 0
outer loop
vertex 14.568848 8.723575 6.079371
vertex 14.568848 8.702821 6.079371
vertex 14.589323 8.723575 6.059372
endloop
endfacet
facet normal 0 0 0
outer loop
vertex 14.486944 8.744328 6.079371
vertex 14.466469 8.723575 6.059372
vertex 14.486944 8.723575 6.079371
endloop
endfacet
facet normal 0 0 0
outer loop
vertex 14.466469 8.744328 6.059372
vertex 14.466469 8.723575 6.059372
vertex 14.486944 8.744328 6.079371
endloop
endfacet
facet normal 0 0 0
outer loop
vertex 14.589323 8.744328 6.059372
vertex 14.568848 8.723575 6.079371
vertex 14.589323 8.723575 6.059372
endloop
endfacet
facet normal 0 0 0
outer loop
vertex 14.568848 8.744328 6.079371
vertex 14.568848 8.723575 6.079371
vertex 14.589323 8.744328 6.059372
endloop
endfacet
facet normal 0 0 0
outer loop
vertex 14.486944 8.765080 6.079371
vertex 14.466469 8.744328 6.059372
vertex 14.486944 8.744328 6.079371
endloop
endfacet
facet normal 0 0 0
outer loop
vertex 14.466469 8.765080 6.059372
vertex 14.466469 8.744328 6.059372
vertex 14.486944 8.765080 6.079371
endloop
endfacet
facet normal 0 0 0
outer loop
vertex 14.568848 8.765080 6.059372
vertex 14.548372 8.765080 6.079371
vertex 14.568848 8.744328 6.079371
endloop
endfacet
facet normal 0 0 0
outer loop
vertex 14.589323 8.744328 6.059372
vertex 14.568848 8.765080 6.059372
vertex 14.568848 8.744328 6.079371
endloop
endfacet
facet normal 0 0 0
outer loop
vertex 14.466469 8.765080 6.059372
vertex 14.466469 8.785834 6.079371
vertex 14.466469 8.785834 6.059372
endloop
endfacet
facet normal 0 0 0
outer loop
vertex 14.486944 8.765080 6.079371
vertex 14.466469 8.785834 6.079371
vertex 14.466469 8.765080 6.059372
endloop
endfacet
facet normal 0 0 0
outer loop
vertex 14.568848 8.765080 6.059372
vertex 14.548372 8.785834 6.059372
vertex 14.548372 8.765080 6.079371
endloop
endfacet
facet normal 0 0 0
outer loop
vertex 14.548372 8.785834 6.059372
vertex 14.548372 8.785834 6.079371
vertex 14.548372 8.765080 6.079371
endloop
endfacet
facet normal 0 0 0
outer loop
vertex 14.466469 8.785834 6.059372
vertex 14.466469 8.785834 6.079371
vertex 14.466469 8.806587 6.059372
endloop
endfacet
facet normal 0 0 0
outer loop
vertex 14.466469 8.785834 6.079371
vertex 14.466469 8.806587 6.079371
vertex 14.466469 8.806587 6.059372
endloop
endfacet
facet normal 0 0 0
outer loop
vertex 14.548372 8.785834 6.059372
vertex 14.548372 8.806587 6.059372
vertex 14.548372 8.785834 6.079371
endloop
endfacet
facet normal 0 0 0
outer loop
vertex 14.548372 8.785834 6.079371
vertex 14.548372 8.806587 6.059372
vertex 14.548372 8.806587 6.079371
endloop
endfacet
facet normal 0 0 0
outer loop
vertex 14.445992 8.827341 6.079371
vertex 14.466469 8.827341 6.059372
vertex 14.466469 8.806587 6.079371
endloop
endfacet
facet normal 0 0 0
outer loop
vertex 14.466469 8.827341 6.059372
vertex 14.466469 8.806587 6.059372
vertex 14.466469 8.806587 6.079371
endloop
endfacet
facet normal 0 0 0
outer loop
vertex 14.568848 8.827341 6.079371
vertex 14.548372 8.806587 6.079371
vertex 14.548372 8.827341 6.059372
endloop
endfacet
facet normal 0 0 0
outer loop
vertex 14.548372 8.806587 6.079371
vertex 14.548372 8.806587 6.059372
vertex 14.548372 8.827341 6.059372
endloop
endfacet
facet normal 0 0 0
outer loop
vertex 14.445992 8.848094 6.079371
vertex 14.466469 8.827341 6.079371
vertex 14.445992 8.827341 6.079371
endloop
endfacet
facet normal 0 0 0
outer loop
vertex 14.445992 8.827341 6.079371
vertex 14.466469 8.827341 6.079371
vertex 14.466469 8.827341 6.059372
endloop
endfacet
facet normal 0 0 0
outer loop
vertex 14.466469 8.827341 6.059372
vertex 14.466469 8.827341 6.079371
vertex 14.466469 8.848094 6.059372
endloop
endfacet
facet normal 0 0 0
outer loop
vertex 14.466469 8.827341 6.079371
vertex 14.486944 8.848094 6.079371
vertex 14.466469 8.848094 6.059372
endloop
endfacet
facet normal 0 0 0
outer loop
vertex 14.548372 8.827341 6.059372
vertex 14.527895 8.848094 6.059372
vertex 14.548372 8.848094 6.079371
endloop
endfacet
facet normal 0 0 0
outer loop
vertex 14.548372 8.827341 6.059372
vertex 14.548372 8.848094 6.079371
vertex 14.568848 8.827341 6.079371
endloop
endfacet
facet normal 0 0 0
outer loop
vertex 14.486944 8.868848 6.079371
vertex 14.466469 8.848094 6.059372
vertex 14.486944 8.848094 6.079371
endloop
endfacet
facet normal 0 0 0
outer loop
vertex 14.466469 8.868848 6.059372
vertex 14.466469 8.848094 6.059372
vertex 14.486944 8.868848 6.079371
endloop
endfacet
facet normal 0 0 0
outer loop
vertex 14.527895 8.848094 6.059372
vertex 14.507420 8.868848 6.059372
vertex 14.527895 8.868848 6.079371
endloop
endfacet
facet normal 0 0 0
outer loop
vertex 14.527895 8.848094 6.059372
vertex 14.527895 8.868848 6.079371
vertex 14.548372 8.848094 6.079371
endloop
endfacet
facet normal 0 0 0
outer loop
vertex 14.466469 8.868848 6.059372
vertex 14.486944 8.868848 6.079371
vertex 14.486944 8.868848 6.059372
endloop
endfacet
facet normal 0 0 0
outer loop
vertex 14.507420 8.868848 6.059372
vertex 14.486944 8.868848 6.059372
vertex 14.507420 8.868848 6.079371
endloop
endfacet
facet normal 0 0 0
outer loop
vertex 14.486944 8.868848 6.059372
vertex 14.486944 8.868848 6.079371
vertex 14.507420 8.868848 6.079371
endloop
endfacet
facet normal 0 0 0
outer loop
vertex 14.527895 8.868848 6.079371
vertex 14.507420 8.868848 6.059372
vertex 14.507420 8.868848 6.079371
endloop
endfacet
facet normal 0 0 0
outer loop
vertex 14.507420 8.661314 6.079371
vertex 14.507420 8.682068 6.079371
vertex 14.486944 8.661314 6.079371
endloop
endfacet
facet normal 0 0 0
outer loop
vertex 14.507420 8.682068 6.079371
vertex 14.486944 8.682068 6.079371
vertex 14.486944 8.661314 6.079371
endloop
endfacet
facet normal 0 0 0
outer loop
vertex 14.527895 8.661314 6.079371
vertex 14.527895 8.682068 6.079371
vertex 14.507420 8.661314 6.079371
endloop
endfacet
facet normal 0 0 0
outer loop
vertex 14.527895 8.682068 6.079371
vertex 14.507420 8.682068 6.079371
vertex 14.507420 8.661314 6.079371
endloop
endfacet
facet normal 0 0 0
outer loop
vertex 14.548372 8.661314 6.079371
vertex 14.548372 8.682068 6.079371
vertex 14.527895 8.661314 6.079371
endloop
endfacet
facet normal 0 0 0
outer loop
vertex 14.548372 8.682068 6.079371
vertex 14.527895 8.682068 6.079371
vertex 14.527895 8.661314 6.079371
endloop
endfacet
facet normal 0 0 0
outer loop
vertex 14.548372 8.661314 6.079371
vertex 14.568848 8.682068 6.099372
vertex 14.548372 8.682068 6.079371
endloop
endfacet
facet normal 0 0 0
outer loop
vertex 14.548372 8.661314 6.079371
vertex 14.568848 8.682068 6.079371
vertex 14.568848 8.682068 6.099372
endloop
endfacet
facet normal 0 0 0
outer loop
vertex 14.507420 8.682068 6.079371
vertex 14.507420 8.702821 6.079371
vertex 14.486944 8.682068 6.079371
endloop
endfacet
facet normal 0 0 0
outer loop
vertex 14.507420 8.702821 6.079371
vertex 14.486944 8.702821 6.079371
vertex 14.486944 8.682068 6.079371
endloop
endfacet
facet normal 0 0 0
outer loop
vertex 14.527895 8.702821 6.099372
vertex 14.507420 8.702821 6.079371
vertex 14.527895 8.682068 6.079371
endloop
endfacet
facet normal 0 0 0
outer loop
vertex 14.507420 8.702821 6.079371
vertex 14.507420 8.682068 6.079371
vertex 14.527895 8.682068 6.079371
endloop
endfacet
facet normal 0 0 0
outer loop
vertex 14.548372 8.682068 6.079371
vertex 14.527895 8.702821 6.099372
vertex 14.527895 8.682068 6.079371
endloop
endfacet
facet normal 0 0 0
outer loop
vertex 14.548372 8.702821 6.099372
vertex 14.527895 8.702821 6.099372
vertex 14.548372 8.682068 6.079371
endloop
endfacet
facet normal 0 0 0
outer loop
vertex 14.568848 8.682068 6.099372
vertex 14.548372 8.702821 6.099372
vertex 14.548372 8.682068 6.079371
endloop
endfacet
facet normal 0 0 0
outer loop
vertex 14.589323 8.702821 6.099372
vertex 14.568848 8.682068 6.099372
vertex 14.568848 8.702821 6.079371
endloop
endfacet
facet normal 0 0 0
outer loop
vertex 14.568848 8.682068 6.099372
vertex 14.568848 8.682068 6.079371
vertex 14.568848 8.702821 6.079371
endloop
endfacet
facet normal 0 0 0
outer loop
vertex 14.507420 8.723575 6.099372
vertex 14.486944 8.723575 6.079371
vertex 14.507420 8.702821 6.079371
endloop
endfacet
facet normal 0 0 0
outer loop
vertex 14.486944 8.723575 6.079371
vertex 14.486944 8.702821 6.079371
vertex 14.507420 8.702821 6.079371
endloop
endfacet
facet normal 0 0 0
outer loop
vertex 14.527895 8.702821 6.099372
vertex 14.507420 8.723575 6.099372
vertex 14.507420 8.702821 6.079371
endloop
endfacet
facet normal 0 0 0
outer loop
vertex 14.589323 8.702821 6.099372
vertex 14.568848 8.723575 6.079371
vertex 14.589323 8.723575 6.099372
endloop
endfacet
facet normal 0 0 0
outer loop
vertex 14.568848 8.702821 6.079371
vertex 14.568848 8.723575 6.079371
vertex 14.589323 8.702821 6.099372
endloop
endfacet
facet normal 0 0 0
outer loop
vertex 14.486944 8.723575 6.079371
vertex 14.486944 8.744328 6.099372
vertex 14.486944 8.744328 6.079371
endloop
endfacet
facet normal 0 0 0
outer loop
vertex 14.507420 8.723575 6.099372
vertex 14.486944 8.744328 6.099372
vertex 14.486944 8.723575 6.079371
endloop
endfacet
facet normal 0 0 0
outer loop
vertex 14.589323 8.723575 6.099372
vertex 14.568848 8.744328 6.079371
vertex 14.589323 8.744328 6.099372
endloop
endfacet
facet normal 0 0 0
outer loop
vertex 14.568848 8.723575 6.079371
vertex 14.568848 8.744328 6.079371
vertex 14.589323 8.723575 6.099372
endloop
endfacet
facet normal 0 0 0
outer loop
vertex 14.486944 8.744328 6.079371
vertex 14.486944 8.744328 6.099372
vertex 14.486944 8.765080 6.079371
endloop
endfacet
facet normal 0 0 0
outer loop
vertex 14.486944 8.744328 6.099372
vertex 14.486944 8.765080 6.099372
vertex 14.486944 8.765080 6.079371
endloop
endfacet
facet normal 0 0 0
outer loop
vertex 14.568848 8.744328 6.079371
vertex 14.548372 8.765080 6.079371
vertex 14.568848 8.765080 6.099372
endloop
endfacet
facet normal 0 0 0
outer loop
vertex 14.568848 8.744328 6.079371
vertex 14.568848 8.765080 6.099372
vertex 14.589323 8.744328 6.099372
endloop
endfacet
facet normal 0 0 0
outer loop
vertex 14.466469 8.785834 6.079371
vertex 14.486944 8.765080 6.079371
vertex 14.486944 8.785834 6.099372
endloop
endfacet
facet normal 0 0 0
outer loop
vertex 14.486944 8.765080 6.079371
vertex 14.486944 8.765080 6.099372
vertex 14.486944 8.785834 6.099372
endloop
endfacet
facet normal 0 0 0
outer loop
vertex 14.568848 8.765080 6.099372
vertex 14.548372 8.785834 6.079371
vertex 14.568848 8.785834 6.099372
endloop
endfacet
facet normal 0 0 0
outer loop
vertex 14.548372 8.765080 6.079371
vertex 14.548372 8.785834 6.079371
vertex 14.568848 8.765080 6.099372
endloop
endfacet
facet normal 0 0 0
outer loop
vertex 14.486944 8.806587 6.099372
vertex 14.466469 8.785834 6.079371
vertex 14.486944 8.785834 6.099372
endloop
endfacet
facet normal 0 0 0
outer loop
vertex 14.466469 8.806587 6.079371
vertex 14.466469 8.785834 6.079371
vertex 14.486944 8.806587 6.099372
endloop
endfacet
facet normal 0 0 0
outer loop
vertex 14.568848 8.785834 6.099372
vertex 14.548372 8.806587 6.079371
vertex 14.568848 8.806587 6.099372
endloop
endfacet
facet normal 0 0 0
outer loop
vertex 14.548372 8.785834 6.079371
vertex 14.548372 8.806587 6.079371
vertex 14.568848 8.785834 6.099372
endloop
endfacet
facet normal 0 0 0
outer loop
vertex 14.445992 8.827341 6.079371
vertex 14.466469 8.806587 6.079371
vertex 14.466469 8.827341 6.079371
endloop
endfacet
facet normal 0 0 0
outer loop
vertex 14.486944 8.827341 6.099372
vertex 14.466469 8.806587 6.079371
vertex 14.486944 8.806587 6.099372
endloop
endfacet
facet normal 0 0 0
outer loop
vertex 14.466469 8.827341 6.079371
vertex 14.466469 8.806587 6.079371
vertex 14.486944 8.827341 6.099372
endloop
endfacet
facet normal 0 0 0
outer loop
vertex 14.548372 8.806587 6.079371
vertex 14.568848 8.827341 6.079371
vertex 14.568848 8.806587 6.099372
endloop
endfacet
facet normal 0 0 0
outer loop
vertex 14.568848 8.806587 6.099372
vertex 14.568848 8.827341 6.079371
vertex 14.568848 8.827341 6.099372
endloop
endfacet
facet normal 0 0 0
outer loop
vertex 14.466469 8.827341 6.079371
vertex 14.486944 8.827341 6.099372
vertex 14.486944 8.848094 6.079371
endloop
endfacet
facet normal 0 0 0
outer loop
vertex 14.486944 8.827341 6.099372
vertex 14.486944 8.848094 6.099372
vertex 14.486944 8.848094 6.079371
endloop
endfacet
facet normal 0 0 0
outer loop
vertex 14.568848 8.827341 6.079371
vertex 14.548372 8.848094 6.079371
vertex 14.568848 8.848094 6.099372
endloop
endfacet
facet normal 0 0 0
outer loop
vertex 14.568848 8.827341 6.079371
vertex 14.568848 8.848094 6.099372
vertex 14.568848 8.827341 6.099372
endloop
endfacet
facet normal 0 0 0
outer loop
vertex 14.486944 8.848094 6.079371
vertex 14.486944 8.848094 6.099372
vertex 14.486944 8.868848 6.079371
endloop
endfacet
facet normal 0 0 0
outer loop
vertex 14.486944 8.848094 6.099372
vertex 14.486944 8.868848 6.099372
vertex 14.486944 8.868848 6.079371
endloop
endfacet
facet normal 0 0 0
outer loop
vertex 14.548372 8.848094 6.079371
vertex 14.527895 8.868848 6.079371
vertex 14.548372 8.868848 6.099372
endloop
endfacet
facet normal 0 0 0
outer loop
vertex 14.548372 8.848094 6.079371
vertex 14.548372 8.868848 6.099372
vertex 14.568848 8.848094 6.099372
endloop
endfacet
facet normal 0 0 0
outer loop
vertex 14.507420 8.889601 6.099372
vertex 14.507420 8.868848 6.079371
vertex 14.486944 8.868848 6.099372
endloop
endfacet
facet normal 0 0 0
outer loop
vertex 14.507420 8.868848 6.079371
vertex 14.486944 8.868848 6.079371
vertex 14.486944 8.868848 6.099372
endloop
endfacet
facet normal 0 0 0
outer loop
vertex 14.507420 8.868848 6.079371
vertex 14.527895 8.889601 6.099372
vertex 14.527895 8.868848 6.079371
endloop
endfacet
facet normal 0 0 0
outer loop
vertex 14.507420 8.889601 6.099372
vertex 14.527895 8.889601 6.099372
vertex 14.507420 8.868848 6.079371
endloop
endfacet
facet normal 0 0 0
outer loop
vertex 14.527895 8.868848 6.079371
vertex 14.527895 8.889601 6.099372
vertex 14.548372 8.868848 6.099372
endloop
endfacet
facet normal 0 0 0
outer loop
vertex 14.548372 8.702821 6.099372
vertex 14.568848 8.682068 6.099372
vertex 14.568848 8.702821 6.099372
endloop
endfacet
facet normal 0 0 0
outer loop
vertex 14.568848 8.682068 6.099372
vertex 14.589323 8.702821 6.099372
vertex 14.568848 8.702821 6.099372
endloop
endfacet
facet normal 0 0 0
outer loop
vertex 14.507420 8.723575 6.099372
vertex 14.527895 8.702821 6.099372
vertex 14.527895 8.723575 6.099372
endloop
endfacet
facet normal 0 0 0
outer loop
vertex 14.548372 8.702821 6.099372
vertex 14.548372 8.723575 6.099372
vertex 14.527895 8.702821 6.099372
endloop
endfacet
facet normal 0 0 0
outer loop
vertex 14.548372 8.723575 6.099372
vertex 14.527895 8.723575 6.099372
vertex 14.527895 8.702821 6.099372
endloop
endfacet
facet normal 0 0 0
outer loop
vertex 14.568848 8.702821 6.099372
vertex 14.568848 8.723575 6.099372
vertex 14.548372 8.702821 6.099372
endloop
endfacet
facet normal 0 0 0
outer loop
vertex 14.568848 8.723575 6.099372
vertex 14.548372 8.723575 6.099372
vertex 14.548372 8.702821 6.099372
endloop
endfacet
facet normal 0 0 0
outer loop
vertex 14.589323 8.702821 6.099372
vertex 14.589323 8.723575 6.099372
vertex 14.568848 8.702821 6.099372
endloop
endfacet
facet normal 0 0 0
outer loop
vertex 14.589323 8.723575 6.099372
vertex 14.568848 8.723575 6.099372
vertex 14.568848 8.702821 6.099372
endloop
endfacet
facet normal 0 0 0
outer loop
vertex 14.486944 8.744328 6.099372
vertex 14.507420 8.723575 6.099372
vertex 14.507420 8.744328 6.099372
endloop
endfacet
facet normal 0 0 0
outer loop
vertex 14.527895 8.723575 6.099372
vertex 14.527895 8.744328 6.099372
vertex 14.507420 8.723575 6.099372
endloop
endfacet
facet normal 0 0 0
outer loop
vertex 14.527895 8.744328 6.099372
vertex 14.507420 8.744328 6.099372
vertex 14.507420 8.723575 6.099372
endloop
endfacet
facet normal 0 0 0
outer loop
vertex 14.548372 8.723575 6.099372
vertex 14.548372 8.744328 6.099372
vertex 14.527895 8.723575 6.099372
endloop
endfacet
facet normal 0 0 0
outer loop
vertex 14.548372 8.744328 6.099372
vertex 14.527895 8.744328 6.099372
vertex 14.527895 8.723575 6.099372
endloop
endfacet
facet normal 0 0 0
outer loop
vertex 14.568848 8.723575 6.099372
vertex 14.568848 8.744328 6.099372
vertex 14.548372 8.723575 6.099372
endloop
endfacet
facet normal 0 0 0
outer loop
vertex 14.568848 8.744328 6.099372
vertex 14.548372 8.744328 6.099372
vertex 14.548372 8.723575 6.099372
endloop
endfacet
facet normal 0 0 0
outer loop
vertex 14.589323 8.723575 6.099372
vertex 14.589323 8.744328 6.099372
vertex 14.568848 8.723575 6.099372
endloop
endfacet
facet normal 0 0 0
outer loop
vertex 14.589323 8.744328 6.099372
vertex 14.568848 8.744328 6.099372
vertex 14.568848 8.723575 6.099372
endloop
endfacet
facet normal 0 0 0
outer loop
vertex 14.507420 8.765080 6.119372
vertex 14.486944 8.765080 6.099372
vertex 14.507420 8.744328 6.099372
endloop
endfacet
facet normal 0 0 0
outer loop
vertex 14.486944 8.765080 6.099372
vertex 14.486944 8.744328 6.099372
vertex 14.507420 8.744328 6.099372
endloop
endfacet
facet normal 0 0 0
outer loop
vertex 14.527895 8.744328 6.099372
vertex 14.507420 8.765080 6.119372
vertex 14.507420 8.744328 6.099372
endloop
endfacet
facet normal 0 0 0
outer loop
vertex 14.527895 8.765080 6.119372
vertex 14.507420 8.765080 6.119372
vertex 14.527895 8.744328 6.099372
endloop
endfacet
facet normal 0 0 0
outer loop
vertex 14.548372 8.744328 6.099372
vertex 14.527895 8.765080 6.119372
vertex 14.527895 8.744328 6.099372
endloop
endfacet
facet normal 0 0 0
outer loop
vertex 14.548372 8.765080 6.119372
vertex 14.527895 8.765080 6.119372
vertex 14.548372 8.744328 6.099372
endloop
endfacet
facet normal 0 0 0
outer loop
vertex 14.568848 8.744328 6.099372
vertex 14.548372 8.765080 6.119372
vertex 14.548372 8.744328 6.099372
endloop
endfacet
facet normal 0 0 0
outer loop
vertex 14.568848 8.765080 6.119372
vertex 14.548372 8.765080 6.119372
vertex 14.568848 8.744328 6.099372
endloop
endfacet
facet normal 0 0 0
outer loop
vertex 14.589323 8.744328 6.099372
vertex 14.568848 8.765080 6.099372
vertex 14.568848 8.765080 6.119372
endloop
endfacet
facet normal 0 0 0
outer loop
vertex 14.589323 8.744328 6.099372
vertex 14.568848 8.765080 6.119372
vertex 14.568848 8.744328 6.099372
endloop
endfacet
facet normal 0 0 0
outer loop
vertex 14.507420 8.785834 6.119372
vertex 14.486944 8.765080 6.099372
vertex 14.507420 8.765080 6.119372
endloop
endfacet
facet normal 0 0 0
outer loop
vertex 14.486944 8.785834 6.099372
vertex 14.486944 8.765080 6.099372
vertex 14.507420 8.785834 6.119372
endloop
endfacet
facet normal 0 0 0
outer loop
vertex 14.568848 8.765080 6.099372
vertex 14.568848 8.785834 6.099372
vertex 14.568848 8.765080 6.119372
endloop
endfacet
facet normal 0 0 0
outer loop
vertex 14.568848 8.765080 6.119372
vertex 14.568848 8.785834 6.099372
vertex 14.568848 8.785834 6.119372
endloop
endfacet
facet normal 0 0 0
outer loop
vertex 14.507420 8.806587 6.119372
vertex 14.486944 8.785834 6.099372
vertex 14.507420 8.785834 6.119372
endloop
endfacet
facet normal 0 0 0
outer loop
vertex 14.486944 8.806587 6.099372
vertex 14.486944 8.785834 6.099372
vertex 14.507420 8.806587 6.119372
endloop
endfacet
facet normal 0 0 0
outer loop
vertex 14.568848 8.785834 6.099372
vertex 14.568848 8.806587 6.099372
vertex 14.568848 8.785834 6.119372
endloop
endfacet
facet normal 0 0 0
outer loop
vertex 14.568848 8.785834 6.119372
vertex 14.568848 8.806587 6.099372
vertex 14.568848 8.806587 6.119372
endloop
endfacet
facet normal 0 0 0
outer loop
vertex 14.486944 8.806587 6.099372
vertex 14.486944 8.827341 6.119372
vertex 14.486944 8.827341 6.099372
endloop
endfacet
facet normal 0 0 0
outer loop
vertex 14.507420 8.806587 6.119372
vertex 14.486944 8.827341 6.119372
vertex 14.486944 8.806587 6.099372
endloop
endfacet
facet normal 0 0 0
outer loop
vertex 14.568848 8.806587 6.099372
vertex 14.568848 8.827341 6.099372
vertex 14.568848 8.806587 6.119372
endloop
endfacet
facet normal 0 0 0
outer loop
vertex 14.568848 8.806587 6.119372
vertex 14.568848 8.827341 6.099372
vertex 14.568848 8.827341 6.119372
endloop
endfacet
facet normal 0 0 0
outer loop
vertex 14.486944 8.827341 6.099372
vertex 14.486944 8.827341 6.119372
vertex 14.486944 8.848094 6.099372
endloop
endfacet
facet normal 0 0 0
outer loop
vertex 14.486944 8.827341 6.119372
vertex 14.486944 8.848094 6.119372
vertex 14.486944 8.848094 6.099372
endloop
endfacet
facet normal 0 0 0
outer loop
vertex 14.568848 8.827341 6.099372
vertex 14.568848 8.848094 6.099372
vertex 14.568848 8.827341 6.119372
endloop
endfacet
facet normal 0 0 0
outer loop
vertex 14.568848 8.827341 6.119372
vertex 14.568848 8.848094 6.099372
vertex 14.568848 8.848094 6.119372
endloop
endfacet
facet normal 0 0 0
outer loop
vertex 14.486944 8.848094 6.099372
vertex 14.486944 8.848094 6.119372
vertex 14.486944 8.868848 6.099372
endloop
endfacet
facet normal 0 0 0
outer loop
vertex 14.486944 8.848094 6.119372
vertex 14.486944 8.868848 6.119372
vertex 14.486944 8.868848 6.099372
endloop
endfacet
facet normal 0 0 0
outer loop
vertex 14.568848 8.848094 6.099372
vertex 14.548372 8.868848 6.099372
vertex 14.568848 8.868848 6.119372
endloop
endfacet
facet normal 0 0 0
outer loop
vertex 14.568848 8.848094 6.099372
vertex 14.568848 8.868848 6.119372
vertex 14.568848 8.848094 6.119372
endloop
endfacet
facet normal 0 0 0
outer loop
vertex 14.486944 8.868848 6.119372
vertex 14.507420 8.889601 6.099372
vertex 14.486944 8.868848 6.099372
endloop
endfacet
facet normal 0 0 0
outer loop
vertex 14.507420 8.889601 6.119372
vertex 14.507420 8.889601 6.099372
vertex 14.486944 8.868848 6.119372
endloop
endfacet
facet normal 0 0 0
outer loop
vertex 14.548372 8.868848 6.099372
vertex 14.527895 8.889601 6.119372
vertex 14.548372 8.868848 6.119372
endloop
endfacet
facet normal 0 0 0
outer loop
vertex 14.527895 8.889601 6.099372
vertex 14.527895 8.889601 6.119372
vertex 14.548372 8.868848 6.099372
endloop
endfacet
facet normal 0 0 0
outer loop
vertex 14.568848 8.868848 6.119372
vertex 14.548372 8.868848 6.099372
vertex 14.548372 8.868848 6.119372
endloop
endfacet
facet normal 0 0 0
outer loop
vertex 14.527895 8.889601 6.099372
vertex 14.507420 8.889601 6.099372
vertex 14.527895 8.889601 6.119372
endloop
endfacet
facet normal 0 0 0
outer loop
vertex 14.507420 8.889601 6.099372
vertex 14.507420 8.889601 6.119372
vertex 14.527895 8.889601 6.119372
endloop
endfacet
facet normal 0 0 0
outer loop
vertex 14.527895 8.765080 6.119372
vertex 14.527895 8.785834 6.119372
vertex 14.507420 8.765080 6.119372
endloop
endfacet
facet normal 0 0 0
outer loop
vertex 14.527895 8.785834 6.119372
vertex 14.507420 8.785834 6.119372
vertex 14.507420 8.765080 6.119372
endloop
endfacet
facet normal 0 0 0
outer loop
vertex 14.548372 8.765080 6.119372
vertex 14.548372 8.785834 6.119372
vertex 14.527895 8.765080 6.119372
endloop
endfacet
facet normal 0 0 0
outer loop
vertex 14.548372 8.785834 6.119372
vertex 14.527895 8.785834 6.119372
vertex 14.527895 8.765080 6.119372
endloop
endfacet
facet normal 0 0 0
outer loop
vertex 14.568848 8.765080 6.119372
vertex 14.568848 8.785834 6.119372
vertex 14.548372 8.765080 6.119372
endloop
endfacet
facet normal 0 0 0
outer loop
vertex 14.568848 8.785834 6.119372
vertex 14.548372 8.785834 6.119372
vertex 14.548372 8.765080 6.119372
endloop
endfacet
facet normal 0 0 0
outer loop
vertex 14.527895 8.785834 6.119372
vertex 14.527895 8.806587 6.119372
vertex 14.507420 8.785834 6.119372
endloop
endfacet
facet normal 0 0 0
outer loop
vertex 14.527895 8.806587 6.119372
vertex 14.507420 8.806587 6.119372
vertex 14.507420 8.785834 6.119372
endloop
endfacet
facet normal 0 0 0
outer loop
vertex 14.548372 8.785834 6.119372
vertex 14.548372 8.806587 6.119372
vertex 14.527895 8.785834 6.119372
endloop
endfacet
facet normal 0 0 0
outer loop
vertex 14.548372 8.806587 6.119372
vertex 14.527895 8.806587 6.119372
vertex 14.527895 8.785834 6.119372
endloop
endfacet
facet normal 0 0 0
outer loop
vertex 14.568848 8.785834 6.119372
vertex 14.568848 8.806587 6.119372
vertex 14.548372 8.785834 6.119372
endloop
endfacet
facet normal 0 0 0
outer loop
vertex 14.568848 8.806587 6.119372
vertex 14.548372 8.806587 6.119372
vertex 14.548372 8.785834 6.119372
endloop
endfacet
facet normal 0 0 0
outer loop
vertex 14.486944 8.827341 6.119372
vertex 14.507420 8.806587 6.119372
vertex 14.507420 8.827341 6.119372
endloop
endfacet
facet normal 0 0 0
outer loop
vertex 14.527895 8.806587 6.119372
vertex 14.527895 8.827341 6.119372
vertex 14.507420 8.806587 6.119372
endloop
endfacet
facet normal 0 0 0
outer loop
vertex 14.527895 8.827341 6.119372
vertex 14.507420 8.827341 6.119372
vertex 14.507420 8.806587 6.119372
endloop
endfacet
facet normal 0 0 0
outer loop
vertex 14.548372 8.806587 6.119372
vertex 14.548372 8.827341 6.119372
vertex 14.527895 8.806587 6.119372
endloop
endfacet
facet normal 0 0 0
outer loop
vertex 14.548372 8.827341 6.119372
vertex 14.527895 8.827341 6.119372
vertex 14.527895 8.806587 6.119372
endloop
endfacet
facet normal 0 0 0
outer loop
vertex 14.568848 8.806587 6.119372
vertex 14.568848 8.827341 6.119372
vertex 14.548372 8.806587 6.119372
endloop
endfacet
facet normal 0 0 0
outer loop
vertex 14.568848 8.827341 6.119372
vertex 14.548372 8.827341 6.119372
vertex 14.548372 8.806587 6.119372
endloop
endfacet
facet normal 0 0 0
outer loop
vertex 14.507420 8.827341 6.119372
vertex 14.507420 8.848094 6.119372
vertex 14.486944 8.827341 6.119372
endloop
endfacet
facet normal 0 0 0
outer loop
vertex 14.507420 8.848094 6.119372
vertex 14.486944 8.848094 6.119372
vertex 14.486944 8.827341 6.119372
endloop
endfacet
facet normal 0 0 0
outer loop
vertex 14.527895 8.827341 6.119372
vertex 14.527895 8.848094 6.119372
vertex 14.507420 8.827341 6.119372
endloop
endfacet
facet normal 0 0 0
outer loop
vertex 14.527895 8.848094 6.119372
vertex 14.507420 8.848094 6.119372
vertex 14.507420 8.827341 6.119372
endloop
endfacet
facet normal 0 0 0
outer loop
vertex 14.548372 8.827341 6.119372
vertex 14.548372 8.848094 6.119372
vertex 14.527895 8.827341 6.119372
endloop
endfacet
facet normal 0 0 0
outer loop
vertex 14.548372 8.848094 6.119372
vertex 14.527895 8.848094 6.119372
vertex 14.527895 8.827341 6.119372
endloop
endfacet
facet normal 0 0 0
outer loop
vertex 14.568848 8.827341 6.119372
vertex 14.568848 8.848094 6.119372
vertex 14.548372 8.827341 6.119372
endloop
endfacet
facet normal 0 0 0
outer loop
vertex 14.568848 8.848094 6.119372
vertex 14.548372 8.848094 6.119372
vertex 14.548372 8.827341 6.119372
endloop
endfacet
facet normal 0 0 0
outer loop
vertex 14.507420 8.848094 6.119372
vertex 14.507420 8.868848 6.119372
vertex 14.486944 8.848094 6.119372
endloop
endfacet
facet normal 0 0 0
outer loop
vertex 14.507420 8.868848 6.119372
vertex 14.486944 8.868848 6.119372
vertex 14.486944 8.848094 6.119372
endloop
endfacet
facet normal 0 0 0
outer loop
vertex 14.527895 8.848094 6.119372
vertex 14.527895 8.868848 6.119372
vertex 14.507420 8.848094 6.119372
endloop
endfacet
facet normal 0 0 0
outer loop
vertex 14.527895 8.868848 6.119372
vertex 14.507420 8.868848 6.119372
vertex 14.507420 8.848094 6.119372
endloop
endfacet
facet normal 0 0 0
outer loop
vertex 14.548372 8.848094 6.119372
vertex 14.548372 8.868848 6.119372
vertex 14.527895 8.848094 6.119372
endloop
endfacet
facet normal 0 0 0
outer loop
vertex 14.548372 8.868848 6.119372
vertex 14.527895 8.868848 6.119372
vertex 14.527895 8.848094 6.119372
endloop
endfacet
facet normal 0 0 0
outer loop
vertex 14.568848 8.848094 6.119372
vertex 14.568848 8.868848 6.119372
vertex 14.548372 8.848094 6.119372
endloop
endfacet
facet normal 0 0 0
outer loop
vertex 14.568848 8.868848 6.119372
vertex 14.548372 8.868848 6.119372
vertex 14.548372 8.848094 6.119372
endloop
endfacet
facet normal 0 0 0
outer loop
vertex 14.507420 8.889601 6.119372
vertex 14.486944 8.868848 6.119372
vertex 14.507420 8.868848 6.119372
endloop
endfacet
facet normal 0 0 0
outer loop
vertex 14.527895 8.868848 6.119372
vertex 14.527895 8.889601 6.119372
vertex 14.507420 8.868848 6.119372
endloop
endfacet
facet normal 0 0 0
outer loop
vertex 14.527895 8.889601 6.119372
vertex 14.507420 8.889601 6.119372
vertex 14.507420 8.868848 6.119372
endloop
endfacet
facet normal 0 0 0
outer loop
vertex 14.548372 8.868848 6.119372
vertex 14.527895 8.889601 6.119372
vertex 14.527895 8.868848 6.119372
endloop
endfacet
endsolid B-16-Plag.091
