solid B-16-Plag.374
facet normal 0 0 0
outer loop
vertex 24.192472 10.446100 13.919372
vertex 24.171997 10.446100 13.919372
vertex 24.192472 10.466853 13.919372
endloop
endfacet
facet normal 0 0 0
outer loop
vertex 24.192472 10.466853 13.919372
vertex 24.171997 10.446100 13.919372
vertex 24.171997 10.466853 13.919372
endloop
endfacet
facet normal 0 0 0
outer loop
vertex 24.212950 10.466853 13.919372
vertex 24.192472 10.446100 13.919372
vertex 24.192472 10.466853 13.919372
endloop
endfacet
facet normal 0 0 0
outer loop
vertex 24.233425 10.466853 13.919372
vertex 24.212950 10.446100 13.919372
vertex 24.212950 10.466853 13.919372
endloop
endfacet
facet normal 0 0 0
outer loop
vertex 24.192472 10.466853 13.919372
vertex 24.171997 10.466853 13.919372
vertex 24.192472 10.487607 13.919372
endloop
endfacet
facet normal 0 0 0
outer loop
vertex 24.192472 10.487607 13.919372
vertex 24.171997 10.466853 13.919372
vertex 24.171997 10.487607 13.919372
endloop
endfacet
facet normal 0 0 0
outer loop
vertex 24.212950 10.466853 13.919372
vertex 24.192472 10.466853 13.919372
vertex 24.212950 10.487607 13.919372
endloop
endfacet
facet normal 0 0 0
outer loop
vertex 24.212950 10.487607 13.919372
vertex 24.192472 10.466853 13.919372
vertex 24.192472 10.487607 13.919372
endloop
endfacet
facet normal 0 0 0
outer loop
vertex 24.233425 10.466853 13.919372
vertex 24.212950 10.466853 13.919372
vertex 24.233425 10.487607 13.919372
endloop
endfacet
facet normal 0 0 0
outer loop
vertex 24.233425 10.487607 13.919372
vertex 24.212950 10.466853 13.919372
vertex 24.212950 10.487607 13.919372
endloop
endfacet
facet normal 0 0 0
outer loop
vertex 24.253901 10.466853 13.919372
vertex 24.233425 10.466853 13.919372
vertex 24.253901 10.487607 13.919372
endloop
endfacet
facet normal 0 0 0
outer loop
vertex 24.253901 10.487607 13.919372
vertex 24.233425 10.466853 13.919372
vertex 24.233425 10.487607 13.919372
endloop
endfacet
facet normal 0 0 0
outer loop
vertex 24.253901 10.487607 13.919372
vertex 24.274376 10.466853 13.919372
vertex 24.253901 10.466853 13.919372
endloop
endfacet
facet normal 0 0 0
outer loop
vertex 24.171997 10.487607 13.919372
vertex 24.192472 10.508360 13.919372
vertex 24.192472 10.487607 13.919372
endloop
endfacet
facet normal 0 0 0
outer loop
vertex 24.212950 10.487607 13.919372
vertex 24.192472 10.487607 13.919372
vertex 24.212950 10.508360 13.919372
endloop
endfacet
facet normal 0 0 0
outer loop
vertex 24.212950 10.508360 13.919372
vertex 24.192472 10.487607 13.919372
vertex 24.192472 10.508360 13.919372
endloop
endfacet
facet normal 0 0 0
outer loop
vertex 24.233425 10.487607 13.919372
vertex 24.212950 10.487607 13.919372
vertex 24.233425 10.508360 13.919372
endloop
endfacet
facet normal 0 0 0
outer loop
vertex 24.233425 10.508360 13.919372
vertex 24.212950 10.487607 13.919372
vertex 24.212950 10.508360 13.919372
endloop
endfacet
facet normal 0 0 0
outer loop
vertex 24.253901 10.487607 13.919372
vertex 24.233425 10.487607 13.919372
vertex 24.253901 10.508360 13.919372
endloop
endfacet
facet normal 0 0 0
outer loop
vertex 24.253901 10.508360 13.919372
vertex 24.233425 10.487607 13.919372
vertex 24.233425 10.508360 13.919372
endloop
endfacet
facet normal 0 0 0
outer loop
vertex 24.171997 10.446100 13.919372
vertex 24.171997 10.466853 13.939372
vertex 24.151522 10.466853 13.939372
endloop
endfacet
facet normal 0 0 0
outer loop
vertex 24.171997 10.446100 13.919372
vertex 24.151522 10.466853 13.939372
vertex 24.171997 10.466853 13.919372
endloop
endfacet
facet normal 0 0 0
outer loop
vertex 24.192472 10.446100 13.919372
vertex 24.171997 10.466853 13.939372
vertex 24.171997 10.446100 13.919372
endloop
endfacet
facet normal 0 0 0
outer loop
vertex 24.192472 10.466853 13.939372
vertex 24.171997 10.466853 13.939372
vertex 24.192472 10.446100 13.919372
endloop
endfacet
facet normal 0 0 0
outer loop
vertex 24.192472 10.466853 13.939372
vertex 24.192472 10.446100 13.919372
vertex 24.212950 10.466853 13.919372
endloop
endfacet
facet normal 0 0 0
outer loop
vertex 24.192472 10.446100 13.919372
vertex 24.212950 10.446100 13.919372
vertex 24.212950 10.466853 13.919372
endloop
endfacet
facet normal 0 0 0
outer loop
vertex 24.212950 10.446100 13.919372
vertex 24.233425 10.466853 13.939372
vertex 24.212950 10.466853 13.919372
endloop
endfacet
facet normal 0 0 0
outer loop
vertex 24.212950 10.446100 13.919372
vertex 24.233425 10.466853 13.919372
vertex 24.233425 10.466853 13.939372
endloop
endfacet
facet normal 0 0 0
outer loop
vertex 24.253901 10.466853 13.919372
vertex 24.233425 10.466853 13.939372
vertex 24.233425 10.466853 13.919372
endloop
endfacet
facet normal 0 0 0
outer loop
vertex 24.131046 10.466853 13.939372
vertex 24.110571 10.466853 13.939372
vertex 24.131046 10.487607 13.939372
endloop
endfacet
facet normal 0 0 0
outer loop
vertex 24.151522 10.466853 13.939372
vertex 24.131046 10.466853 13.939372
vertex 24.151522 10.487607 13.939372
endloop
endfacet
facet normal 0 0 0
outer loop
vertex 24.151522 10.487607 13.939372
vertex 24.131046 10.466853 13.939372
vertex 24.131046 10.487607 13.939372
endloop
endfacet
facet normal 0 0 0
outer loop
vertex 24.171997 10.466853 13.919372
vertex 24.151522 10.487607 13.939372
vertex 24.171997 10.487607 13.919372
endloop
endfacet
facet normal 0 0 0
outer loop
vertex 24.151522 10.466853 13.939372
vertex 24.151522 10.487607 13.939372
vertex 24.171997 10.466853 13.919372
endloop
endfacet
facet normal 0 0 0
outer loop
vertex 24.212950 10.466853 13.919372
vertex 24.212950 10.487607 13.939372
vertex 24.192472 10.466853 13.939372
endloop
endfacet
facet normal 0 0 0
outer loop
vertex 24.233425 10.466853 13.939372
vertex 24.212950 10.487607 13.939372
vertex 24.212950 10.466853 13.919372
endloop
endfacet
facet normal 0 0 0
outer loop
vertex 24.253901 10.466853 13.919372
vertex 24.253901 10.487607 13.939372
vertex 24.233425 10.466853 13.939372
endloop
endfacet
facet normal 0 0 0
outer loop
vertex 24.274376 10.466853 13.919372
vertex 24.253901 10.487607 13.919372
vertex 24.253901 10.487607 13.939372
endloop
endfacet
facet normal 0 0 0
outer loop
vertex 24.274376 10.466853 13.919372
vertex 24.253901 10.487607 13.939372
vertex 24.253901 10.466853 13.919372
endloop
endfacet
facet normal 0 0 0
outer loop
vertex 24.171997 10.487607 13.919372
vertex 24.151522 10.487607 13.939372
vertex 24.171997 10.508360 13.939372
endloop
endfacet
facet normal 0 0 0
outer loop
vertex 24.151522 10.487607 13.939372
vertex 24.151522 10.508360 13.939372
vertex 24.171997 10.508360 13.939372
endloop
endfacet
facet normal 0 0 0
outer loop
vertex 24.171997 10.487607 13.919372
vertex 24.171997 10.508360 13.939372
vertex 24.192472 10.508360 13.919372
endloop
endfacet
facet normal 0 0 0
outer loop
vertex 24.253901 10.508360 13.919372
vertex 24.233425 10.508360 13.939372
vertex 24.253901 10.487607 13.939372
endloop
endfacet
facet normal 0 0 0
outer loop
vertex 24.253901 10.508360 13.919372
vertex 24.253901 10.487607 13.939372
vertex 24.253901 10.487607 13.919372
endloop
endfacet
facet normal 0 0 0
outer loop
vertex 24.192472 10.508360 13.919372
vertex 24.171997 10.508360 13.939372
vertex 24.192472 10.508360 13.939372
endloop
endfacet
facet normal 0 0 0
outer loop
vertex 24.212950 10.508360 13.919372
vertex 24.192472 10.508360 13.919372
vertex 24.212950 10.508360 13.939372
endloop
endfacet
facet normal 0 0 0
outer loop
vertex 24.192472 10.508360 13.919372
vertex 24.192472 10.508360 13.939372
vertex 24.212950 10.508360 13.939372
endloop
endfacet
facet normal 0 0 0
outer loop
vertex 24.233425 10.508360 13.919372
vertex 24.212950 10.508360 13.919372
vertex 24.233425 10.508360 13.939372
endloop
endfacet
facet normal 0 0 0
outer loop
vertex 24.212950 10.508360 13.919372
vertex 24.212950 10.508360 13.939372
vertex 24.233425 10.508360 13.939372
endloop
endfacet
facet normal 0 0 0
outer loop
vertex 24.233425 10.508360 13.939372
vertex 24.253901 10.508360 13.919372
vertex 24.233425 10.508360 13.919372
endloop
endfacet
facet normal 0 0 0
outer loop
vertex 24.131046 10.487607 13.939372
vertex 24.110571 10.487607 13.939372
vertex 24.110571 10.466853 13.939372
endloop
endfacet
facet normal 0 0 0
outer loop
vertex 24.171997 10.466853 13.939372
vertex 24.171997 10.487607 13.939372
vertex 24.151522 10.466853 13.939372
endloop
endfacet
facet normal 0 0 0
outer loop
vertex 24.171997 10.487607 13.939372
vertex 24.151522 10.487607 13.939372
vertex 24.151522 10.466853 13.939372
endloop
endfacet
facet normal 0 0 0
outer loop
vertex 24.192472 10.466853 13.939372
vertex 24.192472 10.487607 13.939372
vertex 24.171997 10.466853 13.939372
endloop
endfacet
facet normal 0 0 0
outer loop
vertex 24.192472 10.487607 13.939372
vertex 24.171997 10.487607 13.939372
vertex 24.171997 10.466853 13.939372
endloop
endfacet
facet normal 0 0 0
outer loop
vertex 24.192472 10.466853 13.939372
vertex 24.212950 10.487607 13.939372
vertex 24.192472 10.487607 13.939372
endloop
endfacet
facet normal 0 0 0
outer loop
vertex 24.212950 10.487607 13.939372
vertex 24.233425 10.466853 13.939372
vertex 24.233425 10.487607 13.939372
endloop
endfacet
facet normal 0 0 0
outer loop
vertex 24.233425 10.466853 13.939372
vertex 24.253901 10.487607 13.939372
vertex 24.233425 10.487607 13.939372
endloop
endfacet
facet normal 0 0 0
outer loop
vertex 24.131046 10.508360 13.939372
vertex 24.110571 10.487607 13.939372
vertex 24.131046 10.487607 13.939372
endloop
endfacet
facet normal 0 0 0
outer loop
vertex 24.151522 10.487607 13.939372
vertex 24.151522 10.508360 13.939372
vertex 24.131046 10.487607 13.939372
endloop
endfacet
facet normal 0 0 0
outer loop
vertex 24.151522 10.508360 13.939372
vertex 24.131046 10.508360 13.939372
vertex 24.131046 10.487607 13.939372
endloop
endfacet
facet normal 0 0 0
outer loop
vertex 24.171997 10.487607 13.939372
vertex 24.171997 10.508360 13.939372
vertex 24.151522 10.487607 13.939372
endloop
endfacet
facet normal 0 0 0
outer loop
vertex 24.192472 10.487607 13.939372
vertex 24.192472 10.508360 13.939372
vertex 24.171997 10.487607 13.939372
endloop
endfacet
facet normal 0 0 0
outer loop
vertex 24.192472 10.508360 13.939372
vertex 24.171997 10.508360 13.939372
vertex 24.171997 10.487607 13.939372
endloop
endfacet
facet normal 0 0 0
outer loop
vertex 24.212950 10.487607 13.939372
vertex 24.212950 10.508360 13.939372
vertex 24.192472 10.487607 13.939372
endloop
endfacet
facet normal 0 0 0
outer loop
vertex 24.212950 10.508360 13.939372
vertex 24.192472 10.508360 13.939372
vertex 24.192472 10.487607 13.939372
endloop
endfacet
facet normal 0 0 0
outer loop
vertex 24.233425 10.487607 13.939372
vertex 24.233425 10.508360 13.939372
vertex 24.212950 10.487607 13.939372
endloop
endfacet
facet normal 0 0 0
outer loop
vertex 24.233425 10.508360 13.939372
vertex 24.212950 10.508360 13.939372
vertex 24.212950 10.487607 13.939372
endloop
endfacet
facet normal 0 0 0
outer loop
vertex 24.253901 10.487607 13.939372
vertex 24.233425 10.508360 13.939372
vertex 24.233425 10.487607 13.939372
endloop
endfacet
endsolid B-16-Plag.374
