solid B-16-Plag.067
facet normal 0 0 0
outer loop
vertex 21.510143 4.655923 5.199372
vertex 21.489668 4.676676 5.199372
vertex 21.510143 4.676676 5.199372
endloop
endfacet
facet normal 0 0 0
outer loop
vertex 21.530619 4.655923 5.199372
vertex 21.510143 4.655923 5.199372
vertex 21.530619 4.676676 5.199372
endloop
endfacet
facet normal 0 0 0
outer loop
vertex 21.530619 4.676676 5.199372
vertex 21.510143 4.655923 5.199372
vertex 21.510143 4.676676 5.199372
endloop
endfacet
facet normal 0 0 0
outer loop
vertex 21.551096 4.655923 5.199372
vertex 21.530619 4.655923 5.199372
vertex 21.551096 4.676676 5.199372
endloop
endfacet
facet normal 0 0 0
outer loop
vertex 21.551096 4.676676 5.199372
vertex 21.530619 4.655923 5.199372
vertex 21.530619 4.676676 5.199372
endloop
endfacet
facet normal 0 0 0
outer loop
vertex 21.510143 4.676676 5.199372
vertex 21.489668 4.676676 5.199372
vertex 21.510143 4.697430 5.199372
endloop
endfacet
facet normal 0 0 0
outer loop
vertex 21.510143 4.697430 5.199372
vertex 21.489668 4.676676 5.199372
vertex 21.489668 4.697430 5.199372
endloop
endfacet
facet normal 0 0 0
outer loop
vertex 21.530619 4.676676 5.199372
vertex 21.510143 4.676676 5.199372
vertex 21.530619 4.697430 5.199372
endloop
endfacet
facet normal 0 0 0
outer loop
vertex 21.530619 4.697430 5.199372
vertex 21.510143 4.676676 5.199372
vertex 21.510143 4.697430 5.199372
endloop
endfacet
facet normal 0 0 0
outer loop
vertex 21.530619 4.697430 5.199372
vertex 21.551096 4.676676 5.199372
vertex 21.530619 4.676676 5.199372
endloop
endfacet
facet normal 0 0 0
outer loop
vertex 21.489668 4.697430 5.199372
vertex 21.469193 4.718183 5.199372
vertex 21.489668 4.718183 5.199372
endloop
endfacet
facet normal 0 0 0
outer loop
vertex 21.510143 4.697430 5.199372
vertex 21.489668 4.697430 5.199372
vertex 21.510143 4.718183 5.199372
endloop
endfacet
facet normal 0 0 0
outer loop
vertex 21.510143 4.718183 5.199372
vertex 21.489668 4.697430 5.199372
vertex 21.489668 4.718183 5.199372
endloop
endfacet
facet normal 0 0 0
outer loop
vertex 21.530619 4.697430 5.199372
vertex 21.510143 4.697430 5.199372
vertex 21.530619 4.718183 5.199372
endloop
endfacet
facet normal 0 0 0
outer loop
vertex 21.530619 4.718183 5.199372
vertex 21.510143 4.697430 5.199372
vertex 21.510143 4.718183 5.199372
endloop
endfacet
facet normal 0 0 0
outer loop
vertex 21.489668 4.718183 5.199372
vertex 21.469193 4.718183 5.199372
vertex 21.489668 4.738936 5.199372
endloop
endfacet
facet normal 0 0 0
outer loop
vertex 21.489668 4.738936 5.199372
vertex 21.469193 4.718183 5.199372
vertex 21.469193 4.738936 5.199372
endloop
endfacet
facet normal 0 0 0
outer loop
vertex 21.510143 4.718183 5.199372
vertex 21.489668 4.718183 5.199372
vertex 21.510143 4.738936 5.199372
endloop
endfacet
facet normal 0 0 0
outer loop
vertex 21.510143 4.738936 5.199372
vertex 21.489668 4.718183 5.199372
vertex 21.489668 4.738936 5.199372
endloop
endfacet
facet normal 0 0 0
outer loop
vertex 21.510143 4.738936 5.199372
vertex 21.530619 4.718183 5.199372
vertex 21.510143 4.718183 5.199372
endloop
endfacet
facet normal 0 0 0
outer loop
vertex 21.571571 4.614416 5.219372
vertex 21.551096 4.614416 5.219372
vertex 21.571571 4.635170 5.219372
endloop
endfacet
facet normal 0 0 0
outer loop
vertex 21.571571 4.635170 5.219372
vertex 21.551096 4.614416 5.219372
vertex 21.551096 4.635170 5.219372
endloop
endfacet
facet normal 0 0 0
outer loop
vertex 21.530619 4.655923 5.199372
vertex 21.530619 4.655923 5.219372
vertex 21.510143 4.655923 5.199372
endloop
endfacet
facet normal 0 0 0
outer loop
vertex 21.510143 4.655923 5.199372
vertex 21.530619 4.655923 5.219372
vertex 21.510143 4.655923 5.219372
endloop
endfacet
facet normal 0 0 0
outer loop
vertex 21.551096 4.635170 5.219372
vertex 21.530619 4.655923 5.219372
vertex 21.551096 4.655923 5.199372
endloop
endfacet
facet normal 0 0 0
outer loop
vertex 21.530619 4.655923 5.219372
vertex 21.530619 4.655923 5.199372
vertex 21.551096 4.655923 5.199372
endloop
endfacet
facet normal 0 0 0
outer loop
vertex 21.551096 4.655923 5.199372
vertex 21.571571 4.655923 5.219372
vertex 21.551096 4.635170 5.219372
endloop
endfacet
facet normal 0 0 0
outer loop
vertex 21.510143 4.655923 5.219372
vertex 21.489668 4.676676 5.199372
vertex 21.510143 4.655923 5.199372
endloop
endfacet
facet normal 0 0 0
outer loop
vertex 21.489668 4.676676 5.219372
vertex 21.489668 4.676676 5.199372
vertex 21.510143 4.655923 5.219372
endloop
endfacet
facet normal 0 0 0
outer loop
vertex 21.571571 4.655923 5.219372
vertex 21.551096 4.655923 5.199372
vertex 21.551096 4.676676 5.219372
endloop
endfacet
facet normal 0 0 0
outer loop
vertex 21.551096 4.655923 5.199372
vertex 21.551096 4.676676 5.199372
vertex 21.551096 4.676676 5.219372
endloop
endfacet
facet normal 0 0 0
outer loop
vertex 21.469193 4.697430 5.219372
vertex 21.489668 4.697430 5.199372
vertex 21.489668 4.676676 5.219372
endloop
endfacet
facet normal 0 0 0
outer loop
vertex 21.489668 4.697430 5.199372
vertex 21.489668 4.676676 5.199372
vertex 21.489668 4.676676 5.219372
endloop
endfacet
facet normal 0 0 0
outer loop
vertex 21.551096 4.676676 5.199372
vertex 21.530619 4.697430 5.199372
vertex 21.551096 4.697430 5.219372
endloop
endfacet
facet normal 0 0 0
outer loop
vertex 21.551096 4.676676 5.199372
vertex 21.551096 4.697430 5.219372
vertex 21.551096 4.676676 5.219372
endloop
endfacet
facet normal 0 0 0
outer loop
vertex 21.469193 4.718183 5.199372
vertex 21.469193 4.697430 5.219372
vertex 21.469193 4.718183 5.219372
endloop
endfacet
facet normal 0 0 0
outer loop
vertex 21.489668 4.697430 5.199372
vertex 21.469193 4.697430 5.219372
vertex 21.469193 4.718183 5.199372
endloop
endfacet
facet normal 0 0 0
outer loop
vertex 21.551096 4.697430 5.219372
vertex 21.530619 4.718183 5.199372
vertex 21.551096 4.718183 5.219372
endloop
endfacet
facet normal 0 0 0
outer loop
vertex 21.530619 4.697430 5.199372
vertex 21.530619 4.718183 5.199372
vertex 21.551096 4.697430 5.219372
endloop
endfacet
facet normal 0 0 0
outer loop
vertex 21.469193 4.718183 5.199372
vertex 21.469193 4.718183 5.219372
vertex 21.469193 4.738936 5.199372
endloop
endfacet
facet normal 0 0 0
outer loop
vertex 21.469193 4.718183 5.219372
vertex 21.469193 4.738936 5.219372
vertex 21.469193 4.738936 5.199372
endloop
endfacet
facet normal 0 0 0
outer loop
vertex 21.530619 4.718183 5.199372
vertex 21.510143 4.738936 5.199372
vertex 21.530619 4.738936 5.219372
endloop
endfacet
facet normal 0 0 0
outer loop
vertex 21.530619 4.718183 5.199372
vertex 21.530619 4.738936 5.219372
vertex 21.551096 4.718183 5.219372
endloop
endfacet
facet normal 0 0 0
outer loop
vertex 21.530619 4.738936 5.219372
vertex 21.551096 4.738936 5.219372
vertex 21.551096 4.718183 5.219372
endloop
endfacet
facet normal 0 0 0
outer loop
vertex 21.489668 4.759689 5.219372
vertex 21.489668 4.738936 5.199372
vertex 21.469193 4.738936 5.219372
endloop
endfacet
facet normal 0 0 0
outer loop
vertex 21.489668 4.738936 5.199372
vertex 21.469193 4.738936 5.199372
vertex 21.469193 4.738936 5.219372
endloop
endfacet
facet normal 0 0 0
outer loop
vertex 21.489668 4.738936 5.199372
vertex 21.510143 4.759689 5.219372
vertex 21.510143 4.738936 5.199372
endloop
endfacet
facet normal 0 0 0
outer loop
vertex 21.489668 4.759689 5.219372
vertex 21.510143 4.759689 5.219372
vertex 21.489668 4.738936 5.199372
endloop
endfacet
facet normal 0 0 0
outer loop
vertex 21.510143 4.738936 5.199372
vertex 21.510143 4.759689 5.219372
vertex 21.530619 4.738936 5.219372
endloop
endfacet
facet normal 0 0 0
outer loop
vertex 21.510143 4.759689 5.219372
vertex 21.530619 4.759689 5.219372
vertex 21.530619 4.738936 5.219372
endloop
endfacet
facet normal 0 0 0
outer loop
vertex 21.551096 4.738936 5.219372
vertex 21.530619 4.738936 5.219372
vertex 21.551096 4.759689 5.219372
endloop
endfacet
facet normal 0 0 0
outer loop
vertex 21.551096 4.759689 5.219372
vertex 21.530619 4.738936 5.219372
vertex 21.530619 4.759689 5.219372
endloop
endfacet
facet normal 0 0 0
outer loop
vertex 21.489668 4.759689 5.219372
vertex 21.510143 4.780443 5.219372
vertex 21.510143 4.759689 5.219372
endloop
endfacet
facet normal 0 0 0
outer loop
vertex 21.530619 4.759689 5.219372
vertex 21.510143 4.759689 5.219372
vertex 21.530619 4.780443 5.219372
endloop
endfacet
facet normal 0 0 0
outer loop
vertex 21.530619 4.780443 5.219372
vertex 21.510143 4.759689 5.219372
vertex 21.510143 4.780443 5.219372
endloop
endfacet
facet normal 0 0 0
outer loop
vertex 21.551096 4.759689 5.219372
vertex 21.530619 4.759689 5.219372
vertex 21.551096 4.780443 5.219372
endloop
endfacet
facet normal 0 0 0
outer loop
vertex 21.551096 4.780443 5.219372
vertex 21.530619 4.759689 5.219372
vertex 21.530619 4.780443 5.219372
endloop
endfacet
facet normal 0 0 0
outer loop
vertex 21.530619 4.780443 5.219372
vertex 21.510143 4.780443 5.219372
vertex 21.530619 4.801196 5.219372
endloop
endfacet
facet normal 0 0 0
outer loop
vertex 21.530619 4.801196 5.219372
vertex 21.510143 4.780443 5.219372
vertex 21.510143 4.801196 5.219372
endloop
endfacet
facet normal 0 0 0
outer loop
vertex 21.551096 4.780443 5.219372
vertex 21.530619 4.780443 5.219372
vertex 21.551096 4.801196 5.219372
endloop
endfacet
facet normal 0 0 0
outer loop
vertex 21.551096 4.801196 5.219372
vertex 21.530619 4.780443 5.219372
vertex 21.530619 4.801196 5.219372
endloop
endfacet
facet normal 0 0 0
outer loop
vertex 21.530619 4.801196 5.219372
vertex 21.510143 4.801196 5.219372
vertex 21.530619 4.821949 5.219372
endloop
endfacet
facet normal 0 0 0
outer loop
vertex 21.530619 4.821949 5.219372
vertex 21.510143 4.801196 5.219372
vertex 21.510143 4.821949 5.219372
endloop
endfacet
facet normal 0 0 0
outer loop
vertex 21.530619 4.821949 5.219372
vertex 21.551096 4.801196 5.219372
vertex 21.530619 4.801196 5.219372
endloop
endfacet
facet normal 0 0 0
outer loop
vertex 21.530619 4.655923 5.219372
vertex 21.551096 4.635170 5.219372
vertex 21.551096 4.655923 5.219372
endloop
endfacet
facet normal 0 0 0
outer loop
vertex 21.571571 4.635170 5.219372
vertex 21.571571 4.655923 5.219372
vertex 21.551096 4.635170 5.219372
endloop
endfacet
facet normal 0 0 0
outer loop
vertex 21.571571 4.655923 5.219372
vertex 21.551096 4.655923 5.219372
vertex 21.551096 4.635170 5.219372
endloop
endfacet
facet normal 0 0 0
outer loop
vertex 21.510143 4.655923 5.219372
vertex 21.510143 4.676676 5.239372
vertex 21.489668 4.676676 5.219372
endloop
endfacet
facet normal 0 0 0
outer loop
vertex 21.510143 4.676676 5.239372
vertex 21.489668 4.676676 5.239372
vertex 21.489668 4.676676 5.219372
endloop
endfacet
facet normal 0 0 0
outer loop
vertex 21.530619 4.655923 5.219372
vertex 21.510143 4.676676 5.239372
vertex 21.510143 4.655923 5.219372
endloop
endfacet
facet normal 0 0 0
outer loop
vertex 21.530619 4.676676 5.239372
vertex 21.510143 4.676676 5.239372
vertex 21.530619 4.655923 5.219372
endloop
endfacet
facet normal 0 0 0
outer loop
vertex 21.530619 4.676676 5.239372
vertex 21.530619 4.655923 5.219372
vertex 21.551096 4.676676 5.219372
endloop
endfacet
facet normal 0 0 0
outer loop
vertex 21.530619 4.655923 5.219372
vertex 21.551096 4.655923 5.219372
vertex 21.551096 4.676676 5.219372
endloop
endfacet
facet normal 0 0 0
outer loop
vertex 21.571571 4.655923 5.219372
vertex 21.551096 4.676676 5.219372
vertex 21.551096 4.655923 5.219372
endloop
endfacet
facet normal 0 0 0
outer loop
vertex 21.489668 4.676676 5.239372
vertex 21.469193 4.697430 5.219372
vertex 21.489668 4.676676 5.219372
endloop
endfacet
facet normal 0 0 0
outer loop
vertex 21.469193 4.697430 5.239372
vertex 21.469193 4.697430 5.219372
vertex 21.489668 4.676676 5.239372
endloop
endfacet
facet normal 0 0 0
outer loop
vertex 21.551096 4.697430 5.219372
vertex 21.530619 4.676676 5.239372
vertex 21.551096 4.676676 5.219372
endloop
endfacet
facet normal 0 0 0
outer loop
vertex 21.530619 4.697430 5.239372
vertex 21.530619 4.676676 5.239372
vertex 21.551096 4.697430 5.219372
endloop
endfacet
facet normal 0 0 0
outer loop
vertex 21.469193 4.697430 5.219372
vertex 21.469193 4.697430 5.239372
vertex 21.469193 4.718183 5.219372
endloop
endfacet
facet normal 0 0 0
outer loop
vertex 21.469193 4.697430 5.239372
vertex 21.469193 4.718183 5.239372
vertex 21.469193 4.718183 5.219372
endloop
endfacet
facet normal 0 0 0
outer loop
vertex 21.551096 4.718183 5.219372
vertex 21.530619 4.697430 5.239372
vertex 21.551096 4.697430 5.219372
endloop
endfacet
facet normal 0 0 0
outer loop
vertex 21.530619 4.718183 5.239372
vertex 21.530619 4.697430 5.239372
vertex 21.551096 4.718183 5.219372
endloop
endfacet
facet normal 0 0 0
outer loop
vertex 21.469193 4.718183 5.219372
vertex 21.469193 4.718183 5.239372
vertex 21.469193 4.738936 5.219372
endloop
endfacet
facet normal 0 0 0
outer loop
vertex 21.469193 4.718183 5.239372
vertex 21.469193 4.738936 5.239372
vertex 21.469193 4.738936 5.219372
endloop
endfacet
facet normal 0 0 0
outer loop
vertex 21.551096 4.738936 5.219372
vertex 21.530619 4.718183 5.239372
vertex 21.551096 4.718183 5.219372
endloop
endfacet
facet normal 0 0 0
outer loop
vertex 21.530619 4.738936 5.239372
vertex 21.530619 4.718183 5.239372
vertex 21.551096 4.738936 5.219372
endloop
endfacet
facet normal 0 0 0
outer loop
vertex 21.469193 4.759689 5.239372
vertex 21.469193 4.738936 5.219372
vertex 21.469193 4.738936 5.239372
endloop
endfacet
facet normal 0 0 0
outer loop
vertex 21.469193 4.738936 5.219372
vertex 21.469193 4.759689 5.239372
vertex 21.489668 4.759689 5.219372
endloop
endfacet
facet normal 0 0 0
outer loop
vertex 21.551096 4.738936 5.219372
vertex 21.551096 4.759689 5.239372
vertex 21.530619 4.738936 5.239372
endloop
endfacet
facet normal 0 0 0
outer loop
vertex 21.551096 4.759689 5.239372
vertex 21.551096 4.738936 5.219372
vertex 21.551096 4.759689 5.219372
endloop
endfacet
facet normal 0 0 0
outer loop
vertex 21.469193 4.759689 5.239372
vertex 21.448715 4.780443 5.239372
vertex 21.469193 4.780443 5.239372
endloop
endfacet
facet normal 0 0 0
outer loop
vertex 21.489668 4.759689 5.219372
vertex 21.469193 4.759689 5.239372
vertex 21.489668 4.780443 5.239372
endloop
endfacet
facet normal 0 0 0
outer loop
vertex 21.469193 4.759689 5.239372
vertex 21.469193 4.780443 5.239372
vertex 21.489668 4.780443 5.239372
endloop
endfacet
facet normal 0 0 0
outer loop
vertex 21.489668 4.759689 5.219372
vertex 21.489668 4.780443 5.239372
vertex 21.510143 4.780443 5.219372
endloop
endfacet
facet normal 0 0 0
outer loop
vertex 21.551096 4.780443 5.219372
vertex 21.530619 4.780443 5.239372
vertex 21.551096 4.759689 5.239372
endloop
endfacet
facet normal 0 0 0
outer loop
vertex 21.551096 4.780443 5.219372
vertex 21.551096 4.759689 5.239372
vertex 21.551096 4.759689 5.219372
endloop
endfacet
facet normal 0 0 0
outer loop
vertex 21.469193 4.780443 5.239372
vertex 21.448715 4.780443 5.239372
vertex 21.469193 4.801196 5.239372
endloop
endfacet
facet normal 0 0 0
outer loop
vertex 21.469193 4.801196 5.239372
vertex 21.448715 4.780443 5.239372
vertex 21.448715 4.801196 5.239372
endloop
endfacet
facet normal 0 0 0
outer loop
vertex 21.489668 4.780443 5.239372
vertex 21.469193 4.780443 5.239372
vertex 21.489668 4.801196 5.239372
endloop
endfacet
facet normal 0 0 0
outer loop
vertex 21.489668 4.801196 5.239372
vertex 21.469193 4.780443 5.239372
vertex 21.469193 4.801196 5.239372
endloop
endfacet
facet normal 0 0 0
outer loop
vertex 21.510143 4.780443 5.219372
vertex 21.489668 4.801196 5.239372
vertex 21.510143 4.801196 5.219372
endloop
endfacet
facet normal 0 0 0
outer loop
vertex 21.489668 4.780443 5.239372
vertex 21.489668 4.801196 5.239372
vertex 21.510143 4.780443 5.219372
endloop
endfacet
facet normal 0 0 0
outer loop
vertex 21.551096 4.801196 5.219372
vertex 21.530619 4.780443 5.239372
vertex 21.551096 4.780443 5.219372
endloop
endfacet
facet normal 0 0 0
outer loop
vertex 21.530619 4.801196 5.239372
vertex 21.530619 4.780443 5.239372
vertex 21.551096 4.801196 5.219372
endloop
endfacet
facet normal 0 0 0
outer loop
vertex 21.448715 4.801196 5.239372
vertex 21.469193 4.821949 5.239372
vertex 21.469193 4.801196 5.239372
endloop
endfacet
facet normal 0 0 0
outer loop
vertex 21.489668 4.801196 5.239372
vertex 21.469193 4.801196 5.239372
vertex 21.489668 4.821949 5.239372
endloop
endfacet
facet normal 0 0 0
outer loop
vertex 21.489668 4.821949 5.239372
vertex 21.469193 4.801196 5.239372
vertex 21.469193 4.821949 5.239372
endloop
endfacet
facet normal 0 0 0
outer loop
vertex 21.510143 4.801196 5.219372
vertex 21.489668 4.821949 5.239372
vertex 21.510143 4.821949 5.219372
endloop
endfacet
facet normal 0 0 0
outer loop
vertex 21.489668 4.801196 5.239372
vertex 21.489668 4.821949 5.239372
vertex 21.510143 4.801196 5.219372
endloop
endfacet
facet normal 0 0 0
outer loop
vertex 21.551096 4.801196 5.219372
vertex 21.530619 4.821949 5.219372
vertex 21.530619 4.801196 5.239372
endloop
endfacet
facet normal 0 0 0
outer loop
vertex 21.530619 4.821949 5.219372
vertex 21.530619 4.821949 5.239372
vertex 21.530619 4.801196 5.239372
endloop
endfacet
facet normal 0 0 0
outer loop
vertex 21.489668 4.821949 5.239372
vertex 21.469193 4.821949 5.239372
vertex 21.489668 4.842703 5.239372
endloop
endfacet
facet normal 0 0 0
outer loop
vertex 21.489668 4.842703 5.239372
vertex 21.469193 4.821949 5.239372
vertex 21.469193 4.842703 5.239372
endloop
endfacet
facet normal 0 0 0
outer loop
vertex 21.510143 4.821949 5.219372
vertex 21.489668 4.821949 5.239372
vertex 21.510143 4.842703 5.239372
endloop
endfacet
facet normal 0 0 0
outer loop
vertex 21.489668 4.821949 5.239372
vertex 21.489668 4.842703 5.239372
vertex 21.510143 4.842703 5.239372
endloop
endfacet
facet normal 0 0 0
outer loop
vertex 21.510143 4.821949 5.219372
vertex 21.530619 4.842703 5.239372
vertex 21.530619 4.821949 5.219372
endloop
endfacet
facet normal 0 0 0
outer loop
vertex 21.510143 4.842703 5.239372
vertex 21.530619 4.842703 5.239372
vertex 21.510143 4.821949 5.219372
endloop
endfacet
facet normal 0 0 0
outer loop
vertex 21.530619 4.821949 5.219372
vertex 21.530619 4.842703 5.239372
vertex 21.530619 4.821949 5.239372
endloop
endfacet
facet normal 0 0 0
outer loop
vertex 21.489668 4.842703 5.239372
vertex 21.469193 4.842703 5.239372
vertex 21.489668 4.863456 5.239372
endloop
endfacet
facet normal 0 0 0
outer loop
vertex 21.489668 4.863456 5.239372
vertex 21.469193 4.842703 5.239372
vertex 21.469193 4.863456 5.239372
endloop
endfacet
facet normal 0 0 0
outer loop
vertex 21.510143 4.842703 5.239372
vertex 21.489668 4.842703 5.239372
vertex 21.510143 4.863456 5.239372
endloop
endfacet
facet normal 0 0 0
outer loop
vertex 21.510143 4.863456 5.239372
vertex 21.489668 4.842703 5.239372
vertex 21.489668 4.863456 5.239372
endloop
endfacet
facet normal 0 0 0
outer loop
vertex 21.530619 4.842703 5.239372
vertex 21.510143 4.842703 5.239372
vertex 21.530619 4.863456 5.239372
endloop
endfacet
facet normal 0 0 0
outer loop
vertex 21.530619 4.863456 5.239372
vertex 21.510143 4.842703 5.239372
vertex 21.510143 4.863456 5.239372
endloop
endfacet
facet normal 0 0 0
outer loop
vertex 21.489668 4.863456 5.239372
vertex 21.469193 4.863456 5.239372
vertex 21.489668 4.884210 5.239372
endloop
endfacet
facet normal 0 0 0
outer loop
vertex 21.489668 4.884210 5.239372
vertex 21.469193 4.863456 5.239372
vertex 21.469193 4.884210 5.239372
endloop
endfacet
facet normal 0 0 0
outer loop
vertex 21.510143 4.863456 5.239372
vertex 21.489668 4.863456 5.239372
vertex 21.510143 4.884210 5.239372
endloop
endfacet
facet normal 0 0 0
outer loop
vertex 21.510143 4.884210 5.239372
vertex 21.489668 4.863456 5.239372
vertex 21.489668 4.884210 5.239372
endloop
endfacet
facet normal 0 0 0
outer loop
vertex 21.510143 4.884210 5.239372
vertex 21.530619 4.863456 5.239372
vertex 21.510143 4.863456 5.239372
endloop
endfacet
facet normal 0 0 0
outer loop
vertex 21.489668 4.884210 5.239372
vertex 21.469193 4.884210 5.239372
vertex 21.489668 4.904963 5.239372
endloop
endfacet
facet normal 0 0 0
outer loop
vertex 21.489668 4.904963 5.239372
vertex 21.469193 4.884210 5.239372
vertex 21.469193 4.904963 5.239372
endloop
endfacet
facet normal 0 0 0
outer loop
vertex 21.510143 4.884210 5.239372
vertex 21.489668 4.884210 5.239372
vertex 21.510143 4.904963 5.239372
endloop
endfacet
facet normal 0 0 0
outer loop
vertex 21.510143 4.904963 5.239372
vertex 21.489668 4.884210 5.239372
vertex 21.489668 4.904963 5.239372
endloop
endfacet
facet normal 0 0 0
outer loop
vertex 21.510143 4.676676 5.239372
vertex 21.510143 4.676676 5.259372
vertex 21.489668 4.676676 5.239372
endloop
endfacet
facet normal 0 0 0
outer loop
vertex 21.489668 4.676676 5.239372
vertex 21.510143 4.676676 5.259372
vertex 21.489668 4.676676 5.259372
endloop
endfacet
facet normal 0 0 0
outer loop
vertex 21.530619 4.676676 5.239372
vertex 21.530619 4.676676 5.259372
vertex 21.510143 4.676676 5.239372
endloop
endfacet
facet normal 0 0 0
outer loop
vertex 21.510143 4.676676 5.239372
vertex 21.530619 4.676676 5.259372
vertex 21.510143 4.676676 5.259372
endloop
endfacet
facet normal 0 0 0
outer loop
vertex 21.489668 4.676676 5.259372
vertex 21.469193 4.697430 5.239372
vertex 21.489668 4.676676 5.239372
endloop
endfacet
facet normal 0 0 0
outer loop
vertex 21.469193 4.697430 5.259372
vertex 21.469193 4.697430 5.239372
vertex 21.489668 4.676676 5.259372
endloop
endfacet
facet normal 0 0 0
outer loop
vertex 21.551096 4.697430 5.259372
vertex 21.530619 4.676676 5.259372
vertex 21.530619 4.697430 5.239372
endloop
endfacet
facet normal 0 0 0
outer loop
vertex 21.530619 4.676676 5.259372
vertex 21.530619 4.676676 5.239372
vertex 21.530619 4.697430 5.239372
endloop
endfacet
facet normal 0 0 0
outer loop
vertex 21.469193 4.697430 5.239372
vertex 21.469193 4.697430 5.259372
vertex 21.469193 4.718183 5.239372
endloop
endfacet
facet normal 0 0 0
outer loop
vertex 21.469193 4.697430 5.259372
vertex 21.469193 4.718183 5.259372
vertex 21.469193 4.718183 5.239372
endloop
endfacet
facet normal 0 0 0
outer loop
vertex 21.551096 4.697430 5.259372
vertex 21.530619 4.718183 5.239372
vertex 21.551096 4.718183 5.259372
endloop
endfacet
facet normal 0 0 0
outer loop
vertex 21.530619 4.697430 5.239372
vertex 21.530619 4.718183 5.239372
vertex 21.551096 4.697430 5.259372
endloop
endfacet
facet normal 0 0 0
outer loop
vertex 21.469193 4.718183 5.239372
vertex 21.469193 4.718183 5.259372
vertex 21.469193 4.738936 5.239372
endloop
endfacet
facet normal 0 0 0
outer loop
vertex 21.469193 4.718183 5.259372
vertex 21.469193 4.738936 5.259372
vertex 21.469193 4.738936 5.239372
endloop
endfacet
facet normal 0 0 0
outer loop
vertex 21.551096 4.718183 5.259372
vertex 21.530619 4.738936 5.239372
vertex 21.551096 4.738936 5.259372
endloop
endfacet
facet normal 0 0 0
outer loop
vertex 21.530619 4.718183 5.239372
vertex 21.530619 4.738936 5.239372
vertex 21.551096 4.718183 5.259372
endloop
endfacet
facet normal 0 0 0
outer loop
vertex 21.469193 4.738936 5.239372
vertex 21.469193 4.738936 5.259372
vertex 21.469193 4.759689 5.239372
endloop
endfacet
facet normal 0 0 0
outer loop
vertex 21.469193 4.738936 5.259372
vertex 21.469193 4.759689 5.259372
vertex 21.469193 4.759689 5.239372
endloop
endfacet
facet normal 0 0 0
outer loop
vertex 21.530619 4.738936 5.239372
vertex 21.551096 4.759689 5.239372
vertex 21.551096 4.738936 5.259372
endloop
endfacet
facet normal 0 0 0
outer loop
vertex 21.551096 4.738936 5.259372
vertex 21.551096 4.759689 5.239372
vertex 21.551096 4.759689 5.259372
endloop
endfacet
facet normal 0 0 0
outer loop
vertex 21.448715 4.780443 5.239372
vertex 21.469193 4.759689 5.239372
vertex 21.469193 4.780443 5.259372
endloop
endfacet
facet normal 0 0 0
outer loop
vertex 21.469193 4.759689 5.239372
vertex 21.469193 4.759689 5.259372
vertex 21.469193 4.780443 5.259372
endloop
endfacet
facet normal 0 0 0
outer loop
vertex 21.551096 4.759689 5.239372
vertex 21.530619 4.780443 5.239372
vertex 21.551096 4.780443 5.259372
endloop
endfacet
facet normal 0 0 0
outer loop
vertex 21.551096 4.759689 5.239372
vertex 21.551096 4.780443 5.259372
vertex 21.551096 4.759689 5.259372
endloop
endfacet
facet normal 0 0 0
outer loop
vertex 21.469193 4.801196 5.259372
vertex 21.448715 4.780443 5.239372
vertex 21.469193 4.780443 5.259372
endloop
endfacet
facet normal 0 0 0
outer loop
vertex 21.448715 4.801196 5.239372
vertex 21.448715 4.780443 5.239372
vertex 21.469193 4.801196 5.259372
endloop
endfacet
facet normal 0 0 0
outer loop
vertex 21.551096 4.780443 5.259372
vertex 21.530619 4.801196 5.239372
vertex 21.551096 4.801196 5.259372
endloop
endfacet
facet normal 0 0 0
outer loop
vertex 21.530619 4.780443 5.239372
vertex 21.530619 4.801196 5.239372
vertex 21.551096 4.780443 5.259372
endloop
endfacet
facet normal 0 0 0
outer loop
vertex 21.448715 4.801196 5.239372
vertex 21.469193 4.801196 5.259372
vertex 21.469193 4.821949 5.239372
endloop
endfacet
facet normal 0 0 0
outer loop
vertex 21.469193 4.801196 5.259372
vertex 21.469193 4.821949 5.259372
vertex 21.469193 4.821949 5.239372
endloop
endfacet
facet normal 0 0 0
outer loop
vertex 21.551096 4.801196 5.259372
vertex 21.530619 4.821949 5.239372
vertex 21.551096 4.821949 5.259372
endloop
endfacet
facet normal 0 0 0
outer loop
vertex 21.530619 4.801196 5.239372
vertex 21.530619 4.821949 5.239372
vertex 21.551096 4.801196 5.259372
endloop
endfacet
facet normal 0 0 0
outer loop
vertex 21.469193 4.821949 5.239372
vertex 21.469193 4.821949 5.259372
vertex 21.469193 4.842703 5.239372
endloop
endfacet
facet normal 0 0 0
outer loop
vertex 21.469193 4.821949 5.259372
vertex 21.469193 4.842703 5.259372
vertex 21.469193 4.842703 5.239372
endloop
endfacet
facet normal 0 0 0
outer loop
vertex 21.551096 4.821949 5.259372
vertex 21.530619 4.842703 5.239372
vertex 21.551096 4.842703 5.259372
endloop
endfacet
facet normal 0 0 0
outer loop
vertex 21.530619 4.821949 5.239372
vertex 21.530619 4.842703 5.239372
vertex 21.551096 4.821949 5.259372
endloop
endfacet
facet normal 0 0 0
outer loop
vertex 21.469193 4.842703 5.239372
vertex 21.469193 4.842703 5.259372
vertex 21.469193 4.863456 5.239372
endloop
endfacet
facet normal 0 0 0
outer loop
vertex 21.469193 4.842703 5.259372
vertex 21.469193 4.863456 5.259372
vertex 21.469193 4.863456 5.239372
endloop
endfacet
facet normal 0 0 0
outer loop
vertex 21.551096 4.842703 5.259372
vertex 21.530619 4.863456 5.239372
vertex 21.551096 4.863456 5.259372
endloop
endfacet
facet normal 0 0 0
outer loop
vertex 21.530619 4.842703 5.239372
vertex 21.530619 4.863456 5.239372
vertex 21.551096 4.842703 5.259372
endloop
endfacet
facet normal 0 0 0
outer loop
vertex 21.448715 4.884210 5.259372
vertex 21.469193 4.884210 5.239372
vertex 21.469193 4.863456 5.259372
endloop
endfacet
facet normal 0 0 0
outer loop
vertex 21.469193 4.884210 5.239372
vertex 21.469193 4.863456 5.239372
vertex 21.469193 4.863456 5.259372
endloop
endfacet
facet normal 0 0 0
outer loop
vertex 21.530619 4.863456 5.239372
vertex 21.510143 4.884210 5.239372
vertex 21.530619 4.884210 5.259372
endloop
endfacet
facet normal 0 0 0
outer loop
vertex 21.530619 4.863456 5.239372
vertex 21.530619 4.884210 5.259372
vertex 21.551096 4.863456 5.259372
endloop
endfacet
facet normal 0 0 0
outer loop
vertex 21.469193 4.884210 5.239372
vertex 21.448715 4.904963 5.259372
vertex 21.469193 4.904963 5.239372
endloop
endfacet
facet normal 0 0 0
outer loop
vertex 21.448715 4.884210 5.259372
vertex 21.448715 4.904963 5.259372
vertex 21.469193 4.884210 5.239372
endloop
endfacet
facet normal 0 0 0
outer loop
vertex 21.530619 4.884210 5.259372
vertex 21.510143 4.904963 5.239372
vertex 21.530619 4.904963 5.259372
endloop
endfacet
facet normal 0 0 0
outer loop
vertex 21.510143 4.884210 5.239372
vertex 21.510143 4.904963 5.239372
vertex 21.530619 4.884210 5.259372
endloop
endfacet
facet normal 0 0 0
outer loop
vertex 21.551096 4.904963 5.259372
vertex 21.530619 4.884210 5.259372
vertex 21.530619 4.904963 5.259372
endloop
endfacet
facet normal 0 0 0
outer loop
vertex 21.469193 4.904963 5.239372
vertex 21.448715 4.904963 5.259372
vertex 21.469193 4.925716 5.259372
endloop
endfacet
facet normal 0 0 0
outer loop
vertex 21.448715 4.904963 5.259372
vertex 21.448715 4.925716 5.259372
vertex 21.469193 4.925716 5.259372
endloop
endfacet
facet normal 0 0 0
outer loop
vertex 21.469193 4.904963 5.239372
vertex 21.489668 4.925716 5.259372
vertex 21.489668 4.904963 5.239372
endloop
endfacet
facet normal 0 0 0
outer loop
vertex 21.469193 4.925716 5.259372
vertex 21.489668 4.925716 5.259372
vertex 21.469193 4.904963 5.239372
endloop
endfacet
facet normal 0 0 0
outer loop
vertex 21.489668 4.904963 5.239372
vertex 21.510143 4.925716 5.259372
vertex 21.510143 4.904963 5.239372
endloop
endfacet
facet normal 0 0 0
outer loop
vertex 21.489668 4.925716 5.259372
vertex 21.510143 4.925716 5.259372
vertex 21.489668 4.904963 5.239372
endloop
endfacet
facet normal 0 0 0
outer loop
vertex 21.510143 4.904963 5.239372
vertex 21.510143 4.925716 5.259372
vertex 21.530619 4.904963 5.259372
endloop
endfacet
facet normal 0 0 0
outer loop
vertex 21.510143 4.925716 5.259372
vertex 21.530619 4.925716 5.259372
vertex 21.530619 4.904963 5.259372
endloop
endfacet
facet normal 0 0 0
outer loop
vertex 21.551096 4.904963 5.259372
vertex 21.530619 4.904963 5.259372
vertex 21.551096 4.925716 5.259372
endloop
endfacet
facet normal 0 0 0
outer loop
vertex 21.551096 4.925716 5.259372
vertex 21.530619 4.904963 5.259372
vertex 21.530619 4.925716 5.259372
endloop
endfacet
facet normal 0 0 0
outer loop
vertex 21.448715 4.925716 5.259372
vertex 21.469193 4.946469 5.259372
vertex 21.469193 4.925716 5.259372
endloop
endfacet
facet normal 0 0 0
outer loop
vertex 21.489668 4.925716 5.259372
vertex 21.469193 4.925716 5.259372
vertex 21.489668 4.946469 5.259372
endloop
endfacet
facet normal 0 0 0
outer loop
vertex 21.489668 4.946469 5.259372
vertex 21.469193 4.925716 5.259372
vertex 21.469193 4.946469 5.259372
endloop
endfacet
facet normal 0 0 0
outer loop
vertex 21.510143 4.925716 5.259372
vertex 21.489668 4.925716 5.259372
vertex 21.510143 4.946469 5.259372
endloop
endfacet
facet normal 0 0 0
outer loop
vertex 21.510143 4.946469 5.259372
vertex 21.489668 4.925716 5.259372
vertex 21.489668 4.946469 5.259372
endloop
endfacet
facet normal 0 0 0
outer loop
vertex 21.510143 4.946469 5.259372
vertex 21.530619 4.925716 5.259372
vertex 21.510143 4.925716 5.259372
endloop
endfacet
facet normal 0 0 0
outer loop
vertex 21.489668 4.946469 5.259372
vertex 21.469193 4.946469 5.259372
vertex 21.489668 4.967222 5.259372
endloop
endfacet
facet normal 0 0 0
outer loop
vertex 21.489668 4.967222 5.259372
vertex 21.469193 4.946469 5.259372
vertex 21.469193 4.967222 5.259372
endloop
endfacet
facet normal 0 0 0
outer loop
vertex 21.510143 4.946469 5.259372
vertex 21.489668 4.946469 5.259372
vertex 21.510143 4.967222 5.259372
endloop
endfacet
facet normal 0 0 0
outer loop
vertex 21.510143 4.967222 5.259372
vertex 21.489668 4.946469 5.259372
vertex 21.489668 4.967222 5.259372
endloop
endfacet
facet normal 0 0 0
outer loop
vertex 21.489668 4.967222 5.259372
vertex 21.469193 4.967222 5.259372
vertex 21.489668 4.987976 5.259372
endloop
endfacet
facet normal 0 0 0
outer loop
vertex 21.489668 4.987976 5.259372
vertex 21.469193 4.967222 5.259372
vertex 21.469193 4.987976 5.259372
endloop
endfacet
facet normal 0 0 0
outer loop
vertex 21.510143 4.967222 5.259372
vertex 21.489668 4.967222 5.259372
vertex 21.510143 4.987976 5.259372
endloop
endfacet
facet normal 0 0 0
outer loop
vertex 21.510143 4.987976 5.259372
vertex 21.489668 4.967222 5.259372
vertex 21.489668 4.987976 5.259372
endloop
endfacet
facet normal 0 0 0
outer loop
vertex 21.489668 4.676676 5.259372
vertex 21.489668 4.697430 5.279372
vertex 21.469193 4.697430 5.259372
endloop
endfacet
facet normal 0 0 0
outer loop
vertex 21.510143 4.676676 5.259372
vertex 21.489668 4.697430 5.279372
vertex 21.489668 4.676676 5.259372
endloop
endfacet
facet normal 0 0 0
outer loop
vertex 21.510143 4.697430 5.279372
vertex 21.489668 4.697430 5.279372
vertex 21.510143 4.676676 5.259372
endloop
endfacet
facet normal 0 0 0
outer loop
vertex 21.530619 4.676676 5.259372
vertex 21.510143 4.697430 5.279372
vertex 21.510143 4.676676 5.259372
endloop
endfacet
facet normal 0 0 0
outer loop
vertex 21.530619 4.697430 5.279372
vertex 21.510143 4.697430 5.279372
vertex 21.530619 4.676676 5.259372
endloop
endfacet
facet normal 0 0 0
outer loop
vertex 21.530619 4.676676 5.259372
vertex 21.551096 4.697430 5.259372
vertex 21.530619 4.697430 5.279372
endloop
endfacet
facet normal 0 0 0
outer loop
vertex 21.551096 4.697430 5.259372
vertex 21.551096 4.697430 5.279372
vertex 21.530619 4.697430 5.279372
endloop
endfacet
facet normal 0 0 0
outer loop
vertex 21.469193 4.697430 5.259372
vertex 21.469193 4.718183 5.279372
vertex 21.469193 4.718183 5.259372
endloop
endfacet
facet normal 0 0 0
outer loop
vertex 21.489668 4.697430 5.279372
vertex 21.469193 4.718183 5.279372
vertex 21.469193 4.697430 5.259372
endloop
endfacet
facet normal 0 0 0
outer loop
vertex 21.551096 4.697430 5.259372
vertex 21.551096 4.718183 5.259372
vertex 21.551096 4.697430 5.279372
endloop
endfacet
facet normal 0 0 0
outer loop
vertex 21.551096 4.697430 5.279372
vertex 21.551096 4.718183 5.259372
vertex 21.551096 4.718183 5.279372
endloop
endfacet
facet normal 0 0 0
outer loop
vertex 21.469193 4.718183 5.259372
vertex 21.469193 4.718183 5.279372
vertex 21.469193 4.738936 5.259372
endloop
endfacet
facet normal 0 0 0
outer loop
vertex 21.469193 4.718183 5.279372
vertex 21.469193 4.738936 5.279372
vertex 21.469193 4.738936 5.259372
endloop
endfacet
facet normal 0 0 0
outer loop
vertex 21.551096 4.718183 5.259372
vertex 21.551096 4.738936 5.259372
vertex 21.551096 4.718183 5.279372
endloop
endfacet
facet normal 0 0 0
outer loop
vertex 21.551096 4.718183 5.279372
vertex 21.551096 4.738936 5.259372
vertex 21.551096 4.738936 5.279372
endloop
endfacet
facet normal 0 0 0
outer loop
vertex 21.469193 4.738936 5.259372
vertex 21.469193 4.738936 5.279372
vertex 21.469193 4.759689 5.259372
endloop
endfacet
facet normal 0 0 0
outer loop
vertex 21.469193 4.738936 5.279372
vertex 21.469193 4.759689 5.279372
vertex 21.469193 4.759689 5.259372
endloop
endfacet
facet normal 0 0 0
outer loop
vertex 21.551096 4.738936 5.259372
vertex 21.551096 4.759689 5.259372
vertex 21.551096 4.738936 5.279372
endloop
endfacet
facet normal 0 0 0
outer loop
vertex 21.551096 4.738936 5.279372
vertex 21.551096 4.759689 5.259372
vertex 21.551096 4.759689 5.279372
endloop
endfacet
facet normal 0 0 0
outer loop
vertex 21.469193 4.759689 5.259372
vertex 21.469193 4.759689 5.279372
vertex 21.469193 4.780443 5.259372
endloop
endfacet
facet normal 0 0 0
outer loop
vertex 21.469193 4.759689 5.279372
vertex 21.469193 4.780443 5.279372
vertex 21.469193 4.780443 5.259372
endloop
endfacet
facet normal 0 0 0
outer loop
vertex 21.551096 4.759689 5.259372
vertex 21.551096 4.780443 5.259372
vertex 21.551096 4.759689 5.279372
endloop
endfacet
facet normal 0 0 0
outer loop
vertex 21.551096 4.759689 5.279372
vertex 21.551096 4.780443 5.259372
vertex 21.551096 4.780443 5.279372
endloop
endfacet
facet normal 0 0 0
outer loop
vertex 21.469193 4.780443 5.259372
vertex 21.469193 4.780443 5.279372
vertex 21.469193 4.801196 5.259372
endloop
endfacet
facet normal 0 0 0
outer loop
vertex 21.469193 4.780443 5.279372
vertex 21.469193 4.801196 5.279372
vertex 21.469193 4.801196 5.259372
endloop
endfacet
facet normal 0 0 0
outer loop
vertex 21.551096 4.780443 5.259372
vertex 21.551096 4.801196 5.259372
vertex 21.551096 4.780443 5.279372
endloop
endfacet
facet normal 0 0 0
outer loop
vertex 21.551096 4.780443 5.279372
vertex 21.551096 4.801196 5.259372
vertex 21.551096 4.801196 5.279372
endloop
endfacet
facet normal 0 0 0
outer loop
vertex 21.469193 4.801196 5.259372
vertex 21.469193 4.801196 5.279372
vertex 21.469193 4.821949 5.259372
endloop
endfacet
facet normal 0 0 0
outer loop
vertex 21.469193 4.801196 5.279372
vertex 21.469193 4.821949 5.279372
vertex 21.469193 4.821949 5.259372
endloop
endfacet
facet normal 0 0 0
outer loop
vertex 21.551096 4.801196 5.259372
vertex 21.551096 4.821949 5.259372
vertex 21.551096 4.801196 5.279372
endloop
endfacet
facet normal 0 0 0
outer loop
vertex 21.551096 4.801196 5.279372
vertex 21.551096 4.821949 5.259372
vertex 21.551096 4.821949 5.279372
endloop
endfacet
facet normal 0 0 0
outer loop
vertex 21.469193 4.821949 5.259372
vertex 21.469193 4.821949 5.279372
vertex 21.469193 4.842703 5.259372
endloop
endfacet
facet normal 0 0 0
outer loop
vertex 21.469193 4.821949 5.279372
vertex 21.469193 4.842703 5.279372
vertex 21.469193 4.842703 5.259372
endloop
endfacet
facet normal 0 0 0
outer loop
vertex 21.551096 4.821949 5.259372
vertex 21.551096 4.842703 5.259372
vertex 21.551096 4.821949 5.279372
endloop
endfacet
facet normal 0 0 0
outer loop
vertex 21.551096 4.821949 5.279372
vertex 21.551096 4.842703 5.259372
vertex 21.551096 4.842703 5.279372
endloop
endfacet
facet normal 0 0 0
outer loop
vertex 21.448715 4.863456 5.279372
vertex 21.469193 4.863456 5.259372
vertex 21.469193 4.842703 5.279372
endloop
endfacet
facet normal 0 0 0
outer loop
vertex 21.469193 4.863456 5.259372
vertex 21.469193 4.842703 5.259372
vertex 21.469193 4.842703 5.279372
endloop
endfacet
facet normal 0 0 0
outer loop
vertex 21.551096 4.842703 5.259372
vertex 21.551096 4.863456 5.259372
vertex 21.551096 4.842703 5.279372
endloop
endfacet
facet normal 0 0 0
outer loop
vertex 21.551096 4.842703 5.279372
vertex 21.551096 4.863456 5.259372
vertex 21.551096 4.863456 5.279372
endloop
endfacet
facet normal 0 0 0
outer loop
vertex 21.448715 4.884210 5.259372
vertex 21.448715 4.863456 5.279372
vertex 21.448715 4.884210 5.279372
endloop
endfacet
facet normal 0 0 0
outer loop
vertex 21.469193 4.863456 5.259372
vertex 21.448715 4.863456 5.279372
vertex 21.448715 4.884210 5.259372
endloop
endfacet
facet normal 0 0 0
outer loop
vertex 21.551096 4.863456 5.259372
vertex 21.530619 4.884210 5.259372
vertex 21.551096 4.884210 5.279372
endloop
endfacet
facet normal 0 0 0
outer loop
vertex 21.551096 4.863456 5.259372
vertex 21.551096 4.884210 5.279372
vertex 21.551096 4.863456 5.279372
endloop
endfacet
facet normal 0 0 0
outer loop
vertex 21.448715 4.884210 5.259372
vertex 21.448715 4.884210 5.279372
vertex 21.448715 4.904963 5.259372
endloop
endfacet
facet normal 0 0 0
outer loop
vertex 21.448715 4.884210 5.279372
vertex 21.448715 4.904963 5.279372
vertex 21.448715 4.904963 5.259372
endloop
endfacet
facet normal 0 0 0
outer loop
vertex 21.530619 4.884210 5.259372
vertex 21.551096 4.904963 5.259372
vertex 21.551096 4.884210 5.279372
endloop
endfacet
facet normal 0 0 0
outer loop
vertex 21.551096 4.884210 5.279372
vertex 21.551096 4.904963 5.259372
vertex 21.551096 4.904963 5.279372
endloop
endfacet
facet normal 0 0 0
outer loop
vertex 21.448715 4.904963 5.259372
vertex 21.448715 4.904963 5.279372
vertex 21.448715 4.925716 5.259372
endloop
endfacet
facet normal 0 0 0
outer loop
vertex 21.448715 4.904963 5.279372
vertex 21.448715 4.925716 5.279372
vertex 21.448715 4.925716 5.259372
endloop
endfacet
facet normal 0 0 0
outer loop
vertex 21.551096 4.904963 5.259372
vertex 21.551096 4.925716 5.259372
vertex 21.551096 4.904963 5.279372
endloop
endfacet
facet normal 0 0 0
outer loop
vertex 21.551096 4.904963 5.279372
vertex 21.551096 4.925716 5.259372
vertex 21.551096 4.925716 5.279372
endloop
endfacet
facet normal 0 0 0
outer loop
vertex 21.448715 4.925716 5.279372
vertex 21.469193 4.946469 5.259372
vertex 21.448715 4.925716 5.259372
endloop
endfacet
facet normal 0 0 0
outer loop
vertex 21.469193 4.946469 5.279372
vertex 21.469193 4.946469 5.259372
vertex 21.448715 4.925716 5.279372
endloop
endfacet
facet normal 0 0 0
outer loop
vertex 21.530619 4.925716 5.259372
vertex 21.510143 4.946469 5.259372
vertex 21.530619 4.946469 5.279372
endloop
endfacet
facet normal 0 0 0
outer loop
vertex 21.530619 4.925716 5.259372
vertex 21.551096 4.946469 5.279372
vertex 21.551096 4.925716 5.259372
endloop
endfacet
facet normal 0 0 0
outer loop
vertex 21.530619 4.946469 5.279372
vertex 21.551096 4.946469 5.279372
vertex 21.530619 4.925716 5.259372
endloop
endfacet
facet normal 0 0 0
outer loop
vertex 21.551096 4.925716 5.259372
vertex 21.551096 4.946469 5.279372
vertex 21.551096 4.925716 5.279372
endloop
endfacet
facet normal 0 0 0
outer loop
vertex 21.469193 4.946469 5.259372
vertex 21.469193 4.946469 5.279372
vertex 21.469193 4.967222 5.259372
endloop
endfacet
facet normal 0 0 0
outer loop
vertex 21.469193 4.946469 5.279372
vertex 21.469193 4.967222 5.279372
vertex 21.469193 4.967222 5.259372
endloop
endfacet
facet normal 0 0 0
outer loop
vertex 21.530619 4.946469 5.279372
vertex 21.510143 4.967222 5.259372
vertex 21.530619 4.967222 5.279372
endloop
endfacet
facet normal 0 0 0
outer loop
vertex 21.510143 4.946469 5.259372
vertex 21.510143 4.967222 5.259372
vertex 21.530619 4.946469 5.279372
endloop
endfacet
facet normal 0 0 0
outer loop
vertex 21.530619 4.967222 5.279372
vertex 21.551096 4.946469 5.279372
vertex 21.530619 4.946469 5.279372
endloop
endfacet
facet normal 0 0 0
outer loop
vertex 21.469193 4.967222 5.259372
vertex 21.469193 4.967222 5.279372
vertex 21.469193 4.987976 5.259372
endloop
endfacet
facet normal 0 0 0
outer loop
vertex 21.469193 4.967222 5.279372
vertex 21.469193 4.987976 5.279372
vertex 21.469193 4.987976 5.259372
endloop
endfacet
facet normal 0 0 0
outer loop
vertex 21.530619 4.967222 5.279372
vertex 21.510143 4.987976 5.259372
vertex 21.530619 4.987976 5.279372
endloop
endfacet
facet normal 0 0 0
outer loop
vertex 21.510143 4.967222 5.259372
vertex 21.510143 4.987976 5.259372
vertex 21.530619 4.967222 5.279372
endloop
endfacet
facet normal 0 0 0
outer loop
vertex 21.551096 4.987976 5.279372
vertex 21.530619 4.967222 5.279372
vertex 21.530619 4.987976 5.279372
endloop
endfacet
facet normal 0 0 0
outer loop
vertex 21.469193 5.008729 5.279372
vertex 21.469193 4.987976 5.259372
vertex 21.469193 4.987976 5.279372
endloop
endfacet
facet normal 0 0 0
outer loop
vertex 21.469193 4.987976 5.259372
vertex 21.489668 5.008729 5.279372
vertex 21.489668 4.987976 5.259372
endloop
endfacet
facet normal 0 0 0
outer loop
vertex 21.469193 5.008729 5.279372
vertex 21.489668 5.008729 5.279372
vertex 21.469193 4.987976 5.259372
endloop
endfacet
facet normal 0 0 0
outer loop
vertex 21.489668 4.987976 5.259372
vertex 21.510143 5.008729 5.279372
vertex 21.510143 4.987976 5.259372
endloop
endfacet
facet normal 0 0 0
outer loop
vertex 21.489668 5.008729 5.279372
vertex 21.510143 5.008729 5.279372
vertex 21.489668 4.987976 5.259372
endloop
endfacet
facet normal 0 0 0
outer loop
vertex 21.510143 4.987976 5.259372
vertex 21.510143 5.008729 5.279372
vertex 21.530619 4.987976 5.279372
endloop
endfacet
facet normal 0 0 0
outer loop
vertex 21.510143 5.008729 5.279372
vertex 21.530619 5.008729 5.279372
vertex 21.530619 4.987976 5.279372
endloop
endfacet
facet normal 0 0 0
outer loop
vertex 21.551096 4.987976 5.279372
vertex 21.530619 4.987976 5.279372
vertex 21.551096 5.008729 5.279372
endloop
endfacet
facet normal 0 0 0
outer loop
vertex 21.551096 5.008729 5.279372
vertex 21.530619 4.987976 5.279372
vertex 21.530619 5.008729 5.279372
endloop
endfacet
facet normal 0 0 0
outer loop
vertex 21.489668 5.008729 5.279372
vertex 21.469193 5.008729 5.279372
vertex 21.489668 5.029483 5.279372
endloop
endfacet
facet normal 0 0 0
outer loop
vertex 21.489668 5.029483 5.279372
vertex 21.469193 5.008729 5.279372
vertex 21.469193 5.029483 5.279372
endloop
endfacet
facet normal 0 0 0
outer loop
vertex 21.510143 5.008729 5.279372
vertex 21.489668 5.008729 5.279372
vertex 21.510143 5.029483 5.279372
endloop
endfacet
facet normal 0 0 0
outer loop
vertex 21.510143 5.029483 5.279372
vertex 21.489668 5.008729 5.279372
vertex 21.489668 5.029483 5.279372
endloop
endfacet
facet normal 0 0 0
outer loop
vertex 21.530619 5.008729 5.279372
vertex 21.510143 5.008729 5.279372
vertex 21.530619 5.029483 5.279372
endloop
endfacet
facet normal 0 0 0
outer loop
vertex 21.530619 5.029483 5.279372
vertex 21.510143 5.008729 5.279372
vertex 21.510143 5.029483 5.279372
endloop
endfacet
facet normal 0 0 0
outer loop
vertex 21.530619 5.029483 5.279372
vertex 21.551096 5.008729 5.279372
vertex 21.530619 5.008729 5.279372
endloop
endfacet
facet normal 0 0 0
outer loop
vertex 21.469193 5.029483 5.279372
vertex 21.489668 5.050236 5.279372
vertex 21.489668 5.029483 5.279372
endloop
endfacet
facet normal 0 0 0
outer loop
vertex 21.510143 5.029483 5.279372
vertex 21.489668 5.029483 5.279372
vertex 21.510143 5.050236 5.279372
endloop
endfacet
facet normal 0 0 0
outer loop
vertex 21.510143 5.050236 5.279372
vertex 21.489668 5.029483 5.279372
vertex 21.489668 5.050236 5.279372
endloop
endfacet
facet normal 0 0 0
outer loop
vertex 21.510143 5.050236 5.279372
vertex 21.530619 5.029483 5.279372
vertex 21.510143 5.029483 5.279372
endloop
endfacet
facet normal 0 0 0
outer loop
vertex 21.469193 4.718183 5.279372
vertex 21.489668 4.697430 5.279372
vertex 21.489668 4.718183 5.279372
endloop
endfacet
facet normal 0 0 0
outer loop
vertex 21.510143 4.697430 5.279372
vertex 21.510143 4.718183 5.279372
vertex 21.489668 4.697430 5.279372
endloop
endfacet
facet normal 0 0 0
outer loop
vertex 21.510143 4.718183 5.279372
vertex 21.489668 4.718183 5.279372
vertex 21.489668 4.697430 5.279372
endloop
endfacet
facet normal 0 0 0
outer loop
vertex 21.530619 4.697430 5.279372
vertex 21.530619 4.718183 5.279372
vertex 21.510143 4.697430 5.279372
endloop
endfacet
facet normal 0 0 0
outer loop
vertex 21.530619 4.718183 5.279372
vertex 21.510143 4.718183 5.279372
vertex 21.510143 4.697430 5.279372
endloop
endfacet
facet normal 0 0 0
outer loop
vertex 21.551096 4.697430 5.279372
vertex 21.551096 4.718183 5.279372
vertex 21.530619 4.697430 5.279372
endloop
endfacet
facet normal 0 0 0
outer loop
vertex 21.551096 4.718183 5.279372
vertex 21.530619 4.718183 5.279372
vertex 21.530619 4.697430 5.279372
endloop
endfacet
facet normal 0 0 0
outer loop
vertex 21.489668 4.718183 5.279372
vertex 21.489668 4.738936 5.279372
vertex 21.469193 4.718183 5.279372
endloop
endfacet
facet normal 0 0 0
outer loop
vertex 21.489668 4.738936 5.279372
vertex 21.469193 4.738936 5.279372
vertex 21.469193 4.718183 5.279372
endloop
endfacet
facet normal 0 0 0
outer loop
vertex 21.510143 4.738936 5.299372
vertex 21.489668 4.738936 5.279372
vertex 21.510143 4.718183 5.279372
endloop
endfacet
facet normal 0 0 0
outer loop
vertex 21.489668 4.738936 5.279372
vertex 21.489668 4.718183 5.279372
vertex 21.510143 4.718183 5.279372
endloop
endfacet
facet normal 0 0 0
outer loop
vertex 21.530619 4.718183 5.279372
vertex 21.510143 4.738936 5.299372
vertex 21.510143 4.718183 5.279372
endloop
endfacet
facet normal 0 0 0
outer loop
vertex 21.530619 4.738936 5.299372
vertex 21.510143 4.738936 5.299372
vertex 21.530619 4.718183 5.279372
endloop
endfacet
facet normal 0 0 0
outer loop
vertex 21.551096 4.718183 5.279372
vertex 21.530619 4.738936 5.299372
vertex 21.530619 4.718183 5.279372
endloop
endfacet
facet normal 0 0 0
outer loop
vertex 21.551096 4.738936 5.299372
vertex 21.530619 4.738936 5.299372
vertex 21.551096 4.718183 5.279372
endloop
endfacet
facet normal 0 0 0
outer loop
vertex 21.551096 4.738936 5.299372
vertex 21.551096 4.718183 5.279372
vertex 21.551096 4.738936 5.279372
endloop
endfacet
facet normal 0 0 0
outer loop
vertex 21.469193 4.738936 5.279372
vertex 21.469193 4.759689 5.299372
vertex 21.469193 4.759689 5.279372
endloop
endfacet
facet normal 0 0 0
outer loop
vertex 21.489668 4.738936 5.279372
vertex 21.469193 4.759689 5.299372
vertex 21.469193 4.738936 5.279372
endloop
endfacet
facet normal 0 0 0
outer loop
vertex 21.489668 4.759689 5.299372
vertex 21.469193 4.759689 5.299372
vertex 21.489668 4.738936 5.279372
endloop
endfacet
facet normal 0 0 0
outer loop
vertex 21.510143 4.738936 5.299372
vertex 21.489668 4.759689 5.299372
vertex 21.489668 4.738936 5.279372
endloop
endfacet
facet normal 0 0 0
outer loop
vertex 21.551096 4.738936 5.279372
vertex 21.551096 4.759689 5.279372
vertex 21.551096 4.738936 5.299372
endloop
endfacet
facet normal 0 0 0
outer loop
vertex 21.551096 4.738936 5.299372
vertex 21.551096 4.759689 5.279372
vertex 21.551096 4.759689 5.299372
endloop
endfacet
facet normal 0 0 0
outer loop
vertex 21.469193 4.759689 5.299372
vertex 21.469193 4.780443 5.279372
vertex 21.469193 4.759689 5.279372
endloop
endfacet
facet normal 0 0 0
outer loop
vertex 21.469193 4.759689 5.299372
vertex 21.489668 4.780443 5.299372
vertex 21.469193 4.780443 5.279372
endloop
endfacet
facet normal 0 0 0
outer loop
vertex 21.551096 4.759689 5.279372
vertex 21.551096 4.780443 5.279372
vertex 21.551096 4.759689 5.299372
endloop
endfacet
facet normal 0 0 0
outer loop
vertex 21.551096 4.759689 5.299372
vertex 21.551096 4.780443 5.279372
vertex 21.551096 4.780443 5.299372
endloop
endfacet
facet normal 0 0 0
outer loop
vertex 21.469193 4.780443 5.279372
vertex 21.469193 4.801196 5.299372
vertex 21.469193 4.801196 5.279372
endloop
endfacet
facet normal 0 0 0
outer loop
vertex 21.489668 4.780443 5.299372
vertex 21.469193 4.801196 5.299372
vertex 21.469193 4.780443 5.279372
endloop
endfacet
facet normal 0 0 0
outer loop
vertex 21.551096 4.780443 5.279372
vertex 21.551096 4.801196 5.279372
vertex 21.551096 4.780443 5.299372
endloop
endfacet
facet normal 0 0 0
outer loop
vertex 21.551096 4.780443 5.299372
vertex 21.551096 4.801196 5.279372
vertex 21.551096 4.801196 5.299372
endloop
endfacet
facet normal 0 0 0
outer loop
vertex 21.469193 4.801196 5.279372
vertex 21.469193 4.801196 5.299372
vertex 21.469193 4.821949 5.279372
endloop
endfacet
facet normal 0 0 0
outer loop
vertex 21.469193 4.801196 5.299372
vertex 21.469193 4.821949 5.299372
vertex 21.469193 4.821949 5.279372
endloop
endfacet
facet normal 0 0 0
outer loop
vertex 21.551096 4.801196 5.279372
vertex 21.551096 4.821949 5.279372
vertex 21.551096 4.801196 5.299372
endloop
endfacet
facet normal 0 0 0
outer loop
vertex 21.551096 4.801196 5.299372
vertex 21.551096 4.821949 5.279372
vertex 21.551096 4.821949 5.299372
endloop
endfacet
facet normal 0 0 0
outer loop
vertex 21.469193 4.821949 5.279372
vertex 21.469193 4.821949 5.299372
vertex 21.469193 4.842703 5.279372
endloop
endfacet
facet normal 0 0 0
outer loop
vertex 21.469193 4.821949 5.299372
vertex 21.469193 4.842703 5.299372
vertex 21.469193 4.842703 5.279372
endloop
endfacet
facet normal 0 0 0
outer loop
vertex 21.551096 4.821949 5.279372
vertex 21.551096 4.842703 5.279372
vertex 21.551096 4.821949 5.299372
endloop
endfacet
facet normal 0 0 0
outer loop
vertex 21.551096 4.821949 5.299372
vertex 21.551096 4.842703 5.279372
vertex 21.551096 4.842703 5.299372
endloop
endfacet
facet normal 0 0 0
outer loop
vertex 21.448715 4.863456 5.279372
vertex 21.469193 4.842703 5.279372
vertex 21.469193 4.863456 5.299372
endloop
endfacet
facet normal 0 0 0
outer loop
vertex 21.469193 4.842703 5.279372
vertex 21.469193 4.842703 5.299372
vertex 21.469193 4.863456 5.299372
endloop
endfacet
facet normal 0 0 0
outer loop
vertex 21.551096 4.842703 5.279372
vertex 21.551096 4.863456 5.279372
vertex 21.551096 4.842703 5.299372
endloop
endfacet
facet normal 0 0 0
outer loop
vertex 21.551096 4.842703 5.299372
vertex 21.551096 4.863456 5.279372
vertex 21.551096 4.863456 5.299372
endloop
endfacet
facet normal 0 0 0
outer loop
vertex 21.469193 4.884210 5.299372
vertex 21.448715 4.863456 5.279372
vertex 21.469193 4.863456 5.299372
endloop
endfacet
facet normal 0 0 0
outer loop
vertex 21.448715 4.884210 5.279372
vertex 21.448715 4.863456 5.279372
vertex 21.469193 4.884210 5.299372
endloop
endfacet
facet normal 0 0 0
outer loop
vertex 21.551096 4.863456 5.279372
vertex 21.551096 4.884210 5.279372
vertex 21.551096 4.863456 5.299372
endloop
endfacet
facet normal 0 0 0
outer loop
vertex 21.551096 4.863456 5.299372
vertex 21.551096 4.884210 5.279372
vertex 21.551096 4.884210 5.299372
endloop
endfacet
facet normal 0 0 0
outer loop
vertex 21.469193 4.904963 5.299372
vertex 21.448715 4.884210 5.279372
vertex 21.469193 4.884210 5.299372
endloop
endfacet
facet normal 0 0 0
outer loop
vertex 21.448715 4.904963 5.279372
vertex 21.448715 4.884210 5.279372
vertex 21.469193 4.904963 5.299372
endloop
endfacet
facet normal 0 0 0
outer loop
vertex 21.551096 4.884210 5.279372
vertex 21.551096 4.904963 5.279372
vertex 21.551096 4.884210 5.299372
endloop
endfacet
facet normal 0 0 0
outer loop
vertex 21.551096 4.884210 5.299372
vertex 21.551096 4.904963 5.279372
vertex 21.551096 4.904963 5.299372
endloop
endfacet
facet normal 0 0 0
outer loop
vertex 21.469193 4.925716 5.299372
vertex 21.448715 4.904963 5.279372
vertex 21.469193 4.904963 5.299372
endloop
endfacet
facet normal 0 0 0
outer loop
vertex 21.448715 4.925716 5.279372
vertex 21.448715 4.904963 5.279372
vertex 21.469193 4.925716 5.299372
endloop
endfacet
facet normal 0 0 0
outer loop
vertex 21.551096 4.904963 5.279372
vertex 21.551096 4.925716 5.279372
vertex 21.551096 4.904963 5.299372
endloop
endfacet
facet normal 0 0 0
outer loop
vertex 21.551096 4.904963 5.299372
vertex 21.551096 4.925716 5.279372
vertex 21.551096 4.925716 5.299372
endloop
endfacet
facet normal 0 0 0
outer loop
vertex 21.448715 4.925716 5.279372
vertex 21.469193 4.925716 5.299372
vertex 21.469193 4.946469 5.279372
endloop
endfacet
facet normal 0 0 0
outer loop
vertex 21.469193 4.925716 5.299372
vertex 21.469193 4.946469 5.299372
vertex 21.469193 4.946469 5.279372
endloop
endfacet
facet normal 0 0 0
outer loop
vertex 21.551096 4.925716 5.279372
vertex 21.551096 4.946469 5.279372
vertex 21.551096 4.925716 5.299372
endloop
endfacet
facet normal 0 0 0
outer loop
vertex 21.551096 4.925716 5.299372
vertex 21.551096 4.946469 5.279372
vertex 21.551096 4.946469 5.299372
endloop
endfacet
facet normal 0 0 0
outer loop
vertex 21.469193 4.946469 5.279372
vertex 21.469193 4.946469 5.299372
vertex 21.469193 4.967222 5.279372
endloop
endfacet
facet normal 0 0 0
outer loop
vertex 21.469193 4.946469 5.299372
vertex 21.469193 4.967222 5.299372
vertex 21.469193 4.967222 5.279372
endloop
endfacet
facet normal 0 0 0
outer loop
vertex 21.551096 4.946469 5.279372
vertex 21.530619 4.967222 5.279372
vertex 21.551096 4.967222 5.299372
endloop
endfacet
facet normal 0 0 0
outer loop
vertex 21.551096 4.946469 5.279372
vertex 21.551096 4.967222 5.299372
vertex 21.551096 4.946469 5.299372
endloop
endfacet
facet normal 0 0 0
outer loop
vertex 21.469193 4.967222 5.279372
vertex 21.469193 4.967222 5.299372
vertex 21.469193 4.987976 5.279372
endloop
endfacet
facet normal 0 0 0
outer loop
vertex 21.469193 4.967222 5.299372
vertex 21.469193 4.987976 5.299372
vertex 21.469193 4.987976 5.279372
endloop
endfacet
facet normal 0 0 0
outer loop
vertex 21.530619 4.967222 5.279372
vertex 21.551096 4.987976 5.279372
vertex 21.551096 4.967222 5.299372
endloop
endfacet
facet normal 0 0 0
outer loop
vertex 21.551096 4.967222 5.299372
vertex 21.551096 4.987976 5.279372
vertex 21.551096 4.987976 5.299372
endloop
endfacet
facet normal 0 0 0
outer loop
vertex 21.469193 4.987976 5.279372
vertex 21.469193 4.987976 5.299372
vertex 21.469193 5.008729 5.279372
endloop
endfacet
facet normal 0 0 0
outer loop
vertex 21.469193 4.987976 5.299372
vertex 21.469193 5.008729 5.299372
vertex 21.469193 5.008729 5.279372
endloop
endfacet
facet normal 0 0 0
outer loop
vertex 21.551096 4.987976 5.279372
vertex 21.551096 5.008729 5.279372
vertex 21.551096 4.987976 5.299372
endloop
endfacet
facet normal 0 0 0
outer loop
vertex 21.551096 4.987976 5.299372
vertex 21.551096 5.008729 5.279372
vertex 21.551096 5.008729 5.299372
endloop
endfacet
facet normal 0 0 0
outer loop
vertex 21.469193 5.008729 5.279372
vertex 21.469193 5.008729 5.299372
vertex 21.469193 5.029483 5.279372
endloop
endfacet
facet normal 0 0 0
outer loop
vertex 21.469193 5.008729 5.299372
vertex 21.469193 5.029483 5.299372
vertex 21.469193 5.029483 5.279372
endloop
endfacet
facet normal 0 0 0
outer loop
vertex 21.551096 5.008729 5.279372
vertex 21.530619 5.029483 5.279372
vertex 21.551096 5.029483 5.299372
endloop
endfacet
facet normal 0 0 0
outer loop
vertex 21.551096 5.008729 5.279372
vertex 21.551096 5.029483 5.299372
vertex 21.551096 5.008729 5.299372
endloop
endfacet
facet normal 0 0 0
outer loop
vertex 21.469193 5.050236 5.299372
vertex 21.469193 5.029483 5.279372
vertex 21.469193 5.029483 5.299372
endloop
endfacet
facet normal 0 0 0
outer loop
vertex 21.469193 5.029483 5.279372
vertex 21.469193 5.050236 5.299372
vertex 21.489668 5.050236 5.279372
endloop
endfacet
facet normal 0 0 0
outer loop
vertex 21.530619 5.029483 5.279372
vertex 21.510143 5.050236 5.279372
vertex 21.530619 5.050236 5.299372
endloop
endfacet
facet normal 0 0 0
outer loop
vertex 21.530619 5.029483 5.279372
vertex 21.530619 5.050236 5.299372
vertex 21.551096 5.029483 5.299372
endloop
endfacet
facet normal 0 0 0
outer loop
vertex 21.530619 5.050236 5.299372
vertex 21.551096 5.050236 5.299372
vertex 21.551096 5.029483 5.299372
endloop
endfacet
facet normal 0 0 0
outer loop
vertex 21.489668 5.050236 5.279372
vertex 21.469193 5.050236 5.299372
vertex 21.489668 5.070990 5.299372
endloop
endfacet
facet normal 0 0 0
outer loop
vertex 21.469193 5.050236 5.299372
vertex 21.469193 5.070990 5.299372
vertex 21.489668 5.070990 5.299372
endloop
endfacet
facet normal 0 0 0
outer loop
vertex 21.489668 5.050236 5.279372
vertex 21.510143 5.070990 5.299372
vertex 21.510143 5.050236 5.279372
endloop
endfacet
facet normal 0 0 0
outer loop
vertex 21.489668 5.070990 5.299372
vertex 21.510143 5.070990 5.299372
vertex 21.489668 5.050236 5.279372
endloop
endfacet
facet normal 0 0 0
outer loop
vertex 21.510143 5.050236 5.279372
vertex 21.510143 5.070990 5.299372
vertex 21.530619 5.050236 5.299372
endloop
endfacet
facet normal 0 0 0
outer loop
vertex 21.510143 5.070990 5.299372
vertex 21.530619 5.070990 5.299372
vertex 21.530619 5.050236 5.299372
endloop
endfacet
facet normal 0 0 0
outer loop
vertex 21.530619 5.070990 5.299372
vertex 21.551096 5.050236 5.299372
vertex 21.530619 5.050236 5.299372
endloop
endfacet
facet normal 0 0 0
outer loop
vertex 21.489668 5.070990 5.299372
vertex 21.469193 5.070990 5.299372
vertex 21.489668 5.091743 5.299372
endloop
endfacet
facet normal 0 0 0
outer loop
vertex 21.489668 5.091743 5.299372
vertex 21.469193 5.070990 5.299372
vertex 21.469193 5.091743 5.299372
endloop
endfacet
facet normal 0 0 0
outer loop
vertex 21.510143 5.070990 5.299372
vertex 21.489668 5.070990 5.299372
vertex 21.510143 5.091743 5.299372
endloop
endfacet
facet normal 0 0 0
outer loop
vertex 21.510143 5.091743 5.299372
vertex 21.489668 5.070990 5.299372
vertex 21.489668 5.091743 5.299372
endloop
endfacet
facet normal 0 0 0
outer loop
vertex 21.530619 5.070990 5.299372
vertex 21.510143 5.070990 5.299372
vertex 21.530619 5.091743 5.299372
endloop
endfacet
facet normal 0 0 0
outer loop
vertex 21.530619 5.091743 5.299372
vertex 21.510143 5.070990 5.299372
vertex 21.510143 5.091743 5.299372
endloop
endfacet
facet normal 0 0 0
outer loop
vertex 21.469193 5.091743 5.299372
vertex 21.489668 5.112496 5.299372
vertex 21.489668 5.091743 5.299372
endloop
endfacet
facet normal 0 0 0
outer loop
vertex 21.510143 5.091743 5.299372
vertex 21.489668 5.091743 5.299372
vertex 21.510143 5.112496 5.299372
endloop
endfacet
facet normal 0 0 0
outer loop
vertex 21.510143 5.112496 5.299372
vertex 21.489668 5.091743 5.299372
vertex 21.489668 5.112496 5.299372
endloop
endfacet
facet normal 0 0 0
outer loop
vertex 21.510143 5.112496 5.299372
vertex 21.530619 5.091743 5.299372
vertex 21.510143 5.091743 5.299372
endloop
endfacet
facet normal 0 0 0
outer loop
vertex 21.489668 4.759689 5.299372
vertex 21.510143 4.738936 5.299372
vertex 21.510143 4.759689 5.299372
endloop
endfacet
facet normal 0 0 0
outer loop
vertex 21.530619 4.738936 5.299372
vertex 21.530619 4.759689 5.299372
vertex 21.510143 4.738936 5.299372
endloop
endfacet
facet normal 0 0 0
outer loop
vertex 21.530619 4.759689 5.299372
vertex 21.510143 4.759689 5.299372
vertex 21.510143 4.738936 5.299372
endloop
endfacet
facet normal 0 0 0
outer loop
vertex 21.551096 4.738936 5.299372
vertex 21.551096 4.759689 5.299372
vertex 21.530619 4.738936 5.299372
endloop
endfacet
facet normal 0 0 0
outer loop
vertex 21.551096 4.759689 5.299372
vertex 21.530619 4.759689 5.299372
vertex 21.530619 4.738936 5.299372
endloop
endfacet
facet normal 0 0 0
outer loop
vertex 21.489668 4.780443 5.299372
vertex 21.469193 4.759689 5.299372
vertex 21.489668 4.759689 5.299372
endloop
endfacet
facet normal 0 0 0
outer loop
vertex 21.510143 4.759689 5.299372
vertex 21.510143 4.780443 5.299372
vertex 21.489668 4.759689 5.299372
endloop
endfacet
facet normal 0 0 0
outer loop
vertex 21.510143 4.780443 5.299372
vertex 21.489668 4.780443 5.299372
vertex 21.489668 4.759689 5.299372
endloop
endfacet
facet normal 0 0 0
outer loop
vertex 21.530619 4.759689 5.299372
vertex 21.530619 4.780443 5.299372
vertex 21.510143 4.759689 5.299372
endloop
endfacet
facet normal 0 0 0
outer loop
vertex 21.530619 4.780443 5.299372
vertex 21.510143 4.780443 5.299372
vertex 21.510143 4.759689 5.299372
endloop
endfacet
facet normal 0 0 0
outer loop
vertex 21.551096 4.759689 5.299372
vertex 21.551096 4.780443 5.299372
vertex 21.530619 4.759689 5.299372
endloop
endfacet
facet normal 0 0 0
outer loop
vertex 21.551096 4.780443 5.299372
vertex 21.530619 4.780443 5.299372
vertex 21.530619 4.759689 5.299372
endloop
endfacet
facet normal 0 0 0
outer loop
vertex 21.469193 4.801196 5.299372
vertex 21.489668 4.780443 5.299372
vertex 21.489668 4.801196 5.299372
endloop
endfacet
facet normal 0 0 0
outer loop
vertex 21.510143 4.801196 5.319372
vertex 21.489668 4.801196 5.299372
vertex 21.510143 4.780443 5.299372
endloop
endfacet
facet normal 0 0 0
outer loop
vertex 21.489668 4.801196 5.299372
vertex 21.489668 4.780443 5.299372
vertex 21.510143 4.780443 5.299372
endloop
endfacet
facet normal 0 0 0
outer loop
vertex 21.530619 4.780443 5.299372
vertex 21.510143 4.801196 5.319372
vertex 21.510143 4.780443 5.299372
endloop
endfacet
facet normal 0 0 0
outer loop
vertex 21.530619 4.801196 5.319372
vertex 21.510143 4.801196 5.319372
vertex 21.530619 4.780443 5.299372
endloop
endfacet
facet normal 0 0 0
outer loop
vertex 21.551096 4.780443 5.299372
vertex 21.530619 4.801196 5.319372
vertex 21.530619 4.780443 5.299372
endloop
endfacet
facet normal 0 0 0
outer loop
vertex 21.551096 4.801196 5.319372
vertex 21.530619 4.801196 5.319372
vertex 21.551096 4.780443 5.299372
endloop
endfacet
facet normal 0 0 0
outer loop
vertex 21.551096 4.801196 5.319372
vertex 21.551096 4.780443 5.299372
vertex 21.551096 4.801196 5.299372
endloop
endfacet
facet normal 0 0 0
outer loop
vertex 21.489668 4.801196 5.299372
vertex 21.489668 4.821949 5.299372
vertex 21.469193 4.801196 5.299372
endloop
endfacet
facet normal 0 0 0
outer loop
vertex 21.489668 4.821949 5.299372
vertex 21.469193 4.821949 5.299372
vertex 21.469193 4.801196 5.299372
endloop
endfacet
facet normal 0 0 0
outer loop
vertex 21.510143 4.821949 5.319372
vertex 21.489668 4.801196 5.299372
vertex 21.510143 4.801196 5.319372
endloop
endfacet
facet normal 0 0 0
outer loop
vertex 21.489668 4.821949 5.299372
vertex 21.489668 4.801196 5.299372
vertex 21.510143 4.821949 5.319372
endloop
endfacet
facet normal 0 0 0
outer loop
vertex 21.551096 4.801196 5.299372
vertex 21.551096 4.821949 5.299372
vertex 21.551096 4.801196 5.319372
endloop
endfacet
facet normal 0 0 0
outer loop
vertex 21.551096 4.801196 5.319372
vertex 21.551096 4.821949 5.299372
vertex 21.551096 4.821949 5.319372
endloop
endfacet
facet normal 0 0 0
outer loop
vertex 21.489668 4.842703 5.319372
vertex 21.469193 4.842703 5.299372
vertex 21.489668 4.821949 5.299372
endloop
endfacet
facet normal 0 0 0
outer loop
vertex 21.469193 4.842703 5.299372
vertex 21.469193 4.821949 5.299372
vertex 21.489668 4.821949 5.299372
endloop
endfacet
facet normal 0 0 0
outer loop
vertex 21.510143 4.821949 5.319372
vertex 21.489668 4.842703 5.319372
vertex 21.489668 4.821949 5.299372
endloop
endfacet
facet normal 0 0 0
outer loop
vertex 21.551096 4.821949 5.299372
vertex 21.551096 4.842703 5.299372
vertex 21.551096 4.821949 5.319372
endloop
endfacet
facet normal 0 0 0
outer loop
vertex 21.551096 4.821949 5.319372
vertex 21.551096 4.842703 5.299372
vertex 21.551096 4.842703 5.319372
endloop
endfacet
facet normal 0 0 0
outer loop
vertex 21.489668 4.863456 5.319372
vertex 21.469193 4.842703 5.299372
vertex 21.489668 4.842703 5.319372
endloop
endfacet
facet normal 0 0 0
outer loop
vertex 21.469193 4.863456 5.299372
vertex 21.469193 4.842703 5.299372
vertex 21.489668 4.863456 5.319372
endloop
endfacet
facet normal 0 0 0
outer loop
vertex 21.551096 4.842703 5.299372
vertex 21.551096 4.863456 5.299372
vertex 21.551096 4.842703 5.319372
endloop
endfacet
facet normal 0 0 0
outer loop
vertex 21.551096 4.842703 5.319372
vertex 21.551096 4.863456 5.299372
vertex 21.551096 4.863456 5.319372
endloop
endfacet
facet normal 0 0 0
outer loop
vertex 21.489668 4.884210 5.319372
vertex 21.469193 4.863456 5.299372
vertex 21.489668 4.863456 5.319372
endloop
endfacet
facet normal 0 0 0
outer loop
vertex 21.469193 4.884210 5.299372
vertex 21.469193 4.863456 5.299372
vertex 21.489668 4.884210 5.319372
endloop
endfacet
facet normal 0 0 0
outer loop
vertex 21.571571 4.884210 5.319372
vertex 21.551096 4.863456 5.319372
vertex 21.551096 4.884210 5.299372
endloop
endfacet
facet normal 0 0 0
outer loop
vertex 21.551096 4.863456 5.319372
vertex 21.551096 4.863456 5.299372
vertex 21.551096 4.884210 5.299372
endloop
endfacet
facet normal 0 0 0
outer loop
vertex 21.469193 4.884210 5.299372
vertex 21.469193 4.904963 5.319372
vertex 21.469193 4.904963 5.299372
endloop
endfacet
facet normal 0 0 0
outer loop
vertex 21.489668 4.884210 5.319372
vertex 21.469193 4.904963 5.319372
vertex 21.469193 4.884210 5.299372
endloop
endfacet
facet normal 0 0 0
outer loop
vertex 21.571571 4.884210 5.319372
vertex 21.551096 4.884210 5.299372
vertex 21.551096 4.904963 5.319372
endloop
endfacet
facet normal 0 0 0
outer loop
vertex 21.551096 4.884210 5.299372
vertex 21.551096 4.904963 5.299372
vertex 21.551096 4.904963 5.319372
endloop
endfacet
facet normal 0 0 0
outer loop
vertex 21.469193 4.904963 5.299372
vertex 21.469193 4.904963 5.319372
vertex 21.469193 4.925716 5.299372
endloop
endfacet
facet normal 0 0 0
outer loop
vertex 21.469193 4.904963 5.319372
vertex 21.469193 4.925716 5.319372
vertex 21.469193 4.925716 5.299372
endloop
endfacet
facet normal 0 0 0
outer loop
vertex 21.551096 4.904963 5.299372
vertex 21.551096 4.925716 5.299372
vertex 21.551096 4.904963 5.319372
endloop
endfacet
facet normal 0 0 0
outer loop
vertex 21.551096 4.904963 5.319372
vertex 21.551096 4.925716 5.299372
vertex 21.551096 4.925716 5.319372
endloop
endfacet
facet normal 0 0 0
outer loop
vertex 21.469193 4.925716 5.299372
vertex 21.469193 4.925716 5.319372
vertex 21.469193 4.946469 5.299372
endloop
endfacet
facet normal 0 0 0
outer loop
vertex 21.469193 4.925716 5.319372
vertex 21.469193 4.946469 5.319372
vertex 21.469193 4.946469 5.299372
endloop
endfacet
facet normal 0 0 0
outer loop
vertex 21.551096 4.925716 5.299372
vertex 21.551096 4.946469 5.299372
vertex 21.551096 4.925716 5.319372
endloop
endfacet
facet normal 0 0 0
outer loop
vertex 21.551096 4.925716 5.319372
vertex 21.551096 4.946469 5.299372
vertex 21.551096 4.946469 5.319372
endloop
endfacet
facet normal 0 0 0
outer loop
vertex 21.469193 4.946469 5.299372
vertex 21.469193 4.946469 5.319372
vertex 21.469193 4.967222 5.299372
endloop
endfacet
facet normal 0 0 0
outer loop
vertex 21.469193 4.946469 5.319372
vertex 21.469193 4.967222 5.319372
vertex 21.469193 4.967222 5.299372
endloop
endfacet
facet normal 0 0 0
outer loop
vertex 21.571571 4.967222 5.319372
vertex 21.551096 4.946469 5.319372
vertex 21.551096 4.967222 5.299372
endloop
endfacet
facet normal 0 0 0
outer loop
vertex 21.551096 4.946469 5.319372
vertex 21.551096 4.946469 5.299372
vertex 21.551096 4.967222 5.299372
endloop
endfacet
facet normal 0 0 0
outer loop
vertex 21.469193 4.967222 5.299372
vertex 21.469193 4.967222 5.319372
vertex 21.469193 4.987976 5.299372
endloop
endfacet
facet normal 0 0 0
outer loop
vertex 21.469193 4.967222 5.319372
vertex 21.469193 4.987976 5.319372
vertex 21.469193 4.987976 5.299372
endloop
endfacet
facet normal 0 0 0
outer loop
vertex 21.571571 4.967222 5.319372
vertex 21.551096 4.987976 5.299372
vertex 21.571571 4.987976 5.319372
endloop
endfacet
facet normal 0 0 0
outer loop
vertex 21.551096 4.967222 5.299372
vertex 21.551096 4.987976 5.299372
vertex 21.571571 4.967222 5.319372
endloop
endfacet
facet normal 0 0 0
outer loop
vertex 21.469193 4.987976 5.299372
vertex 21.469193 4.987976 5.319372
vertex 21.469193 5.008729 5.299372
endloop
endfacet
facet normal 0 0 0
outer loop
vertex 21.469193 4.987976 5.319372
vertex 21.469193 5.008729 5.319372
vertex 21.469193 5.008729 5.299372
endloop
endfacet
facet normal 0 0 0
outer loop
vertex 21.571571 4.987976 5.319372
vertex 21.551096 5.008729 5.299372
vertex 21.571571 5.008729 5.319372
endloop
endfacet
facet normal 0 0 0
outer loop
vertex 21.551096 4.987976 5.299372
vertex 21.551096 5.008729 5.299372
vertex 21.571571 4.987976 5.319372
endloop
endfacet
facet normal 0 0 0
outer loop
vertex 21.469193 5.008729 5.319372
vertex 21.469193 5.029483 5.299372
vertex 21.469193 5.008729 5.299372
endloop
endfacet
facet normal 0 0 0
outer loop
vertex 21.469193 5.008729 5.319372
vertex 21.489668 5.029483 5.319372
vertex 21.469193 5.029483 5.299372
endloop
endfacet
facet normal 0 0 0
outer loop
vertex 21.571571 5.008729 5.319372
vertex 21.551096 5.008729 5.299372
vertex 21.551096 5.029483 5.319372
endloop
endfacet
facet normal 0 0 0
outer loop
vertex 21.551096 5.008729 5.299372
vertex 21.551096 5.029483 5.299372
vertex 21.551096 5.029483 5.319372
endloop
endfacet
facet normal 0 0 0
outer loop
vertex 21.489668 5.050236 5.319372
vertex 21.469193 5.029483 5.299372
vertex 21.489668 5.029483 5.319372
endloop
endfacet
facet normal 0 0 0
outer loop
vertex 21.469193 5.050236 5.299372
vertex 21.469193 5.029483 5.299372
vertex 21.489668 5.050236 5.319372
endloop
endfacet
facet normal 0 0 0
outer loop
vertex 21.551096 5.029483 5.299372
vertex 21.551096 5.050236 5.299372
vertex 21.551096 5.029483 5.319372
endloop
endfacet
facet normal 0 0 0
outer loop
vertex 21.551096 5.029483 5.319372
vertex 21.551096 5.050236 5.299372
vertex 21.551096 5.050236 5.319372
endloop
endfacet
facet normal 0 0 0
outer loop
vertex 21.489668 5.070990 5.319372
vertex 21.469193 5.050236 5.299372
vertex 21.489668 5.050236 5.319372
endloop
endfacet
facet normal 0 0 0
outer loop
vertex 21.469193 5.070990 5.299372
vertex 21.469193 5.050236 5.299372
vertex 21.489668 5.070990 5.319372
endloop
endfacet
facet normal 0 0 0
outer loop
vertex 21.551096 5.050236 5.299372
vertex 21.530619 5.070990 5.299372
vertex 21.551096 5.070990 5.319372
endloop
endfacet
facet normal 0 0 0
outer loop
vertex 21.551096 5.050236 5.299372
vertex 21.551096 5.070990 5.319372
vertex 21.551096 5.050236 5.319372
endloop
endfacet
facet normal 0 0 0
outer loop
vertex 21.489668 5.091743 5.319372
vertex 21.469193 5.070990 5.299372
vertex 21.489668 5.070990 5.319372
endloop
endfacet
facet normal 0 0 0
outer loop
vertex 21.469193 5.091743 5.299372
vertex 21.469193 5.070990 5.299372
vertex 21.489668 5.091743 5.319372
endloop
endfacet
facet normal 0 0 0
outer loop
vertex 21.551096 5.070990 5.319372
vertex 21.530619 5.091743 5.299372
vertex 21.551096 5.091743 5.319372
endloop
endfacet
facet normal 0 0 0
outer loop
vertex 21.530619 5.070990 5.299372
vertex 21.530619 5.091743 5.299372
vertex 21.551096 5.070990 5.319372
endloop
endfacet
facet normal 0 0 0
outer loop
vertex 21.469193 5.091743 5.299372
vertex 21.489668 5.091743 5.319372
vertex 21.489668 5.112496 5.299372
endloop
endfacet
facet normal 0 0 0
outer loop
vertex 21.489668 5.091743 5.319372
vertex 21.489668 5.112496 5.319372
vertex 21.489668 5.112496 5.299372
endloop
endfacet
facet normal 0 0 0
outer loop
vertex 21.530619 5.091743 5.299372
vertex 21.510143 5.112496 5.299372
vertex 21.530619 5.112496 5.319372
endloop
endfacet
facet normal 0 0 0
outer loop
vertex 21.530619 5.091743 5.299372
vertex 21.530619 5.112496 5.319372
vertex 21.551096 5.091743 5.319372
endloop
endfacet
facet normal 0 0 0
outer loop
vertex 21.530619 5.112496 5.319372
vertex 21.551096 5.112496 5.319372
vertex 21.551096 5.091743 5.319372
endloop
endfacet
facet normal 0 0 0
outer loop
vertex 21.489668 5.133249 5.319372
vertex 21.489668 5.112496 5.299372
vertex 21.489668 5.112496 5.319372
endloop
endfacet
facet normal 0 0 0
outer loop
vertex 21.489668 5.133249 5.319372
vertex 21.510143 5.112496 5.319372
vertex 21.489668 5.112496 5.299372
endloop
endfacet
facet normal 0 0 0
outer loop
vertex 21.510143 5.112496 5.319372
vertex 21.510143 5.112496 5.299372
vertex 21.489668 5.112496 5.299372
endloop
endfacet
facet normal 0 0 0
outer loop
vertex 21.530619 5.112496 5.319372
vertex 21.510143 5.112496 5.299372
vertex 21.510143 5.112496 5.319372
endloop
endfacet
facet normal 0 0 0
outer loop
vertex 21.530619 4.801196 5.319372
vertex 21.530619 4.821949 5.319372
vertex 21.510143 4.801196 5.319372
endloop
endfacet
facet normal 0 0 0
outer loop
vertex 21.530619 4.821949 5.319372
vertex 21.510143 4.821949 5.319372
vertex 21.510143 4.801196 5.319372
endloop
endfacet
facet normal 0 0 0
outer loop
vertex 21.551096 4.801196 5.319372
vertex 21.551096 4.821949 5.319372
vertex 21.530619 4.801196 5.319372
endloop
endfacet
facet normal 0 0 0
outer loop
vertex 21.551096 4.821949 5.319372
vertex 21.530619 4.821949 5.319372
vertex 21.530619 4.801196 5.319372
endloop
endfacet
facet normal 0 0 0
outer loop
vertex 21.489668 4.842703 5.319372
vertex 21.510143 4.821949 5.319372
vertex 21.510143 4.842703 5.319372
endloop
endfacet
facet normal 0 0 0
outer loop
vertex 21.530619 4.821949 5.319372
vertex 21.530619 4.842703 5.319372
vertex 21.510143 4.821949 5.319372
endloop
endfacet
facet normal 0 0 0
outer loop
vertex 21.530619 4.842703 5.319372
vertex 21.510143 4.842703 5.319372
vertex 21.510143 4.821949 5.319372
endloop
endfacet
facet normal 0 0 0
outer loop
vertex 21.551096 4.821949 5.319372
vertex 21.551096 4.842703 5.319372
vertex 21.530619 4.821949 5.319372
endloop
endfacet
facet normal 0 0 0
outer loop
vertex 21.551096 4.842703 5.319372
vertex 21.530619 4.842703 5.319372
vertex 21.530619 4.821949 5.319372
endloop
endfacet
facet normal 0 0 0
outer loop
vertex 21.510143 4.842703 5.319372
vertex 21.510143 4.863456 5.319372
vertex 21.489668 4.842703 5.319372
endloop
endfacet
facet normal 0 0 0
outer loop
vertex 21.510143 4.863456 5.319372
vertex 21.489668 4.863456 5.319372
vertex 21.489668 4.842703 5.319372
endloop
endfacet
facet normal 0 0 0
outer loop
vertex 21.530619 4.842703 5.319372
vertex 21.530619 4.863456 5.319372
vertex 21.510143 4.842703 5.319372
endloop
endfacet
facet normal 0 0 0
outer loop
vertex 21.530619 4.863456 5.319372
vertex 21.510143 4.863456 5.319372
vertex 21.510143 4.842703 5.319372
endloop
endfacet
facet normal 0 0 0
outer loop
vertex 21.551096 4.842703 5.319372
vertex 21.551096 4.863456 5.319372
vertex 21.530619 4.842703 5.319372
endloop
endfacet
facet normal 0 0 0
outer loop
vertex 21.551096 4.863456 5.319372
vertex 21.530619 4.863456 5.319372
vertex 21.530619 4.842703 5.319372
endloop
endfacet
facet normal 0 0 0
outer loop
vertex 21.489668 4.863456 5.319372
vertex 21.489668 4.884210 5.339372
vertex 21.469193 4.884210 5.339372
endloop
endfacet
facet normal 0 0 0
outer loop
vertex 21.489668 4.863456 5.319372
vertex 21.469193 4.884210 5.339372
vertex 21.489668 4.884210 5.319372
endloop
endfacet
facet normal 0 0 0
outer loop
vertex 21.510143 4.863456 5.319372
vertex 21.489668 4.884210 5.339372
vertex 21.489668 4.863456 5.319372
endloop
endfacet
facet normal 0 0 0
outer loop
vertex 21.510143 4.884210 5.339372
vertex 21.489668 4.884210 5.339372
vertex 21.510143 4.863456 5.319372
endloop
endfacet
facet normal 0 0 0
outer loop
vertex 21.530619 4.863456 5.319372
vertex 21.510143 4.884210 5.339372
vertex 21.510143 4.863456 5.319372
endloop
endfacet
facet normal 0 0 0
outer loop
vertex 21.530619 4.884210 5.339372
vertex 21.510143 4.884210 5.339372
vertex 21.530619 4.863456 5.319372
endloop
endfacet
facet normal 0 0 0
outer loop
vertex 21.551096 4.863456 5.319372
vertex 21.530619 4.884210 5.339372
vertex 21.530619 4.863456 5.319372
endloop
endfacet
facet normal 0 0 0
outer loop
vertex 21.551096 4.884210 5.339372
vertex 21.530619 4.884210 5.339372
vertex 21.551096 4.863456 5.319372
endloop
endfacet
facet normal 0 0 0
outer loop
vertex 21.571571 4.884210 5.319372
vertex 21.551096 4.884210 5.339372
vertex 21.551096 4.863456 5.319372
endloop
endfacet
facet normal 0 0 0
outer loop
vertex 21.469193 4.904963 5.319372
vertex 21.469193 4.884210 5.339372
vertex 21.469193 4.904963 5.339372
endloop
endfacet
facet normal 0 0 0
outer loop
vertex 21.489668 4.884210 5.319372
vertex 21.469193 4.884210 5.339372
vertex 21.469193 4.904963 5.319372
endloop
endfacet
facet normal 0 0 0
outer loop
vertex 21.551096 4.904963 5.319372
vertex 21.530619 4.904963 5.339372
vertex 21.551096 4.884210 5.339372
endloop
endfacet
facet normal 0 0 0
outer loop
vertex 21.571571 4.884210 5.319372
vertex 21.551096 4.904963 5.319372
vertex 21.551096 4.884210 5.339372
endloop
endfacet
facet normal 0 0 0
outer loop
vertex 21.469193 4.904963 5.319372
vertex 21.469193 4.904963 5.339372
vertex 21.469193 4.925716 5.319372
endloop
endfacet
facet normal 0 0 0
outer loop
vertex 21.469193 4.904963 5.339372
vertex 21.469193 4.925716 5.339372
vertex 21.469193 4.925716 5.319372
endloop
endfacet
facet normal 0 0 0
outer loop
vertex 21.551096 4.904963 5.319372
vertex 21.551096 4.925716 5.339372
vertex 21.530619 4.904963 5.339372
endloop
endfacet
facet normal 0 0 0
outer loop
vertex 21.551096 4.925716 5.339372
vertex 21.551096 4.904963 5.319372
vertex 21.551096 4.925716 5.319372
endloop
endfacet
facet normal 0 0 0
outer loop
vertex 21.469193 4.925716 5.319372
vertex 21.469193 4.925716 5.339372
vertex 21.469193 4.946469 5.319372
endloop
endfacet
facet normal 0 0 0
outer loop
vertex 21.469193 4.925716 5.339372
vertex 21.469193 4.946469 5.339372
vertex 21.469193 4.946469 5.319372
endloop
endfacet
facet normal 0 0 0
outer loop
vertex 21.551096 4.925716 5.319372
vertex 21.551096 4.946469 5.319372
vertex 21.551096 4.925716 5.339372
endloop
endfacet
facet normal 0 0 0
outer loop
vertex 21.551096 4.925716 5.339372
vertex 21.551096 4.946469 5.319372
vertex 21.551096 4.946469 5.339372
endloop
endfacet
facet normal 0 0 0
outer loop
vertex 21.469193 4.946469 5.319372
vertex 21.469193 4.946469 5.339372
vertex 21.469193 4.967222 5.319372
endloop
endfacet
facet normal 0 0 0
outer loop
vertex 21.469193 4.946469 5.339372
vertex 21.469193 4.967222 5.339372
vertex 21.469193 4.967222 5.319372
endloop
endfacet
facet normal 0 0 0
outer loop
vertex 21.571571 4.967222 5.319372
vertex 21.551096 4.967222 5.339372
vertex 21.551096 4.946469 5.319372
endloop
endfacet
facet normal 0 0 0
outer loop
vertex 21.551096 4.967222 5.339372
vertex 21.551096 4.946469 5.339372
vertex 21.551096 4.946469 5.319372
endloop
endfacet
facet normal 0 0 0
outer loop
vertex 21.469193 4.967222 5.319372
vertex 21.469193 4.967222 5.339372
vertex 21.469193 4.987976 5.319372
endloop
endfacet
facet normal 0 0 0
outer loop
vertex 21.469193 4.967222 5.339372
vertex 21.469193 4.987976 5.339372
vertex 21.469193 4.987976 5.319372
endloop
endfacet
facet normal 0 0 0
outer loop
vertex 21.571571 4.987976 5.319372
vertex 21.551096 4.967222 5.339372
vertex 21.571571 4.967222 5.319372
endloop
endfacet
facet normal 0 0 0
outer loop
vertex 21.551096 4.987976 5.339372
vertex 21.551096 4.967222 5.339372
vertex 21.571571 4.987976 5.319372
endloop
endfacet
facet normal 0 0 0
outer loop
vertex 21.469193 4.987976 5.319372
vertex 21.469193 4.987976 5.339372
vertex 21.469193 5.008729 5.319372
endloop
endfacet
facet normal 0 0 0
outer loop
vertex 21.469193 4.987976 5.339372
vertex 21.469193 5.008729 5.339372
vertex 21.469193 5.008729 5.319372
endloop
endfacet
facet normal 0 0 0
outer loop
vertex 21.571571 5.008729 5.319372
vertex 21.551096 4.987976 5.339372
vertex 21.571571 4.987976 5.319372
endloop
endfacet
facet normal 0 0 0
outer loop
vertex 21.551096 5.008729 5.339372
vertex 21.551096 4.987976 5.339372
vertex 21.571571 5.008729 5.319372
endloop
endfacet
facet normal 0 0 0
outer loop
vertex 21.469193 5.029483 5.339372
vertex 21.469193 5.008729 5.319372
vertex 21.469193 5.008729 5.339372
endloop
endfacet
facet normal 0 0 0
outer loop
vertex 21.469193 5.008729 5.319372
vertex 21.469193 5.029483 5.339372
vertex 21.489668 5.029483 5.319372
endloop
endfacet
facet normal 0 0 0
outer loop
vertex 21.571571 5.008729 5.319372
vertex 21.551096 5.029483 5.319372
vertex 21.551096 5.008729 5.339372
endloop
endfacet
facet normal 0 0 0
outer loop
vertex 21.551096 5.029483 5.319372
vertex 21.551096 5.029483 5.339372
vertex 21.551096 5.008729 5.339372
endloop
endfacet
facet normal 0 0 0
outer loop
vertex 21.489668 5.029483 5.319372
vertex 21.469193 5.050236 5.339372
vertex 21.489668 5.050236 5.319372
endloop
endfacet
facet normal 0 0 0
outer loop
vertex 21.469193 5.029483 5.339372
vertex 21.469193 5.050236 5.339372
vertex 21.489668 5.029483 5.319372
endloop
endfacet
facet normal 0 0 0
outer loop
vertex 21.551096 5.029483 5.319372
vertex 21.551096 5.050236 5.319372
vertex 21.551096 5.029483 5.339372
endloop
endfacet
facet normal 0 0 0
outer loop
vertex 21.551096 5.029483 5.339372
vertex 21.551096 5.050236 5.319372
vertex 21.551096 5.050236 5.339372
endloop
endfacet
facet normal 0 0 0
outer loop
vertex 21.489668 5.050236 5.319372
vertex 21.469193 5.070990 5.339372
vertex 21.489668 5.070990 5.319372
endloop
endfacet
facet normal 0 0 0
outer loop
vertex 21.469193 5.050236 5.339372
vertex 21.469193 5.070990 5.339372
vertex 21.489668 5.050236 5.319372
endloop
endfacet
facet normal 0 0 0
outer loop
vertex 21.551096 5.050236 5.319372
vertex 21.551096 5.070990 5.319372
vertex 21.551096 5.050236 5.339372
endloop
endfacet
facet normal 0 0 0
outer loop
vertex 21.551096 5.050236 5.339372
vertex 21.551096 5.070990 5.319372
vertex 21.551096 5.070990 5.339372
endloop
endfacet
facet normal 0 0 0
outer loop
vertex 21.469193 5.070990 5.339372
vertex 21.448715 5.091743 5.339372
vertex 21.469193 5.091743 5.339372
endloop
endfacet
facet normal 0 0 0
outer loop
vertex 21.489668 5.070990 5.319372
vertex 21.469193 5.091743 5.339372
vertex 21.489668 5.091743 5.319372
endloop
endfacet
facet normal 0 0 0
outer loop
vertex 21.469193 5.070990 5.339372
vertex 21.469193 5.091743 5.339372
vertex 21.489668 5.070990 5.319372
endloop
endfacet
facet normal 0 0 0
outer loop
vertex 21.551096 5.070990 5.319372
vertex 21.551096 5.091743 5.319372
vertex 21.551096 5.070990 5.339372
endloop
endfacet
facet normal 0 0 0
outer loop
vertex 21.551096 5.070990 5.339372
vertex 21.551096 5.091743 5.319372
vertex 21.551096 5.091743 5.339372
endloop
endfacet
facet normal 0 0 0
outer loop
vertex 21.489668 5.091743 5.319372
vertex 21.469193 5.112496 5.339372
vertex 21.489668 5.112496 5.319372
endloop
endfacet
facet normal 0 0 0
outer loop
vertex 21.469193 5.091743 5.339372
vertex 21.469193 5.112496 5.339372
vertex 21.489668 5.091743 5.319372
endloop
endfacet
facet normal 0 0 0
outer loop
vertex 21.551096 5.112496 5.319372
vertex 21.530619 5.112496 5.339372
vertex 21.551096 5.091743 5.339372
endloop
endfacet
facet normal 0 0 0
outer loop
vertex 21.551096 5.112496 5.319372
vertex 21.551096 5.091743 5.339372
vertex 21.551096 5.091743 5.319372
endloop
endfacet
facet normal 0 0 0
outer loop
vertex 21.469193 5.112496 5.339372
vertex 21.489668 5.133249 5.319372
vertex 21.489668 5.112496 5.319372
endloop
endfacet
facet normal 0 0 0
outer loop
vertex 21.469193 5.112496 5.339372
vertex 21.489668 5.112496 5.339372
vertex 21.489668 5.133249 5.319372
endloop
endfacet
facet normal 0 0 0
outer loop
vertex 21.489668 5.133249 5.319372
vertex 21.489668 5.112496 5.339372
vertex 21.510143 5.112496 5.319372
endloop
endfacet
facet normal 0 0 0
outer loop
vertex 21.489668 5.112496 5.339372
vertex 21.510143 5.112496 5.339372
vertex 21.510143 5.112496 5.319372
endloop
endfacet
facet normal 0 0 0
outer loop
vertex 21.530619 5.112496 5.319372
vertex 21.510143 5.112496 5.319372
vertex 21.530619 5.112496 5.339372
endloop
endfacet
facet normal 0 0 0
outer loop
vertex 21.510143 5.112496 5.319372
vertex 21.510143 5.112496 5.339372
vertex 21.530619 5.112496 5.339372
endloop
endfacet
facet normal 0 0 0
outer loop
vertex 21.530619 5.112496 5.339372
vertex 21.551096 5.112496 5.319372
vertex 21.530619 5.112496 5.319372
endloop
endfacet
facet normal 0 0 0
outer loop
vertex 21.489668 4.884210 5.339372
vertex 21.489668 4.904963 5.339372
vertex 21.469193 4.884210 5.339372
endloop
endfacet
facet normal 0 0 0
outer loop
vertex 21.489668 4.904963 5.339372
vertex 21.469193 4.904963 5.339372
vertex 21.469193 4.884210 5.339372
endloop
endfacet
facet normal 0 0 0
outer loop
vertex 21.510143 4.884210 5.339372
vertex 21.510143 4.904963 5.339372
vertex 21.489668 4.884210 5.339372
endloop
endfacet
facet normal 0 0 0
outer loop
vertex 21.510143 4.904963 5.339372
vertex 21.489668 4.904963 5.339372
vertex 21.489668 4.884210 5.339372
endloop
endfacet
facet normal 0 0 0
outer loop
vertex 21.530619 4.884210 5.339372
vertex 21.530619 4.904963 5.339372
vertex 21.510143 4.884210 5.339372
endloop
endfacet
facet normal 0 0 0
outer loop
vertex 21.530619 4.904963 5.339372
vertex 21.510143 4.904963 5.339372
vertex 21.510143 4.884210 5.339372
endloop
endfacet
facet normal 0 0 0
outer loop
vertex 21.551096 4.884210 5.339372
vertex 21.530619 4.904963 5.339372
vertex 21.530619 4.884210 5.339372
endloop
endfacet
facet normal 0 0 0
outer loop
vertex 21.489668 4.904963 5.339372
vertex 21.489668 4.925716 5.339372
vertex 21.469193 4.904963 5.339372
endloop
endfacet
facet normal 0 0 0
outer loop
vertex 21.489668 4.925716 5.339372
vertex 21.469193 4.925716 5.339372
vertex 21.469193 4.904963 5.339372
endloop
endfacet
facet normal 0 0 0
outer loop
vertex 21.510143 4.904963 5.339372
vertex 21.510143 4.925716 5.339372
vertex 21.489668 4.904963 5.339372
endloop
endfacet
facet normal 0 0 0
outer loop
vertex 21.510143 4.925716 5.339372
vertex 21.489668 4.925716 5.339372
vertex 21.489668 4.904963 5.339372
endloop
endfacet
facet normal 0 0 0
outer loop
vertex 21.530619 4.904963 5.339372
vertex 21.530619 4.925716 5.339372
vertex 21.510143 4.904963 5.339372
endloop
endfacet
facet normal 0 0 0
outer loop
vertex 21.530619 4.925716 5.339372
vertex 21.510143 4.925716 5.339372
vertex 21.510143 4.904963 5.339372
endloop
endfacet
facet normal 0 0 0
outer loop
vertex 21.530619 4.904963 5.339372
vertex 21.551096 4.925716 5.339372
vertex 21.530619 4.925716 5.339372
endloop
endfacet
facet normal 0 0 0
outer loop
vertex 21.489668 4.925716 5.339372
vertex 21.489668 4.946469 5.339372
vertex 21.469193 4.925716 5.339372
endloop
endfacet
facet normal 0 0 0
outer loop
vertex 21.489668 4.946469 5.339372
vertex 21.469193 4.946469 5.339372
vertex 21.469193 4.925716 5.339372
endloop
endfacet
facet normal 0 0 0
outer loop
vertex 21.510143 4.925716 5.339372
vertex 21.510143 4.946469 5.339372
vertex 21.489668 4.925716 5.339372
endloop
endfacet
facet normal 0 0 0
outer loop
vertex 21.510143 4.946469 5.339372
vertex 21.489668 4.946469 5.339372
vertex 21.489668 4.925716 5.339372
endloop
endfacet
facet normal 0 0 0
outer loop
vertex 21.530619 4.925716 5.339372
vertex 21.530619 4.946469 5.339372
vertex 21.510143 4.925716 5.339372
endloop
endfacet
facet normal 0 0 0
outer loop
vertex 21.530619 4.946469 5.339372
vertex 21.510143 4.946469 5.339372
vertex 21.510143 4.925716 5.339372
endloop
endfacet
facet normal 0 0 0
outer loop
vertex 21.551096 4.925716 5.339372
vertex 21.551096 4.946469 5.339372
vertex 21.530619 4.925716 5.339372
endloop
endfacet
facet normal 0 0 0
outer loop
vertex 21.551096 4.946469 5.339372
vertex 21.530619 4.946469 5.339372
vertex 21.530619 4.925716 5.339372
endloop
endfacet
facet normal 0 0 0
outer loop
vertex 21.489668 4.946469 5.339372
vertex 21.489668 4.967222 5.339372
vertex 21.469193 4.946469 5.339372
endloop
endfacet
facet normal 0 0 0
outer loop
vertex 21.489668 4.967222 5.339372
vertex 21.469193 4.967222 5.339372
vertex 21.469193 4.946469 5.339372
endloop
endfacet
facet normal 0 0 0
outer loop
vertex 21.510143 4.946469 5.339372
vertex 21.510143 4.967222 5.339372
vertex 21.489668 4.946469 5.339372
endloop
endfacet
facet normal 0 0 0
outer loop
vertex 21.510143 4.967222 5.339372
vertex 21.489668 4.967222 5.339372
vertex 21.489668 4.946469 5.339372
endloop
endfacet
facet normal 0 0 0
outer loop
vertex 21.530619 4.946469 5.339372
vertex 21.530619 4.967222 5.339372
vertex 21.510143 4.946469 5.339372
endloop
endfacet
facet normal 0 0 0
outer loop
vertex 21.530619 4.967222 5.339372
vertex 21.510143 4.967222 5.339372
vertex 21.510143 4.946469 5.339372
endloop
endfacet
facet normal 0 0 0
outer loop
vertex 21.551096 4.946469 5.339372
vertex 21.551096 4.967222 5.339372
vertex 21.530619 4.946469 5.339372
endloop
endfacet
facet normal 0 0 0
outer loop
vertex 21.551096 4.967222 5.339372
vertex 21.530619 4.967222 5.339372
vertex 21.530619 4.946469 5.339372
endloop
endfacet
facet normal 0 0 0
outer loop
vertex 21.489668 4.967222 5.339372
vertex 21.489668 4.987976 5.339372
vertex 21.469193 4.967222 5.339372
endloop
endfacet
facet normal 0 0 0
outer loop
vertex 21.489668 4.987976 5.339372
vertex 21.469193 4.987976 5.339372
vertex 21.469193 4.967222 5.339372
endloop
endfacet
facet normal 0 0 0
outer loop
vertex 21.510143 4.987976 5.359372
vertex 21.489668 4.987976 5.339372
vertex 21.510143 4.967222 5.339372
endloop
endfacet
facet normal 0 0 0
outer loop
vertex 21.489668 4.987976 5.339372
vertex 21.489668 4.967222 5.339372
vertex 21.510143 4.967222 5.339372
endloop
endfacet
facet normal 0 0 0
outer loop
vertex 21.510143 4.987976 5.359372
vertex 21.510143 4.967222 5.339372
vertex 21.530619 4.987976 5.339372
endloop
endfacet
facet normal 0 0 0
outer loop
vertex 21.510143 4.967222 5.339372
vertex 21.530619 4.967222 5.339372
vertex 21.530619 4.987976 5.339372
endloop
endfacet
facet normal 0 0 0
outer loop
vertex 21.551096 4.967222 5.339372
vertex 21.551096 4.987976 5.339372
vertex 21.530619 4.967222 5.339372
endloop
endfacet
facet normal 0 0 0
outer loop
vertex 21.551096 4.987976 5.339372
vertex 21.530619 4.987976 5.339372
vertex 21.530619 4.967222 5.339372
endloop
endfacet
facet normal 0 0 0
outer loop
vertex 21.489668 5.008729 5.359372
vertex 21.469193 5.008729 5.339372
vertex 21.489668 4.987976 5.339372
endloop
endfacet
facet normal 0 0 0
outer loop
vertex 21.469193 5.008729 5.339372
vertex 21.469193 4.987976 5.339372
vertex 21.489668 4.987976 5.339372
endloop
endfacet
facet normal 0 0 0
outer loop
vertex 21.510143 4.987976 5.359372
vertex 21.489668 5.008729 5.359372
vertex 21.489668 4.987976 5.339372
endloop
endfacet
facet normal 0 0 0
outer loop
vertex 21.530619 4.987976 5.339372
vertex 21.530619 5.008729 5.359372
vertex 21.510143 4.987976 5.359372
endloop
endfacet
facet normal 0 0 0
outer loop
vertex 21.530619 5.008729 5.359372
vertex 21.530619 4.987976 5.339372
vertex 21.551096 5.008729 5.339372
endloop
endfacet
facet normal 0 0 0
outer loop
vertex 21.530619 4.987976 5.339372
vertex 21.551096 4.987976 5.339372
vertex 21.551096 5.008729 5.339372
endloop
endfacet
facet normal 0 0 0
outer loop
vertex 21.469193 5.008729 5.339372
vertex 21.469193 5.029483 5.359372
vertex 21.469193 5.029483 5.339372
endloop
endfacet
facet normal 0 0 0
outer loop
vertex 21.489668 5.008729 5.359372
vertex 21.469193 5.029483 5.359372
vertex 21.469193 5.008729 5.339372
endloop
endfacet
facet normal 0 0 0
outer loop
vertex 21.551096 5.029483 5.339372
vertex 21.530619 5.008729 5.359372
vertex 21.551096 5.008729 5.339372
endloop
endfacet
facet normal 0 0 0
outer loop
vertex 21.530619 5.029483 5.359372
vertex 21.530619 5.008729 5.359372
vertex 21.551096 5.029483 5.339372
endloop
endfacet
facet normal 0 0 0
outer loop
vertex 21.469193 5.029483 5.339372
vertex 21.469193 5.029483 5.359372
vertex 21.469193 5.050236 5.339372
endloop
endfacet
facet normal 0 0 0
outer loop
vertex 21.469193 5.029483 5.359372
vertex 21.469193 5.050236 5.359372
vertex 21.469193 5.050236 5.339372
endloop
endfacet
facet normal 0 0 0
outer loop
vertex 21.551096 5.050236 5.339372
vertex 21.530619 5.029483 5.359372
vertex 21.551096 5.029483 5.339372
endloop
endfacet
facet normal 0 0 0
outer loop
vertex 21.530619 5.050236 5.359372
vertex 21.530619 5.029483 5.359372
vertex 21.551096 5.050236 5.339372
endloop
endfacet
facet normal 0 0 0
outer loop
vertex 21.469193 5.050236 5.339372
vertex 21.469193 5.050236 5.359372
vertex 21.469193 5.070990 5.339372
endloop
endfacet
facet normal 0 0 0
outer loop
vertex 21.469193 5.050236 5.359372
vertex 21.469193 5.070990 5.359372
vertex 21.469193 5.070990 5.339372
endloop
endfacet
facet normal 0 0 0
outer loop
vertex 21.551096 5.070990 5.339372
vertex 21.530619 5.050236 5.359372
vertex 21.551096 5.050236 5.339372
endloop
endfacet
facet normal 0 0 0
outer loop
vertex 21.530619 5.070990 5.359372
vertex 21.530619 5.050236 5.359372
vertex 21.551096 5.070990 5.339372
endloop
endfacet
facet normal 0 0 0
outer loop
vertex 21.469193 5.070990 5.359372
vertex 21.448715 5.091743 5.339372
vertex 21.469193 5.070990 5.339372
endloop
endfacet
facet normal 0 0 0
outer loop
vertex 21.469193 5.070990 5.359372
vertex 21.469193 5.091743 5.339372
vertex 21.448715 5.091743 5.339372
endloop
endfacet
facet normal 0 0 0
outer loop
vertex 21.469193 5.091743 5.339372
vertex 21.489668 5.070990 5.359372
vertex 21.489668 5.091743 5.339372
endloop
endfacet
facet normal 0 0 0
outer loop
vertex 21.469193 5.070990 5.359372
vertex 21.489668 5.070990 5.359372
vertex 21.469193 5.091743 5.339372
endloop
endfacet
facet normal 0 0 0
outer loop
vertex 21.489668 5.091743 5.339372
vertex 21.510143 5.070990 5.359372
vertex 21.510143 5.091743 5.339372
endloop
endfacet
facet normal 0 0 0
outer loop
vertex 21.489668 5.070990 5.359372
vertex 21.510143 5.070990 5.359372
vertex 21.489668 5.091743 5.339372
endloop
endfacet
facet normal 0 0 0
outer loop
vertex 21.510143 5.091743 5.339372
vertex 21.530619 5.070990 5.359372
vertex 21.530619 5.091743 5.339372
endloop
endfacet
facet normal 0 0 0
outer loop
vertex 21.510143 5.070990 5.359372
vertex 21.530619 5.070990 5.359372
vertex 21.510143 5.091743 5.339372
endloop
endfacet
facet normal 0 0 0
outer loop
vertex 21.530619 5.070990 5.359372
vertex 21.551096 5.070990 5.339372
vertex 21.530619 5.091743 5.339372
endloop
endfacet
facet normal 0 0 0
outer loop
vertex 21.551096 5.070990 5.339372
vertex 21.551096 5.091743 5.339372
vertex 21.530619 5.091743 5.339372
endloop
endfacet
facet normal 0 0 0
outer loop
vertex 21.469193 5.112496 5.339372
vertex 21.448715 5.091743 5.339372
vertex 21.469193 5.091743 5.339372
endloop
endfacet
facet normal 0 0 0
outer loop
vertex 21.489668 5.091743 5.339372
vertex 21.489668 5.112496 5.339372
vertex 21.469193 5.091743 5.339372
endloop
endfacet
facet normal 0 0 0
outer loop
vertex 21.489668 5.112496 5.339372
vertex 21.469193 5.112496 5.339372
vertex 21.469193 5.091743 5.339372
endloop
endfacet
facet normal 0 0 0
outer loop
vertex 21.510143 5.091743 5.339372
vertex 21.510143 5.112496 5.339372
vertex 21.489668 5.091743 5.339372
endloop
endfacet
facet normal 0 0 0
outer loop
vertex 21.510143 5.112496 5.339372
vertex 21.489668 5.112496 5.339372
vertex 21.489668 5.091743 5.339372
endloop
endfacet
facet normal 0 0 0
outer loop
vertex 21.530619 5.091743 5.339372
vertex 21.530619 5.112496 5.339372
vertex 21.510143 5.091743 5.339372
endloop
endfacet
facet normal 0 0 0
outer loop
vertex 21.530619 5.112496 5.339372
vertex 21.510143 5.112496 5.339372
vertex 21.510143 5.091743 5.339372
endloop
endfacet
facet normal 0 0 0
outer loop
vertex 21.551096 5.091743 5.339372
vertex 21.530619 5.112496 5.339372
vertex 21.530619 5.091743 5.339372
endloop
endfacet
facet normal 0 0 0
outer loop
vertex 21.489668 5.008729 5.359372
vertex 21.510143 4.987976 5.359372
vertex 21.510143 5.008729 5.359372
endloop
endfacet
facet normal 0 0 0
outer loop
vertex 21.510143 4.987976 5.359372
vertex 21.530619 5.008729 5.359372
vertex 21.510143 5.008729 5.359372
endloop
endfacet
facet normal 0 0 0
outer loop
vertex 21.469193 5.029483 5.359372
vertex 21.489668 5.008729 5.359372
vertex 21.489668 5.029483 5.359372
endloop
endfacet
facet normal 0 0 0
outer loop
vertex 21.510143 5.008729 5.359372
vertex 21.510143 5.029483 5.359372
vertex 21.489668 5.008729 5.359372
endloop
endfacet
facet normal 0 0 0
outer loop
vertex 21.510143 5.029483 5.359372
vertex 21.489668 5.029483 5.359372
vertex 21.489668 5.008729 5.359372
endloop
endfacet
facet normal 0 0 0
outer loop
vertex 21.530619 5.008729 5.359372
vertex 21.530619 5.029483 5.359372
vertex 21.510143 5.008729 5.359372
endloop
endfacet
facet normal 0 0 0
outer loop
vertex 21.530619 5.029483 5.359372
vertex 21.510143 5.029483 5.359372
vertex 21.510143 5.008729 5.359372
endloop
endfacet
facet normal 0 0 0
outer loop
vertex 21.489668 5.029483 5.359372
vertex 21.489668 5.050236 5.359372
vertex 21.469193 5.029483 5.359372
endloop
endfacet
facet normal 0 0 0
outer loop
vertex 21.489668 5.050236 5.359372
vertex 21.469193 5.050236 5.359372
vertex 21.469193 5.029483 5.359372
endloop
endfacet
facet normal 0 0 0
outer loop
vertex 21.510143 5.029483 5.359372
vertex 21.510143 5.050236 5.359372
vertex 21.489668 5.029483 5.359372
endloop
endfacet
facet normal 0 0 0
outer loop
vertex 21.510143 5.050236 5.359372
vertex 21.489668 5.050236 5.359372
vertex 21.489668 5.029483 5.359372
endloop
endfacet
facet normal 0 0 0
outer loop
vertex 21.530619 5.029483 5.359372
vertex 21.530619 5.050236 5.359372
vertex 21.510143 5.029483 5.359372
endloop
endfacet
facet normal 0 0 0
outer loop
vertex 21.530619 5.050236 5.359372
vertex 21.510143 5.050236 5.359372
vertex 21.510143 5.029483 5.359372
endloop
endfacet
facet normal 0 0 0
outer loop
vertex 21.489668 5.050236 5.359372
vertex 21.489668 5.070990 5.359372
vertex 21.469193 5.050236 5.359372
endloop
endfacet
facet normal 0 0 0
outer loop
vertex 21.489668 5.070990 5.359372
vertex 21.469193 5.070990 5.359372
vertex 21.469193 5.050236 5.359372
endloop
endfacet
facet normal 0 0 0
outer loop
vertex 21.510143 5.050236 5.359372
vertex 21.510143 5.070990 5.359372
vertex 21.489668 5.050236 5.359372
endloop
endfacet
facet normal 0 0 0
outer loop
vertex 21.510143 5.070990 5.359372
vertex 21.489668 5.070990 5.359372
vertex 21.489668 5.050236 5.359372
endloop
endfacet
facet normal 0 0 0
outer loop
vertex 21.530619 5.050236 5.359372
vertex 21.530619 5.070990 5.359372
vertex 21.510143 5.050236 5.359372
endloop
endfacet
facet normal 0 0 0
outer loop
vertex 21.530619 5.070990 5.359372
vertex 21.510143 5.070990 5.359372
vertex 21.510143 5.050236 5.359372
endloop
endfacet
endsolid B-16-Plag.067
