solid B-16-Plag.009
facet normal 0 0 0
outer loop
vertex 8.282778 14.908064 2.819372
vertex 8.262300 14.908064 2.819372
vertex 8.282778 14.928818 2.819372
endloop
endfacet
facet normal 0 0 0
outer loop
vertex 8.282778 14.928818 2.819372
vertex 8.262300 14.908064 2.819372
vertex 8.262300 14.928818 2.819372
endloop
endfacet
facet normal 0 0 0
outer loop
vertex 8.303253 14.908064 2.819372
vertex 8.282778 14.908064 2.819372
vertex 8.303253 14.928818 2.819372
endloop
endfacet
facet normal 0 0 0
outer loop
vertex 8.282778 14.949572 2.819372
vertex 8.262300 14.928818 2.819372
vertex 8.262300 14.949572 2.819372
endloop
endfacet
facet normal 0 0 0
outer loop
vertex 8.282778 14.949572 2.819372
vertex 8.262300 14.949572 2.819372
vertex 8.282778 14.970324 2.819372
endloop
endfacet
facet normal 0 0 0
outer loop
vertex 8.282778 14.970324 2.819372
vertex 8.262300 14.949572 2.819372
vertex 8.262300 14.970324 2.819372
endloop
endfacet
facet normal 0 0 0
outer loop
vertex 8.303253 14.949572 2.819372
vertex 8.282778 14.949572 2.819372
vertex 8.303253 14.970324 2.819372
endloop
endfacet
facet normal 0 0 0
outer loop
vertex 8.303253 14.970324 2.819372
vertex 8.282778 14.949572 2.819372
vertex 8.282778 14.970324 2.819372
endloop
endfacet
facet normal 0 0 0
outer loop
vertex 8.282778 14.970324 2.819372
vertex 8.262300 14.970324 2.819372
vertex 8.282778 14.991077 2.819372
endloop
endfacet
facet normal 0 0 0
outer loop
vertex 8.282778 14.991077 2.819372
vertex 8.262300 14.970324 2.819372
vertex 8.262300 14.991077 2.819372
endloop
endfacet
facet normal 0 0 0
outer loop
vertex 8.303253 14.970324 2.819372
vertex 8.282778 14.970324 2.819372
vertex 8.303253 14.991077 2.819372
endloop
endfacet
facet normal 0 0 0
outer loop
vertex 8.303253 14.991077 2.819372
vertex 8.282778 14.970324 2.819372
vertex 8.282778 14.991077 2.819372
endloop
endfacet
facet normal 0 0 0
outer loop
vertex 8.282778 14.991077 2.819372
vertex 8.262300 14.991077 2.819372
vertex 8.282778 15.011831 2.819372
endloop
endfacet
facet normal 0 0 0
outer loop
vertex 8.282778 15.011831 2.819372
vertex 8.262300 14.991077 2.819372
vertex 8.262300 15.011831 2.819372
endloop
endfacet
facet normal 0 0 0
outer loop
vertex 8.303253 14.991077 2.819372
vertex 8.282778 14.991077 2.819372
vertex 8.303253 15.011831 2.819372
endloop
endfacet
facet normal 0 0 0
outer loop
vertex 8.303253 15.011831 2.819372
vertex 8.282778 14.991077 2.819372
vertex 8.282778 15.011831 2.819372
endloop
endfacet
facet normal 0 0 0
outer loop
vertex 8.282778 15.011831 2.819372
vertex 8.262300 15.011831 2.819372
vertex 8.282778 15.032583 2.819372
endloop
endfacet
facet normal 0 0 0
outer loop
vertex 8.282778 15.032583 2.819372
vertex 8.262300 15.011831 2.819372
vertex 8.262300 15.032583 2.819372
endloop
endfacet
facet normal 0 0 0
outer loop
vertex 8.303253 15.011831 2.819372
vertex 8.282778 15.011831 2.819372
vertex 8.303253 15.032583 2.819372
endloop
endfacet
facet normal 0 0 0
outer loop
vertex 8.303253 15.032583 2.819372
vertex 8.282778 15.011831 2.819372
vertex 8.282778 15.032583 2.819372
endloop
endfacet
facet normal 0 0 0
outer loop
vertex 8.282778 15.032583 2.819372
vertex 8.262300 15.032583 2.819372
vertex 8.282778 15.053337 2.819372
endloop
endfacet
facet normal 0 0 0
outer loop
vertex 8.282778 15.053337 2.819372
vertex 8.262300 15.032583 2.819372
vertex 8.262300 15.053337 2.819372
endloop
endfacet
facet normal 0 0 0
outer loop
vertex 8.303253 15.032583 2.819372
vertex 8.282778 15.032583 2.819372
vertex 8.303253 15.053337 2.819372
endloop
endfacet
facet normal 0 0 0
outer loop
vertex 8.303253 15.053337 2.819372
vertex 8.282778 15.032583 2.819372
vertex 8.282778 15.053337 2.819372
endloop
endfacet
facet normal 0 0 0
outer loop
vertex 8.282778 15.053337 2.819372
vertex 8.262300 15.053337 2.819372
vertex 8.282778 15.074091 2.819372
endloop
endfacet
facet normal 0 0 0
outer loop
vertex 8.282778 15.074091 2.819372
vertex 8.262300 15.053337 2.819372
vertex 8.262300 15.074091 2.819372
endloop
endfacet
facet normal 0 0 0
outer loop
vertex 8.303253 15.053337 2.819372
vertex 8.282778 15.053337 2.819372
vertex 8.303253 15.074091 2.819372
endloop
endfacet
facet normal 0 0 0
outer loop
vertex 8.303253 15.074091 2.819372
vertex 8.282778 15.053337 2.819372
vertex 8.282778 15.074091 2.819372
endloop
endfacet
facet normal 0 0 0
outer loop
vertex 8.282778 15.074091 2.819372
vertex 8.262300 15.074091 2.819372
vertex 8.282778 15.094845 2.819372
endloop
endfacet
facet normal 0 0 0
outer loop
vertex 8.282778 15.094845 2.819372
vertex 8.262300 15.074091 2.819372
vertex 8.262300 15.094845 2.819372
endloop
endfacet
facet normal 0 0 0
outer loop
vertex 8.303253 15.074091 2.819372
vertex 8.282778 15.074091 2.819372
vertex 8.303253 15.094845 2.819372
endloop
endfacet
facet normal 0 0 0
outer loop
vertex 8.303253 15.094845 2.819372
vertex 8.282778 15.074091 2.819372
vertex 8.282778 15.094845 2.819372
endloop
endfacet
facet normal 0 0 0
outer loop
vertex 8.282778 15.094845 2.819372
vertex 8.262300 15.094845 2.819372
vertex 8.282778 15.115597 2.819372
endloop
endfacet
facet normal 0 0 0
outer loop
vertex 8.282778 15.115597 2.819372
vertex 8.262300 15.094845 2.819372
vertex 8.262300 15.115597 2.819372
endloop
endfacet
facet normal 0 0 0
outer loop
vertex 8.303253 15.094845 2.819372
vertex 8.282778 15.094845 2.819372
vertex 8.303253 15.115597 2.819372
endloop
endfacet
facet normal 0 0 0
outer loop
vertex 8.303253 15.115597 2.819372
vertex 8.282778 15.094845 2.819372
vertex 8.282778 15.115597 2.819372
endloop
endfacet
facet normal 0 0 0
outer loop
vertex 8.282778 15.115597 2.819372
vertex 8.262300 15.115597 2.819372
vertex 8.282778 15.136351 2.819372
endloop
endfacet
facet normal 0 0 0
outer loop
vertex 8.282778 15.136351 2.819372
vertex 8.262300 15.115597 2.819372
vertex 8.262300 15.136351 2.819372
endloop
endfacet
facet normal 0 0 0
outer loop
vertex 8.303253 15.115597 2.819372
vertex 8.282778 15.115597 2.819372
vertex 8.303253 15.136351 2.819372
endloop
endfacet
facet normal 0 0 0
outer loop
vertex 8.303253 15.136351 2.819372
vertex 8.282778 15.115597 2.819372
vertex 8.282778 15.136351 2.819372
endloop
endfacet
facet normal 0 0 0
outer loop
vertex 8.262300 15.136351 2.819372
vertex 8.282778 15.157104 2.819372
vertex 8.282778 15.136351 2.819372
endloop
endfacet
facet normal 0 0 0
outer loop
vertex 8.303253 15.136351 2.819372
vertex 8.282778 15.136351 2.819372
vertex 8.303253 15.157104 2.819372
endloop
endfacet
facet normal 0 0 0
outer loop
vertex 8.303253 15.157104 2.819372
vertex 8.282778 15.136351 2.819372
vertex 8.282778 15.157104 2.819372
endloop
endfacet
facet normal 0 0 0
outer loop
vertex 8.303253 15.157104 2.819372
vertex 8.282778 15.157104 2.819372
vertex 8.303253 15.177856 2.819372
endloop
endfacet
facet normal 0 0 0
outer loop
vertex 8.303253 15.177856 2.819372
vertex 8.282778 15.157104 2.819372
vertex 8.282778 15.177856 2.819372
endloop
endfacet
facet normal 0 0 0
outer loop
vertex 8.303253 15.177856 2.819372
vertex 8.282778 15.177856 2.819372
vertex 8.303253 15.198610 2.819372
endloop
endfacet
facet normal 0 0 0
outer loop
vertex 8.303253 15.198610 2.819372
vertex 8.282778 15.177856 2.819372
vertex 8.282778 15.198610 2.819372
endloop
endfacet
facet normal 0 0 0
outer loop
vertex 8.282778 15.198610 2.819372
vertex 8.303253 15.219364 2.819372
vertex 8.303253 15.198610 2.819372
endloop
endfacet
facet normal 0 0 0
outer loop
vertex 8.323729 15.219364 2.819372
vertex 8.303253 15.198610 2.819372
vertex 8.303253 15.219364 2.819372
endloop
endfacet
facet normal 0 0 0
outer loop
vertex 8.323729 15.219364 2.819372
vertex 8.303253 15.219364 2.819372
vertex 8.323729 15.240118 2.819372
endloop
endfacet
facet normal 0 0 0
outer loop
vertex 8.323729 15.240118 2.819372
vertex 8.303253 15.219364 2.819372
vertex 8.303253 15.240118 2.819372
endloop
endfacet
facet normal 0 0 0
outer loop
vertex 8.303253 15.260870 2.819372
vertex 8.323729 15.240118 2.819372
vertex 8.303253 15.240118 2.819372
endloop
endfacet
facet normal 0 0 0
outer loop
vertex 8.303253 14.928818 2.819372
vertex 8.282778 14.928818 2.819372
vertex 8.282778 14.908064 2.819372
endloop
endfacet
facet normal 0 0 0
outer loop
vertex 8.282778 14.928818 2.819372
vertex 8.282778 14.949572 2.819372
vertex 8.262300 14.928818 2.819372
endloop
endfacet
facet normal 0 0 0
outer loop
vertex 8.303253 14.928818 2.819372
vertex 8.303253 14.949572 2.819372
vertex 8.282778 14.928818 2.819372
endloop
endfacet
facet normal 0 0 0
outer loop
vertex 8.303253 14.949572 2.819372
vertex 8.282778 14.949572 2.819372
vertex 8.282778 14.928818 2.819372
endloop
endfacet
facet normal 0 0 0
outer loop
vertex 8.262300 14.949572 2.819372
vertex 8.262300 14.970324 2.839372
vertex 8.262300 14.970324 2.819372
endloop
endfacet
facet normal 0 0 0
outer loop
vertex 8.282778 14.949572 2.819372
vertex 8.262300 14.970324 2.839372
vertex 8.262300 14.949572 2.819372
endloop
endfacet
facet normal 0 0 0
outer loop
vertex 8.282778 14.970324 2.839372
vertex 8.262300 14.970324 2.839372
vertex 8.282778 14.949572 2.819372
endloop
endfacet
facet normal 0 0 0
outer loop
vertex 8.282778 14.970324 2.839372
vertex 8.282778 14.949572 2.819372
vertex 8.303253 14.970324 2.819372
endloop
endfacet
facet normal 0 0 0
outer loop
vertex 8.241825 14.991077 2.839372
vertex 8.262300 14.991077 2.819372
vertex 8.262300 14.970324 2.839372
endloop
endfacet
facet normal 0 0 0
outer loop
vertex 8.262300 14.991077 2.819372
vertex 8.262300 14.970324 2.819372
vertex 8.262300 14.970324 2.839372
endloop
endfacet
facet normal 0 0 0
outer loop
vertex 8.303253 14.991077 2.819372
vertex 8.282778 14.970324 2.839372
vertex 8.303253 14.970324 2.819372
endloop
endfacet
facet normal 0 0 0
outer loop
vertex 8.282778 14.991077 2.839372
vertex 8.282778 14.970324 2.839372
vertex 8.303253 14.991077 2.819372
endloop
endfacet
facet normal 0 0 0
outer loop
vertex 8.262300 14.991077 2.819372
vertex 8.241825 15.011831 2.839372
vertex 8.262300 15.011831 2.819372
endloop
endfacet
facet normal 0 0 0
outer loop
vertex 8.241825 14.991077 2.839372
vertex 8.241825 15.011831 2.839372
vertex 8.262300 14.991077 2.819372
endloop
endfacet
facet normal 0 0 0
outer loop
vertex 8.303253 14.991077 2.819372
vertex 8.303253 15.011831 2.839372
vertex 8.282778 14.991077 2.839372
endloop
endfacet
facet normal 0 0 0
outer loop
vertex 8.303253 15.011831 2.839372
vertex 8.303253 14.991077 2.819372
vertex 8.303253 15.011831 2.819372
endloop
endfacet
facet normal 0 0 0
outer loop
vertex 8.262300 15.011831 2.819372
vertex 8.241825 15.032583 2.839372
vertex 8.262300 15.032583 2.819372
endloop
endfacet
facet normal 0 0 0
outer loop
vertex 8.241825 15.011831 2.839372
vertex 8.241825 15.032583 2.839372
vertex 8.262300 15.011831 2.819372
endloop
endfacet
facet normal 0 0 0
outer loop
vertex 8.303253 15.011831 2.819372
vertex 8.303253 15.032583 2.819372
vertex 8.303253 15.011831 2.839372
endloop
endfacet
facet normal 0 0 0
outer loop
vertex 8.303253 15.011831 2.839372
vertex 8.303253 15.032583 2.819372
vertex 8.303253 15.032583 2.839372
endloop
endfacet
facet normal 0 0 0
outer loop
vertex 8.241825 15.032583 2.839372
vertex 8.262300 15.053337 2.839372
vertex 8.262300 15.032583 2.819372
endloop
endfacet
facet normal 0 0 0
outer loop
vertex 8.262300 15.053337 2.839372
vertex 8.262300 15.053337 2.819372
vertex 8.262300 15.032583 2.819372
endloop
endfacet
facet normal 0 0 0
outer loop
vertex 8.303253 15.032583 2.819372
vertex 8.303253 15.053337 2.819372
vertex 8.303253 15.032583 2.839372
endloop
endfacet
facet normal 0 0 0
outer loop
vertex 8.303253 15.032583 2.839372
vertex 8.303253 15.053337 2.819372
vertex 8.303253 15.053337 2.839372
endloop
endfacet
facet normal 0 0 0
outer loop
vertex 8.262300 15.053337 2.819372
vertex 8.262300 15.053337 2.839372
vertex 8.262300 15.074091 2.819372
endloop
endfacet
facet normal 0 0 0
outer loop
vertex 8.262300 15.053337 2.839372
vertex 8.262300 15.074091 2.839372
vertex 8.262300 15.074091 2.819372
endloop
endfacet
facet normal 0 0 0
outer loop
vertex 8.303253 15.053337 2.819372
vertex 8.303253 15.074091 2.819372
vertex 8.303253 15.053337 2.839372
endloop
endfacet
facet normal 0 0 0
outer loop
vertex 8.303253 15.053337 2.839372
vertex 8.303253 15.074091 2.819372
vertex 8.303253 15.074091 2.839372
endloop
endfacet
facet normal 0 0 0
outer loop
vertex 8.262300 15.074091 2.819372
vertex 8.262300 15.074091 2.839372
vertex 8.262300 15.094845 2.819372
endloop
endfacet
facet normal 0 0 0
outer loop
vertex 8.262300 15.074091 2.839372
vertex 8.262300 15.094845 2.839372
vertex 8.262300 15.094845 2.819372
endloop
endfacet
facet normal 0 0 0
outer loop
vertex 8.303253 15.074091 2.819372
vertex 8.303253 15.094845 2.819372
vertex 8.303253 15.074091 2.839372
endloop
endfacet
facet normal 0 0 0
outer loop
vertex 8.303253 15.074091 2.839372
vertex 8.303253 15.094845 2.819372
vertex 8.303253 15.094845 2.839372
endloop
endfacet
facet normal 0 0 0
outer loop
vertex 8.262300 15.094845 2.819372
vertex 8.262300 15.094845 2.839372
vertex 8.262300 15.115597 2.819372
endloop
endfacet
facet normal 0 0 0
outer loop
vertex 8.262300 15.094845 2.839372
vertex 8.262300 15.115597 2.839372
vertex 8.262300 15.115597 2.819372
endloop
endfacet
facet normal 0 0 0
outer loop
vertex 8.303253 15.094845 2.819372
vertex 8.303253 15.115597 2.819372
vertex 8.303253 15.094845 2.839372
endloop
endfacet
facet normal 0 0 0
outer loop
vertex 8.303253 15.094845 2.839372
vertex 8.303253 15.115597 2.819372
vertex 8.303253 15.115597 2.839372
endloop
endfacet
facet normal 0 0 0
outer loop
vertex 8.262300 15.115597 2.819372
vertex 8.262300 15.115597 2.839372
vertex 8.262300 15.136351 2.819372
endloop
endfacet
facet normal 0 0 0
outer loop
vertex 8.262300 15.115597 2.839372
vertex 8.262300 15.136351 2.839372
vertex 8.262300 15.136351 2.819372
endloop
endfacet
facet normal 0 0 0
outer loop
vertex 8.303253 15.115597 2.819372
vertex 8.303253 15.136351 2.819372
vertex 8.303253 15.115597 2.839372
endloop
endfacet
facet normal 0 0 0
outer loop
vertex 8.303253 15.115597 2.839372
vertex 8.303253 15.136351 2.819372
vertex 8.303253 15.136351 2.839372
endloop
endfacet
facet normal 0 0 0
outer loop
vertex 8.262300 15.157104 2.839372
vertex 8.262300 15.136351 2.819372
vertex 8.262300 15.136351 2.839372
endloop
endfacet
facet normal 0 0 0
outer loop
vertex 8.262300 15.136351 2.819372
vertex 8.262300 15.157104 2.839372
vertex 8.282778 15.157104 2.819372
endloop
endfacet
facet normal 0 0 0
outer loop
vertex 8.303253 15.136351 2.819372
vertex 8.303253 15.157104 2.819372
vertex 8.303253 15.136351 2.839372
endloop
endfacet
facet normal 0 0 0
outer loop
vertex 8.303253 15.136351 2.839372
vertex 8.303253 15.157104 2.819372
vertex 8.303253 15.157104 2.839372
endloop
endfacet
facet normal 0 0 0
outer loop
vertex 8.282778 15.157104 2.819372
vertex 8.262300 15.177856 2.839372
vertex 8.282778 15.177856 2.819372
endloop
endfacet
facet normal 0 0 0
outer loop
vertex 8.262300 15.157104 2.839372
vertex 8.262300 15.177856 2.839372
vertex 8.282778 15.157104 2.819372
endloop
endfacet
facet normal 0 0 0
outer loop
vertex 8.303253 15.157104 2.819372
vertex 8.303253 15.177856 2.819372
vertex 8.303253 15.157104 2.839372
endloop
endfacet
facet normal 0 0 0
outer loop
vertex 8.303253 15.157104 2.839372
vertex 8.303253 15.177856 2.819372
vertex 8.303253 15.177856 2.839372
endloop
endfacet
facet normal 0 0 0
outer loop
vertex 8.282778 15.177856 2.819372
vertex 8.262300 15.198610 2.839372
vertex 8.282778 15.198610 2.819372
endloop
endfacet
facet normal 0 0 0
outer loop
vertex 8.262300 15.177856 2.839372
vertex 8.262300 15.198610 2.839372
vertex 8.282778 15.177856 2.819372
endloop
endfacet
facet normal 0 0 0
outer loop
vertex 8.323729 15.198610 2.839372
vertex 8.303253 15.177856 2.839372
vertex 8.303253 15.198610 2.819372
endloop
endfacet
facet normal 0 0 0
outer loop
vertex 8.303253 15.177856 2.839372
vertex 8.303253 15.177856 2.819372
vertex 8.303253 15.198610 2.819372
endloop
endfacet
facet normal 0 0 0
outer loop
vertex 8.282778 15.198610 2.819372
vertex 8.262300 15.198610 2.839372
vertex 8.282778 15.219364 2.839372
endloop
endfacet
facet normal 0 0 0
outer loop
vertex 8.262300 15.198610 2.839372
vertex 8.262300 15.219364 2.839372
vertex 8.282778 15.219364 2.839372
endloop
endfacet
facet normal 0 0 0
outer loop
vertex 8.282778 15.198610 2.819372
vertex 8.282778 15.219364 2.839372
vertex 8.303253 15.219364 2.819372
endloop
endfacet
facet normal 0 0 0
outer loop
vertex 8.303253 15.198610 2.819372
vertex 8.323729 15.219364 2.819372
vertex 8.323729 15.198610 2.839372
endloop
endfacet
facet normal 0 0 0
outer loop
vertex 8.323729 15.198610 2.839372
vertex 8.323729 15.219364 2.819372
vertex 8.323729 15.219364 2.839372
endloop
endfacet
facet normal 0 0 0
outer loop
vertex 8.282778 15.219364 2.839372
vertex 8.262300 15.219364 2.839372
vertex 8.282778 15.240118 2.839372
endloop
endfacet
facet normal 0 0 0
outer loop
vertex 8.282778 15.240118 2.839372
vertex 8.262300 15.219364 2.839372
vertex 8.262300 15.240118 2.839372
endloop
endfacet
facet normal 0 0 0
outer loop
vertex 8.303253 15.219364 2.819372
vertex 8.282778 15.240118 2.839372
vertex 8.303253 15.240118 2.819372
endloop
endfacet
facet normal 0 0 0
outer loop
vertex 8.282778 15.219364 2.839372
vertex 8.282778 15.240118 2.839372
vertex 8.303253 15.219364 2.819372
endloop
endfacet
facet normal 0 0 0
outer loop
vertex 8.323729 15.219364 2.819372
vertex 8.323729 15.240118 2.819372
vertex 8.323729 15.219364 2.839372
endloop
endfacet
facet normal 0 0 0
outer loop
vertex 8.323729 15.219364 2.839372
vertex 8.323729 15.240118 2.819372
vertex 8.323729 15.240118 2.839372
endloop
endfacet
facet normal 0 0 0
outer loop
vertex 8.282778 15.240118 2.839372
vertex 8.262300 15.240118 2.839372
vertex 8.282778 15.260870 2.839372
endloop
endfacet
facet normal 0 0 0
outer loop
vertex 8.282778 15.260870 2.839372
vertex 8.262300 15.240118 2.839372
vertex 8.262300 15.260870 2.839372
endloop
endfacet
facet normal 0 0 0
outer loop
vertex 8.303253 15.240118 2.819372
vertex 8.282778 15.260870 2.839372
vertex 8.303253 15.260870 2.819372
endloop
endfacet
facet normal 0 0 0
outer loop
vertex 8.282778 15.240118 2.839372
vertex 8.282778 15.260870 2.839372
vertex 8.303253 15.240118 2.819372
endloop
endfacet
facet normal 0 0 0
outer loop
vertex 8.323729 15.240118 2.819372
vertex 8.303253 15.260870 2.819372
vertex 8.323729 15.260870 2.839372
endloop
endfacet
facet normal 0 0 0
outer loop
vertex 8.323729 15.240118 2.819372
vertex 8.323729 15.260870 2.839372
vertex 8.323729 15.240118 2.839372
endloop
endfacet
facet normal 0 0 0
outer loop
vertex 8.303253 15.260870 2.819372
vertex 8.282778 15.260870 2.839372
vertex 8.303253 15.260870 2.839372
endloop
endfacet
facet normal 0 0 0
outer loop
vertex 8.323729 15.260870 2.839372
vertex 8.303253 15.260870 2.819372
vertex 8.303253 15.260870 2.839372
endloop
endfacet
facet normal 0 0 0
outer loop
vertex 8.241825 14.991077 2.839372
vertex 8.262300 14.970324 2.839372
vertex 8.262300 14.991077 2.839372
endloop
endfacet
facet normal 0 0 0
outer loop
vertex 8.282778 14.970324 2.839372
vertex 8.282778 14.991077 2.839372
vertex 8.262300 14.970324 2.839372
endloop
endfacet
facet normal 0 0 0
outer loop
vertex 8.282778 14.991077 2.839372
vertex 8.262300 14.991077 2.839372
vertex 8.262300 14.970324 2.839372
endloop
endfacet
facet normal 0 0 0
outer loop
vertex 8.262300 14.991077 2.839372
vertex 8.262300 15.011831 2.839372
vertex 8.241825 14.991077 2.839372
endloop
endfacet
facet normal 0 0 0
outer loop
vertex 8.262300 15.011831 2.839372
vertex 8.241825 15.011831 2.839372
vertex 8.241825 14.991077 2.839372
endloop
endfacet
facet normal 0 0 0
outer loop
vertex 8.282778 14.991077 2.839372
vertex 8.282778 15.011831 2.839372
vertex 8.262300 14.991077 2.839372
endloop
endfacet
facet normal 0 0 0
outer loop
vertex 8.282778 15.011831 2.839372
vertex 8.262300 15.011831 2.839372
vertex 8.262300 14.991077 2.839372
endloop
endfacet
facet normal 0 0 0
outer loop
vertex 8.282778 14.991077 2.839372
vertex 8.303253 15.011831 2.839372
vertex 8.282778 15.011831 2.839372
endloop
endfacet
facet normal 0 0 0
outer loop
vertex 8.262300 15.011831 2.839372
vertex 8.262300 15.032583 2.839372
vertex 8.241825 15.011831 2.839372
endloop
endfacet
facet normal 0 0 0
outer loop
vertex 8.262300 15.032583 2.839372
vertex 8.241825 15.032583 2.839372
vertex 8.241825 15.011831 2.839372
endloop
endfacet
facet normal 0 0 0
outer loop
vertex 8.282778 15.011831 2.839372
vertex 8.282778 15.032583 2.839372
vertex 8.262300 15.011831 2.839372
endloop
endfacet
facet normal 0 0 0
outer loop
vertex 8.282778 15.032583 2.839372
vertex 8.262300 15.032583 2.839372
vertex 8.262300 15.011831 2.839372
endloop
endfacet
facet normal 0 0 0
outer loop
vertex 8.303253 15.011831 2.839372
vertex 8.303253 15.032583 2.839372
vertex 8.282778 15.011831 2.839372
endloop
endfacet
facet normal 0 0 0
outer loop
vertex 8.303253 15.032583 2.839372
vertex 8.282778 15.032583 2.839372
vertex 8.282778 15.011831 2.839372
endloop
endfacet
facet normal 0 0 0
outer loop
vertex 8.262300 15.053337 2.839372
vertex 8.241825 15.032583 2.839372
vertex 8.262300 15.032583 2.839372
endloop
endfacet
facet normal 0 0 0
outer loop
vertex 8.282778 15.032583 2.839372
vertex 8.282778 15.053337 2.839372
vertex 8.262300 15.032583 2.839372
endloop
endfacet
facet normal 0 0 0
outer loop
vertex 8.282778 15.053337 2.839372
vertex 8.262300 15.053337 2.839372
vertex 8.262300 15.032583 2.839372
endloop
endfacet
facet normal 0 0 0
outer loop
vertex 8.303253 15.032583 2.839372
vertex 8.303253 15.053337 2.839372
vertex 8.282778 15.032583 2.839372
endloop
endfacet
facet normal 0 0 0
outer loop
vertex 8.303253 15.053337 2.839372
vertex 8.282778 15.053337 2.839372
vertex 8.282778 15.032583 2.839372
endloop
endfacet
facet normal 0 0 0
outer loop
vertex 8.262300 15.053337 2.839372
vertex 8.262300 15.074091 2.859372
vertex 8.262300 15.074091 2.839372
endloop
endfacet
facet normal 0 0 0
outer loop
vertex 8.282778 15.053337 2.839372
vertex 8.262300 15.074091 2.859372
vertex 8.262300 15.053337 2.839372
endloop
endfacet
facet normal 0 0 0
outer loop
vertex 8.282778 15.074091 2.859372
vertex 8.262300 15.074091 2.859372
vertex 8.282778 15.053337 2.839372
endloop
endfacet
facet normal 0 0 0
outer loop
vertex 8.282778 15.074091 2.859372
vertex 8.282778 15.053337 2.839372
vertex 8.303253 15.074091 2.839372
endloop
endfacet
facet normal 0 0 0
outer loop
vertex 8.282778 15.053337 2.839372
vertex 8.303253 15.053337 2.839372
vertex 8.303253 15.074091 2.839372
endloop
endfacet
facet normal 0 0 0
outer loop
vertex 8.241825 15.094845 2.859372
vertex 8.262300 15.094845 2.839372
vertex 8.262300 15.074091 2.859372
endloop
endfacet
facet normal 0 0 0
outer loop
vertex 8.262300 15.094845 2.839372
vertex 8.262300 15.074091 2.839372
vertex 8.262300 15.074091 2.859372
endloop
endfacet
facet normal 0 0 0
outer loop
vertex 8.303253 15.094845 2.839372
vertex 8.282778 15.074091 2.859372
vertex 8.303253 15.074091 2.839372
endloop
endfacet
facet normal 0 0 0
outer loop
vertex 8.282778 15.094845 2.859372
vertex 8.282778 15.074091 2.859372
vertex 8.303253 15.094845 2.839372
endloop
endfacet
facet normal 0 0 0
outer loop
vertex 8.262300 15.094845 2.839372
vertex 8.241825 15.115597 2.859372
vertex 8.262300 15.115597 2.839372
endloop
endfacet
facet normal 0 0 0
outer loop
vertex 8.241825 15.094845 2.859372
vertex 8.241825 15.115597 2.859372
vertex 8.262300 15.094845 2.839372
endloop
endfacet
facet normal 0 0 0
outer loop
vertex 8.303253 15.115597 2.839372
vertex 8.282778 15.094845 2.859372
vertex 8.303253 15.094845 2.839372
endloop
endfacet
facet normal 0 0 0
outer loop
vertex 8.282778 15.115597 2.859372
vertex 8.282778 15.094845 2.859372
vertex 8.303253 15.115597 2.839372
endloop
endfacet
facet normal 0 0 0
outer loop
vertex 8.262300 15.115597 2.839372
vertex 8.241825 15.136351 2.859372
vertex 8.262300 15.136351 2.839372
endloop
endfacet
facet normal 0 0 0
outer loop
vertex 8.241825 15.115597 2.859372
vertex 8.241825 15.136351 2.859372
vertex 8.262300 15.115597 2.839372
endloop
endfacet
facet normal 0 0 0
outer loop
vertex 8.303253 15.115597 2.839372
vertex 8.303253 15.136351 2.859372
vertex 8.282778 15.115597 2.859372
endloop
endfacet
facet normal 0 0 0
outer loop
vertex 8.303253 15.136351 2.859372
vertex 8.303253 15.115597 2.839372
vertex 8.303253 15.136351 2.839372
endloop
endfacet
facet normal 0 0 0
outer loop
vertex 8.241825 15.136351 2.859372
vertex 8.262300 15.157104 2.859372
vertex 8.262300 15.136351 2.839372
endloop
endfacet
facet normal 0 0 0
outer loop
vertex 8.262300 15.157104 2.859372
vertex 8.262300 15.157104 2.839372
vertex 8.262300 15.136351 2.839372
endloop
endfacet
facet normal 0 0 0
outer loop
vertex 8.303253 15.136351 2.839372
vertex 8.303253 15.157104 2.839372
vertex 8.303253 15.136351 2.859372
endloop
endfacet
facet normal 0 0 0
outer loop
vertex 8.303253 15.136351 2.859372
vertex 8.303253 15.157104 2.839372
vertex 8.303253 15.157104 2.859372
endloop
endfacet
facet normal 0 0 0
outer loop
vertex 8.262300 15.157104 2.839372
vertex 8.262300 15.157104 2.859372
vertex 8.262300 15.177856 2.839372
endloop
endfacet
facet normal 0 0 0
outer loop
vertex 8.262300 15.157104 2.859372
vertex 8.262300 15.177856 2.859372
vertex 8.262300 15.177856 2.839372
endloop
endfacet
facet normal 0 0 0
outer loop
vertex 8.303253 15.157104 2.839372
vertex 8.303253 15.177856 2.839372
vertex 8.303253 15.157104 2.859372
endloop
endfacet
facet normal 0 0 0
outer loop
vertex 8.303253 15.157104 2.859372
vertex 8.303253 15.177856 2.839372
vertex 8.303253 15.177856 2.859372
endloop
endfacet
facet normal 0 0 0
outer loop
vertex 8.262300 15.177856 2.839372
vertex 8.262300 15.177856 2.859372
vertex 8.262300 15.198610 2.839372
endloop
endfacet
facet normal 0 0 0
outer loop
vertex 8.262300 15.177856 2.859372
vertex 8.262300 15.198610 2.859372
vertex 8.262300 15.198610 2.839372
endloop
endfacet
facet normal 0 0 0
outer loop
vertex 8.323729 15.198610 2.839372
vertex 8.303253 15.198610 2.859372
vertex 8.303253 15.177856 2.839372
endloop
endfacet
facet normal 0 0 0
outer loop
vertex 8.303253 15.198610 2.859372
vertex 8.303253 15.177856 2.859372
vertex 8.303253 15.177856 2.839372
endloop
endfacet
facet normal 0 0 0
outer loop
vertex 8.262300 15.198610 2.839372
vertex 8.262300 15.198610 2.859372
vertex 8.262300 15.219364 2.839372
endloop
endfacet
facet normal 0 0 0
outer loop
vertex 8.262300 15.198610 2.859372
vertex 8.262300 15.219364 2.859372
vertex 8.262300 15.219364 2.839372
endloop
endfacet
facet normal 0 0 0
outer loop
vertex 8.323729 15.219364 2.839372
vertex 8.303253 15.198610 2.859372
vertex 8.323729 15.198610 2.839372
endloop
endfacet
facet normal 0 0 0
outer loop
vertex 8.303253 15.219364 2.859372
vertex 8.303253 15.198610 2.859372
vertex 8.323729 15.219364 2.839372
endloop
endfacet
facet normal 0 0 0
outer loop
vertex 8.262300 15.219364 2.839372
vertex 8.262300 15.219364 2.859372
vertex 8.262300 15.240118 2.839372
endloop
endfacet
facet normal 0 0 0
outer loop
vertex 8.262300 15.219364 2.859372
vertex 8.262300 15.240118 2.859372
vertex 8.262300 15.240118 2.839372
endloop
endfacet
facet normal 0 0 0
outer loop
vertex 8.323729 15.219364 2.839372
vertex 8.323729 15.240118 2.859372
vertex 8.303253 15.219364 2.859372
endloop
endfacet
facet normal 0 0 0
outer loop
vertex 8.323729 15.240118 2.859372
vertex 8.323729 15.219364 2.839372
vertex 8.323729 15.240118 2.839372
endloop
endfacet
facet normal 0 0 0
outer loop
vertex 8.262300 15.240118 2.839372
vertex 8.262300 15.240118 2.859372
vertex 8.262300 15.260870 2.839372
endloop
endfacet
facet normal 0 0 0
outer loop
vertex 8.262300 15.240118 2.859372
vertex 8.262300 15.260870 2.859372
vertex 8.262300 15.260870 2.839372
endloop
endfacet
facet normal 0 0 0
outer loop
vertex 8.323729 15.260870 2.839372
vertex 8.303253 15.260870 2.859372
vertex 8.323729 15.240118 2.859372
endloop
endfacet
facet normal 0 0 0
outer loop
vertex 8.323729 15.260870 2.839372
vertex 8.323729 15.240118 2.859372
vertex 8.323729 15.240118 2.839372
endloop
endfacet
facet normal 0 0 0
outer loop
vertex 8.282778 15.260870 2.839372
vertex 8.262300 15.260870 2.839372
vertex 8.282778 15.260870 2.859372
endloop
endfacet
facet normal 0 0 0
outer loop
vertex 8.262300 15.260870 2.839372
vertex 8.262300 15.260870 2.859372
vertex 8.282778 15.260870 2.859372
endloop
endfacet
facet normal 0 0 0
outer loop
vertex 8.303253 15.260870 2.839372
vertex 8.282778 15.260870 2.839372
vertex 8.303253 15.260870 2.859372
endloop
endfacet
facet normal 0 0 0
outer loop
vertex 8.282778 15.260870 2.839372
vertex 8.282778 15.260870 2.859372
vertex 8.303253 15.260870 2.859372
endloop
endfacet
facet normal 0 0 0
outer loop
vertex 8.303253 15.260870 2.859372
vertex 8.323729 15.260870 2.839372
vertex 8.303253 15.260870 2.839372
endloop
endfacet
facet normal 0 0 0
outer loop
vertex 8.241825 15.094845 2.859372
vertex 8.262300 15.074091 2.859372
vertex 8.262300 15.094845 2.859372
endloop
endfacet
facet normal 0 0 0
outer loop
vertex 8.282778 15.074091 2.859372
vertex 8.282778 15.094845 2.859372
vertex 8.262300 15.074091 2.859372
endloop
endfacet
facet normal 0 0 0
outer loop
vertex 8.282778 15.094845 2.859372
vertex 8.262300 15.094845 2.859372
vertex 8.262300 15.074091 2.859372
endloop
endfacet
facet normal 0 0 0
outer loop
vertex 8.262300 15.094845 2.859372
vertex 8.262300 15.115597 2.859372
vertex 8.241825 15.094845 2.859372
endloop
endfacet
facet normal 0 0 0
outer loop
vertex 8.262300 15.115597 2.859372
vertex 8.241825 15.115597 2.859372
vertex 8.241825 15.094845 2.859372
endloop
endfacet
facet normal 0 0 0
outer loop
vertex 8.282778 15.115597 2.879372
vertex 8.262300 15.115597 2.859372
vertex 8.282778 15.094845 2.859372
endloop
endfacet
facet normal 0 0 0
outer loop
vertex 8.262300 15.115597 2.859372
vertex 8.262300 15.094845 2.859372
vertex 8.282778 15.094845 2.859372
endloop
endfacet
facet normal 0 0 0
outer loop
vertex 8.282778 15.094845 2.859372
vertex 8.282778 15.115597 2.859372
vertex 8.303253 15.115597 2.879372
endloop
endfacet
facet normal 0 0 0
outer loop
vertex 8.282778 15.094845 2.859372
vertex 8.303253 15.115597 2.879372
vertex 8.282778 15.115597 2.879372
endloop
endfacet
facet normal 0 0 0
outer loop
vertex 8.262300 15.115597 2.859372
vertex 8.262300 15.136351 2.859372
vertex 8.241825 15.115597 2.859372
endloop
endfacet
facet normal 0 0 0
outer loop
vertex 8.262300 15.136351 2.859372
vertex 8.241825 15.136351 2.859372
vertex 8.241825 15.115597 2.859372
endloop
endfacet
facet normal 0 0 0
outer loop
vertex 8.282778 15.136351 2.879372
vertex 8.262300 15.115597 2.859372
vertex 8.282778 15.115597 2.879372
endloop
endfacet
facet normal 0 0 0
outer loop
vertex 8.262300 15.136351 2.859372
vertex 8.262300 15.115597 2.859372
vertex 8.282778 15.136351 2.879372
endloop
endfacet
facet normal 0 0 0
outer loop
vertex 8.282778 15.115597 2.859372
vertex 8.303253 15.136351 2.859372
vertex 8.303253 15.115597 2.879372
endloop
endfacet
facet normal 0 0 0
outer loop
vertex 8.303253 15.115597 2.879372
vertex 8.303253 15.136351 2.859372
vertex 8.303253 15.136351 2.879372
endloop
endfacet
facet normal 0 0 0
outer loop
vertex 8.262300 15.157104 2.879372
vertex 8.241825 15.136351 2.859372
vertex 8.262300 15.136351 2.859372
endloop
endfacet
facet normal 0 0 0
outer loop
vertex 8.262300 15.157104 2.879372
vertex 8.262300 15.157104 2.859372
vertex 8.241825 15.136351 2.859372
endloop
endfacet
facet normal 0 0 0
outer loop
vertex 8.282778 15.136351 2.879372
vertex 8.262300 15.157104 2.879372
vertex 8.262300 15.136351 2.859372
endloop
endfacet
facet normal 0 0 0
outer loop
vertex 8.303253 15.136351 2.859372
vertex 8.303253 15.157104 2.859372
vertex 8.303253 15.136351 2.879372
endloop
endfacet
facet normal 0 0 0
outer loop
vertex 8.303253 15.136351 2.879372
vertex 8.303253 15.157104 2.859372
vertex 8.303253 15.157104 2.879372
endloop
endfacet
facet normal 0 0 0
outer loop
vertex 8.262300 15.157104 2.859372
vertex 8.262300 15.157104 2.879372
vertex 8.262300 15.177856 2.859372
endloop
endfacet
facet normal 0 0 0
outer loop
vertex 8.262300 15.157104 2.879372
vertex 8.262300 15.177856 2.879372
vertex 8.262300 15.177856 2.859372
endloop
endfacet
facet normal 0 0 0
outer loop
vertex 8.303253 15.157104 2.859372
vertex 8.303253 15.177856 2.859372
vertex 8.303253 15.157104 2.879372
endloop
endfacet
facet normal 0 0 0
outer loop
vertex 8.303253 15.157104 2.879372
vertex 8.303253 15.177856 2.859372
vertex 8.303253 15.177856 2.879372
endloop
endfacet
facet normal 0 0 0
outer loop
vertex 8.262300 15.177856 2.859372
vertex 8.262300 15.177856 2.879372
vertex 8.262300 15.198610 2.859372
endloop
endfacet
facet normal 0 0 0
outer loop
vertex 8.262300 15.177856 2.879372
vertex 8.262300 15.198610 2.879372
vertex 8.262300 15.198610 2.859372
endloop
endfacet
facet normal 0 0 0
outer loop
vertex 8.303253 15.177856 2.859372
vertex 8.303253 15.198610 2.859372
vertex 8.303253 15.177856 2.879372
endloop
endfacet
facet normal 0 0 0
outer loop
vertex 8.303253 15.177856 2.879372
vertex 8.303253 15.198610 2.859372
vertex 8.303253 15.198610 2.879372
endloop
endfacet
facet normal 0 0 0
outer loop
vertex 8.262300 15.198610 2.859372
vertex 8.262300 15.198610 2.879372
vertex 8.262300 15.219364 2.859372
endloop
endfacet
facet normal 0 0 0
outer loop
vertex 8.262300 15.198610 2.879372
vertex 8.262300 15.219364 2.879372
vertex 8.262300 15.219364 2.859372
endloop
endfacet
facet normal 0 0 0
outer loop
vertex 8.303253 15.198610 2.859372
vertex 8.303253 15.219364 2.859372
vertex 8.303253 15.198610 2.879372
endloop
endfacet
facet normal 0 0 0
outer loop
vertex 8.303253 15.198610 2.879372
vertex 8.303253 15.219364 2.859372
vertex 8.303253 15.219364 2.879372
endloop
endfacet
facet normal 0 0 0
outer loop
vertex 8.262300 15.219364 2.859372
vertex 8.262300 15.219364 2.879372
vertex 8.262300 15.240118 2.859372
endloop
endfacet
facet normal 0 0 0
outer loop
vertex 8.262300 15.219364 2.879372
vertex 8.262300 15.240118 2.879372
vertex 8.262300 15.240118 2.859372
endloop
endfacet
facet normal 0 0 0
outer loop
vertex 8.323729 15.240118 2.859372
vertex 8.303253 15.240118 2.879372
vertex 8.303253 15.219364 2.859372
endloop
endfacet
facet normal 0 0 0
outer loop
vertex 8.303253 15.240118 2.879372
vertex 8.303253 15.219364 2.879372
vertex 8.303253 15.219364 2.859372
endloop
endfacet
facet normal 0 0 0
outer loop
vertex 8.262300 15.240118 2.859372
vertex 8.262300 15.240118 2.879372
vertex 8.262300 15.260870 2.859372
endloop
endfacet
facet normal 0 0 0
outer loop
vertex 8.262300 15.240118 2.879372
vertex 8.262300 15.260870 2.879372
vertex 8.262300 15.260870 2.859372
endloop
endfacet
facet normal 0 0 0
outer loop
vertex 8.323729 15.240118 2.859372
vertex 8.303253 15.260870 2.859372
vertex 8.303253 15.240118 2.879372
endloop
endfacet
facet normal 0 0 0
outer loop
vertex 8.303253 15.260870 2.859372
vertex 8.303253 15.260870 2.879372
vertex 8.303253 15.240118 2.879372
endloop
endfacet
facet normal 0 0 0
outer loop
vertex 8.282778 15.260870 2.859372
vertex 8.262300 15.260870 2.859372
vertex 8.282778 15.260870 2.879372
endloop
endfacet
facet normal 0 0 0
outer loop
vertex 8.262300 15.260870 2.859372
vertex 8.262300 15.260870 2.879372
vertex 8.282778 15.260870 2.879372
endloop
endfacet
facet normal 0 0 0
outer loop
vertex 8.303253 15.260870 2.859372
vertex 8.282778 15.260870 2.859372
vertex 8.303253 15.260870 2.879372
endloop
endfacet
facet normal 0 0 0
outer loop
vertex 8.282778 15.260870 2.859372
vertex 8.282778 15.260870 2.879372
vertex 8.303253 15.260870 2.879372
endloop
endfacet
facet normal 0 0 0
outer loop
vertex 8.303253 15.115597 2.879372
vertex 8.303253 15.136351 2.879372
vertex 8.282778 15.115597 2.879372
endloop
endfacet
facet normal 0 0 0
outer loop
vertex 8.303253 15.136351 2.879372
vertex 8.282778 15.136351 2.879372
vertex 8.282778 15.115597 2.879372
endloop
endfacet
facet normal 0 0 0
outer loop
vertex 8.262300 15.157104 2.879372
vertex 8.282778 15.136351 2.879372
vertex 8.282778 15.157104 2.879372
endloop
endfacet
facet normal 0 0 0
outer loop
vertex 8.303253 15.136351 2.879372
vertex 8.303253 15.157104 2.879372
vertex 8.282778 15.136351 2.879372
endloop
endfacet
facet normal 0 0 0
outer loop
vertex 8.303253 15.157104 2.879372
vertex 8.282778 15.157104 2.879372
vertex 8.282778 15.136351 2.879372
endloop
endfacet
facet normal 0 0 0
outer loop
vertex 8.282778 15.157104 2.879372
vertex 8.282778 15.177856 2.879372
vertex 8.262300 15.157104 2.879372
endloop
endfacet
facet normal 0 0 0
outer loop
vertex 8.282778 15.177856 2.879372
vertex 8.262300 15.177856 2.879372
vertex 8.262300 15.157104 2.879372
endloop
endfacet
facet normal 0 0 0
outer loop
vertex 8.303253 15.157104 2.879372
vertex 8.303253 15.177856 2.879372
vertex 8.282778 15.157104 2.879372
endloop
endfacet
facet normal 0 0 0
outer loop
vertex 8.303253 15.177856 2.879372
vertex 8.282778 15.177856 2.879372
vertex 8.282778 15.157104 2.879372
endloop
endfacet
facet normal 0 0 0
outer loop
vertex 8.282778 15.177856 2.879372
vertex 8.282778 15.198610 2.879372
vertex 8.262300 15.177856 2.879372
endloop
endfacet
facet normal 0 0 0
outer loop
vertex 8.282778 15.198610 2.879372
vertex 8.262300 15.198610 2.879372
vertex 8.262300 15.177856 2.879372
endloop
endfacet
facet normal 0 0 0
outer loop
vertex 8.303253 15.177856 2.879372
vertex 8.303253 15.198610 2.879372
vertex 8.282778 15.177856 2.879372
endloop
endfacet
facet normal 0 0 0
outer loop
vertex 8.303253 15.198610 2.879372
vertex 8.282778 15.198610 2.879372
vertex 8.282778 15.177856 2.879372
endloop
endfacet
facet normal 0 0 0
outer loop
vertex 8.282778 15.219364 2.899372
vertex 8.262300 15.219364 2.879372
vertex 8.282778 15.198610 2.879372
endloop
endfacet
facet normal 0 0 0
outer loop
vertex 8.262300 15.219364 2.879372
vertex 8.262300 15.198610 2.879372
vertex 8.282778 15.198610 2.879372
endloop
endfacet
facet normal 0 0 0
outer loop
vertex 8.303253 15.198610 2.879372
vertex 8.282778 15.219364 2.899372
vertex 8.282778 15.198610 2.879372
endloop
endfacet
facet normal 0 0 0
outer loop
vertex 8.303253 15.219364 2.899372
vertex 8.282778 15.219364 2.899372
vertex 8.303253 15.198610 2.879372
endloop
endfacet
facet normal 0 0 0
outer loop
vertex 8.303253 15.219364 2.899372
vertex 8.303253 15.198610 2.879372
vertex 8.303253 15.219364 2.879372
endloop
endfacet
facet normal 0 0 0
outer loop
vertex 8.282778 15.240118 2.899372
vertex 8.262300 15.219364 2.879372
vertex 8.282778 15.219364 2.899372
endloop
endfacet
facet normal 0 0 0
outer loop
vertex 8.262300 15.240118 2.879372
vertex 8.262300 15.219364 2.879372
vertex 8.282778 15.240118 2.899372
endloop
endfacet
facet normal 0 0 0
outer loop
vertex 8.303253 15.219364 2.879372
vertex 8.303253 15.240118 2.879372
vertex 8.303253 15.219364 2.899372
endloop
endfacet
facet normal 0 0 0
outer loop
vertex 8.303253 15.219364 2.899372
vertex 8.303253 15.240118 2.879372
vertex 8.303253 15.240118 2.899372
endloop
endfacet
facet normal 0 0 0
outer loop
vertex 8.282778 15.260870 2.899372
vertex 8.262300 15.240118 2.879372
vertex 8.282778 15.240118 2.899372
endloop
endfacet
facet normal 0 0 0
outer loop
vertex 8.262300 15.260870 2.879372
vertex 8.262300 15.240118 2.879372
vertex 8.282778 15.260870 2.899372
endloop
endfacet
facet normal 0 0 0
outer loop
vertex 8.303253 15.240118 2.879372
vertex 8.303253 15.260870 2.879372
vertex 8.303253 15.240118 2.899372
endloop
endfacet
facet normal 0 0 0
outer loop
vertex 8.303253 15.240118 2.899372
vertex 8.303253 15.260870 2.879372
vertex 8.303253 15.260870 2.899372
endloop
endfacet
facet normal 0 0 0
outer loop
vertex 8.262300 15.260870 2.879372
vertex 8.282778 15.260870 2.899372
vertex 8.282778 15.260870 2.879372
endloop
endfacet
facet normal 0 0 0
outer loop
vertex 8.303253 15.260870 2.879372
vertex 8.282778 15.260870 2.879372
vertex 8.303253 15.260870 2.899372
endloop
endfacet
facet normal 0 0 0
outer loop
vertex 8.282778 15.260870 2.879372
vertex 8.282778 15.260870 2.899372
vertex 8.303253 15.260870 2.899372
endloop
endfacet
facet normal 0 0 0
outer loop
vertex 8.303253 15.219364 2.899372
vertex 8.303253 15.240118 2.899372
vertex 8.282778 15.219364 2.899372
endloop
endfacet
facet normal 0 0 0
outer loop
vertex 8.303253 15.240118 2.899372
vertex 8.282778 15.240118 2.899372
vertex 8.282778 15.219364 2.899372
endloop
endfacet
facet normal 0 0 0
outer loop
vertex 8.303253 15.240118 2.899372
vertex 8.303253 15.260870 2.899372
vertex 8.282778 15.240118 2.899372
endloop
endfacet
facet normal 0 0 0
outer loop
vertex 8.303253 15.260870 2.899372
vertex 8.282778 15.260870 2.899372
vertex 8.282778 15.240118 2.899372
endloop
endfacet
endsolid B-16-Plag.009
