solid B-16-Plag.078
facet normal 0 0 0
outer loop
vertex 14.527895 9.989527 5.559372
vertex 14.507420 10.010280 5.559372
vertex 14.527895 10.010280 5.559372
endloop
endfacet
facet normal 0 0 0
outer loop
vertex 14.548372 9.989527 5.559372
vertex 14.527895 9.989527 5.559372
vertex 14.548372 10.010280 5.559372
endloop
endfacet
facet normal 0 0 0
outer loop
vertex 14.548372 10.010280 5.559372
vertex 14.527895 9.989527 5.559372
vertex 14.527895 10.010280 5.559372
endloop
endfacet
facet normal 0 0 0
outer loop
vertex 14.568848 9.989527 5.559372
vertex 14.548372 9.989527 5.559372
vertex 14.568848 10.010280 5.559372
endloop
endfacet
facet normal 0 0 0
outer loop
vertex 14.568848 10.010280 5.559372
vertex 14.548372 9.989527 5.559372
vertex 14.548372 10.010280 5.559372
endloop
endfacet
facet normal 0 0 0
outer loop
vertex 14.589323 10.010280 5.559372
vertex 14.568848 9.989527 5.559372
vertex 14.568848 10.010280 5.559372
endloop
endfacet
facet normal 0 0 0
outer loop
vertex 14.466469 10.010280 5.559372
vertex 14.486944 10.031034 5.559372
vertex 14.486944 10.010280 5.559372
endloop
endfacet
facet normal 0 0 0
outer loop
vertex 14.507420 10.010280 5.559372
vertex 14.486944 10.010280 5.559372
vertex 14.507420 10.031034 5.559372
endloop
endfacet
facet normal 0 0 0
outer loop
vertex 14.507420 10.031034 5.559372
vertex 14.486944 10.010280 5.559372
vertex 14.486944 10.031034 5.559372
endloop
endfacet
facet normal 0 0 0
outer loop
vertex 14.527895 10.010280 5.559372
vertex 14.507420 10.010280 5.559372
vertex 14.527895 10.031034 5.559372
endloop
endfacet
facet normal 0 0 0
outer loop
vertex 14.527895 10.031034 5.559372
vertex 14.507420 10.010280 5.559372
vertex 14.507420 10.031034 5.559372
endloop
endfacet
facet normal 0 0 0
outer loop
vertex 14.548372 10.010280 5.559372
vertex 14.527895 10.010280 5.559372
vertex 14.548372 10.031034 5.559372
endloop
endfacet
facet normal 0 0 0
outer loop
vertex 14.548372 10.031034 5.559372
vertex 14.527895 10.010280 5.559372
vertex 14.527895 10.031034 5.559372
endloop
endfacet
facet normal 0 0 0
outer loop
vertex 14.568848 10.010280 5.559372
vertex 14.548372 10.010280 5.559372
vertex 14.568848 10.031034 5.559372
endloop
endfacet
facet normal 0 0 0
outer loop
vertex 14.568848 10.031034 5.559372
vertex 14.548372 10.010280 5.559372
vertex 14.548372 10.031034 5.559372
endloop
endfacet
facet normal 0 0 0
outer loop
vertex 14.589323 10.010280 5.559372
vertex 14.568848 10.010280 5.559372
vertex 14.589323 10.031034 5.559372
endloop
endfacet
facet normal 0 0 0
outer loop
vertex 14.589323 10.031034 5.559372
vertex 14.568848 10.010280 5.559372
vertex 14.568848 10.031034 5.559372
endloop
endfacet
facet normal 0 0 0
outer loop
vertex 14.609798 10.031034 5.559372
vertex 14.589323 10.010280 5.559372
vertex 14.589323 10.031034 5.559372
endloop
endfacet
facet normal 0 0 0
outer loop
vertex 14.486944 9.968774 5.579371
vertex 14.466469 9.989527 5.579371
vertex 14.486944 9.989527 5.579371
endloop
endfacet
facet normal 0 0 0
outer loop
vertex 14.507420 9.968774 5.579371
vertex 14.486944 9.968774 5.579371
vertex 14.507420 9.989527 5.579371
endloop
endfacet
facet normal 0 0 0
outer loop
vertex 14.507420 9.989527 5.579371
vertex 14.486944 9.968774 5.579371
vertex 14.486944 9.989527 5.579371
endloop
endfacet
facet normal 0 0 0
outer loop
vertex 14.527895 9.989527 5.559372
vertex 14.527895 9.968774 5.579371
vertex 14.507420 9.989527 5.579371
endloop
endfacet
facet normal 0 0 0
outer loop
vertex 14.527895 9.968774 5.579371
vertex 14.507420 9.968774 5.579371
vertex 14.507420 9.989527 5.579371
endloop
endfacet
facet normal 0 0 0
outer loop
vertex 14.548372 9.989527 5.559372
vertex 14.527895 9.968774 5.579371
vertex 14.527895 9.989527 5.559372
endloop
endfacet
facet normal 0 0 0
outer loop
vertex 14.548372 9.968774 5.579371
vertex 14.527895 9.968774 5.579371
vertex 14.548372 9.989527 5.559372
endloop
endfacet
facet normal 0 0 0
outer loop
vertex 14.548372 9.968774 5.579371
vertex 14.548372 9.989527 5.559372
vertex 14.568848 9.989527 5.579371
endloop
endfacet
facet normal 0 0 0
outer loop
vertex 14.548372 9.989527 5.559372
vertex 14.568848 9.989527 5.559372
vertex 14.568848 9.989527 5.579371
endloop
endfacet
facet normal 0 0 0
outer loop
vertex 14.466469 9.989527 5.579371
vertex 14.445992 10.010280 5.579371
vertex 14.466469 10.010280 5.559372
endloop
endfacet
facet normal 0 0 0
outer loop
vertex 14.486944 10.010280 5.559372
vertex 14.466469 9.989527 5.579371
vertex 14.466469 10.010280 5.559372
endloop
endfacet
facet normal 0 0 0
outer loop
vertex 14.486944 9.989527 5.579371
vertex 14.466469 9.989527 5.579371
vertex 14.486944 10.010280 5.559372
endloop
endfacet
facet normal 0 0 0
outer loop
vertex 14.507420 10.010280 5.559372
vertex 14.486944 9.989527 5.579371
vertex 14.486944 10.010280 5.559372
endloop
endfacet
facet normal 0 0 0
outer loop
vertex 14.507420 9.989527 5.579371
vertex 14.486944 9.989527 5.579371
vertex 14.507420 10.010280 5.559372
endloop
endfacet
facet normal 0 0 0
outer loop
vertex 14.527895 9.989527 5.559372
vertex 14.507420 9.989527 5.579371
vertex 14.507420 10.010280 5.559372
endloop
endfacet
facet normal 0 0 0
outer loop
vertex 14.568848 9.989527 5.559372
vertex 14.589323 10.010280 5.579371
vertex 14.568848 9.989527 5.579371
endloop
endfacet
facet normal 0 0 0
outer loop
vertex 14.589323 10.010280 5.559372
vertex 14.589323 10.010280 5.579371
vertex 14.568848 9.989527 5.559372
endloop
endfacet
facet normal 0 0 0
outer loop
vertex 14.445992 10.010280 5.579371
vertex 14.425516 10.031034 5.579371
vertex 14.445992 10.031034 5.579371
endloop
endfacet
facet normal 0 0 0
outer loop
vertex 14.466469 10.010280 5.559372
vertex 14.445992 10.010280 5.579371
vertex 14.466469 10.031034 5.579371
endloop
endfacet
facet normal 0 0 0
outer loop
vertex 14.445992 10.010280 5.579371
vertex 14.445992 10.031034 5.579371
vertex 14.466469 10.031034 5.579371
endloop
endfacet
facet normal 0 0 0
outer loop
vertex 14.466469 10.010280 5.559372
vertex 14.466469 10.031034 5.579371
vertex 14.486944 10.031034 5.559372
endloop
endfacet
facet normal 0 0 0
outer loop
vertex 14.589323 10.010280 5.559372
vertex 14.609798 10.031034 5.579371
vertex 14.589323 10.010280 5.579371
endloop
endfacet
facet normal 0 0 0
outer loop
vertex 14.609798 10.031034 5.559372
vertex 14.609798 10.031034 5.579371
vertex 14.589323 10.010280 5.559372
endloop
endfacet
facet normal 0 0 0
outer loop
vertex 14.486944 10.031034 5.559372
vertex 14.466469 10.031034 5.579371
vertex 14.486944 10.051786 5.579371
endloop
endfacet
facet normal 0 0 0
outer loop
vertex 14.486944 10.031034 5.559372
vertex 14.507420 10.051786 5.579371
vertex 14.507420 10.031034 5.559372
endloop
endfacet
facet normal 0 0 0
outer loop
vertex 14.486944 10.051786 5.579371
vertex 14.507420 10.051786 5.579371
vertex 14.486944 10.031034 5.559372
endloop
endfacet
facet normal 0 0 0
outer loop
vertex 14.507420 10.031034 5.559372
vertex 14.527895 10.051786 5.579371
vertex 14.527895 10.031034 5.559372
endloop
endfacet
facet normal 0 0 0
outer loop
vertex 14.507420 10.051786 5.579371
vertex 14.527895 10.051786 5.579371
vertex 14.507420 10.031034 5.559372
endloop
endfacet
facet normal 0 0 0
outer loop
vertex 14.527895 10.031034 5.559372
vertex 14.548372 10.051786 5.579371
vertex 14.548372 10.031034 5.559372
endloop
endfacet
facet normal 0 0 0
outer loop
vertex 14.527895 10.051786 5.579371
vertex 14.548372 10.051786 5.579371
vertex 14.527895 10.031034 5.559372
endloop
endfacet
facet normal 0 0 0
outer loop
vertex 14.548372 10.031034 5.559372
vertex 14.568848 10.051786 5.579371
vertex 14.568848 10.031034 5.559372
endloop
endfacet
facet normal 0 0 0
outer loop
vertex 14.548372 10.051786 5.579371
vertex 14.568848 10.051786 5.579371
vertex 14.548372 10.031034 5.559372
endloop
endfacet
facet normal 0 0 0
outer loop
vertex 14.568848 10.031034 5.559372
vertex 14.589323 10.051786 5.579371
vertex 14.589323 10.031034 5.559372
endloop
endfacet
facet normal 0 0 0
outer loop
vertex 14.568848 10.051786 5.579371
vertex 14.589323 10.051786 5.579371
vertex 14.568848 10.031034 5.559372
endloop
endfacet
facet normal 0 0 0
outer loop
vertex 14.589323 10.031034 5.559372
vertex 14.609798 10.051786 5.579371
vertex 14.609798 10.031034 5.559372
endloop
endfacet
facet normal 0 0 0
outer loop
vertex 14.589323 10.051786 5.579371
vertex 14.609798 10.051786 5.579371
vertex 14.589323 10.031034 5.559372
endloop
endfacet
facet normal 0 0 0
outer loop
vertex 14.609798 10.031034 5.559372
vertex 14.609798 10.051786 5.579371
vertex 14.609798 10.031034 5.579371
endloop
endfacet
facet normal 0 0 0
outer loop
vertex 14.486944 10.051786 5.579371
vertex 14.507420 10.072540 5.579371
vertex 14.507420 10.051786 5.579371
endloop
endfacet
facet normal 0 0 0
outer loop
vertex 14.527895 10.051786 5.579371
vertex 14.507420 10.051786 5.579371
vertex 14.527895 10.072540 5.579371
endloop
endfacet
facet normal 0 0 0
outer loop
vertex 14.527895 10.072540 5.579371
vertex 14.507420 10.051786 5.579371
vertex 14.507420 10.072540 5.579371
endloop
endfacet
facet normal 0 0 0
outer loop
vertex 14.527895 10.072540 5.579371
vertex 14.548372 10.051786 5.579371
vertex 14.527895 10.051786 5.579371
endloop
endfacet
facet normal 0 0 0
outer loop
vertex 14.548372 10.051786 5.579371
vertex 14.568848 10.072540 5.579371
vertex 14.568848 10.051786 5.579371
endloop
endfacet
facet normal 0 0 0
outer loop
vertex 14.568848 10.072540 5.579371
vertex 14.589323 10.051786 5.579371
vertex 14.568848 10.051786 5.579371
endloop
endfacet
facet normal 0 0 0
outer loop
vertex 14.486944 9.968774 5.579371
vertex 14.486944 9.948020 5.599372
vertex 14.486944 9.968774 5.599372
endloop
endfacet
facet normal 0 0 0
outer loop
vertex 14.486944 9.948020 5.599372
vertex 14.486944 9.968774 5.579371
vertex 14.507420 9.968774 5.599372
endloop
endfacet
facet normal 0 0 0
outer loop
vertex 14.486944 9.968774 5.579371
vertex 14.507420 9.968774 5.579371
vertex 14.507420 9.968774 5.599372
endloop
endfacet
facet normal 0 0 0
outer loop
vertex 14.527895 9.948020 5.599372
vertex 14.507420 9.968774 5.599372
vertex 14.527895 9.968774 5.579371
endloop
endfacet
facet normal 0 0 0
outer loop
vertex 14.507420 9.968774 5.599372
vertex 14.507420 9.968774 5.579371
vertex 14.527895 9.968774 5.579371
endloop
endfacet
facet normal 0 0 0
outer loop
vertex 14.527895 9.948020 5.599372
vertex 14.527895 9.968774 5.579371
vertex 14.548372 9.968774 5.599372
endloop
endfacet
facet normal 0 0 0
outer loop
vertex 14.527895 9.968774 5.579371
vertex 14.548372 9.968774 5.579371
vertex 14.548372 9.968774 5.599372
endloop
endfacet
facet normal 0 0 0
outer loop
vertex 14.486944 9.968774 5.599372
vertex 14.466469 9.989527 5.579371
vertex 14.486944 9.968774 5.579371
endloop
endfacet
facet normal 0 0 0
outer loop
vertex 14.466469 9.989527 5.599372
vertex 14.466469 9.989527 5.579371
vertex 14.486944 9.968774 5.599372
endloop
endfacet
facet normal 0 0 0
outer loop
vertex 14.548372 9.968774 5.579371
vertex 14.568848 9.989527 5.599372
vertex 14.548372 9.968774 5.599372
endloop
endfacet
facet normal 0 0 0
outer loop
vertex 14.568848 9.989527 5.579371
vertex 14.568848 9.989527 5.599372
vertex 14.548372 9.968774 5.579371
endloop
endfacet
facet normal 0 0 0
outer loop
vertex 14.466469 9.989527 5.599372
vertex 14.445992 10.010280 5.579371
vertex 14.466469 9.989527 5.579371
endloop
endfacet
facet normal 0 0 0
outer loop
vertex 14.445992 10.010280 5.599372
vertex 14.445992 10.010280 5.579371
vertex 14.466469 9.989527 5.599372
endloop
endfacet
facet normal 0 0 0
outer loop
vertex 14.568848 9.989527 5.579371
vertex 14.589323 10.010280 5.599372
vertex 14.568848 9.989527 5.599372
endloop
endfacet
facet normal 0 0 0
outer loop
vertex 14.589323 10.010280 5.579371
vertex 14.589323 10.010280 5.599372
vertex 14.568848 9.989527 5.579371
endloop
endfacet
facet normal 0 0 0
outer loop
vertex 14.425516 10.031034 5.579371
vertex 14.445992 10.010280 5.579371
vertex 14.445992 10.031034 5.599372
endloop
endfacet
facet normal 0 0 0
outer loop
vertex 14.445992 10.010280 5.579371
vertex 14.445992 10.010280 5.599372
vertex 14.445992 10.031034 5.599372
endloop
endfacet
facet normal 0 0 0
outer loop
vertex 14.609798 10.031034 5.579371
vertex 14.589323 10.031034 5.599372
vertex 14.589323 10.010280 5.579371
endloop
endfacet
facet normal 0 0 0
outer loop
vertex 14.589323 10.031034 5.599372
vertex 14.589323 10.010280 5.599372
vertex 14.589323 10.010280 5.579371
endloop
endfacet
facet normal 0 0 0
outer loop
vertex 14.425516 10.031034 5.579371
vertex 14.445992 10.051786 5.599372
vertex 14.445992 10.031034 5.579371
endloop
endfacet
facet normal 0 0 0
outer loop
vertex 14.425516 10.031034 5.579371
vertex 14.445992 10.031034 5.599372
vertex 14.445992 10.051786 5.599372
endloop
endfacet
facet normal 0 0 0
outer loop
vertex 14.445992 10.031034 5.579371
vertex 14.466469 10.051786 5.599372
vertex 14.466469 10.031034 5.579371
endloop
endfacet
facet normal 0 0 0
outer loop
vertex 14.445992 10.051786 5.599372
vertex 14.466469 10.051786 5.599372
vertex 14.445992 10.031034 5.579371
endloop
endfacet
facet normal 0 0 0
outer loop
vertex 14.466469 10.031034 5.579371
vertex 14.466469 10.051786 5.599372
vertex 14.486944 10.051786 5.579371
endloop
endfacet
facet normal 0 0 0
outer loop
vertex 14.609798 10.051786 5.579371
vertex 14.589323 10.031034 5.599372
vertex 14.609798 10.031034 5.579371
endloop
endfacet
facet normal 0 0 0
outer loop
vertex 14.589323 10.051786 5.599372
vertex 14.589323 10.031034 5.599372
vertex 14.609798 10.051786 5.579371
endloop
endfacet
facet normal 0 0 0
outer loop
vertex 14.445992 10.051786 5.599372
vertex 14.466469 10.072540 5.599372
vertex 14.466469 10.051786 5.599372
endloop
endfacet
facet normal 0 0 0
outer loop
vertex 14.486944 10.051786 5.579371
vertex 14.466469 10.051786 5.599372
vertex 14.486944 10.072540 5.599372
endloop
endfacet
facet normal 0 0 0
outer loop
vertex 14.466469 10.051786 5.599372
vertex 14.466469 10.072540 5.599372
vertex 14.486944 10.072540 5.599372
endloop
endfacet
facet normal 0 0 0
outer loop
vertex 14.486944 10.051786 5.579371
vertex 14.486944 10.072540 5.599372
vertex 14.507420 10.072540 5.579371
endloop
endfacet
facet normal 0 0 0
outer loop
vertex 14.548372 10.051786 5.579371
vertex 14.527895 10.072540 5.579371
vertex 14.548372 10.072540 5.599372
endloop
endfacet
facet normal 0 0 0
outer loop
vertex 14.548372 10.051786 5.579371
vertex 14.548372 10.072540 5.599372
vertex 14.568848 10.072540 5.579371
endloop
endfacet
facet normal 0 0 0
outer loop
vertex 14.589323 10.051786 5.579371
vertex 14.568848 10.072540 5.579371
vertex 14.589323 10.072540 5.599372
endloop
endfacet
facet normal 0 0 0
outer loop
vertex 14.609798 10.051786 5.579371
vertex 14.589323 10.072540 5.599372
vertex 14.589323 10.051786 5.599372
endloop
endfacet
facet normal 0 0 0
outer loop
vertex 14.609798 10.051786 5.579371
vertex 14.589323 10.051786 5.579371
vertex 14.589323 10.072540 5.599372
endloop
endfacet
facet normal 0 0 0
outer loop
vertex 14.507420 10.072540 5.579371
vertex 14.486944 10.072540 5.599372
vertex 14.507420 10.072540 5.599372
endloop
endfacet
facet normal 0 0 0
outer loop
vertex 14.527895 10.072540 5.579371
vertex 14.507420 10.072540 5.579371
vertex 14.527895 10.072540 5.599372
endloop
endfacet
facet normal 0 0 0
outer loop
vertex 14.507420 10.072540 5.579371
vertex 14.507420 10.072540 5.599372
vertex 14.527895 10.072540 5.599372
endloop
endfacet
facet normal 0 0 0
outer loop
vertex 14.548372 10.072540 5.599372
vertex 14.527895 10.072540 5.579371
vertex 14.527895 10.072540 5.599372
endloop
endfacet
facet normal 0 0 0
outer loop
vertex 14.568848 10.072540 5.579371
vertex 14.548372 10.072540 5.599372
vertex 14.568848 10.072540 5.599372
endloop
endfacet
facet normal 0 0 0
outer loop
vertex 14.589323 10.072540 5.599372
vertex 14.568848 10.072540 5.579371
vertex 14.568848 10.072540 5.599372
endloop
endfacet
facet normal 0 0 0
outer loop
vertex 14.507420 9.948020 5.619372
vertex 14.527895 9.948020 5.599372
vertex 14.527895 9.948020 5.619372
endloop
endfacet
facet normal 0 0 0
outer loop
vertex 14.527895 9.948020 5.599372
vertex 14.548372 9.948020 5.619372
vertex 14.527895 9.948020 5.619372
endloop
endfacet
facet normal 0 0 0
outer loop
vertex 14.486944 9.948020 5.599372
vertex 14.486944 9.968774 5.619372
vertex 14.466469 9.968774 5.619372
endloop
endfacet
facet normal 0 0 0
outer loop
vertex 14.486944 9.948020 5.599372
vertex 14.466469 9.968774 5.619372
vertex 14.486944 9.968774 5.599372
endloop
endfacet
facet normal 0 0 0
outer loop
vertex 14.507420 9.948020 5.619372
vertex 14.486944 9.968774 5.619372
vertex 14.507420 9.968774 5.599372
endloop
endfacet
facet normal 0 0 0
outer loop
vertex 14.486944 9.948020 5.599372
vertex 14.507420 9.968774 5.599372
vertex 14.486944 9.968774 5.619372
endloop
endfacet
facet normal 0 0 0
outer loop
vertex 14.527895 9.948020 5.599372
vertex 14.507420 9.948020 5.619372
vertex 14.507420 9.968774 5.599372
endloop
endfacet
facet normal 0 0 0
outer loop
vertex 14.527895 9.948020 5.599372
vertex 14.548372 9.968774 5.599372
vertex 14.548372 9.948020 5.619372
endloop
endfacet
facet normal 0 0 0
outer loop
vertex 14.548372 9.968774 5.599372
vertex 14.568848 9.968774 5.619372
vertex 14.548372 9.948020 5.619372
endloop
endfacet
facet normal 0 0 0
outer loop
vertex 14.466469 9.968774 5.619372
vertex 14.445992 9.989527 5.619372
vertex 14.466469 9.989527 5.599372
endloop
endfacet
facet normal 0 0 0
outer loop
vertex 14.486944 9.968774 5.599372
vertex 14.466469 9.968774 5.619372
vertex 14.466469 9.989527 5.599372
endloop
endfacet
facet normal 0 0 0
outer loop
vertex 14.548372 9.968774 5.599372
vertex 14.568848 9.989527 5.599372
vertex 14.568848 9.968774 5.619372
endloop
endfacet
facet normal 0 0 0
outer loop
vertex 14.568848 9.989527 5.599372
vertex 14.589323 9.989527 5.619372
vertex 14.568848 9.968774 5.619372
endloop
endfacet
facet normal 0 0 0
outer loop
vertex 14.589323 9.989527 5.619372
vertex 14.589323 9.968774 5.619372
vertex 14.568848 9.968774 5.619372
endloop
endfacet
facet normal 0 0 0
outer loop
vertex 14.609798 9.989527 5.619372
vertex 14.589323 9.968774 5.619372
vertex 14.589323 9.989527 5.619372
endloop
endfacet
facet normal 0 0 0
outer loop
vertex 14.445992 9.989527 5.619372
vertex 14.425516 10.010280 5.619372
vertex 14.445992 10.010280 5.599372
endloop
endfacet
facet normal 0 0 0
outer loop
vertex 14.466469 9.989527 5.599372
vertex 14.445992 9.989527 5.619372
vertex 14.445992 10.010280 5.599372
endloop
endfacet
facet normal 0 0 0
outer loop
vertex 14.568848 9.989527 5.599372
vertex 14.589323 10.010280 5.599372
vertex 14.589323 9.989527 5.619372
endloop
endfacet
facet normal 0 0 0
outer loop
vertex 14.589323 10.010280 5.599372
vertex 14.609798 10.010280 5.619372
vertex 14.589323 9.989527 5.619372
endloop
endfacet
facet normal 0 0 0
outer loop
vertex 14.609798 10.010280 5.619372
vertex 14.609798 9.989527 5.619372
vertex 14.589323 9.989527 5.619372
endloop
endfacet
facet normal 0 0 0
outer loop
vertex 14.445992 10.010280 5.599372
vertex 14.425516 10.031034 5.619372
vertex 14.445992 10.031034 5.599372
endloop
endfacet
facet normal 0 0 0
outer loop
vertex 14.425516 10.010280 5.619372
vertex 14.425516 10.031034 5.619372
vertex 14.445992 10.010280 5.599372
endloop
endfacet
facet normal 0 0 0
outer loop
vertex 14.609798 10.010280 5.619372
vertex 14.589323 10.031034 5.599372
vertex 14.609798 10.031034 5.619372
endloop
endfacet
facet normal 0 0 0
outer loop
vertex 14.589323 10.010280 5.599372
vertex 14.589323 10.031034 5.599372
vertex 14.609798 10.010280 5.619372
endloop
endfacet
facet normal 0 0 0
outer loop
vertex 14.445992 10.031034 5.599372
vertex 14.425516 10.051786 5.619372
vertex 14.445992 10.051786 5.599372
endloop
endfacet
facet normal 0 0 0
outer loop
vertex 14.425516 10.031034 5.619372
vertex 14.425516 10.051786 5.619372
vertex 14.445992 10.031034 5.599372
endloop
endfacet
facet normal 0 0 0
outer loop
vertex 14.609798 10.031034 5.619372
vertex 14.589323 10.031034 5.599372
vertex 14.589323 10.051786 5.619372
endloop
endfacet
facet normal 0 0 0
outer loop
vertex 14.589323 10.031034 5.599372
vertex 14.589323 10.051786 5.599372
vertex 14.589323 10.051786 5.619372
endloop
endfacet
facet normal 0 0 0
outer loop
vertex 14.445992 10.051786 5.599372
vertex 14.425516 10.051786 5.619372
vertex 14.445992 10.072540 5.619372
endloop
endfacet
facet normal 0 0 0
outer loop
vertex 14.445992 10.051786 5.599372
vertex 14.445992 10.072540 5.619372
vertex 14.466469 10.072540 5.599372
endloop
endfacet
facet normal 0 0 0
outer loop
vertex 14.589323 10.072540 5.599372
vertex 14.568848 10.072540 5.619372
vertex 14.589323 10.051786 5.619372
endloop
endfacet
facet normal 0 0 0
outer loop
vertex 14.589323 10.072540 5.599372
vertex 14.589323 10.051786 5.619372
vertex 14.589323 10.051786 5.599372
endloop
endfacet
facet normal 0 0 0
outer loop
vertex 14.466469 10.072540 5.599372
vertex 14.445992 10.072540 5.619372
vertex 14.466469 10.072540 5.619372
endloop
endfacet
facet normal 0 0 0
outer loop
vertex 14.486944 10.093293 5.619372
vertex 14.486944 10.072540 5.599372
vertex 14.466469 10.072540 5.619372
endloop
endfacet
facet normal 0 0 0
outer loop
vertex 14.486944 10.072540 5.599372
vertex 14.466469 10.072540 5.599372
vertex 14.466469 10.072540 5.619372
endloop
endfacet
facet normal 0 0 0
outer loop
vertex 14.486944 10.072540 5.599372
vertex 14.507420 10.093293 5.619372
vertex 14.507420 10.072540 5.599372
endloop
endfacet
facet normal 0 0 0
outer loop
vertex 14.486944 10.093293 5.619372
vertex 14.507420 10.093293 5.619372
vertex 14.486944 10.072540 5.599372
endloop
endfacet
facet normal 0 0 0
outer loop
vertex 14.507420 10.072540 5.599372
vertex 14.527895 10.093293 5.619372
vertex 14.527895 10.072540 5.599372
endloop
endfacet
facet normal 0 0 0
outer loop
vertex 14.507420 10.093293 5.619372
vertex 14.527895 10.093293 5.619372
vertex 14.507420 10.072540 5.599372
endloop
endfacet
facet normal 0 0 0
outer loop
vertex 14.527895 10.072540 5.599372
vertex 14.548372 10.093293 5.619372
vertex 14.548372 10.072540 5.599372
endloop
endfacet
facet normal 0 0 0
outer loop
vertex 14.527895 10.093293 5.619372
vertex 14.548372 10.093293 5.619372
vertex 14.527895 10.072540 5.599372
endloop
endfacet
facet normal 0 0 0
outer loop
vertex 14.548372 10.072540 5.599372
vertex 14.568848 10.093293 5.619372
vertex 14.568848 10.072540 5.599372
endloop
endfacet
facet normal 0 0 0
outer loop
vertex 14.548372 10.093293 5.619372
vertex 14.568848 10.093293 5.619372
vertex 14.548372 10.072540 5.599372
endloop
endfacet
facet normal 0 0 0
outer loop
vertex 14.589323 10.072540 5.599372
vertex 14.568848 10.093293 5.619372
vertex 14.568848 10.072540 5.619372
endloop
endfacet
facet normal 0 0 0
outer loop
vertex 14.589323 10.072540 5.599372
vertex 14.568848 10.072540 5.599372
vertex 14.568848 10.093293 5.619372
endloop
endfacet
facet normal 0 0 0
outer loop
vertex 14.486944 9.948020 5.639372
vertex 14.507420 9.948020 5.619372
vertex 14.507420 9.948020 5.639372
endloop
endfacet
facet normal 0 0 0
outer loop
vertex 14.527895 9.948020 5.619372
vertex 14.527895 9.948020 5.639372
vertex 14.507420 9.948020 5.619372
endloop
endfacet
facet normal 0 0 0
outer loop
vertex 14.507420 9.948020 5.619372
vertex 14.527895 9.948020 5.639372
vertex 14.507420 9.948020 5.639372
endloop
endfacet
facet normal 0 0 0
outer loop
vertex 14.548372 9.948020 5.619372
vertex 14.548372 9.948020 5.639372
vertex 14.527895 9.948020 5.619372
endloop
endfacet
facet normal 0 0 0
outer loop
vertex 14.527895 9.948020 5.619372
vertex 14.548372 9.948020 5.639372
vertex 14.527895 9.948020 5.639372
endloop
endfacet
facet normal 0 0 0
outer loop
vertex 14.466469 9.948020 5.639372
vertex 14.445992 9.968774 5.639372
vertex 14.466469 9.968774 5.619372
endloop
endfacet
facet normal 0 0 0
outer loop
vertex 14.486944 9.968774 5.619372
vertex 14.466469 9.948020 5.639372
vertex 14.466469 9.968774 5.619372
endloop
endfacet
facet normal 0 0 0
outer loop
vertex 14.486944 9.948020 5.639372
vertex 14.466469 9.948020 5.639372
vertex 14.486944 9.968774 5.619372
endloop
endfacet
facet normal 0 0 0
outer loop
vertex 14.507420 9.948020 5.619372
vertex 14.486944 9.948020 5.639372
vertex 14.486944 9.968774 5.619372
endloop
endfacet
facet normal 0 0 0
outer loop
vertex 14.548372 9.948020 5.619372
vertex 14.568848 9.968774 5.639372
vertex 14.548372 9.948020 5.639372
endloop
endfacet
facet normal 0 0 0
outer loop
vertex 14.568848 9.968774 5.619372
vertex 14.568848 9.968774 5.639372
vertex 14.548372 9.948020 5.619372
endloop
endfacet
facet normal 0 0 0
outer loop
vertex 14.589323 9.968774 5.619372
vertex 14.568848 9.968774 5.639372
vertex 14.568848 9.968774 5.619372
endloop
endfacet
facet normal 0 0 0
outer loop
vertex 14.445992 9.989527 5.619372
vertex 14.445992 9.968774 5.639372
vertex 14.445992 9.989527 5.639372
endloop
endfacet
facet normal 0 0 0
outer loop
vertex 14.466469 9.968774 5.619372
vertex 14.445992 9.968774 5.639372
vertex 14.445992 9.989527 5.619372
endloop
endfacet
facet normal 0 0 0
outer loop
vertex 14.589323 9.968774 5.619372
vertex 14.589323 9.989527 5.639372
vertex 14.568848 9.968774 5.639372
endloop
endfacet
facet normal 0 0 0
outer loop
vertex 14.609798 9.989527 5.619372
vertex 14.589323 9.989527 5.639372
vertex 14.589323 9.968774 5.619372
endloop
endfacet
facet normal 0 0 0
outer loop
vertex 14.445992 9.989527 5.639372
vertex 14.425516 10.010280 5.619372
vertex 14.445992 9.989527 5.619372
endloop
endfacet
facet normal 0 0 0
outer loop
vertex 14.425516 10.010280 5.639372
vertex 14.425516 10.010280 5.619372
vertex 14.445992 9.989527 5.639372
endloop
endfacet
facet normal 0 0 0
outer loop
vertex 14.609798 9.989527 5.619372
vertex 14.609798 10.010280 5.639372
vertex 14.589323 9.989527 5.639372
endloop
endfacet
facet normal 0 0 0
outer loop
vertex 14.609798 10.010280 5.639372
vertex 14.609798 9.989527 5.619372
vertex 14.609798 10.010280 5.619372
endloop
endfacet
facet normal 0 0 0
outer loop
vertex 14.425516 10.010280 5.619372
vertex 14.425516 10.010280 5.639372
vertex 14.425516 10.031034 5.619372
endloop
endfacet
facet normal 0 0 0
outer loop
vertex 14.425516 10.010280 5.639372
vertex 14.425516 10.031034 5.639372
vertex 14.425516 10.031034 5.619372
endloop
endfacet
facet normal 0 0 0
outer loop
vertex 14.609798 10.031034 5.619372
vertex 14.589323 10.031034 5.639372
vertex 14.609798 10.010280 5.639372
endloop
endfacet
facet normal 0 0 0
outer loop
vertex 14.609798 10.031034 5.619372
vertex 14.609798 10.010280 5.639372
vertex 14.609798 10.010280 5.619372
endloop
endfacet
facet normal 0 0 0
outer loop
vertex 14.425516 10.031034 5.639372
vertex 14.425516 10.051786 5.619372
vertex 14.425516 10.031034 5.619372
endloop
endfacet
facet normal 0 0 0
outer loop
vertex 14.425516 10.031034 5.639372
vertex 14.445992 10.051786 5.639372
vertex 14.425516 10.051786 5.619372
endloop
endfacet
facet normal 0 0 0
outer loop
vertex 14.609798 10.031034 5.619372
vertex 14.589323 10.051786 5.619372
vertex 14.589323 10.031034 5.639372
endloop
endfacet
facet normal 0 0 0
outer loop
vertex 14.589323 10.051786 5.619372
vertex 14.589323 10.051786 5.639372
vertex 14.589323 10.031034 5.639372
endloop
endfacet
facet normal 0 0 0
outer loop
vertex 14.425516 10.051786 5.619372
vertex 14.445992 10.051786 5.639372
vertex 14.445992 10.072540 5.619372
endloop
endfacet
facet normal 0 0 0
outer loop
vertex 14.445992 10.051786 5.639372
vertex 14.445992 10.072540 5.639372
vertex 14.445992 10.072540 5.619372
endloop
endfacet
facet normal 0 0 0
outer loop
vertex 14.589323 10.051786 5.619372
vertex 14.568848 10.072540 5.619372
vertex 14.589323 10.072540 5.639372
endloop
endfacet
facet normal 0 0 0
outer loop
vertex 14.609798 10.072540 5.639372
vertex 14.589323 10.051786 5.639372
vertex 14.589323 10.051786 5.619372
endloop
endfacet
facet normal 0 0 0
outer loop
vertex 14.609798 10.072540 5.639372
vertex 14.589323 10.051786 5.619372
vertex 14.589323 10.072540 5.639372
endloop
endfacet
facet normal 0 0 0
outer loop
vertex 14.466469 10.093293 5.639372
vertex 14.466469 10.072540 5.619372
vertex 14.445992 10.072540 5.639372
endloop
endfacet
facet normal 0 0 0
outer loop
vertex 14.466469 10.072540 5.619372
vertex 14.445992 10.072540 5.619372
vertex 14.445992 10.072540 5.639372
endloop
endfacet
facet normal 0 0 0
outer loop
vertex 14.466469 10.072540 5.619372
vertex 14.466469 10.093293 5.639372
vertex 14.486944 10.093293 5.619372
endloop
endfacet
facet normal 0 0 0
outer loop
vertex 14.568848 10.093293 5.619372
vertex 14.548372 10.093293 5.639372
vertex 14.568848 10.072540 5.639372
endloop
endfacet
facet normal 0 0 0
outer loop
vertex 14.589323 10.072540 5.639372
vertex 14.568848 10.093293 5.619372
vertex 14.568848 10.072540 5.639372
endloop
endfacet
facet normal 0 0 0
outer loop
vertex 14.589323 10.072540 5.639372
vertex 14.568848 10.072540 5.619372
vertex 14.568848 10.093293 5.619372
endloop
endfacet
facet normal 0 0 0
outer loop
vertex 14.486944 10.093293 5.619372
vertex 14.466469 10.093293 5.639372
vertex 14.486944 10.093293 5.639372
endloop
endfacet
facet normal 0 0 0
outer loop
vertex 14.507420 10.093293 5.619372
vertex 14.486944 10.093293 5.619372
vertex 14.507420 10.093293 5.639372
endloop
endfacet
facet normal 0 0 0
outer loop
vertex 14.486944 10.093293 5.619372
vertex 14.486944 10.093293 5.639372
vertex 14.507420 10.093293 5.639372
endloop
endfacet
facet normal 0 0 0
outer loop
vertex 14.527895 10.093293 5.619372
vertex 14.507420 10.093293 5.619372
vertex 14.527895 10.093293 5.639372
endloop
endfacet
facet normal 0 0 0
outer loop
vertex 14.507420 10.093293 5.619372
vertex 14.507420 10.093293 5.639372
vertex 14.527895 10.093293 5.639372
endloop
endfacet
facet normal 0 0 0
outer loop
vertex 14.548372 10.093293 5.619372
vertex 14.527895 10.093293 5.619372
vertex 14.548372 10.093293 5.639372
endloop
endfacet
facet normal 0 0 0
outer loop
vertex 14.527895 10.093293 5.619372
vertex 14.527895 10.093293 5.639372
vertex 14.548372 10.093293 5.639372
endloop
endfacet
facet normal 0 0 0
outer loop
vertex 14.548372 10.093293 5.639372
vertex 14.568848 10.093293 5.619372
vertex 14.548372 10.093293 5.619372
endloop
endfacet
facet normal 0 0 0
outer loop
vertex 14.486944 9.948020 5.639372
vertex 14.486944 9.948020 5.659372
vertex 14.466469 9.948020 5.639372
endloop
endfacet
facet normal 0 0 0
outer loop
vertex 14.466469 9.948020 5.639372
vertex 14.486944 9.948020 5.659372
vertex 14.466469 9.948020 5.659372
endloop
endfacet
facet normal 0 0 0
outer loop
vertex 14.507420 9.948020 5.639372
vertex 14.507420 9.948020 5.659372
vertex 14.486944 9.948020 5.639372
endloop
endfacet
facet normal 0 0 0
outer loop
vertex 14.486944 9.948020 5.639372
vertex 14.507420 9.948020 5.659372
vertex 14.486944 9.948020 5.659372
endloop
endfacet
facet normal 0 0 0
outer loop
vertex 14.527895 9.948020 5.639372
vertex 14.507420 9.948020 5.659372
vertex 14.507420 9.948020 5.639372
endloop
endfacet
facet normal 0 0 0
outer loop
vertex 14.466469 9.948020 5.659372
vertex 14.445992 9.968774 5.639372
vertex 14.466469 9.948020 5.639372
endloop
endfacet
facet normal 0 0 0
outer loop
vertex 14.445992 9.968774 5.659372
vertex 14.445992 9.968774 5.639372
vertex 14.466469 9.948020 5.659372
endloop
endfacet
facet normal 0 0 0
outer loop
vertex 14.527895 9.948020 5.639372
vertex 14.527895 9.968774 5.659372
vertex 14.507420 9.948020 5.659372
endloop
endfacet
facet normal 0 0 0
outer loop
vertex 14.548372 9.948020 5.639372
vertex 14.527895 9.968774 5.659372
vertex 14.527895 9.948020 5.639372
endloop
endfacet
facet normal 0 0 0
outer loop
vertex 14.548372 9.968774 5.659372
vertex 14.527895 9.968774 5.659372
vertex 14.548372 9.948020 5.639372
endloop
endfacet
facet normal 0 0 0
outer loop
vertex 14.548372 9.948020 5.639372
vertex 14.568848 9.968774 5.639372
vertex 14.548372 9.968774 5.659372
endloop
endfacet
facet normal 0 0 0
outer loop
vertex 14.568848 9.968774 5.639372
vertex 14.568848 9.968774 5.659372
vertex 14.548372 9.968774 5.659372
endloop
endfacet
facet normal 0 0 0
outer loop
vertex 14.425516 9.989527 5.659372
vertex 14.445992 9.989527 5.639372
vertex 14.445992 9.968774 5.659372
endloop
endfacet
facet normal 0 0 0
outer loop
vertex 14.445992 9.989527 5.639372
vertex 14.445992 9.968774 5.639372
vertex 14.445992 9.968774 5.659372
endloop
endfacet
facet normal 0 0 0
outer loop
vertex 14.589323 9.989527 5.639372
vertex 14.568848 9.989527 5.659372
vertex 14.568848 9.968774 5.639372
endloop
endfacet
facet normal 0 0 0
outer loop
vertex 14.568848 9.989527 5.659372
vertex 14.568848 9.968774 5.659372
vertex 14.568848 9.968774 5.639372
endloop
endfacet
facet normal 0 0 0
outer loop
vertex 14.425516 9.989527 5.659372
vertex 14.405041 10.010280 5.659372
vertex 14.425516 10.010280 5.639372
endloop
endfacet
facet normal 0 0 0
outer loop
vertex 14.445992 9.989527 5.639372
vertex 14.425516 9.989527 5.659372
vertex 14.425516 10.010280 5.639372
endloop
endfacet
facet normal 0 0 0
outer loop
vertex 14.589323 9.989527 5.639372
vertex 14.589323 10.010280 5.659372
vertex 14.568848 9.989527 5.659372
endloop
endfacet
facet normal 0 0 0
outer loop
vertex 14.609798 10.010280 5.639372
vertex 14.589323 10.010280 5.659372
vertex 14.589323 9.989527 5.639372
endloop
endfacet
facet normal 0 0 0
outer loop
vertex 14.425516 10.010280 5.639372
vertex 14.405041 10.031034 5.659372
vertex 14.425516 10.031034 5.639372
endloop
endfacet
facet normal 0 0 0
outer loop
vertex 14.405041 10.010280 5.659372
vertex 14.405041 10.031034 5.659372
vertex 14.425516 10.010280 5.639372
endloop
endfacet
facet normal 0 0 0
outer loop
vertex 14.609798 10.010280 5.639372
vertex 14.589323 10.031034 5.639372
vertex 14.589323 10.010280 5.659372
endloop
endfacet
facet normal 0 0 0
outer loop
vertex 14.589323 10.031034 5.639372
vertex 14.589323 10.031034 5.659372
vertex 14.589323 10.010280 5.659372
endloop
endfacet
facet normal 0 0 0
outer loop
vertex 14.425516 10.031034 5.639372
vertex 14.405041 10.031034 5.659372
vertex 14.425516 10.051786 5.659372
endloop
endfacet
facet normal 0 0 0
outer loop
vertex 14.425516 10.031034 5.639372
vertex 14.425516 10.051786 5.659372
vertex 14.445992 10.051786 5.639372
endloop
endfacet
facet normal 0 0 0
outer loop
vertex 14.589323 10.031034 5.639372
vertex 14.589323 10.051786 5.639372
vertex 14.589323 10.031034 5.659372
endloop
endfacet
facet normal 0 0 0
outer loop
vertex 14.589323 10.031034 5.659372
vertex 14.589323 10.051786 5.639372
vertex 14.589323 10.051786 5.659372
endloop
endfacet
facet normal 0 0 0
outer loop
vertex 14.425516 10.051786 5.659372
vertex 14.445992 10.072540 5.639372
vertex 14.445992 10.051786 5.639372
endloop
endfacet
facet normal 0 0 0
outer loop
vertex 14.425516 10.051786 5.659372
vertex 14.445992 10.051786 5.659372
vertex 14.445992 10.072540 5.639372
endloop
endfacet
facet normal 0 0 0
outer loop
vertex 14.445992 10.051786 5.659372
vertex 14.466469 10.072540 5.659372
vertex 14.445992 10.072540 5.639372
endloop
endfacet
facet normal 0 0 0
outer loop
vertex 14.589323 10.072540 5.639372
vertex 14.568848 10.072540 5.659372
vertex 14.589323 10.051786 5.659372
endloop
endfacet
facet normal 0 0 0
outer loop
vertex 14.609798 10.072540 5.639372
vertex 14.589323 10.072540 5.639372
vertex 14.589323 10.051786 5.659372
endloop
endfacet
facet normal 0 0 0
outer loop
vertex 14.609798 10.072540 5.639372
vertex 14.589323 10.051786 5.659372
vertex 14.589323 10.051786 5.639372
endloop
endfacet
facet normal 0 0 0
outer loop
vertex 14.445992 10.072540 5.639372
vertex 14.466469 10.072540 5.659372
vertex 14.466469 10.093293 5.639372
endloop
endfacet
facet normal 0 0 0
outer loop
vertex 14.466469 10.072540 5.659372
vertex 14.466469 10.093293 5.659372
vertex 14.466469 10.093293 5.639372
endloop
endfacet
facet normal 0 0 0
outer loop
vertex 14.568848 10.072540 5.639372
vertex 14.548372 10.093293 5.659372
vertex 14.568848 10.072540 5.659372
endloop
endfacet
facet normal 0 0 0
outer loop
vertex 14.548372 10.093293 5.639372
vertex 14.548372 10.093293 5.659372
vertex 14.568848 10.072540 5.639372
endloop
endfacet
facet normal 0 0 0
outer loop
vertex 14.568848 10.072540 5.659372
vertex 14.589323 10.072540 5.639372
vertex 14.568848 10.072540 5.639372
endloop
endfacet
facet normal 0 0 0
outer loop
vertex 14.486944 10.093293 5.639372
vertex 14.466469 10.093293 5.639372
vertex 14.486944 10.093293 5.659372
endloop
endfacet
facet normal 0 0 0
outer loop
vertex 14.466469 10.093293 5.639372
vertex 14.466469 10.093293 5.659372
vertex 14.486944 10.093293 5.659372
endloop
endfacet
facet normal 0 0 0
outer loop
vertex 14.507420 10.114047 5.659372
vertex 14.507420 10.093293 5.639372
vertex 14.486944 10.093293 5.659372
endloop
endfacet
facet normal 0 0 0
outer loop
vertex 14.507420 10.093293 5.639372
vertex 14.486944 10.093293 5.639372
vertex 14.486944 10.093293 5.659372
endloop
endfacet
facet normal 0 0 0
outer loop
vertex 14.507420 10.114047 5.659372
vertex 14.527895 10.093293 5.659372
vertex 14.507420 10.093293 5.639372
endloop
endfacet
facet normal 0 0 0
outer loop
vertex 14.527895 10.093293 5.659372
vertex 14.527895 10.093293 5.639372
vertex 14.507420 10.093293 5.639372
endloop
endfacet
facet normal 0 0 0
outer loop
vertex 14.548372 10.093293 5.639372
vertex 14.527895 10.093293 5.639372
vertex 14.548372 10.093293 5.659372
endloop
endfacet
facet normal 0 0 0
outer loop
vertex 14.527895 10.093293 5.639372
vertex 14.527895 10.093293 5.659372
vertex 14.548372 10.093293 5.659372
endloop
endfacet
facet normal 0 0 0
outer loop
vertex 14.445992 9.968774 5.659372
vertex 14.466469 9.948020 5.659372
vertex 14.466469 9.968774 5.659372
endloop
endfacet
facet normal 0 0 0
outer loop
vertex 14.486944 9.948020 5.659372
vertex 14.486944 9.968774 5.659372
vertex 14.466469 9.948020 5.659372
endloop
endfacet
facet normal 0 0 0
outer loop
vertex 14.486944 9.968774 5.659372
vertex 14.466469 9.968774 5.659372
vertex 14.466469 9.948020 5.659372
endloop
endfacet
facet normal 0 0 0
outer loop
vertex 14.507420 9.948020 5.659372
vertex 14.507420 9.968774 5.659372
vertex 14.486944 9.948020 5.659372
endloop
endfacet
facet normal 0 0 0
outer loop
vertex 14.507420 9.968774 5.659372
vertex 14.486944 9.968774 5.659372
vertex 14.486944 9.948020 5.659372
endloop
endfacet
facet normal 0 0 0
outer loop
vertex 14.507420 9.948020 5.659372
vertex 14.527895 9.968774 5.659372
vertex 14.507420 9.968774 5.659372
endloop
endfacet
facet normal 0 0 0
outer loop
vertex 14.445992 9.968774 5.659372
vertex 14.445992 9.989527 5.679372
vertex 14.425516 9.989527 5.659372
endloop
endfacet
facet normal 0 0 0
outer loop
vertex 14.445992 9.989527 5.679372
vertex 14.425516 9.989527 5.679372
vertex 14.425516 9.989527 5.659372
endloop
endfacet
facet normal 0 0 0
outer loop
vertex 14.466469 9.968774 5.659372
vertex 14.445992 9.989527 5.679372
vertex 14.445992 9.968774 5.659372
endloop
endfacet
facet normal 0 0 0
outer loop
vertex 14.466469 9.989527 5.679372
vertex 14.445992 9.989527 5.679372
vertex 14.466469 9.968774 5.659372
endloop
endfacet
facet normal 0 0 0
outer loop
vertex 14.486944 9.968774 5.659372
vertex 14.466469 9.989527 5.679372
vertex 14.466469 9.968774 5.659372
endloop
endfacet
facet normal 0 0 0
outer loop
vertex 14.486944 9.989527 5.679372
vertex 14.466469 9.989527 5.679372
vertex 14.486944 9.968774 5.659372
endloop
endfacet
facet normal 0 0 0
outer loop
vertex 14.507420 9.968774 5.659372
vertex 14.486944 9.989527 5.679372
vertex 14.486944 9.968774 5.659372
endloop
endfacet
facet normal 0 0 0
outer loop
vertex 14.507420 9.989527 5.679372
vertex 14.486944 9.989527 5.679372
vertex 14.507420 9.968774 5.659372
endloop
endfacet
facet normal 0 0 0
outer loop
vertex 14.527895 9.968774 5.659372
vertex 14.507420 9.989527 5.679372
vertex 14.507420 9.968774 5.659372
endloop
endfacet
facet normal 0 0 0
outer loop
vertex 14.527895 9.989527 5.679372
vertex 14.507420 9.989527 5.679372
vertex 14.527895 9.968774 5.659372
endloop
endfacet
facet normal 0 0 0
outer loop
vertex 14.527895 9.989527 5.679372
vertex 14.527895 9.968774 5.659372
vertex 14.548372 9.989527 5.659372
endloop
endfacet
facet normal 0 0 0
outer loop
vertex 14.527895 9.968774 5.659372
vertex 14.548372 9.968774 5.659372
vertex 14.548372 9.989527 5.659372
endloop
endfacet
facet normal 0 0 0
outer loop
vertex 14.568848 9.968774 5.659372
vertex 14.568848 9.989527 5.659372
vertex 14.548372 9.968774 5.659372
endloop
endfacet
facet normal 0 0 0
outer loop
vertex 14.568848 9.989527 5.659372
vertex 14.548372 9.989527 5.659372
vertex 14.548372 9.968774 5.659372
endloop
endfacet
facet normal 0 0 0
outer loop
vertex 14.425516 9.989527 5.679372
vertex 14.405041 10.010280 5.659372
vertex 14.425516 9.989527 5.659372
endloop
endfacet
facet normal 0 0 0
outer loop
vertex 14.405041 10.010280 5.679372
vertex 14.405041 10.010280 5.659372
vertex 14.425516 9.989527 5.679372
endloop
endfacet
facet normal 0 0 0
outer loop
vertex 14.548372 9.989527 5.659372
vertex 14.548372 10.010280 5.679372
vertex 14.527895 9.989527 5.679372
endloop
endfacet
facet normal 0 0 0
outer loop
vertex 14.568848 9.989527 5.659372
vertex 14.548372 10.010280 5.679372
vertex 14.548372 9.989527 5.659372
endloop
endfacet
facet normal 0 0 0
outer loop
vertex 14.568848 10.010280 5.679372
vertex 14.548372 10.010280 5.679372
vertex 14.568848 9.989527 5.659372
endloop
endfacet
facet normal 0 0 0
outer loop
vertex 14.589323 10.010280 5.659372
vertex 14.568848 10.010280 5.679372
vertex 14.568848 9.989527 5.659372
endloop
endfacet
facet normal 0 0 0
outer loop
vertex 14.405041 10.010280 5.659372
vertex 14.405041 10.010280 5.679372
vertex 14.405041 10.031034 5.659372
endloop
endfacet
facet normal 0 0 0
outer loop
vertex 14.405041 10.010280 5.679372
vertex 14.405041 10.031034 5.679372
vertex 14.405041 10.031034 5.659372
endloop
endfacet
facet normal 0 0 0
outer loop
vertex 14.589323 10.031034 5.659372
vertex 14.568848 10.010280 5.679372
vertex 14.589323 10.010280 5.659372
endloop
endfacet
facet normal 0 0 0
outer loop
vertex 14.568848 10.031034 5.679372
vertex 14.568848 10.010280 5.679372
vertex 14.589323 10.031034 5.659372
endloop
endfacet
facet normal 0 0 0
outer loop
vertex 14.405041 10.031034 5.679372
vertex 14.425516 10.051786 5.659372
vertex 14.405041 10.031034 5.659372
endloop
endfacet
facet normal 0 0 0
outer loop
vertex 14.425516 10.051786 5.679372
vertex 14.425516 10.051786 5.659372
vertex 14.405041 10.031034 5.679372
endloop
endfacet
facet normal 0 0 0
outer loop
vertex 14.589323 10.051786 5.659372
vertex 14.568848 10.031034 5.679372
vertex 14.589323 10.031034 5.659372
endloop
endfacet
facet normal 0 0 0
outer loop
vertex 14.568848 10.051786 5.679372
vertex 14.568848 10.031034 5.679372
vertex 14.589323 10.051786 5.659372
endloop
endfacet
facet normal 0 0 0
outer loop
vertex 14.445992 10.072540 5.679372
vertex 14.445992 10.051786 5.659372
vertex 14.425516 10.051786 5.679372
endloop
endfacet
facet normal 0 0 0
outer loop
vertex 14.445992 10.051786 5.659372
vertex 14.425516 10.051786 5.659372
vertex 14.425516 10.051786 5.679372
endloop
endfacet
facet normal 0 0 0
outer loop
vertex 14.445992 10.051786 5.659372
vertex 14.445992 10.072540 5.679372
vertex 14.466469 10.072540 5.659372
endloop
endfacet
facet normal 0 0 0
outer loop
vertex 14.548372 10.072540 5.659372
vertex 14.527895 10.072540 5.679372
vertex 14.548372 10.051786 5.679372
endloop
endfacet
facet normal 0 0 0
outer loop
vertex 14.548372 10.072540 5.659372
vertex 14.568848 10.051786 5.679372
vertex 14.568848 10.072540 5.659372
endloop
endfacet
facet normal 0 0 0
outer loop
vertex 14.548372 10.051786 5.679372
vertex 14.568848 10.051786 5.679372
vertex 14.548372 10.072540 5.659372
endloop
endfacet
facet normal 0 0 0
outer loop
vertex 14.589323 10.051786 5.659372
vertex 14.568848 10.072540 5.659372
vertex 14.568848 10.051786 5.679372
endloop
endfacet
facet normal 0 0 0
outer loop
vertex 14.445992 10.072540 5.679372
vertex 14.466469 10.093293 5.679372
vertex 14.466469 10.072540 5.659372
endloop
endfacet
facet normal 0 0 0
outer loop
vertex 14.466469 10.093293 5.679372
vertex 14.466469 10.093293 5.659372
vertex 14.466469 10.072540 5.659372
endloop
endfacet
facet normal 0 0 0
outer loop
vertex 14.548372 10.072540 5.659372
vertex 14.548372 10.093293 5.679372
vertex 14.527895 10.072540 5.679372
endloop
endfacet
facet normal 0 0 0
outer loop
vertex 14.568848 10.072540 5.659372
vertex 14.548372 10.093293 5.659372
vertex 14.548372 10.093293 5.679372
endloop
endfacet
facet normal 0 0 0
outer loop
vertex 14.568848 10.072540 5.659372
vertex 14.548372 10.093293 5.679372
vertex 14.548372 10.072540 5.659372
endloop
endfacet
facet normal 0 0 0
outer loop
vertex 14.486944 10.093293 5.659372
vertex 14.466469 10.093293 5.659372
vertex 14.486944 10.093293 5.679372
endloop
endfacet
facet normal 0 0 0
outer loop
vertex 14.466469 10.093293 5.659372
vertex 14.466469 10.093293 5.679372
vertex 14.486944 10.093293 5.679372
endloop
endfacet
facet normal 0 0 0
outer loop
vertex 14.486944 10.093293 5.679372
vertex 14.507420 10.114047 5.659372
vertex 14.486944 10.093293 5.659372
endloop
endfacet
facet normal 0 0 0
outer loop
vertex 14.507420 10.114047 5.679372
vertex 14.507420 10.114047 5.659372
vertex 14.486944 10.093293 5.679372
endloop
endfacet
facet normal 0 0 0
outer loop
vertex 14.527895 10.093293 5.659372
vertex 14.507420 10.114047 5.679372
vertex 14.527895 10.093293 5.679372
endloop
endfacet
facet normal 0 0 0
outer loop
vertex 14.507420 10.114047 5.659372
vertex 14.507420 10.114047 5.679372
vertex 14.527895 10.093293 5.659372
endloop
endfacet
facet normal 0 0 0
outer loop
vertex 14.548372 10.093293 5.659372
vertex 14.527895 10.093293 5.659372
vertex 14.548372 10.093293 5.679372
endloop
endfacet
facet normal 0 0 0
outer loop
vertex 14.527895 10.093293 5.659372
vertex 14.527895 10.093293 5.679372
vertex 14.548372 10.093293 5.679372
endloop
endfacet
facet normal 0 0 0
outer loop
vertex 14.466469 9.989527 5.699372
vertex 14.445992 9.989527 5.679372
vertex 14.466469 9.989527 5.679372
endloop
endfacet
facet normal 0 0 0
outer loop
vertex 14.486944 9.989527 5.679372
vertex 14.486944 9.989527 5.699372
vertex 14.466469 9.989527 5.679372
endloop
endfacet
facet normal 0 0 0
outer loop
vertex 14.466469 9.989527 5.679372
vertex 14.486944 9.989527 5.699372
vertex 14.466469 9.989527 5.699372
endloop
endfacet
facet normal 0 0 0
outer loop
vertex 14.507420 9.989527 5.679372
vertex 14.507420 9.989527 5.699372
vertex 14.486944 9.989527 5.679372
endloop
endfacet
facet normal 0 0 0
outer loop
vertex 14.486944 9.989527 5.679372
vertex 14.507420 9.989527 5.699372
vertex 14.486944 9.989527 5.699372
endloop
endfacet
facet normal 0 0 0
outer loop
vertex 14.527895 9.989527 5.679372
vertex 14.507420 9.989527 5.699372
vertex 14.507420 9.989527 5.679372
endloop
endfacet
facet normal 0 0 0
outer loop
vertex 14.405041 10.010280 5.679372
vertex 14.425516 9.989527 5.679372
vertex 14.425516 10.010280 5.679372
endloop
endfacet
facet normal 0 0 0
outer loop
vertex 14.445992 10.010280 5.699372
vertex 14.425516 10.010280 5.679372
vertex 14.445992 9.989527 5.679372
endloop
endfacet
facet normal 0 0 0
outer loop
vertex 14.425516 10.010280 5.679372
vertex 14.425516 9.989527 5.679372
vertex 14.445992 9.989527 5.679372
endloop
endfacet
facet normal 0 0 0
outer loop
vertex 14.466469 9.989527 5.699372
vertex 14.445992 10.010280 5.699372
vertex 14.445992 9.989527 5.679372
endloop
endfacet
facet normal 0 0 0
outer loop
vertex 14.527895 9.989527 5.679372
vertex 14.527895 10.010280 5.699372
vertex 14.507420 9.989527 5.699372
endloop
endfacet
facet normal 0 0 0
outer loop
vertex 14.548372 10.010280 5.679372
vertex 14.527895 10.010280 5.699372
vertex 14.527895 9.989527 5.679372
endloop
endfacet
facet normal 0 0 0
outer loop
vertex 14.425516 10.031034 5.699372
vertex 14.405041 10.031034 5.679372
vertex 14.425516 10.010280 5.679372
endloop
endfacet
facet normal 0 0 0
outer loop
vertex 14.405041 10.031034 5.679372
vertex 14.405041 10.010280 5.679372
vertex 14.425516 10.010280 5.679372
endloop
endfacet
facet normal 0 0 0
outer loop
vertex 14.445992 10.010280 5.699372
vertex 14.425516 10.031034 5.699372
vertex 14.425516 10.010280 5.679372
endloop
endfacet
facet normal 0 0 0
outer loop
vertex 14.548372 10.010280 5.679372
vertex 14.548372 10.031034 5.699372
vertex 14.527895 10.010280 5.699372
endloop
endfacet
facet normal 0 0 0
outer loop
vertex 14.548372 10.031034 5.699372
vertex 14.548372 10.010280 5.679372
vertex 14.568848 10.031034 5.679372
endloop
endfacet
facet normal 0 0 0
outer loop
vertex 14.548372 10.010280 5.679372
vertex 14.568848 10.010280 5.679372
vertex 14.568848 10.031034 5.679372
endloop
endfacet
facet normal 0 0 0
outer loop
vertex 14.405041 10.031034 5.679372
vertex 14.425516 10.031034 5.699372
vertex 14.425516 10.051786 5.679372
endloop
endfacet
facet normal 0 0 0
outer loop
vertex 14.425516 10.031034 5.699372
vertex 14.425516 10.051786 5.699372
vertex 14.425516 10.051786 5.679372
endloop
endfacet
facet normal 0 0 0
outer loop
vertex 14.568848 10.051786 5.679372
vertex 14.548372 10.031034 5.699372
vertex 14.568848 10.031034 5.679372
endloop
endfacet
facet normal 0 0 0
outer loop
vertex 14.548372 10.051786 5.699372
vertex 14.548372 10.031034 5.699372
vertex 14.568848 10.051786 5.679372
endloop
endfacet
facet normal 0 0 0
outer loop
vertex 14.425516 10.072540 5.699372
vertex 14.425516 10.051786 5.679372
vertex 14.425516 10.051786 5.699372
endloop
endfacet
facet normal 0 0 0
outer loop
vertex 14.425516 10.051786 5.679372
vertex 14.425516 10.072540 5.699372
vertex 14.445992 10.072540 5.679372
endloop
endfacet
facet normal 0 0 0
outer loop
vertex 14.548372 10.051786 5.679372
vertex 14.527895 10.072540 5.679372
vertex 14.548372 10.072540 5.699372
endloop
endfacet
facet normal 0 0 0
outer loop
vertex 14.568848 10.051786 5.679372
vertex 14.548372 10.072540 5.699372
vertex 14.548372 10.051786 5.699372
endloop
endfacet
facet normal 0 0 0
outer loop
vertex 14.568848 10.051786 5.679372
vertex 14.548372 10.051786 5.679372
vertex 14.548372 10.072540 5.699372
endloop
endfacet
facet normal 0 0 0
outer loop
vertex 14.445992 10.072540 5.679372
vertex 14.425516 10.072540 5.699372
vertex 14.445992 10.072540 5.699372
endloop
endfacet
facet normal 0 0 0
outer loop
vertex 14.466469 10.093293 5.679372
vertex 14.445992 10.072540 5.679372
vertex 14.466469 10.072540 5.699372
endloop
endfacet
facet normal 0 0 0
outer loop
vertex 14.445992 10.072540 5.679372
vertex 14.445992 10.072540 5.699372
vertex 14.466469 10.072540 5.699372
endloop
endfacet
facet normal 0 0 0
outer loop
vertex 14.466469 10.072540 5.699372
vertex 14.486944 10.093293 5.699372
vertex 14.466469 10.093293 5.679372
endloop
endfacet
facet normal 0 0 0
outer loop
vertex 14.507420 10.093293 5.679372
vertex 14.486944 10.093293 5.699372
vertex 14.507420 10.072540 5.699372
endloop
endfacet
facet normal 0 0 0
outer loop
vertex 14.507420 10.072540 5.699372
vertex 14.527895 10.093293 5.699372
vertex 14.507420 10.093293 5.679372
endloop
endfacet
facet normal 0 0 0
outer loop
vertex 14.527895 10.072540 5.679372
vertex 14.548372 10.093293 5.679372
vertex 14.548372 10.072540 5.699372
endloop
endfacet
facet normal 0 0 0
outer loop
vertex 14.548372 10.072540 5.699372
vertex 14.548372 10.093293 5.679372
vertex 14.548372 10.093293 5.699372
endloop
endfacet
facet normal 0 0 0
outer loop
vertex 14.466469 10.093293 5.679372
vertex 14.486944 10.093293 5.699372
vertex 14.486944 10.093293 5.679372
endloop
endfacet
facet normal 0 0 0
outer loop
vertex 14.507420 10.114047 5.679372
vertex 14.486944 10.093293 5.699372
vertex 14.507420 10.093293 5.679372
endloop
endfacet
facet normal 0 0 0
outer loop
vertex 14.507420 10.114047 5.679372
vertex 14.486944 10.093293 5.679372
vertex 14.486944 10.093293 5.699372
endloop
endfacet
facet normal 0 0 0
outer loop
vertex 14.507420 10.114047 5.679372
vertex 14.527895 10.093293 5.699372
vertex 14.527895 10.093293 5.679372
endloop
endfacet
facet normal 0 0 0
outer loop
vertex 14.507420 10.114047 5.679372
vertex 14.507420 10.093293 5.679372
vertex 14.527895 10.093293 5.699372
endloop
endfacet
facet normal 0 0 0
outer loop
vertex 14.548372 10.093293 5.679372
vertex 14.527895 10.093293 5.679372
vertex 14.548372 10.093293 5.699372
endloop
endfacet
facet normal 0 0 0
outer loop
vertex 14.527895 10.093293 5.679372
vertex 14.527895 10.093293 5.699372
vertex 14.548372 10.093293 5.699372
endloop
endfacet
facet normal 0 0 0
outer loop
vertex 14.445992 10.010280 5.699372
vertex 14.466469 9.989527 5.699372
vertex 14.466469 10.010280 5.699372
endloop
endfacet
facet normal 0 0 0
outer loop
vertex 14.486944 9.989527 5.699372
vertex 14.486944 10.010280 5.699372
vertex 14.466469 9.989527 5.699372
endloop
endfacet
facet normal 0 0 0
outer loop
vertex 14.486944 10.010280 5.699372
vertex 14.466469 10.010280 5.699372
vertex 14.466469 9.989527 5.699372
endloop
endfacet
facet normal 0 0 0
outer loop
vertex 14.507420 9.989527 5.699372
vertex 14.507420 10.010280 5.699372
vertex 14.486944 9.989527 5.699372
endloop
endfacet
facet normal 0 0 0
outer loop
vertex 14.507420 10.010280 5.699372
vertex 14.486944 10.010280 5.699372
vertex 14.486944 9.989527 5.699372
endloop
endfacet
facet normal 0 0 0
outer loop
vertex 14.507420 9.989527 5.699372
vertex 14.527895 10.010280 5.699372
vertex 14.507420 10.010280 5.699372
endloop
endfacet
facet normal 0 0 0
outer loop
vertex 14.425516 10.031034 5.699372
vertex 14.445992 10.010280 5.699372
vertex 14.445992 10.031034 5.699372
endloop
endfacet
facet normal 0 0 0
outer loop
vertex 14.466469 10.010280 5.699372
vertex 14.466469 10.031034 5.699372
vertex 14.445992 10.010280 5.699372
endloop
endfacet
facet normal 0 0 0
outer loop
vertex 14.466469 10.031034 5.699372
vertex 14.445992 10.031034 5.699372
vertex 14.445992 10.010280 5.699372
endloop
endfacet
facet normal 0 0 0
outer loop
vertex 14.486944 10.010280 5.699372
vertex 14.486944 10.031034 5.699372
vertex 14.466469 10.010280 5.699372
endloop
endfacet
facet normal 0 0 0
outer loop
vertex 14.486944 10.031034 5.699372
vertex 14.466469 10.031034 5.699372
vertex 14.466469 10.010280 5.699372
endloop
endfacet
facet normal 0 0 0
outer loop
vertex 14.507420 10.010280 5.699372
vertex 14.507420 10.031034 5.699372
vertex 14.486944 10.010280 5.699372
endloop
endfacet
facet normal 0 0 0
outer loop
vertex 14.507420 10.031034 5.699372
vertex 14.486944 10.031034 5.699372
vertex 14.486944 10.010280 5.699372
endloop
endfacet
facet normal 0 0 0
outer loop
vertex 14.527895 10.010280 5.699372
vertex 14.527895 10.031034 5.699372
vertex 14.507420 10.010280 5.699372
endloop
endfacet
facet normal 0 0 0
outer loop
vertex 14.527895 10.031034 5.699372
vertex 14.507420 10.031034 5.699372
vertex 14.507420 10.010280 5.699372
endloop
endfacet
facet normal 0 0 0
outer loop
vertex 14.527895 10.010280 5.699372
vertex 14.548372 10.031034 5.699372
vertex 14.527895 10.031034 5.699372
endloop
endfacet
facet normal 0 0 0
outer loop
vertex 14.445992 10.031034 5.699372
vertex 14.445992 10.051786 5.699372
vertex 14.425516 10.031034 5.699372
endloop
endfacet
facet normal 0 0 0
outer loop
vertex 14.445992 10.051786 5.699372
vertex 14.425516 10.051786 5.699372
vertex 14.425516 10.031034 5.699372
endloop
endfacet
facet normal 0 0 0
outer loop
vertex 14.466469 10.031034 5.699372
vertex 14.466469 10.051786 5.699372
vertex 14.445992 10.031034 5.699372
endloop
endfacet
facet normal 0 0 0
outer loop
vertex 14.466469 10.051786 5.699372
vertex 14.445992 10.051786 5.699372
vertex 14.445992 10.031034 5.699372
endloop
endfacet
facet normal 0 0 0
outer loop
vertex 14.486944 10.031034 5.699372
vertex 14.486944 10.051786 5.699372
vertex 14.466469 10.031034 5.699372
endloop
endfacet
facet normal 0 0 0
outer loop
vertex 14.486944 10.051786 5.699372
vertex 14.466469 10.051786 5.699372
vertex 14.466469 10.031034 5.699372
endloop
endfacet
facet normal 0 0 0
outer loop
vertex 14.507420 10.031034 5.699372
vertex 14.507420 10.051786 5.699372
vertex 14.486944 10.031034 5.699372
endloop
endfacet
facet normal 0 0 0
outer loop
vertex 14.507420 10.051786 5.699372
vertex 14.486944 10.051786 5.699372
vertex 14.486944 10.031034 5.699372
endloop
endfacet
facet normal 0 0 0
outer loop
vertex 14.527895 10.031034 5.699372
vertex 14.527895 10.051786 5.699372
vertex 14.507420 10.031034 5.699372
endloop
endfacet
facet normal 0 0 0
outer loop
vertex 14.527895 10.051786 5.699372
vertex 14.507420 10.051786 5.699372
vertex 14.507420 10.031034 5.699372
endloop
endfacet
facet normal 0 0 0
outer loop
vertex 14.548372 10.031034 5.699372
vertex 14.548372 10.051786 5.699372
vertex 14.527895 10.031034 5.699372
endloop
endfacet
facet normal 0 0 0
outer loop
vertex 14.548372 10.051786 5.699372
vertex 14.527895 10.051786 5.699372
vertex 14.527895 10.031034 5.699372
endloop
endfacet
facet normal 0 0 0
outer loop
vertex 14.445992 10.051786 5.699372
vertex 14.445992 10.072540 5.699372
vertex 14.425516 10.051786 5.699372
endloop
endfacet
facet normal 0 0 0
outer loop
vertex 14.445992 10.072540 5.699372
vertex 14.425516 10.072540 5.699372
vertex 14.425516 10.051786 5.699372
endloop
endfacet
facet normal 0 0 0
outer loop
vertex 14.466469 10.051786 5.699372
vertex 14.466469 10.072540 5.699372
vertex 14.445992 10.051786 5.699372
endloop
endfacet
facet normal 0 0 0
outer loop
vertex 14.466469 10.072540 5.699372
vertex 14.445992 10.072540 5.699372
vertex 14.445992 10.051786 5.699372
endloop
endfacet
facet normal 0 0 0
outer loop
vertex 14.486944 10.051786 5.699372
vertex 14.486944 10.072540 5.699372
vertex 14.466469 10.051786 5.699372
endloop
endfacet
facet normal 0 0 0
outer loop
vertex 14.486944 10.072540 5.699372
vertex 14.466469 10.072540 5.699372
vertex 14.466469 10.051786 5.699372
endloop
endfacet
facet normal 0 0 0
outer loop
vertex 14.507420 10.051786 5.699372
vertex 14.507420 10.072540 5.699372
vertex 14.486944 10.051786 5.699372
endloop
endfacet
facet normal 0 0 0
outer loop
vertex 14.507420 10.072540 5.699372
vertex 14.486944 10.072540 5.699372
vertex 14.486944 10.051786 5.699372
endloop
endfacet
facet normal 0 0 0
outer loop
vertex 14.527895 10.051786 5.699372
vertex 14.527895 10.072540 5.699372
vertex 14.507420 10.051786 5.699372
endloop
endfacet
facet normal 0 0 0
outer loop
vertex 14.527895 10.072540 5.699372
vertex 14.507420 10.072540 5.699372
vertex 14.507420 10.051786 5.699372
endloop
endfacet
facet normal 0 0 0
outer loop
vertex 14.548372 10.051786 5.699372
vertex 14.548372 10.072540 5.699372
vertex 14.527895 10.051786 5.699372
endloop
endfacet
facet normal 0 0 0
outer loop
vertex 14.548372 10.072540 5.699372
vertex 14.527895 10.072540 5.699372
vertex 14.527895 10.051786 5.699372
endloop
endfacet
facet normal 0 0 0
outer loop
vertex 14.486944 10.093293 5.699372
vertex 14.466469 10.072540 5.699372
vertex 14.486944 10.072540 5.699372
endloop
endfacet
facet normal 0 0 0
outer loop
vertex 14.507420 10.072540 5.699372
vertex 14.486944 10.093293 5.699372
vertex 14.486944 10.072540 5.699372
endloop
endfacet
facet normal 0 0 0
outer loop
vertex 14.527895 10.093293 5.699372
vertex 14.507420 10.072540 5.699372
vertex 14.527895 10.072540 5.699372
endloop
endfacet
facet normal 0 0 0
outer loop
vertex 14.548372 10.072540 5.699372
vertex 14.548372 10.093293 5.699372
vertex 14.527895 10.072540 5.699372
endloop
endfacet
facet normal 0 0 0
outer loop
vertex 14.548372 10.093293 5.699372
vertex 14.527895 10.093293 5.699372
vertex 14.527895 10.072540 5.699372
endloop
endfacet
endsolid B-16-Plag.078
