solid B-16-Plag.418
facet normal 0 0 0
outer loop
vertex 23.086781 9.865006 15.239372
vertex 23.107256 9.865006 15.219372
vertex 23.107256 9.865006 15.239372
endloop
endfacet
facet normal 0 0 0
outer loop
vertex 23.127731 9.865006 15.219372
vertex 23.127731 9.865006 15.239372
vertex 23.107256 9.865006 15.219372
endloop
endfacet
facet normal 0 0 0
outer loop
vertex 23.107256 9.865006 15.219372
vertex 23.127731 9.865006 15.239372
vertex 23.107256 9.865006 15.239372
endloop
endfacet
facet normal 0 0 0
outer loop
vertex 23.148207 9.865006 15.219372
vertex 23.148207 9.865006 15.239372
vertex 23.127731 9.865006 15.219372
endloop
endfacet
facet normal 0 0 0
outer loop
vertex 23.127731 9.865006 15.219372
vertex 23.148207 9.865006 15.239372
vertex 23.127731 9.865006 15.239372
endloop
endfacet
facet normal 0 0 0
outer loop
vertex 23.168684 9.865006 15.219372
vertex 23.168684 9.865006 15.239372
vertex 23.148207 9.865006 15.219372
endloop
endfacet
facet normal 0 0 0
outer loop
vertex 23.148207 9.865006 15.219372
vertex 23.168684 9.865006 15.239372
vertex 23.148207 9.865006 15.239372
endloop
endfacet
facet normal 0 0 0
outer loop
vertex 23.168684 9.865006 15.219372
vertex 23.189159 9.865006 15.239372
vertex 23.168684 9.865006 15.239372
endloop
endfacet
facet normal 0 0 0
outer loop
vertex 23.066305 9.865006 15.239372
vertex 23.045828 9.865006 15.239372
vertex 23.066305 9.885760 15.239372
endloop
endfacet
facet normal 0 0 0
outer loop
vertex 23.066305 9.885760 15.239372
vertex 23.045828 9.865006 15.239372
vertex 23.045828 9.885760 15.239372
endloop
endfacet
facet normal 0 0 0
outer loop
vertex 23.086781 9.865006 15.239372
vertex 23.066305 9.865006 15.239372
vertex 23.086781 9.885760 15.239372
endloop
endfacet
facet normal 0 0 0
outer loop
vertex 23.086781 9.885760 15.239372
vertex 23.066305 9.865006 15.239372
vertex 23.066305 9.885760 15.239372
endloop
endfacet
facet normal 0 0 0
outer loop
vertex 23.107256 9.865006 15.219372
vertex 23.086781 9.865006 15.239372
vertex 23.107256 9.885760 15.239372
endloop
endfacet
facet normal 0 0 0
outer loop
vertex 23.086781 9.865006 15.239372
vertex 23.086781 9.885760 15.239372
vertex 23.107256 9.885760 15.239372
endloop
endfacet
facet normal 0 0 0
outer loop
vertex 23.107256 9.865006 15.219372
vertex 23.127731 9.885760 15.239372
vertex 23.127731 9.865006 15.219372
endloop
endfacet
facet normal 0 0 0
outer loop
vertex 23.107256 9.885760 15.239372
vertex 23.127731 9.885760 15.239372
vertex 23.107256 9.865006 15.219372
endloop
endfacet
facet normal 0 0 0
outer loop
vertex 23.127731 9.865006 15.219372
vertex 23.148207 9.885760 15.239372
vertex 23.148207 9.865006 15.219372
endloop
endfacet
facet normal 0 0 0
outer loop
vertex 23.127731 9.885760 15.239372
vertex 23.148207 9.885760 15.239372
vertex 23.127731 9.865006 15.219372
endloop
endfacet
facet normal 0 0 0
outer loop
vertex 23.148207 9.865006 15.219372
vertex 23.168684 9.885760 15.239372
vertex 23.168684 9.865006 15.219372
endloop
endfacet
facet normal 0 0 0
outer loop
vertex 23.148207 9.885760 15.239372
vertex 23.168684 9.885760 15.239372
vertex 23.148207 9.865006 15.219372
endloop
endfacet
facet normal 0 0 0
outer loop
vertex 23.168684 9.865006 15.219372
vertex 23.168684 9.885760 15.239372
vertex 23.189159 9.865006 15.239372
endloop
endfacet
facet normal 0 0 0
outer loop
vertex 23.168684 9.885760 15.239372
vertex 23.189159 9.885760 15.239372
vertex 23.189159 9.865006 15.239372
endloop
endfacet
facet normal 0 0 0
outer loop
vertex 23.086781 9.885760 15.239372
vertex 23.107256 9.906513 15.239372
vertex 23.107256 9.885760 15.239372
endloop
endfacet
facet normal 0 0 0
outer loop
vertex 23.127731 9.885760 15.239372
vertex 23.107256 9.885760 15.239372
vertex 23.127731 9.906513 15.239372
endloop
endfacet
facet normal 0 0 0
outer loop
vertex 23.127731 9.906513 15.239372
vertex 23.107256 9.885760 15.239372
vertex 23.107256 9.906513 15.239372
endloop
endfacet
facet normal 0 0 0
outer loop
vertex 23.148207 9.885760 15.239372
vertex 23.127731 9.885760 15.239372
vertex 23.148207 9.906513 15.239372
endloop
endfacet
facet normal 0 0 0
outer loop
vertex 23.148207 9.906513 15.239372
vertex 23.127731 9.885760 15.239372
vertex 23.127731 9.906513 15.239372
endloop
endfacet
facet normal 0 0 0
outer loop
vertex 23.168684 9.885760 15.239372
vertex 23.148207 9.885760 15.239372
vertex 23.168684 9.906513 15.239372
endloop
endfacet
facet normal 0 0 0
outer loop
vertex 23.168684 9.906513 15.239372
vertex 23.148207 9.885760 15.239372
vertex 23.148207 9.906513 15.239372
endloop
endfacet
facet normal 0 0 0
outer loop
vertex 23.168684 9.906513 15.239372
vertex 23.189159 9.885760 15.239372
vertex 23.168684 9.885760 15.239372
endloop
endfacet
facet normal 0 0 0
outer loop
vertex 23.066305 9.865006 15.259372
vertex 23.045828 9.865006 15.239372
vertex 23.066305 9.865006 15.239372
endloop
endfacet
facet normal 0 0 0
outer loop
vertex 23.086781 9.865006 15.239372
vertex 23.086781 9.865006 15.259372
vertex 23.066305 9.865006 15.239372
endloop
endfacet
facet normal 0 0 0
outer loop
vertex 23.066305 9.865006 15.239372
vertex 23.086781 9.865006 15.259372
vertex 23.066305 9.865006 15.259372
endloop
endfacet
facet normal 0 0 0
outer loop
vertex 23.107256 9.865006 15.239372
vertex 23.107256 9.865006 15.259372
vertex 23.086781 9.865006 15.239372
endloop
endfacet
facet normal 0 0 0
outer loop
vertex 23.086781 9.865006 15.239372
vertex 23.107256 9.865006 15.259372
vertex 23.086781 9.865006 15.259372
endloop
endfacet
facet normal 0 0 0
outer loop
vertex 23.127731 9.865006 15.239372
vertex 23.127731 9.865006 15.259372
vertex 23.107256 9.865006 15.239372
endloop
endfacet
facet normal 0 0 0
outer loop
vertex 23.107256 9.865006 15.239372
vertex 23.127731 9.865006 15.259372
vertex 23.107256 9.865006 15.259372
endloop
endfacet
facet normal 0 0 0
outer loop
vertex 23.148207 9.865006 15.239372
vertex 23.148207 9.865006 15.259372
vertex 23.127731 9.865006 15.239372
endloop
endfacet
facet normal 0 0 0
outer loop
vertex 23.127731 9.865006 15.239372
vertex 23.148207 9.865006 15.259372
vertex 23.127731 9.865006 15.259372
endloop
endfacet
facet normal 0 0 0
outer loop
vertex 23.168684 9.865006 15.239372
vertex 23.148207 9.865006 15.259372
vertex 23.148207 9.865006 15.239372
endloop
endfacet
facet normal 0 0 0
outer loop
vertex 23.045828 9.865006 15.239372
vertex 23.045828 9.885760 15.259372
vertex 23.045828 9.885760 15.239372
endloop
endfacet
facet normal 0 0 0
outer loop
vertex 23.066305 9.865006 15.259372
vertex 23.045828 9.885760 15.259372
vertex 23.045828 9.865006 15.239372
endloop
endfacet
facet normal 0 0 0
outer loop
vertex 23.168684 9.865006 15.239372
vertex 23.168684 9.885760 15.259372
vertex 23.148207 9.865006 15.259372
endloop
endfacet
facet normal 0 0 0
outer loop
vertex 23.189159 9.865006 15.239372
vertex 23.168684 9.885760 15.259372
vertex 23.168684 9.865006 15.239372
endloop
endfacet
facet normal 0 0 0
outer loop
vertex 23.189159 9.885760 15.259372
vertex 23.168684 9.885760 15.259372
vertex 23.189159 9.865006 15.239372
endloop
endfacet
facet normal 0 0 0
outer loop
vertex 23.189159 9.865006 15.239372
vertex 23.189159 9.885760 15.239372
vertex 23.209635 9.885760 15.259372
endloop
endfacet
facet normal 0 0 0
outer loop
vertex 23.189159 9.865006 15.239372
vertex 23.209635 9.885760 15.259372
vertex 23.189159 9.885760 15.259372
endloop
endfacet
facet normal 0 0 0
outer loop
vertex 23.066305 9.906513 15.259372
vertex 23.066305 9.885760 15.239372
vertex 23.045828 9.885760 15.259372
endloop
endfacet
facet normal 0 0 0
outer loop
vertex 23.066305 9.885760 15.239372
vertex 23.045828 9.885760 15.239372
vertex 23.045828 9.885760 15.259372
endloop
endfacet
facet normal 0 0 0
outer loop
vertex 23.066305 9.885760 15.239372
vertex 23.086781 9.906513 15.259372
vertex 23.086781 9.885760 15.239372
endloop
endfacet
facet normal 0 0 0
outer loop
vertex 23.066305 9.906513 15.259372
vertex 23.086781 9.906513 15.259372
vertex 23.066305 9.885760 15.239372
endloop
endfacet
facet normal 0 0 0
outer loop
vertex 23.086781 9.885760 15.239372
vertex 23.086781 9.906513 15.259372
vertex 23.107256 9.906513 15.239372
endloop
endfacet
facet normal 0 0 0
outer loop
vertex 23.189159 9.885760 15.239372
vertex 23.168684 9.906513 15.239372
vertex 23.189159 9.906513 15.259372
endloop
endfacet
facet normal 0 0 0
outer loop
vertex 23.189159 9.885760 15.239372
vertex 23.189159 9.906513 15.259372
vertex 23.209635 9.885760 15.259372
endloop
endfacet
facet normal 0 0 0
outer loop
vertex 23.189159 9.906513 15.259372
vertex 23.209635 9.906513 15.259372
vertex 23.209635 9.885760 15.259372
endloop
endfacet
facet normal 0 0 0
outer loop
vertex 23.107256 9.906513 15.239372
vertex 23.086781 9.906513 15.259372
vertex 23.107256 9.906513 15.259372
endloop
endfacet
facet normal 0 0 0
outer loop
vertex 23.127731 9.906513 15.239372
vertex 23.107256 9.906513 15.239372
vertex 23.127731 9.906513 15.259372
endloop
endfacet
facet normal 0 0 0
outer loop
vertex 23.107256 9.906513 15.239372
vertex 23.107256 9.906513 15.259372
vertex 23.127731 9.906513 15.259372
endloop
endfacet
facet normal 0 0 0
outer loop
vertex 23.148207 9.927267 15.259372
vertex 23.148207 9.906513 15.239372
vertex 23.127731 9.906513 15.259372
endloop
endfacet
facet normal 0 0 0
outer loop
vertex 23.148207 9.906513 15.239372
vertex 23.127731 9.906513 15.239372
vertex 23.127731 9.906513 15.259372
endloop
endfacet
facet normal 0 0 0
outer loop
vertex 23.148207 9.906513 15.239372
vertex 23.168684 9.927267 15.259372
vertex 23.168684 9.906513 15.239372
endloop
endfacet
facet normal 0 0 0
outer loop
vertex 23.148207 9.927267 15.259372
vertex 23.168684 9.927267 15.259372
vertex 23.148207 9.906513 15.239372
endloop
endfacet
facet normal 0 0 0
outer loop
vertex 23.168684 9.906513 15.239372
vertex 23.168684 9.927267 15.259372
vertex 23.189159 9.906513 15.259372
endloop
endfacet
facet normal 0 0 0
outer loop
vertex 23.168684 9.927267 15.259372
vertex 23.189159 9.927267 15.259372
vertex 23.189159 9.906513 15.259372
endloop
endfacet
facet normal 0 0 0
outer loop
vertex 23.189159 9.927267 15.259372
vertex 23.209635 9.906513 15.259372
vertex 23.189159 9.906513 15.259372
endloop
endfacet
facet normal 0 0 0
outer loop
vertex 23.025352 9.885760 15.279372
vertex 23.045828 9.885760 15.259372
vertex 23.045828 9.885760 15.279372
endloop
endfacet
facet normal 0 0 0
outer loop
vertex 23.066305 9.865006 15.259372
vertex 23.066305 9.885760 15.279372
vertex 23.045828 9.885760 15.259372
endloop
endfacet
facet normal 0 0 0
outer loop
vertex 23.066305 9.885760 15.279372
vertex 23.045828 9.885760 15.279372
vertex 23.045828 9.885760 15.259372
endloop
endfacet
facet normal 0 0 0
outer loop
vertex 23.086781 9.865006 15.259372
vertex 23.066305 9.885760 15.279372
vertex 23.066305 9.865006 15.259372
endloop
endfacet
facet normal 0 0 0
outer loop
vertex 23.086781 9.885760 15.279372
vertex 23.066305 9.885760 15.279372
vertex 23.086781 9.865006 15.259372
endloop
endfacet
facet normal 0 0 0
outer loop
vertex 23.107256 9.865006 15.259372
vertex 23.086781 9.885760 15.279372
vertex 23.086781 9.865006 15.259372
endloop
endfacet
facet normal 0 0 0
outer loop
vertex 23.107256 9.885760 15.279372
vertex 23.086781 9.885760 15.279372
vertex 23.107256 9.865006 15.259372
endloop
endfacet
facet normal 0 0 0
outer loop
vertex 23.127731 9.865006 15.259372
vertex 23.107256 9.885760 15.279372
vertex 23.107256 9.865006 15.259372
endloop
endfacet
facet normal 0 0 0
outer loop
vertex 23.127731 9.885760 15.279372
vertex 23.107256 9.885760 15.279372
vertex 23.127731 9.865006 15.259372
endloop
endfacet
facet normal 0 0 0
outer loop
vertex 23.148207 9.865006 15.259372
vertex 23.127731 9.885760 15.279372
vertex 23.127731 9.865006 15.259372
endloop
endfacet
facet normal 0 0 0
outer loop
vertex 23.148207 9.885760 15.279372
vertex 23.127731 9.885760 15.279372
vertex 23.148207 9.865006 15.259372
endloop
endfacet
facet normal 0 0 0
outer loop
vertex 23.148207 9.865006 15.259372
vertex 23.168684 9.885760 15.259372
vertex 23.148207 9.885760 15.279372
endloop
endfacet
facet normal 0 0 0
outer loop
vertex 23.168684 9.885760 15.259372
vertex 23.168684 9.885760 15.279372
vertex 23.148207 9.885760 15.279372
endloop
endfacet
facet normal 0 0 0
outer loop
vertex 23.189159 9.885760 15.259372
vertex 23.168684 9.885760 15.279372
vertex 23.168684 9.885760 15.259372
endloop
endfacet
facet normal 0 0 0
outer loop
vertex 23.045828 9.885760 15.259372
vertex 23.025352 9.885760 15.279372
vertex 23.045828 9.906513 15.279372
endloop
endfacet
facet normal 0 0 0
outer loop
vertex 23.025352 9.885760 15.279372
vertex 23.025352 9.906513 15.279372
vertex 23.045828 9.906513 15.279372
endloop
endfacet
facet normal 0 0 0
outer loop
vertex 23.045828 9.885760 15.259372
vertex 23.045828 9.906513 15.279372
vertex 23.066305 9.906513 15.259372
endloop
endfacet
facet normal 0 0 0
outer loop
vertex 23.189159 9.885760 15.259372
vertex 23.189159 9.906513 15.279372
vertex 23.168684 9.885760 15.279372
endloop
endfacet
facet normal 0 0 0
outer loop
vertex 23.189159 9.906513 15.279372
vertex 23.189159 9.885760 15.259372
vertex 23.209635 9.906513 15.259372
endloop
endfacet
facet normal 0 0 0
outer loop
vertex 23.189159 9.885760 15.259372
vertex 23.209635 9.885760 15.259372
vertex 23.209635 9.906513 15.259372
endloop
endfacet
facet normal 0 0 0
outer loop
vertex 23.066305 9.906513 15.259372
vertex 23.045828 9.906513 15.279372
vertex 23.066305 9.906513 15.279372
endloop
endfacet
facet normal 0 0 0
outer loop
vertex 23.086781 9.927267 15.279372
vertex 23.086781 9.906513 15.259372
vertex 23.066305 9.906513 15.279372
endloop
endfacet
facet normal 0 0 0
outer loop
vertex 23.086781 9.906513 15.259372
vertex 23.066305 9.906513 15.259372
vertex 23.066305 9.906513 15.279372
endloop
endfacet
facet normal 0 0 0
outer loop
vertex 23.086781 9.906513 15.259372
vertex 23.107256 9.927267 15.279372
vertex 23.107256 9.906513 15.259372
endloop
endfacet
facet normal 0 0 0
outer loop
vertex 23.086781 9.927267 15.279372
vertex 23.107256 9.927267 15.279372
vertex 23.086781 9.906513 15.259372
endloop
endfacet
facet normal 0 0 0
outer loop
vertex 23.107256 9.906513 15.259372
vertex 23.127731 9.927267 15.279372
vertex 23.127731 9.906513 15.259372
endloop
endfacet
facet normal 0 0 0
outer loop
vertex 23.107256 9.927267 15.279372
vertex 23.127731 9.927267 15.279372
vertex 23.107256 9.906513 15.259372
endloop
endfacet
facet normal 0 0 0
outer loop
vertex 23.127731 9.906513 15.259372
vertex 23.127731 9.927267 15.279372
vertex 23.148207 9.927267 15.259372
endloop
endfacet
facet normal 0 0 0
outer loop
vertex 23.189159 9.927267 15.259372
vertex 23.168684 9.927267 15.279372
vertex 23.189159 9.906513 15.279372
endloop
endfacet
facet normal 0 0 0
outer loop
vertex 23.209635 9.906513 15.259372
vertex 23.189159 9.927267 15.259372
vertex 23.189159 9.906513 15.279372
endloop
endfacet
facet normal 0 0 0
outer loop
vertex 23.148207 9.927267 15.259372
vertex 23.127731 9.927267 15.279372
vertex 23.148207 9.927267 15.279372
endloop
endfacet
facet normal 0 0 0
outer loop
vertex 23.168684 9.927267 15.259372
vertex 23.148207 9.927267 15.259372
vertex 23.168684 9.927267 15.279372
endloop
endfacet
facet normal 0 0 0
outer loop
vertex 23.148207 9.927267 15.259372
vertex 23.148207 9.927267 15.279372
vertex 23.168684 9.927267 15.279372
endloop
endfacet
facet normal 0 0 0
outer loop
vertex 23.168684 9.927267 15.279372
vertex 23.189159 9.927267 15.259372
vertex 23.168684 9.927267 15.259372
endloop
endfacet
facet normal 0 0 0
outer loop
vertex 23.004877 9.885760 15.299372
vertex 23.025352 9.885760 15.279372
vertex 23.025352 9.885760 15.299372
endloop
endfacet
facet normal 0 0 0
outer loop
vertex 23.045828 9.865006 15.299372
vertex 23.025352 9.885760 15.299372
vertex 23.045828 9.885760 15.279372
endloop
endfacet
facet normal 0 0 0
outer loop
vertex 23.025352 9.885760 15.299372
vertex 23.025352 9.885760 15.279372
vertex 23.045828 9.885760 15.279372
endloop
endfacet
facet normal 0 0 0
outer loop
vertex 23.045828 9.865006 15.299372
vertex 23.045828 9.885760 15.279372
vertex 23.066305 9.885760 15.299372
endloop
endfacet
facet normal 0 0 0
outer loop
vertex 23.045828 9.885760 15.279372
vertex 23.066305 9.885760 15.279372
vertex 23.066305 9.885760 15.299372
endloop
endfacet
facet normal 0 0 0
outer loop
vertex 23.086781 9.885760 15.279372
vertex 23.086781 9.885760 15.299372
vertex 23.066305 9.885760 15.279372
endloop
endfacet
facet normal 0 0 0
outer loop
vertex 23.066305 9.885760 15.279372
vertex 23.086781 9.885760 15.299372
vertex 23.066305 9.885760 15.299372
endloop
endfacet
facet normal 0 0 0
outer loop
vertex 23.107256 9.885760 15.279372
vertex 23.107256 9.885760 15.299372
vertex 23.086781 9.885760 15.279372
endloop
endfacet
facet normal 0 0 0
outer loop
vertex 23.086781 9.885760 15.279372
vertex 23.107256 9.885760 15.299372
vertex 23.086781 9.885760 15.299372
endloop
endfacet
facet normal 0 0 0
outer loop
vertex 23.127731 9.885760 15.279372
vertex 23.127731 9.885760 15.299372
vertex 23.107256 9.885760 15.279372
endloop
endfacet
facet normal 0 0 0
outer loop
vertex 23.107256 9.885760 15.279372
vertex 23.127731 9.885760 15.299372
vertex 23.107256 9.885760 15.299372
endloop
endfacet
facet normal 0 0 0
outer loop
vertex 23.148207 9.885760 15.279372
vertex 23.127731 9.885760 15.299372
vertex 23.127731 9.885760 15.279372
endloop
endfacet
facet normal 0 0 0
outer loop
vertex 23.025352 9.885760 15.279372
vertex 23.004877 9.906513 15.299372
vertex 23.025352 9.906513 15.279372
endloop
endfacet
facet normal 0 0 0
outer loop
vertex 23.004877 9.885760 15.299372
vertex 23.004877 9.906513 15.299372
vertex 23.025352 9.885760 15.279372
endloop
endfacet
facet normal 0 0 0
outer loop
vertex 23.148207 9.885760 15.279372
vertex 23.148207 9.906513 15.299372
vertex 23.127731 9.885760 15.299372
endloop
endfacet
facet normal 0 0 0
outer loop
vertex 23.168684 9.885760 15.279372
vertex 23.148207 9.906513 15.299372
vertex 23.148207 9.885760 15.279372
endloop
endfacet
facet normal 0 0 0
outer loop
vertex 23.168684 9.906513 15.299372
vertex 23.148207 9.906513 15.299372
vertex 23.168684 9.885760 15.279372
endloop
endfacet
facet normal 0 0 0
outer loop
vertex 23.168684 9.885760 15.279372
vertex 23.189159 9.906513 15.279372
vertex 23.168684 9.906513 15.299372
endloop
endfacet
facet normal 0 0 0
outer loop
vertex 23.189159 9.906513 15.279372
vertex 23.189159 9.906513 15.299372
vertex 23.168684 9.906513 15.299372
endloop
endfacet
facet normal 0 0 0
outer loop
vertex 23.025352 9.906513 15.279372
vertex 23.004877 9.906513 15.299372
vertex 23.025352 9.927267 15.299372
endloop
endfacet
facet normal 0 0 0
outer loop
vertex 23.025352 9.906513 15.279372
vertex 23.045828 9.927267 15.299372
vertex 23.045828 9.906513 15.279372
endloop
endfacet
facet normal 0 0 0
outer loop
vertex 23.025352 9.927267 15.299372
vertex 23.045828 9.927267 15.299372
vertex 23.025352 9.906513 15.279372
endloop
endfacet
facet normal 0 0 0
outer loop
vertex 23.045828 9.906513 15.279372
vertex 23.066305 9.927267 15.299372
vertex 23.066305 9.906513 15.279372
endloop
endfacet
facet normal 0 0 0
outer loop
vertex 23.045828 9.927267 15.299372
vertex 23.066305 9.927267 15.299372
vertex 23.045828 9.906513 15.279372
endloop
endfacet
facet normal 0 0 0
outer loop
vertex 23.066305 9.906513 15.279372
vertex 23.066305 9.927267 15.299372
vertex 23.086781 9.927267 15.279372
endloop
endfacet
facet normal 0 0 0
outer loop
vertex 23.189159 9.906513 15.279372
vertex 23.168684 9.927267 15.299372
vertex 23.189159 9.906513 15.299372
endloop
endfacet
facet normal 0 0 0
outer loop
vertex 23.168684 9.927267 15.279372
vertex 23.168684 9.927267 15.299372
vertex 23.189159 9.906513 15.279372
endloop
endfacet
facet normal 0 0 0
outer loop
vertex 23.086781 9.927267 15.279372
vertex 23.066305 9.927267 15.299372
vertex 23.086781 9.927267 15.299372
endloop
endfacet
facet normal 0 0 0
outer loop
vertex 23.107256 9.927267 15.279372
vertex 23.086781 9.927267 15.279372
vertex 23.107256 9.927267 15.299372
endloop
endfacet
facet normal 0 0 0
outer loop
vertex 23.086781 9.927267 15.279372
vertex 23.086781 9.927267 15.299372
vertex 23.107256 9.927267 15.299372
endloop
endfacet
facet normal 0 0 0
outer loop
vertex 23.127731 9.927267 15.279372
vertex 23.107256 9.927267 15.279372
vertex 23.127731 9.927267 15.299372
endloop
endfacet
facet normal 0 0 0
outer loop
vertex 23.107256 9.927267 15.279372
vertex 23.107256 9.927267 15.299372
vertex 23.127731 9.927267 15.299372
endloop
endfacet
facet normal 0 0 0
outer loop
vertex 23.148207 9.927267 15.279372
vertex 23.127731 9.927267 15.279372
vertex 23.148207 9.927267 15.299372
endloop
endfacet
facet normal 0 0 0
outer loop
vertex 23.127731 9.927267 15.279372
vertex 23.127731 9.927267 15.299372
vertex 23.148207 9.927267 15.299372
endloop
endfacet
facet normal 0 0 0
outer loop
vertex 23.168684 9.927267 15.279372
vertex 23.148207 9.927267 15.279372
vertex 23.168684 9.927267 15.299372
endloop
endfacet
facet normal 0 0 0
outer loop
vertex 23.148207 9.927267 15.279372
vertex 23.148207 9.927267 15.299372
vertex 23.168684 9.927267 15.299372
endloop
endfacet
facet normal 0 0 0
outer loop
vertex 23.025352 9.885760 15.299372
vertex 23.045828 9.865006 15.299372
vertex 23.045828 9.885760 15.299372
endloop
endfacet
facet normal 0 0 0
outer loop
vertex 23.045828 9.865006 15.299372
vertex 23.066305 9.885760 15.299372
vertex 23.045828 9.885760 15.299372
endloop
endfacet
facet normal 0 0 0
outer loop
vertex 23.025352 9.885760 15.299372
vertex 23.025352 9.906513 15.299372
vertex 23.004877 9.885760 15.299372
endloop
endfacet
facet normal 0 0 0
outer loop
vertex 23.025352 9.906513 15.299372
vertex 23.004877 9.906513 15.299372
vertex 23.004877 9.885760 15.299372
endloop
endfacet
facet normal 0 0 0
outer loop
vertex 23.045828 9.885760 15.299372
vertex 23.045828 9.906513 15.299372
vertex 23.025352 9.885760 15.299372
endloop
endfacet
facet normal 0 0 0
outer loop
vertex 23.045828 9.906513 15.299372
vertex 23.025352 9.906513 15.299372
vertex 23.025352 9.885760 15.299372
endloop
endfacet
facet normal 0 0 0
outer loop
vertex 23.066305 9.885760 15.299372
vertex 23.066305 9.906513 15.299372
vertex 23.045828 9.885760 15.299372
endloop
endfacet
facet normal 0 0 0
outer loop
vertex 23.066305 9.906513 15.299372
vertex 23.045828 9.906513 15.299372
vertex 23.045828 9.885760 15.299372
endloop
endfacet
facet normal 0 0 0
outer loop
vertex 23.086781 9.885760 15.299372
vertex 23.086781 9.906513 15.299372
vertex 23.066305 9.885760 15.299372
endloop
endfacet
facet normal 0 0 0
outer loop
vertex 23.086781 9.906513 15.299372
vertex 23.066305 9.906513 15.299372
vertex 23.066305 9.885760 15.299372
endloop
endfacet
facet normal 0 0 0
outer loop
vertex 23.107256 9.885760 15.299372
vertex 23.107256 9.906513 15.299372
vertex 23.086781 9.885760 15.299372
endloop
endfacet
facet normal 0 0 0
outer loop
vertex 23.107256 9.906513 15.299372
vertex 23.086781 9.906513 15.299372
vertex 23.086781 9.885760 15.299372
endloop
endfacet
facet normal 0 0 0
outer loop
vertex 23.127731 9.885760 15.299372
vertex 23.127731 9.906513 15.299372
vertex 23.107256 9.885760 15.299372
endloop
endfacet
facet normal 0 0 0
outer loop
vertex 23.127731 9.906513 15.299372
vertex 23.107256 9.906513 15.299372
vertex 23.107256 9.885760 15.299372
endloop
endfacet
facet normal 0 0 0
outer loop
vertex 23.127731 9.885760 15.299372
vertex 23.148207 9.906513 15.299372
vertex 23.127731 9.906513 15.299372
endloop
endfacet
facet normal 0 0 0
outer loop
vertex 23.025352 9.927267 15.299372
vertex 23.004877 9.906513 15.299372
vertex 23.025352 9.906513 15.299372
endloop
endfacet
facet normal 0 0 0
outer loop
vertex 23.045828 9.906513 15.299372
vertex 23.045828 9.927267 15.299372
vertex 23.025352 9.906513 15.299372
endloop
endfacet
facet normal 0 0 0
outer loop
vertex 23.045828 9.927267 15.299372
vertex 23.025352 9.927267 15.299372
vertex 23.025352 9.906513 15.299372
endloop
endfacet
facet normal 0 0 0
outer loop
vertex 23.066305 9.906513 15.299372
vertex 23.066305 9.927267 15.299372
vertex 23.045828 9.906513 15.299372
endloop
endfacet
facet normal 0 0 0
outer loop
vertex 23.066305 9.927267 15.299372
vertex 23.045828 9.927267 15.299372
vertex 23.045828 9.906513 15.299372
endloop
endfacet
facet normal 0 0 0
outer loop
vertex 23.086781 9.906513 15.299372
vertex 23.086781 9.927267 15.299372
vertex 23.066305 9.906513 15.299372
endloop
endfacet
facet normal 0 0 0
outer loop
vertex 23.086781 9.927267 15.299372
vertex 23.066305 9.927267 15.299372
vertex 23.066305 9.906513 15.299372
endloop
endfacet
facet normal 0 0 0
outer loop
vertex 23.107256 9.906513 15.299372
vertex 23.107256 9.927267 15.299372
vertex 23.086781 9.906513 15.299372
endloop
endfacet
facet normal 0 0 0
outer loop
vertex 23.107256 9.927267 15.299372
vertex 23.086781 9.927267 15.299372
vertex 23.086781 9.906513 15.299372
endloop
endfacet
facet normal 0 0 0
outer loop
vertex 23.127731 9.906513 15.299372
vertex 23.127731 9.927267 15.299372
vertex 23.107256 9.906513 15.299372
endloop
endfacet
facet normal 0 0 0
outer loop
vertex 23.127731 9.927267 15.299372
vertex 23.107256 9.927267 15.299372
vertex 23.107256 9.906513 15.299372
endloop
endfacet
facet normal 0 0 0
outer loop
vertex 23.148207 9.906513 15.299372
vertex 23.148207 9.927267 15.299372
vertex 23.127731 9.906513 15.299372
endloop
endfacet
facet normal 0 0 0
outer loop
vertex 23.148207 9.927267 15.299372
vertex 23.127731 9.927267 15.299372
vertex 23.127731 9.906513 15.299372
endloop
endfacet
facet normal 0 0 0
outer loop
vertex 23.168684 9.906513 15.299372
vertex 23.168684 9.927267 15.299372
vertex 23.148207 9.906513 15.299372
endloop
endfacet
facet normal 0 0 0
outer loop
vertex 23.168684 9.927267 15.299372
vertex 23.148207 9.927267 15.299372
vertex 23.148207 9.906513 15.299372
endloop
endfacet
facet normal 0 0 0
outer loop
vertex 23.189159 9.906513 15.299372
vertex 23.168684 9.927267 15.299372
vertex 23.168684 9.906513 15.299372
endloop
endfacet
endsolid B-16-Plag.418
