solid B-16-Plag.323
facet normal 0 0 0
outer loop
vertex 8.794672 10.051786 12.939372
vertex 8.774197 10.051786 12.939372
vertex 8.794672 10.072540 12.939372
endloop
endfacet
facet normal 0 0 0
outer loop
vertex 8.794672 10.072540 12.939372
vertex 8.774197 10.051786 12.939372
vertex 8.774197 10.072540 12.939372
endloop
endfacet
facet normal 0 0 0
outer loop
vertex 8.815147 10.072540 12.939372
vertex 8.794672 10.051786 12.939372
vertex 8.794672 10.072540 12.939372
endloop
endfacet
facet normal 0 0 0
outer loop
vertex 8.835625 10.051786 12.939372
vertex 8.815147 10.051786 12.939372
vertex 8.835625 10.072540 12.939372
endloop
endfacet
facet normal 0 0 0
outer loop
vertex 8.835625 10.072540 12.939372
vertex 8.815147 10.051786 12.939372
vertex 8.815147 10.072540 12.939372
endloop
endfacet
facet normal 0 0 0
outer loop
vertex 8.753721 10.072540 12.939372
vertex 8.733244 10.093293 12.939372
vertex 8.753721 10.093293 12.939372
endloop
endfacet
facet normal 0 0 0
outer loop
vertex 8.774197 10.072540 12.939372
vertex 8.753721 10.072540 12.939372
vertex 8.774197 10.093293 12.939372
endloop
endfacet
facet normal 0 0 0
outer loop
vertex 8.774197 10.093293 12.939372
vertex 8.753721 10.072540 12.939372
vertex 8.753721 10.093293 12.939372
endloop
endfacet
facet normal 0 0 0
outer loop
vertex 8.794672 10.072540 12.939372
vertex 8.774197 10.072540 12.939372
vertex 8.794672 10.093293 12.939372
endloop
endfacet
facet normal 0 0 0
outer loop
vertex 8.794672 10.093293 12.939372
vertex 8.774197 10.072540 12.939372
vertex 8.774197 10.093293 12.939372
endloop
endfacet
facet normal 0 0 0
outer loop
vertex 8.815147 10.072540 12.939372
vertex 8.794672 10.072540 12.939372
vertex 8.815147 10.093293 12.939372
endloop
endfacet
facet normal 0 0 0
outer loop
vertex 8.815147 10.093293 12.939372
vertex 8.794672 10.072540 12.939372
vertex 8.794672 10.093293 12.939372
endloop
endfacet
facet normal 0 0 0
outer loop
vertex 8.835625 10.093293 12.939372
vertex 8.815147 10.072540 12.939372
vertex 8.815147 10.093293 12.939372
endloop
endfacet
facet normal 0 0 0
outer loop
vertex 8.733244 10.093293 12.939372
vertex 8.753721 10.114047 12.939372
vertex 8.753721 10.093293 12.939372
endloop
endfacet
facet normal 0 0 0
outer loop
vertex 8.774197 10.093293 12.939372
vertex 8.753721 10.093293 12.939372
vertex 8.774197 10.114047 12.939372
endloop
endfacet
facet normal 0 0 0
outer loop
vertex 8.774197 10.114047 12.939372
vertex 8.753721 10.093293 12.939372
vertex 8.753721 10.114047 12.939372
endloop
endfacet
facet normal 0 0 0
outer loop
vertex 8.794672 10.093293 12.939372
vertex 8.774197 10.093293 12.939372
vertex 8.794672 10.114047 12.939372
endloop
endfacet
facet normal 0 0 0
outer loop
vertex 8.794672 10.114047 12.939372
vertex 8.774197 10.093293 12.939372
vertex 8.774197 10.114047 12.939372
endloop
endfacet
facet normal 0 0 0
outer loop
vertex 8.815147 10.093293 12.939372
vertex 8.794672 10.093293 12.939372
vertex 8.815147 10.114047 12.939372
endloop
endfacet
facet normal 0 0 0
outer loop
vertex 8.815147 10.114047 12.939372
vertex 8.794672 10.093293 12.939372
vertex 8.794672 10.114047 12.939372
endloop
endfacet
facet normal 0 0 0
outer loop
vertex 8.774197 10.114047 12.939372
vertex 8.753721 10.114047 12.939372
vertex 8.774197 10.134800 12.939372
endloop
endfacet
facet normal 0 0 0
outer loop
vertex 8.774197 10.134800 12.939372
vertex 8.753721 10.114047 12.939372
vertex 8.753721 10.134800 12.939372
endloop
endfacet
facet normal 0 0 0
outer loop
vertex 8.794672 10.114047 12.939372
vertex 8.774197 10.114047 12.939372
vertex 8.794672 10.134800 12.939372
endloop
endfacet
facet normal 0 0 0
outer loop
vertex 8.794672 10.134800 12.939372
vertex 8.774197 10.114047 12.939372
vertex 8.774197 10.134800 12.939372
endloop
endfacet
facet normal 0 0 0
outer loop
vertex 8.794672 10.134800 12.939372
vertex 8.815147 10.114047 12.939372
vertex 8.794672 10.114047 12.939372
endloop
endfacet
facet normal 0 0 0
outer loop
vertex 8.753721 10.072540 12.939372
vertex 8.774197 10.051786 12.939372
vertex 8.774197 10.072540 12.939372
endloop
endfacet
facet normal 0 0 0
outer loop
vertex 8.794672 10.072540 12.959372
vertex 8.774197 10.072540 12.939372
vertex 8.794672 10.051786 12.939372
endloop
endfacet
facet normal 0 0 0
outer loop
vertex 8.774197 10.072540 12.939372
vertex 8.774197 10.051786 12.939372
vertex 8.794672 10.051786 12.939372
endloop
endfacet
facet normal 0 0 0
outer loop
vertex 8.794672 10.072540 12.959372
vertex 8.794672 10.051786 12.939372
vertex 8.815147 10.072540 12.939372
endloop
endfacet
facet normal 0 0 0
outer loop
vertex 8.794672 10.051786 12.939372
vertex 8.815147 10.051786 12.939372
vertex 8.815147 10.072540 12.939372
endloop
endfacet
facet normal 0 0 0
outer loop
vertex 8.753721 10.072540 12.939372
vertex 8.753721 10.093293 12.959372
vertex 8.733244 10.093293 12.939372
endloop
endfacet
facet normal 0 0 0
outer loop
vertex 8.753721 10.093293 12.959372
vertex 8.733244 10.093293 12.959372
vertex 8.733244 10.093293 12.939372
endloop
endfacet
facet normal 0 0 0
outer loop
vertex 8.774197 10.072540 12.939372
vertex 8.753721 10.093293 12.959372
vertex 8.753721 10.072540 12.939372
endloop
endfacet
facet normal 0 0 0
outer loop
vertex 8.774197 10.093293 12.959372
vertex 8.753721 10.093293 12.959372
vertex 8.774197 10.072540 12.939372
endloop
endfacet
facet normal 0 0 0
outer loop
vertex 8.794672 10.072540 12.959372
vertex 8.774197 10.093293 12.959372
vertex 8.774197 10.072540 12.939372
endloop
endfacet
facet normal 0 0 0
outer loop
vertex 8.815147 10.093293 12.939372
vertex 8.794672 10.072540 12.959372
vertex 8.815147 10.072540 12.939372
endloop
endfacet
facet normal 0 0 0
outer loop
vertex 8.794672 10.093293 12.959372
vertex 8.794672 10.072540 12.959372
vertex 8.815147 10.093293 12.939372
endloop
endfacet
facet normal 0 0 0
outer loop
vertex 8.835625 10.072540 12.939372
vertex 8.835625 10.093293 12.939372
vertex 8.815147 10.072540 12.939372
endloop
endfacet
facet normal 0 0 0
outer loop
vertex 8.733244 10.114047 12.959372
vertex 8.733244 10.093293 12.939372
vertex 8.733244 10.093293 12.959372
endloop
endfacet
facet normal 0 0 0
outer loop
vertex 8.733244 10.093293 12.939372
vertex 8.733244 10.114047 12.959372
vertex 8.753721 10.114047 12.939372
endloop
endfacet
facet normal 0 0 0
outer loop
vertex 8.815147 10.114047 12.939372
vertex 8.794672 10.093293 12.959372
vertex 8.815147 10.093293 12.939372
endloop
endfacet
facet normal 0 0 0
outer loop
vertex 8.794672 10.114047 12.959372
vertex 8.794672 10.093293 12.959372
vertex 8.815147 10.114047 12.939372
endloop
endfacet
facet normal 0 0 0
outer loop
vertex 8.835625 10.093293 12.939372
vertex 8.815147 10.114047 12.939372
vertex 8.815147 10.093293 12.939372
endloop
endfacet
facet normal 0 0 0
outer loop
vertex 8.753721 10.114047 12.939372
vertex 8.733244 10.134800 12.959372
vertex 8.753721 10.134800 12.939372
endloop
endfacet
facet normal 0 0 0
outer loop
vertex 8.733244 10.114047 12.959372
vertex 8.733244 10.134800 12.959372
vertex 8.753721 10.114047 12.939372
endloop
endfacet
facet normal 0 0 0
outer loop
vertex 8.794672 10.134800 12.939372
vertex 8.774197 10.134800 12.959372
vertex 8.794672 10.114047 12.959372
endloop
endfacet
facet normal 0 0 0
outer loop
vertex 8.815147 10.114047 12.939372
vertex 8.794672 10.134800 12.939372
vertex 8.794672 10.114047 12.959372
endloop
endfacet
facet normal 0 0 0
outer loop
vertex 8.753721 10.134800 12.939372
vertex 8.733244 10.134800 12.959372
vertex 8.753721 10.134800 12.959372
endloop
endfacet
facet normal 0 0 0
outer loop
vertex 8.774197 10.134800 12.939372
vertex 8.753721 10.134800 12.939372
vertex 8.774197 10.134800 12.959372
endloop
endfacet
facet normal 0 0 0
outer loop
vertex 8.753721 10.134800 12.939372
vertex 8.753721 10.134800 12.959372
vertex 8.774197 10.134800 12.959372
endloop
endfacet
facet normal 0 0 0
outer loop
vertex 8.774197 10.134800 12.959372
vertex 8.794672 10.134800 12.939372
vertex 8.774197 10.134800 12.939372
endloop
endfacet
facet normal 0 0 0
outer loop
vertex 8.774197 10.093293 12.959372
vertex 8.794672 10.072540 12.959372
vertex 8.794672 10.093293 12.959372
endloop
endfacet
facet normal 0 0 0
outer loop
vertex 8.753721 10.093293 12.959372
vertex 8.753721 10.114047 12.959372
vertex 8.733244 10.093293 12.959372
endloop
endfacet
facet normal 0 0 0
outer loop
vertex 8.753721 10.114047 12.959372
vertex 8.733244 10.114047 12.959372
vertex 8.733244 10.093293 12.959372
endloop
endfacet
facet normal 0 0 0
outer loop
vertex 8.774197 10.093293 12.959372
vertex 8.774197 10.114047 12.959372
vertex 8.753721 10.093293 12.959372
endloop
endfacet
facet normal 0 0 0
outer loop
vertex 8.774197 10.114047 12.959372
vertex 8.753721 10.114047 12.959372
vertex 8.753721 10.093293 12.959372
endloop
endfacet
facet normal 0 0 0
outer loop
vertex 8.794672 10.093293 12.959372
vertex 8.794672 10.114047 12.959372
vertex 8.774197 10.093293 12.959372
endloop
endfacet
facet normal 0 0 0
outer loop
vertex 8.794672 10.114047 12.959372
vertex 8.774197 10.114047 12.959372
vertex 8.774197 10.093293 12.959372
endloop
endfacet
facet normal 0 0 0
outer loop
vertex 8.753721 10.114047 12.959372
vertex 8.753721 10.134800 12.959372
vertex 8.733244 10.114047 12.959372
endloop
endfacet
facet normal 0 0 0
outer loop
vertex 8.753721 10.134800 12.959372
vertex 8.733244 10.134800 12.959372
vertex 8.733244 10.114047 12.959372
endloop
endfacet
facet normal 0 0 0
outer loop
vertex 8.774197 10.114047 12.959372
vertex 8.774197 10.134800 12.959372
vertex 8.753721 10.114047 12.959372
endloop
endfacet
facet normal 0 0 0
outer loop
vertex 8.774197 10.134800 12.959372
vertex 8.753721 10.134800 12.959372
vertex 8.753721 10.114047 12.959372
endloop
endfacet
facet normal 0 0 0
outer loop
vertex 8.794672 10.114047 12.959372
vertex 8.774197 10.134800 12.959372
vertex 8.774197 10.114047 12.959372
endloop
endfacet
endsolid B-16-Plag.323
