solid B-16-Plag.199
facet normal 0 0 0
outer loop
vertex 18.704958 1.210871 9.019372
vertex 18.684483 1.231625 9.019372
vertex 18.704958 1.231625 9.019372
endloop
endfacet
facet normal 0 0 0
outer loop
vertex 18.725435 1.231625 9.019372
vertex 18.704958 1.210871 9.019372
vertex 18.704958 1.231625 9.019372
endloop
endfacet
facet normal 0 0 0
outer loop
vertex 18.643532 1.231625 9.019372
vertex 18.623056 1.252378 9.019372
vertex 18.643532 1.252378 9.019372
endloop
endfacet
facet normal 0 0 0
outer loop
vertex 18.664007 1.231625 9.019372
vertex 18.643532 1.231625 9.019372
vertex 18.664007 1.252378 9.019372
endloop
endfacet
facet normal 0 0 0
outer loop
vertex 18.664007 1.252378 9.019372
vertex 18.643532 1.231625 9.019372
vertex 18.643532 1.252378 9.019372
endloop
endfacet
facet normal 0 0 0
outer loop
vertex 18.684483 1.231625 9.019372
vertex 18.664007 1.231625 9.019372
vertex 18.684483 1.252378 9.019372
endloop
endfacet
facet normal 0 0 0
outer loop
vertex 18.684483 1.252378 9.019372
vertex 18.664007 1.231625 9.019372
vertex 18.664007 1.252378 9.019372
endloop
endfacet
facet normal 0 0 0
outer loop
vertex 18.704958 1.231625 9.019372
vertex 18.684483 1.231625 9.019372
vertex 18.704958 1.252378 9.019372
endloop
endfacet
facet normal 0 0 0
outer loop
vertex 18.704958 1.252378 9.019372
vertex 18.684483 1.231625 9.019372
vertex 18.684483 1.252378 9.019372
endloop
endfacet
facet normal 0 0 0
outer loop
vertex 18.725435 1.231625 9.019372
vertex 18.704958 1.231625 9.019372
vertex 18.725435 1.252378 9.019372
endloop
endfacet
facet normal 0 0 0
outer loop
vertex 18.725435 1.252378 9.019372
vertex 18.704958 1.231625 9.019372
vertex 18.704958 1.252378 9.019372
endloop
endfacet
facet normal 0 0 0
outer loop
vertex 18.745911 1.231625 9.019372
vertex 18.725435 1.231625 9.019372
vertex 18.745911 1.252378 9.019372
endloop
endfacet
facet normal 0 0 0
outer loop
vertex 18.745911 1.252378 9.019372
vertex 18.725435 1.231625 9.019372
vertex 18.725435 1.252378 9.019372
endloop
endfacet
facet normal 0 0 0
outer loop
vertex 18.766386 1.252378 9.019372
vertex 18.745911 1.231625 9.019372
vertex 18.745911 1.252378 9.019372
endloop
endfacet
facet normal 0 0 0
outer loop
vertex 18.643532 1.252378 9.019372
vertex 18.623056 1.252378 9.019372
vertex 18.643532 1.273131 9.019372
endloop
endfacet
facet normal 0 0 0
outer loop
vertex 18.643532 1.273131 9.019372
vertex 18.623056 1.252378 9.019372
vertex 18.623056 1.273131 9.019372
endloop
endfacet
facet normal 0 0 0
outer loop
vertex 18.664007 1.252378 9.019372
vertex 18.643532 1.252378 9.019372
vertex 18.664007 1.273131 9.019372
endloop
endfacet
facet normal 0 0 0
outer loop
vertex 18.664007 1.273131 9.019372
vertex 18.643532 1.252378 9.019372
vertex 18.643532 1.273131 9.019372
endloop
endfacet
facet normal 0 0 0
outer loop
vertex 18.684483 1.252378 9.019372
vertex 18.664007 1.252378 9.019372
vertex 18.684483 1.273131 9.019372
endloop
endfacet
facet normal 0 0 0
outer loop
vertex 18.684483 1.273131 9.019372
vertex 18.664007 1.252378 9.019372
vertex 18.664007 1.273131 9.019372
endloop
endfacet
facet normal 0 0 0
outer loop
vertex 18.704958 1.252378 9.019372
vertex 18.684483 1.252378 9.019372
vertex 18.704958 1.273131 9.019372
endloop
endfacet
facet normal 0 0 0
outer loop
vertex 18.704958 1.273131 9.019372
vertex 18.684483 1.252378 9.019372
vertex 18.684483 1.273131 9.019372
endloop
endfacet
facet normal 0 0 0
outer loop
vertex 18.725435 1.252378 9.019372
vertex 18.704958 1.252378 9.019372
vertex 18.725435 1.273131 9.019372
endloop
endfacet
facet normal 0 0 0
outer loop
vertex 18.725435 1.273131 9.019372
vertex 18.704958 1.252378 9.019372
vertex 18.704958 1.273131 9.019372
endloop
endfacet
facet normal 0 0 0
outer loop
vertex 18.745911 1.252378 9.019372
vertex 18.725435 1.252378 9.019372
vertex 18.745911 1.273131 9.019372
endloop
endfacet
facet normal 0 0 0
outer loop
vertex 18.745911 1.273131 9.019372
vertex 18.725435 1.252378 9.019372
vertex 18.725435 1.273131 9.019372
endloop
endfacet
facet normal 0 0 0
outer loop
vertex 18.766386 1.252378 9.019372
vertex 18.745911 1.252378 9.019372
vertex 18.766386 1.273131 9.019372
endloop
endfacet
facet normal 0 0 0
outer loop
vertex 18.766386 1.273131 9.019372
vertex 18.745911 1.252378 9.019372
vertex 18.745911 1.273131 9.019372
endloop
endfacet
facet normal 0 0 0
outer loop
vertex 18.643532 1.273131 9.019372
vertex 18.623056 1.273131 9.019372
vertex 18.643532 1.293885 9.019372
endloop
endfacet
facet normal 0 0 0
outer loop
vertex 18.643532 1.293885 9.019372
vertex 18.623056 1.273131 9.019372
vertex 18.623056 1.293885 9.019372
endloop
endfacet
facet normal 0 0 0
outer loop
vertex 18.664007 1.273131 9.019372
vertex 18.643532 1.273131 9.019372
vertex 18.664007 1.293885 9.019372
endloop
endfacet
facet normal 0 0 0
outer loop
vertex 18.664007 1.293885 9.019372
vertex 18.643532 1.273131 9.019372
vertex 18.643532 1.293885 9.019372
endloop
endfacet
facet normal 0 0 0
outer loop
vertex 18.684483 1.273131 9.019372
vertex 18.664007 1.273131 9.019372
vertex 18.684483 1.293885 9.019372
endloop
endfacet
facet normal 0 0 0
outer loop
vertex 18.684483 1.293885 9.019372
vertex 18.664007 1.273131 9.019372
vertex 18.664007 1.293885 9.019372
endloop
endfacet
facet normal 0 0 0
outer loop
vertex 18.704958 1.273131 9.019372
vertex 18.684483 1.273131 9.019372
vertex 18.704958 1.293885 9.019372
endloop
endfacet
facet normal 0 0 0
outer loop
vertex 18.704958 1.293885 9.019372
vertex 18.684483 1.273131 9.019372
vertex 18.684483 1.293885 9.019372
endloop
endfacet
facet normal 0 0 0
outer loop
vertex 18.725435 1.273131 9.019372
vertex 18.704958 1.273131 9.019372
vertex 18.725435 1.293885 9.019372
endloop
endfacet
facet normal 0 0 0
outer loop
vertex 18.725435 1.293885 9.019372
vertex 18.704958 1.273131 9.019372
vertex 18.704958 1.293885 9.019372
endloop
endfacet
facet normal 0 0 0
outer loop
vertex 18.745911 1.273131 9.019372
vertex 18.725435 1.273131 9.019372
vertex 18.745911 1.293885 9.019372
endloop
endfacet
facet normal 0 0 0
outer loop
vertex 18.745911 1.293885 9.019372
vertex 18.725435 1.273131 9.019372
vertex 18.725435 1.293885 9.019372
endloop
endfacet
facet normal 0 0 0
outer loop
vertex 18.766386 1.273131 9.019372
vertex 18.745911 1.273131 9.019372
vertex 18.766386 1.293885 9.019372
endloop
endfacet
facet normal 0 0 0
outer loop
vertex 18.766386 1.293885 9.019372
vertex 18.745911 1.273131 9.019372
vertex 18.745911 1.293885 9.019372
endloop
endfacet
facet normal 0 0 0
outer loop
vertex 18.643532 1.293885 9.019372
vertex 18.623056 1.293885 9.019372
vertex 18.643532 1.314638 9.019372
endloop
endfacet
facet normal 0 0 0
outer loop
vertex 18.643532 1.314638 9.019372
vertex 18.623056 1.293885 9.019372
vertex 18.623056 1.314638 9.019372
endloop
endfacet
facet normal 0 0 0
outer loop
vertex 18.664007 1.293885 9.019372
vertex 18.643532 1.293885 9.019372
vertex 18.664007 1.314638 9.019372
endloop
endfacet
facet normal 0 0 0
outer loop
vertex 18.664007 1.314638 9.019372
vertex 18.643532 1.293885 9.019372
vertex 18.643532 1.314638 9.019372
endloop
endfacet
facet normal 0 0 0
outer loop
vertex 18.684483 1.293885 9.019372
vertex 18.664007 1.293885 9.019372
vertex 18.684483 1.314638 9.019372
endloop
endfacet
facet normal 0 0 0
outer loop
vertex 18.684483 1.314638 9.019372
vertex 18.664007 1.293885 9.019372
vertex 18.664007 1.314638 9.019372
endloop
endfacet
facet normal 0 0 0
outer loop
vertex 18.704958 1.293885 9.019372
vertex 18.684483 1.293885 9.019372
vertex 18.704958 1.314638 9.019372
endloop
endfacet
facet normal 0 0 0
outer loop
vertex 18.704958 1.314638 9.019372
vertex 18.684483 1.293885 9.019372
vertex 18.684483 1.314638 9.019372
endloop
endfacet
facet normal 0 0 0
outer loop
vertex 18.725435 1.293885 9.019372
vertex 18.704958 1.293885 9.019372
vertex 18.725435 1.314638 9.019372
endloop
endfacet
facet normal 0 0 0
outer loop
vertex 18.725435 1.314638 9.019372
vertex 18.704958 1.293885 9.019372
vertex 18.704958 1.314638 9.019372
endloop
endfacet
facet normal 0 0 0
outer loop
vertex 18.745911 1.293885 9.019372
vertex 18.725435 1.293885 9.019372
vertex 18.745911 1.314638 9.019372
endloop
endfacet
facet normal 0 0 0
outer loop
vertex 18.745911 1.314638 9.019372
vertex 18.725435 1.293885 9.019372
vertex 18.725435 1.314638 9.019372
endloop
endfacet
facet normal 0 0 0
outer loop
vertex 18.766386 1.293885 9.019372
vertex 18.745911 1.293885 9.019372
vertex 18.766386 1.314638 9.019372
endloop
endfacet
facet normal 0 0 0
outer loop
vertex 18.766386 1.314638 9.019372
vertex 18.745911 1.293885 9.019372
vertex 18.745911 1.314638 9.019372
endloop
endfacet
facet normal 0 0 0
outer loop
vertex 18.643532 1.314638 9.019372
vertex 18.623056 1.314638 9.019372
vertex 18.643532 1.335391 9.019372
endloop
endfacet
facet normal 0 0 0
outer loop
vertex 18.643532 1.335391 9.019372
vertex 18.623056 1.314638 9.019372
vertex 18.623056 1.335391 9.019372
endloop
endfacet
facet normal 0 0 0
outer loop
vertex 18.664007 1.314638 9.019372
vertex 18.643532 1.314638 9.019372
vertex 18.664007 1.335391 9.019372
endloop
endfacet
facet normal 0 0 0
outer loop
vertex 18.664007 1.335391 9.019372
vertex 18.643532 1.314638 9.019372
vertex 18.643532 1.335391 9.019372
endloop
endfacet
facet normal 0 0 0
outer loop
vertex 18.684483 1.314638 9.019372
vertex 18.664007 1.314638 9.019372
vertex 18.684483 1.335391 9.019372
endloop
endfacet
facet normal 0 0 0
outer loop
vertex 18.684483 1.335391 9.019372
vertex 18.664007 1.314638 9.019372
vertex 18.664007 1.335391 9.019372
endloop
endfacet
facet normal 0 0 0
outer loop
vertex 18.704958 1.314638 9.019372
vertex 18.684483 1.314638 9.019372
vertex 18.704958 1.335391 9.019372
endloop
endfacet
facet normal 0 0 0
outer loop
vertex 18.704958 1.335391 9.019372
vertex 18.684483 1.314638 9.019372
vertex 18.684483 1.335391 9.019372
endloop
endfacet
facet normal 0 0 0
outer loop
vertex 18.725435 1.314638 9.019372
vertex 18.704958 1.314638 9.019372
vertex 18.725435 1.335391 9.019372
endloop
endfacet
facet normal 0 0 0
outer loop
vertex 18.725435 1.335391 9.019372
vertex 18.704958 1.314638 9.019372
vertex 18.704958 1.335391 9.019372
endloop
endfacet
facet normal 0 0 0
outer loop
vertex 18.745911 1.314638 9.019372
vertex 18.725435 1.314638 9.019372
vertex 18.745911 1.335391 9.019372
endloop
endfacet
facet normal 0 0 0
outer loop
vertex 18.745911 1.335391 9.019372
vertex 18.725435 1.314638 9.019372
vertex 18.725435 1.335391 9.019372
endloop
endfacet
facet normal 0 0 0
outer loop
vertex 18.745911 1.335391 9.019372
vertex 18.766386 1.314638 9.019372
vertex 18.745911 1.314638 9.019372
endloop
endfacet
facet normal 0 0 0
outer loop
vertex 18.664007 1.335391 9.019372
vertex 18.643532 1.335391 9.019372
vertex 18.664007 1.356145 9.019372
endloop
endfacet
facet normal 0 0 0
outer loop
vertex 18.684483 1.335391 9.019372
vertex 18.664007 1.335391 9.019372
vertex 18.684483 1.356145 9.019372
endloop
endfacet
facet normal 0 0 0
outer loop
vertex 18.684483 1.356145 9.019372
vertex 18.664007 1.335391 9.019372
vertex 18.664007 1.356145 9.019372
endloop
endfacet
facet normal 0 0 0
outer loop
vertex 18.704958 1.335391 9.019372
vertex 18.684483 1.335391 9.019372
vertex 18.704958 1.356145 9.019372
endloop
endfacet
facet normal 0 0 0
outer loop
vertex 18.704958 1.356145 9.019372
vertex 18.684483 1.335391 9.019372
vertex 18.684483 1.356145 9.019372
endloop
endfacet
facet normal 0 0 0
outer loop
vertex 18.725435 1.335391 9.019372
vertex 18.704958 1.335391 9.019372
vertex 18.725435 1.356145 9.019372
endloop
endfacet
facet normal 0 0 0
outer loop
vertex 18.725435 1.356145 9.019372
vertex 18.704958 1.335391 9.019372
vertex 18.704958 1.356145 9.019372
endloop
endfacet
facet normal 0 0 0
outer loop
vertex 18.725435 1.356145 9.019372
vertex 18.745911 1.335391 9.019372
vertex 18.725435 1.335391 9.019372
endloop
endfacet
facet normal 0 0 0
outer loop
vertex 18.684483 1.356145 9.019372
vertex 18.664007 1.356145 9.019372
vertex 18.684483 1.376898 9.019372
endloop
endfacet
facet normal 0 0 0
outer loop
vertex 18.684483 1.376898 9.019372
vertex 18.704958 1.356145 9.019372
vertex 18.684483 1.356145 9.019372
endloop
endfacet
facet normal 0 0 0
outer loop
vertex 18.664007 1.169365 9.039371
vertex 18.643532 1.190118 9.039371
vertex 18.664007 1.190118 9.039371
endloop
endfacet
facet normal 0 0 0
outer loop
vertex 18.684483 1.169365 9.039371
vertex 18.664007 1.169365 9.039371
vertex 18.684483 1.190118 9.039371
endloop
endfacet
facet normal 0 0 0
outer loop
vertex 18.684483 1.190118 9.039371
vertex 18.664007 1.169365 9.039371
vertex 18.664007 1.190118 9.039371
endloop
endfacet
facet normal 0 0 0
outer loop
vertex 18.704958 1.169365 9.039371
vertex 18.684483 1.169365 9.039371
vertex 18.704958 1.190118 9.039371
endloop
endfacet
facet normal 0 0 0
outer loop
vertex 18.704958 1.190118 9.039371
vertex 18.684483 1.169365 9.039371
vertex 18.684483 1.190118 9.039371
endloop
endfacet
facet normal 0 0 0
outer loop
vertex 18.725435 1.169365 9.039371
vertex 18.704958 1.169365 9.039371
vertex 18.725435 1.190118 9.039371
endloop
endfacet
facet normal 0 0 0
outer loop
vertex 18.725435 1.190118 9.039371
vertex 18.704958 1.169365 9.039371
vertex 18.704958 1.190118 9.039371
endloop
endfacet
facet normal 0 0 0
outer loop
vertex 18.745911 1.190118 9.039371
vertex 18.725435 1.169365 9.039371
vertex 18.725435 1.190118 9.039371
endloop
endfacet
facet normal 0 0 0
outer loop
vertex 18.643532 1.190118 9.039371
vertex 18.623056 1.190118 9.039371
vertex 18.643532 1.210871 9.039371
endloop
endfacet
facet normal 0 0 0
outer loop
vertex 18.643532 1.210871 9.039371
vertex 18.623056 1.190118 9.039371
vertex 18.623056 1.210871 9.039371
endloop
endfacet
facet normal 0 0 0
outer loop
vertex 18.664007 1.190118 9.039371
vertex 18.643532 1.190118 9.039371
vertex 18.664007 1.210871 9.039371
endloop
endfacet
facet normal 0 0 0
outer loop
vertex 18.664007 1.210871 9.039371
vertex 18.643532 1.190118 9.039371
vertex 18.643532 1.210871 9.039371
endloop
endfacet
facet normal 0 0 0
outer loop
vertex 18.684483 1.190118 9.039371
vertex 18.664007 1.190118 9.039371
vertex 18.684483 1.210871 9.039371
endloop
endfacet
facet normal 0 0 0
outer loop
vertex 18.684483 1.210871 9.039371
vertex 18.664007 1.190118 9.039371
vertex 18.664007 1.210871 9.039371
endloop
endfacet
facet normal 0 0 0
outer loop
vertex 18.704958 1.210871 9.019372
vertex 18.704958 1.190118 9.039371
vertex 18.684483 1.210871 9.039371
endloop
endfacet
facet normal 0 0 0
outer loop
vertex 18.704958 1.190118 9.039371
vertex 18.684483 1.190118 9.039371
vertex 18.684483 1.210871 9.039371
endloop
endfacet
facet normal 0 0 0
outer loop
vertex 18.704958 1.210871 9.019372
vertex 18.725435 1.210871 9.039371
vertex 18.704958 1.190118 9.039371
endloop
endfacet
facet normal 0 0 0
outer loop
vertex 18.725435 1.210871 9.039371
vertex 18.725435 1.190118 9.039371
vertex 18.704958 1.190118 9.039371
endloop
endfacet
facet normal 0 0 0
outer loop
vertex 18.745911 1.190118 9.039371
vertex 18.725435 1.190118 9.039371
vertex 18.745911 1.210871 9.039371
endloop
endfacet
facet normal 0 0 0
outer loop
vertex 18.745911 1.210871 9.039371
vertex 18.725435 1.190118 9.039371
vertex 18.725435 1.210871 9.039371
endloop
endfacet
facet normal 0 0 0
outer loop
vertex 18.766386 1.190118 9.039371
vertex 18.745911 1.190118 9.039371
vertex 18.766386 1.210871 9.039371
endloop
endfacet
facet normal 0 0 0
outer loop
vertex 18.766386 1.210871 9.039371
vertex 18.745911 1.190118 9.039371
vertex 18.745911 1.210871 9.039371
endloop
endfacet
facet normal 0 0 0
outer loop
vertex 18.786861 1.210871 9.039371
vertex 18.766386 1.190118 9.039371
vertex 18.766386 1.210871 9.039371
endloop
endfacet
facet normal 0 0 0
outer loop
vertex 18.643532 1.231625 9.019372
vertex 18.643532 1.210871 9.039371
vertex 18.623056 1.231625 9.039371
endloop
endfacet
facet normal 0 0 0
outer loop
vertex 18.643532 1.210871 9.039371
vertex 18.623056 1.210871 9.039371
vertex 18.623056 1.231625 9.039371
endloop
endfacet
facet normal 0 0 0
outer loop
vertex 18.664007 1.231625 9.019372
vertex 18.643532 1.210871 9.039371
vertex 18.643532 1.231625 9.019372
endloop
endfacet
facet normal 0 0 0
outer loop
vertex 18.664007 1.210871 9.039371
vertex 18.643532 1.210871 9.039371
vertex 18.664007 1.231625 9.019372
endloop
endfacet
facet normal 0 0 0
outer loop
vertex 18.684483 1.231625 9.019372
vertex 18.664007 1.210871 9.039371
vertex 18.664007 1.231625 9.019372
endloop
endfacet
facet normal 0 0 0
outer loop
vertex 18.684483 1.210871 9.039371
vertex 18.664007 1.210871 9.039371
vertex 18.684483 1.231625 9.019372
endloop
endfacet
facet normal 0 0 0
outer loop
vertex 18.704958 1.210871 9.019372
vertex 18.684483 1.210871 9.039371
vertex 18.684483 1.231625 9.019372
endloop
endfacet
facet normal 0 0 0
outer loop
vertex 18.704958 1.210871 9.019372
vertex 18.725435 1.231625 9.019372
vertex 18.725435 1.210871 9.039371
endloop
endfacet
facet normal 0 0 0
outer loop
vertex 18.745911 1.231625 9.019372
vertex 18.725435 1.210871 9.039371
vertex 18.725435 1.231625 9.019372
endloop
endfacet
facet normal 0 0 0
outer loop
vertex 18.745911 1.210871 9.039371
vertex 18.725435 1.210871 9.039371
vertex 18.745911 1.231625 9.019372
endloop
endfacet
facet normal 0 0 0
outer loop
vertex 18.745911 1.231625 9.019372
vertex 18.766386 1.231625 9.039371
vertex 18.745911 1.210871 9.039371
endloop
endfacet
facet normal 0 0 0
outer loop
vertex 18.766386 1.231625 9.039371
vertex 18.766386 1.210871 9.039371
vertex 18.745911 1.210871 9.039371
endloop
endfacet
facet normal 0 0 0
outer loop
vertex 18.786861 1.210871 9.039371
vertex 18.766386 1.210871 9.039371
vertex 18.786861 1.231625 9.039371
endloop
endfacet
facet normal 0 0 0
outer loop
vertex 18.786861 1.231625 9.039371
vertex 18.766386 1.210871 9.039371
vertex 18.766386 1.231625 9.039371
endloop
endfacet
facet normal 0 0 0
outer loop
vertex 18.623056 1.252378 9.019372
vertex 18.602579 1.231625 9.039371
vertex 18.623056 1.252378 9.039371
endloop
endfacet
facet normal 0 0 0
outer loop
vertex 18.623056 1.252378 9.019372
vertex 18.623056 1.231625 9.039371
vertex 18.602579 1.231625 9.039371
endloop
endfacet
facet normal 0 0 0
outer loop
vertex 18.643532 1.231625 9.019372
vertex 18.623056 1.231625 9.039371
vertex 18.623056 1.252378 9.019372
endloop
endfacet
facet normal 0 0 0
outer loop
vertex 18.745911 1.231625 9.019372
vertex 18.766386 1.252378 9.019372
vertex 18.766386 1.231625 9.039371
endloop
endfacet
facet normal 0 0 0
outer loop
vertex 18.766386 1.252378 9.019372
vertex 18.786861 1.252378 9.039371
vertex 18.766386 1.231625 9.039371
endloop
endfacet
facet normal 0 0 0
outer loop
vertex 18.786861 1.252378 9.039371
vertex 18.786861 1.231625 9.039371
vertex 18.766386 1.231625 9.039371
endloop
endfacet
facet normal 0 0 0
outer loop
vertex 18.807339 1.252378 9.039371
vertex 18.786861 1.231625 9.039371
vertex 18.786861 1.252378 9.039371
endloop
endfacet
facet normal 0 0 0
outer loop
vertex 18.623056 1.252378 9.019372
vertex 18.623056 1.252378 9.039371
vertex 18.623056 1.273131 9.019372
endloop
endfacet
facet normal 0 0 0
outer loop
vertex 18.623056 1.252378 9.039371
vertex 18.623056 1.273131 9.039371
vertex 18.623056 1.273131 9.019372
endloop
endfacet
facet normal 0 0 0
outer loop
vertex 18.786861 1.252378 9.039371
vertex 18.766386 1.273131 9.019372
vertex 18.786861 1.273131 9.039371
endloop
endfacet
facet normal 0 0 0
outer loop
vertex 18.766386 1.252378 9.019372
vertex 18.766386 1.273131 9.019372
vertex 18.786861 1.252378 9.039371
endloop
endfacet
facet normal 0 0 0
outer loop
vertex 18.807339 1.252378 9.039371
vertex 18.786861 1.252378 9.039371
vertex 18.807339 1.273131 9.039371
endloop
endfacet
facet normal 0 0 0
outer loop
vertex 18.807339 1.273131 9.039371
vertex 18.786861 1.252378 9.039371
vertex 18.786861 1.273131 9.039371
endloop
endfacet
facet normal 0 0 0
outer loop
vertex 18.623056 1.273131 9.039371
vertex 18.623056 1.293885 9.019372
vertex 18.623056 1.273131 9.019372
endloop
endfacet
facet normal 0 0 0
outer loop
vertex 18.623056 1.273131 9.039371
vertex 18.643532 1.293885 9.039371
vertex 18.623056 1.293885 9.019372
endloop
endfacet
facet normal 0 0 0
outer loop
vertex 18.786861 1.273131 9.039371
vertex 18.766386 1.293885 9.019372
vertex 18.786861 1.293885 9.039371
endloop
endfacet
facet normal 0 0 0
outer loop
vertex 18.766386 1.273131 9.019372
vertex 18.766386 1.293885 9.019372
vertex 18.786861 1.273131 9.039371
endloop
endfacet
facet normal 0 0 0
outer loop
vertex 18.807339 1.273131 9.039371
vertex 18.786861 1.273131 9.039371
vertex 18.807339 1.293885 9.039371
endloop
endfacet
facet normal 0 0 0
outer loop
vertex 18.807339 1.293885 9.039371
vertex 18.786861 1.273131 9.039371
vertex 18.786861 1.293885 9.039371
endloop
endfacet
facet normal 0 0 0
outer loop
vertex 18.643532 1.314638 9.039371
vertex 18.623056 1.293885 9.019372
vertex 18.643532 1.293885 9.039371
endloop
endfacet
facet normal 0 0 0
outer loop
vertex 18.623056 1.314638 9.019372
vertex 18.623056 1.293885 9.019372
vertex 18.643532 1.314638 9.039371
endloop
endfacet
facet normal 0 0 0
outer loop
vertex 18.786861 1.293885 9.039371
vertex 18.766386 1.314638 9.019372
vertex 18.786861 1.314638 9.039371
endloop
endfacet
facet normal 0 0 0
outer loop
vertex 18.766386 1.293885 9.019372
vertex 18.766386 1.314638 9.019372
vertex 18.786861 1.293885 9.039371
endloop
endfacet
facet normal 0 0 0
outer loop
vertex 18.786861 1.314638 9.039371
vertex 18.807339 1.293885 9.039371
vertex 18.786861 1.293885 9.039371
endloop
endfacet
facet normal 0 0 0
outer loop
vertex 18.643532 1.314638 9.039371
vertex 18.643532 1.335391 9.019372
vertex 18.623056 1.314638 9.019372
endloop
endfacet
facet normal 0 0 0
outer loop
vertex 18.643532 1.314638 9.039371
vertex 18.664007 1.335391 9.039371
vertex 18.643532 1.335391 9.019372
endloop
endfacet
facet normal 0 0 0
outer loop
vertex 18.766386 1.314638 9.019372
vertex 18.745911 1.335391 9.019372
vertex 18.766386 1.335391 9.039371
endloop
endfacet
facet normal 0 0 0
outer loop
vertex 18.766386 1.314638 9.019372
vertex 18.766386 1.335391 9.039371
vertex 18.786861 1.314638 9.039371
endloop
endfacet
facet normal 0 0 0
outer loop
vertex 18.643532 1.356145 9.019372
vertex 18.623056 1.335391 9.019372
vertex 18.643532 1.335391 9.019372
endloop
endfacet
facet normal 0 0 0
outer loop
vertex 18.664007 1.335391 9.039371
vertex 18.664007 1.356145 9.019372
vertex 18.643532 1.335391 9.019372
endloop
endfacet
facet normal 0 0 0
outer loop
vertex 18.664007 1.356145 9.019372
vertex 18.643532 1.356145 9.019372
vertex 18.643532 1.335391 9.019372
endloop
endfacet
facet normal 0 0 0
outer loop
vertex 18.664007 1.335391 9.039371
vertex 18.684483 1.356145 9.039371
vertex 18.664007 1.356145 9.019372
endloop
endfacet
facet normal 0 0 0
outer loop
vertex 18.745911 1.335391 9.019372
vertex 18.725435 1.356145 9.019372
vertex 18.745911 1.356145 9.039371
endloop
endfacet
facet normal 0 0 0
outer loop
vertex 18.745911 1.335391 9.019372
vertex 18.745911 1.356145 9.039371
vertex 18.766386 1.335391 9.039371
endloop
endfacet
facet normal 0 0 0
outer loop
vertex 18.664007 1.376898 9.019372
vertex 18.643532 1.356145 9.019372
vertex 18.664007 1.356145 9.019372
endloop
endfacet
facet normal 0 0 0
outer loop
vertex 18.684483 1.356145 9.039371
vertex 18.684483 1.376898 9.019372
vertex 18.664007 1.356145 9.019372
endloop
endfacet
facet normal 0 0 0
outer loop
vertex 18.684483 1.376898 9.019372
vertex 18.664007 1.376898 9.019372
vertex 18.664007 1.356145 9.019372
endloop
endfacet
facet normal 0 0 0
outer loop
vertex 18.684483 1.376898 9.019372
vertex 18.684483 1.356145 9.039371
vertex 18.704958 1.356145 9.019372
endloop
endfacet
facet normal 0 0 0
outer loop
vertex 18.684483 1.356145 9.039371
vertex 18.704958 1.356145 9.039371
vertex 18.704958 1.356145 9.019372
endloop
endfacet
facet normal 0 0 0
outer loop
vertex 18.725435 1.356145 9.019372
vertex 18.704958 1.356145 9.019372
vertex 18.725435 1.356145 9.039371
endloop
endfacet
facet normal 0 0 0
outer loop
vertex 18.704958 1.356145 9.019372
vertex 18.704958 1.356145 9.039371
vertex 18.725435 1.356145 9.039371
endloop
endfacet
facet normal 0 0 0
outer loop
vertex 18.745911 1.356145 9.039371
vertex 18.725435 1.356145 9.019372
vertex 18.725435 1.356145 9.039371
endloop
endfacet
facet normal 0 0 0
outer loop
vertex 18.684483 1.148612 9.059372
vertex 18.664007 1.169365 9.059372
vertex 18.684483 1.169365 9.039371
endloop
endfacet
facet normal 0 0 0
outer loop
vertex 18.664007 1.169365 9.059372
vertex 18.664007 1.169365 9.039371
vertex 18.684483 1.169365 9.039371
endloop
endfacet
facet normal 0 0 0
outer loop
vertex 18.704958 1.169365 9.039371
vertex 18.684483 1.148612 9.059372
vertex 18.684483 1.169365 9.039371
endloop
endfacet
facet normal 0 0 0
outer loop
vertex 18.704958 1.148612 9.059372
vertex 18.684483 1.148612 9.059372
vertex 18.704958 1.169365 9.039371
endloop
endfacet
facet normal 0 0 0
outer loop
vertex 18.725435 1.169365 9.039371
vertex 18.704958 1.148612 9.059372
vertex 18.704958 1.169365 9.039371
endloop
endfacet
facet normal 0 0 0
outer loop
vertex 18.725435 1.148612 9.059372
vertex 18.704958 1.148612 9.059372
vertex 18.725435 1.169365 9.039371
endloop
endfacet
facet normal 0 0 0
outer loop
vertex 18.725435 1.169365 9.039371
vertex 18.745911 1.169365 9.059372
vertex 18.725435 1.148612 9.059372
endloop
endfacet
facet normal 0 0 0
outer loop
vertex 18.745911 1.169365 9.059372
vertex 18.745911 1.148612 9.059372
vertex 18.725435 1.148612 9.059372
endloop
endfacet
facet normal 0 0 0
outer loop
vertex 18.766386 1.148612 9.059372
vertex 18.745911 1.148612 9.059372
vertex 18.766386 1.169365 9.059372
endloop
endfacet
facet normal 0 0 0
outer loop
vertex 18.766386 1.169365 9.059372
vertex 18.745911 1.148612 9.059372
vertex 18.745911 1.169365 9.059372
endloop
endfacet
facet normal 0 0 0
outer loop
vertex 18.786861 1.169365 9.059372
vertex 18.766386 1.148612 9.059372
vertex 18.766386 1.169365 9.059372
endloop
endfacet
facet normal 0 0 0
outer loop
vertex 18.643532 1.190118 9.059372
vertex 18.623056 1.190118 9.039371
vertex 18.643532 1.190118 9.039371
endloop
endfacet
facet normal 0 0 0
outer loop
vertex 18.664007 1.169365 9.059372
vertex 18.643532 1.190118 9.039371
vertex 18.664007 1.169365 9.039371
endloop
endfacet
facet normal 0 0 0
outer loop
vertex 18.643532 1.190118 9.059372
vertex 18.643532 1.190118 9.039371
vertex 18.664007 1.169365 9.059372
endloop
endfacet
facet normal 0 0 0
outer loop
vertex 18.725435 1.169365 9.039371
vertex 18.745911 1.190118 9.039371
vertex 18.745911 1.169365 9.059372
endloop
endfacet
facet normal 0 0 0
outer loop
vertex 18.766386 1.190118 9.039371
vertex 18.745911 1.169365 9.059372
vertex 18.745911 1.190118 9.039371
endloop
endfacet
facet normal 0 0 0
outer loop
vertex 18.766386 1.169365 9.059372
vertex 18.745911 1.169365 9.059372
vertex 18.766386 1.190118 9.039371
endloop
endfacet
facet normal 0 0 0
outer loop
vertex 18.766386 1.190118 9.039371
vertex 18.786861 1.190118 9.059372
vertex 18.766386 1.169365 9.059372
endloop
endfacet
facet normal 0 0 0
outer loop
vertex 18.786861 1.190118 9.059372
vertex 18.786861 1.169365 9.059372
vertex 18.766386 1.169365 9.059372
endloop
endfacet
facet normal 0 0 0
outer loop
vertex 18.807339 1.190118 9.059372
vertex 18.786861 1.169365 9.059372
vertex 18.786861 1.190118 9.059372
endloop
endfacet
facet normal 0 0 0
outer loop
vertex 18.643532 1.210871 9.059372
vertex 18.623056 1.190118 9.039371
vertex 18.643532 1.190118 9.059372
endloop
endfacet
facet normal 0 0 0
outer loop
vertex 18.623056 1.210871 9.039371
vertex 18.623056 1.190118 9.039371
vertex 18.643532 1.210871 9.059372
endloop
endfacet
facet normal 0 0 0
outer loop
vertex 18.766386 1.190118 9.039371
vertex 18.786861 1.210871 9.039371
vertex 18.786861 1.190118 9.059372
endloop
endfacet
facet normal 0 0 0
outer loop
vertex 18.786861 1.210871 9.039371
vertex 18.807339 1.210871 9.059372
vertex 18.786861 1.190118 9.059372
endloop
endfacet
facet normal 0 0 0
outer loop
vertex 18.807339 1.210871 9.059372
vertex 18.807339 1.190118 9.059372
vertex 18.786861 1.190118 9.059372
endloop
endfacet
facet normal 0 0 0
outer loop
vertex 18.827814 1.210871 9.059372
vertex 18.807339 1.190118 9.059372
vertex 18.807339 1.210871 9.059372
endloop
endfacet
facet normal 0 0 0
outer loop
vertex 18.602579 1.231625 9.039371
vertex 18.623056 1.210871 9.039371
vertex 18.623056 1.231625 9.039371
endloop
endfacet
facet normal 0 0 0
outer loop
vertex 18.643532 1.231625 9.059372
vertex 18.623056 1.210871 9.039371
vertex 18.643532 1.210871 9.059372
endloop
endfacet
facet normal 0 0 0
outer loop
vertex 18.623056 1.231625 9.039371
vertex 18.623056 1.210871 9.039371
vertex 18.643532 1.231625 9.059372
endloop
endfacet
facet normal 0 0 0
outer loop
vertex 18.807339 1.210871 9.059372
vertex 18.786861 1.231625 9.039371
vertex 18.807339 1.231625 9.059372
endloop
endfacet
facet normal 0 0 0
outer loop
vertex 18.786861 1.210871 9.039371
vertex 18.786861 1.231625 9.039371
vertex 18.807339 1.210871 9.059372
endloop
endfacet
facet normal 0 0 0
outer loop
vertex 18.827814 1.210871 9.059372
vertex 18.807339 1.210871 9.059372
vertex 18.827814 1.231625 9.059372
endloop
endfacet
facet normal 0 0 0
outer loop
vertex 18.827814 1.231625 9.059372
vertex 18.807339 1.210871 9.059372
vertex 18.807339 1.231625 9.059372
endloop
endfacet
facet normal 0 0 0
outer loop
vertex 18.848289 1.231625 9.059372
vertex 18.827814 1.210871 9.059372
vertex 18.827814 1.231625 9.059372
endloop
endfacet
facet normal 0 0 0
outer loop
vertex 18.623056 1.252378 9.039371
vertex 18.602579 1.231625 9.039371
vertex 18.623056 1.231625 9.039371
endloop
endfacet
facet normal 0 0 0
outer loop
vertex 18.643532 1.252378 9.059372
vertex 18.623056 1.231625 9.039371
vertex 18.643532 1.231625 9.059372
endloop
endfacet
facet normal 0 0 0
outer loop
vertex 18.623056 1.252378 9.039371
vertex 18.623056 1.231625 9.039371
vertex 18.643532 1.252378 9.059372
endloop
endfacet
facet normal 0 0 0
outer loop
vertex 18.786861 1.231625 9.039371
vertex 18.807339 1.252378 9.039371
vertex 18.807339 1.231625 9.059372
endloop
endfacet
facet normal 0 0 0
outer loop
vertex 18.807339 1.252378 9.039371
vertex 18.827814 1.252378 9.059372
vertex 18.807339 1.231625 9.059372
endloop
endfacet
facet normal 0 0 0
outer loop
vertex 18.827814 1.252378 9.059372
vertex 18.827814 1.231625 9.059372
vertex 18.807339 1.231625 9.059372
endloop
endfacet
facet normal 0 0 0
outer loop
vertex 18.827814 1.252378 9.059372
vertex 18.848289 1.231625 9.059372
vertex 18.827814 1.231625 9.059372
endloop
endfacet
facet normal 0 0 0
outer loop
vertex 18.643532 1.273131 9.059372
vertex 18.623056 1.252378 9.039371
vertex 18.643532 1.252378 9.059372
endloop
endfacet
facet normal 0 0 0
outer loop
vertex 18.623056 1.273131 9.039371
vertex 18.623056 1.252378 9.039371
vertex 18.643532 1.273131 9.059372
endloop
endfacet
facet normal 0 0 0
outer loop
vertex 18.827814 1.252378 9.059372
vertex 18.807339 1.273131 9.039371
vertex 18.827814 1.273131 9.059372
endloop
endfacet
facet normal 0 0 0
outer loop
vertex 18.807339 1.252378 9.039371
vertex 18.807339 1.273131 9.039371
vertex 18.827814 1.252378 9.059372
endloop
endfacet
facet normal 0 0 0
outer loop
vertex 18.623056 1.273131 9.039371
vertex 18.643532 1.273131 9.059372
vertex 18.643532 1.293885 9.039371
endloop
endfacet
facet normal 0 0 0
outer loop
vertex 18.643532 1.273131 9.059372
vertex 18.643532 1.293885 9.059372
vertex 18.643532 1.293885 9.039371
endloop
endfacet
facet normal 0 0 0
outer loop
vertex 18.827814 1.273131 9.059372
vertex 18.807339 1.293885 9.039371
vertex 18.827814 1.293885 9.059372
endloop
endfacet
facet normal 0 0 0
outer loop
vertex 18.807339 1.273131 9.039371
vertex 18.807339 1.293885 9.039371
vertex 18.827814 1.273131 9.059372
endloop
endfacet
facet normal 0 0 0
outer loop
vertex 18.643532 1.293885 9.059372
vertex 18.643532 1.314638 9.039371
vertex 18.643532 1.293885 9.039371
endloop
endfacet
facet normal 0 0 0
outer loop
vertex 18.643532 1.293885 9.059372
vertex 18.664007 1.314638 9.059372
vertex 18.643532 1.314638 9.039371
endloop
endfacet
facet normal 0 0 0
outer loop
vertex 18.807339 1.293885 9.039371
vertex 18.786861 1.314638 9.039371
vertex 18.807339 1.314638 9.059372
endloop
endfacet
facet normal 0 0 0
outer loop
vertex 18.807339 1.293885 9.039371
vertex 18.807339 1.314638 9.059372
vertex 18.827814 1.293885 9.059372
endloop
endfacet
facet normal 0 0 0
outer loop
vertex 18.807339 1.314638 9.059372
vertex 18.827814 1.314638 9.059372
vertex 18.827814 1.293885 9.059372
endloop
endfacet
facet normal 0 0 0
outer loop
vertex 18.643532 1.314638 9.039371
vertex 18.664007 1.314638 9.059372
vertex 18.664007 1.335391 9.039371
endloop
endfacet
facet normal 0 0 0
outer loop
vertex 18.664007 1.314638 9.059372
vertex 18.684483 1.335391 9.059372
vertex 18.664007 1.335391 9.039371
endloop
endfacet
facet normal 0 0 0
outer loop
vertex 18.786861 1.314638 9.039371
vertex 18.766386 1.335391 9.039371
vertex 18.786861 1.335391 9.059372
endloop
endfacet
facet normal 0 0 0
outer loop
vertex 18.786861 1.314638 9.039371
vertex 18.786861 1.335391 9.059372
vertex 18.807339 1.314638 9.059372
endloop
endfacet
facet normal 0 0 0
outer loop
vertex 18.786861 1.335391 9.059372
vertex 18.807339 1.335391 9.059372
vertex 18.807339 1.314638 9.059372
endloop
endfacet
facet normal 0 0 0
outer loop
vertex 18.807339 1.335391 9.059372
vertex 18.827814 1.314638 9.059372
vertex 18.807339 1.314638 9.059372
endloop
endfacet
facet normal 0 0 0
outer loop
vertex 18.664007 1.335391 9.039371
vertex 18.684483 1.335391 9.059372
vertex 18.684483 1.356145 9.039371
endloop
endfacet
facet normal 0 0 0
outer loop
vertex 18.684483 1.356145 9.039371
vertex 18.704958 1.335391 9.059372
vertex 18.704958 1.356145 9.039371
endloop
endfacet
facet normal 0 0 0
outer loop
vertex 18.684483 1.335391 9.059372
vertex 18.704958 1.335391 9.059372
vertex 18.684483 1.356145 9.039371
endloop
endfacet
facet normal 0 0 0
outer loop
vertex 18.704958 1.335391 9.059372
vertex 18.725435 1.356145 9.059372
vertex 18.704958 1.356145 9.039371
endloop
endfacet
facet normal 0 0 0
outer loop
vertex 18.766386 1.335391 9.039371
vertex 18.745911 1.356145 9.039371
vertex 18.766386 1.356145 9.059372
endloop
endfacet
facet normal 0 0 0
outer loop
vertex 18.766386 1.335391 9.039371
vertex 18.766386 1.356145 9.059372
vertex 18.786861 1.335391 9.059372
endloop
endfacet
facet normal 0 0 0
outer loop
vertex 18.704958 1.356145 9.039371
vertex 18.725435 1.356145 9.059372
vertex 18.725435 1.356145 9.039371
endloop
endfacet
facet normal 0 0 0
outer loop
vertex 18.745911 1.356145 9.039371
vertex 18.725435 1.356145 9.039371
vertex 18.745911 1.356145 9.059372
endloop
endfacet
facet normal 0 0 0
outer loop
vertex 18.725435 1.356145 9.039371
vertex 18.725435 1.356145 9.059372
vertex 18.745911 1.356145 9.059372
endloop
endfacet
facet normal 0 0 0
outer loop
vertex 18.766386 1.356145 9.059372
vertex 18.745911 1.356145 9.039371
vertex 18.745911 1.356145 9.059372
endloop
endfacet
facet normal 0 0 0
outer loop
vertex 18.664007 1.169365 9.059372
vertex 18.684483 1.148612 9.059372
vertex 18.684483 1.169365 9.059372
endloop
endfacet
facet normal 0 0 0
outer loop
vertex 18.704958 1.169365 9.079372
vertex 18.684483 1.169365 9.059372
vertex 18.704958 1.148612 9.059372
endloop
endfacet
facet normal 0 0 0
outer loop
vertex 18.684483 1.169365 9.059372
vertex 18.684483 1.148612 9.059372
vertex 18.704958 1.148612 9.059372
endloop
endfacet
facet normal 0 0 0
outer loop
vertex 18.725435 1.148612 9.059372
vertex 18.704958 1.169365 9.079372
vertex 18.704958 1.148612 9.059372
endloop
endfacet
facet normal 0 0 0
outer loop
vertex 18.725435 1.169365 9.079372
vertex 18.704958 1.169365 9.079372
vertex 18.725435 1.148612 9.059372
endloop
endfacet
facet normal 0 0 0
outer loop
vertex 18.745911 1.148612 9.059372
vertex 18.725435 1.169365 9.079372
vertex 18.725435 1.148612 9.059372
endloop
endfacet
facet normal 0 0 0
outer loop
vertex 18.745911 1.169365 9.079372
vertex 18.725435 1.169365 9.079372
vertex 18.745911 1.148612 9.059372
endloop
endfacet
facet normal 0 0 0
outer loop
vertex 18.766386 1.148612 9.059372
vertex 18.745911 1.169365 9.079372
vertex 18.745911 1.148612 9.059372
endloop
endfacet
facet normal 0 0 0
outer loop
vertex 18.766386 1.169365 9.079372
vertex 18.745911 1.169365 9.079372
vertex 18.766386 1.148612 9.059372
endloop
endfacet
facet normal 0 0 0
outer loop
vertex 18.766386 1.148612 9.059372
vertex 18.786861 1.169365 9.059372
vertex 18.766386 1.169365 9.079372
endloop
endfacet
facet normal 0 0 0
outer loop
vertex 18.786861 1.169365 9.059372
vertex 18.786861 1.169365 9.079372
vertex 18.766386 1.169365 9.079372
endloop
endfacet
facet normal 0 0 0
outer loop
vertex 18.643532 1.190118 9.059372
vertex 18.664007 1.169365 9.059372
vertex 18.664007 1.190118 9.059372
endloop
endfacet
facet normal 0 0 0
outer loop
vertex 18.684483 1.190118 9.079372
vertex 18.664007 1.190118 9.059372
vertex 18.684483 1.169365 9.059372
endloop
endfacet
facet normal 0 0 0
outer loop
vertex 18.664007 1.190118 9.059372
vertex 18.664007 1.169365 9.059372
vertex 18.684483 1.169365 9.059372
endloop
endfacet
facet normal 0 0 0
outer loop
vertex 18.704958 1.169365 9.079372
vertex 18.684483 1.190118 9.079372
vertex 18.684483 1.169365 9.059372
endloop
endfacet
facet normal 0 0 0
outer loop
vertex 18.786861 1.169365 9.059372
vertex 18.807339 1.190118 9.079372
vertex 18.786861 1.169365 9.079372
endloop
endfacet
facet normal 0 0 0
outer loop
vertex 18.807339 1.190118 9.059372
vertex 18.807339 1.190118 9.079372
vertex 18.786861 1.169365 9.059372
endloop
endfacet
facet normal 0 0 0
outer loop
vertex 18.664007 1.210871 9.079372
vertex 18.643532 1.210871 9.059372
vertex 18.664007 1.190118 9.059372
endloop
endfacet
facet normal 0 0 0
outer loop
vertex 18.643532 1.210871 9.059372
vertex 18.643532 1.190118 9.059372
vertex 18.664007 1.190118 9.059372
endloop
endfacet
facet normal 0 0 0
outer loop
vertex 18.684483 1.190118 9.079372
vertex 18.664007 1.210871 9.079372
vertex 18.664007 1.190118 9.059372
endloop
endfacet
facet normal 0 0 0
outer loop
vertex 18.807339 1.190118 9.059372
vertex 18.827814 1.210871 9.079372
vertex 18.807339 1.190118 9.079372
endloop
endfacet
facet normal 0 0 0
outer loop
vertex 18.827814 1.210871 9.059372
vertex 18.827814 1.210871 9.079372
vertex 18.807339 1.190118 9.059372
endloop
endfacet
facet normal 0 0 0
outer loop
vertex 18.664007 1.231625 9.079372
vertex 18.643532 1.210871 9.059372
vertex 18.664007 1.210871 9.079372
endloop
endfacet
facet normal 0 0 0
outer loop
vertex 18.643532 1.231625 9.059372
vertex 18.643532 1.210871 9.059372
vertex 18.664007 1.231625 9.079372
endloop
endfacet
facet normal 0 0 0
outer loop
vertex 18.827814 1.210871 9.059372
vertex 18.848289 1.231625 9.079372
vertex 18.827814 1.210871 9.079372
endloop
endfacet
facet normal 0 0 0
outer loop
vertex 18.848289 1.231625 9.059372
vertex 18.848289 1.231625 9.079372
vertex 18.827814 1.210871 9.059372
endloop
endfacet
facet normal 0 0 0
outer loop
vertex 18.643532 1.231625 9.059372
vertex 18.643532 1.252378 9.079372
vertex 18.643532 1.252378 9.059372
endloop
endfacet
facet normal 0 0 0
outer loop
vertex 18.664007 1.231625 9.079372
vertex 18.643532 1.252378 9.079372
vertex 18.643532 1.231625 9.059372
endloop
endfacet
facet normal 0 0 0
outer loop
vertex 18.848289 1.231625 9.059372
vertex 18.827814 1.252378 9.059372
vertex 18.848289 1.252378 9.079372
endloop
endfacet
facet normal 0 0 0
outer loop
vertex 18.848289 1.231625 9.059372
vertex 18.848289 1.252378 9.079372
vertex 18.848289 1.231625 9.079372
endloop
endfacet
facet normal 0 0 0
outer loop
vertex 18.643532 1.252378 9.079372
vertex 18.643532 1.273131 9.059372
vertex 18.643532 1.252378 9.059372
endloop
endfacet
facet normal 0 0 0
outer loop
vertex 18.643532 1.252378 9.079372
vertex 18.664007 1.273131 9.079372
vertex 18.643532 1.273131 9.059372
endloop
endfacet
facet normal 0 0 0
outer loop
vertex 18.848289 1.252378 9.079372
vertex 18.827814 1.273131 9.059372
vertex 18.848289 1.273131 9.079372
endloop
endfacet
facet normal 0 0 0
outer loop
vertex 18.827814 1.252378 9.059372
vertex 18.827814 1.273131 9.059372
vertex 18.848289 1.252378 9.079372
endloop
endfacet
facet normal 0 0 0
outer loop
vertex 18.664007 1.293885 9.079372
vertex 18.643532 1.273131 9.059372
vertex 18.664007 1.273131 9.079372
endloop
endfacet
facet normal 0 0 0
outer loop
vertex 18.643532 1.293885 9.059372
vertex 18.643532 1.273131 9.059372
vertex 18.664007 1.293885 9.079372
endloop
endfacet
facet normal 0 0 0
outer loop
vertex 18.848289 1.273131 9.079372
vertex 18.827814 1.293885 9.059372
vertex 18.848289 1.293885 9.079372
endloop
endfacet
facet normal 0 0 0
outer loop
vertex 18.827814 1.273131 9.059372
vertex 18.827814 1.293885 9.059372
vertex 18.848289 1.273131 9.079372
endloop
endfacet
facet normal 0 0 0
outer loop
vertex 18.643532 1.293885 9.059372
vertex 18.664007 1.293885 9.079372
vertex 18.664007 1.314638 9.059372
endloop
endfacet
facet normal 0 0 0
outer loop
vertex 18.664007 1.314638 9.059372
vertex 18.684483 1.293885 9.079372
vertex 18.684483 1.314638 9.059372
endloop
endfacet
facet normal 0 0 0
outer loop
vertex 18.664007 1.293885 9.079372
vertex 18.684483 1.293885 9.079372
vertex 18.664007 1.314638 9.059372
endloop
endfacet
facet normal 0 0 0
outer loop
vertex 18.684483 1.293885 9.079372
vertex 18.704958 1.314638 9.079372
vertex 18.684483 1.314638 9.059372
endloop
endfacet
facet normal 0 0 0
outer loop
vertex 18.848289 1.293885 9.079372
vertex 18.827814 1.293885 9.059372
vertex 18.827814 1.314638 9.079372
endloop
endfacet
facet normal 0 0 0
outer loop
vertex 18.827814 1.293885 9.059372
vertex 18.827814 1.314638 9.059372
vertex 18.827814 1.314638 9.079372
endloop
endfacet
facet normal 0 0 0
outer loop
vertex 18.684483 1.335391 9.059372
vertex 18.664007 1.314638 9.059372
vertex 18.684483 1.314638 9.059372
endloop
endfacet
facet normal 0 0 0
outer loop
vertex 18.704958 1.314638 9.079372
vertex 18.704958 1.335391 9.059372
vertex 18.684483 1.314638 9.059372
endloop
endfacet
facet normal 0 0 0
outer loop
vertex 18.704958 1.335391 9.059372
vertex 18.684483 1.335391 9.059372
vertex 18.684483 1.314638 9.059372
endloop
endfacet
facet normal 0 0 0
outer loop
vertex 18.704958 1.314638 9.079372
vertex 18.725435 1.335391 9.079372
vertex 18.704958 1.335391 9.059372
endloop
endfacet
facet normal 0 0 0
outer loop
vertex 18.827814 1.314638 9.059372
vertex 18.807339 1.335391 9.059372
vertex 18.827814 1.335391 9.079372
endloop
endfacet
facet normal 0 0 0
outer loop
vertex 18.827814 1.314638 9.059372
vertex 18.827814 1.335391 9.079372
vertex 18.827814 1.314638 9.079372
endloop
endfacet
facet normal 0 0 0
outer loop
vertex 18.704958 1.335391 9.059372
vertex 18.725435 1.335391 9.079372
vertex 18.725435 1.356145 9.059372
endloop
endfacet
facet normal 0 0 0
outer loop
vertex 18.725435 1.335391 9.079372
vertex 18.745911 1.356145 9.079372
vertex 18.725435 1.356145 9.059372
endloop
endfacet
facet normal 0 0 0
outer loop
vertex 18.786861 1.335391 9.059372
vertex 18.766386 1.356145 9.059372
vertex 18.786861 1.356145 9.079372
endloop
endfacet
facet normal 0 0 0
outer loop
vertex 18.786861 1.335391 9.059372
vertex 18.807339 1.356145 9.079372
vertex 18.807339 1.335391 9.059372
endloop
endfacet
facet normal 0 0 0
outer loop
vertex 18.786861 1.356145 9.079372
vertex 18.807339 1.356145 9.079372
vertex 18.786861 1.335391 9.059372
endloop
endfacet
facet normal 0 0 0
outer loop
vertex 18.807339 1.335391 9.059372
vertex 18.807339 1.356145 9.079372
vertex 18.827814 1.335391 9.079372
endloop
endfacet
facet normal 0 0 0
outer loop
vertex 18.725435 1.356145 9.059372
vertex 18.745911 1.356145 9.079372
vertex 18.745911 1.356145 9.059372
endloop
endfacet
facet normal 0 0 0
outer loop
vertex 18.766386 1.356145 9.059372
vertex 18.745911 1.356145 9.059372
vertex 18.766386 1.356145 9.079372
endloop
endfacet
facet normal 0 0 0
outer loop
vertex 18.745911 1.356145 9.059372
vertex 18.745911 1.356145 9.079372
vertex 18.766386 1.356145 9.079372
endloop
endfacet
facet normal 0 0 0
outer loop
vertex 18.786861 1.356145 9.079372
vertex 18.766386 1.356145 9.059372
vertex 18.766386 1.356145 9.079372
endloop
endfacet
facet normal 0 0 0
outer loop
vertex 18.684483 1.190118 9.079372
vertex 18.704958 1.169365 9.079372
vertex 18.704958 1.190118 9.079372
endloop
endfacet
facet normal 0 0 0
outer loop
vertex 18.725435 1.169365 9.079372
vertex 18.725435 1.190118 9.079372
vertex 18.704958 1.169365 9.079372
endloop
endfacet
facet normal 0 0 0
outer loop
vertex 18.725435 1.190118 9.079372
vertex 18.704958 1.190118 9.079372
vertex 18.704958 1.169365 9.079372
endloop
endfacet
facet normal 0 0 0
outer loop
vertex 18.745911 1.169365 9.079372
vertex 18.745911 1.190118 9.079372
vertex 18.725435 1.169365 9.079372
endloop
endfacet
facet normal 0 0 0
outer loop
vertex 18.745911 1.190118 9.079372
vertex 18.725435 1.190118 9.079372
vertex 18.725435 1.169365 9.079372
endloop
endfacet
facet normal 0 0 0
outer loop
vertex 18.766386 1.169365 9.079372
vertex 18.766386 1.190118 9.079372
vertex 18.745911 1.169365 9.079372
endloop
endfacet
facet normal 0 0 0
outer loop
vertex 18.766386 1.190118 9.079372
vertex 18.745911 1.190118 9.079372
vertex 18.745911 1.169365 9.079372
endloop
endfacet
facet normal 0 0 0
outer loop
vertex 18.786861 1.169365 9.079372
vertex 18.786861 1.190118 9.079372
vertex 18.766386 1.169365 9.079372
endloop
endfacet
facet normal 0 0 0
outer loop
vertex 18.786861 1.190118 9.079372
vertex 18.766386 1.190118 9.079372
vertex 18.766386 1.169365 9.079372
endloop
endfacet
facet normal 0 0 0
outer loop
vertex 18.786861 1.169365 9.079372
vertex 18.807339 1.190118 9.079372
vertex 18.786861 1.190118 9.079372
endloop
endfacet
facet normal 0 0 0
outer loop
vertex 18.684483 1.190118 9.079372
vertex 18.684483 1.210871 9.099372
vertex 18.664007 1.210871 9.079372
endloop
endfacet
facet normal 0 0 0
outer loop
vertex 18.704958 1.190118 9.079372
vertex 18.684483 1.210871 9.099372
vertex 18.684483 1.190118 9.079372
endloop
endfacet
facet normal 0 0 0
outer loop
vertex 18.704958 1.210871 9.099372
vertex 18.684483 1.210871 9.099372
vertex 18.704958 1.190118 9.079372
endloop
endfacet
facet normal 0 0 0
outer loop
vertex 18.725435 1.190118 9.079372
vertex 18.704958 1.210871 9.099372
vertex 18.704958 1.190118 9.079372
endloop
endfacet
facet normal 0 0 0
outer loop
vertex 18.725435 1.210871 9.099372
vertex 18.704958 1.210871 9.099372
vertex 18.725435 1.190118 9.079372
endloop
endfacet
facet normal 0 0 0
outer loop
vertex 18.745911 1.190118 9.079372
vertex 18.725435 1.210871 9.099372
vertex 18.725435 1.190118 9.079372
endloop
endfacet
facet normal 0 0 0
outer loop
vertex 18.745911 1.210871 9.099372
vertex 18.725435 1.210871 9.099372
vertex 18.745911 1.190118 9.079372
endloop
endfacet
facet normal 0 0 0
outer loop
vertex 18.766386 1.190118 9.079372
vertex 18.745911 1.210871 9.099372
vertex 18.745911 1.190118 9.079372
endloop
endfacet
facet normal 0 0 0
outer loop
vertex 18.766386 1.210871 9.099372
vertex 18.745911 1.210871 9.099372
vertex 18.766386 1.190118 9.079372
endloop
endfacet
facet normal 0 0 0
outer loop
vertex 18.786861 1.190118 9.079372
vertex 18.766386 1.210871 9.099372
vertex 18.766386 1.190118 9.079372
endloop
endfacet
facet normal 0 0 0
outer loop
vertex 18.786861 1.210871 9.099372
vertex 18.766386 1.210871 9.099372
vertex 18.786861 1.190118 9.079372
endloop
endfacet
facet normal 0 0 0
outer loop
vertex 18.786861 1.210871 9.099372
vertex 18.786861 1.190118 9.079372
vertex 18.807339 1.210871 9.079372
endloop
endfacet
facet normal 0 0 0
outer loop
vertex 18.786861 1.190118 9.079372
vertex 18.807339 1.190118 9.079372
vertex 18.807339 1.210871 9.079372
endloop
endfacet
facet normal 0 0 0
outer loop
vertex 18.807339 1.190118 9.079372
vertex 18.827814 1.210871 9.079372
vertex 18.807339 1.210871 9.079372
endloop
endfacet
facet normal 0 0 0
outer loop
vertex 18.684483 1.231625 9.099372
vertex 18.664007 1.210871 9.079372
vertex 18.684483 1.210871 9.099372
endloop
endfacet
facet normal 0 0 0
outer loop
vertex 18.664007 1.231625 9.079372
vertex 18.664007 1.210871 9.079372
vertex 18.684483 1.231625 9.099372
endloop
endfacet
facet normal 0 0 0
outer loop
vertex 18.807339 1.210871 9.079372
vertex 18.807339 1.231625 9.099372
vertex 18.786861 1.210871 9.099372
endloop
endfacet
facet normal 0 0 0
outer loop
vertex 18.827814 1.210871 9.079372
vertex 18.807339 1.231625 9.099372
vertex 18.807339 1.210871 9.079372
endloop
endfacet
facet normal 0 0 0
outer loop
vertex 18.827814 1.231625 9.099372
vertex 18.807339 1.231625 9.099372
vertex 18.827814 1.210871 9.079372
endloop
endfacet
facet normal 0 0 0
outer loop
vertex 18.848289 1.231625 9.079372
vertex 18.827814 1.231625 9.099372
vertex 18.827814 1.210871 9.079372
endloop
endfacet
facet normal 0 0 0
outer loop
vertex 18.664007 1.231625 9.079372
vertex 18.664007 1.252378 9.099372
vertex 18.643532 1.252378 9.079372
endloop
endfacet
facet normal 0 0 0
outer loop
vertex 18.684483 1.231625 9.099372
vertex 18.664007 1.252378 9.099372
vertex 18.664007 1.231625 9.079372
endloop
endfacet
facet normal 0 0 0
outer loop
vertex 18.848289 1.231625 9.079372
vertex 18.848289 1.252378 9.099372
vertex 18.827814 1.231625 9.099372
endloop
endfacet
facet normal 0 0 0
outer loop
vertex 18.848289 1.252378 9.099372
vertex 18.848289 1.231625 9.079372
vertex 18.848289 1.252378 9.079372
endloop
endfacet
facet normal 0 0 0
outer loop
vertex 18.643532 1.252378 9.079372
vertex 18.664007 1.252378 9.099372
vertex 18.664007 1.273131 9.079372
endloop
endfacet
facet normal 0 0 0
outer loop
vertex 18.664007 1.252378 9.099372
vertex 18.664007 1.273131 9.099372
vertex 18.664007 1.273131 9.079372
endloop
endfacet
facet normal 0 0 0
outer loop
vertex 18.848289 1.252378 9.079372
vertex 18.848289 1.273131 9.079372
vertex 18.848289 1.252378 9.099372
endloop
endfacet
facet normal 0 0 0
outer loop
vertex 18.848289 1.252378 9.099372
vertex 18.848289 1.273131 9.079372
vertex 18.848289 1.273131 9.099372
endloop
endfacet
facet normal 0 0 0
outer loop
vertex 18.664007 1.273131 9.079372
vertex 18.664007 1.273131 9.099372
vertex 18.664007 1.293885 9.079372
endloop
endfacet
facet normal 0 0 0
outer loop
vertex 18.664007 1.273131 9.099372
vertex 18.664007 1.293885 9.099372
vertex 18.664007 1.293885 9.079372
endloop
endfacet
facet normal 0 0 0
outer loop
vertex 18.848289 1.273131 9.079372
vertex 18.848289 1.293885 9.079372
vertex 18.848289 1.273131 9.099372
endloop
endfacet
facet normal 0 0 0
outer loop
vertex 18.848289 1.273131 9.099372
vertex 18.848289 1.293885 9.079372
vertex 18.848289 1.293885 9.099372
endloop
endfacet
facet normal 0 0 0
outer loop
vertex 18.684483 1.314638 9.099372
vertex 18.684483 1.293885 9.079372
vertex 18.664007 1.293885 9.099372
endloop
endfacet
facet normal 0 0 0
outer loop
vertex 18.684483 1.293885 9.079372
vertex 18.664007 1.293885 9.079372
vertex 18.664007 1.293885 9.099372
endloop
endfacet
facet normal 0 0 0
outer loop
vertex 18.684483 1.293885 9.079372
vertex 18.684483 1.314638 9.099372
vertex 18.704958 1.314638 9.079372
endloop
endfacet
facet normal 0 0 0
outer loop
vertex 18.848289 1.293885 9.079372
vertex 18.827814 1.314638 9.099372
vertex 18.848289 1.293885 9.099372
endloop
endfacet
facet normal 0 0 0
outer loop
vertex 18.827814 1.314638 9.079372
vertex 18.827814 1.314638 9.099372
vertex 18.848289 1.293885 9.079372
endloop
endfacet
facet normal 0 0 0
outer loop
vertex 18.704958 1.314638 9.079372
vertex 18.684483 1.314638 9.099372
vertex 18.704958 1.335391 9.099372
endloop
endfacet
facet normal 0 0 0
outer loop
vertex 18.704958 1.314638 9.079372
vertex 18.704958 1.335391 9.099372
vertex 18.725435 1.335391 9.079372
endloop
endfacet
facet normal 0 0 0
outer loop
vertex 18.827814 1.335391 9.079372
vertex 18.807339 1.335391 9.099372
vertex 18.827814 1.314638 9.099372
endloop
endfacet
facet normal 0 0 0
outer loop
vertex 18.827814 1.335391 9.079372
vertex 18.827814 1.314638 9.099372
vertex 18.827814 1.314638 9.079372
endloop
endfacet
facet normal 0 0 0
outer loop
vertex 18.725435 1.335391 9.079372
vertex 18.704958 1.335391 9.099372
vertex 18.725435 1.335391 9.099372
endloop
endfacet
facet normal 0 0 0
outer loop
vertex 18.725435 1.335391 9.099372
vertex 18.745911 1.356145 9.079372
vertex 18.725435 1.335391 9.079372
endloop
endfacet
facet normal 0 0 0
outer loop
vertex 18.745911 1.356145 9.099372
vertex 18.745911 1.356145 9.079372
vertex 18.725435 1.335391 9.099372
endloop
endfacet
facet normal 0 0 0
outer loop
vertex 18.807339 1.356145 9.079372
vertex 18.786861 1.356145 9.099372
vertex 18.807339 1.335391 9.099372
endloop
endfacet
facet normal 0 0 0
outer loop
vertex 18.827814 1.335391 9.079372
vertex 18.807339 1.356145 9.079372
vertex 18.807339 1.335391 9.099372
endloop
endfacet
facet normal 0 0 0
outer loop
vertex 18.766386 1.356145 9.079372
vertex 18.745911 1.356145 9.079372
vertex 18.766386 1.356145 9.099372
endloop
endfacet
facet normal 0 0 0
outer loop
vertex 18.745911 1.356145 9.079372
vertex 18.745911 1.356145 9.099372
vertex 18.766386 1.356145 9.099372
endloop
endfacet
facet normal 0 0 0
outer loop
vertex 18.786861 1.356145 9.079372
vertex 18.766386 1.356145 9.079372
vertex 18.786861 1.356145 9.099372
endloop
endfacet
facet normal 0 0 0
outer loop
vertex 18.766386 1.356145 9.079372
vertex 18.766386 1.356145 9.099372
vertex 18.786861 1.356145 9.099372
endloop
endfacet
facet normal 0 0 0
outer loop
vertex 18.786861 1.356145 9.099372
vertex 18.807339 1.356145 9.079372
vertex 18.786861 1.356145 9.079372
endloop
endfacet
facet normal 0 0 0
outer loop
vertex 18.704958 1.210871 9.099372
vertex 18.704958 1.231625 9.099372
vertex 18.684483 1.210871 9.099372
endloop
endfacet
facet normal 0 0 0
outer loop
vertex 18.704958 1.231625 9.099372
vertex 18.684483 1.231625 9.099372
vertex 18.684483 1.210871 9.099372
endloop
endfacet
facet normal 0 0 0
outer loop
vertex 18.725435 1.210871 9.099372
vertex 18.725435 1.231625 9.099372
vertex 18.704958 1.210871 9.099372
endloop
endfacet
facet normal 0 0 0
outer loop
vertex 18.725435 1.231625 9.099372
vertex 18.704958 1.231625 9.099372
vertex 18.704958 1.210871 9.099372
endloop
endfacet
facet normal 0 0 0
outer loop
vertex 18.745911 1.210871 9.099372
vertex 18.745911 1.231625 9.099372
vertex 18.725435 1.210871 9.099372
endloop
endfacet
facet normal 0 0 0
outer loop
vertex 18.745911 1.231625 9.099372
vertex 18.725435 1.231625 9.099372
vertex 18.725435 1.210871 9.099372
endloop
endfacet
facet normal 0 0 0
outer loop
vertex 18.766386 1.210871 9.099372
vertex 18.766386 1.231625 9.099372
vertex 18.745911 1.210871 9.099372
endloop
endfacet
facet normal 0 0 0
outer loop
vertex 18.766386 1.231625 9.099372
vertex 18.745911 1.231625 9.099372
vertex 18.745911 1.210871 9.099372
endloop
endfacet
facet normal 0 0 0
outer loop
vertex 18.786861 1.210871 9.099372
vertex 18.786861 1.231625 9.099372
vertex 18.766386 1.210871 9.099372
endloop
endfacet
facet normal 0 0 0
outer loop
vertex 18.786861 1.231625 9.099372
vertex 18.766386 1.231625 9.099372
vertex 18.766386 1.210871 9.099372
endloop
endfacet
facet normal 0 0 0
outer loop
vertex 18.786861 1.210871 9.099372
vertex 18.807339 1.231625 9.099372
vertex 18.786861 1.231625 9.099372
endloop
endfacet
facet normal 0 0 0
outer loop
vertex 18.664007 1.252378 9.099372
vertex 18.684483 1.231625 9.099372
vertex 18.684483 1.252378 9.099372
endloop
endfacet
facet normal 0 0 0
outer loop
vertex 18.704958 1.231625 9.099372
vertex 18.704958 1.252378 9.099372
vertex 18.684483 1.231625 9.099372
endloop
endfacet
facet normal 0 0 0
outer loop
vertex 18.704958 1.252378 9.099372
vertex 18.684483 1.252378 9.099372
vertex 18.684483 1.231625 9.099372
endloop
endfacet
facet normal 0 0 0
outer loop
vertex 18.725435 1.231625 9.099372
vertex 18.725435 1.252378 9.099372
vertex 18.704958 1.231625 9.099372
endloop
endfacet
facet normal 0 0 0
outer loop
vertex 18.725435 1.252378 9.099372
vertex 18.704958 1.252378 9.099372
vertex 18.704958 1.231625 9.099372
endloop
endfacet
facet normal 0 0 0
outer loop
vertex 18.745911 1.231625 9.099372
vertex 18.745911 1.252378 9.099372
vertex 18.725435 1.231625 9.099372
endloop
endfacet
facet normal 0 0 0
outer loop
vertex 18.745911 1.252378 9.099372
vertex 18.725435 1.252378 9.099372
vertex 18.725435 1.231625 9.099372
endloop
endfacet
facet normal 0 0 0
outer loop
vertex 18.766386 1.231625 9.099372
vertex 18.766386 1.252378 9.099372
vertex 18.745911 1.231625 9.099372
endloop
endfacet
facet normal 0 0 0
outer loop
vertex 18.766386 1.252378 9.099372
vertex 18.745911 1.252378 9.099372
vertex 18.745911 1.231625 9.099372
endloop
endfacet
facet normal 0 0 0
outer loop
vertex 18.786861 1.231625 9.099372
vertex 18.786861 1.252378 9.099372
vertex 18.766386 1.231625 9.099372
endloop
endfacet
facet normal 0 0 0
outer loop
vertex 18.786861 1.252378 9.099372
vertex 18.766386 1.252378 9.099372
vertex 18.766386 1.231625 9.099372
endloop
endfacet
facet normal 0 0 0
outer loop
vertex 18.807339 1.231625 9.099372
vertex 18.807339 1.252378 9.099372
vertex 18.786861 1.231625 9.099372
endloop
endfacet
facet normal 0 0 0
outer loop
vertex 18.807339 1.252378 9.099372
vertex 18.786861 1.252378 9.099372
vertex 18.786861 1.231625 9.099372
endloop
endfacet
facet normal 0 0 0
outer loop
vertex 18.827814 1.231625 9.099372
vertex 18.827814 1.252378 9.099372
vertex 18.807339 1.231625 9.099372
endloop
endfacet
facet normal 0 0 0
outer loop
vertex 18.827814 1.252378 9.099372
vertex 18.807339 1.252378 9.099372
vertex 18.807339 1.231625 9.099372
endloop
endfacet
facet normal 0 0 0
outer loop
vertex 18.827814 1.231625 9.099372
vertex 18.848289 1.252378 9.099372
vertex 18.827814 1.252378 9.099372
endloop
endfacet
facet normal 0 0 0
outer loop
vertex 18.684483 1.252378 9.099372
vertex 18.684483 1.273131 9.099372
vertex 18.664007 1.252378 9.099372
endloop
endfacet
facet normal 0 0 0
outer loop
vertex 18.684483 1.273131 9.099372
vertex 18.664007 1.273131 9.099372
vertex 18.664007 1.252378 9.099372
endloop
endfacet
facet normal 0 0 0
outer loop
vertex 18.704958 1.252378 9.099372
vertex 18.704958 1.273131 9.099372
vertex 18.684483 1.252378 9.099372
endloop
endfacet
facet normal 0 0 0
outer loop
vertex 18.704958 1.273131 9.099372
vertex 18.684483 1.273131 9.099372
vertex 18.684483 1.252378 9.099372
endloop
endfacet
facet normal 0 0 0
outer loop
vertex 18.725435 1.252378 9.099372
vertex 18.725435 1.273131 9.099372
vertex 18.704958 1.252378 9.099372
endloop
endfacet
facet normal 0 0 0
outer loop
vertex 18.725435 1.273131 9.099372
vertex 18.704958 1.273131 9.099372
vertex 18.704958 1.252378 9.099372
endloop
endfacet
facet normal 0 0 0
outer loop
vertex 18.745911 1.252378 9.099372
vertex 18.745911 1.273131 9.099372
vertex 18.725435 1.252378 9.099372
endloop
endfacet
facet normal 0 0 0
outer loop
vertex 18.745911 1.273131 9.099372
vertex 18.725435 1.273131 9.099372
vertex 18.725435 1.252378 9.099372
endloop
endfacet
facet normal 0 0 0
outer loop
vertex 18.766386 1.252378 9.099372
vertex 18.766386 1.273131 9.099372
vertex 18.745911 1.252378 9.099372
endloop
endfacet
facet normal 0 0 0
outer loop
vertex 18.766386 1.273131 9.099372
vertex 18.745911 1.273131 9.099372
vertex 18.745911 1.252378 9.099372
endloop
endfacet
facet normal 0 0 0
outer loop
vertex 18.786861 1.252378 9.099372
vertex 18.786861 1.273131 9.099372
vertex 18.766386 1.252378 9.099372
endloop
endfacet
facet normal 0 0 0
outer loop
vertex 18.786861 1.273131 9.099372
vertex 18.766386 1.273131 9.099372
vertex 18.766386 1.252378 9.099372
endloop
endfacet
facet normal 0 0 0
outer loop
vertex 18.807339 1.252378 9.099372
vertex 18.807339 1.273131 9.099372
vertex 18.786861 1.252378 9.099372
endloop
endfacet
facet normal 0 0 0
outer loop
vertex 18.807339 1.273131 9.099372
vertex 18.786861 1.273131 9.099372
vertex 18.786861 1.252378 9.099372
endloop
endfacet
facet normal 0 0 0
outer loop
vertex 18.827814 1.252378 9.099372
vertex 18.827814 1.273131 9.099372
vertex 18.807339 1.252378 9.099372
endloop
endfacet
facet normal 0 0 0
outer loop
vertex 18.827814 1.273131 9.099372
vertex 18.807339 1.273131 9.099372
vertex 18.807339 1.252378 9.099372
endloop
endfacet
facet normal 0 0 0
outer loop
vertex 18.848289 1.252378 9.099372
vertex 18.848289 1.273131 9.099372
vertex 18.827814 1.252378 9.099372
endloop
endfacet
facet normal 0 0 0
outer loop
vertex 18.848289 1.273131 9.099372
vertex 18.827814 1.273131 9.099372
vertex 18.827814 1.252378 9.099372
endloop
endfacet
facet normal 0 0 0
outer loop
vertex 18.684483 1.273131 9.099372
vertex 18.684483 1.293885 9.099372
vertex 18.664007 1.273131 9.099372
endloop
endfacet
facet normal 0 0 0
outer loop
vertex 18.684483 1.293885 9.099372
vertex 18.664007 1.293885 9.099372
vertex 18.664007 1.273131 9.099372
endloop
endfacet
facet normal 0 0 0
outer loop
vertex 18.704958 1.273131 9.099372
vertex 18.704958 1.293885 9.099372
vertex 18.684483 1.273131 9.099372
endloop
endfacet
facet normal 0 0 0
outer loop
vertex 18.704958 1.293885 9.099372
vertex 18.684483 1.293885 9.099372
vertex 18.684483 1.273131 9.099372
endloop
endfacet
facet normal 0 0 0
outer loop
vertex 18.725435 1.273131 9.099372
vertex 18.725435 1.293885 9.099372
vertex 18.704958 1.273131 9.099372
endloop
endfacet
facet normal 0 0 0
outer loop
vertex 18.725435 1.293885 9.099372
vertex 18.704958 1.293885 9.099372
vertex 18.704958 1.273131 9.099372
endloop
endfacet
facet normal 0 0 0
outer loop
vertex 18.745911 1.273131 9.099372
vertex 18.745911 1.293885 9.099372
vertex 18.725435 1.273131 9.099372
endloop
endfacet
facet normal 0 0 0
outer loop
vertex 18.745911 1.293885 9.099372
vertex 18.725435 1.293885 9.099372
vertex 18.725435 1.273131 9.099372
endloop
endfacet
facet normal 0 0 0
outer loop
vertex 18.766386 1.273131 9.099372
vertex 18.766386 1.293885 9.099372
vertex 18.745911 1.273131 9.099372
endloop
endfacet
facet normal 0 0 0
outer loop
vertex 18.766386 1.293885 9.099372
vertex 18.745911 1.293885 9.099372
vertex 18.745911 1.273131 9.099372
endloop
endfacet
facet normal 0 0 0
outer loop
vertex 18.786861 1.273131 9.099372
vertex 18.786861 1.293885 9.099372
vertex 18.766386 1.273131 9.099372
endloop
endfacet
facet normal 0 0 0
outer loop
vertex 18.786861 1.293885 9.099372
vertex 18.766386 1.293885 9.099372
vertex 18.766386 1.273131 9.099372
endloop
endfacet
facet normal 0 0 0
outer loop
vertex 18.807339 1.273131 9.099372
vertex 18.807339 1.293885 9.099372
vertex 18.786861 1.273131 9.099372
endloop
endfacet
facet normal 0 0 0
outer loop
vertex 18.807339 1.293885 9.099372
vertex 18.786861 1.293885 9.099372
vertex 18.786861 1.273131 9.099372
endloop
endfacet
facet normal 0 0 0
outer loop
vertex 18.827814 1.273131 9.099372
vertex 18.827814 1.293885 9.099372
vertex 18.807339 1.273131 9.099372
endloop
endfacet
facet normal 0 0 0
outer loop
vertex 18.827814 1.293885 9.099372
vertex 18.807339 1.293885 9.099372
vertex 18.807339 1.273131 9.099372
endloop
endfacet
facet normal 0 0 0
outer loop
vertex 18.848289 1.273131 9.099372
vertex 18.848289 1.293885 9.099372
vertex 18.827814 1.273131 9.099372
endloop
endfacet
facet normal 0 0 0
outer loop
vertex 18.848289 1.293885 9.099372
vertex 18.827814 1.293885 9.099372
vertex 18.827814 1.273131 9.099372
endloop
endfacet
facet normal 0 0 0
outer loop
vertex 18.684483 1.314638 9.099372
vertex 18.664007 1.293885 9.099372
vertex 18.684483 1.293885 9.099372
endloop
endfacet
facet normal 0 0 0
outer loop
vertex 18.704958 1.293885 9.099372
vertex 18.704958 1.314638 9.099372
vertex 18.684483 1.293885 9.099372
endloop
endfacet
facet normal 0 0 0
outer loop
vertex 18.704958 1.314638 9.099372
vertex 18.684483 1.314638 9.099372
vertex 18.684483 1.293885 9.099372
endloop
endfacet
facet normal 0 0 0
outer loop
vertex 18.725435 1.293885 9.099372
vertex 18.725435 1.314638 9.099372
vertex 18.704958 1.293885 9.099372
endloop
endfacet
facet normal 0 0 0
outer loop
vertex 18.725435 1.314638 9.099372
vertex 18.704958 1.314638 9.099372
vertex 18.704958 1.293885 9.099372
endloop
endfacet
facet normal 0 0 0
outer loop
vertex 18.745911 1.293885 9.099372
vertex 18.745911 1.314638 9.099372
vertex 18.725435 1.293885 9.099372
endloop
endfacet
facet normal 0 0 0
outer loop
vertex 18.745911 1.314638 9.099372
vertex 18.725435 1.314638 9.099372
vertex 18.725435 1.293885 9.099372
endloop
endfacet
facet normal 0 0 0
outer loop
vertex 18.766386 1.293885 9.099372
vertex 18.766386 1.314638 9.099372
vertex 18.745911 1.293885 9.099372
endloop
endfacet
facet normal 0 0 0
outer loop
vertex 18.766386 1.314638 9.099372
vertex 18.745911 1.314638 9.099372
vertex 18.745911 1.293885 9.099372
endloop
endfacet
facet normal 0 0 0
outer loop
vertex 18.786861 1.293885 9.099372
vertex 18.786861 1.314638 9.099372
vertex 18.766386 1.293885 9.099372
endloop
endfacet
facet normal 0 0 0
outer loop
vertex 18.786861 1.314638 9.099372
vertex 18.766386 1.314638 9.099372
vertex 18.766386 1.293885 9.099372
endloop
endfacet
facet normal 0 0 0
outer loop
vertex 18.807339 1.293885 9.099372
vertex 18.807339 1.314638 9.099372
vertex 18.786861 1.293885 9.099372
endloop
endfacet
facet normal 0 0 0
outer loop
vertex 18.807339 1.314638 9.099372
vertex 18.786861 1.314638 9.099372
vertex 18.786861 1.293885 9.099372
endloop
endfacet
facet normal 0 0 0
outer loop
vertex 18.827814 1.293885 9.099372
vertex 18.827814 1.314638 9.099372
vertex 18.807339 1.293885 9.099372
endloop
endfacet
facet normal 0 0 0
outer loop
vertex 18.827814 1.314638 9.099372
vertex 18.807339 1.314638 9.099372
vertex 18.807339 1.293885 9.099372
endloop
endfacet
facet normal 0 0 0
outer loop
vertex 18.848289 1.293885 9.099372
vertex 18.827814 1.314638 9.099372
vertex 18.827814 1.293885 9.099372
endloop
endfacet
facet normal 0 0 0
outer loop
vertex 18.704958 1.335391 9.099372
vertex 18.684483 1.314638 9.099372
vertex 18.704958 1.314638 9.099372
endloop
endfacet
facet normal 0 0 0
outer loop
vertex 18.725435 1.314638 9.099372
vertex 18.725435 1.335391 9.099372
vertex 18.704958 1.314638 9.099372
endloop
endfacet
facet normal 0 0 0
outer loop
vertex 18.725435 1.335391 9.099372
vertex 18.704958 1.335391 9.099372
vertex 18.704958 1.314638 9.099372
endloop
endfacet
facet normal 0 0 0
outer loop
vertex 18.745911 1.314638 9.099372
vertex 18.745911 1.335391 9.099372
vertex 18.725435 1.314638 9.099372
endloop
endfacet
facet normal 0 0 0
outer loop
vertex 18.745911 1.335391 9.099372
vertex 18.725435 1.335391 9.099372
vertex 18.725435 1.314638 9.099372
endloop
endfacet
facet normal 0 0 0
outer loop
vertex 18.766386 1.314638 9.099372
vertex 18.766386 1.335391 9.099372
vertex 18.745911 1.314638 9.099372
endloop
endfacet
facet normal 0 0 0
outer loop
vertex 18.766386 1.335391 9.099372
vertex 18.745911 1.335391 9.099372
vertex 18.745911 1.314638 9.099372
endloop
endfacet
facet normal 0 0 0
outer loop
vertex 18.786861 1.314638 9.099372
vertex 18.786861 1.335391 9.099372
vertex 18.766386 1.314638 9.099372
endloop
endfacet
facet normal 0 0 0
outer loop
vertex 18.786861 1.335391 9.099372
vertex 18.766386 1.335391 9.099372
vertex 18.766386 1.314638 9.099372
endloop
endfacet
facet normal 0 0 0
outer loop
vertex 18.807339 1.314638 9.099372
vertex 18.807339 1.335391 9.099372
vertex 18.786861 1.314638 9.099372
endloop
endfacet
facet normal 0 0 0
outer loop
vertex 18.807339 1.335391 9.099372
vertex 18.786861 1.335391 9.099372
vertex 18.786861 1.314638 9.099372
endloop
endfacet
facet normal 0 0 0
outer loop
vertex 18.827814 1.314638 9.099372
vertex 18.807339 1.335391 9.099372
vertex 18.807339 1.314638 9.099372
endloop
endfacet
facet normal 0 0 0
outer loop
vertex 18.745911 1.356145 9.099372
vertex 18.725435 1.335391 9.099372
vertex 18.745911 1.335391 9.099372
endloop
endfacet
facet normal 0 0 0
outer loop
vertex 18.766386 1.335391 9.099372
vertex 18.766386 1.356145 9.099372
vertex 18.745911 1.335391 9.099372
endloop
endfacet
facet normal 0 0 0
outer loop
vertex 18.766386 1.356145 9.099372
vertex 18.745911 1.356145 9.099372
vertex 18.745911 1.335391 9.099372
endloop
endfacet
facet normal 0 0 0
outer loop
vertex 18.786861 1.335391 9.099372
vertex 18.786861 1.356145 9.099372
vertex 18.766386 1.335391 9.099372
endloop
endfacet
facet normal 0 0 0
outer loop
vertex 18.786861 1.356145 9.099372
vertex 18.766386 1.356145 9.099372
vertex 18.766386 1.335391 9.099372
endloop
endfacet
facet normal 0 0 0
outer loop
vertex 18.807339 1.335391 9.099372
vertex 18.786861 1.356145 9.099372
vertex 18.786861 1.335391 9.099372
endloop
endfacet
endsolid B-16-Plag.199
