solid B-16-Plag.170
facet normal 0 0 0
outer loop
vertex 25.502924 14.409985 8.359371
vertex 25.482449 14.409985 8.359371
vertex 25.502924 14.430738 8.359371
endloop
endfacet
facet normal 0 0 0
outer loop
vertex 25.502924 14.430738 8.359371
vertex 25.482449 14.409985 8.359371
vertex 25.482449 14.430738 8.359371
endloop
endfacet
facet normal 0 0 0
outer loop
vertex 25.461973 14.492998 8.359371
vertex 25.441498 14.492998 8.359371
vertex 25.461973 14.513750 8.359371
endloop
endfacet
facet normal 0 0 0
outer loop
vertex 25.461973 14.513750 8.359371
vertex 25.441498 14.492998 8.359371
vertex 25.441498 14.513750 8.359371
endloop
endfacet
facet normal 0 0 0
outer loop
vertex 25.441498 14.513750 8.359371
vertex 25.461973 14.534504 8.359371
vertex 25.461973 14.513750 8.359371
endloop
endfacet
facet normal 0 0 0
outer loop
vertex 25.482449 14.409985 8.359371
vertex 25.482449 14.389231 8.379372
vertex 25.461973 14.409985 8.379372
endloop
endfacet
facet normal 0 0 0
outer loop
vertex 25.482449 14.389231 8.379372
vertex 25.461973 14.389231 8.379372
vertex 25.461973 14.409985 8.379372
endloop
endfacet
facet normal 0 0 0
outer loop
vertex 25.482449 14.389231 8.379372
vertex 25.482449 14.409985 8.359371
vertex 25.502924 14.409985 8.379372
endloop
endfacet
facet normal 0 0 0
outer loop
vertex 25.482449 14.409985 8.359371
vertex 25.502924 14.409985 8.359371
vertex 25.502924 14.409985 8.379372
endloop
endfacet
facet normal 0 0 0
outer loop
vertex 25.502924 14.409985 8.359371
vertex 25.523399 14.409985 8.379372
vertex 25.502924 14.409985 8.379372
endloop
endfacet
facet normal 0 0 0
outer loop
vertex 25.482449 14.409985 8.359371
vertex 25.461973 14.430738 8.379372
vertex 25.482449 14.430738 8.359371
endloop
endfacet
facet normal 0 0 0
outer loop
vertex 25.461973 14.409985 8.379372
vertex 25.461973 14.430738 8.379372
vertex 25.482449 14.409985 8.359371
endloop
endfacet
facet normal 0 0 0
outer loop
vertex 25.523399 14.409985 8.379372
vertex 25.502924 14.430738 8.359371
vertex 25.523399 14.430738 8.379372
endloop
endfacet
facet normal 0 0 0
outer loop
vertex 25.502924 14.409985 8.359371
vertex 25.502924 14.430738 8.359371
vertex 25.523399 14.409985 8.379372
endloop
endfacet
facet normal 0 0 0
outer loop
vertex 25.482449 14.430738 8.359371
vertex 25.461973 14.430738 8.379372
vertex 25.482449 14.451490 8.379372
endloop
endfacet
facet normal 0 0 0
outer loop
vertex 25.461973 14.430738 8.379372
vertex 25.461973 14.451490 8.379372
vertex 25.482449 14.451490 8.379372
endloop
endfacet
facet normal 0 0 0
outer loop
vertex 25.482449 14.430738 8.359371
vertex 25.502924 14.451490 8.379372
vertex 25.502924 14.430738 8.359371
endloop
endfacet
facet normal 0 0 0
outer loop
vertex 25.482449 14.451490 8.379372
vertex 25.502924 14.451490 8.379372
vertex 25.482449 14.430738 8.359371
endloop
endfacet
facet normal 0 0 0
outer loop
vertex 25.502924 14.430738 8.359371
vertex 25.502924 14.451490 8.379372
vertex 25.523399 14.430738 8.379372
endloop
endfacet
facet normal 0 0 0
outer loop
vertex 25.461973 14.451490 8.379372
vertex 25.441498 14.472244 8.379372
vertex 25.461973 14.472244 8.379372
endloop
endfacet
facet normal 0 0 0
outer loop
vertex 25.482449 14.451490 8.379372
vertex 25.461973 14.451490 8.379372
vertex 25.482449 14.472244 8.379372
endloop
endfacet
facet normal 0 0 0
outer loop
vertex 25.482449 14.472244 8.379372
vertex 25.461973 14.451490 8.379372
vertex 25.461973 14.472244 8.379372
endloop
endfacet
facet normal 0 0 0
outer loop
vertex 25.502924 14.451490 8.379372
vertex 25.482449 14.451490 8.379372
vertex 25.502924 14.472244 8.379372
endloop
endfacet
facet normal 0 0 0
outer loop
vertex 25.502924 14.472244 8.379372
vertex 25.482449 14.451490 8.379372
vertex 25.482449 14.472244 8.379372
endloop
endfacet
facet normal 0 0 0
outer loop
vertex 25.441498 14.492998 8.359371
vertex 25.441498 14.472244 8.379372
vertex 25.441498 14.492998 8.379372
endloop
endfacet
facet normal 0 0 0
outer loop
vertex 25.461973 14.492998 8.359371
vertex 25.441498 14.472244 8.379372
vertex 25.441498 14.492998 8.359371
endloop
endfacet
facet normal 0 0 0
outer loop
vertex 25.461973 14.472244 8.379372
vertex 25.441498 14.472244 8.379372
vertex 25.461973 14.492998 8.359371
endloop
endfacet
facet normal 0 0 0
outer loop
vertex 25.461973 14.492998 8.359371
vertex 25.482449 14.492998 8.379372
vertex 25.461973 14.472244 8.379372
endloop
endfacet
facet normal 0 0 0
outer loop
vertex 25.482449 14.492998 8.379372
vertex 25.482449 14.472244 8.379372
vertex 25.461973 14.472244 8.379372
endloop
endfacet
facet normal 0 0 0
outer loop
vertex 25.502924 14.472244 8.379372
vertex 25.482449 14.472244 8.379372
vertex 25.502924 14.492998 8.379372
endloop
endfacet
facet normal 0 0 0
outer loop
vertex 25.502924 14.492998 8.379372
vertex 25.482449 14.472244 8.379372
vertex 25.482449 14.492998 8.379372
endloop
endfacet
facet normal 0 0 0
outer loop
vertex 25.441498 14.492998 8.359371
vertex 25.441498 14.492998 8.379372
vertex 25.441498 14.513750 8.359371
endloop
endfacet
facet normal 0 0 0
outer loop
vertex 25.441498 14.492998 8.379372
vertex 25.441498 14.513750 8.379372
vertex 25.441498 14.513750 8.359371
endloop
endfacet
facet normal 0 0 0
outer loop
vertex 25.482449 14.492998 8.379372
vertex 25.461973 14.513750 8.359371
vertex 25.482449 14.513750 8.379372
endloop
endfacet
facet normal 0 0 0
outer loop
vertex 25.461973 14.492998 8.359371
vertex 25.461973 14.513750 8.359371
vertex 25.482449 14.492998 8.379372
endloop
endfacet
facet normal 0 0 0
outer loop
vertex 25.502924 14.492998 8.379372
vertex 25.482449 14.492998 8.379372
vertex 25.502924 14.513750 8.379372
endloop
endfacet
facet normal 0 0 0
outer loop
vertex 25.502924 14.513750 8.379372
vertex 25.482449 14.492998 8.379372
vertex 25.482449 14.513750 8.379372
endloop
endfacet
facet normal 0 0 0
outer loop
vertex 25.441498 14.534504 8.379372
vertex 25.441498 14.513750 8.359371
vertex 25.441498 14.513750 8.379372
endloop
endfacet
facet normal 0 0 0
outer loop
vertex 25.441498 14.513750 8.359371
vertex 25.441498 14.534504 8.379372
vertex 25.461973 14.534504 8.359371
endloop
endfacet
facet normal 0 0 0
outer loop
vertex 25.482449 14.513750 8.379372
vertex 25.461973 14.534504 8.359371
vertex 25.482449 14.534504 8.379372
endloop
endfacet
facet normal 0 0 0
outer loop
vertex 25.461973 14.513750 8.359371
vertex 25.461973 14.534504 8.359371
vertex 25.482449 14.513750 8.379372
endloop
endfacet
facet normal 0 0 0
outer loop
vertex 25.502924 14.513750 8.379372
vertex 25.482449 14.513750 8.379372
vertex 25.502924 14.534504 8.379372
endloop
endfacet
facet normal 0 0 0
outer loop
vertex 25.502924 14.534504 8.379372
vertex 25.482449 14.513750 8.379372
vertex 25.482449 14.534504 8.379372
endloop
endfacet
facet normal 0 0 0
outer loop
vertex 25.461973 14.534504 8.359371
vertex 25.441498 14.534504 8.379372
vertex 25.461973 14.555258 8.379372
endloop
endfacet
facet normal 0 0 0
outer loop
vertex 25.441498 14.534504 8.379372
vertex 25.441498 14.555258 8.379372
vertex 25.461973 14.555258 8.379372
endloop
endfacet
facet normal 0 0 0
outer loop
vertex 25.461973 14.534504 8.359371
vertex 25.461973 14.555258 8.379372
vertex 25.482449 14.534504 8.379372
endloop
endfacet
facet normal 0 0 0
outer loop
vertex 25.461973 14.555258 8.379372
vertex 25.482449 14.555258 8.379372
vertex 25.482449 14.534504 8.379372
endloop
endfacet
facet normal 0 0 0
outer loop
vertex 25.502924 14.534504 8.379372
vertex 25.482449 14.534504 8.379372
vertex 25.502924 14.555258 8.379372
endloop
endfacet
facet normal 0 0 0
outer loop
vertex 25.502924 14.555258 8.379372
vertex 25.482449 14.534504 8.379372
vertex 25.482449 14.555258 8.379372
endloop
endfacet
facet normal 0 0 0
outer loop
vertex 25.461973 14.555258 8.379372
vertex 25.441498 14.555258 8.379372
vertex 25.461973 14.576012 8.379372
endloop
endfacet
facet normal 0 0 0
outer loop
vertex 25.461973 14.576012 8.379372
vertex 25.441498 14.555258 8.379372
vertex 25.441498 14.576012 8.379372
endloop
endfacet
facet normal 0 0 0
outer loop
vertex 25.482449 14.555258 8.379372
vertex 25.461973 14.555258 8.379372
vertex 25.482449 14.576012 8.379372
endloop
endfacet
facet normal 0 0 0
outer loop
vertex 25.482449 14.576012 8.379372
vertex 25.461973 14.555258 8.379372
vertex 25.461973 14.576012 8.379372
endloop
endfacet
facet normal 0 0 0
outer loop
vertex 25.502924 14.555258 8.379372
vertex 25.482449 14.555258 8.379372
vertex 25.502924 14.576012 8.379372
endloop
endfacet
facet normal 0 0 0
outer loop
vertex 25.502924 14.576012 8.379372
vertex 25.482449 14.555258 8.379372
vertex 25.482449 14.576012 8.379372
endloop
endfacet
facet normal 0 0 0
outer loop
vertex 25.461973 14.576012 8.379372
vertex 25.441498 14.576012 8.379372
vertex 25.461973 14.596764 8.379372
endloop
endfacet
facet normal 0 0 0
outer loop
vertex 25.461973 14.596764 8.379372
vertex 25.441498 14.576012 8.379372
vertex 25.441498 14.596764 8.379372
endloop
endfacet
facet normal 0 0 0
outer loop
vertex 25.482449 14.576012 8.379372
vertex 25.461973 14.576012 8.379372
vertex 25.482449 14.596764 8.379372
endloop
endfacet
facet normal 0 0 0
outer loop
vertex 25.482449 14.596764 8.379372
vertex 25.461973 14.576012 8.379372
vertex 25.461973 14.596764 8.379372
endloop
endfacet
facet normal 0 0 0
outer loop
vertex 25.482449 14.596764 8.379372
vertex 25.502924 14.576012 8.379372
vertex 25.482449 14.576012 8.379372
endloop
endfacet
facet normal 0 0 0
outer loop
vertex 25.441498 14.596764 8.379372
vertex 25.461973 14.617517 8.379372
vertex 25.461973 14.596764 8.379372
endloop
endfacet
facet normal 0 0 0
outer loop
vertex 25.461973 14.617517 8.379372
vertex 25.482449 14.596764 8.379372
vertex 25.461973 14.596764 8.379372
endloop
endfacet
facet normal 0 0 0
outer loop
vertex 25.482449 14.409985 8.399372
vertex 25.461973 14.409985 8.379372
vertex 25.482449 14.389231 8.379372
endloop
endfacet
facet normal 0 0 0
outer loop
vertex 25.502924 14.389231 8.399372
vertex 25.482449 14.409985 8.399372
vertex 25.502924 14.409985 8.379372
endloop
endfacet
facet normal 0 0 0
outer loop
vertex 25.482449 14.389231 8.379372
vertex 25.502924 14.409985 8.379372
vertex 25.482449 14.409985 8.399372
endloop
endfacet
facet normal 0 0 0
outer loop
vertex 25.523399 14.409985 8.379372
vertex 25.502924 14.389231 8.399372
vertex 25.502924 14.409985 8.379372
endloop
endfacet
facet normal 0 0 0
outer loop
vertex 25.523399 14.389231 8.399372
vertex 25.502924 14.389231 8.399372
vertex 25.523399 14.409985 8.379372
endloop
endfacet
facet normal 0 0 0
outer loop
vertex 25.523399 14.389231 8.399372
vertex 25.523399 14.409985 8.379372
vertex 25.523399 14.409985 8.399372
endloop
endfacet
facet normal 0 0 0
outer loop
vertex 25.461973 14.409985 8.379372
vertex 25.461973 14.430738 8.399372
vertex 25.461973 14.430738 8.379372
endloop
endfacet
facet normal 0 0 0
outer loop
vertex 25.482449 14.409985 8.399372
vertex 25.461973 14.430738 8.399372
vertex 25.461973 14.409985 8.379372
endloop
endfacet
facet normal 0 0 0
outer loop
vertex 25.543877 14.430738 8.399372
vertex 25.523399 14.409985 8.399372
vertex 25.523399 14.430738 8.379372
endloop
endfacet
facet normal 0 0 0
outer loop
vertex 25.523399 14.409985 8.399372
vertex 25.523399 14.409985 8.379372
vertex 25.523399 14.430738 8.379372
endloop
endfacet
facet normal 0 0 0
outer loop
vertex 25.461973 14.430738 8.379372
vertex 25.461973 14.430738 8.399372
vertex 25.461973 14.451490 8.379372
endloop
endfacet
facet normal 0 0 0
outer loop
vertex 25.461973 14.430738 8.399372
vertex 25.461973 14.451490 8.399372
vertex 25.461973 14.451490 8.379372
endloop
endfacet
facet normal 0 0 0
outer loop
vertex 25.523399 14.430738 8.379372
vertex 25.502924 14.451490 8.379372
vertex 25.523399 14.451490 8.399372
endloop
endfacet
facet normal 0 0 0
outer loop
vertex 25.523399 14.430738 8.379372
vertex 25.523399 14.451490 8.399372
vertex 25.543877 14.430738 8.399372
endloop
endfacet
facet normal 0 0 0
outer loop
vertex 25.523399 14.451490 8.399372
vertex 25.543877 14.451490 8.399372
vertex 25.543877 14.430738 8.399372
endloop
endfacet
facet normal 0 0 0
outer loop
vertex 25.441498 14.472244 8.379372
vertex 25.461973 14.451490 8.379372
vertex 25.461973 14.472244 8.399372
endloop
endfacet
facet normal 0 0 0
outer loop
vertex 25.461973 14.451490 8.379372
vertex 25.461973 14.451490 8.399372
vertex 25.461973 14.472244 8.399372
endloop
endfacet
facet normal 0 0 0
outer loop
vertex 25.523399 14.451490 8.399372
vertex 25.502924 14.472244 8.379372
vertex 25.523399 14.472244 8.399372
endloop
endfacet
facet normal 0 0 0
outer loop
vertex 25.502924 14.451490 8.379372
vertex 25.502924 14.472244 8.379372
vertex 25.523399 14.451490 8.399372
endloop
endfacet
facet normal 0 0 0
outer loop
vertex 25.543877 14.451490 8.399372
vertex 25.523399 14.451490 8.399372
vertex 25.543877 14.472244 8.399372
endloop
endfacet
facet normal 0 0 0
outer loop
vertex 25.543877 14.472244 8.399372
vertex 25.523399 14.451490 8.399372
vertex 25.523399 14.472244 8.399372
endloop
endfacet
facet normal 0 0 0
outer loop
vertex 25.461973 14.492998 8.399372
vertex 25.441498 14.472244 8.379372
vertex 25.461973 14.472244 8.399372
endloop
endfacet
facet normal 0 0 0
outer loop
vertex 25.441498 14.492998 8.379372
vertex 25.441498 14.472244 8.379372
vertex 25.461973 14.492998 8.399372
endloop
endfacet
facet normal 0 0 0
outer loop
vertex 25.523399 14.472244 8.399372
vertex 25.502924 14.492998 8.379372
vertex 25.523399 14.492998 8.399372
endloop
endfacet
facet normal 0 0 0
outer loop
vertex 25.502924 14.472244 8.379372
vertex 25.502924 14.492998 8.379372
vertex 25.523399 14.472244 8.399372
endloop
endfacet
facet normal 0 0 0
outer loop
vertex 25.523399 14.492998 8.399372
vertex 25.543877 14.472244 8.399372
vertex 25.523399 14.472244 8.399372
endloop
endfacet
facet normal 0 0 0
outer loop
vertex 25.461973 14.513750 8.399372
vertex 25.441498 14.492998 8.379372
vertex 25.461973 14.492998 8.399372
endloop
endfacet
facet normal 0 0 0
outer loop
vertex 25.441498 14.513750 8.379372
vertex 25.441498 14.492998 8.379372
vertex 25.461973 14.513750 8.399372
endloop
endfacet
facet normal 0 0 0
outer loop
vertex 25.523399 14.492998 8.399372
vertex 25.502924 14.513750 8.379372
vertex 25.523399 14.513750 8.399372
endloop
endfacet
facet normal 0 0 0
outer loop
vertex 25.502924 14.492998 8.379372
vertex 25.502924 14.513750 8.379372
vertex 25.523399 14.492998 8.399372
endloop
endfacet
facet normal 0 0 0
outer loop
vertex 25.461973 14.534504 8.399372
vertex 25.441498 14.513750 8.379372
vertex 25.461973 14.513750 8.399372
endloop
endfacet
facet normal 0 0 0
outer loop
vertex 25.441498 14.534504 8.379372
vertex 25.441498 14.513750 8.379372
vertex 25.461973 14.534504 8.399372
endloop
endfacet
facet normal 0 0 0
outer loop
vertex 25.523399 14.513750 8.399372
vertex 25.502924 14.534504 8.379372
vertex 25.523399 14.534504 8.399372
endloop
endfacet
facet normal 0 0 0
outer loop
vertex 25.502924 14.513750 8.379372
vertex 25.502924 14.534504 8.379372
vertex 25.523399 14.513750 8.399372
endloop
endfacet
facet normal 0 0 0
outer loop
vertex 25.461973 14.555258 8.399372
vertex 25.441498 14.534504 8.379372
vertex 25.461973 14.534504 8.399372
endloop
endfacet
facet normal 0 0 0
outer loop
vertex 25.441498 14.555258 8.379372
vertex 25.441498 14.534504 8.379372
vertex 25.461973 14.555258 8.399372
endloop
endfacet
facet normal 0 0 0
outer loop
vertex 25.523399 14.534504 8.399372
vertex 25.502924 14.555258 8.379372
vertex 25.523399 14.555258 8.399372
endloop
endfacet
facet normal 0 0 0
outer loop
vertex 25.502924 14.534504 8.379372
vertex 25.502924 14.555258 8.379372
vertex 25.523399 14.534504 8.399372
endloop
endfacet
facet normal 0 0 0
outer loop
vertex 25.441498 14.555258 8.379372
vertex 25.441498 14.576012 8.399372
vertex 25.441498 14.576012 8.379372
endloop
endfacet
facet normal 0 0 0
outer loop
vertex 25.461973 14.555258 8.399372
vertex 25.441498 14.576012 8.399372
vertex 25.441498 14.555258 8.379372
endloop
endfacet
facet normal 0 0 0
outer loop
vertex 25.523399 14.555258 8.399372
vertex 25.502924 14.576012 8.379372
vertex 25.523399 14.576012 8.399372
endloop
endfacet
facet normal 0 0 0
outer loop
vertex 25.502924 14.555258 8.379372
vertex 25.502924 14.576012 8.379372
vertex 25.523399 14.555258 8.399372
endloop
endfacet
facet normal 0 0 0
outer loop
vertex 25.441498 14.576012 8.399372
vertex 25.441498 14.596764 8.379372
vertex 25.441498 14.576012 8.379372
endloop
endfacet
facet normal 0 0 0
outer loop
vertex 25.441498 14.576012 8.399372
vertex 25.461973 14.596764 8.399372
vertex 25.441498 14.596764 8.379372
endloop
endfacet
facet normal 0 0 0
outer loop
vertex 25.502924 14.576012 8.379372
vertex 25.482449 14.596764 8.379372
vertex 25.502924 14.596764 8.399372
endloop
endfacet
facet normal 0 0 0
outer loop
vertex 25.502924 14.576012 8.379372
vertex 25.502924 14.596764 8.399372
vertex 25.523399 14.576012 8.399372
endloop
endfacet
facet normal 0 0 0
outer loop
vertex 25.502924 14.596764 8.399372
vertex 25.523399 14.596764 8.399372
vertex 25.523399 14.576012 8.399372
endloop
endfacet
facet normal 0 0 0
outer loop
vertex 25.441498 14.596764 8.379372
vertex 25.461973 14.596764 8.399372
vertex 25.461973 14.617517 8.379372
endloop
endfacet
facet normal 0 0 0
outer loop
vertex 25.461973 14.596764 8.399372
vertex 25.461973 14.617517 8.399372
vertex 25.461973 14.617517 8.379372
endloop
endfacet
facet normal 0 0 0
outer loop
vertex 25.482449 14.596764 8.379372
vertex 25.461973 14.617517 8.379372
vertex 25.482449 14.617517 8.399372
endloop
endfacet
facet normal 0 0 0
outer loop
vertex 25.482449 14.596764 8.379372
vertex 25.482449 14.617517 8.399372
vertex 25.502924 14.596764 8.399372
endloop
endfacet
facet normal 0 0 0
outer loop
vertex 25.482449 14.617517 8.399372
vertex 25.502924 14.617517 8.399372
vertex 25.502924 14.596764 8.399372
endloop
endfacet
facet normal 0 0 0
outer loop
vertex 25.502924 14.617517 8.399372
vertex 25.523399 14.596764 8.399372
vertex 25.502924 14.596764 8.399372
endloop
endfacet
facet normal 0 0 0
outer loop
vertex 25.461973 14.638271 8.399372
vertex 25.461973 14.617517 8.379372
vertex 25.461973 14.617517 8.399372
endloop
endfacet
facet normal 0 0 0
outer loop
vertex 25.461973 14.617517 8.379372
vertex 25.461973 14.638271 8.399372
vertex 25.482449 14.617517 8.399372
endloop
endfacet
facet normal 0 0 0
outer loop
vertex 25.461973 14.638271 8.399372
vertex 25.482449 14.638271 8.399372
vertex 25.482449 14.617517 8.399372
endloop
endfacet
facet normal 0 0 0
outer loop
vertex 25.482449 14.638271 8.399372
vertex 25.502924 14.617517 8.399372
vertex 25.482449 14.617517 8.399372
endloop
endfacet
facet normal 0 0 0
outer loop
vertex 25.523399 14.389231 8.399372
vertex 25.523399 14.389231 8.419372
vertex 25.502924 14.389231 8.399372
endloop
endfacet
facet normal 0 0 0
outer loop
vertex 25.502924 14.389231 8.399372
vertex 25.523399 14.389231 8.419372
vertex 25.502924 14.389231 8.419372
endloop
endfacet
facet normal 0 0 0
outer loop
vertex 25.502924 14.389231 8.419372
vertex 25.482449 14.409985 8.399372
vertex 25.502924 14.389231 8.399372
endloop
endfacet
facet normal 0 0 0
outer loop
vertex 25.482449 14.409985 8.419372
vertex 25.482449 14.409985 8.399372
vertex 25.502924 14.389231 8.419372
endloop
endfacet
facet normal 0 0 0
outer loop
vertex 25.523399 14.389231 8.399372
vertex 25.523399 14.409985 8.399372
vertex 25.523399 14.389231 8.419372
endloop
endfacet
facet normal 0 0 0
outer loop
vertex 25.523399 14.389231 8.419372
vertex 25.523399 14.409985 8.399372
vertex 25.523399 14.409985 8.419372
endloop
endfacet
facet normal 0 0 0
outer loop
vertex 25.482449 14.409985 8.419372
vertex 25.461973 14.430738 8.399372
vertex 25.482449 14.409985 8.399372
endloop
endfacet
facet normal 0 0 0
outer loop
vertex 25.461973 14.430738 8.419372
vertex 25.461973 14.430738 8.399372
vertex 25.482449 14.409985 8.419372
endloop
endfacet
facet normal 0 0 0
outer loop
vertex 25.543877 14.430738 8.399372
vertex 25.523399 14.430738 8.419372
vertex 25.523399 14.409985 8.399372
endloop
endfacet
facet normal 0 0 0
outer loop
vertex 25.523399 14.430738 8.419372
vertex 25.523399 14.409985 8.419372
vertex 25.523399 14.409985 8.399372
endloop
endfacet
facet normal 0 0 0
outer loop
vertex 25.461973 14.430738 8.399372
vertex 25.461973 14.430738 8.419372
vertex 25.461973 14.451490 8.399372
endloop
endfacet
facet normal 0 0 0
outer loop
vertex 25.461973 14.430738 8.419372
vertex 25.461973 14.451490 8.419372
vertex 25.461973 14.451490 8.399372
endloop
endfacet
facet normal 0 0 0
outer loop
vertex 25.543877 14.451490 8.399372
vertex 25.523399 14.430738 8.419372
vertex 25.543877 14.430738 8.399372
endloop
endfacet
facet normal 0 0 0
outer loop
vertex 25.523399 14.451490 8.419372
vertex 25.523399 14.430738 8.419372
vertex 25.543877 14.451490 8.399372
endloop
endfacet
facet normal 0 0 0
outer loop
vertex 25.461973 14.451490 8.399372
vertex 25.461973 14.451490 8.419372
vertex 25.461973 14.472244 8.399372
endloop
endfacet
facet normal 0 0 0
outer loop
vertex 25.461973 14.451490 8.419372
vertex 25.461973 14.472244 8.419372
vertex 25.461973 14.472244 8.399372
endloop
endfacet
facet normal 0 0 0
outer loop
vertex 25.543877 14.472244 8.399372
vertex 25.523399 14.451490 8.419372
vertex 25.543877 14.451490 8.399372
endloop
endfacet
facet normal 0 0 0
outer loop
vertex 25.523399 14.472244 8.419372
vertex 25.523399 14.451490 8.419372
vertex 25.543877 14.472244 8.399372
endloop
endfacet
facet normal 0 0 0
outer loop
vertex 25.441498 14.492998 8.419372
vertex 25.461973 14.492998 8.399372
vertex 25.461973 14.472244 8.419372
endloop
endfacet
facet normal 0 0 0
outer loop
vertex 25.461973 14.492998 8.399372
vertex 25.461973 14.472244 8.399372
vertex 25.461973 14.472244 8.419372
endloop
endfacet
facet normal 0 0 0
outer loop
vertex 25.543877 14.472244 8.399372
vertex 25.523399 14.492998 8.399372
vertex 25.523399 14.472244 8.419372
endloop
endfacet
facet normal 0 0 0
outer loop
vertex 25.523399 14.492998 8.399372
vertex 25.523399 14.492998 8.419372
vertex 25.523399 14.472244 8.419372
endloop
endfacet
facet normal 0 0 0
outer loop
vertex 25.461973 14.492998 8.399372
vertex 25.441498 14.513750 8.419372
vertex 25.461973 14.513750 8.399372
endloop
endfacet
facet normal 0 0 0
outer loop
vertex 25.441498 14.492998 8.419372
vertex 25.441498 14.513750 8.419372
vertex 25.461973 14.492998 8.399372
endloop
endfacet
facet normal 0 0 0
outer loop
vertex 25.523399 14.492998 8.399372
vertex 25.523399 14.513750 8.399372
vertex 25.523399 14.492998 8.419372
endloop
endfacet
facet normal 0 0 0
outer loop
vertex 25.523399 14.492998 8.419372
vertex 25.523399 14.513750 8.399372
vertex 25.523399 14.513750 8.419372
endloop
endfacet
facet normal 0 0 0
outer loop
vertex 25.461973 14.513750 8.399372
vertex 25.441498 14.534504 8.419372
vertex 25.461973 14.534504 8.399372
endloop
endfacet
facet normal 0 0 0
outer loop
vertex 25.441498 14.513750 8.419372
vertex 25.441498 14.534504 8.419372
vertex 25.461973 14.513750 8.399372
endloop
endfacet
facet normal 0 0 0
outer loop
vertex 25.523399 14.513750 8.399372
vertex 25.523399 14.534504 8.399372
vertex 25.523399 14.513750 8.419372
endloop
endfacet
facet normal 0 0 0
outer loop
vertex 25.523399 14.513750 8.419372
vertex 25.523399 14.534504 8.399372
vertex 25.523399 14.534504 8.419372
endloop
endfacet
facet normal 0 0 0
outer loop
vertex 25.461973 14.534504 8.399372
vertex 25.441498 14.555258 8.419372
vertex 25.461973 14.555258 8.399372
endloop
endfacet
facet normal 0 0 0
outer loop
vertex 25.441498 14.534504 8.419372
vertex 25.441498 14.555258 8.419372
vertex 25.461973 14.534504 8.399372
endloop
endfacet
facet normal 0 0 0
outer loop
vertex 25.523399 14.534504 8.399372
vertex 25.523399 14.555258 8.399372
vertex 25.523399 14.534504 8.419372
endloop
endfacet
facet normal 0 0 0
outer loop
vertex 25.523399 14.534504 8.419372
vertex 25.523399 14.555258 8.399372
vertex 25.523399 14.555258 8.419372
endloop
endfacet
facet normal 0 0 0
outer loop
vertex 25.441498 14.576012 8.399372
vertex 25.441498 14.555258 8.419372
vertex 25.441498 14.576012 8.419372
endloop
endfacet
facet normal 0 0 0
outer loop
vertex 25.461973 14.555258 8.399372
vertex 25.441498 14.555258 8.419372
vertex 25.441498 14.576012 8.399372
endloop
endfacet
facet normal 0 0 0
outer loop
vertex 25.523399 14.555258 8.399372
vertex 25.523399 14.576012 8.399372
vertex 25.523399 14.555258 8.419372
endloop
endfacet
facet normal 0 0 0
outer loop
vertex 25.523399 14.555258 8.419372
vertex 25.523399 14.576012 8.399372
vertex 25.523399 14.576012 8.419372
endloop
endfacet
facet normal 0 0 0
outer loop
vertex 25.441498 14.596764 8.419372
vertex 25.441498 14.576012 8.399372
vertex 25.441498 14.576012 8.419372
endloop
endfacet
facet normal 0 0 0
outer loop
vertex 25.441498 14.576012 8.399372
vertex 25.441498 14.596764 8.419372
vertex 25.461973 14.596764 8.399372
endloop
endfacet
facet normal 0 0 0
outer loop
vertex 25.523399 14.576012 8.399372
vertex 25.523399 14.596764 8.399372
vertex 25.523399 14.576012 8.419372
endloop
endfacet
facet normal 0 0 0
outer loop
vertex 25.523399 14.576012 8.419372
vertex 25.523399 14.596764 8.399372
vertex 25.523399 14.596764 8.419372
endloop
endfacet
facet normal 0 0 0
outer loop
vertex 25.461973 14.596764 8.399372
vertex 25.441498 14.617517 8.419372
vertex 25.461973 14.617517 8.399372
endloop
endfacet
facet normal 0 0 0
outer loop
vertex 25.441498 14.596764 8.419372
vertex 25.441498 14.617517 8.419372
vertex 25.461973 14.596764 8.399372
endloop
endfacet
facet normal 0 0 0
outer loop
vertex 25.523399 14.596764 8.399372
vertex 25.502924 14.617517 8.419372
vertex 25.523399 14.596764 8.419372
endloop
endfacet
facet normal 0 0 0
outer loop
vertex 25.502924 14.617517 8.399372
vertex 25.502924 14.617517 8.419372
vertex 25.523399 14.596764 8.399372
endloop
endfacet
facet normal 0 0 0
outer loop
vertex 25.441498 14.617517 8.419372
vertex 25.461973 14.638271 8.419372
vertex 25.461973 14.617517 8.399372
endloop
endfacet
facet normal 0 0 0
outer loop
vertex 25.461973 14.638271 8.419372
vertex 25.461973 14.638271 8.399372
vertex 25.461973 14.617517 8.399372
endloop
endfacet
facet normal 0 0 0
outer loop
vertex 25.502924 14.617517 8.399372
vertex 25.482449 14.638271 8.399372
vertex 25.502924 14.638271 8.419372
endloop
endfacet
facet normal 0 0 0
outer loop
vertex 25.502924 14.617517 8.399372
vertex 25.502924 14.638271 8.419372
vertex 25.502924 14.617517 8.419372
endloop
endfacet
facet normal 0 0 0
outer loop
vertex 25.482449 14.638271 8.399372
vertex 25.461973 14.638271 8.399372
vertex 25.482449 14.638271 8.419372
endloop
endfacet
facet normal 0 0 0
outer loop
vertex 25.461973 14.638271 8.399372
vertex 25.461973 14.638271 8.419372
vertex 25.482449 14.638271 8.419372
endloop
endfacet
facet normal 0 0 0
outer loop
vertex 25.502924 14.638271 8.419372
vertex 25.482449 14.638271 8.399372
vertex 25.482449 14.638271 8.419372
endloop
endfacet
facet normal 0 0 0
outer loop
vertex 25.482449 14.389231 8.439371
vertex 25.502924 14.389231 8.419372
vertex 25.502924 14.389231 8.439371
endloop
endfacet
facet normal 0 0 0
outer loop
vertex 25.523399 14.389231 8.419372
vertex 25.502924 14.389231 8.439371
vertex 25.502924 14.389231 8.419372
endloop
endfacet
facet normal 0 0 0
outer loop
vertex 25.482449 14.409985 8.419372
vertex 25.482449 14.389231 8.439371
vertex 25.482449 14.409985 8.439371
endloop
endfacet
facet normal 0 0 0
outer loop
vertex 25.502924 14.389231 8.419372
vertex 25.482449 14.389231 8.439371
vertex 25.482449 14.409985 8.419372
endloop
endfacet
facet normal 0 0 0
outer loop
vertex 25.523399 14.389231 8.419372
vertex 25.523399 14.409985 8.439371
vertex 25.502924 14.389231 8.439371
endloop
endfacet
facet normal 0 0 0
outer loop
vertex 25.523399 14.409985 8.439371
vertex 25.523399 14.389231 8.419372
vertex 25.523399 14.409985 8.419372
endloop
endfacet
facet normal 0 0 0
outer loop
vertex 25.461973 14.430738 8.419372
vertex 25.482449 14.409985 8.419372
vertex 25.482449 14.430738 8.439371
endloop
endfacet
facet normal 0 0 0
outer loop
vertex 25.482449 14.409985 8.419372
vertex 25.482449 14.409985 8.439371
vertex 25.482449 14.430738 8.439371
endloop
endfacet
facet normal 0 0 0
outer loop
vertex 25.523399 14.409985 8.419372
vertex 25.523399 14.430738 8.419372
vertex 25.523399 14.409985 8.439371
endloop
endfacet
facet normal 0 0 0
outer loop
vertex 25.523399 14.409985 8.439371
vertex 25.523399 14.430738 8.419372
vertex 25.523399 14.430738 8.439371
endloop
endfacet
facet normal 0 0 0
outer loop
vertex 25.482449 14.451490 8.439371
vertex 25.461973 14.430738 8.419372
vertex 25.482449 14.430738 8.439371
endloop
endfacet
facet normal 0 0 0
outer loop
vertex 25.461973 14.451490 8.419372
vertex 25.461973 14.430738 8.419372
vertex 25.482449 14.451490 8.439371
endloop
endfacet
facet normal 0 0 0
outer loop
vertex 25.543877 14.451490 8.439371
vertex 25.523399 14.430738 8.439371
vertex 25.523399 14.451490 8.419372
endloop
endfacet
facet normal 0 0 0
outer loop
vertex 25.523399 14.430738 8.439371
vertex 25.523399 14.430738 8.419372
vertex 25.523399 14.451490 8.419372
endloop
endfacet
facet normal 0 0 0
outer loop
vertex 25.461973 14.451490 8.419372
vertex 25.461973 14.472244 8.439371
vertex 25.461973 14.472244 8.419372
endloop
endfacet
facet normal 0 0 0
outer loop
vertex 25.482449 14.451490 8.439371
vertex 25.461973 14.472244 8.439371
vertex 25.461973 14.451490 8.419372
endloop
endfacet
facet normal 0 0 0
outer loop
vertex 25.543877 14.451490 8.439371
vertex 25.523399 14.472244 8.419372
vertex 25.543877 14.472244 8.439371
endloop
endfacet
facet normal 0 0 0
outer loop
vertex 25.523399 14.451490 8.419372
vertex 25.523399 14.472244 8.419372
vertex 25.543877 14.451490 8.439371
endloop
endfacet
facet normal 0 0 0
outer loop
vertex 25.441498 14.492998 8.419372
vertex 25.461973 14.472244 8.419372
vertex 25.461973 14.492998 8.439371
endloop
endfacet
facet normal 0 0 0
outer loop
vertex 25.461973 14.472244 8.419372
vertex 25.461973 14.472244 8.439371
vertex 25.461973 14.492998 8.439371
endloop
endfacet
facet normal 0 0 0
outer loop
vertex 25.543877 14.472244 8.439371
vertex 25.523399 14.492998 8.419372
vertex 25.543877 14.492998 8.439371
endloop
endfacet
facet normal 0 0 0
outer loop
vertex 25.523399 14.472244 8.419372
vertex 25.523399 14.492998 8.419372
vertex 25.543877 14.472244 8.439371
endloop
endfacet
facet normal 0 0 0
outer loop
vertex 25.461973 14.513750 8.439371
vertex 25.441498 14.492998 8.419372
vertex 25.461973 14.492998 8.439371
endloop
endfacet
facet normal 0 0 0
outer loop
vertex 25.441498 14.513750 8.419372
vertex 25.441498 14.492998 8.419372
vertex 25.461973 14.513750 8.439371
endloop
endfacet
facet normal 0 0 0
outer loop
vertex 25.543877 14.492998 8.439371
vertex 25.523399 14.513750 8.419372
vertex 25.543877 14.513750 8.439371
endloop
endfacet
facet normal 0 0 0
outer loop
vertex 25.523399 14.492998 8.419372
vertex 25.523399 14.513750 8.419372
vertex 25.543877 14.492998 8.439371
endloop
endfacet
facet normal 0 0 0
outer loop
vertex 25.461973 14.534504 8.439371
vertex 25.441498 14.513750 8.419372
vertex 25.461973 14.513750 8.439371
endloop
endfacet
facet normal 0 0 0
outer loop
vertex 25.441498 14.534504 8.419372
vertex 25.441498 14.513750 8.419372
vertex 25.461973 14.534504 8.439371
endloop
endfacet
facet normal 0 0 0
outer loop
vertex 25.543877 14.513750 8.439371
vertex 25.523399 14.534504 8.419372
vertex 25.543877 14.534504 8.439371
endloop
endfacet
facet normal 0 0 0
outer loop
vertex 25.523399 14.513750 8.419372
vertex 25.523399 14.534504 8.419372
vertex 25.543877 14.513750 8.439371
endloop
endfacet
facet normal 0 0 0
outer loop
vertex 25.461973 14.555258 8.439371
vertex 25.441498 14.534504 8.419372
vertex 25.461973 14.534504 8.439371
endloop
endfacet
facet normal 0 0 0
outer loop
vertex 25.441498 14.555258 8.419372
vertex 25.441498 14.534504 8.419372
vertex 25.461973 14.555258 8.439371
endloop
endfacet
facet normal 0 0 0
outer loop
vertex 25.543877 14.534504 8.439371
vertex 25.523399 14.555258 8.419372
vertex 25.543877 14.555258 8.439371
endloop
endfacet
facet normal 0 0 0
outer loop
vertex 25.523399 14.534504 8.419372
vertex 25.523399 14.555258 8.419372
vertex 25.543877 14.534504 8.439371
endloop
endfacet
facet normal 0 0 0
outer loop
vertex 25.461973 14.576012 8.439371
vertex 25.441498 14.555258 8.419372
vertex 25.461973 14.555258 8.439371
endloop
endfacet
facet normal 0 0 0
outer loop
vertex 25.441498 14.576012 8.419372
vertex 25.441498 14.555258 8.419372
vertex 25.461973 14.576012 8.439371
endloop
endfacet
facet normal 0 0 0
outer loop
vertex 25.543877 14.555258 8.439371
vertex 25.523399 14.576012 8.419372
vertex 25.543877 14.576012 8.439371
endloop
endfacet
facet normal 0 0 0
outer loop
vertex 25.523399 14.555258 8.419372
vertex 25.523399 14.576012 8.419372
vertex 25.543877 14.555258 8.439371
endloop
endfacet
facet normal 0 0 0
outer loop
vertex 25.441498 14.576012 8.419372
vertex 25.441498 14.596764 8.439371
vertex 25.441498 14.596764 8.419372
endloop
endfacet
facet normal 0 0 0
outer loop
vertex 25.461973 14.576012 8.439371
vertex 25.441498 14.596764 8.439371
vertex 25.441498 14.576012 8.419372
endloop
endfacet
facet normal 0 0 0
outer loop
vertex 25.543877 14.576012 8.439371
vertex 25.523399 14.576012 8.419372
vertex 25.523399 14.596764 8.439371
endloop
endfacet
facet normal 0 0 0
outer loop
vertex 25.523399 14.576012 8.419372
vertex 25.523399 14.596764 8.419372
vertex 25.523399 14.596764 8.439371
endloop
endfacet
facet normal 0 0 0
outer loop
vertex 25.441498 14.596764 8.419372
vertex 25.441498 14.596764 8.439371
vertex 25.441498 14.617517 8.419372
endloop
endfacet
facet normal 0 0 0
outer loop
vertex 25.441498 14.596764 8.439371
vertex 25.441498 14.617517 8.439371
vertex 25.441498 14.617517 8.419372
endloop
endfacet
facet normal 0 0 0
outer loop
vertex 25.523399 14.596764 8.419372
vertex 25.502924 14.617517 8.419372
vertex 25.523399 14.617517 8.439371
endloop
endfacet
facet normal 0 0 0
outer loop
vertex 25.523399 14.596764 8.419372
vertex 25.523399 14.617517 8.439371
vertex 25.523399 14.596764 8.439371
endloop
endfacet
facet normal 0 0 0
outer loop
vertex 25.461973 14.638271 8.419372
vertex 25.441498 14.617517 8.419372
vertex 25.461973 14.617517 8.439371
endloop
endfacet
facet normal 0 0 0
outer loop
vertex 25.441498 14.617517 8.419372
vertex 25.441498 14.617517 8.439371
vertex 25.461973 14.617517 8.439371
endloop
endfacet
facet normal 0 0 0
outer loop
vertex 25.461973 14.617517 8.439371
vertex 25.482449 14.638271 8.439371
vertex 25.461973 14.638271 8.419372
endloop
endfacet
facet normal 0 0 0
outer loop
vertex 25.523399 14.617517 8.439371
vertex 25.502924 14.617517 8.419372
vertex 25.502924 14.638271 8.439371
endloop
endfacet
facet normal 0 0 0
outer loop
vertex 25.502924 14.617517 8.419372
vertex 25.502924 14.638271 8.419372
vertex 25.502924 14.638271 8.439371
endloop
endfacet
facet normal 0 0 0
outer loop
vertex 25.461973 14.638271 8.419372
vertex 25.482449 14.638271 8.439371
vertex 25.482449 14.638271 8.419372
endloop
endfacet
facet normal 0 0 0
outer loop
vertex 25.502924 14.638271 8.419372
vertex 25.482449 14.638271 8.419372
vertex 25.502924 14.638271 8.439371
endloop
endfacet
facet normal 0 0 0
outer loop
vertex 25.482449 14.638271 8.419372
vertex 25.482449 14.638271 8.439371
vertex 25.502924 14.638271 8.439371
endloop
endfacet
facet normal 0 0 0
outer loop
vertex 25.502924 14.409985 8.459372
vertex 25.482449 14.409985 8.439371
vertex 25.502924 14.389231 8.439371
endloop
endfacet
facet normal 0 0 0
outer loop
vertex 25.482449 14.409985 8.439371
vertex 25.482449 14.389231 8.439371
vertex 25.502924 14.389231 8.439371
endloop
endfacet
facet normal 0 0 0
outer loop
vertex 25.523399 14.409985 8.439371
vertex 25.502924 14.409985 8.459372
vertex 25.502924 14.389231 8.439371
endloop
endfacet
facet normal 0 0 0
outer loop
vertex 25.502924 14.430738 8.459372
vertex 25.482449 14.409985 8.439371
vertex 25.502924 14.409985 8.459372
endloop
endfacet
facet normal 0 0 0
outer loop
vertex 25.482449 14.430738 8.439371
vertex 25.482449 14.409985 8.439371
vertex 25.502924 14.430738 8.459372
endloop
endfacet
facet normal 0 0 0
outer loop
vertex 25.523399 14.430738 8.439371
vertex 25.502924 14.409985 8.459372
vertex 25.523399 14.409985 8.439371
endloop
endfacet
facet normal 0 0 0
outer loop
vertex 25.502924 14.430738 8.459372
vertex 25.502924 14.409985 8.459372
vertex 25.523399 14.430738 8.439371
endloop
endfacet
facet normal 0 0 0
outer loop
vertex 25.482449 14.430738 8.439371
vertex 25.482449 14.451490 8.459372
vertex 25.482449 14.451490 8.439371
endloop
endfacet
facet normal 0 0 0
outer loop
vertex 25.502924 14.430738 8.459372
vertex 25.482449 14.451490 8.459372
vertex 25.482449 14.430738 8.439371
endloop
endfacet
facet normal 0 0 0
outer loop
vertex 25.523399 14.430738 8.439371
vertex 25.523399 14.451490 8.459372
vertex 25.502924 14.430738 8.459372
endloop
endfacet
facet normal 0 0 0
outer loop
vertex 25.523399 14.430738 8.439371
vertex 25.543877 14.451490 8.439371
vertex 25.523399 14.451490 8.459372
endloop
endfacet
facet normal 0 0 0
outer loop
vertex 25.543877 14.451490 8.439371
vertex 25.543877 14.451490 8.459372
vertex 25.523399 14.451490 8.459372
endloop
endfacet
facet normal 0 0 0
outer loop
vertex 25.461973 14.472244 8.439371
vertex 25.482449 14.451490 8.439371
vertex 25.482449 14.472244 8.459372
endloop
endfacet
facet normal 0 0 0
outer loop
vertex 25.482449 14.451490 8.439371
vertex 25.482449 14.451490 8.459372
vertex 25.482449 14.472244 8.459372
endloop
endfacet
facet normal 0 0 0
outer loop
vertex 25.543877 14.451490 8.439371
vertex 25.543877 14.472244 8.439371
vertex 25.543877 14.451490 8.459372
endloop
endfacet
facet normal 0 0 0
outer loop
vertex 25.543877 14.451490 8.459372
vertex 25.543877 14.472244 8.439371
vertex 25.543877 14.472244 8.459372
endloop
endfacet
facet normal 0 0 0
outer loop
vertex 25.482449 14.492998 8.459372
vertex 25.461973 14.472244 8.439371
vertex 25.482449 14.472244 8.459372
endloop
endfacet
facet normal 0 0 0
outer loop
vertex 25.461973 14.492998 8.439371
vertex 25.461973 14.472244 8.439371
vertex 25.482449 14.492998 8.459372
endloop
endfacet
facet normal 0 0 0
outer loop
vertex 25.543877 14.472244 8.439371
vertex 25.543877 14.492998 8.439371
vertex 25.543877 14.472244 8.459372
endloop
endfacet
facet normal 0 0 0
outer loop
vertex 25.543877 14.472244 8.459372
vertex 25.543877 14.492998 8.439371
vertex 25.543877 14.492998 8.459372
endloop
endfacet
facet normal 0 0 0
outer loop
vertex 25.482449 14.513750 8.459372
vertex 25.461973 14.492998 8.439371
vertex 25.482449 14.492998 8.459372
endloop
endfacet
facet normal 0 0 0
outer loop
vertex 25.461973 14.513750 8.439371
vertex 25.461973 14.492998 8.439371
vertex 25.482449 14.513750 8.459372
endloop
endfacet
facet normal 0 0 0
outer loop
vertex 25.543877 14.492998 8.439371
vertex 25.543877 14.513750 8.439371
vertex 25.543877 14.492998 8.459372
endloop
endfacet
facet normal 0 0 0
outer loop
vertex 25.543877 14.492998 8.459372
vertex 25.543877 14.513750 8.439371
vertex 25.543877 14.513750 8.459372
endloop
endfacet
facet normal 0 0 0
outer loop
vertex 25.482449 14.534504 8.459372
vertex 25.461973 14.513750 8.439371
vertex 25.482449 14.513750 8.459372
endloop
endfacet
facet normal 0 0 0
outer loop
vertex 25.461973 14.534504 8.439371
vertex 25.461973 14.513750 8.439371
vertex 25.482449 14.534504 8.459372
endloop
endfacet
facet normal 0 0 0
outer loop
vertex 25.543877 14.513750 8.439371
vertex 25.543877 14.534504 8.439371
vertex 25.543877 14.513750 8.459372
endloop
endfacet
facet normal 0 0 0
outer loop
vertex 25.543877 14.513750 8.459372
vertex 25.543877 14.534504 8.439371
vertex 25.543877 14.534504 8.459372
endloop
endfacet
facet normal 0 0 0
outer loop
vertex 25.482449 14.555258 8.459372
vertex 25.461973 14.534504 8.439371
vertex 25.482449 14.534504 8.459372
endloop
endfacet
facet normal 0 0 0
outer loop
vertex 25.461973 14.555258 8.439371
vertex 25.461973 14.534504 8.439371
vertex 25.482449 14.555258 8.459372
endloop
endfacet
facet normal 0 0 0
outer loop
vertex 25.543877 14.555258 8.439371
vertex 25.523399 14.555258 8.459372
vertex 25.543877 14.534504 8.459372
endloop
endfacet
facet normal 0 0 0
outer loop
vertex 25.543877 14.555258 8.439371
vertex 25.543877 14.534504 8.459372
vertex 25.543877 14.534504 8.439371
endloop
endfacet
facet normal 0 0 0
outer loop
vertex 25.461973 14.555258 8.439371
vertex 25.461973 14.576012 8.459372
vertex 25.461973 14.576012 8.439371
endloop
endfacet
facet normal 0 0 0
outer loop
vertex 25.482449 14.555258 8.459372
vertex 25.461973 14.576012 8.459372
vertex 25.461973 14.555258 8.439371
endloop
endfacet
facet normal 0 0 0
outer loop
vertex 25.543877 14.555258 8.439371
vertex 25.543877 14.576012 8.459372
vertex 25.523399 14.555258 8.459372
endloop
endfacet
facet normal 0 0 0
outer loop
vertex 25.543877 14.576012 8.459372
vertex 25.543877 14.555258 8.439371
vertex 25.543877 14.576012 8.439371
endloop
endfacet
facet normal 0 0 0
outer loop
vertex 25.441498 14.596764 8.439371
vertex 25.461973 14.576012 8.439371
vertex 25.461973 14.596764 8.459372
endloop
endfacet
facet normal 0 0 0
outer loop
vertex 25.461973 14.576012 8.439371
vertex 25.461973 14.576012 8.459372
vertex 25.461973 14.596764 8.459372
endloop
endfacet
facet normal 0 0 0
outer loop
vertex 25.543877 14.576012 8.439371
vertex 25.523399 14.596764 8.439371
vertex 25.543877 14.596764 8.459372
endloop
endfacet
facet normal 0 0 0
outer loop
vertex 25.543877 14.576012 8.439371
vertex 25.543877 14.596764 8.459372
vertex 25.543877 14.576012 8.459372
endloop
endfacet
facet normal 0 0 0
outer loop
vertex 25.461973 14.617517 8.459372
vertex 25.441498 14.596764 8.439371
vertex 25.461973 14.596764 8.459372
endloop
endfacet
facet normal 0 0 0
outer loop
vertex 25.441498 14.617517 8.439371
vertex 25.441498 14.596764 8.439371
vertex 25.461973 14.617517 8.459372
endloop
endfacet
facet normal 0 0 0
outer loop
vertex 25.543877 14.596764 8.459372
vertex 25.523399 14.596764 8.439371
vertex 25.523399 14.617517 8.459372
endloop
endfacet
facet normal 0 0 0
outer loop
vertex 25.523399 14.596764 8.439371
vertex 25.523399 14.617517 8.439371
vertex 25.523399 14.617517 8.459372
endloop
endfacet
facet normal 0 0 0
outer loop
vertex 25.441498 14.617517 8.439371
vertex 25.461973 14.617517 8.459372
vertex 25.461973 14.617517 8.439371
endloop
endfacet
facet normal 0 0 0
outer loop
vertex 25.461973 14.617517 8.459372
vertex 25.482449 14.638271 8.439371
vertex 25.461973 14.617517 8.439371
endloop
endfacet
facet normal 0 0 0
outer loop
vertex 25.482449 14.638271 8.459372
vertex 25.482449 14.638271 8.439371
vertex 25.461973 14.617517 8.459372
endloop
endfacet
facet normal 0 0 0
outer loop
vertex 25.523399 14.617517 8.439371
vertex 25.502924 14.638271 8.459372
vertex 25.523399 14.617517 8.459372
endloop
endfacet
facet normal 0 0 0
outer loop
vertex 25.502924 14.638271 8.439371
vertex 25.502924 14.638271 8.459372
vertex 25.523399 14.617517 8.439371
endloop
endfacet
facet normal 0 0 0
outer loop
vertex 25.502924 14.638271 8.439371
vertex 25.482449 14.638271 8.439371
vertex 25.502924 14.638271 8.459372
endloop
endfacet
facet normal 0 0 0
outer loop
vertex 25.482449 14.638271 8.439371
vertex 25.482449 14.638271 8.459372
vertex 25.502924 14.638271 8.459372
endloop
endfacet
facet normal 0 0 0
outer loop
vertex 25.482449 14.451490 8.459372
vertex 25.502924 14.430738 8.459372
vertex 25.502924 14.451490 8.459372
endloop
endfacet
facet normal 0 0 0
outer loop
vertex 25.502924 14.430738 8.459372
vertex 25.523399 14.451490 8.459372
vertex 25.502924 14.451490 8.459372
endloop
endfacet
facet normal 0 0 0
outer loop
vertex 25.502924 14.451490 8.459372
vertex 25.502924 14.472244 8.459372
vertex 25.482449 14.451490 8.459372
endloop
endfacet
facet normal 0 0 0
outer loop
vertex 25.502924 14.472244 8.459372
vertex 25.482449 14.472244 8.459372
vertex 25.482449 14.451490 8.459372
endloop
endfacet
facet normal 0 0 0
outer loop
vertex 25.523399 14.451490 8.459372
vertex 25.523399 14.472244 8.459372
vertex 25.502924 14.451490 8.459372
endloop
endfacet
facet normal 0 0 0
outer loop
vertex 25.523399 14.472244 8.459372
vertex 25.502924 14.472244 8.459372
vertex 25.502924 14.451490 8.459372
endloop
endfacet
facet normal 0 0 0
outer loop
vertex 25.543877 14.451490 8.459372
vertex 25.543877 14.472244 8.459372
vertex 25.523399 14.451490 8.459372
endloop
endfacet
facet normal 0 0 0
outer loop
vertex 25.543877 14.472244 8.459372
vertex 25.523399 14.472244 8.459372
vertex 25.523399 14.451490 8.459372
endloop
endfacet
facet normal 0 0 0
outer loop
vertex 25.502924 14.472244 8.459372
vertex 25.502924 14.492998 8.459372
vertex 25.482449 14.472244 8.459372
endloop
endfacet
facet normal 0 0 0
outer loop
vertex 25.502924 14.492998 8.459372
vertex 25.482449 14.492998 8.459372
vertex 25.482449 14.472244 8.459372
endloop
endfacet
facet normal 0 0 0
outer loop
vertex 25.523399 14.472244 8.459372
vertex 25.523399 14.492998 8.459372
vertex 25.502924 14.472244 8.459372
endloop
endfacet
facet normal 0 0 0
outer loop
vertex 25.523399 14.492998 8.459372
vertex 25.502924 14.492998 8.459372
vertex 25.502924 14.472244 8.459372
endloop
endfacet
facet normal 0 0 0
outer loop
vertex 25.543877 14.472244 8.459372
vertex 25.543877 14.492998 8.459372
vertex 25.523399 14.472244 8.459372
endloop
endfacet
facet normal 0 0 0
outer loop
vertex 25.543877 14.492998 8.459372
vertex 25.523399 14.492998 8.459372
vertex 25.523399 14.472244 8.459372
endloop
endfacet
facet normal 0 0 0
outer loop
vertex 25.482449 14.492998 8.459372
vertex 25.482449 14.513750 8.479372
vertex 25.482449 14.513750 8.459372
endloop
endfacet
facet normal 0 0 0
outer loop
vertex 25.502924 14.492998 8.459372
vertex 25.482449 14.513750 8.479372
vertex 25.482449 14.492998 8.459372
endloop
endfacet
facet normal 0 0 0
outer loop
vertex 25.502924 14.513750 8.479372
vertex 25.482449 14.513750 8.479372
vertex 25.502924 14.492998 8.459372
endloop
endfacet
facet normal 0 0 0
outer loop
vertex 25.523399 14.492998 8.459372
vertex 25.502924 14.513750 8.479372
vertex 25.502924 14.492998 8.459372
endloop
endfacet
facet normal 0 0 0
outer loop
vertex 25.523399 14.513750 8.479372
vertex 25.502924 14.513750 8.479372
vertex 25.523399 14.492998 8.459372
endloop
endfacet
facet normal 0 0 0
outer loop
vertex 25.523399 14.513750 8.479372
vertex 25.523399 14.492998 8.459372
vertex 25.543877 14.513750 8.459372
endloop
endfacet
facet normal 0 0 0
outer loop
vertex 25.523399 14.492998 8.459372
vertex 25.543877 14.492998 8.459372
vertex 25.543877 14.513750 8.459372
endloop
endfacet
facet normal 0 0 0
outer loop
vertex 25.482449 14.513750 8.459372
vertex 25.482449 14.513750 8.479372
vertex 25.482449 14.534504 8.459372
endloop
endfacet
facet normal 0 0 0
outer loop
vertex 25.482449 14.513750 8.479372
vertex 25.482449 14.534504 8.479372
vertex 25.482449 14.534504 8.459372
endloop
endfacet
facet normal 0 0 0
outer loop
vertex 25.543877 14.513750 8.459372
vertex 25.543877 14.534504 8.479372
vertex 25.523399 14.513750 8.479372
endloop
endfacet
facet normal 0 0 0
outer loop
vertex 25.543877 14.534504 8.479372
vertex 25.543877 14.513750 8.459372
vertex 25.543877 14.534504 8.459372
endloop
endfacet
facet normal 0 0 0
outer loop
vertex 25.482449 14.534504 8.459372
vertex 25.482449 14.534504 8.479372
vertex 25.482449 14.555258 8.459372
endloop
endfacet
facet normal 0 0 0
outer loop
vertex 25.482449 14.534504 8.479372
vertex 25.482449 14.555258 8.479372
vertex 25.482449 14.555258 8.459372
endloop
endfacet
facet normal 0 0 0
outer loop
vertex 25.543877 14.534504 8.459372
vertex 25.523399 14.555258 8.459372
vertex 25.543877 14.555258 8.479372
endloop
endfacet
facet normal 0 0 0
outer loop
vertex 25.543877 14.534504 8.459372
vertex 25.543877 14.555258 8.479372
vertex 25.543877 14.534504 8.479372
endloop
endfacet
facet normal 0 0 0
outer loop
vertex 25.461973 14.576012 8.459372
vertex 25.482449 14.555258 8.459372
vertex 25.482449 14.576012 8.479372
endloop
endfacet
facet normal 0 0 0
outer loop
vertex 25.482449 14.555258 8.459372
vertex 25.482449 14.555258 8.479372
vertex 25.482449 14.576012 8.479372
endloop
endfacet
facet normal 0 0 0
outer loop
vertex 25.523399 14.555258 8.459372
vertex 25.543877 14.576012 8.459372
vertex 25.543877 14.555258 8.479372
endloop
endfacet
facet normal 0 0 0
outer loop
vertex 25.543877 14.555258 8.479372
vertex 25.543877 14.576012 8.459372
vertex 25.543877 14.576012 8.479372
endloop
endfacet
facet normal 0 0 0
outer loop
vertex 25.482449 14.596764 8.479372
vertex 25.461973 14.576012 8.459372
vertex 25.482449 14.576012 8.479372
endloop
endfacet
facet normal 0 0 0
outer loop
vertex 25.461973 14.596764 8.459372
vertex 25.461973 14.576012 8.459372
vertex 25.482449 14.596764 8.479372
endloop
endfacet
facet normal 0 0 0
outer loop
vertex 25.564352 14.596764 8.479372
vertex 25.543877 14.576012 8.479372
vertex 25.543877 14.596764 8.459372
endloop
endfacet
facet normal 0 0 0
outer loop
vertex 25.543877 14.576012 8.479372
vertex 25.543877 14.576012 8.459372
vertex 25.543877 14.596764 8.459372
endloop
endfacet
facet normal 0 0 0
outer loop
vertex 25.482449 14.617517 8.479372
vertex 25.461973 14.596764 8.459372
vertex 25.482449 14.596764 8.479372
endloop
endfacet
facet normal 0 0 0
outer loop
vertex 25.461973 14.617517 8.459372
vertex 25.461973 14.596764 8.459372
vertex 25.482449 14.617517 8.479372
endloop
endfacet
facet normal 0 0 0
outer loop
vertex 25.543877 14.596764 8.459372
vertex 25.523399 14.617517 8.459372
vertex 25.543877 14.617517 8.479372
endloop
endfacet
facet normal 0 0 0
outer loop
vertex 25.543877 14.596764 8.459372
vertex 25.543877 14.617517 8.479372
vertex 25.564352 14.596764 8.479372
endloop
endfacet
facet normal 0 0 0
outer loop
vertex 25.461973 14.617517 8.459372
vertex 25.482449 14.617517 8.479372
vertex 25.482449 14.638271 8.459372
endloop
endfacet
facet normal 0 0 0
outer loop
vertex 25.482449 14.617517 8.479372
vertex 25.482449 14.638271 8.479372
vertex 25.482449 14.638271 8.459372
endloop
endfacet
facet normal 0 0 0
outer loop
vertex 25.502924 14.638271 8.459372
vertex 25.482449 14.638271 8.479372
vertex 25.502924 14.617517 8.479372
endloop
endfacet
facet normal 0 0 0
outer loop
vertex 25.502924 14.638271 8.459372
vertex 25.502924 14.617517 8.479372
vertex 25.523399 14.617517 8.459372
endloop
endfacet
facet normal 0 0 0
outer loop
vertex 25.502924 14.617517 8.479372
vertex 25.523399 14.617517 8.479372
vertex 25.523399 14.617517 8.459372
endloop
endfacet
facet normal 0 0 0
outer loop
vertex 25.543877 14.617517 8.479372
vertex 25.523399 14.617517 8.459372
vertex 25.523399 14.617517 8.479372
endloop
endfacet
facet normal 0 0 0
outer loop
vertex 25.482449 14.638271 8.479372
vertex 25.502924 14.638271 8.459372
vertex 25.482449 14.638271 8.459372
endloop
endfacet
facet normal 0 0 0
outer loop
vertex 25.502924 14.513750 8.479372
vertex 25.502924 14.534504 8.479372
vertex 25.482449 14.513750 8.479372
endloop
endfacet
facet normal 0 0 0
outer loop
vertex 25.502924 14.534504 8.479372
vertex 25.482449 14.534504 8.479372
vertex 25.482449 14.513750 8.479372
endloop
endfacet
facet normal 0 0 0
outer loop
vertex 25.523399 14.513750 8.479372
vertex 25.523399 14.534504 8.479372
vertex 25.502924 14.513750 8.479372
endloop
endfacet
facet normal 0 0 0
outer loop
vertex 25.523399 14.534504 8.479372
vertex 25.502924 14.534504 8.479372
vertex 25.502924 14.513750 8.479372
endloop
endfacet
facet normal 0 0 0
outer loop
vertex 25.523399 14.513750 8.479372
vertex 25.543877 14.534504 8.479372
vertex 25.523399 14.534504 8.479372
endloop
endfacet
facet normal 0 0 0
outer loop
vertex 25.502924 14.534504 8.479372
vertex 25.502924 14.555258 8.479372
vertex 25.482449 14.534504 8.479372
endloop
endfacet
facet normal 0 0 0
outer loop
vertex 25.502924 14.555258 8.479372
vertex 25.482449 14.555258 8.479372
vertex 25.482449 14.534504 8.479372
endloop
endfacet
facet normal 0 0 0
outer loop
vertex 25.523399 14.534504 8.479372
vertex 25.523399 14.555258 8.479372
vertex 25.502924 14.534504 8.479372
endloop
endfacet
facet normal 0 0 0
outer loop
vertex 25.523399 14.555258 8.479372
vertex 25.502924 14.555258 8.479372
vertex 25.502924 14.534504 8.479372
endloop
endfacet
facet normal 0 0 0
outer loop
vertex 25.543877 14.534504 8.479372
vertex 25.543877 14.555258 8.479372
vertex 25.523399 14.534504 8.479372
endloop
endfacet
facet normal 0 0 0
outer loop
vertex 25.543877 14.555258 8.479372
vertex 25.523399 14.555258 8.479372
vertex 25.523399 14.534504 8.479372
endloop
endfacet
facet normal 0 0 0
outer loop
vertex 25.502924 14.555258 8.479372
vertex 25.502924 14.576012 8.479372
vertex 25.482449 14.555258 8.479372
endloop
endfacet
facet normal 0 0 0
outer loop
vertex 25.502924 14.576012 8.479372
vertex 25.482449 14.576012 8.479372
vertex 25.482449 14.555258 8.479372
endloop
endfacet
facet normal 0 0 0
outer loop
vertex 25.523399 14.555258 8.479372
vertex 25.523399 14.576012 8.479372
vertex 25.502924 14.555258 8.479372
endloop
endfacet
facet normal 0 0 0
outer loop
vertex 25.523399 14.576012 8.479372
vertex 25.502924 14.576012 8.479372
vertex 25.502924 14.555258 8.479372
endloop
endfacet
facet normal 0 0 0
outer loop
vertex 25.543877 14.555258 8.479372
vertex 25.543877 14.576012 8.479372
vertex 25.523399 14.555258 8.479372
endloop
endfacet
facet normal 0 0 0
outer loop
vertex 25.543877 14.576012 8.479372
vertex 25.523399 14.576012 8.479372
vertex 25.523399 14.555258 8.479372
endloop
endfacet
facet normal 0 0 0
outer loop
vertex 25.502924 14.576012 8.479372
vertex 25.502924 14.596764 8.479372
vertex 25.482449 14.576012 8.479372
endloop
endfacet
facet normal 0 0 0
outer loop
vertex 25.502924 14.596764 8.479372
vertex 25.482449 14.596764 8.479372
vertex 25.482449 14.576012 8.479372
endloop
endfacet
facet normal 0 0 0
outer loop
vertex 25.523399 14.576012 8.479372
vertex 25.523399 14.596764 8.479372
vertex 25.502924 14.576012 8.479372
endloop
endfacet
facet normal 0 0 0
outer loop
vertex 25.523399 14.596764 8.479372
vertex 25.502924 14.596764 8.479372
vertex 25.502924 14.576012 8.479372
endloop
endfacet
facet normal 0 0 0
outer loop
vertex 25.543877 14.576012 8.479372
vertex 25.543877 14.596764 8.479372
vertex 25.523399 14.576012 8.479372
endloop
endfacet
facet normal 0 0 0
outer loop
vertex 25.543877 14.596764 8.479372
vertex 25.523399 14.596764 8.479372
vertex 25.523399 14.576012 8.479372
endloop
endfacet
facet normal 0 0 0
outer loop
vertex 25.543877 14.576012 8.479372
vertex 25.564352 14.596764 8.479372
vertex 25.543877 14.596764 8.479372
endloop
endfacet
facet normal 0 0 0
outer loop
vertex 25.502924 14.596764 8.479372
vertex 25.502924 14.617517 8.479372
vertex 25.482449 14.596764 8.479372
endloop
endfacet
facet normal 0 0 0
outer loop
vertex 25.502924 14.617517 8.479372
vertex 25.482449 14.617517 8.479372
vertex 25.482449 14.596764 8.479372
endloop
endfacet
facet normal 0 0 0
outer loop
vertex 25.523399 14.596764 8.479372
vertex 25.523399 14.617517 8.479372
vertex 25.502924 14.596764 8.479372
endloop
endfacet
facet normal 0 0 0
outer loop
vertex 25.523399 14.617517 8.479372
vertex 25.502924 14.617517 8.479372
vertex 25.502924 14.596764 8.479372
endloop
endfacet
facet normal 0 0 0
outer loop
vertex 25.543877 14.596764 8.479372
vertex 25.543877 14.617517 8.479372
vertex 25.523399 14.596764 8.479372
endloop
endfacet
facet normal 0 0 0
outer loop
vertex 25.543877 14.617517 8.479372
vertex 25.523399 14.617517 8.479372
vertex 25.523399 14.596764 8.479372
endloop
endfacet
facet normal 0 0 0
outer loop
vertex 25.564352 14.596764 8.479372
vertex 25.543877 14.617517 8.479372
vertex 25.543877 14.596764 8.479372
endloop
endfacet
facet normal 0 0 0
outer loop
vertex 25.502924 14.617517 8.479372
vertex 25.482449 14.638271 8.479372
vertex 25.482449 14.617517 8.479372
endloop
endfacet
endsolid B-16-Plag.170
