solid B-16-Plag.282
facet normal 0 0 0
outer loop
vertex 7.791358 12.770472 11.699371
vertex 7.770882 12.791225 11.699371
vertex 7.791358 12.791225 11.699371
endloop
endfacet
facet normal 0 0 0
outer loop
vertex 7.811834 12.770472 11.699371
vertex 7.791358 12.770472 11.699371
vertex 7.811834 12.791225 11.699371
endloop
endfacet
facet normal 0 0 0
outer loop
vertex 7.811834 12.791225 11.699371
vertex 7.791358 12.770472 11.699371
vertex 7.791358 12.791225 11.699371
endloop
endfacet
facet normal 0 0 0
outer loop
vertex 7.750407 12.791225 11.699371
vertex 7.729930 12.811978 11.699371
vertex 7.750407 12.811978 11.699371
endloop
endfacet
facet normal 0 0 0
outer loop
vertex 7.770882 12.791225 11.699371
vertex 7.750407 12.791225 11.699371
vertex 7.770882 12.811978 11.699371
endloop
endfacet
facet normal 0 0 0
outer loop
vertex 7.770882 12.811978 11.699371
vertex 7.750407 12.791225 11.699371
vertex 7.750407 12.811978 11.699371
endloop
endfacet
facet normal 0 0 0
outer loop
vertex 7.791358 12.791225 11.699371
vertex 7.770882 12.791225 11.699371
vertex 7.791358 12.811978 11.699371
endloop
endfacet
facet normal 0 0 0
outer loop
vertex 7.791358 12.811978 11.699371
vertex 7.770882 12.791225 11.699371
vertex 7.770882 12.811978 11.699371
endloop
endfacet
facet normal 0 0 0
outer loop
vertex 7.811834 12.791225 11.699371
vertex 7.791358 12.791225 11.699371
vertex 7.811834 12.811978 11.699371
endloop
endfacet
facet normal 0 0 0
outer loop
vertex 7.811834 12.811978 11.699371
vertex 7.791358 12.791225 11.699371
vertex 7.791358 12.811978 11.699371
endloop
endfacet
facet normal 0 0 0
outer loop
vertex 7.832309 12.791225 11.699371
vertex 7.811834 12.791225 11.699371
vertex 7.832309 12.811978 11.699371
endloop
endfacet
facet normal 0 0 0
outer loop
vertex 7.832309 12.811978 11.699371
vertex 7.811834 12.791225 11.699371
vertex 7.811834 12.811978 11.699371
endloop
endfacet
facet normal 0 0 0
outer loop
vertex 7.750407 12.811978 11.699371
vertex 7.729930 12.811978 11.699371
vertex 7.750407 12.832732 11.699371
endloop
endfacet
facet normal 0 0 0
outer loop
vertex 7.750407 12.832732 11.699371
vertex 7.729930 12.811978 11.699371
vertex 7.729930 12.832732 11.699371
endloop
endfacet
facet normal 0 0 0
outer loop
vertex 7.770882 12.811978 11.699371
vertex 7.750407 12.811978 11.699371
vertex 7.770882 12.832732 11.699371
endloop
endfacet
facet normal 0 0 0
outer loop
vertex 7.770882 12.832732 11.699371
vertex 7.750407 12.811978 11.699371
vertex 7.750407 12.832732 11.699371
endloop
endfacet
facet normal 0 0 0
outer loop
vertex 7.791358 12.811978 11.699371
vertex 7.770882 12.811978 11.699371
vertex 7.791358 12.832732 11.699371
endloop
endfacet
facet normal 0 0 0
outer loop
vertex 7.791358 12.832732 11.699371
vertex 7.770882 12.811978 11.699371
vertex 7.770882 12.832732 11.699371
endloop
endfacet
facet normal 0 0 0
outer loop
vertex 7.811834 12.811978 11.699371
vertex 7.791358 12.811978 11.699371
vertex 7.811834 12.832732 11.699371
endloop
endfacet
facet normal 0 0 0
outer loop
vertex 7.811834 12.832732 11.699371
vertex 7.791358 12.811978 11.699371
vertex 7.791358 12.832732 11.699371
endloop
endfacet
facet normal 0 0 0
outer loop
vertex 7.811834 12.832732 11.699371
vertex 7.832309 12.811978 11.699371
vertex 7.811834 12.811978 11.699371
endloop
endfacet
facet normal 0 0 0
outer loop
vertex 7.750407 12.832732 11.699371
vertex 7.729930 12.832732 11.699371
vertex 7.750407 12.853485 11.699371
endloop
endfacet
facet normal 0 0 0
outer loop
vertex 7.750407 12.853485 11.699371
vertex 7.729930 12.832732 11.699371
vertex 7.729930 12.853485 11.699371
endloop
endfacet
facet normal 0 0 0
outer loop
vertex 7.770882 12.832732 11.699371
vertex 7.750407 12.832732 11.699371
vertex 7.770882 12.853485 11.699371
endloop
endfacet
facet normal 0 0 0
outer loop
vertex 7.770882 12.853485 11.699371
vertex 7.750407 12.832732 11.699371
vertex 7.750407 12.853485 11.699371
endloop
endfacet
facet normal 0 0 0
outer loop
vertex 7.791358 12.832732 11.699371
vertex 7.770882 12.832732 11.699371
vertex 7.791358 12.853485 11.699371
endloop
endfacet
facet normal 0 0 0
outer loop
vertex 7.791358 12.853485 11.699371
vertex 7.770882 12.832732 11.699371
vertex 7.770882 12.853485 11.699371
endloop
endfacet
facet normal 0 0 0
outer loop
vertex 7.811834 12.832732 11.699371
vertex 7.791358 12.832732 11.699371
vertex 7.811834 12.853485 11.699371
endloop
endfacet
facet normal 0 0 0
outer loop
vertex 7.811834 12.853485 11.699371
vertex 7.791358 12.832732 11.699371
vertex 7.791358 12.853485 11.699371
endloop
endfacet
facet normal 0 0 0
outer loop
vertex 7.729930 12.853485 11.699371
vertex 7.750407 12.874239 11.699371
vertex 7.750407 12.853485 11.699371
endloop
endfacet
facet normal 0 0 0
outer loop
vertex 7.770882 12.853485 11.699371
vertex 7.750407 12.853485 11.699371
vertex 7.770882 12.874239 11.699371
endloop
endfacet
facet normal 0 0 0
outer loop
vertex 7.770882 12.874239 11.699371
vertex 7.750407 12.853485 11.699371
vertex 7.750407 12.874239 11.699371
endloop
endfacet
facet normal 0 0 0
outer loop
vertex 7.791358 12.853485 11.699371
vertex 7.770882 12.853485 11.699371
vertex 7.791358 12.874239 11.699371
endloop
endfacet
facet normal 0 0 0
outer loop
vertex 7.791358 12.874239 11.699371
vertex 7.770882 12.853485 11.699371
vertex 7.770882 12.874239 11.699371
endloop
endfacet
facet normal 0 0 0
outer loop
vertex 7.791358 12.874239 11.699371
vertex 7.811834 12.853485 11.699371
vertex 7.791358 12.853485 11.699371
endloop
endfacet
facet normal 0 0 0
outer loop
vertex 7.770882 12.874239 11.699371
vertex 7.750407 12.874239 11.699371
vertex 7.770882 12.894992 11.699371
endloop
endfacet
facet normal 0 0 0
outer loop
vertex 7.770882 12.894992 11.699371
vertex 7.750407 12.874239 11.699371
vertex 7.750407 12.894992 11.699371
endloop
endfacet
facet normal 0 0 0
outer loop
vertex 7.770882 12.894992 11.699371
vertex 7.791358 12.874239 11.699371
vertex 7.770882 12.874239 11.699371
endloop
endfacet
facet normal 0 0 0
outer loop
vertex 7.750407 12.915745 11.699371
vertex 7.770882 12.894992 11.699371
vertex 7.750407 12.894992 11.699371
endloop
endfacet
facet normal 0 0 0
outer loop
vertex 7.811834 12.770472 11.699371
vertex 7.791358 12.770472 11.719372
vertex 7.791358 12.770472 11.699371
endloop
endfacet
facet normal 0 0 0
outer loop
vertex 7.770882 12.791225 11.719372
vertex 7.750407 12.791225 11.699371
vertex 7.770882 12.791225 11.699371
endloop
endfacet
facet normal 0 0 0
outer loop
vertex 7.791358 12.770472 11.719372
vertex 7.770882 12.791225 11.699371
vertex 7.791358 12.770472 11.699371
endloop
endfacet
facet normal 0 0 0
outer loop
vertex 7.770882 12.791225 11.719372
vertex 7.770882 12.791225 11.699371
vertex 7.791358 12.770472 11.719372
endloop
endfacet
facet normal 0 0 0
outer loop
vertex 7.811834 12.791225 11.699371
vertex 7.791358 12.770472 11.719372
vertex 7.811834 12.770472 11.699371
endloop
endfacet
facet normal 0 0 0
outer loop
vertex 7.791358 12.791225 11.719372
vertex 7.791358 12.770472 11.719372
vertex 7.811834 12.791225 11.699371
endloop
endfacet
facet normal 0 0 0
outer loop
vertex 7.811834 12.770472 11.699371
vertex 7.832309 12.791225 11.699371
vertex 7.811834 12.791225 11.699371
endloop
endfacet
facet normal 0 0 0
outer loop
vertex 7.750407 12.791225 11.699371
vertex 7.750407 12.811978 11.719372
vertex 7.729930 12.811978 11.699371
endloop
endfacet
facet normal 0 0 0
outer loop
vertex 7.770882 12.791225 11.719372
vertex 7.750407 12.811978 11.719372
vertex 7.750407 12.791225 11.699371
endloop
endfacet
facet normal 0 0 0
outer loop
vertex 7.811834 12.791225 11.699371
vertex 7.811834 12.811978 11.719372
vertex 7.791358 12.791225 11.719372
endloop
endfacet
facet normal 0 0 0
outer loop
vertex 7.811834 12.811978 11.719372
vertex 7.811834 12.791225 11.699371
vertex 7.832309 12.811978 11.699371
endloop
endfacet
facet normal 0 0 0
outer loop
vertex 7.729930 12.811978 11.699371
vertex 7.729930 12.832732 11.719372
vertex 7.729930 12.832732 11.699371
endloop
endfacet
facet normal 0 0 0
outer loop
vertex 7.750407 12.811978 11.719372
vertex 7.729930 12.832732 11.719372
vertex 7.729930 12.811978 11.699371
endloop
endfacet
facet normal 0 0 0
outer loop
vertex 7.832309 12.811978 11.699371
vertex 7.811834 12.832732 11.699371
vertex 7.811834 12.811978 11.719372
endloop
endfacet
facet normal 0 0 0
outer loop
vertex 7.811834 12.832732 11.699371
vertex 7.811834 12.832732 11.719372
vertex 7.811834 12.811978 11.719372
endloop
endfacet
facet normal 0 0 0
outer loop
vertex 7.729930 12.832732 11.699371
vertex 7.729930 12.832732 11.719372
vertex 7.729930 12.853485 11.699371
endloop
endfacet
facet normal 0 0 0
outer loop
vertex 7.729930 12.832732 11.719372
vertex 7.729930 12.853485 11.719372
vertex 7.729930 12.853485 11.699371
endloop
endfacet
facet normal 0 0 0
outer loop
vertex 7.811834 12.832732 11.699371
vertex 7.811834 12.853485 11.699371
vertex 7.811834 12.832732 11.719372
endloop
endfacet
facet normal 0 0 0
outer loop
vertex 7.811834 12.832732 11.719372
vertex 7.811834 12.853485 11.699371
vertex 7.811834 12.853485 11.719372
endloop
endfacet
facet normal 0 0 0
outer loop
vertex 7.729930 12.874239 11.719372
vertex 7.729930 12.853485 11.699371
vertex 7.729930 12.853485 11.719372
endloop
endfacet
facet normal 0 0 0
outer loop
vertex 7.729930 12.853485 11.699371
vertex 7.729930 12.874239 11.719372
vertex 7.750407 12.874239 11.699371
endloop
endfacet
facet normal 0 0 0
outer loop
vertex 7.811834 12.853485 11.699371
vertex 7.791358 12.874239 11.699371
vertex 7.811834 12.874239 11.719372
endloop
endfacet
facet normal 0 0 0
outer loop
vertex 7.811834 12.853485 11.699371
vertex 7.811834 12.874239 11.719372
vertex 7.811834 12.853485 11.719372
endloop
endfacet
facet normal 0 0 0
outer loop
vertex 7.750407 12.874239 11.699371
vertex 7.729930 12.894992 11.719372
vertex 7.750407 12.894992 11.699371
endloop
endfacet
facet normal 0 0 0
outer loop
vertex 7.729930 12.874239 11.719372
vertex 7.729930 12.894992 11.719372
vertex 7.750407 12.874239 11.699371
endloop
endfacet
facet normal 0 0 0
outer loop
vertex 7.791358 12.874239 11.699371
vertex 7.770882 12.894992 11.699371
vertex 7.791358 12.894992 11.719372
endloop
endfacet
facet normal 0 0 0
outer loop
vertex 7.791358 12.874239 11.699371
vertex 7.791358 12.894992 11.719372
vertex 7.811834 12.874239 11.719372
endloop
endfacet
facet normal 0 0 0
outer loop
vertex 7.791358 12.894992 11.719372
vertex 7.811834 12.894992 11.719372
vertex 7.811834 12.874239 11.719372
endloop
endfacet
facet normal 0 0 0
outer loop
vertex 7.729930 12.894992 11.719372
vertex 7.750407 12.915745 11.719372
vertex 7.750407 12.894992 11.699371
endloop
endfacet
facet normal 0 0 0
outer loop
vertex 7.750407 12.915745 11.719372
vertex 7.750407 12.915745 11.699371
vertex 7.750407 12.894992 11.699371
endloop
endfacet
facet normal 0 0 0
outer loop
vertex 7.770882 12.894992 11.699371
vertex 7.750407 12.915745 11.699371
vertex 7.770882 12.915745 11.719372
endloop
endfacet
facet normal 0 0 0
outer loop
vertex 7.770882 12.894992 11.699371
vertex 7.770882 12.915745 11.719372
vertex 7.791358 12.894992 11.719372
endloop
endfacet
facet normal 0 0 0
outer loop
vertex 7.770882 12.915745 11.719372
vertex 7.791358 12.915745 11.719372
vertex 7.791358 12.894992 11.719372
endloop
endfacet
facet normal 0 0 0
outer loop
vertex 7.811834 12.894992 11.719372
vertex 7.791358 12.894992 11.719372
vertex 7.811834 12.915745 11.719372
endloop
endfacet
facet normal 0 0 0
outer loop
vertex 7.811834 12.915745 11.719372
vertex 7.791358 12.894992 11.719372
vertex 7.791358 12.915745 11.719372
endloop
endfacet
facet normal 0 0 0
outer loop
vertex 7.750407 12.936499 11.719372
vertex 7.750407 12.915745 11.699371
vertex 7.750407 12.915745 11.719372
endloop
endfacet
facet normal 0 0 0
outer loop
vertex 7.750407 12.915745 11.699371
vertex 7.750407 12.936499 11.719372
vertex 7.770882 12.915745 11.719372
endloop
endfacet
facet normal 0 0 0
outer loop
vertex 7.750407 12.936499 11.719372
vertex 7.770882 12.936499 11.719372
vertex 7.770882 12.915745 11.719372
endloop
endfacet
facet normal 0 0 0
outer loop
vertex 7.791358 12.915745 11.719372
vertex 7.770882 12.915745 11.719372
vertex 7.791358 12.936499 11.719372
endloop
endfacet
facet normal 0 0 0
outer loop
vertex 7.791358 12.936499 11.719372
vertex 7.770882 12.915745 11.719372
vertex 7.770882 12.936499 11.719372
endloop
endfacet
facet normal 0 0 0
outer loop
vertex 7.791358 12.936499 11.719372
vertex 7.811834 12.915745 11.719372
vertex 7.791358 12.915745 11.719372
endloop
endfacet
facet normal 0 0 0
outer loop
vertex 7.791358 12.770472 11.719372
vertex 7.791358 12.791225 11.739372
vertex 7.770882 12.791225 11.719372
endloop
endfacet
facet normal 0 0 0
outer loop
vertex 7.791358 12.791225 11.739372
vertex 7.791358 12.770472 11.719372
vertex 7.791358 12.791225 11.719372
endloop
endfacet
facet normal 0 0 0
outer loop
vertex 7.770882 12.791225 11.719372
vertex 7.770882 12.811978 11.739372
vertex 7.750407 12.811978 11.719372
endloop
endfacet
facet normal 0 0 0
outer loop
vertex 7.770882 12.811978 11.739372
vertex 7.750407 12.811978 11.739372
vertex 7.750407 12.811978 11.719372
endloop
endfacet
facet normal 0 0 0
outer loop
vertex 7.791358 12.791225 11.739372
vertex 7.770882 12.811978 11.739372
vertex 7.770882 12.791225 11.719372
endloop
endfacet
facet normal 0 0 0
outer loop
vertex 7.791358 12.791225 11.719372
vertex 7.811834 12.811978 11.739372
vertex 7.791358 12.791225 11.739372
endloop
endfacet
facet normal 0 0 0
outer loop
vertex 7.811834 12.811978 11.719372
vertex 7.811834 12.811978 11.739372
vertex 7.791358 12.791225 11.719372
endloop
endfacet
facet normal 0 0 0
outer loop
vertex 7.811834 12.811978 11.719372
vertex 7.832309 12.811978 11.739372
vertex 7.832309 12.791225 11.739372
endloop
endfacet
facet normal 0 0 0
outer loop
vertex 7.811834 12.811978 11.719372
vertex 7.832309 12.791225 11.739372
vertex 7.811834 12.811978 11.739372
endloop
endfacet
facet normal 0 0 0
outer loop
vertex 7.729930 12.832732 11.719372
vertex 7.750407 12.811978 11.719372
vertex 7.750407 12.832732 11.739372
endloop
endfacet
facet normal 0 0 0
outer loop
vertex 7.750407 12.811978 11.719372
vertex 7.750407 12.811978 11.739372
vertex 7.750407 12.832732 11.739372
endloop
endfacet
facet normal 0 0 0
outer loop
vertex 7.832309 12.811978 11.739372
vertex 7.811834 12.832732 11.719372
vertex 7.832309 12.832732 11.739372
endloop
endfacet
facet normal 0 0 0
outer loop
vertex 7.811834 12.811978 11.719372
vertex 7.811834 12.832732 11.719372
vertex 7.832309 12.811978 11.739372
endloop
endfacet
facet normal 0 0 0
outer loop
vertex 7.750407 12.853485 11.739372
vertex 7.729930 12.832732 11.719372
vertex 7.750407 12.832732 11.739372
endloop
endfacet
facet normal 0 0 0
outer loop
vertex 7.729930 12.853485 11.719372
vertex 7.729930 12.832732 11.719372
vertex 7.750407 12.853485 11.739372
endloop
endfacet
facet normal 0 0 0
outer loop
vertex 7.832309 12.832732 11.739372
vertex 7.811834 12.853485 11.719372
vertex 7.832309 12.853485 11.739372
endloop
endfacet
facet normal 0 0 0
outer loop
vertex 7.811834 12.832732 11.719372
vertex 7.811834 12.853485 11.719372
vertex 7.832309 12.832732 11.739372
endloop
endfacet
facet normal 0 0 0
outer loop
vertex 7.729930 12.853485 11.719372
vertex 7.729930 12.874239 11.739372
vertex 7.729930 12.874239 11.719372
endloop
endfacet
facet normal 0 0 0
outer loop
vertex 7.750407 12.853485 11.739372
vertex 7.729930 12.874239 11.739372
vertex 7.729930 12.853485 11.719372
endloop
endfacet
facet normal 0 0 0
outer loop
vertex 7.832309 12.853485 11.739372
vertex 7.811834 12.874239 11.719372
vertex 7.832309 12.874239 11.739372
endloop
endfacet
facet normal 0 0 0
outer loop
vertex 7.811834 12.853485 11.719372
vertex 7.811834 12.874239 11.719372
vertex 7.832309 12.853485 11.739372
endloop
endfacet
facet normal 0 0 0
outer loop
vertex 7.729930 12.874239 11.719372
vertex 7.729930 12.874239 11.739372
vertex 7.729930 12.894992 11.719372
endloop
endfacet
facet normal 0 0 0
outer loop
vertex 7.729930 12.874239 11.739372
vertex 7.729930 12.894992 11.739372
vertex 7.729930 12.894992 11.719372
endloop
endfacet
facet normal 0 0 0
outer loop
vertex 7.832309 12.874239 11.739372
vertex 7.811834 12.894992 11.719372
vertex 7.832309 12.894992 11.739372
endloop
endfacet
facet normal 0 0 0
outer loop
vertex 7.811834 12.874239 11.719372
vertex 7.811834 12.894992 11.719372
vertex 7.832309 12.874239 11.739372
endloop
endfacet
facet normal 0 0 0
outer loop
vertex 7.729930 12.915745 11.739372
vertex 7.729930 12.894992 11.719372
vertex 7.729930 12.894992 11.739372
endloop
endfacet
facet normal 0 0 0
outer loop
vertex 7.729930 12.894992 11.719372
vertex 7.729930 12.915745 11.739372
vertex 7.750407 12.915745 11.719372
endloop
endfacet
facet normal 0 0 0
outer loop
vertex 7.832309 12.894992 11.739372
vertex 7.811834 12.915745 11.719372
vertex 7.832309 12.915745 11.739372
endloop
endfacet
facet normal 0 0 0
outer loop
vertex 7.811834 12.894992 11.719372
vertex 7.811834 12.915745 11.719372
vertex 7.832309 12.894992 11.739372
endloop
endfacet
facet normal 0 0 0
outer loop
vertex 7.729930 12.915745 11.739372
vertex 7.750407 12.936499 11.739372
vertex 7.750407 12.915745 11.719372
endloop
endfacet
facet normal 0 0 0
outer loop
vertex 7.750407 12.936499 11.739372
vertex 7.750407 12.936499 11.719372
vertex 7.750407 12.915745 11.719372
endloop
endfacet
facet normal 0 0 0
outer loop
vertex 7.811834 12.915745 11.719372
vertex 7.791358 12.936499 11.719372
vertex 7.811834 12.936499 11.739372
endloop
endfacet
facet normal 0 0 0
outer loop
vertex 7.811834 12.915745 11.719372
vertex 7.811834 12.936499 11.739372
vertex 7.832309 12.915745 11.739372
endloop
endfacet
facet normal 0 0 0
outer loop
vertex 7.770882 12.957252 11.739372
vertex 7.770882 12.936499 11.719372
vertex 7.750407 12.936499 11.739372
endloop
endfacet
facet normal 0 0 0
outer loop
vertex 7.770882 12.936499 11.719372
vertex 7.750407 12.936499 11.719372
vertex 7.750407 12.936499 11.739372
endloop
endfacet
facet normal 0 0 0
outer loop
vertex 7.770882 12.936499 11.719372
vertex 7.791358 12.957252 11.739372
vertex 7.791358 12.936499 11.719372
endloop
endfacet
facet normal 0 0 0
outer loop
vertex 7.770882 12.957252 11.739372
vertex 7.791358 12.957252 11.739372
vertex 7.770882 12.936499 11.719372
endloop
endfacet
facet normal 0 0 0
outer loop
vertex 7.791358 12.936499 11.719372
vertex 7.791358 12.957252 11.739372
vertex 7.811834 12.936499 11.739372
endloop
endfacet
facet normal 0 0 0
outer loop
vertex 7.770882 12.957252 11.739372
vertex 7.791358 12.978005 11.739372
vertex 7.791358 12.957252 11.739372
endloop
endfacet
facet normal 0 0 0
outer loop
vertex 7.770882 12.811978 11.739372
vertex 7.770882 12.811978 11.759372
vertex 7.750407 12.811978 11.739372
endloop
endfacet
facet normal 0 0 0
outer loop
vertex 7.750407 12.811978 11.739372
vertex 7.770882 12.811978 11.759372
vertex 7.750407 12.811978 11.759372
endloop
endfacet
facet normal 0 0 0
outer loop
vertex 7.791358 12.791225 11.739372
vertex 7.791358 12.811978 11.759372
vertex 7.770882 12.811978 11.739372
endloop
endfacet
facet normal 0 0 0
outer loop
vertex 7.791358 12.811978 11.759372
vertex 7.770882 12.811978 11.759372
vertex 7.770882 12.811978 11.739372
endloop
endfacet
facet normal 0 0 0
outer loop
vertex 7.811834 12.811978 11.739372
vertex 7.791358 12.811978 11.759372
vertex 7.791358 12.791225 11.739372
endloop
endfacet
facet normal 0 0 0
outer loop
vertex 7.811834 12.811978 11.739372
vertex 7.832309 12.791225 11.739372
vertex 7.832309 12.811978 11.739372
endloop
endfacet
facet normal 0 0 0
outer loop
vertex 7.750407 12.811978 11.739372
vertex 7.750407 12.811978 11.759372
vertex 7.750407 12.832732 11.739372
endloop
endfacet
facet normal 0 0 0
outer loop
vertex 7.750407 12.811978 11.759372
vertex 7.750407 12.832732 11.759372
vertex 7.750407 12.832732 11.739372
endloop
endfacet
facet normal 0 0 0
outer loop
vertex 7.811834 12.811978 11.739372
vertex 7.811834 12.832732 11.759372
vertex 7.791358 12.811978 11.759372
endloop
endfacet
facet normal 0 0 0
outer loop
vertex 7.811834 12.832732 11.759372
vertex 7.811834 12.811978 11.739372
vertex 7.832309 12.832732 11.739372
endloop
endfacet
facet normal 0 0 0
outer loop
vertex 7.811834 12.811978 11.739372
vertex 7.832309 12.811978 11.739372
vertex 7.832309 12.832732 11.739372
endloop
endfacet
facet normal 0 0 0
outer loop
vertex 7.729930 12.853485 11.759372
vertex 7.750407 12.853485 11.739372
vertex 7.750407 12.832732 11.759372
endloop
endfacet
facet normal 0 0 0
outer loop
vertex 7.750407 12.853485 11.739372
vertex 7.750407 12.832732 11.739372
vertex 7.750407 12.832732 11.759372
endloop
endfacet
facet normal 0 0 0
outer loop
vertex 7.832309 12.853485 11.739372
vertex 7.811834 12.832732 11.759372
vertex 7.832309 12.832732 11.739372
endloop
endfacet
facet normal 0 0 0
outer loop
vertex 7.811834 12.853485 11.759372
vertex 7.811834 12.832732 11.759372
vertex 7.832309 12.853485 11.739372
endloop
endfacet
facet normal 0 0 0
outer loop
vertex 7.729930 12.874239 11.739372
vertex 7.729930 12.853485 11.759372
vertex 7.729930 12.874239 11.759372
endloop
endfacet
facet normal 0 0 0
outer loop
vertex 7.750407 12.853485 11.739372
vertex 7.729930 12.853485 11.759372
vertex 7.729930 12.874239 11.739372
endloop
endfacet
facet normal 0 0 0
outer loop
vertex 7.832309 12.874239 11.739372
vertex 7.811834 12.853485 11.759372
vertex 7.832309 12.853485 11.739372
endloop
endfacet
facet normal 0 0 0
outer loop
vertex 7.811834 12.874239 11.759372
vertex 7.811834 12.853485 11.759372
vertex 7.832309 12.874239 11.739372
endloop
endfacet
facet normal 0 0 0
outer loop
vertex 7.729930 12.874239 11.739372
vertex 7.729930 12.874239 11.759372
vertex 7.729930 12.894992 11.739372
endloop
endfacet
facet normal 0 0 0
outer loop
vertex 7.729930 12.874239 11.759372
vertex 7.729930 12.894992 11.759372
vertex 7.729930 12.894992 11.739372
endloop
endfacet
facet normal 0 0 0
outer loop
vertex 7.832309 12.894992 11.739372
vertex 7.811834 12.874239 11.759372
vertex 7.832309 12.874239 11.739372
endloop
endfacet
facet normal 0 0 0
outer loop
vertex 7.811834 12.894992 11.759372
vertex 7.811834 12.874239 11.759372
vertex 7.832309 12.894992 11.739372
endloop
endfacet
facet normal 0 0 0
outer loop
vertex 7.729930 12.894992 11.739372
vertex 7.729930 12.894992 11.759372
vertex 7.729930 12.915745 11.739372
endloop
endfacet
facet normal 0 0 0
outer loop
vertex 7.729930 12.894992 11.759372
vertex 7.729930 12.915745 11.759372
vertex 7.729930 12.915745 11.739372
endloop
endfacet
facet normal 0 0 0
outer loop
vertex 7.832309 12.915745 11.739372
vertex 7.811834 12.894992 11.759372
vertex 7.832309 12.894992 11.739372
endloop
endfacet
facet normal 0 0 0
outer loop
vertex 7.811834 12.915745 11.759372
vertex 7.811834 12.894992 11.759372
vertex 7.832309 12.915745 11.739372
endloop
endfacet
facet normal 0 0 0
outer loop
vertex 7.729930 12.936499 11.759372
vertex 7.729930 12.915745 11.739372
vertex 7.729930 12.915745 11.759372
endloop
endfacet
facet normal 0 0 0
outer loop
vertex 7.729930 12.915745 11.739372
vertex 7.729930 12.936499 11.759372
vertex 7.750407 12.936499 11.739372
endloop
endfacet
facet normal 0 0 0
outer loop
vertex 7.832309 12.915745 11.739372
vertex 7.811834 12.936499 11.739372
vertex 7.811834 12.915745 11.759372
endloop
endfacet
facet normal 0 0 0
outer loop
vertex 7.811834 12.936499 11.739372
vertex 7.811834 12.936499 11.759372
vertex 7.811834 12.915745 11.759372
endloop
endfacet
facet normal 0 0 0
outer loop
vertex 7.750407 12.936499 11.739372
vertex 7.729930 12.936499 11.759372
vertex 7.750407 12.957252 11.759372
endloop
endfacet
facet normal 0 0 0
outer loop
vertex 7.750407 12.936499 11.739372
vertex 7.750407 12.957252 11.759372
vertex 7.770882 12.957252 11.739372
endloop
endfacet
facet normal 0 0 0
outer loop
vertex 7.811834 12.936499 11.739372
vertex 7.791358 12.957252 11.759372
vertex 7.811834 12.936499 11.759372
endloop
endfacet
facet normal 0 0 0
outer loop
vertex 7.791358 12.957252 11.739372
vertex 7.791358 12.957252 11.759372
vertex 7.811834 12.936499 11.739372
endloop
endfacet
facet normal 0 0 0
outer loop
vertex 7.770882 12.957252 11.739372
vertex 7.750407 12.957252 11.759372
vertex 7.770882 12.978005 11.759372
endloop
endfacet
facet normal 0 0 0
outer loop
vertex 7.770882 12.978005 11.759372
vertex 7.791358 12.957252 11.759372
vertex 7.770882 12.957252 11.739372
endloop
endfacet
facet normal 0 0 0
outer loop
vertex 7.791358 12.978005 11.739372
vertex 7.770882 12.957252 11.739372
vertex 7.791358 12.957252 11.759372
endloop
endfacet
facet normal 0 0 0
outer loop
vertex 7.791358 12.978005 11.739372
vertex 7.791358 12.957252 11.759372
vertex 7.791358 12.957252 11.739372
endloop
endfacet
facet normal 0 0 0
outer loop
vertex 7.770882 12.811978 11.759372
vertex 7.770882 12.832732 11.759372
vertex 7.750407 12.811978 11.759372
endloop
endfacet
facet normal 0 0 0
outer loop
vertex 7.770882 12.832732 11.759372
vertex 7.750407 12.832732 11.759372
vertex 7.750407 12.811978 11.759372
endloop
endfacet
facet normal 0 0 0
outer loop
vertex 7.791358 12.811978 11.759372
vertex 7.791358 12.832732 11.759372
vertex 7.770882 12.811978 11.759372
endloop
endfacet
facet normal 0 0 0
outer loop
vertex 7.791358 12.832732 11.759372
vertex 7.770882 12.832732 11.759372
vertex 7.770882 12.811978 11.759372
endloop
endfacet
facet normal 0 0 0
outer loop
vertex 7.791358 12.811978 11.759372
vertex 7.811834 12.832732 11.759372
vertex 7.791358 12.832732 11.759372
endloop
endfacet
facet normal 0 0 0
outer loop
vertex 7.729930 12.853485 11.759372
vertex 7.750407 12.832732 11.759372
vertex 7.750407 12.853485 11.759372
endloop
endfacet
facet normal 0 0 0
outer loop
vertex 7.770882 12.853485 11.779372
vertex 7.750407 12.853485 11.759372
vertex 7.770882 12.832732 11.759372
endloop
endfacet
facet normal 0 0 0
outer loop
vertex 7.750407 12.853485 11.759372
vertex 7.750407 12.832732 11.759372
vertex 7.770882 12.832732 11.759372
endloop
endfacet
facet normal 0 0 0
outer loop
vertex 7.791358 12.832732 11.759372
vertex 7.770882 12.853485 11.779372
vertex 7.770882 12.832732 11.759372
endloop
endfacet
facet normal 0 0 0
outer loop
vertex 7.791358 12.853485 11.779372
vertex 7.770882 12.853485 11.779372
vertex 7.791358 12.832732 11.759372
endloop
endfacet
facet normal 0 0 0
outer loop
vertex 7.811834 12.832732 11.759372
vertex 7.791358 12.853485 11.779372
vertex 7.791358 12.832732 11.759372
endloop
endfacet
facet normal 0 0 0
outer loop
vertex 7.811834 12.853485 11.779372
vertex 7.791358 12.853485 11.779372
vertex 7.811834 12.832732 11.759372
endloop
endfacet
facet normal 0 0 0
outer loop
vertex 7.811834 12.853485 11.779372
vertex 7.811834 12.832732 11.759372
vertex 7.811834 12.853485 11.759372
endloop
endfacet
facet normal 0 0 0
outer loop
vertex 7.750407 12.874239 11.779372
vertex 7.729930 12.874239 11.759372
vertex 7.750407 12.853485 11.759372
endloop
endfacet
facet normal 0 0 0
outer loop
vertex 7.729930 12.874239 11.759372
vertex 7.729930 12.853485 11.759372
vertex 7.750407 12.853485 11.759372
endloop
endfacet
facet normal 0 0 0
outer loop
vertex 7.770882 12.853485 11.779372
vertex 7.750407 12.874239 11.779372
vertex 7.750407 12.853485 11.759372
endloop
endfacet
facet normal 0 0 0
outer loop
vertex 7.832309 12.874239 11.779372
vertex 7.811834 12.853485 11.779372
vertex 7.811834 12.874239 11.759372
endloop
endfacet
facet normal 0 0 0
outer loop
vertex 7.811834 12.853485 11.779372
vertex 7.811834 12.853485 11.759372
vertex 7.811834 12.874239 11.759372
endloop
endfacet
facet normal 0 0 0
outer loop
vertex 7.750407 12.894992 11.779372
vertex 7.729930 12.874239 11.759372
vertex 7.750407 12.874239 11.779372
endloop
endfacet
facet normal 0 0 0
outer loop
vertex 7.729930 12.894992 11.759372
vertex 7.729930 12.874239 11.759372
vertex 7.750407 12.894992 11.779372
endloop
endfacet
facet normal 0 0 0
outer loop
vertex 7.832309 12.874239 11.779372
vertex 7.811834 12.894992 11.759372
vertex 7.832309 12.894992 11.779372
endloop
endfacet
facet normal 0 0 0
outer loop
vertex 7.811834 12.874239 11.759372
vertex 7.811834 12.894992 11.759372
vertex 7.832309 12.874239 11.779372
endloop
endfacet
facet normal 0 0 0
outer loop
vertex 7.729930 12.894992 11.759372
vertex 7.729930 12.915745 11.779372
vertex 7.729930 12.915745 11.759372
endloop
endfacet
facet normal 0 0 0
outer loop
vertex 7.750407 12.894992 11.779372
vertex 7.729930 12.915745 11.779372
vertex 7.729930 12.894992 11.759372
endloop
endfacet
facet normal 0 0 0
outer loop
vertex 7.832309 12.894992 11.779372
vertex 7.811834 12.915745 11.759372
vertex 7.832309 12.915745 11.779372
endloop
endfacet
facet normal 0 0 0
outer loop
vertex 7.811834 12.894992 11.759372
vertex 7.811834 12.915745 11.759372
vertex 7.832309 12.894992 11.779372
endloop
endfacet
facet normal 0 0 0
outer loop
vertex 7.729930 12.915745 11.759372
vertex 7.729930 12.915745 11.779372
vertex 7.729930 12.936499 11.759372
endloop
endfacet
facet normal 0 0 0
outer loop
vertex 7.729930 12.915745 11.779372
vertex 7.729930 12.936499 11.779372
vertex 7.729930 12.936499 11.759372
endloop
endfacet
facet normal 0 0 0
outer loop
vertex 7.832309 12.915745 11.779372
vertex 7.811834 12.915745 11.759372
vertex 7.811834 12.936499 11.779372
endloop
endfacet
facet normal 0 0 0
outer loop
vertex 7.811834 12.915745 11.759372
vertex 7.811834 12.936499 11.759372
vertex 7.811834 12.936499 11.779372
endloop
endfacet
facet normal 0 0 0
outer loop
vertex 7.729930 12.936499 11.779372
vertex 7.750407 12.957252 11.759372
vertex 7.729930 12.936499 11.759372
endloop
endfacet
facet normal 0 0 0
outer loop
vertex 7.750407 12.957252 11.779372
vertex 7.750407 12.957252 11.759372
vertex 7.729930 12.936499 11.779372
endloop
endfacet
facet normal 0 0 0
outer loop
vertex 7.811834 12.936499 11.759372
vertex 7.791358 12.957252 11.779372
vertex 7.811834 12.936499 11.779372
endloop
endfacet
facet normal 0 0 0
outer loop
vertex 7.791358 12.957252 11.759372
vertex 7.791358 12.957252 11.779372
vertex 7.811834 12.936499 11.759372
endloop
endfacet
facet normal 0 0 0
outer loop
vertex 7.770882 12.978005 11.759372
vertex 7.750407 12.957252 11.759372
vertex 7.770882 12.957252 11.779372
endloop
endfacet
facet normal 0 0 0
outer loop
vertex 7.750407 12.957252 11.759372
vertex 7.750407 12.957252 11.779372
vertex 7.770882 12.957252 11.779372
endloop
endfacet
facet normal 0 0 0
outer loop
vertex 7.770882 12.978005 11.759372
vertex 7.770882 12.957252 11.779372
vertex 7.791358 12.957252 11.759372
endloop
endfacet
facet normal 0 0 0
outer loop
vertex 7.770882 12.957252 11.779372
vertex 7.791358 12.957252 11.779372
vertex 7.791358 12.957252 11.759372
endloop
endfacet
facet normal 0 0 0
outer loop
vertex 7.750407 12.874239 11.779372
vertex 7.770882 12.853485 11.779372
vertex 7.770882 12.874239 11.779372
endloop
endfacet
facet normal 0 0 0
outer loop
vertex 7.791358 12.853485 11.779372
vertex 7.791358 12.874239 11.779372
vertex 7.770882 12.853485 11.779372
endloop
endfacet
facet normal 0 0 0
outer loop
vertex 7.791358 12.874239 11.779372
vertex 7.770882 12.874239 11.779372
vertex 7.770882 12.853485 11.779372
endloop
endfacet
facet normal 0 0 0
outer loop
vertex 7.811834 12.853485 11.779372
vertex 7.811834 12.874239 11.779372
vertex 7.791358 12.853485 11.779372
endloop
endfacet
facet normal 0 0 0
outer loop
vertex 7.811834 12.874239 11.779372
vertex 7.791358 12.874239 11.779372
vertex 7.791358 12.853485 11.779372
endloop
endfacet
facet normal 0 0 0
outer loop
vertex 7.811834 12.853485 11.779372
vertex 7.832309 12.874239 11.779372
vertex 7.811834 12.874239 11.779372
endloop
endfacet
facet normal 0 0 0
outer loop
vertex 7.770882 12.874239 11.779372
vertex 7.770882 12.894992 11.779372
vertex 7.750407 12.874239 11.779372
endloop
endfacet
facet normal 0 0 0
outer loop
vertex 7.770882 12.894992 11.779372
vertex 7.750407 12.894992 11.779372
vertex 7.750407 12.874239 11.779372
endloop
endfacet
facet normal 0 0 0
outer loop
vertex 7.791358 12.874239 11.779372
vertex 7.791358 12.894992 11.779372
vertex 7.770882 12.874239 11.779372
endloop
endfacet
facet normal 0 0 0
outer loop
vertex 7.791358 12.894992 11.779372
vertex 7.770882 12.894992 11.779372
vertex 7.770882 12.874239 11.779372
endloop
endfacet
facet normal 0 0 0
outer loop
vertex 7.811834 12.874239 11.779372
vertex 7.811834 12.894992 11.779372
vertex 7.791358 12.874239 11.779372
endloop
endfacet
facet normal 0 0 0
outer loop
vertex 7.811834 12.894992 11.779372
vertex 7.791358 12.894992 11.779372
vertex 7.791358 12.874239 11.779372
endloop
endfacet
facet normal 0 0 0
outer loop
vertex 7.832309 12.874239 11.779372
vertex 7.832309 12.894992 11.779372
vertex 7.811834 12.874239 11.779372
endloop
endfacet
facet normal 0 0 0
outer loop
vertex 7.832309 12.894992 11.779372
vertex 7.811834 12.894992 11.779372
vertex 7.811834 12.874239 11.779372
endloop
endfacet
facet normal 0 0 0
outer loop
vertex 7.729930 12.915745 11.779372
vertex 7.750407 12.894992 11.779372
vertex 7.750407 12.915745 11.779372
endloop
endfacet
facet normal 0 0 0
outer loop
vertex 7.770882 12.894992 11.779372
vertex 7.770882 12.915745 11.779372
vertex 7.750407 12.894992 11.779372
endloop
endfacet
facet normal 0 0 0
outer loop
vertex 7.770882 12.915745 11.779372
vertex 7.750407 12.915745 11.779372
vertex 7.750407 12.894992 11.779372
endloop
endfacet
facet normal 0 0 0
outer loop
vertex 7.791358 12.894992 11.779372
vertex 7.791358 12.915745 11.779372
vertex 7.770882 12.894992 11.779372
endloop
endfacet
facet normal 0 0 0
outer loop
vertex 7.791358 12.915745 11.779372
vertex 7.770882 12.915745 11.779372
vertex 7.770882 12.894992 11.779372
endloop
endfacet
facet normal 0 0 0
outer loop
vertex 7.811834 12.894992 11.779372
vertex 7.811834 12.915745 11.779372
vertex 7.791358 12.894992 11.779372
endloop
endfacet
facet normal 0 0 0
outer loop
vertex 7.811834 12.915745 11.779372
vertex 7.791358 12.915745 11.779372
vertex 7.791358 12.894992 11.779372
endloop
endfacet
facet normal 0 0 0
outer loop
vertex 7.832309 12.894992 11.779372
vertex 7.832309 12.915745 11.779372
vertex 7.811834 12.894992 11.779372
endloop
endfacet
facet normal 0 0 0
outer loop
vertex 7.832309 12.915745 11.779372
vertex 7.811834 12.915745 11.779372
vertex 7.811834 12.894992 11.779372
endloop
endfacet
facet normal 0 0 0
outer loop
vertex 7.750407 12.915745 11.779372
vertex 7.750407 12.936499 11.779372
vertex 7.729930 12.915745 11.779372
endloop
endfacet
facet normal 0 0 0
outer loop
vertex 7.750407 12.936499 11.779372
vertex 7.729930 12.936499 11.779372
vertex 7.729930 12.915745 11.779372
endloop
endfacet
facet normal 0 0 0
outer loop
vertex 7.770882 12.915745 11.779372
vertex 7.770882 12.936499 11.779372
vertex 7.750407 12.915745 11.779372
endloop
endfacet
facet normal 0 0 0
outer loop
vertex 7.770882 12.936499 11.779372
vertex 7.750407 12.936499 11.779372
vertex 7.750407 12.915745 11.779372
endloop
endfacet
facet normal 0 0 0
outer loop
vertex 7.791358 12.915745 11.779372
vertex 7.791358 12.936499 11.779372
vertex 7.770882 12.915745 11.779372
endloop
endfacet
facet normal 0 0 0
outer loop
vertex 7.791358 12.936499 11.779372
vertex 7.770882 12.936499 11.779372
vertex 7.770882 12.915745 11.779372
endloop
endfacet
facet normal 0 0 0
outer loop
vertex 7.811834 12.915745 11.779372
vertex 7.811834 12.936499 11.779372
vertex 7.791358 12.915745 11.779372
endloop
endfacet
facet normal 0 0 0
outer loop
vertex 7.811834 12.936499 11.779372
vertex 7.791358 12.936499 11.779372
vertex 7.791358 12.915745 11.779372
endloop
endfacet
facet normal 0 0 0
outer loop
vertex 7.832309 12.915745 11.779372
vertex 7.811834 12.936499 11.779372
vertex 7.811834 12.915745 11.779372
endloop
endfacet
facet normal 0 0 0
outer loop
vertex 7.750407 12.957252 11.779372
vertex 7.729930 12.936499 11.779372
vertex 7.750407 12.936499 11.779372
endloop
endfacet
facet normal 0 0 0
outer loop
vertex 7.770882 12.936499 11.779372
vertex 7.770882 12.957252 11.779372
vertex 7.750407 12.936499 11.779372
endloop
endfacet
facet normal 0 0 0
outer loop
vertex 7.770882 12.957252 11.779372
vertex 7.750407 12.957252 11.779372
vertex 7.750407 12.936499 11.779372
endloop
endfacet
facet normal 0 0 0
outer loop
vertex 7.791358 12.936499 11.779372
vertex 7.791358 12.957252 11.779372
vertex 7.770882 12.936499 11.779372
endloop
endfacet
facet normal 0 0 0
outer loop
vertex 7.791358 12.957252 11.779372
vertex 7.770882 12.957252 11.779372
vertex 7.770882 12.936499 11.779372
endloop
endfacet
facet normal 0 0 0
outer loop
vertex 7.811834 12.936499 11.779372
vertex 7.791358 12.957252 11.779372
vertex 7.791358 12.936499 11.779372
endloop
endfacet
endsolid B-16-Plag.282
