solid B-16-Plag.222
facet normal 0 0 0
outer loop
vertex 18.684483 14.409985 9.639372
vertex 18.704958 14.430738 9.639372
vertex 18.704958 14.409985 9.639372
endloop
endfacet
facet normal 0 0 0
outer loop
vertex 18.725435 14.430738 9.639372
vertex 18.704958 14.409985 9.639372
vertex 18.704958 14.430738 9.639372
endloop
endfacet
facet normal 0 0 0
outer loop
vertex 18.664007 14.368477 9.659372
vertex 18.643532 14.389231 9.659372
vertex 18.664007 14.389231 9.659372
endloop
endfacet
facet normal 0 0 0
outer loop
vertex 18.684483 14.368477 9.659372
vertex 18.664007 14.368477 9.659372
vertex 18.684483 14.389231 9.659372
endloop
endfacet
facet normal 0 0 0
outer loop
vertex 18.684483 14.389231 9.659372
vertex 18.664007 14.368477 9.659372
vertex 18.664007 14.389231 9.659372
endloop
endfacet
facet normal 0 0 0
outer loop
vertex 18.643532 14.389231 9.659372
vertex 18.623056 14.409985 9.659372
vertex 18.643532 14.409985 9.639372
endloop
endfacet
facet normal 0 0 0
outer loop
vertex 18.664007 14.409985 9.639372
vertex 18.643532 14.389231 9.659372
vertex 18.643532 14.409985 9.639372
endloop
endfacet
facet normal 0 0 0
outer loop
vertex 18.664007 14.389231 9.659372
vertex 18.643532 14.389231 9.659372
vertex 18.664007 14.409985 9.639372
endloop
endfacet
facet normal 0 0 0
outer loop
vertex 18.684483 14.409985 9.639372
vertex 18.664007 14.389231 9.659372
vertex 18.664007 14.409985 9.639372
endloop
endfacet
facet normal 0 0 0
outer loop
vertex 18.684483 14.389231 9.659372
vertex 18.664007 14.389231 9.659372
vertex 18.684483 14.409985 9.639372
endloop
endfacet
facet normal 0 0 0
outer loop
vertex 18.684483 14.389231 9.659372
vertex 18.684483 14.409985 9.639372
vertex 18.704958 14.409985 9.659372
endloop
endfacet
facet normal 0 0 0
outer loop
vertex 18.684483 14.409985 9.639372
vertex 18.704958 14.409985 9.639372
vertex 18.704958 14.409985 9.659372
endloop
endfacet
facet normal 0 0 0
outer loop
vertex 18.643532 14.430738 9.659372
vertex 18.643532 14.409985 9.639372
vertex 18.623056 14.409985 9.659372
endloop
endfacet
facet normal 0 0 0
outer loop
vertex 18.643532 14.409985 9.639372
vertex 18.623056 14.409985 9.639372
vertex 18.623056 14.409985 9.659372
endloop
endfacet
facet normal 0 0 0
outer loop
vertex 18.643532 14.409985 9.639372
vertex 18.664007 14.430738 9.659372
vertex 18.664007 14.409985 9.639372
endloop
endfacet
facet normal 0 0 0
outer loop
vertex 18.643532 14.430738 9.659372
vertex 18.664007 14.430738 9.659372
vertex 18.643532 14.409985 9.639372
endloop
endfacet
facet normal 0 0 0
outer loop
vertex 18.664007 14.409985 9.639372
vertex 18.684483 14.430738 9.659372
vertex 18.684483 14.409985 9.639372
endloop
endfacet
facet normal 0 0 0
outer loop
vertex 18.664007 14.430738 9.659372
vertex 18.684483 14.430738 9.659372
vertex 18.664007 14.409985 9.639372
endloop
endfacet
facet normal 0 0 0
outer loop
vertex 18.684483 14.409985 9.639372
vertex 18.684483 14.430738 9.659372
vertex 18.704958 14.430738 9.639372
endloop
endfacet
facet normal 0 0 0
outer loop
vertex 18.704958 14.409985 9.639372
vertex 18.725435 14.430738 9.659372
vertex 18.704958 14.409985 9.659372
endloop
endfacet
facet normal 0 0 0
outer loop
vertex 18.725435 14.430738 9.639372
vertex 18.725435 14.430738 9.659372
vertex 18.704958 14.409985 9.639372
endloop
endfacet
facet normal 0 0 0
outer loop
vertex 18.664007 14.430738 9.659372
vertex 18.643532 14.430738 9.659372
vertex 18.664007 14.451490 9.659372
endloop
endfacet
facet normal 0 0 0
outer loop
vertex 18.664007 14.451490 9.659372
vertex 18.643532 14.430738 9.659372
vertex 18.643532 14.451490 9.659372
endloop
endfacet
facet normal 0 0 0
outer loop
vertex 18.684483 14.430738 9.659372
vertex 18.664007 14.430738 9.659372
vertex 18.684483 14.451490 9.659372
endloop
endfacet
facet normal 0 0 0
outer loop
vertex 18.684483 14.451490 9.659372
vertex 18.664007 14.430738 9.659372
vertex 18.664007 14.451490 9.659372
endloop
endfacet
facet normal 0 0 0
outer loop
vertex 18.704958 14.430738 9.639372
vertex 18.684483 14.430738 9.659372
vertex 18.704958 14.451490 9.659372
endloop
endfacet
facet normal 0 0 0
outer loop
vertex 18.684483 14.430738 9.659372
vertex 18.684483 14.451490 9.659372
vertex 18.704958 14.451490 9.659372
endloop
endfacet
facet normal 0 0 0
outer loop
vertex 18.704958 14.430738 9.639372
vertex 18.725435 14.451490 9.659372
vertex 18.725435 14.430738 9.639372
endloop
endfacet
facet normal 0 0 0
outer loop
vertex 18.704958 14.451490 9.659372
vertex 18.725435 14.451490 9.659372
vertex 18.704958 14.430738 9.639372
endloop
endfacet
facet normal 0 0 0
outer loop
vertex 18.725435 14.430738 9.639372
vertex 18.725435 14.451490 9.659372
vertex 18.725435 14.430738 9.659372
endloop
endfacet
facet normal 0 0 0
outer loop
vertex 18.684483 14.451490 9.659372
vertex 18.704958 14.472244 9.659372
vertex 18.704958 14.451490 9.659372
endloop
endfacet
facet normal 0 0 0
outer loop
vertex 18.725435 14.451490 9.659372
vertex 18.704958 14.451490 9.659372
vertex 18.725435 14.472244 9.659372
endloop
endfacet
facet normal 0 0 0
outer loop
vertex 18.725435 14.472244 9.659372
vertex 18.704958 14.451490 9.659372
vertex 18.704958 14.472244 9.659372
endloop
endfacet
facet normal 0 0 0
outer loop
vertex 18.704958 14.472244 9.659372
vertex 18.725435 14.492998 9.659372
vertex 18.725435 14.472244 9.659372
endloop
endfacet
facet normal 0 0 0
outer loop
vertex 18.684483 14.368477 9.659372
vertex 18.664007 14.368477 9.679372
vertex 18.664007 14.368477 9.659372
endloop
endfacet
facet normal 0 0 0
outer loop
vertex 18.623056 14.389231 9.679372
vertex 18.643532 14.389231 9.659372
vertex 18.643532 14.389231 9.679372
endloop
endfacet
facet normal 0 0 0
outer loop
vertex 18.664007 14.368477 9.679372
vertex 18.643532 14.389231 9.659372
vertex 18.664007 14.368477 9.659372
endloop
endfacet
facet normal 0 0 0
outer loop
vertex 18.643532 14.389231 9.679372
vertex 18.643532 14.389231 9.659372
vertex 18.664007 14.368477 9.679372
endloop
endfacet
facet normal 0 0 0
outer loop
vertex 18.684483 14.368477 9.659372
vertex 18.684483 14.389231 9.679372
vertex 18.664007 14.368477 9.679372
endloop
endfacet
facet normal 0 0 0
outer loop
vertex 18.684483 14.368477 9.659372
vertex 18.684483 14.389231 9.659372
vertex 18.704958 14.389231 9.679372
endloop
endfacet
facet normal 0 0 0
outer loop
vertex 18.684483 14.368477 9.659372
vertex 18.704958 14.389231 9.679372
vertex 18.684483 14.389231 9.679372
endloop
endfacet
facet normal 0 0 0
outer loop
vertex 18.623056 14.409985 9.659372
vertex 18.623056 14.389231 9.679372
vertex 18.623056 14.409985 9.679372
endloop
endfacet
facet normal 0 0 0
outer loop
vertex 18.643532 14.389231 9.659372
vertex 18.623056 14.389231 9.679372
vertex 18.623056 14.409985 9.659372
endloop
endfacet
facet normal 0 0 0
outer loop
vertex 18.684483 14.389231 9.659372
vertex 18.704958 14.409985 9.659372
vertex 18.704958 14.389231 9.679372
endloop
endfacet
facet normal 0 0 0
outer loop
vertex 18.704958 14.389231 9.679372
vertex 18.704958 14.409985 9.659372
vertex 18.704958 14.409985 9.679372
endloop
endfacet
facet normal 0 0 0
outer loop
vertex 18.623056 14.409985 9.679372
vertex 18.643532 14.430738 9.659372
vertex 18.623056 14.409985 9.659372
endloop
endfacet
facet normal 0 0 0
outer loop
vertex 18.643532 14.430738 9.679372
vertex 18.643532 14.430738 9.659372
vertex 18.623056 14.409985 9.679372
endloop
endfacet
facet normal 0 0 0
outer loop
vertex 18.704958 14.409985 9.659372
vertex 18.725435 14.430738 9.679372
vertex 18.704958 14.409985 9.679372
endloop
endfacet
facet normal 0 0 0
outer loop
vertex 18.725435 14.430738 9.659372
vertex 18.725435 14.430738 9.679372
vertex 18.704958 14.409985 9.659372
endloop
endfacet
facet normal 0 0 0
outer loop
vertex 18.643532 14.430738 9.679372
vertex 18.643532 14.451490 9.659372
vertex 18.643532 14.430738 9.659372
endloop
endfacet
facet normal 0 0 0
outer loop
vertex 18.643532 14.430738 9.679372
vertex 18.664007 14.451490 9.679372
vertex 18.643532 14.451490 9.659372
endloop
endfacet
facet normal 0 0 0
outer loop
vertex 18.725435 14.430738 9.659372
vertex 18.725435 14.451490 9.659372
vertex 18.725435 14.430738 9.679372
endloop
endfacet
facet normal 0 0 0
outer loop
vertex 18.725435 14.430738 9.679372
vertex 18.725435 14.451490 9.659372
vertex 18.725435 14.451490 9.679372
endloop
endfacet
facet normal 0 0 0
outer loop
vertex 18.643532 14.451490 9.659372
vertex 18.664007 14.472244 9.679372
vertex 18.664007 14.451490 9.659372
endloop
endfacet
facet normal 0 0 0
outer loop
vertex 18.643532 14.451490 9.659372
vertex 18.664007 14.451490 9.679372
vertex 18.664007 14.472244 9.679372
endloop
endfacet
facet normal 0 0 0
outer loop
vertex 18.664007 14.451490 9.659372
vertex 18.684483 14.472244 9.679372
vertex 18.684483 14.451490 9.659372
endloop
endfacet
facet normal 0 0 0
outer loop
vertex 18.664007 14.472244 9.679372
vertex 18.684483 14.472244 9.679372
vertex 18.664007 14.451490 9.659372
endloop
endfacet
facet normal 0 0 0
outer loop
vertex 18.684483 14.451490 9.659372
vertex 18.684483 14.472244 9.679372
vertex 18.704958 14.472244 9.659372
endloop
endfacet
facet normal 0 0 0
outer loop
vertex 18.725435 14.451490 9.659372
vertex 18.725435 14.472244 9.659372
vertex 18.725435 14.451490 9.679372
endloop
endfacet
facet normal 0 0 0
outer loop
vertex 18.725435 14.451490 9.679372
vertex 18.725435 14.472244 9.659372
vertex 18.725435 14.472244 9.679372
endloop
endfacet
facet normal 0 0 0
outer loop
vertex 18.664007 14.492998 9.679372
vertex 18.684483 14.472244 9.679372
vertex 18.664007 14.472244 9.679372
endloop
endfacet
facet normal 0 0 0
outer loop
vertex 18.704958 14.472244 9.659372
vertex 18.684483 14.472244 9.679372
vertex 18.704958 14.472244 9.679372
endloop
endfacet
facet normal 0 0 0
outer loop
vertex 18.725435 14.492998 9.659372
vertex 18.704958 14.472244 9.659372
vertex 18.725435 14.472244 9.679372
endloop
endfacet
facet normal 0 0 0
outer loop
vertex 18.704958 14.472244 9.659372
vertex 18.704958 14.472244 9.679372
vertex 18.725435 14.472244 9.679372
endloop
endfacet
facet normal 0 0 0
outer loop
vertex 18.725435 14.472244 9.679372
vertex 18.725435 14.472244 9.659372
vertex 18.725435 14.492998 9.659372
endloop
endfacet
facet normal 0 0 0
outer loop
vertex 18.623056 14.389231 9.679372
vertex 18.623056 14.368477 9.699371
vertex 18.623056 14.389231 9.699371
endloop
endfacet
facet normal 0 0 0
outer loop
vertex 18.643532 14.389231 9.679372
vertex 18.623056 14.368477 9.699371
vertex 18.623056 14.389231 9.679372
endloop
endfacet
facet normal 0 0 0
outer loop
vertex 18.643532 14.368477 9.699371
vertex 18.623056 14.368477 9.699371
vertex 18.643532 14.389231 9.679372
endloop
endfacet
facet normal 0 0 0
outer loop
vertex 18.643532 14.368477 9.699371
vertex 18.643532 14.389231 9.679372
vertex 18.664007 14.389231 9.699371
endloop
endfacet
facet normal 0 0 0
outer loop
vertex 18.664007 14.368477 9.679372
vertex 18.664007 14.389231 9.699371
vertex 18.643532 14.389231 9.679372
endloop
endfacet
facet normal 0 0 0
outer loop
vertex 18.664007 14.368477 9.679372
vertex 18.684483 14.389231 9.679372
vertex 18.664007 14.389231 9.699371
endloop
endfacet
facet normal 0 0 0
outer loop
vertex 18.684483 14.389231 9.679372
vertex 18.684483 14.389231 9.699371
vertex 18.664007 14.389231 9.699371
endloop
endfacet
facet normal 0 0 0
outer loop
vertex 18.704958 14.389231 9.679372
vertex 18.684483 14.389231 9.699371
vertex 18.684483 14.389231 9.679372
endloop
endfacet
facet normal 0 0 0
outer loop
vertex 18.623056 14.389231 9.679372
vertex 18.623056 14.389231 9.699371
vertex 18.623056 14.409985 9.679372
endloop
endfacet
facet normal 0 0 0
outer loop
vertex 18.623056 14.389231 9.699371
vertex 18.623056 14.409985 9.699371
vertex 18.623056 14.409985 9.679372
endloop
endfacet
facet normal 0 0 0
outer loop
vertex 18.704958 14.389231 9.679372
vertex 18.704958 14.409985 9.699371
vertex 18.684483 14.389231 9.699371
endloop
endfacet
facet normal 0 0 0
outer loop
vertex 18.704958 14.409985 9.699371
vertex 18.704958 14.389231 9.679372
vertex 18.704958 14.409985 9.679372
endloop
endfacet
facet normal 0 0 0
outer loop
vertex 18.623056 14.430738 9.699371
vertex 18.623056 14.409985 9.679372
vertex 18.623056 14.409985 9.699371
endloop
endfacet
facet normal 0 0 0
outer loop
vertex 18.623056 14.409985 9.679372
vertex 18.623056 14.430738 9.699371
vertex 18.643532 14.430738 9.679372
endloop
endfacet
facet normal 0 0 0
outer loop
vertex 18.704958 14.409985 9.679372
vertex 18.725435 14.430738 9.699371
vertex 18.704958 14.409985 9.699371
endloop
endfacet
facet normal 0 0 0
outer loop
vertex 18.725435 14.430738 9.679372
vertex 18.725435 14.430738 9.699371
vertex 18.704958 14.409985 9.679372
endloop
endfacet
facet normal 0 0 0
outer loop
vertex 18.643532 14.430738 9.679372
vertex 18.623056 14.430738 9.699371
vertex 18.643532 14.451490 9.699371
endloop
endfacet
facet normal 0 0 0
outer loop
vertex 18.623056 14.430738 9.699371
vertex 18.623056 14.451490 9.699371
vertex 18.643532 14.451490 9.699371
endloop
endfacet
facet normal 0 0 0
outer loop
vertex 18.643532 14.430738 9.679372
vertex 18.643532 14.451490 9.699371
vertex 18.664007 14.451490 9.679372
endloop
endfacet
facet normal 0 0 0
outer loop
vertex 18.725435 14.430738 9.679372
vertex 18.725435 14.451490 9.679372
vertex 18.725435 14.430738 9.699371
endloop
endfacet
facet normal 0 0 0
outer loop
vertex 18.725435 14.430738 9.699371
vertex 18.725435 14.451490 9.679372
vertex 18.725435 14.451490 9.699371
endloop
endfacet
facet normal 0 0 0
outer loop
vertex 18.623056 14.451490 9.699371
vertex 18.643532 14.472244 9.699371
vertex 18.643532 14.451490 9.699371
endloop
endfacet
facet normal 0 0 0
outer loop
vertex 18.664007 14.451490 9.679372
vertex 18.643532 14.472244 9.699371
vertex 18.664007 14.472244 9.679372
endloop
endfacet
facet normal 0 0 0
outer loop
vertex 18.643532 14.451490 9.699371
vertex 18.643532 14.472244 9.699371
vertex 18.664007 14.451490 9.679372
endloop
endfacet
facet normal 0 0 0
outer loop
vertex 18.725435 14.451490 9.679372
vertex 18.725435 14.472244 9.679372
vertex 18.725435 14.451490 9.699371
endloop
endfacet
facet normal 0 0 0
outer loop
vertex 18.725435 14.451490 9.699371
vertex 18.725435 14.472244 9.679372
vertex 18.725435 14.472244 9.699371
endloop
endfacet
facet normal 0 0 0
outer loop
vertex 18.643532 14.472244 9.699371
vertex 18.664007 14.492998 9.679372
vertex 18.664007 14.472244 9.679372
endloop
endfacet
facet normal 0 0 0
outer loop
vertex 18.643532 14.472244 9.699371
vertex 18.664007 14.472244 9.699371
vertex 18.664007 14.492998 9.679372
endloop
endfacet
facet normal 0 0 0
outer loop
vertex 18.664007 14.492998 9.679372
vertex 18.664007 14.472244 9.699371
vertex 18.684483 14.472244 9.679372
endloop
endfacet
facet normal 0 0 0
outer loop
vertex 18.664007 14.472244 9.699371
vertex 18.684483 14.472244 9.699371
vertex 18.684483 14.472244 9.679372
endloop
endfacet
facet normal 0 0 0
outer loop
vertex 18.704958 14.472244 9.679372
vertex 18.684483 14.472244 9.679372
vertex 18.704958 14.472244 9.699371
endloop
endfacet
facet normal 0 0 0
outer loop
vertex 18.684483 14.472244 9.679372
vertex 18.684483 14.472244 9.699371
vertex 18.704958 14.472244 9.699371
endloop
endfacet
facet normal 0 0 0
outer loop
vertex 18.725435 14.472244 9.679372
vertex 18.704958 14.472244 9.679372
vertex 18.725435 14.472244 9.699371
endloop
endfacet
facet normal 0 0 0
outer loop
vertex 18.704958 14.472244 9.679372
vertex 18.704958 14.472244 9.699371
vertex 18.725435 14.472244 9.699371
endloop
endfacet
facet normal 0 0 0
outer loop
vertex 18.643532 14.368477 9.699371
vertex 18.643532 14.368477 9.719372
vertex 18.623056 14.368477 9.699371
endloop
endfacet
facet normal 0 0 0
outer loop
vertex 18.623056 14.368477 9.699371
vertex 18.643532 14.368477 9.719372
vertex 18.623056 14.368477 9.719372
endloop
endfacet
facet normal 0 0 0
outer loop
vertex 18.643532 14.368477 9.699371
vertex 18.664007 14.368477 9.719372
vertex 18.643532 14.368477 9.719372
endloop
endfacet
facet normal 0 0 0
outer loop
vertex 18.602579 14.389231 9.719372
vertex 18.623056 14.389231 9.699371
vertex 18.623056 14.368477 9.719372
endloop
endfacet
facet normal 0 0 0
outer loop
vertex 18.623056 14.389231 9.699371
vertex 18.623056 14.368477 9.699371
vertex 18.623056 14.368477 9.719372
endloop
endfacet
facet normal 0 0 0
outer loop
vertex 18.643532 14.368477 9.699371
vertex 18.664007 14.389231 9.699371
vertex 18.664007 14.368477 9.719372
endloop
endfacet
facet normal 0 0 0
outer loop
vertex 18.664007 14.368477 9.719372
vertex 18.664007 14.389231 9.699371
vertex 18.684483 14.389231 9.719372
endloop
endfacet
facet normal 0 0 0
outer loop
vertex 18.664007 14.389231 9.699371
vertex 18.684483 14.389231 9.699371
vertex 18.684483 14.389231 9.719372
endloop
endfacet
facet normal 0 0 0
outer loop
vertex 18.684483 14.389231 9.699371
vertex 18.704958 14.389231 9.719372
vertex 18.684483 14.389231 9.719372
endloop
endfacet
facet normal 0 0 0
outer loop
vertex 18.623056 14.389231 9.699371
vertex 18.602579 14.409985 9.719372
vertex 18.623056 14.409985 9.699371
endloop
endfacet
facet normal 0 0 0
outer loop
vertex 18.602579 14.389231 9.719372
vertex 18.602579 14.409985 9.719372
vertex 18.623056 14.389231 9.699371
endloop
endfacet
facet normal 0 0 0
outer loop
vertex 18.684483 14.389231 9.699371
vertex 18.704958 14.409985 9.699371
vertex 18.704958 14.389231 9.719372
endloop
endfacet
facet normal 0 0 0
outer loop
vertex 18.704958 14.409985 9.699371
vertex 18.725435 14.409985 9.719372
vertex 18.704958 14.389231 9.719372
endloop
endfacet
facet normal 0 0 0
outer loop
vertex 18.602579 14.409985 9.719372
vertex 18.623056 14.430738 9.699371
vertex 18.623056 14.409985 9.699371
endloop
endfacet
facet normal 0 0 0
outer loop
vertex 18.602579 14.409985 9.719372
vertex 18.623056 14.409985 9.719372
vertex 18.623056 14.430738 9.699371
endloop
endfacet
facet normal 0 0 0
outer loop
vertex 18.623056 14.409985 9.719372
vertex 18.643532 14.430738 9.719372
vertex 18.623056 14.430738 9.699371
endloop
endfacet
facet normal 0 0 0
outer loop
vertex 18.704958 14.409985 9.699371
vertex 18.725435 14.430738 9.699371
vertex 18.725435 14.409985 9.719372
endloop
endfacet
facet normal 0 0 0
outer loop
vertex 18.725435 14.409985 9.719372
vertex 18.725435 14.430738 9.699371
vertex 18.725435 14.430738 9.719372
endloop
endfacet
facet normal 0 0 0
outer loop
vertex 18.643532 14.451490 9.719372
vertex 18.623056 14.430738 9.699371
vertex 18.643532 14.430738 9.719372
endloop
endfacet
facet normal 0 0 0
outer loop
vertex 18.623056 14.451490 9.699371
vertex 18.623056 14.430738 9.699371
vertex 18.643532 14.451490 9.719372
endloop
endfacet
facet normal 0 0 0
outer loop
vertex 18.725435 14.430738 9.699371
vertex 18.725435 14.451490 9.699371
vertex 18.725435 14.430738 9.719372
endloop
endfacet
facet normal 0 0 0
outer loop
vertex 18.725435 14.430738 9.719372
vertex 18.725435 14.451490 9.699371
vertex 18.725435 14.451490 9.719372
endloop
endfacet
facet normal 0 0 0
outer loop
vertex 18.623056 14.451490 9.699371
vertex 18.643532 14.451490 9.719372
vertex 18.643532 14.472244 9.699371
endloop
endfacet
facet normal 0 0 0
outer loop
vertex 18.643532 14.451490 9.719372
vertex 18.643532 14.472244 9.719372
vertex 18.643532 14.472244 9.699371
endloop
endfacet
facet normal 0 0 0
outer loop
vertex 18.745911 14.472244 9.719372
vertex 18.725435 14.451490 9.719372
vertex 18.725435 14.472244 9.699371
endloop
endfacet
facet normal 0 0 0
outer loop
vertex 18.725435 14.451490 9.719372
vertex 18.725435 14.451490 9.699371
vertex 18.725435 14.472244 9.699371
endloop
endfacet
facet normal 0 0 0
outer loop
vertex 18.664007 14.492998 9.719372
vertex 18.664007 14.472244 9.699371
vertex 18.643532 14.472244 9.719372
endloop
endfacet
facet normal 0 0 0
outer loop
vertex 18.664007 14.472244 9.699371
vertex 18.643532 14.472244 9.699371
vertex 18.643532 14.472244 9.719372
endloop
endfacet
facet normal 0 0 0
outer loop
vertex 18.664007 14.472244 9.699371
vertex 18.684483 14.492998 9.719372
vertex 18.684483 14.472244 9.699371
endloop
endfacet
facet normal 0 0 0
outer loop
vertex 18.664007 14.492998 9.719372
vertex 18.684483 14.492998 9.719372
vertex 18.664007 14.472244 9.699371
endloop
endfacet
facet normal 0 0 0
outer loop
vertex 18.684483 14.492998 9.719372
vertex 18.704958 14.472244 9.719372
vertex 18.684483 14.472244 9.699371
endloop
endfacet
facet normal 0 0 0
outer loop
vertex 18.704958 14.472244 9.719372
vertex 18.704958 14.472244 9.699371
vertex 18.684483 14.472244 9.699371
endloop
endfacet
facet normal 0 0 0
outer loop
vertex 18.725435 14.472244 9.699371
vertex 18.704958 14.472244 9.699371
vertex 18.725435 14.472244 9.719372
endloop
endfacet
facet normal 0 0 0
outer loop
vertex 18.704958 14.472244 9.699371
vertex 18.704958 14.472244 9.719372
vertex 18.725435 14.472244 9.719372
endloop
endfacet
facet normal 0 0 0
outer loop
vertex 18.745911 14.472244 9.719372
vertex 18.725435 14.472244 9.699371
vertex 18.725435 14.472244 9.719372
endloop
endfacet
facet normal 0 0 0
outer loop
vertex 18.623056 14.368477 9.719372
vertex 18.623056 14.389231 9.739372
vertex 18.602579 14.389231 9.719372
endloop
endfacet
facet normal 0 0 0
outer loop
vertex 18.643532 14.368477 9.719372
vertex 18.623056 14.389231 9.739372
vertex 18.623056 14.368477 9.719372
endloop
endfacet
facet normal 0 0 0
outer loop
vertex 18.643532 14.389231 9.739372
vertex 18.623056 14.389231 9.739372
vertex 18.643532 14.368477 9.719372
endloop
endfacet
facet normal 0 0 0
outer loop
vertex 18.643532 14.389231 9.739372
vertex 18.643532 14.368477 9.719372
vertex 18.664007 14.389231 9.719372
endloop
endfacet
facet normal 0 0 0
outer loop
vertex 18.643532 14.368477 9.719372
vertex 18.664007 14.368477 9.719372
vertex 18.664007 14.389231 9.719372
endloop
endfacet
facet normal 0 0 0
outer loop
vertex 18.664007 14.368477 9.719372
vertex 18.684483 14.389231 9.719372
vertex 18.664007 14.389231 9.719372
endloop
endfacet
facet normal 0 0 0
outer loop
vertex 18.602579 14.389231 9.719372
vertex 18.602579 14.409985 9.739372
vertex 18.582104 14.409985 9.739372
endloop
endfacet
facet normal 0 0 0
outer loop
vertex 18.602579 14.389231 9.719372
vertex 18.582104 14.409985 9.739372
vertex 18.602579 14.409985 9.719372
endloop
endfacet
facet normal 0 0 0
outer loop
vertex 18.623056 14.389231 9.739372
vertex 18.602579 14.409985 9.739372
vertex 18.602579 14.389231 9.719372
endloop
endfacet
facet normal 0 0 0
outer loop
vertex 18.664007 14.389231 9.719372
vertex 18.664007 14.409985 9.739372
vertex 18.643532 14.389231 9.739372
endloop
endfacet
facet normal 0 0 0
outer loop
vertex 18.684483 14.389231 9.719372
vertex 18.664007 14.409985 9.739372
vertex 18.664007 14.389231 9.719372
endloop
endfacet
facet normal 0 0 0
outer loop
vertex 18.684483 14.409985 9.739372
vertex 18.664007 14.409985 9.739372
vertex 18.684483 14.389231 9.719372
endloop
endfacet
facet normal 0 0 0
outer loop
vertex 18.704958 14.389231 9.719372
vertex 18.684483 14.409985 9.739372
vertex 18.684483 14.389231 9.719372
endloop
endfacet
facet normal 0 0 0
outer loop
vertex 18.704958 14.409985 9.739372
vertex 18.684483 14.409985 9.739372
vertex 18.704958 14.389231 9.719372
endloop
endfacet
facet normal 0 0 0
outer loop
vertex 18.725435 14.409985 9.719372
vertex 18.704958 14.409985 9.739372
vertex 18.704958 14.389231 9.719372
endloop
endfacet
facet normal 0 0 0
outer loop
vertex 18.602579 14.409985 9.719372
vertex 18.582104 14.409985 9.739372
vertex 18.602579 14.430738 9.739372
endloop
endfacet
facet normal 0 0 0
outer loop
vertex 18.602579 14.409985 9.719372
vertex 18.623056 14.430738 9.739372
vertex 18.623056 14.409985 9.719372
endloop
endfacet
facet normal 0 0 0
outer loop
vertex 18.602579 14.430738 9.739372
vertex 18.623056 14.430738 9.739372
vertex 18.602579 14.409985 9.719372
endloop
endfacet
facet normal 0 0 0
outer loop
vertex 18.623056 14.409985 9.719372
vertex 18.623056 14.430738 9.739372
vertex 18.643532 14.430738 9.719372
endloop
endfacet
facet normal 0 0 0
outer loop
vertex 18.725435 14.409985 9.719372
vertex 18.725435 14.430738 9.739372
vertex 18.704958 14.409985 9.739372
endloop
endfacet
facet normal 0 0 0
outer loop
vertex 18.725435 14.430738 9.739372
vertex 18.725435 14.409985 9.719372
vertex 18.725435 14.430738 9.719372
endloop
endfacet
facet normal 0 0 0
outer loop
vertex 18.602579 14.430738 9.739372
vertex 18.623056 14.451490 9.739372
vertex 18.623056 14.430738 9.739372
endloop
endfacet
facet normal 0 0 0
outer loop
vertex 18.643532 14.430738 9.719372
vertex 18.623056 14.451490 9.739372
vertex 18.643532 14.451490 9.719372
endloop
endfacet
facet normal 0 0 0
outer loop
vertex 18.623056 14.430738 9.739372
vertex 18.623056 14.451490 9.739372
vertex 18.643532 14.430738 9.719372
endloop
endfacet
facet normal 0 0 0
outer loop
vertex 18.745911 14.451490 9.739372
vertex 18.725435 14.430738 9.739372
vertex 18.725435 14.451490 9.719372
endloop
endfacet
facet normal 0 0 0
outer loop
vertex 18.725435 14.430738 9.739372
vertex 18.725435 14.430738 9.719372
vertex 18.725435 14.451490 9.719372
endloop
endfacet
facet normal 0 0 0
outer loop
vertex 18.643532 14.451490 9.719372
vertex 18.623056 14.472244 9.739372
vertex 18.643532 14.472244 9.719372
endloop
endfacet
facet normal 0 0 0
outer loop
vertex 18.623056 14.451490 9.739372
vertex 18.623056 14.472244 9.739372
vertex 18.643532 14.451490 9.719372
endloop
endfacet
facet normal 0 0 0
outer loop
vertex 18.745911 14.472244 9.719372
vertex 18.725435 14.472244 9.739372
vertex 18.725435 14.451490 9.719372
endloop
endfacet
facet normal 0 0 0
outer loop
vertex 18.745911 14.451490 9.739372
vertex 18.725435 14.451490 9.719372
vertex 18.725435 14.472244 9.739372
endloop
endfacet
facet normal 0 0 0
outer loop
vertex 18.643532 14.472244 9.719372
vertex 18.623056 14.472244 9.739372
vertex 18.643532 14.492998 9.739372
endloop
endfacet
facet normal 0 0 0
outer loop
vertex 18.643532 14.472244 9.719372
vertex 18.643532 14.492998 9.739372
vertex 18.664007 14.492998 9.719372
endloop
endfacet
facet normal 0 0 0
outer loop
vertex 18.704958 14.472244 9.719372
vertex 18.684483 14.492998 9.719372
vertex 18.704958 14.492998 9.739372
endloop
endfacet
facet normal 0 0 0
outer loop
vertex 18.704958 14.492998 9.739372
vertex 18.725435 14.472244 9.739372
vertex 18.704958 14.472244 9.719372
endloop
endfacet
facet normal 0 0 0
outer loop
vertex 18.725435 14.472244 9.739372
vertex 18.725435 14.472244 9.719372
vertex 18.704958 14.472244 9.719372
endloop
endfacet
facet normal 0 0 0
outer loop
vertex 18.725435 14.472244 9.739372
vertex 18.745911 14.472244 9.719372
vertex 18.725435 14.472244 9.719372
endloop
endfacet
facet normal 0 0 0
outer loop
vertex 18.664007 14.492998 9.719372
vertex 18.643532 14.492998 9.739372
vertex 18.664007 14.492998 9.739372
endloop
endfacet
facet normal 0 0 0
outer loop
vertex 18.684483 14.492998 9.719372
vertex 18.664007 14.492998 9.719372
vertex 18.684483 14.492998 9.739372
endloop
endfacet
facet normal 0 0 0
outer loop
vertex 18.664007 14.492998 9.719372
vertex 18.664007 14.492998 9.739372
vertex 18.684483 14.492998 9.739372
endloop
endfacet
facet normal 0 0 0
outer loop
vertex 18.704958 14.492998 9.739372
vertex 18.684483 14.492998 9.719372
vertex 18.684483 14.492998 9.739372
endloop
endfacet
facet normal 0 0 0
outer loop
vertex 18.602579 14.409985 9.759372
vertex 18.582104 14.409985 9.739372
vertex 18.602579 14.409985 9.739372
endloop
endfacet
facet normal 0 0 0
outer loop
vertex 18.623056 14.389231 9.739372
vertex 18.623056 14.409985 9.759372
vertex 18.602579 14.409985 9.739372
endloop
endfacet
facet normal 0 0 0
outer loop
vertex 18.623056 14.409985 9.759372
vertex 18.602579 14.409985 9.759372
vertex 18.602579 14.409985 9.739372
endloop
endfacet
facet normal 0 0 0
outer loop
vertex 18.643532 14.389231 9.739372
vertex 18.623056 14.409985 9.759372
vertex 18.623056 14.389231 9.739372
endloop
endfacet
facet normal 0 0 0
outer loop
vertex 18.643532 14.409985 9.759372
vertex 18.623056 14.409985 9.759372
vertex 18.643532 14.389231 9.739372
endloop
endfacet
facet normal 0 0 0
outer loop
vertex 18.643532 14.389231 9.739372
vertex 18.664007 14.409985 9.739372
vertex 18.643532 14.409985 9.759372
endloop
endfacet
facet normal 0 0 0
outer loop
vertex 18.664007 14.409985 9.739372
vertex 18.664007 14.409985 9.759372
vertex 18.643532 14.409985 9.759372
endloop
endfacet
facet normal 0 0 0
outer loop
vertex 18.684483 14.409985 9.739372
vertex 18.684483 14.409985 9.759372
vertex 18.664007 14.409985 9.739372
endloop
endfacet
facet normal 0 0 0
outer loop
vertex 18.664007 14.409985 9.739372
vertex 18.684483 14.409985 9.759372
vertex 18.664007 14.409985 9.759372
endloop
endfacet
facet normal 0 0 0
outer loop
vertex 18.704958 14.409985 9.739372
vertex 18.684483 14.409985 9.759372
vertex 18.684483 14.409985 9.739372
endloop
endfacet
facet normal 0 0 0
outer loop
vertex 18.582104 14.409985 9.739372
vertex 18.602579 14.409985 9.759372
vertex 18.602579 14.430738 9.739372
endloop
endfacet
facet normal 0 0 0
outer loop
vertex 18.602579 14.409985 9.759372
vertex 18.602579 14.430738 9.759372
vertex 18.602579 14.430738 9.739372
endloop
endfacet
facet normal 0 0 0
outer loop
vertex 18.704958 14.409985 9.739372
vertex 18.704958 14.430738 9.759372
vertex 18.684483 14.409985 9.759372
endloop
endfacet
facet normal 0 0 0
outer loop
vertex 18.704958 14.409985 9.739372
vertex 18.725435 14.430738 9.739372
vertex 18.704958 14.430738 9.759372
endloop
endfacet
facet normal 0 0 0
outer loop
vertex 18.725435 14.430738 9.739372
vertex 18.725435 14.430738 9.759372
vertex 18.704958 14.430738 9.759372
endloop
endfacet
facet normal 0 0 0
outer loop
vertex 18.623056 14.451490 9.739372
vertex 18.602579 14.430738 9.739372
vertex 18.623056 14.430738 9.759372
endloop
endfacet
facet normal 0 0 0
outer loop
vertex 18.602579 14.430738 9.739372
vertex 18.602579 14.430738 9.759372
vertex 18.623056 14.430738 9.759372
endloop
endfacet
facet normal 0 0 0
outer loop
vertex 18.623056 14.430738 9.759372
vertex 18.643532 14.451490 9.759372
vertex 18.623056 14.451490 9.739372
endloop
endfacet
facet normal 0 0 0
outer loop
vertex 18.745911 14.451490 9.739372
vertex 18.725435 14.451490 9.759372
vertex 18.725435 14.430738 9.739372
endloop
endfacet
facet normal 0 0 0
outer loop
vertex 18.725435 14.451490 9.759372
vertex 18.725435 14.430738 9.759372
vertex 18.725435 14.430738 9.739372
endloop
endfacet
facet normal 0 0 0
outer loop
vertex 18.643532 14.472244 9.759372
vertex 18.623056 14.451490 9.739372
vertex 18.643532 14.451490 9.759372
endloop
endfacet
facet normal 0 0 0
outer loop
vertex 18.623056 14.472244 9.739372
vertex 18.623056 14.451490 9.739372
vertex 18.643532 14.472244 9.759372
endloop
endfacet
facet normal 0 0 0
outer loop
vertex 18.745911 14.451490 9.739372
vertex 18.725435 14.472244 9.739372
vertex 18.725435 14.451490 9.759372
endloop
endfacet
facet normal 0 0 0
outer loop
vertex 18.725435 14.472244 9.739372
vertex 18.725435 14.472244 9.759372
vertex 18.725435 14.451490 9.759372
endloop
endfacet
facet normal 0 0 0
outer loop
vertex 18.623056 14.472244 9.739372
vertex 18.643532 14.472244 9.759372
vertex 18.643532 14.492998 9.739372
endloop
endfacet
facet normal 0 0 0
outer loop
vertex 18.643532 14.472244 9.759372
vertex 18.664007 14.492998 9.759372
vertex 18.643532 14.492998 9.739372
endloop
endfacet
facet normal 0 0 0
outer loop
vertex 18.725435 14.472244 9.739372
vertex 18.704958 14.492998 9.739372
vertex 18.725435 14.492998 9.759372
endloop
endfacet
facet normal 0 0 0
outer loop
vertex 18.745911 14.492998 9.759372
vertex 18.725435 14.472244 9.759372
vertex 18.725435 14.472244 9.739372
endloop
endfacet
facet normal 0 0 0
outer loop
vertex 18.745911 14.492998 9.759372
vertex 18.725435 14.472244 9.739372
vertex 18.725435 14.492998 9.759372
endloop
endfacet
facet normal 0 0 0
outer loop
vertex 18.643532 14.492998 9.739372
vertex 18.664007 14.492998 9.759372
vertex 18.664007 14.492998 9.739372
endloop
endfacet
facet normal 0 0 0
outer loop
vertex 18.684483 14.492998 9.739372
vertex 18.664007 14.492998 9.739372
vertex 18.684483 14.492998 9.759372
endloop
endfacet
facet normal 0 0 0
outer loop
vertex 18.664007 14.492998 9.739372
vertex 18.664007 14.492998 9.759372
vertex 18.684483 14.492998 9.759372
endloop
endfacet
facet normal 0 0 0
outer loop
vertex 18.704958 14.513750 9.759372
vertex 18.704958 14.492998 9.739372
vertex 18.684483 14.492998 9.759372
endloop
endfacet
facet normal 0 0 0
outer loop
vertex 18.704958 14.492998 9.739372
vertex 18.684483 14.492998 9.739372
vertex 18.684483 14.492998 9.759372
endloop
endfacet
facet normal 0 0 0
outer loop
vertex 18.704958 14.492998 9.739372
vertex 18.704958 14.513750 9.759372
vertex 18.725435 14.492998 9.759372
endloop
endfacet
facet normal 0 0 0
outer loop
vertex 18.623056 14.409985 9.759372
vertex 18.623056 14.430738 9.759372
vertex 18.602579 14.409985 9.759372
endloop
endfacet
facet normal 0 0 0
outer loop
vertex 18.623056 14.430738 9.759372
vertex 18.602579 14.430738 9.759372
vertex 18.602579 14.409985 9.759372
endloop
endfacet
facet normal 0 0 0
outer loop
vertex 18.643532 14.409985 9.759372
vertex 18.643532 14.430738 9.759372
vertex 18.623056 14.409985 9.759372
endloop
endfacet
facet normal 0 0 0
outer loop
vertex 18.643532 14.430738 9.759372
vertex 18.623056 14.430738 9.759372
vertex 18.623056 14.409985 9.759372
endloop
endfacet
facet normal 0 0 0
outer loop
vertex 18.664007 14.409985 9.759372
vertex 18.664007 14.430738 9.759372
vertex 18.643532 14.409985 9.759372
endloop
endfacet
facet normal 0 0 0
outer loop
vertex 18.664007 14.430738 9.759372
vertex 18.643532 14.430738 9.759372
vertex 18.643532 14.409985 9.759372
endloop
endfacet
facet normal 0 0 0
outer loop
vertex 18.684483 14.409985 9.759372
vertex 18.684483 14.430738 9.759372
vertex 18.664007 14.409985 9.759372
endloop
endfacet
facet normal 0 0 0
outer loop
vertex 18.684483 14.430738 9.759372
vertex 18.664007 14.430738 9.759372
vertex 18.664007 14.409985 9.759372
endloop
endfacet
facet normal 0 0 0
outer loop
vertex 18.684483 14.409985 9.759372
vertex 18.704958 14.430738 9.759372
vertex 18.684483 14.430738 9.759372
endloop
endfacet
facet normal 0 0 0
outer loop
vertex 18.643532 14.451490 9.759372
vertex 18.623056 14.430738 9.759372
vertex 18.643532 14.430738 9.759372
endloop
endfacet
facet normal 0 0 0
outer loop
vertex 18.664007 14.430738 9.759372
vertex 18.664007 14.451490 9.759372
vertex 18.643532 14.430738 9.759372
endloop
endfacet
facet normal 0 0 0
outer loop
vertex 18.664007 14.451490 9.759372
vertex 18.643532 14.451490 9.759372
vertex 18.643532 14.430738 9.759372
endloop
endfacet
facet normal 0 0 0
outer loop
vertex 18.684483 14.430738 9.759372
vertex 18.684483 14.451490 9.759372
vertex 18.664007 14.430738 9.759372
endloop
endfacet
facet normal 0 0 0
outer loop
vertex 18.684483 14.451490 9.759372
vertex 18.664007 14.451490 9.759372
vertex 18.664007 14.430738 9.759372
endloop
endfacet
facet normal 0 0 0
outer loop
vertex 18.704958 14.430738 9.759372
vertex 18.704958 14.451490 9.759372
vertex 18.684483 14.430738 9.759372
endloop
endfacet
facet normal 0 0 0
outer loop
vertex 18.704958 14.451490 9.759372
vertex 18.684483 14.451490 9.759372
vertex 18.684483 14.430738 9.759372
endloop
endfacet
facet normal 0 0 0
outer loop
vertex 18.725435 14.430738 9.759372
vertex 18.725435 14.451490 9.759372
vertex 18.704958 14.430738 9.759372
endloop
endfacet
facet normal 0 0 0
outer loop
vertex 18.725435 14.451490 9.759372
vertex 18.704958 14.451490 9.759372
vertex 18.704958 14.430738 9.759372
endloop
endfacet
facet normal 0 0 0
outer loop
vertex 18.664007 14.451490 9.759372
vertex 18.664007 14.472244 9.759372
vertex 18.643532 14.451490 9.759372
endloop
endfacet
facet normal 0 0 0
outer loop
vertex 18.664007 14.472244 9.759372
vertex 18.643532 14.472244 9.759372
vertex 18.643532 14.451490 9.759372
endloop
endfacet
facet normal 0 0 0
outer loop
vertex 18.684483 14.451490 9.759372
vertex 18.684483 14.472244 9.759372
vertex 18.664007 14.451490 9.759372
endloop
endfacet
facet normal 0 0 0
outer loop
vertex 18.684483 14.472244 9.759372
vertex 18.664007 14.472244 9.759372
vertex 18.664007 14.451490 9.759372
endloop
endfacet
facet normal 0 0 0
outer loop
vertex 18.704958 14.451490 9.759372
vertex 18.704958 14.472244 9.759372
vertex 18.684483 14.451490 9.759372
endloop
endfacet
facet normal 0 0 0
outer loop
vertex 18.704958 14.472244 9.759372
vertex 18.684483 14.472244 9.759372
vertex 18.684483 14.451490 9.759372
endloop
endfacet
facet normal 0 0 0
outer loop
vertex 18.725435 14.451490 9.759372
vertex 18.725435 14.472244 9.759372
vertex 18.704958 14.451490 9.759372
endloop
endfacet
facet normal 0 0 0
outer loop
vertex 18.725435 14.472244 9.759372
vertex 18.704958 14.472244 9.759372
vertex 18.704958 14.451490 9.759372
endloop
endfacet
facet normal 0 0 0
outer loop
vertex 18.664007 14.492998 9.759372
vertex 18.643532 14.472244 9.759372
vertex 18.664007 14.472244 9.759372
endloop
endfacet
facet normal 0 0 0
outer loop
vertex 18.684483 14.472244 9.759372
vertex 18.684483 14.492998 9.759372
vertex 18.664007 14.472244 9.759372
endloop
endfacet
facet normal 0 0 0
outer loop
vertex 18.684483 14.492998 9.759372
vertex 18.664007 14.492998 9.759372
vertex 18.664007 14.472244 9.759372
endloop
endfacet
facet normal 0 0 0
outer loop
vertex 18.704958 14.472244 9.759372
vertex 18.704958 14.492998 9.759372
vertex 18.684483 14.472244 9.759372
endloop
endfacet
facet normal 0 0 0
outer loop
vertex 18.704958 14.492998 9.759372
vertex 18.684483 14.492998 9.759372
vertex 18.684483 14.472244 9.759372
endloop
endfacet
facet normal 0 0 0
outer loop
vertex 18.725435 14.472244 9.759372
vertex 18.725435 14.492998 9.759372
vertex 18.704958 14.472244 9.759372
endloop
endfacet
facet normal 0 0 0
outer loop
vertex 18.725435 14.492998 9.759372
vertex 18.704958 14.492998 9.759372
vertex 18.704958 14.472244 9.759372
endloop
endfacet
facet normal 0 0 0
outer loop
vertex 18.725435 14.472244 9.759372
vertex 18.745911 14.492998 9.759372
vertex 18.725435 14.492998 9.759372
endloop
endfacet
facet normal 0 0 0
outer loop
vertex 18.704958 14.513750 9.759372
vertex 18.684483 14.492998 9.759372
vertex 18.704958 14.492998 9.759372
endloop
endfacet
facet normal 0 0 0
outer loop
vertex 18.725435 14.492998 9.759372
vertex 18.704958 14.513750 9.759372
vertex 18.704958 14.492998 9.759372
endloop
endfacet
endsolid B-16-Plag.222
