solid B-16-Plag.178
facet normal 0 0 0
outer loop
vertex 18.582104 11.629039 8.619371
vertex 18.561628 11.629039 8.619371
vertex 18.582104 11.649793 8.619371
endloop
endfacet
facet normal 0 0 0
outer loop
vertex 18.582104 11.649793 8.619371
vertex 18.561628 11.629039 8.619371
vertex 18.561628 11.649793 8.619371
endloop
endfacet
facet normal 0 0 0
outer loop
vertex 18.602579 11.629039 8.619371
vertex 18.582104 11.629039 8.619371
vertex 18.602579 11.649793 8.619371
endloop
endfacet
facet normal 0 0 0
outer loop
vertex 18.602579 11.649793 8.619371
vertex 18.582104 11.629039 8.619371
vertex 18.582104 11.649793 8.619371
endloop
endfacet
facet normal 0 0 0
outer loop
vertex 18.623056 11.629039 8.619371
vertex 18.602579 11.629039 8.619371
vertex 18.623056 11.649793 8.619371
endloop
endfacet
facet normal 0 0 0
outer loop
vertex 18.623056 11.649793 8.619371
vertex 18.602579 11.629039 8.619371
vertex 18.602579 11.649793 8.619371
endloop
endfacet
facet normal 0 0 0
outer loop
vertex 18.643532 11.629039 8.619371
vertex 18.623056 11.629039 8.619371
vertex 18.643532 11.649793 8.619371
endloop
endfacet
facet normal 0 0 0
outer loop
vertex 18.643532 11.649793 8.619371
vertex 18.623056 11.629039 8.619371
vertex 18.623056 11.649793 8.619371
endloop
endfacet
facet normal 0 0 0
outer loop
vertex 18.664007 11.649793 8.619371
vertex 18.643532 11.629039 8.619371
vertex 18.643532 11.649793 8.619371
endloop
endfacet
facet normal 0 0 0
outer loop
vertex 18.561628 11.649793 8.619371
vertex 18.541153 11.670546 8.619371
vertex 18.561628 11.670546 8.619371
endloop
endfacet
facet normal 0 0 0
outer loop
vertex 18.582104 11.649793 8.619371
vertex 18.561628 11.649793 8.619371
vertex 18.582104 11.670546 8.619371
endloop
endfacet
facet normal 0 0 0
outer loop
vertex 18.582104 11.670546 8.619371
vertex 18.561628 11.649793 8.619371
vertex 18.561628 11.670546 8.619371
endloop
endfacet
facet normal 0 0 0
outer loop
vertex 18.602579 11.649793 8.619371
vertex 18.582104 11.649793 8.619371
vertex 18.602579 11.670546 8.619371
endloop
endfacet
facet normal 0 0 0
outer loop
vertex 18.602579 11.670546 8.619371
vertex 18.582104 11.649793 8.619371
vertex 18.582104 11.670546 8.619371
endloop
endfacet
facet normal 0 0 0
outer loop
vertex 18.623056 11.649793 8.619371
vertex 18.602579 11.649793 8.619371
vertex 18.623056 11.670546 8.619371
endloop
endfacet
facet normal 0 0 0
outer loop
vertex 18.623056 11.670546 8.619371
vertex 18.602579 11.649793 8.619371
vertex 18.602579 11.670546 8.619371
endloop
endfacet
facet normal 0 0 0
outer loop
vertex 18.643532 11.649793 8.619371
vertex 18.623056 11.649793 8.619371
vertex 18.643532 11.670546 8.619371
endloop
endfacet
facet normal 0 0 0
outer loop
vertex 18.643532 11.670546 8.619371
vertex 18.623056 11.649793 8.619371
vertex 18.623056 11.670546 8.619371
endloop
endfacet
facet normal 0 0 0
outer loop
vertex 18.643532 11.670546 8.619371
vertex 18.664007 11.649793 8.619371
vertex 18.643532 11.649793 8.619371
endloop
endfacet
facet normal 0 0 0
outer loop
vertex 18.561628 11.670546 8.619371
vertex 18.541153 11.670546 8.619371
vertex 18.561628 11.691299 8.619371
endloop
endfacet
facet normal 0 0 0
outer loop
vertex 18.561628 11.691299 8.619371
vertex 18.541153 11.670546 8.619371
vertex 18.541153 11.691299 8.619371
endloop
endfacet
facet normal 0 0 0
outer loop
vertex 18.582104 11.670546 8.619371
vertex 18.561628 11.670546 8.619371
vertex 18.582104 11.691299 8.619371
endloop
endfacet
facet normal 0 0 0
outer loop
vertex 18.582104 11.691299 8.619371
vertex 18.561628 11.670546 8.619371
vertex 18.561628 11.691299 8.619371
endloop
endfacet
facet normal 0 0 0
outer loop
vertex 18.602579 11.670546 8.619371
vertex 18.582104 11.670546 8.619371
vertex 18.602579 11.691299 8.619371
endloop
endfacet
facet normal 0 0 0
outer loop
vertex 18.602579 11.691299 8.619371
vertex 18.582104 11.670546 8.619371
vertex 18.582104 11.691299 8.619371
endloop
endfacet
facet normal 0 0 0
outer loop
vertex 18.623056 11.670546 8.619371
vertex 18.602579 11.670546 8.619371
vertex 18.623056 11.691299 8.619371
endloop
endfacet
facet normal 0 0 0
outer loop
vertex 18.623056 11.691299 8.619371
vertex 18.602579 11.670546 8.619371
vertex 18.602579 11.691299 8.619371
endloop
endfacet
facet normal 0 0 0
outer loop
vertex 18.643532 11.670546 8.619371
vertex 18.623056 11.670546 8.619371
vertex 18.643532 11.691299 8.619371
endloop
endfacet
facet normal 0 0 0
outer loop
vertex 18.643532 11.691299 8.619371
vertex 18.623056 11.670546 8.619371
vertex 18.623056 11.691299 8.619371
endloop
endfacet
facet normal 0 0 0
outer loop
vertex 18.541153 11.691299 8.619371
vertex 18.561628 11.712052 8.619371
vertex 18.561628 11.691299 8.619371
endloop
endfacet
facet normal 0 0 0
outer loop
vertex 18.582104 11.691299 8.619371
vertex 18.561628 11.691299 8.619371
vertex 18.582104 11.712052 8.619371
endloop
endfacet
facet normal 0 0 0
outer loop
vertex 18.582104 11.712052 8.619371
vertex 18.561628 11.691299 8.619371
vertex 18.561628 11.712052 8.619371
endloop
endfacet
facet normal 0 0 0
outer loop
vertex 18.602579 11.691299 8.619371
vertex 18.582104 11.691299 8.619371
vertex 18.602579 11.712052 8.619371
endloop
endfacet
facet normal 0 0 0
outer loop
vertex 18.602579 11.712052 8.619371
vertex 18.582104 11.691299 8.619371
vertex 18.582104 11.712052 8.619371
endloop
endfacet
facet normal 0 0 0
outer loop
vertex 18.623056 11.691299 8.619371
vertex 18.602579 11.691299 8.619371
vertex 18.623056 11.712052 8.619371
endloop
endfacet
facet normal 0 0 0
outer loop
vertex 18.623056 11.712052 8.619371
vertex 18.602579 11.691299 8.619371
vertex 18.602579 11.712052 8.619371
endloop
endfacet
facet normal 0 0 0
outer loop
vertex 18.643532 11.691299 8.619371
vertex 18.623056 11.691299 8.619371
vertex 18.643532 11.712052 8.619371
endloop
endfacet
facet normal 0 0 0
outer loop
vertex 18.643532 11.712052 8.619371
vertex 18.623056 11.691299 8.619371
vertex 18.623056 11.712052 8.619371
endloop
endfacet
facet normal 0 0 0
outer loop
vertex 18.541153 11.629039 8.639372
vertex 18.561628 11.629039 8.619371
vertex 18.561628 11.629039 8.639372
endloop
endfacet
facet normal 0 0 0
outer loop
vertex 18.582104 11.608286 8.639372
vertex 18.561628 11.629039 8.639372
vertex 18.582104 11.629039 8.619371
endloop
endfacet
facet normal 0 0 0
outer loop
vertex 18.561628 11.629039 8.639372
vertex 18.561628 11.629039 8.619371
vertex 18.582104 11.629039 8.619371
endloop
endfacet
facet normal 0 0 0
outer loop
vertex 18.602579 11.629039 8.619371
vertex 18.582104 11.608286 8.639372
vertex 18.582104 11.629039 8.619371
endloop
endfacet
facet normal 0 0 0
outer loop
vertex 18.602579 11.608286 8.639372
vertex 18.582104 11.608286 8.639372
vertex 18.602579 11.629039 8.619371
endloop
endfacet
facet normal 0 0 0
outer loop
vertex 18.623056 11.629039 8.619371
vertex 18.602579 11.608286 8.639372
vertex 18.602579 11.629039 8.619371
endloop
endfacet
facet normal 0 0 0
outer loop
vertex 18.623056 11.608286 8.639372
vertex 18.602579 11.608286 8.639372
vertex 18.623056 11.629039 8.619371
endloop
endfacet
facet normal 0 0 0
outer loop
vertex 18.623056 11.608286 8.639372
vertex 18.623056 11.629039 8.619371
vertex 18.643532 11.629039 8.639372
endloop
endfacet
facet normal 0 0 0
outer loop
vertex 18.623056 11.629039 8.619371
vertex 18.643532 11.629039 8.619371
vertex 18.643532 11.629039 8.639372
endloop
endfacet
facet normal 0 0 0
outer loop
vertex 18.561628 11.629039 8.619371
vertex 18.541153 11.649793 8.639372
vertex 18.561628 11.649793 8.619371
endloop
endfacet
facet normal 0 0 0
outer loop
vertex 18.541153 11.629039 8.639372
vertex 18.541153 11.649793 8.639372
vertex 18.561628 11.629039 8.619371
endloop
endfacet
facet normal 0 0 0
outer loop
vertex 18.664007 11.649793 8.619371
vertex 18.643532 11.649793 8.639372
vertex 18.643532 11.629039 8.619371
endloop
endfacet
facet normal 0 0 0
outer loop
vertex 18.643532 11.649793 8.639372
vertex 18.643532 11.629039 8.639372
vertex 18.643532 11.629039 8.619371
endloop
endfacet
facet normal 0 0 0
outer loop
vertex 18.541153 11.670546 8.619371
vertex 18.541153 11.649793 8.639372
vertex 18.541153 11.670546 8.639372
endloop
endfacet
facet normal 0 0 0
outer loop
vertex 18.561628 11.649793 8.619371
vertex 18.541153 11.649793 8.639372
vertex 18.541153 11.670546 8.619371
endloop
endfacet
facet normal 0 0 0
outer loop
vertex 18.664007 11.670546 8.639372
vertex 18.643532 11.649793 8.639372
vertex 18.643532 11.670546 8.619371
endloop
endfacet
facet normal 0 0 0
outer loop
vertex 18.664007 11.649793 8.619371
vertex 18.643532 11.670546 8.619371
vertex 18.643532 11.649793 8.639372
endloop
endfacet
facet normal 0 0 0
outer loop
vertex 18.541153 11.670546 8.619371
vertex 18.541153 11.670546 8.639372
vertex 18.541153 11.691299 8.619371
endloop
endfacet
facet normal 0 0 0
outer loop
vertex 18.541153 11.670546 8.639372
vertex 18.541153 11.691299 8.639372
vertex 18.541153 11.691299 8.619371
endloop
endfacet
facet normal 0 0 0
outer loop
vertex 18.664007 11.670546 8.639372
vertex 18.643532 11.670546 8.619371
vertex 18.643532 11.691299 8.639372
endloop
endfacet
facet normal 0 0 0
outer loop
vertex 18.643532 11.670546 8.619371
vertex 18.643532 11.691299 8.619371
vertex 18.643532 11.691299 8.639372
endloop
endfacet
facet normal 0 0 0
outer loop
vertex 18.541153 11.712052 8.639372
vertex 18.541153 11.691299 8.619371
vertex 18.541153 11.691299 8.639372
endloop
endfacet
facet normal 0 0 0
outer loop
vertex 18.541153 11.691299 8.619371
vertex 18.541153 11.712052 8.639372
vertex 18.561628 11.712052 8.619371
endloop
endfacet
facet normal 0 0 0
outer loop
vertex 18.643532 11.712052 8.619371
vertex 18.623056 11.712052 8.639372
vertex 18.643532 11.691299 8.639372
endloop
endfacet
facet normal 0 0 0
outer loop
vertex 18.643532 11.712052 8.619371
vertex 18.643532 11.691299 8.639372
vertex 18.643532 11.691299 8.619371
endloop
endfacet
facet normal 0 0 0
outer loop
vertex 18.561628 11.712052 8.619371
vertex 18.541153 11.712052 8.639372
vertex 18.561628 11.732806 8.639372
endloop
endfacet
facet normal 0 0 0
outer loop
vertex 18.561628 11.732806 8.639372
vertex 18.582104 11.712052 8.639372
vertex 18.561628 11.712052 8.619371
endloop
endfacet
facet normal 0 0 0
outer loop
vertex 18.582104 11.712052 8.639372
vertex 18.582104 11.712052 8.619371
vertex 18.561628 11.712052 8.619371
endloop
endfacet
facet normal 0 0 0
outer loop
vertex 18.602579 11.712052 8.619371
vertex 18.582104 11.712052 8.619371
vertex 18.602579 11.712052 8.639372
endloop
endfacet
facet normal 0 0 0
outer loop
vertex 18.582104 11.712052 8.619371
vertex 18.582104 11.712052 8.639372
vertex 18.602579 11.712052 8.639372
endloop
endfacet
facet normal 0 0 0
outer loop
vertex 18.623056 11.712052 8.619371
vertex 18.602579 11.712052 8.619371
vertex 18.623056 11.712052 8.639372
endloop
endfacet
facet normal 0 0 0
outer loop
vertex 18.602579 11.712052 8.619371
vertex 18.602579 11.712052 8.639372
vertex 18.623056 11.712052 8.639372
endloop
endfacet
facet normal 0 0 0
outer loop
vertex 18.623056 11.712052 8.639372
vertex 18.643532 11.712052 8.619371
vertex 18.623056 11.712052 8.619371
endloop
endfacet
facet normal 0 0 0
outer loop
vertex 18.602579 11.608286 8.659372
vertex 18.582104 11.608286 8.639372
vertex 18.602579 11.608286 8.639372
endloop
endfacet
facet normal 0 0 0
outer loop
vertex 18.623056 11.608286 8.639372
vertex 18.602579 11.608286 8.659372
vertex 18.602579 11.608286 8.639372
endloop
endfacet
facet normal 0 0 0
outer loop
vertex 18.561628 11.629039 8.659372
vertex 18.541153 11.629039 8.639372
vertex 18.561628 11.629039 8.639372
endloop
endfacet
facet normal 0 0 0
outer loop
vertex 18.582104 11.608286 8.639372
vertex 18.582104 11.629039 8.659372
vertex 18.561628 11.629039 8.639372
endloop
endfacet
facet normal 0 0 0
outer loop
vertex 18.582104 11.629039 8.659372
vertex 18.561628 11.629039 8.659372
vertex 18.561628 11.629039 8.639372
endloop
endfacet
facet normal 0 0 0
outer loop
vertex 18.602579 11.608286 8.659372
vertex 18.582104 11.629039 8.659372
vertex 18.582104 11.608286 8.639372
endloop
endfacet
facet normal 0 0 0
outer loop
vertex 18.623056 11.608286 8.639372
vertex 18.623056 11.629039 8.659372
vertex 18.602579 11.608286 8.659372
endloop
endfacet
facet normal 0 0 0
outer loop
vertex 18.643532 11.629039 8.639372
vertex 18.623056 11.629039 8.659372
vertex 18.623056 11.608286 8.639372
endloop
endfacet
facet normal 0 0 0
outer loop
vertex 18.541153 11.629039 8.639372
vertex 18.541153 11.649793 8.659372
vertex 18.541153 11.649793 8.639372
endloop
endfacet
facet normal 0 0 0
outer loop
vertex 18.561628 11.629039 8.659372
vertex 18.541153 11.649793 8.659372
vertex 18.541153 11.629039 8.639372
endloop
endfacet
facet normal 0 0 0
outer loop
vertex 18.643532 11.629039 8.639372
vertex 18.643532 11.649793 8.659372
vertex 18.623056 11.629039 8.659372
endloop
endfacet
facet normal 0 0 0
outer loop
vertex 18.643532 11.649793 8.659372
vertex 18.643532 11.629039 8.639372
vertex 18.643532 11.649793 8.639372
endloop
endfacet
facet normal 0 0 0
outer loop
vertex 18.520678 11.670546 8.659372
vertex 18.541153 11.670546 8.639372
vertex 18.541153 11.649793 8.659372
endloop
endfacet
facet normal 0 0 0
outer loop
vertex 18.541153 11.670546 8.639372
vertex 18.541153 11.649793 8.639372
vertex 18.541153 11.649793 8.659372
endloop
endfacet
facet normal 0 0 0
outer loop
vertex 18.643532 11.649793 8.639372
vertex 18.664007 11.670546 8.659372
vertex 18.643532 11.649793 8.659372
endloop
endfacet
facet normal 0 0 0
outer loop
vertex 18.664007 11.670546 8.639372
vertex 18.664007 11.670546 8.659372
vertex 18.643532 11.649793 8.639372
endloop
endfacet
facet normal 0 0 0
outer loop
vertex 18.541153 11.670546 8.639372
vertex 18.520678 11.691299 8.659372
vertex 18.541153 11.691299 8.639372
endloop
endfacet
facet normal 0 0 0
outer loop
vertex 18.520678 11.670546 8.659372
vertex 18.520678 11.691299 8.659372
vertex 18.541153 11.670546 8.639372
endloop
endfacet
facet normal 0 0 0
outer loop
vertex 18.664007 11.670546 8.639372
vertex 18.643532 11.691299 8.659372
vertex 18.664007 11.670546 8.659372
endloop
endfacet
facet normal 0 0 0
outer loop
vertex 18.643532 11.691299 8.639372
vertex 18.643532 11.691299 8.659372
vertex 18.664007 11.670546 8.639372
endloop
endfacet
facet normal 0 0 0
outer loop
vertex 18.541153 11.691299 8.639372
vertex 18.520678 11.712052 8.659372
vertex 18.541153 11.712052 8.639372
endloop
endfacet
facet normal 0 0 0
outer loop
vertex 18.520678 11.691299 8.659372
vertex 18.520678 11.712052 8.659372
vertex 18.541153 11.691299 8.639372
endloop
endfacet
facet normal 0 0 0
outer loop
vertex 18.623056 11.712052 8.639372
vertex 18.602579 11.712052 8.659372
vertex 18.623056 11.691299 8.659372
endloop
endfacet
facet normal 0 0 0
outer loop
vertex 18.623056 11.712052 8.639372
vertex 18.623056 11.691299 8.659372
vertex 18.643532 11.691299 8.639372
endloop
endfacet
facet normal 0 0 0
outer loop
vertex 18.623056 11.691299 8.659372
vertex 18.643532 11.691299 8.659372
vertex 18.643532 11.691299 8.639372
endloop
endfacet
facet normal 0 0 0
outer loop
vertex 18.541153 11.712052 8.639372
vertex 18.520678 11.712052 8.659372
vertex 18.541153 11.732806 8.659372
endloop
endfacet
facet normal 0 0 0
outer loop
vertex 18.541153 11.712052 8.639372
vertex 18.541153 11.732806 8.659372
vertex 18.561628 11.732806 8.639372
endloop
endfacet
facet normal 0 0 0
outer loop
vertex 18.582104 11.712052 8.639372
vertex 18.561628 11.732806 8.639372
vertex 18.582104 11.732806 8.659372
endloop
endfacet
facet normal 0 0 0
outer loop
vertex 18.582104 11.732806 8.659372
vertex 18.602579 11.712052 8.659372
vertex 18.582104 11.712052 8.639372
endloop
endfacet
facet normal 0 0 0
outer loop
vertex 18.602579 11.712052 8.659372
vertex 18.602579 11.712052 8.639372
vertex 18.582104 11.712052 8.639372
endloop
endfacet
facet normal 0 0 0
outer loop
vertex 18.602579 11.712052 8.659372
vertex 18.623056 11.712052 8.639372
vertex 18.602579 11.712052 8.639372
endloop
endfacet
facet normal 0 0 0
outer loop
vertex 18.561628 11.732806 8.639372
vertex 18.541153 11.732806 8.659372
vertex 18.561628 11.732806 8.659372
endloop
endfacet
facet normal 0 0 0
outer loop
vertex 18.582104 11.732806 8.659372
vertex 18.561628 11.732806 8.639372
vertex 18.561628 11.732806 8.659372
endloop
endfacet
facet normal 0 0 0
outer loop
vertex 18.582104 11.629039 8.659372
vertex 18.602579 11.608286 8.659372
vertex 18.602579 11.629039 8.659372
endloop
endfacet
facet normal 0 0 0
outer loop
vertex 18.602579 11.608286 8.659372
vertex 18.623056 11.629039 8.659372
vertex 18.602579 11.629039 8.659372
endloop
endfacet
facet normal 0 0 0
outer loop
vertex 18.520678 11.649793 8.679372
vertex 18.541153 11.649793 8.659372
vertex 18.541153 11.649793 8.679372
endloop
endfacet
facet normal 0 0 0
outer loop
vertex 18.561628 11.629039 8.659372
vertex 18.561628 11.649793 8.679372
vertex 18.541153 11.649793 8.659372
endloop
endfacet
facet normal 0 0 0
outer loop
vertex 18.561628 11.649793 8.679372
vertex 18.541153 11.649793 8.679372
vertex 18.541153 11.649793 8.659372
endloop
endfacet
facet normal 0 0 0
outer loop
vertex 18.582104 11.629039 8.659372
vertex 18.561628 11.649793 8.679372
vertex 18.561628 11.629039 8.659372
endloop
endfacet
facet normal 0 0 0
outer loop
vertex 18.582104 11.649793 8.679372
vertex 18.561628 11.649793 8.679372
vertex 18.582104 11.629039 8.659372
endloop
endfacet
facet normal 0 0 0
outer loop
vertex 18.602579 11.629039 8.659372
vertex 18.582104 11.649793 8.679372
vertex 18.582104 11.629039 8.659372
endloop
endfacet
facet normal 0 0 0
outer loop
vertex 18.602579 11.649793 8.679372
vertex 18.582104 11.649793 8.679372
vertex 18.602579 11.629039 8.659372
endloop
endfacet
facet normal 0 0 0
outer loop
vertex 18.602579 11.649793 8.679372
vertex 18.602579 11.629039 8.659372
vertex 18.623056 11.649793 8.659372
endloop
endfacet
facet normal 0 0 0
outer loop
vertex 18.602579 11.629039 8.659372
vertex 18.623056 11.629039 8.659372
vertex 18.623056 11.649793 8.659372
endloop
endfacet
facet normal 0 0 0
outer loop
vertex 18.623056 11.629039 8.659372
vertex 18.643532 11.649793 8.659372
vertex 18.623056 11.649793 8.659372
endloop
endfacet
facet normal 0 0 0
outer loop
vertex 18.520678 11.670546 8.659372
vertex 18.520678 11.649793 8.679372
vertex 18.520678 11.670546 8.679372
endloop
endfacet
facet normal 0 0 0
outer loop
vertex 18.541153 11.649793 8.659372
vertex 18.520678 11.649793 8.679372
vertex 18.520678 11.670546 8.659372
endloop
endfacet
facet normal 0 0 0
outer loop
vertex 18.623056 11.649793 8.659372
vertex 18.623056 11.670546 8.679372
vertex 18.602579 11.649793 8.679372
endloop
endfacet
facet normal 0 0 0
outer loop
vertex 18.643532 11.649793 8.659372
vertex 18.623056 11.670546 8.679372
vertex 18.623056 11.649793 8.659372
endloop
endfacet
facet normal 0 0 0
outer loop
vertex 18.643532 11.670546 8.679372
vertex 18.623056 11.670546 8.679372
vertex 18.643532 11.649793 8.659372
endloop
endfacet
facet normal 0 0 0
outer loop
vertex 18.664007 11.670546 8.659372
vertex 18.643532 11.670546 8.679372
vertex 18.643532 11.649793 8.659372
endloop
endfacet
facet normal 0 0 0
outer loop
vertex 18.520678 11.670546 8.659372
vertex 18.520678 11.670546 8.679372
vertex 18.520678 11.691299 8.659372
endloop
endfacet
facet normal 0 0 0
outer loop
vertex 18.520678 11.670546 8.679372
vertex 18.520678 11.691299 8.679372
vertex 18.520678 11.691299 8.659372
endloop
endfacet
facet normal 0 0 0
outer loop
vertex 18.623056 11.691299 8.659372
vertex 18.602579 11.691299 8.679372
vertex 18.623056 11.670546 8.679372
endloop
endfacet
facet normal 0 0 0
outer loop
vertex 18.623056 11.691299 8.659372
vertex 18.643532 11.670546 8.679372
vertex 18.643532 11.691299 8.659372
endloop
endfacet
facet normal 0 0 0
outer loop
vertex 18.623056 11.670546 8.679372
vertex 18.643532 11.670546 8.679372
vertex 18.623056 11.691299 8.659372
endloop
endfacet
facet normal 0 0 0
outer loop
vertex 18.664007 11.670546 8.659372
vertex 18.643532 11.691299 8.659372
vertex 18.643532 11.670546 8.679372
endloop
endfacet
facet normal 0 0 0
outer loop
vertex 18.520678 11.691299 8.659372
vertex 18.520678 11.691299 8.679372
vertex 18.520678 11.712052 8.659372
endloop
endfacet
facet normal 0 0 0
outer loop
vertex 18.520678 11.691299 8.679372
vertex 18.520678 11.712052 8.679372
vertex 18.520678 11.712052 8.659372
endloop
endfacet
facet normal 0 0 0
outer loop
vertex 18.623056 11.691299 8.659372
vertex 18.602579 11.712052 8.659372
vertex 18.602579 11.691299 8.679372
endloop
endfacet
facet normal 0 0 0
outer loop
vertex 18.602579 11.712052 8.659372
vertex 18.602579 11.712052 8.679372
vertex 18.602579 11.691299 8.679372
endloop
endfacet
facet normal 0 0 0
outer loop
vertex 18.520678 11.732806 8.679372
vertex 18.520678 11.712052 8.659372
vertex 18.520678 11.712052 8.679372
endloop
endfacet
facet normal 0 0 0
outer loop
vertex 18.520678 11.712052 8.659372
vertex 18.520678 11.732806 8.679372
vertex 18.541153 11.732806 8.659372
endloop
endfacet
facet normal 0 0 0
outer loop
vertex 18.602579 11.712052 8.659372
vertex 18.582104 11.732806 8.679372
vertex 18.602579 11.712052 8.679372
endloop
endfacet
facet normal 0 0 0
outer loop
vertex 18.582104 11.732806 8.659372
vertex 18.582104 11.732806 8.679372
vertex 18.602579 11.712052 8.659372
endloop
endfacet
facet normal 0 0 0
outer loop
vertex 18.541153 11.732806 8.659372
vertex 18.520678 11.732806 8.679372
vertex 18.541153 11.732806 8.679372
endloop
endfacet
facet normal 0 0 0
outer loop
vertex 18.561628 11.732806 8.659372
vertex 18.541153 11.732806 8.659372
vertex 18.561628 11.732806 8.679372
endloop
endfacet
facet normal 0 0 0
outer loop
vertex 18.541153 11.732806 8.659372
vertex 18.541153 11.732806 8.679372
vertex 18.561628 11.732806 8.679372
endloop
endfacet
facet normal 0 0 0
outer loop
vertex 18.582104 11.732806 8.659372
vertex 18.561628 11.732806 8.659372
vertex 18.582104 11.732806 8.679372
endloop
endfacet
facet normal 0 0 0
outer loop
vertex 18.561628 11.732806 8.659372
vertex 18.561628 11.732806 8.679372
vertex 18.582104 11.732806 8.679372
endloop
endfacet
facet normal 0 0 0
outer loop
vertex 18.561628 11.649793 8.699371
vertex 18.541153 11.649793 8.679372
vertex 18.561628 11.649793 8.679372
endloop
endfacet
facet normal 0 0 0
outer loop
vertex 18.582104 11.649793 8.679372
vertex 18.582104 11.649793 8.699371
vertex 18.561628 11.649793 8.679372
endloop
endfacet
facet normal 0 0 0
outer loop
vertex 18.561628 11.649793 8.679372
vertex 18.582104 11.649793 8.699371
vertex 18.561628 11.649793 8.699371
endloop
endfacet
facet normal 0 0 0
outer loop
vertex 18.602579 11.649793 8.679372
vertex 18.582104 11.649793 8.699371
vertex 18.582104 11.649793 8.679372
endloop
endfacet
facet normal 0 0 0
outer loop
vertex 18.541153 11.670546 8.699371
vertex 18.520678 11.670546 8.679372
vertex 18.541153 11.649793 8.679372
endloop
endfacet
facet normal 0 0 0
outer loop
vertex 18.520678 11.670546 8.679372
vertex 18.520678 11.649793 8.679372
vertex 18.541153 11.649793 8.679372
endloop
endfacet
facet normal 0 0 0
outer loop
vertex 18.561628 11.649793 8.699371
vertex 18.541153 11.670546 8.699371
vertex 18.541153 11.649793 8.679372
endloop
endfacet
facet normal 0 0 0
outer loop
vertex 18.602579 11.649793 8.679372
vertex 18.602579 11.670546 8.699371
vertex 18.582104 11.649793 8.699371
endloop
endfacet
facet normal 0 0 0
outer loop
vertex 18.602579 11.649793 8.679372
vertex 18.623056 11.670546 8.679372
vertex 18.602579 11.670546 8.699371
endloop
endfacet
facet normal 0 0 0
outer loop
vertex 18.623056 11.670546 8.679372
vertex 18.623056 11.670546 8.699371
vertex 18.602579 11.670546 8.699371
endloop
endfacet
facet normal 0 0 0
outer loop
vertex 18.643532 11.670546 8.679372
vertex 18.623056 11.670546 8.699371
vertex 18.623056 11.670546 8.679372
endloop
endfacet
facet normal 0 0 0
outer loop
vertex 18.520678 11.670546 8.679372
vertex 18.520678 11.691299 8.699371
vertex 18.520678 11.691299 8.679372
endloop
endfacet
facet normal 0 0 0
outer loop
vertex 18.541153 11.670546 8.699371
vertex 18.520678 11.691299 8.699371
vertex 18.520678 11.670546 8.679372
endloop
endfacet
facet normal 0 0 0
outer loop
vertex 18.623056 11.670546 8.679372
vertex 18.602579 11.691299 8.679372
vertex 18.623056 11.691299 8.699371
endloop
endfacet
facet normal 0 0 0
outer loop
vertex 18.643532 11.670546 8.679372
vertex 18.623056 11.691299 8.699371
vertex 18.623056 11.670546 8.699371
endloop
endfacet
facet normal 0 0 0
outer loop
vertex 18.643532 11.670546 8.679372
vertex 18.623056 11.670546 8.679372
vertex 18.623056 11.691299 8.699371
endloop
endfacet
facet normal 0 0 0
outer loop
vertex 18.520678 11.691299 8.699371
vertex 18.520678 11.712052 8.679372
vertex 18.520678 11.691299 8.679372
endloop
endfacet
facet normal 0 0 0
outer loop
vertex 18.520678 11.691299 8.699371
vertex 18.541153 11.712052 8.699371
vertex 18.520678 11.712052 8.679372
endloop
endfacet
facet normal 0 0 0
outer loop
vertex 18.623056 11.691299 8.699371
vertex 18.602579 11.712052 8.679372
vertex 18.623056 11.712052 8.699371
endloop
endfacet
facet normal 0 0 0
outer loop
vertex 18.602579 11.691299 8.679372
vertex 18.602579 11.712052 8.679372
vertex 18.623056 11.691299 8.699371
endloop
endfacet
facet normal 0 0 0
outer loop
vertex 18.520678 11.712052 8.679372
vertex 18.520678 11.732806 8.699371
vertex 18.520678 11.732806 8.679372
endloop
endfacet
facet normal 0 0 0
outer loop
vertex 18.541153 11.712052 8.699371
vertex 18.520678 11.732806 8.699371
vertex 18.520678 11.712052 8.679372
endloop
endfacet
facet normal 0 0 0
outer loop
vertex 18.602579 11.712052 8.679372
vertex 18.582104 11.732806 8.699371
vertex 18.602579 11.712052 8.699371
endloop
endfacet
facet normal 0 0 0
outer loop
vertex 18.582104 11.732806 8.679372
vertex 18.582104 11.732806 8.699371
vertex 18.602579 11.712052 8.679372
endloop
endfacet
facet normal 0 0 0
outer loop
vertex 18.623056 11.712052 8.699371
vertex 18.602579 11.712052 8.679372
vertex 18.602579 11.712052 8.699371
endloop
endfacet
facet normal 0 0 0
outer loop
vertex 18.541153 11.732806 8.679372
vertex 18.520678 11.732806 8.679372
vertex 18.541153 11.732806 8.699371
endloop
endfacet
facet normal 0 0 0
outer loop
vertex 18.520678 11.732806 8.679372
vertex 18.520678 11.732806 8.699371
vertex 18.541153 11.732806 8.699371
endloop
endfacet
facet normal 0 0 0
outer loop
vertex 18.561628 11.732806 8.679372
vertex 18.541153 11.732806 8.679372
vertex 18.561628 11.732806 8.699371
endloop
endfacet
facet normal 0 0 0
outer loop
vertex 18.541153 11.732806 8.679372
vertex 18.541153 11.732806 8.699371
vertex 18.561628 11.732806 8.699371
endloop
endfacet
facet normal 0 0 0
outer loop
vertex 18.582104 11.732806 8.679372
vertex 18.561628 11.732806 8.679372
vertex 18.582104 11.732806 8.699371
endloop
endfacet
facet normal 0 0 0
outer loop
vertex 18.561628 11.732806 8.679372
vertex 18.561628 11.732806 8.699371
vertex 18.582104 11.732806 8.699371
endloop
endfacet
facet normal 0 0 0
outer loop
vertex 18.541153 11.670546 8.699371
vertex 18.561628 11.649793 8.699371
vertex 18.561628 11.670546 8.699371
endloop
endfacet
facet normal 0 0 0
outer loop
vertex 18.582104 11.649793 8.699371
vertex 18.582104 11.670546 8.699371
vertex 18.561628 11.649793 8.699371
endloop
endfacet
facet normal 0 0 0
outer loop
vertex 18.582104 11.670546 8.699371
vertex 18.561628 11.670546 8.699371
vertex 18.561628 11.649793 8.699371
endloop
endfacet
facet normal 0 0 0
outer loop
vertex 18.582104 11.649793 8.699371
vertex 18.602579 11.670546 8.699371
vertex 18.582104 11.670546 8.699371
endloop
endfacet
facet normal 0 0 0
outer loop
vertex 18.520678 11.691299 8.699371
vertex 18.541153 11.670546 8.699371
vertex 18.541153 11.691299 8.699371
endloop
endfacet
facet normal 0 0 0
outer loop
vertex 18.561628 11.670546 8.699371
vertex 18.561628 11.691299 8.699371
vertex 18.541153 11.670546 8.699371
endloop
endfacet
facet normal 0 0 0
outer loop
vertex 18.561628 11.691299 8.699371
vertex 18.541153 11.691299 8.699371
vertex 18.541153 11.670546 8.699371
endloop
endfacet
facet normal 0 0 0
outer loop
vertex 18.582104 11.670546 8.699371
vertex 18.582104 11.691299 8.699371
vertex 18.561628 11.670546 8.699371
endloop
endfacet
facet normal 0 0 0
outer loop
vertex 18.582104 11.691299 8.699371
vertex 18.561628 11.691299 8.699371
vertex 18.561628 11.670546 8.699371
endloop
endfacet
facet normal 0 0 0
outer loop
vertex 18.602579 11.670546 8.699371
vertex 18.602579 11.691299 8.699371
vertex 18.582104 11.670546 8.699371
endloop
endfacet
facet normal 0 0 0
outer loop
vertex 18.602579 11.691299 8.699371
vertex 18.582104 11.691299 8.699371
vertex 18.582104 11.670546 8.699371
endloop
endfacet
facet normal 0 0 0
outer loop
vertex 18.623056 11.670546 8.699371
vertex 18.623056 11.691299 8.699371
vertex 18.602579 11.670546 8.699371
endloop
endfacet
facet normal 0 0 0
outer loop
vertex 18.623056 11.691299 8.699371
vertex 18.602579 11.691299 8.699371
vertex 18.602579 11.670546 8.699371
endloop
endfacet
facet normal 0 0 0
outer loop
vertex 18.541153 11.712052 8.699371
vertex 18.520678 11.691299 8.699371
vertex 18.541153 11.691299 8.699371
endloop
endfacet
facet normal 0 0 0
outer loop
vertex 18.561628 11.691299 8.699371
vertex 18.561628 11.712052 8.699371
vertex 18.541153 11.691299 8.699371
endloop
endfacet
facet normal 0 0 0
outer loop
vertex 18.561628 11.712052 8.699371
vertex 18.541153 11.712052 8.699371
vertex 18.541153 11.691299 8.699371
endloop
endfacet
facet normal 0 0 0
outer loop
vertex 18.582104 11.691299 8.699371
vertex 18.582104 11.712052 8.699371
vertex 18.561628 11.691299 8.699371
endloop
endfacet
facet normal 0 0 0
outer loop
vertex 18.582104 11.712052 8.699371
vertex 18.561628 11.712052 8.699371
vertex 18.561628 11.691299 8.699371
endloop
endfacet
facet normal 0 0 0
outer loop
vertex 18.602579 11.691299 8.699371
vertex 18.602579 11.712052 8.699371
vertex 18.582104 11.691299 8.699371
endloop
endfacet
facet normal 0 0 0
outer loop
vertex 18.602579 11.712052 8.699371
vertex 18.582104 11.712052 8.699371
vertex 18.582104 11.691299 8.699371
endloop
endfacet
facet normal 0 0 0
outer loop
vertex 18.623056 11.691299 8.699371
vertex 18.623056 11.712052 8.699371
vertex 18.602579 11.691299 8.699371
endloop
endfacet
facet normal 0 0 0
outer loop
vertex 18.623056 11.712052 8.699371
vertex 18.602579 11.712052 8.699371
vertex 18.602579 11.691299 8.699371
endloop
endfacet
facet normal 0 0 0
outer loop
vertex 18.520678 11.732806 8.699371
vertex 18.541153 11.712052 8.699371
vertex 18.541153 11.732806 8.699371
endloop
endfacet
facet normal 0 0 0
outer loop
vertex 18.561628 11.712052 8.699371
vertex 18.561628 11.732806 8.699371
vertex 18.541153 11.712052 8.699371
endloop
endfacet
facet normal 0 0 0
outer loop
vertex 18.561628 11.732806 8.699371
vertex 18.541153 11.732806 8.699371
vertex 18.541153 11.712052 8.699371
endloop
endfacet
facet normal 0 0 0
outer loop
vertex 18.582104 11.712052 8.699371
vertex 18.582104 11.732806 8.699371
vertex 18.561628 11.712052 8.699371
endloop
endfacet
facet normal 0 0 0
outer loop
vertex 18.582104 11.732806 8.699371
vertex 18.561628 11.732806 8.699371
vertex 18.561628 11.712052 8.699371
endloop
endfacet
facet normal 0 0 0
outer loop
vertex 18.602579 11.712052 8.699371
vertex 18.582104 11.732806 8.699371
vertex 18.582104 11.712052 8.699371
endloop
endfacet
endsolid B-16-Plag.178
