solid B-16-Plag.031
facet normal 0 0 0
outer loop
vertex 11.538429 6.523722 3.559372
vertex 11.517954 6.544476 3.559372
vertex 11.538429 6.544476 3.559372
endloop
endfacet
facet normal 0 0 0
outer loop
vertex 11.558905 6.544476 3.559372
vertex 11.538429 6.523722 3.559372
vertex 11.538429 6.544476 3.559372
endloop
endfacet
facet normal 0 0 0
outer loop
vertex 11.517954 6.544476 3.559372
vertex 11.497478 6.565228 3.559372
vertex 11.517954 6.565228 3.559372
endloop
endfacet
facet normal 0 0 0
outer loop
vertex 11.538429 6.544476 3.559372
vertex 11.517954 6.544476 3.559372
vertex 11.538429 6.565228 3.559372
endloop
endfacet
facet normal 0 0 0
outer loop
vertex 11.538429 6.565228 3.559372
vertex 11.517954 6.544476 3.559372
vertex 11.517954 6.565228 3.559372
endloop
endfacet
facet normal 0 0 0
outer loop
vertex 11.558905 6.544476 3.559372
vertex 11.538429 6.544476 3.559372
vertex 11.558905 6.565228 3.559372
endloop
endfacet
facet normal 0 0 0
outer loop
vertex 11.558905 6.565228 3.559372
vertex 11.538429 6.544476 3.559372
vertex 11.538429 6.565228 3.559372
endloop
endfacet
facet normal 0 0 0
outer loop
vertex 11.579380 6.565228 3.559372
vertex 11.558905 6.544476 3.559372
vertex 11.558905 6.565228 3.559372
endloop
endfacet
facet normal 0 0 0
outer loop
vertex 11.517954 6.565228 3.559372
vertex 11.497478 6.565228 3.559372
vertex 11.517954 6.585982 3.559372
endloop
endfacet
facet normal 0 0 0
outer loop
vertex 11.517954 6.585982 3.559372
vertex 11.497478 6.565228 3.559372
vertex 11.497478 6.585982 3.559372
endloop
endfacet
facet normal 0 0 0
outer loop
vertex 11.538429 6.565228 3.559372
vertex 11.517954 6.565228 3.559372
vertex 11.538429 6.585982 3.559372
endloop
endfacet
facet normal 0 0 0
outer loop
vertex 11.538429 6.585982 3.559372
vertex 11.517954 6.565228 3.559372
vertex 11.517954 6.585982 3.559372
endloop
endfacet
facet normal 0 0 0
outer loop
vertex 11.558905 6.565228 3.559372
vertex 11.538429 6.565228 3.559372
vertex 11.558905 6.585982 3.559372
endloop
endfacet
facet normal 0 0 0
outer loop
vertex 11.558905 6.585982 3.559372
vertex 11.538429 6.565228 3.559372
vertex 11.538429 6.585982 3.559372
endloop
endfacet
facet normal 0 0 0
outer loop
vertex 11.558905 6.585982 3.559372
vertex 11.579380 6.565228 3.559372
vertex 11.558905 6.565228 3.559372
endloop
endfacet
facet normal 0 0 0
outer loop
vertex 11.517954 6.585982 3.559372
vertex 11.497478 6.585982 3.559372
vertex 11.517954 6.606735 3.559372
endloop
endfacet
facet normal 0 0 0
outer loop
vertex 11.517954 6.606735 3.559372
vertex 11.497478 6.585982 3.559372
vertex 11.497478 6.606735 3.559372
endloop
endfacet
facet normal 0 0 0
outer loop
vertex 11.538429 6.585982 3.559372
vertex 11.517954 6.585982 3.559372
vertex 11.538429 6.606735 3.559372
endloop
endfacet
facet normal 0 0 0
outer loop
vertex 11.538429 6.606735 3.559372
vertex 11.517954 6.585982 3.559372
vertex 11.517954 6.606735 3.559372
endloop
endfacet
facet normal 0 0 0
outer loop
vertex 11.558905 6.585982 3.559372
vertex 11.538429 6.585982 3.559372
vertex 11.558905 6.606735 3.559372
endloop
endfacet
facet normal 0 0 0
outer loop
vertex 11.558905 6.606735 3.559372
vertex 11.538429 6.585982 3.559372
vertex 11.538429 6.606735 3.559372
endloop
endfacet
facet normal 0 0 0
outer loop
vertex 11.517954 6.606735 3.559372
vertex 11.497478 6.606735 3.559372
vertex 11.517954 6.627489 3.559372
endloop
endfacet
facet normal 0 0 0
outer loop
vertex 11.517954 6.627489 3.559372
vertex 11.497478 6.606735 3.559372
vertex 11.497478 6.627489 3.559372
endloop
endfacet
facet normal 0 0 0
outer loop
vertex 11.538429 6.606735 3.559372
vertex 11.517954 6.606735 3.559372
vertex 11.538429 6.627489 3.559372
endloop
endfacet
facet normal 0 0 0
outer loop
vertex 11.538429 6.627489 3.559372
vertex 11.517954 6.606735 3.559372
vertex 11.517954 6.627489 3.559372
endloop
endfacet
facet normal 0 0 0
outer loop
vertex 11.538429 6.627489 3.559372
vertex 11.558905 6.606735 3.559372
vertex 11.538429 6.606735 3.559372
endloop
endfacet
facet normal 0 0 0
outer loop
vertex 11.517954 6.627489 3.559372
vertex 11.497478 6.627489 3.559372
vertex 11.517954 6.648242 3.559372
endloop
endfacet
facet normal 0 0 0
outer loop
vertex 11.517954 6.648242 3.559372
vertex 11.497478 6.627489 3.559372
vertex 11.497478 6.648242 3.559372
endloop
endfacet
facet normal 0 0 0
outer loop
vertex 11.517954 6.648242 3.559372
vertex 11.538429 6.627489 3.559372
vertex 11.517954 6.627489 3.559372
endloop
endfacet
facet normal 0 0 0
outer loop
vertex 11.538429 6.523722 3.559372
vertex 11.558905 6.523722 3.579372
vertex 11.538429 6.523722 3.579372
endloop
endfacet
facet normal 0 0 0
outer loop
vertex 11.538429 6.523722 3.579372
vertex 11.517954 6.544476 3.559372
vertex 11.538429 6.523722 3.559372
endloop
endfacet
facet normal 0 0 0
outer loop
vertex 11.517954 6.544476 3.579372
vertex 11.517954 6.544476 3.559372
vertex 11.538429 6.523722 3.579372
endloop
endfacet
facet normal 0 0 0
outer loop
vertex 11.538429 6.523722 3.559372
vertex 11.558905 6.544476 3.559372
vertex 11.558905 6.523722 3.579372
endloop
endfacet
facet normal 0 0 0
outer loop
vertex 11.558905 6.544476 3.559372
vertex 11.579380 6.544476 3.579372
vertex 11.558905 6.523722 3.579372
endloop
endfacet
facet normal 0 0 0
outer loop
vertex 11.579380 6.544476 3.579372
vertex 11.579380 6.523722 3.579372
vertex 11.558905 6.523722 3.579372
endloop
endfacet
facet normal 0 0 0
outer loop
vertex 11.517954 6.544476 3.579372
vertex 11.497478 6.565228 3.559372
vertex 11.517954 6.544476 3.559372
endloop
endfacet
facet normal 0 0 0
outer loop
vertex 11.497478 6.565228 3.579372
vertex 11.497478 6.565228 3.559372
vertex 11.517954 6.544476 3.579372
endloop
endfacet
facet normal 0 0 0
outer loop
vertex 11.558905 6.544476 3.559372
vertex 11.579380 6.565228 3.559372
vertex 11.579380 6.544476 3.579372
endloop
endfacet
facet normal 0 0 0
outer loop
vertex 11.579380 6.544476 3.579372
vertex 11.579380 6.565228 3.559372
vertex 11.579380 6.565228 3.579372
endloop
endfacet
facet normal 0 0 0
outer loop
vertex 11.497478 6.565228 3.559372
vertex 11.497478 6.565228 3.579372
vertex 11.497478 6.585982 3.559372
endloop
endfacet
facet normal 0 0 0
outer loop
vertex 11.497478 6.565228 3.579372
vertex 11.497478 6.585982 3.579372
vertex 11.497478 6.585982 3.559372
endloop
endfacet
facet normal 0 0 0
outer loop
vertex 11.579380 6.565228 3.559372
vertex 11.558905 6.585982 3.559372
vertex 11.579380 6.585982 3.579372
endloop
endfacet
facet normal 0 0 0
outer loop
vertex 11.579380 6.565228 3.559372
vertex 11.579380 6.585982 3.579372
vertex 11.579380 6.565228 3.579372
endloop
endfacet
facet normal 0 0 0
outer loop
vertex 11.497478 6.585982 3.559372
vertex 11.497478 6.585982 3.579372
vertex 11.497478 6.606735 3.559372
endloop
endfacet
facet normal 0 0 0
outer loop
vertex 11.497478 6.585982 3.579372
vertex 11.497478 6.606735 3.579372
vertex 11.497478 6.606735 3.559372
endloop
endfacet
facet normal 0 0 0
outer loop
vertex 11.579380 6.585982 3.579372
vertex 11.558905 6.606735 3.559372
vertex 11.579380 6.606735 3.579372
endloop
endfacet
facet normal 0 0 0
outer loop
vertex 11.558905 6.585982 3.559372
vertex 11.558905 6.606735 3.559372
vertex 11.579380 6.585982 3.579372
endloop
endfacet
facet normal 0 0 0
outer loop
vertex 11.477001 6.627489 3.579372
vertex 11.497478 6.627489 3.559372
vertex 11.497478 6.606735 3.579372
endloop
endfacet
facet normal 0 0 0
outer loop
vertex 11.497478 6.627489 3.559372
vertex 11.497478 6.606735 3.559372
vertex 11.497478 6.606735 3.579372
endloop
endfacet
facet normal 0 0 0
outer loop
vertex 11.558905 6.606735 3.559372
vertex 11.538429 6.627489 3.559372
vertex 11.558905 6.627489 3.579372
endloop
endfacet
facet normal 0 0 0
outer loop
vertex 11.558905 6.606735 3.559372
vertex 11.558905 6.627489 3.579372
vertex 11.579380 6.606735 3.579372
endloop
endfacet
facet normal 0 0 0
outer loop
vertex 11.558905 6.627489 3.579372
vertex 11.579380 6.627489 3.579372
vertex 11.579380 6.606735 3.579372
endloop
endfacet
facet normal 0 0 0
outer loop
vertex 11.477001 6.627489 3.579372
vertex 11.497478 6.648242 3.579372
vertex 11.497478 6.627489 3.559372
endloop
endfacet
facet normal 0 0 0
outer loop
vertex 11.497478 6.648242 3.579372
vertex 11.497478 6.648242 3.559372
vertex 11.497478 6.627489 3.559372
endloop
endfacet
facet normal 0 0 0
outer loop
vertex 11.538429 6.627489 3.559372
vertex 11.517954 6.648242 3.559372
vertex 11.538429 6.648242 3.579372
endloop
endfacet
facet normal 0 0 0
outer loop
vertex 11.538429 6.627489 3.559372
vertex 11.538429 6.648242 3.579372
vertex 11.558905 6.627489 3.579372
endloop
endfacet
facet normal 0 0 0
outer loop
vertex 11.538429 6.648242 3.579372
vertex 11.558905 6.648242 3.579372
vertex 11.558905 6.627489 3.579372
endloop
endfacet
facet normal 0 0 0
outer loop
vertex 11.558905 6.648242 3.579372
vertex 11.579380 6.627489 3.579372
vertex 11.558905 6.627489 3.579372
endloop
endfacet
facet normal 0 0 0
outer loop
vertex 11.497478 6.668995 3.579372
vertex 11.497478 6.648242 3.559372
vertex 11.497478 6.648242 3.579372
endloop
endfacet
facet normal 0 0 0
outer loop
vertex 11.497478 6.648242 3.559372
vertex 11.517954 6.668995 3.579372
vertex 11.517954 6.648242 3.559372
endloop
endfacet
facet normal 0 0 0
outer loop
vertex 11.497478 6.668995 3.579372
vertex 11.517954 6.668995 3.579372
vertex 11.497478 6.648242 3.559372
endloop
endfacet
facet normal 0 0 0
outer loop
vertex 11.517954 6.648242 3.559372
vertex 11.517954 6.668995 3.579372
vertex 11.538429 6.648242 3.579372
endloop
endfacet
facet normal 0 0 0
outer loop
vertex 11.517954 6.668995 3.579372
vertex 11.538429 6.668995 3.579372
vertex 11.538429 6.648242 3.579372
endloop
endfacet
facet normal 0 0 0
outer loop
vertex 11.538429 6.668995 3.579372
vertex 11.558905 6.648242 3.579372
vertex 11.538429 6.648242 3.579372
endloop
endfacet
facet normal 0 0 0
outer loop
vertex 11.517954 6.668995 3.579372
vertex 11.538429 6.689749 3.579372
vertex 11.538429 6.668995 3.579372
endloop
endfacet
facet normal 0 0 0
outer loop
vertex 11.517954 6.523722 3.599372
vertex 11.538429 6.523722 3.579372
vertex 11.538429 6.523722 3.599372
endloop
endfacet
facet normal 0 0 0
outer loop
vertex 11.558905 6.523722 3.579372
vertex 11.558905 6.523722 3.599372
vertex 11.538429 6.523722 3.579372
endloop
endfacet
facet normal 0 0 0
outer loop
vertex 11.538429 6.523722 3.579372
vertex 11.558905 6.523722 3.599372
vertex 11.538429 6.523722 3.599372
endloop
endfacet
facet normal 0 0 0
outer loop
vertex 11.579380 6.523722 3.579372
vertex 11.558905 6.523722 3.599372
vertex 11.558905 6.523722 3.579372
endloop
endfacet
facet normal 0 0 0
outer loop
vertex 11.517954 6.544476 3.579372
vertex 11.517954 6.523722 3.599372
vertex 11.517954 6.544476 3.599372
endloop
endfacet
facet normal 0 0 0
outer loop
vertex 11.538429 6.523722 3.579372
vertex 11.517954 6.523722 3.599372
vertex 11.517954 6.544476 3.579372
endloop
endfacet
facet normal 0 0 0
outer loop
vertex 11.579380 6.523722 3.579372
vertex 11.579380 6.544476 3.599372
vertex 11.558905 6.523722 3.599372
endloop
endfacet
facet normal 0 0 0
outer loop
vertex 11.579380 6.544476 3.599372
vertex 11.579380 6.523722 3.579372
vertex 11.579380 6.544476 3.579372
endloop
endfacet
facet normal 0 0 0
outer loop
vertex 11.517954 6.544476 3.599372
vertex 11.497478 6.565228 3.579372
vertex 11.517954 6.544476 3.579372
endloop
endfacet
facet normal 0 0 0
outer loop
vertex 11.497478 6.565228 3.599372
vertex 11.497478 6.565228 3.579372
vertex 11.517954 6.544476 3.599372
endloop
endfacet
facet normal 0 0 0
outer loop
vertex 11.579380 6.544476 3.579372
vertex 11.579380 6.565228 3.579372
vertex 11.579380 6.544476 3.599372
endloop
endfacet
facet normal 0 0 0
outer loop
vertex 11.579380 6.544476 3.599372
vertex 11.579380 6.565228 3.579372
vertex 11.579380 6.565228 3.599372
endloop
endfacet
facet normal 0 0 0
outer loop
vertex 11.497478 6.565228 3.579372
vertex 11.497478 6.565228 3.599372
vertex 11.497478 6.585982 3.579372
endloop
endfacet
facet normal 0 0 0
outer loop
vertex 11.497478 6.565228 3.599372
vertex 11.497478 6.585982 3.599372
vertex 11.497478 6.585982 3.579372
endloop
endfacet
facet normal 0 0 0
outer loop
vertex 11.579380 6.565228 3.579372
vertex 11.579380 6.585982 3.579372
vertex 11.579380 6.565228 3.599372
endloop
endfacet
facet normal 0 0 0
outer loop
vertex 11.579380 6.565228 3.599372
vertex 11.579380 6.585982 3.579372
vertex 11.579380 6.585982 3.599372
endloop
endfacet
facet normal 0 0 0
outer loop
vertex 11.497478 6.585982 3.579372
vertex 11.497478 6.585982 3.599372
vertex 11.497478 6.606735 3.579372
endloop
endfacet
facet normal 0 0 0
outer loop
vertex 11.497478 6.585982 3.599372
vertex 11.497478 6.606735 3.599372
vertex 11.497478 6.606735 3.579372
endloop
endfacet
facet normal 0 0 0
outer loop
vertex 11.579380 6.585982 3.579372
vertex 11.579380 6.606735 3.579372
vertex 11.579380 6.585982 3.599372
endloop
endfacet
facet normal 0 0 0
outer loop
vertex 11.579380 6.585982 3.599372
vertex 11.579380 6.606735 3.579372
vertex 11.579380 6.606735 3.599372
endloop
endfacet
facet normal 0 0 0
outer loop
vertex 11.477001 6.627489 3.579372
vertex 11.497478 6.606735 3.579372
vertex 11.497478 6.627489 3.599372
endloop
endfacet
facet normal 0 0 0
outer loop
vertex 11.497478 6.606735 3.579372
vertex 11.497478 6.606735 3.599372
vertex 11.497478 6.627489 3.599372
endloop
endfacet
facet normal 0 0 0
outer loop
vertex 11.579380 6.606735 3.579372
vertex 11.579380 6.627489 3.579372
vertex 11.579380 6.606735 3.599372
endloop
endfacet
facet normal 0 0 0
outer loop
vertex 11.579380 6.606735 3.599372
vertex 11.579380 6.627489 3.579372
vertex 11.579380 6.627489 3.599372
endloop
endfacet
facet normal 0 0 0
outer loop
vertex 11.477001 6.627489 3.579372
vertex 11.497478 6.627489 3.599372
vertex 11.497478 6.648242 3.579372
endloop
endfacet
facet normal 0 0 0
outer loop
vertex 11.497478 6.627489 3.599372
vertex 11.497478 6.648242 3.599372
vertex 11.497478 6.648242 3.579372
endloop
endfacet
facet normal 0 0 0
outer loop
vertex 11.579380 6.627489 3.579372
vertex 11.558905 6.648242 3.599372
vertex 11.579380 6.627489 3.599372
endloop
endfacet
facet normal 0 0 0
outer loop
vertex 11.558905 6.648242 3.579372
vertex 11.558905 6.648242 3.599372
vertex 11.579380 6.627489 3.579372
endloop
endfacet
facet normal 0 0 0
outer loop
vertex 11.497478 6.648242 3.579372
vertex 11.497478 6.648242 3.599372
vertex 11.497478 6.668995 3.579372
endloop
endfacet
facet normal 0 0 0
outer loop
vertex 11.497478 6.648242 3.599372
vertex 11.497478 6.668995 3.599372
vertex 11.497478 6.668995 3.579372
endloop
endfacet
facet normal 0 0 0
outer loop
vertex 11.558905 6.648242 3.579372
vertex 11.538429 6.668995 3.599372
vertex 11.558905 6.648242 3.599372
endloop
endfacet
facet normal 0 0 0
outer loop
vertex 11.538429 6.668995 3.579372
vertex 11.538429 6.668995 3.599372
vertex 11.558905 6.648242 3.579372
endloop
endfacet
facet normal 0 0 0
outer loop
vertex 11.517954 6.668995 3.579372
vertex 11.497478 6.668995 3.579372
vertex 11.517954 6.668995 3.599372
endloop
endfacet
facet normal 0 0 0
outer loop
vertex 11.497478 6.668995 3.579372
vertex 11.497478 6.668995 3.599372
vertex 11.517954 6.668995 3.599372
endloop
endfacet
facet normal 0 0 0
outer loop
vertex 11.538429 6.689749 3.579372
vertex 11.517954 6.668995 3.579372
vertex 11.538429 6.668995 3.599372
endloop
endfacet
facet normal 0 0 0
outer loop
vertex 11.517954 6.668995 3.579372
vertex 11.517954 6.668995 3.599372
vertex 11.538429 6.668995 3.599372
endloop
endfacet
facet normal 0 0 0
outer loop
vertex 11.538429 6.689749 3.579372
vertex 11.538429 6.668995 3.599372
vertex 11.538429 6.668995 3.579372
endloop
endfacet
facet normal 0 0 0
outer loop
vertex 11.538429 6.523722 3.599372
vertex 11.538429 6.544476 3.599372
vertex 11.517954 6.523722 3.599372
endloop
endfacet
facet normal 0 0 0
outer loop
vertex 11.538429 6.544476 3.599372
vertex 11.517954 6.544476 3.599372
vertex 11.517954 6.523722 3.599372
endloop
endfacet
facet normal 0 0 0
outer loop
vertex 11.558905 6.523722 3.599372
vertex 11.558905 6.544476 3.599372
vertex 11.538429 6.523722 3.599372
endloop
endfacet
facet normal 0 0 0
outer loop
vertex 11.558905 6.544476 3.599372
vertex 11.538429 6.544476 3.599372
vertex 11.538429 6.523722 3.599372
endloop
endfacet
facet normal 0 0 0
outer loop
vertex 11.558905 6.523722 3.599372
vertex 11.579380 6.544476 3.599372
vertex 11.558905 6.544476 3.599372
endloop
endfacet
facet normal 0 0 0
outer loop
vertex 11.497478 6.565228 3.599372
vertex 11.517954 6.544476 3.599372
vertex 11.517954 6.565228 3.599372
endloop
endfacet
facet normal 0 0 0
outer loop
vertex 11.538429 6.544476 3.599372
vertex 11.538429 6.565228 3.599372
vertex 11.517954 6.544476 3.599372
endloop
endfacet
facet normal 0 0 0
outer loop
vertex 11.538429 6.565228 3.599372
vertex 11.517954 6.565228 3.599372
vertex 11.517954 6.544476 3.599372
endloop
endfacet
facet normal 0 0 0
outer loop
vertex 11.558905 6.544476 3.599372
vertex 11.558905 6.565228 3.599372
vertex 11.538429 6.544476 3.599372
endloop
endfacet
facet normal 0 0 0
outer loop
vertex 11.558905 6.565228 3.599372
vertex 11.538429 6.565228 3.599372
vertex 11.538429 6.544476 3.599372
endloop
endfacet
facet normal 0 0 0
outer loop
vertex 11.579380 6.544476 3.599372
vertex 11.579380 6.565228 3.599372
vertex 11.558905 6.544476 3.599372
endloop
endfacet
facet normal 0 0 0
outer loop
vertex 11.579380 6.565228 3.599372
vertex 11.558905 6.565228 3.599372
vertex 11.558905 6.544476 3.599372
endloop
endfacet
facet normal 0 0 0
outer loop
vertex 11.517954 6.565228 3.599372
vertex 11.517954 6.585982 3.599372
vertex 11.497478 6.565228 3.599372
endloop
endfacet
facet normal 0 0 0
outer loop
vertex 11.517954 6.585982 3.599372
vertex 11.497478 6.585982 3.599372
vertex 11.497478 6.565228 3.599372
endloop
endfacet
facet normal 0 0 0
outer loop
vertex 11.538429 6.565228 3.599372
vertex 11.538429 6.585982 3.599372
vertex 11.517954 6.565228 3.599372
endloop
endfacet
facet normal 0 0 0
outer loop
vertex 11.538429 6.585982 3.599372
vertex 11.517954 6.585982 3.599372
vertex 11.517954 6.565228 3.599372
endloop
endfacet
facet normal 0 0 0
outer loop
vertex 11.558905 6.565228 3.599372
vertex 11.558905 6.585982 3.599372
vertex 11.538429 6.565228 3.599372
endloop
endfacet
facet normal 0 0 0
outer loop
vertex 11.558905 6.585982 3.599372
vertex 11.538429 6.585982 3.599372
vertex 11.538429 6.565228 3.599372
endloop
endfacet
facet normal 0 0 0
outer loop
vertex 11.579380 6.565228 3.599372
vertex 11.579380 6.585982 3.599372
vertex 11.558905 6.565228 3.599372
endloop
endfacet
facet normal 0 0 0
outer loop
vertex 11.579380 6.585982 3.599372
vertex 11.558905 6.585982 3.599372
vertex 11.558905 6.565228 3.599372
endloop
endfacet
facet normal 0 0 0
outer loop
vertex 11.517954 6.585982 3.599372
vertex 11.517954 6.606735 3.599372
vertex 11.497478 6.585982 3.599372
endloop
endfacet
facet normal 0 0 0
outer loop
vertex 11.517954 6.606735 3.599372
vertex 11.497478 6.606735 3.599372
vertex 11.497478 6.585982 3.599372
endloop
endfacet
facet normal 0 0 0
outer loop
vertex 11.538429 6.585982 3.599372
vertex 11.538429 6.606735 3.599372
vertex 11.517954 6.585982 3.599372
endloop
endfacet
facet normal 0 0 0
outer loop
vertex 11.538429 6.606735 3.599372
vertex 11.517954 6.606735 3.599372
vertex 11.517954 6.585982 3.599372
endloop
endfacet
facet normal 0 0 0
outer loop
vertex 11.558905 6.585982 3.599372
vertex 11.558905 6.606735 3.599372
vertex 11.538429 6.585982 3.599372
endloop
endfacet
facet normal 0 0 0
outer loop
vertex 11.558905 6.606735 3.599372
vertex 11.538429 6.606735 3.599372
vertex 11.538429 6.585982 3.599372
endloop
endfacet
facet normal 0 0 0
outer loop
vertex 11.579380 6.585982 3.599372
vertex 11.579380 6.606735 3.599372
vertex 11.558905 6.585982 3.599372
endloop
endfacet
facet normal 0 0 0
outer loop
vertex 11.579380 6.606735 3.599372
vertex 11.558905 6.606735 3.599372
vertex 11.558905 6.585982 3.599372
endloop
endfacet
facet normal 0 0 0
outer loop
vertex 11.517954 6.606735 3.599372
vertex 11.517954 6.627489 3.599372
vertex 11.497478 6.606735 3.599372
endloop
endfacet
facet normal 0 0 0
outer loop
vertex 11.517954 6.627489 3.599372
vertex 11.497478 6.627489 3.599372
vertex 11.497478 6.606735 3.599372
endloop
endfacet
facet normal 0 0 0
outer loop
vertex 11.538429 6.606735 3.599372
vertex 11.538429 6.627489 3.599372
vertex 11.517954 6.606735 3.599372
endloop
endfacet
facet normal 0 0 0
outer loop
vertex 11.538429 6.627489 3.599372
vertex 11.517954 6.627489 3.599372
vertex 11.517954 6.606735 3.599372
endloop
endfacet
facet normal 0 0 0
outer loop
vertex 11.558905 6.606735 3.599372
vertex 11.558905 6.627489 3.599372
vertex 11.538429 6.606735 3.599372
endloop
endfacet
facet normal 0 0 0
outer loop
vertex 11.558905 6.627489 3.599372
vertex 11.538429 6.627489 3.599372
vertex 11.538429 6.606735 3.599372
endloop
endfacet
facet normal 0 0 0
outer loop
vertex 11.579380 6.606735 3.599372
vertex 11.579380 6.627489 3.599372
vertex 11.558905 6.606735 3.599372
endloop
endfacet
facet normal 0 0 0
outer loop
vertex 11.579380 6.627489 3.599372
vertex 11.558905 6.627489 3.599372
vertex 11.558905 6.606735 3.599372
endloop
endfacet
facet normal 0 0 0
outer loop
vertex 11.517954 6.627489 3.599372
vertex 11.517954 6.648242 3.599372
vertex 11.497478 6.627489 3.599372
endloop
endfacet
facet normal 0 0 0
outer loop
vertex 11.517954 6.648242 3.599372
vertex 11.497478 6.648242 3.599372
vertex 11.497478 6.627489 3.599372
endloop
endfacet
facet normal 0 0 0
outer loop
vertex 11.538429 6.627489 3.599372
vertex 11.538429 6.648242 3.599372
vertex 11.517954 6.627489 3.599372
endloop
endfacet
facet normal 0 0 0
outer loop
vertex 11.538429 6.648242 3.599372
vertex 11.517954 6.648242 3.599372
vertex 11.517954 6.627489 3.599372
endloop
endfacet
facet normal 0 0 0
outer loop
vertex 11.558905 6.648242 3.619372
vertex 11.538429 6.648242 3.599372
vertex 11.558905 6.627489 3.599372
endloop
endfacet
facet normal 0 0 0
outer loop
vertex 11.538429 6.648242 3.599372
vertex 11.538429 6.627489 3.599372
vertex 11.558905 6.627489 3.599372
endloop
endfacet
facet normal 0 0 0
outer loop
vertex 11.579380 6.627489 3.599372
vertex 11.558905 6.648242 3.599372
vertex 11.558905 6.648242 3.619372
endloop
endfacet
facet normal 0 0 0
outer loop
vertex 11.579380 6.627489 3.599372
vertex 11.558905 6.648242 3.619372
vertex 11.558905 6.627489 3.599372
endloop
endfacet
facet normal 0 0 0
outer loop
vertex 11.517954 6.648242 3.599372
vertex 11.517954 6.668995 3.599372
vertex 11.497478 6.648242 3.599372
endloop
endfacet
facet normal 0 0 0
outer loop
vertex 11.517954 6.668995 3.599372
vertex 11.497478 6.668995 3.599372
vertex 11.497478 6.648242 3.599372
endloop
endfacet
facet normal 0 0 0
outer loop
vertex 11.538429 6.648242 3.599372
vertex 11.538429 6.668995 3.599372
vertex 11.517954 6.648242 3.599372
endloop
endfacet
facet normal 0 0 0
outer loop
vertex 11.538429 6.668995 3.599372
vertex 11.517954 6.668995 3.599372
vertex 11.517954 6.648242 3.599372
endloop
endfacet
facet normal 0 0 0
outer loop
vertex 11.538429 6.668995 3.599372
vertex 11.558905 6.648242 3.619372
vertex 11.558905 6.648242 3.599372
endloop
endfacet
facet normal 0 0 0
outer loop
vertex 11.538429 6.668995 3.599372
vertex 11.538429 6.648242 3.599372
vertex 11.558905 6.648242 3.619372
endloop
endfacet
endsolid B-16-Plag.031
