solid B-16-Plag.267
facet normal 0 0 0
outer loop
vertex 23.680578 14.804298 11.159371
vertex 23.701054 14.825050 11.159371
vertex 23.701054 14.804298 11.159371
endloop
endfacet
facet normal 0 0 0
outer loop
vertex 23.721529 14.825050 11.159371
vertex 23.701054 14.804298 11.159371
vertex 23.701054 14.825050 11.159371
endloop
endfacet
facet normal 0 0 0
outer loop
vertex 23.701054 14.825050 11.159371
vertex 23.721529 14.845804 11.159371
vertex 23.721529 14.825050 11.159371
endloop
endfacet
facet normal 0 0 0
outer loop
vertex 23.742006 14.845804 11.159371
vertex 23.721529 14.825050 11.159371
vertex 23.721529 14.845804 11.159371
endloop
endfacet
facet normal 0 0 0
outer loop
vertex 23.721529 14.845804 11.159371
vertex 23.742006 14.866558 11.159371
vertex 23.742006 14.845804 11.159371
endloop
endfacet
facet normal 0 0 0
outer loop
vertex 23.762482 14.845804 11.159371
vertex 23.742006 14.845804 11.159371
vertex 23.762482 14.866558 11.159371
endloop
endfacet
facet normal 0 0 0
outer loop
vertex 23.762482 14.866558 11.159371
vertex 23.742006 14.845804 11.159371
vertex 23.742006 14.866558 11.159371
endloop
endfacet
facet normal 0 0 0
outer loop
vertex 23.782957 14.866558 11.159371
vertex 23.762482 14.845804 11.159371
vertex 23.762482 14.866558 11.159371
endloop
endfacet
facet normal 0 0 0
outer loop
vertex 23.742006 14.866558 11.159371
vertex 23.762482 14.887310 11.159371
vertex 23.762482 14.866558 11.159371
endloop
endfacet
facet normal 0 0 0
outer loop
vertex 23.782957 14.866558 11.159371
vertex 23.762482 14.866558 11.159371
vertex 23.782957 14.887310 11.159371
endloop
endfacet
facet normal 0 0 0
outer loop
vertex 23.782957 14.887310 11.159371
vertex 23.762482 14.866558 11.159371
vertex 23.762482 14.887310 11.159371
endloop
endfacet
facet normal 0 0 0
outer loop
vertex 23.803432 14.887310 11.159371
vertex 23.782957 14.866558 11.159371
vertex 23.782957 14.887310 11.159371
endloop
endfacet
facet normal 0 0 0
outer loop
vertex 23.782957 14.887310 11.159371
vertex 23.803432 14.908064 11.159371
vertex 23.803432 14.887310 11.159371
endloop
endfacet
facet normal 0 0 0
outer loop
vertex 23.701054 14.804298 11.159371
vertex 23.701054 14.804298 11.179372
vertex 23.680578 14.804298 11.159371
endloop
endfacet
facet normal 0 0 0
outer loop
vertex 23.680578 14.804298 11.159371
vertex 23.701054 14.804298 11.179372
vertex 23.680578 14.804298 11.179372
endloop
endfacet
facet normal 0 0 0
outer loop
vertex 23.680578 14.804298 11.179372
vertex 23.701054 14.825050 11.159371
vertex 23.680578 14.804298 11.159371
endloop
endfacet
facet normal 0 0 0
outer loop
vertex 23.701054 14.825050 11.179372
vertex 23.701054 14.825050 11.159371
vertex 23.680578 14.804298 11.179372
endloop
endfacet
facet normal 0 0 0
outer loop
vertex 23.701054 14.804298 11.159371
vertex 23.721529 14.825050 11.179372
vertex 23.701054 14.804298 11.179372
endloop
endfacet
facet normal 0 0 0
outer loop
vertex 23.721529 14.825050 11.159371
vertex 23.721529 14.825050 11.179372
vertex 23.701054 14.804298 11.159371
endloop
endfacet
facet normal 0 0 0
outer loop
vertex 23.721529 14.825050 11.159371
vertex 23.742006 14.825050 11.179372
vertex 23.721529 14.825050 11.179372
endloop
endfacet
facet normal 0 0 0
outer loop
vertex 23.701054 14.845804 11.179372
vertex 23.701054 14.825050 11.159371
vertex 23.701054 14.825050 11.179372
endloop
endfacet
facet normal 0 0 0
outer loop
vertex 23.701054 14.825050 11.159371
vertex 23.701054 14.845804 11.179372
vertex 23.721529 14.845804 11.159371
endloop
endfacet
facet normal 0 0 0
outer loop
vertex 23.721529 14.825050 11.159371
vertex 23.742006 14.845804 11.159371
vertex 23.742006 14.825050 11.179372
endloop
endfacet
facet normal 0 0 0
outer loop
vertex 23.742006 14.825050 11.179372
vertex 23.742006 14.845804 11.159371
vertex 23.762482 14.845804 11.179372
endloop
endfacet
facet normal 0 0 0
outer loop
vertex 23.742006 14.845804 11.159371
vertex 23.762482 14.845804 11.159371
vertex 23.762482 14.845804 11.179372
endloop
endfacet
facet normal 0 0 0
outer loop
vertex 23.721529 14.845804 11.159371
vertex 23.701054 14.845804 11.179372
vertex 23.721529 14.845804 11.179372
endloop
endfacet
facet normal 0 0 0
outer loop
vertex 23.721529 14.845804 11.179372
vertex 23.742006 14.866558 11.159371
vertex 23.721529 14.845804 11.159371
endloop
endfacet
facet normal 0 0 0
outer loop
vertex 23.742006 14.866558 11.179372
vertex 23.742006 14.866558 11.159371
vertex 23.721529 14.845804 11.179372
endloop
endfacet
facet normal 0 0 0
outer loop
vertex 23.762482 14.845804 11.159371
vertex 23.782957 14.866558 11.179372
vertex 23.762482 14.845804 11.179372
endloop
endfacet
facet normal 0 0 0
outer loop
vertex 23.782957 14.866558 11.159371
vertex 23.782957 14.866558 11.179372
vertex 23.762482 14.845804 11.159371
endloop
endfacet
facet normal 0 0 0
outer loop
vertex 23.782957 14.866558 11.159371
vertex 23.803432 14.866558 11.179372
vertex 23.782957 14.866558 11.179372
endloop
endfacet
facet normal 0 0 0
outer loop
vertex 23.742006 14.866558 11.179372
vertex 23.762482 14.887310 11.159371
vertex 23.742006 14.866558 11.159371
endloop
endfacet
facet normal 0 0 0
outer loop
vertex 23.762482 14.887310 11.179372
vertex 23.762482 14.887310 11.159371
vertex 23.742006 14.866558 11.179372
endloop
endfacet
facet normal 0 0 0
outer loop
vertex 23.782957 14.866558 11.159371
vertex 23.803432 14.887310 11.159371
vertex 23.803432 14.866558 11.179372
endloop
endfacet
facet normal 0 0 0
outer loop
vertex 23.803432 14.866558 11.179372
vertex 23.803432 14.887310 11.159371
vertex 23.803432 14.887310 11.179372
endloop
endfacet
facet normal 0 0 0
outer loop
vertex 23.782957 14.908064 11.179372
vertex 23.782957 14.887310 11.159371
vertex 23.762482 14.887310 11.179372
endloop
endfacet
facet normal 0 0 0
outer loop
vertex 23.782957 14.887310 11.159371
vertex 23.762482 14.887310 11.159371
vertex 23.762482 14.887310 11.179372
endloop
endfacet
facet normal 0 0 0
outer loop
vertex 23.782957 14.887310 11.159371
vertex 23.782957 14.908064 11.179372
vertex 23.803432 14.908064 11.159371
endloop
endfacet
facet normal 0 0 0
outer loop
vertex 23.823910 14.908064 11.179372
vertex 23.803432 14.887310 11.179372
vertex 23.803432 14.908064 11.159371
endloop
endfacet
facet normal 0 0 0
outer loop
vertex 23.803432 14.887310 11.179372
vertex 23.803432 14.887310 11.159371
vertex 23.803432 14.908064 11.159371
endloop
endfacet
facet normal 0 0 0
outer loop
vertex 23.803432 14.908064 11.159371
vertex 23.782957 14.908064 11.179372
vertex 23.803432 14.908064 11.179372
endloop
endfacet
facet normal 0 0 0
outer loop
vertex 23.803432 14.908064 11.159371
vertex 23.803432 14.908064 11.179372
vertex 23.823910 14.928818 11.179372
endloop
endfacet
facet normal 0 0 0
outer loop
vertex 23.803432 14.908064 11.159371
vertex 23.823910 14.928818 11.179372
vertex 23.823910 14.908064 11.179372
endloop
endfacet
facet normal 0 0 0
outer loop
vertex 23.844385 14.908064 11.179372
vertex 23.823910 14.908064 11.179372
vertex 23.844385 14.928818 11.179372
endloop
endfacet
facet normal 0 0 0
outer loop
vertex 23.844385 14.928818 11.179372
vertex 23.823910 14.908064 11.179372
vertex 23.823910 14.928818 11.179372
endloop
endfacet
facet normal 0 0 0
outer loop
vertex 23.823910 14.928818 11.179372
vertex 23.844385 14.949572 11.179372
vertex 23.844385 14.928818 11.179372
endloop
endfacet
facet normal 0 0 0
outer loop
vertex 23.701054 14.825050 11.179372
vertex 23.680578 14.804298 11.179372
vertex 23.701054 14.804298 11.179372
endloop
endfacet
facet normal 0 0 0
outer loop
vertex 23.701054 14.804298 11.179372
vertex 23.721529 14.825050 11.179372
vertex 23.701054 14.825050 11.179372
endloop
endfacet
facet normal 0 0 0
outer loop
vertex 23.721529 14.825050 11.179372
vertex 23.721529 14.845804 11.179372
vertex 23.701054 14.825050 11.179372
endloop
endfacet
facet normal 0 0 0
outer loop
vertex 23.721529 14.845804 11.179372
vertex 23.701054 14.845804 11.179372
vertex 23.701054 14.825050 11.179372
endloop
endfacet
facet normal 0 0 0
outer loop
vertex 23.742006 14.825050 11.179372
vertex 23.742006 14.845804 11.179372
vertex 23.721529 14.825050 11.179372
endloop
endfacet
facet normal 0 0 0
outer loop
vertex 23.742006 14.845804 11.179372
vertex 23.721529 14.845804 11.179372
vertex 23.721529 14.825050 11.179372
endloop
endfacet
facet normal 0 0 0
outer loop
vertex 23.742006 14.825050 11.179372
vertex 23.762482 14.845804 11.179372
vertex 23.742006 14.845804 11.179372
endloop
endfacet
facet normal 0 0 0
outer loop
vertex 23.742006 14.866558 11.179372
vertex 23.721529 14.845804 11.179372
vertex 23.742006 14.845804 11.179372
endloop
endfacet
facet normal 0 0 0
outer loop
vertex 23.762482 14.845804 11.179372
vertex 23.762482 14.866558 11.179372
vertex 23.742006 14.845804 11.179372
endloop
endfacet
facet normal 0 0 0
outer loop
vertex 23.762482 14.866558 11.179372
vertex 23.742006 14.866558 11.179372
vertex 23.742006 14.845804 11.179372
endloop
endfacet
facet normal 0 0 0
outer loop
vertex 23.762482 14.845804 11.179372
vertex 23.782957 14.866558 11.199371
vertex 23.762482 14.866558 11.179372
endloop
endfacet
facet normal 0 0 0
outer loop
vertex 23.762482 14.845804 11.179372
vertex 23.782957 14.866558 11.179372
vertex 23.782957 14.866558 11.199371
endloop
endfacet
facet normal 0 0 0
outer loop
vertex 23.803432 14.866558 11.179372
vertex 23.803432 14.866558 11.199371
vertex 23.782957 14.866558 11.179372
endloop
endfacet
facet normal 0 0 0
outer loop
vertex 23.782957 14.866558 11.179372
vertex 23.803432 14.866558 11.199371
vertex 23.782957 14.866558 11.199371
endloop
endfacet
facet normal 0 0 0
outer loop
vertex 23.803432 14.866558 11.179372
vertex 23.823910 14.866558 11.199371
vertex 23.803432 14.866558 11.199371
endloop
endfacet
facet normal 0 0 0
outer loop
vertex 23.762482 14.887310 11.179372
vertex 23.742006 14.866558 11.179372
vertex 23.762482 14.866558 11.179372
endloop
endfacet
facet normal 0 0 0
outer loop
vertex 23.782957 14.887310 11.199371
vertex 23.762482 14.866558 11.179372
vertex 23.782957 14.866558 11.199371
endloop
endfacet
facet normal 0 0 0
outer loop
vertex 23.762482 14.887310 11.179372
vertex 23.762482 14.866558 11.179372
vertex 23.782957 14.887310 11.199371
endloop
endfacet
facet normal 0 0 0
outer loop
vertex 23.823910 14.866558 11.199371
vertex 23.803432 14.887310 11.179372
vertex 23.823910 14.887310 11.199371
endloop
endfacet
facet normal 0 0 0
outer loop
vertex 23.803432 14.866558 11.179372
vertex 23.803432 14.887310 11.179372
vertex 23.823910 14.866558 11.199371
endloop
endfacet
facet normal 0 0 0
outer loop
vertex 23.762482 14.887310 11.179372
vertex 23.782957 14.887310 11.199371
vertex 23.782957 14.908064 11.179372
endloop
endfacet
facet normal 0 0 0
outer loop
vertex 23.782957 14.887310 11.199371
vertex 23.803432 14.908064 11.199371
vertex 23.782957 14.908064 11.179372
endloop
endfacet
facet normal 0 0 0
outer loop
vertex 23.803432 14.887310 11.179372
vertex 23.823910 14.908064 11.179372
vertex 23.823910 14.887310 11.199371
endloop
endfacet
facet normal 0 0 0
outer loop
vertex 23.823910 14.887310 11.199371
vertex 23.823910 14.908064 11.179372
vertex 23.844385 14.908064 11.199371
endloop
endfacet
facet normal 0 0 0
outer loop
vertex 23.823910 14.908064 11.179372
vertex 23.844385 14.908064 11.179372
vertex 23.844385 14.908064 11.199371
endloop
endfacet
facet normal 0 0 0
outer loop
vertex 23.782957 14.908064 11.179372
vertex 23.803432 14.908064 11.199371
vertex 23.803432 14.908064 11.179372
endloop
endfacet
facet normal 0 0 0
outer loop
vertex 23.803432 14.908064 11.199371
vertex 23.823910 14.928818 11.179372
vertex 23.803432 14.908064 11.179372
endloop
endfacet
facet normal 0 0 0
outer loop
vertex 23.823910 14.928818 11.199371
vertex 23.823910 14.928818 11.179372
vertex 23.803432 14.908064 11.199371
endloop
endfacet
facet normal 0 0 0
outer loop
vertex 23.864861 14.928818 11.199371
vertex 23.844385 14.908064 11.199371
vertex 23.844385 14.928818 11.179372
endloop
endfacet
facet normal 0 0 0
outer loop
vertex 23.844385 14.908064 11.199371
vertex 23.844385 14.908064 11.179372
vertex 23.844385 14.928818 11.179372
endloop
endfacet
facet normal 0 0 0
outer loop
vertex 23.844385 14.949572 11.179372
vertex 23.823910 14.928818 11.179372
vertex 23.844385 14.928818 11.199371
endloop
endfacet
facet normal 0 0 0
outer loop
vertex 23.823910 14.928818 11.179372
vertex 23.823910 14.928818 11.199371
vertex 23.844385 14.928818 11.199371
endloop
endfacet
facet normal 0 0 0
outer loop
vertex 23.844385 14.949572 11.179372
vertex 23.844385 14.928818 11.199371
vertex 23.844385 14.928818 11.179372
endloop
endfacet
facet normal 0 0 0
outer loop
vertex 23.844385 14.928818 11.179372
vertex 23.844385 14.928818 11.199371
vertex 23.864861 14.928818 11.199371
endloop
endfacet
facet normal 0 0 0
outer loop
vertex 23.864861 14.928818 11.199371
vertex 23.844385 14.928818 11.199371
vertex 23.864861 14.949572 11.199371
endloop
endfacet
facet normal 0 0 0
outer loop
vertex 23.803432 14.866558 11.199371
vertex 23.803432 14.887310 11.199371
vertex 23.782957 14.866558 11.199371
endloop
endfacet
facet normal 0 0 0
outer loop
vertex 23.803432 14.887310 11.199371
vertex 23.782957 14.887310 11.199371
vertex 23.782957 14.866558 11.199371
endloop
endfacet
facet normal 0 0 0
outer loop
vertex 23.823910 14.866558 11.199371
vertex 23.823910 14.887310 11.199371
vertex 23.803432 14.866558 11.199371
endloop
endfacet
facet normal 0 0 0
outer loop
vertex 23.823910 14.887310 11.199371
vertex 23.803432 14.887310 11.199371
vertex 23.803432 14.866558 11.199371
endloop
endfacet
facet normal 0 0 0
outer loop
vertex 23.803432 14.908064 11.199371
vertex 23.782957 14.887310 11.199371
vertex 23.803432 14.887310 11.199371
endloop
endfacet
facet normal 0 0 0
outer loop
vertex 23.823910 14.887310 11.199371
vertex 23.823910 14.908064 11.199371
vertex 23.803432 14.887310 11.199371
endloop
endfacet
facet normal 0 0 0
outer loop
vertex 23.823910 14.908064 11.199371
vertex 23.803432 14.908064 11.199371
vertex 23.803432 14.887310 11.199371
endloop
endfacet
facet normal 0 0 0
outer loop
vertex 23.823910 14.887310 11.199371
vertex 23.844385 14.908064 11.199371
vertex 23.823910 14.908064 11.199371
endloop
endfacet
facet normal 0 0 0
outer loop
vertex 23.823910 14.928818 11.199371
vertex 23.803432 14.908064 11.199371
vertex 23.823910 14.908064 11.199371
endloop
endfacet
facet normal 0 0 0
outer loop
vertex 23.844385 14.908064 11.199371
vertex 23.844385 14.928818 11.199371
vertex 23.823910 14.908064 11.199371
endloop
endfacet
facet normal 0 0 0
outer loop
vertex 23.844385 14.928818 11.199371
vertex 23.823910 14.928818 11.199371
vertex 23.823910 14.908064 11.199371
endloop
endfacet
facet normal 0 0 0
outer loop
vertex 23.844385 14.908064 11.199371
vertex 23.864861 14.928818 11.199371
vertex 23.844385 14.928818 11.199371
endloop
endfacet
endsolid B-16-Plag.267
