solid B-16-Plag.075
facet normal 0 0 0
outer loop
vertex 4.453803 8.495288 5.319372
vertex 4.433327 8.474534 5.319372
vertex 4.433327 8.495288 5.319372
endloop
endfacet
facet normal 0 0 0
outer loop
vertex 4.474278 8.474534 5.319372
vertex 4.453803 8.495288 5.319372
vertex 4.474278 8.495288 5.319372
endloop
endfacet
facet normal 0 0 0
outer loop
vertex 4.453803 8.495288 5.319372
vertex 4.433327 8.495288 5.319372
vertex 4.453803 8.516041 5.319372
endloop
endfacet
facet normal 0 0 0
outer loop
vertex 4.453803 8.516041 5.319372
vertex 4.433327 8.495288 5.319372
vertex 4.433327 8.516041 5.319372
endloop
endfacet
facet normal 0 0 0
outer loop
vertex 4.474278 8.495288 5.319372
vertex 4.453803 8.495288 5.319372
vertex 4.474278 8.516041 5.319372
endloop
endfacet
facet normal 0 0 0
outer loop
vertex 4.474278 8.516041 5.319372
vertex 4.453803 8.495288 5.319372
vertex 4.453803 8.516041 5.319372
endloop
endfacet
facet normal 0 0 0
outer loop
vertex 4.453803 8.516041 5.319372
vertex 4.433327 8.516041 5.319372
vertex 4.453803 8.536795 5.319372
endloop
endfacet
facet normal 0 0 0
outer loop
vertex 4.453803 8.536795 5.319372
vertex 4.433327 8.516041 5.319372
vertex 4.433327 8.536795 5.319372
endloop
endfacet
facet normal 0 0 0
outer loop
vertex 4.474278 8.516041 5.319372
vertex 4.453803 8.516041 5.319372
vertex 4.474278 8.536795 5.319372
endloop
endfacet
facet normal 0 0 0
outer loop
vertex 4.474278 8.536795 5.319372
vertex 4.453803 8.516041 5.319372
vertex 4.453803 8.536795 5.319372
endloop
endfacet
facet normal 0 0 0
outer loop
vertex 4.453803 8.536795 5.319372
vertex 4.433327 8.536795 5.319372
vertex 4.453803 8.557548 5.319372
endloop
endfacet
facet normal 0 0 0
outer loop
vertex 4.453803 8.557548 5.319372
vertex 4.433327 8.536795 5.319372
vertex 4.433327 8.557548 5.319372
endloop
endfacet
facet normal 0 0 0
outer loop
vertex 4.453803 8.557548 5.319372
vertex 4.474278 8.536795 5.319372
vertex 4.453803 8.536795 5.319372
endloop
endfacet
facet normal 0 0 0
outer loop
vertex 4.433327 8.474534 5.319372
vertex 4.453803 8.474534 5.339372
vertex 4.453803 8.453781 5.339372
endloop
endfacet
facet normal 0 0 0
outer loop
vertex 4.433327 8.474534 5.319372
vertex 4.453803 8.453781 5.339372
vertex 4.433327 8.474534 5.339372
endloop
endfacet
facet normal 0 0 0
outer loop
vertex 4.412851 8.495288 5.339372
vertex 4.433327 8.495288 5.319372
vertex 4.433327 8.474534 5.339372
endloop
endfacet
facet normal 0 0 0
outer loop
vertex 4.433327 8.495288 5.319372
vertex 4.433327 8.474534 5.319372
vertex 4.433327 8.474534 5.339372
endloop
endfacet
facet normal 0 0 0
outer loop
vertex 4.433327 8.474534 5.319372
vertex 4.453803 8.495288 5.319372
vertex 4.453803 8.474534 5.339372
endloop
endfacet
facet normal 0 0 0
outer loop
vertex 4.453803 8.474534 5.339372
vertex 4.453803 8.495288 5.319372
vertex 4.474278 8.495288 5.339372
endloop
endfacet
facet normal 0 0 0
outer loop
vertex 4.474278 8.474534 5.319372
vertex 4.474278 8.495288 5.339372
vertex 4.453803 8.495288 5.319372
endloop
endfacet
facet normal 0 0 0
outer loop
vertex 4.474278 8.495288 5.339372
vertex 4.474278 8.474534 5.319372
vertex 4.474278 8.495288 5.319372
endloop
endfacet
facet normal 0 0 0
outer loop
vertex 4.433327 8.495288 5.319372
vertex 4.412851 8.516041 5.339372
vertex 4.433327 8.516041 5.319372
endloop
endfacet
facet normal 0 0 0
outer loop
vertex 4.412851 8.495288 5.339372
vertex 4.412851 8.516041 5.339372
vertex 4.433327 8.495288 5.319372
endloop
endfacet
facet normal 0 0 0
outer loop
vertex 4.474278 8.495288 5.319372
vertex 4.474278 8.516041 5.319372
vertex 4.474278 8.495288 5.339372
endloop
endfacet
facet normal 0 0 0
outer loop
vertex 4.474278 8.495288 5.339372
vertex 4.474278 8.516041 5.319372
vertex 4.474278 8.516041 5.339372
endloop
endfacet
facet normal 0 0 0
outer loop
vertex 4.433327 8.516041 5.319372
vertex 4.412851 8.536795 5.339372
vertex 4.433327 8.536795 5.319372
endloop
endfacet
facet normal 0 0 0
outer loop
vertex 4.412851 8.516041 5.339372
vertex 4.412851 8.536795 5.339372
vertex 4.433327 8.516041 5.319372
endloop
endfacet
facet normal 0 0 0
outer loop
vertex 4.474278 8.516041 5.319372
vertex 4.474278 8.536795 5.319372
vertex 4.474278 8.516041 5.339372
endloop
endfacet
facet normal 0 0 0
outer loop
vertex 4.474278 8.516041 5.339372
vertex 4.474278 8.536795 5.319372
vertex 4.474278 8.536795 5.339372
endloop
endfacet
facet normal 0 0 0
outer loop
vertex 4.433327 8.536795 5.319372
vertex 4.412851 8.557548 5.339372
vertex 4.433327 8.557548 5.319372
endloop
endfacet
facet normal 0 0 0
outer loop
vertex 4.412851 8.536795 5.339372
vertex 4.412851 8.557548 5.339372
vertex 4.433327 8.536795 5.319372
endloop
endfacet
facet normal 0 0 0
outer loop
vertex 4.474278 8.536795 5.319372
vertex 4.453803 8.557548 5.339372
vertex 4.474278 8.536795 5.339372
endloop
endfacet
facet normal 0 0 0
outer loop
vertex 4.453803 8.557548 5.319372
vertex 4.453803 8.557548 5.339372
vertex 4.474278 8.536795 5.319372
endloop
endfacet
facet normal 0 0 0
outer loop
vertex 4.433327 8.557548 5.319372
vertex 4.412851 8.557548 5.339372
vertex 4.433327 8.578300 5.339372
endloop
endfacet
facet normal 0 0 0
outer loop
vertex 4.412851 8.557548 5.339372
vertex 4.412851 8.578300 5.339372
vertex 4.433327 8.578300 5.339372
endloop
endfacet
facet normal 0 0 0
outer loop
vertex 4.433327 8.557548 5.319372
vertex 4.453803 8.578300 5.339372
vertex 4.453803 8.557548 5.319372
endloop
endfacet
facet normal 0 0 0
outer loop
vertex 4.433327 8.578300 5.339372
vertex 4.453803 8.578300 5.339372
vertex 4.433327 8.557548 5.319372
endloop
endfacet
facet normal 0 0 0
outer loop
vertex 4.453803 8.557548 5.319372
vertex 4.453803 8.578300 5.339372
vertex 4.453803 8.557548 5.339372
endloop
endfacet
facet normal 0 0 0
outer loop
vertex 4.433327 8.578300 5.339372
vertex 4.412851 8.578300 5.339372
vertex 4.433327 8.599054 5.339372
endloop
endfacet
facet normal 0 0 0
outer loop
vertex 4.433327 8.599054 5.339372
vertex 4.412851 8.578300 5.339372
vertex 4.412851 8.599054 5.339372
endloop
endfacet
facet normal 0 0 0
outer loop
vertex 4.453803 8.578300 5.339372
vertex 4.433327 8.578300 5.339372
vertex 4.453803 8.599054 5.339372
endloop
endfacet
facet normal 0 0 0
outer loop
vertex 4.453803 8.599054 5.339372
vertex 4.433327 8.578300 5.339372
vertex 4.433327 8.599054 5.339372
endloop
endfacet
facet normal 0 0 0
outer loop
vertex 4.433327 8.599054 5.339372
vertex 4.412851 8.599054 5.339372
vertex 4.433327 8.619807 5.339372
endloop
endfacet
facet normal 0 0 0
outer loop
vertex 4.433327 8.619807 5.339372
vertex 4.412851 8.599054 5.339372
vertex 4.412851 8.619807 5.339372
endloop
endfacet
facet normal 0 0 0
outer loop
vertex 4.453803 8.599054 5.339372
vertex 4.433327 8.599054 5.339372
vertex 4.453803 8.619807 5.339372
endloop
endfacet
facet normal 0 0 0
outer loop
vertex 4.453803 8.619807 5.339372
vertex 4.433327 8.599054 5.339372
vertex 4.433327 8.619807 5.339372
endloop
endfacet
facet normal 0 0 0
outer loop
vertex 4.412851 8.619807 5.339372
vertex 4.433327 8.640561 5.339372
vertex 4.433327 8.619807 5.339372
endloop
endfacet
facet normal 0 0 0
outer loop
vertex 4.433327 8.640561 5.339372
vertex 4.453803 8.619807 5.339372
vertex 4.433327 8.619807 5.339372
endloop
endfacet
facet normal 0 0 0
outer loop
vertex 4.453803 8.453781 5.339372
vertex 4.453803 8.474534 5.359372
vertex 4.433327 8.474534 5.339372
endloop
endfacet
facet normal 0 0 0
outer loop
vertex 4.453803 8.474534 5.359372
vertex 4.453803 8.453781 5.339372
vertex 4.453803 8.474534 5.339372
endloop
endfacet
facet normal 0 0 0
outer loop
vertex 4.433327 8.474534 5.339372
vertex 4.433327 8.495288 5.359372
vertex 4.412851 8.495288 5.339372
endloop
endfacet
facet normal 0 0 0
outer loop
vertex 4.453803 8.474534 5.359372
vertex 4.433327 8.495288 5.359372
vertex 4.433327 8.474534 5.339372
endloop
endfacet
facet normal 0 0 0
outer loop
vertex 4.453803 8.474534 5.339372
vertex 4.474278 8.495288 5.359372
vertex 4.453803 8.474534 5.359372
endloop
endfacet
facet normal 0 0 0
outer loop
vertex 4.474278 8.495288 5.339372
vertex 4.474278 8.495288 5.359372
vertex 4.453803 8.474534 5.339372
endloop
endfacet
facet normal 0 0 0
outer loop
vertex 4.412851 8.495288 5.339372
vertex 4.412851 8.516041 5.359372
vertex 4.412851 8.516041 5.339372
endloop
endfacet
facet normal 0 0 0
outer loop
vertex 4.433327 8.495288 5.359372
vertex 4.412851 8.516041 5.359372
vertex 4.412851 8.495288 5.339372
endloop
endfacet
facet normal 0 0 0
outer loop
vertex 4.474278 8.495288 5.339372
vertex 4.474278 8.516041 5.339372
vertex 4.474278 8.495288 5.359372
endloop
endfacet
facet normal 0 0 0
outer loop
vertex 4.474278 8.495288 5.359372
vertex 4.474278 8.516041 5.339372
vertex 4.474278 8.516041 5.359372
endloop
endfacet
facet normal 0 0 0
outer loop
vertex 4.412851 8.516041 5.339372
vertex 4.412851 8.516041 5.359372
vertex 4.412851 8.536795 5.339372
endloop
endfacet
facet normal 0 0 0
outer loop
vertex 4.412851 8.516041 5.359372
vertex 4.412851 8.536795 5.359372
vertex 4.412851 8.536795 5.339372
endloop
endfacet
facet normal 0 0 0
outer loop
vertex 4.474278 8.516041 5.339372
vertex 4.474278 8.536795 5.339372
vertex 4.474278 8.516041 5.359372
endloop
endfacet
facet normal 0 0 0
outer loop
vertex 4.474278 8.516041 5.359372
vertex 4.474278 8.536795 5.339372
vertex 4.474278 8.536795 5.359372
endloop
endfacet
facet normal 0 0 0
outer loop
vertex 4.412851 8.536795 5.339372
vertex 4.412851 8.536795 5.359372
vertex 4.412851 8.557548 5.339372
endloop
endfacet
facet normal 0 0 0
outer loop
vertex 4.412851 8.536795 5.359372
vertex 4.412851 8.557548 5.359372
vertex 4.412851 8.557548 5.339372
endloop
endfacet
facet normal 0 0 0
outer loop
vertex 4.474278 8.536795 5.339372
vertex 4.453803 8.557548 5.339372
vertex 4.474278 8.557548 5.359372
endloop
endfacet
facet normal 0 0 0
outer loop
vertex 4.474278 8.536795 5.339372
vertex 4.474278 8.557548 5.359372
vertex 4.474278 8.536795 5.359372
endloop
endfacet
facet normal 0 0 0
outer loop
vertex 4.412851 8.557548 5.339372
vertex 4.412851 8.557548 5.359372
vertex 4.412851 8.578300 5.339372
endloop
endfacet
facet normal 0 0 0
outer loop
vertex 4.412851 8.557548 5.359372
vertex 4.412851 8.578300 5.359372
vertex 4.412851 8.578300 5.339372
endloop
endfacet
facet normal 0 0 0
outer loop
vertex 4.474278 8.557548 5.359372
vertex 4.453803 8.578300 5.339372
vertex 4.474278 8.578300 5.359372
endloop
endfacet
facet normal 0 0 0
outer loop
vertex 4.453803 8.557548 5.339372
vertex 4.453803 8.578300 5.339372
vertex 4.474278 8.557548 5.359372
endloop
endfacet
facet normal 0 0 0
outer loop
vertex 4.412851 8.578300 5.339372
vertex 4.412851 8.578300 5.359372
vertex 4.412851 8.599054 5.339372
endloop
endfacet
facet normal 0 0 0
outer loop
vertex 4.412851 8.578300 5.359372
vertex 4.412851 8.599054 5.359372
vertex 4.412851 8.599054 5.339372
endloop
endfacet
facet normal 0 0 0
outer loop
vertex 4.474278 8.578300 5.359372
vertex 4.453803 8.599054 5.339372
vertex 4.474278 8.599054 5.359372
endloop
endfacet
facet normal 0 0 0
outer loop
vertex 4.453803 8.578300 5.339372
vertex 4.453803 8.599054 5.339372
vertex 4.474278 8.578300 5.359372
endloop
endfacet
facet normal 0 0 0
outer loop
vertex 4.412851 8.599054 5.339372
vertex 4.412851 8.599054 5.359372
vertex 4.412851 8.619807 5.339372
endloop
endfacet
facet normal 0 0 0
outer loop
vertex 4.412851 8.599054 5.359372
vertex 4.412851 8.619807 5.359372
vertex 4.412851 8.619807 5.339372
endloop
endfacet
facet normal 0 0 0
outer loop
vertex 4.474278 8.599054 5.359372
vertex 4.453803 8.619807 5.339372
vertex 4.474278 8.619807 5.359372
endloop
endfacet
facet normal 0 0 0
outer loop
vertex 4.453803 8.599054 5.339372
vertex 4.453803 8.619807 5.339372
vertex 4.474278 8.599054 5.359372
endloop
endfacet
facet normal 0 0 0
outer loop
vertex 4.412851 8.640561 5.359372
vertex 4.412851 8.619807 5.339372
vertex 4.412851 8.619807 5.359372
endloop
endfacet
facet normal 0 0 0
outer loop
vertex 4.412851 8.619807 5.339372
vertex 4.412851 8.640561 5.359372
vertex 4.433327 8.640561 5.339372
endloop
endfacet
facet normal 0 0 0
outer loop
vertex 4.453803 8.619807 5.339372
vertex 4.433327 8.640561 5.339372
vertex 4.453803 8.640561 5.359372
endloop
endfacet
facet normal 0 0 0
outer loop
vertex 4.453803 8.619807 5.339372
vertex 4.453803 8.640561 5.359372
vertex 4.474278 8.619807 5.359372
endloop
endfacet
facet normal 0 0 0
outer loop
vertex 4.453803 8.640561 5.359372
vertex 4.474278 8.640561 5.359372
vertex 4.474278 8.619807 5.359372
endloop
endfacet
facet normal 0 0 0
outer loop
vertex 4.433327 8.640561 5.339372
vertex 4.412851 8.661314 5.359372
vertex 4.433327 8.661314 5.339372
endloop
endfacet
facet normal 0 0 0
outer loop
vertex 4.412851 8.640561 5.359372
vertex 4.412851 8.661314 5.359372
vertex 4.433327 8.640561 5.339372
endloop
endfacet
facet normal 0 0 0
outer loop
vertex 4.453803 8.640561 5.359372
vertex 4.433327 8.661314 5.339372
vertex 4.453803 8.661314 5.359372
endloop
endfacet
facet normal 0 0 0
outer loop
vertex 4.433327 8.640561 5.339372
vertex 4.433327 8.661314 5.339372
vertex 4.453803 8.640561 5.359372
endloop
endfacet
facet normal 0 0 0
outer loop
vertex 4.474278 8.640561 5.359372
vertex 4.453803 8.640561 5.359372
vertex 4.474278 8.661314 5.359372
endloop
endfacet
facet normal 0 0 0
outer loop
vertex 4.474278 8.661314 5.359372
vertex 4.453803 8.640561 5.359372
vertex 4.453803 8.661314 5.359372
endloop
endfacet
facet normal 0 0 0
outer loop
vertex 4.433327 8.661314 5.339372
vertex 4.412851 8.682068 5.359372
vertex 4.433327 8.682068 5.339372
endloop
endfacet
facet normal 0 0 0
outer loop
vertex 4.412851 8.661314 5.359372
vertex 4.412851 8.682068 5.359372
vertex 4.433327 8.661314 5.339372
endloop
endfacet
facet normal 0 0 0
outer loop
vertex 4.453803 8.661314 5.359372
vertex 4.433327 8.682068 5.339372
vertex 4.453803 8.682068 5.359372
endloop
endfacet
facet normal 0 0 0
outer loop
vertex 4.433327 8.661314 5.339372
vertex 4.433327 8.682068 5.339372
vertex 4.453803 8.661314 5.359372
endloop
endfacet
facet normal 0 0 0
outer loop
vertex 4.453803 8.682068 5.359372
vertex 4.474278 8.661314 5.359372
vertex 4.453803 8.661314 5.359372
endloop
endfacet
facet normal 0 0 0
outer loop
vertex 4.433327 8.682068 5.339372
vertex 4.412851 8.682068 5.359372
vertex 4.433327 8.702821 5.359372
endloop
endfacet
facet normal 0 0 0
outer loop
vertex 4.412851 8.682068 5.359372
vertex 4.412851 8.702821 5.359372
vertex 4.433327 8.702821 5.359372
endloop
endfacet
facet normal 0 0 0
outer loop
vertex 4.433327 8.682068 5.339372
vertex 4.433327 8.702821 5.359372
vertex 4.453803 8.682068 5.359372
endloop
endfacet
facet normal 0 0 0
outer loop
vertex 4.433327 8.702821 5.359372
vertex 4.453803 8.702821 5.359372
vertex 4.453803 8.682068 5.359372
endloop
endfacet
facet normal 0 0 0
outer loop
vertex 4.433327 8.702821 5.359372
vertex 4.412851 8.702821 5.359372
vertex 4.433327 8.723575 5.359372
endloop
endfacet
facet normal 0 0 0
outer loop
vertex 4.433327 8.723575 5.359372
vertex 4.412851 8.702821 5.359372
vertex 4.412851 8.723575 5.359372
endloop
endfacet
facet normal 0 0 0
outer loop
vertex 4.453803 8.702821 5.359372
vertex 4.433327 8.702821 5.359372
vertex 4.453803 8.723575 5.359372
endloop
endfacet
facet normal 0 0 0
outer loop
vertex 4.453803 8.723575 5.359372
vertex 4.433327 8.702821 5.359372
vertex 4.433327 8.723575 5.359372
endloop
endfacet
facet normal 0 0 0
outer loop
vertex 4.433327 8.723575 5.359372
vertex 4.412851 8.723575 5.359372
vertex 4.433327 8.744328 5.359372
endloop
endfacet
facet normal 0 0 0
outer loop
vertex 4.433327 8.744328 5.359372
vertex 4.412851 8.723575 5.359372
vertex 4.412851 8.744328 5.359372
endloop
endfacet
facet normal 0 0 0
outer loop
vertex 4.433327 8.744328 5.359372
vertex 4.453803 8.723575 5.359372
vertex 4.433327 8.723575 5.359372
endloop
endfacet
facet normal 0 0 0
outer loop
vertex 4.412851 8.765080 5.359372
vertex 4.433327 8.744328 5.359372
vertex 4.412851 8.744328 5.359372
endloop
endfacet
facet normal 0 0 0
outer loop
vertex 4.453803 8.474534 5.359372
vertex 4.453803 8.495288 5.379372
vertex 4.433327 8.495288 5.359372
endloop
endfacet
facet normal 0 0 0
outer loop
vertex 4.453803 8.474534 5.359372
vertex 4.474278 8.495288 5.359372
vertex 4.453803 8.495288 5.379372
endloop
endfacet
facet normal 0 0 0
outer loop
vertex 4.474278 8.495288 5.359372
vertex 4.474278 8.495288 5.379372
vertex 4.453803 8.495288 5.379372
endloop
endfacet
facet normal 0 0 0
outer loop
vertex 4.433327 8.495288 5.359372
vertex 4.433327 8.516041 5.379372
vertex 4.412851 8.516041 5.359372
endloop
endfacet
facet normal 0 0 0
outer loop
vertex 4.453803 8.495288 5.379372
vertex 4.433327 8.516041 5.379372
vertex 4.433327 8.495288 5.359372
endloop
endfacet
facet normal 0 0 0
outer loop
vertex 4.494754 8.516041 5.379372
vertex 4.474278 8.495288 5.379372
vertex 4.474278 8.516041 5.359372
endloop
endfacet
facet normal 0 0 0
outer loop
vertex 4.474278 8.495288 5.379372
vertex 4.474278 8.495288 5.359372
vertex 4.474278 8.516041 5.359372
endloop
endfacet
facet normal 0 0 0
outer loop
vertex 4.433327 8.536795 5.379372
vertex 4.412851 8.516041 5.359372
vertex 4.433327 8.516041 5.379372
endloop
endfacet
facet normal 0 0 0
outer loop
vertex 4.412851 8.536795 5.359372
vertex 4.412851 8.516041 5.359372
vertex 4.433327 8.536795 5.379372
endloop
endfacet
facet normal 0 0 0
outer loop
vertex 4.494754 8.516041 5.379372
vertex 4.474278 8.536795 5.359372
vertex 4.494754 8.536795 5.379372
endloop
endfacet
facet normal 0 0 0
outer loop
vertex 4.474278 8.516041 5.359372
vertex 4.474278 8.536795 5.359372
vertex 4.494754 8.516041 5.379372
endloop
endfacet
facet normal 0 0 0
outer loop
vertex 4.433327 8.557548 5.379372
vertex 4.412851 8.536795 5.359372
vertex 4.433327 8.536795 5.379372
endloop
endfacet
facet normal 0 0 0
outer loop
vertex 4.412851 8.557548 5.359372
vertex 4.412851 8.536795 5.359372
vertex 4.433327 8.557548 5.379372
endloop
endfacet
facet normal 0 0 0
outer loop
vertex 4.494754 8.536795 5.379372
vertex 4.474278 8.557548 5.359372
vertex 4.494754 8.557548 5.379372
endloop
endfacet
facet normal 0 0 0
outer loop
vertex 4.474278 8.536795 5.359372
vertex 4.474278 8.557548 5.359372
vertex 4.494754 8.536795 5.379372
endloop
endfacet
facet normal 0 0 0
outer loop
vertex 4.433327 8.578300 5.379372
vertex 4.412851 8.557548 5.359372
vertex 4.433327 8.557548 5.379372
endloop
endfacet
facet normal 0 0 0
outer loop
vertex 4.412851 8.578300 5.359372
vertex 4.412851 8.557548 5.359372
vertex 4.433327 8.578300 5.379372
endloop
endfacet
facet normal 0 0 0
outer loop
vertex 4.494754 8.557548 5.379372
vertex 4.474278 8.578300 5.359372
vertex 4.494754 8.578300 5.379372
endloop
endfacet
facet normal 0 0 0
outer loop
vertex 4.474278 8.557548 5.359372
vertex 4.474278 8.578300 5.359372
vertex 4.494754 8.557548 5.379372
endloop
endfacet
facet normal 0 0 0
outer loop
vertex 4.433327 8.599054 5.379372
vertex 4.412851 8.578300 5.359372
vertex 4.433327 8.578300 5.379372
endloop
endfacet
facet normal 0 0 0
outer loop
vertex 4.412851 8.599054 5.359372
vertex 4.412851 8.578300 5.359372
vertex 4.433327 8.599054 5.379372
endloop
endfacet
facet normal 0 0 0
outer loop
vertex 4.494754 8.578300 5.379372
vertex 4.474278 8.599054 5.359372
vertex 4.494754 8.599054 5.379372
endloop
endfacet
facet normal 0 0 0
outer loop
vertex 4.474278 8.578300 5.359372
vertex 4.474278 8.599054 5.359372
vertex 4.494754 8.578300 5.379372
endloop
endfacet
facet normal 0 0 0
outer loop
vertex 4.412851 8.599054 5.359372
vertex 4.412851 8.619807 5.379372
vertex 4.412851 8.619807 5.359372
endloop
endfacet
facet normal 0 0 0
outer loop
vertex 4.433327 8.599054 5.379372
vertex 4.412851 8.619807 5.379372
vertex 4.412851 8.599054 5.359372
endloop
endfacet
facet normal 0 0 0
outer loop
vertex 4.494754 8.599054 5.379372
vertex 4.474278 8.619807 5.359372
vertex 4.494754 8.619807 5.379372
endloop
endfacet
facet normal 0 0 0
outer loop
vertex 4.474278 8.599054 5.359372
vertex 4.474278 8.619807 5.359372
vertex 4.494754 8.599054 5.379372
endloop
endfacet
facet normal 0 0 0
outer loop
vertex 4.412851 8.619807 5.359372
vertex 4.412851 8.619807 5.379372
vertex 4.412851 8.640561 5.359372
endloop
endfacet
facet normal 0 0 0
outer loop
vertex 4.412851 8.619807 5.379372
vertex 4.412851 8.640561 5.379372
vertex 4.412851 8.640561 5.359372
endloop
endfacet
facet normal 0 0 0
outer loop
vertex 4.494754 8.619807 5.379372
vertex 4.474278 8.640561 5.359372
vertex 4.494754 8.640561 5.379372
endloop
endfacet
facet normal 0 0 0
outer loop
vertex 4.474278 8.619807 5.359372
vertex 4.474278 8.640561 5.359372
vertex 4.494754 8.619807 5.379372
endloop
endfacet
facet normal 0 0 0
outer loop
vertex 4.412851 8.640561 5.359372
vertex 4.412851 8.640561 5.379372
vertex 4.412851 8.661314 5.359372
endloop
endfacet
facet normal 0 0 0
outer loop
vertex 4.412851 8.640561 5.379372
vertex 4.412851 8.661314 5.379372
vertex 4.412851 8.661314 5.359372
endloop
endfacet
facet normal 0 0 0
outer loop
vertex 4.494754 8.640561 5.379372
vertex 4.474278 8.640561 5.359372
vertex 4.474278 8.661314 5.379372
endloop
endfacet
facet normal 0 0 0
outer loop
vertex 4.474278 8.640561 5.359372
vertex 4.474278 8.661314 5.359372
vertex 4.474278 8.661314 5.379372
endloop
endfacet
facet normal 0 0 0
outer loop
vertex 4.412851 8.661314 5.359372
vertex 4.412851 8.661314 5.379372
vertex 4.412851 8.682068 5.359372
endloop
endfacet
facet normal 0 0 0
outer loop
vertex 4.412851 8.661314 5.379372
vertex 4.412851 8.682068 5.379372
vertex 4.412851 8.682068 5.359372
endloop
endfacet
facet normal 0 0 0
outer loop
vertex 4.474278 8.661314 5.359372
vertex 4.453803 8.682068 5.359372
vertex 4.474278 8.682068 5.379372
endloop
endfacet
facet normal 0 0 0
outer loop
vertex 4.474278 8.661314 5.359372
vertex 4.474278 8.682068 5.379372
vertex 4.474278 8.661314 5.379372
endloop
endfacet
facet normal 0 0 0
outer loop
vertex 4.412851 8.682068 5.359372
vertex 4.412851 8.682068 5.379372
vertex 4.412851 8.702821 5.359372
endloop
endfacet
facet normal 0 0 0
outer loop
vertex 4.412851 8.682068 5.379372
vertex 4.412851 8.702821 5.379372
vertex 4.412851 8.702821 5.359372
endloop
endfacet
facet normal 0 0 0
outer loop
vertex 4.474278 8.682068 5.379372
vertex 4.453803 8.702821 5.359372
vertex 4.474278 8.702821 5.379372
endloop
endfacet
facet normal 0 0 0
outer loop
vertex 4.453803 8.682068 5.359372
vertex 4.453803 8.702821 5.359372
vertex 4.474278 8.682068 5.379372
endloop
endfacet
facet normal 0 0 0
outer loop
vertex 4.412851 8.702821 5.359372
vertex 4.412851 8.702821 5.379372
vertex 4.412851 8.723575 5.359372
endloop
endfacet
facet normal 0 0 0
outer loop
vertex 4.412851 8.702821 5.379372
vertex 4.412851 8.723575 5.379372
vertex 4.412851 8.723575 5.359372
endloop
endfacet
facet normal 0 0 0
outer loop
vertex 4.474278 8.702821 5.379372
vertex 4.453803 8.723575 5.359372
vertex 4.474278 8.723575 5.379372
endloop
endfacet
facet normal 0 0 0
outer loop
vertex 4.453803 8.702821 5.359372
vertex 4.453803 8.723575 5.359372
vertex 4.474278 8.702821 5.379372
endloop
endfacet
facet normal 0 0 0
outer loop
vertex 4.412851 8.723575 5.359372
vertex 4.412851 8.723575 5.379372
vertex 4.412851 8.744328 5.359372
endloop
endfacet
facet normal 0 0 0
outer loop
vertex 4.412851 8.723575 5.379372
vertex 4.412851 8.744328 5.379372
vertex 4.412851 8.744328 5.359372
endloop
endfacet
facet normal 0 0 0
outer loop
vertex 4.453803 8.723575 5.359372
vertex 4.433327 8.744328 5.359372
vertex 4.453803 8.744328 5.379372
endloop
endfacet
facet normal 0 0 0
outer loop
vertex 4.453803 8.723575 5.359372
vertex 4.453803 8.744328 5.379372
vertex 4.474278 8.723575 5.379372
endloop
endfacet
facet normal 0 0 0
outer loop
vertex 4.453803 8.744328 5.379372
vertex 4.474278 8.744328 5.379372
vertex 4.474278 8.723575 5.379372
endloop
endfacet
facet normal 0 0 0
outer loop
vertex 4.412851 8.744328 5.359372
vertex 4.412851 8.744328 5.379372
vertex 4.412851 8.765080 5.359372
endloop
endfacet
facet normal 0 0 0
outer loop
vertex 4.412851 8.744328 5.379372
vertex 4.412851 8.765080 5.379372
vertex 4.412851 8.765080 5.359372
endloop
endfacet
facet normal 0 0 0
outer loop
vertex 4.433327 8.744328 5.359372
vertex 4.412851 8.765080 5.359372
vertex 4.433327 8.765080 5.379372
endloop
endfacet
facet normal 0 0 0
outer loop
vertex 4.433327 8.744328 5.359372
vertex 4.433327 8.765080 5.379372
vertex 4.453803 8.744328 5.379372
endloop
endfacet
facet normal 0 0 0
outer loop
vertex 4.433327 8.765080 5.379372
vertex 4.453803 8.765080 5.379372
vertex 4.453803 8.744328 5.379372
endloop
endfacet
facet normal 0 0 0
outer loop
vertex 4.474278 8.744328 5.379372
vertex 4.453803 8.744328 5.379372
vertex 4.474278 8.765080 5.379372
endloop
endfacet
facet normal 0 0 0
outer loop
vertex 4.474278 8.765080 5.379372
vertex 4.453803 8.744328 5.379372
vertex 4.453803 8.765080 5.379372
endloop
endfacet
facet normal 0 0 0
outer loop
vertex 4.412851 8.785834 5.379372
vertex 4.412851 8.765080 5.359372
vertex 4.412851 8.765080 5.379372
endloop
endfacet
facet normal 0 0 0
outer loop
vertex 4.412851 8.765080 5.359372
vertex 4.412851 8.785834 5.379372
vertex 4.433327 8.765080 5.379372
endloop
endfacet
facet normal 0 0 0
outer loop
vertex 4.412851 8.785834 5.379372
vertex 4.433327 8.785834 5.379372
vertex 4.433327 8.765080 5.379372
endloop
endfacet
facet normal 0 0 0
outer loop
vertex 4.453803 8.765080 5.379372
vertex 4.433327 8.765080 5.379372
vertex 4.453803 8.785834 5.379372
endloop
endfacet
facet normal 0 0 0
outer loop
vertex 4.453803 8.785834 5.379372
vertex 4.433327 8.765080 5.379372
vertex 4.433327 8.785834 5.379372
endloop
endfacet
facet normal 0 0 0
outer loop
vertex 4.453803 8.785834 5.379372
vertex 4.474278 8.765080 5.379372
vertex 4.453803 8.765080 5.379372
endloop
endfacet
facet normal 0 0 0
outer loop
vertex 4.433327 8.785834 5.379372
vertex 4.412851 8.785834 5.379372
vertex 4.433327 8.806587 5.379372
endloop
endfacet
facet normal 0 0 0
outer loop
vertex 4.433327 8.806587 5.379372
vertex 4.412851 8.785834 5.379372
vertex 4.412851 8.806587 5.379372
endloop
endfacet
facet normal 0 0 0
outer loop
vertex 4.453803 8.785834 5.379372
vertex 4.433327 8.785834 5.379372
vertex 4.453803 8.806587 5.379372
endloop
endfacet
facet normal 0 0 0
outer loop
vertex 4.453803 8.806587 5.379372
vertex 4.433327 8.785834 5.379372
vertex 4.433327 8.806587 5.379372
endloop
endfacet
facet normal 0 0 0
outer loop
vertex 4.433327 8.806587 5.379372
vertex 4.412851 8.806587 5.379372
vertex 4.433327 8.827341 5.379372
endloop
endfacet
facet normal 0 0 0
outer loop
vertex 4.433327 8.827341 5.379372
vertex 4.412851 8.806587 5.379372
vertex 4.412851 8.827341 5.379372
endloop
endfacet
facet normal 0 0 0
outer loop
vertex 4.453803 8.806587 5.379372
vertex 4.433327 8.806587 5.379372
vertex 4.453803 8.827341 5.379372
endloop
endfacet
facet normal 0 0 0
outer loop
vertex 4.453803 8.827341 5.379372
vertex 4.433327 8.806587 5.379372
vertex 4.433327 8.827341 5.379372
endloop
endfacet
facet normal 0 0 0
outer loop
vertex 4.433327 8.827341 5.379372
vertex 4.453803 8.848094 5.379372
vertex 4.453803 8.827341 5.379372
endloop
endfacet
facet normal 0 0 0
outer loop
vertex 4.433327 8.516041 5.379372
vertex 4.453803 8.495288 5.379372
vertex 4.453803 8.516041 5.379372
endloop
endfacet
facet normal 0 0 0
outer loop
vertex 4.474278 8.495288 5.379372
vertex 4.474278 8.516041 5.379372
vertex 4.453803 8.495288 5.379372
endloop
endfacet
facet normal 0 0 0
outer loop
vertex 4.474278 8.516041 5.379372
vertex 4.453803 8.516041 5.379372
vertex 4.453803 8.495288 5.379372
endloop
endfacet
facet normal 0 0 0
outer loop
vertex 4.474278 8.495288 5.379372
vertex 4.494754 8.516041 5.379372
vertex 4.474278 8.516041 5.379372
endloop
endfacet
facet normal 0 0 0
outer loop
vertex 4.433327 8.516041 5.379372
vertex 4.433327 8.536795 5.399372
vertex 4.433327 8.536795 5.379372
endloop
endfacet
facet normal 0 0 0
outer loop
vertex 4.453803 8.516041 5.379372
vertex 4.433327 8.536795 5.399372
vertex 4.433327 8.516041 5.379372
endloop
endfacet
facet normal 0 0 0
outer loop
vertex 4.453803 8.536795 5.399372
vertex 4.433327 8.536795 5.399372
vertex 4.453803 8.516041 5.379372
endloop
endfacet
facet normal 0 0 0
outer loop
vertex 4.453803 8.536795 5.399372
vertex 4.453803 8.516041 5.379372
vertex 4.474278 8.536795 5.379372
endloop
endfacet
facet normal 0 0 0
outer loop
vertex 4.453803 8.516041 5.379372
vertex 4.474278 8.516041 5.379372
vertex 4.474278 8.536795 5.379372
endloop
endfacet
facet normal 0 0 0
outer loop
vertex 4.494754 8.516041 5.379372
vertex 4.494754 8.536795 5.379372
vertex 4.474278 8.516041 5.379372
endloop
endfacet
facet normal 0 0 0
outer loop
vertex 4.494754 8.536795 5.379372
vertex 4.474278 8.536795 5.379372
vertex 4.474278 8.516041 5.379372
endloop
endfacet
facet normal 0 0 0
outer loop
vertex 4.412851 8.557548 5.399372
vertex 4.433327 8.557548 5.379372
vertex 4.433327 8.536795 5.399372
endloop
endfacet
facet normal 0 0 0
outer loop
vertex 4.433327 8.557548 5.379372
vertex 4.433327 8.536795 5.379372
vertex 4.433327 8.536795 5.399372
endloop
endfacet
facet normal 0 0 0
outer loop
vertex 4.474278 8.536795 5.379372
vertex 4.474278 8.557548 5.399372
vertex 4.453803 8.536795 5.399372
endloop
endfacet
facet normal 0 0 0
outer loop
vertex 4.474278 8.557548 5.399372
vertex 4.474278 8.536795 5.379372
vertex 4.494754 8.557548 5.379372
endloop
endfacet
facet normal 0 0 0
outer loop
vertex 4.474278 8.536795 5.379372
vertex 4.494754 8.536795 5.379372
vertex 4.494754 8.557548 5.379372
endloop
endfacet
facet normal 0 0 0
outer loop
vertex 4.433327 8.557548 5.379372
vertex 4.412851 8.578300 5.399372
vertex 4.433327 8.578300 5.379372
endloop
endfacet
facet normal 0 0 0
outer loop
vertex 4.412851 8.557548 5.399372
vertex 4.412851 8.578300 5.399372
vertex 4.433327 8.557548 5.379372
endloop
endfacet
facet normal 0 0 0
outer loop
vertex 4.494754 8.578300 5.379372
vertex 4.474278 8.557548 5.399372
vertex 4.494754 8.557548 5.379372
endloop
endfacet
facet normal 0 0 0
outer loop
vertex 4.474278 8.578300 5.399372
vertex 4.474278 8.557548 5.399372
vertex 4.494754 8.578300 5.379372
endloop
endfacet
facet normal 0 0 0
outer loop
vertex 4.433327 8.578300 5.379372
vertex 4.412851 8.599054 5.399372
vertex 4.433327 8.599054 5.379372
endloop
endfacet
facet normal 0 0 0
outer loop
vertex 4.412851 8.578300 5.399372
vertex 4.412851 8.599054 5.399372
vertex 4.433327 8.578300 5.379372
endloop
endfacet
facet normal 0 0 0
outer loop
vertex 4.494754 8.599054 5.379372
vertex 4.474278 8.578300 5.399372
vertex 4.494754 8.578300 5.379372
endloop
endfacet
facet normal 0 0 0
outer loop
vertex 4.474278 8.599054 5.399372
vertex 4.474278 8.578300 5.399372
vertex 4.494754 8.599054 5.379372
endloop
endfacet
facet normal 0 0 0
outer loop
vertex 4.412851 8.619807 5.379372
vertex 4.412851 8.599054 5.399372
vertex 4.412851 8.619807 5.399372
endloop
endfacet
facet normal 0 0 0
outer loop
vertex 4.433327 8.599054 5.379372
vertex 4.412851 8.599054 5.399372
vertex 4.412851 8.619807 5.379372
endloop
endfacet
facet normal 0 0 0
outer loop
vertex 4.494754 8.619807 5.379372
vertex 4.474278 8.599054 5.399372
vertex 4.494754 8.599054 5.379372
endloop
endfacet
facet normal 0 0 0
outer loop
vertex 4.474278 8.619807 5.399372
vertex 4.474278 8.599054 5.399372
vertex 4.494754 8.619807 5.379372
endloop
endfacet
facet normal 0 0 0
outer loop
vertex 4.392375 8.640561 5.399372
vertex 4.412851 8.640561 5.379372
vertex 4.412851 8.619807 5.399372
endloop
endfacet
facet normal 0 0 0
outer loop
vertex 4.412851 8.640561 5.379372
vertex 4.412851 8.619807 5.379372
vertex 4.412851 8.619807 5.399372
endloop
endfacet
facet normal 0 0 0
outer loop
vertex 4.494754 8.640561 5.379372
vertex 4.474278 8.619807 5.399372
vertex 4.494754 8.619807 5.379372
endloop
endfacet
facet normal 0 0 0
outer loop
vertex 4.474278 8.640561 5.399372
vertex 4.474278 8.619807 5.399372
vertex 4.494754 8.640561 5.379372
endloop
endfacet
facet normal 0 0 0
outer loop
vertex 4.412851 8.640561 5.379372
vertex 4.392375 8.661314 5.399372
vertex 4.412851 8.661314 5.379372
endloop
endfacet
facet normal 0 0 0
outer loop
vertex 4.392375 8.640561 5.399372
vertex 4.392375 8.661314 5.399372
vertex 4.412851 8.640561 5.379372
endloop
endfacet
facet normal 0 0 0
outer loop
vertex 4.494754 8.640561 5.379372
vertex 4.474278 8.661314 5.379372
vertex 4.474278 8.640561 5.399372
endloop
endfacet
facet normal 0 0 0
outer loop
vertex 4.474278 8.661314 5.379372
vertex 4.474278 8.661314 5.399372
vertex 4.474278 8.640561 5.399372
endloop
endfacet
facet normal 0 0 0
outer loop
vertex 4.392375 8.661314 5.399372
vertex 4.412851 8.682068 5.399372
vertex 4.412851 8.661314 5.379372
endloop
endfacet
facet normal 0 0 0
outer loop
vertex 4.412851 8.682068 5.399372
vertex 4.412851 8.682068 5.379372
vertex 4.412851 8.661314 5.379372
endloop
endfacet
facet normal 0 0 0
outer loop
vertex 4.474278 8.661314 5.379372
vertex 4.474278 8.682068 5.379372
vertex 4.474278 8.661314 5.399372
endloop
endfacet
facet normal 0 0 0
outer loop
vertex 4.474278 8.661314 5.399372
vertex 4.474278 8.682068 5.379372
vertex 4.474278 8.682068 5.399372
endloop
endfacet
facet normal 0 0 0
outer loop
vertex 4.412851 8.682068 5.379372
vertex 4.412851 8.682068 5.399372
vertex 4.412851 8.702821 5.379372
endloop
endfacet
facet normal 0 0 0
outer loop
vertex 4.412851 8.682068 5.399372
vertex 4.412851 8.702821 5.399372
vertex 4.412851 8.702821 5.379372
endloop
endfacet
facet normal 0 0 0
outer loop
vertex 4.474278 8.682068 5.379372
vertex 4.474278 8.702821 5.379372
vertex 4.474278 8.682068 5.399372
endloop
endfacet
facet normal 0 0 0
outer loop
vertex 4.474278 8.682068 5.399372
vertex 4.474278 8.702821 5.379372
vertex 4.474278 8.702821 5.399372
endloop
endfacet
facet normal 0 0 0
outer loop
vertex 4.392375 8.723575 5.399372
vertex 4.412851 8.723575 5.379372
vertex 4.412851 8.702821 5.399372
endloop
endfacet
facet normal 0 0 0
outer loop
vertex 4.412851 8.723575 5.379372
vertex 4.412851 8.702821 5.379372
vertex 4.412851 8.702821 5.399372
endloop
endfacet
facet normal 0 0 0
outer loop
vertex 4.474278 8.702821 5.379372
vertex 4.474278 8.723575 5.379372
vertex 4.474278 8.702821 5.399372
endloop
endfacet
facet normal 0 0 0
outer loop
vertex 4.474278 8.702821 5.399372
vertex 4.474278 8.723575 5.379372
vertex 4.474278 8.723575 5.399372
endloop
endfacet
facet normal 0 0 0
outer loop
vertex 4.412851 8.723575 5.379372
vertex 4.392375 8.744328 5.399372
vertex 4.412851 8.744328 5.379372
endloop
endfacet
facet normal 0 0 0
outer loop
vertex 4.392375 8.723575 5.399372
vertex 4.392375 8.744328 5.399372
vertex 4.412851 8.723575 5.379372
endloop
endfacet
facet normal 0 0 0
outer loop
vertex 4.474278 8.723575 5.379372
vertex 4.474278 8.744328 5.379372
vertex 4.474278 8.723575 5.399372
endloop
endfacet
facet normal 0 0 0
outer loop
vertex 4.474278 8.723575 5.399372
vertex 4.474278 8.744328 5.379372
vertex 4.474278 8.744328 5.399372
endloop
endfacet
facet normal 0 0 0
outer loop
vertex 4.412851 8.744328 5.379372
vertex 4.392375 8.765080 5.399372
vertex 4.412851 8.765080 5.379372
endloop
endfacet
facet normal 0 0 0
outer loop
vertex 4.392375 8.744328 5.399372
vertex 4.392375 8.765080 5.399372
vertex 4.412851 8.744328 5.379372
endloop
endfacet
facet normal 0 0 0
outer loop
vertex 4.474278 8.744328 5.379372
vertex 4.474278 8.765080 5.379372
vertex 4.474278 8.744328 5.399372
endloop
endfacet
facet normal 0 0 0
outer loop
vertex 4.474278 8.744328 5.399372
vertex 4.474278 8.765080 5.379372
vertex 4.474278 8.765080 5.399372
endloop
endfacet
facet normal 0 0 0
outer loop
vertex 4.412851 8.765080 5.379372
vertex 4.392375 8.785834 5.399372
vertex 4.412851 8.785834 5.379372
endloop
endfacet
facet normal 0 0 0
outer loop
vertex 4.392375 8.765080 5.399372
vertex 4.392375 8.785834 5.399372
vertex 4.412851 8.765080 5.379372
endloop
endfacet
facet normal 0 0 0
outer loop
vertex 4.474278 8.765080 5.379372
vertex 4.453803 8.785834 5.379372
vertex 4.474278 8.785834 5.399372
endloop
endfacet
facet normal 0 0 0
outer loop
vertex 4.474278 8.765080 5.379372
vertex 4.474278 8.785834 5.399372
vertex 4.474278 8.765080 5.399372
endloop
endfacet
facet normal 0 0 0
outer loop
vertex 4.412851 8.785834 5.379372
vertex 4.392375 8.806587 5.399372
vertex 4.412851 8.806587 5.379372
endloop
endfacet
facet normal 0 0 0
outer loop
vertex 4.392375 8.785834 5.399372
vertex 4.392375 8.806587 5.399372
vertex 4.412851 8.785834 5.379372
endloop
endfacet
facet normal 0 0 0
outer loop
vertex 4.474278 8.785834 5.399372
vertex 4.453803 8.806587 5.379372
vertex 4.474278 8.806587 5.399372
endloop
endfacet
facet normal 0 0 0
outer loop
vertex 4.453803 8.785834 5.379372
vertex 4.453803 8.806587 5.379372
vertex 4.474278 8.785834 5.399372
endloop
endfacet
facet normal 0 0 0
outer loop
vertex 4.412851 8.806587 5.379372
vertex 4.392375 8.827341 5.399372
vertex 4.412851 8.827341 5.379372
endloop
endfacet
facet normal 0 0 0
outer loop
vertex 4.392375 8.806587 5.399372
vertex 4.392375 8.827341 5.399372
vertex 4.412851 8.806587 5.379372
endloop
endfacet
facet normal 0 0 0
outer loop
vertex 4.474278 8.806587 5.399372
vertex 4.453803 8.827341 5.379372
vertex 4.474278 8.827341 5.399372
endloop
endfacet
facet normal 0 0 0
outer loop
vertex 4.453803 8.806587 5.379372
vertex 4.453803 8.827341 5.379372
vertex 4.474278 8.806587 5.399372
endloop
endfacet
facet normal 0 0 0
outer loop
vertex 4.412851 8.827341 5.379372
vertex 4.392375 8.827341 5.399372
vertex 4.412851 8.848094 5.399372
endloop
endfacet
facet normal 0 0 0
outer loop
vertex 4.392375 8.827341 5.399372
vertex 4.392375 8.848094 5.399372
vertex 4.412851 8.848094 5.399372
endloop
endfacet
facet normal 0 0 0
outer loop
vertex 4.412851 8.827341 5.379372
vertex 4.433327 8.848094 5.399372
vertex 4.433327 8.827341 5.379372
endloop
endfacet
facet normal 0 0 0
outer loop
vertex 4.412851 8.848094 5.399372
vertex 4.433327 8.848094 5.399372
vertex 4.412851 8.827341 5.379372
endloop
endfacet
facet normal 0 0 0
outer loop
vertex 4.433327 8.827341 5.379372
vertex 4.433327 8.848094 5.399372
vertex 4.453803 8.848094 5.379372
endloop
endfacet
facet normal 0 0 0
outer loop
vertex 4.474278 8.827341 5.399372
vertex 4.453803 8.827341 5.379372
vertex 4.453803 8.848094 5.399372
endloop
endfacet
facet normal 0 0 0
outer loop
vertex 4.453803 8.827341 5.379372
vertex 4.453803 8.848094 5.379372
vertex 4.453803 8.848094 5.399372
endloop
endfacet
facet normal 0 0 0
outer loop
vertex 4.412851 8.848094 5.399372
vertex 4.392375 8.848094 5.399372
vertex 4.412851 8.868848 5.399372
endloop
endfacet
facet normal 0 0 0
outer loop
vertex 4.412851 8.868848 5.399372
vertex 4.392375 8.848094 5.399372
vertex 4.392375 8.868848 5.399372
endloop
endfacet
facet normal 0 0 0
outer loop
vertex 4.433327 8.848094 5.399372
vertex 4.412851 8.848094 5.399372
vertex 4.433327 8.868848 5.399372
endloop
endfacet
facet normal 0 0 0
outer loop
vertex 4.433327 8.868848 5.399372
vertex 4.412851 8.848094 5.399372
vertex 4.412851 8.868848 5.399372
endloop
endfacet
facet normal 0 0 0
outer loop
vertex 4.453803 8.848094 5.379372
vertex 4.433327 8.848094 5.399372
vertex 4.453803 8.868848 5.399372
endloop
endfacet
facet normal 0 0 0
outer loop
vertex 4.433327 8.848094 5.399372
vertex 4.433327 8.868848 5.399372
vertex 4.453803 8.868848 5.399372
endloop
endfacet
facet normal 0 0 0
outer loop
vertex 4.453803 8.848094 5.379372
vertex 4.453803 8.868848 5.399372
vertex 4.453803 8.848094 5.399372
endloop
endfacet
facet normal 0 0 0
outer loop
vertex 4.412851 8.868848 5.399372
vertex 4.392375 8.868848 5.399372
vertex 4.412851 8.889601 5.399372
endloop
endfacet
facet normal 0 0 0
outer loop
vertex 4.412851 8.889601 5.399372
vertex 4.392375 8.868848 5.399372
vertex 4.392375 8.889601 5.399372
endloop
endfacet
facet normal 0 0 0
outer loop
vertex 4.433327 8.868848 5.399372
vertex 4.412851 8.868848 5.399372
vertex 4.433327 8.889601 5.399372
endloop
endfacet
facet normal 0 0 0
outer loop
vertex 4.433327 8.889601 5.399372
vertex 4.412851 8.868848 5.399372
vertex 4.412851 8.889601 5.399372
endloop
endfacet
facet normal 0 0 0
outer loop
vertex 4.453803 8.868848 5.399372
vertex 4.433327 8.868848 5.399372
vertex 4.453803 8.889601 5.399372
endloop
endfacet
facet normal 0 0 0
outer loop
vertex 4.453803 8.889601 5.399372
vertex 4.433327 8.868848 5.399372
vertex 4.433327 8.889601 5.399372
endloop
endfacet
facet normal 0 0 0
outer loop
vertex 4.412851 8.889601 5.399372
vertex 4.392375 8.889601 5.399372
vertex 4.412851 8.910354 5.399372
endloop
endfacet
facet normal 0 0 0
outer loop
vertex 4.412851 8.910354 5.399372
vertex 4.392375 8.889601 5.399372
vertex 4.392375 8.910354 5.399372
endloop
endfacet
facet normal 0 0 0
outer loop
vertex 4.433327 8.889601 5.399372
vertex 4.412851 8.889601 5.399372
vertex 4.433327 8.910354 5.399372
endloop
endfacet
facet normal 0 0 0
outer loop
vertex 4.433327 8.910354 5.399372
vertex 4.412851 8.889601 5.399372
vertex 4.412851 8.910354 5.399372
endloop
endfacet
facet normal 0 0 0
outer loop
vertex 4.453803 8.889601 5.399372
vertex 4.433327 8.889601 5.399372
vertex 4.453803 8.910354 5.399372
endloop
endfacet
facet normal 0 0 0
outer loop
vertex 4.453803 8.910354 5.399372
vertex 4.433327 8.889601 5.399372
vertex 4.433327 8.910354 5.399372
endloop
endfacet
facet normal 0 0 0
outer loop
vertex 4.412851 8.910354 5.399372
vertex 4.392375 8.910354 5.399372
vertex 4.412851 8.931108 5.399372
endloop
endfacet
facet normal 0 0 0
outer loop
vertex 4.412851 8.931108 5.399372
vertex 4.392375 8.910354 5.399372
vertex 4.392375 8.931108 5.399372
endloop
endfacet
facet normal 0 0 0
outer loop
vertex 4.412851 8.931108 5.399372
vertex 4.433327 8.910354 5.399372
vertex 4.412851 8.910354 5.399372
endloop
endfacet
facet normal 0 0 0
outer loop
vertex 4.412851 8.557548 5.399372
vertex 4.433327 8.536795 5.399372
vertex 4.433327 8.557548 5.399372
endloop
endfacet
facet normal 0 0 0
outer loop
vertex 4.453803 8.536795 5.399372
vertex 4.453803 8.557548 5.399372
vertex 4.433327 8.536795 5.399372
endloop
endfacet
facet normal 0 0 0
outer loop
vertex 4.453803 8.557548 5.399372
vertex 4.433327 8.557548 5.399372
vertex 4.433327 8.536795 5.399372
endloop
endfacet
facet normal 0 0 0
outer loop
vertex 4.453803 8.536795 5.399372
vertex 4.474278 8.557548 5.399372
vertex 4.453803 8.557548 5.399372
endloop
endfacet
facet normal 0 0 0
outer loop
vertex 4.433327 8.557548 5.399372
vertex 4.433327 8.578300 5.399372
vertex 4.412851 8.557548 5.399372
endloop
endfacet
facet normal 0 0 0
outer loop
vertex 4.433327 8.578300 5.399372
vertex 4.412851 8.578300 5.399372
vertex 4.412851 8.557548 5.399372
endloop
endfacet
facet normal 0 0 0
outer loop
vertex 4.453803 8.578300 5.419372
vertex 4.433327 8.578300 5.399372
vertex 4.453803 8.557548 5.399372
endloop
endfacet
facet normal 0 0 0
outer loop
vertex 4.433327 8.578300 5.399372
vertex 4.433327 8.557548 5.399372
vertex 4.453803 8.557548 5.399372
endloop
endfacet
facet normal 0 0 0
outer loop
vertex 4.453803 8.578300 5.419372
vertex 4.453803 8.557548 5.399372
vertex 4.474278 8.578300 5.399372
endloop
endfacet
facet normal 0 0 0
outer loop
vertex 4.453803 8.557548 5.399372
vertex 4.474278 8.557548 5.399372
vertex 4.474278 8.578300 5.399372
endloop
endfacet
facet normal 0 0 0
outer loop
vertex 4.433327 8.599054 5.419372
vertex 4.412851 8.599054 5.399372
vertex 4.433327 8.578300 5.399372
endloop
endfacet
facet normal 0 0 0
outer loop
vertex 4.412851 8.599054 5.399372
vertex 4.412851 8.578300 5.399372
vertex 4.433327 8.578300 5.399372
endloop
endfacet
facet normal 0 0 0
outer loop
vertex 4.453803 8.578300 5.419372
vertex 4.433327 8.599054 5.419372
vertex 4.433327 8.578300 5.399372
endloop
endfacet
facet normal 0 0 0
outer loop
vertex 4.474278 8.578300 5.399372
vertex 4.474278 8.599054 5.419372
vertex 4.453803 8.578300 5.419372
endloop
endfacet
facet normal 0 0 0
outer loop
vertex 4.474278 8.599054 5.419372
vertex 4.474278 8.578300 5.399372
vertex 4.474278 8.599054 5.399372
endloop
endfacet
facet normal 0 0 0
outer loop
vertex 4.433327 8.619807 5.419372
vertex 4.412851 8.599054 5.399372
vertex 4.433327 8.599054 5.419372
endloop
endfacet
facet normal 0 0 0
outer loop
vertex 4.412851 8.619807 5.399372
vertex 4.412851 8.599054 5.399372
vertex 4.433327 8.619807 5.419372
endloop
endfacet
facet normal 0 0 0
outer loop
vertex 4.474278 8.599054 5.399372
vertex 4.474278 8.619807 5.399372
vertex 4.474278 8.599054 5.419372
endloop
endfacet
facet normal 0 0 0
outer loop
vertex 4.474278 8.599054 5.419372
vertex 4.474278 8.619807 5.399372
vertex 4.474278 8.619807 5.419372
endloop
endfacet
facet normal 0 0 0
outer loop
vertex 4.412851 8.619807 5.399372
vertex 4.412851 8.640561 5.419372
vertex 4.392375 8.640561 5.399372
endloop
endfacet
facet normal 0 0 0
outer loop
vertex 4.433327 8.619807 5.419372
vertex 4.412851 8.640561 5.419372
vertex 4.412851 8.619807 5.399372
endloop
endfacet
facet normal 0 0 0
outer loop
vertex 4.474278 8.619807 5.399372
vertex 4.474278 8.640561 5.399372
vertex 4.474278 8.619807 5.419372
endloop
endfacet
facet normal 0 0 0
outer loop
vertex 4.474278 8.619807 5.419372
vertex 4.474278 8.640561 5.399372
vertex 4.474278 8.640561 5.419372
endloop
endfacet
facet normal 0 0 0
outer loop
vertex 4.412851 8.661314 5.419372
vertex 4.392375 8.640561 5.399372
vertex 4.412851 8.640561 5.419372
endloop
endfacet
facet normal 0 0 0
outer loop
vertex 4.392375 8.661314 5.399372
vertex 4.392375 8.640561 5.399372
vertex 4.412851 8.661314 5.419372
endloop
endfacet
facet normal 0 0 0
outer loop
vertex 4.474278 8.640561 5.399372
vertex 4.474278 8.661314 5.399372
vertex 4.474278 8.640561 5.419372
endloop
endfacet
facet normal 0 0 0
outer loop
vertex 4.474278 8.640561 5.419372
vertex 4.474278 8.661314 5.399372
vertex 4.474278 8.661314 5.419372
endloop
endfacet
facet normal 0 0 0
outer loop
vertex 4.392375 8.661314 5.399372
vertex 4.412851 8.661314 5.419372
vertex 4.412851 8.682068 5.399372
endloop
endfacet
facet normal 0 0 0
outer loop
vertex 4.412851 8.661314 5.419372
vertex 4.412851 8.682068 5.419372
vertex 4.412851 8.682068 5.399372
endloop
endfacet
facet normal 0 0 0
outer loop
vertex 4.474278 8.661314 5.399372
vertex 4.474278 8.682068 5.399372
vertex 4.474278 8.661314 5.419372
endloop
endfacet
facet normal 0 0 0
outer loop
vertex 4.474278 8.661314 5.419372
vertex 4.474278 8.682068 5.399372
vertex 4.474278 8.682068 5.419372
endloop
endfacet
facet normal 0 0 0
outer loop
vertex 4.412851 8.682068 5.399372
vertex 4.412851 8.682068 5.419372
vertex 4.412851 8.702821 5.399372
endloop
endfacet
facet normal 0 0 0
outer loop
vertex 4.412851 8.682068 5.419372
vertex 4.412851 8.702821 5.419372
vertex 4.412851 8.702821 5.399372
endloop
endfacet
facet normal 0 0 0
outer loop
vertex 4.474278 8.682068 5.399372
vertex 4.474278 8.702821 5.399372
vertex 4.474278 8.682068 5.419372
endloop
endfacet
facet normal 0 0 0
outer loop
vertex 4.474278 8.682068 5.419372
vertex 4.474278 8.702821 5.399372
vertex 4.474278 8.702821 5.419372
endloop
endfacet
facet normal 0 0 0
outer loop
vertex 4.392375 8.723575 5.399372
vertex 4.412851 8.702821 5.399372
vertex 4.412851 8.723575 5.419372
endloop
endfacet
facet normal 0 0 0
outer loop
vertex 4.412851 8.702821 5.399372
vertex 4.412851 8.702821 5.419372
vertex 4.412851 8.723575 5.419372
endloop
endfacet
facet normal 0 0 0
outer loop
vertex 4.474278 8.702821 5.399372
vertex 4.474278 8.723575 5.399372
vertex 4.474278 8.702821 5.419372
endloop
endfacet
facet normal 0 0 0
outer loop
vertex 4.474278 8.702821 5.419372
vertex 4.474278 8.723575 5.399372
vertex 4.474278 8.723575 5.419372
endloop
endfacet
facet normal 0 0 0
outer loop
vertex 4.412851 8.744328 5.419372
vertex 4.392375 8.723575 5.399372
vertex 4.412851 8.723575 5.419372
endloop
endfacet
facet normal 0 0 0
outer loop
vertex 4.392375 8.744328 5.399372
vertex 4.392375 8.723575 5.399372
vertex 4.412851 8.744328 5.419372
endloop
endfacet
facet normal 0 0 0
outer loop
vertex 4.474278 8.723575 5.399372
vertex 4.474278 8.744328 5.399372
vertex 4.474278 8.723575 5.419372
endloop
endfacet
facet normal 0 0 0
outer loop
vertex 4.474278 8.723575 5.419372
vertex 4.474278 8.744328 5.399372
vertex 4.474278 8.744328 5.419372
endloop
endfacet
facet normal 0 0 0
outer loop
vertex 4.412851 8.765080 5.419372
vertex 4.392375 8.744328 5.399372
vertex 4.412851 8.744328 5.419372
endloop
endfacet
facet normal 0 0 0
outer loop
vertex 4.392375 8.765080 5.399372
vertex 4.392375 8.744328 5.399372
vertex 4.412851 8.765080 5.419372
endloop
endfacet
facet normal 0 0 0
outer loop
vertex 4.474278 8.744328 5.399372
vertex 4.474278 8.765080 5.399372
vertex 4.474278 8.744328 5.419372
endloop
endfacet
facet normal 0 0 0
outer loop
vertex 4.474278 8.744328 5.419372
vertex 4.474278 8.765080 5.399372
vertex 4.474278 8.765080 5.419372
endloop
endfacet
facet normal 0 0 0
outer loop
vertex 4.412851 8.785834 5.419372
vertex 4.392375 8.765080 5.399372
vertex 4.412851 8.765080 5.419372
endloop
endfacet
facet normal 0 0 0
outer loop
vertex 4.392375 8.785834 5.399372
vertex 4.392375 8.765080 5.399372
vertex 4.412851 8.785834 5.419372
endloop
endfacet
facet normal 0 0 0
outer loop
vertex 4.474278 8.765080 5.399372
vertex 4.474278 8.785834 5.399372
vertex 4.474278 8.765080 5.419372
endloop
endfacet
facet normal 0 0 0
outer loop
vertex 4.474278 8.765080 5.419372
vertex 4.474278 8.785834 5.399372
vertex 4.474278 8.785834 5.419372
endloop
endfacet
facet normal 0 0 0
outer loop
vertex 4.412851 8.806587 5.419372
vertex 4.392375 8.785834 5.399372
vertex 4.412851 8.785834 5.419372
endloop
endfacet
facet normal 0 0 0
outer loop
vertex 4.392375 8.806587 5.399372
vertex 4.392375 8.785834 5.399372
vertex 4.412851 8.806587 5.419372
endloop
endfacet
facet normal 0 0 0
outer loop
vertex 4.474278 8.785834 5.399372
vertex 4.474278 8.806587 5.399372
vertex 4.474278 8.785834 5.419372
endloop
endfacet
facet normal 0 0 0
outer loop
vertex 4.474278 8.785834 5.419372
vertex 4.474278 8.806587 5.399372
vertex 4.474278 8.806587 5.419372
endloop
endfacet
facet normal 0 0 0
outer loop
vertex 4.412851 8.827341 5.419372
vertex 4.392375 8.806587 5.399372
vertex 4.412851 8.806587 5.419372
endloop
endfacet
facet normal 0 0 0
outer loop
vertex 4.392375 8.827341 5.399372
vertex 4.392375 8.806587 5.399372
vertex 4.412851 8.827341 5.419372
endloop
endfacet
facet normal 0 0 0
outer loop
vertex 4.474278 8.806587 5.399372
vertex 4.474278 8.827341 5.399372
vertex 4.474278 8.806587 5.419372
endloop
endfacet
facet normal 0 0 0
outer loop
vertex 4.474278 8.806587 5.419372
vertex 4.474278 8.827341 5.399372
vertex 4.474278 8.827341 5.419372
endloop
endfacet
facet normal 0 0 0
outer loop
vertex 4.412851 8.848094 5.419372
vertex 4.392375 8.827341 5.399372
vertex 4.412851 8.827341 5.419372
endloop
endfacet
facet normal 0 0 0
outer loop
vertex 4.392375 8.848094 5.399372
vertex 4.392375 8.827341 5.399372
vertex 4.412851 8.848094 5.419372
endloop
endfacet
facet normal 0 0 0
outer loop
vertex 4.474278 8.827341 5.399372
vertex 4.453803 8.848094 5.399372
vertex 4.474278 8.848094 5.419372
endloop
endfacet
facet normal 0 0 0
outer loop
vertex 4.474278 8.827341 5.399372
vertex 4.474278 8.848094 5.419372
vertex 4.474278 8.827341 5.419372
endloop
endfacet
facet normal 0 0 0
outer loop
vertex 4.392375 8.848094 5.399372
vertex 4.392375 8.868848 5.419372
vertex 4.371899 8.868848 5.419372
endloop
endfacet
facet normal 0 0 0
outer loop
vertex 4.392375 8.848094 5.399372
vertex 4.371899 8.868848 5.419372
vertex 4.392375 8.868848 5.399372
endloop
endfacet
facet normal 0 0 0
outer loop
vertex 4.412851 8.848094 5.419372
vertex 4.392375 8.868848 5.419372
vertex 4.392375 8.848094 5.399372
endloop
endfacet
facet normal 0 0 0
outer loop
vertex 4.474278 8.848094 5.419372
vertex 4.453803 8.868848 5.399372
vertex 4.474278 8.868848 5.419372
endloop
endfacet
facet normal 0 0 0
outer loop
vertex 4.453803 8.848094 5.399372
vertex 4.453803 8.868848 5.399372
vertex 4.474278 8.848094 5.419372
endloop
endfacet
facet normal 0 0 0
outer loop
vertex 4.371899 8.868848 5.419372
vertex 4.392375 8.889601 5.419372
vertex 4.392375 8.868848 5.399372
endloop
endfacet
facet normal 0 0 0
outer loop
vertex 4.392375 8.889601 5.419372
vertex 4.392375 8.889601 5.399372
vertex 4.392375 8.868848 5.399372
endloop
endfacet
facet normal 0 0 0
outer loop
vertex 4.474278 8.868848 5.419372
vertex 4.453803 8.889601 5.399372
vertex 4.474278 8.889601 5.419372
endloop
endfacet
facet normal 0 0 0
outer loop
vertex 4.453803 8.868848 5.399372
vertex 4.453803 8.889601 5.399372
vertex 4.474278 8.868848 5.419372
endloop
endfacet
facet normal 0 0 0
outer loop
vertex 4.392375 8.889601 5.419372
vertex 4.392375 8.910354 5.399372
vertex 4.392375 8.889601 5.399372
endloop
endfacet
facet normal 0 0 0
outer loop
vertex 4.392375 8.889601 5.419372
vertex 4.412851 8.910354 5.419372
vertex 4.392375 8.910354 5.399372
endloop
endfacet
facet normal 0 0 0
outer loop
vertex 4.474278 8.889601 5.419372
vertex 4.453803 8.889601 5.399372
vertex 4.453803 8.910354 5.419372
endloop
endfacet
facet normal 0 0 0
outer loop
vertex 4.453803 8.889601 5.399372
vertex 4.453803 8.910354 5.399372
vertex 4.453803 8.910354 5.419372
endloop
endfacet
facet normal 0 0 0
outer loop
vertex 4.412851 8.931108 5.419372
vertex 4.392375 8.910354 5.399372
vertex 4.412851 8.910354 5.419372
endloop
endfacet
facet normal 0 0 0
outer loop
vertex 4.392375 8.931108 5.399372
vertex 4.392375 8.910354 5.399372
vertex 4.412851 8.931108 5.419372
endloop
endfacet
facet normal 0 0 0
outer loop
vertex 4.433327 8.910354 5.399372
vertex 4.412851 8.931108 5.399372
vertex 4.433327 8.931108 5.419372
endloop
endfacet
facet normal 0 0 0
outer loop
vertex 4.433327 8.910354 5.399372
vertex 4.453803 8.931108 5.419372
vertex 4.453803 8.910354 5.399372
endloop
endfacet
facet normal 0 0 0
outer loop
vertex 4.433327 8.931108 5.419372
vertex 4.453803 8.931108 5.419372
vertex 4.433327 8.910354 5.399372
endloop
endfacet
facet normal 0 0 0
outer loop
vertex 4.453803 8.910354 5.399372
vertex 4.453803 8.931108 5.419372
vertex 4.453803 8.910354 5.419372
endloop
endfacet
facet normal 0 0 0
outer loop
vertex 4.392375 8.931108 5.399372
vertex 4.412851 8.931108 5.419372
vertex 4.412851 8.931108 5.399372
endloop
endfacet
facet normal 0 0 0
outer loop
vertex 4.433327 8.931108 5.419372
vertex 4.412851 8.931108 5.399372
vertex 4.412851 8.931108 5.419372
endloop
endfacet
facet normal 0 0 0
outer loop
vertex 4.433327 8.599054 5.419372
vertex 4.453803 8.578300 5.419372
vertex 4.453803 8.599054 5.419372
endloop
endfacet
facet normal 0 0 0
outer loop
vertex 4.453803 8.578300 5.419372
vertex 4.474278 8.599054 5.419372
vertex 4.453803 8.599054 5.419372
endloop
endfacet
facet normal 0 0 0
outer loop
vertex 4.453803 8.599054 5.419372
vertex 4.453803 8.619807 5.419372
vertex 4.433327 8.599054 5.419372
endloop
endfacet
facet normal 0 0 0
outer loop
vertex 4.453803 8.619807 5.419372
vertex 4.433327 8.619807 5.419372
vertex 4.433327 8.599054 5.419372
endloop
endfacet
facet normal 0 0 0
outer loop
vertex 4.474278 8.599054 5.419372
vertex 4.474278 8.619807 5.419372
vertex 4.453803 8.599054 5.419372
endloop
endfacet
facet normal 0 0 0
outer loop
vertex 4.474278 8.619807 5.419372
vertex 4.453803 8.619807 5.419372
vertex 4.453803 8.599054 5.419372
endloop
endfacet
facet normal 0 0 0
outer loop
vertex 4.412851 8.640561 5.419372
vertex 4.433327 8.619807 5.419372
vertex 4.433327 8.640561 5.419372
endloop
endfacet
facet normal 0 0 0
outer loop
vertex 4.453803 8.619807 5.419372
vertex 4.453803 8.640561 5.419372
vertex 4.433327 8.619807 5.419372
endloop
endfacet
facet normal 0 0 0
outer loop
vertex 4.453803 8.640561 5.419372
vertex 4.433327 8.640561 5.419372
vertex 4.433327 8.619807 5.419372
endloop
endfacet
facet normal 0 0 0
outer loop
vertex 4.474278 8.619807 5.419372
vertex 4.474278 8.640561 5.419372
vertex 4.453803 8.619807 5.419372
endloop
endfacet
facet normal 0 0 0
outer loop
vertex 4.474278 8.640561 5.419372
vertex 4.453803 8.640561 5.419372
vertex 4.453803 8.619807 5.419372
endloop
endfacet
facet normal 0 0 0
outer loop
vertex 4.433327 8.640561 5.419372
vertex 4.433327 8.661314 5.419372
vertex 4.412851 8.640561 5.419372
endloop
endfacet
facet normal 0 0 0
outer loop
vertex 4.433327 8.661314 5.419372
vertex 4.412851 8.661314 5.419372
vertex 4.412851 8.640561 5.419372
endloop
endfacet
facet normal 0 0 0
outer loop
vertex 4.453803 8.640561 5.419372
vertex 4.453803 8.661314 5.419372
vertex 4.433327 8.640561 5.419372
endloop
endfacet
facet normal 0 0 0
outer loop
vertex 4.453803 8.661314 5.419372
vertex 4.433327 8.661314 5.419372
vertex 4.433327 8.640561 5.419372
endloop
endfacet
facet normal 0 0 0
outer loop
vertex 4.474278 8.640561 5.419372
vertex 4.474278 8.661314 5.419372
vertex 4.453803 8.640561 5.419372
endloop
endfacet
facet normal 0 0 0
outer loop
vertex 4.474278 8.661314 5.419372
vertex 4.453803 8.661314 5.419372
vertex 4.453803 8.640561 5.419372
endloop
endfacet
facet normal 0 0 0
outer loop
vertex 4.412851 8.661314 5.419372
vertex 4.412851 8.682068 5.439372
vertex 4.412851 8.682068 5.419372
endloop
endfacet
facet normal 0 0 0
outer loop
vertex 4.412851 8.682068 5.439372
vertex 4.412851 8.661314 5.419372
vertex 4.433327 8.682068 5.419372
endloop
endfacet
facet normal 0 0 0
outer loop
vertex 4.412851 8.661314 5.419372
vertex 4.433327 8.661314 5.419372
vertex 4.433327 8.682068 5.419372
endloop
endfacet
facet normal 0 0 0
outer loop
vertex 4.453803 8.661314 5.419372
vertex 4.453803 8.682068 5.419372
vertex 4.433327 8.661314 5.419372
endloop
endfacet
facet normal 0 0 0
outer loop
vertex 4.453803 8.682068 5.419372
vertex 4.433327 8.682068 5.419372
vertex 4.433327 8.661314 5.419372
endloop
endfacet
facet normal 0 0 0
outer loop
vertex 4.474278 8.682068 5.439372
vertex 4.453803 8.682068 5.419372
vertex 4.474278 8.661314 5.419372
endloop
endfacet
facet normal 0 0 0
outer loop
vertex 4.453803 8.682068 5.419372
vertex 4.453803 8.661314 5.419372
vertex 4.474278 8.661314 5.419372
endloop
endfacet
facet normal 0 0 0
outer loop
vertex 4.474278 8.682068 5.439372
vertex 4.474278 8.661314 5.419372
vertex 4.474278 8.682068 5.419372
endloop
endfacet
facet normal 0 0 0
outer loop
vertex 4.412851 8.682068 5.439372
vertex 4.412851 8.702821 5.419372
vertex 4.412851 8.682068 5.419372
endloop
endfacet
facet normal 0 0 0
outer loop
vertex 4.433327 8.702821 5.439372
vertex 4.412851 8.702821 5.419372
vertex 4.433327 8.682068 5.419372
endloop
endfacet
facet normal 0 0 0
outer loop
vertex 4.412851 8.682068 5.439372
vertex 4.433327 8.682068 5.419372
vertex 4.412851 8.702821 5.419372
endloop
endfacet
facet normal 0 0 0
outer loop
vertex 4.453803 8.682068 5.419372
vertex 4.433327 8.702821 5.439372
vertex 4.433327 8.682068 5.419372
endloop
endfacet
facet normal 0 0 0
outer loop
vertex 4.453803 8.702821 5.439372
vertex 4.433327 8.702821 5.439372
vertex 4.453803 8.682068 5.419372
endloop
endfacet
facet normal 0 0 0
outer loop
vertex 4.474278 8.682068 5.439372
vertex 4.453803 8.702821 5.439372
vertex 4.453803 8.682068 5.419372
endloop
endfacet
facet normal 0 0 0
outer loop
vertex 4.474278 8.682068 5.419372
vertex 4.474278 8.702821 5.419372
vertex 4.474278 8.682068 5.439372
endloop
endfacet
facet normal 0 0 0
outer loop
vertex 4.474278 8.682068 5.439372
vertex 4.474278 8.702821 5.419372
vertex 4.474278 8.702821 5.439372
endloop
endfacet
facet normal 0 0 0
outer loop
vertex 4.412851 8.702821 5.419372
vertex 4.412851 8.723575 5.439372
vertex 4.392375 8.723575 5.439372
endloop
endfacet
facet normal 0 0 0
outer loop
vertex 4.412851 8.702821 5.419372
vertex 4.392375 8.723575 5.439372
vertex 4.412851 8.723575 5.419372
endloop
endfacet
facet normal 0 0 0
outer loop
vertex 4.433327 8.702821 5.439372
vertex 4.412851 8.723575 5.439372
vertex 4.412851 8.702821 5.419372
endloop
endfacet
facet normal 0 0 0
outer loop
vertex 4.474278 8.702821 5.419372
vertex 4.474278 8.723575 5.419372
vertex 4.474278 8.702821 5.439372
endloop
endfacet
facet normal 0 0 0
outer loop
vertex 4.474278 8.702821 5.439372
vertex 4.474278 8.723575 5.419372
vertex 4.474278 8.723575 5.439372
endloop
endfacet
facet normal 0 0 0
outer loop
vertex 4.412851 8.723575 5.419372
vertex 4.392375 8.744328 5.439372
vertex 4.412851 8.744328 5.419372
endloop
endfacet
facet normal 0 0 0
outer loop
vertex 4.392375 8.723575 5.439372
vertex 4.392375 8.744328 5.439372
vertex 4.412851 8.723575 5.419372
endloop
endfacet
facet normal 0 0 0
outer loop
vertex 4.474278 8.723575 5.419372
vertex 4.474278 8.744328 5.419372
vertex 4.474278 8.723575 5.439372
endloop
endfacet
facet normal 0 0 0
outer loop
vertex 4.474278 8.723575 5.439372
vertex 4.474278 8.744328 5.419372
vertex 4.474278 8.744328 5.439372
endloop
endfacet
facet normal 0 0 0
outer loop
vertex 4.412851 8.744328 5.419372
vertex 4.392375 8.765080 5.439372
vertex 4.412851 8.765080 5.419372
endloop
endfacet
facet normal 0 0 0
outer loop
vertex 4.392375 8.744328 5.439372
vertex 4.392375 8.765080 5.439372
vertex 4.412851 8.744328 5.419372
endloop
endfacet
facet normal 0 0 0
outer loop
vertex 4.474278 8.744328 5.419372
vertex 4.474278 8.765080 5.419372
vertex 4.474278 8.744328 5.439372
endloop
endfacet
facet normal 0 0 0
outer loop
vertex 4.474278 8.744328 5.439372
vertex 4.474278 8.765080 5.419372
vertex 4.474278 8.765080 5.439372
endloop
endfacet
facet normal 0 0 0
outer loop
vertex 4.392375 8.765080 5.439372
vertex 4.412851 8.785834 5.439372
vertex 4.412851 8.765080 5.419372
endloop
endfacet
facet normal 0 0 0
outer loop
vertex 4.412851 8.785834 5.439372
vertex 4.412851 8.785834 5.419372
vertex 4.412851 8.765080 5.419372
endloop
endfacet
facet normal 0 0 0
outer loop
vertex 4.474278 8.765080 5.419372
vertex 4.474278 8.785834 5.419372
vertex 4.474278 8.765080 5.439372
endloop
endfacet
facet normal 0 0 0
outer loop
vertex 4.474278 8.765080 5.439372
vertex 4.474278 8.785834 5.419372
vertex 4.474278 8.785834 5.439372
endloop
endfacet
facet normal 0 0 0
outer loop
vertex 4.412851 8.785834 5.419372
vertex 4.412851 8.785834 5.439372
vertex 4.412851 8.806587 5.419372
endloop
endfacet
facet normal 0 0 0
outer loop
vertex 4.412851 8.785834 5.439372
vertex 4.412851 8.806587 5.439372
vertex 4.412851 8.806587 5.419372
endloop
endfacet
facet normal 0 0 0
outer loop
vertex 4.474278 8.785834 5.419372
vertex 4.474278 8.806587 5.419372
vertex 4.474278 8.785834 5.439372
endloop
endfacet
facet normal 0 0 0
outer loop
vertex 4.474278 8.785834 5.439372
vertex 4.474278 8.806587 5.419372
vertex 4.474278 8.806587 5.439372
endloop
endfacet
facet normal 0 0 0
outer loop
vertex 4.412851 8.806587 5.419372
vertex 4.412851 8.806587 5.439372
vertex 4.412851 8.827341 5.419372
endloop
endfacet
facet normal 0 0 0
outer loop
vertex 4.412851 8.806587 5.439372
vertex 4.412851 8.827341 5.439372
vertex 4.412851 8.827341 5.419372
endloop
endfacet
facet normal 0 0 0
outer loop
vertex 4.474278 8.806587 5.419372
vertex 4.474278 8.827341 5.419372
vertex 4.474278 8.806587 5.439372
endloop
endfacet
facet normal 0 0 0
outer loop
vertex 4.474278 8.806587 5.439372
vertex 4.474278 8.827341 5.419372
vertex 4.474278 8.827341 5.439372
endloop
endfacet
facet normal 0 0 0
outer loop
vertex 4.412851 8.827341 5.419372
vertex 4.412851 8.827341 5.439372
vertex 4.412851 8.848094 5.419372
endloop
endfacet
facet normal 0 0 0
outer loop
vertex 4.412851 8.827341 5.439372
vertex 4.412851 8.848094 5.439372
vertex 4.412851 8.848094 5.419372
endloop
endfacet
facet normal 0 0 0
outer loop
vertex 4.474278 8.827341 5.419372
vertex 4.474278 8.848094 5.419372
vertex 4.474278 8.827341 5.439372
endloop
endfacet
facet normal 0 0 0
outer loop
vertex 4.474278 8.827341 5.439372
vertex 4.474278 8.848094 5.419372
vertex 4.474278 8.848094 5.439372
endloop
endfacet
facet normal 0 0 0
outer loop
vertex 4.392375 8.868848 5.439372
vertex 4.371899 8.868848 5.419372
vertex 4.392375 8.868848 5.419372
endloop
endfacet
facet normal 0 0 0
outer loop
vertex 4.412851 8.848094 5.439372
vertex 4.392375 8.868848 5.419372
vertex 4.412851 8.848094 5.419372
endloop
endfacet
facet normal 0 0 0
outer loop
vertex 4.392375 8.868848 5.439372
vertex 4.392375 8.868848 5.419372
vertex 4.412851 8.848094 5.439372
endloop
endfacet
facet normal 0 0 0
outer loop
vertex 4.474278 8.848094 5.419372
vertex 4.474278 8.868848 5.419372
vertex 4.474278 8.848094 5.439372
endloop
endfacet
facet normal 0 0 0
outer loop
vertex 4.474278 8.848094 5.439372
vertex 4.474278 8.868848 5.419372
vertex 4.474278 8.868848 5.439372
endloop
endfacet
facet normal 0 0 0
outer loop
vertex 4.371899 8.868848 5.419372
vertex 4.392375 8.868848 5.439372
vertex 4.392375 8.889601 5.419372
endloop
endfacet
facet normal 0 0 0
outer loop
vertex 4.392375 8.868848 5.439372
vertex 4.392375 8.889601 5.439372
vertex 4.392375 8.889601 5.419372
endloop
endfacet
facet normal 0 0 0
outer loop
vertex 4.474278 8.868848 5.419372
vertex 4.474278 8.889601 5.419372
vertex 4.474278 8.868848 5.439372
endloop
endfacet
facet normal 0 0 0
outer loop
vertex 4.474278 8.868848 5.439372
vertex 4.474278 8.889601 5.419372
vertex 4.474278 8.889601 5.439372
endloop
endfacet
facet normal 0 0 0
outer loop
vertex 4.392375 8.910354 5.439372
vertex 4.392375 8.889601 5.419372
vertex 4.392375 8.889601 5.439372
endloop
endfacet
facet normal 0 0 0
outer loop
vertex 4.392375 8.889601 5.419372
vertex 4.392375 8.910354 5.439372
vertex 4.412851 8.910354 5.419372
endloop
endfacet
facet normal 0 0 0
outer loop
vertex 4.474278 8.889601 5.419372
vertex 4.453803 8.910354 5.419372
vertex 4.474278 8.910354 5.439372
endloop
endfacet
facet normal 0 0 0
outer loop
vertex 4.474278 8.889601 5.419372
vertex 4.474278 8.910354 5.439372
vertex 4.474278 8.889601 5.439372
endloop
endfacet
facet normal 0 0 0
outer loop
vertex 4.412851 8.910354 5.419372
vertex 4.392375 8.931108 5.439372
vertex 4.412851 8.931108 5.419372
endloop
endfacet
facet normal 0 0 0
outer loop
vertex 4.392375 8.910354 5.439372
vertex 4.392375 8.931108 5.439372
vertex 4.412851 8.910354 5.419372
endloop
endfacet
facet normal 0 0 0
outer loop
vertex 4.474278 8.910354 5.439372
vertex 4.453803 8.931108 5.419372
vertex 4.474278 8.931108 5.439372
endloop
endfacet
facet normal 0 0 0
outer loop
vertex 4.453803 8.910354 5.419372
vertex 4.453803 8.931108 5.419372
vertex 4.474278 8.910354 5.439372
endloop
endfacet
facet normal 0 0 0
outer loop
vertex 4.412851 8.931108 5.419372
vertex 4.392375 8.931108 5.439372
vertex 4.412851 8.951860 5.439372
endloop
endfacet
facet normal 0 0 0
outer loop
vertex 4.392375 8.931108 5.439372
vertex 4.392375 8.951860 5.439372
vertex 4.412851 8.951860 5.439372
endloop
endfacet
facet normal 0 0 0
outer loop
vertex 4.412851 8.931108 5.419372
vertex 4.433327 8.951860 5.439372
vertex 4.433327 8.931108 5.419372
endloop
endfacet
facet normal 0 0 0
outer loop
vertex 4.412851 8.951860 5.439372
vertex 4.433327 8.951860 5.439372
vertex 4.412851 8.931108 5.419372
endloop
endfacet
facet normal 0 0 0
outer loop
vertex 4.433327 8.931108 5.419372
vertex 4.453803 8.951860 5.439372
vertex 4.453803 8.931108 5.419372
endloop
endfacet
facet normal 0 0 0
outer loop
vertex 4.433327 8.951860 5.439372
vertex 4.453803 8.951860 5.439372
vertex 4.433327 8.931108 5.419372
endloop
endfacet
facet normal 0 0 0
outer loop
vertex 4.453803 8.931108 5.419372
vertex 4.453803 8.951860 5.439372
vertex 4.474278 8.931108 5.439372
endloop
endfacet
facet normal 0 0 0
outer loop
vertex 4.453803 8.702821 5.439372
vertex 4.474278 8.682068 5.439372
vertex 4.474278 8.702821 5.439372
endloop
endfacet
facet normal 0 0 0
outer loop
vertex 4.412851 8.723575 5.439372
vertex 4.433327 8.702821 5.439372
vertex 4.433327 8.723575 5.439372
endloop
endfacet
facet normal 0 0 0
outer loop
vertex 4.453803 8.702821 5.439372
vertex 4.453803 8.723575 5.439372
vertex 4.433327 8.702821 5.439372
endloop
endfacet
facet normal 0 0 0
outer loop
vertex 4.453803 8.723575 5.439372
vertex 4.433327 8.723575 5.439372
vertex 4.433327 8.702821 5.439372
endloop
endfacet
facet normal 0 0 0
outer loop
vertex 4.474278 8.702821 5.439372
vertex 4.474278 8.723575 5.439372
vertex 4.453803 8.702821 5.439372
endloop
endfacet
facet normal 0 0 0
outer loop
vertex 4.474278 8.723575 5.439372
vertex 4.453803 8.723575 5.439372
vertex 4.453803 8.702821 5.439372
endloop
endfacet
facet normal 0 0 0
outer loop
vertex 4.412851 8.723575 5.439372
vertex 4.412851 8.744328 5.439372
vertex 4.392375 8.723575 5.439372
endloop
endfacet
facet normal 0 0 0
outer loop
vertex 4.412851 8.744328 5.439372
vertex 4.392375 8.744328 5.439372
vertex 4.392375 8.723575 5.439372
endloop
endfacet
facet normal 0 0 0
outer loop
vertex 4.433327 8.744328 5.459372
vertex 4.412851 8.744328 5.439372
vertex 4.433327 8.723575 5.439372
endloop
endfacet
facet normal 0 0 0
outer loop
vertex 4.412851 8.744328 5.439372
vertex 4.412851 8.723575 5.439372
vertex 4.433327 8.723575 5.439372
endloop
endfacet
facet normal 0 0 0
outer loop
vertex 4.453803 8.723575 5.439372
vertex 4.433327 8.744328 5.459372
vertex 4.433327 8.723575 5.439372
endloop
endfacet
facet normal 0 0 0
outer loop
vertex 4.453803 8.744328 5.459372
vertex 4.433327 8.744328 5.459372
vertex 4.453803 8.723575 5.439372
endloop
endfacet
facet normal 0 0 0
outer loop
vertex 4.474278 8.723575 5.439372
vertex 4.453803 8.744328 5.459372
vertex 4.453803 8.723575 5.439372
endloop
endfacet
facet normal 0 0 0
outer loop
vertex 4.474278 8.744328 5.459372
vertex 4.453803 8.744328 5.459372
vertex 4.474278 8.723575 5.439372
endloop
endfacet
facet normal 0 0 0
outer loop
vertex 4.474278 8.744328 5.459372
vertex 4.474278 8.723575 5.439372
vertex 4.474278 8.744328 5.439372
endloop
endfacet
facet normal 0 0 0
outer loop
vertex 4.412851 8.744328 5.439372
vertex 4.412851 8.765080 5.439372
vertex 4.392375 8.744328 5.439372
endloop
endfacet
facet normal 0 0 0
outer loop
vertex 4.412851 8.765080 5.439372
vertex 4.392375 8.765080 5.439372
vertex 4.392375 8.744328 5.439372
endloop
endfacet
facet normal 0 0 0
outer loop
vertex 4.433327 8.744328 5.459372
vertex 4.433327 8.765080 5.439372
vertex 4.412851 8.744328 5.439372
endloop
endfacet
facet normal 0 0 0
outer loop
vertex 4.433327 8.765080 5.439372
vertex 4.412851 8.765080 5.439372
vertex 4.412851 8.744328 5.439372
endloop
endfacet
facet normal 0 0 0
outer loop
vertex 4.433327 8.744328 5.459372
vertex 4.453803 8.765080 5.459372
vertex 4.433327 8.765080 5.439372
endloop
endfacet
facet normal 0 0 0
outer loop
vertex 4.474278 8.744328 5.439372
vertex 4.474278 8.765080 5.439372
vertex 4.474278 8.744328 5.459372
endloop
endfacet
facet normal 0 0 0
outer loop
vertex 4.474278 8.744328 5.459372
vertex 4.474278 8.765080 5.439372
vertex 4.474278 8.765080 5.459372
endloop
endfacet
facet normal 0 0 0
outer loop
vertex 4.412851 8.785834 5.459372
vertex 4.392375 8.765080 5.439372
vertex 4.412851 8.765080 5.439372
endloop
endfacet
facet normal 0 0 0
outer loop
vertex 4.412851 8.785834 5.459372
vertex 4.412851 8.785834 5.439372
vertex 4.392375 8.765080 5.439372
endloop
endfacet
facet normal 0 0 0
outer loop
vertex 4.433327 8.765080 5.439372
vertex 4.412851 8.785834 5.459372
vertex 4.412851 8.765080 5.439372
endloop
endfacet
facet normal 0 0 0
outer loop
vertex 4.433327 8.785834 5.459372
vertex 4.412851 8.785834 5.459372
vertex 4.433327 8.765080 5.439372
endloop
endfacet
facet normal 0 0 0
outer loop
vertex 4.453803 8.765080 5.459372
vertex 4.433327 8.785834 5.459372
vertex 4.433327 8.765080 5.439372
endloop
endfacet
facet normal 0 0 0
outer loop
vertex 4.474278 8.765080 5.439372
vertex 4.474278 8.785834 5.439372
vertex 4.474278 8.765080 5.459372
endloop
endfacet
facet normal 0 0 0
outer loop
vertex 4.474278 8.765080 5.459372
vertex 4.474278 8.785834 5.439372
vertex 4.474278 8.785834 5.459372
endloop
endfacet
facet normal 0 0 0
outer loop
vertex 4.412851 8.785834 5.439372
vertex 4.412851 8.785834 5.459372
vertex 4.412851 8.806587 5.439372
endloop
endfacet
facet normal 0 0 0
outer loop
vertex 4.412851 8.785834 5.459372
vertex 4.412851 8.806587 5.459372
vertex 4.412851 8.806587 5.439372
endloop
endfacet
facet normal 0 0 0
outer loop
vertex 4.474278 8.785834 5.439372
vertex 4.474278 8.806587 5.439372
vertex 4.474278 8.785834 5.459372
endloop
endfacet
facet normal 0 0 0
outer loop
vertex 4.474278 8.785834 5.459372
vertex 4.474278 8.806587 5.439372
vertex 4.474278 8.806587 5.459372
endloop
endfacet
facet normal 0 0 0
outer loop
vertex 4.412851 8.806587 5.439372
vertex 4.412851 8.806587 5.459372
vertex 4.412851 8.827341 5.439372
endloop
endfacet
facet normal 0 0 0
outer loop
vertex 4.412851 8.806587 5.459372
vertex 4.412851 8.827341 5.459372
vertex 4.412851 8.827341 5.439372
endloop
endfacet
facet normal 0 0 0
outer loop
vertex 4.474278 8.806587 5.439372
vertex 4.474278 8.827341 5.439372
vertex 4.474278 8.806587 5.459372
endloop
endfacet
facet normal 0 0 0
outer loop
vertex 4.474278 8.806587 5.459372
vertex 4.474278 8.827341 5.439372
vertex 4.474278 8.827341 5.459372
endloop
endfacet
facet normal 0 0 0
outer loop
vertex 4.412851 8.827341 5.439372
vertex 4.412851 8.827341 5.459372
vertex 4.412851 8.848094 5.439372
endloop
endfacet
facet normal 0 0 0
outer loop
vertex 4.412851 8.827341 5.459372
vertex 4.412851 8.848094 5.459372
vertex 4.412851 8.848094 5.439372
endloop
endfacet
facet normal 0 0 0
outer loop
vertex 4.474278 8.827341 5.439372
vertex 4.474278 8.848094 5.439372
vertex 4.474278 8.827341 5.459372
endloop
endfacet
facet normal 0 0 0
outer loop
vertex 4.474278 8.827341 5.459372
vertex 4.474278 8.848094 5.439372
vertex 4.474278 8.848094 5.459372
endloop
endfacet
facet normal 0 0 0
outer loop
vertex 4.392375 8.868848 5.439372
vertex 4.412851 8.848094 5.439372
vertex 4.412851 8.868848 5.459372
endloop
endfacet
facet normal 0 0 0
outer loop
vertex 4.412851 8.848094 5.439372
vertex 4.412851 8.848094 5.459372
vertex 4.412851 8.868848 5.459372
endloop
endfacet
facet normal 0 0 0
outer loop
vertex 4.474278 8.848094 5.439372
vertex 4.474278 8.868848 5.439372
vertex 4.474278 8.848094 5.459372
endloop
endfacet
facet normal 0 0 0
outer loop
vertex 4.474278 8.848094 5.459372
vertex 4.474278 8.868848 5.439372
vertex 4.474278 8.868848 5.459372
endloop
endfacet
facet normal 0 0 0
outer loop
vertex 4.412851 8.889601 5.459372
vertex 4.392375 8.868848 5.439372
vertex 4.412851 8.868848 5.459372
endloop
endfacet
facet normal 0 0 0
outer loop
vertex 4.392375 8.889601 5.439372
vertex 4.392375 8.868848 5.439372
vertex 4.412851 8.889601 5.459372
endloop
endfacet
facet normal 0 0 0
outer loop
vertex 4.474278 8.868848 5.439372
vertex 4.474278 8.889601 5.439372
vertex 4.474278 8.868848 5.459372
endloop
endfacet
facet normal 0 0 0
outer loop
vertex 4.474278 8.868848 5.459372
vertex 4.474278 8.889601 5.439372
vertex 4.474278 8.889601 5.459372
endloop
endfacet
facet normal 0 0 0
outer loop
vertex 4.392375 8.889601 5.439372
vertex 4.392375 8.910354 5.459372
vertex 4.392375 8.910354 5.439372
endloop
endfacet
facet normal 0 0 0
outer loop
vertex 4.412851 8.889601 5.459372
vertex 4.392375 8.910354 5.459372
vertex 4.392375 8.889601 5.439372
endloop
endfacet
facet normal 0 0 0
outer loop
vertex 4.474278 8.889601 5.439372
vertex 4.474278 8.910354 5.439372
vertex 4.474278 8.889601 5.459372
endloop
endfacet
facet normal 0 0 0
outer loop
vertex 4.474278 8.889601 5.459372
vertex 4.474278 8.910354 5.439372
vertex 4.474278 8.910354 5.459372
endloop
endfacet
facet normal 0 0 0
outer loop
vertex 4.392375 8.910354 5.439372
vertex 4.392375 8.910354 5.459372
vertex 4.392375 8.931108 5.439372
endloop
endfacet
facet normal 0 0 0
outer loop
vertex 4.392375 8.910354 5.459372
vertex 4.392375 8.931108 5.459372
vertex 4.392375 8.931108 5.439372
endloop
endfacet
facet normal 0 0 0
outer loop
vertex 4.474278 8.931108 5.439372
vertex 4.453803 8.931108 5.459372
vertex 4.474278 8.910354 5.459372
endloop
endfacet
facet normal 0 0 0
outer loop
vertex 4.474278 8.931108 5.439372
vertex 4.474278 8.910354 5.459372
vertex 4.474278 8.910354 5.439372
endloop
endfacet
facet normal 0 0 0
outer loop
vertex 4.392375 8.931108 5.459372
vertex 4.392375 8.951860 5.439372
vertex 4.392375 8.931108 5.439372
endloop
endfacet
facet normal 0 0 0
outer loop
vertex 4.392375 8.931108 5.459372
vertex 4.412851 8.951860 5.459372
vertex 4.392375 8.951860 5.439372
endloop
endfacet
facet normal 0 0 0
outer loop
vertex 4.453803 8.951860 5.439372
vertex 4.433327 8.951860 5.459372
vertex 4.453803 8.931108 5.459372
endloop
endfacet
facet normal 0 0 0
outer loop
vertex 4.474278 8.931108 5.439372
vertex 4.453803 8.951860 5.439372
vertex 4.453803 8.931108 5.459372
endloop
endfacet
facet normal 0 0 0
outer loop
vertex 4.392375 8.951860 5.439372
vertex 4.412851 8.951860 5.459372
vertex 4.412851 8.951860 5.439372
endloop
endfacet
facet normal 0 0 0
outer loop
vertex 4.433327 8.951860 5.439372
vertex 4.412851 8.951860 5.439372
vertex 4.433327 8.951860 5.459372
endloop
endfacet
facet normal 0 0 0
outer loop
vertex 4.412851 8.951860 5.439372
vertex 4.412851 8.951860 5.459372
vertex 4.433327 8.951860 5.459372
endloop
endfacet
facet normal 0 0 0
outer loop
vertex 4.433327 8.951860 5.459372
vertex 4.453803 8.951860 5.439372
vertex 4.433327 8.951860 5.439372
endloop
endfacet
facet normal 0 0 0
outer loop
vertex 4.453803 8.765080 5.459372
vertex 4.433327 8.744328 5.459372
vertex 4.453803 8.744328 5.459372
endloop
endfacet
facet normal 0 0 0
outer loop
vertex 4.474278 8.744328 5.459372
vertex 4.474278 8.765080 5.459372
vertex 4.453803 8.744328 5.459372
endloop
endfacet
facet normal 0 0 0
outer loop
vertex 4.474278 8.765080 5.459372
vertex 4.453803 8.765080 5.459372
vertex 4.453803 8.744328 5.459372
endloop
endfacet
facet normal 0 0 0
outer loop
vertex 4.433327 8.785834 5.459372
vertex 4.453803 8.765080 5.459372
vertex 4.453803 8.785834 5.459372
endloop
endfacet
facet normal 0 0 0
outer loop
vertex 4.474278 8.765080 5.459372
vertex 4.474278 8.785834 5.459372
vertex 4.453803 8.765080 5.459372
endloop
endfacet
facet normal 0 0 0
outer loop
vertex 4.474278 8.785834 5.459372
vertex 4.453803 8.785834 5.459372
vertex 4.453803 8.765080 5.459372
endloop
endfacet
facet normal 0 0 0
outer loop
vertex 4.433327 8.785834 5.459372
vertex 4.433327 8.806587 5.459372
vertex 4.412851 8.785834 5.459372
endloop
endfacet
facet normal 0 0 0
outer loop
vertex 4.433327 8.806587 5.459372
vertex 4.412851 8.806587 5.459372
vertex 4.412851 8.785834 5.459372
endloop
endfacet
facet normal 0 0 0
outer loop
vertex 4.453803 8.785834 5.459372
vertex 4.453803 8.806587 5.459372
vertex 4.433327 8.785834 5.459372
endloop
endfacet
facet normal 0 0 0
outer loop
vertex 4.453803 8.806587 5.459372
vertex 4.433327 8.806587 5.459372
vertex 4.433327 8.785834 5.459372
endloop
endfacet
facet normal 0 0 0
outer loop
vertex 4.474278 8.785834 5.459372
vertex 4.474278 8.806587 5.459372
vertex 4.453803 8.785834 5.459372
endloop
endfacet
facet normal 0 0 0
outer loop
vertex 4.474278 8.806587 5.459372
vertex 4.453803 8.806587 5.459372
vertex 4.453803 8.785834 5.459372
endloop
endfacet
facet normal 0 0 0
outer loop
vertex 4.433327 8.806587 5.459372
vertex 4.433327 8.827341 5.459372
vertex 4.412851 8.806587 5.459372
endloop
endfacet
facet normal 0 0 0
outer loop
vertex 4.433327 8.827341 5.459372
vertex 4.412851 8.827341 5.459372
vertex 4.412851 8.806587 5.459372
endloop
endfacet
facet normal 0 0 0
outer loop
vertex 4.453803 8.806587 5.459372
vertex 4.453803 8.827341 5.459372
vertex 4.433327 8.806587 5.459372
endloop
endfacet
facet normal 0 0 0
outer loop
vertex 4.453803 8.827341 5.459372
vertex 4.433327 8.827341 5.459372
vertex 4.433327 8.806587 5.459372
endloop
endfacet
facet normal 0 0 0
outer loop
vertex 4.474278 8.806587 5.459372
vertex 4.474278 8.827341 5.459372
vertex 4.453803 8.806587 5.459372
endloop
endfacet
facet normal 0 0 0
outer loop
vertex 4.474278 8.827341 5.459372
vertex 4.453803 8.827341 5.459372
vertex 4.453803 8.806587 5.459372
endloop
endfacet
facet normal 0 0 0
outer loop
vertex 4.433327 8.848094 5.479372
vertex 4.412851 8.848094 5.459372
vertex 4.433327 8.827341 5.459372
endloop
endfacet
facet normal 0 0 0
outer loop
vertex 4.412851 8.848094 5.459372
vertex 4.412851 8.827341 5.459372
vertex 4.433327 8.827341 5.459372
endloop
endfacet
facet normal 0 0 0
outer loop
vertex 4.453803 8.827341 5.459372
vertex 4.433327 8.848094 5.479372
vertex 4.433327 8.827341 5.459372
endloop
endfacet
facet normal 0 0 0
outer loop
vertex 4.453803 8.848094 5.479372
vertex 4.433327 8.848094 5.479372
vertex 4.453803 8.827341 5.459372
endloop
endfacet
facet normal 0 0 0
outer loop
vertex 4.474278 8.827341 5.459372
vertex 4.453803 8.848094 5.479372
vertex 4.453803 8.827341 5.459372
endloop
endfacet
facet normal 0 0 0
outer loop
vertex 4.474278 8.848094 5.479372
vertex 4.453803 8.848094 5.479372
vertex 4.474278 8.827341 5.459372
endloop
endfacet
facet normal 0 0 0
outer loop
vertex 4.474278 8.848094 5.479372
vertex 4.474278 8.827341 5.459372
vertex 4.474278 8.848094 5.459372
endloop
endfacet
facet normal 0 0 0
outer loop
vertex 4.433327 8.868848 5.479372
vertex 4.412851 8.848094 5.459372
vertex 4.433327 8.848094 5.479372
endloop
endfacet
facet normal 0 0 0
outer loop
vertex 4.412851 8.868848 5.459372
vertex 4.412851 8.848094 5.459372
vertex 4.433327 8.868848 5.479372
endloop
endfacet
facet normal 0 0 0
outer loop
vertex 4.474278 8.848094 5.459372
vertex 4.474278 8.868848 5.459372
vertex 4.474278 8.848094 5.479372
endloop
endfacet
facet normal 0 0 0
outer loop
vertex 4.474278 8.848094 5.479372
vertex 4.474278 8.868848 5.459372
vertex 4.474278 8.868848 5.479372
endloop
endfacet
facet normal 0 0 0
outer loop
vertex 4.412851 8.868848 5.459372
vertex 4.412851 8.889601 5.479372
vertex 4.412851 8.889601 5.459372
endloop
endfacet
facet normal 0 0 0
outer loop
vertex 4.433327 8.868848 5.479372
vertex 4.412851 8.889601 5.479372
vertex 4.412851 8.868848 5.459372
endloop
endfacet
facet normal 0 0 0
outer loop
vertex 4.474278 8.868848 5.459372
vertex 4.474278 8.889601 5.459372
vertex 4.474278 8.868848 5.479372
endloop
endfacet
facet normal 0 0 0
outer loop
vertex 4.474278 8.868848 5.479372
vertex 4.474278 8.889601 5.459372
vertex 4.474278 8.889601 5.479372
endloop
endfacet
facet normal 0 0 0
outer loop
vertex 4.392375 8.910354 5.459372
vertex 4.412851 8.889601 5.459372
vertex 4.412851 8.910354 5.479372
endloop
endfacet
facet normal 0 0 0
outer loop
vertex 4.412851 8.889601 5.459372
vertex 4.412851 8.889601 5.479372
vertex 4.412851 8.910354 5.479372
endloop
endfacet
facet normal 0 0 0
outer loop
vertex 4.474278 8.889601 5.459372
vertex 4.474278 8.910354 5.459372
vertex 4.474278 8.889601 5.479372
endloop
endfacet
facet normal 0 0 0
outer loop
vertex 4.474278 8.889601 5.479372
vertex 4.474278 8.910354 5.459372
vertex 4.474278 8.910354 5.479372
endloop
endfacet
facet normal 0 0 0
outer loop
vertex 4.412851 8.910354 5.479372
vertex 4.412851 8.931108 5.459372
vertex 4.392375 8.910354 5.459372
endloop
endfacet
facet normal 0 0 0
outer loop
vertex 4.412851 8.931108 5.459372
vertex 4.392375 8.931108 5.459372
vertex 4.392375 8.910354 5.459372
endloop
endfacet
facet normal 0 0 0
outer loop
vertex 4.412851 8.910354 5.479372
vertex 4.433327 8.931108 5.479372
vertex 4.412851 8.931108 5.459372
endloop
endfacet
facet normal 0 0 0
outer loop
vertex 4.474278 8.910354 5.459372
vertex 4.453803 8.931108 5.459372
vertex 4.474278 8.931108 5.479372
endloop
endfacet
facet normal 0 0 0
outer loop
vertex 4.474278 8.910354 5.459372
vertex 4.474278 8.931108 5.479372
vertex 4.474278 8.910354 5.479372
endloop
endfacet
facet normal 0 0 0
outer loop
vertex 4.412851 8.951860 5.459372
vertex 4.392375 8.931108 5.459372
vertex 4.412851 8.931108 5.459372
endloop
endfacet
facet normal 0 0 0
outer loop
vertex 4.433327 8.931108 5.479372
vertex 4.433327 8.951860 5.459372
vertex 4.412851 8.931108 5.459372
endloop
endfacet
facet normal 0 0 0
outer loop
vertex 4.433327 8.951860 5.459372
vertex 4.412851 8.951860 5.459372
vertex 4.412851 8.931108 5.459372
endloop
endfacet
facet normal 0 0 0
outer loop
vertex 4.433327 8.951860 5.459372
vertex 4.433327 8.931108 5.479372
vertex 4.453803 8.931108 5.459372
endloop
endfacet
facet normal 0 0 0
outer loop
vertex 4.433327 8.931108 5.479372
vertex 4.453803 8.931108 5.479372
vertex 4.453803 8.931108 5.459372
endloop
endfacet
facet normal 0 0 0
outer loop
vertex 4.474278 8.931108 5.479372
vertex 4.453803 8.931108 5.459372
vertex 4.453803 8.931108 5.479372
endloop
endfacet
facet normal 0 0 0
outer loop
vertex 4.453803 8.848094 5.479372
vertex 4.453803 8.868848 5.479372
vertex 4.433327 8.848094 5.479372
endloop
endfacet
facet normal 0 0 0
outer loop
vertex 4.453803 8.868848 5.479372
vertex 4.433327 8.868848 5.479372
vertex 4.433327 8.848094 5.479372
endloop
endfacet
facet normal 0 0 0
outer loop
vertex 4.474278 8.848094 5.479372
vertex 4.474278 8.868848 5.479372
vertex 4.453803 8.848094 5.479372
endloop
endfacet
facet normal 0 0 0
outer loop
vertex 4.474278 8.868848 5.479372
vertex 4.453803 8.868848 5.479372
vertex 4.453803 8.848094 5.479372
endloop
endfacet
facet normal 0 0 0
outer loop
vertex 4.412851 8.889601 5.479372
vertex 4.433327 8.868848 5.479372
vertex 4.433327 8.889601 5.479372
endloop
endfacet
facet normal 0 0 0
outer loop
vertex 4.453803 8.868848 5.479372
vertex 4.453803 8.889601 5.479372
vertex 4.433327 8.868848 5.479372
endloop
endfacet
facet normal 0 0 0
outer loop
vertex 4.453803 8.889601 5.479372
vertex 4.433327 8.889601 5.479372
vertex 4.433327 8.868848 5.479372
endloop
endfacet
facet normal 0 0 0
outer loop
vertex 4.474278 8.868848 5.479372
vertex 4.474278 8.889601 5.479372
vertex 4.453803 8.868848 5.479372
endloop
endfacet
facet normal 0 0 0
outer loop
vertex 4.474278 8.889601 5.479372
vertex 4.453803 8.889601 5.479372
vertex 4.453803 8.868848 5.479372
endloop
endfacet
facet normal 0 0 0
outer loop
vertex 4.433327 8.889601 5.479372
vertex 4.433327 8.910354 5.479372
vertex 4.412851 8.889601 5.479372
endloop
endfacet
facet normal 0 0 0
outer loop
vertex 4.433327 8.910354 5.479372
vertex 4.412851 8.910354 5.479372
vertex 4.412851 8.889601 5.479372
endloop
endfacet
facet normal 0 0 0
outer loop
vertex 4.453803 8.889601 5.479372
vertex 4.453803 8.910354 5.479372
vertex 4.433327 8.889601 5.479372
endloop
endfacet
facet normal 0 0 0
outer loop
vertex 4.453803 8.910354 5.479372
vertex 4.433327 8.910354 5.479372
vertex 4.433327 8.889601 5.479372
endloop
endfacet
facet normal 0 0 0
outer loop
vertex 4.474278 8.889601 5.479372
vertex 4.474278 8.910354 5.479372
vertex 4.453803 8.889601 5.479372
endloop
endfacet
facet normal 0 0 0
outer loop
vertex 4.474278 8.910354 5.479372
vertex 4.453803 8.910354 5.479372
vertex 4.453803 8.889601 5.479372
endloop
endfacet
facet normal 0 0 0
outer loop
vertex 4.433327 8.931108 5.479372
vertex 4.412851 8.910354 5.479372
vertex 4.433327 8.910354 5.479372
endloop
endfacet
facet normal 0 0 0
outer loop
vertex 4.453803 8.910354 5.479372
vertex 4.453803 8.931108 5.479372
vertex 4.433327 8.910354 5.479372
endloop
endfacet
facet normal 0 0 0
outer loop
vertex 4.453803 8.931108 5.479372
vertex 4.433327 8.931108 5.479372
vertex 4.433327 8.910354 5.479372
endloop
endfacet
facet normal 0 0 0
outer loop
vertex 4.474278 8.910354 5.479372
vertex 4.474278 8.931108 5.479372
vertex 4.453803 8.910354 5.479372
endloop
endfacet
facet normal 0 0 0
outer loop
vertex 4.474278 8.931108 5.479372
vertex 4.453803 8.931108 5.479372
vertex 4.453803 8.910354 5.479372
endloop
endfacet
endsolid B-16-Plag.075
