solid B-16-Plag.225
facet normal 0 0 0
outer loop
vertex 25.257215 7.893441 9.679372
vertex 25.236738 7.893441 9.679372
vertex 25.257215 7.914195 9.679372
endloop
endfacet
facet normal 0 0 0
outer loop
vertex 25.257215 7.914195 9.679372
vertex 25.236738 7.893441 9.679372
vertex 25.236738 7.914195 9.679372
endloop
endfacet
facet normal 0 0 0
outer loop
vertex 25.277691 7.893441 9.679372
vertex 25.257215 7.893441 9.679372
vertex 25.277691 7.914195 9.679372
endloop
endfacet
facet normal 0 0 0
outer loop
vertex 25.277691 7.914195 9.679372
vertex 25.257215 7.893441 9.679372
vertex 25.257215 7.914195 9.679372
endloop
endfacet
facet normal 0 0 0
outer loop
vertex 25.236738 7.914195 9.679372
vertex 25.216263 7.934948 9.679372
vertex 25.236738 7.934948 9.679372
endloop
endfacet
facet normal 0 0 0
outer loop
vertex 25.257215 7.914195 9.679372
vertex 25.236738 7.914195 9.679372
vertex 25.257215 7.934948 9.679372
endloop
endfacet
facet normal 0 0 0
outer loop
vertex 25.257215 7.934948 9.679372
vertex 25.236738 7.914195 9.679372
vertex 25.236738 7.934948 9.679372
endloop
endfacet
facet normal 0 0 0
outer loop
vertex 25.277691 7.914195 9.679372
vertex 25.257215 7.914195 9.679372
vertex 25.277691 7.934948 9.679372
endloop
endfacet
facet normal 0 0 0
outer loop
vertex 25.277691 7.934948 9.679372
vertex 25.257215 7.914195 9.679372
vertex 25.257215 7.934948 9.679372
endloop
endfacet
facet normal 0 0 0
outer loop
vertex 25.236738 7.934948 9.679372
vertex 25.216263 7.934948 9.679372
vertex 25.236738 7.955701 9.679372
endloop
endfacet
facet normal 0 0 0
outer loop
vertex 25.236738 7.955701 9.679372
vertex 25.216263 7.934948 9.679372
vertex 25.216263 7.955701 9.679372
endloop
endfacet
facet normal 0 0 0
outer loop
vertex 25.257215 7.934948 9.679372
vertex 25.236738 7.934948 9.679372
vertex 25.257215 7.955701 9.679372
endloop
endfacet
facet normal 0 0 0
outer loop
vertex 25.257215 7.955701 9.679372
vertex 25.236738 7.934948 9.679372
vertex 25.236738 7.955701 9.679372
endloop
endfacet
facet normal 0 0 0
outer loop
vertex 25.277691 7.934948 9.679372
vertex 25.257215 7.934948 9.679372
vertex 25.277691 7.955701 9.679372
endloop
endfacet
facet normal 0 0 0
outer loop
vertex 25.277691 7.955701 9.679372
vertex 25.257215 7.934948 9.679372
vertex 25.257215 7.955701 9.679372
endloop
endfacet
facet normal 0 0 0
outer loop
vertex 25.236738 7.955701 9.679372
vertex 25.216263 7.955701 9.679372
vertex 25.236738 7.976455 9.679372
endloop
endfacet
facet normal 0 0 0
outer loop
vertex 25.236738 7.976455 9.679372
vertex 25.216263 7.955701 9.679372
vertex 25.216263 7.976455 9.679372
endloop
endfacet
facet normal 0 0 0
outer loop
vertex 25.257215 7.955701 9.679372
vertex 25.236738 7.955701 9.679372
vertex 25.257215 7.976455 9.679372
endloop
endfacet
facet normal 0 0 0
outer loop
vertex 25.257215 7.976455 9.679372
vertex 25.236738 7.955701 9.679372
vertex 25.236738 7.976455 9.679372
endloop
endfacet
facet normal 0 0 0
outer loop
vertex 25.277691 7.955701 9.679372
vertex 25.257215 7.955701 9.679372
vertex 25.277691 7.976455 9.679372
endloop
endfacet
facet normal 0 0 0
outer loop
vertex 25.277691 7.976455 9.679372
vertex 25.257215 7.955701 9.679372
vertex 25.257215 7.976455 9.679372
endloop
endfacet
facet normal 0 0 0
outer loop
vertex 25.236738 7.976455 9.679372
vertex 25.216263 7.976455 9.679372
vertex 25.236738 7.997208 9.679372
endloop
endfacet
facet normal 0 0 0
outer loop
vertex 25.236738 7.997208 9.679372
vertex 25.216263 7.976455 9.679372
vertex 25.216263 7.997208 9.679372
endloop
endfacet
facet normal 0 0 0
outer loop
vertex 25.257215 7.976455 9.679372
vertex 25.236738 7.976455 9.679372
vertex 25.257215 7.997208 9.679372
endloop
endfacet
facet normal 0 0 0
outer loop
vertex 25.257215 7.997208 9.679372
vertex 25.236738 7.976455 9.679372
vertex 25.236738 7.997208 9.679372
endloop
endfacet
facet normal 0 0 0
outer loop
vertex 25.257215 7.997208 9.679372
vertex 25.277691 7.976455 9.679372
vertex 25.257215 7.976455 9.679372
endloop
endfacet
facet normal 0 0 0
outer loop
vertex 25.236738 7.997208 9.679372
vertex 25.216263 7.997208 9.679372
vertex 25.236738 8.017962 9.679372
endloop
endfacet
facet normal 0 0 0
outer loop
vertex 25.236738 8.017962 9.679372
vertex 25.216263 7.997208 9.679372
vertex 25.216263 8.017962 9.679372
endloop
endfacet
facet normal 0 0 0
outer loop
vertex 25.257215 7.997208 9.679372
vertex 25.236738 7.997208 9.679372
vertex 25.257215 8.017962 9.679372
endloop
endfacet
facet normal 0 0 0
outer loop
vertex 25.257215 8.017962 9.679372
vertex 25.236738 7.997208 9.679372
vertex 25.236738 8.017962 9.679372
endloop
endfacet
facet normal 0 0 0
outer loop
vertex 25.216263 8.017962 9.679372
vertex 25.236738 8.038714 9.679372
vertex 25.236738 8.017962 9.679372
endloop
endfacet
facet normal 0 0 0
outer loop
vertex 25.236738 8.038714 9.679372
vertex 25.257215 8.017962 9.679372
vertex 25.236738 8.017962 9.679372
endloop
endfacet
facet normal 0 0 0
outer loop
vertex 25.257215 7.893441 9.699371
vertex 25.236738 7.893441 9.679372
vertex 25.257215 7.893441 9.679372
endloop
endfacet
facet normal 0 0 0
outer loop
vertex 25.277691 7.893441 9.679372
vertex 25.277691 7.893441 9.699371
vertex 25.257215 7.893441 9.679372
endloop
endfacet
facet normal 0 0 0
outer loop
vertex 25.257215 7.893441 9.679372
vertex 25.277691 7.893441 9.699371
vertex 25.257215 7.893441 9.699371
endloop
endfacet
facet normal 0 0 0
outer loop
vertex 25.277691 7.893441 9.679372
vertex 25.298166 7.893441 9.699371
vertex 25.277691 7.893441 9.699371
endloop
endfacet
facet normal 0 0 0
outer loop
vertex 25.236738 7.893441 9.679372
vertex 25.236738 7.914195 9.699371
vertex 25.236738 7.914195 9.679372
endloop
endfacet
facet normal 0 0 0
outer loop
vertex 25.257215 7.893441 9.699371
vertex 25.236738 7.914195 9.699371
vertex 25.236738 7.893441 9.679372
endloop
endfacet
facet normal 0 0 0
outer loop
vertex 25.298166 7.893441 9.699371
vertex 25.277691 7.914195 9.679372
vertex 25.298166 7.914195 9.699371
endloop
endfacet
facet normal 0 0 0
outer loop
vertex 25.277691 7.893441 9.679372
vertex 25.277691 7.914195 9.679372
vertex 25.298166 7.893441 9.699371
endloop
endfacet
facet normal 0 0 0
outer loop
vertex 25.236738 7.914195 9.699371
vertex 25.216263 7.934948 9.679372
vertex 25.236738 7.914195 9.679372
endloop
endfacet
facet normal 0 0 0
outer loop
vertex 25.216263 7.934948 9.699371
vertex 25.216263 7.934948 9.679372
vertex 25.236738 7.914195 9.699371
endloop
endfacet
facet normal 0 0 0
outer loop
vertex 25.298166 7.914195 9.699371
vertex 25.277691 7.934948 9.679372
vertex 25.298166 7.934948 9.699371
endloop
endfacet
facet normal 0 0 0
outer loop
vertex 25.277691 7.914195 9.679372
vertex 25.277691 7.934948 9.679372
vertex 25.298166 7.914195 9.699371
endloop
endfacet
facet normal 0 0 0
outer loop
vertex 25.216263 7.934948 9.699371
vertex 25.216263 7.955701 9.679372
vertex 25.216263 7.934948 9.679372
endloop
endfacet
facet normal 0 0 0
outer loop
vertex 25.216263 7.934948 9.699371
vertex 25.236738 7.955701 9.699371
vertex 25.216263 7.955701 9.679372
endloop
endfacet
facet normal 0 0 0
outer loop
vertex 25.298166 7.934948 9.699371
vertex 25.277691 7.955701 9.679372
vertex 25.298166 7.955701 9.699371
endloop
endfacet
facet normal 0 0 0
outer loop
vertex 25.277691 7.934948 9.679372
vertex 25.277691 7.955701 9.679372
vertex 25.298166 7.934948 9.699371
endloop
endfacet
facet normal 0 0 0
outer loop
vertex 25.216263 7.955701 9.679372
vertex 25.216263 7.976455 9.699371
vertex 25.216263 7.976455 9.679372
endloop
endfacet
facet normal 0 0 0
outer loop
vertex 25.236738 7.955701 9.699371
vertex 25.216263 7.976455 9.699371
vertex 25.216263 7.955701 9.679372
endloop
endfacet
facet normal 0 0 0
outer loop
vertex 25.298166 7.955701 9.699371
vertex 25.277691 7.976455 9.679372
vertex 25.298166 7.976455 9.699371
endloop
endfacet
facet normal 0 0 0
outer loop
vertex 25.277691 7.955701 9.679372
vertex 25.277691 7.976455 9.679372
vertex 25.298166 7.955701 9.699371
endloop
endfacet
facet normal 0 0 0
outer loop
vertex 25.216263 7.976455 9.679372
vertex 25.216263 7.976455 9.699371
vertex 25.216263 7.997208 9.679372
endloop
endfacet
facet normal 0 0 0
outer loop
vertex 25.216263 7.976455 9.699371
vertex 25.216263 7.997208 9.699371
vertex 25.216263 7.997208 9.679372
endloop
endfacet
facet normal 0 0 0
outer loop
vertex 25.277691 7.976455 9.679372
vertex 25.257215 7.997208 9.679372
vertex 25.277691 7.997208 9.699371
endloop
endfacet
facet normal 0 0 0
outer loop
vertex 25.277691 7.976455 9.679372
vertex 25.277691 7.997208 9.699371
vertex 25.298166 7.976455 9.699371
endloop
endfacet
facet normal 0 0 0
outer loop
vertex 25.277691 7.997208 9.699371
vertex 25.298166 7.997208 9.699371
vertex 25.298166 7.976455 9.699371
endloop
endfacet
facet normal 0 0 0
outer loop
vertex 25.216263 7.997208 9.679372
vertex 25.216263 7.997208 9.699371
vertex 25.216263 8.017962 9.679372
endloop
endfacet
facet normal 0 0 0
outer loop
vertex 25.216263 7.997208 9.699371
vertex 25.216263 8.017962 9.699371
vertex 25.216263 8.017962 9.679372
endloop
endfacet
facet normal 0 0 0
outer loop
vertex 25.277691 7.997208 9.699371
vertex 25.257215 8.017962 9.679372
vertex 25.277691 8.017962 9.699371
endloop
endfacet
facet normal 0 0 0
outer loop
vertex 25.257215 7.997208 9.679372
vertex 25.257215 8.017962 9.679372
vertex 25.277691 7.997208 9.699371
endloop
endfacet
facet normal 0 0 0
outer loop
vertex 25.298166 7.997208 9.699371
vertex 25.277691 7.997208 9.699371
vertex 25.298166 8.017962 9.699371
endloop
endfacet
facet normal 0 0 0
outer loop
vertex 25.298166 8.017962 9.699371
vertex 25.277691 7.997208 9.699371
vertex 25.277691 8.017962 9.699371
endloop
endfacet
facet normal 0 0 0
outer loop
vertex 25.216263 8.038714 9.699371
vertex 25.216263 8.017962 9.679372
vertex 25.216263 8.017962 9.699371
endloop
endfacet
facet normal 0 0 0
outer loop
vertex 25.216263 8.017962 9.679372
vertex 25.216263 8.038714 9.699371
vertex 25.236738 8.038714 9.679372
endloop
endfacet
facet normal 0 0 0
outer loop
vertex 25.257215 8.017962 9.679372
vertex 25.236738 8.038714 9.679372
vertex 25.257215 8.038714 9.699371
endloop
endfacet
facet normal 0 0 0
outer loop
vertex 25.257215 8.017962 9.679372
vertex 25.257215 8.038714 9.699371
vertex 25.277691 8.017962 9.699371
endloop
endfacet
facet normal 0 0 0
outer loop
vertex 25.257215 8.038714 9.699371
vertex 25.277691 8.038714 9.699371
vertex 25.277691 8.017962 9.699371
endloop
endfacet
facet normal 0 0 0
outer loop
vertex 25.277691 8.038714 9.699371
vertex 25.298166 8.017962 9.699371
vertex 25.277691 8.017962 9.699371
endloop
endfacet
facet normal 0 0 0
outer loop
vertex 25.236738 8.038714 9.679372
vertex 25.216263 8.038714 9.699371
vertex 25.236738 8.059468 9.699371
endloop
endfacet
facet normal 0 0 0
outer loop
vertex 25.216263 8.038714 9.699371
vertex 25.216263 8.059468 9.699371
vertex 25.236738 8.059468 9.699371
endloop
endfacet
facet normal 0 0 0
outer loop
vertex 25.236738 8.038714 9.679372
vertex 25.236738 8.059468 9.699371
vertex 25.257215 8.038714 9.699371
endloop
endfacet
facet normal 0 0 0
outer loop
vertex 25.236738 8.059468 9.699371
vertex 25.257215 8.059468 9.699371
vertex 25.257215 8.038714 9.699371
endloop
endfacet
facet normal 0 0 0
outer loop
vertex 25.277691 8.038714 9.699371
vertex 25.257215 8.038714 9.699371
vertex 25.277691 8.059468 9.699371
endloop
endfacet
facet normal 0 0 0
outer loop
vertex 25.277691 8.059468 9.699371
vertex 25.257215 8.038714 9.699371
vertex 25.257215 8.059468 9.699371
endloop
endfacet
facet normal 0 0 0
outer loop
vertex 25.298166 8.059468 9.699371
vertex 25.277691 8.038714 9.699371
vertex 25.277691 8.059468 9.699371
endloop
endfacet
facet normal 0 0 0
outer loop
vertex 25.236738 8.059468 9.699371
vertex 25.216263 8.059468 9.699371
vertex 25.236738 8.080221 9.699371
endloop
endfacet
facet normal 0 0 0
outer loop
vertex 25.236738 8.080221 9.699371
vertex 25.216263 8.059468 9.699371
vertex 25.216263 8.080221 9.699371
endloop
endfacet
facet normal 0 0 0
outer loop
vertex 25.257215 8.059468 9.699371
vertex 25.236738 8.059468 9.699371
vertex 25.257215 8.080221 9.699371
endloop
endfacet
facet normal 0 0 0
outer loop
vertex 25.257215 8.080221 9.699371
vertex 25.236738 8.059468 9.699371
vertex 25.236738 8.080221 9.699371
endloop
endfacet
facet normal 0 0 0
outer loop
vertex 25.277691 8.059468 9.699371
vertex 25.257215 8.059468 9.699371
vertex 25.277691 8.080221 9.699371
endloop
endfacet
facet normal 0 0 0
outer loop
vertex 25.277691 8.080221 9.699371
vertex 25.257215 8.059468 9.699371
vertex 25.257215 8.080221 9.699371
endloop
endfacet
facet normal 0 0 0
outer loop
vertex 25.277691 8.080221 9.699371
vertex 25.298166 8.059468 9.699371
vertex 25.277691 8.059468 9.699371
endloop
endfacet
facet normal 0 0 0
outer loop
vertex 25.236738 8.080221 9.699371
vertex 25.216263 8.080221 9.699371
vertex 25.236738 8.100974 9.699371
endloop
endfacet
facet normal 0 0 0
outer loop
vertex 25.236738 8.100974 9.699371
vertex 25.216263 8.080221 9.699371
vertex 25.216263 8.100974 9.699371
endloop
endfacet
facet normal 0 0 0
outer loop
vertex 25.257215 8.080221 9.699371
vertex 25.236738 8.080221 9.699371
vertex 25.257215 8.100974 9.699371
endloop
endfacet
facet normal 0 0 0
outer loop
vertex 25.257215 8.100974 9.699371
vertex 25.236738 8.080221 9.699371
vertex 25.236738 8.100974 9.699371
endloop
endfacet
facet normal 0 0 0
outer loop
vertex 25.277691 8.080221 9.699371
vertex 25.257215 8.080221 9.699371
vertex 25.277691 8.100974 9.699371
endloop
endfacet
facet normal 0 0 0
outer loop
vertex 25.277691 8.100974 9.699371
vertex 25.257215 8.080221 9.699371
vertex 25.257215 8.100974 9.699371
endloop
endfacet
facet normal 0 0 0
outer loop
vertex 25.216263 8.100974 9.699371
vertex 25.236738 8.121728 9.699371
vertex 25.236738 8.100974 9.699371
endloop
endfacet
facet normal 0 0 0
outer loop
vertex 25.236738 8.121728 9.699371
vertex 25.257215 8.100974 9.699371
vertex 25.236738 8.100974 9.699371
endloop
endfacet
facet normal 0 0 0
outer loop
vertex 25.236738 7.893441 9.719372
vertex 25.257215 7.893441 9.699371
vertex 25.257215 7.893441 9.719372
endloop
endfacet
facet normal 0 0 0
outer loop
vertex 25.277691 7.893441 9.699371
vertex 25.277691 7.893441 9.719372
vertex 25.257215 7.893441 9.699371
endloop
endfacet
facet normal 0 0 0
outer loop
vertex 25.257215 7.893441 9.699371
vertex 25.277691 7.893441 9.719372
vertex 25.257215 7.893441 9.719372
endloop
endfacet
facet normal 0 0 0
outer loop
vertex 25.298166 7.893441 9.699371
vertex 25.277691 7.893441 9.719372
vertex 25.277691 7.893441 9.699371
endloop
endfacet
facet normal 0 0 0
outer loop
vertex 25.236738 7.893441 9.719372
vertex 25.216263 7.914195 9.719372
vertex 25.236738 7.914195 9.699371
endloop
endfacet
facet normal 0 0 0
outer loop
vertex 25.257215 7.893441 9.699371
vertex 25.236738 7.893441 9.719372
vertex 25.236738 7.914195 9.699371
endloop
endfacet
facet normal 0 0 0
outer loop
vertex 25.298166 7.893441 9.699371
vertex 25.298166 7.914195 9.719372
vertex 25.277691 7.893441 9.719372
endloop
endfacet
facet normal 0 0 0
outer loop
vertex 25.298166 7.914195 9.719372
vertex 25.298166 7.893441 9.699371
vertex 25.298166 7.914195 9.699371
endloop
endfacet
facet normal 0 0 0
outer loop
vertex 25.216263 7.934948 9.699371
vertex 25.216263 7.914195 9.719372
vertex 25.216263 7.934948 9.719372
endloop
endfacet
facet normal 0 0 0
outer loop
vertex 25.236738 7.914195 9.699371
vertex 25.216263 7.914195 9.719372
vertex 25.216263 7.934948 9.699371
endloop
endfacet
facet normal 0 0 0
outer loop
vertex 25.318642 7.934948 9.719372
vertex 25.298166 7.914195 9.719372
vertex 25.298166 7.934948 9.699371
endloop
endfacet
facet normal 0 0 0
outer loop
vertex 25.298166 7.914195 9.719372
vertex 25.298166 7.914195 9.699371
vertex 25.298166 7.934948 9.699371
endloop
endfacet
facet normal 0 0 0
outer loop
vertex 25.216263 7.955701 9.719372
vertex 25.216263 7.934948 9.699371
vertex 25.216263 7.934948 9.719372
endloop
endfacet
facet normal 0 0 0
outer loop
vertex 25.216263 7.934948 9.699371
vertex 25.216263 7.955701 9.719372
vertex 25.236738 7.955701 9.699371
endloop
endfacet
facet normal 0 0 0
outer loop
vertex 25.318642 7.934948 9.719372
vertex 25.298166 7.955701 9.699371
vertex 25.318642 7.955701 9.719372
endloop
endfacet
facet normal 0 0 0
outer loop
vertex 25.298166 7.934948 9.699371
vertex 25.298166 7.955701 9.699371
vertex 25.318642 7.934948 9.719372
endloop
endfacet
facet normal 0 0 0
outer loop
vertex 25.216263 7.976455 9.699371
vertex 25.216263 7.955701 9.719372
vertex 25.216263 7.976455 9.719372
endloop
endfacet
facet normal 0 0 0
outer loop
vertex 25.236738 7.955701 9.699371
vertex 25.216263 7.955701 9.719372
vertex 25.216263 7.976455 9.699371
endloop
endfacet
facet normal 0 0 0
outer loop
vertex 25.318642 7.955701 9.719372
vertex 25.298166 7.955701 9.699371
vertex 25.298166 7.976455 9.719372
endloop
endfacet
facet normal 0 0 0
outer loop
vertex 25.298166 7.955701 9.699371
vertex 25.298166 7.976455 9.699371
vertex 25.298166 7.976455 9.719372
endloop
endfacet
facet normal 0 0 0
outer loop
vertex 25.216263 7.976455 9.699371
vertex 25.216263 7.976455 9.719372
vertex 25.216263 7.997208 9.699371
endloop
endfacet
facet normal 0 0 0
outer loop
vertex 25.216263 7.976455 9.719372
vertex 25.216263 7.997208 9.719372
vertex 25.216263 7.997208 9.699371
endloop
endfacet
facet normal 0 0 0
outer loop
vertex 25.298166 7.976455 9.699371
vertex 25.298166 7.997208 9.699371
vertex 25.298166 7.976455 9.719372
endloop
endfacet
facet normal 0 0 0
outer loop
vertex 25.298166 7.976455 9.719372
vertex 25.298166 7.997208 9.699371
vertex 25.298166 7.997208 9.719372
endloop
endfacet
facet normal 0 0 0
outer loop
vertex 25.216263 7.997208 9.699371
vertex 25.216263 7.997208 9.719372
vertex 25.216263 8.017962 9.699371
endloop
endfacet
facet normal 0 0 0
outer loop
vertex 25.216263 7.997208 9.719372
vertex 25.216263 8.017962 9.719372
vertex 25.216263 8.017962 9.699371
endloop
endfacet
facet normal 0 0 0
outer loop
vertex 25.298166 7.997208 9.699371
vertex 25.298166 8.017962 9.699371
vertex 25.298166 7.997208 9.719372
endloop
endfacet
facet normal 0 0 0
outer loop
vertex 25.298166 7.997208 9.719372
vertex 25.298166 8.017962 9.699371
vertex 25.298166 8.017962 9.719372
endloop
endfacet
facet normal 0 0 0
outer loop
vertex 25.216263 8.017962 9.699371
vertex 25.216263 8.017962 9.719372
vertex 25.216263 8.038714 9.699371
endloop
endfacet
facet normal 0 0 0
outer loop
vertex 25.216263 8.017962 9.719372
vertex 25.216263 8.038714 9.719372
vertex 25.216263 8.038714 9.699371
endloop
endfacet
facet normal 0 0 0
outer loop
vertex 25.298166 8.017962 9.699371
vertex 25.277691 8.038714 9.699371
vertex 25.298166 8.038714 9.719372
endloop
endfacet
facet normal 0 0 0
outer loop
vertex 25.298166 8.017962 9.699371
vertex 25.298166 8.038714 9.719372
vertex 25.298166 8.017962 9.719372
endloop
endfacet
facet normal 0 0 0
outer loop
vertex 25.216263 8.038714 9.699371
vertex 25.216263 8.038714 9.719372
vertex 25.216263 8.059468 9.699371
endloop
endfacet
facet normal 0 0 0
outer loop
vertex 25.216263 8.038714 9.719372
vertex 25.216263 8.059468 9.719372
vertex 25.216263 8.059468 9.699371
endloop
endfacet
facet normal 0 0 0
outer loop
vertex 25.277691 8.038714 9.699371
vertex 25.298166 8.059468 9.699371
vertex 25.298166 8.038714 9.719372
endloop
endfacet
facet normal 0 0 0
outer loop
vertex 25.298166 8.038714 9.719372
vertex 25.298166 8.059468 9.699371
vertex 25.298166 8.059468 9.719372
endloop
endfacet
facet normal 0 0 0
outer loop
vertex 25.216263 8.059468 9.699371
vertex 25.216263 8.059468 9.719372
vertex 25.216263 8.080221 9.699371
endloop
endfacet
facet normal 0 0 0
outer loop
vertex 25.216263 8.059468 9.719372
vertex 25.216263 8.080221 9.719372
vertex 25.216263 8.080221 9.699371
endloop
endfacet
facet normal 0 0 0
outer loop
vertex 25.298166 8.059468 9.699371
vertex 25.277691 8.080221 9.719372
vertex 25.298166 8.059468 9.719372
endloop
endfacet
facet normal 0 0 0
outer loop
vertex 25.277691 8.080221 9.699371
vertex 25.277691 8.080221 9.719372
vertex 25.298166 8.059468 9.699371
endloop
endfacet
facet normal 0 0 0
outer loop
vertex 25.195787 8.100974 9.719372
vertex 25.216263 8.100974 9.699371
vertex 25.216263 8.080221 9.719372
endloop
endfacet
facet normal 0 0 0
outer loop
vertex 25.216263 8.100974 9.699371
vertex 25.216263 8.080221 9.699371
vertex 25.216263 8.080221 9.719372
endloop
endfacet
facet normal 0 0 0
outer loop
vertex 25.277691 8.080221 9.699371
vertex 25.277691 8.100974 9.699371
vertex 25.277691 8.080221 9.719372
endloop
endfacet
facet normal 0 0 0
outer loop
vertex 25.277691 8.080221 9.719372
vertex 25.277691 8.100974 9.699371
vertex 25.277691 8.100974 9.719372
endloop
endfacet
facet normal 0 0 0
outer loop
vertex 25.216263 8.100974 9.699371
vertex 25.195787 8.100974 9.719372
vertex 25.216263 8.121728 9.719372
endloop
endfacet
facet normal 0 0 0
outer loop
vertex 25.216263 8.100974 9.699371
vertex 25.216263 8.121728 9.719372
vertex 25.236738 8.121728 9.699371
endloop
endfacet
facet normal 0 0 0
outer loop
vertex 25.257215 8.100974 9.699371
vertex 25.236738 8.121728 9.699371
vertex 25.257215 8.121728 9.719372
endloop
endfacet
facet normal 0 0 0
outer loop
vertex 25.257215 8.121728 9.719372
vertex 25.277691 8.100974 9.719372
vertex 25.257215 8.100974 9.699371
endloop
endfacet
facet normal 0 0 0
outer loop
vertex 25.277691 8.100974 9.719372
vertex 25.277691 8.100974 9.699371
vertex 25.257215 8.100974 9.699371
endloop
endfacet
facet normal 0 0 0
outer loop
vertex 25.236738 8.121728 9.699371
vertex 25.216263 8.121728 9.719372
vertex 25.236738 8.121728 9.719372
endloop
endfacet
facet normal 0 0 0
outer loop
vertex 25.257215 8.121728 9.719372
vertex 25.236738 8.121728 9.699371
vertex 25.236738 8.121728 9.719372
endloop
endfacet
facet normal 0 0 0
outer loop
vertex 25.257215 7.893441 9.739372
vertex 25.236738 7.893441 9.719372
vertex 25.257215 7.893441 9.719372
endloop
endfacet
facet normal 0 0 0
outer loop
vertex 25.277691 7.893441 9.719372
vertex 25.257215 7.893441 9.739372
vertex 25.257215 7.893441 9.719372
endloop
endfacet
facet normal 0 0 0
outer loop
vertex 25.236738 7.893441 9.719372
vertex 25.236738 7.914195 9.739372
vertex 25.216263 7.914195 9.719372
endloop
endfacet
facet normal 0 0 0
outer loop
vertex 25.236738 7.914195 9.739372
vertex 25.216263 7.914195 9.739372
vertex 25.216263 7.914195 9.719372
endloop
endfacet
facet normal 0 0 0
outer loop
vertex 25.257215 7.893441 9.739372
vertex 25.236738 7.914195 9.739372
vertex 25.236738 7.893441 9.719372
endloop
endfacet
facet normal 0 0 0
outer loop
vertex 25.277691 7.893441 9.719372
vertex 25.277691 7.914195 9.739372
vertex 25.257215 7.893441 9.739372
endloop
endfacet
facet normal 0 0 0
outer loop
vertex 25.298166 7.914195 9.719372
vertex 25.277691 7.914195 9.739372
vertex 25.277691 7.893441 9.719372
endloop
endfacet
facet normal 0 0 0
outer loop
vertex 25.216263 7.914195 9.719372
vertex 25.216263 7.914195 9.739372
vertex 25.216263 7.934948 9.719372
endloop
endfacet
facet normal 0 0 0
outer loop
vertex 25.216263 7.914195 9.739372
vertex 25.216263 7.934948 9.739372
vertex 25.216263 7.934948 9.719372
endloop
endfacet
facet normal 0 0 0
outer loop
vertex 25.298166 7.914195 9.719372
vertex 25.298166 7.934948 9.739372
vertex 25.277691 7.914195 9.739372
endloop
endfacet
facet normal 0 0 0
outer loop
vertex 25.318642 7.934948 9.719372
vertex 25.298166 7.934948 9.739372
vertex 25.298166 7.914195 9.719372
endloop
endfacet
facet normal 0 0 0
outer loop
vertex 25.216263 7.934948 9.719372
vertex 25.216263 7.934948 9.739372
vertex 25.216263 7.955701 9.719372
endloop
endfacet
facet normal 0 0 0
outer loop
vertex 25.216263 7.934948 9.739372
vertex 25.216263 7.955701 9.739372
vertex 25.216263 7.955701 9.719372
endloop
endfacet
facet normal 0 0 0
outer loop
vertex 25.318642 7.934948 9.719372
vertex 25.318642 7.955701 9.739372
vertex 25.298166 7.934948 9.739372
endloop
endfacet
facet normal 0 0 0
outer loop
vertex 25.318642 7.955701 9.739372
vertex 25.318642 7.934948 9.719372
vertex 25.318642 7.955701 9.719372
endloop
endfacet
facet normal 0 0 0
outer loop
vertex 25.216263 7.955701 9.719372
vertex 25.216263 7.955701 9.739372
vertex 25.216263 7.976455 9.719372
endloop
endfacet
facet normal 0 0 0
outer loop
vertex 25.216263 7.955701 9.739372
vertex 25.216263 7.976455 9.739372
vertex 25.216263 7.976455 9.719372
endloop
endfacet
facet normal 0 0 0
outer loop
vertex 25.318642 7.955701 9.719372
vertex 25.298166 7.976455 9.719372
vertex 25.318642 7.976455 9.739372
endloop
endfacet
facet normal 0 0 0
outer loop
vertex 25.318642 7.955701 9.719372
vertex 25.318642 7.976455 9.739372
vertex 25.318642 7.955701 9.739372
endloop
endfacet
facet normal 0 0 0
outer loop
vertex 25.216263 7.976455 9.719372
vertex 25.216263 7.976455 9.739372
vertex 25.216263 7.997208 9.719372
endloop
endfacet
facet normal 0 0 0
outer loop
vertex 25.216263 7.976455 9.739372
vertex 25.216263 7.997208 9.739372
vertex 25.216263 7.997208 9.719372
endloop
endfacet
facet normal 0 0 0
outer loop
vertex 25.318642 7.976455 9.739372
vertex 25.298166 7.997208 9.719372
vertex 25.318642 7.997208 9.739372
endloop
endfacet
facet normal 0 0 0
outer loop
vertex 25.298166 7.976455 9.719372
vertex 25.298166 7.997208 9.719372
vertex 25.318642 7.976455 9.739372
endloop
endfacet
facet normal 0 0 0
outer loop
vertex 25.195787 8.017962 9.739372
vertex 25.216263 8.017962 9.719372
vertex 25.216263 7.997208 9.739372
endloop
endfacet
facet normal 0 0 0
outer loop
vertex 25.216263 8.017962 9.719372
vertex 25.216263 7.997208 9.719372
vertex 25.216263 7.997208 9.739372
endloop
endfacet
facet normal 0 0 0
outer loop
vertex 25.318642 7.997208 9.739372
vertex 25.298166 7.997208 9.719372
vertex 25.298166 8.017962 9.739372
endloop
endfacet
facet normal 0 0 0
outer loop
vertex 25.298166 7.997208 9.719372
vertex 25.298166 8.017962 9.719372
vertex 25.298166 8.017962 9.739372
endloop
endfacet
facet normal 0 0 0
outer loop
vertex 25.216263 8.017962 9.719372
vertex 25.195787 8.038714 9.739372
vertex 25.216263 8.038714 9.719372
endloop
endfacet
facet normal 0 0 0
outer loop
vertex 25.195787 8.017962 9.739372
vertex 25.195787 8.038714 9.739372
vertex 25.216263 8.017962 9.719372
endloop
endfacet
facet normal 0 0 0
outer loop
vertex 25.298166 8.017962 9.719372
vertex 25.298166 8.038714 9.719372
vertex 25.298166 8.017962 9.739372
endloop
endfacet
facet normal 0 0 0
outer loop
vertex 25.298166 8.017962 9.739372
vertex 25.298166 8.038714 9.719372
vertex 25.298166 8.038714 9.739372
endloop
endfacet
facet normal 0 0 0
outer loop
vertex 25.216263 8.038714 9.719372
vertex 25.195787 8.059468 9.739372
vertex 25.216263 8.059468 9.719372
endloop
endfacet
facet normal 0 0 0
outer loop
vertex 25.195787 8.038714 9.739372
vertex 25.195787 8.059468 9.739372
vertex 25.216263 8.038714 9.719372
endloop
endfacet
facet normal 0 0 0
outer loop
vertex 25.298166 8.038714 9.719372
vertex 25.298166 8.059468 9.719372
vertex 25.298166 8.038714 9.739372
endloop
endfacet
facet normal 0 0 0
outer loop
vertex 25.298166 8.038714 9.739372
vertex 25.298166 8.059468 9.719372
vertex 25.298166 8.059468 9.739372
endloop
endfacet
facet normal 0 0 0
outer loop
vertex 25.216263 8.059468 9.719372
vertex 25.195787 8.080221 9.739372
vertex 25.216263 8.080221 9.719372
endloop
endfacet
facet normal 0 0 0
outer loop
vertex 25.195787 8.059468 9.739372
vertex 25.195787 8.080221 9.739372
vertex 25.216263 8.059468 9.719372
endloop
endfacet
facet normal 0 0 0
outer loop
vertex 25.298166 8.059468 9.719372
vertex 25.277691 8.080221 9.719372
vertex 25.298166 8.080221 9.739372
endloop
endfacet
facet normal 0 0 0
outer loop
vertex 25.298166 8.059468 9.719372
vertex 25.298166 8.080221 9.739372
vertex 25.298166 8.059468 9.739372
endloop
endfacet
facet normal 0 0 0
outer loop
vertex 25.195787 8.100974 9.719372
vertex 25.195787 8.080221 9.739372
vertex 25.195787 8.100974 9.739372
endloop
endfacet
facet normal 0 0 0
outer loop
vertex 25.216263 8.080221 9.719372
vertex 25.195787 8.080221 9.739372
vertex 25.195787 8.100974 9.719372
endloop
endfacet
facet normal 0 0 0
outer loop
vertex 25.298166 8.080221 9.739372
vertex 25.277691 8.100974 9.719372
vertex 25.298166 8.100974 9.739372
endloop
endfacet
facet normal 0 0 0
outer loop
vertex 25.277691 8.080221 9.719372
vertex 25.277691 8.100974 9.719372
vertex 25.298166 8.080221 9.739372
endloop
endfacet
facet normal 0 0 0
outer loop
vertex 25.195787 8.121728 9.739372
vertex 25.195787 8.100974 9.719372
vertex 25.195787 8.100974 9.739372
endloop
endfacet
facet normal 0 0 0
outer loop
vertex 25.195787 8.100974 9.719372
vertex 25.195787 8.121728 9.739372
vertex 25.216263 8.121728 9.719372
endloop
endfacet
facet normal 0 0 0
outer loop
vertex 25.277691 8.100974 9.719372
vertex 25.257215 8.121728 9.719372
vertex 25.277691 8.121728 9.739372
endloop
endfacet
facet normal 0 0 0
outer loop
vertex 25.277691 8.100974 9.719372
vertex 25.277691 8.121728 9.739372
vertex 25.298166 8.100974 9.739372
endloop
endfacet
facet normal 0 0 0
outer loop
vertex 25.216263 8.121728 9.719372
vertex 25.195787 8.121728 9.739372
vertex 25.216263 8.142481 9.739372
endloop
endfacet
facet normal 0 0 0
outer loop
vertex 25.195787 8.121728 9.739372
vertex 25.195787 8.142481 9.739372
vertex 25.216263 8.142481 9.739372
endloop
endfacet
facet normal 0 0 0
outer loop
vertex 25.216263 8.121728 9.719372
vertex 25.236738 8.142481 9.739372
vertex 25.236738 8.121728 9.719372
endloop
endfacet
facet normal 0 0 0
outer loop
vertex 25.216263 8.142481 9.739372
vertex 25.236738 8.142481 9.739372
vertex 25.216263 8.121728 9.719372
endloop
endfacet
facet normal 0 0 0
outer loop
vertex 25.236738 8.121728 9.719372
vertex 25.257215 8.142481 9.739372
vertex 25.257215 8.121728 9.719372
endloop
endfacet
facet normal 0 0 0
outer loop
vertex 25.236738 8.142481 9.739372
vertex 25.257215 8.142481 9.739372
vertex 25.236738 8.121728 9.719372
endloop
endfacet
facet normal 0 0 0
outer loop
vertex 25.257215 8.121728 9.719372
vertex 25.257215 8.142481 9.739372
vertex 25.277691 8.121728 9.739372
endloop
endfacet
facet normal 0 0 0
outer loop
vertex 25.257215 8.142481 9.739372
vertex 25.277691 8.142481 9.739372
vertex 25.277691 8.121728 9.739372
endloop
endfacet
facet normal 0 0 0
outer loop
vertex 25.216263 8.142481 9.739372
vertex 25.195787 8.142481 9.739372
vertex 25.216263 8.163235 9.739372
endloop
endfacet
facet normal 0 0 0
outer loop
vertex 25.216263 8.163235 9.739372
vertex 25.195787 8.142481 9.739372
vertex 25.195787 8.163235 9.739372
endloop
endfacet
facet normal 0 0 0
outer loop
vertex 25.236738 8.142481 9.739372
vertex 25.216263 8.142481 9.739372
vertex 25.236738 8.163235 9.739372
endloop
endfacet
facet normal 0 0 0
outer loop
vertex 25.236738 8.163235 9.739372
vertex 25.216263 8.142481 9.739372
vertex 25.216263 8.163235 9.739372
endloop
endfacet
facet normal 0 0 0
outer loop
vertex 25.257215 8.142481 9.739372
vertex 25.236738 8.142481 9.739372
vertex 25.257215 8.163235 9.739372
endloop
endfacet
facet normal 0 0 0
outer loop
vertex 25.257215 8.163235 9.739372
vertex 25.236738 8.142481 9.739372
vertex 25.236738 8.163235 9.739372
endloop
endfacet
facet normal 0 0 0
outer loop
vertex 25.257215 8.163235 9.739372
vertex 25.277691 8.142481 9.739372
vertex 25.257215 8.142481 9.739372
endloop
endfacet
facet normal 0 0 0
outer loop
vertex 25.257215 7.893441 9.739372
vertex 25.257215 7.914195 9.759372
vertex 25.236738 7.914195 9.739372
endloop
endfacet
facet normal 0 0 0
outer loop
vertex 25.257215 7.893441 9.739372
vertex 25.277691 7.914195 9.739372
vertex 25.257215 7.914195 9.759372
endloop
endfacet
facet normal 0 0 0
outer loop
vertex 25.277691 7.914195 9.739372
vertex 25.277691 7.914195 9.759372
vertex 25.257215 7.914195 9.759372
endloop
endfacet
facet normal 0 0 0
outer loop
vertex 25.277691 7.914195 9.739372
vertex 25.298166 7.914195 9.759372
vertex 25.277691 7.914195 9.759372
endloop
endfacet
facet normal 0 0 0
outer loop
vertex 25.236738 7.914195 9.739372
vertex 25.236738 7.934948 9.739372
vertex 25.216263 7.914195 9.739372
endloop
endfacet
facet normal 0 0 0
outer loop
vertex 25.236738 7.934948 9.739372
vertex 25.216263 7.934948 9.739372
vertex 25.216263 7.914195 9.739372
endloop
endfacet
facet normal 0 0 0
outer loop
vertex 25.257215 7.934948 9.759372
vertex 25.236738 7.914195 9.739372
vertex 25.257215 7.914195 9.759372
endloop
endfacet
facet normal 0 0 0
outer loop
vertex 25.236738 7.934948 9.739372
vertex 25.236738 7.914195 9.739372
vertex 25.257215 7.934948 9.759372
endloop
endfacet
facet normal 0 0 0
outer loop
vertex 25.277691 7.914195 9.739372
vertex 25.298166 7.934948 9.739372
vertex 25.298166 7.914195 9.759372
endloop
endfacet
facet normal 0 0 0
outer loop
vertex 25.298166 7.934948 9.739372
vertex 25.318642 7.934948 9.759372
vertex 25.298166 7.914195 9.759372
endloop
endfacet
facet normal 0 0 0
outer loop
vertex 25.318642 7.934948 9.759372
vertex 25.318642 7.914195 9.759372
vertex 25.298166 7.914195 9.759372
endloop
endfacet
facet normal 0 0 0
outer loop
vertex 25.339119 7.914195 9.759372
vertex 25.318642 7.914195 9.759372
vertex 25.339119 7.934948 9.759372
endloop
endfacet
facet normal 0 0 0
outer loop
vertex 25.339119 7.934948 9.759372
vertex 25.318642 7.914195 9.759372
vertex 25.318642 7.934948 9.759372
endloop
endfacet
facet normal 0 0 0
outer loop
vertex 25.236738 7.955701 9.759372
vertex 25.216263 7.955701 9.739372
vertex 25.236738 7.934948 9.739372
endloop
endfacet
facet normal 0 0 0
outer loop
vertex 25.216263 7.955701 9.739372
vertex 25.216263 7.934948 9.739372
vertex 25.236738 7.934948 9.739372
endloop
endfacet
facet normal 0 0 0
outer loop
vertex 25.257215 7.934948 9.759372
vertex 25.236738 7.955701 9.759372
vertex 25.236738 7.934948 9.739372
endloop
endfacet
facet normal 0 0 0
outer loop
vertex 25.298166 7.934948 9.739372
vertex 25.318642 7.955701 9.739372
vertex 25.318642 7.934948 9.759372
endloop
endfacet
facet normal 0 0 0
outer loop
vertex 25.318642 7.955701 9.739372
vertex 25.339119 7.955701 9.759372
vertex 25.318642 7.934948 9.759372
endloop
endfacet
facet normal 0 0 0
outer loop
vertex 25.339119 7.955701 9.759372
vertex 25.339119 7.934948 9.759372
vertex 25.318642 7.934948 9.759372
endloop
endfacet
facet normal 0 0 0
outer loop
vertex 25.236738 7.976455 9.759372
vertex 25.216263 7.955701 9.739372
vertex 25.236738 7.955701 9.759372
endloop
endfacet
facet normal 0 0 0
outer loop
vertex 25.216263 7.976455 9.739372
vertex 25.216263 7.955701 9.739372
vertex 25.236738 7.976455 9.759372
endloop
endfacet
facet normal 0 0 0
outer loop
vertex 25.339119 7.955701 9.759372
vertex 25.318642 7.976455 9.739372
vertex 25.339119 7.976455 9.759372
endloop
endfacet
facet normal 0 0 0
outer loop
vertex 25.318642 7.955701 9.739372
vertex 25.318642 7.976455 9.739372
vertex 25.339119 7.955701 9.759372
endloop
endfacet
facet normal 0 0 0
outer loop
vertex 25.236738 7.997208 9.759372
vertex 25.216263 7.976455 9.739372
vertex 25.236738 7.976455 9.759372
endloop
endfacet
facet normal 0 0 0
outer loop
vertex 25.216263 7.997208 9.739372
vertex 25.216263 7.976455 9.739372
vertex 25.236738 7.997208 9.759372
endloop
endfacet
facet normal 0 0 0
outer loop
vertex 25.339119 7.976455 9.759372
vertex 25.318642 7.976455 9.739372
vertex 25.318642 7.997208 9.759372
endloop
endfacet
facet normal 0 0 0
outer loop
vertex 25.318642 7.976455 9.739372
vertex 25.318642 7.997208 9.739372
vertex 25.318642 7.997208 9.759372
endloop
endfacet
facet normal 0 0 0
outer loop
vertex 25.195787 8.017962 9.739372
vertex 25.216263 7.997208 9.739372
vertex 25.216263 8.017962 9.739372
endloop
endfacet
facet normal 0 0 0
outer loop
vertex 25.236738 8.017962 9.759372
vertex 25.216263 7.997208 9.739372
vertex 25.236738 7.997208 9.759372
endloop
endfacet
facet normal 0 0 0
outer loop
vertex 25.216263 8.017962 9.739372
vertex 25.216263 7.997208 9.739372
vertex 25.236738 8.017962 9.759372
endloop
endfacet
facet normal 0 0 0
outer loop
vertex 25.318642 7.997208 9.739372
vertex 25.298166 8.017962 9.739372
vertex 25.318642 8.017962 9.759372
endloop
endfacet
facet normal 0 0 0
outer loop
vertex 25.339119 8.017962 9.759372
vertex 25.318642 7.997208 9.759372
vertex 25.318642 7.997208 9.739372
endloop
endfacet
facet normal 0 0 0
outer loop
vertex 25.339119 8.017962 9.759372
vertex 25.318642 7.997208 9.739372
vertex 25.318642 8.017962 9.759372
endloop
endfacet
facet normal 0 0 0
outer loop
vertex 25.216263 8.017962 9.739372
vertex 25.216263 8.038714 9.739372
vertex 25.195787 8.017962 9.739372
endloop
endfacet
facet normal 0 0 0
outer loop
vertex 25.216263 8.038714 9.739372
vertex 25.195787 8.038714 9.739372
vertex 25.195787 8.017962 9.739372
endloop
endfacet
facet normal 0 0 0
outer loop
vertex 25.236738 8.038714 9.759372
vertex 25.216263 8.017962 9.739372
vertex 25.236738 8.017962 9.759372
endloop
endfacet
facet normal 0 0 0
outer loop
vertex 25.216263 8.038714 9.739372
vertex 25.216263 8.017962 9.739372
vertex 25.236738 8.038714 9.759372
endloop
endfacet
facet normal 0 0 0
outer loop
vertex 25.318642 8.017962 9.759372
vertex 25.298166 8.038714 9.739372
vertex 25.318642 8.038714 9.759372
endloop
endfacet
facet normal 0 0 0
outer loop
vertex 25.298166 8.017962 9.739372
vertex 25.298166 8.038714 9.739372
vertex 25.318642 8.017962 9.759372
endloop
endfacet
facet normal 0 0 0
outer loop
vertex 25.318642 8.038714 9.759372
vertex 25.339119 8.017962 9.759372
vertex 25.318642 8.017962 9.759372
endloop
endfacet
facet normal 0 0 0
outer loop
vertex 25.216263 8.038714 9.739372
vertex 25.216263 8.059468 9.739372
vertex 25.195787 8.038714 9.739372
endloop
endfacet
facet normal 0 0 0
outer loop
vertex 25.216263 8.059468 9.739372
vertex 25.195787 8.059468 9.739372
vertex 25.195787 8.038714 9.739372
endloop
endfacet
facet normal 0 0 0
outer loop
vertex 25.236738 8.059468 9.759372
vertex 25.216263 8.038714 9.739372
vertex 25.236738 8.038714 9.759372
endloop
endfacet
facet normal 0 0 0
outer loop
vertex 25.216263 8.059468 9.739372
vertex 25.216263 8.038714 9.739372
vertex 25.236738 8.059468 9.759372
endloop
endfacet
facet normal 0 0 0
outer loop
vertex 25.318642 8.038714 9.759372
vertex 25.298166 8.059468 9.739372
vertex 25.318642 8.059468 9.759372
endloop
endfacet
facet normal 0 0 0
outer loop
vertex 25.298166 8.038714 9.739372
vertex 25.298166 8.059468 9.739372
vertex 25.318642 8.038714 9.759372
endloop
endfacet
facet normal 0 0 0
outer loop
vertex 25.216263 8.080221 9.759372
vertex 25.195787 8.080221 9.739372
vertex 25.216263 8.059468 9.739372
endloop
endfacet
facet normal 0 0 0
outer loop
vertex 25.195787 8.080221 9.739372
vertex 25.195787 8.059468 9.739372
vertex 25.216263 8.059468 9.739372
endloop
endfacet
facet normal 0 0 0
outer loop
vertex 25.236738 8.059468 9.759372
vertex 25.216263 8.080221 9.759372
vertex 25.216263 8.059468 9.739372
endloop
endfacet
facet normal 0 0 0
outer loop
vertex 25.318642 8.059468 9.759372
vertex 25.298166 8.080221 9.739372
vertex 25.318642 8.080221 9.759372
endloop
endfacet
facet normal 0 0 0
outer loop
vertex 25.298166 8.059468 9.739372
vertex 25.298166 8.080221 9.739372
vertex 25.318642 8.059468 9.759372
endloop
endfacet
facet normal 0 0 0
outer loop
vertex 25.216263 8.100974 9.759372
vertex 25.195787 8.080221 9.739372
vertex 25.216263 8.080221 9.759372
endloop
endfacet
facet normal 0 0 0
outer loop
vertex 25.195787 8.100974 9.739372
vertex 25.195787 8.080221 9.739372
vertex 25.216263 8.100974 9.759372
endloop
endfacet
facet normal 0 0 0
outer loop
vertex 25.318642 8.080221 9.759372
vertex 25.298166 8.100974 9.739372
vertex 25.318642 8.100974 9.759372
endloop
endfacet
facet normal 0 0 0
outer loop
vertex 25.298166 8.080221 9.739372
vertex 25.298166 8.100974 9.739372
vertex 25.318642 8.080221 9.759372
endloop
endfacet
facet normal 0 0 0
outer loop
vertex 25.216263 8.121728 9.759372
vertex 25.195787 8.100974 9.739372
vertex 25.216263 8.100974 9.759372
endloop
endfacet
facet normal 0 0 0
outer loop
vertex 25.195787 8.121728 9.739372
vertex 25.195787 8.100974 9.739372
vertex 25.216263 8.121728 9.759372
endloop
endfacet
facet normal 0 0 0
outer loop
vertex 25.298166 8.100974 9.739372
vertex 25.277691 8.121728 9.739372
vertex 25.298166 8.121728 9.759372
endloop
endfacet
facet normal 0 0 0
outer loop
vertex 25.298166 8.100974 9.739372
vertex 25.298166 8.121728 9.759372
vertex 25.318642 8.100974 9.759372
endloop
endfacet
facet normal 0 0 0
outer loop
vertex 25.298166 8.121728 9.759372
vertex 25.318642 8.121728 9.759372
vertex 25.318642 8.100974 9.759372
endloop
endfacet
facet normal 0 0 0
outer loop
vertex 25.216263 8.142481 9.759372
vertex 25.195787 8.121728 9.739372
vertex 25.216263 8.121728 9.759372
endloop
endfacet
facet normal 0 0 0
outer loop
vertex 25.195787 8.142481 9.739372
vertex 25.195787 8.121728 9.739372
vertex 25.216263 8.142481 9.759372
endloop
endfacet
facet normal 0 0 0
outer loop
vertex 25.298166 8.121728 9.759372
vertex 25.277691 8.142481 9.739372
vertex 25.298166 8.142481 9.759372
endloop
endfacet
facet normal 0 0 0
outer loop
vertex 25.277691 8.121728 9.739372
vertex 25.277691 8.142481 9.739372
vertex 25.298166 8.121728 9.759372
endloop
endfacet
facet normal 0 0 0
outer loop
vertex 25.318642 8.121728 9.759372
vertex 25.298166 8.121728 9.759372
vertex 25.318642 8.142481 9.759372
endloop
endfacet
facet normal 0 0 0
outer loop
vertex 25.318642 8.142481 9.759372
vertex 25.298166 8.121728 9.759372
vertex 25.298166 8.142481 9.759372
endloop
endfacet
facet normal 0 0 0
outer loop
vertex 25.216263 8.163235 9.759372
vertex 25.195787 8.142481 9.739372
vertex 25.216263 8.142481 9.759372
endloop
endfacet
facet normal 0 0 0
outer loop
vertex 25.195787 8.163235 9.739372
vertex 25.195787 8.142481 9.739372
vertex 25.216263 8.163235 9.759372
endloop
endfacet
facet normal 0 0 0
outer loop
vertex 25.277691 8.142481 9.739372
vertex 25.257215 8.163235 9.739372
vertex 25.277691 8.163235 9.759372
endloop
endfacet
facet normal 0 0 0
outer loop
vertex 25.277691 8.142481 9.739372
vertex 25.277691 8.163235 9.759372
vertex 25.298166 8.142481 9.759372
endloop
endfacet
facet normal 0 0 0
outer loop
vertex 25.195787 8.163235 9.739372
vertex 25.216263 8.163235 9.759372
vertex 25.216263 8.163235 9.739372
endloop
endfacet
facet normal 0 0 0
outer loop
vertex 25.236738 8.183988 9.759372
vertex 25.236738 8.163235 9.739372
vertex 25.216263 8.163235 9.759372
endloop
endfacet
facet normal 0 0 0
outer loop
vertex 25.236738 8.163235 9.739372
vertex 25.216263 8.163235 9.739372
vertex 25.216263 8.163235 9.759372
endloop
endfacet
facet normal 0 0 0
outer loop
vertex 25.236738 8.163235 9.739372
vertex 25.257215 8.183988 9.759372
vertex 25.257215 8.163235 9.739372
endloop
endfacet
facet normal 0 0 0
outer loop
vertex 25.236738 8.183988 9.759372
vertex 25.257215 8.183988 9.759372
vertex 25.236738 8.163235 9.739372
endloop
endfacet
facet normal 0 0 0
outer loop
vertex 25.257215 8.163235 9.739372
vertex 25.257215 8.183988 9.759372
vertex 25.277691 8.163235 9.759372
endloop
endfacet
facet normal 0 0 0
outer loop
vertex 25.236738 7.914195 9.779371
vertex 25.257215 7.914195 9.759372
vertex 25.257215 7.914195 9.779371
endloop
endfacet
facet normal 0 0 0
outer loop
vertex 25.277691 7.914195 9.759372
vertex 25.277691 7.914195 9.779371
vertex 25.257215 7.914195 9.759372
endloop
endfacet
facet normal 0 0 0
outer loop
vertex 25.257215 7.914195 9.759372
vertex 25.277691 7.914195 9.779371
vertex 25.257215 7.914195 9.779371
endloop
endfacet
facet normal 0 0 0
outer loop
vertex 25.298166 7.893441 9.779371
vertex 25.277691 7.914195 9.779371
vertex 25.298166 7.914195 9.759372
endloop
endfacet
facet normal 0 0 0
outer loop
vertex 25.277691 7.914195 9.779371
vertex 25.277691 7.914195 9.759372
vertex 25.298166 7.914195 9.759372
endloop
endfacet
facet normal 0 0 0
outer loop
vertex 25.298166 7.893441 9.779371
vertex 25.298166 7.914195 9.759372
vertex 25.318642 7.914195 9.779371
endloop
endfacet
facet normal 0 0 0
outer loop
vertex 25.298166 7.914195 9.759372
vertex 25.318642 7.914195 9.759372
vertex 25.318642 7.914195 9.779371
endloop
endfacet
facet normal 0 0 0
outer loop
vertex 25.339119 7.914195 9.759372
vertex 25.318642 7.914195 9.779371
vertex 25.318642 7.914195 9.759372
endloop
endfacet
facet normal 0 0 0
outer loop
vertex 25.236738 7.914195 9.779371
vertex 25.257215 7.934948 9.779371
vertex 25.257215 7.914195 9.759372
endloop
endfacet
facet normal 0 0 0
outer loop
vertex 25.257215 7.934948 9.779371
vertex 25.257215 7.934948 9.759372
vertex 25.257215 7.914195 9.759372
endloop
endfacet
facet normal 0 0 0
outer loop
vertex 25.339119 7.914195 9.759372
vertex 25.339119 7.934948 9.779371
vertex 25.318642 7.914195 9.779371
endloop
endfacet
facet normal 0 0 0
outer loop
vertex 25.339119 7.934948 9.779371
vertex 25.339119 7.914195 9.759372
vertex 25.339119 7.934948 9.759372
endloop
endfacet
facet normal 0 0 0
outer loop
vertex 25.236738 7.955701 9.759372
vertex 25.257215 7.934948 9.759372
vertex 25.257215 7.955701 9.779371
endloop
endfacet
facet normal 0 0 0
outer loop
vertex 25.257215 7.934948 9.759372
vertex 25.257215 7.934948 9.779371
vertex 25.257215 7.955701 9.779371
endloop
endfacet
facet normal 0 0 0
outer loop
vertex 25.339119 7.934948 9.759372
vertex 25.339119 7.955701 9.759372
vertex 25.339119 7.934948 9.779371
endloop
endfacet
facet normal 0 0 0
outer loop
vertex 25.339119 7.934948 9.779371
vertex 25.339119 7.955701 9.759372
vertex 25.339119 7.955701 9.779371
endloop
endfacet
facet normal 0 0 0
outer loop
vertex 25.236738 7.955701 9.759372
vertex 25.236738 7.976455 9.779371
vertex 25.236738 7.976455 9.759372
endloop
endfacet
facet normal 0 0 0
outer loop
vertex 25.257215 7.955701 9.779371
vertex 25.236738 7.976455 9.779371
vertex 25.236738 7.955701 9.759372
endloop
endfacet
facet normal 0 0 0
outer loop
vertex 25.339119 7.955701 9.759372
vertex 25.339119 7.976455 9.759372
vertex 25.339119 7.955701 9.779371
endloop
endfacet
facet normal 0 0 0
outer loop
vertex 25.339119 7.955701 9.779371
vertex 25.339119 7.976455 9.759372
vertex 25.339119 7.976455 9.779371
endloop
endfacet
facet normal 0 0 0
outer loop
vertex 25.236738 7.976455 9.779371
vertex 25.236738 7.997208 9.759372
vertex 25.236738 7.976455 9.759372
endloop
endfacet
facet normal 0 0 0
outer loop
vertex 25.236738 7.976455 9.779371
vertex 25.257215 7.997208 9.779371
vertex 25.236738 7.997208 9.759372
endloop
endfacet
facet normal 0 0 0
outer loop
vertex 25.339119 7.976455 9.759372
vertex 25.318642 7.997208 9.759372
vertex 25.339119 7.997208 9.779371
endloop
endfacet
facet normal 0 0 0
outer loop
vertex 25.339119 7.976455 9.759372
vertex 25.339119 7.997208 9.779371
vertex 25.339119 7.976455 9.779371
endloop
endfacet
facet normal 0 0 0
outer loop
vertex 25.236738 7.997208 9.759372
vertex 25.236738 8.017962 9.779371
vertex 25.236738 8.017962 9.759372
endloop
endfacet
facet normal 0 0 0
outer loop
vertex 25.257215 7.997208 9.779371
vertex 25.236738 8.017962 9.779371
vertex 25.236738 7.997208 9.759372
endloop
endfacet
facet normal 0 0 0
outer loop
vertex 25.318642 7.997208 9.759372
vertex 25.339119 8.017962 9.759372
vertex 25.339119 7.997208 9.779371
endloop
endfacet
facet normal 0 0 0
outer loop
vertex 25.339119 7.997208 9.779371
vertex 25.339119 8.017962 9.759372
vertex 25.339119 8.017962 9.779371
endloop
endfacet
facet normal 0 0 0
outer loop
vertex 25.236738 8.017962 9.759372
vertex 25.236738 8.017962 9.779371
vertex 25.236738 8.038714 9.759372
endloop
endfacet
facet normal 0 0 0
outer loop
vertex 25.236738 8.017962 9.779371
vertex 25.236738 8.038714 9.779371
vertex 25.236738 8.038714 9.759372
endloop
endfacet
facet normal 0 0 0
outer loop
vertex 25.339119 8.017962 9.759372
vertex 25.318642 8.038714 9.759372
vertex 25.339119 8.038714 9.779371
endloop
endfacet
facet normal 0 0 0
outer loop
vertex 25.339119 8.017962 9.759372
vertex 25.339119 8.038714 9.779371
vertex 25.339119 8.017962 9.779371
endloop
endfacet
facet normal 0 0 0
outer loop
vertex 25.236738 8.038714 9.779371
vertex 25.236738 8.059468 9.759372
vertex 25.236738 8.038714 9.759372
endloop
endfacet
facet normal 0 0 0
outer loop
vertex 25.236738 8.038714 9.779371
vertex 25.257215 8.059468 9.779371
vertex 25.236738 8.059468 9.759372
endloop
endfacet
facet normal 0 0 0
outer loop
vertex 25.339119 8.038714 9.779371
vertex 25.318642 8.059468 9.759372
vertex 25.339119 8.059468 9.779371
endloop
endfacet
facet normal 0 0 0
outer loop
vertex 25.318642 8.038714 9.759372
vertex 25.318642 8.059468 9.759372
vertex 25.339119 8.038714 9.779371
endloop
endfacet
facet normal 0 0 0
outer loop
vertex 25.236738 8.059468 9.759372
vertex 25.236738 8.080221 9.779371
vertex 25.216263 8.080221 9.759372
endloop
endfacet
facet normal 0 0 0
outer loop
vertex 25.257215 8.059468 9.779371
vertex 25.236738 8.080221 9.779371
vertex 25.236738 8.059468 9.759372
endloop
endfacet
facet normal 0 0 0
outer loop
vertex 25.339119 8.059468 9.779371
vertex 25.318642 8.080221 9.759372
vertex 25.339119 8.080221 9.779371
endloop
endfacet
facet normal 0 0 0
outer loop
vertex 25.318642 8.059468 9.759372
vertex 25.318642 8.080221 9.759372
vertex 25.339119 8.059468 9.779371
endloop
endfacet
facet normal 0 0 0
outer loop
vertex 25.236738 8.080221 9.779371
vertex 25.236738 8.100974 9.759372
vertex 25.216263 8.080221 9.759372
endloop
endfacet
facet normal 0 0 0
outer loop
vertex 25.236738 8.100974 9.759372
vertex 25.216263 8.100974 9.759372
vertex 25.216263 8.080221 9.759372
endloop
endfacet
facet normal 0 0 0
outer loop
vertex 25.236738 8.080221 9.779371
vertex 25.257215 8.100974 9.779371
vertex 25.236738 8.100974 9.759372
endloop
endfacet
facet normal 0 0 0
outer loop
vertex 25.339119 8.080221 9.779371
vertex 25.318642 8.080221 9.759372
vertex 25.318642 8.100974 9.779371
endloop
endfacet
facet normal 0 0 0
outer loop
vertex 25.318642 8.080221 9.759372
vertex 25.318642 8.100974 9.759372
vertex 25.318642 8.100974 9.779371
endloop
endfacet
facet normal 0 0 0
outer loop
vertex 25.216263 8.100974 9.759372
vertex 25.216263 8.121728 9.779371
vertex 25.216263 8.121728 9.759372
endloop
endfacet
facet normal 0 0 0
outer loop
vertex 25.236738 8.100974 9.759372
vertex 25.216263 8.121728 9.779371
vertex 25.216263 8.100974 9.759372
endloop
endfacet
facet normal 0 0 0
outer loop
vertex 25.236738 8.121728 9.779371
vertex 25.216263 8.121728 9.779371
vertex 25.236738 8.100974 9.759372
endloop
endfacet
facet normal 0 0 0
outer loop
vertex 25.257215 8.100974 9.779371
vertex 25.236738 8.121728 9.779371
vertex 25.236738 8.100974 9.759372
endloop
endfacet
facet normal 0 0 0
outer loop
vertex 25.318642 8.100974 9.759372
vertex 25.318642 8.121728 9.759372
vertex 25.318642 8.100974 9.779371
endloop
endfacet
facet normal 0 0 0
outer loop
vertex 25.318642 8.100974 9.779371
vertex 25.318642 8.121728 9.759372
vertex 25.318642 8.121728 9.779371
endloop
endfacet
facet normal 0 0 0
outer loop
vertex 25.216263 8.121728 9.779371
vertex 25.216263 8.142481 9.759372
vertex 25.216263 8.121728 9.759372
endloop
endfacet
facet normal 0 0 0
outer loop
vertex 25.216263 8.142481 9.759372
vertex 25.236738 8.121728 9.779371
vertex 25.236738 8.142481 9.759372
endloop
endfacet
facet normal 0 0 0
outer loop
vertex 25.216263 8.121728 9.779371
vertex 25.236738 8.121728 9.779371
vertex 25.216263 8.142481 9.759372
endloop
endfacet
facet normal 0 0 0
outer loop
vertex 25.236738 8.121728 9.779371
vertex 25.257215 8.142481 9.779371
vertex 25.236738 8.142481 9.759372
endloop
endfacet
facet normal 0 0 0
outer loop
vertex 25.318642 8.142481 9.759372
vertex 25.298166 8.142481 9.779371
vertex 25.318642 8.121728 9.779371
endloop
endfacet
facet normal 0 0 0
outer loop
vertex 25.318642 8.142481 9.759372
vertex 25.318642 8.121728 9.779371
vertex 25.318642 8.121728 9.759372
endloop
endfacet
facet normal 0 0 0
outer loop
vertex 25.236738 8.163235 9.779371
vertex 25.216263 8.163235 9.759372
vertex 25.236738 8.142481 9.759372
endloop
endfacet
facet normal 0 0 0
outer loop
vertex 25.216263 8.163235 9.759372
vertex 25.216263 8.142481 9.759372
vertex 25.236738 8.142481 9.759372
endloop
endfacet
facet normal 0 0 0
outer loop
vertex 25.257215 8.142481 9.779371
vertex 25.236738 8.163235 9.779371
vertex 25.236738 8.142481 9.759372
endloop
endfacet
facet normal 0 0 0
outer loop
vertex 25.298166 8.142481 9.759372
vertex 25.277691 8.163235 9.779371
vertex 25.298166 8.142481 9.779371
endloop
endfacet
facet normal 0 0 0
outer loop
vertex 25.277691 8.163235 9.759372
vertex 25.277691 8.163235 9.779371
vertex 25.298166 8.142481 9.759372
endloop
endfacet
facet normal 0 0 0
outer loop
vertex 25.298166 8.142481 9.779371
vertex 25.318642 8.142481 9.759372
vertex 25.298166 8.142481 9.759372
endloop
endfacet
facet normal 0 0 0
outer loop
vertex 25.216263 8.163235 9.759372
vertex 25.236738 8.163235 9.779371
vertex 25.236738 8.183988 9.759372
endloop
endfacet
facet normal 0 0 0
outer loop
vertex 25.236738 8.183988 9.759372
vertex 25.257215 8.163235 9.779371
vertex 25.257215 8.183988 9.759372
endloop
endfacet
facet normal 0 0 0
outer loop
vertex 25.236738 8.163235 9.779371
vertex 25.257215 8.163235 9.779371
vertex 25.236738 8.183988 9.759372
endloop
endfacet
facet normal 0 0 0
outer loop
vertex 25.257215 8.183988 9.759372
vertex 25.257215 8.163235 9.779371
vertex 25.277691 8.163235 9.759372
endloop
endfacet
facet normal 0 0 0
outer loop
vertex 25.257215 8.163235 9.779371
vertex 25.277691 8.163235 9.779371
vertex 25.277691 8.163235 9.759372
endloop
endfacet
facet normal 0 0 0
outer loop
vertex 25.277691 7.914195 9.779371
vertex 25.298166 7.893441 9.779371
vertex 25.298166 7.914195 9.779371
endloop
endfacet
facet normal 0 0 0
outer loop
vertex 25.298166 7.893441 9.779371
vertex 25.318642 7.914195 9.779371
vertex 25.298166 7.914195 9.779371
endloop
endfacet
facet normal 0 0 0
outer loop
vertex 25.257215 7.934948 9.779371
vertex 25.236738 7.914195 9.779371
vertex 25.257215 7.914195 9.779371
endloop
endfacet
facet normal 0 0 0
outer loop
vertex 25.277691 7.914195 9.779371
vertex 25.277691 7.934948 9.779371
vertex 25.257215 7.914195 9.779371
endloop
endfacet
facet normal 0 0 0
outer loop
vertex 25.277691 7.934948 9.779371
vertex 25.257215 7.934948 9.779371
vertex 25.257215 7.914195 9.779371
endloop
endfacet
facet normal 0 0 0
outer loop
vertex 25.298166 7.934948 9.799372
vertex 25.277691 7.934948 9.779371
vertex 25.298166 7.914195 9.779371
endloop
endfacet
facet normal 0 0 0
outer loop
vertex 25.277691 7.934948 9.779371
vertex 25.277691 7.914195 9.779371
vertex 25.298166 7.914195 9.779371
endloop
endfacet
facet normal 0 0 0
outer loop
vertex 25.318642 7.914195 9.779371
vertex 25.298166 7.934948 9.799372
vertex 25.298166 7.914195 9.779371
endloop
endfacet
facet normal 0 0 0
outer loop
vertex 25.318642 7.934948 9.799372
vertex 25.298166 7.934948 9.799372
vertex 25.318642 7.914195 9.779371
endloop
endfacet
facet normal 0 0 0
outer loop
vertex 25.339119 7.934948 9.779371
vertex 25.318642 7.934948 9.799372
vertex 25.318642 7.914195 9.779371
endloop
endfacet
facet normal 0 0 0
outer loop
vertex 25.257215 7.934948 9.779371
vertex 25.257215 7.955701 9.799372
vertex 25.257215 7.955701 9.779371
endloop
endfacet
facet normal 0 0 0
outer loop
vertex 25.277691 7.934948 9.779371
vertex 25.257215 7.955701 9.799372
vertex 25.257215 7.934948 9.779371
endloop
endfacet
facet normal 0 0 0
outer loop
vertex 25.277691 7.955701 9.799372
vertex 25.257215 7.955701 9.799372
vertex 25.277691 7.934948 9.779371
endloop
endfacet
facet normal 0 0 0
outer loop
vertex 25.298166 7.934948 9.799372
vertex 25.277691 7.955701 9.799372
vertex 25.277691 7.934948 9.779371
endloop
endfacet
facet normal 0 0 0
outer loop
vertex 25.339119 7.955701 9.779371
vertex 25.318642 7.934948 9.799372
vertex 25.339119 7.934948 9.779371
endloop
endfacet
facet normal 0 0 0
outer loop
vertex 25.318642 7.955701 9.799372
vertex 25.318642 7.934948 9.799372
vertex 25.339119 7.955701 9.779371
endloop
endfacet
facet normal 0 0 0
outer loop
vertex 25.257215 7.955701 9.799372
vertex 25.236738 7.976455 9.779371
vertex 25.257215 7.955701 9.779371
endloop
endfacet
facet normal 0 0 0
outer loop
vertex 25.236738 7.976455 9.799372
vertex 25.236738 7.976455 9.779371
vertex 25.257215 7.955701 9.799372
endloop
endfacet
facet normal 0 0 0
outer loop
vertex 25.339119 7.976455 9.779371
vertex 25.318642 7.955701 9.799372
vertex 25.339119 7.955701 9.779371
endloop
endfacet
facet normal 0 0 0
outer loop
vertex 25.318642 7.976455 9.799372
vertex 25.318642 7.955701 9.799372
vertex 25.339119 7.976455 9.779371
endloop
endfacet
facet normal 0 0 0
outer loop
vertex 25.236738 7.997208 9.799372
vertex 25.236738 7.976455 9.779371
vertex 25.236738 7.976455 9.799372
endloop
endfacet
facet normal 0 0 0
outer loop
vertex 25.236738 7.976455 9.779371
vertex 25.236738 7.997208 9.799372
vertex 25.257215 7.997208 9.779371
endloop
endfacet
facet normal 0 0 0
outer loop
vertex 25.339119 7.997208 9.779371
vertex 25.318642 7.976455 9.799372
vertex 25.339119 7.976455 9.779371
endloop
endfacet
facet normal 0 0 0
outer loop
vertex 25.318642 7.997208 9.799372
vertex 25.318642 7.976455 9.799372
vertex 25.339119 7.997208 9.779371
endloop
endfacet
facet normal 0 0 0
outer loop
vertex 25.236738 7.997208 9.799372
vertex 25.216263 8.017962 9.799372
vertex 25.236738 8.017962 9.779371
endloop
endfacet
facet normal 0 0 0
outer loop
vertex 25.257215 7.997208 9.779371
vertex 25.236738 7.997208 9.799372
vertex 25.236738 8.017962 9.779371
endloop
endfacet
facet normal 0 0 0
outer loop
vertex 25.339119 8.017962 9.779371
vertex 25.318642 7.997208 9.799372
vertex 25.339119 7.997208 9.779371
endloop
endfacet
facet normal 0 0 0
outer loop
vertex 25.318642 8.017962 9.799372
vertex 25.318642 7.997208 9.799372
vertex 25.339119 8.017962 9.779371
endloop
endfacet
facet normal 0 0 0
outer loop
vertex 25.236738 8.017962 9.779371
vertex 25.216263 8.038714 9.799372
vertex 25.236738 8.038714 9.779371
endloop
endfacet
facet normal 0 0 0
outer loop
vertex 25.216263 8.017962 9.799372
vertex 25.216263 8.038714 9.799372
vertex 25.236738 8.017962 9.779371
endloop
endfacet
facet normal 0 0 0
outer loop
vertex 25.339119 8.017962 9.779371
vertex 25.339119 8.038714 9.799372
vertex 25.318642 8.017962 9.799372
endloop
endfacet
facet normal 0 0 0
outer loop
vertex 25.339119 8.038714 9.799372
vertex 25.339119 8.017962 9.779371
vertex 25.339119 8.038714 9.779371
endloop
endfacet
facet normal 0 0 0
outer loop
vertex 25.236738 8.038714 9.779371
vertex 25.216263 8.038714 9.799372
vertex 25.236738 8.059468 9.799372
endloop
endfacet
facet normal 0 0 0
outer loop
vertex 25.216263 8.038714 9.799372
vertex 25.216263 8.059468 9.799372
vertex 25.236738 8.059468 9.799372
endloop
endfacet
facet normal 0 0 0
outer loop
vertex 25.236738 8.038714 9.779371
vertex 25.236738 8.059468 9.799372
vertex 25.257215 8.059468 9.779371
endloop
endfacet
facet normal 0 0 0
outer loop
vertex 25.339119 8.059468 9.779371
vertex 25.318642 8.059468 9.799372
vertex 25.339119 8.038714 9.799372
endloop
endfacet
facet normal 0 0 0
outer loop
vertex 25.339119 8.059468 9.779371
vertex 25.339119 8.038714 9.799372
vertex 25.339119 8.038714 9.779371
endloop
endfacet
facet normal 0 0 0
outer loop
vertex 25.236738 8.080221 9.779371
vertex 25.236738 8.059468 9.799372
vertex 25.216263 8.080221 9.799372
endloop
endfacet
facet normal 0 0 0
outer loop
vertex 25.236738 8.059468 9.799372
vertex 25.216263 8.059468 9.799372
vertex 25.216263 8.080221 9.799372
endloop
endfacet
facet normal 0 0 0
outer loop
vertex 25.257215 8.059468 9.779371
vertex 25.236738 8.059468 9.799372
vertex 25.236738 8.080221 9.779371
endloop
endfacet
facet normal 0 0 0
outer loop
vertex 25.339119 8.080221 9.779371
vertex 25.318642 8.059468 9.799372
vertex 25.339119 8.059468 9.779371
endloop
endfacet
facet normal 0 0 0
outer loop
vertex 25.318642 8.080221 9.799372
vertex 25.318642 8.059468 9.799372
vertex 25.339119 8.080221 9.779371
endloop
endfacet
facet normal 0 0 0
outer loop
vertex 25.236738 8.080221 9.779371
vertex 25.216263 8.080221 9.799372
vertex 25.236738 8.100974 9.799372
endloop
endfacet
facet normal 0 0 0
outer loop
vertex 25.216263 8.080221 9.799372
vertex 25.216263 8.100974 9.799372
vertex 25.236738 8.100974 9.799372
endloop
endfacet
facet normal 0 0 0
outer loop
vertex 25.236738 8.080221 9.779371
vertex 25.236738 8.100974 9.799372
vertex 25.257215 8.100974 9.779371
endloop
endfacet
facet normal 0 0 0
outer loop
vertex 25.339119 8.080221 9.779371
vertex 25.318642 8.100974 9.779371
vertex 25.318642 8.080221 9.799372
endloop
endfacet
facet normal 0 0 0
outer loop
vertex 25.318642 8.100974 9.779371
vertex 25.318642 8.100974 9.799372
vertex 25.318642 8.080221 9.799372
endloop
endfacet
facet normal 0 0 0
outer loop
vertex 25.216263 8.121728 9.779371
vertex 25.216263 8.100974 9.799372
vertex 25.216263 8.121728 9.799372
endloop
endfacet
facet normal 0 0 0
outer loop
vertex 25.236738 8.121728 9.779371
vertex 25.216263 8.100974 9.799372
vertex 25.216263 8.121728 9.779371
endloop
endfacet
facet normal 0 0 0
outer loop
vertex 25.236738 8.100974 9.799372
vertex 25.216263 8.100974 9.799372
vertex 25.236738 8.121728 9.779371
endloop
endfacet
facet normal 0 0 0
outer loop
vertex 25.257215 8.100974 9.779371
vertex 25.236738 8.100974 9.799372
vertex 25.236738 8.121728 9.779371
endloop
endfacet
facet normal 0 0 0
outer loop
vertex 25.318642 8.100974 9.779371
vertex 25.318642 8.121728 9.779371
vertex 25.318642 8.100974 9.799372
endloop
endfacet
facet normal 0 0 0
outer loop
vertex 25.318642 8.100974 9.799372
vertex 25.318642 8.121728 9.779371
vertex 25.318642 8.121728 9.799372
endloop
endfacet
facet normal 0 0 0
outer loop
vertex 25.216263 8.142481 9.799372
vertex 25.216263 8.121728 9.779371
vertex 25.216263 8.121728 9.799372
endloop
endfacet
facet normal 0 0 0
outer loop
vertex 25.216263 8.121728 9.779371
vertex 25.236738 8.142481 9.799372
vertex 25.236738 8.121728 9.779371
endloop
endfacet
facet normal 0 0 0
outer loop
vertex 25.216263 8.142481 9.799372
vertex 25.236738 8.142481 9.799372
vertex 25.216263 8.121728 9.779371
endloop
endfacet
facet normal 0 0 0
outer loop
vertex 25.236738 8.121728 9.779371
vertex 25.236738 8.142481 9.799372
vertex 25.257215 8.142481 9.779371
endloop
endfacet
facet normal 0 0 0
outer loop
vertex 25.318642 8.121728 9.779371
vertex 25.298166 8.142481 9.779371
vertex 25.318642 8.142481 9.799372
endloop
endfacet
facet normal 0 0 0
outer loop
vertex 25.318642 8.121728 9.779371
vertex 25.318642 8.142481 9.799372
vertex 25.318642 8.121728 9.799372
endloop
endfacet
facet normal 0 0 0
outer loop
vertex 25.236738 8.163235 9.779371
vertex 25.216263 8.142481 9.799372
vertex 25.236738 8.163235 9.799372
endloop
endfacet
facet normal 0 0 0
outer loop
vertex 25.236738 8.163235 9.779371
vertex 25.236738 8.142481 9.799372
vertex 25.216263 8.142481 9.799372
endloop
endfacet
facet normal 0 0 0
outer loop
vertex 25.257215 8.142481 9.779371
vertex 25.236738 8.142481 9.799372
vertex 25.236738 8.163235 9.779371
endloop
endfacet
facet normal 0 0 0
outer loop
vertex 25.298166 8.142481 9.779371
vertex 25.277691 8.163235 9.779371
vertex 25.298166 8.163235 9.799372
endloop
endfacet
facet normal 0 0 0
outer loop
vertex 25.298166 8.142481 9.779371
vertex 25.298166 8.163235 9.799372
vertex 25.318642 8.142481 9.799372
endloop
endfacet
facet normal 0 0 0
outer loop
vertex 25.257215 8.183988 9.799372
vertex 25.257215 8.163235 9.779371
vertex 25.236738 8.163235 9.799372
endloop
endfacet
facet normal 0 0 0
outer loop
vertex 25.257215 8.163235 9.779371
vertex 25.236738 8.163235 9.779371
vertex 25.236738 8.163235 9.799372
endloop
endfacet
facet normal 0 0 0
outer loop
vertex 25.257215 8.183988 9.799372
vertex 25.277691 8.163235 9.799372
vertex 25.257215 8.163235 9.779371
endloop
endfacet
facet normal 0 0 0
outer loop
vertex 25.277691 8.163235 9.799372
vertex 25.277691 8.163235 9.779371
vertex 25.257215 8.163235 9.779371
endloop
endfacet
facet normal 0 0 0
outer loop
vertex 25.298166 8.163235 9.799372
vertex 25.277691 8.163235 9.779371
vertex 25.277691 8.163235 9.799372
endloop
endfacet
facet normal 0 0 0
outer loop
vertex 25.277691 7.955701 9.799372
vertex 25.298166 7.934948 9.799372
vertex 25.298166 7.955701 9.799372
endloop
endfacet
facet normal 0 0 0
outer loop
vertex 25.318642 7.934948 9.799372
vertex 25.318642 7.955701 9.799372
vertex 25.298166 7.934948 9.799372
endloop
endfacet
facet normal 0 0 0
outer loop
vertex 25.318642 7.955701 9.799372
vertex 25.298166 7.955701 9.799372
vertex 25.298166 7.934948 9.799372
endloop
endfacet
facet normal 0 0 0
outer loop
vertex 25.236738 7.976455 9.799372
vertex 25.257215 7.955701 9.799372
vertex 25.257215 7.976455 9.799372
endloop
endfacet
facet normal 0 0 0
outer loop
vertex 25.277691 7.955701 9.799372
vertex 25.277691 7.976455 9.799372
vertex 25.257215 7.955701 9.799372
endloop
endfacet
facet normal 0 0 0
outer loop
vertex 25.277691 7.976455 9.799372
vertex 25.257215 7.976455 9.799372
vertex 25.257215 7.955701 9.799372
endloop
endfacet
facet normal 0 0 0
outer loop
vertex 25.298166 7.955701 9.799372
vertex 25.298166 7.976455 9.799372
vertex 25.277691 7.955701 9.799372
endloop
endfacet
facet normal 0 0 0
outer loop
vertex 25.298166 7.976455 9.799372
vertex 25.277691 7.976455 9.799372
vertex 25.277691 7.955701 9.799372
endloop
endfacet
facet normal 0 0 0
outer loop
vertex 25.318642 7.955701 9.799372
vertex 25.318642 7.976455 9.799372
vertex 25.298166 7.955701 9.799372
endloop
endfacet
facet normal 0 0 0
outer loop
vertex 25.318642 7.976455 9.799372
vertex 25.298166 7.976455 9.799372
vertex 25.298166 7.955701 9.799372
endloop
endfacet
facet normal 0 0 0
outer loop
vertex 25.257215 7.976455 9.799372
vertex 25.257215 7.997208 9.799372
vertex 25.236738 7.976455 9.799372
endloop
endfacet
facet normal 0 0 0
outer loop
vertex 25.257215 7.997208 9.799372
vertex 25.236738 7.997208 9.799372
vertex 25.236738 7.976455 9.799372
endloop
endfacet
facet normal 0 0 0
outer loop
vertex 25.277691 7.997208 9.819372
vertex 25.257215 7.997208 9.799372
vertex 25.277691 7.976455 9.799372
endloop
endfacet
facet normal 0 0 0
outer loop
vertex 25.257215 7.997208 9.799372
vertex 25.257215 7.976455 9.799372
vertex 25.277691 7.976455 9.799372
endloop
endfacet
facet normal 0 0 0
outer loop
vertex 25.298166 7.976455 9.799372
vertex 25.277691 7.997208 9.819372
vertex 25.277691 7.976455 9.799372
endloop
endfacet
facet normal 0 0 0
outer loop
vertex 25.298166 7.997208 9.819372
vertex 25.277691 7.997208 9.819372
vertex 25.298166 7.976455 9.799372
endloop
endfacet
facet normal 0 0 0
outer loop
vertex 25.298166 7.997208 9.819372
vertex 25.298166 7.976455 9.799372
vertex 25.318642 7.997208 9.799372
endloop
endfacet
facet normal 0 0 0
outer loop
vertex 25.298166 7.976455 9.799372
vertex 25.318642 7.976455 9.799372
vertex 25.318642 7.997208 9.799372
endloop
endfacet
facet normal 0 0 0
outer loop
vertex 25.216263 8.017962 9.799372
vertex 25.236738 7.997208 9.799372
vertex 25.236738 8.017962 9.799372
endloop
endfacet
facet normal 0 0 0
outer loop
vertex 25.257215 8.017962 9.819372
vertex 25.236738 8.017962 9.799372
vertex 25.257215 7.997208 9.799372
endloop
endfacet
facet normal 0 0 0
outer loop
vertex 25.236738 8.017962 9.799372
vertex 25.236738 7.997208 9.799372
vertex 25.257215 7.997208 9.799372
endloop
endfacet
facet normal 0 0 0
outer loop
vertex 25.277691 7.997208 9.819372
vertex 25.257215 8.017962 9.819372
vertex 25.257215 7.997208 9.799372
endloop
endfacet
facet normal 0 0 0
outer loop
vertex 25.318642 7.997208 9.799372
vertex 25.318642 8.017962 9.819372
vertex 25.298166 7.997208 9.819372
endloop
endfacet
facet normal 0 0 0
outer loop
vertex 25.318642 8.017962 9.819372
vertex 25.318642 7.997208 9.799372
vertex 25.318642 8.017962 9.799372
endloop
endfacet
facet normal 0 0 0
outer loop
vertex 25.236738 8.038714 9.819372
vertex 25.216263 8.038714 9.799372
vertex 25.236738 8.017962 9.799372
endloop
endfacet
facet normal 0 0 0
outer loop
vertex 25.216263 8.038714 9.799372
vertex 25.216263 8.017962 9.799372
vertex 25.236738 8.017962 9.799372
endloop
endfacet
facet normal 0 0 0
outer loop
vertex 25.257215 8.017962 9.819372
vertex 25.236738 8.038714 9.819372
vertex 25.236738 8.017962 9.799372
endloop
endfacet
facet normal 0 0 0
outer loop
vertex 25.318642 8.017962 9.799372
vertex 25.339119 8.038714 9.819372
vertex 25.318642 8.017962 9.819372
endloop
endfacet
facet normal 0 0 0
outer loop
vertex 25.339119 8.038714 9.799372
vertex 25.339119 8.038714 9.819372
vertex 25.318642 8.017962 9.799372
endloop
endfacet
facet normal 0 0 0
outer loop
vertex 25.216263 8.038714 9.799372
vertex 25.216263 8.059468 9.819372
vertex 25.216263 8.059468 9.799372
endloop
endfacet
facet normal 0 0 0
outer loop
vertex 25.236738 8.038714 9.819372
vertex 25.216263 8.059468 9.819372
vertex 25.216263 8.038714 9.799372
endloop
endfacet
facet normal 0 0 0
outer loop
vertex 25.339119 8.038714 9.799372
vertex 25.318642 8.059468 9.799372
vertex 25.339119 8.059468 9.819372
endloop
endfacet
facet normal 0 0 0
outer loop
vertex 25.339119 8.038714 9.799372
vertex 25.339119 8.059468 9.819372
vertex 25.339119 8.038714 9.819372
endloop
endfacet
facet normal 0 0 0
outer loop
vertex 25.216263 8.059468 9.819372
vertex 25.216263 8.080221 9.799372
vertex 25.216263 8.059468 9.799372
endloop
endfacet
facet normal 0 0 0
outer loop
vertex 25.216263 8.059468 9.819372
vertex 25.236738 8.080221 9.819372
vertex 25.216263 8.080221 9.799372
endloop
endfacet
facet normal 0 0 0
outer loop
vertex 25.339119 8.059468 9.819372
vertex 25.318642 8.080221 9.799372
vertex 25.339119 8.080221 9.819372
endloop
endfacet
facet normal 0 0 0
outer loop
vertex 25.318642 8.059468 9.799372
vertex 25.318642 8.080221 9.799372
vertex 25.339119 8.059468 9.819372
endloop
endfacet
facet normal 0 0 0
outer loop
vertex 25.236738 8.100974 9.819372
vertex 25.216263 8.080221 9.799372
vertex 25.236738 8.080221 9.819372
endloop
endfacet
facet normal 0 0 0
outer loop
vertex 25.216263 8.100974 9.799372
vertex 25.216263 8.080221 9.799372
vertex 25.236738 8.100974 9.819372
endloop
endfacet
facet normal 0 0 0
outer loop
vertex 25.339119 8.080221 9.819372
vertex 25.318642 8.100974 9.799372
vertex 25.339119 8.100974 9.819372
endloop
endfacet
facet normal 0 0 0
outer loop
vertex 25.318642 8.080221 9.799372
vertex 25.318642 8.100974 9.799372
vertex 25.339119 8.080221 9.819372
endloop
endfacet
facet normal 0 0 0
outer loop
vertex 25.236738 8.121728 9.819372
vertex 25.216263 8.100974 9.799372
vertex 25.236738 8.100974 9.819372
endloop
endfacet
facet normal 0 0 0
outer loop
vertex 25.216263 8.121728 9.799372
vertex 25.216263 8.100974 9.799372
vertex 25.236738 8.121728 9.819372
endloop
endfacet
facet normal 0 0 0
outer loop
vertex 25.339119 8.100974 9.819372
vertex 25.318642 8.100974 9.799372
vertex 25.318642 8.121728 9.819372
endloop
endfacet
facet normal 0 0 0
outer loop
vertex 25.318642 8.100974 9.799372
vertex 25.318642 8.121728 9.799372
vertex 25.318642 8.121728 9.819372
endloop
endfacet
facet normal 0 0 0
outer loop
vertex 25.236738 8.142481 9.819372
vertex 25.216263 8.121728 9.799372
vertex 25.236738 8.121728 9.819372
endloop
endfacet
facet normal 0 0 0
outer loop
vertex 25.216263 8.142481 9.799372
vertex 25.216263 8.121728 9.799372
vertex 25.236738 8.142481 9.819372
endloop
endfacet
facet normal 0 0 0
outer loop
vertex 25.318642 8.121728 9.799372
vertex 25.318642 8.142481 9.799372
vertex 25.318642 8.121728 9.819372
endloop
endfacet
facet normal 0 0 0
outer loop
vertex 25.318642 8.121728 9.819372
vertex 25.318642 8.142481 9.799372
vertex 25.318642 8.142481 9.819372
endloop
endfacet
facet normal 0 0 0
outer loop
vertex 25.216263 8.142481 9.799372
vertex 25.236738 8.142481 9.819372
vertex 25.236738 8.163235 9.799372
endloop
endfacet
facet normal 0 0 0
outer loop
vertex 25.236738 8.142481 9.819372
vertex 25.236738 8.163235 9.819372
vertex 25.236738 8.163235 9.799372
endloop
endfacet
facet normal 0 0 0
outer loop
vertex 25.318642 8.142481 9.799372
vertex 25.298166 8.163235 9.799372
vertex 25.318642 8.163235 9.819372
endloop
endfacet
facet normal 0 0 0
outer loop
vertex 25.318642 8.142481 9.799372
vertex 25.318642 8.163235 9.819372
vertex 25.318642 8.142481 9.819372
endloop
endfacet
facet normal 0 0 0
outer loop
vertex 25.236738 8.163235 9.819372
vertex 25.257215 8.183988 9.799372
vertex 25.236738 8.163235 9.799372
endloop
endfacet
facet normal 0 0 0
outer loop
vertex 25.257215 8.183988 9.819372
vertex 25.257215 8.183988 9.799372
vertex 25.236738 8.163235 9.819372
endloop
endfacet
facet normal 0 0 0
outer loop
vertex 25.277691 8.163235 9.799372
vertex 25.257215 8.183988 9.799372
vertex 25.277691 8.183988 9.819372
endloop
endfacet
facet normal 0 0 0
outer loop
vertex 25.277691 8.163235 9.799372
vertex 25.298166 8.183988 9.819372
vertex 25.298166 8.163235 9.799372
endloop
endfacet
facet normal 0 0 0
outer loop
vertex 25.277691 8.183988 9.819372
vertex 25.298166 8.183988 9.819372
vertex 25.277691 8.163235 9.799372
endloop
endfacet
facet normal 0 0 0
outer loop
vertex 25.298166 8.163235 9.799372
vertex 25.298166 8.183988 9.819372
vertex 25.318642 8.163235 9.819372
endloop
endfacet
facet normal 0 0 0
outer loop
vertex 25.277691 8.183988 9.819372
vertex 25.257215 8.183988 9.799372
vertex 25.257215 8.183988 9.819372
endloop
endfacet
facet normal 0 0 0
outer loop
vertex 25.257215 8.017962 9.819372
vertex 25.277691 7.997208 9.819372
vertex 25.277691 8.017962 9.819372
endloop
endfacet
facet normal 0 0 0
outer loop
vertex 25.298166 7.997208 9.819372
vertex 25.298166 8.017962 9.819372
vertex 25.277691 7.997208 9.819372
endloop
endfacet
facet normal 0 0 0
outer loop
vertex 25.298166 8.017962 9.819372
vertex 25.277691 8.017962 9.819372
vertex 25.277691 7.997208 9.819372
endloop
endfacet
facet normal 0 0 0
outer loop
vertex 25.298166 7.997208 9.819372
vertex 25.318642 8.017962 9.819372
vertex 25.298166 8.017962 9.819372
endloop
endfacet
facet normal 0 0 0
outer loop
vertex 25.236738 8.038714 9.819372
vertex 25.257215 8.017962 9.819372
vertex 25.257215 8.038714 9.819372
endloop
endfacet
facet normal 0 0 0
outer loop
vertex 25.277691 8.017962 9.819372
vertex 25.277691 8.038714 9.819372
vertex 25.257215 8.017962 9.819372
endloop
endfacet
facet normal 0 0 0
outer loop
vertex 25.277691 8.038714 9.819372
vertex 25.257215 8.038714 9.819372
vertex 25.257215 8.017962 9.819372
endloop
endfacet
facet normal 0 0 0
outer loop
vertex 25.298166 8.017962 9.819372
vertex 25.298166 8.038714 9.819372
vertex 25.277691 8.017962 9.819372
endloop
endfacet
facet normal 0 0 0
outer loop
vertex 25.298166 8.038714 9.819372
vertex 25.277691 8.038714 9.819372
vertex 25.277691 8.017962 9.819372
endloop
endfacet
facet normal 0 0 0
outer loop
vertex 25.318642 8.017962 9.819372
vertex 25.318642 8.038714 9.819372
vertex 25.298166 8.017962 9.819372
endloop
endfacet
facet normal 0 0 0
outer loop
vertex 25.318642 8.038714 9.819372
vertex 25.298166 8.038714 9.819372
vertex 25.298166 8.017962 9.819372
endloop
endfacet
facet normal 0 0 0
outer loop
vertex 25.318642 8.017962 9.819372
vertex 25.339119 8.038714 9.819372
vertex 25.318642 8.038714 9.819372
endloop
endfacet
facet normal 0 0 0
outer loop
vertex 25.216263 8.059468 9.819372
vertex 25.236738 8.038714 9.819372
vertex 25.236738 8.059468 9.819372
endloop
endfacet
facet normal 0 0 0
outer loop
vertex 25.257215 8.038714 9.819372
vertex 25.257215 8.059468 9.819372
vertex 25.236738 8.038714 9.819372
endloop
endfacet
facet normal 0 0 0
outer loop
vertex 25.257215 8.059468 9.819372
vertex 25.236738 8.059468 9.819372
vertex 25.236738 8.038714 9.819372
endloop
endfacet
facet normal 0 0 0
outer loop
vertex 25.277691 8.038714 9.819372
vertex 25.277691 8.059468 9.819372
vertex 25.257215 8.038714 9.819372
endloop
endfacet
facet normal 0 0 0
outer loop
vertex 25.277691 8.059468 9.819372
vertex 25.257215 8.059468 9.819372
vertex 25.257215 8.038714 9.819372
endloop
endfacet
facet normal 0 0 0
outer loop
vertex 25.298166 8.038714 9.819372
vertex 25.298166 8.059468 9.819372
vertex 25.277691 8.038714 9.819372
endloop
endfacet
facet normal 0 0 0
outer loop
vertex 25.298166 8.059468 9.819372
vertex 25.277691 8.059468 9.819372
vertex 25.277691 8.038714 9.819372
endloop
endfacet
facet normal 0 0 0
outer loop
vertex 25.318642 8.038714 9.819372
vertex 25.318642 8.059468 9.819372
vertex 25.298166 8.038714 9.819372
endloop
endfacet
facet normal 0 0 0
outer loop
vertex 25.318642 8.059468 9.819372
vertex 25.298166 8.059468 9.819372
vertex 25.298166 8.038714 9.819372
endloop
endfacet
facet normal 0 0 0
outer loop
vertex 25.339119 8.038714 9.819372
vertex 25.339119 8.059468 9.819372
vertex 25.318642 8.038714 9.819372
endloop
endfacet
facet normal 0 0 0
outer loop
vertex 25.339119 8.059468 9.819372
vertex 25.318642 8.059468 9.819372
vertex 25.318642 8.038714 9.819372
endloop
endfacet
facet normal 0 0 0
outer loop
vertex 25.236738 8.080221 9.819372
vertex 25.216263 8.059468 9.819372
vertex 25.236738 8.059468 9.819372
endloop
endfacet
facet normal 0 0 0
outer loop
vertex 25.257215 8.059468 9.819372
vertex 25.257215 8.080221 9.819372
vertex 25.236738 8.059468 9.819372
endloop
endfacet
facet normal 0 0 0
outer loop
vertex 25.257215 8.080221 9.819372
vertex 25.236738 8.080221 9.819372
vertex 25.236738 8.059468 9.819372
endloop
endfacet
facet normal 0 0 0
outer loop
vertex 25.277691 8.059468 9.819372
vertex 25.277691 8.080221 9.819372
vertex 25.257215 8.059468 9.819372
endloop
endfacet
facet normal 0 0 0
outer loop
vertex 25.277691 8.080221 9.819372
vertex 25.257215 8.080221 9.819372
vertex 25.257215 8.059468 9.819372
endloop
endfacet
facet normal 0 0 0
outer loop
vertex 25.298166 8.059468 9.819372
vertex 25.298166 8.080221 9.819372
vertex 25.277691 8.059468 9.819372
endloop
endfacet
facet normal 0 0 0
outer loop
vertex 25.298166 8.080221 9.819372
vertex 25.277691 8.080221 9.819372
vertex 25.277691 8.059468 9.819372
endloop
endfacet
facet normal 0 0 0
outer loop
vertex 25.318642 8.059468 9.819372
vertex 25.318642 8.080221 9.819372
vertex 25.298166 8.059468 9.819372
endloop
endfacet
facet normal 0 0 0
outer loop
vertex 25.318642 8.080221 9.819372
vertex 25.298166 8.080221 9.819372
vertex 25.298166 8.059468 9.819372
endloop
endfacet
facet normal 0 0 0
outer loop
vertex 25.339119 8.059468 9.819372
vertex 25.339119 8.080221 9.819372
vertex 25.318642 8.059468 9.819372
endloop
endfacet
facet normal 0 0 0
outer loop
vertex 25.339119 8.080221 9.819372
vertex 25.318642 8.080221 9.819372
vertex 25.318642 8.059468 9.819372
endloop
endfacet
facet normal 0 0 0
outer loop
vertex 25.257215 8.080221 9.819372
vertex 25.257215 8.100974 9.819372
vertex 25.236738 8.080221 9.819372
endloop
endfacet
facet normal 0 0 0
outer loop
vertex 25.257215 8.100974 9.819372
vertex 25.236738 8.100974 9.819372
vertex 25.236738 8.080221 9.819372
endloop
endfacet
facet normal 0 0 0
outer loop
vertex 25.277691 8.080221 9.819372
vertex 25.277691 8.100974 9.819372
vertex 25.257215 8.080221 9.819372
endloop
endfacet
facet normal 0 0 0
outer loop
vertex 25.277691 8.100974 9.819372
vertex 25.257215 8.100974 9.819372
vertex 25.257215 8.080221 9.819372
endloop
endfacet
facet normal 0 0 0
outer loop
vertex 25.298166 8.080221 9.819372
vertex 25.298166 8.100974 9.819372
vertex 25.277691 8.080221 9.819372
endloop
endfacet
facet normal 0 0 0
outer loop
vertex 25.298166 8.100974 9.819372
vertex 25.277691 8.100974 9.819372
vertex 25.277691 8.080221 9.819372
endloop
endfacet
facet normal 0 0 0
outer loop
vertex 25.318642 8.080221 9.819372
vertex 25.318642 8.100974 9.819372
vertex 25.298166 8.080221 9.819372
endloop
endfacet
facet normal 0 0 0
outer loop
vertex 25.318642 8.100974 9.819372
vertex 25.298166 8.100974 9.819372
vertex 25.298166 8.080221 9.819372
endloop
endfacet
facet normal 0 0 0
outer loop
vertex 25.339119 8.080221 9.819372
vertex 25.339119 8.100974 9.819372
vertex 25.318642 8.080221 9.819372
endloop
endfacet
facet normal 0 0 0
outer loop
vertex 25.339119 8.100974 9.819372
vertex 25.318642 8.100974 9.819372
vertex 25.318642 8.080221 9.819372
endloop
endfacet
facet normal 0 0 0
outer loop
vertex 25.257215 8.100974 9.819372
vertex 25.257215 8.121728 9.819372
vertex 25.236738 8.100974 9.819372
endloop
endfacet
facet normal 0 0 0
outer loop
vertex 25.257215 8.121728 9.819372
vertex 25.236738 8.121728 9.819372
vertex 25.236738 8.100974 9.819372
endloop
endfacet
facet normal 0 0 0
outer loop
vertex 25.277691 8.100974 9.819372
vertex 25.277691 8.121728 9.819372
vertex 25.257215 8.100974 9.819372
endloop
endfacet
facet normal 0 0 0
outer loop
vertex 25.277691 8.121728 9.819372
vertex 25.257215 8.121728 9.819372
vertex 25.257215 8.100974 9.819372
endloop
endfacet
facet normal 0 0 0
outer loop
vertex 25.298166 8.100974 9.819372
vertex 25.298166 8.121728 9.819372
vertex 25.277691 8.100974 9.819372
endloop
endfacet
facet normal 0 0 0
outer loop
vertex 25.298166 8.121728 9.819372
vertex 25.277691 8.121728 9.819372
vertex 25.277691 8.100974 9.819372
endloop
endfacet
facet normal 0 0 0
outer loop
vertex 25.318642 8.100974 9.819372
vertex 25.318642 8.121728 9.819372
vertex 25.298166 8.100974 9.819372
endloop
endfacet
facet normal 0 0 0
outer loop
vertex 25.318642 8.121728 9.819372
vertex 25.298166 8.121728 9.819372
vertex 25.298166 8.100974 9.819372
endloop
endfacet
facet normal 0 0 0
outer loop
vertex 25.339119 8.100974 9.819372
vertex 25.318642 8.121728 9.819372
vertex 25.318642 8.100974 9.819372
endloop
endfacet
facet normal 0 0 0
outer loop
vertex 25.257215 8.121728 9.819372
vertex 25.257215 8.142481 9.819372
vertex 25.236738 8.121728 9.819372
endloop
endfacet
facet normal 0 0 0
outer loop
vertex 25.257215 8.142481 9.819372
vertex 25.236738 8.142481 9.819372
vertex 25.236738 8.121728 9.819372
endloop
endfacet
facet normal 0 0 0
outer loop
vertex 25.277691 8.121728 9.819372
vertex 25.277691 8.142481 9.819372
vertex 25.257215 8.121728 9.819372
endloop
endfacet
facet normal 0 0 0
outer loop
vertex 25.277691 8.142481 9.819372
vertex 25.257215 8.142481 9.819372
vertex 25.257215 8.121728 9.819372
endloop
endfacet
facet normal 0 0 0
outer loop
vertex 25.298166 8.121728 9.819372
vertex 25.298166 8.142481 9.819372
vertex 25.277691 8.121728 9.819372
endloop
endfacet
facet normal 0 0 0
outer loop
vertex 25.298166 8.142481 9.819372
vertex 25.277691 8.142481 9.819372
vertex 25.277691 8.121728 9.819372
endloop
endfacet
facet normal 0 0 0
outer loop
vertex 25.318642 8.121728 9.819372
vertex 25.318642 8.142481 9.819372
vertex 25.298166 8.121728 9.819372
endloop
endfacet
facet normal 0 0 0
outer loop
vertex 25.318642 8.142481 9.819372
vertex 25.298166 8.142481 9.819372
vertex 25.298166 8.121728 9.819372
endloop
endfacet
facet normal 0 0 0
outer loop
vertex 25.257215 8.142481 9.819372
vertex 25.257215 8.163235 9.819372
vertex 25.236738 8.142481 9.819372
endloop
endfacet
facet normal 0 0 0
outer loop
vertex 25.257215 8.163235 9.819372
vertex 25.236738 8.163235 9.819372
vertex 25.236738 8.142481 9.819372
endloop
endfacet
facet normal 0 0 0
outer loop
vertex 25.277691 8.142481 9.819372
vertex 25.277691 8.163235 9.819372
vertex 25.257215 8.142481 9.819372
endloop
endfacet
facet normal 0 0 0
outer loop
vertex 25.277691 8.163235 9.819372
vertex 25.257215 8.163235 9.819372
vertex 25.257215 8.142481 9.819372
endloop
endfacet
facet normal 0 0 0
outer loop
vertex 25.298166 8.142481 9.819372
vertex 25.298166 8.163235 9.819372
vertex 25.277691 8.142481 9.819372
endloop
endfacet
facet normal 0 0 0
outer loop
vertex 25.298166 8.163235 9.819372
vertex 25.277691 8.163235 9.819372
vertex 25.277691 8.142481 9.819372
endloop
endfacet
facet normal 0 0 0
outer loop
vertex 25.318642 8.142481 9.819372
vertex 25.318642 8.163235 9.819372
vertex 25.298166 8.142481 9.819372
endloop
endfacet
facet normal 0 0 0
outer loop
vertex 25.318642 8.163235 9.819372
vertex 25.298166 8.163235 9.819372
vertex 25.298166 8.142481 9.819372
endloop
endfacet
facet normal 0 0 0
outer loop
vertex 25.257215 8.183988 9.819372
vertex 25.236738 8.163235 9.819372
vertex 25.257215 8.163235 9.819372
endloop
endfacet
facet normal 0 0 0
outer loop
vertex 25.277691 8.163235 9.819372
vertex 25.277691 8.183988 9.819372
vertex 25.257215 8.163235 9.819372
endloop
endfacet
facet normal 0 0 0
outer loop
vertex 25.277691 8.183988 9.819372
vertex 25.257215 8.183988 9.819372
vertex 25.257215 8.163235 9.819372
endloop
endfacet
facet normal 0 0 0
outer loop
vertex 25.298166 8.163235 9.819372
vertex 25.298166 8.183988 9.819372
vertex 25.277691 8.163235 9.819372
endloop
endfacet
facet normal 0 0 0
outer loop
vertex 25.298166 8.183988 9.819372
vertex 25.277691 8.183988 9.819372
vertex 25.277691 8.163235 9.819372
endloop
endfacet
facet normal 0 0 0
outer loop
vertex 25.318642 8.163235 9.819372
vertex 25.298166 8.183988 9.819372
vertex 25.298166 8.163235 9.819372
endloop
endfacet
endsolid B-16-Plag.225
