solid B-16-Plag.305
facet normal 0 0 0
outer loop
vertex 15.428831 12.583692 12.479372
vertex 15.408356 12.604445 12.479372
vertex 15.428831 12.604445 12.479372
endloop
endfacet
facet normal 0 0 0
outer loop
vertex 15.428831 12.604445 12.479372
vertex 15.408356 12.604445 12.479372
vertex 15.428831 12.625198 12.479372
endloop
endfacet
facet normal 0 0 0
outer loop
vertex 15.428831 12.625198 12.479372
vertex 15.408356 12.604445 12.479372
vertex 15.408356 12.625198 12.479372
endloop
endfacet
facet normal 0 0 0
outer loop
vertex 15.428831 12.562939 12.499372
vertex 15.408356 12.583692 12.499372
vertex 15.428831 12.583692 12.479372
endloop
endfacet
facet normal 0 0 0
outer loop
vertex 15.428831 12.583692 12.479372
vertex 15.449306 12.583692 12.499372
vertex 15.428831 12.562939 12.499372
endloop
endfacet
facet normal 0 0 0
outer loop
vertex 15.449306 12.583692 12.499372
vertex 15.449306 12.562939 12.499372
vertex 15.428831 12.562939 12.499372
endloop
endfacet
facet normal 0 0 0
outer loop
vertex 15.469782 12.583692 12.499372
vertex 15.449306 12.562939 12.499372
vertex 15.449306 12.583692 12.499372
endloop
endfacet
facet normal 0 0 0
outer loop
vertex 15.408356 12.604445 12.479372
vertex 15.408356 12.583692 12.499372
vertex 15.387878 12.604445 12.499372
endloop
endfacet
facet normal 0 0 0
outer loop
vertex 15.408356 12.583692 12.499372
vertex 15.387878 12.583692 12.499372
vertex 15.387878 12.604445 12.499372
endloop
endfacet
facet normal 0 0 0
outer loop
vertex 15.428831 12.583692 12.479372
vertex 15.408356 12.583692 12.499372
vertex 15.408356 12.604445 12.479372
endloop
endfacet
facet normal 0 0 0
outer loop
vertex 15.449306 12.583692 12.499372
vertex 15.428831 12.604445 12.479372
vertex 15.449306 12.604445 12.499372
endloop
endfacet
facet normal 0 0 0
outer loop
vertex 15.428831 12.583692 12.479372
vertex 15.428831 12.604445 12.479372
vertex 15.449306 12.583692 12.499372
endloop
endfacet
facet normal 0 0 0
outer loop
vertex 15.469782 12.583692 12.499372
vertex 15.449306 12.583692 12.499372
vertex 15.469782 12.604445 12.499372
endloop
endfacet
facet normal 0 0 0
outer loop
vertex 15.469782 12.604445 12.499372
vertex 15.449306 12.583692 12.499372
vertex 15.449306 12.604445 12.499372
endloop
endfacet
facet normal 0 0 0
outer loop
vertex 15.408356 12.604445 12.479372
vertex 15.387878 12.625198 12.499372
vertex 15.408356 12.625198 12.479372
endloop
endfacet
facet normal 0 0 0
outer loop
vertex 15.387878 12.604445 12.499372
vertex 15.387878 12.625198 12.499372
vertex 15.408356 12.604445 12.479372
endloop
endfacet
facet normal 0 0 0
outer loop
vertex 15.449306 12.604445 12.499372
vertex 15.428831 12.625198 12.479372
vertex 15.449306 12.625198 12.499372
endloop
endfacet
facet normal 0 0 0
outer loop
vertex 15.428831 12.604445 12.479372
vertex 15.428831 12.625198 12.479372
vertex 15.449306 12.604445 12.499372
endloop
endfacet
facet normal 0 0 0
outer loop
vertex 15.469782 12.604445 12.499372
vertex 15.449306 12.604445 12.499372
vertex 15.469782 12.625198 12.499372
endloop
endfacet
facet normal 0 0 0
outer loop
vertex 15.469782 12.625198 12.499372
vertex 15.449306 12.604445 12.499372
vertex 15.449306 12.625198 12.499372
endloop
endfacet
facet normal 0 0 0
outer loop
vertex 15.408356 12.625198 12.479372
vertex 15.387878 12.625198 12.499372
vertex 15.408356 12.645952 12.499372
endloop
endfacet
facet normal 0 0 0
outer loop
vertex 15.408356 12.625198 12.479372
vertex 15.428831 12.645952 12.499372
vertex 15.428831 12.625198 12.479372
endloop
endfacet
facet normal 0 0 0
outer loop
vertex 15.408356 12.645952 12.499372
vertex 15.428831 12.645952 12.499372
vertex 15.408356 12.625198 12.479372
endloop
endfacet
facet normal 0 0 0
outer loop
vertex 15.428831 12.625198 12.479372
vertex 15.428831 12.645952 12.499372
vertex 15.449306 12.625198 12.499372
endloop
endfacet
facet normal 0 0 0
outer loop
vertex 15.428831 12.645952 12.499372
vertex 15.449306 12.645952 12.499372
vertex 15.449306 12.625198 12.499372
endloop
endfacet
facet normal 0 0 0
outer loop
vertex 15.449306 12.645952 12.499372
vertex 15.469782 12.625198 12.499372
vertex 15.449306 12.625198 12.499372
endloop
endfacet
facet normal 0 0 0
outer loop
vertex 15.408356 12.583692 12.519372
vertex 15.387878 12.583692 12.499372
vertex 15.408356 12.583692 12.499372
endloop
endfacet
facet normal 0 0 0
outer loop
vertex 15.428831 12.562939 12.499372
vertex 15.428831 12.583692 12.519372
vertex 15.408356 12.583692 12.499372
endloop
endfacet
facet normal 0 0 0
outer loop
vertex 15.428831 12.583692 12.519372
vertex 15.408356 12.583692 12.519372
vertex 15.408356 12.583692 12.499372
endloop
endfacet
facet normal 0 0 0
outer loop
vertex 15.449306 12.562939 12.499372
vertex 15.428831 12.583692 12.519372
vertex 15.428831 12.562939 12.499372
endloop
endfacet
facet normal 0 0 0
outer loop
vertex 15.449306 12.583692 12.519372
vertex 15.428831 12.583692 12.519372
vertex 15.449306 12.562939 12.499372
endloop
endfacet
facet normal 0 0 0
outer loop
vertex 15.449306 12.562939 12.499372
vertex 15.469782 12.583692 12.499372
vertex 15.449306 12.583692 12.519372
endloop
endfacet
facet normal 0 0 0
outer loop
vertex 15.469782 12.583692 12.499372
vertex 15.469782 12.583692 12.519372
vertex 15.449306 12.583692 12.519372
endloop
endfacet
facet normal 0 0 0
outer loop
vertex 15.408356 12.604445 12.519372
vertex 15.387878 12.583692 12.499372
vertex 15.408356 12.583692 12.519372
endloop
endfacet
facet normal 0 0 0
outer loop
vertex 15.387878 12.604445 12.499372
vertex 15.387878 12.583692 12.499372
vertex 15.408356 12.604445 12.519372
endloop
endfacet
facet normal 0 0 0
outer loop
vertex 15.469782 12.583692 12.499372
vertex 15.469782 12.604445 12.499372
vertex 15.469782 12.583692 12.519372
endloop
endfacet
facet normal 0 0 0
outer loop
vertex 15.469782 12.583692 12.519372
vertex 15.469782 12.604445 12.499372
vertex 15.469782 12.604445 12.519372
endloop
endfacet
facet normal 0 0 0
outer loop
vertex 15.387878 12.604445 12.499372
vertex 15.387878 12.625198 12.519372
vertex 15.367403 12.625198 12.519372
endloop
endfacet
facet normal 0 0 0
outer loop
vertex 15.387878 12.604445 12.499372
vertex 15.367403 12.625198 12.519372
vertex 15.387878 12.625198 12.499372
endloop
endfacet
facet normal 0 0 0
outer loop
vertex 15.408356 12.604445 12.519372
vertex 15.387878 12.625198 12.519372
vertex 15.387878 12.604445 12.499372
endloop
endfacet
facet normal 0 0 0
outer loop
vertex 15.469782 12.604445 12.499372
vertex 15.469782 12.625198 12.499372
vertex 15.469782 12.604445 12.519372
endloop
endfacet
facet normal 0 0 0
outer loop
vertex 15.469782 12.604445 12.519372
vertex 15.469782 12.625198 12.499372
vertex 15.469782 12.625198 12.519372
endloop
endfacet
facet normal 0 0 0
outer loop
vertex 15.367403 12.625198 12.519372
vertex 15.346928 12.645952 12.519372
vertex 15.367403 12.645952 12.519372
endloop
endfacet
facet normal 0 0 0
outer loop
vertex 15.387878 12.625198 12.499372
vertex 15.367403 12.625198 12.519372
vertex 15.387878 12.645952 12.519372
endloop
endfacet
facet normal 0 0 0
outer loop
vertex 15.367403 12.625198 12.519372
vertex 15.367403 12.645952 12.519372
vertex 15.387878 12.645952 12.519372
endloop
endfacet
facet normal 0 0 0
outer loop
vertex 15.387878 12.625198 12.499372
vertex 15.387878 12.645952 12.519372
vertex 15.408356 12.645952 12.499372
endloop
endfacet
facet normal 0 0 0
outer loop
vertex 15.469782 12.625198 12.499372
vertex 15.449306 12.645952 12.519372
vertex 15.469782 12.625198 12.519372
endloop
endfacet
facet normal 0 0 0
outer loop
vertex 15.449306 12.645952 12.499372
vertex 15.449306 12.645952 12.519372
vertex 15.469782 12.625198 12.499372
endloop
endfacet
facet normal 0 0 0
outer loop
vertex 15.408356 12.645952 12.499372
vertex 15.387878 12.645952 12.519372
vertex 15.408356 12.645952 12.519372
endloop
endfacet
facet normal 0 0 0
outer loop
vertex 15.428831 12.645952 12.499372
vertex 15.408356 12.645952 12.499372
vertex 15.428831 12.645952 12.519372
endloop
endfacet
facet normal 0 0 0
outer loop
vertex 15.408356 12.645952 12.499372
vertex 15.408356 12.645952 12.519372
vertex 15.428831 12.645952 12.519372
endloop
endfacet
facet normal 0 0 0
outer loop
vertex 15.449306 12.645952 12.499372
vertex 15.428831 12.645952 12.499372
vertex 15.449306 12.645952 12.519372
endloop
endfacet
facet normal 0 0 0
outer loop
vertex 15.428831 12.645952 12.499372
vertex 15.428831 12.645952 12.519372
vertex 15.449306 12.645952 12.519372
endloop
endfacet
facet normal 0 0 0
outer loop
vertex 15.449306 12.583692 12.539371
vertex 15.428831 12.583692 12.519372
vertex 15.449306 12.583692 12.519372
endloop
endfacet
facet normal 0 0 0
outer loop
vertex 15.469782 12.583692 12.519372
vertex 15.449306 12.583692 12.539371
vertex 15.449306 12.583692 12.519372
endloop
endfacet
facet normal 0 0 0
outer loop
vertex 15.408356 12.583692 12.519372
vertex 15.408356 12.604445 12.539371
vertex 15.387878 12.604445 12.539371
endloop
endfacet
facet normal 0 0 0
outer loop
vertex 15.408356 12.583692 12.519372
vertex 15.387878 12.604445 12.539371
vertex 15.408356 12.604445 12.519372
endloop
endfacet
facet normal 0 0 0
outer loop
vertex 15.428831 12.583692 12.519372
vertex 15.408356 12.604445 12.539371
vertex 15.408356 12.583692 12.519372
endloop
endfacet
facet normal 0 0 0
outer loop
vertex 15.428831 12.604445 12.539371
vertex 15.408356 12.604445 12.539371
vertex 15.428831 12.583692 12.519372
endloop
endfacet
facet normal 0 0 0
outer loop
vertex 15.449306 12.583692 12.539371
vertex 15.428831 12.604445 12.539371
vertex 15.428831 12.583692 12.519372
endloop
endfacet
facet normal 0 0 0
outer loop
vertex 15.469782 12.583692 12.519372
vertex 15.469782 12.604445 12.539371
vertex 15.449306 12.583692 12.539371
endloop
endfacet
facet normal 0 0 0
outer loop
vertex 15.469782 12.583692 12.519372
vertex 15.469782 12.604445 12.519372
vertex 15.490259 12.604445 12.539371
endloop
endfacet
facet normal 0 0 0
outer loop
vertex 15.469782 12.583692 12.519372
vertex 15.490259 12.604445 12.539371
vertex 15.469782 12.604445 12.539371
endloop
endfacet
facet normal 0 0 0
outer loop
vertex 15.387878 12.604445 12.539371
vertex 15.387878 12.625198 12.539371
vertex 15.367403 12.625198 12.519372
endloop
endfacet
facet normal 0 0 0
outer loop
vertex 15.387878 12.604445 12.539371
vertex 15.367403 12.625198 12.519372
vertex 15.387878 12.625198 12.519372
endloop
endfacet
facet normal 0 0 0
outer loop
vertex 15.408356 12.604445 12.519372
vertex 15.387878 12.604445 12.539371
vertex 15.387878 12.625198 12.519372
endloop
endfacet
facet normal 0 0 0
outer loop
vertex 15.490259 12.604445 12.539371
vertex 15.469782 12.604445 12.519372
vertex 15.469782 12.625198 12.539371
endloop
endfacet
facet normal 0 0 0
outer loop
vertex 15.469782 12.604445 12.519372
vertex 15.469782 12.625198 12.519372
vertex 15.469782 12.625198 12.539371
endloop
endfacet
facet normal 0 0 0
outer loop
vertex 15.387878 12.645952 12.539371
vertex 15.367403 12.625198 12.519372
vertex 15.387878 12.625198 12.539371
endloop
endfacet
facet normal 0 0 0
outer loop
vertex 15.367403 12.645952 12.519372
vertex 15.367403 12.625198 12.519372
vertex 15.387878 12.645952 12.539371
endloop
endfacet
facet normal 0 0 0
outer loop
vertex 15.469782 12.625198 12.519372
vertex 15.449306 12.645952 12.519372
vertex 15.469782 12.645952 12.539371
endloop
endfacet
facet normal 0 0 0
outer loop
vertex 15.469782 12.625198 12.519372
vertex 15.469782 12.645952 12.539371
vertex 15.469782 12.625198 12.539371
endloop
endfacet
facet normal 0 0 0
outer loop
vertex 15.367403 12.645952 12.519372
vertex 15.387878 12.666705 12.539371
vertex 15.387878 12.645952 12.519372
endloop
endfacet
facet normal 0 0 0
outer loop
vertex 15.367403 12.645952 12.519372
vertex 15.387878 12.645952 12.539371
vertex 15.387878 12.666705 12.539371
endloop
endfacet
facet normal 0 0 0
outer loop
vertex 15.387878 12.645952 12.519372
vertex 15.408356 12.666705 12.539371
vertex 15.408356 12.645952 12.519372
endloop
endfacet
facet normal 0 0 0
outer loop
vertex 15.387878 12.666705 12.539371
vertex 15.408356 12.666705 12.539371
vertex 15.387878 12.645952 12.519372
endloop
endfacet
facet normal 0 0 0
outer loop
vertex 15.408356 12.645952 12.519372
vertex 15.428831 12.666705 12.539371
vertex 15.428831 12.645952 12.519372
endloop
endfacet
facet normal 0 0 0
outer loop
vertex 15.408356 12.666705 12.539371
vertex 15.428831 12.666705 12.539371
vertex 15.408356 12.645952 12.519372
endloop
endfacet
facet normal 0 0 0
outer loop
vertex 15.428831 12.645952 12.519372
vertex 15.449306 12.666705 12.539371
vertex 15.449306 12.645952 12.519372
endloop
endfacet
facet normal 0 0 0
outer loop
vertex 15.428831 12.666705 12.539371
vertex 15.449306 12.666705 12.539371
vertex 15.428831 12.645952 12.519372
endloop
endfacet
facet normal 0 0 0
outer loop
vertex 15.449306 12.645952 12.519372
vertex 15.449306 12.666705 12.539371
vertex 15.469782 12.645952 12.539371
endloop
endfacet
facet normal 0 0 0
outer loop
vertex 15.428831 12.687459 12.539371
vertex 15.428831 12.666705 12.539371
vertex 15.408356 12.666705 12.539371
endloop
endfacet
facet normal 0 0 0
outer loop
vertex 15.449306 12.666705 12.539371
vertex 15.428831 12.666705 12.539371
vertex 15.449306 12.687459 12.539371
endloop
endfacet
facet normal 0 0 0
outer loop
vertex 15.449306 12.687459 12.539371
vertex 15.428831 12.666705 12.539371
vertex 15.428831 12.687459 12.539371
endloop
endfacet
facet normal 0 0 0
outer loop
vertex 15.469782 12.687459 12.539371
vertex 15.449306 12.666705 12.539371
vertex 15.449306 12.687459 12.539371
endloop
endfacet
facet normal 0 0 0
outer loop
vertex 15.408356 12.604445 12.539371
vertex 15.408356 12.604445 12.559372
vertex 15.387878 12.604445 12.539371
endloop
endfacet
facet normal 0 0 0
outer loop
vertex 15.387878 12.604445 12.539371
vertex 15.408356 12.604445 12.559372
vertex 15.387878 12.604445 12.559372
endloop
endfacet
facet normal 0 0 0
outer loop
vertex 15.428831 12.583692 12.559372
vertex 15.408356 12.604445 12.559372
vertex 15.428831 12.604445 12.539371
endloop
endfacet
facet normal 0 0 0
outer loop
vertex 15.408356 12.604445 12.559372
vertex 15.408356 12.604445 12.539371
vertex 15.428831 12.604445 12.539371
endloop
endfacet
facet normal 0 0 0
outer loop
vertex 15.428831 12.583692 12.559372
vertex 15.428831 12.604445 12.539371
vertex 15.449306 12.604445 12.559372
endloop
endfacet
facet normal 0 0 0
outer loop
vertex 15.449306 12.583692 12.539371
vertex 15.449306 12.604445 12.559372
vertex 15.428831 12.604445 12.539371
endloop
endfacet
facet normal 0 0 0
outer loop
vertex 15.469782 12.583692 12.559372
vertex 15.449306 12.604445 12.559372
vertex 15.469782 12.604445 12.539371
endloop
endfacet
facet normal 0 0 0
outer loop
vertex 15.449306 12.583692 12.539371
vertex 15.469782 12.604445 12.539371
vertex 15.449306 12.604445 12.559372
endloop
endfacet
facet normal 0 0 0
outer loop
vertex 15.469782 12.583692 12.559372
vertex 15.469782 12.604445 12.539371
vertex 15.490259 12.604445 12.559372
endloop
endfacet
facet normal 0 0 0
outer loop
vertex 15.469782 12.604445 12.539371
vertex 15.490259 12.604445 12.539371
vertex 15.490259 12.604445 12.559372
endloop
endfacet
facet normal 0 0 0
outer loop
vertex 15.387878 12.604445 12.539371
vertex 15.387878 12.604445 12.559372
vertex 15.387878 12.625198 12.539371
endloop
endfacet
facet normal 0 0 0
outer loop
vertex 15.387878 12.604445 12.559372
vertex 15.387878 12.625198 12.559372
vertex 15.387878 12.625198 12.539371
endloop
endfacet
facet normal 0 0 0
outer loop
vertex 15.490259 12.604445 12.539371
vertex 15.469782 12.625198 12.539371
vertex 15.490259 12.625198 12.559372
endloop
endfacet
facet normal 0 0 0
outer loop
vertex 15.490259 12.604445 12.539371
vertex 15.490259 12.625198 12.559372
vertex 15.490259 12.604445 12.559372
endloop
endfacet
facet normal 0 0 0
outer loop
vertex 15.387878 12.625198 12.539371
vertex 15.387878 12.625198 12.559372
vertex 15.387878 12.645952 12.539371
endloop
endfacet
facet normal 0 0 0
outer loop
vertex 15.387878 12.625198 12.559372
vertex 15.387878 12.645952 12.559372
vertex 15.387878 12.645952 12.539371
endloop
endfacet
facet normal 0 0 0
outer loop
vertex 15.490259 12.625198 12.559372
vertex 15.469782 12.645952 12.539371
vertex 15.490259 12.645952 12.559372
endloop
endfacet
facet normal 0 0 0
outer loop
vertex 15.469782 12.625198 12.539371
vertex 15.469782 12.645952 12.539371
vertex 15.490259 12.625198 12.559372
endloop
endfacet
facet normal 0 0 0
outer loop
vertex 15.387878 12.645952 12.559372
vertex 15.387878 12.666705 12.539371
vertex 15.387878 12.645952 12.539371
endloop
endfacet
facet normal 0 0 0
outer loop
vertex 15.387878 12.645952 12.559372
vertex 15.408356 12.666705 12.559372
vertex 15.387878 12.666705 12.539371
endloop
endfacet
facet normal 0 0 0
outer loop
vertex 15.469782 12.645952 12.539371
vertex 15.449306 12.666705 12.559372
vertex 15.469782 12.645952 12.559372
endloop
endfacet
facet normal 0 0 0
outer loop
vertex 15.449306 12.666705 12.539371
vertex 15.449306 12.666705 12.559372
vertex 15.469782 12.645952 12.539371
endloop
endfacet
facet normal 0 0 0
outer loop
vertex 15.490259 12.645952 12.559372
vertex 15.469782 12.645952 12.539371
vertex 15.469782 12.645952 12.559372
endloop
endfacet
facet normal 0 0 0
outer loop
vertex 15.387878 12.666705 12.539371
vertex 15.408356 12.666705 12.559372
vertex 15.408356 12.666705 12.539371
endloop
endfacet
facet normal 0 0 0
outer loop
vertex 15.428831 12.687459 12.539371
vertex 15.408356 12.666705 12.539371
vertex 15.428831 12.666705 12.559372
endloop
endfacet
facet normal 0 0 0
outer loop
vertex 15.408356 12.666705 12.539371
vertex 15.408356 12.666705 12.559372
vertex 15.428831 12.666705 12.559372
endloop
endfacet
facet normal 0 0 0
outer loop
vertex 15.428831 12.687459 12.539371
vertex 15.449306 12.666705 12.559372
vertex 15.449306 12.687459 12.539371
endloop
endfacet
facet normal 0 0 0
outer loop
vertex 15.428831 12.666705 12.559372
vertex 15.449306 12.666705 12.559372
vertex 15.428831 12.687459 12.539371
endloop
endfacet
facet normal 0 0 0
outer loop
vertex 15.469782 12.687459 12.539371
vertex 15.449306 12.687459 12.539371
vertex 15.449306 12.666705 12.559372
endloop
endfacet
facet normal 0 0 0
outer loop
vertex 15.469782 12.687459 12.539371
vertex 15.449306 12.666705 12.559372
vertex 15.449306 12.666705 12.539371
endloop
endfacet
facet normal 0 0 0
outer loop
vertex 15.408356 12.583692 12.579371
vertex 15.428831 12.583692 12.559372
vertex 15.428831 12.583692 12.579371
endloop
endfacet
facet normal 0 0 0
outer loop
vertex 15.428831 12.583692 12.559372
vertex 15.449306 12.583692 12.579371
vertex 15.428831 12.583692 12.579371
endloop
endfacet
facet normal 0 0 0
outer loop
vertex 15.408356 12.583692 12.579371
vertex 15.387878 12.604445 12.579371
vertex 15.408356 12.604445 12.559372
endloop
endfacet
facet normal 0 0 0
outer loop
vertex 15.387878 12.604445 12.579371
vertex 15.387878 12.604445 12.559372
vertex 15.408356 12.604445 12.559372
endloop
endfacet
facet normal 0 0 0
outer loop
vertex 15.428831 12.583692 12.559372
vertex 15.408356 12.583692 12.579371
vertex 15.408356 12.604445 12.559372
endloop
endfacet
facet normal 0 0 0
outer loop
vertex 15.428831 12.583692 12.559372
vertex 15.449306 12.604445 12.559372
vertex 15.449306 12.583692 12.579371
endloop
endfacet
facet normal 0 0 0
outer loop
vertex 15.449306 12.583692 12.579371
vertex 15.449306 12.604445 12.559372
vertex 15.469782 12.604445 12.579371
endloop
endfacet
facet normal 0 0 0
outer loop
vertex 15.469782 12.583692 12.559372
vertex 15.469782 12.604445 12.579371
vertex 15.449306 12.604445 12.559372
endloop
endfacet
facet normal 0 0 0
outer loop
vertex 15.469782 12.583692 12.559372
vertex 15.490259 12.604445 12.559372
vertex 15.469782 12.604445 12.579371
endloop
endfacet
facet normal 0 0 0
outer loop
vertex 15.490259 12.604445 12.559372
vertex 15.490259 12.604445 12.579371
vertex 15.469782 12.604445 12.579371
endloop
endfacet
facet normal 0 0 0
outer loop
vertex 15.387878 12.604445 12.579371
vertex 15.387878 12.625198 12.559372
vertex 15.387878 12.604445 12.559372
endloop
endfacet
facet normal 0 0 0
outer loop
vertex 15.387878 12.604445 12.579371
vertex 15.408356 12.625198 12.579371
vertex 15.387878 12.625198 12.559372
endloop
endfacet
facet normal 0 0 0
outer loop
vertex 15.490259 12.604445 12.559372
vertex 15.490259 12.625198 12.559372
vertex 15.490259 12.604445 12.579371
endloop
endfacet
facet normal 0 0 0
outer loop
vertex 15.490259 12.604445 12.579371
vertex 15.490259 12.625198 12.559372
vertex 15.490259 12.625198 12.579371
endloop
endfacet
facet normal 0 0 0
outer loop
vertex 15.408356 12.645952 12.579371
vertex 15.387878 12.625198 12.559372
vertex 15.408356 12.625198 12.579371
endloop
endfacet
facet normal 0 0 0
outer loop
vertex 15.387878 12.645952 12.559372
vertex 15.387878 12.625198 12.559372
vertex 15.408356 12.645952 12.579371
endloop
endfacet
facet normal 0 0 0
outer loop
vertex 15.490259 12.645952 12.559372
vertex 15.469782 12.645952 12.579371
vertex 15.490259 12.625198 12.579371
endloop
endfacet
facet normal 0 0 0
outer loop
vertex 15.490259 12.645952 12.559372
vertex 15.490259 12.625198 12.579371
vertex 15.490259 12.625198 12.559372
endloop
endfacet
facet normal 0 0 0
outer loop
vertex 15.387878 12.645952 12.559372
vertex 15.408356 12.645952 12.579371
vertex 15.408356 12.666705 12.559372
endloop
endfacet
facet normal 0 0 0
outer loop
vertex 15.408356 12.645952 12.579371
vertex 15.408356 12.666705 12.579371
vertex 15.408356 12.666705 12.559372
endloop
endfacet
facet normal 0 0 0
outer loop
vertex 15.469782 12.645952 12.559372
vertex 15.449306 12.666705 12.559372
vertex 15.469782 12.666705 12.579371
endloop
endfacet
facet normal 0 0 0
outer loop
vertex 15.490259 12.645952 12.559372
vertex 15.469782 12.666705 12.579371
vertex 15.469782 12.645952 12.579371
endloop
endfacet
facet normal 0 0 0
outer loop
vertex 15.490259 12.645952 12.559372
vertex 15.469782 12.645952 12.559372
vertex 15.469782 12.666705 12.579371
endloop
endfacet
facet normal 0 0 0
outer loop
vertex 15.428831 12.666705 12.559372
vertex 15.408356 12.666705 12.559372
vertex 15.428831 12.666705 12.579371
endloop
endfacet
facet normal 0 0 0
outer loop
vertex 15.408356 12.666705 12.559372
vertex 15.408356 12.666705 12.579371
vertex 15.428831 12.666705 12.579371
endloop
endfacet
facet normal 0 0 0
outer loop
vertex 15.449306 12.666705 12.559372
vertex 15.428831 12.666705 12.559372
vertex 15.449306 12.666705 12.579371
endloop
endfacet
facet normal 0 0 0
outer loop
vertex 15.428831 12.666705 12.559372
vertex 15.428831 12.666705 12.579371
vertex 15.449306 12.666705 12.579371
endloop
endfacet
facet normal 0 0 0
outer loop
vertex 15.469782 12.666705 12.579371
vertex 15.449306 12.666705 12.559372
vertex 15.449306 12.666705 12.579371
endloop
endfacet
facet normal 0 0 0
outer loop
vertex 15.387878 12.604445 12.579371
vertex 15.408356 12.583692 12.579371
vertex 15.408356 12.604445 12.579371
endloop
endfacet
facet normal 0 0 0
outer loop
vertex 15.428831 12.604445 12.599372
vertex 15.408356 12.604445 12.579371
vertex 15.428831 12.583692 12.579371
endloop
endfacet
facet normal 0 0 0
outer loop
vertex 15.408356 12.604445 12.579371
vertex 15.408356 12.583692 12.579371
vertex 15.428831 12.583692 12.579371
endloop
endfacet
facet normal 0 0 0
outer loop
vertex 15.449306 12.583692 12.579371
vertex 15.428831 12.604445 12.599372
vertex 15.428831 12.583692 12.579371
endloop
endfacet
facet normal 0 0 0
outer loop
vertex 15.449306 12.604445 12.599372
vertex 15.428831 12.604445 12.599372
vertex 15.449306 12.583692 12.579371
endloop
endfacet
facet normal 0 0 0
outer loop
vertex 15.449306 12.583692 12.579371
vertex 15.469782 12.604445 12.579371
vertex 15.449306 12.604445 12.599372
endloop
endfacet
facet normal 0 0 0
outer loop
vertex 15.469782 12.604445 12.579371
vertex 15.469782 12.604445 12.599372
vertex 15.449306 12.604445 12.599372
endloop
endfacet
facet normal 0 0 0
outer loop
vertex 15.490259 12.604445 12.579371
vertex 15.490259 12.604445 12.599372
vertex 15.469782 12.604445 12.579371
endloop
endfacet
facet normal 0 0 0
outer loop
vertex 15.469782 12.604445 12.579371
vertex 15.490259 12.604445 12.599372
vertex 15.469782 12.604445 12.599372
endloop
endfacet
facet normal 0 0 0
outer loop
vertex 15.408356 12.625198 12.599372
vertex 15.387878 12.604445 12.579371
vertex 15.408356 12.604445 12.579371
endloop
endfacet
facet normal 0 0 0
outer loop
vertex 15.408356 12.625198 12.599372
vertex 15.408356 12.625198 12.579371
vertex 15.387878 12.604445 12.579371
endloop
endfacet
facet normal 0 0 0
outer loop
vertex 15.428831 12.604445 12.599372
vertex 15.408356 12.625198 12.599372
vertex 15.408356 12.604445 12.579371
endloop
endfacet
facet normal 0 0 0
outer loop
vertex 15.490259 12.604445 12.579371
vertex 15.490259 12.625198 12.579371
vertex 15.490259 12.604445 12.599372
endloop
endfacet
facet normal 0 0 0
outer loop
vertex 15.490259 12.604445 12.599372
vertex 15.490259 12.625198 12.579371
vertex 15.490259 12.625198 12.599372
endloop
endfacet
facet normal 0 0 0
outer loop
vertex 15.408356 12.625198 12.579371
vertex 15.408356 12.625198 12.599372
vertex 15.408356 12.645952 12.579371
endloop
endfacet
facet normal 0 0 0
outer loop
vertex 15.408356 12.625198 12.599372
vertex 15.408356 12.645952 12.599372
vertex 15.408356 12.645952 12.579371
endloop
endfacet
facet normal 0 0 0
outer loop
vertex 15.490259 12.625198 12.579371
vertex 15.469782 12.645952 12.579371
vertex 15.490259 12.645952 12.599372
endloop
endfacet
facet normal 0 0 0
outer loop
vertex 15.490259 12.625198 12.579371
vertex 15.490259 12.645952 12.599372
vertex 15.490259 12.625198 12.599372
endloop
endfacet
facet normal 0 0 0
outer loop
vertex 15.387878 12.666705 12.599372
vertex 15.408356 12.666705 12.579371
vertex 15.408356 12.645952 12.599372
endloop
endfacet
facet normal 0 0 0
outer loop
vertex 15.408356 12.666705 12.579371
vertex 15.408356 12.645952 12.579371
vertex 15.408356 12.645952 12.599372
endloop
endfacet
facet normal 0 0 0
outer loop
vertex 15.490259 12.645952 12.599372
vertex 15.469782 12.666705 12.579371
vertex 15.490259 12.666705 12.599372
endloop
endfacet
facet normal 0 0 0
outer loop
vertex 15.469782 12.645952 12.579371
vertex 15.469782 12.666705 12.579371
vertex 15.490259 12.645952 12.599372
endloop
endfacet
facet normal 0 0 0
outer loop
vertex 15.408356 12.666705 12.579371
vertex 15.387878 12.666705 12.599372
vertex 15.408356 12.666705 12.599372
endloop
endfacet
facet normal 0 0 0
outer loop
vertex 15.428831 12.687459 12.599372
vertex 15.428831 12.666705 12.579371
vertex 15.408356 12.666705 12.599372
endloop
endfacet
facet normal 0 0 0
outer loop
vertex 15.428831 12.666705 12.579371
vertex 15.408356 12.666705 12.579371
vertex 15.408356 12.666705 12.599372
endloop
endfacet
facet normal 0 0 0
outer loop
vertex 15.428831 12.666705 12.579371
vertex 15.449306 12.687459 12.599372
vertex 15.449306 12.666705 12.579371
endloop
endfacet
facet normal 0 0 0
outer loop
vertex 15.428831 12.687459 12.599372
vertex 15.449306 12.687459 12.599372
vertex 15.428831 12.666705 12.579371
endloop
endfacet
facet normal 0 0 0
outer loop
vertex 15.449306 12.666705 12.579371
vertex 15.469782 12.687459 12.599372
vertex 15.469782 12.666705 12.579371
endloop
endfacet
facet normal 0 0 0
outer loop
vertex 15.449306 12.687459 12.599372
vertex 15.469782 12.687459 12.599372
vertex 15.449306 12.666705 12.579371
endloop
endfacet
facet normal 0 0 0
outer loop
vertex 15.469782 12.666705 12.579371
vertex 15.469782 12.687459 12.599372
vertex 15.490259 12.666705 12.599372
endloop
endfacet
facet normal 0 0 0
outer loop
vertex 15.428831 12.604445 12.599372
vertex 15.428831 12.625198 12.619371
vertex 15.408356 12.625198 12.599372
endloop
endfacet
facet normal 0 0 0
outer loop
vertex 15.428831 12.625198 12.619371
vertex 15.408356 12.625198 12.619371
vertex 15.408356 12.625198 12.599372
endloop
endfacet
facet normal 0 0 0
outer loop
vertex 15.449306 12.604445 12.599372
vertex 15.428831 12.625198 12.619371
vertex 15.428831 12.604445 12.599372
endloop
endfacet
facet normal 0 0 0
outer loop
vertex 15.449306 12.625198 12.619371
vertex 15.428831 12.625198 12.619371
vertex 15.449306 12.604445 12.599372
endloop
endfacet
facet normal 0 0 0
outer loop
vertex 15.469782 12.604445 12.599372
vertex 15.449306 12.625198 12.619371
vertex 15.449306 12.604445 12.599372
endloop
endfacet
facet normal 0 0 0
outer loop
vertex 15.469782 12.625198 12.619371
vertex 15.449306 12.625198 12.619371
vertex 15.469782 12.604445 12.599372
endloop
endfacet
facet normal 0 0 0
outer loop
vertex 15.490259 12.604445 12.599372
vertex 15.469782 12.625198 12.619371
vertex 15.469782 12.604445 12.599372
endloop
endfacet
facet normal 0 0 0
outer loop
vertex 15.490259 12.625198 12.619371
vertex 15.469782 12.625198 12.619371
vertex 15.490259 12.604445 12.599372
endloop
endfacet
facet normal 0 0 0
outer loop
vertex 15.490259 12.625198 12.619371
vertex 15.490259 12.604445 12.599372
vertex 15.490259 12.625198 12.599372
endloop
endfacet
facet normal 0 0 0
outer loop
vertex 15.408356 12.625198 12.599372
vertex 15.408356 12.625198 12.619371
vertex 15.408356 12.645952 12.599372
endloop
endfacet
facet normal 0 0 0
outer loop
vertex 15.408356 12.625198 12.619371
vertex 15.408356 12.645952 12.619371
vertex 15.408356 12.645952 12.599372
endloop
endfacet
facet normal 0 0 0
outer loop
vertex 15.490259 12.625198 12.599372
vertex 15.490259 12.645952 12.599372
vertex 15.490259 12.625198 12.619371
endloop
endfacet
facet normal 0 0 0
outer loop
vertex 15.490259 12.625198 12.619371
vertex 15.490259 12.645952 12.599372
vertex 15.490259 12.645952 12.619371
endloop
endfacet
facet normal 0 0 0
outer loop
vertex 15.408356 12.645952 12.619371
vertex 15.387878 12.666705 12.599372
vertex 15.408356 12.645952 12.599372
endloop
endfacet
facet normal 0 0 0
outer loop
vertex 15.387878 12.666705 12.619371
vertex 15.387878 12.666705 12.599372
vertex 15.408356 12.645952 12.619371
endloop
endfacet
facet normal 0 0 0
outer loop
vertex 15.490259 12.666705 12.599372
vertex 15.469782 12.666705 12.619371
vertex 15.490259 12.645952 12.619371
endloop
endfacet
facet normal 0 0 0
outer loop
vertex 15.490259 12.666705 12.599372
vertex 15.490259 12.645952 12.619371
vertex 15.490259 12.645952 12.599372
endloop
endfacet
facet normal 0 0 0
outer loop
vertex 15.408356 12.687459 12.619371
vertex 15.408356 12.666705 12.599372
vertex 15.387878 12.666705 12.619371
endloop
endfacet
facet normal 0 0 0
outer loop
vertex 15.408356 12.666705 12.599372
vertex 15.387878 12.666705 12.599372
vertex 15.387878 12.666705 12.619371
endloop
endfacet
facet normal 0 0 0
outer loop
vertex 15.408356 12.666705 12.599372
vertex 15.408356 12.687459 12.619371
vertex 15.428831 12.687459 12.599372
endloop
endfacet
facet normal 0 0 0
outer loop
vertex 15.490259 12.687459 12.619371
vertex 15.469782 12.666705 12.619371
vertex 15.469782 12.687459 12.599372
endloop
endfacet
facet normal 0 0 0
outer loop
vertex 15.490259 12.666705 12.599372
vertex 15.469782 12.687459 12.599372
vertex 15.469782 12.666705 12.619371
endloop
endfacet
facet normal 0 0 0
outer loop
vertex 15.428831 12.687459 12.599372
vertex 15.408356 12.687459 12.619371
vertex 15.428831 12.687459 12.619371
endloop
endfacet
facet normal 0 0 0
outer loop
vertex 15.449306 12.687459 12.599372
vertex 15.428831 12.687459 12.599372
vertex 15.449306 12.687459 12.619371
endloop
endfacet
facet normal 0 0 0
outer loop
vertex 15.428831 12.687459 12.599372
vertex 15.428831 12.687459 12.619371
vertex 15.449306 12.687459 12.619371
endloop
endfacet
facet normal 0 0 0
outer loop
vertex 15.469782 12.687459 12.599372
vertex 15.449306 12.687459 12.599372
vertex 15.469782 12.687459 12.619371
endloop
endfacet
facet normal 0 0 0
outer loop
vertex 15.449306 12.687459 12.599372
vertex 15.449306 12.687459 12.619371
vertex 15.469782 12.687459 12.619371
endloop
endfacet
facet normal 0 0 0
outer loop
vertex 15.490259 12.687459 12.619371
vertex 15.469782 12.687459 12.599372
vertex 15.469782 12.687459 12.619371
endloop
endfacet
facet normal 0 0 0
outer loop
vertex 15.428831 12.625198 12.639372
vertex 15.408356 12.625198 12.619371
vertex 15.428831 12.625198 12.619371
endloop
endfacet
facet normal 0 0 0
outer loop
vertex 15.449306 12.625198 12.619371
vertex 15.449306 12.625198 12.639372
vertex 15.428831 12.625198 12.619371
endloop
endfacet
facet normal 0 0 0
outer loop
vertex 15.428831 12.625198 12.619371
vertex 15.449306 12.625198 12.639372
vertex 15.428831 12.625198 12.639372
endloop
endfacet
facet normal 0 0 0
outer loop
vertex 15.469782 12.625198 12.619371
vertex 15.469782 12.625198 12.639372
vertex 15.449306 12.625198 12.619371
endloop
endfacet
facet normal 0 0 0
outer loop
vertex 15.449306 12.625198 12.619371
vertex 15.469782 12.625198 12.639372
vertex 15.449306 12.625198 12.639372
endloop
endfacet
facet normal 0 0 0
outer loop
vertex 15.490259 12.625198 12.619371
vertex 15.490259 12.625198 12.639372
vertex 15.469782 12.625198 12.619371
endloop
endfacet
facet normal 0 0 0
outer loop
vertex 15.469782 12.625198 12.619371
vertex 15.490259 12.625198 12.639372
vertex 15.469782 12.625198 12.639372
endloop
endfacet
facet normal 0 0 0
outer loop
vertex 15.428831 12.645952 12.639372
vertex 15.408356 12.625198 12.619371
vertex 15.428831 12.625198 12.639372
endloop
endfacet
facet normal 0 0 0
outer loop
vertex 15.408356 12.645952 12.619371
vertex 15.408356 12.625198 12.619371
vertex 15.428831 12.645952 12.639372
endloop
endfacet
facet normal 0 0 0
outer loop
vertex 15.490259 12.625198 12.619371
vertex 15.490259 12.645952 12.619371
vertex 15.490259 12.625198 12.639372
endloop
endfacet
facet normal 0 0 0
outer loop
vertex 15.490259 12.625198 12.639372
vertex 15.490259 12.645952 12.619371
vertex 15.490259 12.645952 12.639372
endloop
endfacet
facet normal 0 0 0
outer loop
vertex 15.387878 12.666705 12.619371
vertex 15.408356 12.645952 12.619371
vertex 15.408356 12.666705 12.619371
endloop
endfacet
facet normal 0 0 0
outer loop
vertex 15.428831 12.666705 12.639372
vertex 15.408356 12.645952 12.619371
vertex 15.428831 12.645952 12.639372
endloop
endfacet
facet normal 0 0 0
outer loop
vertex 15.408356 12.666705 12.619371
vertex 15.408356 12.645952 12.619371
vertex 15.428831 12.666705 12.639372
endloop
endfacet
facet normal 0 0 0
outer loop
vertex 15.490259 12.645952 12.619371
vertex 15.469782 12.666705 12.639372
vertex 15.490259 12.645952 12.639372
endloop
endfacet
facet normal 0 0 0
outer loop
vertex 15.469782 12.666705 12.619371
vertex 15.469782 12.666705 12.639372
vertex 15.490259 12.645952 12.619371
endloop
endfacet
facet normal 0 0 0
outer loop
vertex 15.408356 12.687459 12.619371
vertex 15.387878 12.666705 12.619371
vertex 15.408356 12.666705 12.619371
endloop
endfacet
facet normal 0 0 0
outer loop
vertex 15.428831 12.687459 12.639372
vertex 15.408356 12.666705 12.619371
vertex 15.428831 12.666705 12.639372
endloop
endfacet
facet normal 0 0 0
outer loop
vertex 15.408356 12.687459 12.619371
vertex 15.408356 12.666705 12.619371
vertex 15.428831 12.687459 12.639372
endloop
endfacet
facet normal 0 0 0
outer loop
vertex 15.469782 12.687459 12.619371
vertex 15.449306 12.687459 12.639372
vertex 15.469782 12.666705 12.639372
endloop
endfacet
facet normal 0 0 0
outer loop
vertex 15.490259 12.687459 12.619371
vertex 15.469782 12.687459 12.619371
vertex 15.469782 12.666705 12.639372
endloop
endfacet
facet normal 0 0 0
outer loop
vertex 15.490259 12.687459 12.619371
vertex 15.469782 12.666705 12.639372
vertex 15.469782 12.666705 12.619371
endloop
endfacet
facet normal 0 0 0
outer loop
vertex 15.408356 12.687459 12.619371
vertex 15.428831 12.687459 12.639372
vertex 15.428831 12.687459 12.619371
endloop
endfacet
facet normal 0 0 0
outer loop
vertex 15.449306 12.687459 12.619371
vertex 15.428831 12.687459 12.619371
vertex 15.449306 12.687459 12.639372
endloop
endfacet
facet normal 0 0 0
outer loop
vertex 15.428831 12.687459 12.619371
vertex 15.428831 12.687459 12.639372
vertex 15.449306 12.687459 12.639372
endloop
endfacet
facet normal 0 0 0
outer loop
vertex 15.449306 12.687459 12.639372
vertex 15.469782 12.687459 12.619371
vertex 15.449306 12.687459 12.619371
endloop
endfacet
facet normal 0 0 0
outer loop
vertex 15.428831 12.625198 12.639372
vertex 15.428831 12.645952 12.659371
vertex 15.428831 12.645952 12.639372
endloop
endfacet
facet normal 0 0 0
outer loop
vertex 15.449306 12.625198 12.639372
vertex 15.428831 12.645952 12.659371
vertex 15.428831 12.625198 12.639372
endloop
endfacet
facet normal 0 0 0
outer loop
vertex 15.449306 12.645952 12.659371
vertex 15.428831 12.645952 12.659371
vertex 15.449306 12.625198 12.639372
endloop
endfacet
facet normal 0 0 0
outer loop
vertex 15.449306 12.645952 12.659371
vertex 15.449306 12.625198 12.639372
vertex 15.469782 12.645952 12.639372
endloop
endfacet
facet normal 0 0 0
outer loop
vertex 15.449306 12.625198 12.639372
vertex 15.469782 12.625198 12.639372
vertex 15.469782 12.645952 12.639372
endloop
endfacet
facet normal 0 0 0
outer loop
vertex 15.490259 12.625198 12.639372
vertex 15.490259 12.645952 12.639372
vertex 15.469782 12.625198 12.639372
endloop
endfacet
facet normal 0 0 0
outer loop
vertex 15.490259 12.645952 12.639372
vertex 15.469782 12.645952 12.639372
vertex 15.469782 12.625198 12.639372
endloop
endfacet
facet normal 0 0 0
outer loop
vertex 15.428831 12.645952 12.639372
vertex 15.428831 12.645952 12.659371
vertex 15.428831 12.666705 12.639372
endloop
endfacet
facet normal 0 0 0
outer loop
vertex 15.428831 12.645952 12.659371
vertex 15.428831 12.666705 12.659371
vertex 15.428831 12.666705 12.639372
endloop
endfacet
facet normal 0 0 0
outer loop
vertex 15.469782 12.645952 12.639372
vertex 15.469782 12.666705 12.659371
vertex 15.449306 12.645952 12.659371
endloop
endfacet
facet normal 0 0 0
outer loop
vertex 15.490259 12.645952 12.639372
vertex 15.469782 12.666705 12.639372
vertex 15.469782 12.666705 12.659371
endloop
endfacet
facet normal 0 0 0
outer loop
vertex 15.490259 12.645952 12.639372
vertex 15.469782 12.666705 12.659371
vertex 15.469782 12.645952 12.639372
endloop
endfacet
facet normal 0 0 0
outer loop
vertex 15.408356 12.687459 12.659371
vertex 15.428831 12.687459 12.639372
vertex 15.428831 12.666705 12.659371
endloop
endfacet
facet normal 0 0 0
outer loop
vertex 15.428831 12.687459 12.639372
vertex 15.428831 12.666705 12.639372
vertex 15.428831 12.666705 12.659371
endloop
endfacet
facet normal 0 0 0
outer loop
vertex 15.469782 12.666705 12.639372
vertex 15.449306 12.687459 12.659371
vertex 15.469782 12.666705 12.659371
endloop
endfacet
facet normal 0 0 0
outer loop
vertex 15.449306 12.687459 12.639372
vertex 15.449306 12.687459 12.659371
vertex 15.469782 12.666705 12.639372
endloop
endfacet
facet normal 0 0 0
outer loop
vertex 15.428831 12.687459 12.639372
vertex 15.408356 12.687459 12.659371
vertex 15.428831 12.687459 12.659371
endloop
endfacet
facet normal 0 0 0
outer loop
vertex 15.449306 12.687459 12.639372
vertex 15.428831 12.687459 12.639372
vertex 15.449306 12.687459 12.659371
endloop
endfacet
facet normal 0 0 0
outer loop
vertex 15.428831 12.687459 12.639372
vertex 15.428831 12.687459 12.659371
vertex 15.449306 12.687459 12.659371
endloop
endfacet
facet normal 0 0 0
outer loop
vertex 15.449306 12.645952 12.659371
vertex 15.449306 12.666705 12.659371
vertex 15.428831 12.645952 12.659371
endloop
endfacet
facet normal 0 0 0
outer loop
vertex 15.449306 12.666705 12.659371
vertex 15.428831 12.666705 12.659371
vertex 15.428831 12.645952 12.659371
endloop
endfacet
facet normal 0 0 0
outer loop
vertex 15.449306 12.645952 12.659371
vertex 15.469782 12.666705 12.659371
vertex 15.449306 12.666705 12.659371
endloop
endfacet
facet normal 0 0 0
outer loop
vertex 15.408356 12.687459 12.659371
vertex 15.428831 12.666705 12.659371
vertex 15.428831 12.687459 12.659371
endloop
endfacet
facet normal 0 0 0
outer loop
vertex 15.449306 12.666705 12.659371
vertex 15.449306 12.687459 12.659371
vertex 15.428831 12.666705 12.659371
endloop
endfacet
facet normal 0 0 0
outer loop
vertex 15.449306 12.687459 12.659371
vertex 15.428831 12.687459 12.659371
vertex 15.428831 12.666705 12.659371
endloop
endfacet
facet normal 0 0 0
outer loop
vertex 15.469782 12.666705 12.659371
vertex 15.449306 12.687459 12.659371
vertex 15.449306 12.666705 12.659371
endloop
endfacet
endsolid B-16-Plag.305
