solid B-16-Plag.297
facet normal 0 0 0
outer loop
vertex 26.158150 6.938788 12.199371
vertex 26.137674 6.938788 12.199371
vertex 26.158150 6.959542 12.199371
endloop
endfacet
facet normal 0 0 0
outer loop
vertex 26.158150 6.959542 12.199371
vertex 26.137674 6.938788 12.199371
vertex 26.137674 6.959542 12.199371
endloop
endfacet
facet normal 0 0 0
outer loop
vertex 26.178625 6.938788 12.199371
vertex 26.158150 6.938788 12.199371
vertex 26.178625 6.959542 12.199371
endloop
endfacet
facet normal 0 0 0
outer loop
vertex 26.178625 6.959542 12.199371
vertex 26.158150 6.938788 12.199371
vertex 26.158150 6.959542 12.199371
endloop
endfacet
facet normal 0 0 0
outer loop
vertex 26.199102 6.938788 12.199371
vertex 26.178625 6.938788 12.199371
vertex 26.199102 6.959542 12.199371
endloop
endfacet
facet normal 0 0 0
outer loop
vertex 26.199102 6.959542 12.199371
vertex 26.178625 6.938788 12.199371
vertex 26.178625 6.959542 12.199371
endloop
endfacet
facet normal 0 0 0
outer loop
vertex 26.219578 6.938788 12.199371
vertex 26.199102 6.938788 12.199371
vertex 26.219578 6.959542 12.199371
endloop
endfacet
facet normal 0 0 0
outer loop
vertex 26.219578 6.959542 12.199371
vertex 26.199102 6.938788 12.199371
vertex 26.199102 6.959542 12.199371
endloop
endfacet
facet normal 0 0 0
outer loop
vertex 26.158150 6.959542 12.199371
vertex 26.137674 6.959542 12.199371
vertex 26.158150 6.980295 12.199371
endloop
endfacet
facet normal 0 0 0
outer loop
vertex 26.158150 6.980295 12.199371
vertex 26.137674 6.959542 12.199371
vertex 26.137674 6.980295 12.199371
endloop
endfacet
facet normal 0 0 0
outer loop
vertex 26.178625 6.959542 12.199371
vertex 26.158150 6.959542 12.199371
vertex 26.178625 6.980295 12.199371
endloop
endfacet
facet normal 0 0 0
outer loop
vertex 26.178625 6.980295 12.199371
vertex 26.158150 6.959542 12.199371
vertex 26.158150 6.980295 12.199371
endloop
endfacet
facet normal 0 0 0
outer loop
vertex 26.199102 6.959542 12.199371
vertex 26.178625 6.959542 12.199371
vertex 26.199102 6.980295 12.199371
endloop
endfacet
facet normal 0 0 0
outer loop
vertex 26.199102 6.980295 12.199371
vertex 26.178625 6.959542 12.199371
vertex 26.178625 6.980295 12.199371
endloop
endfacet
facet normal 0 0 0
outer loop
vertex 26.219578 6.959542 12.199371
vertex 26.199102 6.959542 12.199371
vertex 26.219578 6.980295 12.199371
endloop
endfacet
facet normal 0 0 0
outer loop
vertex 26.219578 6.980295 12.199371
vertex 26.199102 6.959542 12.199371
vertex 26.199102 6.980295 12.199371
endloop
endfacet
facet normal 0 0 0
outer loop
vertex 26.158150 6.980295 12.199371
vertex 26.137674 6.980295 12.199371
vertex 26.158150 7.001048 12.199371
endloop
endfacet
facet normal 0 0 0
outer loop
vertex 26.158150 7.001048 12.199371
vertex 26.137674 6.980295 12.199371
vertex 26.137674 7.001048 12.199371
endloop
endfacet
facet normal 0 0 0
outer loop
vertex 26.178625 6.980295 12.199371
vertex 26.158150 6.980295 12.199371
vertex 26.178625 7.001048 12.199371
endloop
endfacet
facet normal 0 0 0
outer loop
vertex 26.178625 7.001048 12.199371
vertex 26.158150 6.980295 12.199371
vertex 26.158150 7.001048 12.199371
endloop
endfacet
facet normal 0 0 0
outer loop
vertex 26.199102 6.980295 12.199371
vertex 26.178625 6.980295 12.199371
vertex 26.199102 7.001048 12.199371
endloop
endfacet
facet normal 0 0 0
outer loop
vertex 26.199102 7.001048 12.199371
vertex 26.178625 6.980295 12.199371
vertex 26.178625 7.001048 12.199371
endloop
endfacet
facet normal 0 0 0
outer loop
vertex 26.219578 6.980295 12.199371
vertex 26.199102 6.980295 12.199371
vertex 26.219578 7.001048 12.199371
endloop
endfacet
facet normal 0 0 0
outer loop
vertex 26.219578 7.001048 12.199371
vertex 26.199102 6.980295 12.199371
vertex 26.199102 7.001048 12.199371
endloop
endfacet
facet normal 0 0 0
outer loop
vertex 26.158150 7.001048 12.199371
vertex 26.137674 7.001048 12.199371
vertex 26.158150 7.021802 12.199371
endloop
endfacet
facet normal 0 0 0
outer loop
vertex 26.158150 7.021802 12.199371
vertex 26.137674 7.001048 12.199371
vertex 26.137674 7.021802 12.199371
endloop
endfacet
facet normal 0 0 0
outer loop
vertex 26.178625 7.001048 12.199371
vertex 26.158150 7.001048 12.199371
vertex 26.178625 7.021802 12.199371
endloop
endfacet
facet normal 0 0 0
outer loop
vertex 26.178625 7.021802 12.199371
vertex 26.158150 7.001048 12.199371
vertex 26.158150 7.021802 12.199371
endloop
endfacet
facet normal 0 0 0
outer loop
vertex 26.199102 7.001048 12.199371
vertex 26.178625 7.001048 12.199371
vertex 26.199102 7.021802 12.199371
endloop
endfacet
facet normal 0 0 0
outer loop
vertex 26.199102 7.021802 12.199371
vertex 26.178625 7.001048 12.199371
vertex 26.178625 7.021802 12.199371
endloop
endfacet
facet normal 0 0 0
outer loop
vertex 26.219578 7.001048 12.199371
vertex 26.199102 7.001048 12.199371
vertex 26.219578 7.021802 12.199371
endloop
endfacet
facet normal 0 0 0
outer loop
vertex 26.219578 7.021802 12.199371
vertex 26.199102 7.001048 12.199371
vertex 26.199102 7.021802 12.199371
endloop
endfacet
facet normal 0 0 0
outer loop
vertex 26.158150 7.021802 12.199371
vertex 26.137674 7.021802 12.199371
vertex 26.158150 7.042555 12.199371
endloop
endfacet
facet normal 0 0 0
outer loop
vertex 26.158150 7.042555 12.199371
vertex 26.137674 7.021802 12.199371
vertex 26.137674 7.042555 12.199371
endloop
endfacet
facet normal 0 0 0
outer loop
vertex 26.178625 7.021802 12.199371
vertex 26.158150 7.021802 12.199371
vertex 26.178625 7.042555 12.199371
endloop
endfacet
facet normal 0 0 0
outer loop
vertex 26.178625 7.042555 12.199371
vertex 26.158150 7.021802 12.199371
vertex 26.158150 7.042555 12.199371
endloop
endfacet
facet normal 0 0 0
outer loop
vertex 26.199102 7.021802 12.199371
vertex 26.178625 7.021802 12.199371
vertex 26.199102 7.042555 12.199371
endloop
endfacet
facet normal 0 0 0
outer loop
vertex 26.199102 7.042555 12.199371
vertex 26.178625 7.021802 12.199371
vertex 26.178625 7.042555 12.199371
endloop
endfacet
facet normal 0 0 0
outer loop
vertex 26.219578 7.021802 12.199371
vertex 26.199102 7.021802 12.199371
vertex 26.219578 7.042555 12.199371
endloop
endfacet
facet normal 0 0 0
outer loop
vertex 26.219578 7.042555 12.199371
vertex 26.199102 7.021802 12.199371
vertex 26.199102 7.042555 12.199371
endloop
endfacet
facet normal 0 0 0
outer loop
vertex 26.137674 7.042555 12.199371
vertex 26.158150 7.063309 12.199371
vertex 26.158150 7.042555 12.199371
endloop
endfacet
facet normal 0 0 0
outer loop
vertex 26.178625 7.042555 12.199371
vertex 26.158150 7.042555 12.199371
vertex 26.178625 7.063309 12.199371
endloop
endfacet
facet normal 0 0 0
outer loop
vertex 26.178625 7.063309 12.199371
vertex 26.158150 7.042555 12.199371
vertex 26.158150 7.063309 12.199371
endloop
endfacet
facet normal 0 0 0
outer loop
vertex 26.199102 7.042555 12.199371
vertex 26.178625 7.042555 12.199371
vertex 26.199102 7.063309 12.199371
endloop
endfacet
facet normal 0 0 0
outer loop
vertex 26.199102 7.063309 12.199371
vertex 26.178625 7.042555 12.199371
vertex 26.178625 7.063309 12.199371
endloop
endfacet
facet normal 0 0 0
outer loop
vertex 26.219578 7.042555 12.199371
vertex 26.199102 7.042555 12.199371
vertex 26.219578 7.063309 12.199371
endloop
endfacet
facet normal 0 0 0
outer loop
vertex 26.219578 7.063309 12.199371
vertex 26.199102 7.042555 12.199371
vertex 26.199102 7.063309 12.199371
endloop
endfacet
facet normal 0 0 0
outer loop
vertex 26.178625 7.063309 12.199371
vertex 26.158150 7.063309 12.199371
vertex 26.178625 7.084062 12.199371
endloop
endfacet
facet normal 0 0 0
outer loop
vertex 26.178625 7.084062 12.199371
vertex 26.158150 7.063309 12.199371
vertex 26.158150 7.084062 12.199371
endloop
endfacet
facet normal 0 0 0
outer loop
vertex 26.199102 7.063309 12.199371
vertex 26.178625 7.063309 12.199371
vertex 26.199102 7.084062 12.199371
endloop
endfacet
facet normal 0 0 0
outer loop
vertex 26.199102 7.084062 12.199371
vertex 26.178625 7.063309 12.199371
vertex 26.178625 7.084062 12.199371
endloop
endfacet
facet normal 0 0 0
outer loop
vertex 26.219578 7.063309 12.199371
vertex 26.199102 7.063309 12.199371
vertex 26.219578 7.084062 12.199371
endloop
endfacet
facet normal 0 0 0
outer loop
vertex 26.219578 7.084062 12.199371
vertex 26.199102 7.063309 12.199371
vertex 26.199102 7.084062 12.199371
endloop
endfacet
facet normal 0 0 0
outer loop
vertex 26.178625 7.084062 12.199371
vertex 26.158150 7.084062 12.199371
vertex 26.178625 7.104815 12.199371
endloop
endfacet
facet normal 0 0 0
outer loop
vertex 26.178625 7.104815 12.199371
vertex 26.158150 7.084062 12.199371
vertex 26.158150 7.104815 12.199371
endloop
endfacet
facet normal 0 0 0
outer loop
vertex 26.199102 7.084062 12.199371
vertex 26.178625 7.084062 12.199371
vertex 26.199102 7.104815 12.199371
endloop
endfacet
facet normal 0 0 0
outer loop
vertex 26.199102 7.104815 12.199371
vertex 26.178625 7.084062 12.199371
vertex 26.178625 7.104815 12.199371
endloop
endfacet
facet normal 0 0 0
outer loop
vertex 26.199102 7.104815 12.199371
vertex 26.219578 7.084062 12.199371
vertex 26.199102 7.084062 12.199371
endloop
endfacet
facet normal 0 0 0
outer loop
vertex 26.137674 6.918036 12.219372
vertex 26.117199 6.938788 12.219372
vertex 26.137674 6.938788 12.199371
endloop
endfacet
facet normal 0 0 0
outer loop
vertex 26.158150 6.938788 12.199371
vertex 26.137674 6.918036 12.219372
vertex 26.137674 6.938788 12.199371
endloop
endfacet
facet normal 0 0 0
outer loop
vertex 26.158150 6.918036 12.219372
vertex 26.137674 6.918036 12.219372
vertex 26.158150 6.938788 12.199371
endloop
endfacet
facet normal 0 0 0
outer loop
vertex 26.178625 6.938788 12.199371
vertex 26.158150 6.918036 12.219372
vertex 26.158150 6.938788 12.199371
endloop
endfacet
facet normal 0 0 0
outer loop
vertex 26.178625 6.918036 12.219372
vertex 26.158150 6.918036 12.219372
vertex 26.178625 6.938788 12.199371
endloop
endfacet
facet normal 0 0 0
outer loop
vertex 26.199102 6.938788 12.199371
vertex 26.178625 6.918036 12.219372
vertex 26.178625 6.938788 12.199371
endloop
endfacet
facet normal 0 0 0
outer loop
vertex 26.199102 6.918036 12.219372
vertex 26.178625 6.918036 12.219372
vertex 26.199102 6.938788 12.199371
endloop
endfacet
facet normal 0 0 0
outer loop
vertex 26.219578 6.938788 12.199371
vertex 26.199102 6.918036 12.219372
vertex 26.199102 6.938788 12.199371
endloop
endfacet
facet normal 0 0 0
outer loop
vertex 26.219578 6.918036 12.219372
vertex 26.199102 6.918036 12.219372
vertex 26.219578 6.938788 12.199371
endloop
endfacet
facet normal 0 0 0
outer loop
vertex 26.219578 6.918036 12.219372
vertex 26.219578 6.938788 12.199371
vertex 26.219578 6.938788 12.219372
endloop
endfacet
facet normal 0 0 0
outer loop
vertex 26.137674 6.938788 12.199371
vertex 26.117199 6.959542 12.219372
vertex 26.137674 6.959542 12.199371
endloop
endfacet
facet normal 0 0 0
outer loop
vertex 26.117199 6.938788 12.219372
vertex 26.117199 6.959542 12.219372
vertex 26.137674 6.938788 12.199371
endloop
endfacet
facet normal 0 0 0
outer loop
vertex 26.219578 6.938788 12.199371
vertex 26.219578 6.959542 12.199371
vertex 26.219578 6.938788 12.219372
endloop
endfacet
facet normal 0 0 0
outer loop
vertex 26.219578 6.938788 12.219372
vertex 26.219578 6.959542 12.199371
vertex 26.219578 6.959542 12.219372
endloop
endfacet
facet normal 0 0 0
outer loop
vertex 26.137674 6.959542 12.199371
vertex 26.117199 6.980295 12.219372
vertex 26.137674 6.980295 12.199371
endloop
endfacet
facet normal 0 0 0
outer loop
vertex 26.117199 6.959542 12.219372
vertex 26.117199 6.980295 12.219372
vertex 26.137674 6.959542 12.199371
endloop
endfacet
facet normal 0 0 0
outer loop
vertex 26.219578 6.959542 12.199371
vertex 26.219578 6.980295 12.199371
vertex 26.219578 6.959542 12.219372
endloop
endfacet
facet normal 0 0 0
outer loop
vertex 26.219578 6.959542 12.219372
vertex 26.219578 6.980295 12.199371
vertex 26.219578 6.980295 12.219372
endloop
endfacet
facet normal 0 0 0
outer loop
vertex 26.117199 6.980295 12.219372
vertex 26.137674 7.001048 12.219372
vertex 26.137674 6.980295 12.199371
endloop
endfacet
facet normal 0 0 0
outer loop
vertex 26.137674 7.001048 12.219372
vertex 26.137674 7.001048 12.199371
vertex 26.137674 6.980295 12.199371
endloop
endfacet
facet normal 0 0 0
outer loop
vertex 26.219578 6.980295 12.199371
vertex 26.219578 7.001048 12.199371
vertex 26.219578 6.980295 12.219372
endloop
endfacet
facet normal 0 0 0
outer loop
vertex 26.219578 6.980295 12.219372
vertex 26.219578 7.001048 12.199371
vertex 26.219578 7.001048 12.219372
endloop
endfacet
facet normal 0 0 0
outer loop
vertex 26.137674 7.001048 12.199371
vertex 26.137674 7.001048 12.219372
vertex 26.137674 7.021802 12.199371
endloop
endfacet
facet normal 0 0 0
outer loop
vertex 26.137674 7.001048 12.219372
vertex 26.137674 7.021802 12.219372
vertex 26.137674 7.021802 12.199371
endloop
endfacet
facet normal 0 0 0
outer loop
vertex 26.240053 7.021802 12.219372
vertex 26.219578 7.001048 12.219372
vertex 26.219578 7.021802 12.199371
endloop
endfacet
facet normal 0 0 0
outer loop
vertex 26.219578 7.001048 12.219372
vertex 26.219578 7.001048 12.199371
vertex 26.219578 7.021802 12.199371
endloop
endfacet
facet normal 0 0 0
outer loop
vertex 26.137674 7.021802 12.219372
vertex 26.137674 7.042555 12.199371
vertex 26.137674 7.021802 12.199371
endloop
endfacet
facet normal 0 0 0
outer loop
vertex 26.137674 7.021802 12.219372
vertex 26.158150 7.042555 12.219372
vertex 26.137674 7.042555 12.199371
endloop
endfacet
facet normal 0 0 0
outer loop
vertex 26.240053 7.021802 12.219372
vertex 26.219578 7.021802 12.199371
vertex 26.219578 7.042555 12.219372
endloop
endfacet
facet normal 0 0 0
outer loop
vertex 26.219578 7.021802 12.199371
vertex 26.219578 7.042555 12.199371
vertex 26.219578 7.042555 12.219372
endloop
endfacet
facet normal 0 0 0
outer loop
vertex 26.137674 7.063309 12.219372
vertex 26.158150 7.063309 12.199371
vertex 26.158150 7.042555 12.219372
endloop
endfacet
facet normal 0 0 0
outer loop
vertex 26.137674 7.042555 12.199371
vertex 26.158150 7.042555 12.219372
vertex 26.158150 7.063309 12.199371
endloop
endfacet
facet normal 0 0 0
outer loop
vertex 26.219578 7.042555 12.199371
vertex 26.219578 7.063309 12.199371
vertex 26.219578 7.042555 12.219372
endloop
endfacet
facet normal 0 0 0
outer loop
vertex 26.219578 7.042555 12.219372
vertex 26.219578 7.063309 12.199371
vertex 26.219578 7.063309 12.219372
endloop
endfacet
facet normal 0 0 0
outer loop
vertex 26.158150 7.063309 12.199371
vertex 26.137674 7.084062 12.219372
vertex 26.158150 7.084062 12.199371
endloop
endfacet
facet normal 0 0 0
outer loop
vertex 26.137674 7.063309 12.219372
vertex 26.137674 7.084062 12.219372
vertex 26.158150 7.063309 12.199371
endloop
endfacet
facet normal 0 0 0
outer loop
vertex 26.219578 7.063309 12.199371
vertex 26.219578 7.084062 12.199371
vertex 26.219578 7.063309 12.219372
endloop
endfacet
facet normal 0 0 0
outer loop
vertex 26.219578 7.063309 12.219372
vertex 26.219578 7.084062 12.199371
vertex 26.219578 7.084062 12.219372
endloop
endfacet
facet normal 0 0 0
outer loop
vertex 26.158150 7.084062 12.199371
vertex 26.137674 7.104815 12.219372
vertex 26.158150 7.104815 12.199371
endloop
endfacet
facet normal 0 0 0
outer loop
vertex 26.137674 7.084062 12.219372
vertex 26.137674 7.104815 12.219372
vertex 26.158150 7.084062 12.199371
endloop
endfacet
facet normal 0 0 0
outer loop
vertex 26.219578 7.084062 12.199371
vertex 26.199102 7.104815 12.199371
vertex 26.219578 7.104815 12.219372
endloop
endfacet
facet normal 0 0 0
outer loop
vertex 26.219578 7.084062 12.199371
vertex 26.219578 7.104815 12.219372
vertex 26.219578 7.084062 12.219372
endloop
endfacet
facet normal 0 0 0
outer loop
vertex 26.158150 7.104815 12.199371
vertex 26.137674 7.104815 12.219372
vertex 26.158150 7.125568 12.219372
endloop
endfacet
facet normal 0 0 0
outer loop
vertex 26.137674 7.104815 12.219372
vertex 26.137674 7.125568 12.219372
vertex 26.158150 7.125568 12.219372
endloop
endfacet
facet normal 0 0 0
outer loop
vertex 26.158150 7.104815 12.199371
vertex 26.178625 7.125568 12.219372
vertex 26.178625 7.104815 12.199371
endloop
endfacet
facet normal 0 0 0
outer loop
vertex 26.158150 7.125568 12.219372
vertex 26.178625 7.125568 12.219372
vertex 26.158150 7.104815 12.199371
endloop
endfacet
facet normal 0 0 0
outer loop
vertex 26.178625 7.104815 12.199371
vertex 26.199102 7.125568 12.219372
vertex 26.199102 7.104815 12.199371
endloop
endfacet
facet normal 0 0 0
outer loop
vertex 26.178625 7.125568 12.219372
vertex 26.199102 7.125568 12.219372
vertex 26.178625 7.104815 12.199371
endloop
endfacet
facet normal 0 0 0
outer loop
vertex 26.199102 7.104815 12.199371
vertex 26.199102 7.125568 12.219372
vertex 26.219578 7.104815 12.219372
endloop
endfacet
facet normal 0 0 0
outer loop
vertex 26.137674 7.125568 12.219372
vertex 26.158150 7.146321 12.219372
vertex 26.158150 7.125568 12.219372
endloop
endfacet
facet normal 0 0 0
outer loop
vertex 26.158150 7.146321 12.219372
vertex 26.178625 7.125568 12.219372
vertex 26.158150 7.125568 12.219372
endloop
endfacet
facet normal 0 0 0
outer loop
vertex 26.178625 7.125568 12.219372
vertex 26.199102 7.146321 12.219372
vertex 26.199102 7.125568 12.219372
endloop
endfacet
facet normal 0 0 0
outer loop
vertex 26.158150 6.918036 12.219372
vertex 26.158150 6.918036 12.239372
vertex 26.137674 6.918036 12.219372
endloop
endfacet
facet normal 0 0 0
outer loop
vertex 26.137674 6.918036 12.219372
vertex 26.158150 6.918036 12.239372
vertex 26.137674 6.918036 12.239372
endloop
endfacet
facet normal 0 0 0
outer loop
vertex 26.178625 6.918036 12.219372
vertex 26.178625 6.918036 12.239372
vertex 26.158150 6.918036 12.219372
endloop
endfacet
facet normal 0 0 0
outer loop
vertex 26.158150 6.918036 12.219372
vertex 26.178625 6.918036 12.239372
vertex 26.158150 6.918036 12.239372
endloop
endfacet
facet normal 0 0 0
outer loop
vertex 26.199102 6.918036 12.219372
vertex 26.199102 6.918036 12.239372
vertex 26.178625 6.918036 12.219372
endloop
endfacet
facet normal 0 0 0
outer loop
vertex 26.178625 6.918036 12.219372
vertex 26.199102 6.918036 12.239372
vertex 26.178625 6.918036 12.239372
endloop
endfacet
facet normal 0 0 0
outer loop
vertex 26.219578 6.918036 12.219372
vertex 26.219578 6.918036 12.239372
vertex 26.199102 6.918036 12.219372
endloop
endfacet
facet normal 0 0 0
outer loop
vertex 26.199102 6.918036 12.219372
vertex 26.219578 6.918036 12.239372
vertex 26.199102 6.918036 12.239372
endloop
endfacet
facet normal 0 0 0
outer loop
vertex 26.117199 6.938788 12.219372
vertex 26.137674 6.918036 12.219372
vertex 26.137674 6.938788 12.239372
endloop
endfacet
facet normal 0 0 0
outer loop
vertex 26.137674 6.918036 12.219372
vertex 26.137674 6.918036 12.239372
vertex 26.137674 6.938788 12.239372
endloop
endfacet
facet normal 0 0 0
outer loop
vertex 26.219578 6.918036 12.219372
vertex 26.219578 6.938788 12.219372
vertex 26.219578 6.918036 12.239372
endloop
endfacet
facet normal 0 0 0
outer loop
vertex 26.219578 6.918036 12.239372
vertex 26.219578 6.938788 12.219372
vertex 26.219578 6.938788 12.239372
endloop
endfacet
facet normal 0 0 0
outer loop
vertex 26.137674 6.959542 12.239372
vertex 26.117199 6.938788 12.219372
vertex 26.137674 6.938788 12.239372
endloop
endfacet
facet normal 0 0 0
outer loop
vertex 26.117199 6.959542 12.219372
vertex 26.117199 6.938788 12.219372
vertex 26.137674 6.959542 12.239372
endloop
endfacet
facet normal 0 0 0
outer loop
vertex 26.219578 6.938788 12.219372
vertex 26.219578 6.959542 12.219372
vertex 26.219578 6.938788 12.239372
endloop
endfacet
facet normal 0 0 0
outer loop
vertex 26.219578 6.938788 12.239372
vertex 26.219578 6.959542 12.219372
vertex 26.219578 6.959542 12.239372
endloop
endfacet
facet normal 0 0 0
outer loop
vertex 26.137674 6.980295 12.239372
vertex 26.117199 6.959542 12.219372
vertex 26.137674 6.959542 12.239372
endloop
endfacet
facet normal 0 0 0
outer loop
vertex 26.117199 6.980295 12.219372
vertex 26.117199 6.959542 12.219372
vertex 26.137674 6.980295 12.239372
endloop
endfacet
facet normal 0 0 0
outer loop
vertex 26.219578 6.959542 12.219372
vertex 26.219578 6.980295 12.219372
vertex 26.219578 6.959542 12.239372
endloop
endfacet
facet normal 0 0 0
outer loop
vertex 26.219578 6.959542 12.239372
vertex 26.219578 6.980295 12.219372
vertex 26.219578 6.980295 12.239372
endloop
endfacet
facet normal 0 0 0
outer loop
vertex 26.117199 6.980295 12.219372
vertex 26.137674 6.980295 12.239372
vertex 26.137674 7.001048 12.219372
endloop
endfacet
facet normal 0 0 0
outer loop
vertex 26.137674 6.980295 12.239372
vertex 26.137674 7.001048 12.239372
vertex 26.137674 7.001048 12.219372
endloop
endfacet
facet normal 0 0 0
outer loop
vertex 26.219578 6.980295 12.219372
vertex 26.219578 7.001048 12.219372
vertex 26.219578 6.980295 12.239372
endloop
endfacet
facet normal 0 0 0
outer loop
vertex 26.219578 6.980295 12.239372
vertex 26.219578 7.001048 12.219372
vertex 26.219578 7.001048 12.239372
endloop
endfacet
facet normal 0 0 0
outer loop
vertex 26.137674 7.001048 12.219372
vertex 26.137674 7.001048 12.239372
vertex 26.137674 7.021802 12.219372
endloop
endfacet
facet normal 0 0 0
outer loop
vertex 26.137674 7.001048 12.239372
vertex 26.137674 7.021802 12.239372
vertex 26.137674 7.021802 12.219372
endloop
endfacet
facet normal 0 0 0
outer loop
vertex 26.240053 7.021802 12.219372
vertex 26.219578 7.021802 12.239372
vertex 26.219578 7.001048 12.219372
endloop
endfacet
facet normal 0 0 0
outer loop
vertex 26.219578 7.021802 12.239372
vertex 26.219578 7.001048 12.239372
vertex 26.219578 7.001048 12.219372
endloop
endfacet
facet normal 0 0 0
outer loop
vertex 26.137674 7.042555 12.239372
vertex 26.137674 7.021802 12.219372
vertex 26.137674 7.021802 12.239372
endloop
endfacet
facet normal 0 0 0
outer loop
vertex 26.137674 7.021802 12.219372
vertex 26.137674 7.042555 12.239372
vertex 26.158150 7.042555 12.219372
endloop
endfacet
facet normal 0 0 0
outer loop
vertex 26.240053 7.021802 12.219372
vertex 26.219578 7.042555 12.219372
vertex 26.219578 7.021802 12.239372
endloop
endfacet
facet normal 0 0 0
outer loop
vertex 26.219578 7.042555 12.219372
vertex 26.219578 7.042555 12.239372
vertex 26.219578 7.021802 12.239372
endloop
endfacet
facet normal 0 0 0
outer loop
vertex 26.137674 7.063309 12.219372
vertex 26.137674 7.042555 12.239372
vertex 26.137674 7.063309 12.239372
endloop
endfacet
facet normal 0 0 0
outer loop
vertex 26.158150 7.042555 12.219372
vertex 26.137674 7.042555 12.239372
vertex 26.137674 7.063309 12.219372
endloop
endfacet
facet normal 0 0 0
outer loop
vertex 26.240053 7.063309 12.239372
vertex 26.219578 7.042555 12.239372
vertex 26.219578 7.063309 12.219372
endloop
endfacet
facet normal 0 0 0
outer loop
vertex 26.219578 7.042555 12.239372
vertex 26.219578 7.042555 12.219372
vertex 26.219578 7.063309 12.219372
endloop
endfacet
facet normal 0 0 0
outer loop
vertex 26.137674 7.063309 12.219372
vertex 26.137674 7.063309 12.239372
vertex 26.137674 7.084062 12.219372
endloop
endfacet
facet normal 0 0 0
outer loop
vertex 26.137674 7.063309 12.239372
vertex 26.137674 7.084062 12.239372
vertex 26.137674 7.084062 12.219372
endloop
endfacet
facet normal 0 0 0
outer loop
vertex 26.240053 7.063309 12.239372
vertex 26.219578 7.084062 12.219372
vertex 26.240053 7.084062 12.239372
endloop
endfacet
facet normal 0 0 0
outer loop
vertex 26.219578 7.063309 12.219372
vertex 26.219578 7.084062 12.219372
vertex 26.240053 7.063309 12.239372
endloop
endfacet
facet normal 0 0 0
outer loop
vertex 26.137674 7.084062 12.219372
vertex 26.137674 7.084062 12.239372
vertex 26.137674 7.104815 12.219372
endloop
endfacet
facet normal 0 0 0
outer loop
vertex 26.137674 7.084062 12.239372
vertex 26.137674 7.104815 12.239372
vertex 26.137674 7.104815 12.219372
endloop
endfacet
facet normal 0 0 0
outer loop
vertex 26.240053 7.084062 12.239372
vertex 26.219578 7.104815 12.219372
vertex 26.240053 7.104815 12.239372
endloop
endfacet
facet normal 0 0 0
outer loop
vertex 26.219578 7.084062 12.219372
vertex 26.219578 7.104815 12.219372
vertex 26.240053 7.084062 12.239372
endloop
endfacet
facet normal 0 0 0
outer loop
vertex 26.137674 7.104815 12.219372
vertex 26.137674 7.104815 12.239372
vertex 26.137674 7.125568 12.219372
endloop
endfacet
facet normal 0 0 0
outer loop
vertex 26.137674 7.104815 12.239372
vertex 26.137674 7.125568 12.239372
vertex 26.137674 7.125568 12.219372
endloop
endfacet
facet normal 0 0 0
outer loop
vertex 26.219578 7.104815 12.219372
vertex 26.199102 7.125568 12.219372
vertex 26.219578 7.125568 12.239372
endloop
endfacet
facet normal 0 0 0
outer loop
vertex 26.219578 7.104815 12.219372
vertex 26.219578 7.125568 12.239372
vertex 26.240053 7.104815 12.239372
endloop
endfacet
facet normal 0 0 0
outer loop
vertex 26.158150 7.146321 12.219372
vertex 26.137674 7.125568 12.219372
vertex 26.158150 7.125568 12.239372
endloop
endfacet
facet normal 0 0 0
outer loop
vertex 26.137674 7.125568 12.219372
vertex 26.137674 7.125568 12.239372
vertex 26.158150 7.125568 12.239372
endloop
endfacet
facet normal 0 0 0
outer loop
vertex 26.158150 7.146321 12.219372
vertex 26.158150 7.125568 12.239372
vertex 26.178625 7.125568 12.219372
endloop
endfacet
facet normal 0 0 0
outer loop
vertex 26.158150 7.125568 12.239372
vertex 26.178625 7.125568 12.239372
vertex 26.178625 7.125568 12.219372
endloop
endfacet
facet normal 0 0 0
outer loop
vertex 26.199102 7.146321 12.219372
vertex 26.178625 7.125568 12.219372
vertex 26.199102 7.125568 12.239372
endloop
endfacet
facet normal 0 0 0
outer loop
vertex 26.178625 7.125568 12.219372
vertex 26.178625 7.125568 12.239372
vertex 26.199102 7.125568 12.239372
endloop
endfacet
facet normal 0 0 0
outer loop
vertex 26.219578 7.125568 12.239372
vertex 26.199102 7.146321 12.219372
vertex 26.199102 7.125568 12.239372
endloop
endfacet
facet normal 0 0 0
outer loop
vertex 26.219578 7.125568 12.239372
vertex 26.199102 7.125568 12.219372
vertex 26.199102 7.146321 12.219372
endloop
endfacet
facet normal 0 0 0
outer loop
vertex 26.117199 6.918036 12.259372
vertex 26.137674 6.918036 12.239372
vertex 26.137674 6.918036 12.259372
endloop
endfacet
facet normal 0 0 0
outer loop
vertex 26.158150 6.918036 12.239372
vertex 26.158150 6.918036 12.259372
vertex 26.137674 6.918036 12.239372
endloop
endfacet
facet normal 0 0 0
outer loop
vertex 26.137674 6.918036 12.239372
vertex 26.158150 6.918036 12.259372
vertex 26.137674 6.918036 12.259372
endloop
endfacet
facet normal 0 0 0
outer loop
vertex 26.178625 6.918036 12.239372
vertex 26.178625 6.918036 12.259372
vertex 26.158150 6.918036 12.239372
endloop
endfacet
facet normal 0 0 0
outer loop
vertex 26.158150 6.918036 12.239372
vertex 26.178625 6.918036 12.259372
vertex 26.158150 6.918036 12.259372
endloop
endfacet
facet normal 0 0 0
outer loop
vertex 26.199102 6.918036 12.239372
vertex 26.199102 6.918036 12.259372
vertex 26.178625 6.918036 12.239372
endloop
endfacet
facet normal 0 0 0
outer loop
vertex 26.178625 6.918036 12.239372
vertex 26.199102 6.918036 12.259372
vertex 26.178625 6.918036 12.259372
endloop
endfacet
facet normal 0 0 0
outer loop
vertex 26.219578 6.918036 12.239372
vertex 26.199102 6.918036 12.259372
vertex 26.199102 6.918036 12.239372
endloop
endfacet
facet normal 0 0 0
outer loop
vertex 26.137674 6.918036 12.239372
vertex 26.117199 6.938788 12.259372
vertex 26.137674 6.938788 12.239372
endloop
endfacet
facet normal 0 0 0
outer loop
vertex 26.117199 6.918036 12.259372
vertex 26.117199 6.938788 12.259372
vertex 26.137674 6.918036 12.239372
endloop
endfacet
facet normal 0 0 0
outer loop
vertex 26.219578 6.938788 12.239372
vertex 26.199102 6.918036 12.259372
vertex 26.219578 6.918036 12.239372
endloop
endfacet
facet normal 0 0 0
outer loop
vertex 26.199102 6.938788 12.259372
vertex 26.199102 6.918036 12.259372
vertex 26.219578 6.938788 12.239372
endloop
endfacet
facet normal 0 0 0
outer loop
vertex 26.117199 6.938788 12.259372
vertex 26.096724 6.959542 12.259372
vertex 26.117199 6.959542 12.259372
endloop
endfacet
facet normal 0 0 0
outer loop
vertex 26.137674 6.938788 12.239372
vertex 26.117199 6.959542 12.259372
vertex 26.137674 6.959542 12.239372
endloop
endfacet
facet normal 0 0 0
outer loop
vertex 26.117199 6.938788 12.259372
vertex 26.117199 6.959542 12.259372
vertex 26.137674 6.938788 12.239372
endloop
endfacet
facet normal 0 0 0
outer loop
vertex 26.219578 6.959542 12.239372
vertex 26.199102 6.938788 12.259372
vertex 26.219578 6.938788 12.239372
endloop
endfacet
facet normal 0 0 0
outer loop
vertex 26.199102 6.959542 12.259372
vertex 26.199102 6.938788 12.259372
vertex 26.219578 6.959542 12.239372
endloop
endfacet
facet normal 0 0 0
outer loop
vertex 26.096724 6.959542 12.259372
vertex 26.117199 6.980295 12.259372
vertex 26.117199 6.959542 12.259372
endloop
endfacet
facet normal 0 0 0
outer loop
vertex 26.137674 6.959542 12.239372
vertex 26.117199 6.980295 12.259372
vertex 26.137674 6.980295 12.239372
endloop
endfacet
facet normal 0 0 0
outer loop
vertex 26.117199 6.959542 12.259372
vertex 26.117199 6.980295 12.259372
vertex 26.137674 6.959542 12.239372
endloop
endfacet
facet normal 0 0 0
outer loop
vertex 26.219578 6.959542 12.239372
vertex 26.219578 6.980295 12.259372
vertex 26.199102 6.959542 12.259372
endloop
endfacet
facet normal 0 0 0
outer loop
vertex 26.219578 6.980295 12.259372
vertex 26.219578 6.959542 12.239372
vertex 26.219578 6.980295 12.239372
endloop
endfacet
facet normal 0 0 0
outer loop
vertex 26.137674 6.980295 12.239372
vertex 26.117199 7.001048 12.259372
vertex 26.137674 7.001048 12.239372
endloop
endfacet
facet normal 0 0 0
outer loop
vertex 26.117199 6.980295 12.259372
vertex 26.117199 7.001048 12.259372
vertex 26.137674 6.980295 12.239372
endloop
endfacet
facet normal 0 0 0
outer loop
vertex 26.219578 6.980295 12.239372
vertex 26.219578 7.001048 12.239372
vertex 26.219578 6.980295 12.259372
endloop
endfacet
facet normal 0 0 0
outer loop
vertex 26.219578 6.980295 12.259372
vertex 26.219578 7.001048 12.239372
vertex 26.219578 7.001048 12.259372
endloop
endfacet
facet normal 0 0 0
outer loop
vertex 26.137674 7.001048 12.239372
vertex 26.117199 7.021802 12.259372
vertex 26.137674 7.021802 12.239372
endloop
endfacet
facet normal 0 0 0
outer loop
vertex 26.117199 7.001048 12.259372
vertex 26.117199 7.021802 12.259372
vertex 26.137674 7.001048 12.239372
endloop
endfacet
facet normal 0 0 0
outer loop
vertex 26.219578 7.001048 12.239372
vertex 26.219578 7.021802 12.239372
vertex 26.219578 7.001048 12.259372
endloop
endfacet
facet normal 0 0 0
outer loop
vertex 26.219578 7.001048 12.259372
vertex 26.219578 7.021802 12.239372
vertex 26.219578 7.021802 12.259372
endloop
endfacet
facet normal 0 0 0
outer loop
vertex 26.137674 7.021802 12.239372
vertex 26.117199 7.042555 12.259372
vertex 26.137674 7.042555 12.239372
endloop
endfacet
facet normal 0 0 0
outer loop
vertex 26.117199 7.021802 12.259372
vertex 26.117199 7.042555 12.259372
vertex 26.137674 7.021802 12.239372
endloop
endfacet
facet normal 0 0 0
outer loop
vertex 26.219578 7.021802 12.239372
vertex 26.219578 7.042555 12.239372
vertex 26.219578 7.021802 12.259372
endloop
endfacet
facet normal 0 0 0
outer loop
vertex 26.219578 7.021802 12.259372
vertex 26.219578 7.042555 12.239372
vertex 26.219578 7.042555 12.259372
endloop
endfacet
facet normal 0 0 0
outer loop
vertex 26.137674 7.042555 12.239372
vertex 26.117199 7.063309 12.259372
vertex 26.137674 7.063309 12.239372
endloop
endfacet
facet normal 0 0 0
outer loop
vertex 26.117199 7.042555 12.259372
vertex 26.117199 7.063309 12.259372
vertex 26.137674 7.042555 12.239372
endloop
endfacet
facet normal 0 0 0
outer loop
vertex 26.240053 7.063309 12.239372
vertex 26.219578 7.063309 12.259372
vertex 26.219578 7.042555 12.239372
endloop
endfacet
facet normal 0 0 0
outer loop
vertex 26.219578 7.063309 12.259372
vertex 26.219578 7.042555 12.259372
vertex 26.219578 7.042555 12.239372
endloop
endfacet
facet normal 0 0 0
outer loop
vertex 26.137674 7.063309 12.239372
vertex 26.117199 7.084062 12.259372
vertex 26.137674 7.084062 12.239372
endloop
endfacet
facet normal 0 0 0
outer loop
vertex 26.117199 7.063309 12.259372
vertex 26.117199 7.084062 12.259372
vertex 26.137674 7.063309 12.239372
endloop
endfacet
facet normal 0 0 0
outer loop
vertex 26.219578 7.084062 12.239372
vertex 26.199102 7.084062 12.259372
vertex 26.219578 7.063309 12.259372
endloop
endfacet
facet normal 0 0 0
outer loop
vertex 26.219578 7.063309 12.259372
vertex 26.240053 7.063309 12.239372
vertex 26.219578 7.084062 12.239372
endloop
endfacet
facet normal 0 0 0
outer loop
vertex 26.240053 7.063309 12.239372
vertex 26.240053 7.084062 12.239372
vertex 26.219578 7.084062 12.239372
endloop
endfacet
facet normal 0 0 0
outer loop
vertex 26.137674 7.084062 12.239372
vertex 26.117199 7.104815 12.259372
vertex 26.137674 7.104815 12.239372
endloop
endfacet
facet normal 0 0 0
outer loop
vertex 26.117199 7.084062 12.259372
vertex 26.117199 7.104815 12.259372
vertex 26.137674 7.084062 12.239372
endloop
endfacet
facet normal 0 0 0
outer loop
vertex 26.219578 7.104815 12.239372
vertex 26.199102 7.084062 12.259372
vertex 26.219578 7.084062 12.239372
endloop
endfacet
facet normal 0 0 0
outer loop
vertex 26.199102 7.104815 12.259372
vertex 26.199102 7.084062 12.259372
vertex 26.219578 7.104815 12.239372
endloop
endfacet
facet normal 0 0 0
outer loop
vertex 26.240053 7.084062 12.239372
vertex 26.240053 7.104815 12.239372
vertex 26.219578 7.084062 12.239372
endloop
endfacet
facet normal 0 0 0
outer loop
vertex 26.240053 7.104815 12.239372
vertex 26.219578 7.104815 12.239372
vertex 26.219578 7.084062 12.239372
endloop
endfacet
facet normal 0 0 0
outer loop
vertex 26.117199 7.104815 12.259372
vertex 26.137674 7.125568 12.259372
vertex 26.137674 7.104815 12.239372
endloop
endfacet
facet normal 0 0 0
outer loop
vertex 26.137674 7.125568 12.259372
vertex 26.137674 7.125568 12.239372
vertex 26.137674 7.104815 12.239372
endloop
endfacet
facet normal 0 0 0
outer loop
vertex 26.219578 7.125568 12.239372
vertex 26.199102 7.104815 12.259372
vertex 26.219578 7.104815 12.239372
endloop
endfacet
facet normal 0 0 0
outer loop
vertex 26.199102 7.125568 12.259372
vertex 26.199102 7.104815 12.259372
vertex 26.219578 7.125568 12.239372
endloop
endfacet
facet normal 0 0 0
outer loop
vertex 26.240053 7.104815 12.239372
vertex 26.219578 7.125568 12.239372
vertex 26.219578 7.104815 12.239372
endloop
endfacet
facet normal 0 0 0
outer loop
vertex 26.137674 7.125568 12.239372
vertex 26.117199 7.146321 12.259372
vertex 26.137674 7.146321 12.259372
endloop
endfacet
facet normal 0 0 0
outer loop
vertex 26.137674 7.125568 12.239372
vertex 26.137674 7.125568 12.259372
vertex 26.117199 7.146321 12.259372
endloop
endfacet
facet normal 0 0 0
outer loop
vertex 26.137674 7.125568 12.239372
vertex 26.158150 7.146321 12.259372
vertex 26.158150 7.125568 12.239372
endloop
endfacet
facet normal 0 0 0
outer loop
vertex 26.137674 7.146321 12.259372
vertex 26.158150 7.146321 12.259372
vertex 26.137674 7.125568 12.239372
endloop
endfacet
facet normal 0 0 0
outer loop
vertex 26.158150 7.125568 12.239372
vertex 26.178625 7.146321 12.259372
vertex 26.178625 7.125568 12.239372
endloop
endfacet
facet normal 0 0 0
outer loop
vertex 26.158150 7.146321 12.259372
vertex 26.178625 7.146321 12.259372
vertex 26.158150 7.125568 12.239372
endloop
endfacet
facet normal 0 0 0
outer loop
vertex 26.178625 7.125568 12.239372
vertex 26.199102 7.146321 12.259372
vertex 26.199102 7.125568 12.239372
endloop
endfacet
facet normal 0 0 0
outer loop
vertex 26.178625 7.146321 12.259372
vertex 26.199102 7.146321 12.259372
vertex 26.178625 7.125568 12.239372
endloop
endfacet
facet normal 0 0 0
outer loop
vertex 26.219578 7.125568 12.239372
vertex 26.199102 7.146321 12.259372
vertex 26.199102 7.125568 12.259372
endloop
endfacet
facet normal 0 0 0
outer loop
vertex 26.219578 7.125568 12.239372
vertex 26.199102 7.125568 12.239372
vertex 26.199102 7.146321 12.259372
endloop
endfacet
facet normal 0 0 0
outer loop
vertex 26.137674 7.146321 12.259372
vertex 26.158150 7.167075 12.259372
vertex 26.158150 7.146321 12.259372
endloop
endfacet
facet normal 0 0 0
outer loop
vertex 26.158150 7.167075 12.259372
vertex 26.178625 7.146321 12.259372
vertex 26.158150 7.146321 12.259372
endloop
endfacet
facet normal 0 0 0
outer loop
vertex 26.096724 6.918036 12.279372
vertex 26.117199 6.918036 12.259372
vertex 26.117199 6.918036 12.279372
endloop
endfacet
facet normal 0 0 0
outer loop
vertex 26.137674 6.918036 12.259372
vertex 26.137674 6.918036 12.279372
vertex 26.117199 6.918036 12.259372
endloop
endfacet
facet normal 0 0 0
outer loop
vertex 26.117199 6.918036 12.259372
vertex 26.137674 6.918036 12.279372
vertex 26.117199 6.918036 12.279372
endloop
endfacet
facet normal 0 0 0
outer loop
vertex 26.158150 6.918036 12.259372
vertex 26.158150 6.918036 12.279372
vertex 26.137674 6.918036 12.259372
endloop
endfacet
facet normal 0 0 0
outer loop
vertex 26.137674 6.918036 12.259372
vertex 26.158150 6.918036 12.279372
vertex 26.137674 6.918036 12.279372
endloop
endfacet
facet normal 0 0 0
outer loop
vertex 26.178625 6.918036 12.259372
vertex 26.178625 6.918036 12.279372
vertex 26.158150 6.918036 12.259372
endloop
endfacet
facet normal 0 0 0
outer loop
vertex 26.158150 6.918036 12.259372
vertex 26.178625 6.918036 12.279372
vertex 26.158150 6.918036 12.279372
endloop
endfacet
facet normal 0 0 0
outer loop
vertex 26.199102 6.918036 12.259372
vertex 26.199102 6.918036 12.279372
vertex 26.178625 6.918036 12.259372
endloop
endfacet
facet normal 0 0 0
outer loop
vertex 26.178625 6.918036 12.259372
vertex 26.199102 6.918036 12.279372
vertex 26.178625 6.918036 12.279372
endloop
endfacet
facet normal 0 0 0
outer loop
vertex 26.199102 6.918036 12.259372
vertex 26.219578 6.918036 12.279372
vertex 26.199102 6.918036 12.279372
endloop
endfacet
facet normal 0 0 0
outer loop
vertex 26.117199 6.918036 12.259372
vertex 26.096724 6.938788 12.279372
vertex 26.117199 6.938788 12.259372
endloop
endfacet
facet normal 0 0 0
outer loop
vertex 26.096724 6.918036 12.279372
vertex 26.096724 6.938788 12.279372
vertex 26.117199 6.918036 12.259372
endloop
endfacet
facet normal 0 0 0
outer loop
vertex 26.219578 6.918036 12.279372
vertex 26.199102 6.938788 12.259372
vertex 26.219578 6.938788 12.279372
endloop
endfacet
facet normal 0 0 0
outer loop
vertex 26.199102 6.918036 12.259372
vertex 26.199102 6.938788 12.259372
vertex 26.219578 6.918036 12.279372
endloop
endfacet
facet normal 0 0 0
outer loop
vertex 26.096724 6.938788 12.279372
vertex 26.117199 6.959542 12.279372
vertex 26.117199 6.938788 12.259372
endloop
endfacet
facet normal 0 0 0
outer loop
vertex 26.096724 6.959542 12.259372
vertex 26.117199 6.938788 12.259372
vertex 26.117199 6.959542 12.279372
endloop
endfacet
facet normal 0 0 0
outer loop
vertex 26.219578 6.938788 12.279372
vertex 26.199102 6.959542 12.259372
vertex 26.219578 6.959542 12.279372
endloop
endfacet
facet normal 0 0 0
outer loop
vertex 26.199102 6.938788 12.259372
vertex 26.199102 6.959542 12.259372
vertex 26.219578 6.938788 12.279372
endloop
endfacet
facet normal 0 0 0
outer loop
vertex 26.096724 6.959542 12.259372
vertex 26.117199 6.959542 12.279372
vertex 26.117199 6.980295 12.259372
endloop
endfacet
facet normal 0 0 0
outer loop
vertex 26.117199 6.959542 12.279372
vertex 26.117199 6.980295 12.279372
vertex 26.117199 6.980295 12.259372
endloop
endfacet
facet normal 0 0 0
outer loop
vertex 26.199102 6.959542 12.259372
vertex 26.219578 6.980295 12.259372
vertex 26.219578 6.959542 12.279372
endloop
endfacet
facet normal 0 0 0
outer loop
vertex 26.219578 6.959542 12.279372
vertex 26.219578 6.980295 12.259372
vertex 26.219578 6.980295 12.279372
endloop
endfacet
facet normal 0 0 0
outer loop
vertex 26.117199 6.980295 12.259372
vertex 26.117199 6.980295 12.279372
vertex 26.117199 7.001048 12.259372
endloop
endfacet
facet normal 0 0 0
outer loop
vertex 26.117199 6.980295 12.279372
vertex 26.117199 7.001048 12.279372
vertex 26.117199 7.001048 12.259372
endloop
endfacet
facet normal 0 0 0
outer loop
vertex 26.219578 6.980295 12.259372
vertex 26.219578 7.001048 12.259372
vertex 26.219578 6.980295 12.279372
endloop
endfacet
facet normal 0 0 0
outer loop
vertex 26.219578 6.980295 12.279372
vertex 26.219578 7.001048 12.259372
vertex 26.219578 7.001048 12.279372
endloop
endfacet
facet normal 0 0 0
outer loop
vertex 26.117199 7.001048 12.259372
vertex 26.117199 7.001048 12.279372
vertex 26.117199 7.021802 12.259372
endloop
endfacet
facet normal 0 0 0
outer loop
vertex 26.117199 7.001048 12.279372
vertex 26.117199 7.021802 12.279372
vertex 26.117199 7.021802 12.259372
endloop
endfacet
facet normal 0 0 0
outer loop
vertex 26.219578 7.021802 12.259372
vertex 26.199102 7.021802 12.279372
vertex 26.219578 7.001048 12.279372
endloop
endfacet
facet normal 0 0 0
outer loop
vertex 26.219578 7.021802 12.259372
vertex 26.219578 7.001048 12.279372
vertex 26.219578 7.001048 12.259372
endloop
endfacet
facet normal 0 0 0
outer loop
vertex 26.117199 7.021802 12.259372
vertex 26.117199 7.021802 12.279372
vertex 26.117199 7.042555 12.259372
endloop
endfacet
facet normal 0 0 0
outer loop
vertex 26.117199 7.021802 12.279372
vertex 26.117199 7.042555 12.279372
vertex 26.117199 7.042555 12.259372
endloop
endfacet
facet normal 0 0 0
outer loop
vertex 26.219578 7.021802 12.259372
vertex 26.219578 7.042555 12.279372
vertex 26.199102 7.021802 12.279372
endloop
endfacet
facet normal 0 0 0
outer loop
vertex 26.219578 7.042555 12.279372
vertex 26.219578 7.021802 12.259372
vertex 26.219578 7.042555 12.259372
endloop
endfacet
facet normal 0 0 0
outer loop
vertex 26.117199 7.042555 12.259372
vertex 26.117199 7.042555 12.279372
vertex 26.117199 7.063309 12.259372
endloop
endfacet
facet normal 0 0 0
outer loop
vertex 26.117199 7.042555 12.279372
vertex 26.117199 7.063309 12.279372
vertex 26.117199 7.063309 12.259372
endloop
endfacet
facet normal 0 0 0
outer loop
vertex 26.219578 7.042555 12.259372
vertex 26.219578 7.063309 12.259372
vertex 26.219578 7.042555 12.279372
endloop
endfacet
facet normal 0 0 0
outer loop
vertex 26.219578 7.042555 12.279372
vertex 26.219578 7.063309 12.259372
vertex 26.219578 7.063309 12.279372
endloop
endfacet
facet normal 0 0 0
outer loop
vertex 26.117199 7.063309 12.259372
vertex 26.117199 7.063309 12.279372
vertex 26.117199 7.084062 12.259372
endloop
endfacet
facet normal 0 0 0
outer loop
vertex 26.117199 7.063309 12.279372
vertex 26.117199 7.084062 12.279372
vertex 26.117199 7.084062 12.259372
endloop
endfacet
facet normal 0 0 0
outer loop
vertex 26.219578 7.063309 12.259372
vertex 26.199102 7.084062 12.259372
vertex 26.219578 7.084062 12.279372
endloop
endfacet
facet normal 0 0 0
outer loop
vertex 26.219578 7.063309 12.259372
vertex 26.219578 7.084062 12.279372
vertex 26.219578 7.063309 12.279372
endloop
endfacet
facet normal 0 0 0
outer loop
vertex 26.117199 7.084062 12.279372
vertex 26.117199 7.104815 12.259372
vertex 26.117199 7.084062 12.259372
endloop
endfacet
facet normal 0 0 0
outer loop
vertex 26.117199 7.084062 12.279372
vertex 26.137674 7.104815 12.279372
vertex 26.117199 7.104815 12.259372
endloop
endfacet
facet normal 0 0 0
outer loop
vertex 26.219578 7.084062 12.279372
vertex 26.199102 7.084062 12.259372
vertex 26.199102 7.104815 12.279372
endloop
endfacet
facet normal 0 0 0
outer loop
vertex 26.199102 7.084062 12.259372
vertex 26.199102 7.104815 12.259372
vertex 26.199102 7.104815 12.279372
endloop
endfacet
facet normal 0 0 0
outer loop
vertex 26.117199 7.104815 12.259372
vertex 26.137674 7.104815 12.279372
vertex 26.137674 7.125568 12.259372
endloop
endfacet
facet normal 0 0 0
outer loop
vertex 26.137674 7.104815 12.279372
vertex 26.137674 7.125568 12.279372
vertex 26.137674 7.125568 12.259372
endloop
endfacet
facet normal 0 0 0
outer loop
vertex 26.199102 7.104815 12.259372
vertex 26.199102 7.125568 12.259372
vertex 26.199102 7.104815 12.279372
endloop
endfacet
facet normal 0 0 0
outer loop
vertex 26.199102 7.104815 12.279372
vertex 26.199102 7.125568 12.259372
vertex 26.199102 7.125568 12.279372
endloop
endfacet
facet normal 0 0 0
outer loop
vertex 26.117199 7.146321 12.259372
vertex 26.137674 7.125568 12.259372
vertex 26.137674 7.146321 12.279372
endloop
endfacet
facet normal 0 0 0
outer loop
vertex 26.137674 7.125568 12.259372
vertex 26.137674 7.125568 12.279372
vertex 26.137674 7.146321 12.279372
endloop
endfacet
facet normal 0 0 0
outer loop
vertex 26.199102 7.125568 12.259372
vertex 26.199102 7.146321 12.259372
vertex 26.199102 7.125568 12.279372
endloop
endfacet
facet normal 0 0 0
outer loop
vertex 26.199102 7.125568 12.279372
vertex 26.199102 7.146321 12.259372
vertex 26.199102 7.146321 12.279372
endloop
endfacet
facet normal 0 0 0
outer loop
vertex 26.117199 7.146321 12.259372
vertex 26.137674 7.146321 12.279372
vertex 26.137674 7.146321 12.259372
endloop
endfacet
facet normal 0 0 0
outer loop
vertex 26.158150 7.167075 12.259372
vertex 26.137674 7.146321 12.259372
vertex 26.158150 7.146321 12.279372
endloop
endfacet
facet normal 0 0 0
outer loop
vertex 26.137674 7.146321 12.259372
vertex 26.137674 7.146321 12.279372
vertex 26.158150 7.146321 12.279372
endloop
endfacet
facet normal 0 0 0
outer loop
vertex 26.158150 7.167075 12.259372
vertex 26.158150 7.146321 12.279372
vertex 26.178625 7.146321 12.259372
endloop
endfacet
facet normal 0 0 0
outer loop
vertex 26.158150 7.146321 12.279372
vertex 26.178625 7.146321 12.279372
vertex 26.178625 7.146321 12.259372
endloop
endfacet
facet normal 0 0 0
outer loop
vertex 26.199102 7.167075 12.279372
vertex 26.199102 7.146321 12.259372
vertex 26.178625 7.146321 12.279372
endloop
endfacet
facet normal 0 0 0
outer loop
vertex 26.199102 7.146321 12.259372
vertex 26.178625 7.146321 12.259372
vertex 26.178625 7.146321 12.279372
endloop
endfacet
facet normal 0 0 0
outer loop
vertex 26.199102 7.146321 12.259372
vertex 26.199102 7.167075 12.279372
vertex 26.199102 7.146321 12.279372
endloop
endfacet
facet normal 0 0 0
outer loop
vertex 26.117199 6.918036 12.299372
vertex 26.096724 6.918036 12.279372
vertex 26.117199 6.918036 12.279372
endloop
endfacet
facet normal 0 0 0
outer loop
vertex 26.137674 6.918036 12.279372
vertex 26.137674 6.918036 12.299372
vertex 26.117199 6.918036 12.279372
endloop
endfacet
facet normal 0 0 0
outer loop
vertex 26.117199 6.918036 12.279372
vertex 26.137674 6.918036 12.299372
vertex 26.117199 6.918036 12.299372
endloop
endfacet
facet normal 0 0 0
outer loop
vertex 26.158150 6.918036 12.279372
vertex 26.158150 6.918036 12.299372
vertex 26.137674 6.918036 12.279372
endloop
endfacet
facet normal 0 0 0
outer loop
vertex 26.137674 6.918036 12.279372
vertex 26.158150 6.918036 12.299372
vertex 26.137674 6.918036 12.299372
endloop
endfacet
facet normal 0 0 0
outer loop
vertex 26.178625 6.918036 12.279372
vertex 26.178625 6.918036 12.299372
vertex 26.158150 6.918036 12.279372
endloop
endfacet
facet normal 0 0 0
outer loop
vertex 26.158150 6.918036 12.279372
vertex 26.178625 6.918036 12.299372
vertex 26.158150 6.918036 12.299372
endloop
endfacet
facet normal 0 0 0
outer loop
vertex 26.199102 6.918036 12.279372
vertex 26.199102 6.918036 12.299372
vertex 26.178625 6.918036 12.279372
endloop
endfacet
facet normal 0 0 0
outer loop
vertex 26.178625 6.918036 12.279372
vertex 26.199102 6.918036 12.299372
vertex 26.178625 6.918036 12.299372
endloop
endfacet
facet normal 0 0 0
outer loop
vertex 26.219578 6.918036 12.279372
vertex 26.199102 6.918036 12.299372
vertex 26.199102 6.918036 12.279372
endloop
endfacet
facet normal 0 0 0
outer loop
vertex 26.117199 6.938788 12.299372
vertex 26.096724 6.918036 12.279372
vertex 26.117199 6.918036 12.299372
endloop
endfacet
facet normal 0 0 0
outer loop
vertex 26.096724 6.938788 12.279372
vertex 26.096724 6.918036 12.279372
vertex 26.117199 6.938788 12.299372
endloop
endfacet
facet normal 0 0 0
outer loop
vertex 26.219578 6.938788 12.279372
vertex 26.199102 6.918036 12.299372
vertex 26.219578 6.918036 12.279372
endloop
endfacet
facet normal 0 0 0
outer loop
vertex 26.199102 6.938788 12.299372
vertex 26.199102 6.918036 12.299372
vertex 26.219578 6.938788 12.279372
endloop
endfacet
facet normal 0 0 0
outer loop
vertex 26.096724 6.959542 12.299372
vertex 26.117199 6.959542 12.279372
vertex 26.117199 6.938788 12.299372
endloop
endfacet
facet normal 0 0 0
outer loop
vertex 26.096724 6.938788 12.279372
vertex 26.117199 6.938788 12.299372
vertex 26.117199 6.959542 12.279372
endloop
endfacet
facet normal 0 0 0
outer loop
vertex 26.219578 6.959542 12.279372
vertex 26.199102 6.938788 12.299372
vertex 26.219578 6.938788 12.279372
endloop
endfacet
facet normal 0 0 0
outer loop
vertex 26.199102 6.959542 12.299372
vertex 26.199102 6.938788 12.299372
vertex 26.219578 6.959542 12.279372
endloop
endfacet
facet normal 0 0 0
outer loop
vertex 26.096724 6.959542 12.299372
vertex 26.117199 6.980295 12.299372
vertex 26.117199 6.959542 12.279372
endloop
endfacet
facet normal 0 0 0
outer loop
vertex 26.117199 6.980295 12.299372
vertex 26.117199 6.980295 12.279372
vertex 26.117199 6.959542 12.279372
endloop
endfacet
facet normal 0 0 0
outer loop
vertex 26.219578 6.980295 12.279372
vertex 26.199102 6.959542 12.299372
vertex 26.219578 6.959542 12.279372
endloop
endfacet
facet normal 0 0 0
outer loop
vertex 26.199102 6.980295 12.299372
vertex 26.199102 6.959542 12.299372
vertex 26.219578 6.980295 12.279372
endloop
endfacet
facet normal 0 0 0
outer loop
vertex 26.117199 6.980295 12.279372
vertex 26.117199 6.980295 12.299372
vertex 26.117199 7.001048 12.279372
endloop
endfacet
facet normal 0 0 0
outer loop
vertex 26.117199 6.980295 12.299372
vertex 26.117199 7.001048 12.299372
vertex 26.117199 7.001048 12.279372
endloop
endfacet
facet normal 0 0 0
outer loop
vertex 26.219578 7.001048 12.279372
vertex 26.199102 6.980295 12.299372
vertex 26.219578 6.980295 12.279372
endloop
endfacet
facet normal 0 0 0
outer loop
vertex 26.199102 7.001048 12.299372
vertex 26.199102 6.980295 12.299372
vertex 26.219578 7.001048 12.279372
endloop
endfacet
facet normal 0 0 0
outer loop
vertex 26.117199 7.001048 12.279372
vertex 26.117199 7.001048 12.299372
vertex 26.117199 7.021802 12.279372
endloop
endfacet
facet normal 0 0 0
outer loop
vertex 26.117199 7.001048 12.299372
vertex 26.117199 7.021802 12.299372
vertex 26.117199 7.021802 12.279372
endloop
endfacet
facet normal 0 0 0
outer loop
vertex 26.219578 7.001048 12.279372
vertex 26.199102 7.021802 12.279372
vertex 26.199102 7.001048 12.299372
endloop
endfacet
facet normal 0 0 0
outer loop
vertex 26.199102 7.021802 12.279372
vertex 26.199102 7.021802 12.299372
vertex 26.199102 7.001048 12.299372
endloop
endfacet
facet normal 0 0 0
outer loop
vertex 26.117199 7.021802 12.279372
vertex 26.117199 7.021802 12.299372
vertex 26.117199 7.042555 12.279372
endloop
endfacet
facet normal 0 0 0
outer loop
vertex 26.117199 7.021802 12.299372
vertex 26.117199 7.042555 12.299372
vertex 26.117199 7.042555 12.279372
endloop
endfacet
facet normal 0 0 0
outer loop
vertex 26.199102 7.021802 12.279372
vertex 26.219578 7.042555 12.299372
vertex 26.199102 7.021802 12.299372
endloop
endfacet
facet normal 0 0 0
outer loop
vertex 26.219578 7.042555 12.279372
vertex 26.219578 7.042555 12.299372
vertex 26.199102 7.021802 12.279372
endloop
endfacet
facet normal 0 0 0
outer loop
vertex 26.117199 7.042555 12.279372
vertex 26.117199 7.042555 12.299372
vertex 26.117199 7.063309 12.279372
endloop
endfacet
facet normal 0 0 0
outer loop
vertex 26.117199 7.042555 12.299372
vertex 26.117199 7.063309 12.299372
vertex 26.117199 7.063309 12.279372
endloop
endfacet
facet normal 0 0 0
outer loop
vertex 26.219578 7.042555 12.279372
vertex 26.219578 7.063309 12.279372
vertex 26.219578 7.042555 12.299372
endloop
endfacet
facet normal 0 0 0
outer loop
vertex 26.219578 7.042555 12.299372
vertex 26.219578 7.063309 12.279372
vertex 26.219578 7.063309 12.299372
endloop
endfacet
facet normal 0 0 0
outer loop
vertex 26.117199 7.063309 12.279372
vertex 26.117199 7.063309 12.299372
vertex 26.117199 7.084062 12.279372
endloop
endfacet
facet normal 0 0 0
outer loop
vertex 26.117199 7.063309 12.299372
vertex 26.117199 7.084062 12.299372
vertex 26.117199 7.084062 12.279372
endloop
endfacet
facet normal 0 0 0
outer loop
vertex 26.219578 7.063309 12.279372
vertex 26.219578 7.084062 12.279372
vertex 26.219578 7.063309 12.299372
endloop
endfacet
facet normal 0 0 0
outer loop
vertex 26.219578 7.063309 12.299372
vertex 26.219578 7.084062 12.279372
vertex 26.219578 7.084062 12.299372
endloop
endfacet
facet normal 0 0 0
outer loop
vertex 26.117199 7.104815 12.299372
vertex 26.117199 7.084062 12.279372
vertex 26.117199 7.084062 12.299372
endloop
endfacet
facet normal 0 0 0
outer loop
vertex 26.117199 7.084062 12.279372
vertex 26.117199 7.104815 12.299372
vertex 26.137674 7.104815 12.279372
endloop
endfacet
facet normal 0 0 0
outer loop
vertex 26.219578 7.084062 12.279372
vertex 26.199102 7.104815 12.299372
vertex 26.219578 7.084062 12.299372
endloop
endfacet
facet normal 0 0 0
outer loop
vertex 26.199102 7.104815 12.279372
vertex 26.199102 7.104815 12.299372
vertex 26.219578 7.084062 12.279372
endloop
endfacet
facet normal 0 0 0
outer loop
vertex 26.117199 7.104815 12.299372
vertex 26.137674 7.125568 12.299372
vertex 26.137674 7.104815 12.279372
endloop
endfacet
facet normal 0 0 0
outer loop
vertex 26.137674 7.125568 12.299372
vertex 26.137674 7.125568 12.279372
vertex 26.137674 7.104815 12.279372
endloop
endfacet
facet normal 0 0 0
outer loop
vertex 26.199102 7.104815 12.279372
vertex 26.199102 7.125568 12.279372
vertex 26.199102 7.104815 12.299372
endloop
endfacet
facet normal 0 0 0
outer loop
vertex 26.199102 7.104815 12.299372
vertex 26.199102 7.125568 12.279372
vertex 26.199102 7.125568 12.299372
endloop
endfacet
facet normal 0 0 0
outer loop
vertex 26.137674 7.125568 12.299372
vertex 26.137674 7.146321 12.279372
vertex 26.137674 7.125568 12.279372
endloop
endfacet
facet normal 0 0 0
outer loop
vertex 26.137674 7.146321 12.279372
vertex 26.158150 7.125568 12.299372
vertex 26.158150 7.146321 12.279372
endloop
endfacet
facet normal 0 0 0
outer loop
vertex 26.137674 7.125568 12.299372
vertex 26.158150 7.125568 12.299372
vertex 26.137674 7.146321 12.279372
endloop
endfacet
facet normal 0 0 0
outer loop
vertex 26.158150 7.125568 12.299372
vertex 26.178625 7.146321 12.299372
vertex 26.158150 7.146321 12.279372
endloop
endfacet
facet normal 0 0 0
outer loop
vertex 26.199102 7.146321 12.279372
vertex 26.178625 7.146321 12.299372
vertex 26.199102 7.125568 12.299372
endloop
endfacet
facet normal 0 0 0
outer loop
vertex 26.199102 7.146321 12.279372
vertex 26.199102 7.125568 12.299372
vertex 26.199102 7.125568 12.279372
endloop
endfacet
facet normal 0 0 0
outer loop
vertex 26.158150 7.146321 12.279372
vertex 26.178625 7.146321 12.299372
vertex 26.178625 7.146321 12.279372
endloop
endfacet
facet normal 0 0 0
outer loop
vertex 26.199102 7.167075 12.279372
vertex 26.178625 7.146321 12.299372
vertex 26.199102 7.146321 12.279372
endloop
endfacet
facet normal 0 0 0
outer loop
vertex 26.199102 7.167075 12.279372
vertex 26.178625 7.146321 12.279372
vertex 26.178625 7.146321 12.299372
endloop
endfacet
facet normal 0 0 0
outer loop
vertex 26.137674 6.918036 12.299372
vertex 26.137674 6.938788 12.299372
vertex 26.117199 6.918036 12.299372
endloop
endfacet
facet normal 0 0 0
outer loop
vertex 26.137674 6.938788 12.299372
vertex 26.117199 6.938788 12.299372
vertex 26.117199 6.918036 12.299372
endloop
endfacet
facet normal 0 0 0
outer loop
vertex 26.158150 6.918036 12.299372
vertex 26.158150 6.938788 12.299372
vertex 26.137674 6.918036 12.299372
endloop
endfacet
facet normal 0 0 0
outer loop
vertex 26.158150 6.938788 12.299372
vertex 26.137674 6.938788 12.299372
vertex 26.137674 6.918036 12.299372
endloop
endfacet
facet normal 0 0 0
outer loop
vertex 26.178625 6.918036 12.299372
vertex 26.178625 6.938788 12.299372
vertex 26.158150 6.918036 12.299372
endloop
endfacet
facet normal 0 0 0
outer loop
vertex 26.178625 6.938788 12.299372
vertex 26.158150 6.938788 12.299372
vertex 26.158150 6.918036 12.299372
endloop
endfacet
facet normal 0 0 0
outer loop
vertex 26.199102 6.918036 12.299372
vertex 26.199102 6.938788 12.299372
vertex 26.178625 6.918036 12.299372
endloop
endfacet
facet normal 0 0 0
outer loop
vertex 26.199102 6.938788 12.299372
vertex 26.178625 6.938788 12.299372
vertex 26.178625 6.918036 12.299372
endloop
endfacet
facet normal 0 0 0
outer loop
vertex 26.096724 6.959542 12.299372
vertex 26.117199 6.938788 12.299372
vertex 26.117199 6.959542 12.299372
endloop
endfacet
facet normal 0 0 0
outer loop
vertex 26.137674 6.938788 12.299372
vertex 26.137674 6.959542 12.299372
vertex 26.117199 6.938788 12.299372
endloop
endfacet
facet normal 0 0 0
outer loop
vertex 26.137674 6.959542 12.299372
vertex 26.117199 6.959542 12.299372
vertex 26.117199 6.938788 12.299372
endloop
endfacet
facet normal 0 0 0
outer loop
vertex 26.158150 6.938788 12.299372
vertex 26.158150 6.959542 12.299372
vertex 26.137674 6.938788 12.299372
endloop
endfacet
facet normal 0 0 0
outer loop
vertex 26.158150 6.959542 12.299372
vertex 26.137674 6.959542 12.299372
vertex 26.137674 6.938788 12.299372
endloop
endfacet
facet normal 0 0 0
outer loop
vertex 26.178625 6.938788 12.299372
vertex 26.178625 6.959542 12.299372
vertex 26.158150 6.938788 12.299372
endloop
endfacet
facet normal 0 0 0
outer loop
vertex 26.178625 6.959542 12.299372
vertex 26.158150 6.959542 12.299372
vertex 26.158150 6.938788 12.299372
endloop
endfacet
facet normal 0 0 0
outer loop
vertex 26.199102 6.938788 12.299372
vertex 26.199102 6.959542 12.299372
vertex 26.178625 6.938788 12.299372
endloop
endfacet
facet normal 0 0 0
outer loop
vertex 26.199102 6.959542 12.299372
vertex 26.178625 6.959542 12.299372
vertex 26.178625 6.938788 12.299372
endloop
endfacet
facet normal 0 0 0
outer loop
vertex 26.117199 6.980295 12.299372
vertex 26.096724 6.959542 12.299372
vertex 26.117199 6.959542 12.299372
endloop
endfacet
facet normal 0 0 0
outer loop
vertex 26.137674 6.980295 12.319372
vertex 26.117199 6.980295 12.299372
vertex 26.137674 6.959542 12.299372
endloop
endfacet
facet normal 0 0 0
outer loop
vertex 26.117199 6.980295 12.299372
vertex 26.117199 6.959542 12.299372
vertex 26.137674 6.959542 12.299372
endloop
endfacet
facet normal 0 0 0
outer loop
vertex 26.158150 6.959542 12.299372
vertex 26.137674 6.980295 12.319372
vertex 26.137674 6.959542 12.299372
endloop
endfacet
facet normal 0 0 0
outer loop
vertex 26.158150 6.980295 12.319372
vertex 26.137674 6.980295 12.319372
vertex 26.158150 6.959542 12.299372
endloop
endfacet
facet normal 0 0 0
outer loop
vertex 26.158150 6.980295 12.319372
vertex 26.158150 6.959542 12.299372
vertex 26.178625 6.980295 12.299372
endloop
endfacet
facet normal 0 0 0
outer loop
vertex 26.158150 6.959542 12.299372
vertex 26.178625 6.959542 12.299372
vertex 26.178625 6.980295 12.299372
endloop
endfacet
facet normal 0 0 0
outer loop
vertex 26.199102 6.959542 12.299372
vertex 26.199102 6.980295 12.299372
vertex 26.178625 6.959542 12.299372
endloop
endfacet
facet normal 0 0 0
outer loop
vertex 26.199102 6.980295 12.299372
vertex 26.178625 6.980295 12.299372
vertex 26.178625 6.959542 12.299372
endloop
endfacet
facet normal 0 0 0
outer loop
vertex 26.137674 7.001048 12.319372
vertex 26.117199 6.980295 12.299372
vertex 26.137674 6.980295 12.319372
endloop
endfacet
facet normal 0 0 0
outer loop
vertex 26.117199 7.001048 12.299372
vertex 26.117199 6.980295 12.299372
vertex 26.137674 7.001048 12.319372
endloop
endfacet
facet normal 0 0 0
outer loop
vertex 26.178625 7.001048 12.299372
vertex 26.158150 6.980295 12.319372
vertex 26.178625 6.980295 12.299372
endloop
endfacet
facet normal 0 0 0
outer loop
vertex 26.158150 7.001048 12.319372
vertex 26.158150 6.980295 12.319372
vertex 26.178625 7.001048 12.299372
endloop
endfacet
facet normal 0 0 0
outer loop
vertex 26.199102 6.980295 12.299372
vertex 26.199102 7.001048 12.299372
vertex 26.178625 6.980295 12.299372
endloop
endfacet
facet normal 0 0 0
outer loop
vertex 26.199102 7.001048 12.299372
vertex 26.178625 7.001048 12.299372
vertex 26.178625 6.980295 12.299372
endloop
endfacet
facet normal 0 0 0
outer loop
vertex 26.137674 7.021802 12.319372
vertex 26.117199 7.001048 12.299372
vertex 26.137674 7.001048 12.319372
endloop
endfacet
facet normal 0 0 0
outer loop
vertex 26.117199 7.021802 12.299372
vertex 26.117199 7.001048 12.299372
vertex 26.137674 7.021802 12.319372
endloop
endfacet
facet normal 0 0 0
outer loop
vertex 26.178625 7.001048 12.299372
vertex 26.178625 7.021802 12.319372
vertex 26.158150 7.001048 12.319372
endloop
endfacet
facet normal 0 0 0
outer loop
vertex 26.178625 7.021802 12.319372
vertex 26.178625 7.001048 12.299372
vertex 26.199102 7.021802 12.299372
endloop
endfacet
facet normal 0 0 0
outer loop
vertex 26.178625 7.001048 12.299372
vertex 26.199102 7.001048 12.299372
vertex 26.199102 7.021802 12.299372
endloop
endfacet
facet normal 0 0 0
outer loop
vertex 26.117199 7.021802 12.299372
vertex 26.117199 7.042555 12.319372
vertex 26.117199 7.042555 12.299372
endloop
endfacet
facet normal 0 0 0
outer loop
vertex 26.137674 7.021802 12.319372
vertex 26.117199 7.042555 12.319372
vertex 26.117199 7.021802 12.299372
endloop
endfacet
facet normal 0 0 0
outer loop
vertex 26.199102 7.042555 12.299372
vertex 26.178625 7.021802 12.319372
vertex 26.199102 7.021802 12.299372
endloop
endfacet
facet normal 0 0 0
outer loop
vertex 26.178625 7.042555 12.319372
vertex 26.178625 7.021802 12.319372
vertex 26.199102 7.042555 12.299372
endloop
endfacet
facet normal 0 0 0
outer loop
vertex 26.199102 7.021802 12.299372
vertex 26.219578 7.042555 12.299372
vertex 26.199102 7.042555 12.299372
endloop
endfacet
facet normal 0 0 0
outer loop
vertex 26.117199 7.042555 12.299372
vertex 26.117199 7.042555 12.319372
vertex 26.117199 7.063309 12.299372
endloop
endfacet
facet normal 0 0 0
outer loop
vertex 26.117199 7.042555 12.319372
vertex 26.117199 7.063309 12.319372
vertex 26.117199 7.063309 12.299372
endloop
endfacet
facet normal 0 0 0
outer loop
vertex 26.199102 7.063309 12.299372
vertex 26.178625 7.042555 12.319372
vertex 26.199102 7.042555 12.299372
endloop
endfacet
facet normal 0 0 0
outer loop
vertex 26.178625 7.063309 12.319372
vertex 26.178625 7.042555 12.319372
vertex 26.199102 7.063309 12.299372
endloop
endfacet
facet normal 0 0 0
outer loop
vertex 26.219578 7.042555 12.299372
vertex 26.219578 7.063309 12.299372
vertex 26.199102 7.042555 12.299372
endloop
endfacet
facet normal 0 0 0
outer loop
vertex 26.219578 7.063309 12.299372
vertex 26.199102 7.063309 12.299372
vertex 26.199102 7.042555 12.299372
endloop
endfacet
facet normal 0 0 0
outer loop
vertex 26.117199 7.063309 12.319372
vertex 26.117199 7.084062 12.299372
vertex 26.117199 7.063309 12.299372
endloop
endfacet
facet normal 0 0 0
outer loop
vertex 26.117199 7.063309 12.319372
vertex 26.137674 7.084062 12.319372
vertex 26.117199 7.084062 12.299372
endloop
endfacet
facet normal 0 0 0
outer loop
vertex 26.199102 7.084062 12.299372
vertex 26.178625 7.063309 12.319372
vertex 26.199102 7.063309 12.299372
endloop
endfacet
facet normal 0 0 0
outer loop
vertex 26.178625 7.084062 12.319372
vertex 26.178625 7.063309 12.319372
vertex 26.199102 7.084062 12.299372
endloop
endfacet
facet normal 0 0 0
outer loop
vertex 26.219578 7.063309 12.299372
vertex 26.219578 7.084062 12.299372
vertex 26.199102 7.063309 12.299372
endloop
endfacet
facet normal 0 0 0
outer loop
vertex 26.219578 7.084062 12.299372
vertex 26.199102 7.084062 12.299372
vertex 26.199102 7.063309 12.299372
endloop
endfacet
facet normal 0 0 0
outer loop
vertex 26.137674 7.084062 12.319372
vertex 26.137674 7.104815 12.299372
vertex 26.117199 7.084062 12.299372
endloop
endfacet
facet normal 0 0 0
outer loop
vertex 26.137674 7.104815 12.299372
vertex 26.117199 7.104815 12.299372
vertex 26.117199 7.084062 12.299372
endloop
endfacet
facet normal 0 0 0
outer loop
vertex 26.137674 7.104815 12.299372
vertex 26.158150 7.084062 12.319372
vertex 26.158150 7.104815 12.299372
endloop
endfacet
facet normal 0 0 0
outer loop
vertex 26.137674 7.084062 12.319372
vertex 26.158150 7.084062 12.319372
vertex 26.137674 7.104815 12.299372
endloop
endfacet
facet normal 0 0 0
outer loop
vertex 26.158150 7.104815 12.299372
vertex 26.178625 7.084062 12.319372
vertex 26.178625 7.104815 12.299372
endloop
endfacet
facet normal 0 0 0
outer loop
vertex 26.158150 7.084062 12.319372
vertex 26.178625 7.084062 12.319372
vertex 26.158150 7.104815 12.299372
endloop
endfacet
facet normal 0 0 0
outer loop
vertex 26.178625 7.084062 12.319372
vertex 26.199102 7.084062 12.299372
vertex 26.178625 7.104815 12.299372
endloop
endfacet
facet normal 0 0 0
outer loop
vertex 26.199102 7.084062 12.299372
vertex 26.199102 7.104815 12.299372
vertex 26.178625 7.104815 12.299372
endloop
endfacet
facet normal 0 0 0
outer loop
vertex 26.219578 7.084062 12.299372
vertex 26.199102 7.104815 12.299372
vertex 26.199102 7.084062 12.299372
endloop
endfacet
facet normal 0 0 0
outer loop
vertex 26.137674 7.125568 12.299372
vertex 26.117199 7.104815 12.299372
vertex 26.137674 7.104815 12.299372
endloop
endfacet
facet normal 0 0 0
outer loop
vertex 26.158150 7.104815 12.299372
vertex 26.158150 7.125568 12.299372
vertex 26.137674 7.104815 12.299372
endloop
endfacet
facet normal 0 0 0
outer loop
vertex 26.158150 7.125568 12.299372
vertex 26.137674 7.125568 12.299372
vertex 26.137674 7.104815 12.299372
endloop
endfacet
facet normal 0 0 0
outer loop
vertex 26.178625 7.104815 12.299372
vertex 26.178625 7.125568 12.299372
vertex 26.158150 7.104815 12.299372
endloop
endfacet
facet normal 0 0 0
outer loop
vertex 26.178625 7.125568 12.299372
vertex 26.158150 7.125568 12.299372
vertex 26.158150 7.104815 12.299372
endloop
endfacet
facet normal 0 0 0
outer loop
vertex 26.199102 7.104815 12.299372
vertex 26.199102 7.125568 12.299372
vertex 26.178625 7.104815 12.299372
endloop
endfacet
facet normal 0 0 0
outer loop
vertex 26.199102 7.125568 12.299372
vertex 26.178625 7.125568 12.299372
vertex 26.178625 7.104815 12.299372
endloop
endfacet
facet normal 0 0 0
outer loop
vertex 26.178625 7.146321 12.299372
vertex 26.158150 7.125568 12.299372
vertex 26.178625 7.125568 12.299372
endloop
endfacet
facet normal 0 0 0
outer loop
vertex 26.199102 7.125568 12.299372
vertex 26.178625 7.146321 12.299372
vertex 26.178625 7.125568 12.299372
endloop
endfacet
facet normal 0 0 0
outer loop
vertex 26.158150 6.980295 12.319372
vertex 26.158150 7.001048 12.319372
vertex 26.137674 6.980295 12.319372
endloop
endfacet
facet normal 0 0 0
outer loop
vertex 26.158150 7.001048 12.319372
vertex 26.137674 7.001048 12.319372
vertex 26.137674 6.980295 12.319372
endloop
endfacet
facet normal 0 0 0
outer loop
vertex 26.158150 7.001048 12.319372
vertex 26.158150 7.021802 12.319372
vertex 26.137674 7.001048 12.319372
endloop
endfacet
facet normal 0 0 0
outer loop
vertex 26.158150 7.021802 12.319372
vertex 26.137674 7.021802 12.319372
vertex 26.137674 7.001048 12.319372
endloop
endfacet
facet normal 0 0 0
outer loop
vertex 26.158150 7.001048 12.319372
vertex 26.178625 7.021802 12.319372
vertex 26.158150 7.021802 12.319372
endloop
endfacet
facet normal 0 0 0
outer loop
vertex 26.117199 7.042555 12.319372
vertex 26.137674 7.021802 12.319372
vertex 26.137674 7.042555 12.319372
endloop
endfacet
facet normal 0 0 0
outer loop
vertex 26.158150 7.021802 12.319372
vertex 26.158150 7.042555 12.319372
vertex 26.137674 7.021802 12.319372
endloop
endfacet
facet normal 0 0 0
outer loop
vertex 26.158150 7.042555 12.319372
vertex 26.137674 7.042555 12.319372
vertex 26.137674 7.021802 12.319372
endloop
endfacet
facet normal 0 0 0
outer loop
vertex 26.178625 7.021802 12.319372
vertex 26.178625 7.042555 12.319372
vertex 26.158150 7.021802 12.319372
endloop
endfacet
facet normal 0 0 0
outer loop
vertex 26.178625 7.042555 12.319372
vertex 26.158150 7.042555 12.319372
vertex 26.158150 7.021802 12.319372
endloop
endfacet
facet normal 0 0 0
outer loop
vertex 26.137674 7.042555 12.319372
vertex 26.137674 7.063309 12.319372
vertex 26.117199 7.042555 12.319372
endloop
endfacet
facet normal 0 0 0
outer loop
vertex 26.137674 7.063309 12.319372
vertex 26.117199 7.063309 12.319372
vertex 26.117199 7.042555 12.319372
endloop
endfacet
facet normal 0 0 0
outer loop
vertex 26.158150 7.042555 12.319372
vertex 26.158150 7.063309 12.319372
vertex 26.137674 7.042555 12.319372
endloop
endfacet
facet normal 0 0 0
outer loop
vertex 26.158150 7.063309 12.319372
vertex 26.137674 7.063309 12.319372
vertex 26.137674 7.042555 12.319372
endloop
endfacet
facet normal 0 0 0
outer loop
vertex 26.178625 7.042555 12.319372
vertex 26.178625 7.063309 12.319372
vertex 26.158150 7.042555 12.319372
endloop
endfacet
facet normal 0 0 0
outer loop
vertex 26.178625 7.063309 12.319372
vertex 26.158150 7.063309 12.319372
vertex 26.158150 7.042555 12.319372
endloop
endfacet
facet normal 0 0 0
outer loop
vertex 26.137674 7.084062 12.319372
vertex 26.117199 7.063309 12.319372
vertex 26.137674 7.063309 12.319372
endloop
endfacet
facet normal 0 0 0
outer loop
vertex 26.158150 7.063309 12.319372
vertex 26.158150 7.084062 12.319372
vertex 26.137674 7.063309 12.319372
endloop
endfacet
facet normal 0 0 0
outer loop
vertex 26.158150 7.084062 12.319372
vertex 26.137674 7.084062 12.319372
vertex 26.137674 7.063309 12.319372
endloop
endfacet
facet normal 0 0 0
outer loop
vertex 26.178625 7.063309 12.319372
vertex 26.178625 7.084062 12.319372
vertex 26.158150 7.063309 12.319372
endloop
endfacet
facet normal 0 0 0
outer loop
vertex 26.178625 7.084062 12.319372
vertex 26.158150 7.084062 12.319372
vertex 26.158150 7.063309 12.319372
endloop
endfacet
endsolid B-16-Plag.297
