solid B-16-Plag.391
facet normal 0 0 0
outer loop
vertex 23.230110 12.645952 14.459372
vertex 23.209635 12.645952 14.459372
vertex 23.230110 12.666705 14.459372
endloop
endfacet
facet normal 0 0 0
outer loop
vertex 23.230110 12.666705 14.459372
vertex 23.209635 12.645952 14.459372
vertex 23.209635 12.666705 14.459372
endloop
endfacet
facet normal 0 0 0
outer loop
vertex 23.250586 12.645952 14.459372
vertex 23.230110 12.645952 14.459372
vertex 23.250586 12.666705 14.459372
endloop
endfacet
facet normal 0 0 0
outer loop
vertex 23.250586 12.666705 14.459372
vertex 23.230110 12.645952 14.459372
vertex 23.230110 12.666705 14.459372
endloop
endfacet
facet normal 0 0 0
outer loop
vertex 23.271063 12.645952 14.459372
vertex 23.250586 12.645952 14.459372
vertex 23.271063 12.666705 14.459372
endloop
endfacet
facet normal 0 0 0
outer loop
vertex 23.271063 12.666705 14.459372
vertex 23.250586 12.645952 14.459372
vertex 23.250586 12.666705 14.459372
endloop
endfacet
facet normal 0 0 0
outer loop
vertex 23.291538 12.645952 14.459372
vertex 23.271063 12.645952 14.459372
vertex 23.291538 12.666705 14.459372
endloop
endfacet
facet normal 0 0 0
outer loop
vertex 23.291538 12.666705 14.459372
vertex 23.271063 12.645952 14.459372
vertex 23.271063 12.666705 14.459372
endloop
endfacet
facet normal 0 0 0
outer loop
vertex 23.312014 12.666705 14.459372
vertex 23.291538 12.645952 14.459372
vertex 23.291538 12.666705 14.459372
endloop
endfacet
facet normal 0 0 0
outer loop
vertex 23.189159 12.645952 14.479372
vertex 23.209635 12.645952 14.459372
vertex 23.209635 12.645952 14.479372
endloop
endfacet
facet normal 0 0 0
outer loop
vertex 23.230110 12.645952 14.459372
vertex 23.230110 12.645952 14.479372
vertex 23.209635 12.645952 14.459372
endloop
endfacet
facet normal 0 0 0
outer loop
vertex 23.209635 12.645952 14.459372
vertex 23.230110 12.645952 14.479372
vertex 23.209635 12.645952 14.479372
endloop
endfacet
facet normal 0 0 0
outer loop
vertex 23.250586 12.645952 14.459372
vertex 23.250586 12.645952 14.479372
vertex 23.230110 12.645952 14.459372
endloop
endfacet
facet normal 0 0 0
outer loop
vertex 23.230110 12.645952 14.459372
vertex 23.250586 12.645952 14.479372
vertex 23.230110 12.645952 14.479372
endloop
endfacet
facet normal 0 0 0
outer loop
vertex 23.271063 12.645952 14.459372
vertex 23.271063 12.645952 14.479372
vertex 23.250586 12.645952 14.459372
endloop
endfacet
facet normal 0 0 0
outer loop
vertex 23.250586 12.645952 14.459372
vertex 23.271063 12.645952 14.479372
vertex 23.250586 12.645952 14.479372
endloop
endfacet
facet normal 0 0 0
outer loop
vertex 23.291538 12.645952 14.459372
vertex 23.291538 12.645952 14.479372
vertex 23.271063 12.645952 14.459372
endloop
endfacet
facet normal 0 0 0
outer loop
vertex 23.271063 12.645952 14.459372
vertex 23.291538 12.645952 14.479372
vertex 23.271063 12.645952 14.479372
endloop
endfacet
facet normal 0 0 0
outer loop
vertex 23.291538 12.645952 14.459372
vertex 23.312014 12.645952 14.479372
vertex 23.312014 12.625198 14.479372
endloop
endfacet
facet normal 0 0 0
outer loop
vertex 23.291538 12.645952 14.459372
vertex 23.312014 12.625198 14.479372
vertex 23.291538 12.645952 14.479372
endloop
endfacet
facet normal 0 0 0
outer loop
vertex 23.168684 12.645952 14.479372
vertex 23.189159 12.666705 14.479372
vertex 23.189159 12.645952 14.479372
endloop
endfacet
facet normal 0 0 0
outer loop
vertex 23.209635 12.645952 14.459372
vertex 23.189159 12.666705 14.479372
vertex 23.209635 12.666705 14.459372
endloop
endfacet
facet normal 0 0 0
outer loop
vertex 23.189159 12.645952 14.479372
vertex 23.189159 12.666705 14.479372
vertex 23.209635 12.645952 14.459372
endloop
endfacet
facet normal 0 0 0
outer loop
vertex 23.312014 12.666705 14.459372
vertex 23.291538 12.666705 14.479372
vertex 23.291538 12.645952 14.459372
endloop
endfacet
facet normal 0 0 0
outer loop
vertex 23.312014 12.645952 14.479372
vertex 23.291538 12.645952 14.459372
vertex 23.291538 12.666705 14.479372
endloop
endfacet
facet normal 0 0 0
outer loop
vertex 23.209635 12.666705 14.459372
vertex 23.189159 12.666705 14.479372
vertex 23.209635 12.666705 14.479372
endloop
endfacet
facet normal 0 0 0
outer loop
vertex 23.230110 12.687459 14.479372
vertex 23.230110 12.666705 14.459372
vertex 23.209635 12.666705 14.479372
endloop
endfacet
facet normal 0 0 0
outer loop
vertex 23.230110 12.666705 14.459372
vertex 23.209635 12.666705 14.459372
vertex 23.209635 12.666705 14.479372
endloop
endfacet
facet normal 0 0 0
outer loop
vertex 23.230110 12.666705 14.459372
vertex 23.250586 12.687459 14.479372
vertex 23.250586 12.666705 14.459372
endloop
endfacet
facet normal 0 0 0
outer loop
vertex 23.230110 12.687459 14.479372
vertex 23.250586 12.687459 14.479372
vertex 23.230110 12.666705 14.459372
endloop
endfacet
facet normal 0 0 0
outer loop
vertex 23.250586 12.666705 14.459372
vertex 23.271063 12.687459 14.479372
vertex 23.271063 12.666705 14.459372
endloop
endfacet
facet normal 0 0 0
outer loop
vertex 23.250586 12.687459 14.479372
vertex 23.271063 12.687459 14.479372
vertex 23.250586 12.666705 14.459372
endloop
endfacet
facet normal 0 0 0
outer loop
vertex 23.271063 12.666705 14.459372
vertex 23.291538 12.687459 14.479372
vertex 23.291538 12.666705 14.459372
endloop
endfacet
facet normal 0 0 0
outer loop
vertex 23.271063 12.687459 14.479372
vertex 23.291538 12.687459 14.479372
vertex 23.271063 12.666705 14.459372
endloop
endfacet
facet normal 0 0 0
outer loop
vertex 23.312014 12.666705 14.459372
vertex 23.291538 12.687459 14.479372
vertex 23.291538 12.666705 14.479372
endloop
endfacet
facet normal 0 0 0
outer loop
vertex 23.312014 12.666705 14.459372
vertex 23.291538 12.666705 14.459372
vertex 23.291538 12.687459 14.479372
endloop
endfacet
facet normal 0 0 0
outer loop
vertex 23.148207 12.625198 14.499372
vertex 23.127731 12.625198 14.499372
vertex 23.148207 12.645952 14.499372
endloop
endfacet
facet normal 0 0 0
outer loop
vertex 23.148207 12.645952 14.499372
vertex 23.127731 12.625198 14.499372
vertex 23.127731 12.645952 14.499372
endloop
endfacet
facet normal 0 0 0
outer loop
vertex 23.168684 12.645952 14.479372
vertex 23.168684 12.645952 14.499372
vertex 23.148207 12.625198 14.499372
endloop
endfacet
facet normal 0 0 0
outer loop
vertex 23.168684 12.645952 14.479372
vertex 23.148207 12.625198 14.499372
vertex 23.148207 12.645952 14.499372
endloop
endfacet
facet normal 0 0 0
outer loop
vertex 23.189159 12.645952 14.479372
vertex 23.189159 12.645952 14.499372
vertex 23.168684 12.645952 14.479372
endloop
endfacet
facet normal 0 0 0
outer loop
vertex 23.168684 12.645952 14.479372
vertex 23.189159 12.645952 14.499372
vertex 23.168684 12.645952 14.499372
endloop
endfacet
facet normal 0 0 0
outer loop
vertex 23.209635 12.645952 14.479372
vertex 23.209635 12.645952 14.499372
vertex 23.189159 12.645952 14.479372
endloop
endfacet
facet normal 0 0 0
outer loop
vertex 23.189159 12.645952 14.479372
vertex 23.209635 12.645952 14.499372
vertex 23.189159 12.645952 14.499372
endloop
endfacet
facet normal 0 0 0
outer loop
vertex 23.230110 12.645952 14.479372
vertex 23.230110 12.645952 14.499372
vertex 23.209635 12.645952 14.479372
endloop
endfacet
facet normal 0 0 0
outer loop
vertex 23.209635 12.645952 14.479372
vertex 23.230110 12.645952 14.499372
vertex 23.209635 12.645952 14.499372
endloop
endfacet
facet normal 0 0 0
outer loop
vertex 23.250586 12.645952 14.479372
vertex 23.250586 12.645952 14.499372
vertex 23.230110 12.645952 14.479372
endloop
endfacet
facet normal 0 0 0
outer loop
vertex 23.230110 12.645952 14.479372
vertex 23.250586 12.645952 14.499372
vertex 23.230110 12.645952 14.499372
endloop
endfacet
facet normal 0 0 0
outer loop
vertex 23.271063 12.645952 14.479372
vertex 23.250586 12.645952 14.499372
vertex 23.250586 12.645952 14.479372
endloop
endfacet
facet normal 0 0 0
outer loop
vertex 23.291538 12.645952 14.479372
vertex 23.312014 12.625198 14.479372
vertex 23.312014 12.645952 14.479372
endloop
endfacet
facet normal 0 0 0
outer loop
vertex 23.127731 12.645952 14.499372
vertex 23.148207 12.666705 14.499372
vertex 23.148207 12.645952 14.499372
endloop
endfacet
facet normal 0 0 0
outer loop
vertex 23.168684 12.645952 14.479372
vertex 23.148207 12.645952 14.499372
vertex 23.168684 12.666705 14.499372
endloop
endfacet
facet normal 0 0 0
outer loop
vertex 23.148207 12.645952 14.499372
vertex 23.148207 12.666705 14.499372
vertex 23.168684 12.666705 14.499372
endloop
endfacet
facet normal 0 0 0
outer loop
vertex 23.168684 12.645952 14.479372
vertex 23.168684 12.666705 14.499372
vertex 23.189159 12.666705 14.479372
endloop
endfacet
facet normal 0 0 0
outer loop
vertex 23.271063 12.645952 14.479372
vertex 23.271063 12.666705 14.499372
vertex 23.250586 12.645952 14.499372
endloop
endfacet
facet normal 0 0 0
outer loop
vertex 23.291538 12.645952 14.479372
vertex 23.271063 12.666705 14.499372
vertex 23.271063 12.645952 14.479372
endloop
endfacet
facet normal 0 0 0
outer loop
vertex 23.291538 12.666705 14.499372
vertex 23.271063 12.666705 14.499372
vertex 23.291538 12.645952 14.479372
endloop
endfacet
facet normal 0 0 0
outer loop
vertex 23.312014 12.645952 14.479372
vertex 23.291538 12.666705 14.479372
vertex 23.291538 12.666705 14.499372
endloop
endfacet
facet normal 0 0 0
outer loop
vertex 23.312014 12.645952 14.479372
vertex 23.291538 12.666705 14.499372
vertex 23.291538 12.645952 14.479372
endloop
endfacet
facet normal 0 0 0
outer loop
vertex 23.148207 12.666705 14.499372
vertex 23.168684 12.687459 14.499372
vertex 23.168684 12.666705 14.499372
endloop
endfacet
facet normal 0 0 0
outer loop
vertex 23.189159 12.666705 14.479372
vertex 23.168684 12.666705 14.499372
vertex 23.189159 12.687459 14.499372
endloop
endfacet
facet normal 0 0 0
outer loop
vertex 23.168684 12.666705 14.499372
vertex 23.168684 12.687459 14.499372
vertex 23.189159 12.687459 14.499372
endloop
endfacet
facet normal 0 0 0
outer loop
vertex 23.189159 12.666705 14.479372
vertex 23.209635 12.687459 14.499372
vertex 23.209635 12.666705 14.479372
endloop
endfacet
facet normal 0 0 0
outer loop
vertex 23.189159 12.687459 14.499372
vertex 23.209635 12.687459 14.499372
vertex 23.189159 12.666705 14.479372
endloop
endfacet
facet normal 0 0 0
outer loop
vertex 23.209635 12.666705 14.479372
vertex 23.209635 12.687459 14.499372
vertex 23.230110 12.687459 14.479372
endloop
endfacet
facet normal 0 0 0
outer loop
vertex 23.312014 12.687459 14.499372
vertex 23.291538 12.666705 14.499372
vertex 23.291538 12.687459 14.479372
endloop
endfacet
facet normal 0 0 0
outer loop
vertex 23.291538 12.666705 14.499372
vertex 23.291538 12.666705 14.479372
vertex 23.291538 12.687459 14.479372
endloop
endfacet
facet normal 0 0 0
outer loop
vertex 23.230110 12.687459 14.479372
vertex 23.209635 12.687459 14.499372
vertex 23.230110 12.708212 14.499372
endloop
endfacet
facet normal 0 0 0
outer loop
vertex 23.230110 12.687459 14.479372
vertex 23.250586 12.708212 14.499372
vertex 23.250586 12.687459 14.479372
endloop
endfacet
facet normal 0 0 0
outer loop
vertex 23.230110 12.708212 14.499372
vertex 23.250586 12.708212 14.499372
vertex 23.230110 12.687459 14.479372
endloop
endfacet
facet normal 0 0 0
outer loop
vertex 23.250586 12.687459 14.479372
vertex 23.271063 12.708212 14.499372
vertex 23.271063 12.687459 14.479372
endloop
endfacet
facet normal 0 0 0
outer loop
vertex 23.250586 12.708212 14.499372
vertex 23.271063 12.708212 14.499372
vertex 23.250586 12.687459 14.479372
endloop
endfacet
facet normal 0 0 0
outer loop
vertex 23.271063 12.708212 14.499372
vertex 23.291538 12.687459 14.499372
vertex 23.271063 12.687459 14.479372
endloop
endfacet
facet normal 0 0 0
outer loop
vertex 23.291538 12.687459 14.499372
vertex 23.291538 12.687459 14.479372
vertex 23.271063 12.687459 14.479372
endloop
endfacet
facet normal 0 0 0
outer loop
vertex 23.312014 12.687459 14.499372
vertex 23.291538 12.687459 14.479372
vertex 23.291538 12.687459 14.499372
endloop
endfacet
facet normal 0 0 0
outer loop
vertex 23.148207 12.645952 14.519372
vertex 23.127731 12.645952 14.499372
vertex 23.148207 12.625198 14.499372
endloop
endfacet
facet normal 0 0 0
outer loop
vertex 23.127731 12.645952 14.499372
vertex 23.127731 12.625198 14.499372
vertex 23.148207 12.625198 14.499372
endloop
endfacet
facet normal 0 0 0
outer loop
vertex 23.148207 12.625198 14.499372
vertex 23.168684 12.645952 14.499372
vertex 23.148207 12.645952 14.519372
endloop
endfacet
facet normal 0 0 0
outer loop
vertex 23.168684 12.645952 14.499372
vertex 23.168684 12.645952 14.519372
vertex 23.148207 12.645952 14.519372
endloop
endfacet
facet normal 0 0 0
outer loop
vertex 23.189159 12.645952 14.499372
vertex 23.189159 12.645952 14.519372
vertex 23.168684 12.645952 14.499372
endloop
endfacet
facet normal 0 0 0
outer loop
vertex 23.168684 12.645952 14.499372
vertex 23.189159 12.645952 14.519372
vertex 23.168684 12.645952 14.519372
endloop
endfacet
facet normal 0 0 0
outer loop
vertex 23.209635 12.645952 14.499372
vertex 23.209635 12.645952 14.519372
vertex 23.189159 12.645952 14.499372
endloop
endfacet
facet normal 0 0 0
outer loop
vertex 23.189159 12.645952 14.499372
vertex 23.209635 12.645952 14.519372
vertex 23.189159 12.645952 14.519372
endloop
endfacet
facet normal 0 0 0
outer loop
vertex 23.230110 12.645952 14.499372
vertex 23.230110 12.645952 14.519372
vertex 23.209635 12.645952 14.499372
endloop
endfacet
facet normal 0 0 0
outer loop
vertex 23.209635 12.645952 14.499372
vertex 23.230110 12.645952 14.519372
vertex 23.209635 12.645952 14.519372
endloop
endfacet
facet normal 0 0 0
outer loop
vertex 23.250586 12.645952 14.499372
vertex 23.250586 12.645952 14.519372
vertex 23.230110 12.645952 14.499372
endloop
endfacet
facet normal 0 0 0
outer loop
vertex 23.230110 12.645952 14.499372
vertex 23.250586 12.645952 14.519372
vertex 23.230110 12.645952 14.519372
endloop
endfacet
facet normal 0 0 0
outer loop
vertex 23.250586 12.645952 14.499372
vertex 23.271063 12.645952 14.519372
vertex 23.250586 12.645952 14.519372
endloop
endfacet
facet normal 0 0 0
outer loop
vertex 23.127731 12.645952 14.499372
vertex 23.148207 12.645952 14.519372
vertex 23.148207 12.666705 14.499372
endloop
endfacet
facet normal 0 0 0
outer loop
vertex 23.148207 12.645952 14.519372
vertex 23.168684 12.666705 14.519372
vertex 23.148207 12.666705 14.499372
endloop
endfacet
facet normal 0 0 0
outer loop
vertex 23.250586 12.645952 14.499372
vertex 23.271063 12.666705 14.499372
vertex 23.271063 12.645952 14.519372
endloop
endfacet
facet normal 0 0 0
outer loop
vertex 23.271063 12.645952 14.519372
vertex 23.271063 12.666705 14.499372
vertex 23.291538 12.666705 14.519372
endloop
endfacet
facet normal 0 0 0
outer loop
vertex 23.271063 12.666705 14.499372
vertex 23.291538 12.666705 14.499372
vertex 23.291538 12.666705 14.519372
endloop
endfacet
facet normal 0 0 0
outer loop
vertex 23.148207 12.666705 14.499372
vertex 23.168684 12.666705 14.519372
vertex 23.168684 12.687459 14.499372
endloop
endfacet
facet normal 0 0 0
outer loop
vertex 23.168684 12.666705 14.519372
vertex 23.189159 12.687459 14.519372
vertex 23.168684 12.687459 14.499372
endloop
endfacet
facet normal 0 0 0
outer loop
vertex 23.312014 12.687459 14.499372
vertex 23.291538 12.687459 14.519372
vertex 23.291538 12.666705 14.499372
endloop
endfacet
facet normal 0 0 0
outer loop
vertex 23.291538 12.687459 14.519372
vertex 23.291538 12.666705 14.519372
vertex 23.291538 12.666705 14.499372
endloop
endfacet
facet normal 0 0 0
outer loop
vertex 23.168684 12.687459 14.499372
vertex 23.189159 12.687459 14.519372
vertex 23.189159 12.687459 14.499372
endloop
endfacet
facet normal 0 0 0
outer loop
vertex 23.209635 12.687459 14.499372
vertex 23.189159 12.687459 14.499372
vertex 23.209635 12.687459 14.519372
endloop
endfacet
facet normal 0 0 0
outer loop
vertex 23.189159 12.687459 14.499372
vertex 23.189159 12.687459 14.519372
vertex 23.209635 12.687459 14.519372
endloop
endfacet
facet normal 0 0 0
outer loop
vertex 23.209635 12.687459 14.519372
vertex 23.230110 12.708212 14.499372
vertex 23.209635 12.687459 14.499372
endloop
endfacet
facet normal 0 0 0
outer loop
vertex 23.230110 12.708212 14.519372
vertex 23.230110 12.708212 14.499372
vertex 23.209635 12.687459 14.519372
endloop
endfacet
facet normal 0 0 0
outer loop
vertex 23.250586 12.708212 14.499372
vertex 23.230110 12.708212 14.519372
vertex 23.250586 12.687459 14.519372
endloop
endfacet
facet normal 0 0 0
outer loop
vertex 23.250586 12.708212 14.499372
vertex 23.271063 12.687459 14.519372
vertex 23.271063 12.708212 14.499372
endloop
endfacet
facet normal 0 0 0
outer loop
vertex 23.250586 12.687459 14.519372
vertex 23.271063 12.687459 14.519372
vertex 23.250586 12.708212 14.499372
endloop
endfacet
facet normal 0 0 0
outer loop
vertex 23.271063 12.708212 14.499372
vertex 23.271063 12.687459 14.519372
vertex 23.291538 12.687459 14.499372
endloop
endfacet
facet normal 0 0 0
outer loop
vertex 23.271063 12.687459 14.519372
vertex 23.291538 12.687459 14.519372
vertex 23.291538 12.687459 14.499372
endloop
endfacet
facet normal 0 0 0
outer loop
vertex 23.291538 12.687459 14.519372
vertex 23.312014 12.687459 14.499372
vertex 23.291538 12.687459 14.499372
endloop
endfacet
facet normal 0 0 0
outer loop
vertex 23.230110 12.708212 14.519372
vertex 23.250586 12.708212 14.499372
vertex 23.230110 12.708212 14.499372
endloop
endfacet
facet normal 0 0 0
outer loop
vertex 23.168684 12.666705 14.519372
vertex 23.148207 12.645952 14.519372
vertex 23.168684 12.645952 14.519372
endloop
endfacet
facet normal 0 0 0
outer loop
vertex 23.189159 12.645952 14.519372
vertex 23.189159 12.666705 14.519372
vertex 23.168684 12.645952 14.519372
endloop
endfacet
facet normal 0 0 0
outer loop
vertex 23.189159 12.666705 14.519372
vertex 23.168684 12.666705 14.519372
vertex 23.168684 12.645952 14.519372
endloop
endfacet
facet normal 0 0 0
outer loop
vertex 23.209635 12.645952 14.519372
vertex 23.209635 12.666705 14.519372
vertex 23.189159 12.645952 14.519372
endloop
endfacet
facet normal 0 0 0
outer loop
vertex 23.209635 12.666705 14.519372
vertex 23.189159 12.666705 14.519372
vertex 23.189159 12.645952 14.519372
endloop
endfacet
facet normal 0 0 0
outer loop
vertex 23.230110 12.645952 14.519372
vertex 23.230110 12.666705 14.519372
vertex 23.209635 12.645952 14.519372
endloop
endfacet
facet normal 0 0 0
outer loop
vertex 23.230110 12.666705 14.519372
vertex 23.209635 12.666705 14.519372
vertex 23.209635 12.645952 14.519372
endloop
endfacet
facet normal 0 0 0
outer loop
vertex 23.250586 12.645952 14.519372
vertex 23.250586 12.666705 14.519372
vertex 23.230110 12.645952 14.519372
endloop
endfacet
facet normal 0 0 0
outer loop
vertex 23.250586 12.666705 14.519372
vertex 23.230110 12.666705 14.519372
vertex 23.230110 12.645952 14.519372
endloop
endfacet
facet normal 0 0 0
outer loop
vertex 23.271063 12.645952 14.519372
vertex 23.271063 12.666705 14.519372
vertex 23.250586 12.645952 14.519372
endloop
endfacet
facet normal 0 0 0
outer loop
vertex 23.271063 12.666705 14.519372
vertex 23.250586 12.666705 14.519372
vertex 23.250586 12.645952 14.519372
endloop
endfacet
facet normal 0 0 0
outer loop
vertex 23.271063 12.645952 14.519372
vertex 23.291538 12.666705 14.519372
vertex 23.271063 12.666705 14.519372
endloop
endfacet
facet normal 0 0 0
outer loop
vertex 23.189159 12.687459 14.519372
vertex 23.168684 12.666705 14.519372
vertex 23.189159 12.666705 14.519372
endloop
endfacet
facet normal 0 0 0
outer loop
vertex 23.209635 12.666705 14.519372
vertex 23.209635 12.687459 14.519372
vertex 23.189159 12.666705 14.519372
endloop
endfacet
facet normal 0 0 0
outer loop
vertex 23.209635 12.687459 14.519372
vertex 23.189159 12.687459 14.519372
vertex 23.189159 12.666705 14.519372
endloop
endfacet
facet normal 0 0 0
outer loop
vertex 23.230110 12.666705 14.519372
vertex 23.230110 12.687459 14.519372
vertex 23.209635 12.666705 14.519372
endloop
endfacet
facet normal 0 0 0
outer loop
vertex 23.230110 12.687459 14.519372
vertex 23.209635 12.687459 14.519372
vertex 23.209635 12.666705 14.519372
endloop
endfacet
facet normal 0 0 0
outer loop
vertex 23.250586 12.666705 14.519372
vertex 23.250586 12.687459 14.519372
vertex 23.230110 12.666705 14.519372
endloop
endfacet
facet normal 0 0 0
outer loop
vertex 23.250586 12.687459 14.519372
vertex 23.230110 12.687459 14.519372
vertex 23.230110 12.666705 14.519372
endloop
endfacet
facet normal 0 0 0
outer loop
vertex 23.271063 12.666705 14.519372
vertex 23.271063 12.687459 14.519372
vertex 23.250586 12.666705 14.519372
endloop
endfacet
facet normal 0 0 0
outer loop
vertex 23.271063 12.687459 14.519372
vertex 23.250586 12.687459 14.519372
vertex 23.250586 12.666705 14.519372
endloop
endfacet
facet normal 0 0 0
outer loop
vertex 23.291538 12.666705 14.519372
vertex 23.291538 12.687459 14.519372
vertex 23.271063 12.666705 14.519372
endloop
endfacet
facet normal 0 0 0
outer loop
vertex 23.291538 12.687459 14.519372
vertex 23.271063 12.687459 14.519372
vertex 23.271063 12.666705 14.519372
endloop
endfacet
facet normal 0 0 0
outer loop
vertex 23.230110 12.708212 14.519372
vertex 23.209635 12.687459 14.519372
vertex 23.230110 12.687459 14.519372
endloop
endfacet
facet normal 0 0 0
outer loop
vertex 23.250586 12.687459 14.519372
vertex 23.230110 12.708212 14.519372
vertex 23.230110 12.687459 14.519372
endloop
endfacet
endsolid B-16-Plag.391
