solid B-16-Plag.372
facet normal 0 0 0
outer loop
vertex 15.265024 11.255480 13.879372
vertex 15.244549 11.276233 13.879372
vertex 15.265024 11.276233 13.879372
endloop
endfacet
facet normal 0 0 0
outer loop
vertex 15.285500 11.255480 13.879372
vertex 15.265024 11.255480 13.879372
vertex 15.285500 11.276233 13.879372
endloop
endfacet
facet normal 0 0 0
outer loop
vertex 15.285500 11.276233 13.879372
vertex 15.265024 11.255480 13.879372
vertex 15.265024 11.276233 13.879372
endloop
endfacet
facet normal 0 0 0
outer loop
vertex 15.305977 11.276233 13.879372
vertex 15.285500 11.255480 13.879372
vertex 15.285500 11.276233 13.879372
endloop
endfacet
facet normal 0 0 0
outer loop
vertex 15.265024 11.276233 13.879372
vertex 15.244549 11.276233 13.879372
vertex 15.265024 11.296986 13.879372
endloop
endfacet
facet normal 0 0 0
outer loop
vertex 15.265024 11.296986 13.879372
vertex 15.244549 11.276233 13.879372
vertex 15.244549 11.296986 13.879372
endloop
endfacet
facet normal 0 0 0
outer loop
vertex 15.285500 11.276233 13.879372
vertex 15.265024 11.276233 13.879372
vertex 15.285500 11.296986 13.879372
endloop
endfacet
facet normal 0 0 0
outer loop
vertex 15.285500 11.296986 13.879372
vertex 15.265024 11.276233 13.879372
vertex 15.265024 11.296986 13.879372
endloop
endfacet
facet normal 0 0 0
outer loop
vertex 15.305977 11.276233 13.879372
vertex 15.285500 11.276233 13.879372
vertex 15.305977 11.296986 13.879372
endloop
endfacet
facet normal 0 0 0
outer loop
vertex 15.305977 11.296986 13.879372
vertex 15.285500 11.276233 13.879372
vertex 15.285500 11.296986 13.879372
endloop
endfacet
facet normal 0 0 0
outer loop
vertex 15.244549 11.296986 13.879372
vertex 15.265024 11.317739 13.879372
vertex 15.265024 11.296986 13.879372
endloop
endfacet
facet normal 0 0 0
outer loop
vertex 15.285500 11.296986 13.879372
vertex 15.265024 11.296986 13.879372
vertex 15.285500 11.317739 13.879372
endloop
endfacet
facet normal 0 0 0
outer loop
vertex 15.285500 11.317739 13.879372
vertex 15.265024 11.296986 13.879372
vertex 15.265024 11.317739 13.879372
endloop
endfacet
facet normal 0 0 0
outer loop
vertex 15.305977 11.296986 13.879372
vertex 15.285500 11.296986 13.879372
vertex 15.305977 11.317739 13.879372
endloop
endfacet
facet normal 0 0 0
outer loop
vertex 15.305977 11.317739 13.879372
vertex 15.285500 11.296986 13.879372
vertex 15.285500 11.317739 13.879372
endloop
endfacet
facet normal 0 0 0
outer loop
vertex 15.326452 11.317739 13.879372
vertex 15.305977 11.296986 13.879372
vertex 15.305977 11.317739 13.879372
endloop
endfacet
facet normal 0 0 0
outer loop
vertex 15.285500 11.255480 13.879372
vertex 15.285500 11.255480 13.899372
vertex 15.265024 11.255480 13.879372
endloop
endfacet
facet normal 0 0 0
outer loop
vertex 15.265024 11.255480 13.879372
vertex 15.285500 11.255480 13.899372
vertex 15.265024 11.255480 13.899372
endloop
endfacet
facet normal 0 0 0
outer loop
vertex 15.244549 11.276233 13.879372
vertex 15.244549 11.276233 13.899372
vertex 15.224073 11.255480 13.899372
endloop
endfacet
facet normal 0 0 0
outer loop
vertex 15.244549 11.276233 13.879372
vertex 15.224073 11.255480 13.899372
vertex 15.224073 11.276233 13.899372
endloop
endfacet
facet normal 0 0 0
outer loop
vertex 15.265024 11.255480 13.899372
vertex 15.244549 11.276233 13.879372
vertex 15.265024 11.255480 13.879372
endloop
endfacet
facet normal 0 0 0
outer loop
vertex 15.244549 11.276233 13.899372
vertex 15.244549 11.276233 13.879372
vertex 15.265024 11.255480 13.899372
endloop
endfacet
facet normal 0 0 0
outer loop
vertex 15.285500 11.255480 13.879372
vertex 15.305977 11.276233 13.899372
vertex 15.285500 11.255480 13.899372
endloop
endfacet
facet normal 0 0 0
outer loop
vertex 15.305977 11.276233 13.879372
vertex 15.305977 11.276233 13.899372
vertex 15.285500 11.255480 13.879372
endloop
endfacet
facet normal 0 0 0
outer loop
vertex 15.224073 11.276233 13.899372
vertex 15.244549 11.296986 13.899372
vertex 15.244549 11.276233 13.879372
endloop
endfacet
facet normal 0 0 0
outer loop
vertex 15.244549 11.296986 13.899372
vertex 15.244549 11.296986 13.879372
vertex 15.244549 11.276233 13.879372
endloop
endfacet
facet normal 0 0 0
outer loop
vertex 15.305977 11.276233 13.879372
vertex 15.305977 11.296986 13.879372
vertex 15.305977 11.276233 13.899372
endloop
endfacet
facet normal 0 0 0
outer loop
vertex 15.305977 11.276233 13.899372
vertex 15.305977 11.296986 13.879372
vertex 15.305977 11.296986 13.899372
endloop
endfacet
facet normal 0 0 0
outer loop
vertex 15.265024 11.317739 13.879372
vertex 15.244549 11.296986 13.879372
vertex 15.265024 11.296986 13.899372
endloop
endfacet
facet normal 0 0 0
outer loop
vertex 15.244549 11.296986 13.879372
vertex 15.244549 11.296986 13.899372
vertex 15.265024 11.296986 13.899372
endloop
endfacet
facet normal 0 0 0
outer loop
vertex 15.265024 11.317739 13.879372
vertex 15.285500 11.296986 13.899372
vertex 15.285500 11.317739 13.879372
endloop
endfacet
facet normal 0 0 0
outer loop
vertex 15.265024 11.296986 13.899372
vertex 15.285500 11.296986 13.899372
vertex 15.265024 11.317739 13.879372
endloop
endfacet
facet normal 0 0 0
outer loop
vertex 15.285500 11.317739 13.879372
vertex 15.305977 11.296986 13.899372
vertex 15.305977 11.317739 13.879372
endloop
endfacet
facet normal 0 0 0
outer loop
vertex 15.285500 11.296986 13.899372
vertex 15.305977 11.296986 13.899372
vertex 15.285500 11.317739 13.879372
endloop
endfacet
facet normal 0 0 0
outer loop
vertex 15.326452 11.317739 13.879372
vertex 15.305977 11.317739 13.879372
vertex 15.305977 11.296986 13.899372
endloop
endfacet
facet normal 0 0 0
outer loop
vertex 15.326452 11.317739 13.879372
vertex 15.305977 11.296986 13.899372
vertex 15.305977 11.296986 13.879372
endloop
endfacet
facet normal 0 0 0
outer loop
vertex 15.285500 11.255480 13.899372
vertex 15.285500 11.255480 13.919372
vertex 15.265024 11.255480 13.899372
endloop
endfacet
facet normal 0 0 0
outer loop
vertex 15.265024 11.255480 13.899372
vertex 15.285500 11.255480 13.919372
vertex 15.265024 11.255480 13.919372
endloop
endfacet
facet normal 0 0 0
outer loop
vertex 15.224073 11.255480 13.899372
vertex 15.224073 11.276233 13.919372
vertex 15.224073 11.276233 13.899372
endloop
endfacet
facet normal 0 0 0
outer loop
vertex 15.224073 11.255480 13.899372
vertex 15.244549 11.276233 13.899372
vertex 15.224073 11.276233 13.919372
endloop
endfacet
facet normal 0 0 0
outer loop
vertex 15.244549 11.276233 13.899372
vertex 15.244549 11.276233 13.919372
vertex 15.224073 11.276233 13.919372
endloop
endfacet
facet normal 0 0 0
outer loop
vertex 15.265024 11.255480 13.919372
vertex 15.244549 11.276233 13.899372
vertex 15.265024 11.255480 13.899372
endloop
endfacet
facet normal 0 0 0
outer loop
vertex 15.244549 11.276233 13.919372
vertex 15.244549 11.276233 13.899372
vertex 15.265024 11.255480 13.919372
endloop
endfacet
facet normal 0 0 0
outer loop
vertex 15.305977 11.276233 13.899372
vertex 15.285500 11.276233 13.919372
vertex 15.285500 11.255480 13.899372
endloop
endfacet
facet normal 0 0 0
outer loop
vertex 15.285500 11.276233 13.919372
vertex 15.285500 11.255480 13.919372
vertex 15.285500 11.255480 13.899372
endloop
endfacet
facet normal 0 0 0
outer loop
vertex 15.224073 11.296986 13.919372
vertex 15.224073 11.276233 13.899372
vertex 15.224073 11.276233 13.919372
endloop
endfacet
facet normal 0 0 0
outer loop
vertex 15.224073 11.276233 13.899372
vertex 15.224073 11.296986 13.919372
vertex 15.244549 11.296986 13.899372
endloop
endfacet
facet normal 0 0 0
outer loop
vertex 15.305977 11.276233 13.899372
vertex 15.305977 11.296986 13.919372
vertex 15.285500 11.276233 13.919372
endloop
endfacet
facet normal 0 0 0
outer loop
vertex 15.305977 11.296986 13.919372
vertex 15.305977 11.276233 13.899372
vertex 15.305977 11.296986 13.899372
endloop
endfacet
facet normal 0 0 0
outer loop
vertex 15.244549 11.296986 13.899372
vertex 15.224073 11.296986 13.919372
vertex 15.244549 11.296986 13.919372
endloop
endfacet
facet normal 0 0 0
outer loop
vertex 15.265024 11.317739 13.919372
vertex 15.265024 11.296986 13.899372
vertex 15.244549 11.296986 13.919372
endloop
endfacet
facet normal 0 0 0
outer loop
vertex 15.265024 11.296986 13.899372
vertex 15.244549 11.296986 13.899372
vertex 15.244549 11.296986 13.919372
endloop
endfacet
facet normal 0 0 0
outer loop
vertex 15.265024 11.296986 13.899372
vertex 15.285500 11.317739 13.919372
vertex 15.285500 11.296986 13.899372
endloop
endfacet
facet normal 0 0 0
outer loop
vertex 15.265024 11.317739 13.919372
vertex 15.285500 11.317739 13.919372
vertex 15.265024 11.296986 13.899372
endloop
endfacet
facet normal 0 0 0
outer loop
vertex 15.285500 11.317739 13.919372
vertex 15.305977 11.296986 13.919372
vertex 15.285500 11.296986 13.899372
endloop
endfacet
facet normal 0 0 0
outer loop
vertex 15.305977 11.296986 13.919372
vertex 15.305977 11.296986 13.899372
vertex 15.285500 11.296986 13.899372
endloop
endfacet
facet normal 0 0 0
outer loop
vertex 15.244549 11.255480 13.939372
vertex 15.265024 11.255480 13.919372
vertex 15.265024 11.255480 13.939372
endloop
endfacet
facet normal 0 0 0
outer loop
vertex 15.285500 11.255480 13.919372
vertex 15.265024 11.255480 13.939372
vertex 15.265024 11.255480 13.919372
endloop
endfacet
facet normal 0 0 0
outer loop
vertex 15.244549 11.255480 13.939372
vertex 15.224073 11.276233 13.939372
vertex 15.244549 11.276233 13.919372
endloop
endfacet
facet normal 0 0 0
outer loop
vertex 15.224073 11.276233 13.939372
vertex 15.224073 11.276233 13.919372
vertex 15.244549 11.276233 13.919372
endloop
endfacet
facet normal 0 0 0
outer loop
vertex 15.265024 11.255480 13.919372
vertex 15.244549 11.255480 13.939372
vertex 15.244549 11.276233 13.919372
endloop
endfacet
facet normal 0 0 0
outer loop
vertex 15.285500 11.255480 13.919372
vertex 15.285500 11.276233 13.939372
vertex 15.265024 11.255480 13.939372
endloop
endfacet
facet normal 0 0 0
outer loop
vertex 15.285500 11.276233 13.939372
vertex 15.285500 11.255480 13.919372
vertex 15.285500 11.276233 13.919372
endloop
endfacet
facet normal 0 0 0
outer loop
vertex 15.224073 11.276233 13.919372
vertex 15.224073 11.276233 13.939372
vertex 15.224073 11.296986 13.919372
endloop
endfacet
facet normal 0 0 0
outer loop
vertex 15.224073 11.276233 13.939372
vertex 15.224073 11.296986 13.939372
vertex 15.224073 11.296986 13.919372
endloop
endfacet
facet normal 0 0 0
outer loop
vertex 15.305977 11.296986 13.919372
vertex 15.285500 11.296986 13.939372
vertex 15.285500 11.276233 13.919372
endloop
endfacet
facet normal 0 0 0
outer loop
vertex 15.285500 11.296986 13.939372
vertex 15.285500 11.276233 13.939372
vertex 15.285500 11.276233 13.919372
endloop
endfacet
facet normal 0 0 0
outer loop
vertex 15.244549 11.296986 13.919372
vertex 15.224073 11.296986 13.919372
vertex 15.244549 11.296986 13.939372
endloop
endfacet
facet normal 0 0 0
outer loop
vertex 15.224073 11.296986 13.919372
vertex 15.224073 11.296986 13.939372
vertex 15.244549 11.296986 13.939372
endloop
endfacet
facet normal 0 0 0
outer loop
vertex 15.265024 11.317739 13.919372
vertex 15.244549 11.296986 13.919372
vertex 15.265024 11.296986 13.939372
endloop
endfacet
facet normal 0 0 0
outer loop
vertex 15.244549 11.296986 13.919372
vertex 15.244549 11.296986 13.939372
vertex 15.265024 11.296986 13.939372
endloop
endfacet
facet normal 0 0 0
outer loop
vertex 15.265024 11.317739 13.919372
vertex 15.285500 11.296986 13.939372
vertex 15.285500 11.317739 13.919372
endloop
endfacet
facet normal 0 0 0
outer loop
vertex 15.265024 11.296986 13.939372
vertex 15.285500 11.296986 13.939372
vertex 15.265024 11.317739 13.919372
endloop
endfacet
facet normal 0 0 0
outer loop
vertex 15.305977 11.296986 13.919372
vertex 15.285500 11.317739 13.919372
vertex 15.285500 11.296986 13.939372
endloop
endfacet
facet normal 0 0 0
outer loop
vertex 15.224073 11.276233 13.939372
vertex 15.244549 11.255480 13.939372
vertex 15.244549 11.276233 13.939372
endloop
endfacet
facet normal 0 0 0
outer loop
vertex 15.265024 11.255480 13.939372
vertex 15.265024 11.276233 13.939372
vertex 15.244549 11.255480 13.939372
endloop
endfacet
facet normal 0 0 0
outer loop
vertex 15.265024 11.276233 13.939372
vertex 15.244549 11.276233 13.939372
vertex 15.244549 11.255480 13.939372
endloop
endfacet
facet normal 0 0 0
outer loop
vertex 15.265024 11.255480 13.939372
vertex 15.285500 11.276233 13.939372
vertex 15.265024 11.276233 13.939372
endloop
endfacet
facet normal 0 0 0
outer loop
vertex 15.244549 11.276233 13.939372
vertex 15.244549 11.296986 13.939372
vertex 15.224073 11.276233 13.939372
endloop
endfacet
facet normal 0 0 0
outer loop
vertex 15.244549 11.296986 13.939372
vertex 15.224073 11.296986 13.939372
vertex 15.224073 11.276233 13.939372
endloop
endfacet
facet normal 0 0 0
outer loop
vertex 15.265024 11.276233 13.939372
vertex 15.265024 11.296986 13.939372
vertex 15.244549 11.276233 13.939372
endloop
endfacet
facet normal 0 0 0
outer loop
vertex 15.265024 11.296986 13.939372
vertex 15.244549 11.296986 13.939372
vertex 15.244549 11.276233 13.939372
endloop
endfacet
facet normal 0 0 0
outer loop
vertex 15.285500 11.276233 13.939372
vertex 15.285500 11.296986 13.939372
vertex 15.265024 11.276233 13.939372
endloop
endfacet
facet normal 0 0 0
outer loop
vertex 15.285500 11.296986 13.939372
vertex 15.265024 11.296986 13.939372
vertex 15.265024 11.276233 13.939372
endloop
endfacet
endsolid B-16-Plag.372
