solid B-16-Plag.382
facet normal 0 0 0
outer loop
vertex 12.521267 12.625198 14.119371
vertex 12.500792 12.625198 14.119371
vertex 12.521267 12.645952 14.119371
endloop
endfacet
facet normal 0 0 0
outer loop
vertex 12.521267 12.645952 14.119371
vertex 12.500792 12.625198 14.119371
vertex 12.500792 12.645952 14.119371
endloop
endfacet
facet normal 0 0 0
outer loop
vertex 12.541744 12.625198 14.119371
vertex 12.521267 12.625198 14.119371
vertex 12.541744 12.645952 14.119371
endloop
endfacet
facet normal 0 0 0
outer loop
vertex 12.541744 12.645952 14.119371
vertex 12.521267 12.625198 14.119371
vertex 12.521267 12.645952 14.119371
endloop
endfacet
facet normal 0 0 0
outer loop
vertex 12.562220 12.625198 14.119371
vertex 12.541744 12.625198 14.119371
vertex 12.562220 12.645952 14.119371
endloop
endfacet
facet normal 0 0 0
outer loop
vertex 12.562220 12.645952 14.119371
vertex 12.541744 12.625198 14.119371
vertex 12.541744 12.645952 14.119371
endloop
endfacet
facet normal 0 0 0
outer loop
vertex 12.582695 12.645952 14.119371
vertex 12.562220 12.625198 14.119371
vertex 12.562220 12.645952 14.119371
endloop
endfacet
facet normal 0 0 0
outer loop
vertex 12.500792 12.645952 14.119371
vertex 12.521267 12.666705 14.119371
vertex 12.521267 12.645952 14.119371
endloop
endfacet
facet normal 0 0 0
outer loop
vertex 12.541744 12.645952 14.119371
vertex 12.521267 12.645952 14.119371
vertex 12.541744 12.666705 14.119371
endloop
endfacet
facet normal 0 0 0
outer loop
vertex 12.541744 12.666705 14.119371
vertex 12.521267 12.645952 14.119371
vertex 12.521267 12.666705 14.119371
endloop
endfacet
facet normal 0 0 0
outer loop
vertex 12.562220 12.645952 14.119371
vertex 12.541744 12.645952 14.119371
vertex 12.562220 12.666705 14.119371
endloop
endfacet
facet normal 0 0 0
outer loop
vertex 12.562220 12.666705 14.119371
vertex 12.541744 12.645952 14.119371
vertex 12.541744 12.666705 14.119371
endloop
endfacet
facet normal 0 0 0
outer loop
vertex 12.582695 12.645952 14.119371
vertex 12.562220 12.645952 14.119371
vertex 12.582695 12.666705 14.119371
endloop
endfacet
facet normal 0 0 0
outer loop
vertex 12.582695 12.666705 14.119371
vertex 12.562220 12.645952 14.119371
vertex 12.562220 12.666705 14.119371
endloop
endfacet
facet normal 0 0 0
outer loop
vertex 12.603170 12.666705 14.119371
vertex 12.582695 12.645952 14.119371
vertex 12.582695 12.666705 14.119371
endloop
endfacet
facet normal 0 0 0
outer loop
vertex 12.541744 12.666705 14.119371
vertex 12.521267 12.666705 14.119371
vertex 12.541744 12.687459 14.119371
endloop
endfacet
facet normal 0 0 0
outer loop
vertex 12.541744 12.687459 14.119371
vertex 12.521267 12.666705 14.119371
vertex 12.521267 12.687459 14.119371
endloop
endfacet
facet normal 0 0 0
outer loop
vertex 12.562220 12.666705 14.119371
vertex 12.541744 12.666705 14.119371
vertex 12.562220 12.687459 14.119371
endloop
endfacet
facet normal 0 0 0
outer loop
vertex 12.562220 12.687459 14.119371
vertex 12.541744 12.666705 14.119371
vertex 12.541744 12.687459 14.119371
endloop
endfacet
facet normal 0 0 0
outer loop
vertex 12.582695 12.666705 14.119371
vertex 12.562220 12.666705 14.119371
vertex 12.582695 12.687459 14.119371
endloop
endfacet
facet normal 0 0 0
outer loop
vertex 12.582695 12.687459 14.119371
vertex 12.562220 12.666705 14.119371
vertex 12.562220 12.687459 14.119371
endloop
endfacet
facet normal 0 0 0
outer loop
vertex 12.603170 12.666705 14.119371
vertex 12.582695 12.666705 14.119371
vertex 12.603170 12.687459 14.119371
endloop
endfacet
facet normal 0 0 0
outer loop
vertex 12.603170 12.687459 14.119371
vertex 12.582695 12.666705 14.119371
vertex 12.582695 12.687459 14.119371
endloop
endfacet
facet normal 0 0 0
outer loop
vertex 12.623648 12.687459 14.119371
vertex 12.603170 12.666705 14.119371
vertex 12.603170 12.687459 14.119371
endloop
endfacet
facet normal 0 0 0
outer loop
vertex 12.541744 12.687459 14.119371
vertex 12.562220 12.708212 14.119371
vertex 12.562220 12.687459 14.119371
endloop
endfacet
facet normal 0 0 0
outer loop
vertex 12.582695 12.687459 14.119371
vertex 12.562220 12.687459 14.119371
vertex 12.582695 12.708212 14.119371
endloop
endfacet
facet normal 0 0 0
outer loop
vertex 12.582695 12.708212 14.119371
vertex 12.562220 12.687459 14.119371
vertex 12.562220 12.708212 14.119371
endloop
endfacet
facet normal 0 0 0
outer loop
vertex 12.603170 12.687459 14.119371
vertex 12.582695 12.687459 14.119371
vertex 12.603170 12.708212 14.119371
endloop
endfacet
facet normal 0 0 0
outer loop
vertex 12.603170 12.708212 14.119371
vertex 12.582695 12.687459 14.119371
vertex 12.582695 12.708212 14.119371
endloop
endfacet
facet normal 0 0 0
outer loop
vertex 12.603170 12.708212 14.119371
vertex 12.623648 12.687459 14.119371
vertex 12.603170 12.687459 14.119371
endloop
endfacet
facet normal 0 0 0
outer loop
vertex 12.521267 12.625198 14.119371
vertex 12.521267 12.625198 14.139372
vertex 12.500792 12.625198 14.119371
endloop
endfacet
facet normal 0 0 0
outer loop
vertex 12.500792 12.625198 14.119371
vertex 12.521267 12.625198 14.139372
vertex 12.500792 12.625198 14.139372
endloop
endfacet
facet normal 0 0 0
outer loop
vertex 12.541744 12.625198 14.119371
vertex 12.541744 12.625198 14.139372
vertex 12.521267 12.625198 14.119371
endloop
endfacet
facet normal 0 0 0
outer loop
vertex 12.521267 12.625198 14.119371
vertex 12.541744 12.625198 14.139372
vertex 12.521267 12.625198 14.139372
endloop
endfacet
facet normal 0 0 0
outer loop
vertex 12.562220 12.625198 14.119371
vertex 12.541744 12.625198 14.139372
vertex 12.541744 12.625198 14.119371
endloop
endfacet
facet normal 0 0 0
outer loop
vertex 12.500792 12.625198 14.119371
vertex 12.500792 12.625198 14.139372
vertex 12.500792 12.645952 14.119371
endloop
endfacet
facet normal 0 0 0
outer loop
vertex 12.500792 12.625198 14.139372
vertex 12.500792 12.645952 14.139372
vertex 12.500792 12.645952 14.119371
endloop
endfacet
facet normal 0 0 0
outer loop
vertex 12.562220 12.625198 14.119371
vertex 12.562220 12.645952 14.139372
vertex 12.541744 12.625198 14.139372
endloop
endfacet
facet normal 0 0 0
outer loop
vertex 12.582695 12.645952 14.119371
vertex 12.562220 12.645952 14.139372
vertex 12.562220 12.625198 14.119371
endloop
endfacet
facet normal 0 0 0
outer loop
vertex 12.500792 12.666705 14.139372
vertex 12.500792 12.645952 14.119371
vertex 12.500792 12.645952 14.139372
endloop
endfacet
facet normal 0 0 0
outer loop
vertex 12.500792 12.645952 14.119371
vertex 12.500792 12.666705 14.139372
vertex 12.521267 12.666705 14.119371
endloop
endfacet
facet normal 0 0 0
outer loop
vertex 12.582695 12.645952 14.119371
vertex 12.582695 12.666705 14.139372
vertex 12.562220 12.645952 14.139372
endloop
endfacet
facet normal 0 0 0
outer loop
vertex 12.603170 12.666705 14.119371
vertex 12.582695 12.666705 14.139372
vertex 12.582695 12.645952 14.119371
endloop
endfacet
facet normal 0 0 0
outer loop
vertex 12.500792 12.666705 14.139372
vertex 12.521267 12.687459 14.139372
vertex 12.521267 12.666705 14.119371
endloop
endfacet
facet normal 0 0 0
outer loop
vertex 12.521267 12.687459 14.139372
vertex 12.521267 12.687459 14.119371
vertex 12.521267 12.666705 14.119371
endloop
endfacet
facet normal 0 0 0
outer loop
vertex 12.603170 12.666705 14.119371
vertex 12.603170 12.687459 14.139372
vertex 12.582695 12.666705 14.139372
endloop
endfacet
facet normal 0 0 0
outer loop
vertex 12.623648 12.687459 14.119371
vertex 12.603170 12.687459 14.139372
vertex 12.603170 12.666705 14.119371
endloop
endfacet
facet normal 0 0 0
outer loop
vertex 12.521267 12.708212 14.139372
vertex 12.521267 12.687459 14.119371
vertex 12.521267 12.687459 14.139372
endloop
endfacet
facet normal 0 0 0
outer loop
vertex 12.521267 12.687459 14.119371
vertex 12.541744 12.708212 14.139372
vertex 12.541744 12.687459 14.119371
endloop
endfacet
facet normal 0 0 0
outer loop
vertex 12.521267 12.708212 14.139372
vertex 12.541744 12.708212 14.139372
vertex 12.521267 12.687459 14.119371
endloop
endfacet
facet normal 0 0 0
outer loop
vertex 12.541744 12.687459 14.119371
vertex 12.541744 12.708212 14.139372
vertex 12.562220 12.708212 14.119371
endloop
endfacet
facet normal 0 0 0
outer loop
vertex 12.623648 12.687459 14.119371
vertex 12.603170 12.708212 14.119371
vertex 12.603170 12.687459 14.139372
endloop
endfacet
facet normal 0 0 0
outer loop
vertex 12.603170 12.708212 14.119371
vertex 12.603170 12.708212 14.139372
vertex 12.603170 12.687459 14.139372
endloop
endfacet
facet normal 0 0 0
outer loop
vertex 12.521267 12.708212 14.139372
vertex 12.541744 12.728966 14.139372
vertex 12.541744 12.708212 14.139372
endloop
endfacet
facet normal 0 0 0
outer loop
vertex 12.562220 12.708212 14.119371
vertex 12.541744 12.708212 14.139372
vertex 12.562220 12.728966 14.139372
endloop
endfacet
facet normal 0 0 0
outer loop
vertex 12.541744 12.708212 14.139372
vertex 12.541744 12.728966 14.139372
vertex 12.562220 12.728966 14.139372
endloop
endfacet
facet normal 0 0 0
outer loop
vertex 12.562220 12.708212 14.119371
vertex 12.582695 12.728966 14.139372
vertex 12.582695 12.708212 14.119371
endloop
endfacet
facet normal 0 0 0
outer loop
vertex 12.562220 12.728966 14.139372
vertex 12.582695 12.728966 14.139372
vertex 12.562220 12.708212 14.119371
endloop
endfacet
facet normal 0 0 0
outer loop
vertex 12.582695 12.728966 14.139372
vertex 12.603170 12.708212 14.139372
vertex 12.582695 12.708212 14.119371
endloop
endfacet
facet normal 0 0 0
outer loop
vertex 12.603170 12.708212 14.139372
vertex 12.603170 12.708212 14.119371
vertex 12.582695 12.708212 14.119371
endloop
endfacet
facet normal 0 0 0
outer loop
vertex 12.562220 12.728966 14.139372
vertex 12.541744 12.728966 14.139372
vertex 12.562220 12.749719 14.139372
endloop
endfacet
facet normal 0 0 0
outer loop
vertex 12.562220 12.749719 14.139372
vertex 12.541744 12.728966 14.139372
vertex 12.541744 12.749719 14.139372
endloop
endfacet
facet normal 0 0 0
outer loop
vertex 12.582695 12.728966 14.139372
vertex 12.562220 12.728966 14.139372
vertex 12.582695 12.749719 14.139372
endloop
endfacet
facet normal 0 0 0
outer loop
vertex 12.582695 12.749719 14.139372
vertex 12.562220 12.728966 14.139372
vertex 12.562220 12.749719 14.139372
endloop
endfacet
facet normal 0 0 0
outer loop
vertex 12.480316 12.645952 14.159371
vertex 12.459841 12.625198 14.159371
vertex 12.459841 12.645952 14.159371
endloop
endfacet
facet normal 0 0 0
outer loop
vertex 12.500792 12.625198 14.139372
vertex 12.500792 12.645952 14.159371
vertex 12.480316 12.645952 14.159371
endloop
endfacet
facet normal 0 0 0
outer loop
vertex 12.500792 12.625198 14.139372
vertex 12.480316 12.645952 14.159371
vertex 12.500792 12.645952 14.139372
endloop
endfacet
facet normal 0 0 0
outer loop
vertex 12.521267 12.625198 14.139372
vertex 12.500792 12.645952 14.159371
vertex 12.500792 12.625198 14.139372
endloop
endfacet
facet normal 0 0 0
outer loop
vertex 12.521267 12.645952 14.159371
vertex 12.500792 12.645952 14.159371
vertex 12.521267 12.625198 14.139372
endloop
endfacet
facet normal 0 0 0
outer loop
vertex 12.541744 12.625198 14.139372
vertex 12.521267 12.645952 14.159371
vertex 12.521267 12.625198 14.139372
endloop
endfacet
facet normal 0 0 0
outer loop
vertex 12.541744 12.645952 14.159371
vertex 12.521267 12.645952 14.159371
vertex 12.541744 12.625198 14.139372
endloop
endfacet
facet normal 0 0 0
outer loop
vertex 12.562220 12.645952 14.139372
vertex 12.541744 12.645952 14.159371
vertex 12.541744 12.625198 14.139372
endloop
endfacet
facet normal 0 0 0
outer loop
vertex 12.480316 12.645952 14.159371
vertex 12.459841 12.645952 14.159371
vertex 12.480316 12.666705 14.159371
endloop
endfacet
facet normal 0 0 0
outer loop
vertex 12.480316 12.666705 14.159371
vertex 12.459841 12.645952 14.159371
vertex 12.459841 12.666705 14.159371
endloop
endfacet
facet normal 0 0 0
outer loop
vertex 12.500792 12.645952 14.139372
vertex 12.480316 12.666705 14.159371
vertex 12.500792 12.666705 14.139372
endloop
endfacet
facet normal 0 0 0
outer loop
vertex 12.480316 12.645952 14.159371
vertex 12.480316 12.666705 14.159371
vertex 12.500792 12.645952 14.139372
endloop
endfacet
facet normal 0 0 0
outer loop
vertex 12.562220 12.645952 14.139372
vertex 12.562220 12.666705 14.159371
vertex 12.541744 12.645952 14.159371
endloop
endfacet
facet normal 0 0 0
outer loop
vertex 12.582695 12.666705 14.139372
vertex 12.562220 12.666705 14.159371
vertex 12.562220 12.645952 14.139372
endloop
endfacet
facet normal 0 0 0
outer loop
vertex 12.459841 12.666705 14.159371
vertex 12.480316 12.687459 14.159371
vertex 12.480316 12.666705 14.159371
endloop
endfacet
facet normal 0 0 0
outer loop
vertex 12.500792 12.666705 14.139372
vertex 12.480316 12.666705 14.159371
vertex 12.500792 12.687459 14.159371
endloop
endfacet
facet normal 0 0 0
outer loop
vertex 12.480316 12.666705 14.159371
vertex 12.480316 12.687459 14.159371
vertex 12.500792 12.687459 14.159371
endloop
endfacet
facet normal 0 0 0
outer loop
vertex 12.500792 12.666705 14.139372
vertex 12.500792 12.687459 14.159371
vertex 12.521267 12.687459 14.139372
endloop
endfacet
facet normal 0 0 0
outer loop
vertex 12.582695 12.666705 14.139372
vertex 12.582695 12.687459 14.159371
vertex 12.562220 12.666705 14.159371
endloop
endfacet
facet normal 0 0 0
outer loop
vertex 12.603170 12.687459 14.139372
vertex 12.582695 12.687459 14.159371
vertex 12.582695 12.666705 14.139372
endloop
endfacet
facet normal 0 0 0
outer loop
vertex 12.480316 12.687459 14.159371
vertex 12.500792 12.708212 14.159371
vertex 12.500792 12.687459 14.159371
endloop
endfacet
facet normal 0 0 0
outer loop
vertex 12.521267 12.687459 14.139372
vertex 12.500792 12.708212 14.159371
vertex 12.521267 12.708212 14.139372
endloop
endfacet
facet normal 0 0 0
outer loop
vertex 12.500792 12.687459 14.159371
vertex 12.500792 12.708212 14.159371
vertex 12.521267 12.687459 14.139372
endloop
endfacet
facet normal 0 0 0
outer loop
vertex 12.603170 12.708212 14.139372
vertex 12.582695 12.687459 14.159371
vertex 12.603170 12.687459 14.139372
endloop
endfacet
facet normal 0 0 0
outer loop
vertex 12.582695 12.708212 14.159371
vertex 12.582695 12.687459 14.159371
vertex 12.603170 12.708212 14.139372
endloop
endfacet
facet normal 0 0 0
outer loop
vertex 12.521267 12.708212 14.139372
vertex 12.500792 12.708212 14.159371
vertex 12.521267 12.728966 14.159371
endloop
endfacet
facet normal 0 0 0
outer loop
vertex 12.521267 12.708212 14.139372
vertex 12.521267 12.728966 14.159371
vertex 12.541744 12.728966 14.139372
endloop
endfacet
facet normal 0 0 0
outer loop
vertex 12.603170 12.708212 14.139372
vertex 12.582695 12.728966 14.139372
vertex 12.582695 12.708212 14.159371
endloop
endfacet
facet normal 0 0 0
outer loop
vertex 12.582695 12.728966 14.139372
vertex 12.582695 12.728966 14.159371
vertex 12.582695 12.708212 14.159371
endloop
endfacet
facet normal 0 0 0
outer loop
vertex 12.521267 12.728966 14.159371
vertex 12.541744 12.749719 14.159371
vertex 12.541744 12.728966 14.139372
endloop
endfacet
facet normal 0 0 0
outer loop
vertex 12.541744 12.749719 14.159371
vertex 12.541744 12.749719 14.139372
vertex 12.541744 12.728966 14.139372
endloop
endfacet
facet normal 0 0 0
outer loop
vertex 12.562220 12.749719 14.139372
vertex 12.541744 12.749719 14.159371
vertex 12.562220 12.728966 14.159371
endloop
endfacet
facet normal 0 0 0
outer loop
vertex 12.562220 12.749719 14.139372
vertex 12.582695 12.728966 14.159371
vertex 12.582695 12.749719 14.139372
endloop
endfacet
facet normal 0 0 0
outer loop
vertex 12.562220 12.728966 14.159371
vertex 12.582695 12.728966 14.159371
vertex 12.562220 12.749719 14.139372
endloop
endfacet
facet normal 0 0 0
outer loop
vertex 12.582695 12.749719 14.139372
vertex 12.582695 12.728966 14.159371
vertex 12.582695 12.728966 14.139372
endloop
endfacet
facet normal 0 0 0
outer loop
vertex 12.541744 12.749719 14.159371
vertex 12.562220 12.749719 14.139372
vertex 12.541744 12.749719 14.139372
endloop
endfacet
facet normal 0 0 0
outer loop
vertex 12.439365 12.645952 14.179372
vertex 12.459841 12.645952 14.159371
vertex 12.459841 12.625198 14.179372
endloop
endfacet
facet normal 0 0 0
outer loop
vertex 12.459841 12.645952 14.159371
vertex 12.459841 12.625198 14.159371
vertex 12.459841 12.625198 14.179372
endloop
endfacet
facet normal 0 0 0
outer loop
vertex 12.459841 12.625198 14.159371
vertex 12.480316 12.645952 14.179372
vertex 12.459841 12.625198 14.179372
endloop
endfacet
facet normal 0 0 0
outer loop
vertex 12.480316 12.645952 14.159371
vertex 12.480316 12.645952 14.179372
vertex 12.459841 12.625198 14.159371
endloop
endfacet
facet normal 0 0 0
outer loop
vertex 12.500792 12.645952 14.159371
vertex 12.480316 12.645952 14.179372
vertex 12.480316 12.645952 14.159371
endloop
endfacet
facet normal 0 0 0
outer loop
vertex 12.459841 12.645952 14.159371
vertex 12.439365 12.666705 14.179372
vertex 12.459841 12.666705 14.159371
endloop
endfacet
facet normal 0 0 0
outer loop
vertex 12.439365 12.645952 14.179372
vertex 12.439365 12.666705 14.179372
vertex 12.459841 12.645952 14.159371
endloop
endfacet
facet normal 0 0 0
outer loop
vertex 12.500792 12.645952 14.159371
vertex 12.500792 12.666705 14.179372
vertex 12.480316 12.645952 14.179372
endloop
endfacet
facet normal 0 0 0
outer loop
vertex 12.500792 12.666705 14.179372
vertex 12.500792 12.645952 14.159371
vertex 12.521267 12.666705 14.159371
endloop
endfacet
facet normal 0 0 0
outer loop
vertex 12.500792 12.645952 14.159371
vertex 12.521267 12.645952 14.159371
vertex 12.521267 12.666705 14.159371
endloop
endfacet
facet normal 0 0 0
outer loop
vertex 12.541744 12.645952 14.159371
vertex 12.541744 12.666705 14.159371
vertex 12.521267 12.645952 14.159371
endloop
endfacet
facet normal 0 0 0
outer loop
vertex 12.541744 12.666705 14.159371
vertex 12.521267 12.666705 14.159371
vertex 12.521267 12.645952 14.159371
endloop
endfacet
facet normal 0 0 0
outer loop
vertex 12.541744 12.645952 14.159371
vertex 12.562220 12.666705 14.159371
vertex 12.541744 12.666705 14.159371
endloop
endfacet
facet normal 0 0 0
outer loop
vertex 12.459841 12.666705 14.159371
vertex 12.439365 12.666705 14.179372
vertex 12.459841 12.666705 14.179372
endloop
endfacet
facet normal 0 0 0
outer loop
vertex 12.459841 12.666705 14.179372
vertex 12.480316 12.687459 14.159371
vertex 12.459841 12.666705 14.159371
endloop
endfacet
facet normal 0 0 0
outer loop
vertex 12.480316 12.687459 14.179372
vertex 12.480316 12.687459 14.159371
vertex 12.459841 12.666705 14.179372
endloop
endfacet
facet normal 0 0 0
outer loop
vertex 12.521267 12.666705 14.159371
vertex 12.521267 12.687459 14.179372
vertex 12.500792 12.666705 14.179372
endloop
endfacet
facet normal 0 0 0
outer loop
vertex 12.521267 12.687459 14.179372
vertex 12.521267 12.666705 14.159371
vertex 12.541744 12.687459 14.159371
endloop
endfacet
facet normal 0 0 0
outer loop
vertex 12.521267 12.666705 14.159371
vertex 12.541744 12.666705 14.159371
vertex 12.541744 12.687459 14.159371
endloop
endfacet
facet normal 0 0 0
outer loop
vertex 12.562220 12.666705 14.159371
vertex 12.562220 12.687459 14.159371
vertex 12.541744 12.666705 14.159371
endloop
endfacet
facet normal 0 0 0
outer loop
vertex 12.562220 12.687459 14.159371
vertex 12.541744 12.687459 14.159371
vertex 12.541744 12.666705 14.159371
endloop
endfacet
facet normal 0 0 0
outer loop
vertex 12.562220 12.666705 14.159371
vertex 12.582695 12.687459 14.159371
vertex 12.562220 12.687459 14.159371
endloop
endfacet
facet normal 0 0 0
outer loop
vertex 12.480316 12.687459 14.159371
vertex 12.459841 12.708212 14.179372
vertex 12.480316 12.708212 14.179372
endloop
endfacet
facet normal 0 0 0
outer loop
vertex 12.480316 12.687459 14.159371
vertex 12.480316 12.687459 14.179372
vertex 12.459841 12.708212 14.179372
endloop
endfacet
facet normal 0 0 0
outer loop
vertex 12.480316 12.687459 14.159371
vertex 12.480316 12.708212 14.179372
vertex 12.500792 12.708212 14.159371
endloop
endfacet
facet normal 0 0 0
outer loop
vertex 12.541744 12.687459 14.159371
vertex 12.541744 12.708212 14.179372
vertex 12.521267 12.687459 14.179372
endloop
endfacet
facet normal 0 0 0
outer loop
vertex 12.541744 12.708212 14.179372
vertex 12.541744 12.687459 14.159371
vertex 12.562220 12.708212 14.159371
endloop
endfacet
facet normal 0 0 0
outer loop
vertex 12.541744 12.687459 14.159371
vertex 12.562220 12.687459 14.159371
vertex 12.562220 12.708212 14.159371
endloop
endfacet
facet normal 0 0 0
outer loop
vertex 12.582695 12.687459 14.159371
vertex 12.582695 12.708212 14.159371
vertex 12.562220 12.687459 14.159371
endloop
endfacet
facet normal 0 0 0
outer loop
vertex 12.582695 12.708212 14.159371
vertex 12.562220 12.708212 14.159371
vertex 12.562220 12.687459 14.159371
endloop
endfacet
facet normal 0 0 0
outer loop
vertex 12.459841 12.708212 14.179372
vertex 12.480316 12.728966 14.179372
vertex 12.480316 12.708212 14.179372
endloop
endfacet
facet normal 0 0 0
outer loop
vertex 12.500792 12.708212 14.159371
vertex 12.480316 12.708212 14.179372
vertex 12.480316 12.728966 14.179372
endloop
endfacet
facet normal 0 0 0
outer loop
vertex 12.500792 12.708212 14.159371
vertex 12.480316 12.728966 14.179372
vertex 12.500792 12.708212 14.179372
endloop
endfacet
facet normal 0 0 0
outer loop
vertex 12.500792 12.708212 14.179372
vertex 12.521267 12.728966 14.159371
vertex 12.500792 12.708212 14.159371
endloop
endfacet
facet normal 0 0 0
outer loop
vertex 12.521267 12.728966 14.179372
vertex 12.521267 12.728966 14.159371
vertex 12.500792 12.708212 14.179372
endloop
endfacet
facet normal 0 0 0
outer loop
vertex 12.562220 12.708212 14.159371
vertex 12.562220 12.728966 14.179372
vertex 12.541744 12.708212 14.179372
endloop
endfacet
facet normal 0 0 0
outer loop
vertex 12.562220 12.728966 14.179372
vertex 12.562220 12.708212 14.159371
vertex 12.582695 12.728966 14.159371
endloop
endfacet
facet normal 0 0 0
outer loop
vertex 12.562220 12.708212 14.159371
vertex 12.582695 12.708212 14.159371
vertex 12.582695 12.728966 14.159371
endloop
endfacet
facet normal 0 0 0
outer loop
vertex 12.521267 12.728966 14.179372
vertex 12.541744 12.749719 14.159371
vertex 12.521267 12.728966 14.159371
endloop
endfacet
facet normal 0 0 0
outer loop
vertex 12.541744 12.749719 14.179372
vertex 12.541744 12.749719 14.159371
vertex 12.521267 12.728966 14.179372
endloop
endfacet
facet normal 0 0 0
outer loop
vertex 12.562220 12.728966 14.159371
vertex 12.541744 12.749719 14.159371
vertex 12.562220 12.749719 14.179372
endloop
endfacet
facet normal 0 0 0
outer loop
vertex 12.582695 12.728966 14.159371
vertex 12.562220 12.749719 14.179372
vertex 12.562220 12.728966 14.179372
endloop
endfacet
facet normal 0 0 0
outer loop
vertex 12.582695 12.728966 14.159371
vertex 12.562220 12.728966 14.159371
vertex 12.562220 12.749719 14.179372
endloop
endfacet
facet normal 0 0 0
outer loop
vertex 12.562220 12.749719 14.179372
vertex 12.541744 12.749719 14.159371
vertex 12.541744 12.749719 14.179372
endloop
endfacet
facet normal 0 0 0
outer loop
vertex 12.418888 12.604445 14.199371
vertex 12.439365 12.604445 14.179372
vertex 12.439365 12.604445 14.199371
endloop
endfacet
facet normal 0 0 0
outer loop
vertex 12.439365 12.604445 14.179372
vertex 12.418888 12.604445 14.199371
vertex 12.439365 12.625198 14.199371
endloop
endfacet
facet normal 0 0 0
outer loop
vertex 12.439365 12.604445 14.179372
vertex 12.439365 12.625198 14.199371
vertex 12.439365 12.604445 14.199371
endloop
endfacet
facet normal 0 0 0
outer loop
vertex 12.439365 12.604445 14.199371
vertex 12.439365 12.625198 14.199371
vertex 12.459841 12.625198 14.199371
endloop
endfacet
facet normal 0 0 0
outer loop
vertex 12.459841 12.625198 14.199371
vertex 12.439365 12.625198 14.199371
vertex 12.459841 12.625198 14.179372
endloop
endfacet
facet normal 0 0 0
outer loop
vertex 12.459841 12.625198 14.179372
vertex 12.480316 12.625198 14.199371
vertex 12.459841 12.625198 14.199371
endloop
endfacet
facet normal 0 0 0
outer loop
vertex 12.439365 12.645952 14.179372
vertex 12.439365 12.625198 14.199371
vertex 12.439365 12.645952 14.199371
endloop
endfacet
facet normal 0 0 0
outer loop
vertex 12.459841 12.625198 14.179372
vertex 12.439365 12.625198 14.199371
vertex 12.439365 12.645952 14.179372
endloop
endfacet
facet normal 0 0 0
outer loop
vertex 12.459841 12.625198 14.179372
vertex 12.480316 12.645952 14.179372
vertex 12.480316 12.625198 14.199371
endloop
endfacet
facet normal 0 0 0
outer loop
vertex 12.480316 12.645952 14.179372
vertex 12.500792 12.645952 14.199371
vertex 12.480316 12.625198 14.199371
endloop
endfacet
facet normal 0 0 0
outer loop
vertex 12.439365 12.645952 14.199371
vertex 12.439365 12.666705 14.179372
vertex 12.439365 12.645952 14.179372
endloop
endfacet
facet normal 0 0 0
outer loop
vertex 12.439365 12.645952 14.199371
vertex 12.459841 12.666705 14.199371
vertex 12.439365 12.666705 14.179372
endloop
endfacet
facet normal 0 0 0
outer loop
vertex 12.480316 12.645952 14.179372
vertex 12.500792 12.666705 14.179372
vertex 12.500792 12.645952 14.199371
endloop
endfacet
facet normal 0 0 0
outer loop
vertex 12.500792 12.645952 14.199371
vertex 12.500792 12.666705 14.179372
vertex 12.500792 12.666705 14.199371
endloop
endfacet
facet normal 0 0 0
outer loop
vertex 12.439365 12.666705 14.179372
vertex 12.459841 12.666705 14.199371
vertex 12.459841 12.666705 14.179372
endloop
endfacet
facet normal 0 0 0
outer loop
vertex 12.459841 12.666705 14.199371
vertex 12.480316 12.687459 14.179372
vertex 12.459841 12.666705 14.179372
endloop
endfacet
facet normal 0 0 0
outer loop
vertex 12.480316 12.687459 14.199371
vertex 12.480316 12.687459 14.179372
vertex 12.459841 12.666705 14.199371
endloop
endfacet
facet normal 0 0 0
outer loop
vertex 12.500792 12.666705 14.179372
vertex 12.521267 12.687459 14.199371
vertex 12.500792 12.666705 14.199371
endloop
endfacet
facet normal 0 0 0
outer loop
vertex 12.521267 12.687459 14.179372
vertex 12.521267 12.687459 14.199371
vertex 12.500792 12.666705 14.179372
endloop
endfacet
facet normal 0 0 0
outer loop
vertex 12.459841 12.708212 14.179372
vertex 12.480316 12.687459 14.179372
vertex 12.480316 12.708212 14.199371
endloop
endfacet
facet normal 0 0 0
outer loop
vertex 12.480316 12.687459 14.179372
vertex 12.480316 12.687459 14.199371
vertex 12.480316 12.708212 14.199371
endloop
endfacet
facet normal 0 0 0
outer loop
vertex 12.521267 12.687459 14.179372
vertex 12.541744 12.708212 14.199371
vertex 12.521267 12.687459 14.199371
endloop
endfacet
facet normal 0 0 0
outer loop
vertex 12.541744 12.708212 14.179372
vertex 12.541744 12.708212 14.199371
vertex 12.521267 12.687459 14.179372
endloop
endfacet
facet normal 0 0 0
outer loop
vertex 12.459841 12.708212 14.179372
vertex 12.480316 12.708212 14.199371
vertex 12.480316 12.728966 14.179372
endloop
endfacet
facet normal 0 0 0
outer loop
vertex 12.480316 12.728966 14.179372
vertex 12.480316 12.708212 14.199371
vertex 12.500792 12.708212 14.179372
endloop
endfacet
facet normal 0 0 0
outer loop
vertex 12.500792 12.728966 14.199371
vertex 12.500792 12.708212 14.179372
vertex 12.480316 12.708212 14.199371
endloop
endfacet
facet normal 0 0 0
outer loop
vertex 12.500792 12.708212 14.179372
vertex 12.500792 12.728966 14.199371
vertex 12.521267 12.728966 14.179372
endloop
endfacet
facet normal 0 0 0
outer loop
vertex 12.541744 12.728966 14.179372
vertex 12.521267 12.728966 14.199371
vertex 12.541744 12.708212 14.199371
endloop
endfacet
facet normal 0 0 0
outer loop
vertex 12.562220 12.728966 14.199371
vertex 12.541744 12.728966 14.179372
vertex 12.562220 12.728966 14.179372
endloop
endfacet
facet normal 0 0 0
outer loop
vertex 12.562220 12.728966 14.179372
vertex 12.541744 12.728966 14.179372
vertex 12.541744 12.708212 14.179372
endloop
endfacet
facet normal 0 0 0
outer loop
vertex 12.541744 12.708212 14.179372
vertex 12.541744 12.728966 14.179372
vertex 12.541744 12.708212 14.199371
endloop
endfacet
facet normal 0 0 0
outer loop
vertex 12.521267 12.728966 14.179372
vertex 12.500792 12.728966 14.199371
vertex 12.521267 12.728966 14.199371
endloop
endfacet
facet normal 0 0 0
outer loop
vertex 12.541744 12.749719 14.179372
vertex 12.521267 12.728966 14.199371
vertex 12.541744 12.728966 14.179372
endloop
endfacet
facet normal 0 0 0
outer loop
vertex 12.541744 12.749719 14.179372
vertex 12.521267 12.728966 14.179372
vertex 12.521267 12.728966 14.199371
endloop
endfacet
facet normal 0 0 0
outer loop
vertex 12.562220 12.728966 14.199371
vertex 12.562220 12.749719 14.179372
vertex 12.541744 12.728966 14.179372
endloop
endfacet
facet normal 0 0 0
outer loop
vertex 12.562220 12.749719 14.179372
vertex 12.541744 12.749719 14.179372
vertex 12.541744 12.728966 14.179372
endloop
endfacet
facet normal 0 0 0
outer loop
vertex 12.562220 12.728966 14.199371
vertex 12.562220 12.728966 14.179372
vertex 12.562220 12.749719 14.179372
endloop
endfacet
facet normal 0 0 0
outer loop
vertex 12.439365 12.604445 14.219372
vertex 12.418888 12.604445 14.199371
vertex 12.439365 12.604445 14.199371
endloop
endfacet
facet normal 0 0 0
outer loop
vertex 12.439365 12.604445 14.199371
vertex 12.459841 12.604445 14.219372
vertex 12.439365 12.604445 14.219372
endloop
endfacet
facet normal 0 0 0
outer loop
vertex 12.418888 12.604445 14.199371
vertex 12.439365 12.604445 14.219372
vertex 12.439365 12.625198 14.199371
endloop
endfacet
facet normal 0 0 0
outer loop
vertex 12.439365 12.604445 14.219372
vertex 12.439365 12.625198 14.219372
vertex 12.439365 12.625198 14.199371
endloop
endfacet
facet normal 0 0 0
outer loop
vertex 12.439365 12.604445 14.199371
vertex 12.459841 12.625198 14.199371
vertex 12.459841 12.604445 14.219372
endloop
endfacet
facet normal 0 0 0
outer loop
vertex 12.459841 12.604445 14.219372
vertex 12.459841 12.625198 14.199371
vertex 12.480316 12.625198 14.199371
endloop
endfacet
facet normal 0 0 0
outer loop
vertex 12.459841 12.604445 14.219372
vertex 12.480316 12.625198 14.199371
vertex 12.459841 12.625198 14.219372
endloop
endfacet
facet normal 0 0 0
outer loop
vertex 12.439365 12.625198 14.199371
vertex 12.439365 12.625198 14.219372
vertex 12.439365 12.645952 14.199371
endloop
endfacet
facet normal 0 0 0
outer loop
vertex 12.439365 12.625198 14.219372
vertex 12.439365 12.645952 14.219372
vertex 12.439365 12.645952 14.199371
endloop
endfacet
facet normal 0 0 0
outer loop
vertex 12.480316 12.625198 14.199371
vertex 12.480316 12.645952 14.219372
vertex 12.459841 12.625198 14.219372
endloop
endfacet
facet normal 0 0 0
outer loop
vertex 12.500792 12.645952 14.199371
vertex 12.480316 12.645952 14.219372
vertex 12.480316 12.625198 14.199371
endloop
endfacet
facet normal 0 0 0
outer loop
vertex 12.439365 12.645952 14.219372
vertex 12.459841 12.666705 14.199371
vertex 12.439365 12.645952 14.199371
endloop
endfacet
facet normal 0 0 0
outer loop
vertex 12.459841 12.666705 14.219372
vertex 12.459841 12.666705 14.199371
vertex 12.439365 12.645952 14.219372
endloop
endfacet
facet normal 0 0 0
outer loop
vertex 12.500792 12.645952 14.199371
vertex 12.500792 12.666705 14.219372
vertex 12.480316 12.645952 14.219372
endloop
endfacet
facet normal 0 0 0
outer loop
vertex 12.500792 12.666705 14.219372
vertex 12.500792 12.645952 14.199371
vertex 12.500792 12.666705 14.199371
endloop
endfacet
facet normal 0 0 0
outer loop
vertex 12.459841 12.666705 14.219372
vertex 12.480316 12.687459 14.199371
vertex 12.459841 12.666705 14.199371
endloop
endfacet
facet normal 0 0 0
outer loop
vertex 12.480316 12.687459 14.219372
vertex 12.480316 12.687459 14.199371
vertex 12.459841 12.666705 14.219372
endloop
endfacet
facet normal 0 0 0
outer loop
vertex 12.500792 12.666705 14.199371
vertex 12.521267 12.687459 14.219372
vertex 12.500792 12.666705 14.219372
endloop
endfacet
facet normal 0 0 0
outer loop
vertex 12.521267 12.687459 14.199371
vertex 12.521267 12.687459 14.219372
vertex 12.500792 12.666705 14.199371
endloop
endfacet
facet normal 0 0 0
outer loop
vertex 12.480316 12.687459 14.219372
vertex 12.480316 12.708212 14.199371
vertex 12.480316 12.687459 14.199371
endloop
endfacet
facet normal 0 0 0
outer loop
vertex 12.480316 12.687459 14.219372
vertex 12.500792 12.708212 14.219372
vertex 12.480316 12.708212 14.199371
endloop
endfacet
facet normal 0 0 0
outer loop
vertex 12.521267 12.708212 14.199371
vertex 12.500792 12.708212 14.219372
vertex 12.521267 12.687459 14.219372
endloop
endfacet
facet normal 0 0 0
outer loop
vertex 12.541744 12.708212 14.199371
vertex 12.521267 12.708212 14.199371
vertex 12.521267 12.687459 14.219372
endloop
endfacet
facet normal 0 0 0
outer loop
vertex 12.541744 12.708212 14.199371
vertex 12.521267 12.687459 14.219372
vertex 12.521267 12.687459 14.199371
endloop
endfacet
facet normal 0 0 0
outer loop
vertex 12.480316 12.708212 14.199371
vertex 12.500792 12.708212 14.219372
vertex 12.500792 12.728966 14.199371
endloop
endfacet
facet normal 0 0 0
outer loop
vertex 12.500792 12.708212 14.219372
vertex 12.521267 12.708212 14.199371
vertex 12.500792 12.728966 14.199371
endloop
endfacet
facet normal 0 0 0
outer loop
vertex 12.521267 12.708212 14.199371
vertex 12.521267 12.728966 14.199371
vertex 12.500792 12.728966 14.199371
endloop
endfacet
facet normal 0 0 0
outer loop
vertex 12.541744 12.708212 14.199371
vertex 12.521267 12.728966 14.199371
vertex 12.521267 12.708212 14.199371
endloop
endfacet
facet normal 0 0 0
outer loop
vertex 12.439365 12.604445 14.219372
vertex 12.439365 12.625198 14.239372
vertex 12.418888 12.625198 14.239372
endloop
endfacet
facet normal 0 0 0
outer loop
vertex 12.439365 12.604445 14.219372
vertex 12.418888 12.625198 14.239372
vertex 12.439365 12.625198 14.219372
endloop
endfacet
facet normal 0 0 0
outer loop
vertex 12.439365 12.625198 14.239372
vertex 12.439365 12.604445 14.219372
vertex 12.459841 12.625198 14.219372
endloop
endfacet
facet normal 0 0 0
outer loop
vertex 12.439365 12.604445 14.219372
vertex 12.459841 12.604445 14.219372
vertex 12.459841 12.625198 14.219372
endloop
endfacet
facet normal 0 0 0
outer loop
vertex 12.398413 12.625198 14.239372
vertex 12.418888 12.645952 14.239372
vertex 12.418888 12.625198 14.239372
endloop
endfacet
facet normal 0 0 0
outer loop
vertex 12.439365 12.625198 14.219372
vertex 12.418888 12.645952 14.239372
vertex 12.439365 12.645952 14.219372
endloop
endfacet
facet normal 0 0 0
outer loop
vertex 12.418888 12.625198 14.239372
vertex 12.418888 12.645952 14.239372
vertex 12.439365 12.625198 14.219372
endloop
endfacet
facet normal 0 0 0
outer loop
vertex 12.459841 12.625198 14.219372
vertex 12.459841 12.645952 14.239372
vertex 12.439365 12.625198 14.239372
endloop
endfacet
facet normal 0 0 0
outer loop
vertex 12.480316 12.645952 14.219372
vertex 12.459841 12.645952 14.239372
vertex 12.459841 12.625198 14.219372
endloop
endfacet
facet normal 0 0 0
outer loop
vertex 12.439365 12.645952 14.219372
vertex 12.418888 12.645952 14.239372
vertex 12.439365 12.666705 14.239372
endloop
endfacet
facet normal 0 0 0
outer loop
vertex 12.439365 12.645952 14.219372
vertex 12.439365 12.666705 14.239372
vertex 12.459841 12.666705 14.219372
endloop
endfacet
facet normal 0 0 0
outer loop
vertex 12.480316 12.645952 14.219372
vertex 12.480316 12.666705 14.239372
vertex 12.459841 12.645952 14.239372
endloop
endfacet
facet normal 0 0 0
outer loop
vertex 12.500792 12.666705 14.219372
vertex 12.480316 12.666705 14.239372
vertex 12.480316 12.645952 14.219372
endloop
endfacet
facet normal 0 0 0
outer loop
vertex 12.459841 12.666705 14.219372
vertex 12.439365 12.666705 14.239372
vertex 12.459841 12.687459 14.239372
endloop
endfacet
facet normal 0 0 0
outer loop
vertex 12.459841 12.666705 14.219372
vertex 12.459841 12.687459 14.239372
vertex 12.480316 12.687459 14.219372
endloop
endfacet
facet normal 0 0 0
outer loop
vertex 12.500792 12.666705 14.219372
vertex 12.500792 12.687459 14.239372
vertex 12.480316 12.666705 14.239372
endloop
endfacet
facet normal 0 0 0
outer loop
vertex 12.500792 12.666705 14.219372
vertex 12.521267 12.687459 14.219372
vertex 12.500792 12.687459 14.239372
endloop
endfacet
facet normal 0 0 0
outer loop
vertex 12.521267 12.687459 14.219372
vertex 12.521267 12.687459 14.239372
vertex 12.500792 12.687459 14.239372
endloop
endfacet
facet normal 0 0 0
outer loop
vertex 12.480316 12.687459 14.219372
vertex 12.459841 12.687459 14.239372
vertex 12.480316 12.708212 14.239372
endloop
endfacet
facet normal 0 0 0
outer loop
vertex 12.480316 12.687459 14.219372
vertex 12.480316 12.708212 14.239372
vertex 12.500792 12.708212 14.219372
endloop
endfacet
facet normal 0 0 0
outer loop
vertex 12.521267 12.687459 14.219372
vertex 12.500792 12.708212 14.219372
vertex 12.521267 12.708212 14.239372
endloop
endfacet
facet normal 0 0 0
outer loop
vertex 12.521267 12.687459 14.219372
vertex 12.521267 12.708212 14.239372
vertex 12.521267 12.687459 14.239372
endloop
endfacet
facet normal 0 0 0
outer loop
vertex 12.500792 12.708212 14.219372
vertex 12.480316 12.708212 14.239372
vertex 12.500792 12.708212 14.239372
endloop
endfacet
facet normal 0 0 0
outer loop
vertex 12.521267 12.708212 14.239372
vertex 12.500792 12.708212 14.219372
vertex 12.500792 12.708212 14.239372
endloop
endfacet
facet normal 0 0 0
outer loop
vertex 12.377937 12.604445 14.239372
vertex 12.398413 12.604445 14.259372
vertex 12.377937 12.604445 14.259372
endloop
endfacet
facet normal 0 0 0
outer loop
vertex 12.398413 12.625198 14.239372
vertex 12.398413 12.604445 14.259372
vertex 12.398413 12.625198 14.259372
endloop
endfacet
facet normal 0 0 0
outer loop
vertex 12.398413 12.625198 14.259372
vertex 12.398413 12.604445 14.259372
vertex 12.377937 12.604445 14.259372
endloop
endfacet
facet normal 0 0 0
outer loop
vertex 12.398413 12.604445 14.259372
vertex 12.398413 12.625198 14.239372
vertex 12.418888 12.625198 14.259372
endloop
endfacet
facet normal 0 0 0
outer loop
vertex 12.398413 12.625198 14.239372
vertex 12.418888 12.625198 14.239372
vertex 12.418888 12.625198 14.259372
endloop
endfacet
facet normal 0 0 0
outer loop
vertex 12.439365 12.625198 14.239372
vertex 12.439365 12.625198 14.259372
vertex 12.418888 12.625198 14.239372
endloop
endfacet
facet normal 0 0 0
outer loop
vertex 12.418888 12.625198 14.239372
vertex 12.439365 12.625198 14.259372
vertex 12.418888 12.625198 14.259372
endloop
endfacet
facet normal 0 0 0
outer loop
vertex 12.398413 12.625198 14.259372
vertex 12.418888 12.645952 14.239372
vertex 12.398413 12.625198 14.239372
endloop
endfacet
facet normal 0 0 0
outer loop
vertex 12.418888 12.645952 14.259372
vertex 12.418888 12.645952 14.239372
vertex 12.398413 12.625198 14.259372
endloop
endfacet
facet normal 0 0 0
outer loop
vertex 12.439365 12.625198 14.239372
vertex 12.459841 12.645952 14.259372
vertex 12.439365 12.625198 14.259372
endloop
endfacet
facet normal 0 0 0
outer loop
vertex 12.459841 12.645952 14.239372
vertex 12.459841 12.645952 14.259372
vertex 12.439365 12.625198 14.239372
endloop
endfacet
facet normal 0 0 0
outer loop
vertex 12.418888 12.666705 14.259372
vertex 12.418888 12.645952 14.239372
vertex 12.418888 12.645952 14.259372
endloop
endfacet
facet normal 0 0 0
outer loop
vertex 12.418888 12.645952 14.239372
vertex 12.418888 12.666705 14.259372
vertex 12.439365 12.666705 14.239372
endloop
endfacet
facet normal 0 0 0
outer loop
vertex 12.459841 12.645952 14.239372
vertex 12.480316 12.666705 14.259372
vertex 12.459841 12.645952 14.259372
endloop
endfacet
facet normal 0 0 0
outer loop
vertex 12.480316 12.666705 14.239372
vertex 12.480316 12.666705 14.259372
vertex 12.459841 12.645952 14.239372
endloop
endfacet
facet normal 0 0 0
outer loop
vertex 12.439365 12.666705 14.239372
vertex 12.418888 12.666705 14.259372
vertex 12.439365 12.687459 14.259372
endloop
endfacet
facet normal 0 0 0
outer loop
vertex 12.439365 12.666705 14.239372
vertex 12.439365 12.687459 14.259372
vertex 12.459841 12.687459 14.239372
endloop
endfacet
facet normal 0 0 0
outer loop
vertex 12.500792 12.687459 14.239372
vertex 12.480316 12.687459 14.259372
vertex 12.480316 12.666705 14.239372
endloop
endfacet
facet normal 0 0 0
outer loop
vertex 12.480316 12.687459 14.259372
vertex 12.480316 12.666705 14.259372
vertex 12.480316 12.666705 14.239372
endloop
endfacet
facet normal 0 0 0
outer loop
vertex 12.459841 12.687459 14.239372
vertex 12.439365 12.687459 14.259372
vertex 12.459841 12.708212 14.259372
endloop
endfacet
facet normal 0 0 0
outer loop
vertex 12.439365 12.687459 14.259372
vertex 12.439365 12.708212 14.259372
vertex 12.459841 12.708212 14.259372
endloop
endfacet
facet normal 0 0 0
outer loop
vertex 12.459841 12.687459 14.239372
vertex 12.459841 12.708212 14.259372
vertex 12.480316 12.708212 14.239372
endloop
endfacet
facet normal 0 0 0
outer loop
vertex 12.500792 12.687459 14.239372
vertex 12.500792 12.708212 14.259372
vertex 12.480316 12.687459 14.259372
endloop
endfacet
facet normal 0 0 0
outer loop
vertex 12.500792 12.708212 14.259372
vertex 12.500792 12.687459 14.239372
vertex 12.521267 12.708212 14.239372
endloop
endfacet
facet normal 0 0 0
outer loop
vertex 12.500792 12.687459 14.239372
vertex 12.521267 12.687459 14.239372
vertex 12.521267 12.708212 14.239372
endloop
endfacet
facet normal 0 0 0
outer loop
vertex 12.439365 12.708212 14.259372
vertex 12.459841 12.728966 14.259372
vertex 12.459841 12.708212 14.259372
endloop
endfacet
facet normal 0 0 0
outer loop
vertex 12.480316 12.708212 14.239372
vertex 12.459841 12.708212 14.259372
vertex 12.480316 12.728966 14.259372
endloop
endfacet
facet normal 0 0 0
outer loop
vertex 12.459841 12.708212 14.259372
vertex 12.459841 12.728966 14.259372
vertex 12.480316 12.728966 14.259372
endloop
endfacet
facet normal 0 0 0
outer loop
vertex 12.480316 12.708212 14.239372
vertex 12.500792 12.728966 14.259372
vertex 12.500792 12.708212 14.239372
endloop
endfacet
facet normal 0 0 0
outer loop
vertex 12.480316 12.728966 14.259372
vertex 12.500792 12.728966 14.259372
vertex 12.480316 12.708212 14.239372
endloop
endfacet
facet normal 0 0 0
outer loop
vertex 12.521267 12.708212 14.239372
vertex 12.500792 12.728966 14.259372
vertex 12.500792 12.708212 14.259372
endloop
endfacet
facet normal 0 0 0
outer loop
vertex 12.521267 12.708212 14.239372
vertex 12.500792 12.708212 14.239372
vertex 12.500792 12.728966 14.259372
endloop
endfacet
facet normal 0 0 0
outer loop
vertex 12.398413 12.583692 14.279372
vertex 12.377937 12.562939 14.279372
vertex 12.377937 12.583692 14.279372
endloop
endfacet
facet normal 0 0 0
outer loop
vertex 12.377937 12.604445 14.259372
vertex 12.377937 12.583692 14.279372
vertex 12.377937 12.604445 14.279372
endloop
endfacet
facet normal 0 0 0
outer loop
vertex 12.398413 12.604445 14.259372
vertex 12.377937 12.583692 14.279372
vertex 12.377937 12.604445 14.259372
endloop
endfacet
facet normal 0 0 0
outer loop
vertex 12.398413 12.583692 14.279372
vertex 12.377937 12.583692 14.279372
vertex 12.398413 12.604445 14.259372
endloop
endfacet
facet normal 0 0 0
outer loop
vertex 12.398413 12.604445 14.259372
vertex 12.418888 12.604445 14.279372
vertex 12.398413 12.583692 14.279372
endloop
endfacet
facet normal 0 0 0
outer loop
vertex 12.377937 12.604445 14.279372
vertex 12.398413 12.625198 14.259372
vertex 12.377937 12.604445 14.259372
endloop
endfacet
facet normal 0 0 0
outer loop
vertex 12.398413 12.625198 14.279372
vertex 12.398413 12.625198 14.259372
vertex 12.377937 12.604445 14.279372
endloop
endfacet
facet normal 0 0 0
outer loop
vertex 12.398413 12.604445 14.259372
vertex 12.418888 12.625198 14.259372
vertex 12.418888 12.604445 14.279372
endloop
endfacet
facet normal 0 0 0
outer loop
vertex 12.418888 12.604445 14.279372
vertex 12.418888 12.625198 14.259372
vertex 12.439365 12.625198 14.279372
endloop
endfacet
facet normal 0 0 0
outer loop
vertex 12.418888 12.625198 14.259372
vertex 12.439365 12.625198 14.259372
vertex 12.439365 12.625198 14.279372
endloop
endfacet
facet normal 0 0 0
outer loop
vertex 12.398413 12.645952 14.279372
vertex 12.398413 12.625198 14.259372
vertex 12.398413 12.625198 14.279372
endloop
endfacet
facet normal 0 0 0
outer loop
vertex 12.398413 12.625198 14.259372
vertex 12.398413 12.645952 14.279372
vertex 12.418888 12.645952 14.259372
endloop
endfacet
facet normal 0 0 0
outer loop
vertex 12.439365 12.625198 14.259372
vertex 12.459841 12.645952 14.279372
vertex 12.439365 12.625198 14.279372
endloop
endfacet
facet normal 0 0 0
outer loop
vertex 12.459841 12.645952 14.259372
vertex 12.459841 12.645952 14.279372
vertex 12.439365 12.625198 14.259372
endloop
endfacet
facet normal 0 0 0
outer loop
vertex 12.398413 12.645952 14.279372
vertex 12.418888 12.666705 14.279372
vertex 12.418888 12.645952 14.259372
endloop
endfacet
facet normal 0 0 0
outer loop
vertex 12.418888 12.666705 14.279372
vertex 12.418888 12.666705 14.259372
vertex 12.418888 12.645952 14.259372
endloop
endfacet
facet normal 0 0 0
outer loop
vertex 12.459841 12.645952 14.259372
vertex 12.480316 12.666705 14.279372
vertex 12.459841 12.645952 14.279372
endloop
endfacet
facet normal 0 0 0
outer loop
vertex 12.480316 12.666705 14.259372
vertex 12.480316 12.666705 14.279372
vertex 12.459841 12.645952 14.259372
endloop
endfacet
facet normal 0 0 0
outer loop
vertex 12.418888 12.666705 14.279372
vertex 12.439365 12.687459 14.259372
vertex 12.418888 12.666705 14.259372
endloop
endfacet
facet normal 0 0 0
outer loop
vertex 12.439365 12.687459 14.279372
vertex 12.439365 12.687459 14.259372
vertex 12.418888 12.666705 14.279372
endloop
endfacet
facet normal 0 0 0
outer loop
vertex 12.500792 12.687459 14.279372
vertex 12.480316 12.666705 14.279372
vertex 12.480316 12.687459 14.259372
endloop
endfacet
facet normal 0 0 0
outer loop
vertex 12.480316 12.666705 14.279372
vertex 12.480316 12.666705 14.259372
vertex 12.480316 12.687459 14.259372
endloop
endfacet
facet normal 0 0 0
outer loop
vertex 12.439365 12.687459 14.279372
vertex 12.439365 12.708212 14.259372
vertex 12.439365 12.687459 14.259372
endloop
endfacet
facet normal 0 0 0
outer loop
vertex 12.439365 12.708212 14.259372
vertex 12.459841 12.687459 14.279372
vertex 12.459841 12.708212 14.259372
endloop
endfacet
facet normal 0 0 0
outer loop
vertex 12.439365 12.687459 14.279372
vertex 12.459841 12.687459 14.279372
vertex 12.439365 12.708212 14.259372
endloop
endfacet
facet normal 0 0 0
outer loop
vertex 12.459841 12.687459 14.279372
vertex 12.480316 12.708212 14.279372
vertex 12.459841 12.708212 14.259372
endloop
endfacet
facet normal 0 0 0
outer loop
vertex 12.480316 12.687459 14.259372
vertex 12.500792 12.708212 14.259372
vertex 12.500792 12.687459 14.279372
endloop
endfacet
facet normal 0 0 0
outer loop
vertex 12.500792 12.687459 14.279372
vertex 12.500792 12.708212 14.259372
vertex 12.500792 12.708212 14.279372
endloop
endfacet
facet normal 0 0 0
outer loop
vertex 12.480316 12.708212 14.279372
vertex 12.480316 12.728966 14.259372
vertex 12.459841 12.708212 14.259372
endloop
endfacet
facet normal 0 0 0
outer loop
vertex 12.480316 12.708212 14.279372
vertex 12.500792 12.728966 14.279372
vertex 12.480316 12.728966 14.259372
endloop
endfacet
facet normal 0 0 0
outer loop
vertex 12.500792 12.708212 14.259372
vertex 12.500792 12.728966 14.259372
vertex 12.500792 12.708212 14.279372
endloop
endfacet
facet normal 0 0 0
outer loop
vertex 12.500792 12.708212 14.279372
vertex 12.500792 12.728966 14.259372
vertex 12.500792 12.728966 14.279372
endloop
endfacet
facet normal 0 0 0
outer loop
vertex 12.480316 12.728966 14.259372
vertex 12.500792 12.728966 14.279372
vertex 12.500792 12.728966 14.259372
endloop
endfacet
facet normal 0 0 0
outer loop
vertex 12.377937 12.583692 14.279372
vertex 12.377937 12.604445 14.299372
vertex 12.377937 12.604445 14.279372
endloop
endfacet
facet normal 0 0 0
outer loop
vertex 12.398413 12.583692 14.279372
vertex 12.377937 12.604445 14.299372
vertex 12.377937 12.583692 14.279372
endloop
endfacet
facet normal 0 0 0
outer loop
vertex 12.398413 12.604445 14.299372
vertex 12.377937 12.604445 14.299372
vertex 12.398413 12.583692 14.279372
endloop
endfacet
facet normal 0 0 0
outer loop
vertex 12.398413 12.583692 14.279372
vertex 12.418888 12.604445 14.279372
vertex 12.398413 12.604445 14.299372
endloop
endfacet
facet normal 0 0 0
outer loop
vertex 12.418888 12.604445 14.279372
vertex 12.418888 12.604445 14.299372
vertex 12.398413 12.604445 14.299372
endloop
endfacet
facet normal 0 0 0
outer loop
vertex 12.377937 12.604445 14.279372
vertex 12.357462 12.625198 14.299372
vertex 12.377937 12.625198 14.299372
endloop
endfacet
facet normal 0 0 0
outer loop
vertex 12.377937 12.604445 14.279372
vertex 12.377937 12.604445 14.299372
vertex 12.357462 12.625198 14.299372
endloop
endfacet
facet normal 0 0 0
outer loop
vertex 12.377937 12.604445 14.279372
vertex 12.377937 12.625198 14.299372
vertex 12.398413 12.625198 14.279372
endloop
endfacet
facet normal 0 0 0
outer loop
vertex 12.439365 12.625198 14.279372
vertex 12.418888 12.625198 14.299372
vertex 12.418888 12.604445 14.279372
endloop
endfacet
facet normal 0 0 0
outer loop
vertex 12.418888 12.625198 14.299372
vertex 12.418888 12.604445 14.299372
vertex 12.418888 12.604445 14.279372
endloop
endfacet
facet normal 0 0 0
outer loop
vertex 12.357462 12.625198 14.299372
vertex 12.377937 12.645952 14.299372
vertex 12.377937 12.625198 14.299372
endloop
endfacet
facet normal 0 0 0
outer loop
vertex 12.398413 12.625198 14.279372
vertex 12.377937 12.645952 14.299372
vertex 12.398413 12.645952 14.279372
endloop
endfacet
facet normal 0 0 0
outer loop
vertex 12.377937 12.625198 14.299372
vertex 12.377937 12.645952 14.299372
vertex 12.398413 12.625198 14.279372
endloop
endfacet
facet normal 0 0 0
outer loop
vertex 12.439365 12.625198 14.279372
vertex 12.439365 12.645952 14.299372
vertex 12.418888 12.625198 14.299372
endloop
endfacet
facet normal 0 0 0
outer loop
vertex 12.459841 12.645952 14.279372
vertex 12.439365 12.645952 14.299372
vertex 12.439365 12.625198 14.279372
endloop
endfacet
facet normal 0 0 0
outer loop
vertex 12.398413 12.645952 14.279372
vertex 12.377937 12.645952 14.299372
vertex 12.398413 12.666705 14.299372
endloop
endfacet
facet normal 0 0 0
outer loop
vertex 12.398413 12.645952 14.279372
vertex 12.398413 12.666705 14.299372
vertex 12.418888 12.666705 14.279372
endloop
endfacet
facet normal 0 0 0
outer loop
vertex 12.459841 12.645952 14.279372
vertex 12.459841 12.666705 14.299372
vertex 12.439365 12.645952 14.299372
endloop
endfacet
facet normal 0 0 0
outer loop
vertex 12.480316 12.666705 14.279372
vertex 12.459841 12.666705 14.299372
vertex 12.459841 12.645952 14.279372
endloop
endfacet
facet normal 0 0 0
outer loop
vertex 12.418888 12.666705 14.279372
vertex 12.398413 12.666705 14.299372
vertex 12.418888 12.687459 14.299372
endloop
endfacet
facet normal 0 0 0
outer loop
vertex 12.398413 12.666705 14.299372
vertex 12.398413 12.687459 14.299372
vertex 12.418888 12.687459 14.299372
endloop
endfacet
facet normal 0 0 0
outer loop
vertex 12.418888 12.666705 14.279372
vertex 12.418888 12.687459 14.299372
vertex 12.439365 12.687459 14.279372
endloop
endfacet
facet normal 0 0 0
outer loop
vertex 12.480316 12.687459 14.279372
vertex 12.459841 12.666705 14.299372
vertex 12.480316 12.666705 14.279372
endloop
endfacet
facet normal 0 0 0
outer loop
vertex 12.459841 12.687459 14.299372
vertex 12.459841 12.666705 14.299372
vertex 12.480316 12.687459 14.279372
endloop
endfacet
facet normal 0 0 0
outer loop
vertex 12.480316 12.666705 14.279372
vertex 12.500792 12.687459 14.279372
vertex 12.480316 12.687459 14.279372
endloop
endfacet
facet normal 0 0 0
outer loop
vertex 12.398413 12.687459 14.299372
vertex 12.418888 12.708212 14.299372
vertex 12.418888 12.687459 14.299372
endloop
endfacet
facet normal 0 0 0
outer loop
vertex 12.439365 12.687459 14.279372
vertex 12.418888 12.687459 14.299372
vertex 12.439365 12.708212 14.299372
endloop
endfacet
facet normal 0 0 0
outer loop
vertex 12.418888 12.687459 14.299372
vertex 12.418888 12.708212 14.299372
vertex 12.439365 12.708212 14.299372
endloop
endfacet
facet normal 0 0 0
outer loop
vertex 12.439365 12.687459 14.279372
vertex 12.459841 12.708212 14.299372
vertex 12.459841 12.687459 14.279372
endloop
endfacet
facet normal 0 0 0
outer loop
vertex 12.439365 12.708212 14.299372
vertex 12.459841 12.708212 14.299372
vertex 12.439365 12.687459 14.279372
endloop
endfacet
facet normal 0 0 0
outer loop
vertex 12.480316 12.708212 14.279372
vertex 12.459841 12.687459 14.279372
vertex 12.480316 12.687459 14.279372
endloop
endfacet
facet normal 0 0 0
outer loop
vertex 12.480316 12.687459 14.279372
vertex 12.459841 12.687459 14.279372
vertex 12.459841 12.687459 14.299372
endloop
endfacet
facet normal 0 0 0
outer loop
vertex 12.459841 12.687459 14.299372
vertex 12.459841 12.687459 14.279372
vertex 12.459841 12.708212 14.299372
endloop
endfacet
facet normal 0 0 0
outer loop
vertex 12.500792 12.687459 14.279372
vertex 12.500792 12.708212 14.279372
vertex 12.480316 12.687459 14.279372
endloop
endfacet
facet normal 0 0 0
outer loop
vertex 12.500792 12.708212 14.279372
vertex 12.480316 12.708212 14.279372
vertex 12.480316 12.687459 14.279372
endloop
endfacet
facet normal 0 0 0
outer loop
vertex 12.500792 12.728966 14.279372
vertex 12.480316 12.708212 14.279372
vertex 12.500792 12.708212 14.279372
endloop
endfacet
facet normal 0 0 0
outer loop
vertex 12.357462 12.625198 14.299372
vertex 12.377937 12.604445 14.299372
vertex 12.377937 12.625198 14.299372
endloop
endfacet
facet normal 0 0 0
outer loop
vertex 12.398413 12.625198 14.319372
vertex 12.377937 12.625198 14.299372
vertex 12.398413 12.604445 14.299372
endloop
endfacet
facet normal 0 0 0
outer loop
vertex 12.377937 12.625198 14.299372
vertex 12.377937 12.604445 14.299372
vertex 12.398413 12.604445 14.299372
endloop
endfacet
facet normal 0 0 0
outer loop
vertex 12.398413 12.625198 14.319372
vertex 12.398413 12.604445 14.299372
vertex 12.418888 12.625198 14.299372
endloop
endfacet
facet normal 0 0 0
outer loop
vertex 12.398413 12.604445 14.299372
vertex 12.418888 12.604445 14.299372
vertex 12.418888 12.625198 14.299372
endloop
endfacet
facet normal 0 0 0
outer loop
vertex 12.398413 12.645952 14.319372
vertex 12.377937 12.625198 14.299372
vertex 12.398413 12.625198 14.319372
endloop
endfacet
facet normal 0 0 0
outer loop
vertex 12.377937 12.645952 14.299372
vertex 12.377937 12.625198 14.299372
vertex 12.398413 12.645952 14.319372
endloop
endfacet
facet normal 0 0 0
outer loop
vertex 12.418888 12.625198 14.299372
vertex 12.418888 12.645952 14.319372
vertex 12.398413 12.625198 14.319372
endloop
endfacet
facet normal 0 0 0
outer loop
vertex 12.439365 12.645952 14.299372
vertex 12.418888 12.645952 14.319372
vertex 12.418888 12.625198 14.299372
endloop
endfacet
facet normal 0 0 0
outer loop
vertex 12.377937 12.645952 14.299372
vertex 12.398413 12.645952 14.319372
vertex 12.398413 12.666705 14.299372
endloop
endfacet
facet normal 0 0 0
outer loop
vertex 12.398413 12.645952 14.319372
vertex 12.418888 12.666705 14.319372
vertex 12.398413 12.666705 14.299372
endloop
endfacet
facet normal 0 0 0
outer loop
vertex 12.439365 12.645952 14.299372
vertex 12.439365 12.666705 14.319372
vertex 12.418888 12.645952 14.319372
endloop
endfacet
facet normal 0 0 0
outer loop
vertex 12.459841 12.666705 14.299372
vertex 12.439365 12.666705 14.319372
vertex 12.439365 12.645952 14.299372
endloop
endfacet
facet normal 0 0 0
outer loop
vertex 12.418888 12.666705 14.319372
vertex 12.418888 12.687459 14.299372
vertex 12.398413 12.666705 14.299372
endloop
endfacet
facet normal 0 0 0
outer loop
vertex 12.418888 12.666705 14.319372
vertex 12.439365 12.687459 14.319372
vertex 12.418888 12.687459 14.299372
endloop
endfacet
facet normal 0 0 0
outer loop
vertex 12.459841 12.666705 14.299372
vertex 12.459841 12.687459 14.319372
vertex 12.439365 12.666705 14.319372
endloop
endfacet
facet normal 0 0 0
outer loop
vertex 12.459841 12.687459 14.319372
vertex 12.459841 12.666705 14.299372
vertex 12.459841 12.687459 14.299372
endloop
endfacet
facet normal 0 0 0
outer loop
vertex 12.439365 12.687459 14.319372
vertex 12.439365 12.708212 14.299372
vertex 12.418888 12.687459 14.299372
endloop
endfacet
facet normal 0 0 0
outer loop
vertex 12.439365 12.708212 14.299372
vertex 12.459841 12.687459 14.319372
vertex 12.459841 12.708212 14.299372
endloop
endfacet
facet normal 0 0 0
outer loop
vertex 12.439365 12.687459 14.319372
vertex 12.459841 12.687459 14.319372
vertex 12.439365 12.708212 14.299372
endloop
endfacet
facet normal 0 0 0
outer loop
vertex 12.459841 12.708212 14.299372
vertex 12.459841 12.687459 14.319372
vertex 12.459841 12.687459 14.299372
endloop
endfacet
facet normal 0 0 0
outer loop
vertex 12.398413 12.625198 14.319372
vertex 12.418888 12.645952 14.319372
vertex 12.398413 12.645952 14.319372
endloop
endfacet
facet normal 0 0 0
outer loop
vertex 12.418888 12.666705 14.319372
vertex 12.398413 12.645952 14.319372
vertex 12.418888 12.645952 14.319372
endloop
endfacet
facet normal 0 0 0
outer loop
vertex 12.418888 12.645952 14.319372
vertex 12.439365 12.666705 14.319372
vertex 12.418888 12.666705 14.319372
endloop
endfacet
facet normal 0 0 0
outer loop
vertex 12.439365 12.687459 14.319372
vertex 12.418888 12.666705 14.319372
vertex 12.439365 12.666705 14.319372
endloop
endfacet
facet normal 0 0 0
outer loop
vertex 12.439365 12.666705 14.319372
vertex 12.459841 12.687459 14.319372
vertex 12.439365 12.687459 14.319372
endloop
endfacet
endsolid B-16-Plag.382
