solid B-16-Plag.410
facet normal 0 0 0
outer loop
vertex 19.196379 13.102525 14.939372
vertex 19.175901 13.123279 14.939372
vertex 19.196379 13.123279 14.939372
endloop
endfacet
facet normal 0 0 0
outer loop
vertex 19.175901 13.123279 14.939372
vertex 19.196379 13.144032 14.939372
vertex 19.196379 13.123279 14.939372
endloop
endfacet
facet normal 0 0 0
outer loop
vertex 19.196379 13.102525 14.939372
vertex 19.196379 13.123279 14.959372
vertex 19.175901 13.123279 14.939372
endloop
endfacet
facet normal 0 0 0
outer loop
vertex 19.196379 13.123279 14.959372
vertex 19.196379 13.102525 14.939372
vertex 19.196379 13.123279 14.939372
endloop
endfacet
facet normal 0 0 0
outer loop
vertex 19.175901 13.123279 14.939372
vertex 19.196379 13.123279 14.959372
vertex 19.196379 13.144032 14.939372
endloop
endfacet
facet normal 0 0 0
outer loop
vertex 19.196379 13.123279 14.959372
vertex 19.196379 13.144032 14.959372
vertex 19.196379 13.144032 14.939372
endloop
endfacet
facet normal 0 0 0
outer loop
vertex 19.196379 13.123279 14.939372
vertex 19.196379 13.144032 14.939372
vertex 19.196379 13.123279 14.959372
endloop
endfacet
facet normal 0 0 0
outer loop
vertex 19.175901 13.164785 14.959372
vertex 19.196379 13.164785 14.939372
vertex 19.196379 13.144032 14.959372
endloop
endfacet
facet normal 0 0 0
outer loop
vertex 19.196379 13.164785 14.939372
vertex 19.196379 13.144032 14.939372
vertex 19.196379 13.144032 14.959372
endloop
endfacet
facet normal 0 0 0
outer loop
vertex 19.216854 13.164785 14.959372
vertex 19.196379 13.144032 14.959372
vertex 19.196379 13.164785 14.939372
endloop
endfacet
facet normal 0 0 0
outer loop
vertex 19.196379 13.164785 14.939372
vertex 19.175901 13.185538 14.959372
vertex 19.196379 13.185538 14.939372
endloop
endfacet
facet normal 0 0 0
outer loop
vertex 19.175901 13.164785 14.959372
vertex 19.175901 13.185538 14.959372
vertex 19.196379 13.164785 14.939372
endloop
endfacet
facet normal 0 0 0
outer loop
vertex 19.216854 13.164785 14.959372
vertex 19.196379 13.185538 14.939372
vertex 19.216854 13.185538 14.959372
endloop
endfacet
facet normal 0 0 0
outer loop
vertex 19.196379 13.164785 14.939372
vertex 19.196379 13.185538 14.939372
vertex 19.216854 13.164785 14.959372
endloop
endfacet
facet normal 0 0 0
outer loop
vertex 19.196379 13.185538 14.939372
vertex 19.175901 13.185538 14.959372
vertex 19.196379 13.206292 14.959372
endloop
endfacet
facet normal 0 0 0
outer loop
vertex 19.196379 13.185538 14.939372
vertex 19.196379 13.206292 14.959372
vertex 19.216854 13.185538 14.959372
endloop
endfacet
facet normal 0 0 0
outer loop
vertex 19.196379 13.206292 14.959372
vertex 19.216854 13.206292 14.959372
vertex 19.216854 13.185538 14.959372
endloop
endfacet
facet normal 0 0 0
outer loop
vertex 19.196379 13.123279 14.959372
vertex 19.216854 13.123279 14.979372
vertex 19.196379 13.123279 14.979372
endloop
endfacet
facet normal 0 0 0
outer loop
vertex 19.175901 13.144032 14.979372
vertex 19.196379 13.144032 14.959372
vertex 19.196379 13.123279 14.979372
endloop
endfacet
facet normal 0 0 0
outer loop
vertex 19.196379 13.144032 14.959372
vertex 19.196379 13.123279 14.959372
vertex 19.196379 13.123279 14.979372
endloop
endfacet
facet normal 0 0 0
outer loop
vertex 19.216854 13.123279 14.979372
vertex 19.196379 13.144032 14.959372
vertex 19.216854 13.144032 14.979372
endloop
endfacet
facet normal 0 0 0
outer loop
vertex 19.196379 13.123279 14.959372
vertex 19.196379 13.144032 14.959372
vertex 19.216854 13.123279 14.979372
endloop
endfacet
facet normal 0 0 0
outer loop
vertex 19.237329 13.144032 14.979372
vertex 19.216854 13.123279 14.979372
vertex 19.216854 13.144032 14.979372
endloop
endfacet
facet normal 0 0 0
outer loop
vertex 19.175901 13.164785 14.959372
vertex 19.175901 13.144032 14.979372
vertex 19.155426 13.164785 14.979372
endloop
endfacet
facet normal 0 0 0
outer loop
vertex 19.175901 13.144032 14.979372
vertex 19.155426 13.144032 14.979372
vertex 19.155426 13.164785 14.979372
endloop
endfacet
facet normal 0 0 0
outer loop
vertex 19.196379 13.144032 14.959372
vertex 19.175901 13.144032 14.979372
vertex 19.175901 13.164785 14.959372
endloop
endfacet
facet normal 0 0 0
outer loop
vertex 19.196379 13.144032 14.959372
vertex 19.216854 13.164785 14.959372
vertex 19.216854 13.144032 14.979372
endloop
endfacet
facet normal 0 0 0
outer loop
vertex 19.216854 13.164785 14.959372
vertex 19.237329 13.164785 14.979372
vertex 19.216854 13.144032 14.979372
endloop
endfacet
facet normal 0 0 0
outer loop
vertex 19.155426 13.164785 14.979372
vertex 19.175901 13.185538 14.979372
vertex 19.175901 13.164785 14.959372
endloop
endfacet
facet normal 0 0 0
outer loop
vertex 19.175901 13.185538 14.979372
vertex 19.175901 13.185538 14.959372
vertex 19.175901 13.164785 14.959372
endloop
endfacet
facet normal 0 0 0
outer loop
vertex 19.237329 13.164785 14.979372
vertex 19.216854 13.185538 14.959372
vertex 19.237329 13.185538 14.979372
endloop
endfacet
facet normal 0 0 0
outer loop
vertex 19.216854 13.164785 14.959372
vertex 19.216854 13.185538 14.959372
vertex 19.237329 13.164785 14.979372
endloop
endfacet
facet normal 0 0 0
outer loop
vertex 19.175901 13.185538 14.959372
vertex 19.155426 13.206292 14.979372
vertex 19.175901 13.206292 14.979372
endloop
endfacet
facet normal 0 0 0
outer loop
vertex 19.175901 13.185538 14.959372
vertex 19.175901 13.185538 14.979372
vertex 19.155426 13.206292 14.979372
endloop
endfacet
facet normal 0 0 0
outer loop
vertex 19.175901 13.185538 14.959372
vertex 19.175901 13.206292 14.979372
vertex 19.196379 13.206292 14.959372
endloop
endfacet
facet normal 0 0 0
outer loop
vertex 19.237329 13.185538 14.979372
vertex 19.216854 13.206292 14.959372
vertex 19.237329 13.206292 14.979372
endloop
endfacet
facet normal 0 0 0
outer loop
vertex 19.216854 13.185538 14.959372
vertex 19.216854 13.206292 14.959372
vertex 19.237329 13.185538 14.979372
endloop
endfacet
facet normal 0 0 0
outer loop
vertex 19.175901 13.227045 14.959372
vertex 19.155426 13.206292 14.979372
vertex 19.175901 13.227045 14.979372
endloop
endfacet
facet normal 0 0 0
outer loop
vertex 19.175901 13.227045 14.959372
vertex 19.175901 13.206292 14.979372
vertex 19.155426 13.206292 14.979372
endloop
endfacet
facet normal 0 0 0
outer loop
vertex 19.175901 13.227045 14.959372
vertex 19.196379 13.227045 14.979372
vertex 19.175901 13.206292 14.979372
endloop
endfacet
facet normal 0 0 0
outer loop
vertex 19.196379 13.206292 14.959372
vertex 19.175901 13.206292 14.979372
vertex 19.196379 13.227045 14.979372
endloop
endfacet
facet normal 0 0 0
outer loop
vertex 19.196379 13.206292 14.959372
vertex 19.216854 13.227045 14.979372
vertex 19.216854 13.206292 14.959372
endloop
endfacet
facet normal 0 0 0
outer loop
vertex 19.196379 13.227045 14.979372
vertex 19.216854 13.227045 14.979372
vertex 19.196379 13.206292 14.959372
endloop
endfacet
facet normal 0 0 0
outer loop
vertex 19.216854 13.206292 14.959372
vertex 19.216854 13.227045 14.979372
vertex 19.237329 13.206292 14.979372
endloop
endfacet
facet normal 0 0 0
outer loop
vertex 19.196379 13.227045 14.979372
vertex 19.175901 13.227045 14.959372
vertex 19.175901 13.227045 14.979372
endloop
endfacet
facet normal 0 0 0
outer loop
vertex 19.175901 13.144032 14.979372
vertex 19.196379 13.123279 14.979372
vertex 19.196379 13.144032 14.979372
endloop
endfacet
facet normal 0 0 0
outer loop
vertex 19.216854 13.123279 14.979372
vertex 19.216854 13.144032 14.979372
vertex 19.196379 13.123279 14.979372
endloop
endfacet
facet normal 0 0 0
outer loop
vertex 19.216854 13.144032 14.979372
vertex 19.196379 13.144032 14.979372
vertex 19.196379 13.123279 14.979372
endloop
endfacet
facet normal 0 0 0
outer loop
vertex 19.175901 13.144032 14.979372
vertex 19.175901 13.164785 14.979372
vertex 19.155426 13.144032 14.979372
endloop
endfacet
facet normal 0 0 0
outer loop
vertex 19.175901 13.164785 14.979372
vertex 19.155426 13.164785 14.979372
vertex 19.155426 13.144032 14.979372
endloop
endfacet
facet normal 0 0 0
outer loop
vertex 19.196379 13.144032 14.979372
vertex 19.196379 13.164785 14.979372
vertex 19.175901 13.144032 14.979372
endloop
endfacet
facet normal 0 0 0
outer loop
vertex 19.196379 13.164785 14.979372
vertex 19.175901 13.164785 14.979372
vertex 19.175901 13.144032 14.979372
endloop
endfacet
facet normal 0 0 0
outer loop
vertex 19.216854 13.144032 14.979372
vertex 19.216854 13.164785 14.979372
vertex 19.196379 13.144032 14.979372
endloop
endfacet
facet normal 0 0 0
outer loop
vertex 19.216854 13.164785 14.979372
vertex 19.196379 13.164785 14.979372
vertex 19.196379 13.144032 14.979372
endloop
endfacet
facet normal 0 0 0
outer loop
vertex 19.237329 13.144032 14.979372
vertex 19.237329 13.164785 14.979372
vertex 19.216854 13.144032 14.979372
endloop
endfacet
facet normal 0 0 0
outer loop
vertex 19.237329 13.164785 14.979372
vertex 19.216854 13.164785 14.979372
vertex 19.216854 13.144032 14.979372
endloop
endfacet
facet normal 0 0 0
outer loop
vertex 19.175901 13.185538 14.979372
vertex 19.155426 13.164785 14.979372
vertex 19.175901 13.164785 14.979372
endloop
endfacet
facet normal 0 0 0
outer loop
vertex 19.196379 13.164785 14.979372
vertex 19.196379 13.185538 14.979372
vertex 19.175901 13.164785 14.979372
endloop
endfacet
facet normal 0 0 0
outer loop
vertex 19.196379 13.185538 14.979372
vertex 19.175901 13.185538 14.979372
vertex 19.175901 13.164785 14.979372
endloop
endfacet
facet normal 0 0 0
outer loop
vertex 19.216854 13.164785 14.979372
vertex 19.216854 13.185538 14.979372
vertex 19.196379 13.164785 14.979372
endloop
endfacet
facet normal 0 0 0
outer loop
vertex 19.216854 13.185538 14.979372
vertex 19.196379 13.185538 14.979372
vertex 19.196379 13.164785 14.979372
endloop
endfacet
facet normal 0 0 0
outer loop
vertex 19.237329 13.164785 14.979372
vertex 19.237329 13.185538 14.979372
vertex 19.216854 13.164785 14.979372
endloop
endfacet
facet normal 0 0 0
outer loop
vertex 19.237329 13.185538 14.979372
vertex 19.216854 13.185538 14.979372
vertex 19.216854 13.164785 14.979372
endloop
endfacet
facet normal 0 0 0
outer loop
vertex 19.155426 13.206292 14.979372
vertex 19.175901 13.185538 14.979372
vertex 19.175901 13.206292 14.979372
endloop
endfacet
facet normal 0 0 0
outer loop
vertex 19.196379 13.185538 14.979372
vertex 19.196379 13.206292 14.979372
vertex 19.175901 13.185538 14.979372
endloop
endfacet
facet normal 0 0 0
outer loop
vertex 19.196379 13.206292 14.979372
vertex 19.175901 13.206292 14.979372
vertex 19.175901 13.185538 14.979372
endloop
endfacet
facet normal 0 0 0
outer loop
vertex 19.216854 13.185538 14.979372
vertex 19.216854 13.206292 14.979372
vertex 19.196379 13.185538 14.979372
endloop
endfacet
facet normal 0 0 0
outer loop
vertex 19.216854 13.206292 14.979372
vertex 19.196379 13.206292 14.979372
vertex 19.196379 13.185538 14.979372
endloop
endfacet
facet normal 0 0 0
outer loop
vertex 19.237329 13.185538 14.979372
vertex 19.237329 13.206292 14.979372
vertex 19.216854 13.185538 14.979372
endloop
endfacet
facet normal 0 0 0
outer loop
vertex 19.237329 13.206292 14.979372
vertex 19.216854 13.206292 14.979372
vertex 19.216854 13.185538 14.979372
endloop
endfacet
facet normal 0 0 0
outer loop
vertex 19.175901 13.227045 14.979372
vertex 19.155426 13.206292 14.979372
vertex 19.175901 13.206292 14.979372
endloop
endfacet
facet normal 0 0 0
outer loop
vertex 19.196379 13.206292 14.979372
vertex 19.196379 13.227045 14.979372
vertex 19.175901 13.206292 14.979372
endloop
endfacet
facet normal 0 0 0
outer loop
vertex 19.196379 13.227045 14.979372
vertex 19.175901 13.227045 14.979372
vertex 19.175901 13.206292 14.979372
endloop
endfacet
facet normal 0 0 0
outer loop
vertex 19.216854 13.206292 14.979372
vertex 19.216854 13.227045 14.979372
vertex 19.196379 13.206292 14.979372
endloop
endfacet
facet normal 0 0 0
outer loop
vertex 19.216854 13.227045 14.979372
vertex 19.196379 13.227045 14.979372
vertex 19.196379 13.206292 14.979372
endloop
endfacet
facet normal 0 0 0
outer loop
vertex 19.237329 13.206292 14.979372
vertex 19.216854 13.227045 14.979372
vertex 19.216854 13.206292 14.979372
endloop
endfacet
endsolid B-16-Plag.410
