solid B-16-Plag.106
facet normal 0 0 0
outer loop
vertex 2.549553 14.015671 6.319372
vertex 2.529078 14.015671 6.319372
vertex 2.549553 14.036425 6.319372
endloop
endfacet
facet normal 0 0 0
outer loop
vertex 2.549553 14.036425 6.319372
vertex 2.529078 14.015671 6.319372
vertex 2.529078 14.036425 6.319372
endloop
endfacet
facet normal 0 0 0
outer loop
vertex 2.570029 14.036425 6.319372
vertex 2.549553 14.015671 6.319372
vertex 2.549553 14.036425 6.319372
endloop
endfacet
facet normal 0 0 0
outer loop
vertex 2.549553 14.036425 6.319372
vertex 2.529078 14.036425 6.319372
vertex 2.549553 14.057178 6.319372
endloop
endfacet
facet normal 0 0 0
outer loop
vertex 2.549553 14.057178 6.319372
vertex 2.529078 14.036425 6.319372
vertex 2.529078 14.057178 6.319372
endloop
endfacet
facet normal 0 0 0
outer loop
vertex 2.570029 14.036425 6.319372
vertex 2.549553 14.036425 6.319372
vertex 2.570029 14.057178 6.319372
endloop
endfacet
facet normal 0 0 0
outer loop
vertex 2.570029 14.057178 6.319372
vertex 2.549553 14.036425 6.319372
vertex 2.549553 14.057178 6.319372
endloop
endfacet
facet normal 0 0 0
outer loop
vertex 2.590505 14.036425 6.319372
vertex 2.570029 14.036425 6.319372
vertex 2.590505 14.057178 6.319372
endloop
endfacet
facet normal 0 0 0
outer loop
vertex 2.590505 14.057178 6.319372
vertex 2.570029 14.036425 6.319372
vertex 2.570029 14.057178 6.319372
endloop
endfacet
facet normal 0 0 0
outer loop
vertex 2.549553 14.057178 6.319372
vertex 2.570029 14.077931 6.319372
vertex 2.570029 14.057178 6.319372
endloop
endfacet
facet normal 0 0 0
outer loop
vertex 2.570029 14.077931 6.319372
vertex 2.590505 14.057178 6.319372
vertex 2.570029 14.057178 6.319372
endloop
endfacet
facet normal 0 0 0
outer loop
vertex 2.426698 14.077931 6.319372
vertex 2.406222 14.098684 6.319372
vertex 2.426698 14.098684 6.319372
endloop
endfacet
facet normal 0 0 0
outer loop
vertex 2.549553 13.994918 6.339372
vertex 2.529078 14.015671 6.339372
vertex 2.549553 14.015671 6.319372
endloop
endfacet
facet normal 0 0 0
outer loop
vertex 2.529078 14.015671 6.339372
vertex 2.529078 14.015671 6.319372
vertex 2.549553 14.015671 6.319372
endloop
endfacet
facet normal 0 0 0
outer loop
vertex 2.549553 14.015671 6.319372
vertex 2.570029 14.015671 6.339372
vertex 2.549553 13.994918 6.339372
endloop
endfacet
facet normal 0 0 0
outer loop
vertex 2.529078 14.015671 6.339372
vertex 2.529078 14.036425 6.319372
vertex 2.529078 14.015671 6.319372
endloop
endfacet
facet normal 0 0 0
outer loop
vertex 2.529078 14.015671 6.339372
vertex 2.549553 14.036425 6.339372
vertex 2.529078 14.036425 6.319372
endloop
endfacet
facet normal 0 0 0
outer loop
vertex 2.549553 14.015671 6.319372
vertex 2.570029 14.036425 6.319372
vertex 2.570029 14.015671 6.339372
endloop
endfacet
facet normal 0 0 0
outer loop
vertex 2.570029 14.015671 6.339372
vertex 2.570029 14.036425 6.319372
vertex 2.590505 14.036425 6.319372
endloop
endfacet
facet normal 0 0 0
outer loop
vertex 2.570029 14.015671 6.339372
vertex 2.590505 14.036425 6.319372
vertex 2.570029 14.036425 6.339372
endloop
endfacet
facet normal 0 0 0
outer loop
vertex 2.426698 14.036425 6.319372
vertex 2.406222 14.057178 6.339372
vertex 2.426698 14.057178 6.339372
endloop
endfacet
facet normal 0 0 0
outer loop
vertex 2.426698 14.036425 6.319372
vertex 2.426698 14.036425 6.339372
vertex 2.406222 14.057178 6.339372
endloop
endfacet
facet normal 0 0 0
outer loop
vertex 2.426698 14.036425 6.319372
vertex 2.426698 14.057178 6.339372
vertex 2.426698 14.036425 6.339372
endloop
endfacet
facet normal 0 0 0
outer loop
vertex 2.549553 14.036425 6.339372
vertex 2.549553 14.057178 6.319372
vertex 2.529078 14.036425 6.319372
endloop
endfacet
facet normal 0 0 0
outer loop
vertex 2.549553 14.036425 6.339372
vertex 2.570029 14.057178 6.339372
vertex 2.549553 14.057178 6.319372
endloop
endfacet
facet normal 0 0 0
outer loop
vertex 2.590505 14.036425 6.319372
vertex 2.590505 14.057178 6.339372
vertex 2.570029 14.036425 6.339372
endloop
endfacet
facet normal 0 0 0
outer loop
vertex 2.590505 14.057178 6.339372
vertex 2.590505 14.036425 6.319372
vertex 2.590505 14.057178 6.319372
endloop
endfacet
facet normal 0 0 0
outer loop
vertex 2.385747 14.057178 6.339372
vertex 2.406222 14.077931 6.339372
vertex 2.406222 14.057178 6.339372
endloop
endfacet
facet normal 0 0 0
outer loop
vertex 2.426698 14.077931 6.319372
vertex 2.426698 14.057178 6.339372
vertex 2.406222 14.077931 6.339372
endloop
endfacet
facet normal 0 0 0
outer loop
vertex 2.426698 14.057178 6.339372
vertex 2.406222 14.057178 6.339372
vertex 2.406222 14.077931 6.339372
endloop
endfacet
facet normal 0 0 0
outer loop
vertex 2.426698 14.057178 6.339372
vertex 2.426698 14.077931 6.319372
vertex 2.426698 14.077931 6.339372
endloop
endfacet
facet normal 0 0 0
outer loop
vertex 2.549553 14.057178 6.319372
vertex 2.570029 14.057178 6.339372
vertex 2.570029 14.077931 6.319372
endloop
endfacet
facet normal 0 0 0
outer loop
vertex 2.570029 14.057178 6.339372
vertex 2.570029 14.077931 6.339372
vertex 2.570029 14.077931 6.319372
endloop
endfacet
facet normal 0 0 0
outer loop
vertex 2.590505 14.057178 6.319372
vertex 2.570029 14.077931 6.319372
vertex 2.590505 14.077931 6.339372
endloop
endfacet
facet normal 0 0 0
outer loop
vertex 2.590505 14.057178 6.319372
vertex 2.590505 14.077931 6.339372
vertex 2.590505 14.057178 6.339372
endloop
endfacet
facet normal 0 0 0
outer loop
vertex 2.426698 14.077931 6.339372
vertex 2.426698 14.077931 6.319372
vertex 2.406222 14.077931 6.339372
endloop
endfacet
facet normal 0 0 0
outer loop
vertex 2.426698 14.098684 6.319372
vertex 2.426698 14.077931 6.339372
vertex 2.426698 14.077931 6.319372
endloop
endfacet
facet normal 0 0 0
outer loop
vertex 2.590505 14.077931 6.339372
vertex 2.570029 14.077931 6.319372
vertex 2.570029 14.077931 6.339372
endloop
endfacet
facet normal 0 0 0
outer loop
vertex 2.406222 14.119438 6.339372
vertex 2.426698 14.119438 6.319372
vertex 2.426698 14.119438 6.339372
endloop
endfacet
facet normal 0 0 0
outer loop
vertex 2.426698 14.119438 6.339372
vertex 2.426698 14.119438 6.319372
vertex 2.426698 14.098684 6.319372
endloop
endfacet
facet normal 0 0 0
outer loop
vertex 2.426698 14.098684 6.319372
vertex 2.426698 14.119438 6.319372
vertex 2.406222 14.098684 6.319372
endloop
endfacet
facet normal 0 0 0
outer loop
vertex 2.447174 13.994918 6.339372
vertex 2.467650 13.994918 6.359372
vertex 2.447174 13.994918 6.359372
endloop
endfacet
facet normal 0 0 0
outer loop
vertex 2.426698 14.015671 6.359372
vertex 2.406222 13.994918 6.359372
vertex 2.406222 14.015671 6.359372
endloop
endfacet
facet normal 0 0 0
outer loop
vertex 2.426698 14.015671 6.359372
vertex 2.447174 14.015671 6.339372
vertex 2.447174 13.994918 6.359372
endloop
endfacet
facet normal 0 0 0
outer loop
vertex 2.447174 14.015671 6.339372
vertex 2.447174 13.994918 6.339372
vertex 2.447174 13.994918 6.359372
endloop
endfacet
facet normal 0 0 0
outer loop
vertex 2.467650 13.994918 6.359372
vertex 2.447174 14.015671 6.339372
vertex 2.467650 14.015671 6.359372
endloop
endfacet
facet normal 0 0 0
outer loop
vertex 2.447174 13.994918 6.339372
vertex 2.447174 14.015671 6.339372
vertex 2.467650 13.994918 6.359372
endloop
endfacet
facet normal 0 0 0
outer loop
vertex 2.488126 14.015671 6.359372
vertex 2.467650 13.994918 6.359372
vertex 2.467650 14.015671 6.359372
endloop
endfacet
facet normal 0 0 0
outer loop
vertex 2.508602 13.994918 6.359372
vertex 2.488126 14.015671 6.359372
vertex 2.508602 14.015671 6.359372
endloop
endfacet
facet normal 0 0 0
outer loop
vertex 2.529078 14.015671 6.339372
vertex 2.529078 14.015671 6.359372
vertex 2.508602 13.994918 6.359372
endloop
endfacet
facet normal 0 0 0
outer loop
vertex 2.529078 14.015671 6.339372
vertex 2.508602 13.994918 6.359372
vertex 2.508602 14.015671 6.359372
endloop
endfacet
facet normal 0 0 0
outer loop
vertex 2.549553 13.994918 6.339372
vertex 2.549553 14.015671 6.359372
vertex 2.529078 14.015671 6.339372
endloop
endfacet
facet normal 0 0 0
outer loop
vertex 2.549553 14.015671 6.359372
vertex 2.529078 14.015671 6.359372
vertex 2.529078 14.015671 6.339372
endloop
endfacet
facet normal 0 0 0
outer loop
vertex 2.570029 14.015671 6.339372
vertex 2.549553 14.015671 6.359372
vertex 2.549553 13.994918 6.339372
endloop
endfacet
facet normal 0 0 0
outer loop
vertex 2.406222 14.015671 6.359372
vertex 2.385747 14.036425 6.359372
vertex 2.406222 14.036425 6.359372
endloop
endfacet
facet normal 0 0 0
outer loop
vertex 2.426698 14.036425 6.339372
vertex 2.426698 14.015671 6.359372
vertex 2.406222 14.036425 6.359372
endloop
endfacet
facet normal 0 0 0
outer loop
vertex 2.426698 14.015671 6.359372
vertex 2.406222 14.015671 6.359372
vertex 2.406222 14.036425 6.359372
endloop
endfacet
facet normal 0 0 0
outer loop
vertex 2.426698 14.036425 6.339372
vertex 2.447174 14.036425 6.359372
vertex 2.426698 14.015671 6.359372
endloop
endfacet
facet normal 0 0 0
outer loop
vertex 2.447174 14.015671 6.339372
vertex 2.426698 14.015671 6.359372
vertex 2.447174 14.036425 6.359372
endloop
endfacet
facet normal 0 0 0
outer loop
vertex 2.447174 14.015671 6.339372
vertex 2.447174 14.036425 6.359372
vertex 2.467650 14.015671 6.359372
endloop
endfacet
facet normal 0 0 0
outer loop
vertex 2.529078 14.015671 6.339372
vertex 2.508602 14.015671 6.359372
vertex 2.529078 14.036425 6.359372
endloop
endfacet
facet normal 0 0 0
outer loop
vertex 2.529078 14.015671 6.339372
vertex 2.529078 14.036425 6.359372
vertex 2.549553 14.036425 6.339372
endloop
endfacet
facet normal 0 0 0
outer loop
vertex 2.570029 14.015671 6.339372
vertex 2.570029 14.036425 6.359372
vertex 2.549553 14.015671 6.359372
endloop
endfacet
facet normal 0 0 0
outer loop
vertex 2.570029 14.015671 6.339372
vertex 2.570029 14.036425 6.339372
vertex 2.590505 14.036425 6.359372
endloop
endfacet
facet normal 0 0 0
outer loop
vertex 2.570029 14.015671 6.339372
vertex 2.590505 14.036425 6.359372
vertex 2.570029 14.036425 6.359372
endloop
endfacet
facet normal 0 0 0
outer loop
vertex 2.385747 14.057178 6.339372
vertex 2.385747 14.036425 6.359372
vertex 2.385747 14.057178 6.359372
endloop
endfacet
facet normal 0 0 0
outer loop
vertex 2.406222 14.057178 6.339372
vertex 2.385747 14.036425 6.359372
vertex 2.385747 14.057178 6.339372
endloop
endfacet
facet normal 0 0 0
outer loop
vertex 2.406222 14.036425 6.359372
vertex 2.385747 14.036425 6.359372
vertex 2.406222 14.057178 6.339372
endloop
endfacet
facet normal 0 0 0
outer loop
vertex 2.426698 14.036425 6.339372
vertex 2.406222 14.036425 6.359372
vertex 2.406222 14.057178 6.339372
endloop
endfacet
facet normal 0 0 0
outer loop
vertex 2.447174 14.036425 6.359372
vertex 2.426698 14.036425 6.339372
vertex 2.426698 14.057178 6.359372
endloop
endfacet
facet normal 0 0 0
outer loop
vertex 2.426698 14.036425 6.339372
vertex 2.426698 14.057178 6.339372
vertex 2.426698 14.057178 6.359372
endloop
endfacet
facet normal 0 0 0
outer loop
vertex 2.549553 14.036425 6.339372
vertex 2.529078 14.036425 6.359372
vertex 2.549553 14.057178 6.359372
endloop
endfacet
facet normal 0 0 0
outer loop
vertex 2.549553 14.036425 6.339372
vertex 2.549553 14.057178 6.359372
vertex 2.570029 14.057178 6.339372
endloop
endfacet
facet normal 0 0 0
outer loop
vertex 2.570029 14.036425 6.339372
vertex 2.590505 14.057178 6.339372
vertex 2.590505 14.036425 6.359372
endloop
endfacet
facet normal 0 0 0
outer loop
vertex 2.590505 14.036425 6.359372
vertex 2.590505 14.057178 6.339372
vertex 2.590505 14.057178 6.359372
endloop
endfacet
facet normal 0 0 0
outer loop
vertex 2.406222 14.077931 6.339372
vertex 2.385747 14.057178 6.339372
vertex 2.406222 14.057178 6.359372
endloop
endfacet
facet normal 0 0 0
outer loop
vertex 2.385747 14.057178 6.339372
vertex 2.385747 14.057178 6.359372
vertex 2.406222 14.057178 6.359372
endloop
endfacet
facet normal 0 0 0
outer loop
vertex 2.406222 14.077931 6.339372
vertex 2.426698 14.057178 6.359372
vertex 2.426698 14.077931 6.339372
endloop
endfacet
facet normal 0 0 0
outer loop
vertex 2.406222 14.057178 6.359372
vertex 2.426698 14.057178 6.359372
vertex 2.406222 14.077931 6.339372
endloop
endfacet
facet normal 0 0 0
outer loop
vertex 2.426698 14.077931 6.339372
vertex 2.426698 14.057178 6.359372
vertex 2.426698 14.057178 6.339372
endloop
endfacet
facet normal 0 0 0
outer loop
vertex 2.549553 14.057178 6.359372
vertex 2.570029 14.077931 6.359372
vertex 2.570029 14.057178 6.339372
endloop
endfacet
facet normal 0 0 0
outer loop
vertex 2.570029 14.077931 6.359372
vertex 2.570029 14.077931 6.339372
vertex 2.570029 14.057178 6.339372
endloop
endfacet
facet normal 0 0 0
outer loop
vertex 2.590505 14.057178 6.339372
vertex 2.590505 14.077931 6.339372
vertex 2.590505 14.057178 6.359372
endloop
endfacet
facet normal 0 0 0
outer loop
vertex 2.590505 14.057178 6.359372
vertex 2.590505 14.077931 6.339372
vertex 2.590505 14.077931 6.359372
endloop
endfacet
facet normal 0 0 0
outer loop
vertex 2.590505 14.098684 6.359372
vertex 2.590505 14.077931 6.339372
vertex 2.570029 14.077931 6.359372
endloop
endfacet
facet normal 0 0 0
outer loop
vertex 2.590505 14.077931 6.339372
vertex 2.570029 14.077931 6.339372
vertex 2.570029 14.077931 6.359372
endloop
endfacet
facet normal 0 0 0
outer loop
vertex 2.590505 14.077931 6.339372
vertex 2.590505 14.098684 6.359372
vertex 2.590505 14.077931 6.359372
endloop
endfacet
facet normal 0 0 0
outer loop
vertex 2.406222 14.119438 6.339372
vertex 2.406222 14.119438 6.359372
vertex 2.385747 14.119438 6.339372
endloop
endfacet
facet normal 0 0 0
outer loop
vertex 2.426698 14.119438 6.339372
vertex 2.426698 14.119438 6.359372
vertex 2.406222 14.119438 6.339372
endloop
endfacet
facet normal 0 0 0
outer loop
vertex 2.406222 14.119438 6.339372
vertex 2.426698 14.119438 6.359372
vertex 2.406222 14.119438 6.359372
endloop
endfacet
facet normal 0 0 0
outer loop
vertex 2.385747 14.119438 6.339372
vertex 2.385747 14.119438 6.359372
vertex 2.406222 14.119438 6.359372
endloop
endfacet
facet normal 0 0 0
outer loop
vertex 2.406222 13.994918 6.359372
vertex 2.426698 13.994918 6.379372
vertex 2.406222 13.994918 6.379372
endloop
endfacet
facet normal 0 0 0
outer loop
vertex 2.426698 13.994918 6.379372
vertex 2.447174 13.994918 6.359372
vertex 2.447174 13.994918 6.379372
endloop
endfacet
facet normal 0 0 0
outer loop
vertex 2.467650 13.974165 6.379372
vertex 2.447174 13.994918 6.379372
vertex 2.467650 13.994918 6.359372
endloop
endfacet
facet normal 0 0 0
outer loop
vertex 2.447174 13.994918 6.379372
vertex 2.447174 13.994918 6.359372
vertex 2.467650 13.994918 6.359372
endloop
endfacet
facet normal 0 0 0
outer loop
vertex 2.467650 13.994918 6.359372
vertex 2.488126 13.994918 6.379372
vertex 2.467650 13.974165 6.379372
endloop
endfacet
facet normal 0 0 0
outer loop
vertex 2.488126 13.994918 6.379372
vertex 2.488126 13.974165 6.379372
vertex 2.467650 13.974165 6.379372
endloop
endfacet
facet normal 0 0 0
outer loop
vertex 2.508602 13.994918 6.359372
vertex 2.508602 13.994918 6.379372
vertex 2.488126 13.974165 6.379372
endloop
endfacet
facet normal 0 0 0
outer loop
vertex 2.508602 13.994918 6.359372
vertex 2.488126 13.974165 6.379372
vertex 2.488126 13.994918 6.379372
endloop
endfacet
facet normal 0 0 0
outer loop
vertex 2.508602 13.994918 6.359372
vertex 2.529078 13.994918 6.379372
vertex 2.508602 13.994918 6.379372
endloop
endfacet
facet normal 0 0 0
outer loop
vertex 2.385747 14.015671 6.379372
vertex 2.406222 14.015671 6.359372
vertex 2.406222 13.994918 6.379372
endloop
endfacet
facet normal 0 0 0
outer loop
vertex 2.406222 14.015671 6.359372
vertex 2.406222 13.994918 6.359372
vertex 2.406222 13.994918 6.379372
endloop
endfacet
facet normal 0 0 0
outer loop
vertex 2.406222 13.994918 6.359372
vertex 2.426698 14.015671 6.359372
vertex 2.426698 13.994918 6.379372
endloop
endfacet
facet normal 0 0 0
outer loop
vertex 2.447174 13.994918 6.359372
vertex 2.426698 13.994918 6.379372
vertex 2.426698 14.015671 6.359372
endloop
endfacet
facet normal 0 0 0
outer loop
vertex 2.467650 13.994918 6.359372
vertex 2.488126 14.015671 6.359372
vertex 2.488126 13.994918 6.379372
endloop
endfacet
facet normal 0 0 0
outer loop
vertex 2.508602 13.994918 6.359372
vertex 2.488126 13.994918 6.379372
vertex 2.488126 14.015671 6.359372
endloop
endfacet
facet normal 0 0 0
outer loop
vertex 2.508602 13.994918 6.359372
vertex 2.529078 14.015671 6.359372
vertex 2.529078 13.994918 6.379372
endloop
endfacet
facet normal 0 0 0
outer loop
vertex 2.549553 14.015671 6.359372
vertex 2.529078 13.994918 6.379372
vertex 2.529078 14.015671 6.359372
endloop
endfacet
facet normal 0 0 0
outer loop
vertex 2.549553 13.994918 6.379372
vertex 2.529078 13.994918 6.379372
vertex 2.549553 14.015671 6.359372
endloop
endfacet
facet normal 0 0 0
outer loop
vertex 2.549553 14.015671 6.359372
vertex 2.570029 14.015671 6.379372
vertex 2.549553 13.994918 6.379372
endloop
endfacet
facet normal 0 0 0
outer loop
vertex 2.570029 14.015671 6.379372
vertex 2.570029 13.994918 6.379372
vertex 2.549553 13.994918 6.379372
endloop
endfacet
facet normal 0 0 0
outer loop
vertex 2.590505 14.015671 6.379372
vertex 2.570029 13.994918 6.379372
vertex 2.570029 14.015671 6.379372
endloop
endfacet
facet normal 0 0 0
outer loop
vertex 2.385747 14.015671 6.379372
vertex 2.365271 14.036425 6.379372
vertex 2.385747 14.036425 6.359372
endloop
endfacet
facet normal 0 0 0
outer loop
vertex 2.406222 14.015671 6.359372
vertex 2.385747 14.015671 6.379372
vertex 2.385747 14.036425 6.359372
endloop
endfacet
facet normal 0 0 0
outer loop
vertex 2.447174 14.036425 6.359372
vertex 2.426698 14.036425 6.379372
vertex 2.447174 14.015671 6.379372
endloop
endfacet
facet normal 0 0 0
outer loop
vertex 2.447174 14.036425 6.359372
vertex 2.447174 14.015671 6.379372
vertex 2.467650 14.015671 6.359372
endloop
endfacet
facet normal 0 0 0
outer loop
vertex 2.447174 14.015671 6.379372
vertex 2.467650 14.015671 6.379372
vertex 2.467650 14.015671 6.359372
endloop
endfacet
facet normal 0 0 0
outer loop
vertex 2.488126 14.015671 6.359372
vertex 2.467650 14.015671 6.359372
vertex 2.488126 14.015671 6.379372
endloop
endfacet
facet normal 0 0 0
outer loop
vertex 2.467650 14.015671 6.359372
vertex 2.467650 14.015671 6.379372
vertex 2.488126 14.015671 6.379372
endloop
endfacet
facet normal 0 0 0
outer loop
vertex 2.508602 14.036425 6.379372
vertex 2.508602 14.015671 6.359372
vertex 2.488126 14.015671 6.379372
endloop
endfacet
facet normal 0 0 0
outer loop
vertex 2.508602 14.015671 6.359372
vertex 2.488126 14.015671 6.359372
vertex 2.488126 14.015671 6.379372
endloop
endfacet
facet normal 0 0 0
outer loop
vertex 2.508602 14.015671 6.359372
vertex 2.508602 14.036425 6.379372
vertex 2.529078 14.036425 6.359372
endloop
endfacet
facet normal 0 0 0
outer loop
vertex 2.549553 14.015671 6.359372
vertex 2.570029 14.036425 6.359372
vertex 2.570029 14.015671 6.379372
endloop
endfacet
facet normal 0 0 0
outer loop
vertex 2.590505 14.036425 6.359372
vertex 2.570029 14.015671 6.379372
vertex 2.570029 14.036425 6.359372
endloop
endfacet
facet normal 0 0 0
outer loop
vertex 2.590505 14.015671 6.379372
vertex 2.570029 14.015671 6.379372
vertex 2.590505 14.036425 6.359372
endloop
endfacet
facet normal 0 0 0
outer loop
vertex 2.590505 14.015671 6.379372
vertex 2.590505 14.036425 6.359372
vertex 2.590505 14.036425 6.379372
endloop
endfacet
facet normal 0 0 0
outer loop
vertex 2.385747 14.036425 6.359372
vertex 2.365271 14.057178 6.379372
vertex 2.385747 14.057178 6.359372
endloop
endfacet
facet normal 0 0 0
outer loop
vertex 2.365271 14.036425 6.379372
vertex 2.365271 14.057178 6.379372
vertex 2.385747 14.036425 6.359372
endloop
endfacet
facet normal 0 0 0
outer loop
vertex 2.406222 14.057178 6.359372
vertex 2.385747 14.057178 6.379372
vertex 2.406222 14.036425 6.379372
endloop
endfacet
facet normal 0 0 0
outer loop
vertex 2.406222 14.057178 6.359372
vertex 2.426698 14.036425 6.379372
vertex 2.426698 14.057178 6.359372
endloop
endfacet
facet normal 0 0 0
outer loop
vertex 2.406222 14.036425 6.379372
vertex 2.426698 14.036425 6.379372
vertex 2.406222 14.057178 6.359372
endloop
endfacet
facet normal 0 0 0
outer loop
vertex 2.447174 14.036425 6.359372
vertex 2.426698 14.057178 6.359372
vertex 2.426698 14.036425 6.379372
endloop
endfacet
facet normal 0 0 0
outer loop
vertex 2.529078 14.036425 6.359372
vertex 2.508602 14.036425 6.379372
vertex 2.529078 14.036425 6.379372
endloop
endfacet
facet normal 0 0 0
outer loop
vertex 2.549553 14.057178 6.359372
vertex 2.529078 14.036425 6.359372
vertex 2.549553 14.036425 6.379372
endloop
endfacet
facet normal 0 0 0
outer loop
vertex 2.529078 14.036425 6.359372
vertex 2.529078 14.036425 6.379372
vertex 2.549553 14.036425 6.379372
endloop
endfacet
facet normal 0 0 0
outer loop
vertex 2.549553 14.036425 6.379372
vertex 2.570029 14.057178 6.379372
vertex 2.549553 14.057178 6.359372
endloop
endfacet
facet normal 0 0 0
outer loop
vertex 2.590505 14.057178 6.359372
vertex 2.570029 14.057178 6.379372
vertex 2.590505 14.036425 6.379372
endloop
endfacet
facet normal 0 0 0
outer loop
vertex 2.590505 14.057178 6.359372
vertex 2.590505 14.036425 6.379372
vertex 2.590505 14.036425 6.359372
endloop
endfacet
facet normal 0 0 0
outer loop
vertex 2.385747 14.057178 6.359372
vertex 2.365271 14.057178 6.379372
vertex 2.385747 14.077931 6.379372
endloop
endfacet
facet normal 0 0 0
outer loop
vertex 2.406222 14.057178 6.359372
vertex 2.385747 14.077931 6.379372
vertex 2.385747 14.057178 6.379372
endloop
endfacet
facet normal 0 0 0
outer loop
vertex 2.406222 14.057178 6.359372
vertex 2.385747 14.057178 6.359372
vertex 2.385747 14.077931 6.379372
endloop
endfacet
facet normal 0 0 0
outer loop
vertex 2.549553 14.057178 6.359372
vertex 2.570029 14.057178 6.379372
vertex 2.570029 14.077931 6.359372
endloop
endfacet
facet normal 0 0 0
outer loop
vertex 2.570029 14.057178 6.379372
vertex 2.570029 14.077931 6.379372
vertex 2.570029 14.077931 6.359372
endloop
endfacet
facet normal 0 0 0
outer loop
vertex 2.590505 14.057178 6.359372
vertex 2.590505 14.077931 6.379372
vertex 2.570029 14.057178 6.379372
endloop
endfacet
facet normal 0 0 0
outer loop
vertex 2.590505 14.077931 6.379372
vertex 2.590505 14.057178 6.359372
vertex 2.590505 14.077931 6.359372
endloop
endfacet
facet normal 0 0 0
outer loop
vertex 2.570029 14.077931 6.379372
vertex 2.590505 14.098684 6.359372
vertex 2.570029 14.077931 6.359372
endloop
endfacet
facet normal 0 0 0
outer loop
vertex 2.590505 14.098684 6.379372
vertex 2.590505 14.098684 6.359372
vertex 2.570029 14.077931 6.379372
endloop
endfacet
facet normal 0 0 0
outer loop
vertex 2.610981 14.098684 6.379372
vertex 2.590505 14.077931 6.379372
vertex 2.590505 14.098684 6.359372
endloop
endfacet
facet normal 0 0 0
outer loop
vertex 2.590505 14.077931 6.379372
vertex 2.590505 14.077931 6.359372
vertex 2.590505 14.098684 6.359372
endloop
endfacet
facet normal 0 0 0
outer loop
vertex 2.385747 14.119438 6.359372
vertex 2.365271 14.098684 6.379372
vertex 2.385747 14.119438 6.379372
endloop
endfacet
facet normal 0 0 0
outer loop
vertex 2.385747 14.119438 6.359372
vertex 2.385747 14.098684 6.379372
vertex 2.365271 14.098684 6.379372
endloop
endfacet
facet normal 0 0 0
outer loop
vertex 2.406222 14.119438 6.359372
vertex 2.385747 14.119438 6.379372
vertex 2.385747 14.119438 6.359372
endloop
endfacet
facet normal 0 0 0
outer loop
vertex 2.385747 14.119438 6.359372
vertex 2.385747 14.119438 6.379372
vertex 2.385747 14.098684 6.379372
endloop
endfacet
facet normal 0 0 0
outer loop
vertex 2.385747 14.098684 6.379372
vertex 2.385747 14.119438 6.379372
vertex 2.406222 14.098684 6.379372
endloop
endfacet
facet normal 0 0 0
outer loop
vertex 2.590505 14.119438 6.379372
vertex 2.590505 14.098684 6.359372
vertex 2.590505 14.098684 6.379372
endloop
endfacet
facet normal 0 0 0
outer loop
vertex 2.590505 14.098684 6.359372
vertex 2.590505 14.119438 6.379372
vertex 2.610981 14.098684 6.379372
endloop
endfacet
facet normal 0 0 0
outer loop
vertex 2.590505 14.119438 6.379372
vertex 2.610981 14.119438 6.379372
vertex 2.610981 14.098684 6.379372
endloop
endfacet
facet normal 0 0 0
outer loop
vertex 2.467650 13.974165 6.379372
vertex 2.488126 13.974165 6.379372
vertex 2.488126 13.974165 6.399372
endloop
endfacet
facet normal 0 0 0
outer loop
vertex 2.488126 13.974165 6.379372
vertex 2.508602 13.974165 6.399372
vertex 2.488126 13.974165 6.399372
endloop
endfacet
facet normal 0 0 0
outer loop
vertex 2.385747 13.994918 6.399372
vertex 2.406222 13.994918 6.379372
vertex 2.406222 13.994918 6.399372
endloop
endfacet
facet normal 0 0 0
outer loop
vertex 2.426698 13.974165 6.399372
vertex 2.406222 13.994918 6.399372
vertex 2.426698 13.994918 6.379372
endloop
endfacet
facet normal 0 0 0
outer loop
vertex 2.406222 13.994918 6.399372
vertex 2.406222 13.994918 6.379372
vertex 2.426698 13.994918 6.379372
endloop
endfacet
facet normal 0 0 0
outer loop
vertex 2.447174 13.994918 6.379372
vertex 2.426698 13.974165 6.399372
vertex 2.426698 13.994918 6.379372
endloop
endfacet
facet normal 0 0 0
outer loop
vertex 2.447174 13.974165 6.399372
vertex 2.426698 13.974165 6.399372
vertex 2.447174 13.994918 6.379372
endloop
endfacet
facet normal 0 0 0
outer loop
vertex 2.447174 13.974165 6.399372
vertex 2.447174 13.994918 6.379372
vertex 2.467650 13.994918 6.399372
endloop
endfacet
facet normal 0 0 0
outer loop
vertex 2.467650 13.974165 6.379372
vertex 2.467650 13.994918 6.399372
vertex 2.447174 13.994918 6.379372
endloop
endfacet
facet normal 0 0 0
outer loop
vertex 2.488126 13.974165 6.399372
vertex 2.467650 13.994918 6.399372
vertex 2.467650 13.974165 6.379372
endloop
endfacet
facet normal 0 0 0
outer loop
vertex 2.488126 13.974165 6.379372
vertex 2.508602 13.994918 6.379372
vertex 2.508602 13.974165 6.399372
endloop
endfacet
facet normal 0 0 0
outer loop
vertex 2.529078 13.994918 6.379372
vertex 2.508602 13.974165 6.399372
vertex 2.508602 13.994918 6.379372
endloop
endfacet
facet normal 0 0 0
outer loop
vertex 2.529078 13.974165 6.399372
vertex 2.508602 13.974165 6.399372
vertex 2.529078 13.994918 6.379372
endloop
endfacet
facet normal 0 0 0
outer loop
vertex 2.549553 13.994918 6.379372
vertex 2.529078 13.974165 6.399372
vertex 2.529078 13.994918 6.379372
endloop
endfacet
facet normal 0 0 0
outer loop
vertex 2.549553 13.974165 6.399372
vertex 2.529078 13.974165 6.399372
vertex 2.549553 13.994918 6.379372
endloop
endfacet
facet normal 0 0 0
outer loop
vertex 2.570029 13.994918 6.379372
vertex 2.549553 13.974165 6.399372
vertex 2.549553 13.994918 6.379372
endloop
endfacet
facet normal 0 0 0
outer loop
vertex 2.570029 13.974165 6.399372
vertex 2.549553 13.974165 6.399372
vertex 2.570029 13.994918 6.379372
endloop
endfacet
facet normal 0 0 0
outer loop
vertex 2.570029 13.994918 6.379372
vertex 2.590505 13.994918 6.399372
vertex 2.570029 13.974165 6.399372
endloop
endfacet
facet normal 0 0 0
outer loop
vertex 2.385747 14.015671 6.379372
vertex 2.385747 13.994918 6.399372
vertex 2.385747 14.015671 6.399372
endloop
endfacet
facet normal 0 0 0
outer loop
vertex 2.406222 13.994918 6.379372
vertex 2.385747 13.994918 6.399372
vertex 2.385747 14.015671 6.379372
endloop
endfacet
facet normal 0 0 0
outer loop
vertex 2.570029 13.994918 6.379372
vertex 2.590505 14.015671 6.379372
vertex 2.590505 13.994918 6.399372
endloop
endfacet
facet normal 0 0 0
outer loop
vertex 2.590505 14.015671 6.379372
vertex 2.610981 14.015671 6.399372
vertex 2.590505 13.994918 6.399372
endloop
endfacet
facet normal 0 0 0
outer loop
vertex 2.385747 14.015671 6.399372
vertex 2.365271 14.036425 6.379372
vertex 2.385747 14.015671 6.379372
endloop
endfacet
facet normal 0 0 0
outer loop
vertex 2.365271 14.036425 6.399372
vertex 2.365271 14.036425 6.379372
vertex 2.385747 14.015671 6.399372
endloop
endfacet
facet normal 0 0 0
outer loop
vertex 2.447174 14.015671 6.379372
vertex 2.426698 14.036425 6.399372
vertex 2.447174 14.015671 6.399372
endloop
endfacet
facet normal 0 0 0
outer loop
vertex 2.426698 14.036425 6.379372
vertex 2.426698 14.036425 6.399372
vertex 2.447174 14.015671 6.379372
endloop
endfacet
facet normal 0 0 0
outer loop
vertex 2.467650 14.015671 6.379372
vertex 2.447174 14.015671 6.379372
vertex 2.467650 14.015671 6.399372
endloop
endfacet
facet normal 0 0 0
outer loop
vertex 2.447174 14.015671 6.379372
vertex 2.447174 14.015671 6.399372
vertex 2.467650 14.015671 6.399372
endloop
endfacet
facet normal 0 0 0
outer loop
vertex 2.488126 14.015671 6.379372
vertex 2.467650 14.015671 6.379372
vertex 2.488126 14.015671 6.399372
endloop
endfacet
facet normal 0 0 0
outer loop
vertex 2.467650 14.015671 6.379372
vertex 2.467650 14.015671 6.399372
vertex 2.488126 14.015671 6.399372
endloop
endfacet
facet normal 0 0 0
outer loop
vertex 2.508602 14.036425 6.379372
vertex 2.488126 14.015671 6.379372
vertex 2.508602 14.015671 6.399372
endloop
endfacet
facet normal 0 0 0
outer loop
vertex 2.488126 14.015671 6.379372
vertex 2.488126 14.015671 6.399372
vertex 2.508602 14.015671 6.399372
endloop
endfacet
facet normal 0 0 0
outer loop
vertex 2.508602 14.036425 6.379372
vertex 2.529078 14.015671 6.399372
vertex 2.529078 14.036425 6.379372
endloop
endfacet
facet normal 0 0 0
outer loop
vertex 2.508602 14.015671 6.399372
vertex 2.529078 14.015671 6.399372
vertex 2.508602 14.036425 6.379372
endloop
endfacet
facet normal 0 0 0
outer loop
vertex 2.529078 14.036425 6.379372
vertex 2.549553 14.015671 6.399372
vertex 2.549553 14.036425 6.379372
endloop
endfacet
facet normal 0 0 0
outer loop
vertex 2.529078 14.015671 6.399372
vertex 2.549553 14.015671 6.399372
vertex 2.529078 14.036425 6.379372
endloop
endfacet
facet normal 0 0 0
outer loop
vertex 2.549553 14.015671 6.399372
vertex 2.570029 14.036425 6.399372
vertex 2.549553 14.036425 6.379372
endloop
endfacet
facet normal 0 0 0
outer loop
vertex 2.610981 14.015671 6.399372
vertex 2.590505 14.036425 6.379372
vertex 2.610981 14.036425 6.399372
endloop
endfacet
facet normal 0 0 0
outer loop
vertex 2.590505 14.015671 6.379372
vertex 2.590505 14.036425 6.379372
vertex 2.610981 14.015671 6.399372
endloop
endfacet
facet normal 0 0 0
outer loop
vertex 2.365271 14.036425 6.399372
vertex 2.365271 14.057178 6.379372
vertex 2.365271 14.036425 6.379372
endloop
endfacet
facet normal 0 0 0
outer loop
vertex 2.365271 14.036425 6.399372
vertex 2.385747 14.057178 6.399372
vertex 2.365271 14.057178 6.379372
endloop
endfacet
facet normal 0 0 0
outer loop
vertex 2.406222 14.036425 6.379372
vertex 2.385747 14.057178 6.399372
vertex 2.406222 14.036425 6.399372
endloop
endfacet
facet normal 0 0 0
outer loop
vertex 2.385747 14.057178 6.379372
vertex 2.385747 14.057178 6.399372
vertex 2.406222 14.036425 6.379372
endloop
endfacet
facet normal 0 0 0
outer loop
vertex 2.426698 14.036425 6.379372
vertex 2.406222 14.036425 6.379372
vertex 2.426698 14.036425 6.399372
endloop
endfacet
facet normal 0 0 0
outer loop
vertex 2.406222 14.036425 6.379372
vertex 2.406222 14.036425 6.399372
vertex 2.426698 14.036425 6.399372
endloop
endfacet
facet normal 0 0 0
outer loop
vertex 2.549553 14.036425 6.379372
vertex 2.570029 14.036425 6.399372
vertex 2.570029 14.057178 6.379372
endloop
endfacet
facet normal 0 0 0
outer loop
vertex 2.570029 14.057178 6.379372
vertex 2.570029 14.036425 6.399372
vertex 2.590505 14.036425 6.379372
endloop
endfacet
facet normal 0 0 0
outer loop
vertex 2.570029 14.036425 6.399372
vertex 2.590505 14.036425 6.399372
vertex 2.590505 14.036425 6.379372
endloop
endfacet
facet normal 0 0 0
outer loop
vertex 2.610981 14.036425 6.399372
vertex 2.590505 14.036425 6.379372
vertex 2.590505 14.036425 6.399372
endloop
endfacet
facet normal 0 0 0
outer loop
vertex 2.365271 14.057178 6.379372
vertex 2.385747 14.057178 6.399372
vertex 2.385747 14.077931 6.379372
endloop
endfacet
facet normal 0 0 0
outer loop
vertex 2.385747 14.077931 6.379372
vertex 2.385747 14.057178 6.399372
vertex 2.385747 14.057178 6.379372
endloop
endfacet
facet normal 0 0 0
outer loop
vertex 2.570029 14.057178 6.379372
vertex 2.590505 14.077931 6.399372
vertex 2.570029 14.077931 6.379372
endloop
endfacet
facet normal 0 0 0
outer loop
vertex 2.570029 14.057178 6.379372
vertex 2.590505 14.077931 6.379372
vertex 2.590505 14.077931 6.399372
endloop
endfacet
facet normal 0 0 0
outer loop
vertex 2.365271 14.098684 6.379372
vertex 2.385747 14.077931 6.379372
vertex 2.385747 14.098684 6.379372
endloop
endfacet
facet normal 0 0 0
outer loop
vertex 2.385747 14.077931 6.379372
vertex 2.406222 14.098684 6.379372
vertex 2.385747 14.098684 6.379372
endloop
endfacet
facet normal 0 0 0
outer loop
vertex 2.570029 14.077931 6.379372
vertex 2.590505 14.077931 6.399372
vertex 2.590505 14.098684 6.379372
endloop
endfacet
facet normal 0 0 0
outer loop
vertex 2.610981 14.098684 6.399372
vertex 2.590505 14.098684 6.379372
vertex 2.610981 14.098684 6.379372
endloop
endfacet
facet normal 0 0 0
outer loop
vertex 2.610981 14.098684 6.379372
vertex 2.590505 14.098684 6.379372
vertex 2.590505 14.077931 6.379372
endloop
endfacet
facet normal 0 0 0
outer loop
vertex 2.590505 14.077931 6.379372
vertex 2.590505 14.098684 6.379372
vertex 2.590505 14.077931 6.399372
endloop
endfacet
facet normal 0 0 0
outer loop
vertex 2.385747 14.119438 6.399372
vertex 2.365271 14.098684 6.379372
vertex 2.385747 14.098684 6.379372
endloop
endfacet
facet normal 0 0 0
outer loop
vertex 2.385747 14.119438 6.399372
vertex 2.385747 14.119438 6.379372
vertex 2.365271 14.098684 6.379372
endloop
endfacet
facet normal 0 0 0
outer loop
vertex 2.385747 14.098684 6.379372
vertex 2.385747 14.119438 6.379372
vertex 2.385747 14.119438 6.399372
endloop
endfacet
facet normal 0 0 0
outer loop
vertex 2.385747 14.119438 6.399372
vertex 2.385747 14.119438 6.379372
vertex 2.406222 14.119438 6.399372
endloop
endfacet
facet normal 0 0 0
outer loop
vertex 2.610981 14.119438 6.399372
vertex 2.590505 14.098684 6.379372
vertex 2.610981 14.098684 6.399372
endloop
endfacet
facet normal 0 0 0
outer loop
vertex 2.590505 14.119438 6.379372
vertex 2.590505 14.098684 6.379372
vertex 2.610981 14.119438 6.399372
endloop
endfacet
facet normal 0 0 0
outer loop
vertex 2.610981 14.098684 6.379372
vertex 2.610981 14.119438 6.379372
vertex 2.610981 14.098684 6.399372
endloop
endfacet
facet normal 0 0 0
outer loop
vertex 2.610981 14.098684 6.399372
vertex 2.610981 14.119438 6.379372
vertex 2.610981 14.119438 6.399372
endloop
endfacet
facet normal 0 0 0
outer loop
vertex 2.590505 14.119438 6.379372
vertex 2.610981 14.119438 6.399372
vertex 2.610981 14.119438 6.379372
endloop
endfacet
facet normal 0 0 0
outer loop
vertex 2.406222 13.994918 6.399372
vertex 2.426698 13.974165 6.399372
vertex 2.426698 13.994918 6.399372
endloop
endfacet
facet normal 0 0 0
outer loop
vertex 2.447174 13.994918 6.419372
vertex 2.426698 13.994918 6.399372
vertex 2.447174 13.974165 6.399372
endloop
endfacet
facet normal 0 0 0
outer loop
vertex 2.426698 13.994918 6.399372
vertex 2.426698 13.974165 6.399372
vertex 2.447174 13.974165 6.399372
endloop
endfacet
facet normal 0 0 0
outer loop
vertex 2.447174 13.974165 6.399372
vertex 2.467650 13.994918 6.399372
vertex 2.447174 13.994918 6.419372
endloop
endfacet
facet normal 0 0 0
outer loop
vertex 2.467650 13.994918 6.399372
vertex 2.467650 13.994918 6.419372
vertex 2.447174 13.994918 6.419372
endloop
endfacet
facet normal 0 0 0
outer loop
vertex 2.488126 13.974165 6.399372
vertex 2.488126 13.994918 6.419372
vertex 2.467650 13.994918 6.399372
endloop
endfacet
facet normal 0 0 0
outer loop
vertex 2.488126 13.994918 6.419372
vertex 2.467650 13.994918 6.419372
vertex 2.467650 13.994918 6.399372
endloop
endfacet
facet normal 0 0 0
outer loop
vertex 2.508602 13.974165 6.399372
vertex 2.488126 13.994918 6.419372
vertex 2.488126 13.974165 6.399372
endloop
endfacet
facet normal 0 0 0
outer loop
vertex 2.508602 13.994918 6.419372
vertex 2.488126 13.994918 6.419372
vertex 2.508602 13.974165 6.399372
endloop
endfacet
facet normal 0 0 0
outer loop
vertex 2.529078 13.974165 6.399372
vertex 2.508602 13.994918 6.419372
vertex 2.508602 13.974165 6.399372
endloop
endfacet
facet normal 0 0 0
outer loop
vertex 2.529078 13.994918 6.419372
vertex 2.508602 13.994918 6.419372
vertex 2.529078 13.974165 6.399372
endloop
endfacet
facet normal 0 0 0
outer loop
vertex 2.529078 13.994918 6.419372
vertex 2.529078 13.974165 6.399372
vertex 2.549553 13.994918 6.399372
endloop
endfacet
facet normal 0 0 0
outer loop
vertex 2.529078 13.974165 6.399372
vertex 2.549553 13.974165 6.399372
vertex 2.549553 13.994918 6.399372
endloop
endfacet
facet normal 0 0 0
outer loop
vertex 2.570029 13.974165 6.399372
vertex 2.570029 13.994918 6.399372
vertex 2.549553 13.974165 6.399372
endloop
endfacet
facet normal 0 0 0
outer loop
vertex 2.570029 13.994918 6.399372
vertex 2.549553 13.994918 6.399372
vertex 2.549553 13.974165 6.399372
endloop
endfacet
facet normal 0 0 0
outer loop
vertex 2.570029 13.974165 6.399372
vertex 2.590505 13.994918 6.399372
vertex 2.570029 13.994918 6.399372
endloop
endfacet
facet normal 0 0 0
outer loop
vertex 2.406222 13.994918 6.399372
vertex 2.406222 14.015671 6.399372
vertex 2.385747 13.994918 6.399372
endloop
endfacet
facet normal 0 0 0
outer loop
vertex 2.406222 14.015671 6.399372
vertex 2.385747 14.015671 6.399372
vertex 2.385747 13.994918 6.399372
endloop
endfacet
facet normal 0 0 0
outer loop
vertex 2.426698 14.015671 6.419372
vertex 2.406222 14.015671 6.399372
vertex 2.426698 13.994918 6.399372
endloop
endfacet
facet normal 0 0 0
outer loop
vertex 2.406222 14.015671 6.399372
vertex 2.406222 13.994918 6.399372
vertex 2.426698 13.994918 6.399372
endloop
endfacet
facet normal 0 0 0
outer loop
vertex 2.447174 13.994918 6.419372
vertex 2.426698 14.015671 6.419372
vertex 2.426698 13.994918 6.399372
endloop
endfacet
facet normal 0 0 0
outer loop
vertex 2.529078 14.015671 6.399372
vertex 2.508602 14.015671 6.419372
vertex 2.529078 13.994918 6.419372
endloop
endfacet
facet normal 0 0 0
outer loop
vertex 2.529078 13.994918 6.419372
vertex 2.549553 13.994918 6.399372
vertex 2.529078 14.015671 6.399372
endloop
endfacet
facet normal 0 0 0
outer loop
vertex 2.549553 13.994918 6.399372
vertex 2.549553 14.015671 6.399372
vertex 2.529078 14.015671 6.399372
endloop
endfacet
facet normal 0 0 0
outer loop
vertex 2.570029 13.994918 6.399372
vertex 2.570029 14.015671 6.399372
vertex 2.549553 13.994918 6.399372
endloop
endfacet
facet normal 0 0 0
outer loop
vertex 2.570029 14.015671 6.399372
vertex 2.549553 14.015671 6.399372
vertex 2.549553 13.994918 6.399372
endloop
endfacet
facet normal 0 0 0
outer loop
vertex 2.590505 13.994918 6.399372
vertex 2.590505 14.015671 6.399372
vertex 2.570029 13.994918 6.399372
endloop
endfacet
facet normal 0 0 0
outer loop
vertex 2.590505 14.015671 6.399372
vertex 2.570029 14.015671 6.399372
vertex 2.570029 13.994918 6.399372
endloop
endfacet
facet normal 0 0 0
outer loop
vertex 2.590505 13.994918 6.399372
vertex 2.610981 14.015671 6.399372
vertex 2.590505 14.015671 6.399372
endloop
endfacet
facet normal 0 0 0
outer loop
vertex 2.365271 14.036425 6.399372
vertex 2.365271 14.015671 6.419372
vertex 2.365271 14.036425 6.419372
endloop
endfacet
facet normal 0 0 0
outer loop
vertex 2.365271 14.015671 6.419372
vertex 2.365271 14.036425 6.399372
vertex 2.385747 14.036425 6.419372
endloop
endfacet
facet normal 0 0 0
outer loop
vertex 2.385747 14.015671 6.399372
vertex 2.385747 14.036425 6.419372
vertex 2.365271 14.036425 6.399372
endloop
endfacet
facet normal 0 0 0
outer loop
vertex 2.406222 14.015671 6.399372
vertex 2.385747 14.036425 6.419372
vertex 2.385747 14.015671 6.399372
endloop
endfacet
facet normal 0 0 0
outer loop
vertex 2.406222 14.036425 6.419372
vertex 2.385747 14.036425 6.419372
vertex 2.406222 14.015671 6.399372
endloop
endfacet
facet normal 0 0 0
outer loop
vertex 2.406222 14.036425 6.419372
vertex 2.406222 14.015671 6.399372
vertex 2.426698 14.036425 6.399372
endloop
endfacet
facet normal 0 0 0
outer loop
vertex 2.426698 14.015671 6.419372
vertex 2.426698 14.036425 6.399372
vertex 2.406222 14.015671 6.399372
endloop
endfacet
facet normal 0 0 0
outer loop
vertex 2.426698 14.036425 6.399372
vertex 2.426698 14.015671 6.419372
vertex 2.447174 14.015671 6.399372
endloop
endfacet
facet normal 0 0 0
outer loop
vertex 2.426698 14.015671 6.419372
vertex 2.447174 14.015671 6.419372
vertex 2.447174 14.015671 6.399372
endloop
endfacet
facet normal 0 0 0
outer loop
vertex 2.467650 14.015671 6.399372
vertex 2.447174 14.015671 6.399372
vertex 2.467650 14.015671 6.419372
endloop
endfacet
facet normal 0 0 0
outer loop
vertex 2.447174 14.015671 6.399372
vertex 2.447174 14.015671 6.419372
vertex 2.467650 14.015671 6.419372
endloop
endfacet
facet normal 0 0 0
outer loop
vertex 2.488126 14.015671 6.399372
vertex 2.467650 14.015671 6.399372
vertex 2.488126 14.015671 6.419372
endloop
endfacet
facet normal 0 0 0
outer loop
vertex 2.467650 14.015671 6.399372
vertex 2.467650 14.015671 6.419372
vertex 2.488126 14.015671 6.419372
endloop
endfacet
facet normal 0 0 0
outer loop
vertex 2.508602 14.015671 6.399372
vertex 2.488126 14.015671 6.399372
vertex 2.508602 14.015671 6.419372
endloop
endfacet
facet normal 0 0 0
outer loop
vertex 2.488126 14.015671 6.399372
vertex 2.488126 14.015671 6.419372
vertex 2.508602 14.015671 6.419372
endloop
endfacet
facet normal 0 0 0
outer loop
vertex 2.529078 14.015671 6.399372
vertex 2.508602 14.015671 6.399372
vertex 2.508602 14.015671 6.419372
endloop
endfacet
facet normal 0 0 0
outer loop
vertex 2.570029 14.036425 6.399372
vertex 2.549553 14.015671 6.399372
vertex 2.570029 14.015671 6.399372
endloop
endfacet
facet normal 0 0 0
outer loop
vertex 2.590505 14.015671 6.399372
vertex 2.590505 14.036425 6.399372
vertex 2.570029 14.015671 6.399372
endloop
endfacet
facet normal 0 0 0
outer loop
vertex 2.590505 14.036425 6.399372
vertex 2.570029 14.036425 6.399372
vertex 2.570029 14.015671 6.399372
endloop
endfacet
facet normal 0 0 0
outer loop
vertex 2.610981 14.015671 6.399372
vertex 2.610981 14.036425 6.399372
vertex 2.590505 14.015671 6.399372
endloop
endfacet
facet normal 0 0 0
outer loop
vertex 2.610981 14.036425 6.399372
vertex 2.590505 14.036425 6.399372
vertex 2.590505 14.015671 6.399372
endloop
endfacet
facet normal 0 0 0
outer loop
vertex 2.365271 14.057178 6.419372
vertex 2.365271 14.036425 6.399372
vertex 2.365271 14.036425 6.419372
endloop
endfacet
facet normal 0 0 0
outer loop
vertex 2.365271 14.036425 6.399372
vertex 2.365271 14.057178 6.419372
vertex 2.385747 14.057178 6.399372
endloop
endfacet
facet normal 0 0 0
outer loop
vertex 2.406222 14.036425 6.399372
vertex 2.385747 14.057178 6.399372
vertex 2.406222 14.057178 6.419372
endloop
endfacet
facet normal 0 0 0
outer loop
vertex 2.426698 14.036425 6.399372
vertex 2.406222 14.057178 6.419372
vertex 2.406222 14.036425 6.419372
endloop
endfacet
facet normal 0 0 0
outer loop
vertex 2.426698 14.036425 6.399372
vertex 2.406222 14.036425 6.399372
vertex 2.406222 14.057178 6.419372
endloop
endfacet
facet normal 0 0 0
outer loop
vertex 2.385747 14.057178 6.399372
vertex 2.365271 14.057178 6.419372
vertex 2.365271 14.077931 6.419372
endloop
endfacet
facet normal 0 0 0
outer loop
vertex 2.385747 14.057178 6.399372
vertex 2.365271 14.077931 6.419372
vertex 2.385747 14.057178 6.419372
endloop
endfacet
facet normal 0 0 0
outer loop
vertex 2.406222 14.057178 6.419372
vertex 2.385747 14.057178 6.399372
vertex 2.385747 14.057178 6.419372
endloop
endfacet
facet normal 0 0 0
outer loop
vertex 2.365271 14.077931 6.419372
vertex 2.344795 14.098684 6.419372
vertex 2.365271 14.098684 6.419372
endloop
endfacet
facet normal 0 0 0
outer loop
vertex 2.426698 14.015671 6.419372
vertex 2.447174 13.994918 6.419372
vertex 2.447174 14.015671 6.419372
endloop
endfacet
facet normal 0 0 0
outer loop
vertex 2.467650 13.994918 6.419372
vertex 2.467650 14.015671 6.419372
vertex 2.447174 13.994918 6.419372
endloop
endfacet
facet normal 0 0 0
outer loop
vertex 2.467650 14.015671 6.419372
vertex 2.447174 14.015671 6.419372
vertex 2.447174 13.994918 6.419372
endloop
endfacet
facet normal 0 0 0
outer loop
vertex 2.488126 13.994918 6.419372
vertex 2.488126 14.015671 6.419372
vertex 2.467650 13.994918 6.419372
endloop
endfacet
facet normal 0 0 0
outer loop
vertex 2.488126 14.015671 6.419372
vertex 2.467650 14.015671 6.419372
vertex 2.467650 13.994918 6.419372
endloop
endfacet
facet normal 0 0 0
outer loop
vertex 2.508602 14.015671 6.439372
vertex 2.488126 14.015671 6.419372
vertex 2.508602 13.994918 6.419372
endloop
endfacet
facet normal 0 0 0
outer loop
vertex 2.488126 14.015671 6.419372
vertex 2.488126 13.994918 6.419372
vertex 2.508602 13.994918 6.419372
endloop
endfacet
facet normal 0 0 0
outer loop
vertex 2.529078 13.994918 6.419372
vertex 2.508602 14.015671 6.419372
vertex 2.508602 13.994918 6.419372
endloop
endfacet
facet normal 0 0 0
outer loop
vertex 2.508602 13.994918 6.419372
vertex 2.508602 14.015671 6.419372
vertex 2.508602 14.015671 6.439372
endloop
endfacet
facet normal 0 0 0
outer loop
vertex 2.344795 14.036425 6.439372
vertex 2.365271 14.036425 6.419372
vertex 2.365271 14.015671 6.439372
endloop
endfacet
facet normal 0 0 0
outer loop
vertex 2.365271 14.036425 6.419372
vertex 2.365271 14.015671 6.419372
vertex 2.365271 14.015671 6.439372
endloop
endfacet
facet normal 0 0 0
outer loop
vertex 2.365271 14.015671 6.419372
vertex 2.385747 14.036425 6.439372
vertex 2.365271 14.015671 6.439372
endloop
endfacet
facet normal 0 0 0
outer loop
vertex 2.385747 14.036425 6.419372
vertex 2.385747 14.036425 6.439372
vertex 2.365271 14.015671 6.419372
endloop
endfacet
facet normal 0 0 0
outer loop
vertex 2.406222 14.036425 6.419372
vertex 2.385747 14.036425 6.439372
vertex 2.385747 14.036425 6.419372
endloop
endfacet
facet normal 0 0 0
outer loop
vertex 2.488126 14.015671 6.419372
vertex 2.508602 14.015671 6.439372
vertex 2.508602 14.015671 6.419372
endloop
endfacet
facet normal 0 0 0
outer loop
vertex 2.529078 14.015671 6.439372
vertex 2.508602 14.015671 6.419372
vertex 2.508602 14.015671 6.439372
endloop
endfacet
facet normal 0 0 0
outer loop
vertex 2.365271 14.036425 6.419372
vertex 2.344795 14.057178 6.439372
vertex 2.365271 14.057178 6.419372
endloop
endfacet
facet normal 0 0 0
outer loop
vertex 2.344795 14.036425 6.439372
vertex 2.344795 14.057178 6.439372
vertex 2.365271 14.036425 6.419372
endloop
endfacet
facet normal 0 0 0
outer loop
vertex 2.385747 14.057178 6.419372
vertex 2.365271 14.057178 6.439372
vertex 2.385747 14.036425 6.439372
endloop
endfacet
facet normal 0 0 0
outer loop
vertex 2.385747 14.036425 6.439372
vertex 2.406222 14.036425 6.419372
vertex 2.385747 14.057178 6.419372
endloop
endfacet
facet normal 0 0 0
outer loop
vertex 2.406222 14.036425 6.419372
vertex 2.406222 14.057178 6.419372
vertex 2.385747 14.057178 6.419372
endloop
endfacet
facet normal 0 0 0
outer loop
vertex 2.365271 14.057178 6.419372
vertex 2.344795 14.077931 6.439372
vertex 2.365271 14.077931 6.419372
endloop
endfacet
facet normal 0 0 0
outer loop
vertex 2.344795 14.057178 6.439372
vertex 2.344795 14.077931 6.439372
vertex 2.365271 14.057178 6.419372
endloop
endfacet
facet normal 0 0 0
outer loop
vertex 2.385747 14.077931 6.439372
vertex 2.365271 14.057178 6.439372
vertex 2.365271 14.077931 6.419372
endloop
endfacet
facet normal 0 0 0
outer loop
vertex 2.385747 14.057178 6.419372
vertex 2.365271 14.077931 6.419372
vertex 2.365271 14.057178 6.439372
endloop
endfacet
facet normal 0 0 0
outer loop
vertex 2.344795 14.098684 6.419372
vertex 2.344795 14.077931 6.439372
vertex 2.344795 14.098684 6.439372
endloop
endfacet
facet normal 0 0 0
outer loop
vertex 2.365271 14.077931 6.419372
vertex 2.344795 14.077931 6.439372
vertex 2.344795 14.098684 6.419372
endloop
endfacet
facet normal 0 0 0
outer loop
vertex 2.365271 14.077931 6.439372
vertex 2.365271 14.098684 6.419372
vertex 2.344795 14.098684 6.439372
endloop
endfacet
facet normal 0 0 0
outer loop
vertex 2.385747 14.077931 6.439372
vertex 2.365271 14.098684 6.419372
vertex 2.365271 14.077931 6.439372
endloop
endfacet
facet normal 0 0 0
outer loop
vertex 2.385747 14.077931 6.439372
vertex 2.365271 14.077931 6.419372
vertex 2.365271 14.098684 6.419372
endloop
endfacet
facet normal 0 0 0
outer loop
vertex 2.344795 14.098684 6.439372
vertex 2.365271 14.098684 6.419372
vertex 2.344795 14.098684 6.419372
endloop
endfacet
facet normal 0 0 0
outer loop
vertex 2.344795 14.036425 6.439372
vertex 2.365271 14.015671 6.439372
vertex 2.365271 14.036425 6.439372
endloop
endfacet
facet normal 0 0 0
outer loop
vertex 2.365271 14.015671 6.439372
vertex 2.385747 14.036425 6.439372
vertex 2.365271 14.036425 6.439372
endloop
endfacet
facet normal 0 0 0
outer loop
vertex 2.365271 14.036425 6.439372
vertex 2.365271 14.057178 6.439372
vertex 2.344795 14.036425 6.439372
endloop
endfacet
facet normal 0 0 0
outer loop
vertex 2.365271 14.057178 6.439372
vertex 2.344795 14.057178 6.439372
vertex 2.344795 14.036425 6.439372
endloop
endfacet
facet normal 0 0 0
outer loop
vertex 2.385747 14.036425 6.439372
vertex 2.365271 14.057178 6.439372
vertex 2.365271 14.036425 6.439372
endloop
endfacet
facet normal 0 0 0
outer loop
vertex 2.365271 14.057178 6.439372
vertex 2.365271 14.077931 6.439372
vertex 2.344795 14.057178 6.439372
endloop
endfacet
facet normal 0 0 0
outer loop
vertex 2.365271 14.077931 6.439372
vertex 2.344795 14.077931 6.439372
vertex 2.344795 14.057178 6.439372
endloop
endfacet
facet normal 0 0 0
outer loop
vertex 2.365271 14.057178 6.439372
vertex 2.385747 14.077931 6.439372
vertex 2.365271 14.077931 6.439372
endloop
endfacet
facet normal 0 0 0
outer loop
vertex 2.365271 14.077931 6.439372
vertex 2.344795 14.098684 6.439372
vertex 2.344795 14.077931 6.439372
endloop
endfacet
endsolid B-16-Plag.106
