solid B-16-Plag.101
facet normal 0 0 0
outer loop
vertex 8.938004 9.657474 6.219372
vertex 8.917526 9.678227 6.219372
vertex 8.938004 9.678227 6.219372
endloop
endfacet
facet normal 0 0 0
outer loop
vertex 8.958479 9.657474 6.219372
vertex 8.938004 9.657474 6.219372
vertex 8.958479 9.678227 6.219372
endloop
endfacet
facet normal 0 0 0
outer loop
vertex 8.958479 9.678227 6.219372
vertex 8.938004 9.657474 6.219372
vertex 8.938004 9.678227 6.219372
endloop
endfacet
facet normal 0 0 0
outer loop
vertex 8.978954 9.657474 6.219372
vertex 8.958479 9.657474 6.219372
vertex 8.978954 9.678227 6.219372
endloop
endfacet
facet normal 0 0 0
outer loop
vertex 8.978954 9.678227 6.219372
vertex 8.958479 9.657474 6.219372
vertex 8.958479 9.678227 6.219372
endloop
endfacet
facet normal 0 0 0
outer loop
vertex 8.897051 9.678227 6.219372
vertex 8.876575 9.698980 6.219372
vertex 8.897051 9.698980 6.219372
endloop
endfacet
facet normal 0 0 0
outer loop
vertex 8.917526 9.678227 6.219372
vertex 8.897051 9.678227 6.219372
vertex 8.917526 9.698980 6.219372
endloop
endfacet
facet normal 0 0 0
outer loop
vertex 8.917526 9.698980 6.219372
vertex 8.897051 9.678227 6.219372
vertex 8.897051 9.698980 6.219372
endloop
endfacet
facet normal 0 0 0
outer loop
vertex 8.938004 9.678227 6.219372
vertex 8.917526 9.678227 6.219372
vertex 8.938004 9.698980 6.219372
endloop
endfacet
facet normal 0 0 0
outer loop
vertex 8.938004 9.698980 6.219372
vertex 8.917526 9.678227 6.219372
vertex 8.917526 9.698980 6.219372
endloop
endfacet
facet normal 0 0 0
outer loop
vertex 8.958479 9.678227 6.219372
vertex 8.938004 9.678227 6.219372
vertex 8.958479 9.698980 6.219372
endloop
endfacet
facet normal 0 0 0
outer loop
vertex 8.958479 9.698980 6.219372
vertex 8.938004 9.678227 6.219372
vertex 8.938004 9.698980 6.219372
endloop
endfacet
facet normal 0 0 0
outer loop
vertex 8.978954 9.678227 6.219372
vertex 8.958479 9.678227 6.219372
vertex 8.978954 9.698980 6.219372
endloop
endfacet
facet normal 0 0 0
outer loop
vertex 8.978954 9.698980 6.219372
vertex 8.958479 9.678227 6.219372
vertex 8.958479 9.698980 6.219372
endloop
endfacet
facet normal 0 0 0
outer loop
vertex 8.999430 9.698980 6.219372
vertex 8.978954 9.678227 6.219372
vertex 8.978954 9.698980 6.219372
endloop
endfacet
facet normal 0 0 0
outer loop
vertex 8.876575 9.698980 6.219372
vertex 8.897051 9.719733 6.219372
vertex 8.897051 9.698980 6.219372
endloop
endfacet
facet normal 0 0 0
outer loop
vertex 8.917526 9.698980 6.219372
vertex 8.897051 9.698980 6.219372
vertex 8.917526 9.719733 6.219372
endloop
endfacet
facet normal 0 0 0
outer loop
vertex 8.917526 9.719733 6.219372
vertex 8.897051 9.698980 6.219372
vertex 8.897051 9.719733 6.219372
endloop
endfacet
facet normal 0 0 0
outer loop
vertex 8.938004 9.698980 6.219372
vertex 8.917526 9.698980 6.219372
vertex 8.938004 9.719733 6.219372
endloop
endfacet
facet normal 0 0 0
outer loop
vertex 8.938004 9.719733 6.219372
vertex 8.917526 9.698980 6.219372
vertex 8.917526 9.719733 6.219372
endloop
endfacet
facet normal 0 0 0
outer loop
vertex 8.958479 9.698980 6.219372
vertex 8.938004 9.698980 6.219372
vertex 8.958479 9.719733 6.219372
endloop
endfacet
facet normal 0 0 0
outer loop
vertex 8.958479 9.719733 6.219372
vertex 8.938004 9.698980 6.219372
vertex 8.938004 9.719733 6.219372
endloop
endfacet
facet normal 0 0 0
outer loop
vertex 8.978954 9.698980 6.219372
vertex 8.958479 9.698980 6.219372
vertex 8.978954 9.719733 6.219372
endloop
endfacet
facet normal 0 0 0
outer loop
vertex 8.978954 9.719733 6.219372
vertex 8.958479 9.698980 6.219372
vertex 8.958479 9.719733 6.219372
endloop
endfacet
facet normal 0 0 0
outer loop
vertex 8.978954 9.719733 6.219372
vertex 8.999430 9.698980 6.219372
vertex 8.978954 9.698980 6.219372
endloop
endfacet
facet normal 0 0 0
outer loop
vertex 8.917526 9.678227 6.219372
vertex 8.917526 9.678227 6.239372
vertex 8.897051 9.678227 6.219372
endloop
endfacet
facet normal 0 0 0
outer loop
vertex 8.897051 9.678227 6.219372
vertex 8.917526 9.678227 6.239372
vertex 8.897051 9.678227 6.239372
endloop
endfacet
facet normal 0 0 0
outer loop
vertex 8.938004 9.657474 6.219372
vertex 8.938004 9.678227 6.239372
vertex 8.917526 9.678227 6.219372
endloop
endfacet
facet normal 0 0 0
outer loop
vertex 8.938004 9.678227 6.239372
vertex 8.917526 9.678227 6.239372
vertex 8.917526 9.678227 6.219372
endloop
endfacet
facet normal 0 0 0
outer loop
vertex 8.958479 9.657474 6.219372
vertex 8.938004 9.678227 6.239372
vertex 8.938004 9.657474 6.219372
endloop
endfacet
facet normal 0 0 0
outer loop
vertex 8.958479 9.678227 6.239372
vertex 8.938004 9.678227 6.239372
vertex 8.958479 9.657474 6.219372
endloop
endfacet
facet normal 0 0 0
outer loop
vertex 8.978954 9.657474 6.219372
vertex 8.958479 9.678227 6.239372
vertex 8.958479 9.657474 6.219372
endloop
endfacet
facet normal 0 0 0
outer loop
vertex 8.978954 9.678227 6.239372
vertex 8.958479 9.678227 6.239372
vertex 8.978954 9.657474 6.219372
endloop
endfacet
facet normal 0 0 0
outer loop
vertex 8.978954 9.678227 6.239372
vertex 8.978954 9.657474 6.219372
vertex 8.978954 9.678227 6.219372
endloop
endfacet
facet normal 0 0 0
outer loop
vertex 8.856100 9.698980 6.239372
vertex 8.876575 9.698980 6.219372
vertex 8.876575 9.698980 6.239372
endloop
endfacet
facet normal 0 0 0
outer loop
vertex 8.897051 9.678227 6.239372
vertex 8.876575 9.698980 6.219372
vertex 8.897051 9.678227 6.219372
endloop
endfacet
facet normal 0 0 0
outer loop
vertex 8.876575 9.698980 6.239372
vertex 8.876575 9.698980 6.219372
vertex 8.897051 9.678227 6.239372
endloop
endfacet
facet normal 0 0 0
outer loop
vertex 8.978954 9.678227 6.219372
vertex 8.999430 9.698980 6.239372
vertex 8.978954 9.678227 6.239372
endloop
endfacet
facet normal 0 0 0
outer loop
vertex 8.999430 9.698980 6.219372
vertex 8.999430 9.698980 6.239372
vertex 8.978954 9.678227 6.219372
endloop
endfacet
facet normal 0 0 0
outer loop
vertex 8.876575 9.698980 6.219372
vertex 8.856100 9.698980 6.239372
vertex 8.876575 9.719733 6.239372
endloop
endfacet
facet normal 0 0 0
outer loop
vertex 8.876575 9.698980 6.219372
vertex 8.876575 9.719733 6.239372
vertex 8.897051 9.719733 6.219372
endloop
endfacet
facet normal 0 0 0
outer loop
vertex 8.999430 9.698980 6.219372
vertex 8.978954 9.719733 6.219372
vertex 8.999430 9.719733 6.239372
endloop
endfacet
facet normal 0 0 0
outer loop
vertex 8.999430 9.698980 6.219372
vertex 8.999430 9.719733 6.239372
vertex 8.999430 9.698980 6.239372
endloop
endfacet
facet normal 0 0 0
outer loop
vertex 8.897051 9.719733 6.219372
vertex 8.876575 9.719733 6.239372
vertex 8.897051 9.740487 6.239372
endloop
endfacet
facet normal 0 0 0
outer loop
vertex 8.897051 9.719733 6.219372
vertex 8.917526 9.740487 6.239372
vertex 8.917526 9.719733 6.219372
endloop
endfacet
facet normal 0 0 0
outer loop
vertex 8.897051 9.740487 6.239372
vertex 8.917526 9.740487 6.239372
vertex 8.897051 9.719733 6.219372
endloop
endfacet
facet normal 0 0 0
outer loop
vertex 8.917526 9.719733 6.219372
vertex 8.938004 9.740487 6.239372
vertex 8.938004 9.719733 6.219372
endloop
endfacet
facet normal 0 0 0
outer loop
vertex 8.917526 9.740487 6.239372
vertex 8.938004 9.740487 6.239372
vertex 8.917526 9.719733 6.219372
endloop
endfacet
facet normal 0 0 0
outer loop
vertex 8.938004 9.719733 6.219372
vertex 8.958479 9.740487 6.239372
vertex 8.958479 9.719733 6.219372
endloop
endfacet
facet normal 0 0 0
outer loop
vertex 8.938004 9.740487 6.239372
vertex 8.958479 9.740487 6.239372
vertex 8.938004 9.719733 6.219372
endloop
endfacet
facet normal 0 0 0
outer loop
vertex 8.958479 9.719733 6.219372
vertex 8.978954 9.740487 6.239372
vertex 8.978954 9.719733 6.219372
endloop
endfacet
facet normal 0 0 0
outer loop
vertex 8.958479 9.740487 6.239372
vertex 8.978954 9.740487 6.239372
vertex 8.958479 9.719733 6.219372
endloop
endfacet
facet normal 0 0 0
outer loop
vertex 8.978954 9.719733 6.219372
vertex 8.978954 9.740487 6.239372
vertex 8.999430 9.719733 6.239372
endloop
endfacet
facet normal 0 0 0
outer loop
vertex 8.978954 9.740487 6.239372
vertex 8.999430 9.740487 6.239372
vertex 8.999430 9.719733 6.239372
endloop
endfacet
facet normal 0 0 0
outer loop
vertex 8.876575 9.678227 6.259372
vertex 8.897051 9.678227 6.239372
vertex 8.897051 9.678227 6.259372
endloop
endfacet
facet normal 0 0 0
outer loop
vertex 8.917526 9.657474 6.259372
vertex 8.897051 9.678227 6.259372
vertex 8.917526 9.678227 6.239372
endloop
endfacet
facet normal 0 0 0
outer loop
vertex 8.897051 9.678227 6.259372
vertex 8.897051 9.678227 6.239372
vertex 8.917526 9.678227 6.239372
endloop
endfacet
facet normal 0 0 0
outer loop
vertex 8.938004 9.678227 6.239372
vertex 8.917526 9.657474 6.259372
vertex 8.917526 9.678227 6.239372
endloop
endfacet
facet normal 0 0 0
outer loop
vertex 8.938004 9.657474 6.259372
vertex 8.917526 9.657474 6.259372
vertex 8.938004 9.678227 6.239372
endloop
endfacet
facet normal 0 0 0
outer loop
vertex 8.958479 9.678227 6.239372
vertex 8.938004 9.657474 6.259372
vertex 8.938004 9.678227 6.239372
endloop
endfacet
facet normal 0 0 0
outer loop
vertex 8.958479 9.657474 6.259372
vertex 8.938004 9.657474 6.259372
vertex 8.958479 9.678227 6.239372
endloop
endfacet
facet normal 0 0 0
outer loop
vertex 8.958479 9.657474 6.259372
vertex 8.958479 9.678227 6.239372
vertex 8.978954 9.678227 6.259372
endloop
endfacet
facet normal 0 0 0
outer loop
vertex 8.958479 9.678227 6.239372
vertex 8.978954 9.678227 6.239372
vertex 8.978954 9.678227 6.259372
endloop
endfacet
facet normal 0 0 0
outer loop
vertex 8.978954 9.678227 6.239372
vertex 8.999430 9.678227 6.259372
vertex 8.978954 9.678227 6.259372
endloop
endfacet
facet normal 0 0 0
outer loop
vertex 8.876575 9.678227 6.259372
vertex 8.876575 9.698980 6.259372
vertex 8.856100 9.698980 6.239372
endloop
endfacet
facet normal 0 0 0
outer loop
vertex 8.876575 9.678227 6.259372
vertex 8.856100 9.698980 6.239372
vertex 8.876575 9.698980 6.239372
endloop
endfacet
facet normal 0 0 0
outer loop
vertex 8.897051 9.678227 6.239372
vertex 8.876575 9.678227 6.259372
vertex 8.876575 9.698980 6.239372
endloop
endfacet
facet normal 0 0 0
outer loop
vertex 8.978954 9.678227 6.239372
vertex 8.999430 9.698980 6.239372
vertex 8.999430 9.678227 6.259372
endloop
endfacet
facet normal 0 0 0
outer loop
vertex 8.999430 9.678227 6.259372
vertex 8.999430 9.698980 6.239372
vertex 8.999430 9.698980 6.259372
endloop
endfacet
facet normal 0 0 0
outer loop
vertex 8.856100 9.719733 6.259372
vertex 8.876575 9.719733 6.239372
vertex 8.876575 9.698980 6.259372
endloop
endfacet
facet normal 0 0 0
outer loop
vertex 8.856100 9.698980 6.239372
vertex 8.876575 9.698980 6.259372
vertex 8.876575 9.719733 6.239372
endloop
endfacet
facet normal 0 0 0
outer loop
vertex 8.999430 9.698980 6.239372
vertex 8.999430 9.719733 6.239372
vertex 8.999430 9.698980 6.259372
endloop
endfacet
facet normal 0 0 0
outer loop
vertex 8.999430 9.698980 6.259372
vertex 8.999430 9.719733 6.239372
vertex 8.999430 9.719733 6.259372
endloop
endfacet
facet normal 0 0 0
outer loop
vertex 8.876575 9.719733 6.239372
vertex 8.856100 9.719733 6.259372
vertex 8.876575 9.719733 6.259372
endloop
endfacet
facet normal 0 0 0
outer loop
vertex 8.876575 9.719733 6.259372
vertex 8.897051 9.740487 6.239372
vertex 8.876575 9.719733 6.239372
endloop
endfacet
facet normal 0 0 0
outer loop
vertex 8.897051 9.740487 6.259372
vertex 8.897051 9.740487 6.239372
vertex 8.876575 9.719733 6.259372
endloop
endfacet
facet normal 0 0 0
outer loop
vertex 9.019905 9.740487 6.259372
vertex 8.999430 9.719733 6.259372
vertex 8.999430 9.740487 6.239372
endloop
endfacet
facet normal 0 0 0
outer loop
vertex 8.999430 9.719733 6.259372
vertex 8.999430 9.719733 6.239372
vertex 8.999430 9.740487 6.239372
endloop
endfacet
facet normal 0 0 0
outer loop
vertex 8.917526 9.761240 6.259372
vertex 8.917526 9.740487 6.239372
vertex 8.897051 9.740487 6.259372
endloop
endfacet
facet normal 0 0 0
outer loop
vertex 8.917526 9.740487 6.239372
vertex 8.897051 9.740487 6.239372
vertex 8.897051 9.740487 6.259372
endloop
endfacet
facet normal 0 0 0
outer loop
vertex 8.917526 9.740487 6.239372
vertex 8.938004 9.761240 6.259372
vertex 8.938004 9.740487 6.239372
endloop
endfacet
facet normal 0 0 0
outer loop
vertex 8.917526 9.761240 6.259372
vertex 8.938004 9.761240 6.259372
vertex 8.917526 9.740487 6.239372
endloop
endfacet
facet normal 0 0 0
outer loop
vertex 8.938004 9.740487 6.239372
vertex 8.958479 9.761240 6.259372
vertex 8.958479 9.740487 6.239372
endloop
endfacet
facet normal 0 0 0
outer loop
vertex 8.938004 9.761240 6.259372
vertex 8.958479 9.761240 6.259372
vertex 8.938004 9.740487 6.239372
endloop
endfacet
facet normal 0 0 0
outer loop
vertex 8.958479 9.740487 6.239372
vertex 8.978954 9.761240 6.259372
vertex 8.978954 9.740487 6.239372
endloop
endfacet
facet normal 0 0 0
outer loop
vertex 8.958479 9.761240 6.259372
vertex 8.978954 9.761240 6.259372
vertex 8.958479 9.740487 6.239372
endloop
endfacet
facet normal 0 0 0
outer loop
vertex 8.978954 9.740487 6.239372
vertex 8.999430 9.761240 6.259372
vertex 8.999430 9.740487 6.239372
endloop
endfacet
facet normal 0 0 0
outer loop
vertex 8.978954 9.761240 6.259372
vertex 8.999430 9.761240 6.259372
vertex 8.978954 9.740487 6.239372
endloop
endfacet
facet normal 0 0 0
outer loop
vertex 8.999430 9.740487 6.239372
vertex 8.999430 9.761240 6.259372
vertex 9.019905 9.740487 6.259372
endloop
endfacet
facet normal 0 0 0
outer loop
vertex 8.999430 9.761240 6.259372
vertex 9.019905 9.761240 6.259372
vertex 9.019905 9.740487 6.259372
endloop
endfacet
facet normal 0 0 0
outer loop
vertex 8.856100 9.678227 6.279372
vertex 8.876575 9.678227 6.259372
vertex 8.876575 9.678227 6.279372
endloop
endfacet
facet normal 0 0 0
outer loop
vertex 8.897051 9.678227 6.259372
vertex 8.897051 9.678227 6.279372
vertex 8.876575 9.678227 6.259372
endloop
endfacet
facet normal 0 0 0
outer loop
vertex 8.876575 9.678227 6.259372
vertex 8.897051 9.678227 6.279372
vertex 8.876575 9.678227 6.279372
endloop
endfacet
facet normal 0 0 0
outer loop
vertex 8.917526 9.657474 6.259372
vertex 8.917526 9.678227 6.279372
vertex 8.897051 9.678227 6.259372
endloop
endfacet
facet normal 0 0 0
outer loop
vertex 8.917526 9.678227 6.279372
vertex 8.897051 9.678227 6.279372
vertex 8.897051 9.678227 6.259372
endloop
endfacet
facet normal 0 0 0
outer loop
vertex 8.938004 9.657474 6.259372
vertex 8.917526 9.678227 6.279372
vertex 8.917526 9.657474 6.259372
endloop
endfacet
facet normal 0 0 0
outer loop
vertex 8.938004 9.678227 6.279372
vertex 8.917526 9.678227 6.279372
vertex 8.938004 9.657474 6.259372
endloop
endfacet
facet normal 0 0 0
outer loop
vertex 8.958479 9.657474 6.259372
vertex 8.938004 9.678227 6.279372
vertex 8.938004 9.657474 6.259372
endloop
endfacet
facet normal 0 0 0
outer loop
vertex 8.958479 9.678227 6.279372
vertex 8.938004 9.678227 6.279372
vertex 8.958479 9.657474 6.259372
endloop
endfacet
facet normal 0 0 0
outer loop
vertex 8.958479 9.657474 6.259372
vertex 8.978954 9.678227 6.259372
vertex 8.958479 9.678227 6.279372
endloop
endfacet
facet normal 0 0 0
outer loop
vertex 8.978954 9.678227 6.259372
vertex 8.978954 9.678227 6.279372
vertex 8.958479 9.678227 6.279372
endloop
endfacet
facet normal 0 0 0
outer loop
vertex 8.999430 9.678227 6.259372
vertex 8.978954 9.678227 6.279372
vertex 8.978954 9.678227 6.259372
endloop
endfacet
facet normal 0 0 0
outer loop
vertex 8.856100 9.678227 6.279372
vertex 8.835625 9.698980 6.279372
vertex 8.856100 9.698980 6.279372
endloop
endfacet
facet normal 0 0 0
outer loop
vertex 8.876575 9.678227 6.259372
vertex 8.856100 9.698980 6.279372
vertex 8.876575 9.698980 6.259372
endloop
endfacet
facet normal 0 0 0
outer loop
vertex 8.856100 9.678227 6.279372
vertex 8.856100 9.698980 6.279372
vertex 8.876575 9.678227 6.259372
endloop
endfacet
facet normal 0 0 0
outer loop
vertex 8.999430 9.678227 6.259372
vertex 8.999430 9.698980 6.279372
vertex 8.978954 9.678227 6.279372
endloop
endfacet
facet normal 0 0 0
outer loop
vertex 8.999430 9.698980 6.279372
vertex 8.999430 9.678227 6.259372
vertex 8.999430 9.698980 6.259372
endloop
endfacet
facet normal 0 0 0
outer loop
vertex 8.835625 9.698980 6.279372
vertex 8.856100 9.719733 6.279372
vertex 8.856100 9.698980 6.279372
endloop
endfacet
facet normal 0 0 0
outer loop
vertex 8.856100 9.698980 6.279372
vertex 8.856100 9.719733 6.279372
vertex 8.856100 9.719733 6.259372
endloop
endfacet
facet normal 0 0 0
outer loop
vertex 8.856100 9.719733 6.259372
vertex 8.856100 9.719733 6.279372
vertex 8.835625 9.719733 6.259372
endloop
endfacet
facet normal 0 0 0
outer loop
vertex 8.876575 9.698980 6.259372
vertex 8.856100 9.698980 6.279372
vertex 8.856100 9.719733 6.259372
endloop
endfacet
facet normal 0 0 0
outer loop
vertex 8.999430 9.698980 6.259372
vertex 8.999430 9.719733 6.259372
vertex 8.999430 9.698980 6.279372
endloop
endfacet
facet normal 0 0 0
outer loop
vertex 8.999430 9.698980 6.279372
vertex 8.999430 9.719733 6.259372
vertex 8.999430 9.719733 6.279372
endloop
endfacet
facet normal 0 0 0
outer loop
vertex 8.835625 9.719733 6.259372
vertex 8.856100 9.740487 6.279372
vertex 8.856100 9.719733 6.259372
endloop
endfacet
facet normal 0 0 0
outer loop
vertex 8.835625 9.719733 6.259372
vertex 8.856100 9.719733 6.279372
vertex 8.856100 9.740487 6.279372
endloop
endfacet
facet normal 0 0 0
outer loop
vertex 8.856100 9.719733 6.259372
vertex 8.876575 9.740487 6.279372
vertex 8.876575 9.719733 6.259372
endloop
endfacet
facet normal 0 0 0
outer loop
vertex 8.856100 9.740487 6.279372
vertex 8.876575 9.740487 6.279372
vertex 8.856100 9.719733 6.259372
endloop
endfacet
facet normal 0 0 0
outer loop
vertex 8.876575 9.719733 6.259372
vertex 8.876575 9.740487 6.279372
vertex 8.897051 9.740487 6.259372
endloop
endfacet
facet normal 0 0 0
outer loop
vertex 8.999430 9.719733 6.259372
vertex 9.019905 9.740487 6.279372
vertex 8.999430 9.719733 6.279372
endloop
endfacet
facet normal 0 0 0
outer loop
vertex 9.019905 9.740487 6.259372
vertex 9.019905 9.740487 6.279372
vertex 8.999430 9.719733 6.259372
endloop
endfacet
facet normal 0 0 0
outer loop
vertex 8.897051 9.740487 6.259372
vertex 8.876575 9.740487 6.279372
vertex 8.897051 9.761240 6.279372
endloop
endfacet
facet normal 0 0 0
outer loop
vertex 8.897051 9.740487 6.259372
vertex 8.897051 9.761240 6.279372
vertex 8.917526 9.761240 6.259372
endloop
endfacet
facet normal 0 0 0
outer loop
vertex 9.019905 9.740487 6.259372
vertex 9.019905 9.761240 6.259372
vertex 9.019905 9.740487 6.279372
endloop
endfacet
facet normal 0 0 0
outer loop
vertex 9.019905 9.740487 6.279372
vertex 9.019905 9.761240 6.259372
vertex 9.019905 9.761240 6.279372
endloop
endfacet
facet normal 0 0 0
outer loop
vertex 8.917526 9.761240 6.259372
vertex 8.897051 9.761240 6.279372
vertex 8.917526 9.781994 6.279372
endloop
endfacet
facet normal 0 0 0
outer loop
vertex 8.917526 9.761240 6.259372
vertex 8.938004 9.781994 6.279372
vertex 8.938004 9.761240 6.259372
endloop
endfacet
facet normal 0 0 0
outer loop
vertex 8.917526 9.781994 6.279372
vertex 8.938004 9.781994 6.279372
vertex 8.917526 9.761240 6.259372
endloop
endfacet
facet normal 0 0 0
outer loop
vertex 8.938004 9.761240 6.259372
vertex 8.958479 9.781994 6.279372
vertex 8.958479 9.761240 6.259372
endloop
endfacet
facet normal 0 0 0
outer loop
vertex 8.938004 9.781994 6.279372
vertex 8.958479 9.781994 6.279372
vertex 8.938004 9.761240 6.259372
endloop
endfacet
facet normal 0 0 0
outer loop
vertex 8.958479 9.761240 6.259372
vertex 8.978954 9.781994 6.279372
vertex 8.978954 9.761240 6.259372
endloop
endfacet
facet normal 0 0 0
outer loop
vertex 8.958479 9.781994 6.279372
vertex 8.978954 9.781994 6.279372
vertex 8.958479 9.761240 6.259372
endloop
endfacet
facet normal 0 0 0
outer loop
vertex 8.978954 9.761240 6.259372
vertex 8.999430 9.781994 6.279372
vertex 8.999430 9.761240 6.259372
endloop
endfacet
facet normal 0 0 0
outer loop
vertex 8.978954 9.781994 6.279372
vertex 8.999430 9.781994 6.279372
vertex 8.978954 9.761240 6.259372
endloop
endfacet
facet normal 0 0 0
outer loop
vertex 8.999430 9.761240 6.259372
vertex 9.019905 9.781994 6.279372
vertex 9.019905 9.761240 6.259372
endloop
endfacet
facet normal 0 0 0
outer loop
vertex 8.999430 9.781994 6.279372
vertex 9.019905 9.781994 6.279372
vertex 8.999430 9.761240 6.259372
endloop
endfacet
facet normal 0 0 0
outer loop
vertex 9.019905 9.761240 6.259372
vertex 9.019905 9.781994 6.279372
vertex 9.019905 9.761240 6.279372
endloop
endfacet
facet normal 0 0 0
outer loop
vertex 8.938004 9.781994 6.279372
vertex 8.958479 9.802747 6.279372
vertex 8.958479 9.781994 6.279372
endloop
endfacet
facet normal 0 0 0
outer loop
vertex 8.978954 9.781994 6.279372
vertex 8.958479 9.781994 6.279372
vertex 8.978954 9.802747 6.279372
endloop
endfacet
facet normal 0 0 0
outer loop
vertex 8.978954 9.802747 6.279372
vertex 8.958479 9.781994 6.279372
vertex 8.958479 9.802747 6.279372
endloop
endfacet
facet normal 0 0 0
outer loop
vertex 8.999430 9.781994 6.279372
vertex 8.978954 9.781994 6.279372
vertex 8.999430 9.802747 6.279372
endloop
endfacet
facet normal 0 0 0
outer loop
vertex 8.999430 9.802747 6.279372
vertex 8.978954 9.781994 6.279372
vertex 8.978954 9.802747 6.279372
endloop
endfacet
facet normal 0 0 0
outer loop
vertex 9.019905 9.781994 6.279372
vertex 8.999430 9.781994 6.279372
vertex 9.019905 9.802747 6.279372
endloop
endfacet
facet normal 0 0 0
outer loop
vertex 9.019905 9.802747 6.279372
vertex 8.999430 9.781994 6.279372
vertex 8.999430 9.802747 6.279372
endloop
endfacet
facet normal 0 0 0
outer loop
vertex 8.876575 9.678227 6.279372
vertex 8.876575 9.678227 6.299372
vertex 8.856100 9.678227 6.279372
endloop
endfacet
facet normal 0 0 0
outer loop
vertex 8.856100 9.678227 6.279372
vertex 8.876575 9.678227 6.299372
vertex 8.856100 9.678227 6.299372
endloop
endfacet
facet normal 0 0 0
outer loop
vertex 8.897051 9.678227 6.279372
vertex 8.897051 9.678227 6.299372
vertex 8.876575 9.678227 6.279372
endloop
endfacet
facet normal 0 0 0
outer loop
vertex 8.876575 9.678227 6.279372
vertex 8.897051 9.678227 6.299372
vertex 8.876575 9.678227 6.299372
endloop
endfacet
facet normal 0 0 0
outer loop
vertex 8.917526 9.678227 6.279372
vertex 8.917526 9.678227 6.299372
vertex 8.897051 9.678227 6.279372
endloop
endfacet
facet normal 0 0 0
outer loop
vertex 8.897051 9.678227 6.279372
vertex 8.917526 9.678227 6.299372
vertex 8.897051 9.678227 6.299372
endloop
endfacet
facet normal 0 0 0
outer loop
vertex 8.938004 9.657474 6.299372
vertex 8.917526 9.678227 6.299372
vertex 8.938004 9.678227 6.279372
endloop
endfacet
facet normal 0 0 0
outer loop
vertex 8.917526 9.678227 6.299372
vertex 8.917526 9.678227 6.279372
vertex 8.938004 9.678227 6.279372
endloop
endfacet
facet normal 0 0 0
outer loop
vertex 8.958479 9.678227 6.279372
vertex 8.938004 9.657474 6.299372
vertex 8.938004 9.678227 6.279372
endloop
endfacet
facet normal 0 0 0
outer loop
vertex 8.958479 9.657474 6.299372
vertex 8.938004 9.657474 6.299372
vertex 8.958479 9.678227 6.279372
endloop
endfacet
facet normal 0 0 0
outer loop
vertex 8.958479 9.657474 6.299372
vertex 8.958479 9.678227 6.279372
vertex 8.978954 9.678227 6.299372
endloop
endfacet
facet normal 0 0 0
outer loop
vertex 8.958479 9.678227 6.279372
vertex 8.978954 9.678227 6.279372
vertex 8.978954 9.678227 6.299372
endloop
endfacet
facet normal 0 0 0
outer loop
vertex 8.835625 9.698980 6.279372
vertex 8.856100 9.678227 6.279372
vertex 8.856100 9.698980 6.299372
endloop
endfacet
facet normal 0 0 0
outer loop
vertex 8.856100 9.678227 6.279372
vertex 8.856100 9.678227 6.299372
vertex 8.856100 9.698980 6.299372
endloop
endfacet
facet normal 0 0 0
outer loop
vertex 8.978954 9.678227 6.279372
vertex 8.999430 9.698980 6.299372
vertex 8.978954 9.678227 6.299372
endloop
endfacet
facet normal 0 0 0
outer loop
vertex 8.999430 9.698980 6.279372
vertex 8.999430 9.698980 6.299372
vertex 8.978954 9.678227 6.279372
endloop
endfacet
facet normal 0 0 0
outer loop
vertex 8.835625 9.698980 6.279372
vertex 8.856100 9.698980 6.299372
vertex 8.856100 9.719733 6.279372
endloop
endfacet
facet normal 0 0 0
outer loop
vertex 8.856100 9.698980 6.299372
vertex 8.856100 9.719733 6.299372
vertex 8.856100 9.719733 6.279372
endloop
endfacet
facet normal 0 0 0
outer loop
vertex 8.999430 9.698980 6.279372
vertex 8.999430 9.719733 6.279372
vertex 8.999430 9.698980 6.299372
endloop
endfacet
facet normal 0 0 0
outer loop
vertex 8.999430 9.698980 6.299372
vertex 8.999430 9.719733 6.279372
vertex 8.999430 9.719733 6.299372
endloop
endfacet
facet normal 0 0 0
outer loop
vertex 8.856100 9.719733 6.299372
vertex 8.856100 9.740487 6.279372
vertex 8.856100 9.719733 6.279372
endloop
endfacet
facet normal 0 0 0
outer loop
vertex 8.856100 9.740487 6.279372
vertex 8.876575 9.719733 6.299372
vertex 8.876575 9.740487 6.279372
endloop
endfacet
facet normal 0 0 0
outer loop
vertex 8.856100 9.719733 6.299372
vertex 8.876575 9.719733 6.299372
vertex 8.856100 9.740487 6.279372
endloop
endfacet
facet normal 0 0 0
outer loop
vertex 8.876575 9.719733 6.299372
vertex 8.897051 9.740487 6.299372
vertex 8.876575 9.740487 6.279372
endloop
endfacet
facet normal 0 0 0
outer loop
vertex 8.999430 9.719733 6.279372
vertex 9.019905 9.740487 6.299372
vertex 8.999430 9.719733 6.299372
endloop
endfacet
facet normal 0 0 0
outer loop
vertex 9.019905 9.740487 6.279372
vertex 9.019905 9.740487 6.299372
vertex 8.999430 9.719733 6.279372
endloop
endfacet
facet normal 0 0 0
outer loop
vertex 8.876575 9.740487 6.279372
vertex 8.897051 9.740487 6.299372
vertex 8.897051 9.761240 6.279372
endloop
endfacet
facet normal 0 0 0
outer loop
vertex 8.897051 9.740487 6.299372
vertex 8.917526 9.761240 6.299372
vertex 8.897051 9.761240 6.279372
endloop
endfacet
facet normal 0 0 0
outer loop
vertex 9.019905 9.740487 6.279372
vertex 9.019905 9.761240 6.279372
vertex 9.019905 9.740487 6.299372
endloop
endfacet
facet normal 0 0 0
outer loop
vertex 9.019905 9.740487 6.299372
vertex 9.019905 9.761240 6.279372
vertex 9.019905 9.761240 6.299372
endloop
endfacet
facet normal 0 0 0
outer loop
vertex 8.897051 9.761240 6.279372
vertex 8.917526 9.761240 6.299372
vertex 8.917526 9.781994 6.279372
endloop
endfacet
facet normal 0 0 0
outer loop
vertex 8.917526 9.761240 6.299372
vertex 8.938004 9.781994 6.299372
vertex 8.917526 9.781994 6.279372
endloop
endfacet
facet normal 0 0 0
outer loop
vertex 9.019905 9.761240 6.279372
vertex 9.019905 9.781994 6.279372
vertex 9.019905 9.761240 6.299372
endloop
endfacet
facet normal 0 0 0
outer loop
vertex 9.019905 9.761240 6.299372
vertex 9.019905 9.781994 6.279372
vertex 9.019905 9.781994 6.299372
endloop
endfacet
facet normal 0 0 0
outer loop
vertex 8.917526 9.781994 6.279372
vertex 8.938004 9.781994 6.299372
vertex 8.938004 9.781994 6.279372
endloop
endfacet
facet normal 0 0 0
outer loop
vertex 8.958479 9.802747 6.279372
vertex 8.938004 9.781994 6.279372
vertex 8.958479 9.781994 6.299372
endloop
endfacet
facet normal 0 0 0
outer loop
vertex 8.938004 9.781994 6.279372
vertex 8.938004 9.781994 6.299372
vertex 8.958479 9.781994 6.299372
endloop
endfacet
facet normal 0 0 0
outer loop
vertex 8.958479 9.781994 6.299372
vertex 8.978954 9.802747 6.299372
vertex 8.958479 9.802747 6.279372
endloop
endfacet
facet normal 0 0 0
outer loop
vertex 9.019905 9.802747 6.279372
vertex 8.999430 9.802747 6.299372
vertex 9.019905 9.781994 6.299372
endloop
endfacet
facet normal 0 0 0
outer loop
vertex 9.019905 9.802747 6.279372
vertex 9.019905 9.781994 6.299372
vertex 9.019905 9.781994 6.279372
endloop
endfacet
facet normal 0 0 0
outer loop
vertex 8.958479 9.802747 6.279372
vertex 8.978954 9.802747 6.299372
vertex 8.978954 9.802747 6.279372
endloop
endfacet
facet normal 0 0 0
outer loop
vertex 8.999430 9.802747 6.279372
vertex 8.978954 9.802747 6.279372
vertex 8.999430 9.802747 6.299372
endloop
endfacet
facet normal 0 0 0
outer loop
vertex 8.978954 9.802747 6.279372
vertex 8.978954 9.802747 6.299372
vertex 8.999430 9.802747 6.299372
endloop
endfacet
facet normal 0 0 0
outer loop
vertex 8.999430 9.802747 6.299372
vertex 9.019905 9.802747 6.279372
vertex 8.999430 9.802747 6.279372
endloop
endfacet
facet normal 0 0 0
outer loop
vertex 8.876575 9.678227 6.299372
vertex 8.876575 9.678227 6.319372
vertex 8.856100 9.678227 6.299372
endloop
endfacet
facet normal 0 0 0
outer loop
vertex 8.856100 9.678227 6.299372
vertex 8.876575 9.678227 6.319372
vertex 8.856100 9.678227 6.319372
endloop
endfacet
facet normal 0 0 0
outer loop
vertex 8.897051 9.678227 6.299372
vertex 8.897051 9.678227 6.319372
vertex 8.876575 9.678227 6.299372
endloop
endfacet
facet normal 0 0 0
outer loop
vertex 8.876575 9.678227 6.299372
vertex 8.897051 9.678227 6.319372
vertex 8.876575 9.678227 6.319372
endloop
endfacet
facet normal 0 0 0
outer loop
vertex 8.917526 9.678227 6.299372
vertex 8.917526 9.678227 6.319372
vertex 8.897051 9.678227 6.299372
endloop
endfacet
facet normal 0 0 0
outer loop
vertex 8.897051 9.678227 6.299372
vertex 8.917526 9.678227 6.319372
vertex 8.897051 9.678227 6.319372
endloop
endfacet
facet normal 0 0 0
outer loop
vertex 8.938004 9.657474 6.299372
vertex 8.917526 9.678227 6.319372
vertex 8.917526 9.678227 6.299372
endloop
endfacet
facet normal 0 0 0
outer loop
vertex 8.938004 9.657474 6.299372
vertex 8.938004 9.678227 6.299372
vertex 8.917526 9.678227 6.319372
endloop
endfacet
facet normal 0 0 0
outer loop
vertex 8.958479 9.678227 6.319372
vertex 8.938004 9.678227 6.299372
vertex 8.958479 9.657474 6.299372
endloop
endfacet
facet normal 0 0 0
outer loop
vertex 8.938004 9.678227 6.299372
vertex 8.938004 9.657474 6.299372
vertex 8.958479 9.657474 6.299372
endloop
endfacet
facet normal 0 0 0
outer loop
vertex 8.978954 9.678227 6.299372
vertex 8.958479 9.678227 6.319372
vertex 8.958479 9.657474 6.299372
endloop
endfacet
facet normal 0 0 0
outer loop
vertex 8.856100 9.678227 6.299372
vertex 8.856100 9.678227 6.319372
vertex 8.856100 9.698980 6.299372
endloop
endfacet
facet normal 0 0 0
outer loop
vertex 8.856100 9.678227 6.319372
vertex 8.856100 9.698980 6.319372
vertex 8.856100 9.698980 6.299372
endloop
endfacet
facet normal 0 0 0
outer loop
vertex 8.938004 9.678227 6.299372
vertex 8.938004 9.698980 6.319372
vertex 8.917526 9.678227 6.319372
endloop
endfacet
facet normal 0 0 0
outer loop
vertex 8.958479 9.678227 6.319372
vertex 8.938004 9.698980 6.319372
vertex 8.938004 9.678227 6.299372
endloop
endfacet
facet normal 0 0 0
outer loop
vertex 8.978954 9.678227 6.299372
vertex 8.978954 9.698980 6.319372
vertex 8.958479 9.678227 6.319372
endloop
endfacet
facet normal 0 0 0
outer loop
vertex 8.978954 9.678227 6.299372
vertex 8.999430 9.698980 6.299372
vertex 8.978954 9.698980 6.319372
endloop
endfacet
facet normal 0 0 0
outer loop
vertex 8.999430 9.698980 6.299372
vertex 8.999430 9.698980 6.319372
vertex 8.978954 9.698980 6.319372
endloop
endfacet
facet normal 0 0 0
outer loop
vertex 8.856100 9.698980 6.299372
vertex 8.856100 9.698980 6.319372
vertex 8.856100 9.719733 6.299372
endloop
endfacet
facet normal 0 0 0
outer loop
vertex 8.856100 9.698980 6.319372
vertex 8.856100 9.719733 6.319372
vertex 8.856100 9.719733 6.299372
endloop
endfacet
facet normal 0 0 0
outer loop
vertex 8.999430 9.698980 6.299372
vertex 8.999430 9.719733 6.299372
vertex 8.999430 9.698980 6.319372
endloop
endfacet
facet normal 0 0 0
outer loop
vertex 8.999430 9.698980 6.319372
vertex 8.999430 9.719733 6.299372
vertex 8.999430 9.719733 6.319372
endloop
endfacet
facet normal 0 0 0
outer loop
vertex 8.876575 9.740487 6.319372
vertex 8.876575 9.719733 6.299372
vertex 8.856100 9.719733 6.319372
endloop
endfacet
facet normal 0 0 0
outer loop
vertex 8.876575 9.719733 6.299372
vertex 8.856100 9.719733 6.299372
vertex 8.856100 9.719733 6.319372
endloop
endfacet
facet normal 0 0 0
outer loop
vertex 8.876575 9.719733 6.299372
vertex 8.876575 9.740487 6.319372
vertex 8.897051 9.740487 6.299372
endloop
endfacet
facet normal 0 0 0
outer loop
vertex 9.019905 9.740487 6.299372
vertex 8.999430 9.740487 6.319372
vertex 8.999430 9.719733 6.299372
endloop
endfacet
facet normal 0 0 0
outer loop
vertex 8.999430 9.740487 6.319372
vertex 8.999430 9.719733 6.319372
vertex 8.999430 9.719733 6.299372
endloop
endfacet
facet normal 0 0 0
outer loop
vertex 8.897051 9.740487 6.299372
vertex 8.876575 9.740487 6.319372
vertex 8.897051 9.761240 6.319372
endloop
endfacet
facet normal 0 0 0
outer loop
vertex 8.897051 9.740487 6.299372
vertex 8.897051 9.761240 6.319372
vertex 8.917526 9.761240 6.299372
endloop
endfacet
facet normal 0 0 0
outer loop
vertex 9.019905 9.740487 6.299372
vertex 9.019905 9.761240 6.319372
vertex 8.999430 9.740487 6.319372
endloop
endfacet
facet normal 0 0 0
outer loop
vertex 9.019905 9.761240 6.319372
vertex 9.019905 9.740487 6.299372
vertex 9.019905 9.761240 6.299372
endloop
endfacet
facet normal 0 0 0
outer loop
vertex 8.917526 9.761240 6.299372
vertex 8.897051 9.761240 6.319372
vertex 8.917526 9.781994 6.319372
endloop
endfacet
facet normal 0 0 0
outer loop
vertex 8.917526 9.761240 6.299372
vertex 8.917526 9.781994 6.319372
vertex 8.938004 9.781994 6.299372
endloop
endfacet
facet normal 0 0 0
outer loop
vertex 9.019905 9.761240 6.299372
vertex 9.019905 9.781994 6.299372
vertex 9.019905 9.761240 6.319372
endloop
endfacet
facet normal 0 0 0
outer loop
vertex 9.019905 9.761240 6.319372
vertex 9.019905 9.781994 6.299372
vertex 9.019905 9.781994 6.319372
endloop
endfacet
facet normal 0 0 0
outer loop
vertex 8.938004 9.781994 6.299372
vertex 8.917526 9.781994 6.319372
vertex 8.938004 9.802747 6.319372
endloop
endfacet
facet normal 0 0 0
outer loop
vertex 8.917526 9.781994 6.319372
vertex 8.917526 9.802747 6.319372
vertex 8.938004 9.802747 6.319372
endloop
endfacet
facet normal 0 0 0
outer loop
vertex 8.938004 9.781994 6.299372
vertex 8.958479 9.802747 6.319372
vertex 8.958479 9.781994 6.299372
endloop
endfacet
facet normal 0 0 0
outer loop
vertex 8.938004 9.802747 6.319372
vertex 8.958479 9.802747 6.319372
vertex 8.938004 9.781994 6.299372
endloop
endfacet
facet normal 0 0 0
outer loop
vertex 8.958479 9.781994 6.299372
vertex 8.958479 9.802747 6.319372
vertex 8.978954 9.802747 6.299372
endloop
endfacet
facet normal 0 0 0
outer loop
vertex 9.019905 9.781994 6.299372
vertex 8.999430 9.802747 6.319372
vertex 9.019905 9.781994 6.319372
endloop
endfacet
facet normal 0 0 0
outer loop
vertex 8.999430 9.802747 6.299372
vertex 8.999430 9.802747 6.319372
vertex 9.019905 9.781994 6.299372
endloop
endfacet
facet normal 0 0 0
outer loop
vertex 8.978954 9.802747 6.299372
vertex 8.958479 9.802747 6.319372
vertex 8.978954 9.802747 6.319372
endloop
endfacet
facet normal 0 0 0
outer loop
vertex 8.999430 9.802747 6.299372
vertex 8.978954 9.802747 6.299372
vertex 8.999430 9.802747 6.319372
endloop
endfacet
facet normal 0 0 0
outer loop
vertex 8.978954 9.802747 6.299372
vertex 8.978954 9.802747 6.319372
vertex 8.999430 9.802747 6.319372
endloop
endfacet
facet normal 0 0 0
outer loop
vertex 8.876575 9.678227 6.319372
vertex 8.876575 9.698980 6.319372
vertex 8.856100 9.678227 6.319372
endloop
endfacet
facet normal 0 0 0
outer loop
vertex 8.876575 9.698980 6.319372
vertex 8.856100 9.698980 6.319372
vertex 8.856100 9.678227 6.319372
endloop
endfacet
facet normal 0 0 0
outer loop
vertex 8.897051 9.698980 6.339372
vertex 8.876575 9.698980 6.319372
vertex 8.897051 9.678227 6.319372
endloop
endfacet
facet normal 0 0 0
outer loop
vertex 8.876575 9.698980 6.319372
vertex 8.876575 9.678227 6.319372
vertex 8.897051 9.678227 6.319372
endloop
endfacet
facet normal 0 0 0
outer loop
vertex 8.917526 9.678227 6.319372
vertex 8.897051 9.698980 6.339372
vertex 8.897051 9.678227 6.319372
endloop
endfacet
facet normal 0 0 0
outer loop
vertex 8.917526 9.698980 6.339372
vertex 8.897051 9.698980 6.339372
vertex 8.917526 9.678227 6.319372
endloop
endfacet
facet normal 0 0 0
outer loop
vertex 8.917526 9.678227 6.319372
vertex 8.938004 9.698980 6.319372
vertex 8.917526 9.698980 6.339372
endloop
endfacet
facet normal 0 0 0
outer loop
vertex 8.938004 9.698980 6.319372
vertex 8.938004 9.698980 6.339372
vertex 8.917526 9.698980 6.339372
endloop
endfacet
facet normal 0 0 0
outer loop
vertex 8.958479 9.678227 6.319372
vertex 8.938004 9.698980 6.339372
vertex 8.938004 9.698980 6.319372
endloop
endfacet
facet normal 0 0 0
outer loop
vertex 8.958479 9.678227 6.319372
vertex 8.958479 9.698980 6.319372
vertex 8.938004 9.698980 6.339372
endloop
endfacet
facet normal 0 0 0
outer loop
vertex 8.958479 9.678227 6.319372
vertex 8.978954 9.698980 6.319372
vertex 8.958479 9.698980 6.319372
endloop
endfacet
facet normal 0 0 0
outer loop
vertex 8.876575 9.719733 6.339372
vertex 8.856100 9.719733 6.319372
vertex 8.876575 9.698980 6.319372
endloop
endfacet
facet normal 0 0 0
outer loop
vertex 8.856100 9.719733 6.319372
vertex 8.856100 9.698980 6.319372
vertex 8.876575 9.698980 6.319372
endloop
endfacet
facet normal 0 0 0
outer loop
vertex 8.897051 9.698980 6.339372
vertex 8.876575 9.719733 6.339372
vertex 8.876575 9.698980 6.319372
endloop
endfacet
facet normal 0 0 0
outer loop
vertex 8.958479 9.698980 6.319372
vertex 8.958479 9.719733 6.339372
vertex 8.938004 9.698980 6.339372
endloop
endfacet
facet normal 0 0 0
outer loop
vertex 8.978954 9.698980 6.319372
vertex 8.958479 9.719733 6.339372
vertex 8.958479 9.698980 6.319372
endloop
endfacet
facet normal 0 0 0
outer loop
vertex 8.978954 9.719733 6.339372
vertex 8.958479 9.719733 6.339372
vertex 8.978954 9.698980 6.319372
endloop
endfacet
facet normal 0 0 0
outer loop
vertex 8.999430 9.698980 6.319372
vertex 8.978954 9.719733 6.339372
vertex 8.978954 9.698980 6.319372
endloop
endfacet
facet normal 0 0 0
outer loop
vertex 8.999430 9.719733 6.339372
vertex 8.978954 9.719733 6.339372
vertex 8.999430 9.698980 6.319372
endloop
endfacet
facet normal 0 0 0
outer loop
vertex 8.999430 9.719733 6.339372
vertex 8.999430 9.698980 6.319372
vertex 8.999430 9.719733 6.319372
endloop
endfacet
facet normal 0 0 0
outer loop
vertex 8.856100 9.719733 6.319372
vertex 8.876575 9.719733 6.339372
vertex 8.876575 9.740487 6.319372
endloop
endfacet
facet normal 0 0 0
outer loop
vertex 8.876575 9.719733 6.339372
vertex 8.876575 9.740487 6.339372
vertex 8.876575 9.740487 6.319372
endloop
endfacet
facet normal 0 0 0
outer loop
vertex 8.999430 9.719733 6.319372
vertex 8.999430 9.740487 6.319372
vertex 8.999430 9.719733 6.339372
endloop
endfacet
facet normal 0 0 0
outer loop
vertex 8.999430 9.719733 6.339372
vertex 8.999430 9.740487 6.319372
vertex 8.999430 9.740487 6.339372
endloop
endfacet
facet normal 0 0 0
outer loop
vertex 8.876575 9.740487 6.339372
vertex 8.897051 9.761240 6.319372
vertex 8.876575 9.740487 6.319372
endloop
endfacet
facet normal 0 0 0
outer loop
vertex 8.897051 9.761240 6.339372
vertex 8.897051 9.761240 6.319372
vertex 8.876575 9.740487 6.339372
endloop
endfacet
facet normal 0 0 0
outer loop
vertex 9.019905 9.761240 6.319372
vertex 8.999430 9.761240 6.339372
vertex 8.999430 9.740487 6.319372
endloop
endfacet
facet normal 0 0 0
outer loop
vertex 8.999430 9.761240 6.339372
vertex 8.999430 9.740487 6.339372
vertex 8.999430 9.740487 6.319372
endloop
endfacet
facet normal 0 0 0
outer loop
vertex 8.897051 9.761240 6.339372
vertex 8.917526 9.781994 6.319372
vertex 8.897051 9.761240 6.319372
endloop
endfacet
facet normal 0 0 0
outer loop
vertex 8.917526 9.781994 6.339372
vertex 8.917526 9.781994 6.319372
vertex 8.897051 9.761240 6.339372
endloop
endfacet
facet normal 0 0 0
outer loop
vertex 9.019905 9.781994 6.319372
vertex 8.999430 9.761240 6.339372
vertex 9.019905 9.761240 6.319372
endloop
endfacet
facet normal 0 0 0
outer loop
vertex 8.999430 9.781994 6.339372
vertex 8.999430 9.761240 6.339372
vertex 9.019905 9.781994 6.319372
endloop
endfacet
facet normal 0 0 0
outer loop
vertex 8.917526 9.781994 6.319372
vertex 8.917526 9.781994 6.339372
vertex 8.917526 9.802747 6.319372
endloop
endfacet
facet normal 0 0 0
outer loop
vertex 8.917526 9.781994 6.339372
vertex 8.917526 9.802747 6.339372
vertex 8.917526 9.802747 6.319372
endloop
endfacet
facet normal 0 0 0
outer loop
vertex 9.019905 9.781994 6.319372
vertex 8.999430 9.802747 6.319372
vertex 8.999430 9.781994 6.339372
endloop
endfacet
facet normal 0 0 0
outer loop
vertex 8.999430 9.802747 6.319372
vertex 8.999430 9.802747 6.339372
vertex 8.999430 9.781994 6.339372
endloop
endfacet
facet normal 0 0 0
outer loop
vertex 8.938004 9.823501 6.339372
vertex 8.938004 9.802747 6.319372
vertex 8.917526 9.802747 6.339372
endloop
endfacet
facet normal 0 0 0
outer loop
vertex 8.938004 9.802747 6.319372
vertex 8.917526 9.802747 6.319372
vertex 8.917526 9.802747 6.339372
endloop
endfacet
facet normal 0 0 0
outer loop
vertex 8.938004 9.802747 6.319372
vertex 8.958479 9.823501 6.339372
vertex 8.958479 9.802747 6.319372
endloop
endfacet
facet normal 0 0 0
outer loop
vertex 8.938004 9.823501 6.339372
vertex 8.958479 9.823501 6.339372
vertex 8.938004 9.802747 6.319372
endloop
endfacet
facet normal 0 0 0
outer loop
vertex 8.958479 9.802747 6.319372
vertex 8.978954 9.823501 6.339372
vertex 8.978954 9.802747 6.319372
endloop
endfacet
facet normal 0 0 0
outer loop
vertex 8.958479 9.823501 6.339372
vertex 8.978954 9.823501 6.339372
vertex 8.958479 9.802747 6.319372
endloop
endfacet
facet normal 0 0 0
outer loop
vertex 8.978954 9.823501 6.339372
vertex 8.999430 9.802747 6.339372
vertex 8.978954 9.802747 6.319372
endloop
endfacet
facet normal 0 0 0
outer loop
vertex 8.999430 9.802747 6.339372
vertex 8.999430 9.802747 6.319372
vertex 8.978954 9.802747 6.319372
endloop
endfacet
facet normal 0 0 0
outer loop
vertex 8.876575 9.719733 6.339372
vertex 8.897051 9.698980 6.339372
vertex 8.897051 9.719733 6.339372
endloop
endfacet
facet normal 0 0 0
outer loop
vertex 8.917526 9.719733 6.359372
vertex 8.897051 9.719733 6.339372
vertex 8.917526 9.698980 6.339372
endloop
endfacet
facet normal 0 0 0
outer loop
vertex 8.897051 9.719733 6.339372
vertex 8.897051 9.698980 6.339372
vertex 8.917526 9.698980 6.339372
endloop
endfacet
facet normal 0 0 0
outer loop
vertex 8.938004 9.698980 6.339372
vertex 8.917526 9.719733 6.359372
vertex 8.917526 9.698980 6.339372
endloop
endfacet
facet normal 0 0 0
outer loop
vertex 8.938004 9.719733 6.359372
vertex 8.917526 9.719733 6.359372
vertex 8.938004 9.698980 6.339372
endloop
endfacet
facet normal 0 0 0
outer loop
vertex 8.938004 9.698980 6.339372
vertex 8.958479 9.719733 6.339372
vertex 8.938004 9.719733 6.359372
endloop
endfacet
facet normal 0 0 0
outer loop
vertex 8.958479 9.719733 6.339372
vertex 8.958479 9.719733 6.359372
vertex 8.938004 9.719733 6.359372
endloop
endfacet
facet normal 0 0 0
outer loop
vertex 8.978954 9.719733 6.339372
vertex 8.978954 9.719733 6.359372
vertex 8.958479 9.719733 6.339372
endloop
endfacet
facet normal 0 0 0
outer loop
vertex 8.958479 9.719733 6.339372
vertex 8.978954 9.719733 6.359372
vertex 8.958479 9.719733 6.359372
endloop
endfacet
facet normal 0 0 0
outer loop
vertex 8.999430 9.719733 6.339372
vertex 8.978954 9.719733 6.359372
vertex 8.978954 9.719733 6.339372
endloop
endfacet
facet normal 0 0 0
outer loop
vertex 8.876575 9.719733 6.339372
vertex 8.876575 9.740487 6.359372
vertex 8.876575 9.740487 6.339372
endloop
endfacet
facet normal 0 0 0
outer loop
vertex 8.897051 9.719733 6.339372
vertex 8.876575 9.740487 6.359372
vertex 8.876575 9.719733 6.339372
endloop
endfacet
facet normal 0 0 0
outer loop
vertex 8.897051 9.740487 6.359372
vertex 8.876575 9.740487 6.359372
vertex 8.897051 9.719733 6.339372
endloop
endfacet
facet normal 0 0 0
outer loop
vertex 8.917526 9.719733 6.359372
vertex 8.897051 9.740487 6.359372
vertex 8.897051 9.719733 6.339372
endloop
endfacet
facet normal 0 0 0
outer loop
vertex 8.999430 9.740487 6.339372
vertex 8.978954 9.719733 6.359372
vertex 8.999430 9.719733 6.339372
endloop
endfacet
facet normal 0 0 0
outer loop
vertex 8.978954 9.740487 6.359372
vertex 8.978954 9.719733 6.359372
vertex 8.999430 9.740487 6.339372
endloop
endfacet
facet normal 0 0 0
outer loop
vertex 8.876575 9.740487 6.359372
vertex 8.897051 9.761240 6.339372
vertex 8.876575 9.740487 6.339372
endloop
endfacet
facet normal 0 0 0
outer loop
vertex 8.897051 9.761240 6.359372
vertex 8.897051 9.761240 6.339372
vertex 8.876575 9.740487 6.359372
endloop
endfacet
facet normal 0 0 0
outer loop
vertex 8.999430 9.740487 6.339372
vertex 8.999430 9.761240 6.359372
vertex 8.978954 9.740487 6.359372
endloop
endfacet
facet normal 0 0 0
outer loop
vertex 8.999430 9.761240 6.359372
vertex 8.999430 9.740487 6.339372
vertex 8.999430 9.761240 6.339372
endloop
endfacet
facet normal 0 0 0
outer loop
vertex 8.897051 9.781994 6.359372
vertex 8.897051 9.761240 6.339372
vertex 8.897051 9.761240 6.359372
endloop
endfacet
facet normal 0 0 0
outer loop
vertex 8.897051 9.761240 6.339372
vertex 8.897051 9.781994 6.359372
vertex 8.917526 9.781994 6.339372
endloop
endfacet
facet normal 0 0 0
outer loop
vertex 8.999430 9.761240 6.339372
vertex 8.999430 9.781994 6.339372
vertex 8.999430 9.761240 6.359372
endloop
endfacet
facet normal 0 0 0
outer loop
vertex 8.999430 9.761240 6.359372
vertex 8.999430 9.781994 6.339372
vertex 8.999430 9.781994 6.359372
endloop
endfacet
facet normal 0 0 0
outer loop
vertex 8.917526 9.781994 6.339372
vertex 8.897051 9.802747 6.359372
vertex 8.917526 9.802747 6.339372
endloop
endfacet
facet normal 0 0 0
outer loop
vertex 8.897051 9.781994 6.359372
vertex 8.897051 9.802747 6.359372
vertex 8.917526 9.781994 6.339372
endloop
endfacet
facet normal 0 0 0
outer loop
vertex 8.999430 9.802747 6.339372
vertex 8.978954 9.802747 6.359372
vertex 8.999430 9.781994 6.359372
endloop
endfacet
facet normal 0 0 0
outer loop
vertex 8.999430 9.802747 6.339372
vertex 8.999430 9.781994 6.359372
vertex 8.999430 9.781994 6.339372
endloop
endfacet
facet normal 0 0 0
outer loop
vertex 8.917526 9.802747 6.339372
vertex 8.897051 9.802747 6.359372
vertex 8.917526 9.802747 6.359372
endloop
endfacet
facet normal 0 0 0
outer loop
vertex 8.917526 9.802747 6.359372
vertex 8.938004 9.823501 6.339372
vertex 8.917526 9.802747 6.339372
endloop
endfacet
facet normal 0 0 0
outer loop
vertex 8.938004 9.823501 6.359372
vertex 8.938004 9.823501 6.339372
vertex 8.917526 9.802747 6.359372
endloop
endfacet
facet normal 0 0 0
outer loop
vertex 8.999430 9.802747 6.339372
vertex 8.978954 9.823501 6.339372
vertex 8.978954 9.802747 6.359372
endloop
endfacet
facet normal 0 0 0
outer loop
vertex 8.978954 9.823501 6.339372
vertex 8.978954 9.823501 6.359372
vertex 8.978954 9.802747 6.359372
endloop
endfacet
facet normal 0 0 0
outer loop
vertex 8.958479 9.823501 6.339372
vertex 8.938004 9.823501 6.339372
vertex 8.958479 9.823501 6.359372
endloop
endfacet
facet normal 0 0 0
outer loop
vertex 8.938004 9.823501 6.339372
vertex 8.938004 9.823501 6.359372
vertex 8.958479 9.823501 6.359372
endloop
endfacet
facet normal 0 0 0
outer loop
vertex 8.978954 9.823501 6.339372
vertex 8.958479 9.823501 6.339372
vertex 8.978954 9.823501 6.359372
endloop
endfacet
facet normal 0 0 0
outer loop
vertex 8.958479 9.823501 6.339372
vertex 8.958479 9.823501 6.359372
vertex 8.978954 9.823501 6.359372
endloop
endfacet
facet normal 0 0 0
outer loop
vertex 8.917526 9.719733 6.359372
vertex 8.917526 9.740487 6.379372
vertex 8.897051 9.740487 6.359372
endloop
endfacet
facet normal 0 0 0
outer loop
vertex 8.938004 9.719733 6.359372
vertex 8.917526 9.740487 6.379372
vertex 8.917526 9.719733 6.359372
endloop
endfacet
facet normal 0 0 0
outer loop
vertex 8.938004 9.740487 6.379372
vertex 8.917526 9.740487 6.379372
vertex 8.938004 9.719733 6.359372
endloop
endfacet
facet normal 0 0 0
outer loop
vertex 8.938004 9.740487 6.379372
vertex 8.938004 9.719733 6.359372
vertex 8.958479 9.740487 6.359372
endloop
endfacet
facet normal 0 0 0
outer loop
vertex 8.938004 9.719733 6.359372
vertex 8.958479 9.719733 6.359372
vertex 8.958479 9.740487 6.359372
endloop
endfacet
facet normal 0 0 0
outer loop
vertex 8.978954 9.719733 6.359372
vertex 8.978954 9.740487 6.359372
vertex 8.958479 9.719733 6.359372
endloop
endfacet
facet normal 0 0 0
outer loop
vertex 8.978954 9.740487 6.359372
vertex 8.958479 9.740487 6.359372
vertex 8.958479 9.719733 6.359372
endloop
endfacet
facet normal 0 0 0
outer loop
vertex 8.876575 9.761240 6.379372
vertex 8.897051 9.761240 6.359372
vertex 8.897051 9.761240 6.379372
endloop
endfacet
facet normal 0 0 0
outer loop
vertex 8.897051 9.761240 6.379372
vertex 8.897051 9.761240 6.359372
vertex 8.897051 9.740487 6.359372
endloop
endfacet
facet normal 0 0 0
outer loop
vertex 8.897051 9.740487 6.359372
vertex 8.897051 9.761240 6.359372
vertex 8.876575 9.740487 6.359372
endloop
endfacet
facet normal 0 0 0
outer loop
vertex 8.917526 9.740487 6.379372
vertex 8.897051 9.761240 6.379372
vertex 8.897051 9.740487 6.359372
endloop
endfacet
facet normal 0 0 0
outer loop
vertex 8.958479 9.740487 6.359372
vertex 8.958479 9.761240 6.379372
vertex 8.938004 9.740487 6.379372
endloop
endfacet
facet normal 0 0 0
outer loop
vertex 8.958479 9.761240 6.379372
vertex 8.958479 9.740487 6.359372
vertex 8.978954 9.761240 6.359372
endloop
endfacet
facet normal 0 0 0
outer loop
vertex 8.958479 9.740487 6.359372
vertex 8.978954 9.740487 6.359372
vertex 8.978954 9.761240 6.359372
endloop
endfacet
facet normal 0 0 0
outer loop
vertex 8.978954 9.740487 6.359372
vertex 8.999430 9.761240 6.359372
vertex 8.978954 9.761240 6.359372
endloop
endfacet
facet normal 0 0 0
outer loop
vertex 8.876575 9.761240 6.379372
vertex 8.897051 9.781994 6.379372
vertex 8.897051 9.761240 6.359372
endloop
endfacet
facet normal 0 0 0
outer loop
vertex 8.897051 9.781994 6.379372
vertex 8.897051 9.781994 6.359372
vertex 8.897051 9.761240 6.359372
endloop
endfacet
facet normal 0 0 0
outer loop
vertex 8.978954 9.761240 6.359372
vertex 8.978954 9.781994 6.379372
vertex 8.958479 9.761240 6.379372
endloop
endfacet
facet normal 0 0 0
outer loop
vertex 8.978954 9.781994 6.379372
vertex 8.978954 9.761240 6.359372
vertex 8.999430 9.781994 6.359372
endloop
endfacet
facet normal 0 0 0
outer loop
vertex 8.978954 9.761240 6.359372
vertex 8.999430 9.761240 6.359372
vertex 8.999430 9.781994 6.359372
endloop
endfacet
facet normal 0 0 0
outer loop
vertex 8.897051 9.781994 6.379372
vertex 8.897051 9.802747 6.359372
vertex 8.897051 9.781994 6.359372
endloop
endfacet
facet normal 0 0 0
outer loop
vertex 8.897051 9.781994 6.379372
vertex 8.917526 9.802747 6.379372
vertex 8.897051 9.802747 6.359372
endloop
endfacet
facet normal 0 0 0
outer loop
vertex 8.958479 9.802747 6.359372
vertex 8.938004 9.802747 6.379372
vertex 8.958479 9.781994 6.379372
endloop
endfacet
facet normal 0 0 0
outer loop
vertex 8.958479 9.802747 6.359372
vertex 8.978954 9.781994 6.379372
vertex 8.978954 9.802747 6.359372
endloop
endfacet
facet normal 0 0 0
outer loop
vertex 8.958479 9.781994 6.379372
vertex 8.978954 9.781994 6.379372
vertex 8.958479 9.802747 6.359372
endloop
endfacet
facet normal 0 0 0
outer loop
vertex 8.999430 9.781994 6.359372
vertex 8.978954 9.802747 6.359372
vertex 8.978954 9.781994 6.379372
endloop
endfacet
facet normal 0 0 0
outer loop
vertex 8.897051 9.802747 6.359372
vertex 8.917526 9.802747 6.379372
vertex 8.917526 9.802747 6.359372
endloop
endfacet
facet normal 0 0 0
outer loop
vertex 8.938004 9.823501 6.359372
vertex 8.917526 9.802747 6.359372
vertex 8.938004 9.802747 6.379372
endloop
endfacet
facet normal 0 0 0
outer loop
vertex 8.917526 9.802747 6.359372
vertex 8.917526 9.802747 6.379372
vertex 8.938004 9.802747 6.379372
endloop
endfacet
facet normal 0 0 0
outer loop
vertex 8.938004 9.802747 6.379372
vertex 8.958479 9.802747 6.359372
vertex 8.938004 9.823501 6.359372
endloop
endfacet
facet normal 0 0 0
outer loop
vertex 8.958479 9.802747 6.359372
vertex 8.958479 9.823501 6.359372
vertex 8.938004 9.823501 6.359372
endloop
endfacet
facet normal 0 0 0
outer loop
vertex 8.978954 9.802747 6.359372
vertex 8.978954 9.823501 6.359372
vertex 8.958479 9.802747 6.359372
endloop
endfacet
facet normal 0 0 0
outer loop
vertex 8.978954 9.823501 6.359372
vertex 8.958479 9.823501 6.359372
vertex 8.958479 9.802747 6.359372
endloop
endfacet
facet normal 0 0 0
outer loop
vertex 8.897051 9.761240 6.379372
vertex 8.917526 9.740487 6.379372
vertex 8.917526 9.761240 6.379372
endloop
endfacet
facet normal 0 0 0
outer loop
vertex 8.938004 9.740487 6.379372
vertex 8.938004 9.761240 6.379372
vertex 8.917526 9.740487 6.379372
endloop
endfacet
facet normal 0 0 0
outer loop
vertex 8.938004 9.761240 6.379372
vertex 8.917526 9.761240 6.379372
vertex 8.917526 9.740487 6.379372
endloop
endfacet
facet normal 0 0 0
outer loop
vertex 8.938004 9.740487 6.379372
vertex 8.958479 9.761240 6.379372
vertex 8.938004 9.761240 6.379372
endloop
endfacet
facet normal 0 0 0
outer loop
vertex 8.897051 9.781994 6.379372
vertex 8.876575 9.761240 6.379372
vertex 8.897051 9.761240 6.379372
endloop
endfacet
facet normal 0 0 0
outer loop
vertex 8.917526 9.761240 6.379372
vertex 8.917526 9.781994 6.379372
vertex 8.897051 9.761240 6.379372
endloop
endfacet
facet normal 0 0 0
outer loop
vertex 8.917526 9.781994 6.379372
vertex 8.897051 9.781994 6.379372
vertex 8.897051 9.761240 6.379372
endloop
endfacet
facet normal 0 0 0
outer loop
vertex 8.938004 9.761240 6.379372
vertex 8.938004 9.781994 6.379372
vertex 8.917526 9.761240 6.379372
endloop
endfacet
facet normal 0 0 0
outer loop
vertex 8.938004 9.781994 6.379372
vertex 8.917526 9.781994 6.379372
vertex 8.917526 9.761240 6.379372
endloop
endfacet
facet normal 0 0 0
outer loop
vertex 8.958479 9.761240 6.379372
vertex 8.958479 9.781994 6.379372
vertex 8.938004 9.761240 6.379372
endloop
endfacet
facet normal 0 0 0
outer loop
vertex 8.958479 9.781994 6.379372
vertex 8.938004 9.781994 6.379372
vertex 8.938004 9.761240 6.379372
endloop
endfacet
facet normal 0 0 0
outer loop
vertex 8.958479 9.761240 6.379372
vertex 8.978954 9.781994 6.379372
vertex 8.958479 9.781994 6.379372
endloop
endfacet
facet normal 0 0 0
outer loop
vertex 8.917526 9.802747 6.379372
vertex 8.897051 9.781994 6.379372
vertex 8.917526 9.781994 6.379372
endloop
endfacet
facet normal 0 0 0
outer loop
vertex 8.938004 9.781994 6.379372
vertex 8.938004 9.802747 6.379372
vertex 8.917526 9.781994 6.379372
endloop
endfacet
facet normal 0 0 0
outer loop
vertex 8.938004 9.802747 6.379372
vertex 8.917526 9.802747 6.379372
vertex 8.917526 9.781994 6.379372
endloop
endfacet
facet normal 0 0 0
outer loop
vertex 8.958479 9.781994 6.379372
vertex 8.938004 9.802747 6.379372
vertex 8.938004 9.781994 6.379372
endloop
endfacet
endsolid B-16-Plag.101
