solid B-16-Plag.280
facet normal 0 0 0
outer loop
vertex 13.483631 8.765080 11.679372
vertex 13.463154 8.785834 11.679372
vertex 13.483631 8.785834 11.679372
endloop
endfacet
facet normal 0 0 0
outer loop
vertex 13.504107 8.765080 11.679372
vertex 13.483631 8.765080 11.679372
vertex 13.504107 8.785834 11.679372
endloop
endfacet
facet normal 0 0 0
outer loop
vertex 13.504107 8.785834 11.679372
vertex 13.483631 8.765080 11.679372
vertex 13.483631 8.785834 11.679372
endloop
endfacet
facet normal 0 0 0
outer loop
vertex 13.524582 8.785834 11.679372
vertex 13.504107 8.765080 11.679372
vertex 13.504107 8.785834 11.679372
endloop
endfacet
facet normal 0 0 0
outer loop
vertex 13.463154 8.785834 11.679372
vertex 13.483631 8.806587 11.679372
vertex 13.483631 8.785834 11.679372
endloop
endfacet
facet normal 0 0 0
outer loop
vertex 13.504107 8.785834 11.679372
vertex 13.483631 8.785834 11.679372
vertex 13.504107 8.806587 11.679372
endloop
endfacet
facet normal 0 0 0
outer loop
vertex 13.504107 8.806587 11.679372
vertex 13.483631 8.785834 11.679372
vertex 13.483631 8.806587 11.679372
endloop
endfacet
facet normal 0 0 0
outer loop
vertex 13.524582 8.785834 11.679372
vertex 13.504107 8.785834 11.679372
vertex 13.524582 8.806587 11.679372
endloop
endfacet
facet normal 0 0 0
outer loop
vertex 13.524582 8.806587 11.679372
vertex 13.504107 8.785834 11.679372
vertex 13.504107 8.806587 11.679372
endloop
endfacet
facet normal 0 0 0
outer loop
vertex 13.545057 8.785834 11.679372
vertex 13.524582 8.785834 11.679372
vertex 13.545057 8.806587 11.679372
endloop
endfacet
facet normal 0 0 0
outer loop
vertex 13.545057 8.806587 11.679372
vertex 13.524582 8.785834 11.679372
vertex 13.524582 8.806587 11.679372
endloop
endfacet
facet normal 0 0 0
outer loop
vertex 13.545057 8.806587 11.679372
vertex 13.565533 8.785834 11.679372
vertex 13.545057 8.785834 11.679372
endloop
endfacet
facet normal 0 0 0
outer loop
vertex 13.504107 8.806587 11.679372
vertex 13.524582 8.827341 11.679372
vertex 13.524582 8.806587 11.679372
endloop
endfacet
facet normal 0 0 0
outer loop
vertex 13.524582 8.827341 11.679372
vertex 13.545057 8.806587 11.679372
vertex 13.524582 8.806587 11.679372
endloop
endfacet
facet normal 0 0 0
outer loop
vertex 13.463154 8.765080 11.699371
vertex 13.483631 8.765080 11.679372
vertex 13.483631 8.765080 11.699371
endloop
endfacet
facet normal 0 0 0
outer loop
vertex 13.504107 8.765080 11.679372
vertex 13.504107 8.765080 11.699371
vertex 13.483631 8.765080 11.679372
endloop
endfacet
facet normal 0 0 0
outer loop
vertex 13.483631 8.765080 11.679372
vertex 13.504107 8.765080 11.699371
vertex 13.483631 8.765080 11.699371
endloop
endfacet
facet normal 0 0 0
outer loop
vertex 13.504107 8.765080 11.679372
vertex 13.524582 8.765080 11.699371
vertex 13.504107 8.765080 11.699371
endloop
endfacet
facet normal 0 0 0
outer loop
vertex 13.463154 8.785834 11.679372
vertex 13.442678 8.765080 11.699371
vertex 13.463154 8.785834 11.699371
endloop
endfacet
facet normal 0 0 0
outer loop
vertex 13.463154 8.785834 11.679372
vertex 13.463154 8.765080 11.699371
vertex 13.442678 8.765080 11.699371
endloop
endfacet
facet normal 0 0 0
outer loop
vertex 13.483631 8.765080 11.679372
vertex 13.463154 8.765080 11.699371
vertex 13.463154 8.785834 11.679372
endloop
endfacet
facet normal 0 0 0
outer loop
vertex 13.504107 8.765080 11.679372
vertex 13.524582 8.785834 11.679372
vertex 13.524582 8.765080 11.699371
endloop
endfacet
facet normal 0 0 0
outer loop
vertex 13.545057 8.785834 11.679372
vertex 13.524582 8.765080 11.699371
vertex 13.524582 8.785834 11.679372
endloop
endfacet
facet normal 0 0 0
outer loop
vertex 13.545057 8.765080 11.699371
vertex 13.524582 8.765080 11.699371
vertex 13.545057 8.785834 11.679372
endloop
endfacet
facet normal 0 0 0
outer loop
vertex 13.565533 8.785834 11.679372
vertex 13.545057 8.765080 11.699371
vertex 13.545057 8.785834 11.679372
endloop
endfacet
facet normal 0 0 0
outer loop
vertex 13.565533 8.765080 11.699371
vertex 13.545057 8.765080 11.699371
vertex 13.565533 8.785834 11.679372
endloop
endfacet
facet normal 0 0 0
outer loop
vertex 13.565533 8.785834 11.679372
vertex 13.586010 8.785834 11.699371
vertex 13.565533 8.765080 11.699371
endloop
endfacet
facet normal 0 0 0
outer loop
vertex 13.463154 8.785834 11.679372
vertex 13.442678 8.806587 11.699371
vertex 13.463154 8.806587 11.699371
endloop
endfacet
facet normal 0 0 0
outer loop
vertex 13.463154 8.785834 11.679372
vertex 13.463154 8.785834 11.699371
vertex 13.442678 8.806587 11.699371
endloop
endfacet
facet normal 0 0 0
outer loop
vertex 13.463154 8.785834 11.679372
vertex 13.463154 8.806587 11.699371
vertex 13.483631 8.806587 11.679372
endloop
endfacet
facet normal 0 0 0
outer loop
vertex 13.565533 8.785834 11.679372
vertex 13.545057 8.806587 11.679372
vertex 13.565533 8.806587 11.699371
endloop
endfacet
facet normal 0 0 0
outer loop
vertex 13.565533 8.785834 11.679372
vertex 13.565533 8.806587 11.699371
vertex 13.586010 8.785834 11.699371
endloop
endfacet
facet normal 0 0 0
outer loop
vertex 13.565533 8.806587 11.699371
vertex 13.586010 8.806587 11.699371
vertex 13.586010 8.785834 11.699371
endloop
endfacet
facet normal 0 0 0
outer loop
vertex 13.442678 8.827341 11.699371
vertex 13.422203 8.806587 11.699371
vertex 13.422203 8.827341 11.699371
endloop
endfacet
facet normal 0 0 0
outer loop
vertex 13.463154 8.806587 11.699371
vertex 13.442678 8.806587 11.699371
vertex 13.463154 8.827341 11.699371
endloop
endfacet
facet normal 0 0 0
outer loop
vertex 13.463154 8.827341 11.699371
vertex 13.442678 8.806587 11.699371
vertex 13.442678 8.827341 11.699371
endloop
endfacet
facet normal 0 0 0
outer loop
vertex 13.483631 8.806587 11.679372
vertex 13.463154 8.806587 11.699371
vertex 13.483631 8.827341 11.699371
endloop
endfacet
facet normal 0 0 0
outer loop
vertex 13.463154 8.806587 11.699371
vertex 13.463154 8.827341 11.699371
vertex 13.483631 8.827341 11.699371
endloop
endfacet
facet normal 0 0 0
outer loop
vertex 13.483631 8.806587 11.679372
vertex 13.504107 8.827341 11.699371
vertex 13.504107 8.806587 11.679372
endloop
endfacet
facet normal 0 0 0
outer loop
vertex 13.483631 8.827341 11.699371
vertex 13.504107 8.827341 11.699371
vertex 13.483631 8.806587 11.679372
endloop
endfacet
facet normal 0 0 0
outer loop
vertex 13.504107 8.806587 11.679372
vertex 13.504107 8.827341 11.699371
vertex 13.524582 8.827341 11.679372
endloop
endfacet
facet normal 0 0 0
outer loop
vertex 13.545057 8.806587 11.679372
vertex 13.524582 8.827341 11.679372
vertex 13.545057 8.827341 11.699371
endloop
endfacet
facet normal 0 0 0
outer loop
vertex 13.545057 8.806587 11.679372
vertex 13.545057 8.827341 11.699371
vertex 13.565533 8.806587 11.699371
endloop
endfacet
facet normal 0 0 0
outer loop
vertex 13.545057 8.827341 11.699371
vertex 13.565533 8.827341 11.699371
vertex 13.565533 8.806587 11.699371
endloop
endfacet
facet normal 0 0 0
outer loop
vertex 13.586010 8.806587 11.699371
vertex 13.565533 8.806587 11.699371
vertex 13.586010 8.827341 11.699371
endloop
endfacet
facet normal 0 0 0
outer loop
vertex 13.586010 8.827341 11.699371
vertex 13.565533 8.806587 11.699371
vertex 13.565533 8.827341 11.699371
endloop
endfacet
facet normal 0 0 0
outer loop
vertex 13.483631 8.827341 11.699371
vertex 13.504107 8.848094 11.699371
vertex 13.504107 8.827341 11.699371
endloop
endfacet
facet normal 0 0 0
outer loop
vertex 13.524582 8.827341 11.679372
vertex 13.504107 8.827341 11.699371
vertex 13.524582 8.848094 11.699371
endloop
endfacet
facet normal 0 0 0
outer loop
vertex 13.504107 8.827341 11.699371
vertex 13.504107 8.848094 11.699371
vertex 13.524582 8.848094 11.699371
endloop
endfacet
facet normal 0 0 0
outer loop
vertex 13.524582 8.827341 11.679372
vertex 13.524582 8.848094 11.699371
vertex 13.545057 8.827341 11.699371
endloop
endfacet
facet normal 0 0 0
outer loop
vertex 13.524582 8.848094 11.699371
vertex 13.545057 8.848094 11.699371
vertex 13.545057 8.827341 11.699371
endloop
endfacet
facet normal 0 0 0
outer loop
vertex 13.565533 8.827341 11.699371
vertex 13.545057 8.827341 11.699371
vertex 13.565533 8.848094 11.699371
endloop
endfacet
facet normal 0 0 0
outer loop
vertex 13.565533 8.848094 11.699371
vertex 13.545057 8.827341 11.699371
vertex 13.545057 8.848094 11.699371
endloop
endfacet
facet normal 0 0 0
outer loop
vertex 13.586010 8.827341 11.699371
vertex 13.565533 8.827341 11.699371
vertex 13.586010 8.848094 11.699371
endloop
endfacet
facet normal 0 0 0
outer loop
vertex 13.586010 8.848094 11.699371
vertex 13.565533 8.827341 11.699371
vertex 13.565533 8.848094 11.699371
endloop
endfacet
facet normal 0 0 0
outer loop
vertex 13.463154 8.765080 11.719372
vertex 13.442678 8.765080 11.699371
vertex 13.463154 8.765080 11.699371
endloop
endfacet
facet normal 0 0 0
outer loop
vertex 13.483631 8.744328 11.719372
vertex 13.463154 8.765080 11.719372
vertex 13.483631 8.765080 11.699371
endloop
endfacet
facet normal 0 0 0
outer loop
vertex 13.463154 8.765080 11.719372
vertex 13.463154 8.765080 11.699371
vertex 13.483631 8.765080 11.699371
endloop
endfacet
facet normal 0 0 0
outer loop
vertex 13.483631 8.744328 11.719372
vertex 13.483631 8.765080 11.699371
vertex 13.504107 8.765080 11.719372
endloop
endfacet
facet normal 0 0 0
outer loop
vertex 13.483631 8.765080 11.699371
vertex 13.504107 8.765080 11.699371
vertex 13.504107 8.765080 11.719372
endloop
endfacet
facet normal 0 0 0
outer loop
vertex 13.524582 8.765080 11.699371
vertex 13.524582 8.765080 11.719372
vertex 13.504107 8.765080 11.699371
endloop
endfacet
facet normal 0 0 0
outer loop
vertex 13.504107 8.765080 11.699371
vertex 13.524582 8.765080 11.719372
vertex 13.504107 8.765080 11.719372
endloop
endfacet
facet normal 0 0 0
outer loop
vertex 13.545057 8.765080 11.699371
vertex 13.545057 8.765080 11.719372
vertex 13.524582 8.765080 11.699371
endloop
endfacet
facet normal 0 0 0
outer loop
vertex 13.524582 8.765080 11.699371
vertex 13.545057 8.765080 11.719372
vertex 13.524582 8.765080 11.719372
endloop
endfacet
facet normal 0 0 0
outer loop
vertex 13.565533 8.765080 11.699371
vertex 13.565533 8.765080 11.719372
vertex 13.545057 8.765080 11.699371
endloop
endfacet
facet normal 0 0 0
outer loop
vertex 13.545057 8.765080 11.699371
vertex 13.565533 8.765080 11.719372
vertex 13.545057 8.765080 11.719372
endloop
endfacet
facet normal 0 0 0
outer loop
vertex 13.442678 8.765080 11.699371
vertex 13.463154 8.765080 11.719372
vertex 13.463154 8.785834 11.699371
endloop
endfacet
facet normal 0 0 0
outer loop
vertex 13.463154 8.765080 11.719372
vertex 13.463154 8.785834 11.719372
vertex 13.463154 8.785834 11.699371
endloop
endfacet
facet normal 0 0 0
outer loop
vertex 13.565533 8.765080 11.699371
vertex 13.586010 8.785834 11.719372
vertex 13.565533 8.765080 11.719372
endloop
endfacet
facet normal 0 0 0
outer loop
vertex 13.586010 8.785834 11.699371
vertex 13.586010 8.785834 11.719372
vertex 13.565533 8.765080 11.699371
endloop
endfacet
facet normal 0 0 0
outer loop
vertex 13.463154 8.785834 11.719372
vertex 13.442678 8.806587 11.699371
vertex 13.463154 8.785834 11.699371
endloop
endfacet
facet normal 0 0 0
outer loop
vertex 13.463154 8.785834 11.719372
vertex 13.463154 8.806587 11.699371
vertex 13.442678 8.806587 11.699371
endloop
endfacet
facet normal 0 0 0
outer loop
vertex 13.463154 8.785834 11.719372
vertex 13.483631 8.806587 11.719372
vertex 13.463154 8.806587 11.699371
endloop
endfacet
facet normal 0 0 0
outer loop
vertex 13.606485 8.806587 11.719372
vertex 13.586010 8.785834 11.719372
vertex 13.586010 8.806587 11.699371
endloop
endfacet
facet normal 0 0 0
outer loop
vertex 13.586010 8.785834 11.719372
vertex 13.586010 8.785834 11.699371
vertex 13.586010 8.806587 11.699371
endloop
endfacet
facet normal 0 0 0
outer loop
vertex 13.442678 8.806587 11.699371
vertex 13.442678 8.827341 11.699371
vertex 13.422203 8.806587 11.699371
endloop
endfacet
facet normal 0 0 0
outer loop
vertex 13.483631 8.827341 11.719372
vertex 13.463154 8.806587 11.699371
vertex 13.483631 8.806587 11.719372
endloop
endfacet
facet normal 0 0 0
outer loop
vertex 13.463154 8.827341 11.699371
vertex 13.463154 8.806587 11.699371
vertex 13.483631 8.827341 11.719372
endloop
endfacet
facet normal 0 0 0
outer loop
vertex 13.606485 8.806587 11.719372
vertex 13.586010 8.827341 11.699371
vertex 13.606485 8.827341 11.719372
endloop
endfacet
facet normal 0 0 0
outer loop
vertex 13.586010 8.806587 11.699371
vertex 13.586010 8.827341 11.699371
vertex 13.606485 8.806587 11.719372
endloop
endfacet
facet normal 0 0 0
outer loop
vertex 13.463154 8.827341 11.699371
vertex 13.483631 8.827341 11.719372
vertex 13.483631 8.827341 11.699371
endloop
endfacet
facet normal 0 0 0
outer loop
vertex 13.483631 8.827341 11.719372
vertex 13.504107 8.848094 11.699371
vertex 13.483631 8.827341 11.699371
endloop
endfacet
facet normal 0 0 0
outer loop
vertex 13.504107 8.848094 11.719372
vertex 13.504107 8.848094 11.699371
vertex 13.483631 8.827341 11.719372
endloop
endfacet
facet normal 0 0 0
outer loop
vertex 13.606485 8.827341 11.719372
vertex 13.586010 8.848094 11.699371
vertex 13.606485 8.848094 11.719372
endloop
endfacet
facet normal 0 0 0
outer loop
vertex 13.586010 8.827341 11.699371
vertex 13.586010 8.848094 11.699371
vertex 13.606485 8.827341 11.719372
endloop
endfacet
facet normal 0 0 0
outer loop
vertex 13.504107 8.848094 11.699371
vertex 13.483631 8.868848 11.719372
vertex 13.504107 8.868848 11.719372
endloop
endfacet
facet normal 0 0 0
outer loop
vertex 13.504107 8.848094 11.699371
vertex 13.504107 8.848094 11.719372
vertex 13.483631 8.868848 11.719372
endloop
endfacet
facet normal 0 0 0
outer loop
vertex 13.504107 8.848094 11.699371
vertex 13.524582 8.868848 11.719372
vertex 13.524582 8.848094 11.699371
endloop
endfacet
facet normal 0 0 0
outer loop
vertex 13.504107 8.868848 11.719372
vertex 13.524582 8.868848 11.719372
vertex 13.504107 8.848094 11.699371
endloop
endfacet
facet normal 0 0 0
outer loop
vertex 13.524582 8.848094 11.699371
vertex 13.545057 8.868848 11.719372
vertex 13.545057 8.848094 11.699371
endloop
endfacet
facet normal 0 0 0
outer loop
vertex 13.524582 8.868848 11.719372
vertex 13.545057 8.868848 11.719372
vertex 13.524582 8.848094 11.699371
endloop
endfacet
facet normal 0 0 0
outer loop
vertex 13.545057 8.848094 11.699371
vertex 13.565533 8.868848 11.719372
vertex 13.565533 8.848094 11.699371
endloop
endfacet
facet normal 0 0 0
outer loop
vertex 13.545057 8.868848 11.719372
vertex 13.565533 8.868848 11.719372
vertex 13.545057 8.848094 11.699371
endloop
endfacet
facet normal 0 0 0
outer loop
vertex 13.565533 8.848094 11.699371
vertex 13.586010 8.868848 11.719372
vertex 13.586010 8.848094 11.699371
endloop
endfacet
facet normal 0 0 0
outer loop
vertex 13.565533 8.868848 11.719372
vertex 13.586010 8.868848 11.719372
vertex 13.565533 8.848094 11.699371
endloop
endfacet
facet normal 0 0 0
outer loop
vertex 13.586010 8.848094 11.699371
vertex 13.586010 8.868848 11.719372
vertex 13.606485 8.848094 11.719372
endloop
endfacet
facet normal 0 0 0
outer loop
vertex 13.463154 8.765080 11.719372
vertex 13.483631 8.744328 11.719372
vertex 13.483631 8.765080 11.719372
endloop
endfacet
facet normal 0 0 0
outer loop
vertex 13.483631 8.744328 11.719372
vertex 13.504107 8.765080 11.719372
vertex 13.483631 8.765080 11.719372
endloop
endfacet
facet normal 0 0 0
outer loop
vertex 13.483631 8.765080 11.719372
vertex 13.483631 8.785834 11.719372
vertex 13.463154 8.765080 11.719372
endloop
endfacet
facet normal 0 0 0
outer loop
vertex 13.483631 8.785834 11.719372
vertex 13.463154 8.785834 11.719372
vertex 13.463154 8.765080 11.719372
endloop
endfacet
facet normal 0 0 0
outer loop
vertex 13.504107 8.785834 11.739372
vertex 13.483631 8.785834 11.719372
vertex 13.504107 8.765080 11.719372
endloop
endfacet
facet normal 0 0 0
outer loop
vertex 13.483631 8.785834 11.719372
vertex 13.483631 8.765080 11.719372
vertex 13.504107 8.765080 11.719372
endloop
endfacet
facet normal 0 0 0
outer loop
vertex 13.504107 8.785834 11.739372
vertex 13.504107 8.765080 11.719372
vertex 13.524582 8.785834 11.719372
endloop
endfacet
facet normal 0 0 0
outer loop
vertex 13.504107 8.765080 11.719372
vertex 13.524582 8.765080 11.719372
vertex 13.524582 8.785834 11.719372
endloop
endfacet
facet normal 0 0 0
outer loop
vertex 13.545057 8.765080 11.719372
vertex 13.545057 8.785834 11.719372
vertex 13.524582 8.765080 11.719372
endloop
endfacet
facet normal 0 0 0
outer loop
vertex 13.545057 8.785834 11.719372
vertex 13.524582 8.785834 11.719372
vertex 13.524582 8.765080 11.719372
endloop
endfacet
facet normal 0 0 0
outer loop
vertex 13.565533 8.765080 11.719372
vertex 13.565533 8.785834 11.719372
vertex 13.545057 8.765080 11.719372
endloop
endfacet
facet normal 0 0 0
outer loop
vertex 13.565533 8.785834 11.719372
vertex 13.545057 8.785834 11.719372
vertex 13.545057 8.765080 11.719372
endloop
endfacet
facet normal 0 0 0
outer loop
vertex 13.565533 8.765080 11.719372
vertex 13.586010 8.785834 11.719372
vertex 13.565533 8.785834 11.719372
endloop
endfacet
facet normal 0 0 0
outer loop
vertex 13.483631 8.806587 11.739372
vertex 13.463154 8.785834 11.719372
vertex 13.483631 8.785834 11.719372
endloop
endfacet
facet normal 0 0 0
outer loop
vertex 13.483631 8.806587 11.739372
vertex 13.483631 8.806587 11.719372
vertex 13.463154 8.785834 11.719372
endloop
endfacet
facet normal 0 0 0
outer loop
vertex 13.504107 8.785834 11.739372
vertex 13.483631 8.806587 11.739372
vertex 13.483631 8.785834 11.719372
endloop
endfacet
facet normal 0 0 0
outer loop
vertex 13.524582 8.785834 11.719372
vertex 13.524582 8.806587 11.739372
vertex 13.504107 8.785834 11.739372
endloop
endfacet
facet normal 0 0 0
outer loop
vertex 13.545057 8.785834 11.719372
vertex 13.524582 8.806587 11.739372
vertex 13.524582 8.785834 11.719372
endloop
endfacet
facet normal 0 0 0
outer loop
vertex 13.545057 8.806587 11.739372
vertex 13.524582 8.806587 11.739372
vertex 13.545057 8.785834 11.719372
endloop
endfacet
facet normal 0 0 0
outer loop
vertex 13.565533 8.785834 11.719372
vertex 13.545057 8.806587 11.739372
vertex 13.545057 8.785834 11.719372
endloop
endfacet
facet normal 0 0 0
outer loop
vertex 13.565533 8.806587 11.739372
vertex 13.545057 8.806587 11.739372
vertex 13.565533 8.785834 11.719372
endloop
endfacet
facet normal 0 0 0
outer loop
vertex 13.586010 8.785834 11.719372
vertex 13.565533 8.806587 11.739372
vertex 13.565533 8.785834 11.719372
endloop
endfacet
facet normal 0 0 0
outer loop
vertex 13.586010 8.806587 11.739372
vertex 13.565533 8.806587 11.739372
vertex 13.586010 8.785834 11.719372
endloop
endfacet
facet normal 0 0 0
outer loop
vertex 13.606485 8.806587 11.719372
vertex 13.586010 8.806587 11.739372
vertex 13.586010 8.785834 11.719372
endloop
endfacet
facet normal 0 0 0
outer loop
vertex 13.483631 8.806587 11.719372
vertex 13.483631 8.806587 11.739372
vertex 13.483631 8.827341 11.719372
endloop
endfacet
facet normal 0 0 0
outer loop
vertex 13.483631 8.806587 11.739372
vertex 13.483631 8.827341 11.739372
vertex 13.483631 8.827341 11.719372
endloop
endfacet
facet normal 0 0 0
outer loop
vertex 13.586010 8.827341 11.719372
vertex 13.565533 8.827341 11.739372
vertex 13.586010 8.806587 11.739372
endloop
endfacet
facet normal 0 0 0
outer loop
vertex 13.586010 8.806587 11.739372
vertex 13.606485 8.806587 11.719372
vertex 13.586010 8.827341 11.719372
endloop
endfacet
facet normal 0 0 0
outer loop
vertex 13.606485 8.806587 11.719372
vertex 13.606485 8.827341 11.719372
vertex 13.586010 8.827341 11.719372
endloop
endfacet
facet normal 0 0 0
outer loop
vertex 13.483631 8.827341 11.719372
vertex 13.463154 8.848094 11.739372
vertex 13.483631 8.848094 11.739372
endloop
endfacet
facet normal 0 0 0
outer loop
vertex 13.483631 8.827341 11.719372
vertex 13.483631 8.827341 11.739372
vertex 13.463154 8.848094 11.739372
endloop
endfacet
facet normal 0 0 0
outer loop
vertex 13.483631 8.827341 11.719372
vertex 13.483631 8.848094 11.739372
vertex 13.504107 8.848094 11.719372
endloop
endfacet
facet normal 0 0 0
outer loop
vertex 13.586010 8.827341 11.719372
vertex 13.586010 8.848094 11.739372
vertex 13.565533 8.827341 11.739372
endloop
endfacet
facet normal 0 0 0
outer loop
vertex 13.586010 8.848094 11.739372
vertex 13.586010 8.827341 11.719372
vertex 13.606485 8.848094 11.719372
endloop
endfacet
facet normal 0 0 0
outer loop
vertex 13.586010 8.827341 11.719372
vertex 13.606485 8.827341 11.719372
vertex 13.606485 8.848094 11.719372
endloop
endfacet
facet normal 0 0 0
outer loop
vertex 13.483631 8.848094 11.739372
vertex 13.504107 8.868848 11.739372
vertex 13.504107 8.848094 11.719372
endloop
endfacet
facet normal 0 0 0
outer loop
vertex 13.483631 8.868848 11.719372
vertex 13.504107 8.848094 11.719372
vertex 13.504107 8.868848 11.739372
endloop
endfacet
facet normal 0 0 0
outer loop
vertex 13.524582 8.868848 11.719372
vertex 13.504107 8.868848 11.739372
vertex 13.524582 8.848094 11.739372
endloop
endfacet
facet normal 0 0 0
outer loop
vertex 13.524582 8.848094 11.739372
vertex 13.545057 8.868848 11.739372
vertex 13.524582 8.868848 11.719372
endloop
endfacet
facet normal 0 0 0
outer loop
vertex 13.565533 8.868848 11.719372
vertex 13.545057 8.868848 11.739372
vertex 13.565533 8.848094 11.739372
endloop
endfacet
facet normal 0 0 0
outer loop
vertex 13.565533 8.868848 11.719372
vertex 13.586010 8.848094 11.739372
vertex 13.586010 8.868848 11.719372
endloop
endfacet
facet normal 0 0 0
outer loop
vertex 13.565533 8.848094 11.739372
vertex 13.586010 8.848094 11.739372
vertex 13.565533 8.868848 11.719372
endloop
endfacet
facet normal 0 0 0
outer loop
vertex 13.606485 8.848094 11.719372
vertex 13.586010 8.868848 11.719372
vertex 13.586010 8.848094 11.739372
endloop
endfacet
facet normal 0 0 0
outer loop
vertex 13.483631 8.868848 11.719372
vertex 13.504107 8.868848 11.739372
vertex 13.504107 8.868848 11.719372
endloop
endfacet
facet normal 0 0 0
outer loop
vertex 13.504107 8.868848 11.739372
vertex 13.524582 8.868848 11.719372
vertex 13.504107 8.868848 11.719372
endloop
endfacet
facet normal 0 0 0
outer loop
vertex 13.524582 8.868848 11.719372
vertex 13.545057 8.868848 11.739372
vertex 13.545057 8.868848 11.719372
endloop
endfacet
facet normal 0 0 0
outer loop
vertex 13.545057 8.868848 11.739372
vertex 13.565533 8.868848 11.719372
vertex 13.545057 8.868848 11.719372
endloop
endfacet
facet normal 0 0 0
outer loop
vertex 13.483631 8.806587 11.739372
vertex 13.504107 8.785834 11.739372
vertex 13.504107 8.806587 11.739372
endloop
endfacet
facet normal 0 0 0
outer loop
vertex 13.504107 8.785834 11.739372
vertex 13.524582 8.806587 11.739372
vertex 13.504107 8.806587 11.739372
endloop
endfacet
facet normal 0 0 0
outer loop
vertex 13.504107 8.806587 11.739372
vertex 13.504107 8.827341 11.739372
vertex 13.483631 8.806587 11.739372
endloop
endfacet
facet normal 0 0 0
outer loop
vertex 13.504107 8.827341 11.739372
vertex 13.483631 8.827341 11.739372
vertex 13.483631 8.806587 11.739372
endloop
endfacet
facet normal 0 0 0
outer loop
vertex 13.524582 8.806587 11.739372
vertex 13.524582 8.827341 11.739372
vertex 13.504107 8.806587 11.739372
endloop
endfacet
facet normal 0 0 0
outer loop
vertex 13.524582 8.827341 11.739372
vertex 13.504107 8.827341 11.739372
vertex 13.504107 8.806587 11.739372
endloop
endfacet
facet normal 0 0 0
outer loop
vertex 13.545057 8.806587 11.739372
vertex 13.545057 8.827341 11.739372
vertex 13.524582 8.806587 11.739372
endloop
endfacet
facet normal 0 0 0
outer loop
vertex 13.545057 8.827341 11.739372
vertex 13.524582 8.827341 11.739372
vertex 13.524582 8.806587 11.739372
endloop
endfacet
facet normal 0 0 0
outer loop
vertex 13.565533 8.806587 11.739372
vertex 13.565533 8.827341 11.739372
vertex 13.545057 8.806587 11.739372
endloop
endfacet
facet normal 0 0 0
outer loop
vertex 13.565533 8.827341 11.739372
vertex 13.545057 8.827341 11.739372
vertex 13.545057 8.806587 11.739372
endloop
endfacet
facet normal 0 0 0
outer loop
vertex 13.586010 8.806587 11.739372
vertex 13.565533 8.827341 11.739372
vertex 13.565533 8.806587 11.739372
endloop
endfacet
facet normal 0 0 0
outer loop
vertex 13.463154 8.848094 11.739372
vertex 13.483631 8.827341 11.739372
vertex 13.483631 8.848094 11.739372
endloop
endfacet
facet normal 0 0 0
outer loop
vertex 13.504107 8.827341 11.739372
vertex 13.504107 8.848094 11.739372
vertex 13.483631 8.827341 11.739372
endloop
endfacet
facet normal 0 0 0
outer loop
vertex 13.504107 8.848094 11.739372
vertex 13.483631 8.848094 11.739372
vertex 13.483631 8.827341 11.739372
endloop
endfacet
facet normal 0 0 0
outer loop
vertex 13.524582 8.827341 11.739372
vertex 13.524582 8.848094 11.739372
vertex 13.504107 8.827341 11.739372
endloop
endfacet
facet normal 0 0 0
outer loop
vertex 13.524582 8.848094 11.739372
vertex 13.504107 8.848094 11.739372
vertex 13.504107 8.827341 11.739372
endloop
endfacet
facet normal 0 0 0
outer loop
vertex 13.545057 8.827341 11.739372
vertex 13.545057 8.848094 11.739372
vertex 13.524582 8.827341 11.739372
endloop
endfacet
facet normal 0 0 0
outer loop
vertex 13.545057 8.848094 11.739372
vertex 13.524582 8.848094 11.739372
vertex 13.524582 8.827341 11.739372
endloop
endfacet
facet normal 0 0 0
outer loop
vertex 13.565533 8.827341 11.739372
vertex 13.565533 8.848094 11.739372
vertex 13.545057 8.827341 11.739372
endloop
endfacet
facet normal 0 0 0
outer loop
vertex 13.565533 8.848094 11.739372
vertex 13.545057 8.848094 11.739372
vertex 13.545057 8.827341 11.739372
endloop
endfacet
facet normal 0 0 0
outer loop
vertex 13.565533 8.827341 11.739372
vertex 13.586010 8.848094 11.739372
vertex 13.565533 8.848094 11.739372
endloop
endfacet
facet normal 0 0 0
outer loop
vertex 13.504107 8.868848 11.739372
vertex 13.483631 8.848094 11.739372
vertex 13.504107 8.848094 11.739372
endloop
endfacet
facet normal 0 0 0
outer loop
vertex 13.524582 8.848094 11.739372
vertex 13.504107 8.868848 11.739372
vertex 13.504107 8.848094 11.739372
endloop
endfacet
facet normal 0 0 0
outer loop
vertex 13.545057 8.868848 11.739372
vertex 13.524582 8.848094 11.739372
vertex 13.545057 8.848094 11.739372
endloop
endfacet
facet normal 0 0 0
outer loop
vertex 13.565533 8.848094 11.739372
vertex 13.545057 8.868848 11.739372
vertex 13.545057 8.848094 11.739372
endloop
endfacet
endsolid B-16-Plag.280
