solid B-16-Plag.366
facet normal 0 0 0
outer loop
vertex 10.268930 9.844254 13.739372
vertex 10.248453 9.865006 13.739372
vertex 10.268930 9.865006 13.739372
endloop
endfacet
facet normal 0 0 0
outer loop
vertex 10.289406 9.844254 13.739372
vertex 10.268930 9.844254 13.739372
vertex 10.289406 9.865006 13.739372
endloop
endfacet
facet normal 0 0 0
outer loop
vertex 10.289406 9.865006 13.739372
vertex 10.268930 9.844254 13.739372
vertex 10.268930 9.865006 13.739372
endloop
endfacet
facet normal 0 0 0
outer loop
vertex 10.309881 9.844254 13.739372
vertex 10.289406 9.844254 13.739372
vertex 10.309881 9.865006 13.739372
endloop
endfacet
facet normal 0 0 0
outer loop
vertex 10.309881 9.865006 13.739372
vertex 10.289406 9.844254 13.739372
vertex 10.289406 9.865006 13.739372
endloop
endfacet
facet normal 0 0 0
outer loop
vertex 10.330357 9.844254 13.739372
vertex 10.309881 9.844254 13.739372
vertex 10.330357 9.865006 13.739372
endloop
endfacet
facet normal 0 0 0
outer loop
vertex 10.330357 9.865006 13.739372
vertex 10.309881 9.844254 13.739372
vertex 10.309881 9.865006 13.739372
endloop
endfacet
facet normal 0 0 0
outer loop
vertex 10.350834 9.844254 13.739372
vertex 10.330357 9.844254 13.739372
vertex 10.350834 9.865006 13.739372
endloop
endfacet
facet normal 0 0 0
outer loop
vertex 10.350834 9.865006 13.739372
vertex 10.330357 9.844254 13.739372
vertex 10.330357 9.865006 13.739372
endloop
endfacet
facet normal 0 0 0
outer loop
vertex 10.371309 9.844254 13.739372
vertex 10.350834 9.844254 13.739372
vertex 10.371309 9.865006 13.739372
endloop
endfacet
facet normal 0 0 0
outer loop
vertex 10.371309 9.865006 13.739372
vertex 10.350834 9.844254 13.739372
vertex 10.350834 9.865006 13.739372
endloop
endfacet
facet normal 0 0 0
outer loop
vertex 10.391785 9.865006 13.739372
vertex 10.371309 9.844254 13.739372
vertex 10.371309 9.865006 13.739372
endloop
endfacet
facet normal 0 0 0
outer loop
vertex 10.248453 9.865006 13.739372
vertex 10.227978 9.865006 13.739372
vertex 10.248453 9.885760 13.739372
endloop
endfacet
facet normal 0 0 0
outer loop
vertex 10.248453 9.885760 13.739372
vertex 10.227978 9.865006 13.739372
vertex 10.227978 9.885760 13.739372
endloop
endfacet
facet normal 0 0 0
outer loop
vertex 10.268930 9.865006 13.739372
vertex 10.248453 9.865006 13.739372
vertex 10.268930 9.885760 13.739372
endloop
endfacet
facet normal 0 0 0
outer loop
vertex 10.268930 9.885760 13.739372
vertex 10.248453 9.865006 13.739372
vertex 10.248453 9.885760 13.739372
endloop
endfacet
facet normal 0 0 0
outer loop
vertex 10.289406 9.865006 13.739372
vertex 10.268930 9.865006 13.739372
vertex 10.289406 9.885760 13.739372
endloop
endfacet
facet normal 0 0 0
outer loop
vertex 10.289406 9.885760 13.739372
vertex 10.268930 9.865006 13.739372
vertex 10.268930 9.885760 13.739372
endloop
endfacet
facet normal 0 0 0
outer loop
vertex 10.309881 9.865006 13.739372
vertex 10.289406 9.865006 13.739372
vertex 10.309881 9.885760 13.739372
endloop
endfacet
facet normal 0 0 0
outer loop
vertex 10.309881 9.885760 13.739372
vertex 10.289406 9.865006 13.739372
vertex 10.289406 9.885760 13.739372
endloop
endfacet
facet normal 0 0 0
outer loop
vertex 10.330357 9.865006 13.739372
vertex 10.309881 9.865006 13.739372
vertex 10.330357 9.885760 13.739372
endloop
endfacet
facet normal 0 0 0
outer loop
vertex 10.330357 9.885760 13.739372
vertex 10.309881 9.865006 13.739372
vertex 10.309881 9.885760 13.739372
endloop
endfacet
facet normal 0 0 0
outer loop
vertex 10.350834 9.865006 13.739372
vertex 10.330357 9.865006 13.739372
vertex 10.350834 9.885760 13.739372
endloop
endfacet
facet normal 0 0 0
outer loop
vertex 10.350834 9.885760 13.739372
vertex 10.330357 9.865006 13.739372
vertex 10.330357 9.885760 13.739372
endloop
endfacet
facet normal 0 0 0
outer loop
vertex 10.371309 9.865006 13.739372
vertex 10.350834 9.865006 13.739372
vertex 10.371309 9.885760 13.739372
endloop
endfacet
facet normal 0 0 0
outer loop
vertex 10.371309 9.885760 13.739372
vertex 10.350834 9.865006 13.739372
vertex 10.350834 9.885760 13.739372
endloop
endfacet
facet normal 0 0 0
outer loop
vertex 10.371309 9.885760 13.739372
vertex 10.391785 9.865006 13.739372
vertex 10.371309 9.865006 13.739372
endloop
endfacet
facet normal 0 0 0
outer loop
vertex 10.268930 9.885760 13.739372
vertex 10.289406 9.906513 13.739372
vertex 10.289406 9.885760 13.739372
endloop
endfacet
facet normal 0 0 0
outer loop
vertex 10.309881 9.885760 13.739372
vertex 10.289406 9.885760 13.739372
vertex 10.309881 9.906513 13.739372
endloop
endfacet
facet normal 0 0 0
outer loop
vertex 10.309881 9.906513 13.739372
vertex 10.289406 9.885760 13.739372
vertex 10.289406 9.906513 13.739372
endloop
endfacet
facet normal 0 0 0
outer loop
vertex 10.330357 9.885760 13.739372
vertex 10.309881 9.885760 13.739372
vertex 10.330357 9.906513 13.739372
endloop
endfacet
facet normal 0 0 0
outer loop
vertex 10.330357 9.906513 13.739372
vertex 10.309881 9.885760 13.739372
vertex 10.309881 9.906513 13.739372
endloop
endfacet
facet normal 0 0 0
outer loop
vertex 10.350834 9.885760 13.739372
vertex 10.330357 9.885760 13.739372
vertex 10.350834 9.906513 13.739372
endloop
endfacet
facet normal 0 0 0
outer loop
vertex 10.350834 9.906513 13.739372
vertex 10.330357 9.885760 13.739372
vertex 10.330357 9.906513 13.739372
endloop
endfacet
facet normal 0 0 0
outer loop
vertex 10.350834 9.906513 13.739372
vertex 10.371309 9.885760 13.739372
vertex 10.350834 9.885760 13.739372
endloop
endfacet
facet normal 0 0 0
outer loop
vertex 10.330357 9.906513 13.739372
vertex 10.350834 9.927267 13.739372
vertex 10.350834 9.906513 13.739372
endloop
endfacet
facet normal 0 0 0
outer loop
vertex 10.371309 9.927267 13.739372
vertex 10.350834 9.906513 13.739372
vertex 10.350834 9.927267 13.739372
endloop
endfacet
facet normal 0 0 0
outer loop
vertex 10.248453 9.823501 13.759372
vertex 10.227978 9.844254 13.759372
vertex 10.248453 9.844254 13.759372
endloop
endfacet
facet normal 0 0 0
outer loop
vertex 10.268930 9.844254 13.739372
vertex 10.268930 9.823501 13.759372
vertex 10.248453 9.844254 13.759372
endloop
endfacet
facet normal 0 0 0
outer loop
vertex 10.268930 9.823501 13.759372
vertex 10.248453 9.823501 13.759372
vertex 10.248453 9.844254 13.759372
endloop
endfacet
facet normal 0 0 0
outer loop
vertex 10.289406 9.844254 13.739372
vertex 10.268930 9.823501 13.759372
vertex 10.268930 9.844254 13.739372
endloop
endfacet
facet normal 0 0 0
outer loop
vertex 10.289406 9.823501 13.759372
vertex 10.268930 9.823501 13.759372
vertex 10.289406 9.844254 13.739372
endloop
endfacet
facet normal 0 0 0
outer loop
vertex 10.309881 9.844254 13.739372
vertex 10.289406 9.823501 13.759372
vertex 10.289406 9.844254 13.739372
endloop
endfacet
facet normal 0 0 0
outer loop
vertex 10.309881 9.823501 13.759372
vertex 10.289406 9.823501 13.759372
vertex 10.309881 9.844254 13.739372
endloop
endfacet
facet normal 0 0 0
outer loop
vertex 10.330357 9.844254 13.739372
vertex 10.309881 9.823501 13.759372
vertex 10.309881 9.844254 13.739372
endloop
endfacet
facet normal 0 0 0
outer loop
vertex 10.330357 9.823501 13.759372
vertex 10.309881 9.823501 13.759372
vertex 10.330357 9.844254 13.739372
endloop
endfacet
facet normal 0 0 0
outer loop
vertex 10.350834 9.844254 13.739372
vertex 10.330357 9.823501 13.759372
vertex 10.330357 9.844254 13.739372
endloop
endfacet
facet normal 0 0 0
outer loop
vertex 10.350834 9.823501 13.759372
vertex 10.330357 9.823501 13.759372
vertex 10.350834 9.844254 13.739372
endloop
endfacet
facet normal 0 0 0
outer loop
vertex 10.371309 9.844254 13.739372
vertex 10.350834 9.823501 13.759372
vertex 10.350834 9.844254 13.739372
endloop
endfacet
facet normal 0 0 0
outer loop
vertex 10.371309 9.823501 13.759372
vertex 10.350834 9.823501 13.759372
vertex 10.371309 9.844254 13.739372
endloop
endfacet
facet normal 0 0 0
outer loop
vertex 10.371309 9.844254 13.739372
vertex 10.391785 9.844254 13.759372
vertex 10.371309 9.823501 13.759372
endloop
endfacet
facet normal 0 0 0
outer loop
vertex 10.227978 9.844254 13.759372
vertex 10.207502 9.865006 13.759372
vertex 10.227978 9.865006 13.739372
endloop
endfacet
facet normal 0 0 0
outer loop
vertex 10.248453 9.865006 13.739372
vertex 10.227978 9.844254 13.759372
vertex 10.227978 9.865006 13.739372
endloop
endfacet
facet normal 0 0 0
outer loop
vertex 10.248453 9.844254 13.759372
vertex 10.227978 9.844254 13.759372
vertex 10.248453 9.865006 13.739372
endloop
endfacet
facet normal 0 0 0
outer loop
vertex 10.268930 9.844254 13.739372
vertex 10.248453 9.844254 13.759372
vertex 10.248453 9.865006 13.739372
endloop
endfacet
facet normal 0 0 0
outer loop
vertex 10.391785 9.865006 13.739372
vertex 10.371309 9.865006 13.759372
vertex 10.371309 9.844254 13.739372
endloop
endfacet
facet normal 0 0 0
outer loop
vertex 10.391785 9.844254 13.759372
vertex 10.371309 9.844254 13.739372
vertex 10.371309 9.865006 13.759372
endloop
endfacet
facet normal 0 0 0
outer loop
vertex 10.207502 9.865006 13.759372
vertex 10.227978 9.885760 13.759372
vertex 10.227978 9.865006 13.739372
endloop
endfacet
facet normal 0 0 0
outer loop
vertex 10.227978 9.885760 13.759372
vertex 10.227978 9.885760 13.739372
vertex 10.227978 9.865006 13.739372
endloop
endfacet
facet normal 0 0 0
outer loop
vertex 10.391785 9.885760 13.759372
vertex 10.371309 9.865006 13.759372
vertex 10.371309 9.885760 13.739372
endloop
endfacet
facet normal 0 0 0
outer loop
vertex 10.391785 9.865006 13.739372
vertex 10.371309 9.885760 13.739372
vertex 10.371309 9.865006 13.759372
endloop
endfacet
facet normal 0 0 0
outer loop
vertex 10.248453 9.885760 13.739372
vertex 10.227978 9.885760 13.739372
vertex 10.248453 9.885760 13.759372
endloop
endfacet
facet normal 0 0 0
outer loop
vertex 10.227978 9.885760 13.739372
vertex 10.227978 9.885760 13.759372
vertex 10.248453 9.885760 13.759372
endloop
endfacet
facet normal 0 0 0
outer loop
vertex 10.268930 9.885760 13.739372
vertex 10.248453 9.885760 13.739372
vertex 10.268930 9.885760 13.759372
endloop
endfacet
facet normal 0 0 0
outer loop
vertex 10.248453 9.885760 13.739372
vertex 10.248453 9.885760 13.759372
vertex 10.268930 9.885760 13.759372
endloop
endfacet
facet normal 0 0 0
outer loop
vertex 10.268930 9.885760 13.759372
vertex 10.289406 9.906513 13.739372
vertex 10.268930 9.885760 13.739372
endloop
endfacet
facet normal 0 0 0
outer loop
vertex 10.289406 9.906513 13.759372
vertex 10.289406 9.906513 13.739372
vertex 10.268930 9.885760 13.759372
endloop
endfacet
facet normal 0 0 0
outer loop
vertex 10.371309 9.885760 13.739372
vertex 10.350834 9.906513 13.759372
vertex 10.371309 9.885760 13.759372
endloop
endfacet
facet normal 0 0 0
outer loop
vertex 10.350834 9.906513 13.739372
vertex 10.350834 9.906513 13.759372
vertex 10.371309 9.885760 13.739372
endloop
endfacet
facet normal 0 0 0
outer loop
vertex 10.391785 9.885760 13.759372
vertex 10.371309 9.885760 13.739372
vertex 10.371309 9.885760 13.759372
endloop
endfacet
facet normal 0 0 0
outer loop
vertex 10.309881 9.906513 13.739372
vertex 10.289406 9.906513 13.739372
vertex 10.309881 9.906513 13.759372
endloop
endfacet
facet normal 0 0 0
outer loop
vertex 10.289406 9.906513 13.739372
vertex 10.289406 9.906513 13.759372
vertex 10.309881 9.906513 13.759372
endloop
endfacet
facet normal 0 0 0
outer loop
vertex 10.330357 9.906513 13.739372
vertex 10.309881 9.906513 13.739372
vertex 10.330357 9.906513 13.759372
endloop
endfacet
facet normal 0 0 0
outer loop
vertex 10.309881 9.906513 13.739372
vertex 10.309881 9.906513 13.759372
vertex 10.330357 9.906513 13.759372
endloop
endfacet
facet normal 0 0 0
outer loop
vertex 10.350834 9.927267 13.739372
vertex 10.330357 9.906513 13.739372
vertex 10.350834 9.906513 13.759372
endloop
endfacet
facet normal 0 0 0
outer loop
vertex 10.330357 9.906513 13.739372
vertex 10.330357 9.906513 13.759372
vertex 10.350834 9.906513 13.759372
endloop
endfacet
facet normal 0 0 0
outer loop
vertex 10.371309 9.927267 13.739372
vertex 10.350834 9.927267 13.739372
vertex 10.350834 9.906513 13.759372
endloop
endfacet
facet normal 0 0 0
outer loop
vertex 10.371309 9.927267 13.739372
vertex 10.350834 9.906513 13.759372
vertex 10.350834 9.906513 13.739372
endloop
endfacet
facet normal 0 0 0
outer loop
vertex 10.248453 9.823501 13.759372
vertex 10.248453 9.844254 13.779372
vertex 10.227978 9.844254 13.759372
endloop
endfacet
facet normal 0 0 0
outer loop
vertex 10.248453 9.844254 13.779372
vertex 10.227978 9.844254 13.779372
vertex 10.227978 9.844254 13.759372
endloop
endfacet
facet normal 0 0 0
outer loop
vertex 10.268930 9.823501 13.759372
vertex 10.248453 9.844254 13.779372
vertex 10.248453 9.823501 13.759372
endloop
endfacet
facet normal 0 0 0
outer loop
vertex 10.268930 9.844254 13.779372
vertex 10.248453 9.844254 13.779372
vertex 10.268930 9.823501 13.759372
endloop
endfacet
facet normal 0 0 0
outer loop
vertex 10.289406 9.823501 13.759372
vertex 10.268930 9.844254 13.779372
vertex 10.268930 9.823501 13.759372
endloop
endfacet
facet normal 0 0 0
outer loop
vertex 10.289406 9.844254 13.779372
vertex 10.268930 9.844254 13.779372
vertex 10.289406 9.823501 13.759372
endloop
endfacet
facet normal 0 0 0
outer loop
vertex 10.289406 9.844254 13.779372
vertex 10.289406 9.823501 13.759372
vertex 10.309881 9.844254 13.759372
endloop
endfacet
facet normal 0 0 0
outer loop
vertex 10.289406 9.823501 13.759372
vertex 10.309881 9.823501 13.759372
vertex 10.309881 9.844254 13.759372
endloop
endfacet
facet normal 0 0 0
outer loop
vertex 10.330357 9.823501 13.759372
vertex 10.330357 9.844254 13.759372
vertex 10.309881 9.823501 13.759372
endloop
endfacet
facet normal 0 0 0
outer loop
vertex 10.330357 9.844254 13.759372
vertex 10.309881 9.844254 13.759372
vertex 10.309881 9.823501 13.759372
endloop
endfacet
facet normal 0 0 0
outer loop
vertex 10.350834 9.823501 13.759372
vertex 10.350834 9.844254 13.759372
vertex 10.330357 9.823501 13.759372
endloop
endfacet
facet normal 0 0 0
outer loop
vertex 10.350834 9.844254 13.759372
vertex 10.330357 9.844254 13.759372
vertex 10.330357 9.823501 13.759372
endloop
endfacet
facet normal 0 0 0
outer loop
vertex 10.371309 9.823501 13.759372
vertex 10.371309 9.844254 13.759372
vertex 10.350834 9.823501 13.759372
endloop
endfacet
facet normal 0 0 0
outer loop
vertex 10.371309 9.844254 13.759372
vertex 10.350834 9.844254 13.759372
vertex 10.350834 9.823501 13.759372
endloop
endfacet
facet normal 0 0 0
outer loop
vertex 10.371309 9.823501 13.759372
vertex 10.391785 9.844254 13.759372
vertex 10.371309 9.844254 13.759372
endloop
endfacet
facet normal 0 0 0
outer loop
vertex 10.227978 9.844254 13.779372
vertex 10.207502 9.865006 13.759372
vertex 10.227978 9.844254 13.759372
endloop
endfacet
facet normal 0 0 0
outer loop
vertex 10.207502 9.865006 13.779372
vertex 10.207502 9.865006 13.759372
vertex 10.227978 9.844254 13.779372
endloop
endfacet
facet normal 0 0 0
outer loop
vertex 10.309881 9.844254 13.759372
vertex 10.309881 9.865006 13.779372
vertex 10.289406 9.844254 13.779372
endloop
endfacet
facet normal 0 0 0
outer loop
vertex 10.330357 9.844254 13.759372
vertex 10.309881 9.865006 13.779372
vertex 10.309881 9.844254 13.759372
endloop
endfacet
facet normal 0 0 0
outer loop
vertex 10.330357 9.865006 13.779372
vertex 10.309881 9.865006 13.779372
vertex 10.330357 9.844254 13.759372
endloop
endfacet
facet normal 0 0 0
outer loop
vertex 10.350834 9.844254 13.759372
vertex 10.330357 9.865006 13.779372
vertex 10.330357 9.844254 13.759372
endloop
endfacet
facet normal 0 0 0
outer loop
vertex 10.350834 9.865006 13.779372
vertex 10.330357 9.865006 13.779372
vertex 10.350834 9.844254 13.759372
endloop
endfacet
facet normal 0 0 0
outer loop
vertex 10.350834 9.865006 13.779372
vertex 10.350834 9.844254 13.759372
vertex 10.371309 9.865006 13.759372
endloop
endfacet
facet normal 0 0 0
outer loop
vertex 10.350834 9.844254 13.759372
vertex 10.371309 9.844254 13.759372
vertex 10.371309 9.865006 13.759372
endloop
endfacet
facet normal 0 0 0
outer loop
vertex 10.391785 9.844254 13.759372
vertex 10.371309 9.865006 13.759372
vertex 10.371309 9.844254 13.759372
endloop
endfacet
facet normal 0 0 0
outer loop
vertex 10.207502 9.865006 13.759372
vertex 10.187027 9.885760 13.779372
vertex 10.207502 9.885760 13.779372
endloop
endfacet
facet normal 0 0 0
outer loop
vertex 10.207502 9.865006 13.759372
vertex 10.207502 9.865006 13.779372
vertex 10.187027 9.885760 13.779372
endloop
endfacet
facet normal 0 0 0
outer loop
vertex 10.207502 9.865006 13.759372
vertex 10.207502 9.885760 13.779372
vertex 10.227978 9.885760 13.759372
endloop
endfacet
facet normal 0 0 0
outer loop
vertex 10.371309 9.865006 13.759372
vertex 10.371309 9.885760 13.779372
vertex 10.350834 9.865006 13.779372
endloop
endfacet
facet normal 0 0 0
outer loop
vertex 10.391785 9.885760 13.759372
vertex 10.371309 9.885760 13.779372
vertex 10.371309 9.865006 13.759372
endloop
endfacet
facet normal 0 0 0
outer loop
vertex 10.207502 9.885760 13.779372
vertex 10.187027 9.885760 13.779372
vertex 10.207502 9.906513 13.779372
endloop
endfacet
facet normal 0 0 0
outer loop
vertex 10.207502 9.906513 13.779372
vertex 10.187027 9.885760 13.779372
vertex 10.187027 9.906513 13.779372
endloop
endfacet
facet normal 0 0 0
outer loop
vertex 10.227978 9.885760 13.759372
vertex 10.207502 9.885760 13.779372
vertex 10.227978 9.906513 13.779372
endloop
endfacet
facet normal 0 0 0
outer loop
vertex 10.207502 9.885760 13.779372
vertex 10.207502 9.906513 13.779372
vertex 10.227978 9.906513 13.779372
endloop
endfacet
facet normal 0 0 0
outer loop
vertex 10.227978 9.885760 13.759372
vertex 10.248453 9.906513 13.779372
vertex 10.248453 9.885760 13.759372
endloop
endfacet
facet normal 0 0 0
outer loop
vertex 10.227978 9.906513 13.779372
vertex 10.248453 9.906513 13.779372
vertex 10.227978 9.885760 13.759372
endloop
endfacet
facet normal 0 0 0
outer loop
vertex 10.248453 9.885760 13.759372
vertex 10.268930 9.906513 13.779372
vertex 10.268930 9.885760 13.759372
endloop
endfacet
facet normal 0 0 0
outer loop
vertex 10.248453 9.906513 13.779372
vertex 10.268930 9.906513 13.779372
vertex 10.248453 9.885760 13.759372
endloop
endfacet
facet normal 0 0 0
outer loop
vertex 10.268930 9.885760 13.759372
vertex 10.268930 9.906513 13.779372
vertex 10.289406 9.906513 13.759372
endloop
endfacet
facet normal 0 0 0
outer loop
vertex 10.371309 9.885760 13.759372
vertex 10.350834 9.906513 13.779372
vertex 10.371309 9.885760 13.779372
endloop
endfacet
facet normal 0 0 0
outer loop
vertex 10.350834 9.906513 13.759372
vertex 10.350834 9.906513 13.779372
vertex 10.371309 9.885760 13.759372
endloop
endfacet
facet normal 0 0 0
outer loop
vertex 10.371309 9.885760 13.779372
vertex 10.391785 9.885760 13.759372
vertex 10.371309 9.885760 13.759372
endloop
endfacet
facet normal 0 0 0
outer loop
vertex 10.207502 9.906513 13.779372
vertex 10.227978 9.927267 13.779372
vertex 10.227978 9.906513 13.779372
endloop
endfacet
facet normal 0 0 0
outer loop
vertex 10.248453 9.906513 13.779372
vertex 10.227978 9.906513 13.779372
vertex 10.248453 9.927267 13.779372
endloop
endfacet
facet normal 0 0 0
outer loop
vertex 10.248453 9.927267 13.779372
vertex 10.227978 9.906513 13.779372
vertex 10.227978 9.927267 13.779372
endloop
endfacet
facet normal 0 0 0
outer loop
vertex 10.268930 9.906513 13.779372
vertex 10.248453 9.906513 13.779372
vertex 10.268930 9.927267 13.779372
endloop
endfacet
facet normal 0 0 0
outer loop
vertex 10.268930 9.927267 13.779372
vertex 10.248453 9.906513 13.779372
vertex 10.248453 9.927267 13.779372
endloop
endfacet
facet normal 0 0 0
outer loop
vertex 10.289406 9.906513 13.759372
vertex 10.268930 9.906513 13.779372
vertex 10.289406 9.927267 13.779372
endloop
endfacet
facet normal 0 0 0
outer loop
vertex 10.268930 9.906513 13.779372
vertex 10.268930 9.927267 13.779372
vertex 10.289406 9.927267 13.779372
endloop
endfacet
facet normal 0 0 0
outer loop
vertex 10.289406 9.906513 13.759372
vertex 10.309881 9.927267 13.779372
vertex 10.309881 9.906513 13.759372
endloop
endfacet
facet normal 0 0 0
outer loop
vertex 10.289406 9.927267 13.779372
vertex 10.309881 9.927267 13.779372
vertex 10.289406 9.906513 13.759372
endloop
endfacet
facet normal 0 0 0
outer loop
vertex 10.309881 9.906513 13.759372
vertex 10.330357 9.927267 13.779372
vertex 10.330357 9.906513 13.759372
endloop
endfacet
facet normal 0 0 0
outer loop
vertex 10.309881 9.927267 13.779372
vertex 10.330357 9.927267 13.779372
vertex 10.309881 9.906513 13.759372
endloop
endfacet
facet normal 0 0 0
outer loop
vertex 10.330357 9.927267 13.779372
vertex 10.350834 9.906513 13.779372
vertex 10.330357 9.906513 13.759372
endloop
endfacet
facet normal 0 0 0
outer loop
vertex 10.350834 9.906513 13.779372
vertex 10.350834 9.906513 13.759372
vertex 10.330357 9.906513 13.759372
endloop
endfacet
facet normal 0 0 0
outer loop
vertex 10.268930 9.844254 13.799372
vertex 10.248453 9.844254 13.779372
vertex 10.268930 9.844254 13.779372
endloop
endfacet
facet normal 0 0 0
outer loop
vertex 10.289406 9.844254 13.779372
vertex 10.289406 9.844254 13.799372
vertex 10.268930 9.844254 13.779372
endloop
endfacet
facet normal 0 0 0
outer loop
vertex 10.268930 9.844254 13.779372
vertex 10.289406 9.844254 13.799372
vertex 10.268930 9.844254 13.799372
endloop
endfacet
facet normal 0 0 0
outer loop
vertex 10.289406 9.844254 13.779372
vertex 10.309881 9.844254 13.799372
vertex 10.289406 9.844254 13.799372
endloop
endfacet
facet normal 0 0 0
outer loop
vertex 10.227978 9.844254 13.779372
vertex 10.227978 9.865006 13.799372
vertex 10.207502 9.865006 13.779372
endloop
endfacet
facet normal 0 0 0
outer loop
vertex 10.227978 9.865006 13.799372
vertex 10.207502 9.865006 13.799372
vertex 10.207502 9.865006 13.779372
endloop
endfacet
facet normal 0 0 0
outer loop
vertex 10.248453 9.844254 13.779372
vertex 10.227978 9.865006 13.799372
vertex 10.227978 9.844254 13.779372
endloop
endfacet
facet normal 0 0 0
outer loop
vertex 10.248453 9.865006 13.799372
vertex 10.227978 9.865006 13.799372
vertex 10.248453 9.844254 13.779372
endloop
endfacet
facet normal 0 0 0
outer loop
vertex 10.268930 9.844254 13.799372
vertex 10.248453 9.865006 13.799372
vertex 10.248453 9.844254 13.779372
endloop
endfacet
facet normal 0 0 0
outer loop
vertex 10.289406 9.844254 13.779372
vertex 10.309881 9.865006 13.779372
vertex 10.309881 9.844254 13.799372
endloop
endfacet
facet normal 0 0 0
outer loop
vertex 10.309881 9.844254 13.799372
vertex 10.309881 9.865006 13.779372
vertex 10.330357 9.865006 13.799372
endloop
endfacet
facet normal 0 0 0
outer loop
vertex 10.309881 9.865006 13.779372
vertex 10.330357 9.865006 13.779372
vertex 10.330357 9.865006 13.799372
endloop
endfacet
facet normal 0 0 0
outer loop
vertex 10.350834 9.865006 13.779372
vertex 10.350834 9.865006 13.799372
vertex 10.330357 9.865006 13.779372
endloop
endfacet
facet normal 0 0 0
outer loop
vertex 10.330357 9.865006 13.779372
vertex 10.350834 9.865006 13.799372
vertex 10.330357 9.865006 13.799372
endloop
endfacet
facet normal 0 0 0
outer loop
vertex 10.187027 9.885760 13.779372
vertex 10.207502 9.865006 13.779372
vertex 10.207502 9.885760 13.799372
endloop
endfacet
facet normal 0 0 0
outer loop
vertex 10.207502 9.865006 13.779372
vertex 10.207502 9.865006 13.799372
vertex 10.207502 9.885760 13.799372
endloop
endfacet
facet normal 0 0 0
outer loop
vertex 10.350834 9.865006 13.779372
vertex 10.371309 9.885760 13.799372
vertex 10.350834 9.865006 13.799372
endloop
endfacet
facet normal 0 0 0
outer loop
vertex 10.371309 9.885760 13.779372
vertex 10.371309 9.885760 13.799372
vertex 10.350834 9.865006 13.779372
endloop
endfacet
facet normal 0 0 0
outer loop
vertex 10.207502 9.885760 13.799372
vertex 10.207502 9.906513 13.779372
vertex 10.187027 9.885760 13.779372
endloop
endfacet
facet normal 0 0 0
outer loop
vertex 10.207502 9.885760 13.799372
vertex 10.227978 9.906513 13.799372
vertex 10.207502 9.906513 13.779372
endloop
endfacet
facet normal 0 0 0
outer loop
vertex 10.330357 9.906513 13.779372
vertex 10.309881 9.906513 13.799372
vertex 10.330357 9.885760 13.799372
endloop
endfacet
facet normal 0 0 0
outer loop
vertex 10.330357 9.906513 13.779372
vertex 10.350834 9.885760 13.799372
vertex 10.350834 9.906513 13.779372
endloop
endfacet
facet normal 0 0 0
outer loop
vertex 10.330357 9.885760 13.799372
vertex 10.350834 9.885760 13.799372
vertex 10.330357 9.906513 13.779372
endloop
endfacet
facet normal 0 0 0
outer loop
vertex 10.350834 9.906513 13.779372
vertex 10.350834 9.885760 13.799372
vertex 10.371309 9.885760 13.779372
endloop
endfacet
facet normal 0 0 0
outer loop
vertex 10.350834 9.885760 13.799372
vertex 10.371309 9.885760 13.799372
vertex 10.371309 9.885760 13.779372
endloop
endfacet
facet normal 0 0 0
outer loop
vertex 10.207502 9.906513 13.779372
vertex 10.227978 9.906513 13.799372
vertex 10.227978 9.927267 13.779372
endloop
endfacet
facet normal 0 0 0
outer loop
vertex 10.227978 9.906513 13.799372
vertex 10.248453 9.927267 13.799372
vertex 10.227978 9.927267 13.779372
endloop
endfacet
facet normal 0 0 0
outer loop
vertex 10.309881 9.927267 13.779372
vertex 10.289406 9.927267 13.799372
vertex 10.309881 9.906513 13.799372
endloop
endfacet
facet normal 0 0 0
outer loop
vertex 10.309881 9.906513 13.799372
vertex 10.330357 9.906513 13.779372
vertex 10.309881 9.927267 13.779372
endloop
endfacet
facet normal 0 0 0
outer loop
vertex 10.330357 9.906513 13.779372
vertex 10.330357 9.927267 13.779372
vertex 10.309881 9.927267 13.779372
endloop
endfacet
facet normal 0 0 0
outer loop
vertex 10.350834 9.906513 13.779372
vertex 10.330357 9.927267 13.779372
vertex 10.330357 9.906513 13.779372
endloop
endfacet
facet normal 0 0 0
outer loop
vertex 10.227978 9.927267 13.779372
vertex 10.248453 9.927267 13.799372
vertex 10.248453 9.927267 13.779372
endloop
endfacet
facet normal 0 0 0
outer loop
vertex 10.268930 9.927267 13.779372
vertex 10.248453 9.927267 13.779372
vertex 10.268930 9.927267 13.799372
endloop
endfacet
facet normal 0 0 0
outer loop
vertex 10.248453 9.927267 13.779372
vertex 10.248453 9.927267 13.799372
vertex 10.268930 9.927267 13.799372
endloop
endfacet
facet normal 0 0 0
outer loop
vertex 10.289406 9.927267 13.779372
vertex 10.268930 9.927267 13.779372
vertex 10.289406 9.927267 13.799372
endloop
endfacet
facet normal 0 0 0
outer loop
vertex 10.268930 9.927267 13.779372
vertex 10.268930 9.927267 13.799372
vertex 10.289406 9.927267 13.799372
endloop
endfacet
facet normal 0 0 0
outer loop
vertex 10.289406 9.927267 13.799372
vertex 10.309881 9.927267 13.779372
vertex 10.289406 9.927267 13.779372
endloop
endfacet
facet normal 0 0 0
outer loop
vertex 10.248453 9.865006 13.799372
vertex 10.268930 9.844254 13.799372
vertex 10.268930 9.865006 13.799372
endloop
endfacet
facet normal 0 0 0
outer loop
vertex 10.289406 9.844254 13.799372
vertex 10.289406 9.865006 13.799372
vertex 10.268930 9.844254 13.799372
endloop
endfacet
facet normal 0 0 0
outer loop
vertex 10.289406 9.865006 13.799372
vertex 10.268930 9.865006 13.799372
vertex 10.268930 9.844254 13.799372
endloop
endfacet
facet normal 0 0 0
outer loop
vertex 10.309881 9.844254 13.799372
vertex 10.309881 9.865006 13.799372
vertex 10.289406 9.844254 13.799372
endloop
endfacet
facet normal 0 0 0
outer loop
vertex 10.309881 9.865006 13.799372
vertex 10.289406 9.865006 13.799372
vertex 10.289406 9.844254 13.799372
endloop
endfacet
facet normal 0 0 0
outer loop
vertex 10.309881 9.844254 13.799372
vertex 10.330357 9.865006 13.799372
vertex 10.309881 9.865006 13.799372
endloop
endfacet
facet normal 0 0 0
outer loop
vertex 10.227978 9.865006 13.799372
vertex 10.227978 9.885760 13.799372
vertex 10.207502 9.865006 13.799372
endloop
endfacet
facet normal 0 0 0
outer loop
vertex 10.227978 9.885760 13.799372
vertex 10.207502 9.885760 13.799372
vertex 10.207502 9.865006 13.799372
endloop
endfacet
facet normal 0 0 0
outer loop
vertex 10.248453 9.865006 13.799372
vertex 10.248453 9.885760 13.799372
vertex 10.227978 9.865006 13.799372
endloop
endfacet
facet normal 0 0 0
outer loop
vertex 10.248453 9.885760 13.799372
vertex 10.227978 9.885760 13.799372
vertex 10.227978 9.865006 13.799372
endloop
endfacet
facet normal 0 0 0
outer loop
vertex 10.268930 9.865006 13.799372
vertex 10.268930 9.885760 13.799372
vertex 10.248453 9.865006 13.799372
endloop
endfacet
facet normal 0 0 0
outer loop
vertex 10.268930 9.885760 13.799372
vertex 10.248453 9.885760 13.799372
vertex 10.248453 9.865006 13.799372
endloop
endfacet
facet normal 0 0 0
outer loop
vertex 10.289406 9.865006 13.799372
vertex 10.289406 9.885760 13.799372
vertex 10.268930 9.865006 13.799372
endloop
endfacet
facet normal 0 0 0
outer loop
vertex 10.289406 9.885760 13.799372
vertex 10.268930 9.885760 13.799372
vertex 10.268930 9.865006 13.799372
endloop
endfacet
facet normal 0 0 0
outer loop
vertex 10.309881 9.865006 13.799372
vertex 10.309881 9.885760 13.799372
vertex 10.289406 9.865006 13.799372
endloop
endfacet
facet normal 0 0 0
outer loop
vertex 10.309881 9.885760 13.799372
vertex 10.289406 9.885760 13.799372
vertex 10.289406 9.865006 13.799372
endloop
endfacet
facet normal 0 0 0
outer loop
vertex 10.330357 9.865006 13.799372
vertex 10.330357 9.885760 13.799372
vertex 10.309881 9.865006 13.799372
endloop
endfacet
facet normal 0 0 0
outer loop
vertex 10.330357 9.885760 13.799372
vertex 10.309881 9.885760 13.799372
vertex 10.309881 9.865006 13.799372
endloop
endfacet
facet normal 0 0 0
outer loop
vertex 10.350834 9.865006 13.799372
vertex 10.350834 9.885760 13.799372
vertex 10.330357 9.865006 13.799372
endloop
endfacet
facet normal 0 0 0
outer loop
vertex 10.350834 9.885760 13.799372
vertex 10.330357 9.885760 13.799372
vertex 10.330357 9.865006 13.799372
endloop
endfacet
facet normal 0 0 0
outer loop
vertex 10.350834 9.865006 13.799372
vertex 10.371309 9.885760 13.799372
vertex 10.350834 9.885760 13.799372
endloop
endfacet
facet normal 0 0 0
outer loop
vertex 10.227978 9.906513 13.799372
vertex 10.207502 9.885760 13.799372
vertex 10.227978 9.885760 13.799372
endloop
endfacet
facet normal 0 0 0
outer loop
vertex 10.248453 9.885760 13.799372
vertex 10.248453 9.906513 13.799372
vertex 10.227978 9.885760 13.799372
endloop
endfacet
facet normal 0 0 0
outer loop
vertex 10.248453 9.906513 13.799372
vertex 10.227978 9.906513 13.799372
vertex 10.227978 9.885760 13.799372
endloop
endfacet
facet normal 0 0 0
outer loop
vertex 10.268930 9.885760 13.799372
vertex 10.268930 9.906513 13.799372
vertex 10.248453 9.885760 13.799372
endloop
endfacet
facet normal 0 0 0
outer loop
vertex 10.268930 9.906513 13.799372
vertex 10.248453 9.906513 13.799372
vertex 10.248453 9.885760 13.799372
endloop
endfacet
facet normal 0 0 0
outer loop
vertex 10.289406 9.885760 13.799372
vertex 10.289406 9.906513 13.799372
vertex 10.268930 9.885760 13.799372
endloop
endfacet
facet normal 0 0 0
outer loop
vertex 10.289406 9.906513 13.799372
vertex 10.268930 9.906513 13.799372
vertex 10.268930 9.885760 13.799372
endloop
endfacet
facet normal 0 0 0
outer loop
vertex 10.309881 9.885760 13.799372
vertex 10.309881 9.906513 13.799372
vertex 10.289406 9.885760 13.799372
endloop
endfacet
facet normal 0 0 0
outer loop
vertex 10.309881 9.906513 13.799372
vertex 10.289406 9.906513 13.799372
vertex 10.289406 9.885760 13.799372
endloop
endfacet
facet normal 0 0 0
outer loop
vertex 10.330357 9.885760 13.799372
vertex 10.309881 9.906513 13.799372
vertex 10.309881 9.885760 13.799372
endloop
endfacet
facet normal 0 0 0
outer loop
vertex 10.248453 9.927267 13.799372
vertex 10.227978 9.906513 13.799372
vertex 10.248453 9.906513 13.799372
endloop
endfacet
facet normal 0 0 0
outer loop
vertex 10.268930 9.906513 13.799372
vertex 10.268930 9.927267 13.799372
vertex 10.248453 9.906513 13.799372
endloop
endfacet
facet normal 0 0 0
outer loop
vertex 10.268930 9.927267 13.799372
vertex 10.248453 9.927267 13.799372
vertex 10.248453 9.906513 13.799372
endloop
endfacet
facet normal 0 0 0
outer loop
vertex 10.289406 9.906513 13.799372
vertex 10.289406 9.927267 13.799372
vertex 10.268930 9.906513 13.799372
endloop
endfacet
facet normal 0 0 0
outer loop
vertex 10.289406 9.927267 13.799372
vertex 10.268930 9.927267 13.799372
vertex 10.268930 9.906513 13.799372
endloop
endfacet
facet normal 0 0 0
outer loop
vertex 10.309881 9.906513 13.799372
vertex 10.289406 9.927267 13.799372
vertex 10.289406 9.906513 13.799372
endloop
endfacet
endsolid B-16-Plag.366
