solid B-16-Plag.127
facet normal 0 0 0
outer loop
vertex 6.808520 12.583692 7.079372
vertex 6.828995 12.562939 7.079372
vertex 6.808520 12.562939 7.079372
endloop
endfacet
facet normal 0 0 0
outer loop
vertex 6.808520 12.521432 7.099372
vertex 6.788043 12.521432 7.099372
vertex 6.808520 12.542186 7.099372
endloop
endfacet
facet normal 0 0 0
outer loop
vertex 6.808520 12.542186 7.099372
vertex 6.788043 12.521432 7.099372
vertex 6.788043 12.542186 7.099372
endloop
endfacet
facet normal 0 0 0
outer loop
vertex 6.828995 12.521432 7.099372
vertex 6.808520 12.521432 7.099372
vertex 6.828995 12.542186 7.099372
endloop
endfacet
facet normal 0 0 0
outer loop
vertex 6.828995 12.542186 7.099372
vertex 6.808520 12.521432 7.099372
vertex 6.808520 12.542186 7.099372
endloop
endfacet
facet normal 0 0 0
outer loop
vertex 6.849472 12.542186 7.099372
vertex 6.828995 12.521432 7.099372
vertex 6.828995 12.542186 7.099372
endloop
endfacet
facet normal 0 0 0
outer loop
vertex 6.808520 12.562939 7.079372
vertex 6.808520 12.542186 7.099372
vertex 6.788043 12.562939 7.099372
endloop
endfacet
facet normal 0 0 0
outer loop
vertex 6.808520 12.542186 7.099372
vertex 6.788043 12.542186 7.099372
vertex 6.788043 12.562939 7.099372
endloop
endfacet
facet normal 0 0 0
outer loop
vertex 6.828995 12.562939 7.079372
vertex 6.808520 12.542186 7.099372
vertex 6.808520 12.562939 7.079372
endloop
endfacet
facet normal 0 0 0
outer loop
vertex 6.828995 12.542186 7.099372
vertex 6.808520 12.542186 7.099372
vertex 6.828995 12.562939 7.079372
endloop
endfacet
facet normal 0 0 0
outer loop
vertex 6.828995 12.562939 7.079372
vertex 6.849472 12.562939 7.099372
vertex 6.828995 12.542186 7.099372
endloop
endfacet
facet normal 0 0 0
outer loop
vertex 6.849472 12.562939 7.099372
vertex 6.849472 12.542186 7.099372
vertex 6.828995 12.542186 7.099372
endloop
endfacet
facet normal 0 0 0
outer loop
vertex 6.869947 12.542186 7.099372
vertex 6.849472 12.542186 7.099372
vertex 6.869947 12.562939 7.099372
endloop
endfacet
facet normal 0 0 0
outer loop
vertex 6.788043 12.562939 7.099372
vertex 6.808520 12.583692 7.079372
vertex 6.808520 12.562939 7.079372
endloop
endfacet
facet normal 0 0 0
outer loop
vertex 6.788043 12.562939 7.099372
vertex 6.808520 12.562939 7.099372
vertex 6.808520 12.583692 7.079372
endloop
endfacet
facet normal 0 0 0
outer loop
vertex 6.808520 12.583692 7.079372
vertex 6.808520 12.562939 7.099372
vertex 6.828995 12.562939 7.079372
endloop
endfacet
facet normal 0 0 0
outer loop
vertex 6.808520 12.562939 7.099372
vertex 6.828995 12.562939 7.099372
vertex 6.828995 12.562939 7.079372
endloop
endfacet
facet normal 0 0 0
outer loop
vertex 6.849472 12.562939 7.099372
vertex 6.828995 12.562939 7.079372
vertex 6.828995 12.562939 7.099372
endloop
endfacet
facet normal 0 0 0
outer loop
vertex 6.788043 12.500679 7.119372
vertex 6.767568 12.521432 7.119372
vertex 6.788043 12.521432 7.099372
endloop
endfacet
facet normal 0 0 0
outer loop
vertex 6.788043 12.500679 7.119372
vertex 6.788043 12.521432 7.099372
vertex 6.808520 12.521432 7.119372
endloop
endfacet
facet normal 0 0 0
outer loop
vertex 6.788043 12.521432 7.099372
vertex 6.808520 12.521432 7.099372
vertex 6.808520 12.521432 7.119372
endloop
endfacet
facet normal 0 0 0
outer loop
vertex 6.828995 12.521432 7.099372
vertex 6.808520 12.521432 7.119372
vertex 6.808520 12.521432 7.099372
endloop
endfacet
facet normal 0 0 0
outer loop
vertex 6.788043 12.521432 7.099372
vertex 6.767568 12.542186 7.119372
vertex 6.788043 12.542186 7.099372
endloop
endfacet
facet normal 0 0 0
outer loop
vertex 6.767568 12.521432 7.119372
vertex 6.767568 12.542186 7.119372
vertex 6.788043 12.521432 7.099372
endloop
endfacet
facet normal 0 0 0
outer loop
vertex 6.828995 12.521432 7.099372
vertex 6.828995 12.542186 7.119372
vertex 6.808520 12.521432 7.119372
endloop
endfacet
facet normal 0 0 0
outer loop
vertex 6.849472 12.542186 7.099372
vertex 6.828995 12.542186 7.119372
vertex 6.828995 12.521432 7.099372
endloop
endfacet
facet normal 0 0 0
outer loop
vertex 6.788043 12.542186 7.099372
vertex 6.767568 12.562939 7.119372
vertex 6.788043 12.562939 7.099372
endloop
endfacet
facet normal 0 0 0
outer loop
vertex 6.767568 12.542186 7.119372
vertex 6.767568 12.562939 7.119372
vertex 6.788043 12.542186 7.099372
endloop
endfacet
facet normal 0 0 0
outer loop
vertex 6.828995 12.562939 7.099372
vertex 6.808520 12.562939 7.119372
vertex 6.828995 12.542186 7.119372
endloop
endfacet
facet normal 0 0 0
outer loop
vertex 6.828995 12.542186 7.119372
vertex 6.849472 12.542186 7.099372
vertex 6.828995 12.562939 7.099372
endloop
endfacet
facet normal 0 0 0
outer loop
vertex 6.849472 12.542186 7.099372
vertex 6.849472 12.562939 7.099372
vertex 6.828995 12.562939 7.099372
endloop
endfacet
facet normal 0 0 0
outer loop
vertex 6.869947 12.562939 7.099372
vertex 6.849472 12.562939 7.099372
vertex 6.849472 12.542186 7.099372
endloop
endfacet
facet normal 0 0 0
outer loop
vertex 6.788043 12.562939 7.099372
vertex 6.767568 12.562939 7.119372
vertex 6.788043 12.583692 7.119372
endloop
endfacet
facet normal 0 0 0
outer loop
vertex 6.767568 12.562939 7.119372
vertex 6.767568 12.583692 7.119372
vertex 6.788043 12.583692 7.119372
endloop
endfacet
facet normal 0 0 0
outer loop
vertex 6.788043 12.583692 7.119372
vertex 6.808520 12.562939 7.119372
vertex 6.788043 12.562939 7.099372
endloop
endfacet
facet normal 0 0 0
outer loop
vertex 6.808520 12.562939 7.119372
vertex 6.808520 12.562939 7.099372
vertex 6.788043 12.562939 7.099372
endloop
endfacet
facet normal 0 0 0
outer loop
vertex 6.808520 12.562939 7.119372
vertex 6.828995 12.562939 7.099372
vertex 6.808520 12.562939 7.099372
endloop
endfacet
facet normal 0 0 0
outer loop
vertex 6.788043 12.500679 7.119372
vertex 6.808520 12.500679 7.139372
vertex 6.788043 12.500679 7.139372
endloop
endfacet
facet normal 0 0 0
outer loop
vertex 6.747092 12.521432 7.139372
vertex 6.767568 12.521432 7.119372
vertex 6.767568 12.521432 7.139372
endloop
endfacet
facet normal 0 0 0
outer loop
vertex 6.788043 12.500679 7.139372
vertex 6.767568 12.521432 7.119372
vertex 6.788043 12.500679 7.119372
endloop
endfacet
facet normal 0 0 0
outer loop
vertex 6.767568 12.521432 7.139372
vertex 6.767568 12.521432 7.119372
vertex 6.788043 12.500679 7.139372
endloop
endfacet
facet normal 0 0 0
outer loop
vertex 6.788043 12.500679 7.119372
vertex 6.808520 12.521432 7.119372
vertex 6.808520 12.500679 7.139372
endloop
endfacet
facet normal 0 0 0
outer loop
vertex 6.808520 12.500679 7.139372
vertex 6.808520 12.521432 7.119372
vertex 6.808520 12.521432 7.139372
endloop
endfacet
facet normal 0 0 0
outer loop
vertex 6.747092 12.521432 7.139372
vertex 6.726616 12.542186 7.139372
vertex 6.747092 12.542186 7.139372
endloop
endfacet
facet normal 0 0 0
outer loop
vertex 6.767568 12.521432 7.119372
vertex 6.747092 12.542186 7.139372
vertex 6.767568 12.542186 7.119372
endloop
endfacet
facet normal 0 0 0
outer loop
vertex 6.747092 12.521432 7.139372
vertex 6.747092 12.542186 7.139372
vertex 6.767568 12.521432 7.119372
endloop
endfacet
facet normal 0 0 0
outer loop
vertex 6.808520 12.521432 7.119372
vertex 6.828995 12.542186 7.139372
vertex 6.808520 12.521432 7.139372
endloop
endfacet
facet normal 0 0 0
outer loop
vertex 6.828995 12.542186 7.119372
vertex 6.828995 12.542186 7.139372
vertex 6.808520 12.521432 7.119372
endloop
endfacet
facet normal 0 0 0
outer loop
vertex 6.747092 12.542186 7.139372
vertex 6.726616 12.542186 7.139372
vertex 6.747092 12.562939 7.139372
endloop
endfacet
facet normal 0 0 0
outer loop
vertex 6.747092 12.562939 7.139372
vertex 6.726616 12.542186 7.139372
vertex 6.726616 12.562939 7.139372
endloop
endfacet
facet normal 0 0 0
outer loop
vertex 6.767568 12.542186 7.119372
vertex 6.747092 12.562939 7.139372
vertex 6.767568 12.562939 7.119372
endloop
endfacet
facet normal 0 0 0
outer loop
vertex 6.747092 12.542186 7.139372
vertex 6.747092 12.562939 7.139372
vertex 6.767568 12.542186 7.119372
endloop
endfacet
facet normal 0 0 0
outer loop
vertex 6.828995 12.542186 7.119372
vertex 6.808520 12.562939 7.119372
vertex 6.828995 12.562939 7.139372
endloop
endfacet
facet normal 0 0 0
outer loop
vertex 6.828995 12.542186 7.119372
vertex 6.828995 12.562939 7.139372
vertex 6.828995 12.542186 7.139372
endloop
endfacet
facet normal 0 0 0
outer loop
vertex 6.726616 12.562939 7.139372
vertex 6.747092 12.583692 7.139372
vertex 6.747092 12.562939 7.139372
endloop
endfacet
facet normal 0 0 0
outer loop
vertex 6.767568 12.562939 7.119372
vertex 6.747092 12.583692 7.139372
vertex 6.767568 12.583692 7.119372
endloop
endfacet
facet normal 0 0 0
outer loop
vertex 6.747092 12.562939 7.139372
vertex 6.747092 12.583692 7.139372
vertex 6.767568 12.562939 7.119372
endloop
endfacet
facet normal 0 0 0
outer loop
vertex 6.808520 12.562939 7.119372
vertex 6.788043 12.583692 7.119372
vertex 6.808520 12.583692 7.139372
endloop
endfacet
facet normal 0 0 0
outer loop
vertex 6.808520 12.562939 7.119372
vertex 6.808520 12.583692 7.139372
vertex 6.828995 12.562939 7.139372
endloop
endfacet
facet normal 0 0 0
outer loop
vertex 6.767568 12.583692 7.119372
vertex 6.747092 12.583692 7.139372
vertex 6.767568 12.583692 7.139372
endloop
endfacet
facet normal 0 0 0
outer loop
vertex 6.788043 12.583692 7.119372
vertex 6.767568 12.583692 7.119372
vertex 6.788043 12.583692 7.139372
endloop
endfacet
facet normal 0 0 0
outer loop
vertex 6.767568 12.583692 7.119372
vertex 6.767568 12.583692 7.139372
vertex 6.788043 12.583692 7.139372
endloop
endfacet
facet normal 0 0 0
outer loop
vertex 6.808520 12.583692 7.139372
vertex 6.788043 12.583692 7.119372
vertex 6.788043 12.583692 7.139372
endloop
endfacet
facet normal 0 0 0
outer loop
vertex 6.808520 12.500679 7.139372
vertex 6.808520 12.500679 7.159372
vertex 6.788043 12.500679 7.139372
endloop
endfacet
facet normal 0 0 0
outer loop
vertex 6.788043 12.500679 7.139372
vertex 6.808520 12.500679 7.159372
vertex 6.788043 12.500679 7.159372
endloop
endfacet
facet normal 0 0 0
outer loop
vertex 6.767568 12.521432 7.139372
vertex 6.767568 12.521432 7.159372
vertex 6.747092 12.521432 7.139372
endloop
endfacet
facet normal 0 0 0
outer loop
vertex 6.747092 12.521432 7.139372
vertex 6.767568 12.521432 7.159372
vertex 6.747092 12.521432 7.159372
endloop
endfacet
facet normal 0 0 0
outer loop
vertex 6.788043 12.500679 7.159372
vertex 6.767568 12.521432 7.139372
vertex 6.788043 12.500679 7.139372
endloop
endfacet
facet normal 0 0 0
outer loop
vertex 6.767568 12.521432 7.159372
vertex 6.767568 12.521432 7.139372
vertex 6.788043 12.500679 7.159372
endloop
endfacet
facet normal 0 0 0
outer loop
vertex 6.808520 12.500679 7.139372
vertex 6.808520 12.521432 7.139372
vertex 6.808520 12.500679 7.159372
endloop
endfacet
facet normal 0 0 0
outer loop
vertex 6.808520 12.500679 7.159372
vertex 6.808520 12.521432 7.139372
vertex 6.808520 12.521432 7.159372
endloop
endfacet
facet normal 0 0 0
outer loop
vertex 6.747092 12.521432 7.159372
vertex 6.726616 12.542186 7.139372
vertex 6.747092 12.521432 7.139372
endloop
endfacet
facet normal 0 0 0
outer loop
vertex 6.726616 12.542186 7.159372
vertex 6.726616 12.542186 7.139372
vertex 6.747092 12.521432 7.159372
endloop
endfacet
facet normal 0 0 0
outer loop
vertex 6.808520 12.521432 7.139372
vertex 6.828995 12.542186 7.159372
vertex 6.808520 12.521432 7.159372
endloop
endfacet
facet normal 0 0 0
outer loop
vertex 6.828995 12.542186 7.139372
vertex 6.828995 12.542186 7.159372
vertex 6.808520 12.521432 7.139372
endloop
endfacet
facet normal 0 0 0
outer loop
vertex 6.726616 12.542186 7.139372
vertex 6.726616 12.542186 7.159372
vertex 6.726616 12.562939 7.139372
endloop
endfacet
facet normal 0 0 0
outer loop
vertex 6.726616 12.542186 7.159372
vertex 6.726616 12.562939 7.159372
vertex 6.726616 12.562939 7.139372
endloop
endfacet
facet normal 0 0 0
outer loop
vertex 6.828995 12.542186 7.139372
vertex 6.828995 12.562939 7.139372
vertex 6.828995 12.542186 7.159372
endloop
endfacet
facet normal 0 0 0
outer loop
vertex 6.828995 12.542186 7.159372
vertex 6.828995 12.562939 7.139372
vertex 6.828995 12.562939 7.159372
endloop
endfacet
facet normal 0 0 0
outer loop
vertex 6.726616 12.583692 7.159372
vertex 6.726616 12.562939 7.139372
vertex 6.726616 12.562939 7.159372
endloop
endfacet
facet normal 0 0 0
outer loop
vertex 6.726616 12.562939 7.139372
vertex 6.726616 12.583692 7.159372
vertex 6.747092 12.583692 7.139372
endloop
endfacet
facet normal 0 0 0
outer loop
vertex 6.808520 12.583692 7.139372
vertex 6.788043 12.583692 7.159372
vertex 6.808520 12.562939 7.159372
endloop
endfacet
facet normal 0 0 0
outer loop
vertex 6.808520 12.583692 7.139372
vertex 6.808520 12.562939 7.159372
vertex 6.828995 12.562939 7.139372
endloop
endfacet
facet normal 0 0 0
outer loop
vertex 6.808520 12.562939 7.159372
vertex 6.828995 12.562939 7.159372
vertex 6.828995 12.562939 7.139372
endloop
endfacet
facet normal 0 0 0
outer loop
vertex 6.747092 12.583692 7.139372
vertex 6.726616 12.583692 7.159372
vertex 6.747092 12.604445 7.159372
endloop
endfacet
facet normal 0 0 0
outer loop
vertex 6.747092 12.583692 7.139372
vertex 6.767568 12.604445 7.159372
vertex 6.767568 12.583692 7.139372
endloop
endfacet
facet normal 0 0 0
outer loop
vertex 6.747092 12.604445 7.159372
vertex 6.767568 12.604445 7.159372
vertex 6.747092 12.583692 7.139372
endloop
endfacet
facet normal 0 0 0
outer loop
vertex 6.767568 12.604445 7.159372
vertex 6.788043 12.583692 7.159372
vertex 6.767568 12.583692 7.139372
endloop
endfacet
facet normal 0 0 0
outer loop
vertex 6.788043 12.583692 7.159372
vertex 6.788043 12.583692 7.139372
vertex 6.767568 12.583692 7.139372
endloop
endfacet
facet normal 0 0 0
outer loop
vertex 6.788043 12.583692 7.159372
vertex 6.808520 12.583692 7.139372
vertex 6.788043 12.583692 7.139372
endloop
endfacet
facet normal 0 0 0
outer loop
vertex 6.808520 12.500679 7.179372
vertex 6.788043 12.500679 7.159372
vertex 6.808520 12.500679 7.159372
endloop
endfacet
facet normal 0 0 0
outer loop
vertex 6.767568 12.521432 7.159372
vertex 6.788043 12.500679 7.159372
vertex 6.788043 12.521432 7.159372
endloop
endfacet
facet normal 0 0 0
outer loop
vertex 6.808520 12.500679 7.179372
vertex 6.808520 12.521432 7.159372
vertex 6.788043 12.500679 7.159372
endloop
endfacet
facet normal 0 0 0
outer loop
vertex 6.808520 12.521432 7.159372
vertex 6.788043 12.521432 7.159372
vertex 6.788043 12.500679 7.159372
endloop
endfacet
facet normal 0 0 0
outer loop
vertex 6.808520 12.521432 7.159372
vertex 6.808520 12.500679 7.179372
vertex 6.808520 12.500679 7.159372
endloop
endfacet
facet normal 0 0 0
outer loop
vertex 6.706141 12.542186 7.179372
vertex 6.726616 12.542186 7.159372
vertex 6.726616 12.542186 7.179372
endloop
endfacet
facet normal 0 0 0
outer loop
vertex 6.747092 12.521432 7.159372
vertex 6.747092 12.542186 7.179372
vertex 6.726616 12.542186 7.159372
endloop
endfacet
facet normal 0 0 0
outer loop
vertex 6.747092 12.542186 7.179372
vertex 6.726616 12.542186 7.179372
vertex 6.726616 12.542186 7.159372
endloop
endfacet
facet normal 0 0 0
outer loop
vertex 6.767568 12.521432 7.159372
vertex 6.747092 12.542186 7.179372
vertex 6.747092 12.521432 7.159372
endloop
endfacet
facet normal 0 0 0
outer loop
vertex 6.767568 12.542186 7.179372
vertex 6.747092 12.542186 7.179372
vertex 6.767568 12.521432 7.159372
endloop
endfacet
facet normal 0 0 0
outer loop
vertex 6.788043 12.521432 7.159372
vertex 6.767568 12.542186 7.179372
vertex 6.767568 12.521432 7.159372
endloop
endfacet
facet normal 0 0 0
outer loop
vertex 6.788043 12.542186 7.179372
vertex 6.767568 12.542186 7.179372
vertex 6.788043 12.521432 7.159372
endloop
endfacet
facet normal 0 0 0
outer loop
vertex 6.788043 12.542186 7.179372
vertex 6.788043 12.521432 7.159372
vertex 6.808520 12.542186 7.159372
endloop
endfacet
facet normal 0 0 0
outer loop
vertex 6.788043 12.521432 7.159372
vertex 6.808520 12.521432 7.159372
vertex 6.808520 12.542186 7.159372
endloop
endfacet
facet normal 0 0 0
outer loop
vertex 6.808520 12.521432 7.159372
vertex 6.828995 12.542186 7.159372
vertex 6.808520 12.542186 7.159372
endloop
endfacet
facet normal 0 0 0
outer loop
vertex 6.726616 12.542186 7.159372
vertex 6.706141 12.562939 7.179372
vertex 6.726616 12.562939 7.159372
endloop
endfacet
facet normal 0 0 0
outer loop
vertex 6.706141 12.542186 7.179372
vertex 6.706141 12.562939 7.179372
vertex 6.726616 12.542186 7.159372
endloop
endfacet
facet normal 0 0 0
outer loop
vertex 6.808520 12.542186 7.159372
vertex 6.808520 12.562939 7.179372
vertex 6.788043 12.542186 7.179372
endloop
endfacet
facet normal 0 0 0
outer loop
vertex 6.808520 12.562939 7.179372
vertex 6.808520 12.542186 7.159372
vertex 6.828995 12.562939 7.159372
endloop
endfacet
facet normal 0 0 0
outer loop
vertex 6.808520 12.542186 7.159372
vertex 6.828995 12.542186 7.159372
vertex 6.828995 12.562939 7.159372
endloop
endfacet
facet normal 0 0 0
outer loop
vertex 6.726616 12.562939 7.159372
vertex 6.706141 12.583692 7.179372
vertex 6.726616 12.583692 7.159372
endloop
endfacet
facet normal 0 0 0
outer loop
vertex 6.706141 12.562939 7.179372
vertex 6.706141 12.583692 7.179372
vertex 6.726616 12.562939 7.159372
endloop
endfacet
facet normal 0 0 0
outer loop
vertex 6.808520 12.562939 7.159372
vertex 6.788043 12.583692 7.179372
vertex 6.808520 12.562939 7.179372
endloop
endfacet
facet normal 0 0 0
outer loop
vertex 6.788043 12.583692 7.159372
vertex 6.788043 12.583692 7.179372
vertex 6.808520 12.562939 7.159372
endloop
endfacet
facet normal 0 0 0
outer loop
vertex 6.808520 12.562939 7.179372
vertex 6.828995 12.562939 7.159372
vertex 6.808520 12.562939 7.159372
endloop
endfacet
facet normal 0 0 0
outer loop
vertex 6.726616 12.583692 7.159372
vertex 6.706141 12.583692 7.179372
vertex 6.726616 12.583692 7.179372
endloop
endfacet
facet normal 0 0 0
outer loop
vertex 6.726616 12.583692 7.179372
vertex 6.747092 12.604445 7.159372
vertex 6.726616 12.583692 7.159372
endloop
endfacet
facet normal 0 0 0
outer loop
vertex 6.747092 12.604445 7.179372
vertex 6.747092 12.604445 7.159372
vertex 6.726616 12.583692 7.179372
endloop
endfacet
facet normal 0 0 0
outer loop
vertex 6.788043 12.583692 7.159372
vertex 6.767568 12.604445 7.159372
vertex 6.788043 12.604445 7.179372
endloop
endfacet
facet normal 0 0 0
outer loop
vertex 6.808520 12.604445 7.179372
vertex 6.788043 12.583692 7.179372
vertex 6.788043 12.583692 7.159372
endloop
endfacet
facet normal 0 0 0
outer loop
vertex 6.808520 12.604445 7.179372
vertex 6.788043 12.583692 7.159372
vertex 6.788043 12.604445 7.179372
endloop
endfacet
facet normal 0 0 0
outer loop
vertex 6.767568 12.604445 7.159372
vertex 6.747092 12.604445 7.159372
vertex 6.767568 12.604445 7.179372
endloop
endfacet
facet normal 0 0 0
outer loop
vertex 6.747092 12.604445 7.159372
vertex 6.747092 12.604445 7.179372
vertex 6.767568 12.604445 7.179372
endloop
endfacet
facet normal 0 0 0
outer loop
vertex 6.767568 12.604445 7.159372
vertex 6.767568 12.604445 7.179372
vertex 6.788043 12.625198 7.179372
endloop
endfacet
facet normal 0 0 0
outer loop
vertex 6.767568 12.604445 7.159372
vertex 6.788043 12.625198 7.179372
vertex 6.788043 12.604445 7.179372
endloop
endfacet
facet normal 0 0 0
outer loop
vertex 6.808520 12.604445 7.179372
vertex 6.788043 12.604445 7.179372
vertex 6.808520 12.625198 7.179372
endloop
endfacet
facet normal 0 0 0
outer loop
vertex 6.808520 12.625198 7.179372
vertex 6.788043 12.604445 7.179372
vertex 6.788043 12.625198 7.179372
endloop
endfacet
facet normal 0 0 0
outer loop
vertex 6.808520 12.625198 7.179372
vertex 6.828995 12.604445 7.179372
vertex 6.808520 12.604445 7.179372
endloop
endfacet
facet normal 0 0 0
outer loop
vertex 6.726616 12.500679 7.199372
vertex 6.706141 12.521432 7.199372
vertex 6.726616 12.521432 7.199372
endloop
endfacet
facet normal 0 0 0
outer loop
vertex 6.747092 12.521432 7.199372
vertex 6.726616 12.500679 7.199372
vertex 6.726616 12.521432 7.199372
endloop
endfacet
facet normal 0 0 0
outer loop
vertex 6.767568 12.521432 7.199372
vertex 6.747092 12.500679 7.199372
vertex 6.747092 12.521432 7.199372
endloop
endfacet
facet normal 0 0 0
outer loop
vertex 6.788043 12.521432 7.199372
vertex 6.767568 12.500679 7.199372
vertex 6.767568 12.521432 7.199372
endloop
endfacet
facet normal 0 0 0
outer loop
vertex 6.706141 12.521432 7.199372
vertex 6.685665 12.542186 7.199372
vertex 6.706141 12.542186 7.179372
endloop
endfacet
facet normal 0 0 0
outer loop
vertex 6.726616 12.542186 7.179372
vertex 6.706141 12.521432 7.199372
vertex 6.706141 12.542186 7.179372
endloop
endfacet
facet normal 0 0 0
outer loop
vertex 6.726616 12.521432 7.199372
vertex 6.706141 12.521432 7.199372
vertex 6.726616 12.542186 7.179372
endloop
endfacet
facet normal 0 0 0
outer loop
vertex 6.747092 12.542186 7.179372
vertex 6.726616 12.521432 7.199372
vertex 6.726616 12.542186 7.179372
endloop
endfacet
facet normal 0 0 0
outer loop
vertex 6.747092 12.521432 7.199372
vertex 6.726616 12.521432 7.199372
vertex 6.747092 12.542186 7.179372
endloop
endfacet
facet normal 0 0 0
outer loop
vertex 6.767568 12.542186 7.179372
vertex 6.747092 12.521432 7.199372
vertex 6.747092 12.542186 7.179372
endloop
endfacet
facet normal 0 0 0
outer loop
vertex 6.767568 12.521432 7.199372
vertex 6.747092 12.521432 7.199372
vertex 6.767568 12.542186 7.179372
endloop
endfacet
facet normal 0 0 0
outer loop
vertex 6.788043 12.542186 7.179372
vertex 6.767568 12.521432 7.199372
vertex 6.767568 12.542186 7.179372
endloop
endfacet
facet normal 0 0 0
outer loop
vertex 6.788043 12.521432 7.199372
vertex 6.767568 12.521432 7.199372
vertex 6.788043 12.542186 7.179372
endloop
endfacet
facet normal 0 0 0
outer loop
vertex 6.788043 12.542186 7.179372
vertex 6.808520 12.542186 7.199372
vertex 6.788043 12.521432 7.199372
endloop
endfacet
facet normal 0 0 0
outer loop
vertex 6.706141 12.542186 7.179372
vertex 6.685665 12.562939 7.199372
vertex 6.706141 12.562939 7.179372
endloop
endfacet
facet normal 0 0 0
outer loop
vertex 6.685665 12.542186 7.199372
vertex 6.685665 12.562939 7.199372
vertex 6.706141 12.542186 7.179372
endloop
endfacet
facet normal 0 0 0
outer loop
vertex 6.788043 12.562939 7.179372
vertex 6.767568 12.562939 7.199372
vertex 6.788043 12.542186 7.199372
endloop
endfacet
facet normal 0 0 0
outer loop
vertex 6.808520 12.542186 7.199372
vertex 6.788043 12.542186 7.179372
vertex 6.788043 12.542186 7.199372
endloop
endfacet
facet normal 0 0 0
outer loop
vertex 6.788043 12.542186 7.199372
vertex 6.788043 12.542186 7.179372
vertex 6.788043 12.562939 7.179372
endloop
endfacet
facet normal 0 0 0
outer loop
vertex 6.788043 12.562939 7.179372
vertex 6.788043 12.542186 7.179372
vertex 6.808520 12.562939 7.179372
endloop
endfacet
facet normal 0 0 0
outer loop
vertex 6.685665 12.562939 7.199372
vertex 6.706141 12.583692 7.179372
vertex 6.706141 12.562939 7.179372
endloop
endfacet
facet normal 0 0 0
outer loop
vertex 6.685665 12.562939 7.199372
vertex 6.706141 12.562939 7.199372
vertex 6.706141 12.583692 7.179372
endloop
endfacet
facet normal 0 0 0
outer loop
vertex 6.706141 12.562939 7.199372
vertex 6.726616 12.583692 7.199372
vertex 6.706141 12.583692 7.179372
endloop
endfacet
facet normal 0 0 0
outer loop
vertex 6.788043 12.583692 7.179372
vertex 6.767568 12.562939 7.199372
vertex 6.788043 12.562939 7.179372
endloop
endfacet
facet normal 0 0 0
outer loop
vertex 6.767568 12.583692 7.199372
vertex 6.767568 12.562939 7.199372
vertex 6.788043 12.583692 7.179372
endloop
endfacet
facet normal 0 0 0
outer loop
vertex 6.808520 12.562939 7.179372
vertex 6.788043 12.583692 7.179372
vertex 6.788043 12.562939 7.179372
endloop
endfacet
facet normal 0 0 0
outer loop
vertex 6.706141 12.583692 7.179372
vertex 6.726616 12.583692 7.199372
vertex 6.726616 12.583692 7.179372
endloop
endfacet
facet normal 0 0 0
outer loop
vertex 6.747092 12.604445 7.179372
vertex 6.726616 12.583692 7.179372
vertex 6.747092 12.583692 7.199372
endloop
endfacet
facet normal 0 0 0
outer loop
vertex 6.726616 12.583692 7.179372
vertex 6.726616 12.583692 7.199372
vertex 6.747092 12.583692 7.199372
endloop
endfacet
facet normal 0 0 0
outer loop
vertex 6.747092 12.604445 7.179372
vertex 6.767568 12.583692 7.199372
vertex 6.767568 12.604445 7.179372
endloop
endfacet
facet normal 0 0 0
outer loop
vertex 6.747092 12.583692 7.199372
vertex 6.767568 12.583692 7.199372
vertex 6.747092 12.604445 7.179372
endloop
endfacet
facet normal 0 0 0
outer loop
vertex 6.767568 12.583692 7.199372
vertex 6.788043 12.583692 7.179372
vertex 6.767568 12.604445 7.179372
endloop
endfacet
facet normal 0 0 0
outer loop
vertex 6.788043 12.583692 7.179372
vertex 6.788043 12.604445 7.179372
vertex 6.767568 12.604445 7.179372
endloop
endfacet
facet normal 0 0 0
outer loop
vertex 6.788043 12.583692 7.179372
vertex 6.808520 12.604445 7.179372
vertex 6.788043 12.604445 7.179372
endloop
endfacet
facet normal 0 0 0
outer loop
vertex 6.788043 12.625198 7.179372
vertex 6.767568 12.604445 7.179372
vertex 6.788043 12.604445 7.179372
endloop
endfacet
facet normal 0 0 0
outer loop
vertex 6.808520 12.625198 7.199372
vertex 6.788043 12.625198 7.179372
vertex 6.808520 12.604445 7.179372
endloop
endfacet
facet normal 0 0 0
outer loop
vertex 6.788043 12.625198 7.179372
vertex 6.788043 12.604445 7.179372
vertex 6.808520 12.604445 7.179372
endloop
endfacet
facet normal 0 0 0
outer loop
vertex 6.828995 12.604445 7.179372
vertex 6.808520 12.625198 7.179372
vertex 6.808520 12.625198 7.199372
endloop
endfacet
facet normal 0 0 0
outer loop
vertex 6.828995 12.604445 7.179372
vertex 6.808520 12.625198 7.199372
vertex 6.808520 12.604445 7.179372
endloop
endfacet
facet normal 0 0 0
outer loop
vertex 6.788043 12.625198 7.179372
vertex 6.808520 12.625198 7.199372
vertex 6.808520 12.625198 7.179372
endloop
endfacet
facet normal 0 0 0
outer loop
vertex 6.726616 12.500679 7.199372
vertex 6.726616 12.521432 7.219372
vertex 6.706141 12.521432 7.199372
endloop
endfacet
facet normal 0 0 0
outer loop
vertex 6.726616 12.521432 7.219372
vertex 6.726616 12.500679 7.199372
vertex 6.747092 12.521432 7.199372
endloop
endfacet
facet normal 0 0 0
outer loop
vertex 6.726616 12.500679 7.199372
vertex 6.747092 12.500679 7.199372
vertex 6.747092 12.521432 7.199372
endloop
endfacet
facet normal 0 0 0
outer loop
vertex 6.767568 12.500679 7.199372
vertex 6.767568 12.521432 7.199372
vertex 6.747092 12.500679 7.199372
endloop
endfacet
facet normal 0 0 0
outer loop
vertex 6.706141 12.521432 7.199372
vertex 6.706141 12.542186 7.219372
vertex 6.685665 12.542186 7.199372
endloop
endfacet
facet normal 0 0 0
outer loop
vertex 6.706141 12.542186 7.219372
vertex 6.685665 12.542186 7.219372
vertex 6.685665 12.542186 7.199372
endloop
endfacet
facet normal 0 0 0
outer loop
vertex 6.726616 12.521432 7.219372
vertex 6.706141 12.542186 7.219372
vertex 6.706141 12.521432 7.199372
endloop
endfacet
facet normal 0 0 0
outer loop
vertex 6.747092 12.521432 7.199372
vertex 6.747092 12.542186 7.219372
vertex 6.726616 12.521432 7.219372
endloop
endfacet
facet normal 0 0 0
outer loop
vertex 6.767568 12.521432 7.199372
vertex 6.747092 12.542186 7.219372
vertex 6.747092 12.521432 7.199372
endloop
endfacet
facet normal 0 0 0
outer loop
vertex 6.767568 12.542186 7.219372
vertex 6.747092 12.542186 7.219372
vertex 6.767568 12.521432 7.199372
endloop
endfacet
facet normal 0 0 0
outer loop
vertex 6.767568 12.542186 7.219372
vertex 6.767568 12.521432 7.199372
vertex 6.788043 12.542186 7.199372
endloop
endfacet
facet normal 0 0 0
outer loop
vertex 6.767568 12.521432 7.199372
vertex 6.788043 12.521432 7.199372
vertex 6.788043 12.542186 7.199372
endloop
endfacet
facet normal 0 0 0
outer loop
vertex 6.788043 12.521432 7.199372
vertex 6.808520 12.542186 7.199372
vertex 6.788043 12.542186 7.199372
endloop
endfacet
facet normal 0 0 0
outer loop
vertex 6.685665 12.542186 7.199372
vertex 6.685665 12.542186 7.219372
vertex 6.685665 12.562939 7.199372
endloop
endfacet
facet normal 0 0 0
outer loop
vertex 6.685665 12.542186 7.219372
vertex 6.685665 12.562939 7.219372
vertex 6.685665 12.562939 7.199372
endloop
endfacet
facet normal 0 0 0
outer loop
vertex 6.788043 12.542186 7.199372
vertex 6.767568 12.562939 7.199372
vertex 6.767568 12.542186 7.219372
endloop
endfacet
facet normal 0 0 0
outer loop
vertex 6.767568 12.562939 7.199372
vertex 6.767568 12.562939 7.219372
vertex 6.767568 12.542186 7.219372
endloop
endfacet
facet normal 0 0 0
outer loop
vertex 6.706141 12.583692 7.219372
vertex 6.706141 12.562939 7.199372
vertex 6.685665 12.562939 7.219372
endloop
endfacet
facet normal 0 0 0
outer loop
vertex 6.706141 12.562939 7.199372
vertex 6.685665 12.562939 7.199372
vertex 6.685665 12.562939 7.219372
endloop
endfacet
facet normal 0 0 0
outer loop
vertex 6.706141 12.562939 7.199372
vertex 6.706141 12.583692 7.219372
vertex 6.726616 12.583692 7.199372
endloop
endfacet
facet normal 0 0 0
outer loop
vertex 6.767568 12.562939 7.199372
vertex 6.767568 12.583692 7.199372
vertex 6.767568 12.562939 7.219372
endloop
endfacet
facet normal 0 0 0
outer loop
vertex 6.767568 12.562939 7.219372
vertex 6.767568 12.583692 7.199372
vertex 6.767568 12.583692 7.219372
endloop
endfacet
facet normal 0 0 0
outer loop
vertex 6.726616 12.583692 7.199372
vertex 6.706141 12.583692 7.219372
vertex 6.726616 12.604445 7.219372
endloop
endfacet
facet normal 0 0 0
outer loop
vertex 6.726616 12.583692 7.199372
vertex 6.747092 12.604445 7.219372
vertex 6.747092 12.583692 7.199372
endloop
endfacet
facet normal 0 0 0
outer loop
vertex 6.726616 12.604445 7.219372
vertex 6.747092 12.604445 7.219372
vertex 6.726616 12.583692 7.199372
endloop
endfacet
facet normal 0 0 0
outer loop
vertex 6.747092 12.583692 7.199372
vertex 6.767568 12.604445 7.219372
vertex 6.767568 12.583692 7.199372
endloop
endfacet
facet normal 0 0 0
outer loop
vertex 6.747092 12.604445 7.219372
vertex 6.767568 12.604445 7.219372
vertex 6.747092 12.583692 7.199372
endloop
endfacet
facet normal 0 0 0
outer loop
vertex 6.767568 12.583692 7.199372
vertex 6.767568 12.604445 7.219372
vertex 6.767568 12.583692 7.219372
endloop
endfacet
facet normal 0 0 0
outer loop
vertex 6.726616 12.500679 7.239372
vertex 6.706141 12.521432 7.239372
vertex 6.726616 12.521432 7.219372
endloop
endfacet
facet normal 0 0 0
outer loop
vertex 6.726616 12.521432 7.219372
vertex 6.747092 12.521432 7.239372
vertex 6.726616 12.500679 7.239372
endloop
endfacet
facet normal 0 0 0
outer loop
vertex 6.685665 12.542186 7.219372
vertex 6.685665 12.521432 7.239372
vertex 6.685665 12.542186 7.239372
endloop
endfacet
facet normal 0 0 0
outer loop
vertex 6.706141 12.542186 7.219372
vertex 6.685665 12.521432 7.239372
vertex 6.685665 12.542186 7.219372
endloop
endfacet
facet normal 0 0 0
outer loop
vertex 6.706141 12.521432 7.239372
vertex 6.685665 12.521432 7.239372
vertex 6.706141 12.542186 7.219372
endloop
endfacet
facet normal 0 0 0
outer loop
vertex 6.726616 12.521432 7.219372
vertex 6.706141 12.521432 7.239372
vertex 6.706141 12.542186 7.219372
endloop
endfacet
facet normal 0 0 0
outer loop
vertex 6.726616 12.521432 7.219372
vertex 6.747092 12.542186 7.219372
vertex 6.747092 12.521432 7.239372
endloop
endfacet
facet normal 0 0 0
outer loop
vertex 6.747092 12.521432 7.239372
vertex 6.747092 12.542186 7.219372
vertex 6.767568 12.542186 7.239372
endloop
endfacet
facet normal 0 0 0
outer loop
vertex 6.747092 12.542186 7.219372
vertex 6.767568 12.542186 7.219372
vertex 6.767568 12.542186 7.239372
endloop
endfacet
facet normal 0 0 0
outer loop
vertex 6.685665 12.542186 7.239372
vertex 6.685665 12.562939 7.219372
vertex 6.685665 12.542186 7.219372
endloop
endfacet
facet normal 0 0 0
outer loop
vertex 6.685665 12.542186 7.239372
vertex 6.706141 12.562939 7.239372
vertex 6.685665 12.562939 7.219372
endloop
endfacet
facet normal 0 0 0
outer loop
vertex 6.788043 12.562939 7.239372
vertex 6.767568 12.542186 7.239372
vertex 6.767568 12.562939 7.219372
endloop
endfacet
facet normal 0 0 0
outer loop
vertex 6.767568 12.542186 7.239372
vertex 6.767568 12.542186 7.219372
vertex 6.767568 12.562939 7.219372
endloop
endfacet
facet normal 0 0 0
outer loop
vertex 6.685665 12.562939 7.219372
vertex 6.706141 12.562939 7.239372
vertex 6.706141 12.583692 7.219372
endloop
endfacet
facet normal 0 0 0
outer loop
vertex 6.706141 12.562939 7.239372
vertex 6.726616 12.583692 7.239372
vertex 6.706141 12.583692 7.219372
endloop
endfacet
facet normal 0 0 0
outer loop
vertex 6.767568 12.583692 7.219372
vertex 6.747092 12.583692 7.239372
vertex 6.767568 12.562939 7.239372
endloop
endfacet
facet normal 0 0 0
outer loop
vertex 6.788043 12.562939 7.239372
vertex 6.767568 12.583692 7.219372
vertex 6.767568 12.562939 7.239372
endloop
endfacet
facet normal 0 0 0
outer loop
vertex 6.788043 12.562939 7.239372
vertex 6.767568 12.562939 7.219372
vertex 6.767568 12.583692 7.219372
endloop
endfacet
facet normal 0 0 0
outer loop
vertex 6.706141 12.583692 7.219372
vertex 6.726616 12.583692 7.239372
vertex 6.726616 12.604445 7.219372
endloop
endfacet
facet normal 0 0 0
outer loop
vertex 6.726616 12.604445 7.219372
vertex 6.747092 12.583692 7.239372
vertex 6.747092 12.604445 7.219372
endloop
endfacet
facet normal 0 0 0
outer loop
vertex 6.726616 12.583692 7.239372
vertex 6.747092 12.583692 7.239372
vertex 6.726616 12.604445 7.219372
endloop
endfacet
facet normal 0 0 0
outer loop
vertex 6.747092 12.583692 7.239372
vertex 6.767568 12.583692 7.219372
vertex 6.747092 12.604445 7.219372
endloop
endfacet
facet normal 0 0 0
outer loop
vertex 6.767568 12.583692 7.219372
vertex 6.767568 12.604445 7.219372
vertex 6.747092 12.604445 7.219372
endloop
endfacet
facet normal 0 0 0
outer loop
vertex 6.706141 12.500679 7.259372
vertex 6.685665 12.521432 7.259372
vertex 6.706141 12.521432 7.239372
endloop
endfacet
facet normal 0 0 0
outer loop
vertex 6.685665 12.521432 7.259372
vertex 6.685665 12.521432 7.239372
vertex 6.706141 12.521432 7.239372
endloop
endfacet
facet normal 0 0 0
outer loop
vertex 6.706141 12.500679 7.259372
vertex 6.706141 12.521432 7.239372
vertex 6.726616 12.521432 7.259372
endloop
endfacet
facet normal 0 0 0
outer loop
vertex 6.726616 12.500679 7.239372
vertex 6.726616 12.521432 7.259372
vertex 6.706141 12.521432 7.239372
endloop
endfacet
facet normal 0 0 0
outer loop
vertex 6.747092 12.521432 7.239372
vertex 6.726616 12.521432 7.259372
vertex 6.726616 12.500679 7.239372
endloop
endfacet
facet normal 0 0 0
outer loop
vertex 6.685665 12.521432 7.239372
vertex 6.685665 12.521432 7.259372
vertex 6.685665 12.542186 7.239372
endloop
endfacet
facet normal 0 0 0
outer loop
vertex 6.685665 12.521432 7.259372
vertex 6.685665 12.542186 7.259372
vertex 6.685665 12.542186 7.239372
endloop
endfacet
facet normal 0 0 0
outer loop
vertex 6.747092 12.521432 7.239372
vertex 6.747092 12.542186 7.259372
vertex 6.726616 12.521432 7.259372
endloop
endfacet
facet normal 0 0 0
outer loop
vertex 6.747092 12.521432 7.239372
vertex 6.767568 12.542186 7.239372
vertex 6.747092 12.542186 7.259372
endloop
endfacet
facet normal 0 0 0
outer loop
vertex 6.767568 12.542186 7.239372
vertex 6.767568 12.542186 7.259372
vertex 6.747092 12.542186 7.259372
endloop
endfacet
facet normal 0 0 0
outer loop
vertex 6.685665 12.542186 7.259372
vertex 6.706141 12.562939 7.239372
vertex 6.685665 12.542186 7.239372
endloop
endfacet
facet normal 0 0 0
outer loop
vertex 6.706141 12.562939 7.259372
vertex 6.706141 12.562939 7.239372
vertex 6.685665 12.542186 7.259372
endloop
endfacet
facet normal 0 0 0
outer loop
vertex 6.747092 12.562939 7.239372
vertex 6.726616 12.562939 7.259372
vertex 6.747092 12.542186 7.259372
endloop
endfacet
facet normal 0 0 0
outer loop
vertex 6.747092 12.562939 7.239372
vertex 6.767568 12.542186 7.259372
vertex 6.767568 12.562939 7.239372
endloop
endfacet
facet normal 0 0 0
outer loop
vertex 6.747092 12.542186 7.259372
vertex 6.767568 12.542186 7.259372
vertex 6.747092 12.562939 7.239372
endloop
endfacet
facet normal 0 0 0
outer loop
vertex 6.788043 12.542186 7.259372
vertex 6.767568 12.542186 7.239372
vertex 6.767568 12.542186 7.259372
endloop
endfacet
facet normal 0 0 0
outer loop
vertex 6.767568 12.542186 7.259372
vertex 6.767568 12.542186 7.239372
vertex 6.767568 12.562939 7.239372
endloop
endfacet
facet normal 0 0 0
outer loop
vertex 6.767568 12.562939 7.239372
vertex 6.767568 12.542186 7.239372
vertex 6.788043 12.562939 7.239372
endloop
endfacet
facet normal 0 0 0
outer loop
vertex 6.726616 12.583692 7.239372
vertex 6.706141 12.562939 7.239372
vertex 6.726616 12.562939 7.259372
endloop
endfacet
facet normal 0 0 0
outer loop
vertex 6.706141 12.562939 7.239372
vertex 6.706141 12.562939 7.259372
vertex 6.726616 12.562939 7.259372
endloop
endfacet
facet normal 0 0 0
outer loop
vertex 6.726616 12.562939 7.259372
vertex 6.747092 12.562939 7.239372
vertex 6.726616 12.583692 7.239372
endloop
endfacet
facet normal 0 0 0
outer loop
vertex 6.747092 12.562939 7.239372
vertex 6.747092 12.583692 7.239372
vertex 6.726616 12.583692 7.239372
endloop
endfacet
facet normal 0 0 0
outer loop
vertex 6.767568 12.562939 7.239372
vertex 6.747092 12.583692 7.239372
vertex 6.747092 12.562939 7.239372
endloop
endfacet
facet normal 0 0 0
outer loop
vertex 6.665189 12.521432 7.279372
vertex 6.685665 12.521432 7.259372
vertex 6.685665 12.521432 7.279372
endloop
endfacet
facet normal 0 0 0
outer loop
vertex 6.706141 12.500679 7.259372
vertex 6.706141 12.521432 7.279372
vertex 6.685665 12.521432 7.259372
endloop
endfacet
facet normal 0 0 0
outer loop
vertex 6.706141 12.521432 7.279372
vertex 6.685665 12.521432 7.279372
vertex 6.685665 12.521432 7.259372
endloop
endfacet
facet normal 0 0 0
outer loop
vertex 6.726616 12.521432 7.259372
vertex 6.706141 12.521432 7.279372
vertex 6.706141 12.500679 7.259372
endloop
endfacet
facet normal 0 0 0
outer loop
vertex 6.685665 12.521432 7.259372
vertex 6.665189 12.542186 7.279372
vertex 6.685665 12.542186 7.259372
endloop
endfacet
facet normal 0 0 0
outer loop
vertex 6.665189 12.521432 7.279372
vertex 6.665189 12.542186 7.279372
vertex 6.685665 12.521432 7.259372
endloop
endfacet
facet normal 0 0 0
outer loop
vertex 6.726616 12.542186 7.259372
vertex 6.706141 12.521432 7.279372
vertex 6.726616 12.521432 7.259372
endloop
endfacet
facet normal 0 0 0
outer loop
vertex 6.706141 12.542186 7.279372
vertex 6.706141 12.521432 7.279372
vertex 6.726616 12.542186 7.259372
endloop
endfacet
facet normal 0 0 0
outer loop
vertex 6.726616 12.521432 7.259372
vertex 6.747092 12.542186 7.259372
vertex 6.726616 12.542186 7.259372
endloop
endfacet
facet normal 0 0 0
outer loop
vertex 6.685665 12.542186 7.259372
vertex 6.665189 12.542186 7.279372
vertex 6.685665 12.562939 7.279372
endloop
endfacet
facet normal 0 0 0
outer loop
vertex 6.665189 12.542186 7.279372
vertex 6.665189 12.562939 7.279372
vertex 6.685665 12.562939 7.279372
endloop
endfacet
facet normal 0 0 0
outer loop
vertex 6.685665 12.542186 7.259372
vertex 6.685665 12.562939 7.279372
vertex 6.706141 12.562939 7.259372
endloop
endfacet
facet normal 0 0 0
outer loop
vertex 6.726616 12.562939 7.259372
vertex 6.706141 12.542186 7.279372
vertex 6.726616 12.542186 7.259372
endloop
endfacet
facet normal 0 0 0
outer loop
vertex 6.706141 12.562939 7.279372
vertex 6.706141 12.542186 7.279372
vertex 6.726616 12.562939 7.259372
endloop
endfacet
facet normal 0 0 0
outer loop
vertex 6.747092 12.542186 7.259372
vertex 6.726616 12.562939 7.259372
vertex 6.726616 12.542186 7.259372
endloop
endfacet
facet normal 0 0 0
outer loop
vertex 6.665189 12.562939 7.279372
vertex 6.685665 12.583692 7.279372
vertex 6.685665 12.562939 7.279372
endloop
endfacet
facet normal 0 0 0
outer loop
vertex 6.706141 12.562939 7.259372
vertex 6.685665 12.562939 7.279372
vertex 6.706141 12.583692 7.279372
endloop
endfacet
facet normal 0 0 0
outer loop
vertex 6.685665 12.562939 7.279372
vertex 6.685665 12.583692 7.279372
vertex 6.706141 12.583692 7.279372
endloop
endfacet
facet normal 0 0 0
outer loop
vertex 6.726616 12.562939 7.259372
vertex 6.706141 12.583692 7.279372
vertex 6.706141 12.562939 7.279372
endloop
endfacet
facet normal 0 0 0
outer loop
vertex 6.726616 12.562939 7.259372
vertex 6.706141 12.562939 7.259372
vertex 6.706141 12.583692 7.279372
endloop
endfacet
facet normal 0 0 0
outer loop
vertex 6.665189 12.500679 7.299372
vertex 6.644713 12.521432 7.299372
vertex 6.665189 12.521432 7.279372
endloop
endfacet
facet normal 0 0 0
outer loop
vertex 6.685665 12.521432 7.279372
vertex 6.665189 12.500679 7.299372
vertex 6.665189 12.521432 7.279372
endloop
endfacet
facet normal 0 0 0
outer loop
vertex 6.685665 12.500679 7.299372
vertex 6.665189 12.500679 7.299372
vertex 6.685665 12.521432 7.279372
endloop
endfacet
facet normal 0 0 0
outer loop
vertex 6.706141 12.521432 7.279372
vertex 6.685665 12.500679 7.299372
vertex 6.685665 12.521432 7.279372
endloop
endfacet
facet normal 0 0 0
outer loop
vertex 6.706141 12.500679 7.299372
vertex 6.685665 12.500679 7.299372
vertex 6.706141 12.521432 7.279372
endloop
endfacet
facet normal 0 0 0
outer loop
vertex 6.706141 12.521432 7.279372
vertex 6.726616 12.521432 7.299372
vertex 6.706141 12.500679 7.299372
endloop
endfacet
facet normal 0 0 0
outer loop
vertex 6.665189 12.521432 7.279372
vertex 6.644713 12.542186 7.299372
vertex 6.665189 12.542186 7.279372
endloop
endfacet
facet normal 0 0 0
outer loop
vertex 6.644713 12.521432 7.299372
vertex 6.644713 12.542186 7.299372
vertex 6.665189 12.521432 7.279372
endloop
endfacet
facet normal 0 0 0
outer loop
vertex 6.726616 12.521432 7.299372
vertex 6.706141 12.542186 7.279372
vertex 6.726616 12.542186 7.299372
endloop
endfacet
facet normal 0 0 0
outer loop
vertex 6.706141 12.521432 7.279372
vertex 6.706141 12.542186 7.279372
vertex 6.726616 12.521432 7.299372
endloop
endfacet
facet normal 0 0 0
outer loop
vertex 6.644713 12.542186 7.299372
vertex 6.665189 12.562939 7.299372
vertex 6.665189 12.542186 7.279372
endloop
endfacet
facet normal 0 0 0
outer loop
vertex 6.665189 12.562939 7.299372
vertex 6.665189 12.562939 7.279372
vertex 6.665189 12.542186 7.279372
endloop
endfacet
facet normal 0 0 0
outer loop
vertex 6.726616 12.542186 7.299372
vertex 6.706141 12.562939 7.279372
vertex 6.726616 12.562939 7.299372
endloop
endfacet
facet normal 0 0 0
outer loop
vertex 6.706141 12.542186 7.279372
vertex 6.706141 12.562939 7.279372
vertex 6.726616 12.542186 7.299372
endloop
endfacet
facet normal 0 0 0
outer loop
vertex 6.747092 12.562939 7.299372
vertex 6.726616 12.542186 7.299372
vertex 6.726616 12.562939 7.299372
endloop
endfacet
facet normal 0 0 0
outer loop
vertex 6.665189 12.562939 7.299372
vertex 6.685665 12.583692 7.279372
vertex 6.665189 12.562939 7.279372
endloop
endfacet
facet normal 0 0 0
outer loop
vertex 6.685665 12.583692 7.299372
vertex 6.685665 12.583692 7.279372
vertex 6.665189 12.562939 7.299372
endloop
endfacet
facet normal 0 0 0
outer loop
vertex 6.726616 12.562939 7.299372
vertex 6.706141 12.562939 7.279372
vertex 6.706141 12.583692 7.299372
endloop
endfacet
facet normal 0 0 0
outer loop
vertex 6.706141 12.562939 7.279372
vertex 6.706141 12.583692 7.279372
vertex 6.706141 12.583692 7.299372
endloop
endfacet
facet normal 0 0 0
outer loop
vertex 6.706141 12.583692 7.279372
vertex 6.685665 12.583692 7.279372
vertex 6.706141 12.583692 7.299372
endloop
endfacet
facet normal 0 0 0
outer loop
vertex 6.685665 12.583692 7.279372
vertex 6.685665 12.583692 7.299372
vertex 6.706141 12.583692 7.299372
endloop
endfacet
facet normal 0 0 0
outer loop
vertex 6.685665 12.500679 7.299372
vertex 6.665189 12.500679 7.319372
vertex 6.665189 12.500679 7.299372
endloop
endfacet
facet normal 0 0 0
outer loop
vertex 6.665189 12.500679 7.319372
vertex 6.644713 12.521432 7.299372
vertex 6.665189 12.500679 7.299372
endloop
endfacet
facet normal 0 0 0
outer loop
vertex 6.644713 12.521432 7.319372
vertex 6.644713 12.521432 7.299372
vertex 6.665189 12.500679 7.319372
endloop
endfacet
facet normal 0 0 0
outer loop
vertex 6.685665 12.500679 7.299372
vertex 6.685665 12.521432 7.319372
vertex 6.665189 12.500679 7.319372
endloop
endfacet
facet normal 0 0 0
outer loop
vertex 6.685665 12.521432 7.319372
vertex 6.685665 12.500679 7.299372
vertex 6.706141 12.521432 7.299372
endloop
endfacet
facet normal 0 0 0
outer loop
vertex 6.685665 12.500679 7.299372
vertex 6.706141 12.500679 7.299372
vertex 6.706141 12.521432 7.299372
endloop
endfacet
facet normal 0 0 0
outer loop
vertex 6.726616 12.500679 7.299372
vertex 6.726616 12.521432 7.299372
vertex 6.706141 12.500679 7.299372
endloop
endfacet
facet normal 0 0 0
outer loop
vertex 6.726616 12.521432 7.299372
vertex 6.706141 12.521432 7.299372
vertex 6.706141 12.500679 7.299372
endloop
endfacet
facet normal 0 0 0
outer loop
vertex 6.644713 12.521432 7.319372
vertex 6.644713 12.542186 7.299372
vertex 6.644713 12.521432 7.299372
endloop
endfacet
facet normal 0 0 0
outer loop
vertex 6.644713 12.521432 7.319372
vertex 6.665189 12.542186 7.319372
vertex 6.644713 12.542186 7.299372
endloop
endfacet
facet normal 0 0 0
outer loop
vertex 6.706141 12.542186 7.299372
vertex 6.685665 12.521432 7.319372
vertex 6.706141 12.521432 7.299372
endloop
endfacet
facet normal 0 0 0
outer loop
vertex 6.685665 12.542186 7.319372
vertex 6.685665 12.521432 7.319372
vertex 6.706141 12.542186 7.299372
endloop
endfacet
facet normal 0 0 0
outer loop
vertex 6.726616 12.521432 7.299372
vertex 6.726616 12.542186 7.299372
vertex 6.706141 12.521432 7.299372
endloop
endfacet
facet normal 0 0 0
outer loop
vertex 6.726616 12.542186 7.299372
vertex 6.706141 12.542186 7.299372
vertex 6.706141 12.521432 7.299372
endloop
endfacet
facet normal 0 0 0
outer loop
vertex 6.644713 12.542186 7.299372
vertex 6.665189 12.542186 7.319372
vertex 6.665189 12.562939 7.299372
endloop
endfacet
facet normal 0 0 0
outer loop
vertex 6.665189 12.562939 7.299372
vertex 6.685665 12.542186 7.319372
vertex 6.685665 12.562939 7.299372
endloop
endfacet
facet normal 0 0 0
outer loop
vertex 6.665189 12.542186 7.319372
vertex 6.685665 12.542186 7.319372
vertex 6.665189 12.562939 7.299372
endloop
endfacet
facet normal 0 0 0
outer loop
vertex 6.685665 12.542186 7.319372
vertex 6.706141 12.542186 7.299372
vertex 6.685665 12.562939 7.299372
endloop
endfacet
facet normal 0 0 0
outer loop
vertex 6.706141 12.542186 7.299372
vertex 6.706141 12.562939 7.299372
vertex 6.685665 12.562939 7.299372
endloop
endfacet
facet normal 0 0 0
outer loop
vertex 6.726616 12.542186 7.299372
vertex 6.726616 12.562939 7.299372
vertex 6.706141 12.542186 7.299372
endloop
endfacet
facet normal 0 0 0
outer loop
vertex 6.726616 12.562939 7.299372
vertex 6.706141 12.562939 7.299372
vertex 6.706141 12.542186 7.299372
endloop
endfacet
facet normal 0 0 0
outer loop
vertex 6.685665 12.583692 7.299372
vertex 6.665189 12.562939 7.299372
vertex 6.685665 12.562939 7.299372
endloop
endfacet
facet normal 0 0 0
outer loop
vertex 6.706141 12.562939 7.299372
vertex 6.706141 12.583692 7.299372
vertex 6.685665 12.562939 7.299372
endloop
endfacet
facet normal 0 0 0
outer loop
vertex 6.706141 12.583692 7.299372
vertex 6.685665 12.583692 7.299372
vertex 6.685665 12.562939 7.299372
endloop
endfacet
facet normal 0 0 0
outer loop
vertex 6.726616 12.562939 7.299372
vertex 6.706141 12.583692 7.299372
vertex 6.706141 12.562939 7.299372
endloop
endfacet
facet normal 0 0 0
outer loop
vertex 6.644713 12.500679 7.339372
vertex 6.665189 12.500679 7.319372
vertex 6.665189 12.500679 7.339372
endloop
endfacet
facet normal 0 0 0
outer loop
vertex 6.665189 12.500679 7.319372
vertex 6.685665 12.500679 7.339372
vertex 6.665189 12.500679 7.339372
endloop
endfacet
facet normal 0 0 0
outer loop
vertex 6.644713 12.500679 7.339372
vertex 6.624238 12.521432 7.339372
vertex 6.644713 12.521432 7.319372
endloop
endfacet
facet normal 0 0 0
outer loop
vertex 6.665189 12.500679 7.319372
vertex 6.644713 12.500679 7.339372
vertex 6.644713 12.521432 7.319372
endloop
endfacet
facet normal 0 0 0
outer loop
vertex 6.665189 12.500679 7.319372
vertex 6.685665 12.521432 7.319372
vertex 6.685665 12.500679 7.339372
endloop
endfacet
facet normal 0 0 0
outer loop
vertex 6.685665 12.500679 7.339372
vertex 6.685665 12.521432 7.319372
vertex 6.685665 12.521432 7.339372
endloop
endfacet
facet normal 0 0 0
outer loop
vertex 6.644713 12.521432 7.319372
vertex 6.624238 12.521432 7.339372
vertex 6.644713 12.542186 7.339372
endloop
endfacet
facet normal 0 0 0
outer loop
vertex 6.644713 12.521432 7.319372
vertex 6.644713 12.542186 7.339372
vertex 6.665189 12.542186 7.319372
endloop
endfacet
facet normal 0 0 0
outer loop
vertex 6.685665 12.521432 7.319372
vertex 6.685665 12.542186 7.319372
vertex 6.685665 12.521432 7.339372
endloop
endfacet
facet normal 0 0 0
outer loop
vertex 6.685665 12.521432 7.339372
vertex 6.685665 12.542186 7.319372
vertex 6.685665 12.542186 7.339372
endloop
endfacet
facet normal 0 0 0
outer loop
vertex 6.665189 12.542186 7.319372
vertex 6.644713 12.542186 7.339372
vertex 6.665189 12.562939 7.339372
endloop
endfacet
facet normal 0 0 0
outer loop
vertex 6.665189 12.542186 7.319372
vertex 6.685665 12.562939 7.339372
vertex 6.685665 12.542186 7.319372
endloop
endfacet
facet normal 0 0 0
outer loop
vertex 6.665189 12.562939 7.339372
vertex 6.685665 12.562939 7.339372
vertex 6.665189 12.542186 7.319372
endloop
endfacet
facet normal 0 0 0
outer loop
vertex 6.685665 12.542186 7.319372
vertex 6.685665 12.562939 7.339372
vertex 6.685665 12.542186 7.339372
endloop
endfacet
facet normal 0 0 0
outer loop
vertex 6.644713 12.479925 7.359372
vertex 6.624238 12.500679 7.359372
vertex 6.644713 12.500679 7.339372
endloop
endfacet
facet normal 0 0 0
outer loop
vertex 6.644713 12.479925 7.359372
vertex 6.644713 12.500679 7.339372
vertex 6.665189 12.500679 7.359372
endloop
endfacet
facet normal 0 0 0
outer loop
vertex 6.644713 12.500679 7.339372
vertex 6.665189 12.500679 7.339372
vertex 6.665189 12.500679 7.359372
endloop
endfacet
facet normal 0 0 0
outer loop
vertex 6.685665 12.500679 7.339372
vertex 6.685665 12.500679 7.359372
vertex 6.665189 12.500679 7.339372
endloop
endfacet
facet normal 0 0 0
outer loop
vertex 6.665189 12.500679 7.339372
vertex 6.685665 12.500679 7.359372
vertex 6.665189 12.500679 7.359372
endloop
endfacet
facet normal 0 0 0
outer loop
vertex 6.624238 12.521432 7.339372
vertex 6.624238 12.500679 7.359372
vertex 6.624238 12.521432 7.359372
endloop
endfacet
facet normal 0 0 0
outer loop
vertex 6.644713 12.500679 7.339372
vertex 6.624238 12.500679 7.359372
vertex 6.624238 12.521432 7.339372
endloop
endfacet
facet normal 0 0 0
outer loop
vertex 6.685665 12.500679 7.339372
vertex 6.685665 12.521432 7.339372
vertex 6.685665 12.500679 7.359372
endloop
endfacet
facet normal 0 0 0
outer loop
vertex 6.685665 12.500679 7.359372
vertex 6.685665 12.521432 7.339372
vertex 6.685665 12.521432 7.359372
endloop
endfacet
facet normal 0 0 0
outer loop
vertex 6.624238 12.542186 7.359372
vertex 6.624238 12.521432 7.339372
vertex 6.624238 12.521432 7.359372
endloop
endfacet
facet normal 0 0 0
outer loop
vertex 6.624238 12.521432 7.339372
vertex 6.624238 12.542186 7.359372
vertex 6.644713 12.542186 7.339372
endloop
endfacet
facet normal 0 0 0
outer loop
vertex 6.706141 12.542186 7.359372
vertex 6.685665 12.521432 7.359372
vertex 6.685665 12.542186 7.339372
endloop
endfacet
facet normal 0 0 0
outer loop
vertex 6.685665 12.521432 7.359372
vertex 6.685665 12.521432 7.339372
vertex 6.685665 12.542186 7.339372
endloop
endfacet
facet normal 0 0 0
outer loop
vertex 6.644713 12.542186 7.339372
vertex 6.624238 12.542186 7.359372
vertex 6.644713 12.562939 7.359372
endloop
endfacet
facet normal 0 0 0
outer loop
vertex 6.624238 12.542186 7.359372
vertex 6.624238 12.562939 7.359372
vertex 6.644713 12.562939 7.359372
endloop
endfacet
facet normal 0 0 0
outer loop
vertex 6.644713 12.542186 7.339372
vertex 6.644713 12.562939 7.359372
vertex 6.665189 12.562939 7.339372
endloop
endfacet
facet normal 0 0 0
outer loop
vertex 6.706141 12.542186 7.359372
vertex 6.685665 12.542186 7.339372
vertex 6.685665 12.562939 7.359372
endloop
endfacet
facet normal 0 0 0
outer loop
vertex 6.685665 12.542186 7.339372
vertex 6.685665 12.562939 7.339372
vertex 6.685665 12.562939 7.359372
endloop
endfacet
facet normal 0 0 0
outer loop
vertex 6.665189 12.562939 7.339372
vertex 6.644713 12.562939 7.359372
vertex 6.665189 12.562939 7.359372
endloop
endfacet
facet normal 0 0 0
outer loop
vertex 6.685665 12.562939 7.339372
vertex 6.665189 12.562939 7.339372
vertex 6.685665 12.562939 7.359372
endloop
endfacet
facet normal 0 0 0
outer loop
vertex 6.665189 12.562939 7.339372
vertex 6.665189 12.562939 7.359372
vertex 6.685665 12.562939 7.359372
endloop
endfacet
facet normal 0 0 0
outer loop
vertex 6.624238 12.479925 7.379372
vertex 6.644713 12.479925 7.359372
vertex 6.644713 12.479925 7.379372
endloop
endfacet
facet normal 0 0 0
outer loop
vertex 6.603761 12.479925 7.379372
vertex 6.583286 12.500679 7.379372
vertex 6.603761 12.500679 7.379372
endloop
endfacet
facet normal 0 0 0
outer loop
vertex 6.624238 12.500679 7.359372
vertex 6.624238 12.479925 7.379372
vertex 6.603761 12.500679 7.379372
endloop
endfacet
facet normal 0 0 0
outer loop
vertex 6.624238 12.479925 7.379372
vertex 6.603761 12.479925 7.379372
vertex 6.603761 12.500679 7.379372
endloop
endfacet
facet normal 0 0 0
outer loop
vertex 6.644713 12.479925 7.359372
vertex 6.624238 12.479925 7.379372
vertex 6.624238 12.500679 7.359372
endloop
endfacet
facet normal 0 0 0
outer loop
vertex 6.644713 12.479925 7.359372
vertex 6.665189 12.500679 7.379372
vertex 6.644713 12.479925 7.379372
endloop
endfacet
facet normal 0 0 0
outer loop
vertex 6.665189 12.500679 7.359372
vertex 6.665189 12.500679 7.379372
vertex 6.644713 12.479925 7.359372
endloop
endfacet
facet normal 0 0 0
outer loop
vertex 6.685665 12.500679 7.359372
vertex 6.665189 12.500679 7.379372
vertex 6.665189 12.500679 7.359372
endloop
endfacet
facet normal 0 0 0
outer loop
vertex 6.603761 12.500679 7.379372
vertex 6.583286 12.500679 7.379372
vertex 6.603761 12.521432 7.379372
endloop
endfacet
facet normal 0 0 0
outer loop
vertex 6.624238 12.500679 7.359372
vertex 6.603761 12.521432 7.379372
vertex 6.624238 12.521432 7.359372
endloop
endfacet
facet normal 0 0 0
outer loop
vertex 6.603761 12.500679 7.379372
vertex 6.603761 12.521432 7.379372
vertex 6.624238 12.500679 7.359372
endloop
endfacet
facet normal 0 0 0
outer loop
vertex 6.685665 12.521432 7.359372
vertex 6.665189 12.500679 7.379372
vertex 6.685665 12.500679 7.359372
endloop
endfacet
facet normal 0 0 0
outer loop
vertex 6.665189 12.521432 7.379372
vertex 6.665189 12.500679 7.379372
vertex 6.685665 12.521432 7.359372
endloop
endfacet
facet normal 0 0 0
outer loop
vertex 6.583286 12.521432 7.379372
vertex 6.603761 12.542186 7.379372
vertex 6.603761 12.521432 7.379372
endloop
endfacet
facet normal 0 0 0
outer loop
vertex 6.624238 12.521432 7.359372
vertex 6.603761 12.542186 7.379372
vertex 6.624238 12.542186 7.359372
endloop
endfacet
facet normal 0 0 0
outer loop
vertex 6.603761 12.521432 7.379372
vertex 6.603761 12.542186 7.379372
vertex 6.624238 12.521432 7.359372
endloop
endfacet
facet normal 0 0 0
outer loop
vertex 6.685665 12.542186 7.359372
vertex 6.665189 12.521432 7.379372
vertex 6.685665 12.521432 7.359372
endloop
endfacet
facet normal 0 0 0
outer loop
vertex 6.665189 12.542186 7.379372
vertex 6.665189 12.521432 7.379372
vertex 6.685665 12.542186 7.359372
endloop
endfacet
facet normal 0 0 0
outer loop
vertex 6.685665 12.521432 7.359372
vertex 6.706141 12.542186 7.359372
vertex 6.685665 12.542186 7.359372
endloop
endfacet
facet normal 0 0 0
outer loop
vertex 6.603761 12.542186 7.379372
vertex 6.624238 12.562939 7.359372
vertex 6.624238 12.542186 7.359372
endloop
endfacet
facet normal 0 0 0
outer loop
vertex 6.603761 12.542186 7.379372
vertex 6.624238 12.542186 7.379372
vertex 6.624238 12.562939 7.359372
endloop
endfacet
facet normal 0 0 0
outer loop
vertex 6.624238 12.542186 7.379372
vertex 6.644713 12.562939 7.379372
vertex 6.624238 12.562939 7.359372
endloop
endfacet
facet normal 0 0 0
outer loop
vertex 6.665189 12.562939 7.359372
vertex 6.644713 12.562939 7.379372
vertex 6.665189 12.542186 7.379372
endloop
endfacet
facet normal 0 0 0
outer loop
vertex 6.665189 12.542186 7.379372
vertex 6.685665 12.542186 7.359372
vertex 6.665189 12.562939 7.359372
endloop
endfacet
facet normal 0 0 0
outer loop
vertex 6.685665 12.542186 7.359372
vertex 6.685665 12.562939 7.359372
vertex 6.665189 12.562939 7.359372
endloop
endfacet
facet normal 0 0 0
outer loop
vertex 6.706141 12.542186 7.359372
vertex 6.685665 12.562939 7.359372
vertex 6.685665 12.542186 7.359372
endloop
endfacet
facet normal 0 0 0
outer loop
vertex 6.624238 12.562939 7.359372
vertex 6.644713 12.562939 7.379372
vertex 6.644713 12.562939 7.359372
endloop
endfacet
facet normal 0 0 0
outer loop
vertex 6.644713 12.562939 7.379372
vertex 6.665189 12.562939 7.359372
vertex 6.644713 12.562939 7.359372
endloop
endfacet
facet normal 0 0 0
outer loop
vertex 6.603761 12.479925 7.379372
vertex 6.603761 12.500679 7.399372
vertex 6.583286 12.500679 7.379372
endloop
endfacet
facet normal 0 0 0
outer loop
vertex 6.624238 12.479925 7.379372
vertex 6.603761 12.500679 7.399372
vertex 6.603761 12.479925 7.379372
endloop
endfacet
facet normal 0 0 0
outer loop
vertex 6.624238 12.500679 7.399372
vertex 6.603761 12.500679 7.399372
vertex 6.624238 12.479925 7.379372
endloop
endfacet
facet normal 0 0 0
outer loop
vertex 6.644713 12.479925 7.379372
vertex 6.624238 12.500679 7.399372
vertex 6.624238 12.479925 7.379372
endloop
endfacet
facet normal 0 0 0
outer loop
vertex 6.644713 12.500679 7.399372
vertex 6.624238 12.500679 7.399372
vertex 6.644713 12.479925 7.379372
endloop
endfacet
facet normal 0 0 0
outer loop
vertex 6.644713 12.479925 7.379372
vertex 6.665189 12.500679 7.379372
vertex 6.644713 12.500679 7.399372
endloop
endfacet
facet normal 0 0 0
outer loop
vertex 6.665189 12.500679 7.379372
vertex 6.665189 12.500679 7.399372
vertex 6.644713 12.500679 7.399372
endloop
endfacet
facet normal 0 0 0
outer loop
vertex 6.603761 12.500679 7.399372
vertex 6.603761 12.521432 7.379372
vertex 6.583286 12.500679 7.379372
endloop
endfacet
facet normal 0 0 0
outer loop
vertex 6.603761 12.521432 7.379372
vertex 6.583286 12.521432 7.379372
vertex 6.583286 12.500679 7.379372
endloop
endfacet
facet normal 0 0 0
outer loop
vertex 6.603761 12.521432 7.379372
vertex 6.624238 12.500679 7.399372
vertex 6.624238 12.521432 7.379372
endloop
endfacet
facet normal 0 0 0
outer loop
vertex 6.603761 12.500679 7.399372
vertex 6.624238 12.500679 7.399372
vertex 6.603761 12.521432 7.379372
endloop
endfacet
facet normal 0 0 0
outer loop
vertex 6.624238 12.521432 7.379372
vertex 6.644713 12.500679 7.399372
vertex 6.644713 12.521432 7.379372
endloop
endfacet
facet normal 0 0 0
outer loop
vertex 6.624238 12.500679 7.399372
vertex 6.644713 12.500679 7.399372
vertex 6.624238 12.521432 7.379372
endloop
endfacet
facet normal 0 0 0
outer loop
vertex 6.644713 12.500679 7.399372
vertex 6.665189 12.521432 7.399372
vertex 6.644713 12.521432 7.379372
endloop
endfacet
facet normal 0 0 0
outer loop
vertex 6.665189 12.500679 7.379372
vertex 6.665189 12.521432 7.379372
vertex 6.665189 12.500679 7.399372
endloop
endfacet
facet normal 0 0 0
outer loop
vertex 6.665189 12.500679 7.399372
vertex 6.665189 12.521432 7.379372
vertex 6.665189 12.521432 7.399372
endloop
endfacet
facet normal 0 0 0
outer loop
vertex 6.624238 12.521432 7.379372
vertex 6.624238 12.542186 7.379372
vertex 6.603761 12.521432 7.379372
endloop
endfacet
facet normal 0 0 0
outer loop
vertex 6.624238 12.542186 7.379372
vertex 6.603761 12.542186 7.379372
vertex 6.603761 12.521432 7.379372
endloop
endfacet
facet normal 0 0 0
outer loop
vertex 6.644713 12.521432 7.379372
vertex 6.644713 12.542186 7.379372
vertex 6.624238 12.521432 7.379372
endloop
endfacet
facet normal 0 0 0
outer loop
vertex 6.644713 12.542186 7.379372
vertex 6.624238 12.542186 7.379372
vertex 6.624238 12.521432 7.379372
endloop
endfacet
facet normal 0 0 0
outer loop
vertex 6.665189 12.542186 7.399372
vertex 6.644713 12.521432 7.379372
vertex 6.665189 12.521432 7.399372
endloop
endfacet
facet normal 0 0 0
outer loop
vertex 6.644713 12.542186 7.379372
vertex 6.644713 12.521432 7.379372
vertex 6.665189 12.542186 7.399372
endloop
endfacet
facet normal 0 0 0
outer loop
vertex 6.665189 12.521432 7.379372
vertex 6.665189 12.542186 7.379372
vertex 6.665189 12.521432 7.399372
endloop
endfacet
facet normal 0 0 0
outer loop
vertex 6.665189 12.521432 7.399372
vertex 6.665189 12.542186 7.379372
vertex 6.665189 12.542186 7.399372
endloop
endfacet
facet normal 0 0 0
outer loop
vertex 6.644713 12.562939 7.379372
vertex 6.624238 12.542186 7.379372
vertex 6.644713 12.542186 7.379372
endloop
endfacet
facet normal 0 0 0
outer loop
vertex 6.644713 12.562939 7.379372
vertex 6.665189 12.542186 7.399372
vertex 6.665189 12.542186 7.379372
endloop
endfacet
facet normal 0 0 0
outer loop
vertex 6.644713 12.562939 7.379372
vertex 6.644713 12.542186 7.379372
vertex 6.665189 12.542186 7.399372
endloop
endfacet
facet normal 0 0 0
outer loop
vertex 6.624238 12.500679 7.399372
vertex 6.624238 12.500679 7.419372
vertex 6.603761 12.500679 7.399372
endloop
endfacet
facet normal 0 0 0
outer loop
vertex 6.603761 12.500679 7.399372
vertex 6.624238 12.500679 7.419372
vertex 6.603761 12.500679 7.419372
endloop
endfacet
facet normal 0 0 0
outer loop
vertex 6.644713 12.500679 7.399372
vertex 6.644713 12.500679 7.419372
vertex 6.624238 12.500679 7.399372
endloop
endfacet
facet normal 0 0 0
outer loop
vertex 6.624238 12.500679 7.399372
vertex 6.644713 12.500679 7.419372
vertex 6.624238 12.500679 7.419372
endloop
endfacet
facet normal 0 0 0
outer loop
vertex 6.665189 12.500679 7.399372
vertex 6.644713 12.500679 7.419372
vertex 6.644713 12.500679 7.399372
endloop
endfacet
facet normal 0 0 0
outer loop
vertex 6.603761 12.500679 7.399372
vertex 6.583286 12.521432 7.419372
vertex 6.603761 12.521432 7.419372
endloop
endfacet
facet normal 0 0 0
outer loop
vertex 6.603761 12.500679 7.399372
vertex 6.603761 12.500679 7.419372
vertex 6.583286 12.521432 7.419372
endloop
endfacet
facet normal 0 0 0
outer loop
vertex 6.603761 12.500679 7.399372
vertex 6.624238 12.521432 7.419372
vertex 6.624238 12.500679 7.399372
endloop
endfacet
facet normal 0 0 0
outer loop
vertex 6.603761 12.521432 7.419372
vertex 6.624238 12.521432 7.419372
vertex 6.603761 12.500679 7.399372
endloop
endfacet
facet normal 0 0 0
outer loop
vertex 6.624238 12.500679 7.399372
vertex 6.644713 12.521432 7.419372
vertex 6.644713 12.500679 7.399372
endloop
endfacet
facet normal 0 0 0
outer loop
vertex 6.624238 12.521432 7.419372
vertex 6.644713 12.521432 7.419372
vertex 6.624238 12.500679 7.399372
endloop
endfacet
facet normal 0 0 0
outer loop
vertex 6.665189 12.500679 7.399372
vertex 6.665189 12.521432 7.419372
vertex 6.644713 12.500679 7.419372
endloop
endfacet
facet normal 0 0 0
outer loop
vertex 6.665189 12.521432 7.399372
vertex 6.644713 12.500679 7.399372
vertex 6.644713 12.521432 7.419372
endloop
endfacet
facet normal 0 0 0
outer loop
vertex 6.665189 12.521432 7.419372
vertex 6.665189 12.500679 7.399372
vertex 6.665189 12.521432 7.399372
endloop
endfacet
facet normal 0 0 0
outer loop
vertex 6.624238 12.521432 7.419372
vertex 6.603761 12.521432 7.419372
vertex 6.624238 12.542186 7.419372
endloop
endfacet
facet normal 0 0 0
outer loop
vertex 6.644713 12.521432 7.419372
vertex 6.624238 12.521432 7.419372
vertex 6.644713 12.542186 7.419372
endloop
endfacet
facet normal 0 0 0
outer loop
vertex 6.665189 12.521432 7.399372
vertex 6.644713 12.542186 7.419372
vertex 6.665189 12.542186 7.399372
endloop
endfacet
facet normal 0 0 0
outer loop
vertex 6.644713 12.521432 7.419372
vertex 6.644713 12.542186 7.419372
vertex 6.665189 12.521432 7.399372
endloop
endfacet
facet normal 0 0 0
outer loop
vertex 6.665189 12.521432 7.399372
vertex 6.665189 12.542186 7.399372
vertex 6.665189 12.521432 7.419372
endloop
endfacet
facet normal 0 0 0
outer loop
vertex 6.665189 12.521432 7.419372
vertex 6.665189 12.542186 7.399372
vertex 6.665189 12.542186 7.419372
endloop
endfacet
facet normal 0 0 0
outer loop
vertex 6.603761 12.542186 7.419372
vertex 6.624238 12.562939 7.419372
vertex 6.624238 12.542186 7.419372
endloop
endfacet
facet normal 0 0 0
outer loop
vertex 6.644713 12.542186 7.419372
vertex 6.624238 12.542186 7.419372
vertex 6.644713 12.562939 7.419372
endloop
endfacet
facet normal 0 0 0
outer loop
vertex 6.644713 12.562939 7.419372
vertex 6.624238 12.542186 7.419372
vertex 6.624238 12.562939 7.419372
endloop
endfacet
facet normal 0 0 0
outer loop
vertex 6.665189 12.542186 7.399372
vertex 6.644713 12.542186 7.419372
vertex 6.644713 12.562939 7.419372
endloop
endfacet
facet normal 0 0 0
outer loop
vertex 6.665189 12.542186 7.399372
vertex 6.644713 12.562939 7.419372
vertex 6.665189 12.542186 7.419372
endloop
endfacet
facet normal 0 0 0
outer loop
vertex 6.583286 12.521432 7.419372
vertex 6.603761 12.500679 7.419372
vertex 6.603761 12.521432 7.419372
endloop
endfacet
facet normal 0 0 0
outer loop
vertex 6.624238 12.500679 7.419372
vertex 6.624238 12.521432 7.419372
vertex 6.603761 12.500679 7.419372
endloop
endfacet
facet normal 0 0 0
outer loop
vertex 6.624238 12.521432 7.419372
vertex 6.603761 12.521432 7.419372
vertex 6.603761 12.500679 7.419372
endloop
endfacet
facet normal 0 0 0
outer loop
vertex 6.644713 12.500679 7.419372
vertex 6.644713 12.521432 7.419372
vertex 6.624238 12.500679 7.419372
endloop
endfacet
facet normal 0 0 0
outer loop
vertex 6.644713 12.521432 7.419372
vertex 6.624238 12.521432 7.419372
vertex 6.624238 12.500679 7.419372
endloop
endfacet
facet normal 0 0 0
outer loop
vertex 6.644713 12.500679 7.419372
vertex 6.665189 12.521432 7.419372
vertex 6.644713 12.521432 7.419372
endloop
endfacet
facet normal 0 0 0
outer loop
vertex 6.603761 12.542186 7.419372
vertex 6.583286 12.521432 7.419372
vertex 6.603761 12.521432 7.419372
endloop
endfacet
facet normal 0 0 0
outer loop
vertex 6.624238 12.542186 7.419372
vertex 6.603761 12.542186 7.419372
vertex 6.603761 12.521432 7.419372
endloop
endfacet
facet normal 0 0 0
outer loop
vertex 6.644713 12.542186 7.419372
vertex 6.624238 12.542186 7.419372
vertex 6.624238 12.521432 7.419372
endloop
endfacet
facet normal 0 0 0
outer loop
vertex 6.665189 12.521432 7.419372
vertex 6.665189 12.542186 7.419372
vertex 6.644713 12.521432 7.419372
endloop
endfacet
facet normal 0 0 0
outer loop
vertex 6.665189 12.542186 7.419372
vertex 6.644713 12.542186 7.419372
vertex 6.644713 12.521432 7.419372
endloop
endfacet
facet normal 0 0 0
outer loop
vertex 6.665189 12.542186 7.419372
vertex 6.644713 12.562939 7.419372
vertex 6.644713 12.542186 7.419372
endloop
endfacet
endsolid B-16-Plag.127
