solid B-16-Plag.315
facet normal 0 0 0
outer loop
vertex 22.288223 3.514490 12.679372
vertex 22.267748 3.535243 12.679372
vertex 22.288223 3.535243 12.679372
endloop
endfacet
facet normal 0 0 0
outer loop
vertex 22.308701 3.514490 12.679372
vertex 22.288223 3.514490 12.679372
vertex 22.308701 3.535243 12.679372
endloop
endfacet
facet normal 0 0 0
outer loop
vertex 22.308701 3.535243 12.679372
vertex 22.288223 3.514490 12.679372
vertex 22.288223 3.535243 12.679372
endloop
endfacet
facet normal 0 0 0
outer loop
vertex 22.329176 3.535243 12.679372
vertex 22.308701 3.514490 12.679372
vertex 22.308701 3.535243 12.679372
endloop
endfacet
facet normal 0 0 0
outer loop
vertex 22.267748 3.535243 12.679372
vertex 22.247272 3.555997 12.679372
vertex 22.267748 3.555997 12.679372
endloop
endfacet
facet normal 0 0 0
outer loop
vertex 22.288223 3.535243 12.679372
vertex 22.267748 3.535243 12.679372
vertex 22.288223 3.555997 12.679372
endloop
endfacet
facet normal 0 0 0
outer loop
vertex 22.288223 3.555997 12.679372
vertex 22.267748 3.535243 12.679372
vertex 22.267748 3.555997 12.679372
endloop
endfacet
facet normal 0 0 0
outer loop
vertex 22.308701 3.535243 12.679372
vertex 22.288223 3.535243 12.679372
vertex 22.308701 3.555997 12.679372
endloop
endfacet
facet normal 0 0 0
outer loop
vertex 22.308701 3.555997 12.679372
vertex 22.288223 3.535243 12.679372
vertex 22.288223 3.555997 12.679372
endloop
endfacet
facet normal 0 0 0
outer loop
vertex 22.329176 3.535243 12.679372
vertex 22.308701 3.535243 12.679372
vertex 22.329176 3.555997 12.679372
endloop
endfacet
facet normal 0 0 0
outer loop
vertex 22.329176 3.555997 12.679372
vertex 22.308701 3.535243 12.679372
vertex 22.308701 3.555997 12.679372
endloop
endfacet
facet normal 0 0 0
outer loop
vertex 22.267748 3.555997 12.679372
vertex 22.247272 3.555997 12.679372
vertex 22.267748 3.576750 12.679372
endloop
endfacet
facet normal 0 0 0
outer loop
vertex 22.267748 3.576750 12.679372
vertex 22.247272 3.555997 12.679372
vertex 22.247272 3.576750 12.679372
endloop
endfacet
facet normal 0 0 0
outer loop
vertex 22.288223 3.555997 12.679372
vertex 22.267748 3.555997 12.679372
vertex 22.288223 3.576750 12.679372
endloop
endfacet
facet normal 0 0 0
outer loop
vertex 22.288223 3.576750 12.679372
vertex 22.267748 3.555997 12.679372
vertex 22.267748 3.576750 12.679372
endloop
endfacet
facet normal 0 0 0
outer loop
vertex 22.308701 3.555997 12.679372
vertex 22.288223 3.555997 12.679372
vertex 22.308701 3.576750 12.679372
endloop
endfacet
facet normal 0 0 0
outer loop
vertex 22.308701 3.576750 12.679372
vertex 22.288223 3.555997 12.679372
vertex 22.288223 3.576750 12.679372
endloop
endfacet
facet normal 0 0 0
outer loop
vertex 22.329176 3.555997 12.679372
vertex 22.308701 3.555997 12.679372
vertex 22.329176 3.576750 12.679372
endloop
endfacet
facet normal 0 0 0
outer loop
vertex 22.329176 3.576750 12.679372
vertex 22.308701 3.555997 12.679372
vertex 22.308701 3.576750 12.679372
endloop
endfacet
facet normal 0 0 0
outer loop
vertex 22.267748 3.576750 12.679372
vertex 22.247272 3.576750 12.679372
vertex 22.267748 3.597503 12.679372
endloop
endfacet
facet normal 0 0 0
outer loop
vertex 22.267748 3.597503 12.679372
vertex 22.247272 3.576750 12.679372
vertex 22.247272 3.597503 12.679372
endloop
endfacet
facet normal 0 0 0
outer loop
vertex 22.288223 3.576750 12.679372
vertex 22.267748 3.576750 12.679372
vertex 22.288223 3.597503 12.679372
endloop
endfacet
facet normal 0 0 0
outer loop
vertex 22.288223 3.597503 12.679372
vertex 22.267748 3.576750 12.679372
vertex 22.267748 3.597503 12.679372
endloop
endfacet
facet normal 0 0 0
outer loop
vertex 22.308701 3.576750 12.679372
vertex 22.288223 3.576750 12.679372
vertex 22.308701 3.597503 12.679372
endloop
endfacet
facet normal 0 0 0
outer loop
vertex 22.308701 3.597503 12.679372
vertex 22.288223 3.576750 12.679372
vertex 22.288223 3.597503 12.679372
endloop
endfacet
facet normal 0 0 0
outer loop
vertex 22.308701 3.597503 12.679372
vertex 22.329176 3.576750 12.679372
vertex 22.308701 3.576750 12.679372
endloop
endfacet
facet normal 0 0 0
outer loop
vertex 22.247272 3.597503 12.679372
vertex 22.267748 3.618257 12.679372
vertex 22.267748 3.597503 12.679372
endloop
endfacet
facet normal 0 0 0
outer loop
vertex 22.288223 3.597503 12.679372
vertex 22.267748 3.597503 12.679372
vertex 22.288223 3.618257 12.679372
endloop
endfacet
facet normal 0 0 0
outer loop
vertex 22.288223 3.618257 12.679372
vertex 22.267748 3.597503 12.679372
vertex 22.267748 3.618257 12.679372
endloop
endfacet
facet normal 0 0 0
outer loop
vertex 22.308701 3.597503 12.679372
vertex 22.288223 3.597503 12.679372
vertex 22.308701 3.618257 12.679372
endloop
endfacet
facet normal 0 0 0
outer loop
vertex 22.308701 3.618257 12.679372
vertex 22.288223 3.597503 12.679372
vertex 22.288223 3.618257 12.679372
endloop
endfacet
facet normal 0 0 0
outer loop
vertex 22.267748 3.514490 12.699371
vertex 22.288223 3.514490 12.679372
vertex 22.288223 3.514490 12.699371
endloop
endfacet
facet normal 0 0 0
outer loop
vertex 22.308701 3.514490 12.679372
vertex 22.308701 3.514490 12.699371
vertex 22.288223 3.514490 12.679372
endloop
endfacet
facet normal 0 0 0
outer loop
vertex 22.288223 3.514490 12.679372
vertex 22.308701 3.514490 12.699371
vertex 22.288223 3.514490 12.699371
endloop
endfacet
facet normal 0 0 0
outer loop
vertex 22.308701 3.514490 12.679372
vertex 22.329176 3.514490 12.699371
vertex 22.308701 3.514490 12.699371
endloop
endfacet
facet normal 0 0 0
outer loop
vertex 22.267748 3.514490 12.699371
vertex 22.247272 3.535243 12.699371
vertex 22.267748 3.535243 12.679372
endloop
endfacet
facet normal 0 0 0
outer loop
vertex 22.288223 3.514490 12.679372
vertex 22.267748 3.514490 12.699371
vertex 22.267748 3.535243 12.679372
endloop
endfacet
facet normal 0 0 0
outer loop
vertex 22.308701 3.514490 12.679372
vertex 22.329176 3.535243 12.679372
vertex 22.329176 3.514490 12.699371
endloop
endfacet
facet normal 0 0 0
outer loop
vertex 22.329176 3.535243 12.679372
vertex 22.349651 3.535243 12.699371
vertex 22.329176 3.514490 12.699371
endloop
endfacet
facet normal 0 0 0
outer loop
vertex 22.247272 3.555997 12.679372
vertex 22.247272 3.535243 12.699371
vertex 22.247272 3.555997 12.699371
endloop
endfacet
facet normal 0 0 0
outer loop
vertex 22.267748 3.535243 12.679372
vertex 22.247272 3.535243 12.699371
vertex 22.247272 3.555997 12.679372
endloop
endfacet
facet normal 0 0 0
outer loop
vertex 22.349651 3.535243 12.699371
vertex 22.329176 3.555997 12.679372
vertex 22.349651 3.555997 12.699371
endloop
endfacet
facet normal 0 0 0
outer loop
vertex 22.329176 3.535243 12.679372
vertex 22.329176 3.555997 12.679372
vertex 22.349651 3.535243 12.699371
endloop
endfacet
facet normal 0 0 0
outer loop
vertex 22.226797 3.576750 12.699371
vertex 22.247272 3.576750 12.679372
vertex 22.247272 3.555997 12.699371
endloop
endfacet
facet normal 0 0 0
outer loop
vertex 22.247272 3.576750 12.679372
vertex 22.247272 3.555997 12.679372
vertex 22.247272 3.555997 12.699371
endloop
endfacet
facet normal 0 0 0
outer loop
vertex 22.349651 3.555997 12.699371
vertex 22.329176 3.576750 12.679372
vertex 22.349651 3.576750 12.699371
endloop
endfacet
facet normal 0 0 0
outer loop
vertex 22.329176 3.555997 12.679372
vertex 22.329176 3.576750 12.679372
vertex 22.349651 3.555997 12.699371
endloop
endfacet
facet normal 0 0 0
outer loop
vertex 22.247272 3.576750 12.679372
vertex 22.226797 3.597503 12.699371
vertex 22.247272 3.597503 12.679372
endloop
endfacet
facet normal 0 0 0
outer loop
vertex 22.226797 3.576750 12.699371
vertex 22.226797 3.597503 12.699371
vertex 22.247272 3.576750 12.679372
endloop
endfacet
facet normal 0 0 0
outer loop
vertex 22.329176 3.576750 12.679372
vertex 22.308701 3.597503 12.679372
vertex 22.329176 3.597503 12.699371
endloop
endfacet
facet normal 0 0 0
outer loop
vertex 22.329176 3.576750 12.679372
vertex 22.329176 3.597503 12.699371
vertex 22.349651 3.576750 12.699371
endloop
endfacet
facet normal 0 0 0
outer loop
vertex 22.329176 3.597503 12.699371
vertex 22.349651 3.597503 12.699371
vertex 22.349651 3.576750 12.699371
endloop
endfacet
facet normal 0 0 0
outer loop
vertex 22.247272 3.597503 12.679372
vertex 22.226797 3.597503 12.699371
vertex 22.247272 3.618257 12.699371
endloop
endfacet
facet normal 0 0 0
outer loop
vertex 22.226797 3.597503 12.699371
vertex 22.226797 3.618257 12.699371
vertex 22.247272 3.618257 12.699371
endloop
endfacet
facet normal 0 0 0
outer loop
vertex 22.247272 3.597503 12.679372
vertex 22.247272 3.618257 12.699371
vertex 22.267748 3.618257 12.679372
endloop
endfacet
facet normal 0 0 0
outer loop
vertex 22.329176 3.597503 12.699371
vertex 22.308701 3.618257 12.679372
vertex 22.329176 3.618257 12.699371
endloop
endfacet
facet normal 0 0 0
outer loop
vertex 22.308701 3.597503 12.679372
vertex 22.308701 3.618257 12.679372
vertex 22.329176 3.597503 12.699371
endloop
endfacet
facet normal 0 0 0
outer loop
vertex 22.349651 3.597503 12.699371
vertex 22.329176 3.597503 12.699371
vertex 22.349651 3.618257 12.699371
endloop
endfacet
facet normal 0 0 0
outer loop
vertex 22.349651 3.618257 12.699371
vertex 22.329176 3.597503 12.699371
vertex 22.329176 3.618257 12.699371
endloop
endfacet
facet normal 0 0 0
outer loop
vertex 22.226797 3.618257 12.699371
vertex 22.206320 3.639010 12.699371
vertex 22.226797 3.639010 12.699371
endloop
endfacet
facet normal 0 0 0
outer loop
vertex 22.247272 3.618257 12.699371
vertex 22.226797 3.618257 12.699371
vertex 22.247272 3.639010 12.699371
endloop
endfacet
facet normal 0 0 0
outer loop
vertex 22.247272 3.639010 12.699371
vertex 22.226797 3.618257 12.699371
vertex 22.226797 3.639010 12.699371
endloop
endfacet
facet normal 0 0 0
outer loop
vertex 22.267748 3.618257 12.679372
vertex 22.247272 3.618257 12.699371
vertex 22.267748 3.639010 12.699371
endloop
endfacet
facet normal 0 0 0
outer loop
vertex 22.247272 3.618257 12.699371
vertex 22.247272 3.639010 12.699371
vertex 22.267748 3.639010 12.699371
endloop
endfacet
facet normal 0 0 0
outer loop
vertex 22.267748 3.618257 12.679372
vertex 22.288223 3.639010 12.699371
vertex 22.288223 3.618257 12.679372
endloop
endfacet
facet normal 0 0 0
outer loop
vertex 22.267748 3.639010 12.699371
vertex 22.288223 3.639010 12.699371
vertex 22.267748 3.618257 12.679372
endloop
endfacet
facet normal 0 0 0
outer loop
vertex 22.288223 3.618257 12.679372
vertex 22.308701 3.639010 12.699371
vertex 22.308701 3.618257 12.679372
endloop
endfacet
facet normal 0 0 0
outer loop
vertex 22.288223 3.639010 12.699371
vertex 22.308701 3.639010 12.699371
vertex 22.288223 3.618257 12.679372
endloop
endfacet
facet normal 0 0 0
outer loop
vertex 22.308701 3.618257 12.679372
vertex 22.308701 3.639010 12.699371
vertex 22.329176 3.618257 12.699371
endloop
endfacet
facet normal 0 0 0
outer loop
vertex 22.308701 3.639010 12.699371
vertex 22.329176 3.639010 12.699371
vertex 22.329176 3.618257 12.699371
endloop
endfacet
facet normal 0 0 0
outer loop
vertex 22.349651 3.618257 12.699371
vertex 22.329176 3.618257 12.699371
vertex 22.349651 3.639010 12.699371
endloop
endfacet
facet normal 0 0 0
outer loop
vertex 22.349651 3.639010 12.699371
vertex 22.329176 3.618257 12.699371
vertex 22.329176 3.639010 12.699371
endloop
endfacet
facet normal 0 0 0
outer loop
vertex 22.206320 3.639010 12.699371
vertex 22.226797 3.659764 12.699371
vertex 22.226797 3.639010 12.699371
endloop
endfacet
facet normal 0 0 0
outer loop
vertex 22.247272 3.639010 12.699371
vertex 22.226797 3.639010 12.699371
vertex 22.247272 3.659764 12.699371
endloop
endfacet
facet normal 0 0 0
outer loop
vertex 22.247272 3.659764 12.699371
vertex 22.226797 3.639010 12.699371
vertex 22.226797 3.659764 12.699371
endloop
endfacet
facet normal 0 0 0
outer loop
vertex 22.267748 3.639010 12.699371
vertex 22.247272 3.639010 12.699371
vertex 22.267748 3.659764 12.699371
endloop
endfacet
facet normal 0 0 0
outer loop
vertex 22.267748 3.659764 12.699371
vertex 22.247272 3.639010 12.699371
vertex 22.247272 3.659764 12.699371
endloop
endfacet
facet normal 0 0 0
outer loop
vertex 22.288223 3.639010 12.699371
vertex 22.267748 3.639010 12.699371
vertex 22.288223 3.659764 12.699371
endloop
endfacet
facet normal 0 0 0
outer loop
vertex 22.288223 3.659764 12.699371
vertex 22.267748 3.639010 12.699371
vertex 22.267748 3.659764 12.699371
endloop
endfacet
facet normal 0 0 0
outer loop
vertex 22.308701 3.639010 12.699371
vertex 22.288223 3.639010 12.699371
vertex 22.308701 3.659764 12.699371
endloop
endfacet
facet normal 0 0 0
outer loop
vertex 22.308701 3.659764 12.699371
vertex 22.288223 3.639010 12.699371
vertex 22.288223 3.659764 12.699371
endloop
endfacet
facet normal 0 0 0
outer loop
vertex 22.329176 3.639010 12.699371
vertex 22.308701 3.639010 12.699371
vertex 22.329176 3.659764 12.699371
endloop
endfacet
facet normal 0 0 0
outer loop
vertex 22.329176 3.659764 12.699371
vertex 22.308701 3.639010 12.699371
vertex 22.308701 3.659764 12.699371
endloop
endfacet
facet normal 0 0 0
outer loop
vertex 22.329176 3.659764 12.699371
vertex 22.349651 3.639010 12.699371
vertex 22.329176 3.639010 12.699371
endloop
endfacet
facet normal 0 0 0
outer loop
vertex 22.247272 3.659764 12.699371
vertex 22.226797 3.659764 12.699371
vertex 22.247272 3.680516 12.699371
endloop
endfacet
facet normal 0 0 0
outer loop
vertex 22.247272 3.680516 12.699371
vertex 22.226797 3.659764 12.699371
vertex 22.226797 3.680516 12.699371
endloop
endfacet
facet normal 0 0 0
outer loop
vertex 22.267748 3.659764 12.699371
vertex 22.247272 3.659764 12.699371
vertex 22.267748 3.680516 12.699371
endloop
endfacet
facet normal 0 0 0
outer loop
vertex 22.267748 3.680516 12.699371
vertex 22.247272 3.659764 12.699371
vertex 22.247272 3.680516 12.699371
endloop
endfacet
facet normal 0 0 0
outer loop
vertex 22.288223 3.659764 12.699371
vertex 22.267748 3.659764 12.699371
vertex 22.288223 3.680516 12.699371
endloop
endfacet
facet normal 0 0 0
outer loop
vertex 22.288223 3.680516 12.699371
vertex 22.267748 3.659764 12.699371
vertex 22.267748 3.680516 12.699371
endloop
endfacet
facet normal 0 0 0
outer loop
vertex 22.308701 3.659764 12.699371
vertex 22.288223 3.659764 12.699371
vertex 22.308701 3.680516 12.699371
endloop
endfacet
facet normal 0 0 0
outer loop
vertex 22.308701 3.680516 12.699371
vertex 22.288223 3.659764 12.699371
vertex 22.288223 3.680516 12.699371
endloop
endfacet
facet normal 0 0 0
outer loop
vertex 22.308701 3.680516 12.699371
vertex 22.329176 3.659764 12.699371
vertex 22.308701 3.659764 12.699371
endloop
endfacet
facet normal 0 0 0
outer loop
vertex 22.226797 3.680516 12.699371
vertex 22.247272 3.701270 12.699371
vertex 22.247272 3.680516 12.699371
endloop
endfacet
facet normal 0 0 0
outer loop
vertex 22.267748 3.680516 12.699371
vertex 22.247272 3.680516 12.699371
vertex 22.267748 3.701270 12.699371
endloop
endfacet
facet normal 0 0 0
outer loop
vertex 22.267748 3.701270 12.699371
vertex 22.247272 3.680516 12.699371
vertex 22.247272 3.701270 12.699371
endloop
endfacet
facet normal 0 0 0
outer loop
vertex 22.288223 3.680516 12.699371
vertex 22.267748 3.680516 12.699371
vertex 22.288223 3.701270 12.699371
endloop
endfacet
facet normal 0 0 0
outer loop
vertex 22.288223 3.701270 12.699371
vertex 22.267748 3.680516 12.699371
vertex 22.267748 3.701270 12.699371
endloop
endfacet
facet normal 0 0 0
outer loop
vertex 22.288223 3.701270 12.699371
vertex 22.308701 3.680516 12.699371
vertex 22.288223 3.680516 12.699371
endloop
endfacet
facet normal 0 0 0
outer loop
vertex 22.267748 3.514490 12.699371
vertex 22.267748 3.535243 12.719372
vertex 22.247272 3.535243 12.699371
endloop
endfacet
facet normal 0 0 0
outer loop
vertex 22.288223 3.514490 12.699371
vertex 22.267748 3.535243 12.719372
vertex 22.267748 3.514490 12.699371
endloop
endfacet
facet normal 0 0 0
outer loop
vertex 22.288223 3.535243 12.719372
vertex 22.267748 3.535243 12.719372
vertex 22.288223 3.514490 12.699371
endloop
endfacet
facet normal 0 0 0
outer loop
vertex 22.308701 3.514490 12.699371
vertex 22.288223 3.535243 12.719372
vertex 22.288223 3.514490 12.699371
endloop
endfacet
facet normal 0 0 0
outer loop
vertex 22.308701 3.535243 12.719372
vertex 22.288223 3.535243 12.719372
vertex 22.308701 3.514490 12.699371
endloop
endfacet
facet normal 0 0 0
outer loop
vertex 22.308701 3.535243 12.719372
vertex 22.308701 3.514490 12.699371
vertex 22.329176 3.535243 12.699371
endloop
endfacet
facet normal 0 0 0
outer loop
vertex 22.308701 3.514490 12.699371
vertex 22.329176 3.514490 12.699371
vertex 22.329176 3.535243 12.699371
endloop
endfacet
facet normal 0 0 0
outer loop
vertex 22.329176 3.514490 12.699371
vertex 22.349651 3.535243 12.699371
vertex 22.329176 3.535243 12.699371
endloop
endfacet
facet normal 0 0 0
outer loop
vertex 22.247272 3.535243 12.699371
vertex 22.247272 3.555997 12.719372
vertex 22.247272 3.555997 12.699371
endloop
endfacet
facet normal 0 0 0
outer loop
vertex 22.267748 3.535243 12.719372
vertex 22.247272 3.555997 12.719372
vertex 22.247272 3.535243 12.699371
endloop
endfacet
facet normal 0 0 0
outer loop
vertex 22.329176 3.535243 12.699371
vertex 22.329176 3.555997 12.719372
vertex 22.308701 3.535243 12.719372
endloop
endfacet
facet normal 0 0 0
outer loop
vertex 22.329176 3.555997 12.719372
vertex 22.329176 3.535243 12.699371
vertex 22.349651 3.555997 12.699371
endloop
endfacet
facet normal 0 0 0
outer loop
vertex 22.329176 3.535243 12.699371
vertex 22.349651 3.535243 12.699371
vertex 22.349651 3.555997 12.699371
endloop
endfacet
facet normal 0 0 0
outer loop
vertex 22.226797 3.576750 12.699371
vertex 22.247272 3.555997 12.699371
vertex 22.247272 3.576750 12.719372
endloop
endfacet
facet normal 0 0 0
outer loop
vertex 22.247272 3.555997 12.699371
vertex 22.247272 3.555997 12.719372
vertex 22.247272 3.576750 12.719372
endloop
endfacet
facet normal 0 0 0
outer loop
vertex 22.349651 3.576750 12.699371
vertex 22.329176 3.555997 12.719372
vertex 22.349651 3.555997 12.699371
endloop
endfacet
facet normal 0 0 0
outer loop
vertex 22.329176 3.576750 12.719372
vertex 22.329176 3.555997 12.719372
vertex 22.349651 3.576750 12.699371
endloop
endfacet
facet normal 0 0 0
outer loop
vertex 22.226797 3.576750 12.699371
vertex 22.226797 3.597503 12.719372
vertex 22.226797 3.597503 12.699371
endloop
endfacet
facet normal 0 0 0
outer loop
vertex 22.247272 3.576750 12.719372
vertex 22.226797 3.597503 12.719372
vertex 22.226797 3.576750 12.699371
endloop
endfacet
facet normal 0 0 0
outer loop
vertex 22.349651 3.576750 12.699371
vertex 22.349651 3.597503 12.719372
vertex 22.329176 3.576750 12.719372
endloop
endfacet
facet normal 0 0 0
outer loop
vertex 22.349651 3.597503 12.719372
vertex 22.349651 3.576750 12.699371
vertex 22.349651 3.597503 12.699371
endloop
endfacet
facet normal 0 0 0
outer loop
vertex 22.226797 3.597503 12.699371
vertex 22.226797 3.597503 12.719372
vertex 22.226797 3.618257 12.699371
endloop
endfacet
facet normal 0 0 0
outer loop
vertex 22.226797 3.597503 12.719372
vertex 22.226797 3.618257 12.719372
vertex 22.226797 3.618257 12.699371
endloop
endfacet
facet normal 0 0 0
outer loop
vertex 22.349651 3.597503 12.699371
vertex 22.349651 3.618257 12.699371
vertex 22.349651 3.597503 12.719372
endloop
endfacet
facet normal 0 0 0
outer loop
vertex 22.349651 3.597503 12.719372
vertex 22.349651 3.618257 12.699371
vertex 22.349651 3.618257 12.719372
endloop
endfacet
facet normal 0 0 0
outer loop
vertex 22.206320 3.639010 12.699371
vertex 22.226797 3.618257 12.699371
vertex 22.226797 3.639010 12.719372
endloop
endfacet
facet normal 0 0 0
outer loop
vertex 22.226797 3.618257 12.699371
vertex 22.226797 3.618257 12.719372
vertex 22.226797 3.639010 12.719372
endloop
endfacet
facet normal 0 0 0
outer loop
vertex 22.349651 3.618257 12.699371
vertex 22.349651 3.639010 12.699371
vertex 22.349651 3.618257 12.719372
endloop
endfacet
facet normal 0 0 0
outer loop
vertex 22.349651 3.618257 12.719372
vertex 22.349651 3.639010 12.699371
vertex 22.349651 3.639010 12.719372
endloop
endfacet
facet normal 0 0 0
outer loop
vertex 22.206320 3.659764 12.719372
vertex 22.226797 3.659764 12.699371
vertex 22.226797 3.639010 12.719372
endloop
endfacet
facet normal 0 0 0
outer loop
vertex 22.206320 3.639010 12.699371
vertex 22.226797 3.639010 12.719372
vertex 22.226797 3.659764 12.699371
endloop
endfacet
facet normal 0 0 0
outer loop
vertex 22.349651 3.639010 12.699371
vertex 22.329176 3.659764 12.699371
vertex 22.349651 3.659764 12.719372
endloop
endfacet
facet normal 0 0 0
outer loop
vertex 22.349651 3.639010 12.699371
vertex 22.349651 3.659764 12.719372
vertex 22.349651 3.639010 12.719372
endloop
endfacet
facet normal 0 0 0
outer loop
vertex 22.226797 3.659764 12.699371
vertex 22.206320 3.680516 12.719372
vertex 22.226797 3.680516 12.699371
endloop
endfacet
facet normal 0 0 0
outer loop
vertex 22.206320 3.659764 12.719372
vertex 22.206320 3.680516 12.719372
vertex 22.226797 3.659764 12.699371
endloop
endfacet
facet normal 0 0 0
outer loop
vertex 22.329176 3.659764 12.699371
vertex 22.308701 3.680516 12.699371
vertex 22.329176 3.680516 12.719372
endloop
endfacet
facet normal 0 0 0
outer loop
vertex 22.329176 3.659764 12.699371
vertex 22.329176 3.680516 12.719372
vertex 22.349651 3.659764 12.719372
endloop
endfacet
facet normal 0 0 0
outer loop
vertex 22.329176 3.680516 12.719372
vertex 22.349651 3.680516 12.719372
vertex 22.349651 3.659764 12.719372
endloop
endfacet
facet normal 0 0 0
outer loop
vertex 22.226797 3.680516 12.699371
vertex 22.206320 3.680516 12.719372
vertex 22.226797 3.701270 12.719372
endloop
endfacet
facet normal 0 0 0
outer loop
vertex 22.206320 3.680516 12.719372
vertex 22.206320 3.701270 12.719372
vertex 22.226797 3.701270 12.719372
endloop
endfacet
facet normal 0 0 0
outer loop
vertex 22.226797 3.680516 12.699371
vertex 22.226797 3.701270 12.719372
vertex 22.247272 3.701270 12.699371
endloop
endfacet
facet normal 0 0 0
outer loop
vertex 22.308701 3.680516 12.699371
vertex 22.288223 3.701270 12.699371
vertex 22.308701 3.701270 12.719372
endloop
endfacet
facet normal 0 0 0
outer loop
vertex 22.308701 3.680516 12.699371
vertex 22.308701 3.701270 12.719372
vertex 22.329176 3.680516 12.719372
endloop
endfacet
facet normal 0 0 0
outer loop
vertex 22.308701 3.701270 12.719372
vertex 22.329176 3.701270 12.719372
vertex 22.329176 3.680516 12.719372
endloop
endfacet
facet normal 0 0 0
outer loop
vertex 22.349651 3.680516 12.719372
vertex 22.329176 3.680516 12.719372
vertex 22.349651 3.701270 12.719372
endloop
endfacet
facet normal 0 0 0
outer loop
vertex 22.349651 3.701270 12.719372
vertex 22.329176 3.680516 12.719372
vertex 22.329176 3.701270 12.719372
endloop
endfacet
facet normal 0 0 0
outer loop
vertex 22.226797 3.701270 12.719372
vertex 22.206320 3.701270 12.719372
vertex 22.226797 3.722023 12.719372
endloop
endfacet
facet normal 0 0 0
outer loop
vertex 22.226797 3.722023 12.719372
vertex 22.206320 3.701270 12.719372
vertex 22.206320 3.722023 12.719372
endloop
endfacet
facet normal 0 0 0
outer loop
vertex 22.247272 3.701270 12.699371
vertex 22.226797 3.701270 12.719372
vertex 22.247272 3.722023 12.719372
endloop
endfacet
facet normal 0 0 0
outer loop
vertex 22.226797 3.701270 12.719372
vertex 22.226797 3.722023 12.719372
vertex 22.247272 3.722023 12.719372
endloop
endfacet
facet normal 0 0 0
outer loop
vertex 22.247272 3.701270 12.699371
vertex 22.267748 3.722023 12.719372
vertex 22.267748 3.701270 12.699371
endloop
endfacet
facet normal 0 0 0
outer loop
vertex 22.247272 3.722023 12.719372
vertex 22.267748 3.722023 12.719372
vertex 22.247272 3.701270 12.699371
endloop
endfacet
facet normal 0 0 0
outer loop
vertex 22.267748 3.701270 12.699371
vertex 22.288223 3.722023 12.719372
vertex 22.288223 3.701270 12.699371
endloop
endfacet
facet normal 0 0 0
outer loop
vertex 22.267748 3.722023 12.719372
vertex 22.288223 3.722023 12.719372
vertex 22.267748 3.701270 12.699371
endloop
endfacet
facet normal 0 0 0
outer loop
vertex 22.288223 3.701270 12.699371
vertex 22.288223 3.722023 12.719372
vertex 22.308701 3.701270 12.719372
endloop
endfacet
facet normal 0 0 0
outer loop
vertex 22.288223 3.722023 12.719372
vertex 22.308701 3.722023 12.719372
vertex 22.308701 3.701270 12.719372
endloop
endfacet
facet normal 0 0 0
outer loop
vertex 22.329176 3.701270 12.719372
vertex 22.308701 3.701270 12.719372
vertex 22.329176 3.722023 12.719372
endloop
endfacet
facet normal 0 0 0
outer loop
vertex 22.329176 3.722023 12.719372
vertex 22.308701 3.701270 12.719372
vertex 22.308701 3.722023 12.719372
endloop
endfacet
facet normal 0 0 0
outer loop
vertex 22.329176 3.722023 12.719372
vertex 22.349651 3.701270 12.719372
vertex 22.329176 3.701270 12.719372
endloop
endfacet
facet normal 0 0 0
outer loop
vertex 22.226797 3.722023 12.719372
vertex 22.206320 3.722023 12.719372
vertex 22.226797 3.742777 12.719372
endloop
endfacet
facet normal 0 0 0
outer loop
vertex 22.226797 3.742777 12.719372
vertex 22.206320 3.722023 12.719372
vertex 22.206320 3.742777 12.719372
endloop
endfacet
facet normal 0 0 0
outer loop
vertex 22.247272 3.722023 12.719372
vertex 22.226797 3.722023 12.719372
vertex 22.247272 3.742777 12.719372
endloop
endfacet
facet normal 0 0 0
outer loop
vertex 22.247272 3.742777 12.719372
vertex 22.226797 3.722023 12.719372
vertex 22.226797 3.742777 12.719372
endloop
endfacet
facet normal 0 0 0
outer loop
vertex 22.267748 3.722023 12.719372
vertex 22.247272 3.722023 12.719372
vertex 22.267748 3.742777 12.719372
endloop
endfacet
facet normal 0 0 0
outer loop
vertex 22.267748 3.742777 12.719372
vertex 22.247272 3.722023 12.719372
vertex 22.247272 3.742777 12.719372
endloop
endfacet
facet normal 0 0 0
outer loop
vertex 22.288223 3.722023 12.719372
vertex 22.267748 3.722023 12.719372
vertex 22.288223 3.742777 12.719372
endloop
endfacet
facet normal 0 0 0
outer loop
vertex 22.288223 3.742777 12.719372
vertex 22.267748 3.722023 12.719372
vertex 22.267748 3.742777 12.719372
endloop
endfacet
facet normal 0 0 0
outer loop
vertex 22.308701 3.722023 12.719372
vertex 22.288223 3.722023 12.719372
vertex 22.308701 3.742777 12.719372
endloop
endfacet
facet normal 0 0 0
outer loop
vertex 22.308701 3.742777 12.719372
vertex 22.288223 3.722023 12.719372
vertex 22.288223 3.742777 12.719372
endloop
endfacet
facet normal 0 0 0
outer loop
vertex 22.329176 3.722023 12.719372
vertex 22.308701 3.722023 12.719372
vertex 22.329176 3.742777 12.719372
endloop
endfacet
facet normal 0 0 0
outer loop
vertex 22.329176 3.742777 12.719372
vertex 22.308701 3.722023 12.719372
vertex 22.308701 3.742777 12.719372
endloop
endfacet
facet normal 0 0 0
outer loop
vertex 22.226797 3.742777 12.719372
vertex 22.206320 3.742777 12.719372
vertex 22.226797 3.763530 12.719372
endloop
endfacet
facet normal 0 0 0
outer loop
vertex 22.226797 3.763530 12.719372
vertex 22.206320 3.742777 12.719372
vertex 22.206320 3.763530 12.719372
endloop
endfacet
facet normal 0 0 0
outer loop
vertex 22.247272 3.742777 12.719372
vertex 22.226797 3.742777 12.719372
vertex 22.247272 3.763530 12.719372
endloop
endfacet
facet normal 0 0 0
outer loop
vertex 22.247272 3.763530 12.719372
vertex 22.226797 3.742777 12.719372
vertex 22.226797 3.763530 12.719372
endloop
endfacet
facet normal 0 0 0
outer loop
vertex 22.267748 3.742777 12.719372
vertex 22.247272 3.742777 12.719372
vertex 22.267748 3.763530 12.719372
endloop
endfacet
facet normal 0 0 0
outer loop
vertex 22.267748 3.763530 12.719372
vertex 22.247272 3.742777 12.719372
vertex 22.247272 3.763530 12.719372
endloop
endfacet
facet normal 0 0 0
outer loop
vertex 22.288223 3.742777 12.719372
vertex 22.267748 3.742777 12.719372
vertex 22.288223 3.763530 12.719372
endloop
endfacet
facet normal 0 0 0
outer loop
vertex 22.288223 3.763530 12.719372
vertex 22.267748 3.742777 12.719372
vertex 22.267748 3.763530 12.719372
endloop
endfacet
facet normal 0 0 0
outer loop
vertex 22.308701 3.742777 12.719372
vertex 22.288223 3.742777 12.719372
vertex 22.308701 3.763530 12.719372
endloop
endfacet
facet normal 0 0 0
outer loop
vertex 22.308701 3.763530 12.719372
vertex 22.288223 3.742777 12.719372
vertex 22.288223 3.763530 12.719372
endloop
endfacet
facet normal 0 0 0
outer loop
vertex 22.308701 3.763530 12.719372
vertex 22.329176 3.742777 12.719372
vertex 22.308701 3.742777 12.719372
endloop
endfacet
facet normal 0 0 0
outer loop
vertex 22.206320 3.763530 12.719372
vertex 22.226797 3.784283 12.719372
vertex 22.226797 3.763530 12.719372
endloop
endfacet
facet normal 0 0 0
outer loop
vertex 22.247272 3.763530 12.719372
vertex 22.226797 3.763530 12.719372
vertex 22.247272 3.784283 12.719372
endloop
endfacet
facet normal 0 0 0
outer loop
vertex 22.247272 3.784283 12.719372
vertex 22.226797 3.763530 12.719372
vertex 22.226797 3.784283 12.719372
endloop
endfacet
facet normal 0 0 0
outer loop
vertex 22.267748 3.763530 12.719372
vertex 22.247272 3.763530 12.719372
vertex 22.267748 3.784283 12.719372
endloop
endfacet
facet normal 0 0 0
outer loop
vertex 22.267748 3.784283 12.719372
vertex 22.247272 3.763530 12.719372
vertex 22.247272 3.784283 12.719372
endloop
endfacet
facet normal 0 0 0
outer loop
vertex 22.288223 3.763530 12.719372
vertex 22.267748 3.763530 12.719372
vertex 22.288223 3.784283 12.719372
endloop
endfacet
facet normal 0 0 0
outer loop
vertex 22.288223 3.784283 12.719372
vertex 22.267748 3.763530 12.719372
vertex 22.267748 3.784283 12.719372
endloop
endfacet
facet normal 0 0 0
outer loop
vertex 22.288223 3.784283 12.719372
vertex 22.308701 3.763530 12.719372
vertex 22.288223 3.763530 12.719372
endloop
endfacet
facet normal 0 0 0
outer loop
vertex 22.226797 3.784283 12.719372
vertex 22.247272 3.805037 12.719372
vertex 22.247272 3.784283 12.719372
endloop
endfacet
facet normal 0 0 0
outer loop
vertex 22.267748 3.784283 12.719372
vertex 22.247272 3.784283 12.719372
vertex 22.267748 3.805037 12.719372
endloop
endfacet
facet normal 0 0 0
outer loop
vertex 22.267748 3.805037 12.719372
vertex 22.247272 3.784283 12.719372
vertex 22.247272 3.805037 12.719372
endloop
endfacet
facet normal 0 0 0
outer loop
vertex 22.267748 3.805037 12.719372
vertex 22.288223 3.784283 12.719372
vertex 22.267748 3.784283 12.719372
endloop
endfacet
facet normal 0 0 0
outer loop
vertex 22.247272 3.555997 12.719372
vertex 22.267748 3.535243 12.719372
vertex 22.267748 3.555997 12.719372
endloop
endfacet
facet normal 0 0 0
outer loop
vertex 22.288223 3.535243 12.719372
vertex 22.288223 3.555997 12.719372
vertex 22.267748 3.535243 12.719372
endloop
endfacet
facet normal 0 0 0
outer loop
vertex 22.288223 3.555997 12.719372
vertex 22.267748 3.555997 12.719372
vertex 22.267748 3.535243 12.719372
endloop
endfacet
facet normal 0 0 0
outer loop
vertex 22.308701 3.535243 12.719372
vertex 22.308701 3.555997 12.719372
vertex 22.288223 3.535243 12.719372
endloop
endfacet
facet normal 0 0 0
outer loop
vertex 22.308701 3.555997 12.719372
vertex 22.288223 3.555997 12.719372
vertex 22.288223 3.535243 12.719372
endloop
endfacet
facet normal 0 0 0
outer loop
vertex 22.308701 3.535243 12.719372
vertex 22.329176 3.555997 12.719372
vertex 22.308701 3.555997 12.719372
endloop
endfacet
facet normal 0 0 0
outer loop
vertex 22.267748 3.576750 12.739372
vertex 22.247272 3.576750 12.719372
vertex 22.267748 3.555997 12.719372
endloop
endfacet
facet normal 0 0 0
outer loop
vertex 22.247272 3.576750 12.719372
vertex 22.247272 3.555997 12.719372
vertex 22.267748 3.555997 12.719372
endloop
endfacet
facet normal 0 0 0
outer loop
vertex 22.288223 3.555997 12.719372
vertex 22.267748 3.576750 12.739372
vertex 22.267748 3.555997 12.719372
endloop
endfacet
facet normal 0 0 0
outer loop
vertex 22.288223 3.576750 12.739372
vertex 22.267748 3.576750 12.739372
vertex 22.288223 3.555997 12.719372
endloop
endfacet
facet normal 0 0 0
outer loop
vertex 22.308701 3.555997 12.719372
vertex 22.288223 3.576750 12.739372
vertex 22.288223 3.555997 12.719372
endloop
endfacet
facet normal 0 0 0
outer loop
vertex 22.308701 3.576750 12.739372
vertex 22.288223 3.576750 12.739372
vertex 22.308701 3.555997 12.719372
endloop
endfacet
facet normal 0 0 0
outer loop
vertex 22.308701 3.576750 12.739372
vertex 22.308701 3.555997 12.719372
vertex 22.329176 3.576750 12.719372
endloop
endfacet
facet normal 0 0 0
outer loop
vertex 22.308701 3.555997 12.719372
vertex 22.329176 3.555997 12.719372
vertex 22.329176 3.576750 12.719372
endloop
endfacet
facet normal 0 0 0
outer loop
vertex 22.247272 3.576750 12.719372
vertex 22.247272 3.597503 12.739372
vertex 22.226797 3.597503 12.719372
endloop
endfacet
facet normal 0 0 0
outer loop
vertex 22.267748 3.576750 12.739372
vertex 22.247272 3.597503 12.739372
vertex 22.247272 3.576750 12.719372
endloop
endfacet
facet normal 0 0 0
outer loop
vertex 22.329176 3.576750 12.719372
vertex 22.329176 3.597503 12.739372
vertex 22.308701 3.576750 12.739372
endloop
endfacet
facet normal 0 0 0
outer loop
vertex 22.329176 3.576750 12.719372
vertex 22.349651 3.597503 12.719372
vertex 22.329176 3.597503 12.739372
endloop
endfacet
facet normal 0 0 0
outer loop
vertex 22.349651 3.597503 12.719372
vertex 22.349651 3.597503 12.739372
vertex 22.329176 3.597503 12.739372
endloop
endfacet
facet normal 0 0 0
outer loop
vertex 22.247272 3.618257 12.739372
vertex 22.226797 3.597503 12.719372
vertex 22.247272 3.597503 12.739372
endloop
endfacet
facet normal 0 0 0
outer loop
vertex 22.226797 3.618257 12.719372
vertex 22.226797 3.597503 12.719372
vertex 22.247272 3.618257 12.739372
endloop
endfacet
facet normal 0 0 0
outer loop
vertex 22.349651 3.597503 12.719372
vertex 22.349651 3.618257 12.719372
vertex 22.349651 3.597503 12.739372
endloop
endfacet
facet normal 0 0 0
outer loop
vertex 22.349651 3.597503 12.739372
vertex 22.349651 3.618257 12.719372
vertex 22.349651 3.618257 12.739372
endloop
endfacet
facet normal 0 0 0
outer loop
vertex 22.226797 3.618257 12.719372
vertex 22.226797 3.639010 12.739372
vertex 22.226797 3.639010 12.719372
endloop
endfacet
facet normal 0 0 0
outer loop
vertex 22.247272 3.618257 12.739372
vertex 22.226797 3.639010 12.739372
vertex 22.226797 3.618257 12.719372
endloop
endfacet
facet normal 0 0 0
outer loop
vertex 22.349651 3.618257 12.719372
vertex 22.349651 3.639010 12.719372
vertex 22.349651 3.618257 12.739372
endloop
endfacet
facet normal 0 0 0
outer loop
vertex 22.349651 3.618257 12.739372
vertex 22.349651 3.639010 12.719372
vertex 22.349651 3.639010 12.739372
endloop
endfacet
facet normal 0 0 0
outer loop
vertex 22.206320 3.659764 12.719372
vertex 22.226797 3.639010 12.719372
vertex 22.226797 3.659764 12.739372
endloop
endfacet
facet normal 0 0 0
outer loop
vertex 22.226797 3.639010 12.719372
vertex 22.226797 3.639010 12.739372
vertex 22.226797 3.659764 12.739372
endloop
endfacet
facet normal 0 0 0
outer loop
vertex 22.349651 3.639010 12.719372
vertex 22.349651 3.659764 12.719372
vertex 22.349651 3.639010 12.739372
endloop
endfacet
facet normal 0 0 0
outer loop
vertex 22.349651 3.639010 12.739372
vertex 22.349651 3.659764 12.719372
vertex 22.349651 3.659764 12.739372
endloop
endfacet
facet normal 0 0 0
outer loop
vertex 22.226797 3.680516 12.739372
vertex 22.206320 3.659764 12.719372
vertex 22.226797 3.659764 12.739372
endloop
endfacet
facet normal 0 0 0
outer loop
vertex 22.206320 3.680516 12.719372
vertex 22.206320 3.659764 12.719372
vertex 22.226797 3.680516 12.739372
endloop
endfacet
facet normal 0 0 0
outer loop
vertex 22.349651 3.659764 12.719372
vertex 22.349651 3.680516 12.719372
vertex 22.349651 3.659764 12.739372
endloop
endfacet
facet normal 0 0 0
outer loop
vertex 22.349651 3.659764 12.739372
vertex 22.349651 3.680516 12.719372
vertex 22.349651 3.680516 12.739372
endloop
endfacet
facet normal 0 0 0
outer loop
vertex 22.226797 3.701270 12.739372
vertex 22.206320 3.680516 12.719372
vertex 22.226797 3.680516 12.739372
endloop
endfacet
facet normal 0 0 0
outer loop
vertex 22.206320 3.701270 12.719372
vertex 22.206320 3.680516 12.719372
vertex 22.226797 3.701270 12.739372
endloop
endfacet
facet normal 0 0 0
outer loop
vertex 22.349651 3.680516 12.719372
vertex 22.349651 3.701270 12.719372
vertex 22.349651 3.680516 12.739372
endloop
endfacet
facet normal 0 0 0
outer loop
vertex 22.349651 3.680516 12.739372
vertex 22.349651 3.701270 12.719372
vertex 22.349651 3.701270 12.739372
endloop
endfacet
facet normal 0 0 0
outer loop
vertex 22.226797 3.722023 12.739372
vertex 22.206320 3.701270 12.719372
vertex 22.226797 3.701270 12.739372
endloop
endfacet
facet normal 0 0 0
outer loop
vertex 22.206320 3.722023 12.719372
vertex 22.206320 3.701270 12.719372
vertex 22.226797 3.722023 12.739372
endloop
endfacet
facet normal 0 0 0
outer loop
vertex 22.349651 3.701270 12.719372
vertex 22.329176 3.722023 12.739372
vertex 22.349651 3.701270 12.739372
endloop
endfacet
facet normal 0 0 0
outer loop
vertex 22.329176 3.722023 12.719372
vertex 22.329176 3.722023 12.739372
vertex 22.349651 3.701270 12.719372
endloop
endfacet
facet normal 0 0 0
outer loop
vertex 22.226797 3.742777 12.739372
vertex 22.206320 3.722023 12.719372
vertex 22.226797 3.722023 12.739372
endloop
endfacet
facet normal 0 0 0
outer loop
vertex 22.206320 3.742777 12.719372
vertex 22.206320 3.722023 12.719372
vertex 22.226797 3.742777 12.739372
endloop
endfacet
facet normal 0 0 0
outer loop
vertex 22.329176 3.722023 12.719372
vertex 22.329176 3.742777 12.719372
vertex 22.329176 3.722023 12.739372
endloop
endfacet
facet normal 0 0 0
outer loop
vertex 22.329176 3.722023 12.739372
vertex 22.329176 3.742777 12.719372
vertex 22.329176 3.742777 12.739372
endloop
endfacet
facet normal 0 0 0
outer loop
vertex 22.226797 3.763530 12.739372
vertex 22.206320 3.742777 12.719372
vertex 22.226797 3.742777 12.739372
endloop
endfacet
facet normal 0 0 0
outer loop
vertex 22.206320 3.763530 12.719372
vertex 22.206320 3.742777 12.719372
vertex 22.226797 3.763530 12.739372
endloop
endfacet
facet normal 0 0 0
outer loop
vertex 22.329176 3.742777 12.719372
vertex 22.308701 3.763530 12.739372
vertex 22.329176 3.742777 12.739372
endloop
endfacet
facet normal 0 0 0
outer loop
vertex 22.308701 3.763530 12.719372
vertex 22.308701 3.763530 12.739372
vertex 22.329176 3.742777 12.719372
endloop
endfacet
facet normal 0 0 0
outer loop
vertex 22.206320 3.763530 12.719372
vertex 22.226797 3.763530 12.739372
vertex 22.226797 3.784283 12.719372
endloop
endfacet
facet normal 0 0 0
outer loop
vertex 22.226797 3.763530 12.739372
vertex 22.247272 3.784283 12.739372
vertex 22.226797 3.784283 12.719372
endloop
endfacet
facet normal 0 0 0
outer loop
vertex 22.308701 3.763530 12.719372
vertex 22.288223 3.784283 12.719372
vertex 22.308701 3.784283 12.739372
endloop
endfacet
facet normal 0 0 0
outer loop
vertex 22.308701 3.763530 12.719372
vertex 22.308701 3.784283 12.739372
vertex 22.308701 3.763530 12.739372
endloop
endfacet
facet normal 0 0 0
outer loop
vertex 22.226797 3.784283 12.719372
vertex 22.247272 3.784283 12.739372
vertex 22.247272 3.805037 12.719372
endloop
endfacet
facet normal 0 0 0
outer loop
vertex 22.247272 3.784283 12.739372
vertex 22.267748 3.805037 12.739372
vertex 22.247272 3.805037 12.719372
endloop
endfacet
facet normal 0 0 0
outer loop
vertex 22.288223 3.784283 12.719372
vertex 22.267748 3.805037 12.739372
vertex 22.288223 3.784283 12.739372
endloop
endfacet
facet normal 0 0 0
outer loop
vertex 22.267748 3.805037 12.719372
vertex 22.267748 3.805037 12.739372
vertex 22.288223 3.784283 12.719372
endloop
endfacet
facet normal 0 0 0
outer loop
vertex 22.308701 3.784283 12.739372
vertex 22.288223 3.784283 12.719372
vertex 22.288223 3.784283 12.739372
endloop
endfacet
facet normal 0 0 0
outer loop
vertex 22.247272 3.805037 12.719372
vertex 22.267748 3.805037 12.739372
vertex 22.267748 3.805037 12.719372
endloop
endfacet
facet normal 0 0 0
outer loop
vertex 22.247272 3.597503 12.739372
vertex 22.267748 3.576750 12.739372
vertex 22.267748 3.597503 12.739372
endloop
endfacet
facet normal 0 0 0
outer loop
vertex 22.288223 3.576750 12.739372
vertex 22.288223 3.597503 12.739372
vertex 22.267748 3.576750 12.739372
endloop
endfacet
facet normal 0 0 0
outer loop
vertex 22.288223 3.597503 12.739372
vertex 22.267748 3.597503 12.739372
vertex 22.267748 3.576750 12.739372
endloop
endfacet
facet normal 0 0 0
outer loop
vertex 22.308701 3.576750 12.739372
vertex 22.308701 3.597503 12.739372
vertex 22.288223 3.576750 12.739372
endloop
endfacet
facet normal 0 0 0
outer loop
vertex 22.308701 3.597503 12.739372
vertex 22.288223 3.597503 12.739372
vertex 22.288223 3.576750 12.739372
endloop
endfacet
facet normal 0 0 0
outer loop
vertex 22.308701 3.576750 12.739372
vertex 22.329176 3.597503 12.739372
vertex 22.308701 3.597503 12.739372
endloop
endfacet
facet normal 0 0 0
outer loop
vertex 22.267748 3.597503 12.739372
vertex 22.267748 3.618257 12.739372
vertex 22.247272 3.597503 12.739372
endloop
endfacet
facet normal 0 0 0
outer loop
vertex 22.267748 3.618257 12.739372
vertex 22.247272 3.618257 12.739372
vertex 22.247272 3.597503 12.739372
endloop
endfacet
facet normal 0 0 0
outer loop
vertex 22.288223 3.597503 12.739372
vertex 22.288223 3.618257 12.739372
vertex 22.267748 3.597503 12.739372
endloop
endfacet
facet normal 0 0 0
outer loop
vertex 22.288223 3.618257 12.739372
vertex 22.267748 3.618257 12.739372
vertex 22.267748 3.597503 12.739372
endloop
endfacet
facet normal 0 0 0
outer loop
vertex 22.308701 3.597503 12.739372
vertex 22.308701 3.618257 12.739372
vertex 22.288223 3.597503 12.739372
endloop
endfacet
facet normal 0 0 0
outer loop
vertex 22.308701 3.618257 12.739372
vertex 22.288223 3.618257 12.739372
vertex 22.288223 3.597503 12.739372
endloop
endfacet
facet normal 0 0 0
outer loop
vertex 22.329176 3.597503 12.739372
vertex 22.329176 3.618257 12.739372
vertex 22.308701 3.597503 12.739372
endloop
endfacet
facet normal 0 0 0
outer loop
vertex 22.329176 3.618257 12.739372
vertex 22.308701 3.618257 12.739372
vertex 22.308701 3.597503 12.739372
endloop
endfacet
facet normal 0 0 0
outer loop
vertex 22.349651 3.597503 12.739372
vertex 22.349651 3.618257 12.739372
vertex 22.329176 3.597503 12.739372
endloop
endfacet
facet normal 0 0 0
outer loop
vertex 22.349651 3.618257 12.739372
vertex 22.329176 3.618257 12.739372
vertex 22.329176 3.597503 12.739372
endloop
endfacet
facet normal 0 0 0
outer loop
vertex 22.226797 3.639010 12.739372
vertex 22.247272 3.618257 12.739372
vertex 22.247272 3.639010 12.739372
endloop
endfacet
facet normal 0 0 0
outer loop
vertex 22.267748 3.618257 12.739372
vertex 22.267748 3.639010 12.739372
vertex 22.247272 3.618257 12.739372
endloop
endfacet
facet normal 0 0 0
outer loop
vertex 22.267748 3.639010 12.739372
vertex 22.247272 3.639010 12.739372
vertex 22.247272 3.618257 12.739372
endloop
endfacet
facet normal 0 0 0
outer loop
vertex 22.288223 3.618257 12.739372
vertex 22.288223 3.639010 12.739372
vertex 22.267748 3.618257 12.739372
endloop
endfacet
facet normal 0 0 0
outer loop
vertex 22.288223 3.639010 12.739372
vertex 22.267748 3.639010 12.739372
vertex 22.267748 3.618257 12.739372
endloop
endfacet
facet normal 0 0 0
outer loop
vertex 22.308701 3.618257 12.739372
vertex 22.308701 3.639010 12.739372
vertex 22.288223 3.618257 12.739372
endloop
endfacet
facet normal 0 0 0
outer loop
vertex 22.308701 3.639010 12.739372
vertex 22.288223 3.639010 12.739372
vertex 22.288223 3.618257 12.739372
endloop
endfacet
facet normal 0 0 0
outer loop
vertex 22.329176 3.618257 12.739372
vertex 22.329176 3.639010 12.739372
vertex 22.308701 3.618257 12.739372
endloop
endfacet
facet normal 0 0 0
outer loop
vertex 22.329176 3.639010 12.739372
vertex 22.308701 3.639010 12.739372
vertex 22.308701 3.618257 12.739372
endloop
endfacet
facet normal 0 0 0
outer loop
vertex 22.349651 3.618257 12.739372
vertex 22.349651 3.639010 12.739372
vertex 22.329176 3.618257 12.739372
endloop
endfacet
facet normal 0 0 0
outer loop
vertex 22.349651 3.639010 12.739372
vertex 22.329176 3.639010 12.739372
vertex 22.329176 3.618257 12.739372
endloop
endfacet
facet normal 0 0 0
outer loop
vertex 22.247272 3.639010 12.739372
vertex 22.247272 3.659764 12.739372
vertex 22.226797 3.639010 12.739372
endloop
endfacet
facet normal 0 0 0
outer loop
vertex 22.247272 3.659764 12.739372
vertex 22.226797 3.659764 12.739372
vertex 22.226797 3.639010 12.739372
endloop
endfacet
facet normal 0 0 0
outer loop
vertex 22.267748 3.659764 12.759372
vertex 22.247272 3.659764 12.739372
vertex 22.267748 3.639010 12.739372
endloop
endfacet
facet normal 0 0 0
outer loop
vertex 22.247272 3.659764 12.739372
vertex 22.247272 3.639010 12.739372
vertex 22.267748 3.639010 12.739372
endloop
endfacet
facet normal 0 0 0
outer loop
vertex 22.288223 3.639010 12.739372
vertex 22.267748 3.659764 12.759372
vertex 22.267748 3.639010 12.739372
endloop
endfacet
facet normal 0 0 0
outer loop
vertex 22.288223 3.659764 12.759372
vertex 22.267748 3.659764 12.759372
vertex 22.288223 3.639010 12.739372
endloop
endfacet
facet normal 0 0 0
outer loop
vertex 22.288223 3.659764 12.759372
vertex 22.288223 3.639010 12.739372
vertex 22.308701 3.659764 12.739372
endloop
endfacet
facet normal 0 0 0
outer loop
vertex 22.288223 3.639010 12.739372
vertex 22.308701 3.639010 12.739372
vertex 22.308701 3.659764 12.739372
endloop
endfacet
facet normal 0 0 0
outer loop
vertex 22.329176 3.639010 12.739372
vertex 22.329176 3.659764 12.739372
vertex 22.308701 3.639010 12.739372
endloop
endfacet
facet normal 0 0 0
outer loop
vertex 22.329176 3.659764 12.739372
vertex 22.308701 3.659764 12.739372
vertex 22.308701 3.639010 12.739372
endloop
endfacet
facet normal 0 0 0
outer loop
vertex 22.349651 3.639010 12.739372
vertex 22.349651 3.659764 12.739372
vertex 22.329176 3.639010 12.739372
endloop
endfacet
facet normal 0 0 0
outer loop
vertex 22.349651 3.659764 12.739372
vertex 22.329176 3.659764 12.739372
vertex 22.329176 3.639010 12.739372
endloop
endfacet
facet normal 0 0 0
outer loop
vertex 22.247272 3.659764 12.739372
vertex 22.247272 3.680516 12.739372
vertex 22.226797 3.659764 12.739372
endloop
endfacet
facet normal 0 0 0
outer loop
vertex 22.247272 3.680516 12.739372
vertex 22.226797 3.680516 12.739372
vertex 22.226797 3.659764 12.739372
endloop
endfacet
facet normal 0 0 0
outer loop
vertex 22.267748 3.680516 12.759372
vertex 22.247272 3.659764 12.739372
vertex 22.267748 3.659764 12.759372
endloop
endfacet
facet normal 0 0 0
outer loop
vertex 22.247272 3.680516 12.739372
vertex 22.247272 3.659764 12.739372
vertex 22.267748 3.680516 12.759372
endloop
endfacet
facet normal 0 0 0
outer loop
vertex 22.308701 3.659764 12.739372
vertex 22.308701 3.680516 12.759372
vertex 22.288223 3.659764 12.759372
endloop
endfacet
facet normal 0 0 0
outer loop
vertex 22.308701 3.680516 12.759372
vertex 22.308701 3.659764 12.739372
vertex 22.329176 3.680516 12.739372
endloop
endfacet
facet normal 0 0 0
outer loop
vertex 22.308701 3.659764 12.739372
vertex 22.329176 3.659764 12.739372
vertex 22.329176 3.680516 12.739372
endloop
endfacet
facet normal 0 0 0
outer loop
vertex 22.349651 3.659764 12.739372
vertex 22.349651 3.680516 12.739372
vertex 22.329176 3.659764 12.739372
endloop
endfacet
facet normal 0 0 0
outer loop
vertex 22.349651 3.680516 12.739372
vertex 22.329176 3.680516 12.739372
vertex 22.329176 3.659764 12.739372
endloop
endfacet
facet normal 0 0 0
outer loop
vertex 22.247272 3.701270 12.759372
vertex 22.226797 3.701270 12.739372
vertex 22.247272 3.680516 12.739372
endloop
endfacet
facet normal 0 0 0
outer loop
vertex 22.226797 3.701270 12.739372
vertex 22.226797 3.680516 12.739372
vertex 22.247272 3.680516 12.739372
endloop
endfacet
facet normal 0 0 0
outer loop
vertex 22.267748 3.680516 12.759372
vertex 22.247272 3.701270 12.759372
vertex 22.247272 3.680516 12.739372
endloop
endfacet
facet normal 0 0 0
outer loop
vertex 22.329176 3.701270 12.739372
vertex 22.308701 3.680516 12.759372
vertex 22.329176 3.680516 12.739372
endloop
endfacet
facet normal 0 0 0
outer loop
vertex 22.308701 3.701270 12.759372
vertex 22.308701 3.680516 12.759372
vertex 22.329176 3.701270 12.739372
endloop
endfacet
facet normal 0 0 0
outer loop
vertex 22.349651 3.680516 12.739372
vertex 22.349651 3.701270 12.739372
vertex 22.329176 3.680516 12.739372
endloop
endfacet
facet normal 0 0 0
outer loop
vertex 22.349651 3.701270 12.739372
vertex 22.329176 3.701270 12.739372
vertex 22.329176 3.680516 12.739372
endloop
endfacet
facet normal 0 0 0
outer loop
vertex 22.247272 3.722023 12.759372
vertex 22.226797 3.701270 12.739372
vertex 22.247272 3.701270 12.759372
endloop
endfacet
facet normal 0 0 0
outer loop
vertex 22.226797 3.722023 12.739372
vertex 22.226797 3.701270 12.739372
vertex 22.247272 3.722023 12.759372
endloop
endfacet
facet normal 0 0 0
outer loop
vertex 22.329176 3.722023 12.739372
vertex 22.308701 3.701270 12.759372
vertex 22.329176 3.701270 12.739372
endloop
endfacet
facet normal 0 0 0
outer loop
vertex 22.308701 3.722023 12.759372
vertex 22.308701 3.701270 12.759372
vertex 22.329176 3.722023 12.739372
endloop
endfacet
facet normal 0 0 0
outer loop
vertex 22.349651 3.701270 12.739372
vertex 22.329176 3.722023 12.739372
vertex 22.329176 3.701270 12.739372
endloop
endfacet
facet normal 0 0 0
outer loop
vertex 22.247272 3.742777 12.759372
vertex 22.226797 3.722023 12.739372
vertex 22.247272 3.722023 12.759372
endloop
endfacet
facet normal 0 0 0
outer loop
vertex 22.226797 3.742777 12.739372
vertex 22.226797 3.722023 12.739372
vertex 22.247272 3.742777 12.759372
endloop
endfacet
facet normal 0 0 0
outer loop
vertex 22.308701 3.742777 12.739372
vertex 22.288223 3.742777 12.759372
vertex 22.308701 3.722023 12.759372
endloop
endfacet
facet normal 0 0 0
outer loop
vertex 22.308701 3.722023 12.759372
vertex 22.329176 3.722023 12.739372
vertex 22.308701 3.742777 12.739372
endloop
endfacet
facet normal 0 0 0
outer loop
vertex 22.329176 3.722023 12.739372
vertex 22.329176 3.742777 12.739372
vertex 22.308701 3.742777 12.739372
endloop
endfacet
facet normal 0 0 0
outer loop
vertex 22.247272 3.763530 12.759372
vertex 22.226797 3.742777 12.739372
vertex 22.247272 3.742777 12.759372
endloop
endfacet
facet normal 0 0 0
outer loop
vertex 22.226797 3.763530 12.739372
vertex 22.226797 3.742777 12.739372
vertex 22.247272 3.763530 12.759372
endloop
endfacet
facet normal 0 0 0
outer loop
vertex 22.308701 3.763530 12.739372
vertex 22.288223 3.742777 12.759372
vertex 22.308701 3.742777 12.739372
endloop
endfacet
facet normal 0 0 0
outer loop
vertex 22.288223 3.763530 12.759372
vertex 22.288223 3.742777 12.759372
vertex 22.308701 3.763530 12.739372
endloop
endfacet
facet normal 0 0 0
outer loop
vertex 22.329176 3.742777 12.739372
vertex 22.308701 3.763530 12.739372
vertex 22.308701 3.742777 12.739372
endloop
endfacet
facet normal 0 0 0
outer loop
vertex 22.226797 3.763530 12.739372
vertex 22.247272 3.763530 12.759372
vertex 22.247272 3.784283 12.739372
endloop
endfacet
facet normal 0 0 0
outer loop
vertex 22.247272 3.763530 12.759372
vertex 22.247272 3.784283 12.759372
vertex 22.247272 3.784283 12.739372
endloop
endfacet
facet normal 0 0 0
outer loop
vertex 22.288223 3.784283 12.739372
vertex 22.267748 3.784283 12.759372
vertex 22.288223 3.763530 12.759372
endloop
endfacet
facet normal 0 0 0
outer loop
vertex 22.288223 3.763530 12.759372
vertex 22.308701 3.763530 12.739372
vertex 22.288223 3.784283 12.739372
endloop
endfacet
facet normal 0 0 0
outer loop
vertex 22.308701 3.763530 12.739372
vertex 22.308701 3.784283 12.739372
vertex 22.288223 3.784283 12.739372
endloop
endfacet
facet normal 0 0 0
outer loop
vertex 22.267748 3.805037 12.739372
vertex 22.247272 3.784283 12.739372
vertex 22.267748 3.784283 12.759372
endloop
endfacet
facet normal 0 0 0
outer loop
vertex 22.247272 3.784283 12.739372
vertex 22.247272 3.784283 12.759372
vertex 22.267748 3.784283 12.759372
endloop
endfacet
facet normal 0 0 0
outer loop
vertex 22.288223 3.784283 12.739372
vertex 22.267748 3.805037 12.739372
vertex 22.267748 3.784283 12.759372
endloop
endfacet
facet normal 0 0 0
outer loop
vertex 22.288223 3.659764 12.759372
vertex 22.288223 3.680516 12.759372
vertex 22.267748 3.659764 12.759372
endloop
endfacet
facet normal 0 0 0
outer loop
vertex 22.288223 3.680516 12.759372
vertex 22.267748 3.680516 12.759372
vertex 22.267748 3.659764 12.759372
endloop
endfacet
facet normal 0 0 0
outer loop
vertex 22.288223 3.659764 12.759372
vertex 22.308701 3.680516 12.759372
vertex 22.288223 3.680516 12.759372
endloop
endfacet
facet normal 0 0 0
outer loop
vertex 22.247272 3.701270 12.759372
vertex 22.267748 3.680516 12.759372
vertex 22.267748 3.701270 12.759372
endloop
endfacet
facet normal 0 0 0
outer loop
vertex 22.288223 3.680516 12.759372
vertex 22.288223 3.701270 12.759372
vertex 22.267748 3.680516 12.759372
endloop
endfacet
facet normal 0 0 0
outer loop
vertex 22.288223 3.701270 12.759372
vertex 22.267748 3.701270 12.759372
vertex 22.267748 3.680516 12.759372
endloop
endfacet
facet normal 0 0 0
outer loop
vertex 22.308701 3.680516 12.759372
vertex 22.308701 3.701270 12.759372
vertex 22.288223 3.680516 12.759372
endloop
endfacet
facet normal 0 0 0
outer loop
vertex 22.308701 3.701270 12.759372
vertex 22.288223 3.701270 12.759372
vertex 22.288223 3.680516 12.759372
endloop
endfacet
facet normal 0 0 0
outer loop
vertex 22.267748 3.701270 12.759372
vertex 22.267748 3.722023 12.759372
vertex 22.247272 3.701270 12.759372
endloop
endfacet
facet normal 0 0 0
outer loop
vertex 22.267748 3.722023 12.759372
vertex 22.247272 3.722023 12.759372
vertex 22.247272 3.701270 12.759372
endloop
endfacet
facet normal 0 0 0
outer loop
vertex 22.288223 3.701270 12.759372
vertex 22.288223 3.722023 12.759372
vertex 22.267748 3.701270 12.759372
endloop
endfacet
facet normal 0 0 0
outer loop
vertex 22.288223 3.722023 12.759372
vertex 22.267748 3.722023 12.759372
vertex 22.267748 3.701270 12.759372
endloop
endfacet
facet normal 0 0 0
outer loop
vertex 22.308701 3.701270 12.759372
vertex 22.308701 3.722023 12.759372
vertex 22.288223 3.701270 12.759372
endloop
endfacet
facet normal 0 0 0
outer loop
vertex 22.308701 3.722023 12.759372
vertex 22.288223 3.722023 12.759372
vertex 22.288223 3.701270 12.759372
endloop
endfacet
facet normal 0 0 0
outer loop
vertex 22.267748 3.722023 12.759372
vertex 22.267748 3.742777 12.759372
vertex 22.247272 3.722023 12.759372
endloop
endfacet
facet normal 0 0 0
outer loop
vertex 22.267748 3.742777 12.759372
vertex 22.247272 3.742777 12.759372
vertex 22.247272 3.722023 12.759372
endloop
endfacet
facet normal 0 0 0
outer loop
vertex 22.288223 3.722023 12.759372
vertex 22.288223 3.742777 12.759372
vertex 22.267748 3.722023 12.759372
endloop
endfacet
facet normal 0 0 0
outer loop
vertex 22.288223 3.742777 12.759372
vertex 22.267748 3.742777 12.759372
vertex 22.267748 3.722023 12.759372
endloop
endfacet
facet normal 0 0 0
outer loop
vertex 22.308701 3.722023 12.759372
vertex 22.288223 3.742777 12.759372
vertex 22.288223 3.722023 12.759372
endloop
endfacet
facet normal 0 0 0
outer loop
vertex 22.267748 3.742777 12.759372
vertex 22.267748 3.763530 12.759372
vertex 22.247272 3.742777 12.759372
endloop
endfacet
facet normal 0 0 0
outer loop
vertex 22.267748 3.763530 12.759372
vertex 22.247272 3.763530 12.759372
vertex 22.247272 3.742777 12.759372
endloop
endfacet
facet normal 0 0 0
outer loop
vertex 22.288223 3.742777 12.759372
vertex 22.288223 3.763530 12.759372
vertex 22.267748 3.742777 12.759372
endloop
endfacet
facet normal 0 0 0
outer loop
vertex 22.288223 3.763530 12.759372
vertex 22.267748 3.763530 12.759372
vertex 22.267748 3.742777 12.759372
endloop
endfacet
facet normal 0 0 0
outer loop
vertex 22.267748 3.763530 12.759372
vertex 22.267748 3.784283 12.759372
vertex 22.247272 3.763530 12.759372
endloop
endfacet
facet normal 0 0 0
outer loop
vertex 22.267748 3.784283 12.759372
vertex 22.247272 3.784283 12.759372
vertex 22.247272 3.763530 12.759372
endloop
endfacet
facet normal 0 0 0
outer loop
vertex 22.288223 3.763530 12.759372
vertex 22.267748 3.784283 12.759372
vertex 22.267748 3.763530 12.759372
endloop
endfacet
endsolid B-16-Plag.315
