solid B-16-Plag.171
facet normal 0 0 0
outer loop
vertex 15.776920 9.242407 8.479372
vertex 15.756443 9.242407 8.479372
vertex 15.776920 9.263161 8.479372
endloop
endfacet
facet normal 0 0 0
outer loop
vertex 15.776920 9.263161 8.479372
vertex 15.756443 9.242407 8.479372
vertex 15.756443 9.263161 8.479372
endloop
endfacet
facet normal 0 0 0
outer loop
vertex 15.756443 9.263161 8.479372
vertex 15.776920 9.283914 8.479372
vertex 15.776920 9.263161 8.479372
endloop
endfacet
facet normal 0 0 0
outer loop
vertex 15.797396 9.283914 8.479372
vertex 15.776920 9.263161 8.479372
vertex 15.776920 9.283914 8.479372
endloop
endfacet
facet normal 0 0 0
outer loop
vertex 15.838346 9.263161 8.479372
vertex 15.817871 9.283914 8.479372
vertex 15.838346 9.283914 8.479372
endloop
endfacet
facet normal 0 0 0
outer loop
vertex 15.858822 9.263161 8.479372
vertex 15.838346 9.263161 8.479372
vertex 15.858822 9.283914 8.479372
endloop
endfacet
facet normal 0 0 0
outer loop
vertex 15.858822 9.283914 8.479372
vertex 15.838346 9.263161 8.479372
vertex 15.838346 9.283914 8.479372
endloop
endfacet
facet normal 0 0 0
outer loop
vertex 15.879299 9.283914 8.479372
vertex 15.858822 9.263161 8.479372
vertex 15.858822 9.283914 8.479372
endloop
endfacet
facet normal 0 0 0
outer loop
vertex 15.776920 9.283914 8.479372
vertex 15.797396 9.304667 8.479372
vertex 15.797396 9.283914 8.479372
endloop
endfacet
facet normal 0 0 0
outer loop
vertex 15.817871 9.283914 8.479372
vertex 15.797396 9.283914 8.479372
vertex 15.817871 9.304667 8.479372
endloop
endfacet
facet normal 0 0 0
outer loop
vertex 15.817871 9.304667 8.479372
vertex 15.797396 9.283914 8.479372
vertex 15.797396 9.304667 8.479372
endloop
endfacet
facet normal 0 0 0
outer loop
vertex 15.838346 9.283914 8.479372
vertex 15.817871 9.283914 8.479372
vertex 15.838346 9.304667 8.479372
endloop
endfacet
facet normal 0 0 0
outer loop
vertex 15.838346 9.304667 8.479372
vertex 15.817871 9.283914 8.479372
vertex 15.817871 9.304667 8.479372
endloop
endfacet
facet normal 0 0 0
outer loop
vertex 15.858822 9.283914 8.479372
vertex 15.838346 9.283914 8.479372
vertex 15.858822 9.304667 8.479372
endloop
endfacet
facet normal 0 0 0
outer loop
vertex 15.858822 9.304667 8.479372
vertex 15.838346 9.283914 8.479372
vertex 15.838346 9.304667 8.479372
endloop
endfacet
facet normal 0 0 0
outer loop
vertex 15.858822 9.304667 8.479372
vertex 15.879299 9.283914 8.479372
vertex 15.858822 9.283914 8.479372
endloop
endfacet
facet normal 0 0 0
outer loop
vertex 15.797396 9.304667 8.479372
vertex 15.776920 9.325420 8.479372
vertex 15.797396 9.325420 8.479372
endloop
endfacet
facet normal 0 0 0
outer loop
vertex 15.797396 9.325420 8.479372
vertex 15.817871 9.304667 8.479372
vertex 15.797396 9.304667 8.479372
endloop
endfacet
facet normal 0 0 0
outer loop
vertex 15.817871 9.304667 8.479372
vertex 15.838346 9.325420 8.479372
vertex 15.838346 9.304667 8.479372
endloop
endfacet
facet normal 0 0 0
outer loop
vertex 15.838346 9.325420 8.479372
vertex 15.858822 9.304667 8.479372
vertex 15.838346 9.304667 8.479372
endloop
endfacet
facet normal 0 0 0
outer loop
vertex 15.776920 9.325420 8.479372
vertex 15.797396 9.346174 8.479372
vertex 15.797396 9.325420 8.479372
endloop
endfacet
facet normal 0 0 0
outer loop
vertex 15.776920 9.242407 8.499372
vertex 15.756443 9.242407 8.479372
vertex 15.776920 9.242407 8.479372
endloop
endfacet
facet normal 0 0 0
outer loop
vertex 15.776920 9.242407 8.479372
vertex 15.797396 9.242407 8.499372
vertex 15.776920 9.242407 8.499372
endloop
endfacet
facet normal 0 0 0
outer loop
vertex 15.756443 9.242407 8.479372
vertex 15.756443 9.263161 8.499372
vertex 15.735968 9.263161 8.499372
endloop
endfacet
facet normal 0 0 0
outer loop
vertex 15.756443 9.242407 8.479372
vertex 15.735968 9.263161 8.499372
vertex 15.756443 9.263161 8.479372
endloop
endfacet
facet normal 0 0 0
outer loop
vertex 15.776920 9.242407 8.499372
vertex 15.756443 9.263161 8.499372
vertex 15.756443 9.242407 8.479372
endloop
endfacet
facet normal 0 0 0
outer loop
vertex 15.797396 9.242407 8.499372
vertex 15.776920 9.263161 8.479372
vertex 15.797396 9.263161 8.499372
endloop
endfacet
facet normal 0 0 0
outer loop
vertex 15.776920 9.242407 8.479372
vertex 15.776920 9.263161 8.479372
vertex 15.797396 9.242407 8.499372
endloop
endfacet
facet normal 0 0 0
outer loop
vertex 15.817871 9.242407 8.499372
vertex 15.797396 9.242407 8.499372
vertex 15.817871 9.263161 8.499372
endloop
endfacet
facet normal 0 0 0
outer loop
vertex 15.817871 9.263161 8.499372
vertex 15.797396 9.242407 8.499372
vertex 15.797396 9.263161 8.499372
endloop
endfacet
facet normal 0 0 0
outer loop
vertex 15.838346 9.263161 8.479372
vertex 15.838346 9.242407 8.499372
vertex 15.817871 9.263161 8.499372
endloop
endfacet
facet normal 0 0 0
outer loop
vertex 15.838346 9.242407 8.499372
vertex 15.817871 9.242407 8.499372
vertex 15.817871 9.263161 8.499372
endloop
endfacet
facet normal 0 0 0
outer loop
vertex 15.838346 9.242407 8.499372
vertex 15.838346 9.263161 8.479372
vertex 15.858822 9.263161 8.499372
endloop
endfacet
facet normal 0 0 0
outer loop
vertex 15.838346 9.263161 8.479372
vertex 15.858822 9.263161 8.479372
vertex 15.858822 9.263161 8.499372
endloop
endfacet
facet normal 0 0 0
outer loop
vertex 15.756443 9.263161 8.479372
vertex 15.735968 9.263161 8.499372
vertex 15.756443 9.283914 8.499372
endloop
endfacet
facet normal 0 0 0
outer loop
vertex 15.735968 9.263161 8.499372
vertex 15.735968 9.283914 8.499372
vertex 15.756443 9.283914 8.499372
endloop
endfacet
facet normal 0 0 0
outer loop
vertex 15.756443 9.263161 8.479372
vertex 15.756443 9.283914 8.499372
vertex 15.776920 9.283914 8.479372
endloop
endfacet
facet normal 0 0 0
outer loop
vertex 15.776920 9.263161 8.479372
vertex 15.797396 9.283914 8.479372
vertex 15.797396 9.263161 8.499372
endloop
endfacet
facet normal 0 0 0
outer loop
vertex 15.817871 9.283914 8.479372
vertex 15.797396 9.263161 8.499372
vertex 15.797396 9.283914 8.479372
endloop
endfacet
facet normal 0 0 0
outer loop
vertex 15.817871 9.263161 8.499372
vertex 15.797396 9.263161 8.499372
vertex 15.817871 9.283914 8.479372
endloop
endfacet
facet normal 0 0 0
outer loop
vertex 15.838346 9.263161 8.479372
vertex 15.817871 9.263161 8.499372
vertex 15.817871 9.283914 8.479372
endloop
endfacet
facet normal 0 0 0
outer loop
vertex 15.858822 9.263161 8.479372
vertex 15.879299 9.283914 8.499372
vertex 15.858822 9.263161 8.499372
endloop
endfacet
facet normal 0 0 0
outer loop
vertex 15.879299 9.283914 8.479372
vertex 15.879299 9.283914 8.499372
vertex 15.858822 9.263161 8.479372
endloop
endfacet
facet normal 0 0 0
outer loop
vertex 15.735968 9.283914 8.499372
vertex 15.715492 9.304667 8.499372
vertex 15.735968 9.304667 8.499372
endloop
endfacet
facet normal 0 0 0
outer loop
vertex 15.756443 9.283914 8.499372
vertex 15.735968 9.283914 8.499372
vertex 15.756443 9.304667 8.499372
endloop
endfacet
facet normal 0 0 0
outer loop
vertex 15.756443 9.304667 8.499372
vertex 15.735968 9.283914 8.499372
vertex 15.735968 9.304667 8.499372
endloop
endfacet
facet normal 0 0 0
outer loop
vertex 15.776920 9.283914 8.479372
vertex 15.756443 9.283914 8.499372
vertex 15.776920 9.304667 8.499372
endloop
endfacet
facet normal 0 0 0
outer loop
vertex 15.756443 9.283914 8.499372
vertex 15.756443 9.304667 8.499372
vertex 15.776920 9.304667 8.499372
endloop
endfacet
facet normal 0 0 0
outer loop
vertex 15.776920 9.283914 8.479372
vertex 15.776920 9.304667 8.499372
vertex 15.797396 9.304667 8.479372
endloop
endfacet
facet normal 0 0 0
outer loop
vertex 15.879299 9.283914 8.479372
vertex 15.858822 9.304667 8.479372
vertex 15.879299 9.304667 8.499372
endloop
endfacet
facet normal 0 0 0
outer loop
vertex 15.899775 9.304667 8.499372
vertex 15.879299 9.283914 8.499372
vertex 15.879299 9.283914 8.479372
endloop
endfacet
facet normal 0 0 0
outer loop
vertex 15.899775 9.304667 8.499372
vertex 15.879299 9.283914 8.479372
vertex 15.879299 9.304667 8.499372
endloop
endfacet
facet normal 0 0 0
outer loop
vertex 15.715492 9.304667 8.499372
vertex 15.735968 9.325420 8.499372
vertex 15.735968 9.304667 8.499372
endloop
endfacet
facet normal 0 0 0
outer loop
vertex 15.756443 9.325420 8.479372
vertex 15.756443 9.304667 8.499372
vertex 15.735968 9.325420 8.499372
endloop
endfacet
facet normal 0 0 0
outer loop
vertex 15.756443 9.304667 8.499372
vertex 15.735968 9.304667 8.499372
vertex 15.735968 9.325420 8.499372
endloop
endfacet
facet normal 0 0 0
outer loop
vertex 15.776920 9.325420 8.479372
vertex 15.756443 9.304667 8.499372
vertex 15.756443 9.325420 8.479372
endloop
endfacet
facet normal 0 0 0
outer loop
vertex 15.776920 9.304667 8.499372
vertex 15.756443 9.304667 8.499372
vertex 15.776920 9.325420 8.479372
endloop
endfacet
facet normal 0 0 0
outer loop
vertex 15.797396 9.304667 8.479372
vertex 15.776920 9.304667 8.499372
vertex 15.776920 9.325420 8.479372
endloop
endfacet
facet normal 0 0 0
outer loop
vertex 15.817871 9.304667 8.479372
vertex 15.797396 9.325420 8.479372
vertex 15.817871 9.325420 8.499372
endloop
endfacet
facet normal 0 0 0
outer loop
vertex 15.817871 9.304667 8.479372
vertex 15.817871 9.325420 8.499372
vertex 15.838346 9.325420 8.479372
endloop
endfacet
facet normal 0 0 0
outer loop
vertex 15.858822 9.304667 8.479372
vertex 15.838346 9.325420 8.479372
vertex 15.858822 9.325420 8.499372
endloop
endfacet
facet normal 0 0 0
outer loop
vertex 15.858822 9.304667 8.479372
vertex 15.858822 9.325420 8.499372
vertex 15.879299 9.304667 8.499372
endloop
endfacet
facet normal 0 0 0
outer loop
vertex 15.756443 9.325420 8.479372
vertex 15.735968 9.325420 8.499372
vertex 15.756443 9.346174 8.499372
endloop
endfacet
facet normal 0 0 0
outer loop
vertex 15.735968 9.325420 8.499372
vertex 15.735968 9.346174 8.499372
vertex 15.756443 9.346174 8.499372
endloop
endfacet
facet normal 0 0 0
outer loop
vertex 15.756443 9.325420 8.479372
vertex 15.776920 9.346174 8.499372
vertex 15.776920 9.325420 8.479372
endloop
endfacet
facet normal 0 0 0
outer loop
vertex 15.756443 9.346174 8.499372
vertex 15.776920 9.346174 8.499372
vertex 15.756443 9.325420 8.479372
endloop
endfacet
facet normal 0 0 0
outer loop
vertex 15.776920 9.325420 8.479372
vertex 15.776920 9.346174 8.499372
vertex 15.797396 9.346174 8.479372
endloop
endfacet
facet normal 0 0 0
outer loop
vertex 15.817871 9.325420 8.499372
vertex 15.797396 9.346174 8.479372
vertex 15.817871 9.346174 8.499372
endloop
endfacet
facet normal 0 0 0
outer loop
vertex 15.797396 9.325420 8.479372
vertex 15.797396 9.346174 8.479372
vertex 15.817871 9.325420 8.499372
endloop
endfacet
facet normal 0 0 0
outer loop
vertex 15.838346 9.325420 8.479372
vertex 15.817871 9.325420 8.499372
vertex 15.838346 9.346174 8.499372
endloop
endfacet
facet normal 0 0 0
outer loop
vertex 15.817871 9.325420 8.499372
vertex 15.817871 9.346174 8.499372
vertex 15.838346 9.346174 8.499372
endloop
endfacet
facet normal 0 0 0
outer loop
vertex 15.838346 9.325420 8.479372
vertex 15.838346 9.346174 8.499372
vertex 15.858822 9.325420 8.499372
endloop
endfacet
facet normal 0 0 0
outer loop
vertex 15.735968 9.346174 8.499372
vertex 15.756443 9.366927 8.499372
vertex 15.756443 9.346174 8.499372
endloop
endfacet
facet normal 0 0 0
outer loop
vertex 15.776920 9.346174 8.499372
vertex 15.756443 9.346174 8.499372
vertex 15.776920 9.366927 8.499372
endloop
endfacet
facet normal 0 0 0
outer loop
vertex 15.776920 9.366927 8.499372
vertex 15.756443 9.346174 8.499372
vertex 15.756443 9.366927 8.499372
endloop
endfacet
facet normal 0 0 0
outer loop
vertex 15.797396 9.346174 8.479372
vertex 15.776920 9.346174 8.499372
vertex 15.797396 9.366927 8.499372
endloop
endfacet
facet normal 0 0 0
outer loop
vertex 15.776920 9.346174 8.499372
vertex 15.776920 9.366927 8.499372
vertex 15.797396 9.366927 8.499372
endloop
endfacet
facet normal 0 0 0
outer loop
vertex 15.797396 9.346174 8.479372
vertex 15.797396 9.366927 8.499372
vertex 15.817871 9.346174 8.499372
endloop
endfacet
facet normal 0 0 0
outer loop
vertex 15.817871 9.366927 8.479372
vertex 15.817871 9.346174 8.499372
vertex 15.797396 9.366927 8.499372
endloop
endfacet
facet normal 0 0 0
outer loop
vertex 15.817871 9.366927 8.479372
vertex 15.817871 9.366927 8.499372
vertex 15.817871 9.346174 8.499372
endloop
endfacet
facet normal 0 0 0
outer loop
vertex 15.817871 9.346174 8.499372
vertex 15.817871 9.366927 8.499372
vertex 15.838346 9.346174 8.499372
endloop
endfacet
facet normal 0 0 0
outer loop
vertex 15.817871 9.366927 8.479372
vertex 15.797396 9.366927 8.499372
vertex 15.817871 9.366927 8.499372
endloop
endfacet
facet normal 0 0 0
outer loop
vertex 15.817871 9.366927 8.499372
vertex 15.838346 9.366927 8.479372
vertex 15.817871 9.366927 8.479372
endloop
endfacet
facet normal 0 0 0
outer loop
vertex 15.756443 9.221654 8.519372
vertex 15.735968 9.242407 8.519372
vertex 15.756443 9.242407 8.519372
endloop
endfacet
facet normal 0 0 0
outer loop
vertex 15.776920 9.242407 8.499372
vertex 15.776920 9.242407 8.519372
vertex 15.756443 9.221654 8.519372
endloop
endfacet
facet normal 0 0 0
outer loop
vertex 15.776920 9.242407 8.499372
vertex 15.756443 9.221654 8.519372
vertex 15.756443 9.242407 8.519372
endloop
endfacet
facet normal 0 0 0
outer loop
vertex 15.797396 9.242407 8.499372
vertex 15.797396 9.242407 8.519372
vertex 15.776920 9.242407 8.499372
endloop
endfacet
facet normal 0 0 0
outer loop
vertex 15.776920 9.242407 8.499372
vertex 15.797396 9.242407 8.519372
vertex 15.776920 9.242407 8.519372
endloop
endfacet
facet normal 0 0 0
outer loop
vertex 15.817871 9.242407 8.499372
vertex 15.817871 9.242407 8.519372
vertex 15.797396 9.242407 8.499372
endloop
endfacet
facet normal 0 0 0
outer loop
vertex 15.797396 9.242407 8.499372
vertex 15.817871 9.242407 8.519372
vertex 15.797396 9.242407 8.519372
endloop
endfacet
facet normal 0 0 0
outer loop
vertex 15.838346 9.242407 8.499372
vertex 15.817871 9.242407 8.519372
vertex 15.817871 9.242407 8.499372
endloop
endfacet
facet normal 0 0 0
outer loop
vertex 15.735968 9.263161 8.499372
vertex 15.735968 9.242407 8.519372
vertex 15.735968 9.263161 8.519372
endloop
endfacet
facet normal 0 0 0
outer loop
vertex 15.756443 9.263161 8.499372
vertex 15.735968 9.242407 8.519372
vertex 15.735968 9.263161 8.499372
endloop
endfacet
facet normal 0 0 0
outer loop
vertex 15.756443 9.242407 8.519372
vertex 15.735968 9.242407 8.519372
vertex 15.756443 9.263161 8.499372
endloop
endfacet
facet normal 0 0 0
outer loop
vertex 15.776920 9.242407 8.499372
vertex 15.756443 9.242407 8.519372
vertex 15.756443 9.263161 8.499372
endloop
endfacet
facet normal 0 0 0
outer loop
vertex 15.838346 9.242407 8.499372
vertex 15.838346 9.263161 8.519372
vertex 15.817871 9.242407 8.519372
endloop
endfacet
facet normal 0 0 0
outer loop
vertex 15.858822 9.263161 8.499372
vertex 15.838346 9.263161 8.519372
vertex 15.838346 9.242407 8.499372
endloop
endfacet
facet normal 0 0 0
outer loop
vertex 15.735968 9.263161 8.499372
vertex 15.735968 9.263161 8.519372
vertex 15.735968 9.283914 8.499372
endloop
endfacet
facet normal 0 0 0
outer loop
vertex 15.735968 9.263161 8.519372
vertex 15.735968 9.283914 8.519372
vertex 15.735968 9.283914 8.499372
endloop
endfacet
facet normal 0 0 0
outer loop
vertex 15.858822 9.263161 8.499372
vertex 15.858822 9.283914 8.519372
vertex 15.838346 9.263161 8.519372
endloop
endfacet
facet normal 0 0 0
outer loop
vertex 15.879299 9.283914 8.499372
vertex 15.858822 9.283914 8.519372
vertex 15.858822 9.263161 8.499372
endloop
endfacet
facet normal 0 0 0
outer loop
vertex 15.715492 9.304667 8.499372
vertex 15.735968 9.283914 8.499372
vertex 15.735968 9.304667 8.519372
endloop
endfacet
facet normal 0 0 0
outer loop
vertex 15.735968 9.283914 8.499372
vertex 15.735968 9.283914 8.519372
vertex 15.735968 9.304667 8.519372
endloop
endfacet
facet normal 0 0 0
outer loop
vertex 15.879299 9.304667 8.499372
vertex 15.858822 9.283914 8.519372
vertex 15.879299 9.283914 8.499372
endloop
endfacet
facet normal 0 0 0
outer loop
vertex 15.858822 9.304667 8.519372
vertex 15.858822 9.283914 8.519372
vertex 15.879299 9.304667 8.499372
endloop
endfacet
facet normal 0 0 0
outer loop
vertex 15.879299 9.283914 8.499372
vertex 15.899775 9.304667 8.499372
vertex 15.879299 9.304667 8.499372
endloop
endfacet
facet normal 0 0 0
outer loop
vertex 15.715492 9.325420 8.519372
vertex 15.735968 9.325420 8.499372
vertex 15.735968 9.304667 8.519372
endloop
endfacet
facet normal 0 0 0
outer loop
vertex 15.715492 9.304667 8.499372
vertex 15.735968 9.304667 8.519372
vertex 15.735968 9.325420 8.499372
endloop
endfacet
facet normal 0 0 0
outer loop
vertex 15.879299 9.304667 8.499372
vertex 15.858822 9.325420 8.499372
vertex 15.858822 9.304667 8.519372
endloop
endfacet
facet normal 0 0 0
outer loop
vertex 15.858822 9.325420 8.499372
vertex 15.858822 9.325420 8.519372
vertex 15.858822 9.304667 8.519372
endloop
endfacet
facet normal 0 0 0
outer loop
vertex 15.715492 9.325420 8.519372
vertex 15.735968 9.346174 8.519372
vertex 15.735968 9.325420 8.499372
endloop
endfacet
facet normal 0 0 0
outer loop
vertex 15.735968 9.346174 8.519372
vertex 15.735968 9.346174 8.499372
vertex 15.735968 9.325420 8.499372
endloop
endfacet
facet normal 0 0 0
outer loop
vertex 15.858822 9.325420 8.499372
vertex 15.838346 9.346174 8.519372
vertex 15.858822 9.325420 8.519372
endloop
endfacet
facet normal 0 0 0
outer loop
vertex 15.838346 9.346174 8.499372
vertex 15.838346 9.346174 8.519372
vertex 15.858822 9.325420 8.499372
endloop
endfacet
facet normal 0 0 0
outer loop
vertex 15.735968 9.366927 8.519372
vertex 15.735968 9.346174 8.499372
vertex 15.735968 9.346174 8.519372
endloop
endfacet
facet normal 0 0 0
outer loop
vertex 15.735968 9.346174 8.499372
vertex 15.735968 9.366927 8.519372
vertex 15.756443 9.366927 8.499372
endloop
endfacet
facet normal 0 0 0
outer loop
vertex 15.838346 9.346174 8.499372
vertex 15.817871 9.366927 8.499372
vertex 15.838346 9.366927 8.519372
endloop
endfacet
facet normal 0 0 0
outer loop
vertex 15.838346 9.346174 8.499372
vertex 15.838346 9.366927 8.519372
vertex 15.838346 9.346174 8.519372
endloop
endfacet
facet normal 0 0 0
outer loop
vertex 15.756443 9.366927 8.499372
vertex 15.735968 9.366927 8.519372
vertex 15.756443 9.366927 8.519372
endloop
endfacet
facet normal 0 0 0
outer loop
vertex 15.776920 9.387680 8.519372
vertex 15.776920 9.366927 8.499372
vertex 15.756443 9.366927 8.519372
endloop
endfacet
facet normal 0 0 0
outer loop
vertex 15.776920 9.366927 8.499372
vertex 15.756443 9.366927 8.499372
vertex 15.756443 9.366927 8.519372
endloop
endfacet
facet normal 0 0 0
outer loop
vertex 15.776920 9.366927 8.499372
vertex 15.797396 9.387680 8.519372
vertex 15.797396 9.366927 8.499372
endloop
endfacet
facet normal 0 0 0
outer loop
vertex 15.776920 9.387680 8.519372
vertex 15.797396 9.387680 8.519372
vertex 15.776920 9.366927 8.499372
endloop
endfacet
facet normal 0 0 0
outer loop
vertex 15.797396 9.387680 8.519372
vertex 15.817871 9.366927 8.519372
vertex 15.797396 9.366927 8.499372
endloop
endfacet
facet normal 0 0 0
outer loop
vertex 15.817871 9.366927 8.519372
vertex 15.817871 9.366927 8.499372
vertex 15.797396 9.366927 8.499372
endloop
endfacet
facet normal 0 0 0
outer loop
vertex 15.838346 9.366927 8.519372
vertex 15.817871 9.366927 8.499372
vertex 15.817871 9.366927 8.519372
endloop
endfacet
facet normal 0 0 0
outer loop
vertex 15.756443 9.221654 8.519372
vertex 15.776920 9.221654 8.539371
vertex 15.756443 9.221654 8.539371
endloop
endfacet
facet normal 0 0 0
outer loop
vertex 15.756443 9.221654 8.539371
vertex 15.735968 9.242407 8.519372
vertex 15.756443 9.221654 8.519372
endloop
endfacet
facet normal 0 0 0
outer loop
vertex 15.735968 9.242407 8.539371
vertex 15.735968 9.242407 8.519372
vertex 15.756443 9.221654 8.539371
endloop
endfacet
facet normal 0 0 0
outer loop
vertex 15.756443 9.221654 8.519372
vertex 15.776920 9.242407 8.519372
vertex 15.776920 9.221654 8.539371
endloop
endfacet
facet normal 0 0 0
outer loop
vertex 15.797396 9.242407 8.519372
vertex 15.776920 9.221654 8.539371
vertex 15.776920 9.242407 8.519372
endloop
endfacet
facet normal 0 0 0
outer loop
vertex 15.797396 9.221654 8.539371
vertex 15.776920 9.221654 8.539371
vertex 15.797396 9.242407 8.519372
endloop
endfacet
facet normal 0 0 0
outer loop
vertex 15.817871 9.242407 8.519372
vertex 15.797396 9.221654 8.539371
vertex 15.797396 9.242407 8.519372
endloop
endfacet
facet normal 0 0 0
outer loop
vertex 15.817871 9.221654 8.539371
vertex 15.797396 9.221654 8.539371
vertex 15.817871 9.242407 8.519372
endloop
endfacet
facet normal 0 0 0
outer loop
vertex 15.817871 9.242407 8.519372
vertex 15.838346 9.242407 8.539371
vertex 15.817871 9.221654 8.539371
endloop
endfacet
facet normal 0 0 0
outer loop
vertex 15.735968 9.242407 8.519372
vertex 15.735968 9.242407 8.539371
vertex 15.735968 9.263161 8.519372
endloop
endfacet
facet normal 0 0 0
outer loop
vertex 15.735968 9.242407 8.539371
vertex 15.735968 9.263161 8.539371
vertex 15.735968 9.263161 8.519372
endloop
endfacet
facet normal 0 0 0
outer loop
vertex 15.817871 9.242407 8.519372
vertex 15.838346 9.263161 8.519372
vertex 15.838346 9.242407 8.539371
endloop
endfacet
facet normal 0 0 0
outer loop
vertex 15.838346 9.263161 8.519372
vertex 15.858822 9.263161 8.539371
vertex 15.838346 9.242407 8.539371
endloop
endfacet
facet normal 0 0 0
outer loop
vertex 15.735968 9.263161 8.519372
vertex 15.735968 9.263161 8.539371
vertex 15.735968 9.283914 8.519372
endloop
endfacet
facet normal 0 0 0
outer loop
vertex 15.735968 9.263161 8.539371
vertex 15.735968 9.283914 8.539371
vertex 15.735968 9.283914 8.519372
endloop
endfacet
facet normal 0 0 0
outer loop
vertex 15.838346 9.263161 8.519372
vertex 15.858822 9.283914 8.519372
vertex 15.858822 9.263161 8.539371
endloop
endfacet
facet normal 0 0 0
outer loop
vertex 15.858822 9.283914 8.519372
vertex 15.879299 9.283914 8.539371
vertex 15.858822 9.263161 8.539371
endloop
endfacet
facet normal 0 0 0
outer loop
vertex 15.715492 9.304667 8.539371
vertex 15.735968 9.304667 8.519372
vertex 15.735968 9.283914 8.539371
endloop
endfacet
facet normal 0 0 0
outer loop
vertex 15.735968 9.304667 8.519372
vertex 15.735968 9.283914 8.519372
vertex 15.735968 9.283914 8.539371
endloop
endfacet
facet normal 0 0 0
outer loop
vertex 15.879299 9.283914 8.539371
vertex 15.858822 9.304667 8.519372
vertex 15.879299 9.304667 8.539371
endloop
endfacet
facet normal 0 0 0
outer loop
vertex 15.858822 9.283914 8.519372
vertex 15.858822 9.304667 8.519372
vertex 15.879299 9.283914 8.539371
endloop
endfacet
facet normal 0 0 0
outer loop
vertex 15.715492 9.304667 8.539371
vertex 15.735968 9.325420 8.539371
vertex 15.735968 9.304667 8.519372
endloop
endfacet
facet normal 0 0 0
outer loop
vertex 15.715492 9.325420 8.519372
vertex 15.735968 9.304667 8.519372
vertex 15.735968 9.325420 8.539371
endloop
endfacet
facet normal 0 0 0
outer loop
vertex 15.879299 9.304667 8.539371
vertex 15.858822 9.325420 8.519372
vertex 15.879299 9.325420 8.539371
endloop
endfacet
facet normal 0 0 0
outer loop
vertex 15.858822 9.304667 8.519372
vertex 15.858822 9.325420 8.519372
vertex 15.879299 9.304667 8.539371
endloop
endfacet
facet normal 0 0 0
outer loop
vertex 15.715492 9.325420 8.519372
vertex 15.735968 9.325420 8.539371
vertex 15.735968 9.346174 8.519372
endloop
endfacet
facet normal 0 0 0
outer loop
vertex 15.735968 9.325420 8.539371
vertex 15.735968 9.346174 8.539371
vertex 15.735968 9.346174 8.519372
endloop
endfacet
facet normal 0 0 0
outer loop
vertex 15.858822 9.325420 8.519372
vertex 15.838346 9.346174 8.519372
vertex 15.858822 9.346174 8.539371
endloop
endfacet
facet normal 0 0 0
outer loop
vertex 15.858822 9.325420 8.519372
vertex 15.858822 9.346174 8.539371
vertex 15.879299 9.325420 8.539371
endloop
endfacet
facet normal 0 0 0
outer loop
vertex 15.735968 9.346174 8.539371
vertex 15.735968 9.366927 8.519372
vertex 15.735968 9.346174 8.519372
endloop
endfacet
facet normal 0 0 0
outer loop
vertex 15.735968 9.366927 8.519372
vertex 15.756443 9.346174 8.539371
vertex 15.756443 9.366927 8.519372
endloop
endfacet
facet normal 0 0 0
outer loop
vertex 15.735968 9.346174 8.539371
vertex 15.756443 9.346174 8.539371
vertex 15.735968 9.366927 8.519372
endloop
endfacet
facet normal 0 0 0
outer loop
vertex 15.756443 9.366927 8.519372
vertex 15.776920 9.346174 8.539371
vertex 15.776920 9.366927 8.519372
endloop
endfacet
facet normal 0 0 0
outer loop
vertex 15.756443 9.346174 8.539371
vertex 15.776920 9.346174 8.539371
vertex 15.756443 9.366927 8.519372
endloop
endfacet
facet normal 0 0 0
outer loop
vertex 15.776920 9.366927 8.519372
vertex 15.797396 9.346174 8.539371
vertex 15.797396 9.366927 8.519372
endloop
endfacet
facet normal 0 0 0
outer loop
vertex 15.776920 9.346174 8.539371
vertex 15.797396 9.346174 8.539371
vertex 15.776920 9.366927 8.519372
endloop
endfacet
facet normal 0 0 0
outer loop
vertex 15.797396 9.346174 8.539371
vertex 15.817871 9.366927 8.539371
vertex 15.797396 9.366927 8.519372
endloop
endfacet
facet normal 0 0 0
outer loop
vertex 15.838346 9.366927 8.519372
vertex 15.817871 9.366927 8.539371
vertex 15.838346 9.346174 8.539371
endloop
endfacet
facet normal 0 0 0
outer loop
vertex 15.858822 9.346174 8.539371
vertex 15.838346 9.366927 8.519372
vertex 15.838346 9.346174 8.539371
endloop
endfacet
facet normal 0 0 0
outer loop
vertex 15.858822 9.346174 8.539371
vertex 15.838346 9.346174 8.519372
vertex 15.838346 9.366927 8.519372
endloop
endfacet
facet normal 0 0 0
outer loop
vertex 15.776920 9.387680 8.519372
vertex 15.756443 9.366927 8.519372
vertex 15.776920 9.366927 8.519372
endloop
endfacet
facet normal 0 0 0
outer loop
vertex 15.797396 9.366927 8.519372
vertex 15.797396 9.387680 8.519372
vertex 15.776920 9.366927 8.519372
endloop
endfacet
facet normal 0 0 0
outer loop
vertex 15.797396 9.387680 8.519372
vertex 15.776920 9.387680 8.519372
vertex 15.776920 9.366927 8.519372
endloop
endfacet
facet normal 0 0 0
outer loop
vertex 15.797396 9.387680 8.519372
vertex 15.817871 9.366927 8.539371
vertex 15.817871 9.366927 8.519372
endloop
endfacet
facet normal 0 0 0
outer loop
vertex 15.797396 9.387680 8.519372
vertex 15.797396 9.366927 8.519372
vertex 15.817871 9.366927 8.539371
endloop
endfacet
facet normal 0 0 0
outer loop
vertex 15.817871 9.366927 8.539371
vertex 15.838346 9.366927 8.519372
vertex 15.817871 9.366927 8.519372
endloop
endfacet
facet normal 0 0 0
outer loop
vertex 15.735968 9.221654 8.559372
vertex 15.715492 9.242407 8.559372
vertex 15.735968 9.242407 8.539371
endloop
endfacet
facet normal 0 0 0
outer loop
vertex 15.735968 9.221654 8.559372
vertex 15.735968 9.242407 8.539371
vertex 15.756443 9.242407 8.559372
endloop
endfacet
facet normal 0 0 0
outer loop
vertex 15.756443 9.221654 8.539371
vertex 15.756443 9.242407 8.559372
vertex 15.735968 9.242407 8.539371
endloop
endfacet
facet normal 0 0 0
outer loop
vertex 15.776920 9.221654 8.539371
vertex 15.756443 9.242407 8.559372
vertex 15.756443 9.221654 8.539371
endloop
endfacet
facet normal 0 0 0
outer loop
vertex 15.776920 9.242407 8.559372
vertex 15.756443 9.242407 8.559372
vertex 15.776920 9.221654 8.539371
endloop
endfacet
facet normal 0 0 0
outer loop
vertex 15.797396 9.221654 8.539371
vertex 15.776920 9.242407 8.559372
vertex 15.776920 9.221654 8.539371
endloop
endfacet
facet normal 0 0 0
outer loop
vertex 15.797396 9.242407 8.559372
vertex 15.776920 9.242407 8.559372
vertex 15.797396 9.221654 8.539371
endloop
endfacet
facet normal 0 0 0
outer loop
vertex 15.817871 9.221654 8.539371
vertex 15.797396 9.242407 8.559372
vertex 15.797396 9.221654 8.539371
endloop
endfacet
facet normal 0 0 0
outer loop
vertex 15.817871 9.242407 8.559372
vertex 15.797396 9.242407 8.559372
vertex 15.817871 9.221654 8.539371
endloop
endfacet
facet normal 0 0 0
outer loop
vertex 15.817871 9.221654 8.539371
vertex 15.838346 9.242407 8.539371
vertex 15.817871 9.242407 8.559372
endloop
endfacet
facet normal 0 0 0
outer loop
vertex 15.838346 9.242407 8.539371
vertex 15.838346 9.242407 8.559372
vertex 15.817871 9.242407 8.559372
endloop
endfacet
facet normal 0 0 0
outer loop
vertex 15.838346 9.242407 8.539371
vertex 15.858822 9.242407 8.559372
vertex 15.838346 9.242407 8.559372
endloop
endfacet
facet normal 0 0 0
outer loop
vertex 15.695017 9.263161 8.559372
vertex 15.674540 9.242407 8.559372
vertex 15.674540 9.263161 8.559372
endloop
endfacet
facet normal 0 0 0
outer loop
vertex 15.715492 9.242407 8.559372
vertex 15.695017 9.263161 8.559372
vertex 15.715492 9.263161 8.559372
endloop
endfacet
facet normal 0 0 0
outer loop
vertex 15.735968 9.242407 8.539371
vertex 15.715492 9.263161 8.559372
vertex 15.735968 9.263161 8.539371
endloop
endfacet
facet normal 0 0 0
outer loop
vertex 15.715492 9.242407 8.559372
vertex 15.715492 9.263161 8.559372
vertex 15.735968 9.242407 8.539371
endloop
endfacet
facet normal 0 0 0
outer loop
vertex 15.838346 9.242407 8.539371
vertex 15.858822 9.263161 8.539371
vertex 15.858822 9.242407 8.559372
endloop
endfacet
facet normal 0 0 0
outer loop
vertex 15.858822 9.242407 8.559372
vertex 15.858822 9.263161 8.539371
vertex 15.858822 9.263161 8.559372
endloop
endfacet
facet normal 0 0 0
outer loop
vertex 15.674540 9.263161 8.559372
vertex 15.695017 9.283914 8.559372
vertex 15.695017 9.263161 8.559372
endloop
endfacet
facet normal 0 0 0
outer loop
vertex 15.715492 9.263161 8.559372
vertex 15.695017 9.263161 8.559372
vertex 15.715492 9.283914 8.559372
endloop
endfacet
facet normal 0 0 0
outer loop
vertex 15.715492 9.283914 8.559372
vertex 15.695017 9.263161 8.559372
vertex 15.695017 9.283914 8.559372
endloop
endfacet
facet normal 0 0 0
outer loop
vertex 15.735968 9.263161 8.539371
vertex 15.715492 9.283914 8.559372
vertex 15.735968 9.283914 8.539371
endloop
endfacet
facet normal 0 0 0
outer loop
vertex 15.715492 9.263161 8.559372
vertex 15.715492 9.283914 8.559372
vertex 15.735968 9.263161 8.539371
endloop
endfacet
facet normal 0 0 0
outer loop
vertex 15.858822 9.283914 8.539371
vertex 15.838346 9.283914 8.559372
vertex 15.858822 9.263161 8.559372
endloop
endfacet
facet normal 0 0 0
outer loop
vertex 15.879299 9.283914 8.539371
vertex 15.858822 9.283914 8.539371
vertex 15.858822 9.263161 8.559372
endloop
endfacet
facet normal 0 0 0
outer loop
vertex 15.879299 9.283914 8.539371
vertex 15.858822 9.263161 8.559372
vertex 15.858822 9.263161 8.539371
endloop
endfacet
facet normal 0 0 0
outer loop
vertex 15.715492 9.304667 8.539371
vertex 15.695017 9.283914 8.559372
vertex 15.715492 9.304667 8.559372
endloop
endfacet
facet normal 0 0 0
outer loop
vertex 15.715492 9.304667 8.539371
vertex 15.715492 9.283914 8.559372
vertex 15.695017 9.283914 8.559372
endloop
endfacet
facet normal 0 0 0
outer loop
vertex 15.735968 9.283914 8.539371
vertex 15.715492 9.283914 8.559372
vertex 15.715492 9.304667 8.539371
endloop
endfacet
facet normal 0 0 0
outer loop
vertex 15.858822 9.283914 8.539371
vertex 15.858822 9.304667 8.559372
vertex 15.838346 9.283914 8.559372
endloop
endfacet
facet normal 0 0 0
outer loop
vertex 15.858822 9.304667 8.559372
vertex 15.858822 9.283914 8.539371
vertex 15.879299 9.304667 8.539371
endloop
endfacet
facet normal 0 0 0
outer loop
vertex 15.858822 9.283914 8.539371
vertex 15.879299 9.283914 8.539371
vertex 15.879299 9.304667 8.539371
endloop
endfacet
facet normal 0 0 0
outer loop
vertex 15.715492 9.325420 8.559372
vertex 15.715492 9.304667 8.539371
vertex 15.715492 9.304667 8.559372
endloop
endfacet
facet normal 0 0 0
outer loop
vertex 15.715492 9.304667 8.539371
vertex 15.715492 9.325420 8.559372
vertex 15.735968 9.325420 8.539371
endloop
endfacet
facet normal 0 0 0
outer loop
vertex 15.858822 9.325420 8.539371
vertex 15.838346 9.325420 8.559372
vertex 15.858822 9.304667 8.559372
endloop
endfacet
facet normal 0 0 0
outer loop
vertex 15.858822 9.304667 8.559372
vertex 15.879299 9.304667 8.539371
vertex 15.858822 9.325420 8.539371
endloop
endfacet
facet normal 0 0 0
outer loop
vertex 15.879299 9.304667 8.539371
vertex 15.879299 9.325420 8.539371
vertex 15.858822 9.325420 8.539371
endloop
endfacet
facet normal 0 0 0
outer loop
vertex 15.715492 9.325420 8.559372
vertex 15.735968 9.346174 8.559372
vertex 15.735968 9.325420 8.539371
endloop
endfacet
facet normal 0 0 0
outer loop
vertex 15.735968 9.346174 8.559372
vertex 15.735968 9.346174 8.539371
vertex 15.735968 9.325420 8.539371
endloop
endfacet
facet normal 0 0 0
outer loop
vertex 15.858822 9.346174 8.539371
vertex 15.838346 9.325420 8.559372
vertex 15.858822 9.325420 8.539371
endloop
endfacet
facet normal 0 0 0
outer loop
vertex 15.838346 9.346174 8.559372
vertex 15.838346 9.325420 8.559372
vertex 15.858822 9.346174 8.539371
endloop
endfacet
facet normal 0 0 0
outer loop
vertex 15.879299 9.325420 8.539371
vertex 15.858822 9.346174 8.539371
vertex 15.858822 9.325420 8.539371
endloop
endfacet
facet normal 0 0 0
outer loop
vertex 15.756443 9.346174 8.539371
vertex 15.735968 9.346174 8.539371
vertex 15.756443 9.346174 8.559372
endloop
endfacet
facet normal 0 0 0
outer loop
vertex 15.735968 9.346174 8.539371
vertex 15.735968 9.346174 8.559372
vertex 15.756443 9.346174 8.559372
endloop
endfacet
facet normal 0 0 0
outer loop
vertex 15.776920 9.366927 8.559372
vertex 15.776920 9.346174 8.539371
vertex 15.756443 9.346174 8.559372
endloop
endfacet
facet normal 0 0 0
outer loop
vertex 15.776920 9.346174 8.539371
vertex 15.756443 9.346174 8.539371
vertex 15.756443 9.346174 8.559372
endloop
endfacet
facet normal 0 0 0
outer loop
vertex 15.776920 9.346174 8.539371
vertex 15.797396 9.366927 8.559372
vertex 15.797396 9.346174 8.539371
endloop
endfacet
facet normal 0 0 0
outer loop
vertex 15.776920 9.366927 8.559372
vertex 15.797396 9.366927 8.559372
vertex 15.776920 9.346174 8.539371
endloop
endfacet
facet normal 0 0 0
outer loop
vertex 15.797396 9.366927 8.559372
vertex 15.817871 9.346174 8.559372
vertex 15.797396 9.346174 8.539371
endloop
endfacet
facet normal 0 0 0
outer loop
vertex 15.817871 9.366927 8.539371
vertex 15.797396 9.346174 8.539371
vertex 15.817871 9.346174 8.559372
endloop
endfacet
facet normal 0 0 0
outer loop
vertex 15.817871 9.366927 8.539371
vertex 15.817871 9.346174 8.559372
vertex 15.838346 9.346174 8.539371
endloop
endfacet
facet normal 0 0 0
outer loop
vertex 15.817871 9.346174 8.559372
vertex 15.838346 9.346174 8.559372
vertex 15.838346 9.346174 8.539371
endloop
endfacet
facet normal 0 0 0
outer loop
vertex 15.838346 9.346174 8.559372
vertex 15.858822 9.346174 8.539371
vertex 15.838346 9.346174 8.539371
endloop
endfacet
facet normal 0 0 0
outer loop
vertex 15.735968 9.221654 8.559372
vertex 15.735968 9.242407 8.579372
vertex 15.715492 9.242407 8.559372
endloop
endfacet
facet normal 0 0 0
outer loop
vertex 15.735968 9.221654 8.559372
vertex 15.756443 9.242407 8.559372
vertex 15.735968 9.242407 8.579372
endloop
endfacet
facet normal 0 0 0
outer loop
vertex 15.756443 9.242407 8.559372
vertex 15.756443 9.242407 8.579372
vertex 15.735968 9.242407 8.579372
endloop
endfacet
facet normal 0 0 0
outer loop
vertex 15.776920 9.242407 8.559372
vertex 15.776920 9.242407 8.579372
vertex 15.756443 9.242407 8.559372
endloop
endfacet
facet normal 0 0 0
outer loop
vertex 15.756443 9.242407 8.559372
vertex 15.776920 9.242407 8.579372
vertex 15.756443 9.242407 8.579372
endloop
endfacet
facet normal 0 0 0
outer loop
vertex 15.797396 9.242407 8.559372
vertex 15.776920 9.242407 8.579372
vertex 15.776920 9.242407 8.559372
endloop
endfacet
facet normal 0 0 0
outer loop
vertex 15.674540 9.242407 8.559372
vertex 15.695017 9.263161 8.579372
vertex 15.674540 9.263161 8.559372
endloop
endfacet
facet normal 0 0 0
outer loop
vertex 15.674540 9.242407 8.559372
vertex 15.695017 9.263161 8.559372
vertex 15.695017 9.263161 8.579372
endloop
endfacet
facet normal 0 0 0
outer loop
vertex 15.715492 9.242407 8.559372
vertex 15.715492 9.263161 8.579372
vertex 15.695017 9.263161 8.559372
endloop
endfacet
facet normal 0 0 0
outer loop
vertex 15.715492 9.263161 8.579372
vertex 15.695017 9.263161 8.579372
vertex 15.695017 9.263161 8.559372
endloop
endfacet
facet normal 0 0 0
outer loop
vertex 15.735968 9.242407 8.579372
vertex 15.715492 9.263161 8.579372
vertex 15.715492 9.242407 8.559372
endloop
endfacet
facet normal 0 0 0
outer loop
vertex 15.797396 9.242407 8.559372
vertex 15.797396 9.263161 8.579372
vertex 15.776920 9.242407 8.579372
endloop
endfacet
facet normal 0 0 0
outer loop
vertex 15.797396 9.263161 8.579372
vertex 15.797396 9.242407 8.559372
vertex 15.817871 9.263161 8.559372
endloop
endfacet
facet normal 0 0 0
outer loop
vertex 15.797396 9.242407 8.559372
vertex 15.817871 9.242407 8.559372
vertex 15.817871 9.263161 8.559372
endloop
endfacet
facet normal 0 0 0
outer loop
vertex 15.838346 9.242407 8.559372
vertex 15.838346 9.263161 8.559372
vertex 15.817871 9.242407 8.559372
endloop
endfacet
facet normal 0 0 0
outer loop
vertex 15.838346 9.263161 8.559372
vertex 15.817871 9.263161 8.559372
vertex 15.817871 9.242407 8.559372
endloop
endfacet
facet normal 0 0 0
outer loop
vertex 15.858822 9.242407 8.559372
vertex 15.858822 9.263161 8.559372
vertex 15.838346 9.242407 8.559372
endloop
endfacet
facet normal 0 0 0
outer loop
vertex 15.858822 9.263161 8.559372
vertex 15.838346 9.263161 8.559372
vertex 15.838346 9.242407 8.559372
endloop
endfacet
facet normal 0 0 0
outer loop
vertex 15.674540 9.263161 8.559372
vertex 15.695017 9.263161 8.579372
vertex 15.695017 9.283914 8.559372
endloop
endfacet
facet normal 0 0 0
outer loop
vertex 15.695017 9.263161 8.579372
vertex 15.695017 9.283914 8.579372
vertex 15.695017 9.283914 8.559372
endloop
endfacet
facet normal 0 0 0
outer loop
vertex 15.817871 9.263161 8.559372
vertex 15.817871 9.283914 8.579372
vertex 15.797396 9.263161 8.579372
endloop
endfacet
facet normal 0 0 0
outer loop
vertex 15.817871 9.283914 8.579372
vertex 15.817871 9.263161 8.559372
vertex 15.838346 9.283914 8.559372
endloop
endfacet
facet normal 0 0 0
outer loop
vertex 15.817871 9.263161 8.559372
vertex 15.838346 9.263161 8.559372
vertex 15.838346 9.283914 8.559372
endloop
endfacet
facet normal 0 0 0
outer loop
vertex 15.858822 9.263161 8.559372
vertex 15.838346 9.283914 8.559372
vertex 15.838346 9.263161 8.559372
endloop
endfacet
facet normal 0 0 0
outer loop
vertex 15.695017 9.283914 8.579372
vertex 15.715492 9.304667 8.559372
vertex 15.695017 9.283914 8.559372
endloop
endfacet
facet normal 0 0 0
outer loop
vertex 15.715492 9.304667 8.579372
vertex 15.715492 9.304667 8.559372
vertex 15.695017 9.283914 8.579372
endloop
endfacet
facet normal 0 0 0
outer loop
vertex 15.838346 9.283914 8.559372
vertex 15.838346 9.304667 8.579372
vertex 15.817871 9.283914 8.579372
endloop
endfacet
facet normal 0 0 0
outer loop
vertex 15.858822 9.304667 8.559372
vertex 15.838346 9.304667 8.579372
vertex 15.838346 9.283914 8.559372
endloop
endfacet
facet normal 0 0 0
outer loop
vertex 15.715492 9.304667 8.579372
vertex 15.715492 9.325420 8.559372
vertex 15.715492 9.304667 8.559372
endloop
endfacet
facet normal 0 0 0
outer loop
vertex 15.715492 9.304667 8.579372
vertex 15.735968 9.325420 8.579372
vertex 15.715492 9.325420 8.559372
endloop
endfacet
facet normal 0 0 0
outer loop
vertex 15.838346 9.325420 8.559372
vertex 15.817871 9.325420 8.579372
vertex 15.838346 9.304667 8.579372
endloop
endfacet
facet normal 0 0 0
outer loop
vertex 15.858822 9.304667 8.559372
vertex 15.838346 9.325420 8.559372
vertex 15.838346 9.304667 8.579372
endloop
endfacet
facet normal 0 0 0
outer loop
vertex 15.715492 9.325420 8.559372
vertex 15.735968 9.325420 8.579372
vertex 15.735968 9.346174 8.559372
endloop
endfacet
facet normal 0 0 0
outer loop
vertex 15.735968 9.346174 8.559372
vertex 15.756443 9.325420 8.579372
vertex 15.756443 9.346174 8.559372
endloop
endfacet
facet normal 0 0 0
outer loop
vertex 15.735968 9.325420 8.579372
vertex 15.756443 9.325420 8.579372
vertex 15.735968 9.346174 8.559372
endloop
endfacet
facet normal 0 0 0
outer loop
vertex 15.756443 9.346174 8.559372
vertex 15.776920 9.325420 8.579372
vertex 15.776920 9.346174 8.559372
endloop
endfacet
facet normal 0 0 0
outer loop
vertex 15.756443 9.325420 8.579372
vertex 15.776920 9.325420 8.579372
vertex 15.756443 9.346174 8.559372
endloop
endfacet
facet normal 0 0 0
outer loop
vertex 15.776920 9.346174 8.559372
vertex 15.797396 9.325420 8.579372
vertex 15.797396 9.346174 8.559372
endloop
endfacet
facet normal 0 0 0
outer loop
vertex 15.776920 9.325420 8.579372
vertex 15.797396 9.325420 8.579372
vertex 15.776920 9.346174 8.559372
endloop
endfacet
facet normal 0 0 0
outer loop
vertex 15.797396 9.346174 8.559372
vertex 15.817871 9.325420 8.579372
vertex 15.817871 9.346174 8.559372
endloop
endfacet
facet normal 0 0 0
outer loop
vertex 15.797396 9.325420 8.579372
vertex 15.817871 9.325420 8.579372
vertex 15.797396 9.346174 8.559372
endloop
endfacet
facet normal 0 0 0
outer loop
vertex 15.817871 9.325420 8.579372
vertex 15.838346 9.325420 8.559372
vertex 15.817871 9.346174 8.559372
endloop
endfacet
facet normal 0 0 0
outer loop
vertex 15.838346 9.325420 8.559372
vertex 15.838346 9.346174 8.559372
vertex 15.817871 9.346174 8.559372
endloop
endfacet
facet normal 0 0 0
outer loop
vertex 15.776920 9.366927 8.559372
vertex 15.756443 9.346174 8.559372
vertex 15.776920 9.346174 8.559372
endloop
endfacet
facet normal 0 0 0
outer loop
vertex 15.797396 9.346174 8.559372
vertex 15.797396 9.366927 8.559372
vertex 15.776920 9.346174 8.559372
endloop
endfacet
facet normal 0 0 0
outer loop
vertex 15.797396 9.366927 8.559372
vertex 15.776920 9.366927 8.559372
vertex 15.776920 9.346174 8.559372
endloop
endfacet
facet normal 0 0 0
outer loop
vertex 15.817871 9.346174 8.559372
vertex 15.797396 9.366927 8.559372
vertex 15.797396 9.346174 8.559372
endloop
endfacet
facet normal 0 0 0
outer loop
vertex 15.715492 9.263161 8.579372
vertex 15.735968 9.242407 8.579372
vertex 15.735968 9.263161 8.579372
endloop
endfacet
facet normal 0 0 0
outer loop
vertex 15.756443 9.242407 8.579372
vertex 15.756443 9.263161 8.579372
vertex 15.735968 9.242407 8.579372
endloop
endfacet
facet normal 0 0 0
outer loop
vertex 15.756443 9.263161 8.579372
vertex 15.735968 9.263161 8.579372
vertex 15.735968 9.242407 8.579372
endloop
endfacet
facet normal 0 0 0
outer loop
vertex 15.776920 9.242407 8.579372
vertex 15.776920 9.263161 8.579372
vertex 15.756443 9.242407 8.579372
endloop
endfacet
facet normal 0 0 0
outer loop
vertex 15.776920 9.263161 8.579372
vertex 15.756443 9.263161 8.579372
vertex 15.756443 9.242407 8.579372
endloop
endfacet
facet normal 0 0 0
outer loop
vertex 15.776920 9.242407 8.579372
vertex 15.797396 9.263161 8.579372
vertex 15.776920 9.263161 8.579372
endloop
endfacet
facet normal 0 0 0
outer loop
vertex 15.715492 9.263161 8.579372
vertex 15.715492 9.283914 8.579372
vertex 15.695017 9.263161 8.579372
endloop
endfacet
facet normal 0 0 0
outer loop
vertex 15.715492 9.283914 8.579372
vertex 15.695017 9.283914 8.579372
vertex 15.695017 9.263161 8.579372
endloop
endfacet
facet normal 0 0 0
outer loop
vertex 15.735968 9.263161 8.579372
vertex 15.735968 9.283914 8.579372
vertex 15.715492 9.263161 8.579372
endloop
endfacet
facet normal 0 0 0
outer loop
vertex 15.735968 9.283914 8.579372
vertex 15.715492 9.283914 8.579372
vertex 15.715492 9.263161 8.579372
endloop
endfacet
facet normal 0 0 0
outer loop
vertex 15.756443 9.263161 8.579372
vertex 15.756443 9.283914 8.579372
vertex 15.735968 9.263161 8.579372
endloop
endfacet
facet normal 0 0 0
outer loop
vertex 15.756443 9.283914 8.579372
vertex 15.735968 9.283914 8.579372
vertex 15.735968 9.263161 8.579372
endloop
endfacet
facet normal 0 0 0
outer loop
vertex 15.776920 9.263161 8.579372
vertex 15.776920 9.283914 8.579372
vertex 15.756443 9.263161 8.579372
endloop
endfacet
facet normal 0 0 0
outer loop
vertex 15.776920 9.283914 8.579372
vertex 15.756443 9.283914 8.579372
vertex 15.756443 9.263161 8.579372
endloop
endfacet
facet normal 0 0 0
outer loop
vertex 15.797396 9.263161 8.579372
vertex 15.797396 9.283914 8.579372
vertex 15.776920 9.263161 8.579372
endloop
endfacet
facet normal 0 0 0
outer loop
vertex 15.797396 9.283914 8.579372
vertex 15.776920 9.283914 8.579372
vertex 15.776920 9.263161 8.579372
endloop
endfacet
facet normal 0 0 0
outer loop
vertex 15.797396 9.263161 8.579372
vertex 15.817871 9.283914 8.579372
vertex 15.797396 9.283914 8.579372
endloop
endfacet
facet normal 0 0 0
outer loop
vertex 15.715492 9.304667 8.579372
vertex 15.695017 9.283914 8.579372
vertex 15.715492 9.283914 8.579372
endloop
endfacet
facet normal 0 0 0
outer loop
vertex 15.735968 9.283914 8.579372
vertex 15.735968 9.304667 8.579372
vertex 15.715492 9.283914 8.579372
endloop
endfacet
facet normal 0 0 0
outer loop
vertex 15.735968 9.304667 8.579372
vertex 15.715492 9.304667 8.579372
vertex 15.715492 9.283914 8.579372
endloop
endfacet
facet normal 0 0 0
outer loop
vertex 15.756443 9.283914 8.579372
vertex 15.756443 9.304667 8.579372
vertex 15.735968 9.283914 8.579372
endloop
endfacet
facet normal 0 0 0
outer loop
vertex 15.756443 9.304667 8.579372
vertex 15.735968 9.304667 8.579372
vertex 15.735968 9.283914 8.579372
endloop
endfacet
facet normal 0 0 0
outer loop
vertex 15.776920 9.283914 8.579372
vertex 15.776920 9.304667 8.579372
vertex 15.756443 9.283914 8.579372
endloop
endfacet
facet normal 0 0 0
outer loop
vertex 15.776920 9.304667 8.579372
vertex 15.756443 9.304667 8.579372
vertex 15.756443 9.283914 8.579372
endloop
endfacet
facet normal 0 0 0
outer loop
vertex 15.797396 9.283914 8.579372
vertex 15.797396 9.304667 8.579372
vertex 15.776920 9.283914 8.579372
endloop
endfacet
facet normal 0 0 0
outer loop
vertex 15.797396 9.304667 8.579372
vertex 15.776920 9.304667 8.579372
vertex 15.776920 9.283914 8.579372
endloop
endfacet
facet normal 0 0 0
outer loop
vertex 15.817871 9.283914 8.579372
vertex 15.817871 9.304667 8.579372
vertex 15.797396 9.283914 8.579372
endloop
endfacet
facet normal 0 0 0
outer loop
vertex 15.817871 9.304667 8.579372
vertex 15.797396 9.304667 8.579372
vertex 15.797396 9.283914 8.579372
endloop
endfacet
facet normal 0 0 0
outer loop
vertex 15.817871 9.283914 8.579372
vertex 15.838346 9.304667 8.579372
vertex 15.817871 9.304667 8.579372
endloop
endfacet
facet normal 0 0 0
outer loop
vertex 15.735968 9.325420 8.579372
vertex 15.715492 9.304667 8.579372
vertex 15.735968 9.304667 8.579372
endloop
endfacet
facet normal 0 0 0
outer loop
vertex 15.756443 9.304667 8.579372
vertex 15.756443 9.325420 8.579372
vertex 15.735968 9.304667 8.579372
endloop
endfacet
facet normal 0 0 0
outer loop
vertex 15.756443 9.325420 8.579372
vertex 15.735968 9.325420 8.579372
vertex 15.735968 9.304667 8.579372
endloop
endfacet
facet normal 0 0 0
outer loop
vertex 15.776920 9.304667 8.579372
vertex 15.776920 9.325420 8.579372
vertex 15.756443 9.304667 8.579372
endloop
endfacet
facet normal 0 0 0
outer loop
vertex 15.776920 9.325420 8.579372
vertex 15.756443 9.325420 8.579372
vertex 15.756443 9.304667 8.579372
endloop
endfacet
facet normal 0 0 0
outer loop
vertex 15.797396 9.304667 8.579372
vertex 15.797396 9.325420 8.579372
vertex 15.776920 9.304667 8.579372
endloop
endfacet
facet normal 0 0 0
outer loop
vertex 15.797396 9.325420 8.579372
vertex 15.776920 9.325420 8.579372
vertex 15.776920 9.304667 8.579372
endloop
endfacet
facet normal 0 0 0
outer loop
vertex 15.817871 9.304667 8.579372
vertex 15.817871 9.325420 8.579372
vertex 15.797396 9.304667 8.579372
endloop
endfacet
facet normal 0 0 0
outer loop
vertex 15.817871 9.325420 8.579372
vertex 15.797396 9.325420 8.579372
vertex 15.797396 9.304667 8.579372
endloop
endfacet
facet normal 0 0 0
outer loop
vertex 15.838346 9.304667 8.579372
vertex 15.817871 9.325420 8.579372
vertex 15.817871 9.304667 8.579372
endloop
endfacet
endsolid B-16-Plag.171
