solid B-16-Plag.157
facet normal 0 0 0
outer loop
vertex 14.097904 13.849645 8.019372
vertex 14.077429 13.870398 8.019372
vertex 14.097904 13.870398 8.019372
endloop
endfacet
facet normal 0 0 0
outer loop
vertex 14.056952 13.870398 8.019372
vertex 14.036476 13.891151 8.019372
vertex 14.056952 13.891151 8.019372
endloop
endfacet
facet normal 0 0 0
outer loop
vertex 14.077429 13.870398 8.019372
vertex 14.056952 13.870398 8.019372
vertex 14.077429 13.891151 8.019372
endloop
endfacet
facet normal 0 0 0
outer loop
vertex 14.077429 13.891151 8.019372
vertex 14.056952 13.870398 8.019372
vertex 14.056952 13.891151 8.019372
endloop
endfacet
facet normal 0 0 0
outer loop
vertex 14.097904 13.870398 8.019372
vertex 14.077429 13.870398 8.019372
vertex 14.097904 13.891151 8.019372
endloop
endfacet
facet normal 0 0 0
outer loop
vertex 14.097904 13.891151 8.019372
vertex 14.077429 13.870398 8.019372
vertex 14.077429 13.891151 8.019372
endloop
endfacet
facet normal 0 0 0
outer loop
vertex 14.118380 13.891151 8.019372
vertex 14.097904 13.870398 8.019372
vertex 14.097904 13.891151 8.019372
endloop
endfacet
facet normal 0 0 0
outer loop
vertex 14.056952 13.891151 8.019372
vertex 14.036476 13.891151 8.019372
vertex 14.056952 13.911904 8.019372
endloop
endfacet
facet normal 0 0 0
outer loop
vertex 14.056952 13.911904 8.019372
vertex 14.036476 13.891151 8.019372
vertex 14.036476 13.911904 8.019372
endloop
endfacet
facet normal 0 0 0
outer loop
vertex 14.077429 13.891151 8.019372
vertex 14.056952 13.891151 8.019372
vertex 14.077429 13.911904 8.019372
endloop
endfacet
facet normal 0 0 0
outer loop
vertex 14.077429 13.911904 8.019372
vertex 14.056952 13.891151 8.019372
vertex 14.056952 13.911904 8.019372
endloop
endfacet
facet normal 0 0 0
outer loop
vertex 14.097904 13.891151 8.019372
vertex 14.077429 13.891151 8.019372
vertex 14.097904 13.911904 8.019372
endloop
endfacet
facet normal 0 0 0
outer loop
vertex 14.097904 13.911904 8.019372
vertex 14.077429 13.891151 8.019372
vertex 14.077429 13.911904 8.019372
endloop
endfacet
facet normal 0 0 0
outer loop
vertex 14.118380 13.891151 8.019372
vertex 14.097904 13.891151 8.019372
vertex 14.118380 13.911904 8.019372
endloop
endfacet
facet normal 0 0 0
outer loop
vertex 14.118380 13.911904 8.019372
vertex 14.097904 13.891151 8.019372
vertex 14.097904 13.911904 8.019372
endloop
endfacet
facet normal 0 0 0
outer loop
vertex 14.036476 13.911904 8.019372
vertex 14.056952 13.932658 8.019372
vertex 14.056952 13.911904 8.019372
endloop
endfacet
facet normal 0 0 0
outer loop
vertex 14.077429 13.911904 8.019372
vertex 14.056952 13.911904 8.019372
vertex 14.077429 13.932658 8.019372
endloop
endfacet
facet normal 0 0 0
outer loop
vertex 14.077429 13.932658 8.019372
vertex 14.056952 13.911904 8.019372
vertex 14.056952 13.932658 8.019372
endloop
endfacet
facet normal 0 0 0
outer loop
vertex 14.097904 13.911904 8.019372
vertex 14.077429 13.911904 8.019372
vertex 14.097904 13.932658 8.019372
endloop
endfacet
facet normal 0 0 0
outer loop
vertex 14.097904 13.932658 8.019372
vertex 14.077429 13.911904 8.019372
vertex 14.077429 13.932658 8.019372
endloop
endfacet
facet normal 0 0 0
outer loop
vertex 14.118380 13.911904 8.019372
vertex 14.097904 13.911904 8.019372
vertex 14.118380 13.932658 8.019372
endloop
endfacet
facet normal 0 0 0
outer loop
vertex 14.118380 13.932658 8.019372
vertex 14.097904 13.911904 8.019372
vertex 14.097904 13.932658 8.019372
endloop
endfacet
facet normal 0 0 0
outer loop
vertex 14.056952 13.953411 8.019372
vertex 14.077429 13.932658 8.019372
vertex 14.056952 13.932658 8.019372
endloop
endfacet
facet normal 0 0 0
outer loop
vertex 14.097904 13.953411 8.019372
vertex 14.118380 13.932658 8.019372
vertex 14.097904 13.932658 8.019372
endloop
endfacet
facet normal 0 0 0
outer loop
vertex 14.036476 13.870398 8.039371
vertex 14.056952 13.870398 8.019372
vertex 14.056952 13.870398 8.039371
endloop
endfacet
facet normal 0 0 0
outer loop
vertex 14.077429 13.870398 8.019372
vertex 14.077429 13.870398 8.039371
vertex 14.056952 13.870398 8.019372
endloop
endfacet
facet normal 0 0 0
outer loop
vertex 14.056952 13.870398 8.019372
vertex 14.077429 13.870398 8.039371
vertex 14.056952 13.870398 8.039371
endloop
endfacet
facet normal 0 0 0
outer loop
vertex 14.097904 13.849645 8.019372
vertex 14.097904 13.870398 8.039371
vertex 14.077429 13.870398 8.019372
endloop
endfacet
facet normal 0 0 0
outer loop
vertex 14.097904 13.870398 8.039371
vertex 14.077429 13.870398 8.039371
vertex 14.077429 13.870398 8.019372
endloop
endfacet
facet normal 0 0 0
outer loop
vertex 14.097904 13.870398 8.039371
vertex 14.097904 13.849645 8.019372
vertex 14.097904 13.870398 8.019372
endloop
endfacet
facet normal 0 0 0
outer loop
vertex 14.036476 13.891151 8.019372
vertex 14.036476 13.870398 8.039371
vertex 14.036476 13.891151 8.039371
endloop
endfacet
facet normal 0 0 0
outer loop
vertex 14.056952 13.870398 8.019372
vertex 14.036476 13.870398 8.039371
vertex 14.036476 13.891151 8.019372
endloop
endfacet
facet normal 0 0 0
outer loop
vertex 14.118380 13.891151 8.019372
vertex 14.097904 13.891151 8.039371
vertex 14.097904 13.870398 8.019372
endloop
endfacet
facet normal 0 0 0
outer loop
vertex 14.097904 13.891151 8.039371
vertex 14.097904 13.870398 8.039371
vertex 14.097904 13.870398 8.019372
endloop
endfacet
facet normal 0 0 0
outer loop
vertex 14.016001 13.911904 8.039371
vertex 14.036476 13.911904 8.019372
vertex 14.036476 13.891151 8.039371
endloop
endfacet
facet normal 0 0 0
outer loop
vertex 14.036476 13.911904 8.019372
vertex 14.036476 13.891151 8.019372
vertex 14.036476 13.891151 8.039371
endloop
endfacet
facet normal 0 0 0
outer loop
vertex 14.118380 13.911904 8.019372
vertex 14.097904 13.891151 8.039371
vertex 14.118380 13.891151 8.019372
endloop
endfacet
facet normal 0 0 0
outer loop
vertex 14.097904 13.911904 8.039371
vertex 14.097904 13.891151 8.039371
vertex 14.118380 13.911904 8.019372
endloop
endfacet
facet normal 0 0 0
outer loop
vertex 14.036476 13.911904 8.019372
vertex 14.016001 13.911904 8.039371
vertex 14.036476 13.932658 8.039371
endloop
endfacet
facet normal 0 0 0
outer loop
vertex 14.036476 13.911904 8.019372
vertex 14.036476 13.932658 8.039371
vertex 14.056952 13.932658 8.019372
endloop
endfacet
facet normal 0 0 0
outer loop
vertex 14.097904 13.932658 8.019372
vertex 14.077429 13.932658 8.039371
vertex 14.097904 13.911904 8.039371
endloop
endfacet
facet normal 0 0 0
outer loop
vertex 14.097904 13.911904 8.039371
vertex 14.118380 13.911904 8.019372
vertex 14.097904 13.932658 8.019372
endloop
endfacet
facet normal 0 0 0
outer loop
vertex 14.118380 13.911904 8.019372
vertex 14.118380 13.932658 8.019372
vertex 14.097904 13.932658 8.019372
endloop
endfacet
facet normal 0 0 0
outer loop
vertex 14.036476 13.932658 8.039371
vertex 14.056952 13.953411 8.019372
vertex 14.056952 13.932658 8.019372
endloop
endfacet
facet normal 0 0 0
outer loop
vertex 14.036476 13.932658 8.039371
vertex 14.056952 13.932658 8.039371
vertex 14.056952 13.953411 8.019372
endloop
endfacet
facet normal 0 0 0
outer loop
vertex 14.056952 13.953411 8.019372
vertex 14.056952 13.932658 8.039371
vertex 14.077429 13.932658 8.019372
endloop
endfacet
facet normal 0 0 0
outer loop
vertex 14.077429 13.953411 8.039371
vertex 14.077429 13.932658 8.019372
vertex 14.056952 13.932658 8.039371
endloop
endfacet
facet normal 0 0 0
outer loop
vertex 14.097904 13.953411 8.019372
vertex 14.077429 13.932658 8.019372
vertex 14.097904 13.932658 8.019372
endloop
endfacet
facet normal 0 0 0
outer loop
vertex 14.097904 13.932658 8.019372
vertex 14.077429 13.932658 8.019372
vertex 14.077429 13.932658 8.039371
endloop
endfacet
facet normal 0 0 0
outer loop
vertex 14.077429 13.932658 8.039371
vertex 14.077429 13.932658 8.019372
vertex 14.077429 13.953411 8.039371
endloop
endfacet
facet normal 0 0 0
outer loop
vertex 14.056952 13.870398 8.039371
vertex 14.056952 13.891151 8.039371
vertex 14.036476 13.870398 8.039371
endloop
endfacet
facet normal 0 0 0
outer loop
vertex 14.056952 13.891151 8.039371
vertex 14.036476 13.891151 8.039371
vertex 14.036476 13.870398 8.039371
endloop
endfacet
facet normal 0 0 0
outer loop
vertex 14.077429 13.870398 8.039371
vertex 14.077429 13.891151 8.039371
vertex 14.056952 13.870398 8.039371
endloop
endfacet
facet normal 0 0 0
outer loop
vertex 14.077429 13.891151 8.039371
vertex 14.056952 13.891151 8.039371
vertex 14.056952 13.870398 8.039371
endloop
endfacet
facet normal 0 0 0
outer loop
vertex 14.097904 13.870398 8.039371
vertex 14.097904 13.891151 8.039371
vertex 14.077429 13.870398 8.039371
endloop
endfacet
facet normal 0 0 0
outer loop
vertex 14.097904 13.891151 8.039371
vertex 14.077429 13.891151 8.039371
vertex 14.077429 13.870398 8.039371
endloop
endfacet
facet normal 0 0 0
outer loop
vertex 14.016001 13.911904 8.039371
vertex 14.036476 13.891151 8.039371
vertex 14.036476 13.911904 8.039371
endloop
endfacet
facet normal 0 0 0
outer loop
vertex 14.056952 13.891151 8.039371
vertex 14.056952 13.911904 8.039371
vertex 14.036476 13.891151 8.039371
endloop
endfacet
facet normal 0 0 0
outer loop
vertex 14.056952 13.911904 8.039371
vertex 14.036476 13.911904 8.039371
vertex 14.036476 13.891151 8.039371
endloop
endfacet
facet normal 0 0 0
outer loop
vertex 14.077429 13.891151 8.039371
vertex 14.077429 13.911904 8.039371
vertex 14.056952 13.891151 8.039371
endloop
endfacet
facet normal 0 0 0
outer loop
vertex 14.077429 13.911904 8.039371
vertex 14.056952 13.911904 8.039371
vertex 14.056952 13.891151 8.039371
endloop
endfacet
facet normal 0 0 0
outer loop
vertex 14.097904 13.891151 8.039371
vertex 14.097904 13.911904 8.039371
vertex 14.077429 13.891151 8.039371
endloop
endfacet
facet normal 0 0 0
outer loop
vertex 14.097904 13.911904 8.039371
vertex 14.077429 13.911904 8.039371
vertex 14.077429 13.891151 8.039371
endloop
endfacet
facet normal 0 0 0
outer loop
vertex 14.036476 13.932658 8.039371
vertex 14.016001 13.911904 8.039371
vertex 14.036476 13.911904 8.039371
endloop
endfacet
facet normal 0 0 0
outer loop
vertex 14.056952 13.911904 8.039371
vertex 14.056952 13.932658 8.039371
vertex 14.036476 13.911904 8.039371
endloop
endfacet
facet normal 0 0 0
outer loop
vertex 14.056952 13.932658 8.039371
vertex 14.036476 13.932658 8.039371
vertex 14.036476 13.911904 8.039371
endloop
endfacet
facet normal 0 0 0
outer loop
vertex 14.077429 13.911904 8.039371
vertex 14.077429 13.932658 8.039371
vertex 14.056952 13.911904 8.039371
endloop
endfacet
facet normal 0 0 0
outer loop
vertex 14.077429 13.932658 8.039371
vertex 14.056952 13.932658 8.039371
vertex 14.056952 13.911904 8.039371
endloop
endfacet
facet normal 0 0 0
outer loop
vertex 14.097904 13.911904 8.039371
vertex 14.077429 13.932658 8.039371
vertex 14.077429 13.911904 8.039371
endloop
endfacet
facet normal 0 0 0
outer loop
vertex 14.077429 13.953411 8.039371
vertex 14.056952 13.932658 8.039371
vertex 14.077429 13.932658 8.039371
endloop
endfacet
endsolid B-16-Plag.157
