solid B-16-Plag.104
facet normal 0 0 0
outer loop
vertex 10.289406 13.704371 6.239372
vertex 10.268930 13.704371 6.239372
vertex 10.289406 13.725124 6.239372
endloop
endfacet
facet normal 0 0 0
outer loop
vertex 10.289406 13.725124 6.239372
vertex 10.268930 13.704371 6.239372
vertex 10.268930 13.725124 6.239372
endloop
endfacet
facet normal 0 0 0
outer loop
vertex 10.309881 13.725124 6.239372
vertex 10.289406 13.704371 6.239372
vertex 10.289406 13.725124 6.239372
endloop
endfacet
facet normal 0 0 0
outer loop
vertex 10.289406 13.725124 6.239372
vertex 10.268930 13.725124 6.239372
vertex 10.289406 13.745878 6.239372
endloop
endfacet
facet normal 0 0 0
outer loop
vertex 10.289406 13.745878 6.239372
vertex 10.268930 13.725124 6.239372
vertex 10.268930 13.745878 6.239372
endloop
endfacet
facet normal 0 0 0
outer loop
vertex 10.309881 13.725124 6.239372
vertex 10.289406 13.725124 6.239372
vertex 10.309881 13.745878 6.239372
endloop
endfacet
facet normal 0 0 0
outer loop
vertex 10.309881 13.745878 6.239372
vertex 10.289406 13.725124 6.239372
vertex 10.289406 13.745878 6.239372
endloop
endfacet
facet normal 0 0 0
outer loop
vertex 10.289406 13.745878 6.239372
vertex 10.268930 13.745878 6.239372
vertex 10.289406 13.766631 6.239372
endloop
endfacet
facet normal 0 0 0
outer loop
vertex 10.289406 13.766631 6.239372
vertex 10.268930 13.745878 6.239372
vertex 10.268930 13.766631 6.239372
endloop
endfacet
facet normal 0 0 0
outer loop
vertex 10.289406 13.766631 6.239372
vertex 10.309881 13.745878 6.239372
vertex 10.289406 13.745878 6.239372
endloop
endfacet
facet normal 0 0 0
outer loop
vertex 10.289406 13.766631 6.239372
vertex 10.268930 13.766631 6.239372
vertex 10.289406 13.787385 6.239372
endloop
endfacet
facet normal 0 0 0
outer loop
vertex 10.289406 13.787385 6.239372
vertex 10.268930 13.766631 6.239372
vertex 10.268930 13.787385 6.239372
endloop
endfacet
facet normal 0 0 0
outer loop
vertex 10.248453 13.704371 6.259372
vertex 10.268930 13.704371 6.239372
vertex 10.268930 13.704371 6.259372
endloop
endfacet
facet normal 0 0 0
outer loop
vertex 10.289406 13.704371 6.239372
vertex 10.268930 13.704371 6.259372
vertex 10.268930 13.704371 6.239372
endloop
endfacet
facet normal 0 0 0
outer loop
vertex 10.248453 13.704371 6.259372
vertex 10.268930 13.725124 6.259372
vertex 10.268930 13.704371 6.239372
endloop
endfacet
facet normal 0 0 0
outer loop
vertex 10.268930 13.725124 6.259372
vertex 10.268930 13.725124 6.239372
vertex 10.268930 13.704371 6.239372
endloop
endfacet
facet normal 0 0 0
outer loop
vertex 10.289406 13.704371 6.239372
vertex 10.289406 13.725124 6.259372
vertex 10.268930 13.704371 6.259372
endloop
endfacet
facet normal 0 0 0
outer loop
vertex 10.309881 13.704371 6.259372
vertex 10.289406 13.725124 6.259372
vertex 10.309881 13.725124 6.239372
endloop
endfacet
facet normal 0 0 0
outer loop
vertex 10.289406 13.704371 6.239372
vertex 10.309881 13.725124 6.239372
vertex 10.289406 13.725124 6.259372
endloop
endfacet
facet normal 0 0 0
outer loop
vertex 10.330357 13.704371 6.259372
vertex 10.309881 13.704371 6.259372
vertex 10.309881 13.725124 6.239372
endloop
endfacet
facet normal 0 0 0
outer loop
vertex 10.330357 13.704371 6.259372
vertex 10.309881 13.725124 6.239372
vertex 10.309881 13.725124 6.259372
endloop
endfacet
facet normal 0 0 0
outer loop
vertex 10.268930 13.725124 6.239372
vertex 10.268930 13.725124 6.259372
vertex 10.268930 13.745878 6.239372
endloop
endfacet
facet normal 0 0 0
outer loop
vertex 10.268930 13.725124 6.259372
vertex 10.268930 13.745878 6.259372
vertex 10.268930 13.745878 6.239372
endloop
endfacet
facet normal 0 0 0
outer loop
vertex 10.309881 13.725124 6.239372
vertex 10.309881 13.745878 6.239372
vertex 10.309881 13.725124 6.259372
endloop
endfacet
facet normal 0 0 0
outer loop
vertex 10.309881 13.725124 6.259372
vertex 10.309881 13.745878 6.239372
vertex 10.309881 13.745878 6.259372
endloop
endfacet
facet normal 0 0 0
outer loop
vertex 10.268930 13.745878 6.239372
vertex 10.268930 13.745878 6.259372
vertex 10.268930 13.766631 6.239372
endloop
endfacet
facet normal 0 0 0
outer loop
vertex 10.268930 13.745878 6.259372
vertex 10.268930 13.766631 6.259372
vertex 10.268930 13.766631 6.239372
endloop
endfacet
facet normal 0 0 0
outer loop
vertex 10.309881 13.745878 6.239372
vertex 10.289406 13.766631 6.239372
vertex 10.309881 13.766631 6.259372
endloop
endfacet
facet normal 0 0 0
outer loop
vertex 10.309881 13.745878 6.239372
vertex 10.309881 13.766631 6.259372
vertex 10.309881 13.745878 6.259372
endloop
endfacet
facet normal 0 0 0
outer loop
vertex 10.268930 13.766631 6.239372
vertex 10.268930 13.766631 6.259372
vertex 10.268930 13.787385 6.239372
endloop
endfacet
facet normal 0 0 0
outer loop
vertex 10.268930 13.766631 6.259372
vertex 10.268930 13.787385 6.259372
vertex 10.268930 13.787385 6.239372
endloop
endfacet
facet normal 0 0 0
outer loop
vertex 10.309881 13.766631 6.259372
vertex 10.289406 13.787385 6.239372
vertex 10.309881 13.787385 6.259372
endloop
endfacet
facet normal 0 0 0
outer loop
vertex 10.289406 13.766631 6.239372
vertex 10.289406 13.787385 6.239372
vertex 10.309881 13.766631 6.259372
endloop
endfacet
facet normal 0 0 0
outer loop
vertex 10.289406 13.808138 6.259372
vertex 10.289406 13.787385 6.239372
vertex 10.268930 13.787385 6.259372
endloop
endfacet
facet normal 0 0 0
outer loop
vertex 10.289406 13.787385 6.239372
vertex 10.268930 13.787385 6.239372
vertex 10.268930 13.787385 6.259372
endloop
endfacet
facet normal 0 0 0
outer loop
vertex 10.289406 13.787385 6.239372
vertex 10.289406 13.808138 6.259372
vertex 10.309881 13.787385 6.259372
endloop
endfacet
facet normal 0 0 0
outer loop
vertex 10.309881 13.704371 6.259372
vertex 10.330357 13.683619 6.259372
vertex 10.330357 13.704371 6.259372
endloop
endfacet
facet normal 0 0 0
outer loop
vertex 10.268930 13.725124 6.279372
vertex 10.248453 13.704371 6.259372
vertex 10.268930 13.704371 6.259372
endloop
endfacet
facet normal 0 0 0
outer loop
vertex 10.268930 13.725124 6.279372
vertex 10.268930 13.725124 6.259372
vertex 10.248453 13.704371 6.259372
endloop
endfacet
facet normal 0 0 0
outer loop
vertex 10.268930 13.704371 6.259372
vertex 10.289406 13.725124 6.259372
vertex 10.268930 13.725124 6.279372
endloop
endfacet
facet normal 0 0 0
outer loop
vertex 10.289406 13.725124 6.259372
vertex 10.289406 13.725124 6.279372
vertex 10.268930 13.725124 6.279372
endloop
endfacet
facet normal 0 0 0
outer loop
vertex 10.309881 13.704371 6.259372
vertex 10.289406 13.725124 6.279372
vertex 10.289406 13.725124 6.259372
endloop
endfacet
facet normal 0 0 0
outer loop
vertex 10.309881 13.704371 6.259372
vertex 10.309881 13.725124 6.259372
vertex 10.289406 13.725124 6.279372
endloop
endfacet
facet normal 0 0 0
outer loop
vertex 10.330357 13.704371 6.259372
vertex 10.309881 13.725124 6.259372
vertex 10.309881 13.704371 6.259372
endloop
endfacet
facet normal 0 0 0
outer loop
vertex 10.268930 13.725124 6.259372
vertex 10.268930 13.725124 6.279372
vertex 10.268930 13.745878 6.259372
endloop
endfacet
facet normal 0 0 0
outer loop
vertex 10.268930 13.725124 6.279372
vertex 10.268930 13.745878 6.279372
vertex 10.268930 13.745878 6.259372
endloop
endfacet
facet normal 0 0 0
outer loop
vertex 10.309881 13.745878 6.259372
vertex 10.289406 13.725124 6.279372
vertex 10.309881 13.725124 6.259372
endloop
endfacet
facet normal 0 0 0
outer loop
vertex 10.289406 13.745878 6.279372
vertex 10.289406 13.725124 6.279372
vertex 10.309881 13.745878 6.259372
endloop
endfacet
facet normal 0 0 0
outer loop
vertex 10.268930 13.745878 6.259372
vertex 10.268930 13.745878 6.279372
vertex 10.268930 13.766631 6.259372
endloop
endfacet
facet normal 0 0 0
outer loop
vertex 10.268930 13.745878 6.279372
vertex 10.268930 13.766631 6.279372
vertex 10.268930 13.766631 6.259372
endloop
endfacet
facet normal 0 0 0
outer loop
vertex 10.309881 13.745878 6.259372
vertex 10.309881 13.766631 6.279372
vertex 10.289406 13.745878 6.279372
endloop
endfacet
facet normal 0 0 0
outer loop
vertex 10.309881 13.766631 6.279372
vertex 10.309881 13.745878 6.259372
vertex 10.309881 13.766631 6.259372
endloop
endfacet
facet normal 0 0 0
outer loop
vertex 10.268930 13.766631 6.259372
vertex 10.268930 13.766631 6.279372
vertex 10.268930 13.787385 6.259372
endloop
endfacet
facet normal 0 0 0
outer loop
vertex 10.268930 13.766631 6.279372
vertex 10.268930 13.787385 6.279372
vertex 10.268930 13.787385 6.259372
endloop
endfacet
facet normal 0 0 0
outer loop
vertex 10.309881 13.766631 6.259372
vertex 10.309881 13.787385 6.259372
vertex 10.309881 13.766631 6.279372
endloop
endfacet
facet normal 0 0 0
outer loop
vertex 10.309881 13.766631 6.279372
vertex 10.309881 13.787385 6.259372
vertex 10.309881 13.787385 6.279372
endloop
endfacet
facet normal 0 0 0
outer loop
vertex 10.268930 13.787385 6.279372
vertex 10.289406 13.808138 6.259372
vertex 10.268930 13.787385 6.259372
endloop
endfacet
facet normal 0 0 0
outer loop
vertex 10.289406 13.808138 6.279372
vertex 10.289406 13.808138 6.259372
vertex 10.268930 13.787385 6.279372
endloop
endfacet
facet normal 0 0 0
outer loop
vertex 10.309881 13.787385 6.259372
vertex 10.289406 13.808138 6.279372
vertex 10.309881 13.787385 6.279372
endloop
endfacet
facet normal 0 0 0
outer loop
vertex 10.289406 13.808138 6.259372
vertex 10.289406 13.808138 6.279372
vertex 10.309881 13.787385 6.259372
endloop
endfacet
facet normal 0 0 0
outer loop
vertex 10.289406 13.808138 6.259372
vertex 10.289406 13.828892 6.279372
vertex 10.289406 13.808138 6.279372
endloop
endfacet
facet normal 0 0 0
outer loop
vertex 10.289406 13.725124 6.279372
vertex 10.289406 13.745878 6.279372
vertex 10.268930 13.725124 6.279372
endloop
endfacet
facet normal 0 0 0
outer loop
vertex 10.289406 13.745878 6.279372
vertex 10.268930 13.745878 6.279372
vertex 10.268930 13.725124 6.279372
endloop
endfacet
facet normal 0 0 0
outer loop
vertex 10.289406 13.745878 6.279372
vertex 10.289406 13.766631 6.279372
vertex 10.268930 13.745878 6.279372
endloop
endfacet
facet normal 0 0 0
outer loop
vertex 10.289406 13.766631 6.279372
vertex 10.268930 13.766631 6.279372
vertex 10.268930 13.745878 6.279372
endloop
endfacet
facet normal 0 0 0
outer loop
vertex 10.289406 13.745878 6.279372
vertex 10.309881 13.766631 6.279372
vertex 10.289406 13.766631 6.279372
endloop
endfacet
facet normal 0 0 0
outer loop
vertex 10.289406 13.766631 6.279372
vertex 10.289406 13.787385 6.279372
vertex 10.268930 13.766631 6.279372
endloop
endfacet
facet normal 0 0 0
outer loop
vertex 10.289406 13.787385 6.279372
vertex 10.268930 13.787385 6.279372
vertex 10.268930 13.766631 6.279372
endloop
endfacet
facet normal 0 0 0
outer loop
vertex 10.309881 13.766631 6.279372
vertex 10.309881 13.787385 6.279372
vertex 10.289406 13.766631 6.279372
endloop
endfacet
facet normal 0 0 0
outer loop
vertex 10.309881 13.787385 6.279372
vertex 10.289406 13.787385 6.279372
vertex 10.289406 13.766631 6.279372
endloop
endfacet
facet normal 0 0 0
outer loop
vertex 10.289406 13.808138 6.279372
vertex 10.268930 13.787385 6.279372
vertex 10.289406 13.787385 6.279372
endloop
endfacet
facet normal 0 0 0
outer loop
vertex 10.309881 13.787385 6.279372
vertex 10.289406 13.808138 6.279372
vertex 10.289406 13.787385 6.279372
endloop
endfacet
endsolid B-16-Plag.104
