solid B-16-Plag.302
facet normal 0 0 0
outer loop
vertex 23.107256 5.797356 12.399372
vertex 23.086781 5.818109 12.399372
vertex 23.107256 5.818109 12.399372
endloop
endfacet
facet normal 0 0 0
outer loop
vertex 23.127731 5.797356 12.399372
vertex 23.107256 5.797356 12.399372
vertex 23.127731 5.818109 12.399372
endloop
endfacet
facet normal 0 0 0
outer loop
vertex 23.127731 5.818109 12.399372
vertex 23.107256 5.797356 12.399372
vertex 23.107256 5.818109 12.399372
endloop
endfacet
facet normal 0 0 0
outer loop
vertex 23.148207 5.797356 12.399372
vertex 23.127731 5.797356 12.399372
vertex 23.148207 5.818109 12.399372
endloop
endfacet
facet normal 0 0 0
outer loop
vertex 23.148207 5.818109 12.399372
vertex 23.127731 5.797356 12.399372
vertex 23.127731 5.818109 12.399372
endloop
endfacet
facet normal 0 0 0
outer loop
vertex 23.168684 5.797356 12.399372
vertex 23.148207 5.797356 12.399372
vertex 23.168684 5.818109 12.399372
endloop
endfacet
facet normal 0 0 0
outer loop
vertex 23.168684 5.818109 12.399372
vertex 23.148207 5.797356 12.399372
vertex 23.148207 5.818109 12.399372
endloop
endfacet
facet normal 0 0 0
outer loop
vertex 23.189159 5.797356 12.399372
vertex 23.168684 5.797356 12.399372
vertex 23.189159 5.818109 12.399372
endloop
endfacet
facet normal 0 0 0
outer loop
vertex 23.189159 5.818109 12.399372
vertex 23.168684 5.797356 12.399372
vertex 23.168684 5.818109 12.399372
endloop
endfacet
facet normal 0 0 0
outer loop
vertex 23.107256 5.818109 12.399372
vertex 23.086781 5.818109 12.399372
vertex 23.107256 5.838862 12.399372
endloop
endfacet
facet normal 0 0 0
outer loop
vertex 23.107256 5.838862 12.399372
vertex 23.086781 5.818109 12.399372
vertex 23.086781 5.838862 12.399372
endloop
endfacet
facet normal 0 0 0
outer loop
vertex 23.127731 5.818109 12.399372
vertex 23.107256 5.818109 12.399372
vertex 23.127731 5.838862 12.399372
endloop
endfacet
facet normal 0 0 0
outer loop
vertex 23.127731 5.838862 12.399372
vertex 23.107256 5.818109 12.399372
vertex 23.107256 5.838862 12.399372
endloop
endfacet
facet normal 0 0 0
outer loop
vertex 23.148207 5.818109 12.399372
vertex 23.127731 5.818109 12.399372
vertex 23.148207 5.838862 12.399372
endloop
endfacet
facet normal 0 0 0
outer loop
vertex 23.148207 5.838862 12.399372
vertex 23.127731 5.818109 12.399372
vertex 23.127731 5.838862 12.399372
endloop
endfacet
facet normal 0 0 0
outer loop
vertex 23.168684 5.818109 12.399372
vertex 23.148207 5.818109 12.399372
vertex 23.168684 5.838862 12.399372
endloop
endfacet
facet normal 0 0 0
outer loop
vertex 23.168684 5.838862 12.399372
vertex 23.148207 5.818109 12.399372
vertex 23.148207 5.838862 12.399372
endloop
endfacet
facet normal 0 0 0
outer loop
vertex 23.189159 5.818109 12.399372
vertex 23.168684 5.818109 12.399372
vertex 23.189159 5.838862 12.399372
endloop
endfacet
facet normal 0 0 0
outer loop
vertex 23.189159 5.838862 12.399372
vertex 23.168684 5.818109 12.399372
vertex 23.168684 5.838862 12.399372
endloop
endfacet
facet normal 0 0 0
outer loop
vertex 23.107256 5.838862 12.399372
vertex 23.086781 5.838862 12.399372
vertex 23.107256 5.859615 12.399372
endloop
endfacet
facet normal 0 0 0
outer loop
vertex 23.107256 5.859615 12.399372
vertex 23.086781 5.838862 12.399372
vertex 23.086781 5.859615 12.399372
endloop
endfacet
facet normal 0 0 0
outer loop
vertex 23.127731 5.838862 12.399372
vertex 23.107256 5.838862 12.399372
vertex 23.127731 5.859615 12.399372
endloop
endfacet
facet normal 0 0 0
outer loop
vertex 23.127731 5.859615 12.399372
vertex 23.107256 5.838862 12.399372
vertex 23.107256 5.859615 12.399372
endloop
endfacet
facet normal 0 0 0
outer loop
vertex 23.148207 5.838862 12.399372
vertex 23.127731 5.838862 12.399372
vertex 23.148207 5.859615 12.399372
endloop
endfacet
facet normal 0 0 0
outer loop
vertex 23.148207 5.859615 12.399372
vertex 23.127731 5.838862 12.399372
vertex 23.127731 5.859615 12.399372
endloop
endfacet
facet normal 0 0 0
outer loop
vertex 23.168684 5.838862 12.399372
vertex 23.148207 5.838862 12.399372
vertex 23.168684 5.859615 12.399372
endloop
endfacet
facet normal 0 0 0
outer loop
vertex 23.168684 5.859615 12.399372
vertex 23.148207 5.838862 12.399372
vertex 23.148207 5.859615 12.399372
endloop
endfacet
facet normal 0 0 0
outer loop
vertex 23.189159 5.838862 12.399372
vertex 23.168684 5.838862 12.399372
vertex 23.189159 5.859615 12.399372
endloop
endfacet
facet normal 0 0 0
outer loop
vertex 23.189159 5.859615 12.399372
vertex 23.168684 5.838862 12.399372
vertex 23.168684 5.859615 12.399372
endloop
endfacet
facet normal 0 0 0
outer loop
vertex 23.086781 5.859615 12.399372
vertex 23.107256 5.880369 12.399372
vertex 23.107256 5.859615 12.399372
endloop
endfacet
facet normal 0 0 0
outer loop
vertex 23.127731 5.859615 12.399372
vertex 23.107256 5.859615 12.399372
vertex 23.127731 5.880369 12.399372
endloop
endfacet
facet normal 0 0 0
outer loop
vertex 23.127731 5.880369 12.399372
vertex 23.107256 5.859615 12.399372
vertex 23.107256 5.880369 12.399372
endloop
endfacet
facet normal 0 0 0
outer loop
vertex 23.148207 5.859615 12.399372
vertex 23.127731 5.859615 12.399372
vertex 23.148207 5.880369 12.399372
endloop
endfacet
facet normal 0 0 0
outer loop
vertex 23.148207 5.880369 12.399372
vertex 23.127731 5.859615 12.399372
vertex 23.127731 5.880369 12.399372
endloop
endfacet
facet normal 0 0 0
outer loop
vertex 23.148207 5.880369 12.399372
vertex 23.168684 5.859615 12.399372
vertex 23.148207 5.859615 12.399372
endloop
endfacet
facet normal 0 0 0
outer loop
vertex 23.127731 5.755849 12.419372
vertex 23.107256 5.776602 12.419372
vertex 23.127731 5.776602 12.419372
endloop
endfacet
facet normal 0 0 0
outer loop
vertex 23.148207 5.755849 12.419372
vertex 23.127731 5.755849 12.419372
vertex 23.148207 5.776602 12.419372
endloop
endfacet
facet normal 0 0 0
outer loop
vertex 23.148207 5.776602 12.419372
vertex 23.127731 5.755849 12.419372
vertex 23.127731 5.776602 12.419372
endloop
endfacet
facet normal 0 0 0
outer loop
vertex 23.168684 5.755849 12.419372
vertex 23.148207 5.755849 12.419372
vertex 23.168684 5.776602 12.419372
endloop
endfacet
facet normal 0 0 0
outer loop
vertex 23.168684 5.776602 12.419372
vertex 23.148207 5.755849 12.419372
vertex 23.148207 5.776602 12.419372
endloop
endfacet
facet normal 0 0 0
outer loop
vertex 23.189159 5.755849 12.419372
vertex 23.168684 5.755849 12.419372
vertex 23.189159 5.776602 12.419372
endloop
endfacet
facet normal 0 0 0
outer loop
vertex 23.189159 5.776602 12.419372
vertex 23.168684 5.755849 12.419372
vertex 23.168684 5.776602 12.419372
endloop
endfacet
facet normal 0 0 0
outer loop
vertex 23.209635 5.776602 12.419372
vertex 23.189159 5.755849 12.419372
vertex 23.189159 5.776602 12.419372
endloop
endfacet
facet normal 0 0 0
outer loop
vertex 23.107256 5.776602 12.419372
vertex 23.086781 5.797356 12.419372
vertex 23.107256 5.797356 12.399372
endloop
endfacet
facet normal 0 0 0
outer loop
vertex 23.127731 5.797356 12.399372
vertex 23.107256 5.776602 12.419372
vertex 23.107256 5.797356 12.399372
endloop
endfacet
facet normal 0 0 0
outer loop
vertex 23.127731 5.776602 12.419372
vertex 23.107256 5.776602 12.419372
vertex 23.127731 5.797356 12.399372
endloop
endfacet
facet normal 0 0 0
outer loop
vertex 23.148207 5.797356 12.399372
vertex 23.127731 5.776602 12.419372
vertex 23.127731 5.797356 12.399372
endloop
endfacet
facet normal 0 0 0
outer loop
vertex 23.148207 5.776602 12.419372
vertex 23.127731 5.776602 12.419372
vertex 23.148207 5.797356 12.399372
endloop
endfacet
facet normal 0 0 0
outer loop
vertex 23.168684 5.797356 12.399372
vertex 23.148207 5.776602 12.419372
vertex 23.148207 5.797356 12.399372
endloop
endfacet
facet normal 0 0 0
outer loop
vertex 23.168684 5.776602 12.419372
vertex 23.148207 5.776602 12.419372
vertex 23.168684 5.797356 12.399372
endloop
endfacet
facet normal 0 0 0
outer loop
vertex 23.189159 5.797356 12.399372
vertex 23.168684 5.776602 12.419372
vertex 23.168684 5.797356 12.399372
endloop
endfacet
facet normal 0 0 0
outer loop
vertex 23.189159 5.776602 12.419372
vertex 23.168684 5.776602 12.419372
vertex 23.189159 5.797356 12.399372
endloop
endfacet
facet normal 0 0 0
outer loop
vertex 23.189159 5.797356 12.399372
vertex 23.209635 5.797356 12.419372
vertex 23.189159 5.776602 12.419372
endloop
endfacet
facet normal 0 0 0
outer loop
vertex 23.209635 5.797356 12.419372
vertex 23.209635 5.776602 12.419372
vertex 23.189159 5.776602 12.419372
endloop
endfacet
facet normal 0 0 0
outer loop
vertex 23.086781 5.797356 12.419372
vertex 23.066305 5.818109 12.419372
vertex 23.086781 5.818109 12.399372
endloop
endfacet
facet normal 0 0 0
outer loop
vertex 23.107256 5.797356 12.399372
vertex 23.086781 5.797356 12.419372
vertex 23.086781 5.818109 12.399372
endloop
endfacet
facet normal 0 0 0
outer loop
vertex 23.209635 5.797356 12.419372
vertex 23.189159 5.818109 12.399372
vertex 23.209635 5.818109 12.419372
endloop
endfacet
facet normal 0 0 0
outer loop
vertex 23.189159 5.797356 12.399372
vertex 23.189159 5.818109 12.399372
vertex 23.209635 5.797356 12.419372
endloop
endfacet
facet normal 0 0 0
outer loop
vertex 23.086781 5.818109 12.399372
vertex 23.066305 5.838862 12.419372
vertex 23.086781 5.838862 12.399372
endloop
endfacet
facet normal 0 0 0
outer loop
vertex 23.066305 5.818109 12.419372
vertex 23.066305 5.838862 12.419372
vertex 23.086781 5.818109 12.399372
endloop
endfacet
facet normal 0 0 0
outer loop
vertex 23.209635 5.818109 12.419372
vertex 23.189159 5.838862 12.399372
vertex 23.209635 5.838862 12.419372
endloop
endfacet
facet normal 0 0 0
outer loop
vertex 23.189159 5.818109 12.399372
vertex 23.189159 5.838862 12.399372
vertex 23.209635 5.818109 12.419372
endloop
endfacet
facet normal 0 0 0
outer loop
vertex 23.066305 5.838862 12.419372
vertex 23.086781 5.859615 12.419372
vertex 23.086781 5.838862 12.399372
endloop
endfacet
facet normal 0 0 0
outer loop
vertex 23.086781 5.859615 12.419372
vertex 23.086781 5.859615 12.399372
vertex 23.086781 5.838862 12.399372
endloop
endfacet
facet normal 0 0 0
outer loop
vertex 23.209635 5.838862 12.419372
vertex 23.189159 5.838862 12.399372
vertex 23.189159 5.859615 12.419372
endloop
endfacet
facet normal 0 0 0
outer loop
vertex 23.189159 5.838862 12.399372
vertex 23.189159 5.859615 12.399372
vertex 23.189159 5.859615 12.419372
endloop
endfacet
facet normal 0 0 0
outer loop
vertex 23.107256 5.880369 12.399372
vertex 23.086781 5.859615 12.399372
vertex 23.107256 5.859615 12.419372
endloop
endfacet
facet normal 0 0 0
outer loop
vertex 23.086781 5.859615 12.399372
vertex 23.086781 5.859615 12.419372
vertex 23.107256 5.859615 12.419372
endloop
endfacet
facet normal 0 0 0
outer loop
vertex 23.107256 5.859615 12.419372
vertex 23.127731 5.880369 12.419372
vertex 23.107256 5.880369 12.399372
endloop
endfacet
facet normal 0 0 0
outer loop
vertex 23.168684 5.859615 12.399372
vertex 23.148207 5.880369 12.419372
vertex 23.168684 5.859615 12.419372
endloop
endfacet
facet normal 0 0 0
outer loop
vertex 23.148207 5.880369 12.399372
vertex 23.148207 5.880369 12.419372
vertex 23.168684 5.859615 12.399372
endloop
endfacet
facet normal 0 0 0
outer loop
vertex 23.189159 5.859615 12.399372
vertex 23.168684 5.859615 12.399372
vertex 23.189159 5.859615 12.419372
endloop
endfacet
facet normal 0 0 0
outer loop
vertex 23.168684 5.859615 12.399372
vertex 23.168684 5.859615 12.419372
vertex 23.189159 5.859615 12.419372
endloop
endfacet
facet normal 0 0 0
outer loop
vertex 23.107256 5.880369 12.399372
vertex 23.127731 5.880369 12.419372
vertex 23.127731 5.880369 12.399372
endloop
endfacet
facet normal 0 0 0
outer loop
vertex 23.148207 5.880369 12.399372
vertex 23.127731 5.880369 12.399372
vertex 23.148207 5.880369 12.419372
endloop
endfacet
facet normal 0 0 0
outer loop
vertex 23.127731 5.880369 12.399372
vertex 23.127731 5.880369 12.419372
vertex 23.148207 5.880369 12.419372
endloop
endfacet
facet normal 0 0 0
outer loop
vertex 23.148207 5.776602 12.439372
vertex 23.127731 5.776602 12.419372
vertex 23.148207 5.755849 12.419372
endloop
endfacet
facet normal 0 0 0
outer loop
vertex 23.127731 5.776602 12.419372
vertex 23.127731 5.755849 12.419372
vertex 23.148207 5.755849 12.419372
endloop
endfacet
facet normal 0 0 0
outer loop
vertex 23.168684 5.755849 12.419372
vertex 23.148207 5.776602 12.439372
vertex 23.148207 5.755849 12.419372
endloop
endfacet
facet normal 0 0 0
outer loop
vertex 23.168684 5.776602 12.439372
vertex 23.148207 5.776602 12.439372
vertex 23.168684 5.755849 12.419372
endloop
endfacet
facet normal 0 0 0
outer loop
vertex 23.189159 5.755849 12.419372
vertex 23.168684 5.776602 12.439372
vertex 23.168684 5.755849 12.419372
endloop
endfacet
facet normal 0 0 0
outer loop
vertex 23.189159 5.776602 12.439372
vertex 23.168684 5.776602 12.439372
vertex 23.189159 5.755849 12.419372
endloop
endfacet
facet normal 0 0 0
outer loop
vertex 23.209635 5.776602 12.419372
vertex 23.189159 5.776602 12.439372
vertex 23.189159 5.755849 12.419372
endloop
endfacet
facet normal 0 0 0
outer loop
vertex 23.086781 5.797356 12.419372
vertex 23.107256 5.776602 12.419372
vertex 23.107256 5.797356 12.419372
endloop
endfacet
facet normal 0 0 0
outer loop
vertex 23.127731 5.797356 12.439372
vertex 23.107256 5.797356 12.419372
vertex 23.127731 5.776602 12.419372
endloop
endfacet
facet normal 0 0 0
outer loop
vertex 23.107256 5.797356 12.419372
vertex 23.107256 5.776602 12.419372
vertex 23.127731 5.776602 12.419372
endloop
endfacet
facet normal 0 0 0
outer loop
vertex 23.148207 5.776602 12.439372
vertex 23.127731 5.797356 12.439372
vertex 23.127731 5.776602 12.419372
endloop
endfacet
facet normal 0 0 0
outer loop
vertex 23.209635 5.776602 12.419372
vertex 23.209635 5.797356 12.439372
vertex 23.189159 5.776602 12.439372
endloop
endfacet
facet normal 0 0 0
outer loop
vertex 23.209635 5.797356 12.439372
vertex 23.209635 5.776602 12.419372
vertex 23.209635 5.797356 12.419372
endloop
endfacet
facet normal 0 0 0
outer loop
vertex 23.086781 5.797356 12.419372
vertex 23.086781 5.818109 12.439372
vertex 23.066305 5.818109 12.419372
endloop
endfacet
facet normal 0 0 0
outer loop
vertex 23.107256 5.797356 12.419372
vertex 23.086781 5.818109 12.439372
vertex 23.086781 5.797356 12.419372
endloop
endfacet
facet normal 0 0 0
outer loop
vertex 23.107256 5.818109 12.439372
vertex 23.086781 5.818109 12.439372
vertex 23.107256 5.797356 12.419372
endloop
endfacet
facet normal 0 0 0
outer loop
vertex 23.127731 5.797356 12.439372
vertex 23.107256 5.818109 12.439372
vertex 23.107256 5.797356 12.419372
endloop
endfacet
facet normal 0 0 0
outer loop
vertex 23.230110 5.818109 12.439372
vertex 23.209635 5.797356 12.439372
vertex 23.209635 5.818109 12.419372
endloop
endfacet
facet normal 0 0 0
outer loop
vertex 23.209635 5.797356 12.439372
vertex 23.209635 5.797356 12.419372
vertex 23.209635 5.818109 12.419372
endloop
endfacet
facet normal 0 0 0
outer loop
vertex 23.086781 5.838862 12.439372
vertex 23.066305 5.818109 12.419372
vertex 23.086781 5.818109 12.439372
endloop
endfacet
facet normal 0 0 0
outer loop
vertex 23.066305 5.838862 12.419372
vertex 23.066305 5.818109 12.419372
vertex 23.086781 5.838862 12.439372
endloop
endfacet
facet normal 0 0 0
outer loop
vertex 23.230110 5.818109 12.439372
vertex 23.209635 5.838862 12.419372
vertex 23.230110 5.838862 12.439372
endloop
endfacet
facet normal 0 0 0
outer loop
vertex 23.209635 5.818109 12.419372
vertex 23.209635 5.838862 12.419372
vertex 23.230110 5.818109 12.439372
endloop
endfacet
facet normal 0 0 0
outer loop
vertex 23.066305 5.838862 12.419372
vertex 23.086781 5.838862 12.439372
vertex 23.086781 5.859615 12.419372
endloop
endfacet
facet normal 0 0 0
outer loop
vertex 23.086781 5.838862 12.439372
vertex 23.086781 5.859615 12.439372
vertex 23.086781 5.859615 12.419372
endloop
endfacet
facet normal 0 0 0
outer loop
vertex 23.209635 5.838862 12.419372
vertex 23.189159 5.859615 12.419372
vertex 23.209635 5.859615 12.439372
endloop
endfacet
facet normal 0 0 0
outer loop
vertex 23.209635 5.838862 12.419372
vertex 23.209635 5.859615 12.439372
vertex 23.230110 5.838862 12.439372
endloop
endfacet
facet normal 0 0 0
outer loop
vertex 23.086781 5.880369 12.439372
vertex 23.086781 5.859615 12.419372
vertex 23.086781 5.859615 12.439372
endloop
endfacet
facet normal 0 0 0
outer loop
vertex 23.086781 5.859615 12.419372
vertex 23.107256 5.880369 12.439372
vertex 23.107256 5.859615 12.419372
endloop
endfacet
facet normal 0 0 0
outer loop
vertex 23.086781 5.880369 12.439372
vertex 23.107256 5.880369 12.439372
vertex 23.086781 5.859615 12.419372
endloop
endfacet
facet normal 0 0 0
outer loop
vertex 23.107256 5.859615 12.419372
vertex 23.107256 5.880369 12.439372
vertex 23.127731 5.880369 12.419372
endloop
endfacet
facet normal 0 0 0
outer loop
vertex 23.168684 5.859615 12.419372
vertex 23.148207 5.880369 12.419372
vertex 23.168684 5.880369 12.439372
endloop
endfacet
facet normal 0 0 0
outer loop
vertex 23.168684 5.859615 12.419372
vertex 23.189159 5.880369 12.439372
vertex 23.189159 5.859615 12.419372
endloop
endfacet
facet normal 0 0 0
outer loop
vertex 23.168684 5.880369 12.439372
vertex 23.189159 5.880369 12.439372
vertex 23.168684 5.859615 12.419372
endloop
endfacet
facet normal 0 0 0
outer loop
vertex 23.189159 5.859615 12.419372
vertex 23.189159 5.880369 12.439372
vertex 23.209635 5.859615 12.439372
endloop
endfacet
facet normal 0 0 0
outer loop
vertex 23.127731 5.880369 12.419372
vertex 23.107256 5.880369 12.439372
vertex 23.127731 5.901122 12.439372
endloop
endfacet
facet normal 0 0 0
outer loop
vertex 23.127731 5.880369 12.419372
vertex 23.148207 5.901122 12.439372
vertex 23.148207 5.880369 12.419372
endloop
endfacet
facet normal 0 0 0
outer loop
vertex 23.127731 5.901122 12.439372
vertex 23.148207 5.901122 12.439372
vertex 23.127731 5.880369 12.419372
endloop
endfacet
facet normal 0 0 0
outer loop
vertex 23.148207 5.880369 12.419372
vertex 23.148207 5.901122 12.439372
vertex 23.168684 5.880369 12.439372
endloop
endfacet
facet normal 0 0 0
outer loop
vertex 23.148207 5.901122 12.439372
vertex 23.168684 5.901122 12.439372
vertex 23.168684 5.880369 12.439372
endloop
endfacet
facet normal 0 0 0
outer loop
vertex 23.189159 5.880369 12.439372
vertex 23.168684 5.880369 12.439372
vertex 23.189159 5.901122 12.439372
endloop
endfacet
facet normal 0 0 0
outer loop
vertex 23.127731 5.797356 12.439372
vertex 23.148207 5.776602 12.439372
vertex 23.148207 5.797356 12.439372
endloop
endfacet
facet normal 0 0 0
outer loop
vertex 23.168684 5.797356 12.459372
vertex 23.148207 5.797356 12.439372
vertex 23.168684 5.776602 12.439372
endloop
endfacet
facet normal 0 0 0
outer loop
vertex 23.148207 5.797356 12.439372
vertex 23.148207 5.776602 12.439372
vertex 23.168684 5.776602 12.439372
endloop
endfacet
facet normal 0 0 0
outer loop
vertex 23.189159 5.776602 12.439372
vertex 23.168684 5.797356 12.459372
vertex 23.168684 5.776602 12.439372
endloop
endfacet
facet normal 0 0 0
outer loop
vertex 23.189159 5.797356 12.459372
vertex 23.168684 5.797356 12.459372
vertex 23.189159 5.776602 12.439372
endloop
endfacet
facet normal 0 0 0
outer loop
vertex 23.189159 5.776602 12.439372
vertex 23.209635 5.797356 12.439372
vertex 23.189159 5.797356 12.459372
endloop
endfacet
facet normal 0 0 0
outer loop
vertex 23.209635 5.797356 12.439372
vertex 23.209635 5.797356 12.459372
vertex 23.189159 5.797356 12.459372
endloop
endfacet
facet normal 0 0 0
outer loop
vertex 23.127731 5.797356 12.439372
vertex 23.127731 5.818109 12.459372
vertex 23.107256 5.818109 12.439372
endloop
endfacet
facet normal 0 0 0
outer loop
vertex 23.148207 5.797356 12.439372
vertex 23.127731 5.818109 12.459372
vertex 23.127731 5.797356 12.439372
endloop
endfacet
facet normal 0 0 0
outer loop
vertex 23.148207 5.818109 12.459372
vertex 23.127731 5.818109 12.459372
vertex 23.148207 5.797356 12.439372
endloop
endfacet
facet normal 0 0 0
outer loop
vertex 23.168684 5.797356 12.459372
vertex 23.148207 5.818109 12.459372
vertex 23.148207 5.797356 12.439372
endloop
endfacet
facet normal 0 0 0
outer loop
vertex 23.230110 5.818109 12.439372
vertex 23.209635 5.818109 12.459372
vertex 23.209635 5.797356 12.439372
endloop
endfacet
facet normal 0 0 0
outer loop
vertex 23.209635 5.818109 12.459372
vertex 23.209635 5.797356 12.459372
vertex 23.209635 5.797356 12.439372
endloop
endfacet
facet normal 0 0 0
outer loop
vertex 23.107256 5.818109 12.439372
vertex 23.107256 5.838862 12.439372
vertex 23.086781 5.818109 12.439372
endloop
endfacet
facet normal 0 0 0
outer loop
vertex 23.107256 5.838862 12.439372
vertex 23.086781 5.838862 12.439372
vertex 23.086781 5.818109 12.439372
endloop
endfacet
facet normal 0 0 0
outer loop
vertex 23.127731 5.838862 12.459372
vertex 23.107256 5.818109 12.439372
vertex 23.127731 5.818109 12.459372
endloop
endfacet
facet normal 0 0 0
outer loop
vertex 23.107256 5.838862 12.439372
vertex 23.107256 5.818109 12.439372
vertex 23.127731 5.838862 12.459372
endloop
endfacet
facet normal 0 0 0
outer loop
vertex 23.230110 5.838862 12.439372
vertex 23.209635 5.818109 12.459372
vertex 23.230110 5.818109 12.439372
endloop
endfacet
facet normal 0 0 0
outer loop
vertex 23.209635 5.838862 12.459372
vertex 23.209635 5.818109 12.459372
vertex 23.230110 5.838862 12.439372
endloop
endfacet
facet normal 0 0 0
outer loop
vertex 23.107256 5.838862 12.439372
vertex 23.107256 5.859615 12.439372
vertex 23.086781 5.838862 12.439372
endloop
endfacet
facet normal 0 0 0
outer loop
vertex 23.107256 5.859615 12.439372
vertex 23.086781 5.859615 12.439372
vertex 23.086781 5.838862 12.439372
endloop
endfacet
facet normal 0 0 0
outer loop
vertex 23.127731 5.859615 12.459372
vertex 23.107256 5.838862 12.439372
vertex 23.127731 5.838862 12.459372
endloop
endfacet
facet normal 0 0 0
outer loop
vertex 23.107256 5.859615 12.439372
vertex 23.107256 5.838862 12.439372
vertex 23.127731 5.859615 12.459372
endloop
endfacet
facet normal 0 0 0
outer loop
vertex 23.209635 5.859615 12.439372
vertex 23.189159 5.859615 12.459372
vertex 23.209635 5.838862 12.459372
endloop
endfacet
facet normal 0 0 0
outer loop
vertex 23.230110 5.838862 12.439372
vertex 23.209635 5.859615 12.439372
vertex 23.209635 5.838862 12.459372
endloop
endfacet
facet normal 0 0 0
outer loop
vertex 23.107256 5.859615 12.439372
vertex 23.107256 5.880369 12.439372
vertex 23.086781 5.859615 12.439372
endloop
endfacet
facet normal 0 0 0
outer loop
vertex 23.107256 5.880369 12.439372
vertex 23.086781 5.880369 12.439372
vertex 23.086781 5.859615 12.439372
endloop
endfacet
facet normal 0 0 0
outer loop
vertex 23.127731 5.859615 12.459372
vertex 23.127731 5.880369 12.439372
vertex 23.107256 5.859615 12.439372
endloop
endfacet
facet normal 0 0 0
outer loop
vertex 23.127731 5.880369 12.439372
vertex 23.107256 5.880369 12.439372
vertex 23.107256 5.859615 12.439372
endloop
endfacet
facet normal 0 0 0
outer loop
vertex 23.127731 5.880369 12.439372
vertex 23.148207 5.859615 12.459372
vertex 23.148207 5.880369 12.439372
endloop
endfacet
facet normal 0 0 0
outer loop
vertex 23.127731 5.859615 12.459372
vertex 23.148207 5.859615 12.459372
vertex 23.127731 5.880369 12.439372
endloop
endfacet
facet normal 0 0 0
outer loop
vertex 23.148207 5.880369 12.439372
vertex 23.168684 5.859615 12.459372
vertex 23.168684 5.880369 12.439372
endloop
endfacet
facet normal 0 0 0
outer loop
vertex 23.148207 5.859615 12.459372
vertex 23.168684 5.859615 12.459372
vertex 23.148207 5.880369 12.439372
endloop
endfacet
facet normal 0 0 0
outer loop
vertex 23.168684 5.880369 12.439372
vertex 23.189159 5.859615 12.459372
vertex 23.189159 5.880369 12.439372
endloop
endfacet
facet normal 0 0 0
outer loop
vertex 23.168684 5.859615 12.459372
vertex 23.189159 5.859615 12.459372
vertex 23.168684 5.880369 12.439372
endloop
endfacet
facet normal 0 0 0
outer loop
vertex 23.209635 5.859615 12.439372
vertex 23.189159 5.880369 12.439372
vertex 23.189159 5.859615 12.459372
endloop
endfacet
facet normal 0 0 0
outer loop
vertex 23.127731 5.901122 12.439372
vertex 23.107256 5.880369 12.439372
vertex 23.127731 5.880369 12.439372
endloop
endfacet
facet normal 0 0 0
outer loop
vertex 23.148207 5.880369 12.439372
vertex 23.148207 5.901122 12.439372
vertex 23.127731 5.880369 12.439372
endloop
endfacet
facet normal 0 0 0
outer loop
vertex 23.148207 5.901122 12.439372
vertex 23.127731 5.901122 12.439372
vertex 23.127731 5.880369 12.439372
endloop
endfacet
facet normal 0 0 0
outer loop
vertex 23.168684 5.880369 12.439372
vertex 23.168684 5.901122 12.439372
vertex 23.148207 5.880369 12.439372
endloop
endfacet
facet normal 0 0 0
outer loop
vertex 23.168684 5.901122 12.439372
vertex 23.148207 5.901122 12.439372
vertex 23.148207 5.880369 12.439372
endloop
endfacet
facet normal 0 0 0
outer loop
vertex 23.189159 5.901122 12.439372
vertex 23.168684 5.901122 12.439372
vertex 23.168684 5.880369 12.439372
endloop
endfacet
facet normal 0 0 0
outer loop
vertex 23.148207 5.818109 12.459372
vertex 23.168684 5.797356 12.459372
vertex 23.168684 5.818109 12.459372
endloop
endfacet
facet normal 0 0 0
outer loop
vertex 23.189159 5.797356 12.459372
vertex 23.189159 5.818109 12.459372
vertex 23.168684 5.797356 12.459372
endloop
endfacet
facet normal 0 0 0
outer loop
vertex 23.189159 5.818109 12.459372
vertex 23.168684 5.818109 12.459372
vertex 23.168684 5.797356 12.459372
endloop
endfacet
facet normal 0 0 0
outer loop
vertex 23.209635 5.797356 12.459372
vertex 23.209635 5.818109 12.459372
vertex 23.189159 5.797356 12.459372
endloop
endfacet
facet normal 0 0 0
outer loop
vertex 23.209635 5.818109 12.459372
vertex 23.189159 5.818109 12.459372
vertex 23.189159 5.797356 12.459372
endloop
endfacet
facet normal 0 0 0
outer loop
vertex 23.148207 5.818109 12.459372
vertex 23.148207 5.838862 12.459372
vertex 23.127731 5.818109 12.459372
endloop
endfacet
facet normal 0 0 0
outer loop
vertex 23.148207 5.838862 12.459372
vertex 23.127731 5.838862 12.459372
vertex 23.127731 5.818109 12.459372
endloop
endfacet
facet normal 0 0 0
outer loop
vertex 23.168684 5.818109 12.459372
vertex 23.168684 5.838862 12.459372
vertex 23.148207 5.818109 12.459372
endloop
endfacet
facet normal 0 0 0
outer loop
vertex 23.168684 5.838862 12.459372
vertex 23.148207 5.838862 12.459372
vertex 23.148207 5.818109 12.459372
endloop
endfacet
facet normal 0 0 0
outer loop
vertex 23.189159 5.818109 12.459372
vertex 23.189159 5.838862 12.459372
vertex 23.168684 5.818109 12.459372
endloop
endfacet
facet normal 0 0 0
outer loop
vertex 23.189159 5.838862 12.459372
vertex 23.168684 5.838862 12.459372
vertex 23.168684 5.818109 12.459372
endloop
endfacet
facet normal 0 0 0
outer loop
vertex 23.209635 5.818109 12.459372
vertex 23.209635 5.838862 12.459372
vertex 23.189159 5.818109 12.459372
endloop
endfacet
facet normal 0 0 0
outer loop
vertex 23.209635 5.838862 12.459372
vertex 23.189159 5.838862 12.459372
vertex 23.189159 5.818109 12.459372
endloop
endfacet
facet normal 0 0 0
outer loop
vertex 23.148207 5.838862 12.459372
vertex 23.148207 5.859615 12.459372
vertex 23.127731 5.838862 12.459372
endloop
endfacet
facet normal 0 0 0
outer loop
vertex 23.148207 5.859615 12.459372
vertex 23.127731 5.859615 12.459372
vertex 23.127731 5.838862 12.459372
endloop
endfacet
facet normal 0 0 0
outer loop
vertex 23.168684 5.838862 12.459372
vertex 23.168684 5.859615 12.459372
vertex 23.148207 5.838862 12.459372
endloop
endfacet
facet normal 0 0 0
outer loop
vertex 23.168684 5.859615 12.459372
vertex 23.148207 5.859615 12.459372
vertex 23.148207 5.838862 12.459372
endloop
endfacet
facet normal 0 0 0
outer loop
vertex 23.189159 5.838862 12.459372
vertex 23.189159 5.859615 12.459372
vertex 23.168684 5.838862 12.459372
endloop
endfacet
facet normal 0 0 0
outer loop
vertex 23.189159 5.859615 12.459372
vertex 23.168684 5.859615 12.459372
vertex 23.168684 5.838862 12.459372
endloop
endfacet
facet normal 0 0 0
outer loop
vertex 23.209635 5.838862 12.459372
vertex 23.189159 5.859615 12.459372
vertex 23.189159 5.838862 12.459372
endloop
endfacet
endsolid B-16-Plag.302
