solid B-16-Plag.230
facet normal 0 0 0
outer loop
vertex 8.569439 4.344623 9.799372
vertex 8.548962 4.365376 9.799372
vertex 8.569439 4.365376 9.799372
endloop
endfacet
facet normal 0 0 0
outer loop
vertex 8.589914 4.344623 9.799372
vertex 8.569439 4.344623 9.799372
vertex 8.589914 4.365376 9.799372
endloop
endfacet
facet normal 0 0 0
outer loop
vertex 8.589914 4.365376 9.799372
vertex 8.569439 4.344623 9.799372
vertex 8.569439 4.365376 9.799372
endloop
endfacet
facet normal 0 0 0
outer loop
vertex 8.610390 4.344623 9.799372
vertex 8.589914 4.344623 9.799372
vertex 8.610390 4.365376 9.799372
endloop
endfacet
facet normal 0 0 0
outer loop
vertex 8.610390 4.365376 9.799372
vertex 8.589914 4.344623 9.799372
vertex 8.589914 4.365376 9.799372
endloop
endfacet
facet normal 0 0 0
outer loop
vertex 8.630865 4.365376 9.799372
vertex 8.610390 4.344623 9.799372
vertex 8.610390 4.365376 9.799372
endloop
endfacet
facet normal 0 0 0
outer loop
vertex 8.548962 4.365376 9.799372
vertex 8.528486 4.386129 9.799372
vertex 8.548962 4.386129 9.799372
endloop
endfacet
facet normal 0 0 0
outer loop
vertex 8.569439 4.365376 9.799372
vertex 8.548962 4.365376 9.799372
vertex 8.569439 4.386129 9.799372
endloop
endfacet
facet normal 0 0 0
outer loop
vertex 8.569439 4.386129 9.799372
vertex 8.548962 4.365376 9.799372
vertex 8.548962 4.386129 9.799372
endloop
endfacet
facet normal 0 0 0
outer loop
vertex 8.589914 4.365376 9.799372
vertex 8.569439 4.365376 9.799372
vertex 8.589914 4.386129 9.799372
endloop
endfacet
facet normal 0 0 0
outer loop
vertex 8.589914 4.386129 9.799372
vertex 8.569439 4.365376 9.799372
vertex 8.569439 4.386129 9.799372
endloop
endfacet
facet normal 0 0 0
outer loop
vertex 8.610390 4.365376 9.799372
vertex 8.589914 4.365376 9.799372
vertex 8.610390 4.386129 9.799372
endloop
endfacet
facet normal 0 0 0
outer loop
vertex 8.610390 4.386129 9.799372
vertex 8.589914 4.365376 9.799372
vertex 8.589914 4.386129 9.799372
endloop
endfacet
facet normal 0 0 0
outer loop
vertex 8.630865 4.365376 9.799372
vertex 8.610390 4.365376 9.799372
vertex 8.630865 4.386129 9.799372
endloop
endfacet
facet normal 0 0 0
outer loop
vertex 8.630865 4.386129 9.799372
vertex 8.610390 4.365376 9.799372
vertex 8.610390 4.386129 9.799372
endloop
endfacet
facet normal 0 0 0
outer loop
vertex 8.528486 4.386129 9.799372
vertex 8.548962 4.406883 9.799372
vertex 8.548962 4.386129 9.799372
endloop
endfacet
facet normal 0 0 0
outer loop
vertex 8.569439 4.386129 9.799372
vertex 8.548962 4.386129 9.799372
vertex 8.569439 4.406883 9.799372
endloop
endfacet
facet normal 0 0 0
outer loop
vertex 8.569439 4.406883 9.799372
vertex 8.548962 4.386129 9.799372
vertex 8.548962 4.406883 9.799372
endloop
endfacet
facet normal 0 0 0
outer loop
vertex 8.589914 4.386129 9.799372
vertex 8.569439 4.386129 9.799372
vertex 8.589914 4.406883 9.799372
endloop
endfacet
facet normal 0 0 0
outer loop
vertex 8.589914 4.406883 9.799372
vertex 8.569439 4.386129 9.799372
vertex 8.569439 4.406883 9.799372
endloop
endfacet
facet normal 0 0 0
outer loop
vertex 8.610390 4.386129 9.799372
vertex 8.589914 4.386129 9.799372
vertex 8.610390 4.406883 9.799372
endloop
endfacet
facet normal 0 0 0
outer loop
vertex 8.610390 4.406883 9.799372
vertex 8.589914 4.386129 9.799372
vertex 8.589914 4.406883 9.799372
endloop
endfacet
facet normal 0 0 0
outer loop
vertex 8.630865 4.386129 9.799372
vertex 8.610390 4.386129 9.799372
vertex 8.630865 4.406883 9.799372
endloop
endfacet
facet normal 0 0 0
outer loop
vertex 8.630865 4.406883 9.799372
vertex 8.610390 4.386129 9.799372
vertex 8.610390 4.406883 9.799372
endloop
endfacet
facet normal 0 0 0
outer loop
vertex 8.569439 4.406883 9.799372
vertex 8.548962 4.406883 9.799372
vertex 8.569439 4.427636 9.799372
endloop
endfacet
facet normal 0 0 0
outer loop
vertex 8.569439 4.427636 9.799372
vertex 8.548962 4.406883 9.799372
vertex 8.548962 4.427636 9.799372
endloop
endfacet
facet normal 0 0 0
outer loop
vertex 8.589914 4.406883 9.799372
vertex 8.569439 4.406883 9.799372
vertex 8.589914 4.427636 9.799372
endloop
endfacet
facet normal 0 0 0
outer loop
vertex 8.589914 4.427636 9.799372
vertex 8.569439 4.406883 9.799372
vertex 8.569439 4.427636 9.799372
endloop
endfacet
facet normal 0 0 0
outer loop
vertex 8.610390 4.406883 9.799372
vertex 8.589914 4.406883 9.799372
vertex 8.610390 4.427636 9.799372
endloop
endfacet
facet normal 0 0 0
outer loop
vertex 8.610390 4.427636 9.799372
vertex 8.589914 4.406883 9.799372
vertex 8.589914 4.427636 9.799372
endloop
endfacet
facet normal 0 0 0
outer loop
vertex 8.610390 4.427636 9.799372
vertex 8.630865 4.406883 9.799372
vertex 8.610390 4.406883 9.799372
endloop
endfacet
facet normal 0 0 0
outer loop
vertex 8.548962 4.344623 9.819372
vertex 8.569439 4.344623 9.799372
vertex 8.569439 4.344623 9.819372
endloop
endfacet
facet normal 0 0 0
outer loop
vertex 8.589914 4.344623 9.799372
vertex 8.589914 4.344623 9.819372
vertex 8.569439 4.344623 9.799372
endloop
endfacet
facet normal 0 0 0
outer loop
vertex 8.569439 4.344623 9.799372
vertex 8.589914 4.344623 9.819372
vertex 8.569439 4.344623 9.819372
endloop
endfacet
facet normal 0 0 0
outer loop
vertex 8.610390 4.323870 9.819372
vertex 8.589914 4.344623 9.819372
vertex 8.610390 4.344623 9.799372
endloop
endfacet
facet normal 0 0 0
outer loop
vertex 8.589914 4.344623 9.819372
vertex 8.589914 4.344623 9.799372
vertex 8.610390 4.344623 9.799372
endloop
endfacet
facet normal 0 0 0
outer loop
vertex 8.610390 4.344623 9.799372
vertex 8.630865 4.344623 9.819372
vertex 8.610390 4.323870 9.819372
endloop
endfacet
facet normal 0 0 0
outer loop
vertex 8.548962 4.344623 9.819372
vertex 8.528486 4.365376 9.819372
vertex 8.548962 4.365376 9.799372
endloop
endfacet
facet normal 0 0 0
outer loop
vertex 8.569439 4.344623 9.799372
vertex 8.548962 4.344623 9.819372
vertex 8.548962 4.365376 9.799372
endloop
endfacet
facet normal 0 0 0
outer loop
vertex 8.610390 4.344623 9.799372
vertex 8.630865 4.365376 9.799372
vertex 8.630865 4.344623 9.819372
endloop
endfacet
facet normal 0 0 0
outer loop
vertex 8.630865 4.365376 9.799372
vertex 8.651342 4.365376 9.819372
vertex 8.630865 4.344623 9.819372
endloop
endfacet
facet normal 0 0 0
outer loop
vertex 8.651342 4.365376 9.819372
vertex 8.651342 4.344623 9.819372
vertex 8.630865 4.344623 9.819372
endloop
endfacet
facet normal 0 0 0
outer loop
vertex 8.528486 4.365376 9.819372
vertex 8.508011 4.386129 9.819372
vertex 8.528486 4.386129 9.799372
endloop
endfacet
facet normal 0 0 0
outer loop
vertex 8.548962 4.365376 9.799372
vertex 8.528486 4.365376 9.819372
vertex 8.528486 4.386129 9.799372
endloop
endfacet
facet normal 0 0 0
outer loop
vertex 8.651342 4.365376 9.819372
vertex 8.630865 4.386129 9.799372
vertex 8.651342 4.386129 9.819372
endloop
endfacet
facet normal 0 0 0
outer loop
vertex 8.630865 4.365376 9.799372
vertex 8.630865 4.386129 9.799372
vertex 8.651342 4.365376 9.819372
endloop
endfacet
facet normal 0 0 0
outer loop
vertex 8.528486 4.386129 9.799372
vertex 8.508011 4.386129 9.819372
vertex 8.528486 4.406883 9.819372
endloop
endfacet
facet normal 0 0 0
outer loop
vertex 8.508011 4.386129 9.819372
vertex 8.508011 4.406883 9.819372
vertex 8.528486 4.406883 9.819372
endloop
endfacet
facet normal 0 0 0
outer loop
vertex 8.528486 4.386129 9.799372
vertex 8.528486 4.406883 9.819372
vertex 8.548962 4.406883 9.799372
endloop
endfacet
facet normal 0 0 0
outer loop
vertex 8.651342 4.386129 9.819372
vertex 8.630865 4.406883 9.799372
vertex 8.651342 4.406883 9.819372
endloop
endfacet
facet normal 0 0 0
outer loop
vertex 8.630865 4.386129 9.799372
vertex 8.630865 4.406883 9.799372
vertex 8.651342 4.386129 9.819372
endloop
endfacet
facet normal 0 0 0
outer loop
vertex 8.528486 4.406883 9.819372
vertex 8.508011 4.406883 9.819372
vertex 8.528486 4.427636 9.819372
endloop
endfacet
facet normal 0 0 0
outer loop
vertex 8.528486 4.427636 9.819372
vertex 8.508011 4.406883 9.819372
vertex 8.508011 4.427636 9.819372
endloop
endfacet
facet normal 0 0 0
outer loop
vertex 8.548962 4.406883 9.799372
vertex 8.528486 4.427636 9.819372
vertex 8.548962 4.427636 9.799372
endloop
endfacet
facet normal 0 0 0
outer loop
vertex 8.528486 4.406883 9.819372
vertex 8.528486 4.427636 9.819372
vertex 8.548962 4.406883 9.799372
endloop
endfacet
facet normal 0 0 0
outer loop
vertex 8.630865 4.406883 9.799372
vertex 8.610390 4.427636 9.799372
vertex 8.630865 4.427636 9.819372
endloop
endfacet
facet normal 0 0 0
outer loop
vertex 8.630865 4.406883 9.799372
vertex 8.630865 4.427636 9.819372
vertex 8.651342 4.406883 9.819372
endloop
endfacet
facet normal 0 0 0
outer loop
vertex 8.630865 4.427636 9.819372
vertex 8.651342 4.427636 9.819372
vertex 8.651342 4.406883 9.819372
endloop
endfacet
facet normal 0 0 0
outer loop
vertex 8.528486 4.427636 9.819372
vertex 8.508011 4.427636 9.819372
vertex 8.528486 4.448390 9.819372
endloop
endfacet
facet normal 0 0 0
outer loop
vertex 8.528486 4.448390 9.819372
vertex 8.508011 4.427636 9.819372
vertex 8.508011 4.448390 9.819372
endloop
endfacet
facet normal 0 0 0
outer loop
vertex 8.548962 4.427636 9.799372
vertex 8.528486 4.427636 9.819372
vertex 8.548962 4.448390 9.819372
endloop
endfacet
facet normal 0 0 0
outer loop
vertex 8.528486 4.427636 9.819372
vertex 8.528486 4.448390 9.819372
vertex 8.548962 4.448390 9.819372
endloop
endfacet
facet normal 0 0 0
outer loop
vertex 8.548962 4.427636 9.799372
vertex 8.569439 4.448390 9.819372
vertex 8.569439 4.427636 9.799372
endloop
endfacet
facet normal 0 0 0
outer loop
vertex 8.548962 4.448390 9.819372
vertex 8.569439 4.448390 9.819372
vertex 8.548962 4.427636 9.799372
endloop
endfacet
facet normal 0 0 0
outer loop
vertex 8.569439 4.427636 9.799372
vertex 8.589914 4.448390 9.819372
vertex 8.589914 4.427636 9.799372
endloop
endfacet
facet normal 0 0 0
outer loop
vertex 8.569439 4.448390 9.819372
vertex 8.589914 4.448390 9.819372
vertex 8.569439 4.427636 9.799372
endloop
endfacet
facet normal 0 0 0
outer loop
vertex 8.589914 4.427636 9.799372
vertex 8.610390 4.448390 9.819372
vertex 8.610390 4.427636 9.799372
endloop
endfacet
facet normal 0 0 0
outer loop
vertex 8.589914 4.448390 9.819372
vertex 8.610390 4.448390 9.819372
vertex 8.589914 4.427636 9.799372
endloop
endfacet
facet normal 0 0 0
outer loop
vertex 8.610390 4.427636 9.799372
vertex 8.610390 4.448390 9.819372
vertex 8.630865 4.427636 9.819372
endloop
endfacet
facet normal 0 0 0
outer loop
vertex 8.610390 4.448390 9.819372
vertex 8.630865 4.448390 9.819372
vertex 8.630865 4.427636 9.819372
endloop
endfacet
facet normal 0 0 0
outer loop
vertex 8.651342 4.427636 9.819372
vertex 8.630865 4.427636 9.819372
vertex 8.651342 4.448390 9.819372
endloop
endfacet
facet normal 0 0 0
outer loop
vertex 8.651342 4.448390 9.819372
vertex 8.630865 4.427636 9.819372
vertex 8.630865 4.448390 9.819372
endloop
endfacet
facet normal 0 0 0
outer loop
vertex 8.528486 4.448390 9.819372
vertex 8.508011 4.448390 9.819372
vertex 8.528486 4.469143 9.819372
endloop
endfacet
facet normal 0 0 0
outer loop
vertex 8.528486 4.469143 9.819372
vertex 8.508011 4.448390 9.819372
vertex 8.508011 4.469143 9.819372
endloop
endfacet
facet normal 0 0 0
outer loop
vertex 8.548962 4.448390 9.819372
vertex 8.528486 4.448390 9.819372
vertex 8.548962 4.469143 9.819372
endloop
endfacet
facet normal 0 0 0
outer loop
vertex 8.548962 4.469143 9.819372
vertex 8.528486 4.448390 9.819372
vertex 8.528486 4.469143 9.819372
endloop
endfacet
facet normal 0 0 0
outer loop
vertex 8.569439 4.448390 9.819372
vertex 8.548962 4.448390 9.819372
vertex 8.569439 4.469143 9.819372
endloop
endfacet
facet normal 0 0 0
outer loop
vertex 8.569439 4.469143 9.819372
vertex 8.548962 4.448390 9.819372
vertex 8.548962 4.469143 9.819372
endloop
endfacet
facet normal 0 0 0
outer loop
vertex 8.589914 4.448390 9.819372
vertex 8.569439 4.448390 9.819372
vertex 8.589914 4.469143 9.819372
endloop
endfacet
facet normal 0 0 0
outer loop
vertex 8.589914 4.469143 9.819372
vertex 8.569439 4.448390 9.819372
vertex 8.569439 4.469143 9.819372
endloop
endfacet
facet normal 0 0 0
outer loop
vertex 8.610390 4.448390 9.819372
vertex 8.589914 4.448390 9.819372
vertex 8.610390 4.469143 9.819372
endloop
endfacet
facet normal 0 0 0
outer loop
vertex 8.610390 4.469143 9.819372
vertex 8.589914 4.448390 9.819372
vertex 8.589914 4.469143 9.819372
endloop
endfacet
facet normal 0 0 0
outer loop
vertex 8.630865 4.448390 9.819372
vertex 8.610390 4.448390 9.819372
vertex 8.630865 4.469143 9.819372
endloop
endfacet
facet normal 0 0 0
outer loop
vertex 8.630865 4.469143 9.819372
vertex 8.610390 4.448390 9.819372
vertex 8.610390 4.469143 9.819372
endloop
endfacet
facet normal 0 0 0
outer loop
vertex 8.651342 4.448390 9.819372
vertex 8.630865 4.448390 9.819372
vertex 8.651342 4.469143 9.819372
endloop
endfacet
facet normal 0 0 0
outer loop
vertex 8.651342 4.469143 9.819372
vertex 8.630865 4.448390 9.819372
vertex 8.630865 4.469143 9.819372
endloop
endfacet
facet normal 0 0 0
outer loop
vertex 8.528486 4.469143 9.819372
vertex 8.508011 4.469143 9.819372
vertex 8.528486 4.489896 9.819372
endloop
endfacet
facet normal 0 0 0
outer loop
vertex 8.528486 4.489896 9.819372
vertex 8.508011 4.469143 9.819372
vertex 8.508011 4.489896 9.819372
endloop
endfacet
facet normal 0 0 0
outer loop
vertex 8.548962 4.469143 9.819372
vertex 8.528486 4.469143 9.819372
vertex 8.548962 4.489896 9.819372
endloop
endfacet
facet normal 0 0 0
outer loop
vertex 8.548962 4.489896 9.819372
vertex 8.528486 4.469143 9.819372
vertex 8.528486 4.489896 9.819372
endloop
endfacet
facet normal 0 0 0
outer loop
vertex 8.569439 4.469143 9.819372
vertex 8.548962 4.469143 9.819372
vertex 8.569439 4.489896 9.819372
endloop
endfacet
facet normal 0 0 0
outer loop
vertex 8.569439 4.489896 9.819372
vertex 8.548962 4.469143 9.819372
vertex 8.548962 4.489896 9.819372
endloop
endfacet
facet normal 0 0 0
outer loop
vertex 8.589914 4.469143 9.819372
vertex 8.569439 4.469143 9.819372
vertex 8.589914 4.489896 9.819372
endloop
endfacet
facet normal 0 0 0
outer loop
vertex 8.589914 4.489896 9.819372
vertex 8.569439 4.469143 9.819372
vertex 8.569439 4.489896 9.819372
endloop
endfacet
facet normal 0 0 0
outer loop
vertex 8.610390 4.469143 9.819372
vertex 8.589914 4.469143 9.819372
vertex 8.610390 4.489896 9.819372
endloop
endfacet
facet normal 0 0 0
outer loop
vertex 8.610390 4.489896 9.819372
vertex 8.589914 4.469143 9.819372
vertex 8.589914 4.489896 9.819372
endloop
endfacet
facet normal 0 0 0
outer loop
vertex 8.630865 4.469143 9.819372
vertex 8.610390 4.469143 9.819372
vertex 8.630865 4.489896 9.819372
endloop
endfacet
facet normal 0 0 0
outer loop
vertex 8.630865 4.489896 9.819372
vertex 8.610390 4.469143 9.819372
vertex 8.610390 4.489896 9.819372
endloop
endfacet
facet normal 0 0 0
outer loop
vertex 8.651342 4.469143 9.819372
vertex 8.630865 4.469143 9.819372
vertex 8.651342 4.489896 9.819372
endloop
endfacet
facet normal 0 0 0
outer loop
vertex 8.651342 4.489896 9.819372
vertex 8.630865 4.469143 9.819372
vertex 8.630865 4.489896 9.819372
endloop
endfacet
facet normal 0 0 0
outer loop
vertex 8.508011 4.489896 9.819372
vertex 8.528486 4.510650 9.819372
vertex 8.528486 4.489896 9.819372
endloop
endfacet
facet normal 0 0 0
outer loop
vertex 8.548962 4.489896 9.819372
vertex 8.528486 4.489896 9.819372
vertex 8.548962 4.510650 9.819372
endloop
endfacet
facet normal 0 0 0
outer loop
vertex 8.548962 4.510650 9.819372
vertex 8.528486 4.489896 9.819372
vertex 8.528486 4.510650 9.819372
endloop
endfacet
facet normal 0 0 0
outer loop
vertex 8.569439 4.489896 9.819372
vertex 8.548962 4.489896 9.819372
vertex 8.569439 4.510650 9.819372
endloop
endfacet
facet normal 0 0 0
outer loop
vertex 8.569439 4.510650 9.819372
vertex 8.548962 4.489896 9.819372
vertex 8.548962 4.510650 9.819372
endloop
endfacet
facet normal 0 0 0
outer loop
vertex 8.589914 4.489896 9.819372
vertex 8.569439 4.489896 9.819372
vertex 8.589914 4.510650 9.819372
endloop
endfacet
facet normal 0 0 0
outer loop
vertex 8.589914 4.510650 9.819372
vertex 8.569439 4.489896 9.819372
vertex 8.569439 4.510650 9.819372
endloop
endfacet
facet normal 0 0 0
outer loop
vertex 8.610390 4.489896 9.819372
vertex 8.589914 4.489896 9.819372
vertex 8.610390 4.510650 9.819372
endloop
endfacet
facet normal 0 0 0
outer loop
vertex 8.610390 4.510650 9.819372
vertex 8.589914 4.489896 9.819372
vertex 8.589914 4.510650 9.819372
endloop
endfacet
facet normal 0 0 0
outer loop
vertex 8.630865 4.489896 9.819372
vertex 8.610390 4.489896 9.819372
vertex 8.630865 4.510650 9.819372
endloop
endfacet
facet normal 0 0 0
outer loop
vertex 8.630865 4.510650 9.819372
vertex 8.610390 4.489896 9.819372
vertex 8.610390 4.510650 9.819372
endloop
endfacet
facet normal 0 0 0
outer loop
vertex 8.630865 4.510650 9.819372
vertex 8.651342 4.489896 9.819372
vertex 8.630865 4.489896 9.819372
endloop
endfacet
facet normal 0 0 0
outer loop
vertex 8.528486 4.510650 9.819372
vertex 8.508011 4.531403 9.819372
vertex 8.528486 4.531403 9.819372
endloop
endfacet
facet normal 0 0 0
outer loop
vertex 8.548962 4.510650 9.819372
vertex 8.528486 4.510650 9.819372
vertex 8.548962 4.531403 9.819372
endloop
endfacet
facet normal 0 0 0
outer loop
vertex 8.548962 4.531403 9.819372
vertex 8.528486 4.510650 9.819372
vertex 8.528486 4.531403 9.819372
endloop
endfacet
facet normal 0 0 0
outer loop
vertex 8.569439 4.510650 9.819372
vertex 8.548962 4.510650 9.819372
vertex 8.569439 4.531403 9.819372
endloop
endfacet
facet normal 0 0 0
outer loop
vertex 8.569439 4.531403 9.819372
vertex 8.548962 4.510650 9.819372
vertex 8.548962 4.531403 9.819372
endloop
endfacet
facet normal 0 0 0
outer loop
vertex 8.589914 4.510650 9.819372
vertex 8.569439 4.510650 9.819372
vertex 8.589914 4.531403 9.819372
endloop
endfacet
facet normal 0 0 0
outer loop
vertex 8.589914 4.531403 9.819372
vertex 8.569439 4.510650 9.819372
vertex 8.569439 4.531403 9.819372
endloop
endfacet
facet normal 0 0 0
outer loop
vertex 8.610390 4.510650 9.819372
vertex 8.589914 4.510650 9.819372
vertex 8.610390 4.531403 9.819372
endloop
endfacet
facet normal 0 0 0
outer loop
vertex 8.610390 4.531403 9.819372
vertex 8.589914 4.510650 9.819372
vertex 8.589914 4.531403 9.819372
endloop
endfacet
facet normal 0 0 0
outer loop
vertex 8.630865 4.510650 9.819372
vertex 8.610390 4.510650 9.819372
vertex 8.630865 4.531403 9.819372
endloop
endfacet
facet normal 0 0 0
outer loop
vertex 8.630865 4.531403 9.819372
vertex 8.610390 4.510650 9.819372
vertex 8.610390 4.531403 9.819372
endloop
endfacet
facet normal 0 0 0
outer loop
vertex 8.508011 4.531403 9.819372
vertex 8.528486 4.552156 9.819372
vertex 8.528486 4.531403 9.819372
endloop
endfacet
facet normal 0 0 0
outer loop
vertex 8.548962 4.531403 9.819372
vertex 8.528486 4.531403 9.819372
vertex 8.548962 4.552156 9.819372
endloop
endfacet
facet normal 0 0 0
outer loop
vertex 8.548962 4.552156 9.819372
vertex 8.528486 4.531403 9.819372
vertex 8.528486 4.552156 9.819372
endloop
endfacet
facet normal 0 0 0
outer loop
vertex 8.569439 4.531403 9.819372
vertex 8.548962 4.531403 9.819372
vertex 8.569439 4.552156 9.819372
endloop
endfacet
facet normal 0 0 0
outer loop
vertex 8.569439 4.552156 9.819372
vertex 8.548962 4.531403 9.819372
vertex 8.548962 4.552156 9.819372
endloop
endfacet
facet normal 0 0 0
outer loop
vertex 8.589914 4.531403 9.819372
vertex 8.569439 4.531403 9.819372
vertex 8.589914 4.552156 9.819372
endloop
endfacet
facet normal 0 0 0
outer loop
vertex 8.589914 4.552156 9.819372
vertex 8.569439 4.531403 9.819372
vertex 8.569439 4.552156 9.819372
endloop
endfacet
facet normal 0 0 0
outer loop
vertex 8.610390 4.531403 9.819372
vertex 8.589914 4.531403 9.819372
vertex 8.610390 4.552156 9.819372
endloop
endfacet
facet normal 0 0 0
outer loop
vertex 8.610390 4.552156 9.819372
vertex 8.589914 4.531403 9.819372
vertex 8.589914 4.552156 9.819372
endloop
endfacet
facet normal 0 0 0
outer loop
vertex 8.610390 4.552156 9.819372
vertex 8.630865 4.531403 9.819372
vertex 8.610390 4.531403 9.819372
endloop
endfacet
facet normal 0 0 0
outer loop
vertex 8.569439 4.344623 9.819372
vertex 8.569439 4.344623 9.839372
vertex 8.548962 4.344623 9.819372
endloop
endfacet
facet normal 0 0 0
outer loop
vertex 8.548962 4.344623 9.819372
vertex 8.569439 4.344623 9.839372
vertex 8.548962 4.344623 9.839372
endloop
endfacet
facet normal 0 0 0
outer loop
vertex 8.589914 4.344623 9.819372
vertex 8.589914 4.344623 9.839372
vertex 8.569439 4.344623 9.819372
endloop
endfacet
facet normal 0 0 0
outer loop
vertex 8.569439 4.344623 9.819372
vertex 8.589914 4.344623 9.839372
vertex 8.569439 4.344623 9.839372
endloop
endfacet
facet normal 0 0 0
outer loop
vertex 8.610390 4.323870 9.819372
vertex 8.610390 4.344623 9.839372
vertex 8.589914 4.344623 9.819372
endloop
endfacet
facet normal 0 0 0
outer loop
vertex 8.610390 4.344623 9.839372
vertex 8.589914 4.344623 9.839372
vertex 8.589914 4.344623 9.819372
endloop
endfacet
facet normal 0 0 0
outer loop
vertex 8.630865 4.344623 9.819372
vertex 8.610390 4.344623 9.839372
vertex 8.610390 4.323870 9.819372
endloop
endfacet
facet normal 0 0 0
outer loop
vertex 8.548962 4.344623 9.839372
vertex 8.528486 4.365376 9.819372
vertex 8.548962 4.344623 9.819372
endloop
endfacet
facet normal 0 0 0
outer loop
vertex 8.528486 4.365376 9.839372
vertex 8.528486 4.365376 9.819372
vertex 8.548962 4.344623 9.839372
endloop
endfacet
facet normal 0 0 0
outer loop
vertex 8.630865 4.344623 9.819372
vertex 8.630865 4.365376 9.839372
vertex 8.610390 4.344623 9.839372
endloop
endfacet
facet normal 0 0 0
outer loop
vertex 8.651342 4.344623 9.819372
vertex 8.630865 4.365376 9.839372
vertex 8.630865 4.344623 9.819372
endloop
endfacet
facet normal 0 0 0
outer loop
vertex 8.651342 4.365376 9.839372
vertex 8.630865 4.365376 9.839372
vertex 8.651342 4.344623 9.819372
endloop
endfacet
facet normal 0 0 0
outer loop
vertex 8.651342 4.365376 9.839372
vertex 8.651342 4.344623 9.819372
vertex 8.651342 4.365376 9.819372
endloop
endfacet
facet normal 0 0 0
outer loop
vertex 8.508011 4.386129 9.819372
vertex 8.528486 4.365376 9.819372
vertex 8.528486 4.386129 9.839372
endloop
endfacet
facet normal 0 0 0
outer loop
vertex 8.528486 4.365376 9.819372
vertex 8.528486 4.365376 9.839372
vertex 8.528486 4.386129 9.839372
endloop
endfacet
facet normal 0 0 0
outer loop
vertex 8.651342 4.365376 9.819372
vertex 8.651342 4.386129 9.819372
vertex 8.651342 4.365376 9.839372
endloop
endfacet
facet normal 0 0 0
outer loop
vertex 8.651342 4.365376 9.839372
vertex 8.651342 4.386129 9.819372
vertex 8.651342 4.386129 9.839372
endloop
endfacet
facet normal 0 0 0
outer loop
vertex 8.528486 4.406883 9.839372
vertex 8.508011 4.386129 9.819372
vertex 8.528486 4.386129 9.839372
endloop
endfacet
facet normal 0 0 0
outer loop
vertex 8.508011 4.406883 9.819372
vertex 8.508011 4.386129 9.819372
vertex 8.528486 4.406883 9.839372
endloop
endfacet
facet normal 0 0 0
outer loop
vertex 8.671818 4.406883 9.839372
vertex 8.651342 4.386129 9.839372
vertex 8.651342 4.406883 9.819372
endloop
endfacet
facet normal 0 0 0
outer loop
vertex 8.651342 4.386129 9.839372
vertex 8.651342 4.386129 9.819372
vertex 8.651342 4.406883 9.819372
endloop
endfacet
facet normal 0 0 0
outer loop
vertex 8.508011 4.406883 9.819372
vertex 8.508011 4.427636 9.839372
vertex 8.508011 4.427636 9.819372
endloop
endfacet
facet normal 0 0 0
outer loop
vertex 8.528486 4.406883 9.839372
vertex 8.508011 4.427636 9.839372
vertex 8.508011 4.406883 9.819372
endloop
endfacet
facet normal 0 0 0
outer loop
vertex 8.671818 4.406883 9.839372
vertex 8.651342 4.427636 9.819372
vertex 8.671818 4.427636 9.839372
endloop
endfacet
facet normal 0 0 0
outer loop
vertex 8.651342 4.406883 9.819372
vertex 8.651342 4.427636 9.819372
vertex 8.671818 4.406883 9.839372
endloop
endfacet
facet normal 0 0 0
outer loop
vertex 8.508011 4.427636 9.819372
vertex 8.508011 4.427636 9.839372
vertex 8.508011 4.448390 9.819372
endloop
endfacet
facet normal 0 0 0
outer loop
vertex 8.508011 4.427636 9.839372
vertex 8.508011 4.448390 9.839372
vertex 8.508011 4.448390 9.819372
endloop
endfacet
facet normal 0 0 0
outer loop
vertex 8.671818 4.427636 9.839372
vertex 8.651342 4.448390 9.819372
vertex 8.671818 4.448390 9.839372
endloop
endfacet
facet normal 0 0 0
outer loop
vertex 8.651342 4.427636 9.819372
vertex 8.651342 4.448390 9.819372
vertex 8.671818 4.427636 9.839372
endloop
endfacet
facet normal 0 0 0
outer loop
vertex 8.508011 4.448390 9.819372
vertex 8.508011 4.448390 9.839372
vertex 8.508011 4.469143 9.819372
endloop
endfacet
facet normal 0 0 0
outer loop
vertex 8.508011 4.448390 9.839372
vertex 8.508011 4.469143 9.839372
vertex 8.508011 4.469143 9.819372
endloop
endfacet
facet normal 0 0 0
outer loop
vertex 8.671818 4.448390 9.839372
vertex 8.651342 4.469143 9.819372
vertex 8.671818 4.469143 9.839372
endloop
endfacet
facet normal 0 0 0
outer loop
vertex 8.651342 4.448390 9.819372
vertex 8.651342 4.469143 9.819372
vertex 8.671818 4.448390 9.839372
endloop
endfacet
facet normal 0 0 0
outer loop
vertex 8.508011 4.469143 9.819372
vertex 8.508011 4.469143 9.839372
vertex 8.508011 4.489896 9.819372
endloop
endfacet
facet normal 0 0 0
outer loop
vertex 8.508011 4.469143 9.839372
vertex 8.508011 4.489896 9.839372
vertex 8.508011 4.489896 9.819372
endloop
endfacet
facet normal 0 0 0
outer loop
vertex 8.671818 4.469143 9.839372
vertex 8.651342 4.489896 9.819372
vertex 8.671818 4.489896 9.839372
endloop
endfacet
facet normal 0 0 0
outer loop
vertex 8.651342 4.469143 9.819372
vertex 8.651342 4.489896 9.819372
vertex 8.671818 4.469143 9.839372
endloop
endfacet
facet normal 0 0 0
outer loop
vertex 8.508011 4.510650 9.839372
vertex 8.508011 4.489896 9.819372
vertex 8.508011 4.489896 9.839372
endloop
endfacet
facet normal 0 0 0
outer loop
vertex 8.508011 4.489896 9.819372
vertex 8.508011 4.510650 9.839372
vertex 8.528486 4.510650 9.819372
endloop
endfacet
facet normal 0 0 0
outer loop
vertex 8.651342 4.489896 9.819372
vertex 8.630865 4.510650 9.819372
vertex 8.651342 4.510650 9.839372
endloop
endfacet
facet normal 0 0 0
outer loop
vertex 8.651342 4.489896 9.819372
vertex 8.651342 4.510650 9.839372
vertex 8.671818 4.489896 9.839372
endloop
endfacet
facet normal 0 0 0
outer loop
vertex 8.651342 4.510650 9.839372
vertex 8.671818 4.510650 9.839372
vertex 8.671818 4.489896 9.839372
endloop
endfacet
facet normal 0 0 0
outer loop
vertex 8.508011 4.531403 9.819372
vertex 8.508011 4.510650 9.839372
vertex 8.508011 4.531403 9.839372
endloop
endfacet
facet normal 0 0 0
outer loop
vertex 8.528486 4.510650 9.819372
vertex 8.508011 4.510650 9.839372
vertex 8.508011 4.531403 9.819372
endloop
endfacet
facet normal 0 0 0
outer loop
vertex 8.651342 4.510650 9.839372
vertex 8.630865 4.531403 9.819372
vertex 8.651342 4.531403 9.839372
endloop
endfacet
facet normal 0 0 0
outer loop
vertex 8.630865 4.510650 9.819372
vertex 8.630865 4.531403 9.819372
vertex 8.651342 4.510650 9.839372
endloop
endfacet
facet normal 0 0 0
outer loop
vertex 8.651342 4.531403 9.839372
vertex 8.671818 4.510650 9.839372
vertex 8.651342 4.510650 9.839372
endloop
endfacet
facet normal 0 0 0
outer loop
vertex 8.508011 4.552156 9.839372
vertex 8.508011 4.531403 9.819372
vertex 8.508011 4.531403 9.839372
endloop
endfacet
facet normal 0 0 0
outer loop
vertex 8.508011 4.531403 9.819372
vertex 8.508011 4.552156 9.839372
vertex 8.528486 4.552156 9.819372
endloop
endfacet
facet normal 0 0 0
outer loop
vertex 8.630865 4.531403 9.819372
vertex 8.610390 4.552156 9.819372
vertex 8.630865 4.552156 9.839372
endloop
endfacet
facet normal 0 0 0
outer loop
vertex 8.630865 4.531403 9.819372
vertex 8.630865 4.552156 9.839372
vertex 8.651342 4.531403 9.839372
endloop
endfacet
facet normal 0 0 0
outer loop
vertex 8.630865 4.552156 9.839372
vertex 8.651342 4.552156 9.839372
vertex 8.651342 4.531403 9.839372
endloop
endfacet
facet normal 0 0 0
outer loop
vertex 8.528486 4.552156 9.819372
vertex 8.508011 4.552156 9.839372
vertex 8.528486 4.572909 9.839372
endloop
endfacet
facet normal 0 0 0
outer loop
vertex 8.528486 4.552156 9.819372
vertex 8.548962 4.572909 9.839372
vertex 8.548962 4.552156 9.819372
endloop
endfacet
facet normal 0 0 0
outer loop
vertex 8.528486 4.572909 9.839372
vertex 8.548962 4.572909 9.839372
vertex 8.528486 4.552156 9.819372
endloop
endfacet
facet normal 0 0 0
outer loop
vertex 8.548962 4.552156 9.819372
vertex 8.569439 4.572909 9.839372
vertex 8.569439 4.552156 9.819372
endloop
endfacet
facet normal 0 0 0
outer loop
vertex 8.548962 4.572909 9.839372
vertex 8.569439 4.572909 9.839372
vertex 8.548962 4.552156 9.819372
endloop
endfacet
facet normal 0 0 0
outer loop
vertex 8.569439 4.552156 9.819372
vertex 8.589914 4.572909 9.839372
vertex 8.589914 4.552156 9.819372
endloop
endfacet
facet normal 0 0 0
outer loop
vertex 8.569439 4.572909 9.839372
vertex 8.589914 4.572909 9.839372
vertex 8.569439 4.552156 9.819372
endloop
endfacet
facet normal 0 0 0
outer loop
vertex 8.589914 4.552156 9.819372
vertex 8.610390 4.572909 9.839372
vertex 8.610390 4.552156 9.819372
endloop
endfacet
facet normal 0 0 0
outer loop
vertex 8.589914 4.572909 9.839372
vertex 8.610390 4.572909 9.839372
vertex 8.589914 4.552156 9.819372
endloop
endfacet
facet normal 0 0 0
outer loop
vertex 8.610390 4.552156 9.819372
vertex 8.610390 4.572909 9.839372
vertex 8.630865 4.552156 9.839372
endloop
endfacet
facet normal 0 0 0
outer loop
vertex 8.610390 4.572909 9.839372
vertex 8.630865 4.572909 9.839372
vertex 8.630865 4.552156 9.839372
endloop
endfacet
facet normal 0 0 0
outer loop
vertex 8.630865 4.572909 9.839372
vertex 8.651342 4.552156 9.839372
vertex 8.630865 4.552156 9.839372
endloop
endfacet
facet normal 0 0 0
outer loop
vertex 8.548962 4.572909 9.839372
vertex 8.528486 4.572909 9.839372
vertex 8.548962 4.593663 9.839372
endloop
endfacet
facet normal 0 0 0
outer loop
vertex 8.548962 4.593663 9.839372
vertex 8.528486 4.572909 9.839372
vertex 8.528486 4.593663 9.839372
endloop
endfacet
facet normal 0 0 0
outer loop
vertex 8.569439 4.572909 9.839372
vertex 8.548962 4.572909 9.839372
vertex 8.569439 4.593663 9.839372
endloop
endfacet
facet normal 0 0 0
outer loop
vertex 8.569439 4.593663 9.839372
vertex 8.548962 4.572909 9.839372
vertex 8.548962 4.593663 9.839372
endloop
endfacet
facet normal 0 0 0
outer loop
vertex 8.589914 4.572909 9.839372
vertex 8.569439 4.572909 9.839372
vertex 8.589914 4.593663 9.839372
endloop
endfacet
facet normal 0 0 0
outer loop
vertex 8.589914 4.593663 9.839372
vertex 8.569439 4.572909 9.839372
vertex 8.569439 4.593663 9.839372
endloop
endfacet
facet normal 0 0 0
outer loop
vertex 8.610390 4.572909 9.839372
vertex 8.589914 4.572909 9.839372
vertex 8.610390 4.593663 9.839372
endloop
endfacet
facet normal 0 0 0
outer loop
vertex 8.610390 4.593663 9.839372
vertex 8.589914 4.572909 9.839372
vertex 8.589914 4.593663 9.839372
endloop
endfacet
facet normal 0 0 0
outer loop
vertex 8.610390 4.593663 9.839372
vertex 8.630865 4.572909 9.839372
vertex 8.610390 4.572909 9.839372
endloop
endfacet
facet normal 0 0 0
outer loop
vertex 8.528486 4.593663 9.839372
vertex 8.548962 4.614416 9.839372
vertex 8.548962 4.593663 9.839372
endloop
endfacet
facet normal 0 0 0
outer loop
vertex 8.569439 4.593663 9.839372
vertex 8.548962 4.593663 9.839372
vertex 8.569439 4.614416 9.839372
endloop
endfacet
facet normal 0 0 0
outer loop
vertex 8.569439 4.614416 9.839372
vertex 8.548962 4.593663 9.839372
vertex 8.548962 4.614416 9.839372
endloop
endfacet
facet normal 0 0 0
outer loop
vertex 8.589914 4.593663 9.839372
vertex 8.569439 4.593663 9.839372
vertex 8.589914 4.614416 9.839372
endloop
endfacet
facet normal 0 0 0
outer loop
vertex 8.589914 4.614416 9.839372
vertex 8.569439 4.593663 9.839372
vertex 8.569439 4.614416 9.839372
endloop
endfacet
facet normal 0 0 0
outer loop
vertex 8.589914 4.614416 9.839372
vertex 8.610390 4.593663 9.839372
vertex 8.589914 4.593663 9.839372
endloop
endfacet
facet normal 0 0 0
outer loop
vertex 8.528486 4.365376 9.839372
vertex 8.548962 4.344623 9.839372
vertex 8.548962 4.365376 9.839372
endloop
endfacet
facet normal 0 0 0
outer loop
vertex 8.569439 4.344623 9.839372
vertex 8.569439 4.365376 9.839372
vertex 8.548962 4.344623 9.839372
endloop
endfacet
facet normal 0 0 0
outer loop
vertex 8.569439 4.365376 9.839372
vertex 8.548962 4.365376 9.839372
vertex 8.548962 4.344623 9.839372
endloop
endfacet
facet normal 0 0 0
outer loop
vertex 8.589914 4.344623 9.839372
vertex 8.589914 4.365376 9.839372
vertex 8.569439 4.344623 9.839372
endloop
endfacet
facet normal 0 0 0
outer loop
vertex 8.589914 4.365376 9.839372
vertex 8.569439 4.365376 9.839372
vertex 8.569439 4.344623 9.839372
endloop
endfacet
facet normal 0 0 0
outer loop
vertex 8.610390 4.344623 9.839372
vertex 8.610390 4.365376 9.839372
vertex 8.589914 4.344623 9.839372
endloop
endfacet
facet normal 0 0 0
outer loop
vertex 8.610390 4.365376 9.839372
vertex 8.589914 4.365376 9.839372
vertex 8.589914 4.344623 9.839372
endloop
endfacet
facet normal 0 0 0
outer loop
vertex 8.610390 4.344623 9.839372
vertex 8.630865 4.365376 9.839372
vertex 8.610390 4.365376 9.839372
endloop
endfacet
facet normal 0 0 0
outer loop
vertex 8.548962 4.365376 9.839372
vertex 8.548962 4.386129 9.839372
vertex 8.528486 4.365376 9.839372
endloop
endfacet
facet normal 0 0 0
outer loop
vertex 8.548962 4.386129 9.839372
vertex 8.528486 4.386129 9.839372
vertex 8.528486 4.365376 9.839372
endloop
endfacet
facet normal 0 0 0
outer loop
vertex 8.569439 4.365376 9.839372
vertex 8.569439 4.386129 9.839372
vertex 8.548962 4.365376 9.839372
endloop
endfacet
facet normal 0 0 0
outer loop
vertex 8.569439 4.386129 9.839372
vertex 8.548962 4.386129 9.839372
vertex 8.548962 4.365376 9.839372
endloop
endfacet
facet normal 0 0 0
outer loop
vertex 8.589914 4.365376 9.839372
vertex 8.589914 4.386129 9.839372
vertex 8.569439 4.365376 9.839372
endloop
endfacet
facet normal 0 0 0
outer loop
vertex 8.589914 4.386129 9.839372
vertex 8.569439 4.386129 9.839372
vertex 8.569439 4.365376 9.839372
endloop
endfacet
facet normal 0 0 0
outer loop
vertex 8.610390 4.365376 9.839372
vertex 8.610390 4.386129 9.839372
vertex 8.589914 4.365376 9.839372
endloop
endfacet
facet normal 0 0 0
outer loop
vertex 8.610390 4.386129 9.839372
vertex 8.589914 4.386129 9.839372
vertex 8.589914 4.365376 9.839372
endloop
endfacet
facet normal 0 0 0
outer loop
vertex 8.630865 4.365376 9.839372
vertex 8.630865 4.386129 9.839372
vertex 8.610390 4.365376 9.839372
endloop
endfacet
facet normal 0 0 0
outer loop
vertex 8.630865 4.386129 9.839372
vertex 8.610390 4.386129 9.839372
vertex 8.610390 4.365376 9.839372
endloop
endfacet
facet normal 0 0 0
outer loop
vertex 8.651342 4.365376 9.839372
vertex 8.651342 4.386129 9.839372
vertex 8.630865 4.365376 9.839372
endloop
endfacet
facet normal 0 0 0
outer loop
vertex 8.651342 4.386129 9.839372
vertex 8.630865 4.386129 9.839372
vertex 8.630865 4.365376 9.839372
endloop
endfacet
facet normal 0 0 0
outer loop
vertex 8.548962 4.386129 9.839372
vertex 8.548962 4.406883 9.839372
vertex 8.528486 4.386129 9.839372
endloop
endfacet
facet normal 0 0 0
outer loop
vertex 8.548962 4.406883 9.839372
vertex 8.528486 4.406883 9.839372
vertex 8.528486 4.386129 9.839372
endloop
endfacet
facet normal 0 0 0
outer loop
vertex 8.569439 4.406883 9.859371
vertex 8.548962 4.406883 9.839372
vertex 8.569439 4.386129 9.839372
endloop
endfacet
facet normal 0 0 0
outer loop
vertex 8.548962 4.406883 9.839372
vertex 8.548962 4.386129 9.839372
vertex 8.569439 4.386129 9.839372
endloop
endfacet
facet normal 0 0 0
outer loop
vertex 8.589914 4.386129 9.839372
vertex 8.569439 4.406883 9.859371
vertex 8.569439 4.386129 9.839372
endloop
endfacet
facet normal 0 0 0
outer loop
vertex 8.589914 4.406883 9.859371
vertex 8.569439 4.406883 9.859371
vertex 8.589914 4.386129 9.839372
endloop
endfacet
facet normal 0 0 0
outer loop
vertex 8.610390 4.386129 9.839372
vertex 8.589914 4.406883 9.859371
vertex 8.589914 4.386129 9.839372
endloop
endfacet
facet normal 0 0 0
outer loop
vertex 8.610390 4.406883 9.859371
vertex 8.589914 4.406883 9.859371
vertex 8.610390 4.386129 9.839372
endloop
endfacet
facet normal 0 0 0
outer loop
vertex 8.630865 4.386129 9.839372
vertex 8.610390 4.406883 9.859371
vertex 8.610390 4.386129 9.839372
endloop
endfacet
facet normal 0 0 0
outer loop
vertex 8.630865 4.406883 9.859371
vertex 8.610390 4.406883 9.859371
vertex 8.630865 4.386129 9.839372
endloop
endfacet
facet normal 0 0 0
outer loop
vertex 8.651342 4.386129 9.839372
vertex 8.630865 4.406883 9.859371
vertex 8.630865 4.386129 9.839372
endloop
endfacet
facet normal 0 0 0
outer loop
vertex 8.651342 4.406883 9.859371
vertex 8.630865 4.406883 9.859371
vertex 8.651342 4.386129 9.839372
endloop
endfacet
facet normal 0 0 0
outer loop
vertex 8.671818 4.406883 9.839372
vertex 8.651342 4.406883 9.859371
vertex 8.651342 4.386129 9.839372
endloop
endfacet
facet normal 0 0 0
outer loop
vertex 8.508011 4.427636 9.839372
vertex 8.528486 4.406883 9.839372
vertex 8.528486 4.427636 9.839372
endloop
endfacet
facet normal 0 0 0
outer loop
vertex 8.548962 4.427636 9.859371
vertex 8.528486 4.427636 9.839372
vertex 8.548962 4.406883 9.839372
endloop
endfacet
facet normal 0 0 0
outer loop
vertex 8.528486 4.427636 9.839372
vertex 8.528486 4.406883 9.839372
vertex 8.548962 4.406883 9.839372
endloop
endfacet
facet normal 0 0 0
outer loop
vertex 8.569439 4.406883 9.859371
vertex 8.548962 4.427636 9.859371
vertex 8.548962 4.406883 9.839372
endloop
endfacet
facet normal 0 0 0
outer loop
vertex 8.671818 4.406883 9.839372
vertex 8.671818 4.427636 9.859371
vertex 8.651342 4.406883 9.859371
endloop
endfacet
facet normal 0 0 0
outer loop
vertex 8.671818 4.427636 9.859371
vertex 8.671818 4.406883 9.839372
vertex 8.671818 4.427636 9.839372
endloop
endfacet
facet normal 0 0 0
outer loop
vertex 8.528486 4.427636 9.839372
vertex 8.528486 4.448390 9.839372
vertex 8.508011 4.427636 9.839372
endloop
endfacet
facet normal 0 0 0
outer loop
vertex 8.528486 4.448390 9.839372
vertex 8.508011 4.448390 9.839372
vertex 8.508011 4.427636 9.839372
endloop
endfacet
facet normal 0 0 0
outer loop
vertex 8.548962 4.448390 9.859371
vertex 8.528486 4.427636 9.839372
vertex 8.548962 4.427636 9.859371
endloop
endfacet
facet normal 0 0 0
outer loop
vertex 8.528486 4.448390 9.839372
vertex 8.528486 4.427636 9.839372
vertex 8.548962 4.448390 9.859371
endloop
endfacet
facet normal 0 0 0
outer loop
vertex 8.671818 4.427636 9.839372
vertex 8.671818 4.448390 9.839372
vertex 8.671818 4.427636 9.859371
endloop
endfacet
facet normal 0 0 0
outer loop
vertex 8.671818 4.427636 9.859371
vertex 8.671818 4.448390 9.839372
vertex 8.671818 4.448390 9.859371
endloop
endfacet
facet normal 0 0 0
outer loop
vertex 8.528486 4.469143 9.859371
vertex 8.508011 4.469143 9.839372
vertex 8.528486 4.448390 9.839372
endloop
endfacet
facet normal 0 0 0
outer loop
vertex 8.508011 4.469143 9.839372
vertex 8.508011 4.448390 9.839372
vertex 8.528486 4.448390 9.839372
endloop
endfacet
facet normal 0 0 0
outer loop
vertex 8.548962 4.448390 9.859371
vertex 8.528486 4.469143 9.859371
vertex 8.528486 4.448390 9.839372
endloop
endfacet
facet normal 0 0 0
outer loop
vertex 8.671818 4.448390 9.839372
vertex 8.671818 4.469143 9.839372
vertex 8.671818 4.448390 9.859371
endloop
endfacet
facet normal 0 0 0
outer loop
vertex 8.671818 4.448390 9.859371
vertex 8.671818 4.469143 9.839372
vertex 8.671818 4.469143 9.859371
endloop
endfacet
facet normal 0 0 0
outer loop
vertex 8.528486 4.489896 9.859371
vertex 8.508011 4.469143 9.839372
vertex 8.528486 4.469143 9.859371
endloop
endfacet
facet normal 0 0 0
outer loop
vertex 8.508011 4.489896 9.839372
vertex 8.508011 4.469143 9.839372
vertex 8.528486 4.489896 9.859371
endloop
endfacet
facet normal 0 0 0
outer loop
vertex 8.671818 4.469143 9.839372
vertex 8.671818 4.489896 9.839372
vertex 8.671818 4.469143 9.859371
endloop
endfacet
facet normal 0 0 0
outer loop
vertex 8.671818 4.469143 9.859371
vertex 8.671818 4.489896 9.839372
vertex 8.671818 4.489896 9.859371
endloop
endfacet
facet normal 0 0 0
outer loop
vertex 8.528486 4.510650 9.859371
vertex 8.508011 4.489896 9.839372
vertex 8.528486 4.489896 9.859371
endloop
endfacet
facet normal 0 0 0
outer loop
vertex 8.508011 4.510650 9.839372
vertex 8.508011 4.489896 9.839372
vertex 8.528486 4.510650 9.859371
endloop
endfacet
facet normal 0 0 0
outer loop
vertex 8.671818 4.489896 9.839372
vertex 8.671818 4.510650 9.839372
vertex 8.671818 4.489896 9.859371
endloop
endfacet
facet normal 0 0 0
outer loop
vertex 8.671818 4.489896 9.859371
vertex 8.671818 4.510650 9.839372
vertex 8.671818 4.510650 9.859371
endloop
endfacet
facet normal 0 0 0
outer loop
vertex 8.528486 4.531403 9.859371
vertex 8.508011 4.510650 9.839372
vertex 8.528486 4.510650 9.859371
endloop
endfacet
facet normal 0 0 0
outer loop
vertex 8.508011 4.531403 9.839372
vertex 8.508011 4.510650 9.839372
vertex 8.528486 4.531403 9.859371
endloop
endfacet
facet normal 0 0 0
outer loop
vertex 8.671818 4.510650 9.839372
vertex 8.651342 4.531403 9.859371
vertex 8.671818 4.510650 9.859371
endloop
endfacet
facet normal 0 0 0
outer loop
vertex 8.651342 4.531403 9.839372
vertex 8.651342 4.531403 9.859371
vertex 8.671818 4.510650 9.839372
endloop
endfacet
facet normal 0 0 0
outer loop
vertex 8.528486 4.552156 9.859371
vertex 8.508011 4.531403 9.839372
vertex 8.528486 4.531403 9.859371
endloop
endfacet
facet normal 0 0 0
outer loop
vertex 8.508011 4.552156 9.839372
vertex 8.508011 4.531403 9.839372
vertex 8.528486 4.552156 9.859371
endloop
endfacet
facet normal 0 0 0
outer loop
vertex 8.651342 4.531403 9.839372
vertex 8.651342 4.552156 9.839372
vertex 8.651342 4.531403 9.859371
endloop
endfacet
facet normal 0 0 0
outer loop
vertex 8.651342 4.531403 9.859371
vertex 8.651342 4.552156 9.839372
vertex 8.651342 4.552156 9.859371
endloop
endfacet
facet normal 0 0 0
outer loop
vertex 8.508011 4.552156 9.839372
vertex 8.528486 4.552156 9.859371
vertex 8.528486 4.572909 9.839372
endloop
endfacet
facet normal 0 0 0
outer loop
vertex 8.528486 4.552156 9.859371
vertex 8.528486 4.572909 9.859371
vertex 8.528486 4.572909 9.839372
endloop
endfacet
facet normal 0 0 0
outer loop
vertex 8.651342 4.552156 9.839372
vertex 8.630865 4.572909 9.839372
vertex 8.651342 4.572909 9.859371
endloop
endfacet
facet normal 0 0 0
outer loop
vertex 8.651342 4.552156 9.839372
vertex 8.651342 4.572909 9.859371
vertex 8.651342 4.552156 9.859371
endloop
endfacet
facet normal 0 0 0
outer loop
vertex 8.528486 4.572909 9.839372
vertex 8.528486 4.572909 9.859371
vertex 8.528486 4.593663 9.839372
endloop
endfacet
facet normal 0 0 0
outer loop
vertex 8.528486 4.572909 9.859371
vertex 8.528486 4.593663 9.859371
vertex 8.528486 4.593663 9.839372
endloop
endfacet
facet normal 0 0 0
outer loop
vertex 8.630865 4.572909 9.839372
vertex 8.610390 4.593663 9.839372
vertex 8.630865 4.593663 9.859371
endloop
endfacet
facet normal 0 0 0
outer loop
vertex 8.630865 4.572909 9.839372
vertex 8.630865 4.593663 9.859371
vertex 8.651342 4.572909 9.859371
endloop
endfacet
facet normal 0 0 0
outer loop
vertex 8.528486 4.614416 9.859371
vertex 8.528486 4.593663 9.839372
vertex 8.528486 4.593663 9.859371
endloop
endfacet
facet normal 0 0 0
outer loop
vertex 8.528486 4.593663 9.839372
vertex 8.528486 4.614416 9.859371
vertex 8.548962 4.614416 9.839372
endloop
endfacet
facet normal 0 0 0
outer loop
vertex 8.610390 4.593663 9.839372
vertex 8.589914 4.614416 9.839372
vertex 8.610390 4.614416 9.859371
endloop
endfacet
facet normal 0 0 0
outer loop
vertex 8.610390 4.593663 9.839372
vertex 8.610390 4.614416 9.859371
vertex 8.630865 4.593663 9.859371
endloop
endfacet
facet normal 0 0 0
outer loop
vertex 8.610390 4.614416 9.859371
vertex 8.630865 4.614416 9.859371
vertex 8.630865 4.593663 9.859371
endloop
endfacet
facet normal 0 0 0
outer loop
vertex 8.548962 4.614416 9.839372
vertex 8.528486 4.614416 9.859371
vertex 8.548962 4.635170 9.859371
endloop
endfacet
facet normal 0 0 0
outer loop
vertex 8.548962 4.614416 9.839372
vertex 8.569439 4.635170 9.859371
vertex 8.569439 4.614416 9.839372
endloop
endfacet
facet normal 0 0 0
outer loop
vertex 8.548962 4.635170 9.859371
vertex 8.569439 4.635170 9.859371
vertex 8.548962 4.614416 9.839372
endloop
endfacet
facet normal 0 0 0
outer loop
vertex 8.569439 4.614416 9.839372
vertex 8.589914 4.635170 9.859371
vertex 8.589914 4.614416 9.839372
endloop
endfacet
facet normal 0 0 0
outer loop
vertex 8.569439 4.635170 9.859371
vertex 8.589914 4.635170 9.859371
vertex 8.569439 4.614416 9.839372
endloop
endfacet
facet normal 0 0 0
outer loop
vertex 8.589914 4.614416 9.839372
vertex 8.589914 4.635170 9.859371
vertex 8.610390 4.614416 9.859371
endloop
endfacet
facet normal 0 0 0
outer loop
vertex 8.569439 4.635170 9.859371
vertex 8.589914 4.655923 9.859371
vertex 8.589914 4.635170 9.859371
endloop
endfacet
facet normal 0 0 0
outer loop
vertex 8.548962 4.427636 9.859371
vertex 8.569439 4.406883 9.859371
vertex 8.569439 4.427636 9.859371
endloop
endfacet
facet normal 0 0 0
outer loop
vertex 8.589914 4.406883 9.859371
vertex 8.589914 4.427636 9.859371
vertex 8.569439 4.406883 9.859371
endloop
endfacet
facet normal 0 0 0
outer loop
vertex 8.589914 4.427636 9.859371
vertex 8.569439 4.427636 9.859371
vertex 8.569439 4.406883 9.859371
endloop
endfacet
facet normal 0 0 0
outer loop
vertex 8.610390 4.406883 9.859371
vertex 8.610390 4.427636 9.859371
vertex 8.589914 4.406883 9.859371
endloop
endfacet
facet normal 0 0 0
outer loop
vertex 8.610390 4.427636 9.859371
vertex 8.589914 4.427636 9.859371
vertex 8.589914 4.406883 9.859371
endloop
endfacet
facet normal 0 0 0
outer loop
vertex 8.630865 4.406883 9.859371
vertex 8.630865 4.427636 9.859371
vertex 8.610390 4.406883 9.859371
endloop
endfacet
facet normal 0 0 0
outer loop
vertex 8.630865 4.427636 9.859371
vertex 8.610390 4.427636 9.859371
vertex 8.610390 4.406883 9.859371
endloop
endfacet
facet normal 0 0 0
outer loop
vertex 8.651342 4.406883 9.859371
vertex 8.651342 4.427636 9.859371
vertex 8.630865 4.406883 9.859371
endloop
endfacet
facet normal 0 0 0
outer loop
vertex 8.651342 4.427636 9.859371
vertex 8.630865 4.427636 9.859371
vertex 8.630865 4.406883 9.859371
endloop
endfacet
facet normal 0 0 0
outer loop
vertex 8.651342 4.406883 9.859371
vertex 8.671818 4.427636 9.859371
vertex 8.651342 4.427636 9.859371
endloop
endfacet
facet normal 0 0 0
outer loop
vertex 8.569439 4.427636 9.859371
vertex 8.569439 4.448390 9.859371
vertex 8.548962 4.427636 9.859371
endloop
endfacet
facet normal 0 0 0
outer loop
vertex 8.569439 4.448390 9.859371
vertex 8.548962 4.448390 9.859371
vertex 8.548962 4.427636 9.859371
endloop
endfacet
facet normal 0 0 0
outer loop
vertex 8.589914 4.427636 9.859371
vertex 8.589914 4.448390 9.859371
vertex 8.569439 4.427636 9.859371
endloop
endfacet
facet normal 0 0 0
outer loop
vertex 8.589914 4.448390 9.859371
vertex 8.569439 4.448390 9.859371
vertex 8.569439 4.427636 9.859371
endloop
endfacet
facet normal 0 0 0
outer loop
vertex 8.610390 4.427636 9.859371
vertex 8.610390 4.448390 9.859371
vertex 8.589914 4.427636 9.859371
endloop
endfacet
facet normal 0 0 0
outer loop
vertex 8.610390 4.448390 9.859371
vertex 8.589914 4.448390 9.859371
vertex 8.589914 4.427636 9.859371
endloop
endfacet
facet normal 0 0 0
outer loop
vertex 8.630865 4.427636 9.859371
vertex 8.630865 4.448390 9.859371
vertex 8.610390 4.427636 9.859371
endloop
endfacet
facet normal 0 0 0
outer loop
vertex 8.630865 4.448390 9.859371
vertex 8.610390 4.448390 9.859371
vertex 8.610390 4.427636 9.859371
endloop
endfacet
facet normal 0 0 0
outer loop
vertex 8.651342 4.427636 9.859371
vertex 8.651342 4.448390 9.859371
vertex 8.630865 4.427636 9.859371
endloop
endfacet
facet normal 0 0 0
outer loop
vertex 8.651342 4.448390 9.859371
vertex 8.630865 4.448390 9.859371
vertex 8.630865 4.427636 9.859371
endloop
endfacet
facet normal 0 0 0
outer loop
vertex 8.671818 4.427636 9.859371
vertex 8.671818 4.448390 9.859371
vertex 8.651342 4.427636 9.859371
endloop
endfacet
facet normal 0 0 0
outer loop
vertex 8.671818 4.448390 9.859371
vertex 8.651342 4.448390 9.859371
vertex 8.651342 4.427636 9.859371
endloop
endfacet
facet normal 0 0 0
outer loop
vertex 8.548962 4.448390 9.859371
vertex 8.548962 4.469143 9.879372
vertex 8.528486 4.469143 9.859371
endloop
endfacet
facet normal 0 0 0
outer loop
vertex 8.569439 4.448390 9.859371
vertex 8.548962 4.469143 9.879372
vertex 8.548962 4.448390 9.859371
endloop
endfacet
facet normal 0 0 0
outer loop
vertex 8.569439 4.469143 9.879372
vertex 8.548962 4.469143 9.879372
vertex 8.569439 4.448390 9.859371
endloop
endfacet
facet normal 0 0 0
outer loop
vertex 8.589914 4.448390 9.859371
vertex 8.569439 4.469143 9.879372
vertex 8.569439 4.448390 9.859371
endloop
endfacet
facet normal 0 0 0
outer loop
vertex 8.589914 4.469143 9.879372
vertex 8.569439 4.469143 9.879372
vertex 8.589914 4.448390 9.859371
endloop
endfacet
facet normal 0 0 0
outer loop
vertex 8.610390 4.448390 9.859371
vertex 8.589914 4.469143 9.879372
vertex 8.589914 4.448390 9.859371
endloop
endfacet
facet normal 0 0 0
outer loop
vertex 8.610390 4.469143 9.879372
vertex 8.589914 4.469143 9.879372
vertex 8.610390 4.448390 9.859371
endloop
endfacet
facet normal 0 0 0
outer loop
vertex 8.610390 4.469143 9.879372
vertex 8.610390 4.448390 9.859371
vertex 8.630865 4.469143 9.859371
endloop
endfacet
facet normal 0 0 0
outer loop
vertex 8.610390 4.448390 9.859371
vertex 8.630865 4.448390 9.859371
vertex 8.630865 4.469143 9.859371
endloop
endfacet
facet normal 0 0 0
outer loop
vertex 8.651342 4.448390 9.859371
vertex 8.651342 4.469143 9.859371
vertex 8.630865 4.448390 9.859371
endloop
endfacet
facet normal 0 0 0
outer loop
vertex 8.651342 4.469143 9.859371
vertex 8.630865 4.469143 9.859371
vertex 8.630865 4.448390 9.859371
endloop
endfacet
facet normal 0 0 0
outer loop
vertex 8.671818 4.448390 9.859371
vertex 8.671818 4.469143 9.859371
vertex 8.651342 4.448390 9.859371
endloop
endfacet
facet normal 0 0 0
outer loop
vertex 8.671818 4.469143 9.859371
vertex 8.651342 4.469143 9.859371
vertex 8.651342 4.448390 9.859371
endloop
endfacet
facet normal 0 0 0
outer loop
vertex 8.528486 4.469143 9.859371
vertex 8.528486 4.489896 9.879372
vertex 8.528486 4.489896 9.859371
endloop
endfacet
facet normal 0 0 0
outer loop
vertex 8.548962 4.469143 9.879372
vertex 8.528486 4.489896 9.879372
vertex 8.528486 4.469143 9.859371
endloop
endfacet
facet normal 0 0 0
outer loop
vertex 8.630865 4.469143 9.859371
vertex 8.630865 4.489896 9.879372
vertex 8.610390 4.469143 9.879372
endloop
endfacet
facet normal 0 0 0
outer loop
vertex 8.630865 4.489896 9.879372
vertex 8.630865 4.469143 9.859371
vertex 8.651342 4.489896 9.859371
endloop
endfacet
facet normal 0 0 0
outer loop
vertex 8.630865 4.469143 9.859371
vertex 8.651342 4.469143 9.859371
vertex 8.651342 4.489896 9.859371
endloop
endfacet
facet normal 0 0 0
outer loop
vertex 8.671818 4.469143 9.859371
vertex 8.671818 4.489896 9.859371
vertex 8.651342 4.469143 9.859371
endloop
endfacet
facet normal 0 0 0
outer loop
vertex 8.671818 4.489896 9.859371
vertex 8.651342 4.489896 9.859371
vertex 8.651342 4.469143 9.859371
endloop
endfacet
facet normal 0 0 0
outer loop
vertex 8.528486 4.489896 9.859371
vertex 8.528486 4.489896 9.879372
vertex 8.528486 4.510650 9.859371
endloop
endfacet
facet normal 0 0 0
outer loop
vertex 8.528486 4.489896 9.879372
vertex 8.528486 4.510650 9.879372
vertex 8.528486 4.510650 9.859371
endloop
endfacet
facet normal 0 0 0
outer loop
vertex 8.651342 4.489896 9.859371
vertex 8.651342 4.510650 9.879372
vertex 8.630865 4.489896 9.879372
endloop
endfacet
facet normal 0 0 0
outer loop
vertex 8.651342 4.510650 9.879372
vertex 8.651342 4.489896 9.859371
vertex 8.671818 4.510650 9.859371
endloop
endfacet
facet normal 0 0 0
outer loop
vertex 8.651342 4.489896 9.859371
vertex 8.671818 4.489896 9.859371
vertex 8.671818 4.510650 9.859371
endloop
endfacet
facet normal 0 0 0
outer loop
vertex 8.508011 4.531403 9.879372
vertex 8.528486 4.531403 9.859371
vertex 8.528486 4.510650 9.879372
endloop
endfacet
facet normal 0 0 0
outer loop
vertex 8.528486 4.531403 9.859371
vertex 8.528486 4.510650 9.859371
vertex 8.528486 4.510650 9.879372
endloop
endfacet
facet normal 0 0 0
outer loop
vertex 8.671818 4.510650 9.859371
vertex 8.651342 4.531403 9.859371
vertex 8.651342 4.510650 9.879372
endloop
endfacet
facet normal 0 0 0
outer loop
vertex 8.651342 4.531403 9.859371
vertex 8.651342 4.531403 9.879372
vertex 8.651342 4.510650 9.879372
endloop
endfacet
facet normal 0 0 0
outer loop
vertex 8.528486 4.531403 9.859371
vertex 8.508011 4.552156 9.879372
vertex 8.528486 4.552156 9.859371
endloop
endfacet
facet normal 0 0 0
outer loop
vertex 8.508011 4.531403 9.879372
vertex 8.508011 4.552156 9.879372
vertex 8.528486 4.531403 9.859371
endloop
endfacet
facet normal 0 0 0
outer loop
vertex 8.671818 4.552156 9.879372
vertex 8.651342 4.531403 9.879372
vertex 8.651342 4.552156 9.859371
endloop
endfacet
facet normal 0 0 0
outer loop
vertex 8.651342 4.531403 9.879372
vertex 8.651342 4.531403 9.859371
vertex 8.651342 4.552156 9.859371
endloop
endfacet
facet normal 0 0 0
outer loop
vertex 8.528486 4.552156 9.859371
vertex 8.508011 4.572909 9.879372
vertex 8.528486 4.572909 9.859371
endloop
endfacet
facet normal 0 0 0
outer loop
vertex 8.508011 4.552156 9.879372
vertex 8.508011 4.572909 9.879372
vertex 8.528486 4.552156 9.859371
endloop
endfacet
facet normal 0 0 0
outer loop
vertex 8.671818 4.552156 9.879372
vertex 8.651342 4.552156 9.859371
vertex 8.651342 4.572909 9.879372
endloop
endfacet
facet normal 0 0 0
outer loop
vertex 8.651342 4.552156 9.859371
vertex 8.651342 4.572909 9.859371
vertex 8.651342 4.572909 9.879372
endloop
endfacet
facet normal 0 0 0
outer loop
vertex 8.528486 4.572909 9.859371
vertex 8.508011 4.593663 9.879372
vertex 8.528486 4.593663 9.859371
endloop
endfacet
facet normal 0 0 0
outer loop
vertex 8.508011 4.572909 9.879372
vertex 8.508011 4.593663 9.879372
vertex 8.528486 4.572909 9.859371
endloop
endfacet
facet normal 0 0 0
outer loop
vertex 8.651342 4.572909 9.859371
vertex 8.630865 4.593663 9.879372
vertex 8.651342 4.572909 9.879372
endloop
endfacet
facet normal 0 0 0
outer loop
vertex 8.630865 4.593663 9.859371
vertex 8.630865 4.593663 9.879372
vertex 8.651342 4.572909 9.859371
endloop
endfacet
facet normal 0 0 0
outer loop
vertex 8.528486 4.593663 9.859371
vertex 8.508011 4.614416 9.879372
vertex 8.528486 4.614416 9.859371
endloop
endfacet
facet normal 0 0 0
outer loop
vertex 8.508011 4.593663 9.879372
vertex 8.508011 4.614416 9.879372
vertex 8.528486 4.593663 9.859371
endloop
endfacet
facet normal 0 0 0
outer loop
vertex 8.630865 4.614416 9.859371
vertex 8.610390 4.614416 9.879372
vertex 8.630865 4.593663 9.879372
endloop
endfacet
facet normal 0 0 0
outer loop
vertex 8.630865 4.614416 9.859371
vertex 8.630865 4.593663 9.879372
vertex 8.630865 4.593663 9.859371
endloop
endfacet
facet normal 0 0 0
outer loop
vertex 8.508011 4.614416 9.879372
vertex 8.487535 4.614416 9.879372
vertex 8.508011 4.635170 9.879372
endloop
endfacet
facet normal 0 0 0
outer loop
vertex 8.528486 4.614416 9.859371
vertex 8.508011 4.614416 9.879372
vertex 8.528486 4.635170 9.879372
endloop
endfacet
facet normal 0 0 0
outer loop
vertex 8.508011 4.614416 9.879372
vertex 8.508011 4.635170 9.879372
vertex 8.528486 4.635170 9.879372
endloop
endfacet
facet normal 0 0 0
outer loop
vertex 8.528486 4.614416 9.859371
vertex 8.528486 4.635170 9.879372
vertex 8.548962 4.635170 9.859371
endloop
endfacet
facet normal 0 0 0
outer loop
vertex 8.610390 4.614416 9.859371
vertex 8.589914 4.635170 9.859371
vertex 8.610390 4.635170 9.879372
endloop
endfacet
facet normal 0 0 0
outer loop
vertex 8.630865 4.614416 9.859371
vertex 8.610390 4.635170 9.879372
vertex 8.610390 4.614416 9.879372
endloop
endfacet
facet normal 0 0 0
outer loop
vertex 8.630865 4.614416 9.859371
vertex 8.610390 4.614416 9.859371
vertex 8.610390 4.635170 9.879372
endloop
endfacet
facet normal 0 0 0
outer loop
vertex 8.548962 4.635170 9.859371
vertex 8.528486 4.635170 9.879372
vertex 8.548962 4.655923 9.879372
endloop
endfacet
facet normal 0 0 0
outer loop
vertex 8.548962 4.655923 9.879372
vertex 8.569439 4.635170 9.879372
vertex 8.548962 4.635170 9.859371
endloop
endfacet
facet normal 0 0 0
outer loop
vertex 8.569439 4.635170 9.879372
vertex 8.569439 4.635170 9.859371
vertex 8.548962 4.635170 9.859371
endloop
endfacet
facet normal 0 0 0
outer loop
vertex 8.589914 4.655923 9.859371
vertex 8.569439 4.635170 9.859371
vertex 8.589914 4.635170 9.879372
endloop
endfacet
facet normal 0 0 0
outer loop
vertex 8.569439 4.635170 9.859371
vertex 8.569439 4.635170 9.879372
vertex 8.589914 4.635170 9.879372
endloop
endfacet
facet normal 0 0 0
outer loop
vertex 8.610390 4.635170 9.879372
vertex 8.589914 4.655923 9.859371
vertex 8.589914 4.635170 9.879372
endloop
endfacet
facet normal 0 0 0
outer loop
vertex 8.610390 4.635170 9.879372
vertex 8.589914 4.635170 9.859371
vertex 8.589914 4.655923 9.859371
endloop
endfacet
facet normal 0 0 0
outer loop
vertex 8.528486 4.489896 9.879372
vertex 8.548962 4.469143 9.879372
vertex 8.548962 4.489896 9.879372
endloop
endfacet
facet normal 0 0 0
outer loop
vertex 8.569439 4.469143 9.879372
vertex 8.569439 4.489896 9.879372
vertex 8.548962 4.469143 9.879372
endloop
endfacet
facet normal 0 0 0
outer loop
vertex 8.569439 4.489896 9.879372
vertex 8.548962 4.489896 9.879372
vertex 8.548962 4.469143 9.879372
endloop
endfacet
facet normal 0 0 0
outer loop
vertex 8.589914 4.469143 9.879372
vertex 8.589914 4.489896 9.879372
vertex 8.569439 4.469143 9.879372
endloop
endfacet
facet normal 0 0 0
outer loop
vertex 8.589914 4.489896 9.879372
vertex 8.569439 4.489896 9.879372
vertex 8.569439 4.469143 9.879372
endloop
endfacet
facet normal 0 0 0
outer loop
vertex 8.610390 4.469143 9.879372
vertex 8.610390 4.489896 9.879372
vertex 8.589914 4.469143 9.879372
endloop
endfacet
facet normal 0 0 0
outer loop
vertex 8.610390 4.489896 9.879372
vertex 8.589914 4.489896 9.879372
vertex 8.589914 4.469143 9.879372
endloop
endfacet
facet normal 0 0 0
outer loop
vertex 8.610390 4.469143 9.879372
vertex 8.630865 4.489896 9.879372
vertex 8.610390 4.489896 9.879372
endloop
endfacet
facet normal 0 0 0
outer loop
vertex 8.548962 4.489896 9.879372
vertex 8.548962 4.510650 9.879372
vertex 8.528486 4.489896 9.879372
endloop
endfacet
facet normal 0 0 0
outer loop
vertex 8.548962 4.510650 9.879372
vertex 8.528486 4.510650 9.879372
vertex 8.528486 4.489896 9.879372
endloop
endfacet
facet normal 0 0 0
outer loop
vertex 8.569439 4.489896 9.879372
vertex 8.569439 4.510650 9.879372
vertex 8.548962 4.489896 9.879372
endloop
endfacet
facet normal 0 0 0
outer loop
vertex 8.569439 4.510650 9.879372
vertex 8.548962 4.510650 9.879372
vertex 8.548962 4.489896 9.879372
endloop
endfacet
facet normal 0 0 0
outer loop
vertex 8.589914 4.489896 9.879372
vertex 8.589914 4.510650 9.879372
vertex 8.569439 4.489896 9.879372
endloop
endfacet
facet normal 0 0 0
outer loop
vertex 8.589914 4.510650 9.879372
vertex 8.569439 4.510650 9.879372
vertex 8.569439 4.489896 9.879372
endloop
endfacet
facet normal 0 0 0
outer loop
vertex 8.610390 4.489896 9.879372
vertex 8.610390 4.510650 9.879372
vertex 8.589914 4.489896 9.879372
endloop
endfacet
facet normal 0 0 0
outer loop
vertex 8.610390 4.510650 9.879372
vertex 8.589914 4.510650 9.879372
vertex 8.589914 4.489896 9.879372
endloop
endfacet
facet normal 0 0 0
outer loop
vertex 8.630865 4.489896 9.879372
vertex 8.630865 4.510650 9.879372
vertex 8.610390 4.489896 9.879372
endloop
endfacet
facet normal 0 0 0
outer loop
vertex 8.630865 4.510650 9.879372
vertex 8.610390 4.510650 9.879372
vertex 8.610390 4.489896 9.879372
endloop
endfacet
facet normal 0 0 0
outer loop
vertex 8.630865 4.489896 9.879372
vertex 8.651342 4.510650 9.879372
vertex 8.630865 4.510650 9.879372
endloop
endfacet
facet normal 0 0 0
outer loop
vertex 8.508011 4.531403 9.879372
vertex 8.528486 4.510650 9.879372
vertex 8.528486 4.531403 9.879372
endloop
endfacet
facet normal 0 0 0
outer loop
vertex 8.548962 4.510650 9.879372
vertex 8.548962 4.531403 9.879372
vertex 8.528486 4.510650 9.879372
endloop
endfacet
facet normal 0 0 0
outer loop
vertex 8.548962 4.531403 9.879372
vertex 8.528486 4.531403 9.879372
vertex 8.528486 4.510650 9.879372
endloop
endfacet
facet normal 0 0 0
outer loop
vertex 8.569439 4.510650 9.879372
vertex 8.569439 4.531403 9.879372
vertex 8.548962 4.510650 9.879372
endloop
endfacet
facet normal 0 0 0
outer loop
vertex 8.569439 4.531403 9.879372
vertex 8.548962 4.531403 9.879372
vertex 8.548962 4.510650 9.879372
endloop
endfacet
facet normal 0 0 0
outer loop
vertex 8.589914 4.510650 9.879372
vertex 8.589914 4.531403 9.879372
vertex 8.569439 4.510650 9.879372
endloop
endfacet
facet normal 0 0 0
outer loop
vertex 8.589914 4.531403 9.879372
vertex 8.569439 4.531403 9.879372
vertex 8.569439 4.510650 9.879372
endloop
endfacet
facet normal 0 0 0
outer loop
vertex 8.610390 4.510650 9.879372
vertex 8.610390 4.531403 9.879372
vertex 8.589914 4.510650 9.879372
endloop
endfacet
facet normal 0 0 0
outer loop
vertex 8.610390 4.531403 9.879372
vertex 8.589914 4.531403 9.879372
vertex 8.589914 4.510650 9.879372
endloop
endfacet
facet normal 0 0 0
outer loop
vertex 8.630865 4.510650 9.879372
vertex 8.630865 4.531403 9.879372
vertex 8.610390 4.510650 9.879372
endloop
endfacet
facet normal 0 0 0
outer loop
vertex 8.630865 4.531403 9.879372
vertex 8.610390 4.531403 9.879372
vertex 8.610390 4.510650 9.879372
endloop
endfacet
facet normal 0 0 0
outer loop
vertex 8.651342 4.510650 9.879372
vertex 8.651342 4.531403 9.879372
vertex 8.630865 4.510650 9.879372
endloop
endfacet
facet normal 0 0 0
outer loop
vertex 8.651342 4.531403 9.879372
vertex 8.630865 4.531403 9.879372
vertex 8.630865 4.510650 9.879372
endloop
endfacet
facet normal 0 0 0
outer loop
vertex 8.528486 4.531403 9.879372
vertex 8.528486 4.552156 9.879372
vertex 8.508011 4.531403 9.879372
endloop
endfacet
facet normal 0 0 0
outer loop
vertex 8.528486 4.552156 9.879372
vertex 8.508011 4.552156 9.879372
vertex 8.508011 4.531403 9.879372
endloop
endfacet
facet normal 0 0 0
outer loop
vertex 8.548962 4.531403 9.879372
vertex 8.548962 4.552156 9.879372
vertex 8.528486 4.531403 9.879372
endloop
endfacet
facet normal 0 0 0
outer loop
vertex 8.548962 4.552156 9.879372
vertex 8.528486 4.552156 9.879372
vertex 8.528486 4.531403 9.879372
endloop
endfacet
facet normal 0 0 0
outer loop
vertex 8.569439 4.531403 9.879372
vertex 8.569439 4.552156 9.879372
vertex 8.548962 4.531403 9.879372
endloop
endfacet
facet normal 0 0 0
outer loop
vertex 8.569439 4.552156 9.879372
vertex 8.548962 4.552156 9.879372
vertex 8.548962 4.531403 9.879372
endloop
endfacet
facet normal 0 0 0
outer loop
vertex 8.589914 4.531403 9.879372
vertex 8.589914 4.552156 9.879372
vertex 8.569439 4.531403 9.879372
endloop
endfacet
facet normal 0 0 0
outer loop
vertex 8.589914 4.552156 9.879372
vertex 8.569439 4.552156 9.879372
vertex 8.569439 4.531403 9.879372
endloop
endfacet
facet normal 0 0 0
outer loop
vertex 8.610390 4.531403 9.879372
vertex 8.610390 4.552156 9.879372
vertex 8.589914 4.531403 9.879372
endloop
endfacet
facet normal 0 0 0
outer loop
vertex 8.610390 4.552156 9.879372
vertex 8.589914 4.552156 9.879372
vertex 8.589914 4.531403 9.879372
endloop
endfacet
facet normal 0 0 0
outer loop
vertex 8.630865 4.531403 9.879372
vertex 8.630865 4.552156 9.879372
vertex 8.610390 4.531403 9.879372
endloop
endfacet
facet normal 0 0 0
outer loop
vertex 8.630865 4.552156 9.879372
vertex 8.610390 4.552156 9.879372
vertex 8.610390 4.531403 9.879372
endloop
endfacet
facet normal 0 0 0
outer loop
vertex 8.651342 4.531403 9.879372
vertex 8.651342 4.552156 9.879372
vertex 8.630865 4.531403 9.879372
endloop
endfacet
facet normal 0 0 0
outer loop
vertex 8.651342 4.552156 9.879372
vertex 8.630865 4.552156 9.879372
vertex 8.630865 4.531403 9.879372
endloop
endfacet
facet normal 0 0 0
outer loop
vertex 8.651342 4.531403 9.879372
vertex 8.671818 4.552156 9.879372
vertex 8.651342 4.552156 9.879372
endloop
endfacet
facet normal 0 0 0
outer loop
vertex 8.528486 4.552156 9.879372
vertex 8.528486 4.572909 9.879372
vertex 8.508011 4.552156 9.879372
endloop
endfacet
facet normal 0 0 0
outer loop
vertex 8.528486 4.572909 9.879372
vertex 8.508011 4.572909 9.879372
vertex 8.508011 4.552156 9.879372
endloop
endfacet
facet normal 0 0 0
outer loop
vertex 8.548962 4.552156 9.879372
vertex 8.548962 4.572909 9.879372
vertex 8.528486 4.552156 9.879372
endloop
endfacet
facet normal 0 0 0
outer loop
vertex 8.548962 4.572909 9.879372
vertex 8.528486 4.572909 9.879372
vertex 8.528486 4.552156 9.879372
endloop
endfacet
facet normal 0 0 0
outer loop
vertex 8.569439 4.552156 9.879372
vertex 8.569439 4.572909 9.879372
vertex 8.548962 4.552156 9.879372
endloop
endfacet
facet normal 0 0 0
outer loop
vertex 8.569439 4.572909 9.879372
vertex 8.548962 4.572909 9.879372
vertex 8.548962 4.552156 9.879372
endloop
endfacet
facet normal 0 0 0
outer loop
vertex 8.589914 4.552156 9.879372
vertex 8.589914 4.572909 9.879372
vertex 8.569439 4.552156 9.879372
endloop
endfacet
facet normal 0 0 0
outer loop
vertex 8.589914 4.572909 9.879372
vertex 8.569439 4.572909 9.879372
vertex 8.569439 4.552156 9.879372
endloop
endfacet
facet normal 0 0 0
outer loop
vertex 8.610390 4.552156 9.879372
vertex 8.610390 4.572909 9.879372
vertex 8.589914 4.552156 9.879372
endloop
endfacet
facet normal 0 0 0
outer loop
vertex 8.610390 4.572909 9.879372
vertex 8.589914 4.572909 9.879372
vertex 8.589914 4.552156 9.879372
endloop
endfacet
facet normal 0 0 0
outer loop
vertex 8.630865 4.552156 9.879372
vertex 8.630865 4.572909 9.879372
vertex 8.610390 4.552156 9.879372
endloop
endfacet
facet normal 0 0 0
outer loop
vertex 8.630865 4.572909 9.879372
vertex 8.610390 4.572909 9.879372
vertex 8.610390 4.552156 9.879372
endloop
endfacet
facet normal 0 0 0
outer loop
vertex 8.651342 4.552156 9.879372
vertex 8.651342 4.572909 9.879372
vertex 8.630865 4.552156 9.879372
endloop
endfacet
facet normal 0 0 0
outer loop
vertex 8.651342 4.572909 9.879372
vertex 8.630865 4.572909 9.879372
vertex 8.630865 4.552156 9.879372
endloop
endfacet
facet normal 0 0 0
outer loop
vertex 8.671818 4.552156 9.879372
vertex 8.651342 4.572909 9.879372
vertex 8.651342 4.552156 9.879372
endloop
endfacet
facet normal 0 0 0
outer loop
vertex 8.528486 4.572909 9.879372
vertex 8.528486 4.593663 9.879372
vertex 8.508011 4.572909 9.879372
endloop
endfacet
facet normal 0 0 0
outer loop
vertex 8.528486 4.593663 9.879372
vertex 8.508011 4.593663 9.879372
vertex 8.508011 4.572909 9.879372
endloop
endfacet
facet normal 0 0 0
outer loop
vertex 8.548962 4.572909 9.879372
vertex 8.548962 4.593663 9.879372
vertex 8.528486 4.572909 9.879372
endloop
endfacet
facet normal 0 0 0
outer loop
vertex 8.548962 4.593663 9.879372
vertex 8.528486 4.593663 9.879372
vertex 8.528486 4.572909 9.879372
endloop
endfacet
facet normal 0 0 0
outer loop
vertex 8.569439 4.572909 9.879372
vertex 8.569439 4.593663 9.879372
vertex 8.548962 4.572909 9.879372
endloop
endfacet
facet normal 0 0 0
outer loop
vertex 8.569439 4.593663 9.879372
vertex 8.548962 4.593663 9.879372
vertex 8.548962 4.572909 9.879372
endloop
endfacet
facet normal 0 0 0
outer loop
vertex 8.589914 4.572909 9.879372
vertex 8.589914 4.593663 9.879372
vertex 8.569439 4.572909 9.879372
endloop
endfacet
facet normal 0 0 0
outer loop
vertex 8.589914 4.593663 9.879372
vertex 8.569439 4.593663 9.879372
vertex 8.569439 4.572909 9.879372
endloop
endfacet
facet normal 0 0 0
outer loop
vertex 8.610390 4.572909 9.879372
vertex 8.610390 4.593663 9.879372
vertex 8.589914 4.572909 9.879372
endloop
endfacet
facet normal 0 0 0
outer loop
vertex 8.610390 4.593663 9.879372
vertex 8.589914 4.593663 9.879372
vertex 8.589914 4.572909 9.879372
endloop
endfacet
facet normal 0 0 0
outer loop
vertex 8.630865 4.572909 9.879372
vertex 8.630865 4.593663 9.879372
vertex 8.610390 4.572909 9.879372
endloop
endfacet
facet normal 0 0 0
outer loop
vertex 8.630865 4.593663 9.879372
vertex 8.610390 4.593663 9.879372
vertex 8.610390 4.572909 9.879372
endloop
endfacet
facet normal 0 0 0
outer loop
vertex 8.651342 4.572909 9.879372
vertex 8.630865 4.593663 9.879372
vertex 8.630865 4.572909 9.879372
endloop
endfacet
facet normal 0 0 0
outer loop
vertex 8.487535 4.614416 9.879372
vertex 8.508011 4.593663 9.879372
vertex 8.508011 4.614416 9.879372
endloop
endfacet
facet normal 0 0 0
outer loop
vertex 8.528486 4.593663 9.879372
vertex 8.528486 4.614416 9.879372
vertex 8.508011 4.593663 9.879372
endloop
endfacet
facet normal 0 0 0
outer loop
vertex 8.528486 4.614416 9.879372
vertex 8.508011 4.614416 9.879372
vertex 8.508011 4.593663 9.879372
endloop
endfacet
facet normal 0 0 0
outer loop
vertex 8.548962 4.593663 9.879372
vertex 8.548962 4.614416 9.879372
vertex 8.528486 4.593663 9.879372
endloop
endfacet
facet normal 0 0 0
outer loop
vertex 8.548962 4.614416 9.879372
vertex 8.528486 4.614416 9.879372
vertex 8.528486 4.593663 9.879372
endloop
endfacet
facet normal 0 0 0
outer loop
vertex 8.569439 4.593663 9.879372
vertex 8.569439 4.614416 9.879372
vertex 8.548962 4.593663 9.879372
endloop
endfacet
facet normal 0 0 0
outer loop
vertex 8.569439 4.614416 9.879372
vertex 8.548962 4.614416 9.879372
vertex 8.548962 4.593663 9.879372
endloop
endfacet
facet normal 0 0 0
outer loop
vertex 8.589914 4.593663 9.879372
vertex 8.589914 4.614416 9.879372
vertex 8.569439 4.593663 9.879372
endloop
endfacet
facet normal 0 0 0
outer loop
vertex 8.589914 4.614416 9.879372
vertex 8.569439 4.614416 9.879372
vertex 8.569439 4.593663 9.879372
endloop
endfacet
facet normal 0 0 0
outer loop
vertex 8.610390 4.593663 9.879372
vertex 8.610390 4.614416 9.879372
vertex 8.589914 4.593663 9.879372
endloop
endfacet
facet normal 0 0 0
outer loop
vertex 8.610390 4.614416 9.879372
vertex 8.589914 4.614416 9.879372
vertex 8.589914 4.593663 9.879372
endloop
endfacet
facet normal 0 0 0
outer loop
vertex 8.630865 4.593663 9.879372
vertex 8.610390 4.614416 9.879372
vertex 8.610390 4.593663 9.879372
endloop
endfacet
facet normal 0 0 0
outer loop
vertex 8.508011 4.635170 9.879372
vertex 8.487535 4.635170 9.879372
vertex 8.487535 4.614416 9.879372
endloop
endfacet
facet normal 0 0 0
outer loop
vertex 8.528486 4.614416 9.879372
vertex 8.528486 4.635170 9.879372
vertex 8.508011 4.614416 9.879372
endloop
endfacet
facet normal 0 0 0
outer loop
vertex 8.548962 4.614416 9.879372
vertex 8.548962 4.635170 9.879372
vertex 8.528486 4.614416 9.879372
endloop
endfacet
facet normal 0 0 0
outer loop
vertex 8.548962 4.635170 9.879372
vertex 8.528486 4.635170 9.879372
vertex 8.528486 4.614416 9.879372
endloop
endfacet
facet normal 0 0 0
outer loop
vertex 8.569439 4.614416 9.879372
vertex 8.569439 4.635170 9.879372
vertex 8.548962 4.614416 9.879372
endloop
endfacet
facet normal 0 0 0
outer loop
vertex 8.569439 4.635170 9.879372
vertex 8.548962 4.635170 9.879372
vertex 8.548962 4.614416 9.879372
endloop
endfacet
facet normal 0 0 0
outer loop
vertex 8.589914 4.614416 9.879372
vertex 8.589914 4.635170 9.879372
vertex 8.569439 4.614416 9.879372
endloop
endfacet
facet normal 0 0 0
outer loop
vertex 8.589914 4.635170 9.879372
vertex 8.569439 4.635170 9.879372
vertex 8.569439 4.614416 9.879372
endloop
endfacet
facet normal 0 0 0
outer loop
vertex 8.610390 4.614416 9.879372
vertex 8.610390 4.635170 9.879372
vertex 8.589914 4.614416 9.879372
endloop
endfacet
facet normal 0 0 0
outer loop
vertex 8.610390 4.635170 9.879372
vertex 8.589914 4.635170 9.879372
vertex 8.589914 4.614416 9.879372
endloop
endfacet
facet normal 0 0 0
outer loop
vertex 8.548962 4.655923 9.879372
vertex 8.528486 4.635170 9.879372
vertex 8.548962 4.635170 9.879372
endloop
endfacet
facet normal 0 0 0
outer loop
vertex 8.569439 4.635170 9.879372
vertex 8.548962 4.655923 9.879372
vertex 8.548962 4.635170 9.879372
endloop
endfacet
endsolid B-16-Plag.230
