solid B-16-Plag.325
facet normal 0 0 0
outer loop
vertex 17.476412 6.585982 13.139372
vertex 17.455935 6.606735 13.139372
vertex 17.476412 6.606735 13.139372
endloop
endfacet
facet normal 0 0 0
outer loop
vertex 17.496887 6.606735 13.139372
vertex 17.476412 6.585982 13.139372
vertex 17.476412 6.606735 13.139372
endloop
endfacet
facet normal 0 0 0
outer loop
vertex 17.455935 6.606735 13.139372
vertex 17.435459 6.627489 13.139372
vertex 17.455935 6.627489 13.139372
endloop
endfacet
facet normal 0 0 0
outer loop
vertex 17.476412 6.606735 13.139372
vertex 17.455935 6.606735 13.139372
vertex 17.476412 6.627489 13.139372
endloop
endfacet
facet normal 0 0 0
outer loop
vertex 17.476412 6.627489 13.139372
vertex 17.455935 6.606735 13.139372
vertex 17.455935 6.627489 13.139372
endloop
endfacet
facet normal 0 0 0
outer loop
vertex 17.496887 6.606735 13.139372
vertex 17.476412 6.606735 13.139372
vertex 17.496887 6.627489 13.139372
endloop
endfacet
facet normal 0 0 0
outer loop
vertex 17.496887 6.627489 13.139372
vertex 17.476412 6.606735 13.139372
vertex 17.476412 6.627489 13.139372
endloop
endfacet
facet normal 0 0 0
outer loop
vertex 17.517363 6.606735 13.139372
vertex 17.496887 6.606735 13.139372
vertex 17.517363 6.627489 13.139372
endloop
endfacet
facet normal 0 0 0
outer loop
vertex 17.517363 6.627489 13.139372
vertex 17.496887 6.606735 13.139372
vertex 17.496887 6.627489 13.139372
endloop
endfacet
facet normal 0 0 0
outer loop
vertex 17.394508 6.627489 13.139372
vertex 17.374031 6.648242 13.139372
vertex 17.394508 6.648242 13.139372
endloop
endfacet
facet normal 0 0 0
outer loop
vertex 17.414984 6.627489 13.139372
vertex 17.394508 6.627489 13.139372
vertex 17.414984 6.648242 13.139372
endloop
endfacet
facet normal 0 0 0
outer loop
vertex 17.414984 6.648242 13.139372
vertex 17.394508 6.627489 13.139372
vertex 17.394508 6.648242 13.139372
endloop
endfacet
facet normal 0 0 0
outer loop
vertex 17.435459 6.627489 13.139372
vertex 17.414984 6.627489 13.139372
vertex 17.435459 6.648242 13.139372
endloop
endfacet
facet normal 0 0 0
outer loop
vertex 17.435459 6.648242 13.139372
vertex 17.414984 6.627489 13.139372
vertex 17.414984 6.648242 13.139372
endloop
endfacet
facet normal 0 0 0
outer loop
vertex 17.455935 6.627489 13.139372
vertex 17.435459 6.627489 13.139372
vertex 17.455935 6.648242 13.139372
endloop
endfacet
facet normal 0 0 0
outer loop
vertex 17.455935 6.648242 13.139372
vertex 17.435459 6.627489 13.139372
vertex 17.435459 6.648242 13.139372
endloop
endfacet
facet normal 0 0 0
outer loop
vertex 17.476412 6.627489 13.139372
vertex 17.455935 6.627489 13.139372
vertex 17.476412 6.648242 13.139372
endloop
endfacet
facet normal 0 0 0
outer loop
vertex 17.476412 6.648242 13.139372
vertex 17.455935 6.627489 13.139372
vertex 17.455935 6.648242 13.139372
endloop
endfacet
facet normal 0 0 0
outer loop
vertex 17.496887 6.627489 13.139372
vertex 17.476412 6.627489 13.139372
vertex 17.496887 6.648242 13.139372
endloop
endfacet
facet normal 0 0 0
outer loop
vertex 17.496887 6.648242 13.139372
vertex 17.476412 6.627489 13.139372
vertex 17.476412 6.648242 13.139372
endloop
endfacet
facet normal 0 0 0
outer loop
vertex 17.517363 6.627489 13.139372
vertex 17.496887 6.627489 13.139372
vertex 17.517363 6.648242 13.139372
endloop
endfacet
facet normal 0 0 0
outer loop
vertex 17.517363 6.648242 13.139372
vertex 17.496887 6.627489 13.139372
vertex 17.496887 6.648242 13.139372
endloop
endfacet
facet normal 0 0 0
outer loop
vertex 17.394508 6.648242 13.139372
vertex 17.374031 6.648242 13.139372
vertex 17.394508 6.668995 13.139372
endloop
endfacet
facet normal 0 0 0
outer loop
vertex 17.394508 6.668995 13.139372
vertex 17.374031 6.648242 13.139372
vertex 17.374031 6.668995 13.139372
endloop
endfacet
facet normal 0 0 0
outer loop
vertex 17.414984 6.648242 13.139372
vertex 17.394508 6.648242 13.139372
vertex 17.414984 6.668995 13.139372
endloop
endfacet
facet normal 0 0 0
outer loop
vertex 17.414984 6.668995 13.139372
vertex 17.394508 6.648242 13.139372
vertex 17.394508 6.668995 13.139372
endloop
endfacet
facet normal 0 0 0
outer loop
vertex 17.435459 6.648242 13.139372
vertex 17.414984 6.648242 13.139372
vertex 17.435459 6.668995 13.139372
endloop
endfacet
facet normal 0 0 0
outer loop
vertex 17.435459 6.668995 13.139372
vertex 17.414984 6.648242 13.139372
vertex 17.414984 6.668995 13.139372
endloop
endfacet
facet normal 0 0 0
outer loop
vertex 17.455935 6.648242 13.139372
vertex 17.435459 6.648242 13.139372
vertex 17.455935 6.668995 13.139372
endloop
endfacet
facet normal 0 0 0
outer loop
vertex 17.455935 6.668995 13.139372
vertex 17.435459 6.648242 13.139372
vertex 17.435459 6.668995 13.139372
endloop
endfacet
facet normal 0 0 0
outer loop
vertex 17.476412 6.648242 13.139372
vertex 17.455935 6.648242 13.139372
vertex 17.476412 6.668995 13.139372
endloop
endfacet
facet normal 0 0 0
outer loop
vertex 17.476412 6.668995 13.139372
vertex 17.455935 6.648242 13.139372
vertex 17.455935 6.668995 13.139372
endloop
endfacet
facet normal 0 0 0
outer loop
vertex 17.496887 6.648242 13.139372
vertex 17.476412 6.648242 13.139372
vertex 17.496887 6.668995 13.139372
endloop
endfacet
facet normal 0 0 0
outer loop
vertex 17.496887 6.668995 13.139372
vertex 17.476412 6.648242 13.139372
vertex 17.476412 6.668995 13.139372
endloop
endfacet
facet normal 0 0 0
outer loop
vertex 17.517363 6.648242 13.139372
vertex 17.496887 6.648242 13.139372
vertex 17.517363 6.668995 13.139372
endloop
endfacet
facet normal 0 0 0
outer loop
vertex 17.517363 6.668995 13.139372
vertex 17.496887 6.648242 13.139372
vertex 17.496887 6.668995 13.139372
endloop
endfacet
facet normal 0 0 0
outer loop
vertex 17.394508 6.668995 13.139372
vertex 17.374031 6.668995 13.139372
vertex 17.394508 6.689749 13.139372
endloop
endfacet
facet normal 0 0 0
outer loop
vertex 17.394508 6.689749 13.139372
vertex 17.374031 6.668995 13.139372
vertex 17.374031 6.689749 13.139372
endloop
endfacet
facet normal 0 0 0
outer loop
vertex 17.414984 6.668995 13.139372
vertex 17.394508 6.668995 13.139372
vertex 17.414984 6.689749 13.139372
endloop
endfacet
facet normal 0 0 0
outer loop
vertex 17.414984 6.689749 13.139372
vertex 17.394508 6.668995 13.139372
vertex 17.394508 6.689749 13.139372
endloop
endfacet
facet normal 0 0 0
outer loop
vertex 17.435459 6.668995 13.139372
vertex 17.414984 6.668995 13.139372
vertex 17.435459 6.689749 13.139372
endloop
endfacet
facet normal 0 0 0
outer loop
vertex 17.435459 6.689749 13.139372
vertex 17.414984 6.668995 13.139372
vertex 17.414984 6.689749 13.139372
endloop
endfacet
facet normal 0 0 0
outer loop
vertex 17.455935 6.668995 13.139372
vertex 17.435459 6.668995 13.139372
vertex 17.455935 6.689749 13.139372
endloop
endfacet
facet normal 0 0 0
outer loop
vertex 17.455935 6.689749 13.139372
vertex 17.435459 6.668995 13.139372
vertex 17.435459 6.689749 13.139372
endloop
endfacet
facet normal 0 0 0
outer loop
vertex 17.476412 6.668995 13.139372
vertex 17.455935 6.668995 13.139372
vertex 17.476412 6.689749 13.139372
endloop
endfacet
facet normal 0 0 0
outer loop
vertex 17.476412 6.689749 13.139372
vertex 17.455935 6.668995 13.139372
vertex 17.455935 6.689749 13.139372
endloop
endfacet
facet normal 0 0 0
outer loop
vertex 17.496887 6.668995 13.139372
vertex 17.476412 6.668995 13.139372
vertex 17.496887 6.689749 13.139372
endloop
endfacet
facet normal 0 0 0
outer loop
vertex 17.496887 6.689749 13.139372
vertex 17.476412 6.668995 13.139372
vertex 17.476412 6.689749 13.139372
endloop
endfacet
facet normal 0 0 0
outer loop
vertex 17.517363 6.668995 13.139372
vertex 17.496887 6.668995 13.139372
vertex 17.517363 6.689749 13.139372
endloop
endfacet
facet normal 0 0 0
outer loop
vertex 17.517363 6.689749 13.139372
vertex 17.496887 6.668995 13.139372
vertex 17.496887 6.689749 13.139372
endloop
endfacet
facet normal 0 0 0
outer loop
vertex 17.394508 6.689749 13.139372
vertex 17.374031 6.689749 13.139372
vertex 17.394508 6.710502 13.139372
endloop
endfacet
facet normal 0 0 0
outer loop
vertex 17.394508 6.710502 13.139372
vertex 17.374031 6.689749 13.139372
vertex 17.374031 6.710502 13.139372
endloop
endfacet
facet normal 0 0 0
outer loop
vertex 17.414984 6.689749 13.139372
vertex 17.394508 6.689749 13.139372
vertex 17.414984 6.710502 13.139372
endloop
endfacet
facet normal 0 0 0
outer loop
vertex 17.414984 6.710502 13.139372
vertex 17.394508 6.689749 13.139372
vertex 17.394508 6.710502 13.139372
endloop
endfacet
facet normal 0 0 0
outer loop
vertex 17.435459 6.689749 13.139372
vertex 17.414984 6.689749 13.139372
vertex 17.435459 6.710502 13.139372
endloop
endfacet
facet normal 0 0 0
outer loop
vertex 17.435459 6.710502 13.139372
vertex 17.414984 6.689749 13.139372
vertex 17.414984 6.710502 13.139372
endloop
endfacet
facet normal 0 0 0
outer loop
vertex 17.455935 6.689749 13.139372
vertex 17.435459 6.689749 13.139372
vertex 17.455935 6.710502 13.139372
endloop
endfacet
facet normal 0 0 0
outer loop
vertex 17.455935 6.710502 13.139372
vertex 17.435459 6.689749 13.139372
vertex 17.435459 6.710502 13.139372
endloop
endfacet
facet normal 0 0 0
outer loop
vertex 17.476412 6.689749 13.139372
vertex 17.455935 6.689749 13.139372
vertex 17.476412 6.710502 13.139372
endloop
endfacet
facet normal 0 0 0
outer loop
vertex 17.476412 6.710502 13.139372
vertex 17.455935 6.689749 13.139372
vertex 17.455935 6.710502 13.139372
endloop
endfacet
facet normal 0 0 0
outer loop
vertex 17.496887 6.689749 13.139372
vertex 17.476412 6.689749 13.139372
vertex 17.496887 6.710502 13.139372
endloop
endfacet
facet normal 0 0 0
outer loop
vertex 17.496887 6.710502 13.139372
vertex 17.476412 6.689749 13.139372
vertex 17.476412 6.710502 13.139372
endloop
endfacet
facet normal 0 0 0
outer loop
vertex 17.517363 6.689749 13.139372
vertex 17.496887 6.689749 13.139372
vertex 17.517363 6.710502 13.139372
endloop
endfacet
facet normal 0 0 0
outer loop
vertex 17.517363 6.710502 13.139372
vertex 17.496887 6.689749 13.139372
vertex 17.496887 6.710502 13.139372
endloop
endfacet
facet normal 0 0 0
outer loop
vertex 17.394508 6.710502 13.139372
vertex 17.374031 6.710502 13.139372
vertex 17.394508 6.731256 13.139372
endloop
endfacet
facet normal 0 0 0
outer loop
vertex 17.394508 6.731256 13.139372
vertex 17.374031 6.710502 13.139372
vertex 17.374031 6.731256 13.139372
endloop
endfacet
facet normal 0 0 0
outer loop
vertex 17.414984 6.710502 13.139372
vertex 17.394508 6.710502 13.139372
vertex 17.414984 6.731256 13.139372
endloop
endfacet
facet normal 0 0 0
outer loop
vertex 17.414984 6.731256 13.139372
vertex 17.394508 6.710502 13.139372
vertex 17.394508 6.731256 13.139372
endloop
endfacet
facet normal 0 0 0
outer loop
vertex 17.435459 6.710502 13.139372
vertex 17.414984 6.710502 13.139372
vertex 17.435459 6.731256 13.139372
endloop
endfacet
facet normal 0 0 0
outer loop
vertex 17.435459 6.731256 13.139372
vertex 17.414984 6.710502 13.139372
vertex 17.414984 6.731256 13.139372
endloop
endfacet
facet normal 0 0 0
outer loop
vertex 17.455935 6.710502 13.139372
vertex 17.435459 6.710502 13.139372
vertex 17.455935 6.731256 13.139372
endloop
endfacet
facet normal 0 0 0
outer loop
vertex 17.455935 6.731256 13.139372
vertex 17.435459 6.710502 13.139372
vertex 17.435459 6.731256 13.139372
endloop
endfacet
facet normal 0 0 0
outer loop
vertex 17.476412 6.710502 13.139372
vertex 17.455935 6.710502 13.139372
vertex 17.476412 6.731256 13.139372
endloop
endfacet
facet normal 0 0 0
outer loop
vertex 17.476412 6.731256 13.139372
vertex 17.455935 6.710502 13.139372
vertex 17.455935 6.731256 13.139372
endloop
endfacet
facet normal 0 0 0
outer loop
vertex 17.496887 6.710502 13.139372
vertex 17.476412 6.710502 13.139372
vertex 17.496887 6.731256 13.139372
endloop
endfacet
facet normal 0 0 0
outer loop
vertex 17.496887 6.731256 13.139372
vertex 17.476412 6.710502 13.139372
vertex 17.476412 6.731256 13.139372
endloop
endfacet
facet normal 0 0 0
outer loop
vertex 17.496887 6.731256 13.139372
vertex 17.517363 6.710502 13.139372
vertex 17.496887 6.710502 13.139372
endloop
endfacet
facet normal 0 0 0
outer loop
vertex 17.394508 6.731256 13.139372
vertex 17.374031 6.731256 13.139372
vertex 17.394508 6.752008 13.139372
endloop
endfacet
facet normal 0 0 0
outer loop
vertex 17.394508 6.752008 13.139372
vertex 17.374031 6.731256 13.139372
vertex 17.374031 6.752008 13.139372
endloop
endfacet
facet normal 0 0 0
outer loop
vertex 17.414984 6.731256 13.139372
vertex 17.394508 6.731256 13.139372
vertex 17.414984 6.752008 13.139372
endloop
endfacet
facet normal 0 0 0
outer loop
vertex 17.414984 6.752008 13.139372
vertex 17.394508 6.731256 13.139372
vertex 17.394508 6.752008 13.139372
endloop
endfacet
facet normal 0 0 0
outer loop
vertex 17.435459 6.731256 13.139372
vertex 17.414984 6.731256 13.139372
vertex 17.435459 6.752008 13.139372
endloop
endfacet
facet normal 0 0 0
outer loop
vertex 17.435459 6.752008 13.139372
vertex 17.414984 6.731256 13.139372
vertex 17.414984 6.752008 13.139372
endloop
endfacet
facet normal 0 0 0
outer loop
vertex 17.455935 6.731256 13.139372
vertex 17.435459 6.731256 13.139372
vertex 17.455935 6.752008 13.139372
endloop
endfacet
facet normal 0 0 0
outer loop
vertex 17.455935 6.752008 13.139372
vertex 17.435459 6.731256 13.139372
vertex 17.435459 6.752008 13.139372
endloop
endfacet
facet normal 0 0 0
outer loop
vertex 17.476412 6.731256 13.139372
vertex 17.455935 6.731256 13.139372
vertex 17.476412 6.752008 13.139372
endloop
endfacet
facet normal 0 0 0
outer loop
vertex 17.476412 6.752008 13.139372
vertex 17.455935 6.731256 13.139372
vertex 17.455935 6.752008 13.139372
endloop
endfacet
facet normal 0 0 0
outer loop
vertex 17.496887 6.731256 13.139372
vertex 17.476412 6.731256 13.139372
vertex 17.496887 6.752008 13.139372
endloop
endfacet
facet normal 0 0 0
outer loop
vertex 17.496887 6.752008 13.139372
vertex 17.476412 6.731256 13.139372
vertex 17.476412 6.752008 13.139372
endloop
endfacet
facet normal 0 0 0
outer loop
vertex 17.394508 6.752008 13.139372
vertex 17.374031 6.752008 13.139372
vertex 17.394508 6.772762 13.139372
endloop
endfacet
facet normal 0 0 0
outer loop
vertex 17.394508 6.772762 13.139372
vertex 17.374031 6.752008 13.139372
vertex 17.374031 6.772762 13.139372
endloop
endfacet
facet normal 0 0 0
outer loop
vertex 17.414984 6.752008 13.139372
vertex 17.394508 6.752008 13.139372
vertex 17.414984 6.772762 13.139372
endloop
endfacet
facet normal 0 0 0
outer loop
vertex 17.414984 6.772762 13.139372
vertex 17.394508 6.752008 13.139372
vertex 17.394508 6.772762 13.139372
endloop
endfacet
facet normal 0 0 0
outer loop
vertex 17.435459 6.752008 13.139372
vertex 17.414984 6.752008 13.139372
vertex 17.435459 6.772762 13.139372
endloop
endfacet
facet normal 0 0 0
outer loop
vertex 17.435459 6.772762 13.139372
vertex 17.414984 6.752008 13.139372
vertex 17.414984 6.772762 13.139372
endloop
endfacet
facet normal 0 0 0
outer loop
vertex 17.455935 6.752008 13.139372
vertex 17.435459 6.752008 13.139372
vertex 17.455935 6.772762 13.139372
endloop
endfacet
facet normal 0 0 0
outer loop
vertex 17.455935 6.772762 13.139372
vertex 17.435459 6.752008 13.139372
vertex 17.435459 6.772762 13.139372
endloop
endfacet
facet normal 0 0 0
outer loop
vertex 17.476412 6.752008 13.139372
vertex 17.455935 6.752008 13.139372
vertex 17.476412 6.772762 13.139372
endloop
endfacet
facet normal 0 0 0
outer loop
vertex 17.476412 6.772762 13.139372
vertex 17.455935 6.752008 13.139372
vertex 17.455935 6.772762 13.139372
endloop
endfacet
facet normal 0 0 0
outer loop
vertex 17.496887 6.752008 13.139372
vertex 17.476412 6.752008 13.139372
vertex 17.496887 6.772762 13.139372
endloop
endfacet
facet normal 0 0 0
outer loop
vertex 17.496887 6.772762 13.139372
vertex 17.476412 6.752008 13.139372
vertex 17.476412 6.772762 13.139372
endloop
endfacet
facet normal 0 0 0
outer loop
vertex 17.394508 6.772762 13.139372
vertex 17.374031 6.772762 13.139372
vertex 17.394508 6.793515 13.139372
endloop
endfacet
facet normal 0 0 0
outer loop
vertex 17.394508 6.793515 13.139372
vertex 17.374031 6.772762 13.139372
vertex 17.374031 6.793515 13.139372
endloop
endfacet
facet normal 0 0 0
outer loop
vertex 17.414984 6.772762 13.139372
vertex 17.394508 6.772762 13.139372
vertex 17.414984 6.793515 13.139372
endloop
endfacet
facet normal 0 0 0
outer loop
vertex 17.414984 6.793515 13.139372
vertex 17.394508 6.772762 13.139372
vertex 17.394508 6.793515 13.139372
endloop
endfacet
facet normal 0 0 0
outer loop
vertex 17.435459 6.772762 13.139372
vertex 17.414984 6.772762 13.139372
vertex 17.435459 6.793515 13.139372
endloop
endfacet
facet normal 0 0 0
outer loop
vertex 17.435459 6.793515 13.139372
vertex 17.414984 6.772762 13.139372
vertex 17.414984 6.793515 13.139372
endloop
endfacet
facet normal 0 0 0
outer loop
vertex 17.455935 6.772762 13.139372
vertex 17.435459 6.772762 13.139372
vertex 17.455935 6.793515 13.139372
endloop
endfacet
facet normal 0 0 0
outer loop
vertex 17.455935 6.793515 13.139372
vertex 17.435459 6.772762 13.139372
vertex 17.435459 6.793515 13.139372
endloop
endfacet
facet normal 0 0 0
outer loop
vertex 17.455935 6.793515 13.139372
vertex 17.476412 6.772762 13.139372
vertex 17.455935 6.772762 13.139372
endloop
endfacet
facet normal 0 0 0
outer loop
vertex 17.374031 6.793515 13.139372
vertex 17.394508 6.814268 13.139372
vertex 17.394508 6.793515 13.139372
endloop
endfacet
facet normal 0 0 0
outer loop
vertex 17.394508 6.814268 13.139372
vertex 17.414984 6.793515 13.139372
vertex 17.394508 6.793515 13.139372
endloop
endfacet
facet normal 0 0 0
outer loop
vertex 17.435459 6.606735 13.159371
vertex 17.455935 6.606735 13.139372
vertex 17.455935 6.606735 13.159371
endloop
endfacet
facet normal 0 0 0
outer loop
vertex 17.476412 6.585982 13.139372
vertex 17.476412 6.606735 13.159371
vertex 17.455935 6.606735 13.139372
endloop
endfacet
facet normal 0 0 0
outer loop
vertex 17.476412 6.606735 13.159371
vertex 17.455935 6.606735 13.159371
vertex 17.455935 6.606735 13.139372
endloop
endfacet
facet normal 0 0 0
outer loop
vertex 17.496887 6.606735 13.139372
vertex 17.476412 6.606735 13.159371
vertex 17.476412 6.585982 13.139372
endloop
endfacet
facet normal 0 0 0
outer loop
vertex 17.414984 6.627489 13.159371
vertex 17.394508 6.627489 13.139372
vertex 17.414984 6.627489 13.139372
endloop
endfacet
facet normal 0 0 0
outer loop
vertex 17.435459 6.606735 13.159371
vertex 17.414984 6.627489 13.159371
vertex 17.435459 6.627489 13.139372
endloop
endfacet
facet normal 0 0 0
outer loop
vertex 17.414984 6.627489 13.159371
vertex 17.414984 6.627489 13.139372
vertex 17.435459 6.627489 13.139372
endloop
endfacet
facet normal 0 0 0
outer loop
vertex 17.455935 6.606735 13.139372
vertex 17.435459 6.606735 13.159371
vertex 17.435459 6.627489 13.139372
endloop
endfacet
facet normal 0 0 0
outer loop
vertex 17.496887 6.606735 13.139372
vertex 17.496887 6.627489 13.159371
vertex 17.476412 6.606735 13.159371
endloop
endfacet
facet normal 0 0 0
outer loop
vertex 17.496887 6.627489 13.159371
vertex 17.496887 6.606735 13.139372
vertex 17.517363 6.627489 13.139372
endloop
endfacet
facet normal 0 0 0
outer loop
vertex 17.394508 6.627489 13.139372
vertex 17.394508 6.648242 13.159371
vertex 17.374031 6.648242 13.139372
endloop
endfacet
facet normal 0 0 0
outer loop
vertex 17.414984 6.627489 13.159371
vertex 17.394508 6.648242 13.159371
vertex 17.394508 6.627489 13.139372
endloop
endfacet
facet normal 0 0 0
outer loop
vertex 17.517363 6.648242 13.139372
vertex 17.496887 6.627489 13.159371
vertex 17.517363 6.627489 13.139372
endloop
endfacet
facet normal 0 0 0
outer loop
vertex 17.496887 6.648242 13.159371
vertex 17.496887 6.627489 13.159371
vertex 17.517363 6.648242 13.139372
endloop
endfacet
facet normal 0 0 0
outer loop
vertex 17.374031 6.648242 13.139372
vertex 17.374031 6.668995 13.159371
vertex 17.374031 6.668995 13.139372
endloop
endfacet
facet normal 0 0 0
outer loop
vertex 17.394508 6.648242 13.159371
vertex 17.374031 6.668995 13.159371
vertex 17.374031 6.648242 13.139372
endloop
endfacet
facet normal 0 0 0
outer loop
vertex 17.517363 6.648242 13.139372
vertex 17.517363 6.668995 13.159371
vertex 17.496887 6.648242 13.159371
endloop
endfacet
facet normal 0 0 0
outer loop
vertex 17.517363 6.648242 13.139372
vertex 17.517363 6.668995 13.139372
vertex 17.537838 6.668995 13.159371
endloop
endfacet
facet normal 0 0 0
outer loop
vertex 17.517363 6.648242 13.139372
vertex 17.537838 6.668995 13.159371
vertex 17.517363 6.668995 13.159371
endloop
endfacet
facet normal 0 0 0
outer loop
vertex 17.374031 6.668995 13.139372
vertex 17.374031 6.668995 13.159371
vertex 17.374031 6.689749 13.139372
endloop
endfacet
facet normal 0 0 0
outer loop
vertex 17.374031 6.668995 13.159371
vertex 17.374031 6.689749 13.159371
vertex 17.374031 6.689749 13.139372
endloop
endfacet
facet normal 0 0 0
outer loop
vertex 17.537838 6.668995 13.159371
vertex 17.517363 6.668995 13.139372
vertex 17.517363 6.689749 13.159371
endloop
endfacet
facet normal 0 0 0
outer loop
vertex 17.517363 6.668995 13.139372
vertex 17.517363 6.689749 13.139372
vertex 17.517363 6.689749 13.159371
endloop
endfacet
facet normal 0 0 0
outer loop
vertex 17.374031 6.689749 13.139372
vertex 17.374031 6.689749 13.159371
vertex 17.374031 6.710502 13.139372
endloop
endfacet
facet normal 0 0 0
outer loop
vertex 17.374031 6.689749 13.159371
vertex 17.374031 6.710502 13.159371
vertex 17.374031 6.710502 13.139372
endloop
endfacet
facet normal 0 0 0
outer loop
vertex 17.517363 6.689749 13.139372
vertex 17.517363 6.710502 13.139372
vertex 17.517363 6.689749 13.159371
endloop
endfacet
facet normal 0 0 0
outer loop
vertex 17.517363 6.689749 13.159371
vertex 17.517363 6.710502 13.139372
vertex 17.517363 6.710502 13.159371
endloop
endfacet
facet normal 0 0 0
outer loop
vertex 17.374031 6.710502 13.139372
vertex 17.374031 6.710502 13.159371
vertex 17.374031 6.731256 13.139372
endloop
endfacet
facet normal 0 0 0
outer loop
vertex 17.374031 6.710502 13.159371
vertex 17.374031 6.731256 13.159371
vertex 17.374031 6.731256 13.139372
endloop
endfacet
facet normal 0 0 0
outer loop
vertex 17.517363 6.710502 13.139372
vertex 17.496887 6.731256 13.159371
vertex 17.517363 6.710502 13.159371
endloop
endfacet
facet normal 0 0 0
outer loop
vertex 17.496887 6.731256 13.139372
vertex 17.496887 6.731256 13.159371
vertex 17.517363 6.710502 13.139372
endloop
endfacet
facet normal 0 0 0
outer loop
vertex 17.353556 6.752008 13.159371
vertex 17.374031 6.752008 13.139372
vertex 17.374031 6.731256 13.159371
endloop
endfacet
facet normal 0 0 0
outer loop
vertex 17.374031 6.752008 13.139372
vertex 17.374031 6.731256 13.139372
vertex 17.374031 6.731256 13.159371
endloop
endfacet
facet normal 0 0 0
outer loop
vertex 17.517363 6.752008 13.159371
vertex 17.496887 6.731256 13.159371
vertex 17.496887 6.752008 13.139372
endloop
endfacet
facet normal 0 0 0
outer loop
vertex 17.496887 6.731256 13.159371
vertex 17.496887 6.731256 13.139372
vertex 17.496887 6.752008 13.139372
endloop
endfacet
facet normal 0 0 0
outer loop
vertex 17.374031 6.752008 13.139372
vertex 17.353556 6.772762 13.159371
vertex 17.374031 6.772762 13.139372
endloop
endfacet
facet normal 0 0 0
outer loop
vertex 17.353556 6.752008 13.159371
vertex 17.353556 6.772762 13.159371
vertex 17.374031 6.752008 13.139372
endloop
endfacet
facet normal 0 0 0
outer loop
vertex 17.517363 6.752008 13.159371
vertex 17.496887 6.752008 13.139372
vertex 17.496887 6.772762 13.159371
endloop
endfacet
facet normal 0 0 0
outer loop
vertex 17.496887 6.752008 13.139372
vertex 17.496887 6.772762 13.139372
vertex 17.496887 6.772762 13.159371
endloop
endfacet
facet normal 0 0 0
outer loop
vertex 17.374031 6.772762 13.139372
vertex 17.353556 6.793515 13.159371
vertex 17.374031 6.793515 13.139372
endloop
endfacet
facet normal 0 0 0
outer loop
vertex 17.353556 6.772762 13.159371
vertex 17.353556 6.793515 13.159371
vertex 17.374031 6.772762 13.139372
endloop
endfacet
facet normal 0 0 0
outer loop
vertex 17.476412 6.772762 13.139372
vertex 17.455935 6.793515 13.139372
vertex 17.476412 6.793515 13.159371
endloop
endfacet
facet normal 0 0 0
outer loop
vertex 17.476412 6.793515 13.159371
vertex 17.496887 6.772762 13.159371
vertex 17.476412 6.772762 13.139372
endloop
endfacet
facet normal 0 0 0
outer loop
vertex 17.496887 6.772762 13.159371
vertex 17.496887 6.772762 13.139372
vertex 17.476412 6.772762 13.139372
endloop
endfacet
facet normal 0 0 0
outer loop
vertex 17.374031 6.793515 13.139372
vertex 17.353556 6.793515 13.159371
vertex 17.374031 6.814268 13.159371
endloop
endfacet
facet normal 0 0 0
outer loop
vertex 17.353556 6.793515 13.159371
vertex 17.353556 6.814268 13.159371
vertex 17.374031 6.814268 13.159371
endloop
endfacet
facet normal 0 0 0
outer loop
vertex 17.374031 6.793515 13.139372
vertex 17.374031 6.814268 13.159371
vertex 17.394508 6.814268 13.139372
endloop
endfacet
facet normal 0 0 0
outer loop
vertex 17.414984 6.793515 13.139372
vertex 17.394508 6.814268 13.139372
vertex 17.414984 6.814268 13.159371
endloop
endfacet
facet normal 0 0 0
outer loop
vertex 17.414984 6.793515 13.139372
vertex 17.435459 6.814268 13.159371
vertex 17.435459 6.793515 13.139372
endloop
endfacet
facet normal 0 0 0
outer loop
vertex 17.414984 6.814268 13.159371
vertex 17.435459 6.814268 13.159371
vertex 17.414984 6.793515 13.139372
endloop
endfacet
facet normal 0 0 0
outer loop
vertex 17.435459 6.793515 13.139372
vertex 17.455935 6.814268 13.159371
vertex 17.455935 6.793515 13.139372
endloop
endfacet
facet normal 0 0 0
outer loop
vertex 17.435459 6.814268 13.159371
vertex 17.455935 6.814268 13.159371
vertex 17.435459 6.793515 13.139372
endloop
endfacet
facet normal 0 0 0
outer loop
vertex 17.455935 6.793515 13.139372
vertex 17.455935 6.814268 13.159371
vertex 17.476412 6.793515 13.159371
endloop
endfacet
facet normal 0 0 0
outer loop
vertex 17.455935 6.814268 13.159371
vertex 17.476412 6.814268 13.159371
vertex 17.476412 6.793515 13.159371
endloop
endfacet
facet normal 0 0 0
outer loop
vertex 17.353556 6.814268 13.159371
vertex 17.374031 6.835022 13.159371
vertex 17.374031 6.814268 13.159371
endloop
endfacet
facet normal 0 0 0
outer loop
vertex 17.394508 6.814268 13.139372
vertex 17.374031 6.814268 13.159371
vertex 17.394508 6.835022 13.159371
endloop
endfacet
facet normal 0 0 0
outer loop
vertex 17.374031 6.814268 13.159371
vertex 17.374031 6.835022 13.159371
vertex 17.394508 6.835022 13.159371
endloop
endfacet
facet normal 0 0 0
outer loop
vertex 17.394508 6.814268 13.139372
vertex 17.394508 6.835022 13.159371
vertex 17.414984 6.814268 13.159371
endloop
endfacet
facet normal 0 0 0
outer loop
vertex 17.394508 6.835022 13.159371
vertex 17.414984 6.835022 13.159371
vertex 17.414984 6.814268 13.159371
endloop
endfacet
facet normal 0 0 0
outer loop
vertex 17.435459 6.814268 13.159371
vertex 17.414984 6.814268 13.159371
vertex 17.435459 6.835022 13.159371
endloop
endfacet
facet normal 0 0 0
outer loop
vertex 17.435459 6.835022 13.159371
vertex 17.414984 6.814268 13.159371
vertex 17.414984 6.835022 13.159371
endloop
endfacet
facet normal 0 0 0
outer loop
vertex 17.435459 6.835022 13.159371
vertex 17.455935 6.814268 13.159371
vertex 17.435459 6.814268 13.159371
endloop
endfacet
facet normal 0 0 0
outer loop
vertex 17.374031 6.835022 13.159371
vertex 17.394508 6.855775 13.159371
vertex 17.394508 6.835022 13.159371
endloop
endfacet
facet normal 0 0 0
outer loop
vertex 17.394508 6.855775 13.159371
vertex 17.414984 6.835022 13.159371
vertex 17.394508 6.835022 13.159371
endloop
endfacet
facet normal 0 0 0
outer loop
vertex 17.414984 6.606735 13.179372
vertex 17.435459 6.606735 13.159371
vertex 17.435459 6.606735 13.179372
endloop
endfacet
facet normal 0 0 0
outer loop
vertex 17.455935 6.585982 13.179372
vertex 17.435459 6.606735 13.179372
vertex 17.455935 6.606735 13.159371
endloop
endfacet
facet normal 0 0 0
outer loop
vertex 17.435459 6.606735 13.179372
vertex 17.435459 6.606735 13.159371
vertex 17.455935 6.606735 13.159371
endloop
endfacet
facet normal 0 0 0
outer loop
vertex 17.476412 6.606735 13.159371
vertex 17.455935 6.585982 13.179372
vertex 17.455935 6.606735 13.159371
endloop
endfacet
facet normal 0 0 0
outer loop
vertex 17.476412 6.585982 13.179372
vertex 17.455935 6.585982 13.179372
vertex 17.476412 6.606735 13.159371
endloop
endfacet
facet normal 0 0 0
outer loop
vertex 17.476412 6.606735 13.159371
vertex 17.496887 6.606735 13.179372
vertex 17.476412 6.585982 13.179372
endloop
endfacet
facet normal 0 0 0
outer loop
vertex 17.414984 6.606735 13.179372
vertex 17.394508 6.627489 13.179372
vertex 17.414984 6.627489 13.159371
endloop
endfacet
facet normal 0 0 0
outer loop
vertex 17.435459 6.606735 13.159371
vertex 17.414984 6.606735 13.179372
vertex 17.414984 6.627489 13.159371
endloop
endfacet
facet normal 0 0 0
outer loop
vertex 17.476412 6.606735 13.159371
vertex 17.496887 6.627489 13.159371
vertex 17.496887 6.606735 13.179372
endloop
endfacet
facet normal 0 0 0
outer loop
vertex 17.496887 6.606735 13.179372
vertex 17.496887 6.627489 13.159371
vertex 17.496887 6.627489 13.179372
endloop
endfacet
facet normal 0 0 0
outer loop
vertex 17.394508 6.648242 13.159371
vertex 17.394508 6.627489 13.179372
vertex 17.394508 6.648242 13.179372
endloop
endfacet
facet normal 0 0 0
outer loop
vertex 17.414984 6.627489 13.159371
vertex 17.394508 6.627489 13.179372
vertex 17.394508 6.648242 13.159371
endloop
endfacet
facet normal 0 0 0
outer loop
vertex 17.496887 6.627489 13.159371
vertex 17.496887 6.648242 13.159371
vertex 17.496887 6.627489 13.179372
endloop
endfacet
facet normal 0 0 0
outer loop
vertex 17.496887 6.627489 13.179372
vertex 17.496887 6.648242 13.159371
vertex 17.496887 6.648242 13.179372
endloop
endfacet
facet normal 0 0 0
outer loop
vertex 17.394508 6.648242 13.179372
vertex 17.374031 6.668995 13.159371
vertex 17.394508 6.648242 13.159371
endloop
endfacet
facet normal 0 0 0
outer loop
vertex 17.374031 6.668995 13.179372
vertex 17.374031 6.668995 13.159371
vertex 17.394508 6.648242 13.179372
endloop
endfacet
facet normal 0 0 0
outer loop
vertex 17.517363 6.668995 13.159371
vertex 17.496887 6.668995 13.179372
vertex 17.496887 6.648242 13.159371
endloop
endfacet
facet normal 0 0 0
outer loop
vertex 17.496887 6.668995 13.179372
vertex 17.496887 6.648242 13.179372
vertex 17.496887 6.648242 13.159371
endloop
endfacet
facet normal 0 0 0
outer loop
vertex 17.374031 6.668995 13.159371
vertex 17.374031 6.668995 13.179372
vertex 17.374031 6.689749 13.159371
endloop
endfacet
facet normal 0 0 0
outer loop
vertex 17.374031 6.668995 13.179372
vertex 17.374031 6.689749 13.179372
vertex 17.374031 6.689749 13.159371
endloop
endfacet
facet normal 0 0 0
outer loop
vertex 17.517363 6.689749 13.159371
vertex 17.496887 6.668995 13.179372
vertex 17.517363 6.668995 13.159371
endloop
endfacet
facet normal 0 0 0
outer loop
vertex 17.496887 6.689749 13.179372
vertex 17.496887 6.668995 13.179372
vertex 17.517363 6.689749 13.159371
endloop
endfacet
facet normal 0 0 0
outer loop
vertex 17.537838 6.668995 13.159371
vertex 17.517363 6.689749 13.159371
vertex 17.517363 6.668995 13.159371
endloop
endfacet
facet normal 0 0 0
outer loop
vertex 17.353556 6.710502 13.179372
vertex 17.374031 6.710502 13.159371
vertex 17.374031 6.689749 13.179372
endloop
endfacet
facet normal 0 0 0
outer loop
vertex 17.374031 6.710502 13.159371
vertex 17.374031 6.689749 13.159371
vertex 17.374031 6.689749 13.179372
endloop
endfacet
facet normal 0 0 0
outer loop
vertex 17.517363 6.710502 13.159371
vertex 17.496887 6.689749 13.179372
vertex 17.517363 6.689749 13.159371
endloop
endfacet
facet normal 0 0 0
outer loop
vertex 17.496887 6.710502 13.179372
vertex 17.496887 6.689749 13.179372
vertex 17.517363 6.710502 13.159371
endloop
endfacet
facet normal 0 0 0
outer loop
vertex 17.374031 6.710502 13.159371
vertex 17.353556 6.731256 13.179372
vertex 17.374031 6.731256 13.159371
endloop
endfacet
facet normal 0 0 0
outer loop
vertex 17.353556 6.710502 13.179372
vertex 17.353556 6.731256 13.179372
vertex 17.374031 6.710502 13.159371
endloop
endfacet
facet normal 0 0 0
outer loop
vertex 17.517363 6.710502 13.159371
vertex 17.496887 6.731256 13.159371
vertex 17.496887 6.710502 13.179372
endloop
endfacet
facet normal 0 0 0
outer loop
vertex 17.496887 6.731256 13.159371
vertex 17.496887 6.731256 13.179372
vertex 17.496887 6.710502 13.179372
endloop
endfacet
facet normal 0 0 0
outer loop
vertex 17.353556 6.752008 13.159371
vertex 17.353556 6.731256 13.179372
vertex 17.353556 6.752008 13.179372
endloop
endfacet
facet normal 0 0 0
outer loop
vertex 17.374031 6.731256 13.159371
vertex 17.353556 6.731256 13.179372
vertex 17.353556 6.752008 13.159371
endloop
endfacet
facet normal 0 0 0
outer loop
vertex 17.517363 6.752008 13.159371
vertex 17.496887 6.752008 13.179372
vertex 17.496887 6.731256 13.159371
endloop
endfacet
facet normal 0 0 0
outer loop
vertex 17.496887 6.752008 13.179372
vertex 17.496887 6.731256 13.179372
vertex 17.496887 6.731256 13.159371
endloop
endfacet
facet normal 0 0 0
outer loop
vertex 17.353556 6.752008 13.179372
vertex 17.353556 6.772762 13.159371
vertex 17.353556 6.752008 13.159371
endloop
endfacet
facet normal 0 0 0
outer loop
vertex 17.353556 6.752008 13.179372
vertex 17.374031 6.772762 13.179372
vertex 17.353556 6.772762 13.159371
endloop
endfacet
facet normal 0 0 0
outer loop
vertex 17.496887 6.772762 13.159371
vertex 17.476412 6.772762 13.179372
vertex 17.496887 6.752008 13.179372
endloop
endfacet
facet normal 0 0 0
outer loop
vertex 17.517363 6.752008 13.159371
vertex 17.496887 6.772762 13.159371
vertex 17.496887 6.752008 13.179372
endloop
endfacet
facet normal 0 0 0
outer loop
vertex 17.374031 6.793515 13.179372
vertex 17.353556 6.772762 13.159371
vertex 17.374031 6.772762 13.179372
endloop
endfacet
facet normal 0 0 0
outer loop
vertex 17.353556 6.793515 13.159371
vertex 17.353556 6.772762 13.159371
vertex 17.374031 6.793515 13.179372
endloop
endfacet
facet normal 0 0 0
outer loop
vertex 17.496887 6.772762 13.159371
vertex 17.476412 6.793515 13.159371
vertex 17.476412 6.772762 13.179372
endloop
endfacet
facet normal 0 0 0
outer loop
vertex 17.476412 6.793515 13.159371
vertex 17.476412 6.793515 13.179372
vertex 17.476412 6.772762 13.179372
endloop
endfacet
facet normal 0 0 0
outer loop
vertex 17.374031 6.814268 13.179372
vertex 17.353556 6.793515 13.159371
vertex 17.374031 6.793515 13.179372
endloop
endfacet
facet normal 0 0 0
outer loop
vertex 17.353556 6.814268 13.159371
vertex 17.353556 6.793515 13.159371
vertex 17.374031 6.814268 13.179372
endloop
endfacet
facet normal 0 0 0
outer loop
vertex 17.476412 6.814268 13.159371
vertex 17.455935 6.814268 13.179372
vertex 17.476412 6.793515 13.179372
endloop
endfacet
facet normal 0 0 0
outer loop
vertex 17.476412 6.814268 13.159371
vertex 17.476412 6.793515 13.179372
vertex 17.476412 6.793515 13.159371
endloop
endfacet
facet normal 0 0 0
outer loop
vertex 17.353556 6.814268 13.159371
vertex 17.374031 6.814268 13.179372
vertex 17.374031 6.835022 13.159371
endloop
endfacet
facet normal 0 0 0
outer loop
vertex 17.374031 6.814268 13.179372
vertex 17.394508 6.835022 13.179372
vertex 17.374031 6.835022 13.159371
endloop
endfacet
facet normal 0 0 0
outer loop
vertex 17.455935 6.814268 13.159371
vertex 17.435459 6.835022 13.179372
vertex 17.455935 6.814268 13.179372
endloop
endfacet
facet normal 0 0 0
outer loop
vertex 17.435459 6.835022 13.159371
vertex 17.435459 6.835022 13.179372
vertex 17.455935 6.814268 13.159371
endloop
endfacet
facet normal 0 0 0
outer loop
vertex 17.455935 6.814268 13.179372
vertex 17.476412 6.814268 13.159371
vertex 17.455935 6.814268 13.159371
endloop
endfacet
facet normal 0 0 0
outer loop
vertex 17.374031 6.835022 13.159371
vertex 17.394508 6.835022 13.179372
vertex 17.394508 6.855775 13.159371
endloop
endfacet
facet normal 0 0 0
outer loop
vertex 17.394508 6.855775 13.159371
vertex 17.394508 6.835022 13.179372
vertex 17.414984 6.835022 13.159371
endloop
endfacet
facet normal 0 0 0
outer loop
vertex 17.414984 6.855775 13.179372
vertex 17.414984 6.835022 13.159371
vertex 17.394508 6.835022 13.179372
endloop
endfacet
facet normal 0 0 0
outer loop
vertex 17.414984 6.855775 13.179372
vertex 17.435459 6.835022 13.179372
vertex 17.414984 6.835022 13.159371
endloop
endfacet
facet normal 0 0 0
outer loop
vertex 17.435459 6.835022 13.179372
vertex 17.435459 6.835022 13.159371
vertex 17.414984 6.835022 13.159371
endloop
endfacet
facet normal 0 0 0
outer loop
vertex 17.435459 6.606735 13.179372
vertex 17.455935 6.585982 13.179372
vertex 17.455935 6.606735 13.179372
endloop
endfacet
facet normal 0 0 0
outer loop
vertex 17.476412 6.585982 13.179372
vertex 17.476412 6.606735 13.179372
vertex 17.455935 6.585982 13.179372
endloop
endfacet
facet normal 0 0 0
outer loop
vertex 17.476412 6.606735 13.179372
vertex 17.455935 6.606735 13.179372
vertex 17.455935 6.585982 13.179372
endloop
endfacet
facet normal 0 0 0
outer loop
vertex 17.496887 6.585982 13.179372
vertex 17.496887 6.606735 13.179372
vertex 17.476412 6.585982 13.179372
endloop
endfacet
facet normal 0 0 0
outer loop
vertex 17.496887 6.606735 13.179372
vertex 17.476412 6.606735 13.179372
vertex 17.476412 6.585982 13.179372
endloop
endfacet
facet normal 0 0 0
outer loop
vertex 17.414984 6.606735 13.179372
vertex 17.414984 6.627489 13.199371
vertex 17.394508 6.627489 13.179372
endloop
endfacet
facet normal 0 0 0
outer loop
vertex 17.435459 6.606735 13.179372
vertex 17.414984 6.627489 13.199371
vertex 17.414984 6.606735 13.179372
endloop
endfacet
facet normal 0 0 0
outer loop
vertex 17.435459 6.627489 13.199371
vertex 17.414984 6.627489 13.199371
vertex 17.435459 6.606735 13.179372
endloop
endfacet
facet normal 0 0 0
outer loop
vertex 17.455935 6.606735 13.179372
vertex 17.435459 6.627489 13.199371
vertex 17.435459 6.606735 13.179372
endloop
endfacet
facet normal 0 0 0
outer loop
vertex 17.455935 6.627489 13.199371
vertex 17.435459 6.627489 13.199371
vertex 17.455935 6.606735 13.179372
endloop
endfacet
facet normal 0 0 0
outer loop
vertex 17.476412 6.606735 13.179372
vertex 17.455935 6.627489 13.199371
vertex 17.455935 6.606735 13.179372
endloop
endfacet
facet normal 0 0 0
outer loop
vertex 17.476412 6.627489 13.199371
vertex 17.455935 6.627489 13.199371
vertex 17.476412 6.606735 13.179372
endloop
endfacet
facet normal 0 0 0
outer loop
vertex 17.496887 6.606735 13.179372
vertex 17.476412 6.627489 13.199371
vertex 17.476412 6.606735 13.179372
endloop
endfacet
facet normal 0 0 0
outer loop
vertex 17.496887 6.627489 13.199371
vertex 17.476412 6.627489 13.199371
vertex 17.496887 6.606735 13.179372
endloop
endfacet
facet normal 0 0 0
outer loop
vertex 17.496887 6.627489 13.199371
vertex 17.496887 6.606735 13.179372
vertex 17.496887 6.627489 13.179372
endloop
endfacet
facet normal 0 0 0
outer loop
vertex 17.414984 6.648242 13.199371
vertex 17.394508 6.627489 13.179372
vertex 17.414984 6.627489 13.199371
endloop
endfacet
facet normal 0 0 0
outer loop
vertex 17.394508 6.648242 13.179372
vertex 17.394508 6.627489 13.179372
vertex 17.414984 6.648242 13.199371
endloop
endfacet
facet normal 0 0 0
outer loop
vertex 17.496887 6.627489 13.179372
vertex 17.496887 6.648242 13.179372
vertex 17.496887 6.627489 13.199371
endloop
endfacet
facet normal 0 0 0
outer loop
vertex 17.496887 6.627489 13.199371
vertex 17.496887 6.648242 13.179372
vertex 17.496887 6.648242 13.199371
endloop
endfacet
facet normal 0 0 0
outer loop
vertex 17.374031 6.668995 13.179372
vertex 17.394508 6.648242 13.179372
vertex 17.394508 6.668995 13.179372
endloop
endfacet
facet normal 0 0 0
outer loop
vertex 17.414984 6.668995 13.199371
vertex 17.394508 6.648242 13.179372
vertex 17.414984 6.648242 13.199371
endloop
endfacet
facet normal 0 0 0
outer loop
vertex 17.394508 6.668995 13.179372
vertex 17.394508 6.648242 13.179372
vertex 17.414984 6.668995 13.199371
endloop
endfacet
facet normal 0 0 0
outer loop
vertex 17.496887 6.648242 13.179372
vertex 17.496887 6.668995 13.179372
vertex 17.496887 6.648242 13.199371
endloop
endfacet
facet normal 0 0 0
outer loop
vertex 17.496887 6.648242 13.199371
vertex 17.496887 6.668995 13.179372
vertex 17.496887 6.668995 13.199371
endloop
endfacet
facet normal 0 0 0
outer loop
vertex 17.374031 6.668995 13.179372
vertex 17.374031 6.689749 13.199371
vertex 17.374031 6.689749 13.179372
endloop
endfacet
facet normal 0 0 0
outer loop
vertex 17.394508 6.668995 13.179372
vertex 17.374031 6.689749 13.199371
vertex 17.374031 6.668995 13.179372
endloop
endfacet
facet normal 0 0 0
outer loop
vertex 17.394508 6.689749 13.199371
vertex 17.374031 6.689749 13.199371
vertex 17.394508 6.668995 13.179372
endloop
endfacet
facet normal 0 0 0
outer loop
vertex 17.414984 6.668995 13.199371
vertex 17.394508 6.689749 13.199371
vertex 17.394508 6.668995 13.179372
endloop
endfacet
facet normal 0 0 0
outer loop
vertex 17.496887 6.668995 13.179372
vertex 17.496887 6.689749 13.179372
vertex 17.496887 6.668995 13.199371
endloop
endfacet
facet normal 0 0 0
outer loop
vertex 17.496887 6.668995 13.199371
vertex 17.496887 6.689749 13.179372
vertex 17.496887 6.689749 13.199371
endloop
endfacet
facet normal 0 0 0
outer loop
vertex 17.353556 6.710502 13.179372
vertex 17.374031 6.689749 13.179372
vertex 17.374031 6.710502 13.199371
endloop
endfacet
facet normal 0 0 0
outer loop
vertex 17.374031 6.689749 13.179372
vertex 17.374031 6.689749 13.199371
vertex 17.374031 6.710502 13.199371
endloop
endfacet
facet normal 0 0 0
outer loop
vertex 17.496887 6.689749 13.179372
vertex 17.496887 6.710502 13.179372
vertex 17.496887 6.689749 13.199371
endloop
endfacet
facet normal 0 0 0
outer loop
vertex 17.496887 6.689749 13.199371
vertex 17.496887 6.710502 13.179372
vertex 17.496887 6.710502 13.199371
endloop
endfacet
facet normal 0 0 0
outer loop
vertex 17.374031 6.731256 13.199371
vertex 17.353556 6.710502 13.179372
vertex 17.374031 6.710502 13.199371
endloop
endfacet
facet normal 0 0 0
outer loop
vertex 17.353556 6.731256 13.179372
vertex 17.353556 6.710502 13.179372
vertex 17.374031 6.731256 13.199371
endloop
endfacet
facet normal 0 0 0
outer loop
vertex 17.496887 6.710502 13.179372
vertex 17.496887 6.731256 13.179372
vertex 17.496887 6.710502 13.199371
endloop
endfacet
facet normal 0 0 0
outer loop
vertex 17.496887 6.710502 13.199371
vertex 17.496887 6.731256 13.179372
vertex 17.496887 6.731256 13.199371
endloop
endfacet
facet normal 0 0 0
outer loop
vertex 17.374031 6.752008 13.199371
vertex 17.353556 6.731256 13.179372
vertex 17.374031 6.731256 13.199371
endloop
endfacet
facet normal 0 0 0
outer loop
vertex 17.353556 6.752008 13.179372
vertex 17.353556 6.731256 13.179372
vertex 17.374031 6.752008 13.199371
endloop
endfacet
facet normal 0 0 0
outer loop
vertex 17.496887 6.731256 13.179372
vertex 17.496887 6.752008 13.179372
vertex 17.496887 6.731256 13.199371
endloop
endfacet
facet normal 0 0 0
outer loop
vertex 17.496887 6.731256 13.199371
vertex 17.496887 6.752008 13.179372
vertex 17.496887 6.752008 13.199371
endloop
endfacet
facet normal 0 0 0
outer loop
vertex 17.353556 6.772762 13.199371
vertex 17.374031 6.772762 13.179372
vertex 17.374031 6.752008 13.199371
endloop
endfacet
facet normal 0 0 0
outer loop
vertex 17.353556 6.752008 13.179372
vertex 17.374031 6.752008 13.199371
vertex 17.374031 6.772762 13.179372
endloop
endfacet
facet normal 0 0 0
outer loop
vertex 17.496887 6.752008 13.179372
vertex 17.476412 6.772762 13.199371
vertex 17.496887 6.752008 13.199371
endloop
endfacet
facet normal 0 0 0
outer loop
vertex 17.476412 6.772762 13.179372
vertex 17.476412 6.772762 13.199371
vertex 17.496887 6.752008 13.179372
endloop
endfacet
facet normal 0 0 0
outer loop
vertex 17.353556 6.772762 13.199371
vertex 17.374031 6.793515 13.199371
vertex 17.374031 6.772762 13.179372
endloop
endfacet
facet normal 0 0 0
outer loop
vertex 17.374031 6.793515 13.199371
vertex 17.374031 6.793515 13.179372
vertex 17.374031 6.772762 13.179372
endloop
endfacet
facet normal 0 0 0
outer loop
vertex 17.476412 6.772762 13.179372
vertex 17.476412 6.793515 13.179372
vertex 17.476412 6.772762 13.199371
endloop
endfacet
facet normal 0 0 0
outer loop
vertex 17.476412 6.772762 13.199371
vertex 17.476412 6.793515 13.179372
vertex 17.476412 6.793515 13.199371
endloop
endfacet
facet normal 0 0 0
outer loop
vertex 17.374031 6.793515 13.179372
vertex 17.374031 6.793515 13.199371
vertex 17.374031 6.814268 13.179372
endloop
endfacet
facet normal 0 0 0
outer loop
vertex 17.374031 6.793515 13.199371
vertex 17.374031 6.814268 13.199371
vertex 17.374031 6.814268 13.179372
endloop
endfacet
facet normal 0 0 0
outer loop
vertex 17.476412 6.793515 13.179372
vertex 17.455935 6.814268 13.179372
vertex 17.476412 6.814268 13.199371
endloop
endfacet
facet normal 0 0 0
outer loop
vertex 17.476412 6.793515 13.179372
vertex 17.476412 6.814268 13.199371
vertex 17.476412 6.793515 13.199371
endloop
endfacet
facet normal 0 0 0
outer loop
vertex 17.374031 6.835022 13.199371
vertex 17.374031 6.814268 13.179372
vertex 17.374031 6.814268 13.199371
endloop
endfacet
facet normal 0 0 0
outer loop
vertex 17.374031 6.814268 13.179372
vertex 17.374031 6.835022 13.199371
vertex 17.394508 6.835022 13.179372
endloop
endfacet
facet normal 0 0 0
outer loop
vertex 17.455935 6.814268 13.179372
vertex 17.435459 6.835022 13.179372
vertex 17.455935 6.835022 13.199371
endloop
endfacet
facet normal 0 0 0
outer loop
vertex 17.455935 6.814268 13.179372
vertex 17.455935 6.835022 13.199371
vertex 17.476412 6.814268 13.199371
endloop
endfacet
facet normal 0 0 0
outer loop
vertex 17.394508 6.835022 13.179372
vertex 17.374031 6.835022 13.199371
vertex 17.394508 6.855775 13.199371
endloop
endfacet
facet normal 0 0 0
outer loop
vertex 17.394508 6.835022 13.179372
vertex 17.394508 6.855775 13.199371
vertex 17.414984 6.855775 13.179372
endloop
endfacet
facet normal 0 0 0
outer loop
vertex 17.435459 6.835022 13.179372
vertex 17.414984 6.855775 13.179372
vertex 17.435459 6.855775 13.199371
endloop
endfacet
facet normal 0 0 0
outer loop
vertex 17.435459 6.835022 13.179372
vertex 17.435459 6.855775 13.199371
vertex 17.455935 6.835022 13.199371
endloop
endfacet
facet normal 0 0 0
outer loop
vertex 17.414984 6.855775 13.179372
vertex 17.394508 6.855775 13.199371
vertex 17.414984 6.855775 13.199371
endloop
endfacet
facet normal 0 0 0
outer loop
vertex 17.435459 6.855775 13.199371
vertex 17.414984 6.855775 13.179372
vertex 17.414984 6.855775 13.199371
endloop
endfacet
facet normal 0 0 0
outer loop
vertex 17.435459 6.648242 13.219372
vertex 17.414984 6.648242 13.199371
vertex 17.435459 6.627489 13.199371
endloop
endfacet
facet normal 0 0 0
outer loop
vertex 17.414984 6.648242 13.199371
vertex 17.414984 6.627489 13.199371
vertex 17.435459 6.627489 13.199371
endloop
endfacet
facet normal 0 0 0
outer loop
vertex 17.455935 6.627489 13.199371
vertex 17.435459 6.648242 13.219372
vertex 17.435459 6.627489 13.199371
endloop
endfacet
facet normal 0 0 0
outer loop
vertex 17.455935 6.648242 13.219372
vertex 17.435459 6.648242 13.219372
vertex 17.455935 6.627489 13.199371
endloop
endfacet
facet normal 0 0 0
outer loop
vertex 17.476412 6.627489 13.199371
vertex 17.455935 6.648242 13.219372
vertex 17.455935 6.627489 13.199371
endloop
endfacet
facet normal 0 0 0
outer loop
vertex 17.476412 6.648242 13.219372
vertex 17.455935 6.648242 13.219372
vertex 17.476412 6.627489 13.199371
endloop
endfacet
facet normal 0 0 0
outer loop
vertex 17.476412 6.648242 13.219372
vertex 17.476412 6.627489 13.199371
vertex 17.496887 6.648242 13.199371
endloop
endfacet
facet normal 0 0 0
outer loop
vertex 17.476412 6.627489 13.199371
vertex 17.496887 6.627489 13.199371
vertex 17.496887 6.648242 13.199371
endloop
endfacet
facet normal 0 0 0
outer loop
vertex 17.435459 6.668995 13.219372
vertex 17.414984 6.648242 13.199371
vertex 17.435459 6.648242 13.219372
endloop
endfacet
facet normal 0 0 0
outer loop
vertex 17.414984 6.668995 13.199371
vertex 17.414984 6.648242 13.199371
vertex 17.435459 6.668995 13.219372
endloop
endfacet
facet normal 0 0 0
outer loop
vertex 17.496887 6.648242 13.199371
vertex 17.496887 6.668995 13.219372
vertex 17.476412 6.648242 13.219372
endloop
endfacet
facet normal 0 0 0
outer loop
vertex 17.496887 6.668995 13.219372
vertex 17.496887 6.648242 13.199371
vertex 17.496887 6.668995 13.199371
endloop
endfacet
facet normal 0 0 0
outer loop
vertex 17.414984 6.668995 13.199371
vertex 17.414984 6.689749 13.219372
vertex 17.394508 6.689749 13.199371
endloop
endfacet
facet normal 0 0 0
outer loop
vertex 17.435459 6.668995 13.219372
vertex 17.414984 6.689749 13.219372
vertex 17.414984 6.668995 13.199371
endloop
endfacet
facet normal 0 0 0
outer loop
vertex 17.496887 6.689749 13.199371
vertex 17.476412 6.689749 13.219372
vertex 17.496887 6.668995 13.219372
endloop
endfacet
facet normal 0 0 0
outer loop
vertex 17.496887 6.689749 13.199371
vertex 17.496887 6.668995 13.219372
vertex 17.496887 6.668995 13.199371
endloop
endfacet
facet normal 0 0 0
outer loop
vertex 17.394508 6.710502 13.219372
vertex 17.374031 6.710502 13.199371
vertex 17.394508 6.689749 13.199371
endloop
endfacet
facet normal 0 0 0
outer loop
vertex 17.374031 6.710502 13.199371
vertex 17.374031 6.689749 13.199371
vertex 17.394508 6.689749 13.199371
endloop
endfacet
facet normal 0 0 0
outer loop
vertex 17.414984 6.689749 13.219372
vertex 17.394508 6.710502 13.219372
vertex 17.394508 6.689749 13.199371
endloop
endfacet
facet normal 0 0 0
outer loop
vertex 17.496887 6.689749 13.199371
vertex 17.496887 6.710502 13.219372
vertex 17.476412 6.689749 13.219372
endloop
endfacet
facet normal 0 0 0
outer loop
vertex 17.496887 6.710502 13.219372
vertex 17.496887 6.689749 13.199371
vertex 17.496887 6.710502 13.199371
endloop
endfacet
facet normal 0 0 0
outer loop
vertex 17.394508 6.731256 13.219372
vertex 17.374031 6.710502 13.199371
vertex 17.394508 6.710502 13.219372
endloop
endfacet
facet normal 0 0 0
outer loop
vertex 17.374031 6.731256 13.199371
vertex 17.374031 6.710502 13.199371
vertex 17.394508 6.731256 13.219372
endloop
endfacet
facet normal 0 0 0
outer loop
vertex 17.496887 6.731256 13.199371
vertex 17.476412 6.731256 13.219372
vertex 17.496887 6.710502 13.219372
endloop
endfacet
facet normal 0 0 0
outer loop
vertex 17.496887 6.731256 13.199371
vertex 17.496887 6.710502 13.219372
vertex 17.496887 6.710502 13.199371
endloop
endfacet
facet normal 0 0 0
outer loop
vertex 17.394508 6.752008 13.219372
vertex 17.374031 6.731256 13.199371
vertex 17.394508 6.731256 13.219372
endloop
endfacet
facet normal 0 0 0
outer loop
vertex 17.374031 6.752008 13.199371
vertex 17.374031 6.731256 13.199371
vertex 17.394508 6.752008 13.219372
endloop
endfacet
facet normal 0 0 0
outer loop
vertex 17.496887 6.752008 13.199371
vertex 17.476412 6.731256 13.219372
vertex 17.496887 6.731256 13.199371
endloop
endfacet
facet normal 0 0 0
outer loop
vertex 17.476412 6.752008 13.219372
vertex 17.476412 6.731256 13.219372
vertex 17.496887 6.752008 13.199371
endloop
endfacet
facet normal 0 0 0
outer loop
vertex 17.353556 6.772762 13.199371
vertex 17.374031 6.752008 13.199371
vertex 17.374031 6.772762 13.199371
endloop
endfacet
facet normal 0 0 0
outer loop
vertex 17.394508 6.772762 13.219372
vertex 17.374031 6.752008 13.199371
vertex 17.394508 6.752008 13.219372
endloop
endfacet
facet normal 0 0 0
outer loop
vertex 17.374031 6.772762 13.199371
vertex 17.374031 6.752008 13.199371
vertex 17.394508 6.772762 13.219372
endloop
endfacet
facet normal 0 0 0
outer loop
vertex 17.496887 6.752008 13.199371
vertex 17.476412 6.772762 13.199371
vertex 17.476412 6.752008 13.219372
endloop
endfacet
facet normal 0 0 0
outer loop
vertex 17.476412 6.772762 13.199371
vertex 17.476412 6.772762 13.219372
vertex 17.476412 6.752008 13.219372
endloop
endfacet
facet normal 0 0 0
outer loop
vertex 17.374031 6.793515 13.219372
vertex 17.353556 6.772762 13.199371
vertex 17.374031 6.772762 13.199371
endloop
endfacet
facet normal 0 0 0
outer loop
vertex 17.374031 6.793515 13.219372
vertex 17.374031 6.793515 13.199371
vertex 17.353556 6.772762 13.199371
endloop
endfacet
facet normal 0 0 0
outer loop
vertex 17.394508 6.772762 13.219372
vertex 17.374031 6.793515 13.219372
vertex 17.374031 6.772762 13.199371
endloop
endfacet
facet normal 0 0 0
outer loop
vertex 17.476412 6.772762 13.199371
vertex 17.476412 6.793515 13.199371
vertex 17.476412 6.772762 13.219372
endloop
endfacet
facet normal 0 0 0
outer loop
vertex 17.476412 6.772762 13.219372
vertex 17.476412 6.793515 13.199371
vertex 17.476412 6.793515 13.219372
endloop
endfacet
facet normal 0 0 0
outer loop
vertex 17.374031 6.793515 13.199371
vertex 17.374031 6.793515 13.219372
vertex 17.374031 6.814268 13.199371
endloop
endfacet
facet normal 0 0 0
outer loop
vertex 17.374031 6.793515 13.219372
vertex 17.374031 6.814268 13.219372
vertex 17.374031 6.814268 13.199371
endloop
endfacet
facet normal 0 0 0
outer loop
vertex 17.476412 6.793515 13.199371
vertex 17.476412 6.814268 13.199371
vertex 17.476412 6.793515 13.219372
endloop
endfacet
facet normal 0 0 0
outer loop
vertex 17.476412 6.793515 13.219372
vertex 17.476412 6.814268 13.199371
vertex 17.476412 6.814268 13.219372
endloop
endfacet
facet normal 0 0 0
outer loop
vertex 17.374031 6.814268 13.199371
vertex 17.374031 6.814268 13.219372
vertex 17.374031 6.835022 13.199371
endloop
endfacet
facet normal 0 0 0
outer loop
vertex 17.374031 6.814268 13.219372
vertex 17.374031 6.835022 13.219372
vertex 17.374031 6.835022 13.199371
endloop
endfacet
facet normal 0 0 0
outer loop
vertex 17.476412 6.814268 13.199371
vertex 17.455935 6.835022 13.219372
vertex 17.476412 6.814268 13.219372
endloop
endfacet
facet normal 0 0 0
outer loop
vertex 17.455935 6.835022 13.199371
vertex 17.455935 6.835022 13.219372
vertex 17.476412 6.814268 13.199371
endloop
endfacet
facet normal 0 0 0
outer loop
vertex 17.374031 6.855775 13.219372
vertex 17.374031 6.835022 13.199371
vertex 17.374031 6.835022 13.219372
endloop
endfacet
facet normal 0 0 0
outer loop
vertex 17.374031 6.835022 13.199371
vertex 17.374031 6.855775 13.219372
vertex 17.394508 6.855775 13.199371
endloop
endfacet
facet normal 0 0 0
outer loop
vertex 17.455935 6.835022 13.199371
vertex 17.435459 6.855775 13.219372
vertex 17.455935 6.835022 13.219372
endloop
endfacet
facet normal 0 0 0
outer loop
vertex 17.435459 6.855775 13.199371
vertex 17.435459 6.855775 13.219372
vertex 17.455935 6.835022 13.199371
endloop
endfacet
facet normal 0 0 0
outer loop
vertex 17.394508 6.855775 13.199371
vertex 17.374031 6.855775 13.219372
vertex 17.394508 6.855775 13.219372
endloop
endfacet
facet normal 0 0 0
outer loop
vertex 17.414984 6.855775 13.199371
vertex 17.394508 6.855775 13.199371
vertex 17.414984 6.855775 13.219372
endloop
endfacet
facet normal 0 0 0
outer loop
vertex 17.394508 6.855775 13.199371
vertex 17.394508 6.855775 13.219372
vertex 17.414984 6.855775 13.219372
endloop
endfacet
facet normal 0 0 0
outer loop
vertex 17.435459 6.855775 13.199371
vertex 17.414984 6.855775 13.199371
vertex 17.435459 6.855775 13.219372
endloop
endfacet
facet normal 0 0 0
outer loop
vertex 17.414984 6.855775 13.199371
vertex 17.414984 6.855775 13.219372
vertex 17.435459 6.855775 13.219372
endloop
endfacet
facet normal 0 0 0
outer loop
vertex 17.455935 6.648242 13.219372
vertex 17.455935 6.668995 13.219372
vertex 17.435459 6.648242 13.219372
endloop
endfacet
facet normal 0 0 0
outer loop
vertex 17.455935 6.668995 13.219372
vertex 17.435459 6.668995 13.219372
vertex 17.435459 6.648242 13.219372
endloop
endfacet
facet normal 0 0 0
outer loop
vertex 17.476412 6.648242 13.219372
vertex 17.476412 6.668995 13.219372
vertex 17.455935 6.648242 13.219372
endloop
endfacet
facet normal 0 0 0
outer loop
vertex 17.476412 6.668995 13.219372
vertex 17.455935 6.668995 13.219372
vertex 17.455935 6.648242 13.219372
endloop
endfacet
facet normal 0 0 0
outer loop
vertex 17.476412 6.648242 13.219372
vertex 17.496887 6.668995 13.219372
vertex 17.476412 6.668995 13.219372
endloop
endfacet
facet normal 0 0 0
outer loop
vertex 17.414984 6.689749 13.219372
vertex 17.435459 6.668995 13.219372
vertex 17.435459 6.689749 13.219372
endloop
endfacet
facet normal 0 0 0
outer loop
vertex 17.455935 6.668995 13.219372
vertex 17.455935 6.689749 13.219372
vertex 17.435459 6.668995 13.219372
endloop
endfacet
facet normal 0 0 0
outer loop
vertex 17.455935 6.689749 13.219372
vertex 17.435459 6.689749 13.219372
vertex 17.435459 6.668995 13.219372
endloop
endfacet
facet normal 0 0 0
outer loop
vertex 17.476412 6.689749 13.239372
vertex 17.455935 6.689749 13.219372
vertex 17.476412 6.668995 13.219372
endloop
endfacet
facet normal 0 0 0
outer loop
vertex 17.455935 6.689749 13.219372
vertex 17.455935 6.668995 13.219372
vertex 17.476412 6.668995 13.219372
endloop
endfacet
facet normal 0 0 0
outer loop
vertex 17.496887 6.668995 13.219372
vertex 17.476412 6.689749 13.219372
vertex 17.476412 6.689749 13.239372
endloop
endfacet
facet normal 0 0 0
outer loop
vertex 17.496887 6.668995 13.219372
vertex 17.476412 6.689749 13.239372
vertex 17.476412 6.668995 13.219372
endloop
endfacet
facet normal 0 0 0
outer loop
vertex 17.414984 6.689749 13.219372
vertex 17.414984 6.710502 13.239372
vertex 17.394508 6.710502 13.219372
endloop
endfacet
facet normal 0 0 0
outer loop
vertex 17.414984 6.710502 13.239372
vertex 17.414984 6.689749 13.219372
vertex 17.435459 6.710502 13.219372
endloop
endfacet
facet normal 0 0 0
outer loop
vertex 17.414984 6.689749 13.219372
vertex 17.435459 6.689749 13.219372
vertex 17.435459 6.710502 13.219372
endloop
endfacet
facet normal 0 0 0
outer loop
vertex 17.455935 6.710502 13.239372
vertex 17.435459 6.710502 13.219372
vertex 17.455935 6.689749 13.219372
endloop
endfacet
facet normal 0 0 0
outer loop
vertex 17.435459 6.710502 13.219372
vertex 17.435459 6.689749 13.219372
vertex 17.455935 6.689749 13.219372
endloop
endfacet
facet normal 0 0 0
outer loop
vertex 17.476412 6.689749 13.239372
vertex 17.455935 6.710502 13.239372
vertex 17.455935 6.689749 13.219372
endloop
endfacet
facet normal 0 0 0
outer loop
vertex 17.496887 6.710502 13.219372
vertex 17.476412 6.710502 13.239372
vertex 17.476412 6.689749 13.219372
endloop
endfacet
facet normal 0 0 0
outer loop
vertex 17.476412 6.710502 13.239372
vertex 17.476412 6.689749 13.239372
vertex 17.476412 6.689749 13.219372
endloop
endfacet
facet normal 0 0 0
outer loop
vertex 17.414984 6.731256 13.239372
vertex 17.394508 6.710502 13.219372
vertex 17.414984 6.710502 13.239372
endloop
endfacet
facet normal 0 0 0
outer loop
vertex 17.394508 6.731256 13.219372
vertex 17.394508 6.710502 13.219372
vertex 17.414984 6.731256 13.239372
endloop
endfacet
facet normal 0 0 0
outer loop
vertex 17.435459 6.710502 13.219372
vertex 17.435459 6.731256 13.239372
vertex 17.414984 6.710502 13.239372
endloop
endfacet
facet normal 0 0 0
outer loop
vertex 17.455935 6.710502 13.239372
vertex 17.435459 6.731256 13.239372
vertex 17.435459 6.710502 13.219372
endloop
endfacet
facet normal 0 0 0
outer loop
vertex 17.496887 6.731256 13.239372
vertex 17.476412 6.710502 13.239372
vertex 17.476412 6.731256 13.219372
endloop
endfacet
facet normal 0 0 0
outer loop
vertex 17.496887 6.710502 13.219372
vertex 17.476412 6.731256 13.219372
vertex 17.476412 6.710502 13.239372
endloop
endfacet
facet normal 0 0 0
outer loop
vertex 17.414984 6.752008 13.239372
vertex 17.394508 6.731256 13.219372
vertex 17.414984 6.731256 13.239372
endloop
endfacet
facet normal 0 0 0
outer loop
vertex 17.394508 6.752008 13.219372
vertex 17.394508 6.731256 13.219372
vertex 17.414984 6.752008 13.239372
endloop
endfacet
facet normal 0 0 0
outer loop
vertex 17.496887 6.731256 13.239372
vertex 17.476412 6.752008 13.219372
vertex 17.496887 6.752008 13.239372
endloop
endfacet
facet normal 0 0 0
outer loop
vertex 17.476412 6.731256 13.219372
vertex 17.476412 6.752008 13.219372
vertex 17.496887 6.731256 13.239372
endloop
endfacet
facet normal 0 0 0
outer loop
vertex 17.414984 6.772762 13.239372
vertex 17.394508 6.752008 13.219372
vertex 17.414984 6.752008 13.239372
endloop
endfacet
facet normal 0 0 0
outer loop
vertex 17.394508 6.772762 13.219372
vertex 17.394508 6.752008 13.219372
vertex 17.414984 6.772762 13.239372
endloop
endfacet
facet normal 0 0 0
outer loop
vertex 17.496887 6.752008 13.239372
vertex 17.476412 6.772762 13.219372
vertex 17.496887 6.772762 13.239372
endloop
endfacet
facet normal 0 0 0
outer loop
vertex 17.476412 6.752008 13.219372
vertex 17.476412 6.772762 13.219372
vertex 17.496887 6.752008 13.239372
endloop
endfacet
facet normal 0 0 0
outer loop
vertex 17.394508 6.772762 13.219372
vertex 17.394508 6.793515 13.239372
vertex 17.374031 6.793515 13.219372
endloop
endfacet
facet normal 0 0 0
outer loop
vertex 17.414984 6.772762 13.239372
vertex 17.394508 6.793515 13.239372
vertex 17.394508 6.772762 13.219372
endloop
endfacet
facet normal 0 0 0
outer loop
vertex 17.496887 6.772762 13.239372
vertex 17.476412 6.793515 13.219372
vertex 17.496887 6.793515 13.239372
endloop
endfacet
facet normal 0 0 0
outer loop
vertex 17.476412 6.772762 13.219372
vertex 17.476412 6.793515 13.219372
vertex 17.496887 6.772762 13.239372
endloop
endfacet
facet normal 0 0 0
outer loop
vertex 17.394508 6.793515 13.239372
vertex 17.394508 6.814268 13.219372
vertex 17.374031 6.793515 13.219372
endloop
endfacet
facet normal 0 0 0
outer loop
vertex 17.394508 6.814268 13.219372
vertex 17.374031 6.814268 13.219372
vertex 17.374031 6.793515 13.219372
endloop
endfacet
facet normal 0 0 0
outer loop
vertex 17.394508 6.793515 13.239372
vertex 17.414984 6.814268 13.239372
vertex 17.394508 6.814268 13.219372
endloop
endfacet
facet normal 0 0 0
outer loop
vertex 17.496887 6.793515 13.239372
vertex 17.476412 6.793515 13.219372
vertex 17.476412 6.814268 13.239372
endloop
endfacet
facet normal 0 0 0
outer loop
vertex 17.476412 6.793515 13.219372
vertex 17.476412 6.814268 13.219372
vertex 17.476412 6.814268 13.239372
endloop
endfacet
facet normal 0 0 0
outer loop
vertex 17.394508 6.814268 13.219372
vertex 17.394508 6.835022 13.219372
vertex 17.374031 6.814268 13.219372
endloop
endfacet
facet normal 0 0 0
outer loop
vertex 17.394508 6.835022 13.219372
vertex 17.374031 6.835022 13.219372
vertex 17.374031 6.814268 13.219372
endloop
endfacet
facet normal 0 0 0
outer loop
vertex 17.414984 6.814268 13.239372
vertex 17.414984 6.835022 13.219372
vertex 17.394508 6.814268 13.219372
endloop
endfacet
facet normal 0 0 0
outer loop
vertex 17.414984 6.835022 13.219372
vertex 17.394508 6.835022 13.219372
vertex 17.394508 6.814268 13.219372
endloop
endfacet
facet normal 0 0 0
outer loop
vertex 17.414984 6.814268 13.239372
vertex 17.435459 6.835022 13.239372
vertex 17.414984 6.835022 13.219372
endloop
endfacet
facet normal 0 0 0
outer loop
vertex 17.476412 6.814268 13.219372
vertex 17.455935 6.835022 13.239372
vertex 17.476412 6.814268 13.239372
endloop
endfacet
facet normal 0 0 0
outer loop
vertex 17.455935 6.835022 13.219372
vertex 17.455935 6.835022 13.239372
vertex 17.476412 6.814268 13.219372
endloop
endfacet
facet normal 0 0 0
outer loop
vertex 17.394508 6.835022 13.219372
vertex 17.394508 6.855775 13.219372
vertex 17.374031 6.835022 13.219372
endloop
endfacet
facet normal 0 0 0
outer loop
vertex 17.394508 6.855775 13.219372
vertex 17.374031 6.855775 13.219372
vertex 17.374031 6.835022 13.219372
endloop
endfacet
facet normal 0 0 0
outer loop
vertex 17.414984 6.835022 13.219372
vertex 17.414984 6.855775 13.219372
vertex 17.394508 6.835022 13.219372
endloop
endfacet
facet normal 0 0 0
outer loop
vertex 17.414984 6.855775 13.219372
vertex 17.394508 6.855775 13.219372
vertex 17.394508 6.835022 13.219372
endloop
endfacet
facet normal 0 0 0
outer loop
vertex 17.435459 6.835022 13.239372
vertex 17.435459 6.855775 13.219372
vertex 17.414984 6.835022 13.219372
endloop
endfacet
facet normal 0 0 0
outer loop
vertex 17.435459 6.855775 13.219372
vertex 17.414984 6.855775 13.219372
vertex 17.414984 6.835022 13.219372
endloop
endfacet
facet normal 0 0 0
outer loop
vertex 17.435459 6.855775 13.219372
vertex 17.435459 6.835022 13.239372
vertex 17.455935 6.835022 13.219372
endloop
endfacet
facet normal 0 0 0
outer loop
vertex 17.435459 6.835022 13.239372
vertex 17.455935 6.835022 13.239372
vertex 17.455935 6.835022 13.219372
endloop
endfacet
facet normal 0 0 0
outer loop
vertex 17.455935 6.710502 13.239372
vertex 17.476412 6.689749 13.239372
vertex 17.476412 6.710502 13.239372
endloop
endfacet
facet normal 0 0 0
outer loop
vertex 17.414984 6.710502 13.239372
vertex 17.435459 6.731256 13.239372
vertex 17.414984 6.731256 13.239372
endloop
endfacet
facet normal 0 0 0
outer loop
vertex 17.435459 6.731256 13.239372
vertex 17.455935 6.710502 13.239372
vertex 17.455935 6.731256 13.239372
endloop
endfacet
facet normal 0 0 0
outer loop
vertex 17.476412 6.710502 13.239372
vertex 17.476412 6.731256 13.239372
vertex 17.455935 6.710502 13.239372
endloop
endfacet
facet normal 0 0 0
outer loop
vertex 17.476412 6.731256 13.239372
vertex 17.455935 6.731256 13.239372
vertex 17.455935 6.710502 13.239372
endloop
endfacet
facet normal 0 0 0
outer loop
vertex 17.476412 6.710502 13.239372
vertex 17.496887 6.731256 13.239372
vertex 17.476412 6.731256 13.239372
endloop
endfacet
facet normal 0 0 0
outer loop
vertex 17.435459 6.731256 13.239372
vertex 17.435459 6.752008 13.239372
vertex 17.414984 6.731256 13.239372
endloop
endfacet
facet normal 0 0 0
outer loop
vertex 17.435459 6.752008 13.239372
vertex 17.414984 6.752008 13.239372
vertex 17.414984 6.731256 13.239372
endloop
endfacet
facet normal 0 0 0
outer loop
vertex 17.455935 6.731256 13.239372
vertex 17.455935 6.752008 13.239372
vertex 17.435459 6.731256 13.239372
endloop
endfacet
facet normal 0 0 0
outer loop
vertex 17.455935 6.752008 13.239372
vertex 17.435459 6.752008 13.239372
vertex 17.435459 6.731256 13.239372
endloop
endfacet
facet normal 0 0 0
outer loop
vertex 17.476412 6.731256 13.239372
vertex 17.476412 6.752008 13.239372
vertex 17.455935 6.731256 13.239372
endloop
endfacet
facet normal 0 0 0
outer loop
vertex 17.476412 6.752008 13.239372
vertex 17.455935 6.752008 13.239372
vertex 17.455935 6.731256 13.239372
endloop
endfacet
facet normal 0 0 0
outer loop
vertex 17.496887 6.731256 13.239372
vertex 17.496887 6.752008 13.239372
vertex 17.476412 6.731256 13.239372
endloop
endfacet
facet normal 0 0 0
outer loop
vertex 17.496887 6.752008 13.239372
vertex 17.476412 6.752008 13.239372
vertex 17.476412 6.731256 13.239372
endloop
endfacet
facet normal 0 0 0
outer loop
vertex 17.435459 6.752008 13.239372
vertex 17.435459 6.772762 13.239372
vertex 17.414984 6.752008 13.239372
endloop
endfacet
facet normal 0 0 0
outer loop
vertex 17.435459 6.772762 13.239372
vertex 17.414984 6.772762 13.239372
vertex 17.414984 6.752008 13.239372
endloop
endfacet
facet normal 0 0 0
outer loop
vertex 17.455935 6.752008 13.239372
vertex 17.455935 6.772762 13.239372
vertex 17.435459 6.752008 13.239372
endloop
endfacet
facet normal 0 0 0
outer loop
vertex 17.455935 6.772762 13.239372
vertex 17.435459 6.772762 13.239372
vertex 17.435459 6.752008 13.239372
endloop
endfacet
facet normal 0 0 0
outer loop
vertex 17.476412 6.752008 13.239372
vertex 17.476412 6.772762 13.239372
vertex 17.455935 6.752008 13.239372
endloop
endfacet
facet normal 0 0 0
outer loop
vertex 17.476412 6.772762 13.239372
vertex 17.455935 6.772762 13.239372
vertex 17.455935 6.752008 13.239372
endloop
endfacet
facet normal 0 0 0
outer loop
vertex 17.496887 6.752008 13.239372
vertex 17.496887 6.772762 13.239372
vertex 17.476412 6.752008 13.239372
endloop
endfacet
facet normal 0 0 0
outer loop
vertex 17.496887 6.772762 13.239372
vertex 17.476412 6.772762 13.239372
vertex 17.476412 6.752008 13.239372
endloop
endfacet
facet normal 0 0 0
outer loop
vertex 17.394508 6.793515 13.239372
vertex 17.414984 6.772762 13.239372
vertex 17.414984 6.793515 13.239372
endloop
endfacet
facet normal 0 0 0
outer loop
vertex 17.435459 6.772762 13.239372
vertex 17.435459 6.793515 13.239372
vertex 17.414984 6.772762 13.239372
endloop
endfacet
facet normal 0 0 0
outer loop
vertex 17.435459 6.793515 13.239372
vertex 17.414984 6.793515 13.239372
vertex 17.414984 6.772762 13.239372
endloop
endfacet
facet normal 0 0 0
outer loop
vertex 17.455935 6.772762 13.239372
vertex 17.455935 6.793515 13.239372
vertex 17.435459 6.772762 13.239372
endloop
endfacet
facet normal 0 0 0
outer loop
vertex 17.455935 6.793515 13.239372
vertex 17.435459 6.793515 13.239372
vertex 17.435459 6.772762 13.239372
endloop
endfacet
facet normal 0 0 0
outer loop
vertex 17.476412 6.772762 13.239372
vertex 17.476412 6.793515 13.239372
vertex 17.455935 6.772762 13.239372
endloop
endfacet
facet normal 0 0 0
outer loop
vertex 17.476412 6.793515 13.239372
vertex 17.455935 6.793515 13.239372
vertex 17.455935 6.772762 13.239372
endloop
endfacet
facet normal 0 0 0
outer loop
vertex 17.496887 6.772762 13.239372
vertex 17.496887 6.793515 13.239372
vertex 17.476412 6.772762 13.239372
endloop
endfacet
facet normal 0 0 0
outer loop
vertex 17.496887 6.793515 13.239372
vertex 17.476412 6.793515 13.239372
vertex 17.476412 6.772762 13.239372
endloop
endfacet
facet normal 0 0 0
outer loop
vertex 17.414984 6.814268 13.239372
vertex 17.394508 6.793515 13.239372
vertex 17.414984 6.793515 13.239372
endloop
endfacet
facet normal 0 0 0
outer loop
vertex 17.435459 6.793515 13.239372
vertex 17.435459 6.814268 13.239372
vertex 17.414984 6.793515 13.239372
endloop
endfacet
facet normal 0 0 0
outer loop
vertex 17.435459 6.814268 13.239372
vertex 17.414984 6.814268 13.239372
vertex 17.414984 6.793515 13.239372
endloop
endfacet
facet normal 0 0 0
outer loop
vertex 17.455935 6.793515 13.239372
vertex 17.455935 6.814268 13.239372
vertex 17.435459 6.793515 13.239372
endloop
endfacet
facet normal 0 0 0
outer loop
vertex 17.455935 6.814268 13.239372
vertex 17.435459 6.814268 13.239372
vertex 17.435459 6.793515 13.239372
endloop
endfacet
facet normal 0 0 0
outer loop
vertex 17.476412 6.793515 13.239372
vertex 17.476412 6.814268 13.239372
vertex 17.455935 6.793515 13.239372
endloop
endfacet
facet normal 0 0 0
outer loop
vertex 17.476412 6.814268 13.239372
vertex 17.455935 6.814268 13.239372
vertex 17.455935 6.793515 13.239372
endloop
endfacet
facet normal 0 0 0
outer loop
vertex 17.496887 6.793515 13.239372
vertex 17.476412 6.814268 13.239372
vertex 17.476412 6.793515 13.239372
endloop
endfacet
facet normal 0 0 0
outer loop
vertex 17.435459 6.835022 13.239372
vertex 17.414984 6.814268 13.239372
vertex 17.435459 6.814268 13.239372
endloop
endfacet
facet normal 0 0 0
outer loop
vertex 17.455935 6.814268 13.239372
vertex 17.455935 6.835022 13.239372
vertex 17.435459 6.814268 13.239372
endloop
endfacet
facet normal 0 0 0
outer loop
vertex 17.455935 6.835022 13.239372
vertex 17.435459 6.835022 13.239372
vertex 17.435459 6.814268 13.239372
endloop
endfacet
facet normal 0 0 0
outer loop
vertex 17.476412 6.814268 13.239372
vertex 17.455935 6.835022 13.239372
vertex 17.455935 6.814268 13.239372
endloop
endfacet
endsolid B-16-Plag.325
