solid B-16-Plag.159
facet normal 0 0 0
outer loop
vertex 19.831127 14.202451 8.039371
vertex 19.810652 14.181698 8.039371
vertex 19.810652 14.202451 8.039371
endloop
endfacet
facet normal 0 0 0
outer loop
vertex 19.831127 14.202451 8.039371
vertex 19.810652 14.202451 8.039371
vertex 19.831127 14.223205 8.039371
endloop
endfacet
facet normal 0 0 0
outer loop
vertex 19.831127 14.223205 8.039371
vertex 19.810652 14.202451 8.039371
vertex 19.810652 14.223205 8.039371
endloop
endfacet
facet normal 0 0 0
outer loop
vertex 19.851604 14.202451 8.039371
vertex 19.831127 14.202451 8.039371
vertex 19.851604 14.223205 8.039371
endloop
endfacet
facet normal 0 0 0
outer loop
vertex 19.851604 14.223205 8.039371
vertex 19.831127 14.202451 8.039371
vertex 19.831127 14.223205 8.039371
endloop
endfacet
facet normal 0 0 0
outer loop
vertex 19.872080 14.223205 8.039371
vertex 19.851604 14.202451 8.039371
vertex 19.851604 14.223205 8.039371
endloop
endfacet
facet normal 0 0 0
outer loop
vertex 19.810652 14.223205 8.039371
vertex 19.790176 14.243958 8.039371
vertex 19.810652 14.243958 8.039371
endloop
endfacet
facet normal 0 0 0
outer loop
vertex 19.831127 14.223205 8.039371
vertex 19.810652 14.223205 8.039371
vertex 19.831127 14.243958 8.039371
endloop
endfacet
facet normal 0 0 0
outer loop
vertex 19.831127 14.243958 8.039371
vertex 19.810652 14.223205 8.039371
vertex 19.810652 14.243958 8.039371
endloop
endfacet
facet normal 0 0 0
outer loop
vertex 19.851604 14.223205 8.039371
vertex 19.831127 14.223205 8.039371
vertex 19.851604 14.243958 8.039371
endloop
endfacet
facet normal 0 0 0
outer loop
vertex 19.851604 14.243958 8.039371
vertex 19.831127 14.223205 8.039371
vertex 19.831127 14.243958 8.039371
endloop
endfacet
facet normal 0 0 0
outer loop
vertex 19.872080 14.223205 8.039371
vertex 19.851604 14.223205 8.039371
vertex 19.872080 14.243958 8.039371
endloop
endfacet
facet normal 0 0 0
outer loop
vertex 19.872080 14.243958 8.039371
vertex 19.851604 14.223205 8.039371
vertex 19.851604 14.243958 8.039371
endloop
endfacet
facet normal 0 0 0
outer loop
vertex 19.810652 14.264711 8.019372
vertex 19.810652 14.243958 8.039371
vertex 19.790176 14.264711 8.039371
endloop
endfacet
facet normal 0 0 0
outer loop
vertex 19.810652 14.243958 8.039371
vertex 19.790176 14.243958 8.039371
vertex 19.790176 14.264711 8.039371
endloop
endfacet
facet normal 0 0 0
outer loop
vertex 19.810652 14.264711 8.019372
vertex 19.831127 14.264711 8.039371
vertex 19.810652 14.243958 8.039371
endloop
endfacet
facet normal 0 0 0
outer loop
vertex 19.831127 14.264711 8.039371
vertex 19.831127 14.243958 8.039371
vertex 19.810652 14.243958 8.039371
endloop
endfacet
facet normal 0 0 0
outer loop
vertex 19.851604 14.243958 8.039371
vertex 19.831127 14.243958 8.039371
vertex 19.851604 14.264711 8.039371
endloop
endfacet
facet normal 0 0 0
outer loop
vertex 19.851604 14.264711 8.039371
vertex 19.831127 14.243958 8.039371
vertex 19.831127 14.264711 8.039371
endloop
endfacet
facet normal 0 0 0
outer loop
vertex 19.851604 14.264711 8.039371
vertex 19.872080 14.243958 8.039371
vertex 19.851604 14.243958 8.039371
endloop
endfacet
facet normal 0 0 0
outer loop
vertex 19.810652 14.264711 8.019372
vertex 19.790176 14.285464 8.039371
vertex 19.810652 14.285464 8.019372
endloop
endfacet
facet normal 0 0 0
outer loop
vertex 19.790176 14.264711 8.039371
vertex 19.790176 14.285464 8.039371
vertex 19.810652 14.264711 8.019372
endloop
endfacet
facet normal 0 0 0
outer loop
vertex 19.831127 14.264711 8.039371
vertex 19.810652 14.285464 8.019372
vertex 19.831127 14.285464 8.039371
endloop
endfacet
facet normal 0 0 0
outer loop
vertex 19.810652 14.264711 8.019372
vertex 19.810652 14.285464 8.019372
vertex 19.831127 14.264711 8.039371
endloop
endfacet
facet normal 0 0 0
outer loop
vertex 19.851604 14.264711 8.039371
vertex 19.831127 14.264711 8.039371
vertex 19.851604 14.285464 8.039371
endloop
endfacet
facet normal 0 0 0
outer loop
vertex 19.851604 14.285464 8.039371
vertex 19.831127 14.264711 8.039371
vertex 19.831127 14.285464 8.039371
endloop
endfacet
facet normal 0 0 0
outer loop
vertex 19.810652 14.285464 8.019372
vertex 19.790176 14.285464 8.039371
vertex 19.810652 14.306217 8.039371
endloop
endfacet
facet normal 0 0 0
outer loop
vertex 19.790176 14.285464 8.039371
vertex 19.790176 14.306217 8.039371
vertex 19.810652 14.306217 8.039371
endloop
endfacet
facet normal 0 0 0
outer loop
vertex 19.810652 14.285464 8.019372
vertex 19.810652 14.306217 8.039371
vertex 19.831127 14.285464 8.039371
endloop
endfacet
facet normal 0 0 0
outer loop
vertex 19.810652 14.306217 8.039371
vertex 19.831127 14.306217 8.039371
vertex 19.831127 14.285464 8.039371
endloop
endfacet
facet normal 0 0 0
outer loop
vertex 19.851604 14.285464 8.039371
vertex 19.831127 14.285464 8.039371
vertex 19.851604 14.306217 8.039371
endloop
endfacet
facet normal 0 0 0
outer loop
vertex 19.851604 14.306217 8.039371
vertex 19.831127 14.285464 8.039371
vertex 19.831127 14.306217 8.039371
endloop
endfacet
facet normal 0 0 0
outer loop
vertex 19.790176 14.306217 8.039371
vertex 19.810652 14.326971 8.039371
vertex 19.810652 14.306217 8.039371
endloop
endfacet
facet normal 0 0 0
outer loop
vertex 19.831127 14.306217 8.039371
vertex 19.810652 14.306217 8.039371
vertex 19.831127 14.326971 8.039371
endloop
endfacet
facet normal 0 0 0
outer loop
vertex 19.831127 14.326971 8.039371
vertex 19.810652 14.306217 8.039371
vertex 19.810652 14.326971 8.039371
endloop
endfacet
facet normal 0 0 0
outer loop
vertex 19.851604 14.306217 8.039371
vertex 19.831127 14.306217 8.039371
vertex 19.851604 14.326971 8.039371
endloop
endfacet
facet normal 0 0 0
outer loop
vertex 19.851604 14.326971 8.039371
vertex 19.831127 14.306217 8.039371
vertex 19.831127 14.326971 8.039371
endloop
endfacet
facet normal 0 0 0
outer loop
vertex 19.831127 14.326971 8.039371
vertex 19.810652 14.326971 8.039371
vertex 19.831127 14.347725 8.039371
endloop
endfacet
facet normal 0 0 0
outer loop
vertex 19.831127 14.347725 8.039371
vertex 19.810652 14.326971 8.039371
vertex 19.810652 14.347725 8.039371
endloop
endfacet
facet normal 0 0 0
outer loop
vertex 19.851604 14.326971 8.039371
vertex 19.831127 14.326971 8.039371
vertex 19.851604 14.347725 8.039371
endloop
endfacet
facet normal 0 0 0
outer loop
vertex 19.851604 14.347725 8.039371
vertex 19.831127 14.326971 8.039371
vertex 19.831127 14.347725 8.039371
endloop
endfacet
facet normal 0 0 0
outer loop
vertex 19.831127 14.347725 8.039371
vertex 19.810652 14.347725 8.039371
vertex 19.831127 14.368477 8.039371
endloop
endfacet
facet normal 0 0 0
outer loop
vertex 19.831127 14.368477 8.039371
vertex 19.810652 14.347725 8.039371
vertex 19.810652 14.368477 8.039371
endloop
endfacet
facet normal 0 0 0
outer loop
vertex 19.831127 14.368477 8.039371
vertex 19.851604 14.347725 8.039371
vertex 19.831127 14.347725 8.039371
endloop
endfacet
facet normal 0 0 0
outer loop
vertex 19.851604 14.202451 8.059372
vertex 19.831127 14.202451 8.039371
vertex 19.851604 14.202451 8.039371
endloop
endfacet
facet normal 0 0 0
outer loop
vertex 19.831127 14.223205 8.059372
vertex 19.810652 14.223205 8.039371
vertex 19.831127 14.202451 8.039371
endloop
endfacet
facet normal 0 0 0
outer loop
vertex 19.810652 14.223205 8.039371
vertex 19.810652 14.202451 8.039371
vertex 19.831127 14.202451 8.039371
endloop
endfacet
facet normal 0 0 0
outer loop
vertex 19.851604 14.202451 8.059372
vertex 19.831127 14.223205 8.059372
vertex 19.831127 14.202451 8.039371
endloop
endfacet
facet normal 0 0 0
outer loop
vertex 19.872080 14.223205 8.039371
vertex 19.851604 14.223205 8.059372
vertex 19.851604 14.202451 8.039371
endloop
endfacet
facet normal 0 0 0
outer loop
vertex 19.851604 14.223205 8.059372
vertex 19.851604 14.202451 8.059372
vertex 19.851604 14.202451 8.039371
endloop
endfacet
facet normal 0 0 0
outer loop
vertex 19.831127 14.243958 8.059372
vertex 19.810652 14.223205 8.039371
vertex 19.831127 14.223205 8.059372
endloop
endfacet
facet normal 0 0 0
outer loop
vertex 19.810652 14.243958 8.039371
vertex 19.810652 14.223205 8.039371
vertex 19.831127 14.243958 8.059372
endloop
endfacet
facet normal 0 0 0
outer loop
vertex 19.872080 14.223205 8.039371
vertex 19.872080 14.243958 8.059372
vertex 19.851604 14.223205 8.059372
endloop
endfacet
facet normal 0 0 0
outer loop
vertex 19.872080 14.243958 8.059372
vertex 19.872080 14.223205 8.039371
vertex 19.872080 14.243958 8.039371
endloop
endfacet
facet normal 0 0 0
outer loop
vertex 19.810652 14.264711 8.059372
vertex 19.790176 14.264711 8.039371
vertex 19.810652 14.243958 8.039371
endloop
endfacet
facet normal 0 0 0
outer loop
vertex 19.831127 14.243958 8.059372
vertex 19.810652 14.264711 8.059372
vertex 19.810652 14.243958 8.039371
endloop
endfacet
facet normal 0 0 0
outer loop
vertex 19.872080 14.243958 8.039371
vertex 19.851604 14.264711 8.039371
vertex 19.872080 14.264711 8.059372
endloop
endfacet
facet normal 0 0 0
outer loop
vertex 19.872080 14.243958 8.039371
vertex 19.872080 14.264711 8.059372
vertex 19.872080 14.243958 8.059372
endloop
endfacet
facet normal 0 0 0
outer loop
vertex 19.810652 14.285464 8.059372
vertex 19.790176 14.264711 8.039371
vertex 19.810652 14.264711 8.059372
endloop
endfacet
facet normal 0 0 0
outer loop
vertex 19.790176 14.285464 8.039371
vertex 19.790176 14.264711 8.039371
vertex 19.810652 14.285464 8.059372
endloop
endfacet
facet normal 0 0 0
outer loop
vertex 19.872080 14.264711 8.059372
vertex 19.851604 14.285464 8.039371
vertex 19.872080 14.285464 8.059372
endloop
endfacet
facet normal 0 0 0
outer loop
vertex 19.851604 14.264711 8.039371
vertex 19.851604 14.285464 8.039371
vertex 19.872080 14.264711 8.059372
endloop
endfacet
facet normal 0 0 0
outer loop
vertex 19.810652 14.306217 8.059372
vertex 19.790176 14.285464 8.039371
vertex 19.810652 14.285464 8.059372
endloop
endfacet
facet normal 0 0 0
outer loop
vertex 19.790176 14.306217 8.039371
vertex 19.790176 14.285464 8.039371
vertex 19.810652 14.306217 8.059372
endloop
endfacet
facet normal 0 0 0
outer loop
vertex 19.872080 14.285464 8.059372
vertex 19.851604 14.306217 8.039371
vertex 19.872080 14.306217 8.059372
endloop
endfacet
facet normal 0 0 0
outer loop
vertex 19.851604 14.285464 8.039371
vertex 19.851604 14.306217 8.039371
vertex 19.872080 14.285464 8.059372
endloop
endfacet
facet normal 0 0 0
outer loop
vertex 19.790176 14.306217 8.039371
vertex 19.810652 14.306217 8.059372
vertex 19.810652 14.326971 8.039371
endloop
endfacet
facet normal 0 0 0
outer loop
vertex 19.810652 14.306217 8.059372
vertex 19.810652 14.326971 8.059372
vertex 19.810652 14.326971 8.039371
endloop
endfacet
facet normal 0 0 0
outer loop
vertex 19.872080 14.306217 8.059372
vertex 19.851604 14.326971 8.039371
vertex 19.872080 14.326971 8.059372
endloop
endfacet
facet normal 0 0 0
outer loop
vertex 19.851604 14.306217 8.039371
vertex 19.851604 14.326971 8.039371
vertex 19.872080 14.306217 8.059372
endloop
endfacet
facet normal 0 0 0
outer loop
vertex 19.810652 14.326971 8.039371
vertex 19.810652 14.326971 8.059372
vertex 19.810652 14.347725 8.039371
endloop
endfacet
facet normal 0 0 0
outer loop
vertex 19.810652 14.326971 8.059372
vertex 19.810652 14.347725 8.059372
vertex 19.810652 14.347725 8.039371
endloop
endfacet
facet normal 0 0 0
outer loop
vertex 19.872080 14.326971 8.059372
vertex 19.851604 14.347725 8.039371
vertex 19.872080 14.347725 8.059372
endloop
endfacet
facet normal 0 0 0
outer loop
vertex 19.851604 14.326971 8.039371
vertex 19.851604 14.347725 8.039371
vertex 19.872080 14.326971 8.059372
endloop
endfacet
facet normal 0 0 0
outer loop
vertex 19.810652 14.347725 8.039371
vertex 19.810652 14.347725 8.059372
vertex 19.810652 14.368477 8.039371
endloop
endfacet
facet normal 0 0 0
outer loop
vertex 19.810652 14.347725 8.059372
vertex 19.810652 14.368477 8.059372
vertex 19.810652 14.368477 8.039371
endloop
endfacet
facet normal 0 0 0
outer loop
vertex 19.851604 14.347725 8.039371
vertex 19.831127 14.368477 8.039371
vertex 19.851604 14.368477 8.059372
endloop
endfacet
facet normal 0 0 0
outer loop
vertex 19.851604 14.347725 8.039371
vertex 19.851604 14.368477 8.059372
vertex 19.872080 14.347725 8.059372
endloop
endfacet
facet normal 0 0 0
outer loop
vertex 19.851604 14.368477 8.059372
vertex 19.872080 14.368477 8.059372
vertex 19.872080 14.347725 8.059372
endloop
endfacet
facet normal 0 0 0
outer loop
vertex 19.810652 14.389231 8.059372
vertex 19.810652 14.368477 8.039371
vertex 19.810652 14.368477 8.059372
endloop
endfacet
facet normal 0 0 0
outer loop
vertex 19.810652 14.368477 8.039371
vertex 19.831127 14.389231 8.059372
vertex 19.831127 14.368477 8.039371
endloop
endfacet
facet normal 0 0 0
outer loop
vertex 19.810652 14.389231 8.059372
vertex 19.831127 14.389231 8.059372
vertex 19.810652 14.368477 8.039371
endloop
endfacet
facet normal 0 0 0
outer loop
vertex 19.831127 14.368477 8.039371
vertex 19.831127 14.389231 8.059372
vertex 19.851604 14.368477 8.059372
endloop
endfacet
facet normal 0 0 0
outer loop
vertex 19.831127 14.389231 8.059372
vertex 19.851604 14.389231 8.059372
vertex 19.851604 14.368477 8.059372
endloop
endfacet
facet normal 0 0 0
outer loop
vertex 19.851604 14.389231 8.059372
vertex 19.872080 14.368477 8.059372
vertex 19.851604 14.368477 8.059372
endloop
endfacet
facet normal 0 0 0
outer loop
vertex 19.831127 14.223205 8.059372
vertex 19.851604 14.202451 8.059372
vertex 19.851604 14.223205 8.059372
endloop
endfacet
facet normal 0 0 0
outer loop
vertex 19.831127 14.223205 8.059372
vertex 19.831127 14.243958 8.079372
vertex 19.831127 14.243958 8.059372
endloop
endfacet
facet normal 0 0 0
outer loop
vertex 19.851604 14.223205 8.059372
vertex 19.831127 14.243958 8.079372
vertex 19.831127 14.223205 8.059372
endloop
endfacet
facet normal 0 0 0
outer loop
vertex 19.851604 14.243958 8.079372
vertex 19.831127 14.243958 8.079372
vertex 19.851604 14.223205 8.059372
endloop
endfacet
facet normal 0 0 0
outer loop
vertex 19.872080 14.243958 8.059372
vertex 19.851604 14.243958 8.079372
vertex 19.851604 14.223205 8.059372
endloop
endfacet
facet normal 0 0 0
outer loop
vertex 19.810652 14.264711 8.059372
vertex 19.831127 14.243958 8.059372
vertex 19.831127 14.264711 8.079372
endloop
endfacet
facet normal 0 0 0
outer loop
vertex 19.831127 14.243958 8.059372
vertex 19.831127 14.243958 8.079372
vertex 19.831127 14.264711 8.079372
endloop
endfacet
facet normal 0 0 0
outer loop
vertex 19.872080 14.243958 8.059372
vertex 19.872080 14.264711 8.079372
vertex 19.851604 14.243958 8.079372
endloop
endfacet
facet normal 0 0 0
outer loop
vertex 19.872080 14.264711 8.079372
vertex 19.872080 14.243958 8.059372
vertex 19.872080 14.264711 8.059372
endloop
endfacet
facet normal 0 0 0
outer loop
vertex 19.831127 14.285464 8.079372
vertex 19.810652 14.264711 8.059372
vertex 19.831127 14.264711 8.079372
endloop
endfacet
facet normal 0 0 0
outer loop
vertex 19.810652 14.285464 8.059372
vertex 19.810652 14.264711 8.059372
vertex 19.831127 14.285464 8.079372
endloop
endfacet
facet normal 0 0 0
outer loop
vertex 19.872080 14.264711 8.059372
vertex 19.872080 14.285464 8.059372
vertex 19.872080 14.264711 8.079372
endloop
endfacet
facet normal 0 0 0
outer loop
vertex 19.872080 14.264711 8.079372
vertex 19.872080 14.285464 8.059372
vertex 19.872080 14.285464 8.079372
endloop
endfacet
facet normal 0 0 0
outer loop
vertex 19.831127 14.306217 8.079372
vertex 19.810652 14.285464 8.059372
vertex 19.831127 14.285464 8.079372
endloop
endfacet
facet normal 0 0 0
outer loop
vertex 19.810652 14.306217 8.059372
vertex 19.810652 14.285464 8.059372
vertex 19.831127 14.306217 8.079372
endloop
endfacet
facet normal 0 0 0
outer loop
vertex 19.872080 14.285464 8.059372
vertex 19.872080 14.306217 8.059372
vertex 19.872080 14.285464 8.079372
endloop
endfacet
facet normal 0 0 0
outer loop
vertex 19.872080 14.285464 8.079372
vertex 19.872080 14.306217 8.059372
vertex 19.872080 14.306217 8.079372
endloop
endfacet
facet normal 0 0 0
outer loop
vertex 19.831127 14.326971 8.079372
vertex 19.810652 14.306217 8.059372
vertex 19.831127 14.306217 8.079372
endloop
endfacet
facet normal 0 0 0
outer loop
vertex 19.810652 14.326971 8.059372
vertex 19.810652 14.306217 8.059372
vertex 19.831127 14.326971 8.079372
endloop
endfacet
facet normal 0 0 0
outer loop
vertex 19.872080 14.306217 8.059372
vertex 19.872080 14.326971 8.059372
vertex 19.872080 14.306217 8.079372
endloop
endfacet
facet normal 0 0 0
outer loop
vertex 19.872080 14.306217 8.079372
vertex 19.872080 14.326971 8.059372
vertex 19.872080 14.326971 8.079372
endloop
endfacet
facet normal 0 0 0
outer loop
vertex 19.831127 14.347725 8.079372
vertex 19.810652 14.326971 8.059372
vertex 19.831127 14.326971 8.079372
endloop
endfacet
facet normal 0 0 0
outer loop
vertex 19.810652 14.347725 8.059372
vertex 19.810652 14.326971 8.059372
vertex 19.831127 14.347725 8.079372
endloop
endfacet
facet normal 0 0 0
outer loop
vertex 19.872080 14.326971 8.059372
vertex 19.872080 14.347725 8.059372
vertex 19.872080 14.326971 8.079372
endloop
endfacet
facet normal 0 0 0
outer loop
vertex 19.872080 14.326971 8.079372
vertex 19.872080 14.347725 8.059372
vertex 19.872080 14.347725 8.079372
endloop
endfacet
facet normal 0 0 0
outer loop
vertex 19.831127 14.368477 8.079372
vertex 19.810652 14.347725 8.059372
vertex 19.831127 14.347725 8.079372
endloop
endfacet
facet normal 0 0 0
outer loop
vertex 19.810652 14.368477 8.059372
vertex 19.810652 14.347725 8.059372
vertex 19.831127 14.368477 8.079372
endloop
endfacet
facet normal 0 0 0
outer loop
vertex 19.872080 14.347725 8.059372
vertex 19.872080 14.368477 8.059372
vertex 19.872080 14.347725 8.079372
endloop
endfacet
facet normal 0 0 0
outer loop
vertex 19.872080 14.347725 8.079372
vertex 19.872080 14.368477 8.059372
vertex 19.872080 14.368477 8.079372
endloop
endfacet
facet normal 0 0 0
outer loop
vertex 19.831127 14.389231 8.079372
vertex 19.810652 14.368477 8.059372
vertex 19.831127 14.368477 8.079372
endloop
endfacet
facet normal 0 0 0
outer loop
vertex 19.810652 14.389231 8.059372
vertex 19.810652 14.368477 8.059372
vertex 19.831127 14.389231 8.079372
endloop
endfacet
facet normal 0 0 0
outer loop
vertex 19.872080 14.368477 8.059372
vertex 19.851604 14.389231 8.059372
vertex 19.872080 14.389231 8.079372
endloop
endfacet
facet normal 0 0 0
outer loop
vertex 19.872080 14.368477 8.059372
vertex 19.872080 14.389231 8.079372
vertex 19.872080 14.368477 8.079372
endloop
endfacet
facet normal 0 0 0
outer loop
vertex 19.810652 14.389231 8.059372
vertex 19.831127 14.409985 8.079372
vertex 19.831127 14.389231 8.059372
endloop
endfacet
facet normal 0 0 0
outer loop
vertex 19.810652 14.389231 8.059372
vertex 19.831127 14.389231 8.079372
vertex 19.831127 14.409985 8.079372
endloop
endfacet
facet normal 0 0 0
outer loop
vertex 19.831127 14.389231 8.059372
vertex 19.851604 14.409985 8.079372
vertex 19.851604 14.389231 8.059372
endloop
endfacet
facet normal 0 0 0
outer loop
vertex 19.831127 14.409985 8.079372
vertex 19.851604 14.409985 8.079372
vertex 19.831127 14.389231 8.059372
endloop
endfacet
facet normal 0 0 0
outer loop
vertex 19.851604 14.389231 8.059372
vertex 19.851604 14.409985 8.079372
vertex 19.872080 14.389231 8.079372
endloop
endfacet
facet normal 0 0 0
outer loop
vertex 19.851604 14.409985 8.079372
vertex 19.872080 14.409985 8.079372
vertex 19.872080 14.389231 8.079372
endloop
endfacet
facet normal 0 0 0
outer loop
vertex 19.851604 14.243958 8.079372
vertex 19.851604 14.264711 8.079372
vertex 19.831127 14.243958 8.079372
endloop
endfacet
facet normal 0 0 0
outer loop
vertex 19.851604 14.264711 8.079372
vertex 19.831127 14.264711 8.079372
vertex 19.831127 14.243958 8.079372
endloop
endfacet
facet normal 0 0 0
outer loop
vertex 19.851604 14.243958 8.079372
vertex 19.872080 14.264711 8.079372
vertex 19.851604 14.264711 8.079372
endloop
endfacet
facet normal 0 0 0
outer loop
vertex 19.831127 14.264711 8.079372
vertex 19.831127 14.285464 8.099372
vertex 19.831127 14.285464 8.079372
endloop
endfacet
facet normal 0 0 0
outer loop
vertex 19.851604 14.264711 8.079372
vertex 19.831127 14.285464 8.099372
vertex 19.831127 14.264711 8.079372
endloop
endfacet
facet normal 0 0 0
outer loop
vertex 19.851604 14.285464 8.099372
vertex 19.831127 14.285464 8.099372
vertex 19.851604 14.264711 8.079372
endloop
endfacet
facet normal 0 0 0
outer loop
vertex 19.851604 14.285464 8.099372
vertex 19.851604 14.264711 8.079372
vertex 19.872080 14.285464 8.079372
endloop
endfacet
facet normal 0 0 0
outer loop
vertex 19.851604 14.264711 8.079372
vertex 19.872080 14.264711 8.079372
vertex 19.872080 14.285464 8.079372
endloop
endfacet
facet normal 0 0 0
outer loop
vertex 19.831127 14.285464 8.079372
vertex 19.831127 14.285464 8.099372
vertex 19.831127 14.306217 8.079372
endloop
endfacet
facet normal 0 0 0
outer loop
vertex 19.831127 14.285464 8.099372
vertex 19.831127 14.306217 8.099372
vertex 19.831127 14.306217 8.079372
endloop
endfacet
facet normal 0 0 0
outer loop
vertex 19.872080 14.306217 8.079372
vertex 19.851604 14.285464 8.099372
vertex 19.872080 14.285464 8.079372
endloop
endfacet
facet normal 0 0 0
outer loop
vertex 19.851604 14.306217 8.099372
vertex 19.851604 14.285464 8.099372
vertex 19.872080 14.306217 8.079372
endloop
endfacet
facet normal 0 0 0
outer loop
vertex 19.831127 14.306217 8.099372
vertex 19.831127 14.326971 8.079372
vertex 19.831127 14.306217 8.079372
endloop
endfacet
facet normal 0 0 0
outer loop
vertex 19.831127 14.326971 8.079372
vertex 19.851604 14.306217 8.099372
vertex 19.851604 14.326971 8.079372
endloop
endfacet
facet normal 0 0 0
outer loop
vertex 19.831127 14.306217 8.099372
vertex 19.851604 14.306217 8.099372
vertex 19.831127 14.326971 8.079372
endloop
endfacet
facet normal 0 0 0
outer loop
vertex 19.851604 14.306217 8.099372
vertex 19.872080 14.306217 8.079372
vertex 19.851604 14.326971 8.079372
endloop
endfacet
facet normal 0 0 0
outer loop
vertex 19.872080 14.306217 8.079372
vertex 19.872080 14.326971 8.079372
vertex 19.851604 14.326971 8.079372
endloop
endfacet
facet normal 0 0 0
outer loop
vertex 19.831127 14.326971 8.079372
vertex 19.831127 14.347725 8.099372
vertex 19.831127 14.347725 8.079372
endloop
endfacet
facet normal 0 0 0
outer loop
vertex 19.851604 14.326971 8.079372
vertex 19.831127 14.347725 8.099372
vertex 19.831127 14.326971 8.079372
endloop
endfacet
facet normal 0 0 0
outer loop
vertex 19.851604 14.347725 8.099372
vertex 19.831127 14.347725 8.099372
vertex 19.851604 14.326971 8.079372
endloop
endfacet
facet normal 0 0 0
outer loop
vertex 19.851604 14.347725 8.099372
vertex 19.851604 14.326971 8.079372
vertex 19.872080 14.347725 8.079372
endloop
endfacet
facet normal 0 0 0
outer loop
vertex 19.851604 14.326971 8.079372
vertex 19.872080 14.326971 8.079372
vertex 19.872080 14.347725 8.079372
endloop
endfacet
facet normal 0 0 0
outer loop
vertex 19.831127 14.347725 8.079372
vertex 19.831127 14.347725 8.099372
vertex 19.831127 14.368477 8.079372
endloop
endfacet
facet normal 0 0 0
outer loop
vertex 19.831127 14.347725 8.099372
vertex 19.831127 14.368477 8.099372
vertex 19.831127 14.368477 8.079372
endloop
endfacet
facet normal 0 0 0
outer loop
vertex 19.872080 14.347725 8.079372
vertex 19.872080 14.368477 8.099372
vertex 19.851604 14.347725 8.099372
endloop
endfacet
facet normal 0 0 0
outer loop
vertex 19.872080 14.368477 8.099372
vertex 19.872080 14.347725 8.079372
vertex 19.872080 14.368477 8.079372
endloop
endfacet
facet normal 0 0 0
outer loop
vertex 19.831127 14.368477 8.099372
vertex 19.831127 14.389231 8.079372
vertex 19.831127 14.368477 8.079372
endloop
endfacet
facet normal 0 0 0
outer loop
vertex 19.831127 14.389231 8.079372
vertex 19.851604 14.368477 8.099372
vertex 19.851604 14.389231 8.079372
endloop
endfacet
facet normal 0 0 0
outer loop
vertex 19.831127 14.368477 8.099372
vertex 19.851604 14.368477 8.099372
vertex 19.831127 14.389231 8.079372
endloop
endfacet
facet normal 0 0 0
outer loop
vertex 19.851604 14.389231 8.079372
vertex 19.872080 14.368477 8.099372
vertex 19.872080 14.389231 8.079372
endloop
endfacet
facet normal 0 0 0
outer loop
vertex 19.851604 14.368477 8.099372
vertex 19.872080 14.368477 8.099372
vertex 19.851604 14.389231 8.079372
endloop
endfacet
facet normal 0 0 0
outer loop
vertex 19.872080 14.389231 8.079372
vertex 19.872080 14.368477 8.099372
vertex 19.872080 14.368477 8.079372
endloop
endfacet
facet normal 0 0 0
outer loop
vertex 19.851604 14.389231 8.079372
vertex 19.851604 14.409985 8.079372
vertex 19.831127 14.389231 8.079372
endloop
endfacet
facet normal 0 0 0
outer loop
vertex 19.851604 14.409985 8.079372
vertex 19.831127 14.409985 8.079372
vertex 19.831127 14.389231 8.079372
endloop
endfacet
facet normal 0 0 0
outer loop
vertex 19.872080 14.389231 8.079372
vertex 19.872080 14.409985 8.079372
vertex 19.851604 14.389231 8.079372
endloop
endfacet
facet normal 0 0 0
outer loop
vertex 19.872080 14.409985 8.079372
vertex 19.851604 14.409985 8.079372
vertex 19.851604 14.389231 8.079372
endloop
endfacet
facet normal 0 0 0
outer loop
vertex 19.851604 14.285464 8.099372
vertex 19.851604 14.306217 8.099372
vertex 19.831127 14.285464 8.099372
endloop
endfacet
facet normal 0 0 0
outer loop
vertex 19.851604 14.306217 8.099372
vertex 19.831127 14.306217 8.099372
vertex 19.831127 14.285464 8.099372
endloop
endfacet
facet normal 0 0 0
outer loop
vertex 19.851604 14.347725 8.099372
vertex 19.851604 14.368477 8.099372
vertex 19.831127 14.347725 8.099372
endloop
endfacet
facet normal 0 0 0
outer loop
vertex 19.851604 14.368477 8.099372
vertex 19.831127 14.368477 8.099372
vertex 19.831127 14.347725 8.099372
endloop
endfacet
facet normal 0 0 0
outer loop
vertex 19.851604 14.347725 8.099372
vertex 19.872080 14.368477 8.099372
vertex 19.851604 14.368477 8.099372
endloop
endfacet
endsolid B-16-Plag.159
