solid B-16-Plag.203
facet normal 0 0 0
outer loop
vertex 19.687798 8.163235 9.119371
vertex 19.667322 8.183988 9.119371
vertex 19.687798 8.183988 9.119371
endloop
endfacet
facet normal 0 0 0
outer loop
vertex 19.708273 8.163235 9.119371
vertex 19.687798 8.163235 9.119371
vertex 19.708273 8.183988 9.119371
endloop
endfacet
facet normal 0 0 0
outer loop
vertex 19.708273 8.183988 9.119371
vertex 19.687798 8.163235 9.119371
vertex 19.687798 8.183988 9.119371
endloop
endfacet
facet normal 0 0 0
outer loop
vertex 19.667322 8.183988 9.119371
vertex 19.687798 8.204741 9.119371
vertex 19.687798 8.183988 9.119371
endloop
endfacet
facet normal 0 0 0
outer loop
vertex 19.708273 8.183988 9.119371
vertex 19.687798 8.183988 9.119371
vertex 19.708273 8.204741 9.119371
endloop
endfacet
facet normal 0 0 0
outer loop
vertex 19.708273 8.204741 9.119371
vertex 19.687798 8.183988 9.119371
vertex 19.687798 8.204741 9.119371
endloop
endfacet
facet normal 0 0 0
outer loop
vertex 19.687798 8.225494 9.119371
vertex 19.708273 8.204741 9.119371
vertex 19.687798 8.204741 9.119371
endloop
endfacet
facet normal 0 0 0
outer loop
vertex 19.708273 8.163235 9.119371
vertex 19.687798 8.163235 9.139372
vertex 19.687798 8.163235 9.119371
endloop
endfacet
facet normal 0 0 0
outer loop
vertex 19.687798 8.163235 9.139372
vertex 19.667322 8.183988 9.119371
vertex 19.687798 8.163235 9.119371
endloop
endfacet
facet normal 0 0 0
outer loop
vertex 19.667322 8.183988 9.139372
vertex 19.667322 8.183988 9.119371
vertex 19.687798 8.163235 9.139372
endloop
endfacet
facet normal 0 0 0
outer loop
vertex 19.708273 8.163235 9.119371
vertex 19.708273 8.183988 9.139372
vertex 19.687798 8.163235 9.139372
endloop
endfacet
facet normal 0 0 0
outer loop
vertex 19.708273 8.163235 9.119371
vertex 19.708273 8.183988 9.119371
vertex 19.728748 8.183988 9.139372
endloop
endfacet
facet normal 0 0 0
outer loop
vertex 19.708273 8.163235 9.119371
vertex 19.728748 8.183988 9.139372
vertex 19.708273 8.183988 9.139372
endloop
endfacet
facet normal 0 0 0
outer loop
vertex 19.667322 8.204741 9.139372
vertex 19.667322 8.183988 9.119371
vertex 19.667322 8.183988 9.139372
endloop
endfacet
facet normal 0 0 0
outer loop
vertex 19.667322 8.183988 9.119371
vertex 19.667322 8.204741 9.139372
vertex 19.687798 8.204741 9.119371
endloop
endfacet
facet normal 0 0 0
outer loop
vertex 19.728748 8.183988 9.139372
vertex 19.708273 8.204741 9.119371
vertex 19.728748 8.204741 9.139372
endloop
endfacet
facet normal 0 0 0
outer loop
vertex 19.708273 8.183988 9.119371
vertex 19.708273 8.204741 9.119371
vertex 19.728748 8.183988 9.139372
endloop
endfacet
facet normal 0 0 0
outer loop
vertex 19.667322 8.204741 9.139372
vertex 19.646845 8.225494 9.139372
vertex 19.667322 8.225494 9.139372
endloop
endfacet
facet normal 0 0 0
outer loop
vertex 19.687798 8.204741 9.119371
vertex 19.667322 8.225494 9.139372
vertex 19.687798 8.225494 9.119371
endloop
endfacet
facet normal 0 0 0
outer loop
vertex 19.667322 8.204741 9.139372
vertex 19.667322 8.225494 9.139372
vertex 19.687798 8.204741 9.119371
endloop
endfacet
facet normal 0 0 0
outer loop
vertex 19.708273 8.204741 9.119371
vertex 19.687798 8.225494 9.119371
vertex 19.708273 8.225494 9.139372
endloop
endfacet
facet normal 0 0 0
outer loop
vertex 19.708273 8.204741 9.119371
vertex 19.708273 8.225494 9.139372
vertex 19.728748 8.204741 9.139372
endloop
endfacet
facet normal 0 0 0
outer loop
vertex 19.708273 8.225494 9.139372
vertex 19.728748 8.225494 9.139372
vertex 19.728748 8.204741 9.139372
endloop
endfacet
facet normal 0 0 0
outer loop
vertex 19.667322 8.225494 9.139372
vertex 19.646845 8.225494 9.139372
vertex 19.667322 8.246247 9.139372
endloop
endfacet
facet normal 0 0 0
outer loop
vertex 19.667322 8.246247 9.139372
vertex 19.646845 8.225494 9.139372
vertex 19.646845 8.246247 9.139372
endloop
endfacet
facet normal 0 0 0
outer loop
vertex 19.687798 8.225494 9.119371
vertex 19.667322 8.225494 9.139372
vertex 19.687798 8.246247 9.139372
endloop
endfacet
facet normal 0 0 0
outer loop
vertex 19.667322 8.225494 9.139372
vertex 19.667322 8.246247 9.139372
vertex 19.687798 8.246247 9.139372
endloop
endfacet
facet normal 0 0 0
outer loop
vertex 19.687798 8.225494 9.119371
vertex 19.687798 8.246247 9.139372
vertex 19.708273 8.225494 9.139372
endloop
endfacet
facet normal 0 0 0
outer loop
vertex 19.687798 8.246247 9.139372
vertex 19.708273 8.246247 9.139372
vertex 19.708273 8.225494 9.139372
endloop
endfacet
facet normal 0 0 0
outer loop
vertex 19.728748 8.225494 9.139372
vertex 19.708273 8.225494 9.139372
vertex 19.728748 8.246247 9.139372
endloop
endfacet
facet normal 0 0 0
outer loop
vertex 19.728748 8.246247 9.139372
vertex 19.708273 8.225494 9.139372
vertex 19.708273 8.246247 9.139372
endloop
endfacet
facet normal 0 0 0
outer loop
vertex 19.667322 8.246247 9.139372
vertex 19.646845 8.246247 9.139372
vertex 19.667322 8.267001 9.139372
endloop
endfacet
facet normal 0 0 0
outer loop
vertex 19.667322 8.267001 9.139372
vertex 19.646845 8.246247 9.139372
vertex 19.646845 8.267001 9.139372
endloop
endfacet
facet normal 0 0 0
outer loop
vertex 19.687798 8.246247 9.139372
vertex 19.667322 8.246247 9.139372
vertex 19.687798 8.267001 9.139372
endloop
endfacet
facet normal 0 0 0
outer loop
vertex 19.687798 8.267001 9.139372
vertex 19.667322 8.246247 9.139372
vertex 19.667322 8.267001 9.139372
endloop
endfacet
facet normal 0 0 0
outer loop
vertex 19.708273 8.246247 9.139372
vertex 19.687798 8.246247 9.139372
vertex 19.708273 8.267001 9.139372
endloop
endfacet
facet normal 0 0 0
outer loop
vertex 19.708273 8.267001 9.139372
vertex 19.687798 8.246247 9.139372
vertex 19.687798 8.267001 9.139372
endloop
endfacet
facet normal 0 0 0
outer loop
vertex 19.728748 8.246247 9.139372
vertex 19.708273 8.246247 9.139372
vertex 19.728748 8.267001 9.139372
endloop
endfacet
facet normal 0 0 0
outer loop
vertex 19.728748 8.267001 9.139372
vertex 19.708273 8.246247 9.139372
vertex 19.708273 8.267001 9.139372
endloop
endfacet
facet normal 0 0 0
outer loop
vertex 19.646845 8.267001 9.139372
vertex 19.667322 8.287754 9.139372
vertex 19.667322 8.267001 9.139372
endloop
endfacet
facet normal 0 0 0
outer loop
vertex 19.687798 8.267001 9.139372
vertex 19.667322 8.267001 9.139372
vertex 19.687798 8.287754 9.139372
endloop
endfacet
facet normal 0 0 0
outer loop
vertex 19.687798 8.287754 9.139372
vertex 19.667322 8.267001 9.139372
vertex 19.667322 8.287754 9.139372
endloop
endfacet
facet normal 0 0 0
outer loop
vertex 19.708273 8.267001 9.139372
vertex 19.687798 8.267001 9.139372
vertex 19.708273 8.287754 9.139372
endloop
endfacet
facet normal 0 0 0
outer loop
vertex 19.708273 8.287754 9.139372
vertex 19.687798 8.267001 9.139372
vertex 19.687798 8.287754 9.139372
endloop
endfacet
facet normal 0 0 0
outer loop
vertex 19.728748 8.267001 9.139372
vertex 19.708273 8.267001 9.139372
vertex 19.728748 8.287754 9.139372
endloop
endfacet
facet normal 0 0 0
outer loop
vertex 19.728748 8.287754 9.139372
vertex 19.708273 8.267001 9.139372
vertex 19.708273 8.287754 9.139372
endloop
endfacet
facet normal 0 0 0
outer loop
vertex 19.667322 8.287754 9.139372
vertex 19.687798 8.308508 9.139372
vertex 19.687798 8.287754 9.139372
endloop
endfacet
facet normal 0 0 0
outer loop
vertex 19.708273 8.287754 9.139372
vertex 19.687798 8.287754 9.139372
vertex 19.708273 8.308508 9.139372
endloop
endfacet
facet normal 0 0 0
outer loop
vertex 19.708273 8.308508 9.139372
vertex 19.687798 8.287754 9.139372
vertex 19.687798 8.308508 9.139372
endloop
endfacet
facet normal 0 0 0
outer loop
vertex 19.728748 8.287754 9.139372
vertex 19.708273 8.287754 9.139372
vertex 19.728748 8.308508 9.139372
endloop
endfacet
facet normal 0 0 0
outer loop
vertex 19.728748 8.308508 9.139372
vertex 19.708273 8.287754 9.139372
vertex 19.708273 8.308508 9.139372
endloop
endfacet
facet normal 0 0 0
outer loop
vertex 19.708273 8.308508 9.139372
vertex 19.687798 8.308508 9.139372
vertex 19.708273 8.329261 9.139372
endloop
endfacet
facet normal 0 0 0
outer loop
vertex 19.708273 8.329261 9.139372
vertex 19.687798 8.308508 9.139372
vertex 19.687798 8.329261 9.139372
endloop
endfacet
facet normal 0 0 0
outer loop
vertex 19.708273 8.329261 9.139372
vertex 19.728748 8.308508 9.139372
vertex 19.708273 8.308508 9.139372
endloop
endfacet
facet normal 0 0 0
outer loop
vertex 19.687798 8.163235 9.139372
vertex 19.687798 8.183988 9.159372
vertex 19.667322 8.183988 9.139372
endloop
endfacet
facet normal 0 0 0
outer loop
vertex 19.687798 8.183988 9.159372
vertex 19.667322 8.183988 9.159372
vertex 19.667322 8.183988 9.139372
endloop
endfacet
facet normal 0 0 0
outer loop
vertex 19.687798 8.163235 9.139372
vertex 19.708273 8.183988 9.139372
vertex 19.687798 8.183988 9.159372
endloop
endfacet
facet normal 0 0 0
outer loop
vertex 19.708273 8.183988 9.139372
vertex 19.708273 8.183988 9.159372
vertex 19.687798 8.183988 9.159372
endloop
endfacet
facet normal 0 0 0
outer loop
vertex 19.728748 8.183988 9.139372
vertex 19.728748 8.183988 9.159372
vertex 19.708273 8.183988 9.139372
endloop
endfacet
facet normal 0 0 0
outer loop
vertex 19.708273 8.183988 9.139372
vertex 19.728748 8.183988 9.159372
vertex 19.708273 8.183988 9.159372
endloop
endfacet
facet normal 0 0 0
outer loop
vertex 19.667322 8.183988 9.139372
vertex 19.667322 8.183988 9.159372
vertex 19.667322 8.204741 9.139372
endloop
endfacet
facet normal 0 0 0
outer loop
vertex 19.667322 8.183988 9.159372
vertex 19.667322 8.204741 9.159372
vertex 19.667322 8.204741 9.139372
endloop
endfacet
facet normal 0 0 0
outer loop
vertex 19.728748 8.183988 9.139372
vertex 19.728748 8.204741 9.139372
vertex 19.728748 8.183988 9.159372
endloop
endfacet
facet normal 0 0 0
outer loop
vertex 19.728748 8.183988 9.159372
vertex 19.728748 8.204741 9.139372
vertex 19.728748 8.204741 9.159372
endloop
endfacet
facet normal 0 0 0
outer loop
vertex 19.667322 8.204741 9.159372
vertex 19.646845 8.225494 9.139372
vertex 19.667322 8.204741 9.139372
endloop
endfacet
facet normal 0 0 0
outer loop
vertex 19.646845 8.225494 9.159372
vertex 19.646845 8.225494 9.139372
vertex 19.667322 8.204741 9.159372
endloop
endfacet
facet normal 0 0 0
outer loop
vertex 19.728748 8.204741 9.139372
vertex 19.728748 8.225494 9.139372
vertex 19.728748 8.204741 9.159372
endloop
endfacet
facet normal 0 0 0
outer loop
vertex 19.728748 8.204741 9.159372
vertex 19.728748 8.225494 9.139372
vertex 19.728748 8.225494 9.159372
endloop
endfacet
facet normal 0 0 0
outer loop
vertex 19.646845 8.225494 9.139372
vertex 19.646845 8.225494 9.159372
vertex 19.646845 8.246247 9.139372
endloop
endfacet
facet normal 0 0 0
outer loop
vertex 19.646845 8.225494 9.159372
vertex 19.646845 8.246247 9.159372
vertex 19.646845 8.246247 9.139372
endloop
endfacet
facet normal 0 0 0
outer loop
vertex 19.728748 8.225494 9.139372
vertex 19.728748 8.246247 9.139372
vertex 19.728748 8.225494 9.159372
endloop
endfacet
facet normal 0 0 0
outer loop
vertex 19.728748 8.225494 9.159372
vertex 19.728748 8.246247 9.139372
vertex 19.728748 8.246247 9.159372
endloop
endfacet
facet normal 0 0 0
outer loop
vertex 19.646845 8.246247 9.139372
vertex 19.646845 8.246247 9.159372
vertex 19.646845 8.267001 9.139372
endloop
endfacet
facet normal 0 0 0
outer loop
vertex 19.646845 8.246247 9.159372
vertex 19.646845 8.267001 9.159372
vertex 19.646845 8.267001 9.139372
endloop
endfacet
facet normal 0 0 0
outer loop
vertex 19.728748 8.246247 9.139372
vertex 19.728748 8.267001 9.139372
vertex 19.728748 8.246247 9.159372
endloop
endfacet
facet normal 0 0 0
outer loop
vertex 19.728748 8.246247 9.159372
vertex 19.728748 8.267001 9.139372
vertex 19.728748 8.267001 9.159372
endloop
endfacet
facet normal 0 0 0
outer loop
vertex 19.646845 8.287754 9.159372
vertex 19.646845 8.267001 9.139372
vertex 19.646845 8.267001 9.159372
endloop
endfacet
facet normal 0 0 0
outer loop
vertex 19.646845 8.267001 9.139372
vertex 19.646845 8.287754 9.159372
vertex 19.667322 8.287754 9.139372
endloop
endfacet
facet normal 0 0 0
outer loop
vertex 19.728748 8.267001 9.139372
vertex 19.728748 8.287754 9.139372
vertex 19.728748 8.267001 9.159372
endloop
endfacet
facet normal 0 0 0
outer loop
vertex 19.728748 8.267001 9.159372
vertex 19.728748 8.287754 9.139372
vertex 19.728748 8.287754 9.159372
endloop
endfacet
facet normal 0 0 0
outer loop
vertex 19.667322 8.287754 9.139372
vertex 19.646845 8.287754 9.159372
vertex 19.667322 8.287754 9.159372
endloop
endfacet
facet normal 0 0 0
outer loop
vertex 19.667322 8.287754 9.159372
vertex 19.687798 8.308508 9.139372
vertex 19.667322 8.287754 9.139372
endloop
endfacet
facet normal 0 0 0
outer loop
vertex 19.687798 8.308508 9.159372
vertex 19.687798 8.308508 9.139372
vertex 19.667322 8.287754 9.159372
endloop
endfacet
facet normal 0 0 0
outer loop
vertex 19.728748 8.287754 9.139372
vertex 19.728748 8.308508 9.139372
vertex 19.728748 8.287754 9.159372
endloop
endfacet
facet normal 0 0 0
outer loop
vertex 19.728748 8.287754 9.159372
vertex 19.728748 8.308508 9.139372
vertex 19.728748 8.308508 9.159372
endloop
endfacet
facet normal 0 0 0
outer loop
vertex 19.667322 8.329261 9.159372
vertex 19.687798 8.329261 9.139372
vertex 19.687798 8.308508 9.159372
endloop
endfacet
facet normal 0 0 0
outer loop
vertex 19.687798 8.329261 9.139372
vertex 19.687798 8.308508 9.139372
vertex 19.687798 8.308508 9.159372
endloop
endfacet
facet normal 0 0 0
outer loop
vertex 19.728748 8.308508 9.139372
vertex 19.708273 8.329261 9.139372
vertex 19.728748 8.329261 9.159372
endloop
endfacet
facet normal 0 0 0
outer loop
vertex 19.728748 8.308508 9.139372
vertex 19.728748 8.329261 9.159372
vertex 19.728748 8.308508 9.159372
endloop
endfacet
facet normal 0 0 0
outer loop
vertex 19.687798 8.329261 9.139372
vertex 19.667322 8.329261 9.159372
vertex 19.687798 8.350015 9.159372
endloop
endfacet
facet normal 0 0 0
outer loop
vertex 19.667322 8.329261 9.159372
vertex 19.667322 8.350015 9.159372
vertex 19.687798 8.350015 9.159372
endloop
endfacet
facet normal 0 0 0
outer loop
vertex 19.687798 8.329261 9.139372
vertex 19.708273 8.350015 9.159372
vertex 19.708273 8.329261 9.139372
endloop
endfacet
facet normal 0 0 0
outer loop
vertex 19.687798 8.350015 9.159372
vertex 19.708273 8.350015 9.159372
vertex 19.687798 8.329261 9.139372
endloop
endfacet
facet normal 0 0 0
outer loop
vertex 19.708273 8.329261 9.139372
vertex 19.708273 8.350015 9.159372
vertex 19.728748 8.329261 9.159372
endloop
endfacet
facet normal 0 0 0
outer loop
vertex 19.687798 8.350015 9.159372
vertex 19.667322 8.350015 9.159372
vertex 19.687798 8.370768 9.159372
endloop
endfacet
facet normal 0 0 0
outer loop
vertex 19.687798 8.370768 9.159372
vertex 19.667322 8.350015 9.159372
vertex 19.667322 8.370768 9.159372
endloop
endfacet
facet normal 0 0 0
outer loop
vertex 19.708273 8.350015 9.159372
vertex 19.687798 8.350015 9.159372
vertex 19.708273 8.370768 9.159372
endloop
endfacet
facet normal 0 0 0
outer loop
vertex 19.708273 8.370768 9.159372
vertex 19.687798 8.350015 9.159372
vertex 19.687798 8.370768 9.159372
endloop
endfacet
facet normal 0 0 0
outer loop
vertex 19.687798 8.183988 9.159372
vertex 19.687798 8.204741 9.159372
vertex 19.667322 8.183988 9.159372
endloop
endfacet
facet normal 0 0 0
outer loop
vertex 19.687798 8.204741 9.159372
vertex 19.667322 8.204741 9.159372
vertex 19.667322 8.183988 9.159372
endloop
endfacet
facet normal 0 0 0
outer loop
vertex 19.708273 8.183988 9.159372
vertex 19.708273 8.204741 9.159372
vertex 19.687798 8.183988 9.159372
endloop
endfacet
facet normal 0 0 0
outer loop
vertex 19.708273 8.204741 9.159372
vertex 19.687798 8.204741 9.159372
vertex 19.687798 8.183988 9.159372
endloop
endfacet
facet normal 0 0 0
outer loop
vertex 19.728748 8.183988 9.159372
vertex 19.728748 8.204741 9.159372
vertex 19.708273 8.183988 9.159372
endloop
endfacet
facet normal 0 0 0
outer loop
vertex 19.728748 8.204741 9.159372
vertex 19.708273 8.204741 9.159372
vertex 19.708273 8.183988 9.159372
endloop
endfacet
facet normal 0 0 0
outer loop
vertex 19.646845 8.225494 9.159372
vertex 19.667322 8.204741 9.159372
vertex 19.667322 8.225494 9.159372
endloop
endfacet
facet normal 0 0 0
outer loop
vertex 19.687798 8.204741 9.159372
vertex 19.687798 8.225494 9.159372
vertex 19.667322 8.204741 9.159372
endloop
endfacet
facet normal 0 0 0
outer loop
vertex 19.687798 8.225494 9.159372
vertex 19.667322 8.225494 9.159372
vertex 19.667322 8.204741 9.159372
endloop
endfacet
facet normal 0 0 0
outer loop
vertex 19.708273 8.204741 9.159372
vertex 19.708273 8.225494 9.159372
vertex 19.687798 8.204741 9.159372
endloop
endfacet
facet normal 0 0 0
outer loop
vertex 19.708273 8.225494 9.159372
vertex 19.687798 8.225494 9.159372
vertex 19.687798 8.204741 9.159372
endloop
endfacet
facet normal 0 0 0
outer loop
vertex 19.728748 8.204741 9.159372
vertex 19.728748 8.225494 9.159372
vertex 19.708273 8.204741 9.159372
endloop
endfacet
facet normal 0 0 0
outer loop
vertex 19.728748 8.225494 9.159372
vertex 19.708273 8.225494 9.159372
vertex 19.708273 8.204741 9.159372
endloop
endfacet
facet normal 0 0 0
outer loop
vertex 19.667322 8.246247 9.179372
vertex 19.646845 8.246247 9.159372
vertex 19.667322 8.225494 9.159372
endloop
endfacet
facet normal 0 0 0
outer loop
vertex 19.646845 8.246247 9.159372
vertex 19.646845 8.225494 9.159372
vertex 19.667322 8.225494 9.159372
endloop
endfacet
facet normal 0 0 0
outer loop
vertex 19.687798 8.225494 9.159372
vertex 19.667322 8.246247 9.179372
vertex 19.667322 8.225494 9.159372
endloop
endfacet
facet normal 0 0 0
outer loop
vertex 19.687798 8.246247 9.179372
vertex 19.667322 8.246247 9.179372
vertex 19.687798 8.225494 9.159372
endloop
endfacet
facet normal 0 0 0
outer loop
vertex 19.687798 8.246247 9.179372
vertex 19.687798 8.225494 9.159372
vertex 19.708273 8.246247 9.159372
endloop
endfacet
facet normal 0 0 0
outer loop
vertex 19.687798 8.225494 9.159372
vertex 19.708273 8.225494 9.159372
vertex 19.708273 8.246247 9.159372
endloop
endfacet
facet normal 0 0 0
outer loop
vertex 19.728748 8.225494 9.159372
vertex 19.728748 8.246247 9.159372
vertex 19.708273 8.225494 9.159372
endloop
endfacet
facet normal 0 0 0
outer loop
vertex 19.728748 8.246247 9.159372
vertex 19.708273 8.246247 9.159372
vertex 19.708273 8.225494 9.159372
endloop
endfacet
facet normal 0 0 0
outer loop
vertex 19.667322 8.246247 9.179372
vertex 19.667322 8.267001 9.159372
vertex 19.646845 8.246247 9.159372
endloop
endfacet
facet normal 0 0 0
outer loop
vertex 19.667322 8.267001 9.159372
vertex 19.646845 8.267001 9.159372
vertex 19.646845 8.246247 9.159372
endloop
endfacet
facet normal 0 0 0
outer loop
vertex 19.667322 8.246247 9.179372
vertex 19.687798 8.267001 9.179372
vertex 19.667322 8.267001 9.159372
endloop
endfacet
facet normal 0 0 0
outer loop
vertex 19.708273 8.267001 9.159372
vertex 19.687798 8.246247 9.179372
vertex 19.708273 8.246247 9.159372
endloop
endfacet
facet normal 0 0 0
outer loop
vertex 19.687798 8.267001 9.179372
vertex 19.687798 8.246247 9.179372
vertex 19.708273 8.267001 9.159372
endloop
endfacet
facet normal 0 0 0
outer loop
vertex 19.728748 8.246247 9.159372
vertex 19.728748 8.267001 9.159372
vertex 19.708273 8.246247 9.159372
endloop
endfacet
facet normal 0 0 0
outer loop
vertex 19.728748 8.267001 9.159372
vertex 19.708273 8.267001 9.159372
vertex 19.708273 8.246247 9.159372
endloop
endfacet
facet normal 0 0 0
outer loop
vertex 19.667322 8.287754 9.179372
vertex 19.646845 8.287754 9.159372
vertex 19.667322 8.267001 9.159372
endloop
endfacet
facet normal 0 0 0
outer loop
vertex 19.646845 8.287754 9.159372
vertex 19.646845 8.267001 9.159372
vertex 19.667322 8.267001 9.159372
endloop
endfacet
facet normal 0 0 0
outer loop
vertex 19.687798 8.267001 9.179372
vertex 19.667322 8.287754 9.179372
vertex 19.667322 8.267001 9.159372
endloop
endfacet
facet normal 0 0 0
outer loop
vertex 19.708273 8.267001 9.159372
vertex 19.708273 8.287754 9.179372
vertex 19.687798 8.267001 9.179372
endloop
endfacet
facet normal 0 0 0
outer loop
vertex 19.708273 8.287754 9.179372
vertex 19.708273 8.267001 9.159372
vertex 19.728748 8.287754 9.159372
endloop
endfacet
facet normal 0 0 0
outer loop
vertex 19.708273 8.267001 9.159372
vertex 19.728748 8.267001 9.159372
vertex 19.728748 8.287754 9.159372
endloop
endfacet
facet normal 0 0 0
outer loop
vertex 19.646845 8.287754 9.159372
vertex 19.667322 8.287754 9.179372
vertex 19.667322 8.287754 9.159372
endloop
endfacet
facet normal 0 0 0
outer loop
vertex 19.667322 8.287754 9.159372
vertex 19.667322 8.287754 9.179372
vertex 19.667322 8.308508 9.179372
endloop
endfacet
facet normal 0 0 0
outer loop
vertex 19.667322 8.308508 9.179372
vertex 19.667322 8.287754 9.179372
vertex 19.646845 8.308508 9.179372
endloop
endfacet
facet normal 0 0 0
outer loop
vertex 19.667322 8.287754 9.159372
vertex 19.667322 8.308508 9.179372
vertex 19.687798 8.308508 9.159372
endloop
endfacet
facet normal 0 0 0
outer loop
vertex 19.728748 8.308508 9.159372
vertex 19.708273 8.287754 9.179372
vertex 19.728748 8.287754 9.159372
endloop
endfacet
facet normal 0 0 0
outer loop
vertex 19.708273 8.308508 9.179372
vertex 19.708273 8.287754 9.179372
vertex 19.728748 8.308508 9.159372
endloop
endfacet
facet normal 0 0 0
outer loop
vertex 19.667322 8.329261 9.159372
vertex 19.667322 8.308508 9.179372
vertex 19.646845 8.329261 9.179372
endloop
endfacet
facet normal 0 0 0
outer loop
vertex 19.667322 8.308508 9.179372
vertex 19.646845 8.308508 9.179372
vertex 19.646845 8.329261 9.179372
endloop
endfacet
facet normal 0 0 0
outer loop
vertex 19.687798 8.308508 9.159372
vertex 19.667322 8.308508 9.179372
vertex 19.667322 8.329261 9.159372
endloop
endfacet
facet normal 0 0 0
outer loop
vertex 19.728748 8.329261 9.159372
vertex 19.708273 8.308508 9.179372
vertex 19.728748 8.308508 9.159372
endloop
endfacet
facet normal 0 0 0
outer loop
vertex 19.708273 8.329261 9.179372
vertex 19.708273 8.308508 9.179372
vertex 19.728748 8.329261 9.159372
endloop
endfacet
facet normal 0 0 0
outer loop
vertex 19.667322 8.329261 9.159372
vertex 19.646845 8.350015 9.179372
vertex 19.667322 8.350015 9.159372
endloop
endfacet
facet normal 0 0 0
outer loop
vertex 19.646845 8.329261 9.179372
vertex 19.646845 8.350015 9.179372
vertex 19.667322 8.329261 9.159372
endloop
endfacet
facet normal 0 0 0
outer loop
vertex 19.728748 8.329261 9.159372
vertex 19.708273 8.350015 9.159372
vertex 19.708273 8.329261 9.179372
endloop
endfacet
facet normal 0 0 0
outer loop
vertex 19.708273 8.350015 9.159372
vertex 19.708273 8.350015 9.179372
vertex 19.708273 8.329261 9.179372
endloop
endfacet
facet normal 0 0 0
outer loop
vertex 19.646845 8.350015 9.179372
vertex 19.626369 8.370768 9.179372
vertex 19.646845 8.370768 9.179372
endloop
endfacet
facet normal 0 0 0
outer loop
vertex 19.667322 8.350015 9.159372
vertex 19.646845 8.370768 9.179372
vertex 19.667322 8.370768 9.159372
endloop
endfacet
facet normal 0 0 0
outer loop
vertex 19.646845 8.350015 9.179372
vertex 19.646845 8.370768 9.179372
vertex 19.667322 8.350015 9.159372
endloop
endfacet
facet normal 0 0 0
outer loop
vertex 19.708273 8.350015 9.159372
vertex 19.708273 8.370768 9.159372
vertex 19.708273 8.350015 9.179372
endloop
endfacet
facet normal 0 0 0
outer loop
vertex 19.708273 8.350015 9.179372
vertex 19.708273 8.370768 9.159372
vertex 19.708273 8.370768 9.179372
endloop
endfacet
facet normal 0 0 0
outer loop
vertex 19.646845 8.370768 9.179372
vertex 19.626369 8.370768 9.179372
vertex 19.646845 8.391521 9.179372
endloop
endfacet
facet normal 0 0 0
outer loop
vertex 19.646845 8.391521 9.179372
vertex 19.626369 8.370768 9.179372
vertex 19.626369 8.391521 9.179372
endloop
endfacet
facet normal 0 0 0
outer loop
vertex 19.667322 8.370768 9.159372
vertex 19.646845 8.370768 9.179372
vertex 19.667322 8.391521 9.179372
endloop
endfacet
facet normal 0 0 0
outer loop
vertex 19.646845 8.370768 9.179372
vertex 19.646845 8.391521 9.179372
vertex 19.667322 8.391521 9.179372
endloop
endfacet
facet normal 0 0 0
outer loop
vertex 19.667322 8.370768 9.159372
vertex 19.687798 8.391521 9.179372
vertex 19.687798 8.370768 9.159372
endloop
endfacet
facet normal 0 0 0
outer loop
vertex 19.667322 8.391521 9.179372
vertex 19.687798 8.391521 9.179372
vertex 19.667322 8.370768 9.159372
endloop
endfacet
facet normal 0 0 0
outer loop
vertex 19.687798 8.391521 9.179372
vertex 19.708273 8.370768 9.179372
vertex 19.687798 8.370768 9.159372
endloop
endfacet
facet normal 0 0 0
outer loop
vertex 19.708273 8.370768 9.179372
vertex 19.708273 8.370768 9.159372
vertex 19.687798 8.370768 9.159372
endloop
endfacet
facet normal 0 0 0
outer loop
vertex 19.626369 8.412274 9.179372
vertex 19.646845 8.391521 9.179372
vertex 19.626369 8.391521 9.179372
endloop
endfacet
facet normal 0 0 0
outer loop
vertex 19.646845 8.391521 9.179372
vertex 19.667322 8.412274 9.179372
vertex 19.667322 8.391521 9.179372
endloop
endfacet
facet normal 0 0 0
outer loop
vertex 19.667322 8.412274 9.179372
vertex 19.687798 8.391521 9.179372
vertex 19.667322 8.391521 9.179372
endloop
endfacet
facet normal 0 0 0
outer loop
vertex 19.687798 8.267001 9.179372
vertex 19.667322 8.246247 9.179372
vertex 19.687798 8.246247 9.179372
endloop
endfacet
facet normal 0 0 0
outer loop
vertex 19.687798 8.267001 9.179372
vertex 19.667322 8.287754 9.199371
vertex 19.667322 8.287754 9.179372
endloop
endfacet
facet normal 0 0 0
outer loop
vertex 19.687798 8.267001 9.179372
vertex 19.687798 8.287754 9.179372
vertex 19.667322 8.287754 9.199371
endloop
endfacet
facet normal 0 0 0
outer loop
vertex 19.687798 8.267001 9.179372
vertex 19.708273 8.287754 9.179372
vertex 19.687798 8.287754 9.179372
endloop
endfacet
facet normal 0 0 0
outer loop
vertex 19.646845 8.308508 9.179372
vertex 19.667322 8.287754 9.179372
vertex 19.667322 8.308508 9.199371
endloop
endfacet
facet normal 0 0 0
outer loop
vertex 19.667322 8.287754 9.179372
vertex 19.667322 8.287754 9.199371
vertex 19.667322 8.308508 9.199371
endloop
endfacet
facet normal 0 0 0
outer loop
vertex 19.687798 8.308508 9.179372
vertex 19.667322 8.287754 9.199371
vertex 19.687798 8.287754 9.179372
endloop
endfacet
facet normal 0 0 0
outer loop
vertex 19.667322 8.308508 9.199371
vertex 19.667322 8.287754 9.199371
vertex 19.687798 8.308508 9.179372
endloop
endfacet
facet normal 0 0 0
outer loop
vertex 19.708273 8.287754 9.179372
vertex 19.708273 8.308508 9.179372
vertex 19.687798 8.287754 9.179372
endloop
endfacet
facet normal 0 0 0
outer loop
vertex 19.708273 8.308508 9.179372
vertex 19.687798 8.308508 9.179372
vertex 19.687798 8.287754 9.179372
endloop
endfacet
facet normal 0 0 0
outer loop
vertex 19.667322 8.329261 9.199371
vertex 19.646845 8.308508 9.179372
vertex 19.667322 8.308508 9.199371
endloop
endfacet
facet normal 0 0 0
outer loop
vertex 19.646845 8.329261 9.179372
vertex 19.646845 8.308508 9.179372
vertex 19.667322 8.329261 9.199371
endloop
endfacet
facet normal 0 0 0
outer loop
vertex 19.687798 8.308508 9.179372
vertex 19.687798 8.329261 9.199371
vertex 19.667322 8.308508 9.199371
endloop
endfacet
facet normal 0 0 0
outer loop
vertex 19.687798 8.329261 9.199371
vertex 19.687798 8.308508 9.179372
vertex 19.708273 8.329261 9.179372
endloop
endfacet
facet normal 0 0 0
outer loop
vertex 19.687798 8.308508 9.179372
vertex 19.708273 8.308508 9.179372
vertex 19.708273 8.329261 9.179372
endloop
endfacet
facet normal 0 0 0
outer loop
vertex 19.646845 8.329261 9.179372
vertex 19.646845 8.350015 9.199371
vertex 19.646845 8.350015 9.179372
endloop
endfacet
facet normal 0 0 0
outer loop
vertex 19.667322 8.329261 9.199371
vertex 19.646845 8.350015 9.199371
vertex 19.646845 8.329261 9.179372
endloop
endfacet
facet normal 0 0 0
outer loop
vertex 19.708273 8.350015 9.179372
vertex 19.687798 8.329261 9.199371
vertex 19.708273 8.329261 9.179372
endloop
endfacet
facet normal 0 0 0
outer loop
vertex 19.687798 8.350015 9.199371
vertex 19.687798 8.329261 9.199371
vertex 19.708273 8.350015 9.179372
endloop
endfacet
facet normal 0 0 0
outer loop
vertex 19.626369 8.370768 9.179372
vertex 19.646845 8.350015 9.179372
vertex 19.646845 8.370768 9.199371
endloop
endfacet
facet normal 0 0 0
outer loop
vertex 19.646845 8.350015 9.179372
vertex 19.646845 8.350015 9.199371
vertex 19.646845 8.370768 9.199371
endloop
endfacet
facet normal 0 0 0
outer loop
vertex 19.708273 8.370768 9.179372
vertex 19.687798 8.350015 9.199371
vertex 19.708273 8.350015 9.179372
endloop
endfacet
facet normal 0 0 0
outer loop
vertex 19.687798 8.370768 9.199371
vertex 19.687798 8.350015 9.199371
vertex 19.708273 8.370768 9.179372
endloop
endfacet
facet normal 0 0 0
outer loop
vertex 19.626369 8.370768 9.179372
vertex 19.626369 8.391521 9.199371
vertex 19.626369 8.391521 9.179372
endloop
endfacet
facet normal 0 0 0
outer loop
vertex 19.646845 8.370768 9.199371
vertex 19.626369 8.391521 9.199371
vertex 19.626369 8.370768 9.179372
endloop
endfacet
facet normal 0 0 0
outer loop
vertex 19.708273 8.370768 9.179372
vertex 19.687798 8.391521 9.179372
vertex 19.687798 8.370768 9.199371
endloop
endfacet
facet normal 0 0 0
outer loop
vertex 19.687798 8.391521 9.179372
vertex 19.687798 8.391521 9.199371
vertex 19.687798 8.370768 9.199371
endloop
endfacet
facet normal 0 0 0
outer loop
vertex 19.626369 8.391521 9.179372
vertex 19.626369 8.391521 9.199371
vertex 19.626369 8.412274 9.179372
endloop
endfacet
facet normal 0 0 0
outer loop
vertex 19.626369 8.391521 9.199371
vertex 19.626369 8.412274 9.199371
vertex 19.626369 8.412274 9.179372
endloop
endfacet
facet normal 0 0 0
outer loop
vertex 19.646845 8.391521 9.179372
vertex 19.626369 8.412274 9.179372
vertex 19.646845 8.412274 9.199371
endloop
endfacet
facet normal 0 0 0
outer loop
vertex 19.646845 8.391521 9.179372
vertex 19.646845 8.412274 9.199371
vertex 19.667322 8.412274 9.179372
endloop
endfacet
facet normal 0 0 0
outer loop
vertex 19.687798 8.391521 9.179372
vertex 19.667322 8.412274 9.179372
vertex 19.687798 8.412274 9.199371
endloop
endfacet
facet normal 0 0 0
outer loop
vertex 19.687798 8.391521 9.179372
vertex 19.687798 8.412274 9.199371
vertex 19.687798 8.391521 9.199371
endloop
endfacet
facet normal 0 0 0
outer loop
vertex 19.646845 8.412274 9.199371
vertex 19.626369 8.412274 9.179372
vertex 19.626369 8.412274 9.199371
endloop
endfacet
facet normal 0 0 0
outer loop
vertex 19.667322 8.412274 9.179372
vertex 19.646845 8.412274 9.199371
vertex 19.667322 8.433027 9.199371
endloop
endfacet
facet normal 0 0 0
outer loop
vertex 19.667322 8.412274 9.179372
vertex 19.667322 8.433027 9.199371
vertex 19.687798 8.412274 9.199371
endloop
endfacet
facet normal 0 0 0
outer loop
vertex 19.667322 8.308508 9.199371
vertex 19.687798 8.329261 9.199371
vertex 19.667322 8.329261 9.199371
endloop
endfacet
facet normal 0 0 0
outer loop
vertex 19.646845 8.350015 9.199371
vertex 19.667322 8.329261 9.199371
vertex 19.667322 8.350015 9.199371
endloop
endfacet
facet normal 0 0 0
outer loop
vertex 19.687798 8.329261 9.199371
vertex 19.687798 8.350015 9.199371
vertex 19.667322 8.329261 9.199371
endloop
endfacet
facet normal 0 0 0
outer loop
vertex 19.687798 8.350015 9.199371
vertex 19.667322 8.350015 9.199371
vertex 19.667322 8.329261 9.199371
endloop
endfacet
facet normal 0 0 0
outer loop
vertex 19.667322 8.350015 9.199371
vertex 19.667322 8.370768 9.199371
vertex 19.646845 8.350015 9.199371
endloop
endfacet
facet normal 0 0 0
outer loop
vertex 19.667322 8.370768 9.199371
vertex 19.646845 8.370768 9.199371
vertex 19.646845 8.350015 9.199371
endloop
endfacet
facet normal 0 0 0
outer loop
vertex 19.687798 8.350015 9.199371
vertex 19.687798 8.370768 9.199371
vertex 19.667322 8.350015 9.199371
endloop
endfacet
facet normal 0 0 0
outer loop
vertex 19.687798 8.370768 9.199371
vertex 19.667322 8.370768 9.199371
vertex 19.667322 8.350015 9.199371
endloop
endfacet
facet normal 0 0 0
outer loop
vertex 19.626369 8.391521 9.199371
vertex 19.646845 8.370768 9.199371
vertex 19.646845 8.391521 9.199371
endloop
endfacet
facet normal 0 0 0
outer loop
vertex 19.667322 8.370768 9.199371
vertex 19.667322 8.391521 9.199371
vertex 19.646845 8.370768 9.199371
endloop
endfacet
facet normal 0 0 0
outer loop
vertex 19.667322 8.391521 9.199371
vertex 19.646845 8.391521 9.199371
vertex 19.646845 8.370768 9.199371
endloop
endfacet
facet normal 0 0 0
outer loop
vertex 19.687798 8.370768 9.199371
vertex 19.687798 8.391521 9.199371
vertex 19.667322 8.370768 9.199371
endloop
endfacet
facet normal 0 0 0
outer loop
vertex 19.687798 8.391521 9.199371
vertex 19.667322 8.391521 9.199371
vertex 19.667322 8.370768 9.199371
endloop
endfacet
facet normal 0 0 0
outer loop
vertex 19.646845 8.391521 9.199371
vertex 19.646845 8.412274 9.199371
vertex 19.626369 8.391521 9.199371
endloop
endfacet
facet normal 0 0 0
outer loop
vertex 19.646845 8.412274 9.199371
vertex 19.626369 8.412274 9.199371
vertex 19.626369 8.391521 9.199371
endloop
endfacet
facet normal 0 0 0
outer loop
vertex 19.667322 8.391521 9.199371
vertex 19.667322 8.412274 9.199371
vertex 19.646845 8.391521 9.199371
endloop
endfacet
facet normal 0 0 0
outer loop
vertex 19.667322 8.412274 9.199371
vertex 19.646845 8.412274 9.199371
vertex 19.646845 8.391521 9.199371
endloop
endfacet
facet normal 0 0 0
outer loop
vertex 19.687798 8.391521 9.199371
vertex 19.687798 8.412274 9.199371
vertex 19.667322 8.391521 9.199371
endloop
endfacet
facet normal 0 0 0
outer loop
vertex 19.687798 8.412274 9.199371
vertex 19.667322 8.412274 9.199371
vertex 19.667322 8.391521 9.199371
endloop
endfacet
facet normal 0 0 0
outer loop
vertex 19.667322 8.433027 9.199371
vertex 19.646845 8.412274 9.199371
vertex 19.667322 8.412274 9.199371
endloop
endfacet
facet normal 0 0 0
outer loop
vertex 19.687798 8.412274 9.199371
vertex 19.667322 8.433027 9.199371
vertex 19.667322 8.412274 9.199371
endloop
endfacet
endsolid B-16-Plag.203
