solid B-16-Plag.316
facet normal 0 0 0
outer loop
vertex 10.821775 12.894992 12.679372
vertex 10.801300 12.915745 12.679372
vertex 10.821775 12.915745 12.659371
endloop
endfacet
facet normal 0 0 0
outer loop
vertex 10.842253 12.915745 12.659371
vertex 10.821775 12.894992 12.679372
vertex 10.821775 12.915745 12.659371
endloop
endfacet
facet normal 0 0 0
outer loop
vertex 10.842253 12.894992 12.679372
vertex 10.821775 12.894992 12.679372
vertex 10.842253 12.915745 12.659371
endloop
endfacet
facet normal 0 0 0
outer loop
vertex 10.842253 12.894992 12.679372
vertex 10.842253 12.915745 12.659371
vertex 10.842253 12.915745 12.679372
endloop
endfacet
facet normal 0 0 0
outer loop
vertex 10.821775 12.915745 12.659371
vertex 10.801300 12.915745 12.679372
vertex 10.821775 12.915745 12.679372
endloop
endfacet
facet normal 0 0 0
outer loop
vertex 10.842253 12.915745 12.659371
vertex 10.821775 12.915745 12.659371
vertex 10.842253 12.915745 12.679372
endloop
endfacet
facet normal 0 0 0
outer loop
vertex 10.821775 12.915745 12.659371
vertex 10.821775 12.915745 12.679372
vertex 10.842253 12.915745 12.679372
endloop
endfacet
facet normal 0 0 0
outer loop
vertex 10.821775 12.874239 12.699371
vertex 10.801300 12.894992 12.699371
vertex 10.821775 12.894992 12.679372
endloop
endfacet
facet normal 0 0 0
outer loop
vertex 10.842253 12.894992 12.679372
vertex 10.821775 12.874239 12.699371
vertex 10.821775 12.894992 12.679372
endloop
endfacet
facet normal 0 0 0
outer loop
vertex 10.842253 12.874239 12.699371
vertex 10.821775 12.874239 12.699371
vertex 10.842253 12.894992 12.679372
endloop
endfacet
facet normal 0 0 0
outer loop
vertex 10.842253 12.894992 12.679372
vertex 10.862728 12.894992 12.699371
vertex 10.842253 12.874239 12.699371
endloop
endfacet
facet normal 0 0 0
outer loop
vertex 10.862728 12.894992 12.699371
vertex 10.862728 12.874239 12.699371
vertex 10.842253 12.874239 12.699371
endloop
endfacet
facet normal 0 0 0
outer loop
vertex 10.801300 12.915745 12.679372
vertex 10.801300 12.894992 12.699371
vertex 10.801300 12.915745 12.699371
endloop
endfacet
facet normal 0 0 0
outer loop
vertex 10.821775 12.894992 12.679372
vertex 10.801300 12.894992 12.699371
vertex 10.801300 12.915745 12.679372
endloop
endfacet
facet normal 0 0 0
outer loop
vertex 10.862728 12.894992 12.699371
vertex 10.842253 12.915745 12.679372
vertex 10.862728 12.915745 12.699371
endloop
endfacet
facet normal 0 0 0
outer loop
vertex 10.842253 12.894992 12.679372
vertex 10.842253 12.915745 12.679372
vertex 10.862728 12.894992 12.699371
endloop
endfacet
facet normal 0 0 0
outer loop
vertex 10.883204 12.915745 12.699371
vertex 10.862728 12.894992 12.699371
vertex 10.862728 12.915745 12.699371
endloop
endfacet
facet normal 0 0 0
outer loop
vertex 10.801300 12.936499 12.699371
vertex 10.801300 12.915745 12.679372
vertex 10.801300 12.915745 12.699371
endloop
endfacet
facet normal 0 0 0
outer loop
vertex 10.801300 12.915745 12.679372
vertex 10.821775 12.936499 12.699371
vertex 10.821775 12.915745 12.679372
endloop
endfacet
facet normal 0 0 0
outer loop
vertex 10.801300 12.936499 12.699371
vertex 10.821775 12.936499 12.699371
vertex 10.801300 12.915745 12.679372
endloop
endfacet
facet normal 0 0 0
outer loop
vertex 10.821775 12.915745 12.679372
vertex 10.842253 12.936499 12.699371
vertex 10.842253 12.915745 12.679372
endloop
endfacet
facet normal 0 0 0
outer loop
vertex 10.821775 12.936499 12.699371
vertex 10.842253 12.936499 12.699371
vertex 10.821775 12.915745 12.679372
endloop
endfacet
facet normal 0 0 0
outer loop
vertex 10.842253 12.915745 12.679372
vertex 10.842253 12.936499 12.699371
vertex 10.862728 12.915745 12.699371
endloop
endfacet
facet normal 0 0 0
outer loop
vertex 10.842253 12.936499 12.699371
vertex 10.862728 12.936499 12.699371
vertex 10.862728 12.915745 12.699371
endloop
endfacet
facet normal 0 0 0
outer loop
vertex 10.883204 12.915745 12.699371
vertex 10.862728 12.915745 12.699371
vertex 10.883204 12.936499 12.699371
endloop
endfacet
facet normal 0 0 0
outer loop
vertex 10.883204 12.936499 12.699371
vertex 10.862728 12.915745 12.699371
vertex 10.862728 12.936499 12.699371
endloop
endfacet
facet normal 0 0 0
outer loop
vertex 10.903679 12.915745 12.699371
vertex 10.883204 12.915745 12.699371
vertex 10.903679 12.936499 12.699371
endloop
endfacet
facet normal 0 0 0
outer loop
vertex 10.903679 12.936499 12.699371
vertex 10.883204 12.915745 12.699371
vertex 10.883204 12.936499 12.699371
endloop
endfacet
facet normal 0 0 0
outer loop
vertex 10.801300 12.936499 12.699371
vertex 10.821775 12.957252 12.699371
vertex 10.821775 12.936499 12.699371
endloop
endfacet
facet normal 0 0 0
outer loop
vertex 10.842253 12.936499 12.699371
vertex 10.821775 12.936499 12.699371
vertex 10.842253 12.957252 12.699371
endloop
endfacet
facet normal 0 0 0
outer loop
vertex 10.842253 12.957252 12.699371
vertex 10.821775 12.936499 12.699371
vertex 10.821775 12.957252 12.699371
endloop
endfacet
facet normal 0 0 0
outer loop
vertex 10.862728 12.936499 12.699371
vertex 10.842253 12.936499 12.699371
vertex 10.862728 12.957252 12.699371
endloop
endfacet
facet normal 0 0 0
outer loop
vertex 10.862728 12.957252 12.699371
vertex 10.842253 12.936499 12.699371
vertex 10.842253 12.957252 12.699371
endloop
endfacet
facet normal 0 0 0
outer loop
vertex 10.883204 12.936499 12.699371
vertex 10.862728 12.936499 12.699371
vertex 10.883204 12.957252 12.699371
endloop
endfacet
facet normal 0 0 0
outer loop
vertex 10.883204 12.957252 12.699371
vertex 10.862728 12.936499 12.699371
vertex 10.862728 12.957252 12.699371
endloop
endfacet
facet normal 0 0 0
outer loop
vertex 10.883204 12.957252 12.699371
vertex 10.903679 12.936499 12.699371
vertex 10.883204 12.936499 12.699371
endloop
endfacet
facet normal 0 0 0
outer loop
vertex 10.842253 12.874239 12.719372
vertex 10.821775 12.874239 12.699371
vertex 10.842253 12.874239 12.699371
endloop
endfacet
facet normal 0 0 0
outer loop
vertex 10.862728 12.874239 12.699371
vertex 10.842253 12.874239 12.719372
vertex 10.842253 12.874239 12.699371
endloop
endfacet
facet normal 0 0 0
outer loop
vertex 10.821775 12.874239 12.699371
vertex 10.821775 12.894992 12.719372
vertex 10.801300 12.894992 12.699371
endloop
endfacet
facet normal 0 0 0
outer loop
vertex 10.821775 12.894992 12.719372
vertex 10.801300 12.894992 12.719372
vertex 10.801300 12.894992 12.699371
endloop
endfacet
facet normal 0 0 0
outer loop
vertex 10.842253 12.874239 12.719372
vertex 10.821775 12.894992 12.719372
vertex 10.821775 12.874239 12.699371
endloop
endfacet
facet normal 0 0 0
outer loop
vertex 10.862728 12.874239 12.699371
vertex 10.862728 12.894992 12.719372
vertex 10.842253 12.874239 12.719372
endloop
endfacet
facet normal 0 0 0
outer loop
vertex 10.862728 12.894992 12.719372
vertex 10.862728 12.874239 12.699371
vertex 10.862728 12.894992 12.699371
endloop
endfacet
facet normal 0 0 0
outer loop
vertex 10.780825 12.915745 12.719372
vertex 10.801300 12.915745 12.699371
vertex 10.801300 12.894992 12.719372
endloop
endfacet
facet normal 0 0 0
outer loop
vertex 10.801300 12.915745 12.699371
vertex 10.801300 12.894992 12.699371
vertex 10.801300 12.894992 12.719372
endloop
endfacet
facet normal 0 0 0
outer loop
vertex 10.862728 12.894992 12.699371
vertex 10.883204 12.915745 12.719372
vertex 10.862728 12.894992 12.719372
endloop
endfacet
facet normal 0 0 0
outer loop
vertex 10.883204 12.915745 12.699371
vertex 10.883204 12.915745 12.719372
vertex 10.862728 12.894992 12.699371
endloop
endfacet
facet normal 0 0 0
outer loop
vertex 10.903679 12.915745 12.699371
vertex 10.883204 12.915745 12.719372
vertex 10.883204 12.915745 12.699371
endloop
endfacet
facet normal 0 0 0
outer loop
vertex 10.801300 12.915745 12.699371
vertex 10.780825 12.936499 12.719372
vertex 10.801300 12.936499 12.699371
endloop
endfacet
facet normal 0 0 0
outer loop
vertex 10.780825 12.915745 12.719372
vertex 10.780825 12.936499 12.719372
vertex 10.801300 12.915745 12.699371
endloop
endfacet
facet normal 0 0 0
outer loop
vertex 10.903679 12.915745 12.699371
vertex 10.903679 12.936499 12.719372
vertex 10.883204 12.915745 12.719372
endloop
endfacet
facet normal 0 0 0
outer loop
vertex 10.903679 12.936499 12.719372
vertex 10.903679 12.915745 12.699371
vertex 10.903679 12.936499 12.699371
endloop
endfacet
facet normal 0 0 0
outer loop
vertex 10.801300 12.936499 12.699371
vertex 10.780825 12.936499 12.719372
vertex 10.801300 12.957252 12.719372
endloop
endfacet
facet normal 0 0 0
outer loop
vertex 10.780825 12.936499 12.719372
vertex 10.780825 12.957252 12.719372
vertex 10.801300 12.957252 12.719372
endloop
endfacet
facet normal 0 0 0
outer loop
vertex 10.801300 12.936499 12.699371
vertex 10.801300 12.957252 12.719372
vertex 10.821775 12.957252 12.699371
endloop
endfacet
facet normal 0 0 0
outer loop
vertex 10.903679 12.936499 12.699371
vertex 10.883204 12.957252 12.699371
vertex 10.903679 12.957252 12.719372
endloop
endfacet
facet normal 0 0 0
outer loop
vertex 10.903679 12.936499 12.699371
vertex 10.903679 12.957252 12.719372
vertex 10.903679 12.936499 12.719372
endloop
endfacet
facet normal 0 0 0
outer loop
vertex 10.780825 12.957252 12.719372
vertex 10.801300 12.978005 12.719372
vertex 10.801300 12.957252 12.719372
endloop
endfacet
facet normal 0 0 0
outer loop
vertex 10.821775 12.957252 12.699371
vertex 10.801300 12.957252 12.719372
vertex 10.821775 12.978005 12.719372
endloop
endfacet
facet normal 0 0 0
outer loop
vertex 10.801300 12.957252 12.719372
vertex 10.801300 12.978005 12.719372
vertex 10.821775 12.978005 12.719372
endloop
endfacet
facet normal 0 0 0
outer loop
vertex 10.821775 12.957252 12.699371
vertex 10.842253 12.978005 12.719372
vertex 10.842253 12.957252 12.699371
endloop
endfacet
facet normal 0 0 0
outer loop
vertex 10.821775 12.978005 12.719372
vertex 10.842253 12.978005 12.719372
vertex 10.821775 12.957252 12.699371
endloop
endfacet
facet normal 0 0 0
outer loop
vertex 10.842253 12.957252 12.699371
vertex 10.862728 12.978005 12.719372
vertex 10.862728 12.957252 12.699371
endloop
endfacet
facet normal 0 0 0
outer loop
vertex 10.842253 12.978005 12.719372
vertex 10.862728 12.978005 12.719372
vertex 10.842253 12.957252 12.699371
endloop
endfacet
facet normal 0 0 0
outer loop
vertex 10.862728 12.957252 12.699371
vertex 10.883204 12.978005 12.719372
vertex 10.883204 12.957252 12.699371
endloop
endfacet
facet normal 0 0 0
outer loop
vertex 10.862728 12.978005 12.719372
vertex 10.883204 12.978005 12.719372
vertex 10.862728 12.957252 12.699371
endloop
endfacet
facet normal 0 0 0
outer loop
vertex 10.883204 12.957252 12.699371
vertex 10.883204 12.978005 12.719372
vertex 10.903679 12.957252 12.719372
endloop
endfacet
facet normal 0 0 0
outer loop
vertex 10.883204 12.978005 12.719372
vertex 10.903679 12.978005 12.719372
vertex 10.903679 12.957252 12.719372
endloop
endfacet
facet normal 0 0 0
outer loop
vertex 10.801300 12.998758 12.719372
vertex 10.821775 12.978005 12.719372
vertex 10.801300 12.978005 12.719372
endloop
endfacet
facet normal 0 0 0
outer loop
vertex 10.821775 12.874239 12.739372
vertex 10.842253 12.874239 12.719372
vertex 10.842253 12.874239 12.739372
endloop
endfacet
facet normal 0 0 0
outer loop
vertex 10.842253 12.874239 12.719372
vertex 10.862728 12.874239 12.739372
vertex 10.842253 12.874239 12.739372
endloop
endfacet
facet normal 0 0 0
outer loop
vertex 10.801300 12.874239 12.739372
vertex 10.780825 12.894992 12.739372
vertex 10.801300 12.894992 12.719372
endloop
endfacet
facet normal 0 0 0
outer loop
vertex 10.821775 12.894992 12.719372
vertex 10.801300 12.874239 12.739372
vertex 10.801300 12.894992 12.719372
endloop
endfacet
facet normal 0 0 0
outer loop
vertex 10.821775 12.874239 12.739372
vertex 10.801300 12.874239 12.739372
vertex 10.821775 12.894992 12.719372
endloop
endfacet
facet normal 0 0 0
outer loop
vertex 10.842253 12.874239 12.719372
vertex 10.821775 12.874239 12.739372
vertex 10.821775 12.894992 12.719372
endloop
endfacet
facet normal 0 0 0
outer loop
vertex 10.842253 12.874239 12.719372
vertex 10.862728 12.894992 12.719372
vertex 10.862728 12.874239 12.739372
endloop
endfacet
facet normal 0 0 0
outer loop
vertex 10.862728 12.894992 12.719372
vertex 10.883204 12.894992 12.739372
vertex 10.862728 12.874239 12.739372
endloop
endfacet
facet normal 0 0 0
outer loop
vertex 10.780825 12.894992 12.739372
vertex 10.801300 12.915745 12.739372
vertex 10.801300 12.894992 12.719372
endloop
endfacet
facet normal 0 0 0
outer loop
vertex 10.780825 12.915745 12.719372
vertex 10.801300 12.894992 12.719372
vertex 10.801300 12.915745 12.739372
endloop
endfacet
facet normal 0 0 0
outer loop
vertex 10.862728 12.894992 12.719372
vertex 10.883204 12.915745 12.719372
vertex 10.883204 12.894992 12.739372
endloop
endfacet
facet normal 0 0 0
outer loop
vertex 10.883204 12.915745 12.719372
vertex 10.903679 12.915745 12.739372
vertex 10.883204 12.894992 12.739372
endloop
endfacet
facet normal 0 0 0
outer loop
vertex 10.801300 12.936499 12.739372
vertex 10.780825 12.915745 12.719372
vertex 10.801300 12.915745 12.739372
endloop
endfacet
facet normal 0 0 0
outer loop
vertex 10.780825 12.936499 12.719372
vertex 10.780825 12.915745 12.719372
vertex 10.801300 12.936499 12.739372
endloop
endfacet
facet normal 0 0 0
outer loop
vertex 10.883204 12.915745 12.719372
vertex 10.903679 12.936499 12.719372
vertex 10.903679 12.915745 12.739372
endloop
endfacet
facet normal 0 0 0
outer loop
vertex 10.903679 12.915745 12.739372
vertex 10.903679 12.936499 12.719372
vertex 10.903679 12.936499 12.739372
endloop
endfacet
facet normal 0 0 0
outer loop
vertex 10.801300 12.957252 12.739372
vertex 10.780825 12.936499 12.719372
vertex 10.801300 12.936499 12.739372
endloop
endfacet
facet normal 0 0 0
outer loop
vertex 10.780825 12.957252 12.719372
vertex 10.780825 12.936499 12.719372
vertex 10.801300 12.957252 12.739372
endloop
endfacet
facet normal 0 0 0
outer loop
vertex 10.924156 12.957252 12.739372
vertex 10.903679 12.936499 12.739372
vertex 10.903679 12.957252 12.719372
endloop
endfacet
facet normal 0 0 0
outer loop
vertex 10.903679 12.936499 12.739372
vertex 10.903679 12.936499 12.719372
vertex 10.903679 12.957252 12.719372
endloop
endfacet
facet normal 0 0 0
outer loop
vertex 10.780825 12.957252 12.719372
vertex 10.801300 12.957252 12.739372
vertex 10.801300 12.978005 12.719372
endloop
endfacet
facet normal 0 0 0
outer loop
vertex 10.801300 12.957252 12.739372
vertex 10.801300 12.978005 12.739372
vertex 10.801300 12.978005 12.719372
endloop
endfacet
facet normal 0 0 0
outer loop
vertex 10.821775 12.978005 12.719372
vertex 10.801300 12.978005 12.739372
vertex 10.821775 12.957252 12.739372
endloop
endfacet
facet normal 0 0 0
outer loop
vertex 10.821775 12.957252 12.739372
vertex 10.842253 12.978005 12.739372
vertex 10.821775 12.978005 12.719372
endloop
endfacet
facet normal 0 0 0
outer loop
vertex 10.924156 12.957252 12.739372
vertex 10.903679 12.978005 12.719372
vertex 10.924156 12.978005 12.739372
endloop
endfacet
facet normal 0 0 0
outer loop
vertex 10.903679 12.957252 12.719372
vertex 10.903679 12.978005 12.719372
vertex 10.924156 12.957252 12.739372
endloop
endfacet
facet normal 0 0 0
outer loop
vertex 10.944632 12.978005 12.739372
vertex 10.924156 12.957252 12.739372
vertex 10.924156 12.978005 12.739372
endloop
endfacet
facet normal 0 0 0
outer loop
vertex 10.801300 12.978005 12.739372
vertex 10.801300 12.998758 12.719372
vertex 10.801300 12.978005 12.719372
endloop
endfacet
facet normal 0 0 0
outer loop
vertex 10.821775 12.978005 12.719372
vertex 10.801300 12.998758 12.719372
vertex 10.801300 12.978005 12.739372
endloop
endfacet
facet normal 0 0 0
outer loop
vertex 10.821775 12.978005 12.719372
vertex 10.842253 12.978005 12.739372
vertex 10.842253 12.978005 12.719372
endloop
endfacet
facet normal 0 0 0
outer loop
vertex 10.862728 12.978005 12.719372
vertex 10.842253 12.978005 12.719372
vertex 10.862728 12.978005 12.739372
endloop
endfacet
facet normal 0 0 0
outer loop
vertex 10.842253 12.978005 12.719372
vertex 10.842253 12.978005 12.739372
vertex 10.862728 12.978005 12.739372
endloop
endfacet
facet normal 0 0 0
outer loop
vertex 10.883204 12.978005 12.719372
vertex 10.862728 12.978005 12.719372
vertex 10.883204 12.978005 12.739372
endloop
endfacet
facet normal 0 0 0
outer loop
vertex 10.862728 12.978005 12.719372
vertex 10.862728 12.978005 12.739372
vertex 10.883204 12.978005 12.739372
endloop
endfacet
facet normal 0 0 0
outer loop
vertex 10.903679 12.978005 12.719372
vertex 10.883204 12.978005 12.719372
vertex 10.903679 12.978005 12.739372
endloop
endfacet
facet normal 0 0 0
outer loop
vertex 10.883204 12.978005 12.719372
vertex 10.883204 12.978005 12.739372
vertex 10.903679 12.978005 12.739372
endloop
endfacet
facet normal 0 0 0
outer loop
vertex 10.924156 12.978005 12.739372
vertex 10.903679 12.978005 12.719372
vertex 10.903679 12.978005 12.739372
endloop
endfacet
facet normal 0 0 0
outer loop
vertex 10.821775 12.874239 12.759372
vertex 10.801300 12.874239 12.739372
vertex 10.821775 12.874239 12.739372
endloop
endfacet
facet normal 0 0 0
outer loop
vertex 10.842253 12.874239 12.739372
vertex 10.842253 12.874239 12.759372
vertex 10.821775 12.874239 12.739372
endloop
endfacet
facet normal 0 0 0
outer loop
vertex 10.821775 12.874239 12.739372
vertex 10.842253 12.874239 12.759372
vertex 10.821775 12.874239 12.759372
endloop
endfacet
facet normal 0 0 0
outer loop
vertex 10.862728 12.874239 12.739372
vertex 10.862728 12.874239 12.759372
vertex 10.842253 12.874239 12.739372
endloop
endfacet
facet normal 0 0 0
outer loop
vertex 10.842253 12.874239 12.739372
vertex 10.862728 12.874239 12.759372
vertex 10.842253 12.874239 12.759372
endloop
endfacet
facet normal 0 0 0
outer loop
vertex 10.801300 12.874239 12.739372
vertex 10.801300 12.894992 12.759372
vertex 10.780825 12.894992 12.739372
endloop
endfacet
facet normal 0 0 0
outer loop
vertex 10.821775 12.874239 12.759372
vertex 10.801300 12.894992 12.759372
vertex 10.801300 12.874239 12.739372
endloop
endfacet
facet normal 0 0 0
outer loop
vertex 10.883204 12.894992 12.739372
vertex 10.862728 12.894992 12.759372
vertex 10.862728 12.874239 12.739372
endloop
endfacet
facet normal 0 0 0
outer loop
vertex 10.862728 12.894992 12.759372
vertex 10.862728 12.874239 12.759372
vertex 10.862728 12.874239 12.739372
endloop
endfacet
facet normal 0 0 0
outer loop
vertex 10.780825 12.915745 12.759372
vertex 10.801300 12.915745 12.739372
vertex 10.801300 12.894992 12.759372
endloop
endfacet
facet normal 0 0 0
outer loop
vertex 10.780825 12.894992 12.739372
vertex 10.801300 12.894992 12.759372
vertex 10.801300 12.915745 12.739372
endloop
endfacet
facet normal 0 0 0
outer loop
vertex 10.883204 12.894992 12.739372
vertex 10.883204 12.915745 12.759372
vertex 10.862728 12.894992 12.759372
endloop
endfacet
facet normal 0 0 0
outer loop
vertex 10.883204 12.894992 12.739372
vertex 10.903679 12.915745 12.739372
vertex 10.883204 12.915745 12.759372
endloop
endfacet
facet normal 0 0 0
outer loop
vertex 10.903679 12.915745 12.739372
vertex 10.903679 12.915745 12.759372
vertex 10.883204 12.915745 12.759372
endloop
endfacet
facet normal 0 0 0
outer loop
vertex 10.801300 12.915745 12.739372
vertex 10.780825 12.936499 12.759372
vertex 10.801300 12.936499 12.739372
endloop
endfacet
facet normal 0 0 0
outer loop
vertex 10.780825 12.915745 12.759372
vertex 10.780825 12.936499 12.759372
vertex 10.801300 12.915745 12.739372
endloop
endfacet
facet normal 0 0 0
outer loop
vertex 10.903679 12.915745 12.739372
vertex 10.903679 12.936499 12.739372
vertex 10.903679 12.915745 12.759372
endloop
endfacet
facet normal 0 0 0
outer loop
vertex 10.903679 12.915745 12.759372
vertex 10.903679 12.936499 12.739372
vertex 10.903679 12.936499 12.759372
endloop
endfacet
facet normal 0 0 0
outer loop
vertex 10.780825 12.936499 12.759372
vertex 10.801300 12.957252 12.759372
vertex 10.801300 12.936499 12.739372
endloop
endfacet
facet normal 0 0 0
outer loop
vertex 10.801300 12.957252 12.759372
vertex 10.801300 12.957252 12.739372
vertex 10.801300 12.936499 12.739372
endloop
endfacet
facet normal 0 0 0
outer loop
vertex 10.903679 12.936499 12.739372
vertex 10.924156 12.957252 12.759372
vertex 10.903679 12.936499 12.759372
endloop
endfacet
facet normal 0 0 0
outer loop
vertex 10.924156 12.957252 12.739372
vertex 10.924156 12.957252 12.759372
vertex 10.903679 12.936499 12.739372
endloop
endfacet
facet normal 0 0 0
outer loop
vertex 10.801300 12.957252 12.759372
vertex 10.801300 12.978005 12.739372
vertex 10.801300 12.957252 12.739372
endloop
endfacet
facet normal 0 0 0
outer loop
vertex 10.801300 12.978005 12.739372
vertex 10.801300 12.957252 12.759372
vertex 10.821775 12.957252 12.739372
endloop
endfacet
facet normal 0 0 0
outer loop
vertex 10.821775 12.978005 12.759372
vertex 10.821775 12.957252 12.739372
vertex 10.801300 12.957252 12.759372
endloop
endfacet
facet normal 0 0 0
outer loop
vertex 10.821775 12.957252 12.739372
vertex 10.821775 12.978005 12.759372
vertex 10.842253 12.978005 12.739372
endloop
endfacet
facet normal 0 0 0
outer loop
vertex 10.944632 12.978005 12.739372
vertex 10.924156 12.978005 12.759372
vertex 10.924156 12.957252 12.739372
endloop
endfacet
facet normal 0 0 0
outer loop
vertex 10.924156 12.978005 12.759372
vertex 10.924156 12.957252 12.759372
vertex 10.924156 12.957252 12.739372
endloop
endfacet
facet normal 0 0 0
outer loop
vertex 10.842253 12.978005 12.739372
vertex 10.821775 12.978005 12.759372
vertex 10.842253 12.998758 12.759372
endloop
endfacet
facet normal 0 0 0
outer loop
vertex 10.842253 12.978005 12.739372
vertex 10.862728 12.998758 12.759372
vertex 10.862728 12.978005 12.739372
endloop
endfacet
facet normal 0 0 0
outer loop
vertex 10.842253 12.998758 12.759372
vertex 10.862728 12.998758 12.759372
vertex 10.842253 12.978005 12.739372
endloop
endfacet
facet normal 0 0 0
outer loop
vertex 10.862728 12.978005 12.739372
vertex 10.883204 12.998758 12.759372
vertex 10.883204 12.978005 12.739372
endloop
endfacet
facet normal 0 0 0
outer loop
vertex 10.862728 12.998758 12.759372
vertex 10.883204 12.998758 12.759372
vertex 10.862728 12.978005 12.739372
endloop
endfacet
facet normal 0 0 0
outer loop
vertex 10.883204 12.978005 12.739372
vertex 10.903679 12.998758 12.759372
vertex 10.903679 12.978005 12.739372
endloop
endfacet
facet normal 0 0 0
outer loop
vertex 10.883204 12.998758 12.759372
vertex 10.903679 12.998758 12.759372
vertex 10.883204 12.978005 12.739372
endloop
endfacet
facet normal 0 0 0
outer loop
vertex 10.903679 12.978005 12.739372
vertex 10.924156 12.998758 12.759372
vertex 10.924156 12.978005 12.739372
endloop
endfacet
facet normal 0 0 0
outer loop
vertex 10.903679 12.998758 12.759372
vertex 10.924156 12.998758 12.759372
vertex 10.903679 12.978005 12.739372
endloop
endfacet
facet normal 0 0 0
outer loop
vertex 10.944632 12.978005 12.739372
vertex 10.924156 12.998758 12.759372
vertex 10.924156 12.978005 12.759372
endloop
endfacet
facet normal 0 0 0
outer loop
vertex 10.944632 12.978005 12.739372
vertex 10.924156 12.978005 12.739372
vertex 10.924156 12.998758 12.759372
endloop
endfacet
facet normal 0 0 0
outer loop
vertex 10.924156 13.019512 12.759372
vertex 10.924156 12.998758 12.759372
vertex 10.903679 12.998758 12.759372
endloop
endfacet
facet normal 0 0 0
outer loop
vertex 10.842253 12.874239 12.779372
vertex 10.821775 12.874239 12.759372
vertex 10.842253 12.874239 12.759372
endloop
endfacet
facet normal 0 0 0
outer loop
vertex 10.862728 12.874239 12.759372
vertex 10.842253 12.874239 12.779372
vertex 10.842253 12.874239 12.759372
endloop
endfacet
facet normal 0 0 0
outer loop
vertex 10.801300 12.894992 12.759372
vertex 10.801300 12.874239 12.779372
vertex 10.801300 12.894992 12.779372
endloop
endfacet
facet normal 0 0 0
outer loop
vertex 10.801300 12.874239 12.779372
vertex 10.801300 12.894992 12.759372
vertex 10.821775 12.894992 12.779372
endloop
endfacet
facet normal 0 0 0
outer loop
vertex 10.821775 12.874239 12.759372
vertex 10.821775 12.894992 12.779372
vertex 10.801300 12.894992 12.759372
endloop
endfacet
facet normal 0 0 0
outer loop
vertex 10.842253 12.874239 12.779372
vertex 10.821775 12.894992 12.779372
vertex 10.821775 12.874239 12.759372
endloop
endfacet
facet normal 0 0 0
outer loop
vertex 10.862728 12.894992 12.759372
vertex 10.842253 12.874239 12.779372
vertex 10.862728 12.874239 12.759372
endloop
endfacet
facet normal 0 0 0
outer loop
vertex 10.842253 12.894992 12.779372
vertex 10.842253 12.874239 12.779372
vertex 10.862728 12.894992 12.759372
endloop
endfacet
facet normal 0 0 0
outer loop
vertex 10.801300 12.894992 12.779372
vertex 10.780825 12.915745 12.759372
vertex 10.801300 12.894992 12.759372
endloop
endfacet
facet normal 0 0 0
outer loop
vertex 10.780825 12.915745 12.779372
vertex 10.780825 12.915745 12.759372
vertex 10.801300 12.894992 12.779372
endloop
endfacet
facet normal 0 0 0
outer loop
vertex 10.862728 12.894992 12.759372
vertex 10.862728 12.915745 12.779372
vertex 10.842253 12.894992 12.779372
endloop
endfacet
facet normal 0 0 0
outer loop
vertex 10.883204 12.915745 12.759372
vertex 10.862728 12.915745 12.779372
vertex 10.862728 12.894992 12.759372
endloop
endfacet
facet normal 0 0 0
outer loop
vertex 10.760349 12.936499 12.779372
vertex 10.780825 12.936499 12.759372
vertex 10.780825 12.915745 12.779372
endloop
endfacet
facet normal 0 0 0
outer loop
vertex 10.780825 12.936499 12.759372
vertex 10.780825 12.915745 12.759372
vertex 10.780825 12.915745 12.779372
endloop
endfacet
facet normal 0 0 0
outer loop
vertex 10.883204 12.915745 12.759372
vertex 10.883204 12.936499 12.779372
vertex 10.862728 12.915745 12.779372
endloop
endfacet
facet normal 0 0 0
outer loop
vertex 10.883204 12.936499 12.779372
vertex 10.883204 12.915745 12.759372
vertex 10.903679 12.936499 12.759372
endloop
endfacet
facet normal 0 0 0
outer loop
vertex 10.883204 12.915745 12.759372
vertex 10.903679 12.915745 12.759372
vertex 10.903679 12.936499 12.759372
endloop
endfacet
facet normal 0 0 0
outer loop
vertex 10.780825 12.936499 12.759372
vertex 10.760349 12.936499 12.779372
vertex 10.780825 12.957252 12.779372
endloop
endfacet
facet normal 0 0 0
outer loop
vertex 10.780825 12.936499 12.759372
vertex 10.780825 12.957252 12.779372
vertex 10.801300 12.957252 12.759372
endloop
endfacet
facet normal 0 0 0
outer loop
vertex 10.903679 12.936499 12.759372
vertex 10.903679 12.957252 12.779372
vertex 10.883204 12.936499 12.779372
endloop
endfacet
facet normal 0 0 0
outer loop
vertex 10.924156 12.957252 12.759372
vertex 10.903679 12.957252 12.779372
vertex 10.903679 12.936499 12.759372
endloop
endfacet
facet normal 0 0 0
outer loop
vertex 10.801300 12.957252 12.759372
vertex 10.780825 12.957252 12.779372
vertex 10.801300 12.978005 12.779372
endloop
endfacet
facet normal 0 0 0
outer loop
vertex 10.801300 12.957252 12.759372
vertex 10.801300 12.978005 12.779372
vertex 10.821775 12.978005 12.759372
endloop
endfacet
facet normal 0 0 0
outer loop
vertex 10.924156 12.957252 12.759372
vertex 10.924156 12.978005 12.779372
vertex 10.903679 12.957252 12.779372
endloop
endfacet
facet normal 0 0 0
outer loop
vertex 10.924156 12.978005 12.779372
vertex 10.924156 12.957252 12.759372
vertex 10.924156 12.978005 12.759372
endloop
endfacet
facet normal 0 0 0
outer loop
vertex 10.821775 12.978005 12.759372
vertex 10.801300 12.978005 12.779372
vertex 10.821775 12.998758 12.779372
endloop
endfacet
facet normal 0 0 0
outer loop
vertex 10.801300 12.978005 12.779372
vertex 10.801300 12.998758 12.779372
vertex 10.821775 12.998758 12.779372
endloop
endfacet
facet normal 0 0 0
outer loop
vertex 10.821775 12.978005 12.759372
vertex 10.821775 12.998758 12.779372
vertex 10.842253 12.998758 12.759372
endloop
endfacet
facet normal 0 0 0
outer loop
vertex 10.924156 12.978005 12.759372
vertex 10.924156 12.998758 12.759372
vertex 10.924156 12.978005 12.779372
endloop
endfacet
facet normal 0 0 0
outer loop
vertex 10.924156 12.978005 12.779372
vertex 10.924156 12.998758 12.759372
vertex 10.924156 12.998758 12.779372
endloop
endfacet
facet normal 0 0 0
outer loop
vertex 10.842253 12.998758 12.759372
vertex 10.821775 12.998758 12.779372
vertex 10.842253 13.019512 12.779372
endloop
endfacet
facet normal 0 0 0
outer loop
vertex 10.842253 12.998758 12.759372
vertex 10.862728 13.019512 12.779372
vertex 10.862728 12.998758 12.759372
endloop
endfacet
facet normal 0 0 0
outer loop
vertex 10.842253 13.019512 12.779372
vertex 10.862728 13.019512 12.779372
vertex 10.842253 12.998758 12.759372
endloop
endfacet
facet normal 0 0 0
outer loop
vertex 10.862728 12.998758 12.759372
vertex 10.883204 13.019512 12.779372
vertex 10.883204 12.998758 12.759372
endloop
endfacet
facet normal 0 0 0
outer loop
vertex 10.862728 13.019512 12.779372
vertex 10.883204 13.019512 12.779372
vertex 10.862728 12.998758 12.759372
endloop
endfacet
facet normal 0 0 0
outer loop
vertex 10.883204 12.998758 12.759372
vertex 10.903679 13.019512 12.779372
vertex 10.903679 12.998758 12.759372
endloop
endfacet
facet normal 0 0 0
outer loop
vertex 10.883204 13.019512 12.779372
vertex 10.903679 13.019512 12.779372
vertex 10.883204 12.998758 12.759372
endloop
endfacet
facet normal 0 0 0
outer loop
vertex 10.903679 13.019512 12.779372
vertex 10.924156 12.998758 12.779372
vertex 10.903679 12.998758 12.759372
endloop
endfacet
facet normal 0 0 0
outer loop
vertex 10.924156 13.019512 12.759372
vertex 10.903679 12.998758 12.759372
vertex 10.924156 12.998758 12.779372
endloop
endfacet
facet normal 0 0 0
outer loop
vertex 10.924156 13.019512 12.759372
vertex 10.924156 12.998758 12.779372
vertex 10.924156 12.998758 12.759372
endloop
endfacet
facet normal 0 0 0
outer loop
vertex 10.842253 13.019512 12.779372
vertex 10.862728 13.040265 12.779372
vertex 10.862728 13.019512 12.779372
endloop
endfacet
facet normal 0 0 0
outer loop
vertex 10.883204 13.019512 12.779372
vertex 10.862728 13.019512 12.779372
vertex 10.862728 13.040265 12.779372
endloop
endfacet
facet normal 0 0 0
outer loop
vertex 10.821775 12.874239 12.799372
vertex 10.842253 12.874239 12.779372
vertex 10.842253 12.874239 12.799372
endloop
endfacet
facet normal 0 0 0
outer loop
vertex 10.801300 12.874239 12.779372
vertex 10.801300 12.894992 12.799372
vertex 10.780825 12.894992 12.799372
endloop
endfacet
facet normal 0 0 0
outer loop
vertex 10.801300 12.874239 12.779372
vertex 10.780825 12.894992 12.799372
vertex 10.801300 12.894992 12.779372
endloop
endfacet
facet normal 0 0 0
outer loop
vertex 10.821775 12.874239 12.799372
vertex 10.801300 12.894992 12.799372
vertex 10.821775 12.894992 12.779372
endloop
endfacet
facet normal 0 0 0
outer loop
vertex 10.801300 12.874239 12.779372
vertex 10.821775 12.894992 12.779372
vertex 10.801300 12.894992 12.799372
endloop
endfacet
facet normal 0 0 0
outer loop
vertex 10.842253 12.874239 12.779372
vertex 10.821775 12.874239 12.799372
vertex 10.821775 12.894992 12.779372
endloop
endfacet
facet normal 0 0 0
outer loop
vertex 10.842253 12.874239 12.779372
vertex 10.842253 12.894992 12.779372
vertex 10.842253 12.874239 12.799372
endloop
endfacet
facet normal 0 0 0
outer loop
vertex 10.842253 12.874239 12.799372
vertex 10.842253 12.894992 12.779372
vertex 10.842253 12.894992 12.799372
endloop
endfacet
facet normal 0 0 0
outer loop
vertex 10.780825 12.915745 12.779372
vertex 10.780825 12.894992 12.799372
vertex 10.780825 12.915745 12.799372
endloop
endfacet
facet normal 0 0 0
outer loop
vertex 10.801300 12.894992 12.779372
vertex 10.780825 12.894992 12.799372
vertex 10.780825 12.915745 12.779372
endloop
endfacet
facet normal 0 0 0
outer loop
vertex 10.842253 12.894992 12.779372
vertex 10.862728 12.915745 12.799372
vertex 10.842253 12.894992 12.799372
endloop
endfacet
facet normal 0 0 0
outer loop
vertex 10.862728 12.915745 12.779372
vertex 10.862728 12.915745 12.799372
vertex 10.842253 12.894992 12.779372
endloop
endfacet
facet normal 0 0 0
outer loop
vertex 10.862728 12.915745 12.779372
vertex 10.883204 12.915745 12.799372
vertex 10.862728 12.915745 12.799372
endloop
endfacet
facet normal 0 0 0
outer loop
vertex 10.760349 12.936499 12.779372
vertex 10.780825 12.915745 12.779372
vertex 10.780825 12.936499 12.799372
endloop
endfacet
facet normal 0 0 0
outer loop
vertex 10.780825 12.915745 12.779372
vertex 10.780825 12.915745 12.799372
vertex 10.780825 12.936499 12.799372
endloop
endfacet
facet normal 0 0 0
outer loop
vertex 10.862728 12.915745 12.779372
vertex 10.883204 12.936499 12.779372
vertex 10.883204 12.915745 12.799372
endloop
endfacet
facet normal 0 0 0
outer loop
vertex 10.883204 12.936499 12.779372
vertex 10.903679 12.936499 12.799372
vertex 10.883204 12.915745 12.799372
endloop
endfacet
facet normal 0 0 0
outer loop
vertex 10.760349 12.936499 12.779372
vertex 10.780825 12.936499 12.799372
vertex 10.780825 12.957252 12.779372
endloop
endfacet
facet normal 0 0 0
outer loop
vertex 10.780825 12.936499 12.799372
vertex 10.801300 12.957252 12.799372
vertex 10.780825 12.957252 12.779372
endloop
endfacet
facet normal 0 0 0
outer loop
vertex 10.883204 12.936499 12.779372
vertex 10.903679 12.957252 12.779372
vertex 10.903679 12.936499 12.799372
endloop
endfacet
facet normal 0 0 0
outer loop
vertex 10.903679 12.957252 12.779372
vertex 10.924156 12.957252 12.799372
vertex 10.903679 12.936499 12.799372
endloop
endfacet
facet normal 0 0 0
outer loop
vertex 10.780825 12.957252 12.779372
vertex 10.801300 12.957252 12.799372
vertex 10.801300 12.978005 12.779372
endloop
endfacet
facet normal 0 0 0
outer loop
vertex 10.801300 12.957252 12.799372
vertex 10.821775 12.978005 12.799372
vertex 10.801300 12.978005 12.779372
endloop
endfacet
facet normal 0 0 0
outer loop
vertex 10.903679 12.957252 12.779372
vertex 10.924156 12.978005 12.779372
vertex 10.924156 12.957252 12.799372
endloop
endfacet
facet normal 0 0 0
outer loop
vertex 10.924156 12.957252 12.799372
vertex 10.924156 12.978005 12.779372
vertex 10.924156 12.978005 12.799372
endloop
endfacet
facet normal 0 0 0
outer loop
vertex 10.821775 12.998758 12.799372
vertex 10.801300 12.978005 12.779372
vertex 10.821775 12.978005 12.799372
endloop
endfacet
facet normal 0 0 0
outer loop
vertex 10.801300 12.998758 12.779372
vertex 10.801300 12.978005 12.779372
vertex 10.821775 12.998758 12.799372
endloop
endfacet
facet normal 0 0 0
outer loop
vertex 10.924156 12.978005 12.779372
vertex 10.924156 12.998758 12.779372
vertex 10.924156 12.978005 12.799372
endloop
endfacet
facet normal 0 0 0
outer loop
vertex 10.924156 12.978005 12.799372
vertex 10.924156 12.998758 12.779372
vertex 10.924156 12.998758 12.799372
endloop
endfacet
facet normal 0 0 0
outer loop
vertex 10.801300 12.998758 12.779372
vertex 10.821775 12.998758 12.799372
vertex 10.821775 12.998758 12.779372
endloop
endfacet
facet normal 0 0 0
outer loop
vertex 10.821775 12.998758 12.799372
vertex 10.842253 13.019512 12.779372
vertex 10.821775 12.998758 12.779372
endloop
endfacet
facet normal 0 0 0
outer loop
vertex 10.842253 13.019512 12.799372
vertex 10.842253 13.019512 12.779372
vertex 10.821775 12.998758 12.799372
endloop
endfacet
facet normal 0 0 0
outer loop
vertex 10.924156 12.998758 12.779372
vertex 10.903679 13.019512 12.779372
vertex 10.924156 13.019512 12.799372
endloop
endfacet
facet normal 0 0 0
outer loop
vertex 10.924156 12.998758 12.779372
vertex 10.924156 13.019512 12.799372
vertex 10.924156 12.998758 12.799372
endloop
endfacet
facet normal 0 0 0
outer loop
vertex 10.842253 13.019512 12.799372
vertex 10.862728 13.040265 12.779372
vertex 10.842253 13.019512 12.779372
endloop
endfacet
facet normal 0 0 0
outer loop
vertex 10.862728 13.040265 12.799372
vertex 10.862728 13.040265 12.779372
vertex 10.842253 13.019512 12.799372
endloop
endfacet
facet normal 0 0 0
outer loop
vertex 10.883204 13.019512 12.779372
vertex 10.862728 13.040265 12.779372
vertex 10.883204 13.040265 12.799372
endloop
endfacet
facet normal 0 0 0
outer loop
vertex 10.883204 13.019512 12.779372
vertex 10.903679 13.040265 12.799372
vertex 10.903679 13.019512 12.779372
endloop
endfacet
facet normal 0 0 0
outer loop
vertex 10.883204 13.040265 12.799372
vertex 10.903679 13.040265 12.799372
vertex 10.883204 13.019512 12.779372
endloop
endfacet
facet normal 0 0 0
outer loop
vertex 10.903679 13.019512 12.779372
vertex 10.903679 13.040265 12.799372
vertex 10.924156 13.019512 12.799372
endloop
endfacet
facet normal 0 0 0
outer loop
vertex 10.903679 13.040265 12.799372
vertex 10.924156 13.040265 12.799372
vertex 10.924156 13.019512 12.799372
endloop
endfacet
facet normal 0 0 0
outer loop
vertex 10.883204 13.040265 12.799372
vertex 10.862728 13.040265 12.779372
vertex 10.862728 13.040265 12.799372
endloop
endfacet
facet normal 0 0 0
outer loop
vertex 10.842253 12.874239 12.799372
vertex 10.842253 12.874239 12.819372
vertex 10.821775 12.874239 12.799372
endloop
endfacet
facet normal 0 0 0
outer loop
vertex 10.821775 12.874239 12.799372
vertex 10.842253 12.874239 12.819372
vertex 10.821775 12.874239 12.819372
endloop
endfacet
facet normal 0 0 0
outer loop
vertex 10.842253 12.874239 12.799372
vertex 10.862728 12.874239 12.819372
vertex 10.842253 12.874239 12.819372
endloop
endfacet
facet normal 0 0 0
outer loop
vertex 10.801300 12.894992 12.799372
vertex 10.801300 12.894992 12.819372
vertex 10.780825 12.894992 12.799372
endloop
endfacet
facet normal 0 0 0
outer loop
vertex 10.780825 12.894992 12.799372
vertex 10.801300 12.894992 12.819372
vertex 10.780825 12.894992 12.819372
endloop
endfacet
facet normal 0 0 0
outer loop
vertex 10.821775 12.874239 12.819372
vertex 10.801300 12.894992 12.799372
vertex 10.821775 12.874239 12.799372
endloop
endfacet
facet normal 0 0 0
outer loop
vertex 10.801300 12.894992 12.819372
vertex 10.801300 12.894992 12.799372
vertex 10.821775 12.874239 12.819372
endloop
endfacet
facet normal 0 0 0
outer loop
vertex 10.862728 12.874239 12.819372
vertex 10.842253 12.894992 12.799372
vertex 10.862728 12.894992 12.819372
endloop
endfacet
facet normal 0 0 0
outer loop
vertex 10.842253 12.874239 12.799372
vertex 10.842253 12.894992 12.799372
vertex 10.862728 12.874239 12.819372
endloop
endfacet
facet normal 0 0 0
outer loop
vertex 10.780825 12.894992 12.799372
vertex 10.780825 12.894992 12.819372
vertex 10.780825 12.915745 12.799372
endloop
endfacet
facet normal 0 0 0
outer loop
vertex 10.780825 12.894992 12.819372
vertex 10.780825 12.915745 12.819372
vertex 10.780825 12.915745 12.799372
endloop
endfacet
facet normal 0 0 0
outer loop
vertex 10.842253 12.894992 12.799372
vertex 10.862728 12.915745 12.799372
vertex 10.862728 12.894992 12.819372
endloop
endfacet
facet normal 0 0 0
outer loop
vertex 10.883204 12.915745 12.799372
vertex 10.862728 12.894992 12.819372
vertex 10.862728 12.915745 12.799372
endloop
endfacet
facet normal 0 0 0
outer loop
vertex 10.883204 12.894992 12.819372
vertex 10.862728 12.894992 12.819372
vertex 10.883204 12.915745 12.799372
endloop
endfacet
facet normal 0 0 0
outer loop
vertex 10.883204 12.894992 12.819372
vertex 10.883204 12.915745 12.799372
vertex 10.883204 12.915745 12.819372
endloop
endfacet
facet normal 0 0 0
outer loop
vertex 10.780825 12.915745 12.799372
vertex 10.780825 12.915745 12.819372
vertex 10.780825 12.936499 12.799372
endloop
endfacet
facet normal 0 0 0
outer loop
vertex 10.780825 12.915745 12.819372
vertex 10.780825 12.936499 12.819372
vertex 10.780825 12.936499 12.799372
endloop
endfacet
facet normal 0 0 0
outer loop
vertex 10.903679 12.936499 12.799372
vertex 10.883204 12.936499 12.819372
vertex 10.883204 12.915745 12.799372
endloop
endfacet
facet normal 0 0 0
outer loop
vertex 10.883204 12.936499 12.819372
vertex 10.883204 12.915745 12.819372
vertex 10.883204 12.915745 12.799372
endloop
endfacet
facet normal 0 0 0
outer loop
vertex 10.780825 12.936499 12.819372
vertex 10.801300 12.957252 12.799372
vertex 10.780825 12.936499 12.799372
endloop
endfacet
facet normal 0 0 0
outer loop
vertex 10.801300 12.957252 12.819372
vertex 10.801300 12.957252 12.799372
vertex 10.780825 12.936499 12.819372
endloop
endfacet
facet normal 0 0 0
outer loop
vertex 10.903679 12.936499 12.799372
vertex 10.903679 12.957252 12.819372
vertex 10.883204 12.936499 12.819372
endloop
endfacet
facet normal 0 0 0
outer loop
vertex 10.903679 12.936499 12.799372
vertex 10.924156 12.957252 12.799372
vertex 10.903679 12.957252 12.819372
endloop
endfacet
facet normal 0 0 0
outer loop
vertex 10.924156 12.957252 12.799372
vertex 10.924156 12.957252 12.819372
vertex 10.903679 12.957252 12.819372
endloop
endfacet
facet normal 0 0 0
outer loop
vertex 10.801300 12.978005 12.819372
vertex 10.801300 12.957252 12.799372
vertex 10.801300 12.957252 12.819372
endloop
endfacet
facet normal 0 0 0
outer loop
vertex 10.801300 12.957252 12.799372
vertex 10.801300 12.978005 12.819372
vertex 10.821775 12.978005 12.799372
endloop
endfacet
facet normal 0 0 0
outer loop
vertex 10.924156 12.978005 12.799372
vertex 10.903679 12.978005 12.819372
vertex 10.924156 12.957252 12.819372
endloop
endfacet
facet normal 0 0 0
outer loop
vertex 10.924156 12.978005 12.799372
vertex 10.924156 12.957252 12.819372
vertex 10.924156 12.957252 12.799372
endloop
endfacet
facet normal 0 0 0
outer loop
vertex 10.801300 12.978005 12.819372
vertex 10.821775 12.998758 12.819372
vertex 10.821775 12.978005 12.799372
endloop
endfacet
facet normal 0 0 0
outer loop
vertex 10.821775 12.998758 12.819372
vertex 10.821775 12.998758 12.799372
vertex 10.821775 12.978005 12.799372
endloop
endfacet
facet normal 0 0 0
outer loop
vertex 10.924156 12.978005 12.799372
vertex 10.924156 12.998758 12.819372
vertex 10.903679 12.978005 12.819372
endloop
endfacet
facet normal 0 0 0
outer loop
vertex 10.924156 12.998758 12.819372
vertex 10.924156 12.978005 12.799372
vertex 10.924156 12.998758 12.799372
endloop
endfacet
facet normal 0 0 0
outer loop
vertex 10.821775 13.019512 12.819372
vertex 10.821775 12.998758 12.799372
vertex 10.821775 12.998758 12.819372
endloop
endfacet
facet normal 0 0 0
outer loop
vertex 10.821775 12.998758 12.799372
vertex 10.821775 13.019512 12.819372
vertex 10.842253 13.019512 12.799372
endloop
endfacet
facet normal 0 0 0
outer loop
vertex 10.924156 13.019512 12.799372
vertex 10.903679 13.019512 12.819372
vertex 10.924156 12.998758 12.819372
endloop
endfacet
facet normal 0 0 0
outer loop
vertex 10.924156 13.019512 12.799372
vertex 10.924156 12.998758 12.819372
vertex 10.924156 12.998758 12.799372
endloop
endfacet
facet normal 0 0 0
outer loop
vertex 10.842253 13.019512 12.799372
vertex 10.821775 13.019512 12.819372
vertex 10.842253 13.019512 12.819372
endloop
endfacet
facet normal 0 0 0
outer loop
vertex 10.842253 13.019512 12.819372
vertex 10.862728 13.040265 12.799372
vertex 10.842253 13.019512 12.799372
endloop
endfacet
facet normal 0 0 0
outer loop
vertex 10.862728 13.040265 12.819372
vertex 10.862728 13.040265 12.799372
vertex 10.842253 13.019512 12.819372
endloop
endfacet
facet normal 0 0 0
outer loop
vertex 10.924156 13.040265 12.799372
vertex 10.903679 13.019512 12.819372
vertex 10.924156 13.019512 12.799372
endloop
endfacet
facet normal 0 0 0
outer loop
vertex 10.903679 13.040265 12.819372
vertex 10.903679 13.019512 12.819372
vertex 10.924156 13.040265 12.799372
endloop
endfacet
facet normal 0 0 0
outer loop
vertex 10.883204 13.040265 12.799372
vertex 10.862728 13.040265 12.799372
vertex 10.883204 13.040265 12.819372
endloop
endfacet
facet normal 0 0 0
outer loop
vertex 10.862728 13.040265 12.799372
vertex 10.862728 13.040265 12.819372
vertex 10.883204 13.040265 12.819372
endloop
endfacet
facet normal 0 0 0
outer loop
vertex 10.903679 13.040265 12.799372
vertex 10.883204 13.040265 12.799372
vertex 10.903679 13.040265 12.819372
endloop
endfacet
facet normal 0 0 0
outer loop
vertex 10.883204 13.040265 12.799372
vertex 10.883204 13.040265 12.819372
vertex 10.903679 13.040265 12.819372
endloop
endfacet
facet normal 0 0 0
outer loop
vertex 10.903679 13.040265 12.819372
vertex 10.924156 13.040265 12.799372
vertex 10.903679 13.040265 12.799372
endloop
endfacet
facet normal 0 0 0
outer loop
vertex 10.801300 12.894992 12.839372
vertex 10.780825 12.894992 12.819372
vertex 10.801300 12.894992 12.819372
endloop
endfacet
facet normal 0 0 0
outer loop
vertex 10.821775 12.874239 12.819372
vertex 10.801300 12.894992 12.839372
vertex 10.801300 12.894992 12.819372
endloop
endfacet
facet normal 0 0 0
outer loop
vertex 10.821775 12.874239 12.819372
vertex 10.821775 12.894992 12.819372
vertex 10.801300 12.894992 12.839372
endloop
endfacet
facet normal 0 0 0
outer loop
vertex 10.842253 12.874239 12.819372
vertex 10.842253 12.894992 12.819372
vertex 10.821775 12.874239 12.819372
endloop
endfacet
facet normal 0 0 0
outer loop
vertex 10.842253 12.894992 12.819372
vertex 10.821775 12.894992 12.819372
vertex 10.821775 12.874239 12.819372
endloop
endfacet
facet normal 0 0 0
outer loop
vertex 10.862728 12.874239 12.819372
vertex 10.862728 12.894992 12.819372
vertex 10.842253 12.874239 12.819372
endloop
endfacet
facet normal 0 0 0
outer loop
vertex 10.862728 12.894992 12.819372
vertex 10.842253 12.894992 12.819372
vertex 10.842253 12.874239 12.819372
endloop
endfacet
facet normal 0 0 0
outer loop
vertex 10.862728 12.874239 12.819372
vertex 10.883204 12.894992 12.819372
vertex 10.862728 12.894992 12.819372
endloop
endfacet
facet normal 0 0 0
outer loop
vertex 10.780825 12.894992 12.819372
vertex 10.780825 12.915745 12.839372
vertex 10.760349 12.915745 12.839372
endloop
endfacet
facet normal 0 0 0
outer loop
vertex 10.780825 12.894992 12.819372
vertex 10.760349 12.915745 12.839372
vertex 10.780825 12.915745 12.819372
endloop
endfacet
facet normal 0 0 0
outer loop
vertex 10.801300 12.894992 12.839372
vertex 10.780825 12.915745 12.839372
vertex 10.780825 12.894992 12.819372
endloop
endfacet
facet normal 0 0 0
outer loop
vertex 10.821775 12.894992 12.819372
vertex 10.821775 12.915745 12.839372
vertex 10.801300 12.894992 12.839372
endloop
endfacet
facet normal 0 0 0
outer loop
vertex 10.842253 12.894992 12.819372
vertex 10.821775 12.915745 12.839372
vertex 10.821775 12.894992 12.819372
endloop
endfacet
facet normal 0 0 0
outer loop
vertex 10.842253 12.915745 12.839372
vertex 10.821775 12.915745 12.839372
vertex 10.842253 12.894992 12.819372
endloop
endfacet
facet normal 0 0 0
outer loop
vertex 10.862728 12.894992 12.819372
vertex 10.842253 12.915745 12.839372
vertex 10.842253 12.894992 12.819372
endloop
endfacet
facet normal 0 0 0
outer loop
vertex 10.862728 12.915745 12.839372
vertex 10.842253 12.915745 12.839372
vertex 10.862728 12.894992 12.819372
endloop
endfacet
facet normal 0 0 0
outer loop
vertex 10.862728 12.915745 12.839372
vertex 10.862728 12.894992 12.819372
vertex 10.883204 12.915745 12.819372
endloop
endfacet
facet normal 0 0 0
outer loop
vertex 10.862728 12.894992 12.819372
vertex 10.883204 12.894992 12.819372
vertex 10.883204 12.915745 12.819372
endloop
endfacet
facet normal 0 0 0
outer loop
vertex 10.760349 12.915745 12.839372
vertex 10.780825 12.936499 12.839372
vertex 10.780825 12.915745 12.819372
endloop
endfacet
facet normal 0 0 0
outer loop
vertex 10.780825 12.936499 12.839372
vertex 10.780825 12.936499 12.819372
vertex 10.780825 12.915745 12.819372
endloop
endfacet
facet normal 0 0 0
outer loop
vertex 10.883204 12.915745 12.819372
vertex 10.883204 12.936499 12.839372
vertex 10.862728 12.915745 12.839372
endloop
endfacet
facet normal 0 0 0
outer loop
vertex 10.883204 12.915745 12.819372
vertex 10.883204 12.936499 12.819372
vertex 10.903679 12.936499 12.839372
endloop
endfacet
facet normal 0 0 0
outer loop
vertex 10.883204 12.915745 12.819372
vertex 10.903679 12.936499 12.839372
vertex 10.883204 12.936499 12.839372
endloop
endfacet
facet normal 0 0 0
outer loop
vertex 10.760349 12.957252 12.819372
vertex 10.780825 12.957252 12.839372
vertex 10.760349 12.957252 12.839372
endloop
endfacet
facet normal 0 0 0
outer loop
vertex 10.760349 12.957252 12.839372
vertex 10.780825 12.957252 12.839372
vertex 10.780825 12.936499 12.839372
endloop
endfacet
facet normal 0 0 0
outer loop
vertex 10.780825 12.936499 12.839372
vertex 10.780825 12.957252 12.839372
vertex 10.780825 12.936499 12.819372
endloop
endfacet
facet normal 0 0 0
outer loop
vertex 10.780825 12.936499 12.819372
vertex 10.780825 12.957252 12.839372
vertex 10.801300 12.957252 12.819372
endloop
endfacet
facet normal 0 0 0
outer loop
vertex 10.883204 12.936499 12.819372
vertex 10.903679 12.957252 12.819372
vertex 10.903679 12.936499 12.839372
endloop
endfacet
facet normal 0 0 0
outer loop
vertex 10.903679 12.936499 12.839372
vertex 10.903679 12.957252 12.819372
vertex 10.924156 12.957252 12.819372
endloop
endfacet
facet normal 0 0 0
outer loop
vertex 10.903679 12.936499 12.839372
vertex 10.924156 12.957252 12.819372
vertex 10.903679 12.957252 12.839372
endloop
endfacet
facet normal 0 0 0
outer loop
vertex 10.760349 12.957252 12.819372
vertex 10.760349 12.957252 12.839372
vertex 10.780825 12.978005 12.839372
endloop
endfacet
facet normal 0 0 0
outer loop
vertex 10.760349 12.957252 12.819372
vertex 10.780825 12.978005 12.839372
vertex 10.780825 12.957252 12.839372
endloop
endfacet
facet normal 0 0 0
outer loop
vertex 10.801300 12.957252 12.819372
vertex 10.780825 12.978005 12.839372
vertex 10.801300 12.978005 12.819372
endloop
endfacet
facet normal 0 0 0
outer loop
vertex 10.780825 12.957252 12.839372
vertex 10.780825 12.978005 12.839372
vertex 10.801300 12.957252 12.819372
endloop
endfacet
facet normal 0 0 0
outer loop
vertex 10.924156 12.978005 12.839372
vertex 10.903679 12.957252 12.839372
vertex 10.903679 12.978005 12.819372
endloop
endfacet
facet normal 0 0 0
outer loop
vertex 10.924156 12.957252 12.819372
vertex 10.903679 12.978005 12.819372
vertex 10.903679 12.957252 12.839372
endloop
endfacet
facet normal 0 0 0
outer loop
vertex 10.801300 12.978005 12.819372
vertex 10.780825 12.978005 12.839372
vertex 10.801300 12.978005 12.839372
endloop
endfacet
facet normal 0 0 0
outer loop
vertex 10.801300 12.978005 12.839372
vertex 10.821775 12.998758 12.819372
vertex 10.801300 12.978005 12.819372
endloop
endfacet
facet normal 0 0 0
outer loop
vertex 10.821775 12.998758 12.839372
vertex 10.821775 12.998758 12.819372
vertex 10.801300 12.978005 12.839372
endloop
endfacet
facet normal 0 0 0
outer loop
vertex 10.903679 12.978005 12.819372
vertex 10.924156 12.998758 12.819372
vertex 10.924156 12.978005 12.839372
endloop
endfacet
facet normal 0 0 0
outer loop
vertex 10.924156 12.978005 12.839372
vertex 10.924156 12.998758 12.819372
vertex 10.924156 12.998758 12.839372
endloop
endfacet
facet normal 0 0 0
outer loop
vertex 10.821775 12.998758 12.819372
vertex 10.821775 12.998758 12.839372
vertex 10.821775 13.019512 12.819372
endloop
endfacet
facet normal 0 0 0
outer loop
vertex 10.821775 12.998758 12.839372
vertex 10.821775 13.019512 12.839372
vertex 10.821775 13.019512 12.819372
endloop
endfacet
facet normal 0 0 0
outer loop
vertex 10.924156 12.998758 12.819372
vertex 10.903679 13.019512 12.839372
vertex 10.924156 12.998758 12.839372
endloop
endfacet
facet normal 0 0 0
outer loop
vertex 10.903679 13.019512 12.819372
vertex 10.903679 13.019512 12.839372
vertex 10.924156 12.998758 12.819372
endloop
endfacet
facet normal 0 0 0
outer loop
vertex 10.821775 13.040265 12.839372
vertex 10.821775 13.019512 12.819372
vertex 10.821775 13.019512 12.839372
endloop
endfacet
facet normal 0 0 0
outer loop
vertex 10.821775 13.019512 12.819372
vertex 10.842253 13.040265 12.839372
vertex 10.842253 13.019512 12.819372
endloop
endfacet
facet normal 0 0 0
outer loop
vertex 10.821775 13.040265 12.839372
vertex 10.842253 13.040265 12.839372
vertex 10.821775 13.019512 12.819372
endloop
endfacet
facet normal 0 0 0
outer loop
vertex 10.842253 13.019512 12.819372
vertex 10.842253 13.040265 12.839372
vertex 10.862728 13.040265 12.819372
endloop
endfacet
facet normal 0 0 0
outer loop
vertex 10.903679 13.040265 12.819372
vertex 10.883204 13.040265 12.839372
vertex 10.903679 13.019512 12.839372
endloop
endfacet
facet normal 0 0 0
outer loop
vertex 10.903679 13.040265 12.819372
vertex 10.903679 13.019512 12.839372
vertex 10.903679 13.019512 12.819372
endloop
endfacet
facet normal 0 0 0
outer loop
vertex 10.821775 13.040265 12.839372
vertex 10.842253 13.061018 12.839372
vertex 10.842253 13.040265 12.839372
endloop
endfacet
facet normal 0 0 0
outer loop
vertex 10.862728 13.040265 12.819372
vertex 10.842253 13.040265 12.839372
vertex 10.862728 13.061018 12.839372
endloop
endfacet
facet normal 0 0 0
outer loop
vertex 10.842253 13.040265 12.839372
vertex 10.842253 13.061018 12.839372
vertex 10.862728 13.061018 12.839372
endloop
endfacet
facet normal 0 0 0
outer loop
vertex 10.862728 13.061018 12.839372
vertex 10.883204 13.040265 12.839372
vertex 10.862728 13.040265 12.819372
endloop
endfacet
facet normal 0 0 0
outer loop
vertex 10.883204 13.040265 12.839372
vertex 10.883204 13.040265 12.819372
vertex 10.862728 13.040265 12.819372
endloop
endfacet
facet normal 0 0 0
outer loop
vertex 10.883204 13.040265 12.839372
vertex 10.903679 13.040265 12.819372
vertex 10.883204 13.040265 12.819372
endloop
endfacet
facet normal 0 0 0
outer loop
vertex 10.842253 13.061018 12.839372
vertex 10.862728 13.081772 12.839372
vertex 10.862728 13.061018 12.839372
endloop
endfacet
facet normal 0 0 0
outer loop
vertex 10.801300 12.894992 12.839372
vertex 10.801300 12.915745 12.859372
vertex 10.780825 12.915745 12.839372
endloop
endfacet
facet normal 0 0 0
outer loop
vertex 10.821775 12.915745 12.839372
vertex 10.801300 12.915745 12.859372
vertex 10.801300 12.894992 12.839372
endloop
endfacet
facet normal 0 0 0
outer loop
vertex 10.842253 12.915745 12.859372
vertex 10.821775 12.915745 12.839372
vertex 10.842253 12.915745 12.839372
endloop
endfacet
facet normal 0 0 0
outer loop
vertex 10.862728 12.915745 12.839372
vertex 10.862728 12.915745 12.859372
vertex 10.842253 12.915745 12.839372
endloop
endfacet
facet normal 0 0 0
outer loop
vertex 10.842253 12.915745 12.839372
vertex 10.862728 12.915745 12.859372
vertex 10.842253 12.915745 12.859372
endloop
endfacet
facet normal 0 0 0
outer loop
vertex 10.780825 12.936499 12.839372
vertex 10.760349 12.915745 12.839372
vertex 10.780825 12.915745 12.839372
endloop
endfacet
facet normal 0 0 0
outer loop
vertex 10.801300 12.936499 12.859372
vertex 10.780825 12.915745 12.839372
vertex 10.801300 12.915745 12.859372
endloop
endfacet
facet normal 0 0 0
outer loop
vertex 10.780825 12.936499 12.839372
vertex 10.780825 12.915745 12.839372
vertex 10.801300 12.936499 12.859372
endloop
endfacet
facet normal 0 0 0
outer loop
vertex 10.821775 12.915745 12.839372
vertex 10.821775 12.936499 12.859372
vertex 10.801300 12.915745 12.859372
endloop
endfacet
facet normal 0 0 0
outer loop
vertex 10.842253 12.915745 12.859372
vertex 10.821775 12.936499 12.859372
vertex 10.821775 12.915745 12.839372
endloop
endfacet
facet normal 0 0 0
outer loop
vertex 10.862728 12.915745 12.839372
vertex 10.883204 12.936499 12.859372
vertex 10.862728 12.915745 12.859372
endloop
endfacet
facet normal 0 0 0
outer loop
vertex 10.883204 12.936499 12.839372
vertex 10.883204 12.936499 12.859372
vertex 10.862728 12.915745 12.839372
endloop
endfacet
facet normal 0 0 0
outer loop
vertex 10.903679 12.936499 12.839372
vertex 10.903679 12.936499 12.859372
vertex 10.883204 12.936499 12.839372
endloop
endfacet
facet normal 0 0 0
outer loop
vertex 10.883204 12.936499 12.839372
vertex 10.903679 12.936499 12.859372
vertex 10.883204 12.936499 12.859372
endloop
endfacet
facet normal 0 0 0
outer loop
vertex 10.801300 12.957252 12.859372
vertex 10.780825 12.936499 12.839372
vertex 10.801300 12.936499 12.859372
endloop
endfacet
facet normal 0 0 0
outer loop
vertex 10.780825 12.957252 12.839372
vertex 10.780825 12.936499 12.839372
vertex 10.801300 12.957252 12.859372
endloop
endfacet
facet normal 0 0 0
outer loop
vertex 10.903679 12.936499 12.839372
vertex 10.903679 12.957252 12.839372
vertex 10.903679 12.936499 12.859372
endloop
endfacet
facet normal 0 0 0
outer loop
vertex 10.903679 12.936499 12.859372
vertex 10.903679 12.957252 12.839372
vertex 10.903679 12.957252 12.859372
endloop
endfacet
facet normal 0 0 0
outer loop
vertex 10.780825 12.978005 12.839372
vertex 10.760349 12.957252 12.839372
vertex 10.780825 12.957252 12.839372
endloop
endfacet
facet normal 0 0 0
outer loop
vertex 10.801300 12.978005 12.859372
vertex 10.780825 12.957252 12.839372
vertex 10.801300 12.957252 12.859372
endloop
endfacet
facet normal 0 0 0
outer loop
vertex 10.780825 12.978005 12.839372
vertex 10.780825 12.957252 12.839372
vertex 10.801300 12.978005 12.859372
endloop
endfacet
facet normal 0 0 0
outer loop
vertex 10.924156 12.978005 12.839372
vertex 10.903679 12.978005 12.859372
vertex 10.903679 12.957252 12.839372
endloop
endfacet
facet normal 0 0 0
outer loop
vertex 10.903679 12.978005 12.859372
vertex 10.903679 12.957252 12.859372
vertex 10.903679 12.957252 12.839372
endloop
endfacet
facet normal 0 0 0
outer loop
vertex 10.780825 12.978005 12.839372
vertex 10.801300 12.998758 12.859372
vertex 10.801300 12.978005 12.839372
endloop
endfacet
facet normal 0 0 0
outer loop
vertex 10.780825 12.978005 12.839372
vertex 10.801300 12.978005 12.859372
vertex 10.801300 12.998758 12.859372
endloop
endfacet
facet normal 0 0 0
outer loop
vertex 10.801300 12.978005 12.839372
vertex 10.801300 12.998758 12.859372
vertex 10.821775 12.998758 12.839372
endloop
endfacet
facet normal 0 0 0
outer loop
vertex 10.924156 12.978005 12.839372
vertex 10.924156 12.998758 12.859372
vertex 10.903679 12.978005 12.859372
endloop
endfacet
facet normal 0 0 0
outer loop
vertex 10.924156 12.998758 12.859372
vertex 10.924156 12.978005 12.839372
vertex 10.924156 12.998758 12.839372
endloop
endfacet
facet normal 0 0 0
outer loop
vertex 10.801300 12.998758 12.859372
vertex 10.821775 13.019512 12.859372
vertex 10.821775 12.998758 12.839372
endloop
endfacet
facet normal 0 0 0
outer loop
vertex 10.821775 13.019512 12.859372
vertex 10.821775 13.019512 12.839372
vertex 10.821775 12.998758 12.839372
endloop
endfacet
facet normal 0 0 0
outer loop
vertex 10.924156 12.998758 12.839372
vertex 10.903679 13.019512 12.859372
vertex 10.924156 12.998758 12.859372
endloop
endfacet
facet normal 0 0 0
outer loop
vertex 10.903679 13.019512 12.839372
vertex 10.903679 13.019512 12.859372
vertex 10.924156 12.998758 12.839372
endloop
endfacet
facet normal 0 0 0
outer loop
vertex 10.821775 13.019512 12.859372
vertex 10.821775 13.040265 12.839372
vertex 10.821775 13.019512 12.839372
endloop
endfacet
facet normal 0 0 0
outer loop
vertex 10.821775 13.019512 12.859372
vertex 10.842253 13.040265 12.859372
vertex 10.821775 13.040265 12.839372
endloop
endfacet
facet normal 0 0 0
outer loop
vertex 10.903679 13.019512 12.839372
vertex 10.883204 13.040265 12.839372
vertex 10.903679 13.040265 12.859372
endloop
endfacet
facet normal 0 0 0
outer loop
vertex 10.924156 13.040265 12.859372
vertex 10.903679 13.019512 12.859372
vertex 10.903679 13.019512 12.839372
endloop
endfacet
facet normal 0 0 0
outer loop
vertex 10.924156 13.040265 12.859372
vertex 10.903679 13.019512 12.839372
vertex 10.903679 13.040265 12.859372
endloop
endfacet
facet normal 0 0 0
outer loop
vertex 10.821775 13.040265 12.839372
vertex 10.842253 13.040265 12.859372
vertex 10.842253 13.061018 12.839372
endloop
endfacet
facet normal 0 0 0
outer loop
vertex 10.842253 13.061018 12.839372
vertex 10.862728 13.040265 12.859372
vertex 10.862728 13.061018 12.839372
endloop
endfacet
facet normal 0 0 0
outer loop
vertex 10.842253 13.040265 12.859372
vertex 10.862728 13.040265 12.859372
vertex 10.842253 13.061018 12.839372
endloop
endfacet
facet normal 0 0 0
outer loop
vertex 10.862728 13.061018 12.839372
vertex 10.862728 13.040265 12.859372
vertex 10.883204 13.040265 12.839372
endloop
endfacet
facet normal 0 0 0
outer loop
vertex 10.862728 13.040265 12.859372
vertex 10.883204 13.040265 12.859372
vertex 10.883204 13.040265 12.839372
endloop
endfacet
facet normal 0 0 0
outer loop
vertex 10.903679 13.040265 12.859372
vertex 10.883204 13.040265 12.839372
vertex 10.883204 13.040265 12.859372
endloop
endfacet
facet normal 0 0 0
outer loop
vertex 10.780825 12.915745 12.879372
vertex 10.801300 12.915745 12.859372
vertex 10.801300 12.915745 12.879372
endloop
endfacet
facet normal 0 0 0
outer loop
vertex 10.801300 12.915745 12.859372
vertex 10.821775 12.915745 12.879372
vertex 10.801300 12.915745 12.879372
endloop
endfacet
facet normal 0 0 0
outer loop
vertex 10.801300 12.915745 12.859372
vertex 10.780825 12.936499 12.879372
vertex 10.801300 12.936499 12.859372
endloop
endfacet
facet normal 0 0 0
outer loop
vertex 10.780825 12.915745 12.879372
vertex 10.780825 12.936499 12.879372
vertex 10.801300 12.915745 12.859372
endloop
endfacet
facet normal 0 0 0
outer loop
vertex 10.801300 12.915745 12.859372
vertex 10.821775 12.936499 12.859372
vertex 10.821775 12.915745 12.879372
endloop
endfacet
facet normal 0 0 0
outer loop
vertex 10.821775 12.915745 12.879372
vertex 10.821775 12.936499 12.859372
vertex 10.842253 12.936499 12.879372
endloop
endfacet
facet normal 0 0 0
outer loop
vertex 10.842253 12.915745 12.859372
vertex 10.842253 12.936499 12.879372
vertex 10.821775 12.936499 12.859372
endloop
endfacet
facet normal 0 0 0
outer loop
vertex 10.862728 12.915745 12.859372
vertex 10.842253 12.936499 12.879372
vertex 10.842253 12.915745 12.859372
endloop
endfacet
facet normal 0 0 0
outer loop
vertex 10.862728 12.936499 12.879372
vertex 10.842253 12.936499 12.879372
vertex 10.862728 12.915745 12.859372
endloop
endfacet
facet normal 0 0 0
outer loop
vertex 10.883204 12.936499 12.859372
vertex 10.862728 12.936499 12.879372
vertex 10.862728 12.915745 12.859372
endloop
endfacet
facet normal 0 0 0
outer loop
vertex 10.801300 12.936499 12.859372
vertex 10.780825 12.957252 12.879372
vertex 10.801300 12.957252 12.859372
endloop
endfacet
facet normal 0 0 0
outer loop
vertex 10.780825 12.936499 12.879372
vertex 10.780825 12.957252 12.879372
vertex 10.801300 12.936499 12.859372
endloop
endfacet
facet normal 0 0 0
outer loop
vertex 10.883204 12.936499 12.859372
vertex 10.883204 12.957252 12.879372
vertex 10.862728 12.936499 12.879372
endloop
endfacet
facet normal 0 0 0
outer loop
vertex 10.903679 12.936499 12.859372
vertex 10.883204 12.957252 12.879372
vertex 10.883204 12.936499 12.859372
endloop
endfacet
facet normal 0 0 0
outer loop
vertex 10.903679 12.957252 12.879372
vertex 10.883204 12.957252 12.879372
vertex 10.903679 12.936499 12.859372
endloop
endfacet
facet normal 0 0 0
outer loop
vertex 10.903679 12.957252 12.879372
vertex 10.903679 12.936499 12.859372
vertex 10.903679 12.957252 12.859372
endloop
endfacet
facet normal 0 0 0
outer loop
vertex 10.780825 12.957252 12.879372
vertex 10.801300 12.978005 12.879372
vertex 10.801300 12.957252 12.859372
endloop
endfacet
facet normal 0 0 0
outer loop
vertex 10.801300 12.978005 12.879372
vertex 10.801300 12.978005 12.859372
vertex 10.801300 12.957252 12.859372
endloop
endfacet
facet normal 0 0 0
outer loop
vertex 10.924156 12.978005 12.879372
vertex 10.903679 12.957252 12.879372
vertex 10.903679 12.978005 12.859372
endloop
endfacet
facet normal 0 0 0
outer loop
vertex 10.903679 12.957252 12.879372
vertex 10.903679 12.957252 12.859372
vertex 10.903679 12.978005 12.859372
endloop
endfacet
facet normal 0 0 0
outer loop
vertex 10.801300 12.978005 12.879372
vertex 10.801300 12.998758 12.859372
vertex 10.801300 12.978005 12.859372
endloop
endfacet
facet normal 0 0 0
outer loop
vertex 10.801300 12.978005 12.879372
vertex 10.821775 12.998758 12.879372
vertex 10.801300 12.998758 12.859372
endloop
endfacet
facet normal 0 0 0
outer loop
vertex 10.924156 12.998758 12.859372
vertex 10.903679 12.998758 12.879372
vertex 10.903679 12.978005 12.859372
endloop
endfacet
facet normal 0 0 0
outer loop
vertex 10.924156 12.978005 12.879372
vertex 10.903679 12.978005 12.859372
vertex 10.903679 12.998758 12.879372
endloop
endfacet
facet normal 0 0 0
outer loop
vertex 10.801300 12.998758 12.859372
vertex 10.821775 12.998758 12.879372
vertex 10.821775 13.019512 12.859372
endloop
endfacet
facet normal 0 0 0
outer loop
vertex 10.821775 12.998758 12.879372
vertex 10.821775 13.019512 12.879372
vertex 10.821775 13.019512 12.859372
endloop
endfacet
facet normal 0 0 0
outer loop
vertex 10.924156 12.998758 12.859372
vertex 10.903679 13.019512 12.859372
vertex 10.903679 12.998758 12.879372
endloop
endfacet
facet normal 0 0 0
outer loop
vertex 10.903679 13.019512 12.859372
vertex 10.903679 13.019512 12.879372
vertex 10.903679 12.998758 12.879372
endloop
endfacet
facet normal 0 0 0
outer loop
vertex 10.842253 13.040265 12.859372
vertex 10.821775 13.019512 12.859372
vertex 10.842253 13.019512 12.879372
endloop
endfacet
facet normal 0 0 0
outer loop
vertex 10.821775 13.019512 12.859372
vertex 10.821775 13.019512 12.879372
vertex 10.842253 13.019512 12.879372
endloop
endfacet
facet normal 0 0 0
outer loop
vertex 10.842253 13.019512 12.879372
vertex 10.862728 13.040265 12.879372
vertex 10.842253 13.040265 12.859372
endloop
endfacet
facet normal 0 0 0
outer loop
vertex 10.903679 13.019512 12.859372
vertex 10.924156 13.040265 12.879372
vertex 10.903679 13.019512 12.879372
endloop
endfacet
facet normal 0 0 0
outer loop
vertex 10.924156 13.040265 12.859372
vertex 10.924156 13.040265 12.879372
vertex 10.903679 13.019512 12.859372
endloop
endfacet
facet normal 0 0 0
outer loop
vertex 10.842253 13.040265 12.859372
vertex 10.862728 13.040265 12.879372
vertex 10.862728 13.040265 12.859372
endloop
endfacet
facet normal 0 0 0
outer loop
vertex 10.862728 13.040265 12.859372
vertex 10.862728 13.040265 12.879372
vertex 10.862728 13.061018 12.879372
endloop
endfacet
facet normal 0 0 0
outer loop
vertex 10.862728 13.061018 12.879372
vertex 10.883204 13.040265 12.879372
vertex 10.862728 13.040265 12.859372
endloop
endfacet
facet normal 0 0 0
outer loop
vertex 10.883204 13.040265 12.879372
vertex 10.883204 13.040265 12.859372
vertex 10.862728 13.040265 12.859372
endloop
endfacet
facet normal 0 0 0
outer loop
vertex 10.903679 13.040265 12.859372
vertex 10.883204 13.040265 12.859372
vertex 10.903679 13.040265 12.879372
endloop
endfacet
facet normal 0 0 0
outer loop
vertex 10.883204 13.040265 12.859372
vertex 10.883204 13.040265 12.879372
vertex 10.903679 13.040265 12.879372
endloop
endfacet
facet normal 0 0 0
outer loop
vertex 10.924156 13.040265 12.859372
vertex 10.903679 13.040265 12.859372
vertex 10.924156 13.040265 12.879372
endloop
endfacet
facet normal 0 0 0
outer loop
vertex 10.903679 13.040265 12.859372
vertex 10.903679 13.040265 12.879372
vertex 10.924156 13.040265 12.879372
endloop
endfacet
facet normal 0 0 0
outer loop
vertex 10.944632 13.040265 12.879372
vertex 10.924156 13.040265 12.859372
vertex 10.924156 13.040265 12.879372
endloop
endfacet
facet normal 0 0 0
outer loop
vertex 10.821775 12.915745 12.899372
vertex 10.801300 12.915745 12.879372
vertex 10.821775 12.915745 12.879372
endloop
endfacet
facet normal 0 0 0
outer loop
vertex 10.821775 12.915745 12.879372
vertex 10.842253 12.915745 12.899372
vertex 10.821775 12.915745 12.899372
endloop
endfacet
facet normal 0 0 0
outer loop
vertex 10.801300 12.936499 12.899372
vertex 10.780825 12.936499 12.879372
vertex 10.801300 12.915745 12.879372
endloop
endfacet
facet normal 0 0 0
outer loop
vertex 10.780825 12.936499 12.879372
vertex 10.780825 12.915745 12.879372
vertex 10.801300 12.915745 12.879372
endloop
endfacet
facet normal 0 0 0
outer loop
vertex 10.821775 12.915745 12.899372
vertex 10.801300 12.936499 12.899372
vertex 10.801300 12.915745 12.879372
endloop
endfacet
facet normal 0 0 0
outer loop
vertex 10.821775 12.915745 12.879372
vertex 10.842253 12.936499 12.879372
vertex 10.842253 12.915745 12.899372
endloop
endfacet
facet normal 0 0 0
outer loop
vertex 10.842253 12.915745 12.899372
vertex 10.842253 12.936499 12.879372
vertex 10.862728 12.936499 12.899372
endloop
endfacet
facet normal 0 0 0
outer loop
vertex 10.842253 12.936499 12.879372
vertex 10.862728 12.936499 12.879372
vertex 10.862728 12.936499 12.899372
endloop
endfacet
facet normal 0 0 0
outer loop
vertex 10.801300 12.957252 12.899372
vertex 10.780825 12.936499 12.879372
vertex 10.801300 12.936499 12.899372
endloop
endfacet
facet normal 0 0 0
outer loop
vertex 10.780825 12.957252 12.879372
vertex 10.780825 12.936499 12.879372
vertex 10.801300 12.957252 12.899372
endloop
endfacet
facet normal 0 0 0
outer loop
vertex 10.862728 12.936499 12.879372
vertex 10.883204 12.957252 12.899372
vertex 10.862728 12.936499 12.899372
endloop
endfacet
facet normal 0 0 0
outer loop
vertex 10.883204 12.957252 12.879372
vertex 10.883204 12.957252 12.899372
vertex 10.862728 12.936499 12.879372
endloop
endfacet
facet normal 0 0 0
outer loop
vertex 10.903679 12.957252 12.879372
vertex 10.903679 12.957252 12.899372
vertex 10.883204 12.957252 12.879372
endloop
endfacet
facet normal 0 0 0
outer loop
vertex 10.883204 12.957252 12.879372
vertex 10.903679 12.957252 12.899372
vertex 10.883204 12.957252 12.899372
endloop
endfacet
facet normal 0 0 0
outer loop
vertex 10.780825 12.957252 12.879372
vertex 10.801300 12.957252 12.899372
vertex 10.801300 12.978005 12.879372
endloop
endfacet
facet normal 0 0 0
outer loop
vertex 10.801300 12.957252 12.899372
vertex 10.801300 12.978005 12.899372
vertex 10.801300 12.978005 12.879372
endloop
endfacet
facet normal 0 0 0
outer loop
vertex 10.924156 12.978005 12.879372
vertex 10.903679 12.978005 12.899372
vertex 10.903679 12.957252 12.879372
endloop
endfacet
facet normal 0 0 0
outer loop
vertex 10.903679 12.978005 12.899372
vertex 10.903679 12.957252 12.899372
vertex 10.903679 12.957252 12.879372
endloop
endfacet
facet normal 0 0 0
outer loop
vertex 10.801300 12.998758 12.899372
vertex 10.801300 12.978005 12.879372
vertex 10.801300 12.978005 12.899372
endloop
endfacet
facet normal 0 0 0
outer loop
vertex 10.801300 12.978005 12.879372
vertex 10.801300 12.998758 12.899372
vertex 10.821775 12.998758 12.879372
endloop
endfacet
facet normal 0 0 0
outer loop
vertex 10.924156 12.978005 12.879372
vertex 10.903679 12.998758 12.879372
vertex 10.903679 12.978005 12.899372
endloop
endfacet
facet normal 0 0 0
outer loop
vertex 10.903679 12.998758 12.879372
vertex 10.903679 12.998758 12.899372
vertex 10.903679 12.978005 12.899372
endloop
endfacet
facet normal 0 0 0
outer loop
vertex 10.801300 12.998758 12.899372
vertex 10.821775 13.019512 12.899372
vertex 10.821775 12.998758 12.879372
endloop
endfacet
facet normal 0 0 0
outer loop
vertex 10.821775 13.019512 12.899372
vertex 10.821775 13.019512 12.879372
vertex 10.821775 12.998758 12.879372
endloop
endfacet
facet normal 0 0 0
outer loop
vertex 10.924156 13.019512 12.899372
vertex 10.903679 12.998758 12.899372
vertex 10.903679 13.019512 12.879372
endloop
endfacet
facet normal 0 0 0
outer loop
vertex 10.903679 12.998758 12.899372
vertex 10.903679 12.998758 12.879372
vertex 10.903679 13.019512 12.879372
endloop
endfacet
facet normal 0 0 0
outer loop
vertex 10.842253 13.040265 12.899372
vertex 10.842253 13.019512 12.879372
vertex 10.821775 13.019512 12.899372
endloop
endfacet
facet normal 0 0 0
outer loop
vertex 10.842253 13.019512 12.879372
vertex 10.821775 13.019512 12.879372
vertex 10.821775 13.019512 12.899372
endloop
endfacet
facet normal 0 0 0
outer loop
vertex 10.842253 13.040265 12.899372
vertex 10.862728 13.019512 12.899372
vertex 10.842253 13.019512 12.879372
endloop
endfacet
facet normal 0 0 0
outer loop
vertex 10.862728 13.040265 12.879372
vertex 10.842253 13.019512 12.879372
vertex 10.862728 13.019512 12.899372
endloop
endfacet
facet normal 0 0 0
outer loop
vertex 10.862728 13.040265 12.879372
vertex 10.883204 13.019512 12.899372
vertex 10.883204 13.040265 12.879372
endloop
endfacet
facet normal 0 0 0
outer loop
vertex 10.862728 13.019512 12.899372
vertex 10.883204 13.019512 12.899372
vertex 10.862728 13.040265 12.879372
endloop
endfacet
facet normal 0 0 0
outer loop
vertex 10.883204 13.040265 12.879372
vertex 10.903679 13.019512 12.899372
vertex 10.903679 13.040265 12.879372
endloop
endfacet
facet normal 0 0 0
outer loop
vertex 10.883204 13.019512 12.899372
vertex 10.903679 13.019512 12.899372
vertex 10.883204 13.040265 12.879372
endloop
endfacet
facet normal 0 0 0
outer loop
vertex 10.924156 13.019512 12.899372
vertex 10.903679 13.019512 12.879372
vertex 10.903679 13.019512 12.899372
endloop
endfacet
facet normal 0 0 0
outer loop
vertex 10.903679 13.019512 12.899372
vertex 10.903679 13.019512 12.879372
vertex 10.903679 13.040265 12.879372
endloop
endfacet
facet normal 0 0 0
outer loop
vertex 10.903679 13.040265 12.879372
vertex 10.903679 13.019512 12.879372
vertex 10.924156 13.040265 12.879372
endloop
endfacet
facet normal 0 0 0
outer loop
vertex 10.862728 13.040265 12.879372
vertex 10.862728 13.061018 12.879372
vertex 10.842253 13.061018 12.879372
endloop
endfacet
facet normal 0 0 0
outer loop
vertex 10.883204 13.040265 12.879372
vertex 10.862728 13.061018 12.879372
vertex 10.862728 13.040265 12.879372
endloop
endfacet
facet normal 0 0 0
outer loop
vertex 10.801300 12.936499 12.899372
vertex 10.821775 12.915745 12.899372
vertex 10.821775 12.936499 12.899372
endloop
endfacet
facet normal 0 0 0
outer loop
vertex 10.842253 12.915745 12.899372
vertex 10.842253 12.936499 12.899372
vertex 10.821775 12.915745 12.899372
endloop
endfacet
facet normal 0 0 0
outer loop
vertex 10.842253 12.936499 12.899372
vertex 10.821775 12.936499 12.899372
vertex 10.821775 12.915745 12.899372
endloop
endfacet
facet normal 0 0 0
outer loop
vertex 10.842253 12.915745 12.899372
vertex 10.862728 12.936499 12.899372
vertex 10.842253 12.936499 12.899372
endloop
endfacet
facet normal 0 0 0
outer loop
vertex 10.821775 12.936499 12.899372
vertex 10.821775 12.957252 12.899372
vertex 10.801300 12.936499 12.899372
endloop
endfacet
facet normal 0 0 0
outer loop
vertex 10.821775 12.957252 12.899372
vertex 10.801300 12.957252 12.899372
vertex 10.801300 12.936499 12.899372
endloop
endfacet
facet normal 0 0 0
outer loop
vertex 10.842253 12.957252 12.919372
vertex 10.821775 12.957252 12.899372
vertex 10.842253 12.936499 12.899372
endloop
endfacet
facet normal 0 0 0
outer loop
vertex 10.821775 12.957252 12.899372
vertex 10.821775 12.936499 12.899372
vertex 10.842253 12.936499 12.899372
endloop
endfacet
facet normal 0 0 0
outer loop
vertex 10.842253 12.957252 12.919372
vertex 10.842253 12.936499 12.899372
vertex 10.862728 12.957252 12.899372
endloop
endfacet
facet normal 0 0 0
outer loop
vertex 10.842253 12.936499 12.899372
vertex 10.862728 12.936499 12.899372
vertex 10.862728 12.957252 12.899372
endloop
endfacet
facet normal 0 0 0
outer loop
vertex 10.862728 12.936499 12.899372
vertex 10.883204 12.957252 12.899372
vertex 10.862728 12.957252 12.899372
endloop
endfacet
facet normal 0 0 0
outer loop
vertex 10.801300 12.957252 12.899372
vertex 10.801300 12.978005 12.919372
vertex 10.780825 12.978005 12.919372
endloop
endfacet
facet normal 0 0 0
outer loop
vertex 10.801300 12.957252 12.899372
vertex 10.780825 12.978005 12.919372
vertex 10.801300 12.978005 12.899372
endloop
endfacet
facet normal 0 0 0
outer loop
vertex 10.821775 12.957252 12.899372
vertex 10.801300 12.978005 12.919372
vertex 10.801300 12.957252 12.899372
endloop
endfacet
facet normal 0 0 0
outer loop
vertex 10.821775 12.978005 12.919372
vertex 10.801300 12.978005 12.919372
vertex 10.821775 12.957252 12.899372
endloop
endfacet
facet normal 0 0 0
outer loop
vertex 10.842253 12.957252 12.919372
vertex 10.821775 12.978005 12.919372
vertex 10.821775 12.957252 12.899372
endloop
endfacet
facet normal 0 0 0
outer loop
vertex 10.862728 12.957252 12.899372
vertex 10.862728 12.978005 12.919372
vertex 10.842253 12.957252 12.919372
endloop
endfacet
facet normal 0 0 0
outer loop
vertex 10.883204 12.957252 12.899372
vertex 10.862728 12.978005 12.919372
vertex 10.862728 12.957252 12.899372
endloop
endfacet
facet normal 0 0 0
outer loop
vertex 10.883204 12.978005 12.919372
vertex 10.862728 12.978005 12.919372
vertex 10.883204 12.957252 12.899372
endloop
endfacet
facet normal 0 0 0
outer loop
vertex 10.903679 12.957252 12.899372
vertex 10.883204 12.978005 12.919372
vertex 10.883204 12.957252 12.899372
endloop
endfacet
facet normal 0 0 0
outer loop
vertex 10.903679 12.978005 12.919372
vertex 10.883204 12.978005 12.919372
vertex 10.903679 12.957252 12.899372
endloop
endfacet
facet normal 0 0 0
outer loop
vertex 10.903679 12.978005 12.919372
vertex 10.903679 12.957252 12.899372
vertex 10.903679 12.978005 12.899372
endloop
endfacet
facet normal 0 0 0
outer loop
vertex 10.780825 12.978005 12.919372
vertex 10.801300 12.998758 12.899372
vertex 10.801300 12.978005 12.899372
endloop
endfacet
facet normal 0 0 0
outer loop
vertex 10.780825 12.978005 12.919372
vertex 10.801300 12.978005 12.919372
vertex 10.801300 12.998758 12.899372
endloop
endfacet
facet normal 0 0 0
outer loop
vertex 10.801300 12.978005 12.919372
vertex 10.821775 12.998758 12.919372
vertex 10.801300 12.998758 12.899372
endloop
endfacet
facet normal 0 0 0
outer loop
vertex 10.903679 12.998758 12.899372
vertex 10.883204 12.998758 12.919372
vertex 10.903679 12.978005 12.919372
endloop
endfacet
facet normal 0 0 0
outer loop
vertex 10.903679 12.998758 12.899372
vertex 10.903679 12.978005 12.919372
vertex 10.903679 12.978005 12.899372
endloop
endfacet
facet normal 0 0 0
outer loop
vertex 10.801300 12.998758 12.899372
vertex 10.821775 12.998758 12.919372
vertex 10.821775 13.019512 12.899372
endloop
endfacet
facet normal 0 0 0
outer loop
vertex 10.821775 12.998758 12.919372
vertex 10.821775 13.019512 12.919372
vertex 10.821775 13.019512 12.899372
endloop
endfacet
facet normal 0 0 0
outer loop
vertex 10.903679 13.019512 12.899372
vertex 10.883204 12.998758 12.919372
vertex 10.903679 12.998758 12.899372
endloop
endfacet
facet normal 0 0 0
outer loop
vertex 10.883204 13.019512 12.919372
vertex 10.883204 12.998758 12.919372
vertex 10.903679 13.019512 12.899372
endloop
endfacet
facet normal 0 0 0
outer loop
vertex 10.903679 12.998758 12.899372
vertex 10.924156 13.019512 12.899372
vertex 10.903679 13.019512 12.899372
endloop
endfacet
facet normal 0 0 0
outer loop
vertex 10.842253 13.040265 12.899372
vertex 10.821775 13.019512 12.899372
vertex 10.842253 13.019512 12.919372
endloop
endfacet
facet normal 0 0 0
outer loop
vertex 10.821775 13.019512 12.899372
vertex 10.821775 13.019512 12.919372
vertex 10.842253 13.019512 12.919372
endloop
endfacet
facet normal 0 0 0
outer loop
vertex 10.842253 13.040265 12.899372
vertex 10.842253 13.019512 12.919372
vertex 10.862728 13.019512 12.899372
endloop
endfacet
facet normal 0 0 0
outer loop
vertex 10.862728 13.040265 12.919372
vertex 10.862728 13.019512 12.899372
vertex 10.842253 13.019512 12.919372
endloop
endfacet
facet normal 0 0 0
outer loop
vertex 10.862728 13.040265 12.919372
vertex 10.883204 13.019512 12.919372
vertex 10.862728 13.019512 12.899372
endloop
endfacet
facet normal 0 0 0
outer loop
vertex 10.883204 13.019512 12.919372
vertex 10.883204 13.019512 12.899372
vertex 10.862728 13.019512 12.899372
endloop
endfacet
facet normal 0 0 0
outer loop
vertex 10.883204 13.019512 12.919372
vertex 10.903679 13.019512 12.899372
vertex 10.883204 13.019512 12.899372
endloop
endfacet
facet normal 0 0 0
outer loop
vertex 10.821775 12.978005 12.919372
vertex 10.842253 12.957252 12.919372
vertex 10.842253 12.978005 12.919372
endloop
endfacet
facet normal 0 0 0
outer loop
vertex 10.842253 12.957252 12.919372
vertex 10.862728 12.978005 12.919372
vertex 10.842253 12.978005 12.919372
endloop
endfacet
facet normal 0 0 0
outer loop
vertex 10.821775 12.998758 12.919372
vertex 10.801300 12.978005 12.919372
vertex 10.821775 12.978005 12.919372
endloop
endfacet
facet normal 0 0 0
outer loop
vertex 10.842253 12.978005 12.919372
vertex 10.842253 12.998758 12.919372
vertex 10.821775 12.978005 12.919372
endloop
endfacet
facet normal 0 0 0
outer loop
vertex 10.842253 12.998758 12.919372
vertex 10.821775 12.998758 12.919372
vertex 10.821775 12.978005 12.919372
endloop
endfacet
facet normal 0 0 0
outer loop
vertex 10.862728 12.978005 12.919372
vertex 10.862728 12.998758 12.919372
vertex 10.842253 12.978005 12.919372
endloop
endfacet
facet normal 0 0 0
outer loop
vertex 10.862728 12.998758 12.919372
vertex 10.842253 12.998758 12.919372
vertex 10.842253 12.978005 12.919372
endloop
endfacet
facet normal 0 0 0
outer loop
vertex 10.883204 12.978005 12.919372
vertex 10.883204 12.998758 12.919372
vertex 10.862728 12.978005 12.919372
endloop
endfacet
facet normal 0 0 0
outer loop
vertex 10.883204 12.998758 12.919372
vertex 10.862728 12.998758 12.919372
vertex 10.862728 12.978005 12.919372
endloop
endfacet
facet normal 0 0 0
outer loop
vertex 10.903679 12.978005 12.919372
vertex 10.883204 12.998758 12.919372
vertex 10.883204 12.978005 12.919372
endloop
endfacet
facet normal 0 0 0
outer loop
vertex 10.842253 12.998758 12.919372
vertex 10.842253 13.019512 12.919372
vertex 10.821775 12.998758 12.919372
endloop
endfacet
facet normal 0 0 0
outer loop
vertex 10.842253 13.019512 12.919372
vertex 10.821775 13.019512 12.919372
vertex 10.821775 12.998758 12.919372
endloop
endfacet
facet normal 0 0 0
outer loop
vertex 10.862728 12.998758 12.919372
vertex 10.862728 13.019512 12.919372
vertex 10.842253 12.998758 12.919372
endloop
endfacet
facet normal 0 0 0
outer loop
vertex 10.862728 13.019512 12.919372
vertex 10.842253 13.019512 12.919372
vertex 10.842253 12.998758 12.919372
endloop
endfacet
facet normal 0 0 0
outer loop
vertex 10.883204 12.998758 12.919372
vertex 10.883204 13.019512 12.919372
vertex 10.862728 12.998758 12.919372
endloop
endfacet
facet normal 0 0 0
outer loop
vertex 10.883204 13.019512 12.919372
vertex 10.862728 13.019512 12.919372
vertex 10.862728 12.998758 12.919372
endloop
endfacet
facet normal 0 0 0
outer loop
vertex 10.862728 13.040265 12.919372
vertex 10.842253 13.019512 12.919372
vertex 10.862728 13.019512 12.919372
endloop
endfacet
facet normal 0 0 0
outer loop
vertex 10.883204 13.019512 12.919372
vertex 10.862728 13.040265 12.919372
vertex 10.862728 13.019512 12.919372
endloop
endfacet
endsolid B-16-Plag.316
