solid B-16-Plag.400
facet normal 0 0 0
outer loop
vertex 14.056952 15.157104 14.659371
vertex 14.077429 15.177856 14.659371
vertex 14.077429 15.157104 14.659371
endloop
endfacet
facet normal 0 0 0
outer loop
vertex 14.097904 15.157104 14.659371
vertex 14.077429 15.157104 14.659371
vertex 14.097904 15.177856 14.659371
endloop
endfacet
facet normal 0 0 0
outer loop
vertex 14.097904 15.177856 14.659371
vertex 14.077429 15.157104 14.659371
vertex 14.077429 15.177856 14.659371
endloop
endfacet
facet normal 0 0 0
outer loop
vertex 14.118380 15.157104 14.659371
vertex 14.097904 15.157104 14.659371
vertex 14.118380 15.177856 14.659371
endloop
endfacet
facet normal 0 0 0
outer loop
vertex 14.118380 15.177856 14.659371
vertex 14.097904 15.157104 14.659371
vertex 14.097904 15.177856 14.659371
endloop
endfacet
facet normal 0 0 0
outer loop
vertex 14.138855 15.157104 14.659371
vertex 14.118380 15.157104 14.659371
vertex 14.138855 15.177856 14.659371
endloop
endfacet
facet normal 0 0 0
outer loop
vertex 14.138855 15.177856 14.659371
vertex 14.118380 15.157104 14.659371
vertex 14.118380 15.177856 14.659371
endloop
endfacet
facet normal 0 0 0
outer loop
vertex 14.159330 15.157104 14.659371
vertex 14.138855 15.157104 14.659371
vertex 14.159330 15.177856 14.659371
endloop
endfacet
facet normal 0 0 0
outer loop
vertex 14.159330 15.177856 14.659371
vertex 14.138855 15.157104 14.659371
vertex 14.138855 15.177856 14.659371
endloop
endfacet
facet normal 0 0 0
outer loop
vertex 14.179808 15.157104 14.659371
vertex 14.159330 15.157104 14.659371
vertex 14.179808 15.177856 14.659371
endloop
endfacet
facet normal 0 0 0
outer loop
vertex 14.179808 15.177856 14.659371
vertex 14.159330 15.157104 14.659371
vertex 14.159330 15.177856 14.659371
endloop
endfacet
facet normal 0 0 0
outer loop
vertex 14.200283 15.177856 14.659371
vertex 14.179808 15.157104 14.659371
vertex 14.179808 15.177856 14.659371
endloop
endfacet
facet normal 0 0 0
outer loop
vertex 14.097904 15.177856 14.659371
vertex 14.077429 15.177856 14.659371
vertex 14.097904 15.198610 14.659371
endloop
endfacet
facet normal 0 0 0
outer loop
vertex 14.097904 15.198610 14.659371
vertex 14.077429 15.177856 14.659371
vertex 14.077429 15.198610 14.659371
endloop
endfacet
facet normal 0 0 0
outer loop
vertex 14.118380 15.177856 14.659371
vertex 14.097904 15.177856 14.659371
vertex 14.118380 15.198610 14.659371
endloop
endfacet
facet normal 0 0 0
outer loop
vertex 14.118380 15.198610 14.659371
vertex 14.097904 15.177856 14.659371
vertex 14.097904 15.198610 14.659371
endloop
endfacet
facet normal 0 0 0
outer loop
vertex 14.138855 15.177856 14.659371
vertex 14.118380 15.177856 14.659371
vertex 14.138855 15.198610 14.659371
endloop
endfacet
facet normal 0 0 0
outer loop
vertex 14.138855 15.198610 14.659371
vertex 14.118380 15.177856 14.659371
vertex 14.118380 15.198610 14.659371
endloop
endfacet
facet normal 0 0 0
outer loop
vertex 14.159330 15.177856 14.659371
vertex 14.138855 15.177856 14.659371
vertex 14.159330 15.198610 14.659371
endloop
endfacet
facet normal 0 0 0
outer loop
vertex 14.159330 15.198610 14.659371
vertex 14.138855 15.177856 14.659371
vertex 14.138855 15.198610 14.659371
endloop
endfacet
facet normal 0 0 0
outer loop
vertex 14.179808 15.177856 14.659371
vertex 14.159330 15.177856 14.659371
vertex 14.179808 15.198610 14.659371
endloop
endfacet
facet normal 0 0 0
outer loop
vertex 14.179808 15.198610 14.659371
vertex 14.159330 15.177856 14.659371
vertex 14.159330 15.198610 14.659371
endloop
endfacet
facet normal 0 0 0
outer loop
vertex 14.200283 15.177856 14.659371
vertex 14.179808 15.177856 14.659371
vertex 14.200283 15.198610 14.659371
endloop
endfacet
facet normal 0 0 0
outer loop
vertex 14.200283 15.198610 14.659371
vertex 14.179808 15.177856 14.659371
vertex 14.179808 15.198610 14.659371
endloop
endfacet
facet normal 0 0 0
outer loop
vertex 14.077429 15.198610 14.659371
vertex 14.097904 15.219364 14.659371
vertex 14.097904 15.198610 14.659371
endloop
endfacet
facet normal 0 0 0
outer loop
vertex 14.118380 15.198610 14.659371
vertex 14.097904 15.198610 14.659371
vertex 14.118380 15.219364 14.659371
endloop
endfacet
facet normal 0 0 0
outer loop
vertex 14.118380 15.219364 14.659371
vertex 14.097904 15.198610 14.659371
vertex 14.097904 15.219364 14.659371
endloop
endfacet
facet normal 0 0 0
outer loop
vertex 14.138855 15.198610 14.659371
vertex 14.118380 15.198610 14.659371
vertex 14.138855 15.219364 14.659371
endloop
endfacet
facet normal 0 0 0
outer loop
vertex 14.138855 15.219364 14.659371
vertex 14.118380 15.198610 14.659371
vertex 14.118380 15.219364 14.659371
endloop
endfacet
facet normal 0 0 0
outer loop
vertex 14.159330 15.198610 14.659371
vertex 14.138855 15.198610 14.659371
vertex 14.159330 15.219364 14.659371
endloop
endfacet
facet normal 0 0 0
outer loop
vertex 14.159330 15.219364 14.659371
vertex 14.138855 15.198610 14.659371
vertex 14.138855 15.219364 14.659371
endloop
endfacet
facet normal 0 0 0
outer loop
vertex 14.179808 15.198610 14.659371
vertex 14.159330 15.198610 14.659371
vertex 14.179808 15.219364 14.659371
endloop
endfacet
facet normal 0 0 0
outer loop
vertex 14.179808 15.219364 14.659371
vertex 14.159330 15.198610 14.659371
vertex 14.159330 15.219364 14.659371
endloop
endfacet
facet normal 0 0 0
outer loop
vertex 14.200283 15.198610 14.659371
vertex 14.179808 15.198610 14.659371
vertex 14.200283 15.219364 14.659371
endloop
endfacet
facet normal 0 0 0
outer loop
vertex 14.200283 15.219364 14.659371
vertex 14.179808 15.198610 14.659371
vertex 14.179808 15.219364 14.659371
endloop
endfacet
facet normal 0 0 0
outer loop
vertex 14.036476 15.157104 14.679372
vertex 14.056952 15.157104 14.659371
vertex 14.056952 15.157104 14.679372
endloop
endfacet
facet normal 0 0 0
outer loop
vertex 14.077429 15.157104 14.659371
vertex 14.077429 15.157104 14.679372
vertex 14.056952 15.157104 14.659371
endloop
endfacet
facet normal 0 0 0
outer loop
vertex 14.056952 15.157104 14.659371
vertex 14.077429 15.157104 14.679372
vertex 14.056952 15.157104 14.679372
endloop
endfacet
facet normal 0 0 0
outer loop
vertex 14.097904 15.157104 14.659371
vertex 14.097904 15.157104 14.679372
vertex 14.077429 15.157104 14.659371
endloop
endfacet
facet normal 0 0 0
outer loop
vertex 14.077429 15.157104 14.659371
vertex 14.097904 15.157104 14.679372
vertex 14.077429 15.157104 14.679372
endloop
endfacet
facet normal 0 0 0
outer loop
vertex 14.118380 15.157104 14.659371
vertex 14.118380 15.157104 14.679372
vertex 14.097904 15.157104 14.659371
endloop
endfacet
facet normal 0 0 0
outer loop
vertex 14.097904 15.157104 14.659371
vertex 14.118380 15.157104 14.679372
vertex 14.097904 15.157104 14.679372
endloop
endfacet
facet normal 0 0 0
outer loop
vertex 14.138855 15.157104 14.659371
vertex 14.138855 15.157104 14.679372
vertex 14.118380 15.157104 14.659371
endloop
endfacet
facet normal 0 0 0
outer loop
vertex 14.118380 15.157104 14.659371
vertex 14.138855 15.157104 14.679372
vertex 14.118380 15.157104 14.679372
endloop
endfacet
facet normal 0 0 0
outer loop
vertex 14.159330 15.157104 14.659371
vertex 14.159330 15.157104 14.679372
vertex 14.138855 15.157104 14.659371
endloop
endfacet
facet normal 0 0 0
outer loop
vertex 14.138855 15.157104 14.659371
vertex 14.159330 15.157104 14.679372
vertex 14.138855 15.157104 14.679372
endloop
endfacet
facet normal 0 0 0
outer loop
vertex 14.179808 15.157104 14.659371
vertex 14.179808 15.157104 14.679372
vertex 14.159330 15.157104 14.659371
endloop
endfacet
facet normal 0 0 0
outer loop
vertex 14.159330 15.157104 14.659371
vertex 14.179808 15.157104 14.679372
vertex 14.159330 15.157104 14.679372
endloop
endfacet
facet normal 0 0 0
outer loop
vertex 14.056952 15.157104 14.659371
vertex 14.036476 15.157104 14.679372
vertex 14.056952 15.177856 14.679372
endloop
endfacet
facet normal 0 0 0
outer loop
vertex 14.056952 15.157104 14.659371
vertex 14.056952 15.177856 14.679372
vertex 14.077429 15.177856 14.659371
endloop
endfacet
facet normal 0 0 0
outer loop
vertex 14.200283 15.177856 14.659371
vertex 14.179808 15.177856 14.679372
vertex 14.179808 15.157104 14.659371
endloop
endfacet
facet normal 0 0 0
outer loop
vertex 14.179808 15.177856 14.679372
vertex 14.179808 15.157104 14.679372
vertex 14.179808 15.157104 14.659371
endloop
endfacet
facet normal 0 0 0
outer loop
vertex 14.056952 15.177856 14.679372
vertex 14.077429 15.198610 14.679372
vertex 14.077429 15.177856 14.659371
endloop
endfacet
facet normal 0 0 0
outer loop
vertex 14.077429 15.198610 14.679372
vertex 14.077429 15.198610 14.659371
vertex 14.077429 15.177856 14.659371
endloop
endfacet
facet normal 0 0 0
outer loop
vertex 14.200283 15.177856 14.659371
vertex 14.200283 15.198610 14.679372
vertex 14.179808 15.177856 14.679372
endloop
endfacet
facet normal 0 0 0
outer loop
vertex 14.200283 15.198610 14.679372
vertex 14.200283 15.177856 14.659371
vertex 14.200283 15.198610 14.659371
endloop
endfacet
facet normal 0 0 0
outer loop
vertex 14.077429 15.198610 14.679372
vertex 14.097904 15.219364 14.659371
vertex 14.077429 15.198610 14.659371
endloop
endfacet
facet normal 0 0 0
outer loop
vertex 14.097904 15.219364 14.679372
vertex 14.097904 15.219364 14.659371
vertex 14.077429 15.198610 14.679372
endloop
endfacet
facet normal 0 0 0
outer loop
vertex 14.220758 15.219364 14.679372
vertex 14.200283 15.198610 14.679372
vertex 14.200283 15.219364 14.659371
endloop
endfacet
facet normal 0 0 0
outer loop
vertex 14.200283 15.198610 14.679372
vertex 14.200283 15.198610 14.659371
vertex 14.200283 15.219364 14.659371
endloop
endfacet
facet normal 0 0 0
outer loop
vertex 14.118380 15.219364 14.659371
vertex 14.097904 15.219364 14.659371
vertex 14.118380 15.219364 14.679372
endloop
endfacet
facet normal 0 0 0
outer loop
vertex 14.097904 15.219364 14.659371
vertex 14.097904 15.219364 14.679372
vertex 14.118380 15.219364 14.679372
endloop
endfacet
facet normal 0 0 0
outer loop
vertex 14.138855 15.219364 14.659371
vertex 14.118380 15.219364 14.659371
vertex 14.138855 15.219364 14.679372
endloop
endfacet
facet normal 0 0 0
outer loop
vertex 14.118380 15.219364 14.659371
vertex 14.118380 15.219364 14.679372
vertex 14.138855 15.219364 14.679372
endloop
endfacet
facet normal 0 0 0
outer loop
vertex 14.159330 15.219364 14.659371
vertex 14.138855 15.219364 14.659371
vertex 14.159330 15.219364 14.679372
endloop
endfacet
facet normal 0 0 0
outer loop
vertex 14.138855 15.219364 14.659371
vertex 14.138855 15.219364 14.679372
vertex 14.159330 15.219364 14.679372
endloop
endfacet
facet normal 0 0 0
outer loop
vertex 14.179808 15.219364 14.659371
vertex 14.159330 15.219364 14.659371
vertex 14.179808 15.219364 14.679372
endloop
endfacet
facet normal 0 0 0
outer loop
vertex 14.159330 15.219364 14.659371
vertex 14.159330 15.219364 14.679372
vertex 14.179808 15.219364 14.679372
endloop
endfacet
facet normal 0 0 0
outer loop
vertex 14.200283 15.219364 14.659371
vertex 14.179808 15.219364 14.659371
vertex 14.200283 15.219364 14.679372
endloop
endfacet
facet normal 0 0 0
outer loop
vertex 14.179808 15.219364 14.659371
vertex 14.179808 15.219364 14.679372
vertex 14.200283 15.219364 14.679372
endloop
endfacet
facet normal 0 0 0
outer loop
vertex 14.220758 15.219364 14.679372
vertex 14.200283 15.219364 14.659371
vertex 14.200283 15.219364 14.679372
endloop
endfacet
facet normal 0 0 0
outer loop
vertex 14.056952 15.157104 14.679372
vertex 14.056952 15.157104 14.699371
vertex 14.036476 15.157104 14.679372
endloop
endfacet
facet normal 0 0 0
outer loop
vertex 14.036476 15.157104 14.679372
vertex 14.056952 15.157104 14.699371
vertex 14.036476 15.157104 14.699371
endloop
endfacet
facet normal 0 0 0
outer loop
vertex 14.077429 15.157104 14.679372
vertex 14.077429 15.157104 14.699371
vertex 14.056952 15.157104 14.679372
endloop
endfacet
facet normal 0 0 0
outer loop
vertex 14.056952 15.157104 14.679372
vertex 14.077429 15.157104 14.699371
vertex 14.056952 15.157104 14.699371
endloop
endfacet
facet normal 0 0 0
outer loop
vertex 14.097904 15.157104 14.679372
vertex 14.097904 15.157104 14.699371
vertex 14.077429 15.157104 14.679372
endloop
endfacet
facet normal 0 0 0
outer loop
vertex 14.077429 15.157104 14.679372
vertex 14.097904 15.157104 14.699371
vertex 14.077429 15.157104 14.699371
endloop
endfacet
facet normal 0 0 0
outer loop
vertex 14.118380 15.157104 14.679372
vertex 14.118380 15.157104 14.699371
vertex 14.097904 15.157104 14.679372
endloop
endfacet
facet normal 0 0 0
outer loop
vertex 14.097904 15.157104 14.679372
vertex 14.118380 15.157104 14.699371
vertex 14.097904 15.157104 14.699371
endloop
endfacet
facet normal 0 0 0
outer loop
vertex 14.138855 15.157104 14.679372
vertex 14.138855 15.157104 14.699371
vertex 14.118380 15.157104 14.679372
endloop
endfacet
facet normal 0 0 0
outer loop
vertex 14.118380 15.157104 14.679372
vertex 14.138855 15.157104 14.699371
vertex 14.118380 15.157104 14.699371
endloop
endfacet
facet normal 0 0 0
outer loop
vertex 14.159330 15.157104 14.679372
vertex 14.138855 15.157104 14.699371
vertex 14.138855 15.157104 14.679372
endloop
endfacet
facet normal 0 0 0
outer loop
vertex 14.036476 15.157104 14.699371
vertex 14.056952 15.177856 14.679372
vertex 14.036476 15.157104 14.679372
endloop
endfacet
facet normal 0 0 0
outer loop
vertex 14.056952 15.177856 14.699371
vertex 14.056952 15.177856 14.679372
vertex 14.036476 15.157104 14.699371
endloop
endfacet
facet normal 0 0 0
outer loop
vertex 14.159330 15.157104 14.679372
vertex 14.159330 15.177856 14.699371
vertex 14.138855 15.157104 14.699371
endloop
endfacet
facet normal 0 0 0
outer loop
vertex 14.179808 15.157104 14.679372
vertex 14.159330 15.177856 14.699371
vertex 14.159330 15.157104 14.679372
endloop
endfacet
facet normal 0 0 0
outer loop
vertex 14.179808 15.177856 14.699371
vertex 14.159330 15.177856 14.699371
vertex 14.179808 15.157104 14.679372
endloop
endfacet
facet normal 0 0 0
outer loop
vertex 14.179808 15.177856 14.699371
vertex 14.179808 15.157104 14.679372
vertex 14.179808 15.177856 14.679372
endloop
endfacet
facet normal 0 0 0
outer loop
vertex 14.056952 15.198610 14.699371
vertex 14.056952 15.177856 14.679372
vertex 14.056952 15.177856 14.699371
endloop
endfacet
facet normal 0 0 0
outer loop
vertex 14.056952 15.177856 14.679372
vertex 14.056952 15.198610 14.699371
vertex 14.077429 15.198610 14.679372
endloop
endfacet
facet normal 0 0 0
outer loop
vertex 14.179808 15.177856 14.679372
vertex 14.200283 15.198610 14.699371
vertex 14.179808 15.177856 14.699371
endloop
endfacet
facet normal 0 0 0
outer loop
vertex 14.200283 15.198610 14.679372
vertex 14.200283 15.198610 14.699371
vertex 14.179808 15.177856 14.679372
endloop
endfacet
facet normal 0 0 0
outer loop
vertex 14.077429 15.198610 14.679372
vertex 14.056952 15.198610 14.699371
vertex 14.077429 15.198610 14.699371
endloop
endfacet
facet normal 0 0 0
outer loop
vertex 14.077429 15.198610 14.699371
vertex 14.097904 15.219364 14.679372
vertex 14.077429 15.198610 14.679372
endloop
endfacet
facet normal 0 0 0
outer loop
vertex 14.097904 15.219364 14.699371
vertex 14.097904 15.219364 14.679372
vertex 14.077429 15.198610 14.699371
endloop
endfacet
facet normal 0 0 0
outer loop
vertex 14.220758 15.219364 14.679372
vertex 14.200283 15.219364 14.699371
vertex 14.200283 15.198610 14.679372
endloop
endfacet
facet normal 0 0 0
outer loop
vertex 14.200283 15.219364 14.699371
vertex 14.200283 15.198610 14.699371
vertex 14.200283 15.198610 14.679372
endloop
endfacet
facet normal 0 0 0
outer loop
vertex 14.118380 15.240118 14.699371
vertex 14.118380 15.219364 14.679372
vertex 14.097904 15.219364 14.699371
endloop
endfacet
facet normal 0 0 0
outer loop
vertex 14.118380 15.219364 14.679372
vertex 14.097904 15.219364 14.679372
vertex 14.097904 15.219364 14.699371
endloop
endfacet
facet normal 0 0 0
outer loop
vertex 14.118380 15.219364 14.679372
vertex 14.138855 15.240118 14.699371
vertex 14.138855 15.219364 14.679372
endloop
endfacet
facet normal 0 0 0
outer loop
vertex 14.118380 15.240118 14.699371
vertex 14.138855 15.240118 14.699371
vertex 14.118380 15.219364 14.679372
endloop
endfacet
facet normal 0 0 0
outer loop
vertex 14.138855 15.219364 14.679372
vertex 14.159330 15.240118 14.699371
vertex 14.159330 15.219364 14.679372
endloop
endfacet
facet normal 0 0 0
outer loop
vertex 14.138855 15.240118 14.699371
vertex 14.159330 15.240118 14.699371
vertex 14.138855 15.219364 14.679372
endloop
endfacet
facet normal 0 0 0
outer loop
vertex 14.159330 15.219364 14.679372
vertex 14.179808 15.240118 14.699371
vertex 14.179808 15.219364 14.679372
endloop
endfacet
facet normal 0 0 0
outer loop
vertex 14.159330 15.240118 14.699371
vertex 14.179808 15.240118 14.699371
vertex 14.159330 15.219364 14.679372
endloop
endfacet
facet normal 0 0 0
outer loop
vertex 14.179808 15.219364 14.679372
vertex 14.200283 15.240118 14.699371
vertex 14.200283 15.219364 14.679372
endloop
endfacet
facet normal 0 0 0
outer loop
vertex 14.179808 15.240118 14.699371
vertex 14.200283 15.240118 14.699371
vertex 14.179808 15.219364 14.679372
endloop
endfacet
facet normal 0 0 0
outer loop
vertex 14.220758 15.240118 14.699371
vertex 14.200283 15.219364 14.699371
vertex 14.200283 15.240118 14.699371
endloop
endfacet
facet normal 0 0 0
outer loop
vertex 14.200283 15.240118 14.699371
vertex 14.200283 15.219364 14.699371
vertex 14.200283 15.219364 14.679372
endloop
endfacet
facet normal 0 0 0
outer loop
vertex 14.200283 15.219364 14.679372
vertex 14.200283 15.219364 14.699371
vertex 14.220758 15.219364 14.679372
endloop
endfacet
facet normal 0 0 0
outer loop
vertex 14.056952 15.157104 14.719372
vertex 14.036476 15.157104 14.699371
vertex 14.056952 15.157104 14.699371
endloop
endfacet
facet normal 0 0 0
outer loop
vertex 14.077429 15.157104 14.699371
vertex 14.077429 15.157104 14.719372
vertex 14.056952 15.157104 14.699371
endloop
endfacet
facet normal 0 0 0
outer loop
vertex 14.056952 15.157104 14.699371
vertex 14.077429 15.157104 14.719372
vertex 14.056952 15.157104 14.719372
endloop
endfacet
facet normal 0 0 0
outer loop
vertex 14.097904 15.157104 14.699371
vertex 14.097904 15.157104 14.719372
vertex 14.077429 15.157104 14.699371
endloop
endfacet
facet normal 0 0 0
outer loop
vertex 14.077429 15.157104 14.699371
vertex 14.097904 15.157104 14.719372
vertex 14.077429 15.157104 14.719372
endloop
endfacet
facet normal 0 0 0
outer loop
vertex 14.118380 15.157104 14.699371
vertex 14.118380 15.157104 14.719372
vertex 14.097904 15.157104 14.699371
endloop
endfacet
facet normal 0 0 0
outer loop
vertex 14.097904 15.157104 14.699371
vertex 14.118380 15.157104 14.719372
vertex 14.097904 15.157104 14.719372
endloop
endfacet
facet normal 0 0 0
outer loop
vertex 14.138855 15.157104 14.699371
vertex 14.138855 15.157104 14.719372
vertex 14.118380 15.157104 14.699371
endloop
endfacet
facet normal 0 0 0
outer loop
vertex 14.118380 15.157104 14.699371
vertex 14.138855 15.157104 14.719372
vertex 14.118380 15.157104 14.719372
endloop
endfacet
facet normal 0 0 0
outer loop
vertex 14.036476 15.157104 14.699371
vertex 14.056952 15.157104 14.719372
vertex 14.056952 15.177856 14.699371
endloop
endfacet
facet normal 0 0 0
outer loop
vertex 14.056952 15.157104 14.719372
vertex 14.077429 15.177856 14.719372
vertex 14.056952 15.177856 14.699371
endloop
endfacet
facet normal 0 0 0
outer loop
vertex 14.138855 15.157104 14.699371
vertex 14.159330 15.177856 14.719372
vertex 14.138855 15.157104 14.719372
endloop
endfacet
facet normal 0 0 0
outer loop
vertex 14.159330 15.177856 14.699371
vertex 14.159330 15.177856 14.719372
vertex 14.138855 15.157104 14.699371
endloop
endfacet
facet normal 0 0 0
outer loop
vertex 14.179808 15.157104 14.719372
vertex 14.159330 15.177856 14.719372
vertex 14.179808 15.177856 14.699371
endloop
endfacet
facet normal 0 0 0
outer loop
vertex 14.159330 15.177856 14.719372
vertex 14.159330 15.177856 14.699371
vertex 14.179808 15.177856 14.699371
endloop
endfacet
facet normal 0 0 0
outer loop
vertex 14.179808 15.177856 14.699371
vertex 14.200283 15.177856 14.719372
vertex 14.179808 15.157104 14.719372
endloop
endfacet
facet normal 0 0 0
outer loop
vertex 14.077429 15.177856 14.719372
vertex 14.077429 15.198610 14.699371
vertex 14.056952 15.177856 14.699371
endloop
endfacet
facet normal 0 0 0
outer loop
vertex 14.077429 15.198610 14.699371
vertex 14.056952 15.198610 14.699371
vertex 14.056952 15.177856 14.699371
endloop
endfacet
facet normal 0 0 0
outer loop
vertex 14.077429 15.177856 14.719372
vertex 14.097904 15.198610 14.719372
vertex 14.077429 15.198610 14.699371
endloop
endfacet
facet normal 0 0 0
outer loop
vertex 14.179808 15.177856 14.699371
vertex 14.200283 15.198610 14.699371
vertex 14.200283 15.177856 14.719372
endloop
endfacet
facet normal 0 0 0
outer loop
vertex 14.200283 15.198610 14.699371
vertex 14.220758 15.198610 14.719372
vertex 14.200283 15.177856 14.719372
endloop
endfacet
facet normal 0 0 0
outer loop
vertex 14.077429 15.198610 14.699371
vertex 14.097904 15.198610 14.719372
vertex 14.097904 15.219364 14.699371
endloop
endfacet
facet normal 0 0 0
outer loop
vertex 14.097904 15.198610 14.719372
vertex 14.097904 15.219364 14.719372
vertex 14.097904 15.219364 14.699371
endloop
endfacet
facet normal 0 0 0
outer loop
vertex 14.220758 15.198610 14.719372
vertex 14.200283 15.219364 14.699371
vertex 14.220758 15.219364 14.719372
endloop
endfacet
facet normal 0 0 0
outer loop
vertex 14.200283 15.198610 14.699371
vertex 14.200283 15.219364 14.699371
vertex 14.220758 15.198610 14.719372
endloop
endfacet
facet normal 0 0 0
outer loop
vertex 14.097904 15.219364 14.719372
vertex 14.118380 15.240118 14.699371
vertex 14.097904 15.219364 14.699371
endloop
endfacet
facet normal 0 0 0
outer loop
vertex 14.118380 15.240118 14.719372
vertex 14.118380 15.240118 14.699371
vertex 14.097904 15.219364 14.719372
endloop
endfacet
facet normal 0 0 0
outer loop
vertex 14.200283 15.219364 14.699371
vertex 14.220758 15.240118 14.699371
vertex 14.220758 15.219364 14.719372
endloop
endfacet
facet normal 0 0 0
outer loop
vertex 14.220758 15.240118 14.699371
vertex 14.241234 15.240118 14.719372
vertex 14.220758 15.219364 14.719372
endloop
endfacet
facet normal 0 0 0
outer loop
vertex 14.138855 15.240118 14.699371
vertex 14.118380 15.240118 14.699371
vertex 14.138855 15.240118 14.719372
endloop
endfacet
facet normal 0 0 0
outer loop
vertex 14.118380 15.240118 14.699371
vertex 14.118380 15.240118 14.719372
vertex 14.138855 15.240118 14.719372
endloop
endfacet
facet normal 0 0 0
outer loop
vertex 14.159330 15.240118 14.699371
vertex 14.138855 15.240118 14.699371
vertex 14.159330 15.240118 14.719372
endloop
endfacet
facet normal 0 0 0
outer loop
vertex 14.138855 15.240118 14.699371
vertex 14.138855 15.240118 14.719372
vertex 14.159330 15.240118 14.719372
endloop
endfacet
facet normal 0 0 0
outer loop
vertex 14.179808 15.240118 14.699371
vertex 14.159330 15.240118 14.699371
vertex 14.179808 15.240118 14.719372
endloop
endfacet
facet normal 0 0 0
outer loop
vertex 14.159330 15.240118 14.699371
vertex 14.159330 15.240118 14.719372
vertex 14.179808 15.240118 14.719372
endloop
endfacet
facet normal 0 0 0
outer loop
vertex 14.200283 15.260870 14.719372
vertex 14.200283 15.240118 14.699371
vertex 14.179808 15.240118 14.719372
endloop
endfacet
facet normal 0 0 0
outer loop
vertex 14.200283 15.240118 14.699371
vertex 14.179808 15.240118 14.699371
vertex 14.179808 15.240118 14.719372
endloop
endfacet
facet normal 0 0 0
outer loop
vertex 14.200283 15.260870 14.719372
vertex 14.220758 15.240118 14.719372
vertex 14.200283 15.240118 14.699371
endloop
endfacet
facet normal 0 0 0
outer loop
vertex 14.220758 15.240118 14.719372
vertex 14.220758 15.240118 14.699371
vertex 14.200283 15.240118 14.699371
endloop
endfacet
facet normal 0 0 0
outer loop
vertex 14.241234 15.240118 14.719372
vertex 14.220758 15.240118 14.699371
vertex 14.220758 15.240118 14.719372
endloop
endfacet
facet normal 0 0 0
outer loop
vertex 14.077429 15.177856 14.739372
vertex 14.056952 15.157104 14.719372
vertex 14.077429 15.157104 14.719372
endloop
endfacet
facet normal 0 0 0
outer loop
vertex 14.077429 15.177856 14.739372
vertex 14.077429 15.177856 14.719372
vertex 14.056952 15.157104 14.719372
endloop
endfacet
facet normal 0 0 0
outer loop
vertex 14.097904 15.157104 14.719372
vertex 14.077429 15.177856 14.739372
vertex 14.077429 15.157104 14.719372
endloop
endfacet
facet normal 0 0 0
outer loop
vertex 14.097904 15.177856 14.739372
vertex 14.077429 15.177856 14.739372
vertex 14.097904 15.157104 14.719372
endloop
endfacet
facet normal 0 0 0
outer loop
vertex 14.097904 15.177856 14.739372
vertex 14.097904 15.157104 14.719372
vertex 14.118380 15.177856 14.719372
endloop
endfacet
facet normal 0 0 0
outer loop
vertex 14.097904 15.157104 14.719372
vertex 14.118380 15.157104 14.719372
vertex 14.118380 15.177856 14.719372
endloop
endfacet
facet normal 0 0 0
outer loop
vertex 14.138855 15.177856 14.739372
vertex 14.118380 15.177856 14.719372
vertex 14.138855 15.157104 14.719372
endloop
endfacet
facet normal 0 0 0
outer loop
vertex 14.118380 15.177856 14.719372
vertex 14.118380 15.157104 14.719372
vertex 14.138855 15.157104 14.719372
endloop
endfacet
facet normal 0 0 0
outer loop
vertex 14.159330 15.177856 14.719372
vertex 14.138855 15.177856 14.739372
vertex 14.138855 15.157104 14.719372
endloop
endfacet
facet normal 0 0 0
outer loop
vertex 14.159330 15.177856 14.719372
vertex 14.179808 15.157104 14.719372
vertex 14.179808 15.177856 14.719372
endloop
endfacet
facet normal 0 0 0
outer loop
vertex 14.179808 15.157104 14.719372
vertex 14.200283 15.177856 14.719372
vertex 14.179808 15.177856 14.719372
endloop
endfacet
facet normal 0 0 0
outer loop
vertex 14.077429 15.177856 14.719372
vertex 14.056952 15.198610 14.739372
vertex 14.077429 15.198610 14.739372
endloop
endfacet
facet normal 0 0 0
outer loop
vertex 14.077429 15.177856 14.719372
vertex 14.077429 15.177856 14.739372
vertex 14.056952 15.198610 14.739372
endloop
endfacet
facet normal 0 0 0
outer loop
vertex 14.077429 15.177856 14.719372
vertex 14.077429 15.198610 14.739372
vertex 14.097904 15.198610 14.719372
endloop
endfacet
facet normal 0 0 0
outer loop
vertex 14.118380 15.177856 14.719372
vertex 14.118380 15.198610 14.739372
vertex 14.097904 15.177856 14.739372
endloop
endfacet
facet normal 0 0 0
outer loop
vertex 14.138855 15.177856 14.739372
vertex 14.118380 15.198610 14.739372
vertex 14.118380 15.177856 14.719372
endloop
endfacet
facet normal 0 0 0
outer loop
vertex 14.159330 15.177856 14.719372
vertex 14.159330 15.198610 14.739372
vertex 14.138855 15.177856 14.739372
endloop
endfacet
facet normal 0 0 0
outer loop
vertex 14.179808 15.177856 14.719372
vertex 14.159330 15.198610 14.739372
vertex 14.159330 15.177856 14.719372
endloop
endfacet
facet normal 0 0 0
outer loop
vertex 14.179808 15.198610 14.739372
vertex 14.159330 15.198610 14.739372
vertex 14.179808 15.177856 14.719372
endloop
endfacet
facet normal 0 0 0
outer loop
vertex 14.179808 15.198610 14.739372
vertex 14.179808 15.177856 14.719372
vertex 14.200283 15.198610 14.719372
endloop
endfacet
facet normal 0 0 0
outer loop
vertex 14.179808 15.177856 14.719372
vertex 14.200283 15.177856 14.719372
vertex 14.200283 15.198610 14.719372
endloop
endfacet
facet normal 0 0 0
outer loop
vertex 14.200283 15.177856 14.719372
vertex 14.220758 15.198610 14.719372
vertex 14.200283 15.198610 14.719372
endloop
endfacet
facet normal 0 0 0
outer loop
vertex 14.056952 15.198610 14.739372
vertex 14.077429 15.219364 14.739372
vertex 14.077429 15.198610 14.739372
endloop
endfacet
facet normal 0 0 0
outer loop
vertex 14.097904 15.198610 14.719372
vertex 14.077429 15.219364 14.739372
vertex 14.097904 15.219364 14.719372
endloop
endfacet
facet normal 0 0 0
outer loop
vertex 14.077429 15.198610 14.739372
vertex 14.077429 15.219364 14.739372
vertex 14.097904 15.198610 14.719372
endloop
endfacet
facet normal 0 0 0
outer loop
vertex 14.200283 15.198610 14.719372
vertex 14.200283 15.219364 14.739372
vertex 14.179808 15.198610 14.739372
endloop
endfacet
facet normal 0 0 0
outer loop
vertex 14.200283 15.219364 14.739372
vertex 14.200283 15.198610 14.719372
vertex 14.220758 15.219364 14.719372
endloop
endfacet
facet normal 0 0 0
outer loop
vertex 14.200283 15.198610 14.719372
vertex 14.220758 15.198610 14.719372
vertex 14.220758 15.219364 14.719372
endloop
endfacet
facet normal 0 0 0
outer loop
vertex 14.220758 15.198610 14.719372
vertex 14.241234 15.219364 14.719372
vertex 14.220758 15.219364 14.719372
endloop
endfacet
facet normal 0 0 0
outer loop
vertex 14.097904 15.219364 14.719372
vertex 14.077429 15.219364 14.739372
vertex 14.097904 15.240118 14.739372
endloop
endfacet
facet normal 0 0 0
outer loop
vertex 14.097904 15.219364 14.719372
vertex 14.097904 15.240118 14.739372
vertex 14.118380 15.240118 14.719372
endloop
endfacet
facet normal 0 0 0
outer loop
vertex 14.220758 15.240118 14.719372
vertex 14.200283 15.219364 14.739372
vertex 14.220758 15.219364 14.719372
endloop
endfacet
facet normal 0 0 0
outer loop
vertex 14.200283 15.240118 14.739372
vertex 14.200283 15.219364 14.739372
vertex 14.220758 15.240118 14.719372
endloop
endfacet
facet normal 0 0 0
outer loop
vertex 14.241234 15.219364 14.719372
vertex 14.241234 15.240118 14.719372
vertex 14.220758 15.219364 14.719372
endloop
endfacet
facet normal 0 0 0
outer loop
vertex 14.241234 15.240118 14.719372
vertex 14.220758 15.240118 14.719372
vertex 14.220758 15.219364 14.719372
endloop
endfacet
facet normal 0 0 0
outer loop
vertex 14.118380 15.240118 14.719372
vertex 14.097904 15.240118 14.739372
vertex 14.118380 15.260870 14.739372
endloop
endfacet
facet normal 0 0 0
outer loop
vertex 14.118380 15.240118 14.719372
vertex 14.138855 15.260870 14.739372
vertex 14.138855 15.240118 14.719372
endloop
endfacet
facet normal 0 0 0
outer loop
vertex 14.118380 15.260870 14.739372
vertex 14.138855 15.260870 14.739372
vertex 14.118380 15.240118 14.719372
endloop
endfacet
facet normal 0 0 0
outer loop
vertex 14.138855 15.240118 14.719372
vertex 14.159330 15.260870 14.739372
vertex 14.159330 15.240118 14.719372
endloop
endfacet
facet normal 0 0 0
outer loop
vertex 14.138855 15.260870 14.739372
vertex 14.159330 15.260870 14.739372
vertex 14.138855 15.240118 14.719372
endloop
endfacet
facet normal 0 0 0
outer loop
vertex 14.159330 15.240118 14.719372
vertex 14.179808 15.260870 14.739372
vertex 14.179808 15.240118 14.719372
endloop
endfacet
facet normal 0 0 0
outer loop
vertex 14.159330 15.260870 14.739372
vertex 14.179808 15.260870 14.739372
vertex 14.159330 15.240118 14.719372
endloop
endfacet
facet normal 0 0 0
outer loop
vertex 14.179808 15.240118 14.719372
vertex 14.179808 15.260870 14.739372
vertex 14.200283 15.260870 14.719372
endloop
endfacet
facet normal 0 0 0
outer loop
vertex 14.220758 15.260870 14.739372
vertex 14.200283 15.240118 14.739372
vertex 14.200283 15.260870 14.719372
endloop
endfacet
facet normal 0 0 0
outer loop
vertex 14.220758 15.240118 14.719372
vertex 14.200283 15.260870 14.719372
vertex 14.200283 15.240118 14.739372
endloop
endfacet
facet normal 0 0 0
outer loop
vertex 14.200283 15.260870 14.719372
vertex 14.179808 15.260870 14.739372
vertex 14.200283 15.260870 14.739372
endloop
endfacet
facet normal 0 0 0
outer loop
vertex 14.220758 15.260870 14.739372
vertex 14.200283 15.260870 14.719372
vertex 14.200283 15.260870 14.739372
endloop
endfacet
facet normal 0 0 0
outer loop
vertex 14.056952 15.198610 14.739372
vertex 14.077429 15.177856 14.739372
vertex 14.077429 15.198610 14.739372
endloop
endfacet
facet normal 0 0 0
outer loop
vertex 14.097904 15.177856 14.739372
vertex 14.097904 15.198610 14.739372
vertex 14.077429 15.177856 14.739372
endloop
endfacet
facet normal 0 0 0
outer loop
vertex 14.097904 15.198610 14.739372
vertex 14.077429 15.198610 14.739372
vertex 14.077429 15.177856 14.739372
endloop
endfacet
facet normal 0 0 0
outer loop
vertex 14.097904 15.177856 14.739372
vertex 14.118380 15.198610 14.739372
vertex 14.097904 15.198610 14.739372
endloop
endfacet
facet normal 0 0 0
outer loop
vertex 14.118380 15.198610 14.739372
vertex 14.138855 15.177856 14.739372
vertex 14.138855 15.198610 14.739372
endloop
endfacet
facet normal 0 0 0
outer loop
vertex 14.138855 15.177856 14.739372
vertex 14.159330 15.198610 14.739372
vertex 14.138855 15.198610 14.739372
endloop
endfacet
facet normal 0 0 0
outer loop
vertex 14.077429 15.219364 14.759372
vertex 14.056952 15.198610 14.739372
vertex 14.077429 15.198610 14.739372
endloop
endfacet
facet normal 0 0 0
outer loop
vertex 14.077429 15.219364 14.759372
vertex 14.077429 15.219364 14.739372
vertex 14.056952 15.198610 14.739372
endloop
endfacet
facet normal 0 0 0
outer loop
vertex 14.097904 15.198610 14.739372
vertex 14.077429 15.219364 14.759372
vertex 14.077429 15.198610 14.739372
endloop
endfacet
facet normal 0 0 0
outer loop
vertex 14.097904 15.219364 14.759372
vertex 14.077429 15.219364 14.759372
vertex 14.097904 15.198610 14.739372
endloop
endfacet
facet normal 0 0 0
outer loop
vertex 14.118380 15.198610 14.739372
vertex 14.097904 15.219364 14.759372
vertex 14.097904 15.198610 14.739372
endloop
endfacet
facet normal 0 0 0
outer loop
vertex 14.118380 15.219364 14.759372
vertex 14.097904 15.219364 14.759372
vertex 14.118380 15.198610 14.739372
endloop
endfacet
facet normal 0 0 0
outer loop
vertex 14.138855 15.198610 14.739372
vertex 14.118380 15.219364 14.759372
vertex 14.118380 15.198610 14.739372
endloop
endfacet
facet normal 0 0 0
outer loop
vertex 14.138855 15.219364 14.759372
vertex 14.118380 15.219364 14.759372
vertex 14.138855 15.198610 14.739372
endloop
endfacet
facet normal 0 0 0
outer loop
vertex 14.159330 15.198610 14.739372
vertex 14.138855 15.219364 14.759372
vertex 14.138855 15.198610 14.739372
endloop
endfacet
facet normal 0 0 0
outer loop
vertex 14.159330 15.219364 14.759372
vertex 14.138855 15.219364 14.759372
vertex 14.159330 15.198610 14.739372
endloop
endfacet
facet normal 0 0 0
outer loop
vertex 14.179808 15.198610 14.739372
vertex 14.159330 15.219364 14.759372
vertex 14.159330 15.198610 14.739372
endloop
endfacet
facet normal 0 0 0
outer loop
vertex 14.179808 15.219364 14.759372
vertex 14.159330 15.219364 14.759372
vertex 14.179808 15.198610 14.739372
endloop
endfacet
facet normal 0 0 0
outer loop
vertex 14.179808 15.198610 14.739372
vertex 14.200283 15.219364 14.739372
vertex 14.179808 15.219364 14.759372
endloop
endfacet
facet normal 0 0 0
outer loop
vertex 14.200283 15.219364 14.739372
vertex 14.200283 15.219364 14.759372
vertex 14.179808 15.219364 14.759372
endloop
endfacet
facet normal 0 0 0
outer loop
vertex 14.077429 15.240118 14.759372
vertex 14.077429 15.219364 14.739372
vertex 14.077429 15.219364 14.759372
endloop
endfacet
facet normal 0 0 0
outer loop
vertex 14.077429 15.219364 14.739372
vertex 14.077429 15.240118 14.759372
vertex 14.097904 15.240118 14.739372
endloop
endfacet
facet normal 0 0 0
outer loop
vertex 14.220758 15.240118 14.759372
vertex 14.200283 15.219364 14.759372
vertex 14.200283 15.240118 14.739372
endloop
endfacet
facet normal 0 0 0
outer loop
vertex 14.200283 15.219364 14.759372
vertex 14.200283 15.219364 14.739372
vertex 14.200283 15.240118 14.739372
endloop
endfacet
facet normal 0 0 0
outer loop
vertex 14.097904 15.240118 14.739372
vertex 14.077429 15.240118 14.759372
vertex 14.097904 15.240118 14.759372
endloop
endfacet
facet normal 0 0 0
outer loop
vertex 14.097904 15.240118 14.759372
vertex 14.118380 15.260870 14.739372
vertex 14.097904 15.240118 14.739372
endloop
endfacet
facet normal 0 0 0
outer loop
vertex 14.118380 15.260870 14.759372
vertex 14.118380 15.260870 14.739372
vertex 14.097904 15.240118 14.759372
endloop
endfacet
facet normal 0 0 0
outer loop
vertex 14.200283 15.240118 14.739372
vertex 14.220758 15.260870 14.739372
vertex 14.220758 15.240118 14.759372
endloop
endfacet
facet normal 0 0 0
outer loop
vertex 14.220758 15.260870 14.739372
vertex 14.241234 15.260870 14.759372
vertex 14.220758 15.240118 14.759372
endloop
endfacet
facet normal 0 0 0
outer loop
vertex 14.241234 15.260870 14.759372
vertex 14.241234 15.240118 14.759372
vertex 14.220758 15.240118 14.759372
endloop
endfacet
facet normal 0 0 0
outer loop
vertex 14.138855 15.260870 14.739372
vertex 14.118380 15.260870 14.739372
vertex 14.138855 15.260870 14.759372
endloop
endfacet
facet normal 0 0 0
outer loop
vertex 14.118380 15.260870 14.739372
vertex 14.118380 15.260870 14.759372
vertex 14.138855 15.260870 14.759372
endloop
endfacet
facet normal 0 0 0
outer loop
vertex 14.159330 15.260870 14.739372
vertex 14.138855 15.260870 14.739372
vertex 14.159330 15.260870 14.759372
endloop
endfacet
facet normal 0 0 0
outer loop
vertex 14.138855 15.260870 14.739372
vertex 14.138855 15.260870 14.759372
vertex 14.159330 15.260870 14.759372
endloop
endfacet
facet normal 0 0 0
outer loop
vertex 14.179808 15.260870 14.739372
vertex 14.159330 15.260870 14.739372
vertex 14.179808 15.260870 14.759372
endloop
endfacet
facet normal 0 0 0
outer loop
vertex 14.159330 15.260870 14.739372
vertex 14.159330 15.260870 14.759372
vertex 14.179808 15.260870 14.759372
endloop
endfacet
facet normal 0 0 0
outer loop
vertex 14.200283 15.260870 14.739372
vertex 14.179808 15.260870 14.739372
vertex 14.200283 15.260870 14.759372
endloop
endfacet
facet normal 0 0 0
outer loop
vertex 14.179808 15.260870 14.739372
vertex 14.179808 15.260870 14.759372
vertex 14.200283 15.260870 14.759372
endloop
endfacet
facet normal 0 0 0
outer loop
vertex 14.220758 15.260870 14.739372
vertex 14.200283 15.260870 14.739372
vertex 14.220758 15.260870 14.759372
endloop
endfacet
facet normal 0 0 0
outer loop
vertex 14.200283 15.260870 14.739372
vertex 14.200283 15.260870 14.759372
vertex 14.220758 15.260870 14.759372
endloop
endfacet
facet normal 0 0 0
outer loop
vertex 14.241234 15.260870 14.759372
vertex 14.220758 15.260870 14.739372
vertex 14.220758 15.260870 14.759372
endloop
endfacet
facet normal 0 0 0
outer loop
vertex 14.097904 15.240118 14.779372
vertex 14.077429 15.240118 14.759372
vertex 14.097904 15.219364 14.759372
endloop
endfacet
facet normal 0 0 0
outer loop
vertex 14.077429 15.240118 14.759372
vertex 14.077429 15.219364 14.759372
vertex 14.097904 15.219364 14.759372
endloop
endfacet
facet normal 0 0 0
outer loop
vertex 14.118380 15.219364 14.759372
vertex 14.097904 15.240118 14.779372
vertex 14.097904 15.219364 14.759372
endloop
endfacet
facet normal 0 0 0
outer loop
vertex 14.118380 15.240118 14.779372
vertex 14.097904 15.240118 14.779372
vertex 14.118380 15.219364 14.759372
endloop
endfacet
facet normal 0 0 0
outer loop
vertex 14.138855 15.219364 14.759372
vertex 14.118380 15.240118 14.779372
vertex 14.118380 15.219364 14.759372
endloop
endfacet
facet normal 0 0 0
outer loop
vertex 14.138855 15.240118 14.779372
vertex 14.118380 15.240118 14.779372
vertex 14.138855 15.219364 14.759372
endloop
endfacet
facet normal 0 0 0
outer loop
vertex 14.159330 15.219364 14.759372
vertex 14.138855 15.240118 14.779372
vertex 14.138855 15.219364 14.759372
endloop
endfacet
facet normal 0 0 0
outer loop
vertex 14.159330 15.240118 14.779372
vertex 14.138855 15.240118 14.779372
vertex 14.159330 15.219364 14.759372
endloop
endfacet
facet normal 0 0 0
outer loop
vertex 14.159330 15.240118 14.779372
vertex 14.159330 15.219364 14.759372
vertex 14.179808 15.240118 14.759372
endloop
endfacet
facet normal 0 0 0
outer loop
vertex 14.159330 15.219364 14.759372
vertex 14.179808 15.219364 14.759372
vertex 14.179808 15.240118 14.759372
endloop
endfacet
facet normal 0 0 0
outer loop
vertex 14.200283 15.219364 14.759372
vertex 14.200283 15.240118 14.759372
vertex 14.179808 15.219364 14.759372
endloop
endfacet
facet normal 0 0 0
outer loop
vertex 14.200283 15.240118 14.759372
vertex 14.179808 15.240118 14.759372
vertex 14.179808 15.219364 14.759372
endloop
endfacet
facet normal 0 0 0
outer loop
vertex 14.200283 15.219364 14.759372
vertex 14.220758 15.240118 14.759372
vertex 14.200283 15.240118 14.759372
endloop
endfacet
facet normal 0 0 0
outer loop
vertex 14.077429 15.240118 14.759372
vertex 14.097904 15.240118 14.779372
vertex 14.097904 15.240118 14.759372
endloop
endfacet
facet normal 0 0 0
outer loop
vertex 14.097904 15.240118 14.779372
vertex 14.118380 15.260870 14.759372
vertex 14.097904 15.240118 14.759372
endloop
endfacet
facet normal 0 0 0
outer loop
vertex 14.118380 15.260870 14.779372
vertex 14.118380 15.260870 14.759372
vertex 14.097904 15.240118 14.779372
endloop
endfacet
facet normal 0 0 0
outer loop
vertex 14.179808 15.240118 14.759372
vertex 14.179808 15.260870 14.779372
vertex 14.159330 15.240118 14.779372
endloop
endfacet
facet normal 0 0 0
outer loop
vertex 14.200283 15.240118 14.759372
vertex 14.179808 15.260870 14.779372
vertex 14.179808 15.240118 14.759372
endloop
endfacet
facet normal 0 0 0
outer loop
vertex 14.200283 15.260870 14.779372
vertex 14.179808 15.260870 14.779372
vertex 14.200283 15.240118 14.759372
endloop
endfacet
facet normal 0 0 0
outer loop
vertex 14.200283 15.260870 14.779372
vertex 14.200283 15.240118 14.759372
vertex 14.220758 15.260870 14.759372
endloop
endfacet
facet normal 0 0 0
outer loop
vertex 14.200283 15.240118 14.759372
vertex 14.220758 15.240118 14.759372
vertex 14.220758 15.260870 14.759372
endloop
endfacet
facet normal 0 0 0
outer loop
vertex 14.241234 15.260870 14.759372
vertex 14.220758 15.260870 14.759372
vertex 14.220758 15.240118 14.759372
endloop
endfacet
facet normal 0 0 0
outer loop
vertex 14.138855 15.260870 14.759372
vertex 14.118380 15.260870 14.759372
vertex 14.138855 15.260870 14.779372
endloop
endfacet
facet normal 0 0 0
outer loop
vertex 14.118380 15.260870 14.759372
vertex 14.118380 15.260870 14.779372
vertex 14.138855 15.260870 14.779372
endloop
endfacet
facet normal 0 0 0
outer loop
vertex 14.159330 15.260870 14.759372
vertex 14.138855 15.260870 14.759372
vertex 14.159330 15.260870 14.779372
endloop
endfacet
facet normal 0 0 0
outer loop
vertex 14.138855 15.260870 14.759372
vertex 14.138855 15.260870 14.779372
vertex 14.159330 15.260870 14.779372
endloop
endfacet
facet normal 0 0 0
outer loop
vertex 14.179808 15.260870 14.759372
vertex 14.159330 15.260870 14.759372
vertex 14.179808 15.260870 14.779372
endloop
endfacet
facet normal 0 0 0
outer loop
vertex 14.159330 15.260870 14.759372
vertex 14.159330 15.260870 14.779372
vertex 14.179808 15.260870 14.779372
endloop
endfacet
facet normal 0 0 0
outer loop
vertex 14.200283 15.260870 14.759372
vertex 14.179808 15.260870 14.759372
vertex 14.200283 15.260870 14.779372
endloop
endfacet
facet normal 0 0 0
outer loop
vertex 14.179808 15.260870 14.759372
vertex 14.179808 15.260870 14.779372
vertex 14.200283 15.260870 14.779372
endloop
endfacet
facet normal 0 0 0
outer loop
vertex 14.200283 15.260870 14.779372
vertex 14.220758 15.260870 14.759372
vertex 14.200283 15.260870 14.759372
endloop
endfacet
facet normal 0 0 0
outer loop
vertex 14.118380 15.260870 14.779372
vertex 14.097904 15.240118 14.779372
vertex 14.118380 15.240118 14.779372
endloop
endfacet
facet normal 0 0 0
outer loop
vertex 14.138855 15.240118 14.779372
vertex 14.138855 15.260870 14.779372
vertex 14.118380 15.240118 14.779372
endloop
endfacet
facet normal 0 0 0
outer loop
vertex 14.138855 15.260870 14.779372
vertex 14.118380 15.260870 14.779372
vertex 14.118380 15.240118 14.779372
endloop
endfacet
facet normal 0 0 0
outer loop
vertex 14.159330 15.240118 14.779372
vertex 14.159330 15.260870 14.779372
vertex 14.138855 15.240118 14.779372
endloop
endfacet
facet normal 0 0 0
outer loop
vertex 14.159330 15.260870 14.779372
vertex 14.138855 15.260870 14.779372
vertex 14.138855 15.240118 14.779372
endloop
endfacet
facet normal 0 0 0
outer loop
vertex 14.159330 15.240118 14.779372
vertex 14.179808 15.260870 14.779372
vertex 14.159330 15.260870 14.779372
endloop
endfacet
endsolid B-16-Plag.400
