solid B-16-Plag.125
facet normal 0 0 0
outer loop
vertex 23.312014 5.154002 6.999372
vertex 23.291538 5.154002 6.999372
vertex 23.312014 5.174756 6.999372
endloop
endfacet
facet normal 0 0 0
outer loop
vertex 23.312014 5.174756 6.999372
vertex 23.291538 5.154002 6.999372
vertex 23.291538 5.174756 6.999372
endloop
endfacet
facet normal 0 0 0
outer loop
vertex 23.332489 5.154002 6.999372
vertex 23.312014 5.154002 6.999372
vertex 23.332489 5.174756 6.999372
endloop
endfacet
facet normal 0 0 0
outer loop
vertex 23.352966 5.154002 6.999372
vertex 23.332489 5.154002 6.999372
vertex 23.352966 5.174756 6.999372
endloop
endfacet
facet normal 0 0 0
outer loop
vertex 23.352966 5.174756 6.999372
vertex 23.332489 5.154002 6.999372
vertex 23.332489 5.174756 6.999372
endloop
endfacet
facet normal 0 0 0
outer loop
vertex 23.291538 5.174756 6.999372
vertex 23.271063 5.174756 6.999372
vertex 23.291538 5.195509 6.999372
endloop
endfacet
facet normal 0 0 0
outer loop
vertex 23.312014 5.174756 6.999372
vertex 23.291538 5.174756 6.999372
vertex 23.312014 5.195509 6.999372
endloop
endfacet
facet normal 0 0 0
outer loop
vertex 23.312014 5.195509 6.999372
vertex 23.291538 5.174756 6.999372
vertex 23.291538 5.195509 6.999372
endloop
endfacet
facet normal 0 0 0
outer loop
vertex 23.332489 5.174756 6.999372
vertex 23.312014 5.174756 6.999372
vertex 23.332489 5.195509 6.999372
endloop
endfacet
facet normal 0 0 0
outer loop
vertex 23.332489 5.195509 6.999372
vertex 23.312014 5.174756 6.999372
vertex 23.312014 5.195509 6.999372
endloop
endfacet
facet normal 0 0 0
outer loop
vertex 23.352966 5.174756 6.999372
vertex 23.332489 5.174756 6.999372
vertex 23.352966 5.195509 6.999372
endloop
endfacet
facet normal 0 0 0
outer loop
vertex 23.352966 5.195509 6.999372
vertex 23.332489 5.174756 6.999372
vertex 23.332489 5.195509 6.999372
endloop
endfacet
facet normal 0 0 0
outer loop
vertex 23.373442 5.195509 6.999372
vertex 23.352966 5.174756 6.999372
vertex 23.352966 5.195509 6.999372
endloop
endfacet
facet normal 0 0 0
outer loop
vertex 23.312014 5.195509 6.999372
vertex 23.291538 5.195509 6.999372
vertex 23.312014 5.216263 6.999372
endloop
endfacet
facet normal 0 0 0
outer loop
vertex 23.312014 5.216263 6.999372
vertex 23.291538 5.195509 6.999372
vertex 23.291538 5.216263 6.999372
endloop
endfacet
facet normal 0 0 0
outer loop
vertex 23.332489 5.195509 6.999372
vertex 23.312014 5.195509 6.999372
vertex 23.332489 5.216263 6.999372
endloop
endfacet
facet normal 0 0 0
outer loop
vertex 23.332489 5.216263 6.999372
vertex 23.312014 5.195509 6.999372
vertex 23.312014 5.216263 6.999372
endloop
endfacet
facet normal 0 0 0
outer loop
vertex 23.352966 5.195509 6.999372
vertex 23.332489 5.195509 6.999372
vertex 23.352966 5.216263 6.999372
endloop
endfacet
facet normal 0 0 0
outer loop
vertex 23.352966 5.216263 6.999372
vertex 23.332489 5.195509 6.999372
vertex 23.332489 5.216263 6.999372
endloop
endfacet
facet normal 0 0 0
outer loop
vertex 23.373442 5.195509 6.999372
vertex 23.352966 5.195509 6.999372
vertex 23.373442 5.216263 6.999372
endloop
endfacet
facet normal 0 0 0
outer loop
vertex 23.373442 5.216263 6.999372
vertex 23.352966 5.195509 6.999372
vertex 23.352966 5.216263 6.999372
endloop
endfacet
facet normal 0 0 0
outer loop
vertex 23.271063 5.216263 6.999372
vertex 23.250586 5.216263 6.999372
vertex 23.271063 5.237016 6.999372
endloop
endfacet
facet normal 0 0 0
outer loop
vertex 23.312014 5.216263 6.999372
vertex 23.291538 5.216263 6.999372
vertex 23.312014 5.237016 6.999372
endloop
endfacet
facet normal 0 0 0
outer loop
vertex 23.312014 5.237016 6.999372
vertex 23.291538 5.216263 6.999372
vertex 23.291538 5.237016 6.999372
endloop
endfacet
facet normal 0 0 0
outer loop
vertex 23.332489 5.216263 6.999372
vertex 23.312014 5.216263 6.999372
vertex 23.332489 5.237016 6.999372
endloop
endfacet
facet normal 0 0 0
outer loop
vertex 23.332489 5.237016 6.999372
vertex 23.312014 5.216263 6.999372
vertex 23.312014 5.237016 6.999372
endloop
endfacet
facet normal 0 0 0
outer loop
vertex 23.352966 5.216263 6.999372
vertex 23.332489 5.216263 6.999372
vertex 23.352966 5.237016 6.999372
endloop
endfacet
facet normal 0 0 0
outer loop
vertex 23.352966 5.237016 6.999372
vertex 23.332489 5.216263 6.999372
vertex 23.332489 5.237016 6.999372
endloop
endfacet
facet normal 0 0 0
outer loop
vertex 23.352966 5.237016 6.999372
vertex 23.373442 5.216263 6.999372
vertex 23.352966 5.216263 6.999372
endloop
endfacet
facet normal 0 0 0
outer loop
vertex 23.291538 5.237016 6.999372
vertex 23.271063 5.237016 6.999372
vertex 23.291538 5.257770 6.999372
endloop
endfacet
facet normal 0 0 0
outer loop
vertex 23.291538 5.257770 6.999372
vertex 23.271063 5.237016 6.999372
vertex 23.271063 5.257770 6.999372
endloop
endfacet
facet normal 0 0 0
outer loop
vertex 23.312014 5.237016 6.999372
vertex 23.291538 5.237016 6.999372
vertex 23.312014 5.257770 6.999372
endloop
endfacet
facet normal 0 0 0
outer loop
vertex 23.312014 5.257770 6.999372
vertex 23.291538 5.237016 6.999372
vertex 23.291538 5.257770 6.999372
endloop
endfacet
facet normal 0 0 0
outer loop
vertex 23.332489 5.237016 6.999372
vertex 23.312014 5.237016 6.999372
vertex 23.332489 5.257770 6.999372
endloop
endfacet
facet normal 0 0 0
outer loop
vertex 23.332489 5.257770 6.999372
vertex 23.312014 5.237016 6.999372
vertex 23.312014 5.257770 6.999372
endloop
endfacet
facet normal 0 0 0
outer loop
vertex 23.352966 5.237016 6.999372
vertex 23.332489 5.237016 6.999372
vertex 23.352966 5.257770 6.999372
endloop
endfacet
facet normal 0 0 0
outer loop
vertex 23.352966 5.257770 6.999372
vertex 23.332489 5.237016 6.999372
vertex 23.332489 5.257770 6.999372
endloop
endfacet
facet normal 0 0 0
outer loop
vertex 23.291538 5.257770 6.999372
vertex 23.271063 5.257770 6.999372
vertex 23.291538 5.278522 6.999372
endloop
endfacet
facet normal 0 0 0
outer loop
vertex 23.312014 5.257770 6.999372
vertex 23.291538 5.257770 6.999372
vertex 23.312014 5.278522 6.999372
endloop
endfacet
facet normal 0 0 0
outer loop
vertex 23.312014 5.278522 6.999372
vertex 23.291538 5.257770 6.999372
vertex 23.291538 5.278522 6.999372
endloop
endfacet
facet normal 0 0 0
outer loop
vertex 23.332489 5.257770 6.999372
vertex 23.312014 5.257770 6.999372
vertex 23.332489 5.278522 6.999372
endloop
endfacet
facet normal 0 0 0
outer loop
vertex 23.332489 5.278522 6.999372
vertex 23.312014 5.257770 6.999372
vertex 23.312014 5.278522 6.999372
endloop
endfacet
facet normal 0 0 0
outer loop
vertex 23.332489 5.278522 6.999372
vertex 23.352966 5.257770 6.999372
vertex 23.332489 5.257770 6.999372
endloop
endfacet
facet normal 0 0 0
outer loop
vertex 23.271063 5.278522 6.999372
vertex 23.250586 5.278522 6.999372
vertex 23.271063 5.299275 6.999372
endloop
endfacet
facet normal 0 0 0
outer loop
vertex 23.271063 5.299275 6.999372
vertex 23.250586 5.278522 6.999372
vertex 23.250586 5.299275 6.999372
endloop
endfacet
facet normal 0 0 0
outer loop
vertex 23.291538 5.278522 6.999372
vertex 23.271063 5.278522 6.999372
vertex 23.291538 5.299275 6.999372
endloop
endfacet
facet normal 0 0 0
outer loop
vertex 23.312014 5.278522 6.999372
vertex 23.291538 5.278522 6.999372
vertex 23.312014 5.299275 6.999372
endloop
endfacet
facet normal 0 0 0
outer loop
vertex 23.312014 5.299275 6.999372
vertex 23.291538 5.278522 6.999372
vertex 23.291538 5.299275 6.999372
endloop
endfacet
facet normal 0 0 0
outer loop
vertex 23.312014 5.299275 6.999372
vertex 23.332489 5.278522 6.999372
vertex 23.312014 5.278522 6.999372
endloop
endfacet
facet normal 0 0 0
outer loop
vertex 23.271063 5.174756 6.999372
vertex 23.291538 5.154002 6.999372
vertex 23.291538 5.174756 6.999372
endloop
endfacet
facet normal 0 0 0
outer loop
vertex 23.332489 5.174756 6.999372
vertex 23.312014 5.174756 6.999372
vertex 23.312014 5.154002 6.999372
endloop
endfacet
facet normal 0 0 0
outer loop
vertex 23.352966 5.174756 7.019372
vertex 23.332489 5.174756 6.999372
vertex 23.352966 5.154002 6.999372
endloop
endfacet
facet normal 0 0 0
outer loop
vertex 23.332489 5.174756 6.999372
vertex 23.332489 5.154002 6.999372
vertex 23.352966 5.154002 6.999372
endloop
endfacet
facet normal 0 0 0
outer loop
vertex 23.352966 5.174756 7.019372
vertex 23.352966 5.154002 6.999372
vertex 23.352966 5.174756 6.999372
endloop
endfacet
facet normal 0 0 0
outer loop
vertex 23.291538 5.195509 6.999372
vertex 23.271063 5.195509 6.999372
vertex 23.271063 5.174756 6.999372
endloop
endfacet
facet normal 0 0 0
outer loop
vertex 23.332489 5.195509 7.019372
vertex 23.312014 5.195509 6.999372
vertex 23.332489 5.174756 6.999372
endloop
endfacet
facet normal 0 0 0
outer loop
vertex 23.312014 5.195509 6.999372
vertex 23.312014 5.174756 6.999372
vertex 23.332489 5.174756 6.999372
endloop
endfacet
facet normal 0 0 0
outer loop
vertex 23.352966 5.174756 7.019372
vertex 23.332489 5.195509 7.019372
vertex 23.332489 5.174756 6.999372
endloop
endfacet
facet normal 0 0 0
outer loop
vertex 23.352966 5.174756 6.999372
vertex 23.373442 5.195509 7.019372
vertex 23.352966 5.174756 7.019372
endloop
endfacet
facet normal 0 0 0
outer loop
vertex 23.373442 5.195509 6.999372
vertex 23.373442 5.195509 7.019372
vertex 23.352966 5.174756 6.999372
endloop
endfacet
facet normal 0 0 0
outer loop
vertex 23.250586 5.216263 6.999372
vertex 23.271063 5.195509 6.999372
vertex 23.271063 5.216263 6.999372
endloop
endfacet
facet normal 0 0 0
outer loop
vertex 23.291538 5.195509 6.999372
vertex 23.291538 5.216263 6.999372
vertex 23.271063 5.195509 6.999372
endloop
endfacet
facet normal 0 0 0
outer loop
vertex 23.291538 5.216263 6.999372
vertex 23.271063 5.216263 6.999372
vertex 23.271063 5.195509 6.999372
endloop
endfacet
facet normal 0 0 0
outer loop
vertex 23.312014 5.216263 7.019372
vertex 23.291538 5.216263 6.999372
vertex 23.312014 5.195509 6.999372
endloop
endfacet
facet normal 0 0 0
outer loop
vertex 23.291538 5.216263 6.999372
vertex 23.291538 5.195509 6.999372
vertex 23.312014 5.195509 6.999372
endloop
endfacet
facet normal 0 0 0
outer loop
vertex 23.332489 5.195509 7.019372
vertex 23.312014 5.216263 7.019372
vertex 23.312014 5.195509 6.999372
endloop
endfacet
facet normal 0 0 0
outer loop
vertex 23.373442 5.195509 6.999372
vertex 23.373442 5.216263 6.999372
vertex 23.373442 5.195509 7.019372
endloop
endfacet
facet normal 0 0 0
outer loop
vertex 23.373442 5.195509 7.019372
vertex 23.373442 5.216263 6.999372
vertex 23.373442 5.216263 7.019372
endloop
endfacet
facet normal 0 0 0
outer loop
vertex 23.271063 5.237016 6.999372
vertex 23.250586 5.237016 6.999372
vertex 23.250586 5.216263 6.999372
endloop
endfacet
facet normal 0 0 0
outer loop
vertex 23.291538 5.216263 6.999372
vertex 23.291538 5.237016 6.999372
vertex 23.271063 5.216263 6.999372
endloop
endfacet
facet normal 0 0 0
outer loop
vertex 23.291538 5.237016 6.999372
vertex 23.271063 5.237016 6.999372
vertex 23.271063 5.216263 6.999372
endloop
endfacet
facet normal 0 0 0
outer loop
vertex 23.312014 5.237016 7.019372
vertex 23.291538 5.216263 6.999372
vertex 23.312014 5.216263 7.019372
endloop
endfacet
facet normal 0 0 0
outer loop
vertex 23.291538 5.237016 6.999372
vertex 23.291538 5.216263 6.999372
vertex 23.312014 5.237016 7.019372
endloop
endfacet
facet normal 0 0 0
outer loop
vertex 23.373442 5.216263 6.999372
vertex 23.352966 5.237016 6.999372
vertex 23.373442 5.237016 7.019372
endloop
endfacet
facet normal 0 0 0
outer loop
vertex 23.373442 5.216263 6.999372
vertex 23.373442 5.237016 7.019372
vertex 23.373442 5.216263 7.019372
endloop
endfacet
facet normal 0 0 0
outer loop
vertex 23.271063 5.237016 6.999372
vertex 23.271063 5.257770 6.999372
vertex 23.250586 5.237016 6.999372
endloop
endfacet
facet normal 0 0 0
outer loop
vertex 23.271063 5.257770 6.999372
vertex 23.250586 5.257770 6.999372
vertex 23.250586 5.237016 6.999372
endloop
endfacet
facet normal 0 0 0
outer loop
vertex 23.312014 5.257770 7.019372
vertex 23.291538 5.237016 6.999372
vertex 23.312014 5.237016 7.019372
endloop
endfacet
facet normal 0 0 0
outer loop
vertex 23.291538 5.257770 6.999372
vertex 23.291538 5.237016 6.999372
vertex 23.312014 5.257770 7.019372
endloop
endfacet
facet normal 0 0 0
outer loop
vertex 23.373442 5.237016 7.019372
vertex 23.352966 5.257770 6.999372
vertex 23.373442 5.257770 7.019372
endloop
endfacet
facet normal 0 0 0
outer loop
vertex 23.352966 5.237016 6.999372
vertex 23.352966 5.257770 6.999372
vertex 23.373442 5.237016 7.019372
endloop
endfacet
facet normal 0 0 0
outer loop
vertex 23.271063 5.257770 6.999372
vertex 23.271063 5.278522 6.999372
vertex 23.250586 5.257770 6.999372
endloop
endfacet
facet normal 0 0 0
outer loop
vertex 23.271063 5.278522 6.999372
vertex 23.250586 5.278522 6.999372
vertex 23.250586 5.257770 6.999372
endloop
endfacet
facet normal 0 0 0
outer loop
vertex 23.291538 5.278522 6.999372
vertex 23.271063 5.278522 6.999372
vertex 23.271063 5.257770 6.999372
endloop
endfacet
facet normal 0 0 0
outer loop
vertex 23.312014 5.278522 7.019372
vertex 23.291538 5.257770 6.999372
vertex 23.312014 5.257770 7.019372
endloop
endfacet
facet normal 0 0 0
outer loop
vertex 23.291538 5.278522 6.999372
vertex 23.291538 5.257770 6.999372
vertex 23.312014 5.278522 7.019372
endloop
endfacet
facet normal 0 0 0
outer loop
vertex 23.352966 5.257770 6.999372
vertex 23.332489 5.278522 6.999372
vertex 23.352966 5.278522 7.019372
endloop
endfacet
facet normal 0 0 0
outer loop
vertex 23.352966 5.257770 6.999372
vertex 23.352966 5.278522 7.019372
vertex 23.373442 5.257770 7.019372
endloop
endfacet
facet normal 0 0 0
outer loop
vertex 23.352966 5.278522 7.019372
vertex 23.373442 5.278522 7.019372
vertex 23.373442 5.257770 7.019372
endloop
endfacet
facet normal 0 0 0
outer loop
vertex 23.291538 5.299275 6.999372
vertex 23.271063 5.299275 6.999372
vertex 23.271063 5.278522 6.999372
endloop
endfacet
facet normal 0 0 0
outer loop
vertex 23.312014 5.299275 7.019372
vertex 23.291538 5.278522 6.999372
vertex 23.312014 5.278522 7.019372
endloop
endfacet
facet normal 0 0 0
outer loop
vertex 23.291538 5.299275 6.999372
vertex 23.291538 5.278522 6.999372
vertex 23.312014 5.299275 7.019372
endloop
endfacet
facet normal 0 0 0
outer loop
vertex 23.332489 5.278522 6.999372
vertex 23.312014 5.299275 6.999372
vertex 23.332489 5.299275 7.019372
endloop
endfacet
facet normal 0 0 0
outer loop
vertex 23.332489 5.278522 6.999372
vertex 23.332489 5.299275 7.019372
vertex 23.352966 5.278522 7.019372
endloop
endfacet
facet normal 0 0 0
outer loop
vertex 23.332489 5.299275 7.019372
vertex 23.352966 5.299275 7.019372
vertex 23.352966 5.278522 7.019372
endloop
endfacet
facet normal 0 0 0
outer loop
vertex 23.373442 5.278522 7.019372
vertex 23.352966 5.278522 7.019372
vertex 23.373442 5.299275 7.019372
endloop
endfacet
facet normal 0 0 0
outer loop
vertex 23.373442 5.299275 7.019372
vertex 23.352966 5.278522 7.019372
vertex 23.352966 5.299275 7.019372
endloop
endfacet
facet normal 0 0 0
outer loop
vertex 23.291538 5.299275 6.999372
vertex 23.312014 5.320029 7.019372
vertex 23.312014 5.299275 6.999372
endloop
endfacet
facet normal 0 0 0
outer loop
vertex 23.291538 5.299275 6.999372
vertex 23.312014 5.299275 7.019372
vertex 23.312014 5.320029 7.019372
endloop
endfacet
facet normal 0 0 0
outer loop
vertex 23.312014 5.299275 6.999372
vertex 23.312014 5.320029 7.019372
vertex 23.332489 5.299275 7.019372
endloop
endfacet
facet normal 0 0 0
outer loop
vertex 23.312014 5.320029 7.019372
vertex 23.332489 5.320029 7.019372
vertex 23.332489 5.299275 7.019372
endloop
endfacet
facet normal 0 0 0
outer loop
vertex 23.352966 5.299275 7.019372
vertex 23.332489 5.299275 7.019372
vertex 23.352966 5.320029 7.019372
endloop
endfacet
facet normal 0 0 0
outer loop
vertex 23.352966 5.320029 7.019372
vertex 23.332489 5.299275 7.019372
vertex 23.332489 5.320029 7.019372
endloop
endfacet
facet normal 0 0 0
outer loop
vertex 23.352966 5.320029 7.019372
vertex 23.373442 5.299275 7.019372
vertex 23.352966 5.299275 7.019372
endloop
endfacet
facet normal 0 0 0
outer loop
vertex 23.332489 5.195509 7.019372
vertex 23.352966 5.174756 7.019372
vertex 23.352966 5.195509 7.019372
endloop
endfacet
facet normal 0 0 0
outer loop
vertex 23.352966 5.174756 7.019372
vertex 23.373442 5.195509 7.019372
vertex 23.352966 5.195509 7.019372
endloop
endfacet
facet normal 0 0 0
outer loop
vertex 23.312014 5.216263 7.019372
vertex 23.332489 5.195509 7.019372
vertex 23.332489 5.216263 7.019372
endloop
endfacet
facet normal 0 0 0
outer loop
vertex 23.352966 5.195509 7.019372
vertex 23.352966 5.216263 7.019372
vertex 23.332489 5.195509 7.019372
endloop
endfacet
facet normal 0 0 0
outer loop
vertex 23.352966 5.216263 7.019372
vertex 23.332489 5.216263 7.019372
vertex 23.332489 5.195509 7.019372
endloop
endfacet
facet normal 0 0 0
outer loop
vertex 23.373442 5.195509 7.019372
vertex 23.373442 5.216263 7.019372
vertex 23.352966 5.195509 7.019372
endloop
endfacet
facet normal 0 0 0
outer loop
vertex 23.373442 5.216263 7.019372
vertex 23.352966 5.216263 7.019372
vertex 23.352966 5.195509 7.019372
endloop
endfacet
facet normal 0 0 0
outer loop
vertex 23.332489 5.216263 7.019372
vertex 23.332489 5.237016 7.019372
vertex 23.312014 5.216263 7.019372
endloop
endfacet
facet normal 0 0 0
outer loop
vertex 23.332489 5.237016 7.019372
vertex 23.312014 5.237016 7.019372
vertex 23.312014 5.216263 7.019372
endloop
endfacet
facet normal 0 0 0
outer loop
vertex 23.352966 5.216263 7.019372
vertex 23.352966 5.237016 7.019372
vertex 23.332489 5.216263 7.019372
endloop
endfacet
facet normal 0 0 0
outer loop
vertex 23.352966 5.237016 7.019372
vertex 23.332489 5.237016 7.019372
vertex 23.332489 5.216263 7.019372
endloop
endfacet
facet normal 0 0 0
outer loop
vertex 23.373442 5.216263 7.019372
vertex 23.373442 5.237016 7.019372
vertex 23.352966 5.216263 7.019372
endloop
endfacet
facet normal 0 0 0
outer loop
vertex 23.373442 5.237016 7.019372
vertex 23.352966 5.237016 7.019372
vertex 23.352966 5.216263 7.019372
endloop
endfacet
facet normal 0 0 0
outer loop
vertex 23.332489 5.257770 7.039372
vertex 23.312014 5.257770 7.019372
vertex 23.332489 5.237016 7.019372
endloop
endfacet
facet normal 0 0 0
outer loop
vertex 23.312014 5.257770 7.019372
vertex 23.312014 5.237016 7.019372
vertex 23.332489 5.237016 7.019372
endloop
endfacet
facet normal 0 0 0
outer loop
vertex 23.332489 5.257770 7.039372
vertex 23.332489 5.237016 7.019372
vertex 23.352966 5.257770 7.019372
endloop
endfacet
facet normal 0 0 0
outer loop
vertex 23.332489 5.237016 7.019372
vertex 23.352966 5.237016 7.019372
vertex 23.352966 5.257770 7.019372
endloop
endfacet
facet normal 0 0 0
outer loop
vertex 23.373442 5.237016 7.019372
vertex 23.373442 5.257770 7.019372
vertex 23.352966 5.237016 7.019372
endloop
endfacet
facet normal 0 0 0
outer loop
vertex 23.373442 5.257770 7.019372
vertex 23.352966 5.257770 7.019372
vertex 23.352966 5.237016 7.019372
endloop
endfacet
facet normal 0 0 0
outer loop
vertex 23.332489 5.278522 7.039372
vertex 23.312014 5.257770 7.019372
vertex 23.332489 5.257770 7.039372
endloop
endfacet
facet normal 0 0 0
outer loop
vertex 23.312014 5.278522 7.019372
vertex 23.312014 5.257770 7.019372
vertex 23.332489 5.278522 7.039372
endloop
endfacet
facet normal 0 0 0
outer loop
vertex 23.352966 5.278522 7.019372
vertex 23.332489 5.257770 7.039372
vertex 23.352966 5.257770 7.019372
endloop
endfacet
facet normal 0 0 0
outer loop
vertex 23.332489 5.278522 7.039372
vertex 23.332489 5.257770 7.039372
vertex 23.352966 5.278522 7.019372
endloop
endfacet
facet normal 0 0 0
outer loop
vertex 23.373442 5.257770 7.019372
vertex 23.373442 5.278522 7.019372
vertex 23.352966 5.257770 7.019372
endloop
endfacet
facet normal 0 0 0
outer loop
vertex 23.373442 5.278522 7.019372
vertex 23.352966 5.278522 7.019372
vertex 23.352966 5.257770 7.019372
endloop
endfacet
facet normal 0 0 0
outer loop
vertex 23.312014 5.278522 7.019372
vertex 23.312014 5.299275 7.039372
vertex 23.312014 5.299275 7.019372
endloop
endfacet
facet normal 0 0 0
outer loop
vertex 23.312014 5.299275 7.019372
vertex 23.312014 5.299275 7.039372
vertex 23.291538 5.299275 7.039372
endloop
endfacet
facet normal 0 0 0
outer loop
vertex 23.332489 5.278522 7.039372
vertex 23.312014 5.299275 7.039372
vertex 23.312014 5.278522 7.019372
endloop
endfacet
facet normal 0 0 0
outer loop
vertex 23.352966 5.299275 7.019372
vertex 23.332489 5.278522 7.039372
vertex 23.352966 5.278522 7.019372
endloop
endfacet
facet normal 0 0 0
outer loop
vertex 23.332489 5.299275 7.039372
vertex 23.332489 5.278522 7.039372
vertex 23.352966 5.299275 7.019372
endloop
endfacet
facet normal 0 0 0
outer loop
vertex 23.312014 5.299275 7.019372
vertex 23.291538 5.320029 7.039372
vertex 23.312014 5.320029 7.019372
endloop
endfacet
facet normal 0 0 0
outer loop
vertex 23.291538 5.299275 7.039372
vertex 23.291538 5.320029 7.039372
vertex 23.312014 5.299275 7.019372
endloop
endfacet
facet normal 0 0 0
outer loop
vertex 23.352966 5.320029 7.019372
vertex 23.332489 5.299275 7.039372
vertex 23.352966 5.299275 7.019372
endloop
endfacet
facet normal 0 0 0
outer loop
vertex 23.332489 5.320029 7.039372
vertex 23.332489 5.299275 7.039372
vertex 23.352966 5.320029 7.019372
endloop
endfacet
facet normal 0 0 0
outer loop
vertex 23.312014 5.320029 7.019372
vertex 23.291538 5.320029 7.039372
vertex 23.312014 5.320029 7.039372
endloop
endfacet
facet normal 0 0 0
outer loop
vertex 23.332489 5.320029 7.019372
vertex 23.312014 5.320029 7.019372
vertex 23.332489 5.320029 7.039372
endloop
endfacet
facet normal 0 0 0
outer loop
vertex 23.312014 5.320029 7.019372
vertex 23.312014 5.320029 7.039372
vertex 23.332489 5.320029 7.039372
endloop
endfacet
facet normal 0 0 0
outer loop
vertex 23.332489 5.320029 7.039372
vertex 23.352966 5.320029 7.019372
vertex 23.332489 5.320029 7.019372
endloop
endfacet
facet normal 0 0 0
outer loop
vertex 23.291538 5.278522 7.039372
vertex 23.312014 5.299275 7.039372
vertex 23.291538 5.299275 7.039372
endloop
endfacet
facet normal 0 0 0
outer loop
vertex 23.312014 5.299275 7.039372
vertex 23.332489 5.278522 7.039372
vertex 23.332489 5.299275 7.039372
endloop
endfacet
facet normal 0 0 0
outer loop
vertex 23.312014 5.299275 7.039372
vertex 23.312014 5.320029 7.039372
vertex 23.291538 5.299275 7.039372
endloop
endfacet
facet normal 0 0 0
outer loop
vertex 23.312014 5.320029 7.039372
vertex 23.291538 5.320029 7.039372
vertex 23.291538 5.299275 7.039372
endloop
endfacet
facet normal 0 0 0
outer loop
vertex 23.332489 5.299275 7.039372
vertex 23.332489 5.320029 7.039372
vertex 23.312014 5.299275 7.039372
endloop
endfacet
facet normal 0 0 0
outer loop
vertex 23.332489 5.320029 7.039372
vertex 23.312014 5.320029 7.039372
vertex 23.312014 5.299275 7.039372
endloop
endfacet
endsolid B-16-Plag.125
