solid B-16-Plag.003
facet normal 0 0 0
outer loop
vertex 3.389061 6.357696 2.819372
vertex 3.368585 6.378448 2.819372
vertex 3.389061 6.378448 2.819372
endloop
endfacet
facet normal 0 0 0
outer loop
vertex 3.409537 6.357696 2.819372
vertex 3.389061 6.357696 2.819372
vertex 3.409537 6.378448 2.819372
endloop
endfacet
facet normal 0 0 0
outer loop
vertex 3.409537 6.378448 2.819372
vertex 3.389061 6.357696 2.819372
vertex 3.389061 6.378448 2.819372
endloop
endfacet
facet normal 0 0 0
outer loop
vertex 3.430013 6.357696 2.819372
vertex 3.409537 6.357696 2.819372
vertex 3.430013 6.378448 2.819372
endloop
endfacet
facet normal 0 0 0
outer loop
vertex 3.430013 6.378448 2.819372
vertex 3.409537 6.357696 2.819372
vertex 3.409537 6.378448 2.819372
endloop
endfacet
facet normal 0 0 0
outer loop
vertex 3.450489 6.357696 2.819372
vertex 3.430013 6.357696 2.819372
vertex 3.450489 6.378448 2.819372
endloop
endfacet
facet normal 0 0 0
outer loop
vertex 3.450489 6.378448 2.819372
vertex 3.430013 6.357696 2.819372
vertex 3.430013 6.378448 2.819372
endloop
endfacet
facet normal 0 0 0
outer loop
vertex 3.470964 6.378448 2.819372
vertex 3.450489 6.357696 2.819372
vertex 3.450489 6.378448 2.819372
endloop
endfacet
facet normal 0 0 0
outer loop
vertex 3.368585 6.378448 2.819372
vertex 3.348109 6.399202 2.819372
vertex 3.368585 6.399202 2.819372
endloop
endfacet
facet normal 0 0 0
outer loop
vertex 3.389061 6.378448 2.819372
vertex 3.368585 6.378448 2.819372
vertex 3.389061 6.399202 2.819372
endloop
endfacet
facet normal 0 0 0
outer loop
vertex 3.389061 6.399202 2.819372
vertex 3.368585 6.378448 2.819372
vertex 3.368585 6.399202 2.819372
endloop
endfacet
facet normal 0 0 0
outer loop
vertex 3.409537 6.378448 2.819372
vertex 3.389061 6.378448 2.819372
vertex 3.409537 6.399202 2.819372
endloop
endfacet
facet normal 0 0 0
outer loop
vertex 3.409537 6.399202 2.819372
vertex 3.389061 6.378448 2.819372
vertex 3.389061 6.399202 2.819372
endloop
endfacet
facet normal 0 0 0
outer loop
vertex 3.430013 6.378448 2.819372
vertex 3.409537 6.378448 2.819372
vertex 3.430013 6.399202 2.819372
endloop
endfacet
facet normal 0 0 0
outer loop
vertex 3.430013 6.399202 2.819372
vertex 3.409537 6.378448 2.819372
vertex 3.409537 6.399202 2.819372
endloop
endfacet
facet normal 0 0 0
outer loop
vertex 3.450489 6.378448 2.819372
vertex 3.430013 6.378448 2.819372
vertex 3.450489 6.399202 2.819372
endloop
endfacet
facet normal 0 0 0
outer loop
vertex 3.450489 6.399202 2.819372
vertex 3.430013 6.378448 2.819372
vertex 3.430013 6.399202 2.819372
endloop
endfacet
facet normal 0 0 0
outer loop
vertex 3.470964 6.378448 2.819372
vertex 3.450489 6.378448 2.819372
vertex 3.470964 6.399202 2.819372
endloop
endfacet
facet normal 0 0 0
outer loop
vertex 3.470964 6.399202 2.819372
vertex 3.450489 6.378448 2.819372
vertex 3.450489 6.399202 2.819372
endloop
endfacet
facet normal 0 0 0
outer loop
vertex 3.491440 6.399202 2.819372
vertex 3.470964 6.378448 2.819372
vertex 3.470964 6.399202 2.819372
endloop
endfacet
facet normal 0 0 0
outer loop
vertex 3.368585 6.399202 2.819372
vertex 3.348109 6.399202 2.819372
vertex 3.368585 6.419955 2.819372
endloop
endfacet
facet normal 0 0 0
outer loop
vertex 3.368585 6.419955 2.819372
vertex 3.348109 6.399202 2.819372
vertex 3.348109 6.419955 2.819372
endloop
endfacet
facet normal 0 0 0
outer loop
vertex 3.389061 6.399202 2.819372
vertex 3.368585 6.399202 2.819372
vertex 3.389061 6.419955 2.819372
endloop
endfacet
facet normal 0 0 0
outer loop
vertex 3.389061 6.419955 2.819372
vertex 3.368585 6.399202 2.819372
vertex 3.368585 6.419955 2.819372
endloop
endfacet
facet normal 0 0 0
outer loop
vertex 3.409537 6.399202 2.819372
vertex 3.389061 6.399202 2.819372
vertex 3.409537 6.419955 2.819372
endloop
endfacet
facet normal 0 0 0
outer loop
vertex 3.409537 6.419955 2.819372
vertex 3.389061 6.399202 2.819372
vertex 3.389061 6.419955 2.819372
endloop
endfacet
facet normal 0 0 0
outer loop
vertex 3.430013 6.399202 2.819372
vertex 3.409537 6.399202 2.819372
vertex 3.430013 6.419955 2.819372
endloop
endfacet
facet normal 0 0 0
outer loop
vertex 3.430013 6.419955 2.819372
vertex 3.409537 6.399202 2.819372
vertex 3.409537 6.419955 2.819372
endloop
endfacet
facet normal 0 0 0
outer loop
vertex 3.450489 6.399202 2.819372
vertex 3.430013 6.399202 2.819372
vertex 3.450489 6.419955 2.819372
endloop
endfacet
facet normal 0 0 0
outer loop
vertex 3.450489 6.419955 2.819372
vertex 3.430013 6.399202 2.819372
vertex 3.430013 6.419955 2.819372
endloop
endfacet
facet normal 0 0 0
outer loop
vertex 3.470964 6.399202 2.819372
vertex 3.450489 6.399202 2.819372
vertex 3.470964 6.419955 2.819372
endloop
endfacet
facet normal 0 0 0
outer loop
vertex 3.470964 6.419955 2.819372
vertex 3.450489 6.399202 2.819372
vertex 3.450489 6.419955 2.819372
endloop
endfacet
facet normal 0 0 0
outer loop
vertex 3.491440 6.399202 2.819372
vertex 3.470964 6.399202 2.819372
vertex 3.491440 6.419955 2.819372
endloop
endfacet
facet normal 0 0 0
outer loop
vertex 3.491440 6.419955 2.819372
vertex 3.470964 6.399202 2.819372
vertex 3.470964 6.419955 2.819372
endloop
endfacet
facet normal 0 0 0
outer loop
vertex 3.368585 6.419955 2.819372
vertex 3.348109 6.419955 2.819372
vertex 3.368585 6.440709 2.819372
endloop
endfacet
facet normal 0 0 0
outer loop
vertex 3.368585 6.440709 2.819372
vertex 3.348109 6.419955 2.819372
vertex 3.348109 6.440709 2.819372
endloop
endfacet
facet normal 0 0 0
outer loop
vertex 3.389061 6.419955 2.819372
vertex 3.368585 6.419955 2.819372
vertex 3.389061 6.440709 2.819372
endloop
endfacet
facet normal 0 0 0
outer loop
vertex 3.389061 6.440709 2.819372
vertex 3.368585 6.419955 2.819372
vertex 3.368585 6.440709 2.819372
endloop
endfacet
facet normal 0 0 0
outer loop
vertex 3.409537 6.419955 2.819372
vertex 3.389061 6.419955 2.819372
vertex 3.409537 6.440709 2.819372
endloop
endfacet
facet normal 0 0 0
outer loop
vertex 3.409537 6.440709 2.819372
vertex 3.389061 6.419955 2.819372
vertex 3.389061 6.440709 2.819372
endloop
endfacet
facet normal 0 0 0
outer loop
vertex 3.430013 6.419955 2.819372
vertex 3.409537 6.419955 2.819372
vertex 3.430013 6.440709 2.819372
endloop
endfacet
facet normal 0 0 0
outer loop
vertex 3.430013 6.440709 2.819372
vertex 3.409537 6.419955 2.819372
vertex 3.409537 6.440709 2.819372
endloop
endfacet
facet normal 0 0 0
outer loop
vertex 3.450489 6.419955 2.819372
vertex 3.430013 6.419955 2.819372
vertex 3.450489 6.440709 2.819372
endloop
endfacet
facet normal 0 0 0
outer loop
vertex 3.450489 6.440709 2.819372
vertex 3.430013 6.419955 2.819372
vertex 3.430013 6.440709 2.819372
endloop
endfacet
facet normal 0 0 0
outer loop
vertex 3.470964 6.419955 2.819372
vertex 3.450489 6.419955 2.819372
vertex 3.470964 6.440709 2.819372
endloop
endfacet
facet normal 0 0 0
outer loop
vertex 3.470964 6.440709 2.819372
vertex 3.450489 6.419955 2.819372
vertex 3.450489 6.440709 2.819372
endloop
endfacet
facet normal 0 0 0
outer loop
vertex 3.491440 6.419955 2.819372
vertex 3.470964 6.419955 2.819372
vertex 3.491440 6.440709 2.819372
endloop
endfacet
facet normal 0 0 0
outer loop
vertex 3.491440 6.440709 2.819372
vertex 3.470964 6.419955 2.819372
vertex 3.470964 6.440709 2.819372
endloop
endfacet
facet normal 0 0 0
outer loop
vertex 3.511916 6.440709 2.819372
vertex 3.491440 6.419955 2.819372
vertex 3.491440 6.440709 2.819372
endloop
endfacet
facet normal 0 0 0
outer loop
vertex 3.368585 6.440709 2.819372
vertex 3.348109 6.440709 2.819372
vertex 3.368585 6.461462 2.819372
endloop
endfacet
facet normal 0 0 0
outer loop
vertex 3.368585 6.461462 2.819372
vertex 3.348109 6.440709 2.819372
vertex 3.348109 6.461462 2.819372
endloop
endfacet
facet normal 0 0 0
outer loop
vertex 3.389061 6.440709 2.819372
vertex 3.368585 6.440709 2.819372
vertex 3.389061 6.461462 2.819372
endloop
endfacet
facet normal 0 0 0
outer loop
vertex 3.389061 6.461462 2.819372
vertex 3.368585 6.440709 2.819372
vertex 3.368585 6.461462 2.819372
endloop
endfacet
facet normal 0 0 0
outer loop
vertex 3.409537 6.440709 2.819372
vertex 3.389061 6.440709 2.819372
vertex 3.409537 6.461462 2.819372
endloop
endfacet
facet normal 0 0 0
outer loop
vertex 3.409537 6.461462 2.819372
vertex 3.389061 6.440709 2.819372
vertex 3.389061 6.461462 2.819372
endloop
endfacet
facet normal 0 0 0
outer loop
vertex 3.430013 6.440709 2.819372
vertex 3.409537 6.440709 2.819372
vertex 3.430013 6.461462 2.819372
endloop
endfacet
facet normal 0 0 0
outer loop
vertex 3.430013 6.461462 2.819372
vertex 3.409537 6.440709 2.819372
vertex 3.409537 6.461462 2.819372
endloop
endfacet
facet normal 0 0 0
outer loop
vertex 3.450489 6.440709 2.819372
vertex 3.430013 6.440709 2.819372
vertex 3.450489 6.461462 2.819372
endloop
endfacet
facet normal 0 0 0
outer loop
vertex 3.450489 6.461462 2.819372
vertex 3.430013 6.440709 2.819372
vertex 3.430013 6.461462 2.819372
endloop
endfacet
facet normal 0 0 0
outer loop
vertex 3.470964 6.440709 2.819372
vertex 3.450489 6.440709 2.819372
vertex 3.470964 6.461462 2.819372
endloop
endfacet
facet normal 0 0 0
outer loop
vertex 3.470964 6.461462 2.819372
vertex 3.450489 6.440709 2.819372
vertex 3.450489 6.461462 2.819372
endloop
endfacet
facet normal 0 0 0
outer loop
vertex 3.491440 6.440709 2.819372
vertex 3.470964 6.440709 2.819372
vertex 3.491440 6.461462 2.819372
endloop
endfacet
facet normal 0 0 0
outer loop
vertex 3.491440 6.461462 2.819372
vertex 3.470964 6.440709 2.819372
vertex 3.470964 6.461462 2.819372
endloop
endfacet
facet normal 0 0 0
outer loop
vertex 3.511916 6.440709 2.819372
vertex 3.491440 6.440709 2.819372
vertex 3.511916 6.461462 2.819372
endloop
endfacet
facet normal 0 0 0
outer loop
vertex 3.511916 6.461462 2.819372
vertex 3.491440 6.440709 2.819372
vertex 3.491440 6.461462 2.819372
endloop
endfacet
facet normal 0 0 0
outer loop
vertex 3.532392 6.461462 2.819372
vertex 3.511916 6.440709 2.819372
vertex 3.511916 6.461462 2.819372
endloop
endfacet
facet normal 0 0 0
outer loop
vertex 3.348109 6.461462 2.819372
vertex 3.368585 6.482215 2.819372
vertex 3.368585 6.461462 2.819372
endloop
endfacet
facet normal 0 0 0
outer loop
vertex 3.389061 6.461462 2.819372
vertex 3.368585 6.461462 2.819372
vertex 3.389061 6.482215 2.819372
endloop
endfacet
facet normal 0 0 0
outer loop
vertex 3.389061 6.482215 2.819372
vertex 3.368585 6.461462 2.819372
vertex 3.368585 6.482215 2.819372
endloop
endfacet
facet normal 0 0 0
outer loop
vertex 3.409537 6.461462 2.819372
vertex 3.389061 6.461462 2.819372
vertex 3.409537 6.482215 2.819372
endloop
endfacet
facet normal 0 0 0
outer loop
vertex 3.409537 6.482215 2.819372
vertex 3.389061 6.461462 2.819372
vertex 3.389061 6.482215 2.819372
endloop
endfacet
facet normal 0 0 0
outer loop
vertex 3.430013 6.461462 2.819372
vertex 3.409537 6.461462 2.819372
vertex 3.430013 6.482215 2.819372
endloop
endfacet
facet normal 0 0 0
outer loop
vertex 3.430013 6.482215 2.819372
vertex 3.409537 6.461462 2.819372
vertex 3.409537 6.482215 2.819372
endloop
endfacet
facet normal 0 0 0
outer loop
vertex 3.450489 6.461462 2.819372
vertex 3.430013 6.461462 2.819372
vertex 3.450489 6.482215 2.819372
endloop
endfacet
facet normal 0 0 0
outer loop
vertex 3.450489 6.482215 2.819372
vertex 3.430013 6.461462 2.819372
vertex 3.430013 6.482215 2.819372
endloop
endfacet
facet normal 0 0 0
outer loop
vertex 3.470964 6.461462 2.819372
vertex 3.450489 6.461462 2.819372
vertex 3.470964 6.482215 2.819372
endloop
endfacet
facet normal 0 0 0
outer loop
vertex 3.470964 6.482215 2.819372
vertex 3.450489 6.461462 2.819372
vertex 3.450489 6.482215 2.819372
endloop
endfacet
facet normal 0 0 0
outer loop
vertex 3.491440 6.461462 2.819372
vertex 3.470964 6.461462 2.819372
vertex 3.491440 6.482215 2.819372
endloop
endfacet
facet normal 0 0 0
outer loop
vertex 3.491440 6.482215 2.819372
vertex 3.470964 6.461462 2.819372
vertex 3.470964 6.482215 2.819372
endloop
endfacet
facet normal 0 0 0
outer loop
vertex 3.511916 6.461462 2.819372
vertex 3.491440 6.461462 2.819372
vertex 3.511916 6.482215 2.819372
endloop
endfacet
facet normal 0 0 0
outer loop
vertex 3.511916 6.482215 2.819372
vertex 3.491440 6.461462 2.819372
vertex 3.491440 6.482215 2.819372
endloop
endfacet
facet normal 0 0 0
outer loop
vertex 3.532392 6.461462 2.819372
vertex 3.511916 6.461462 2.819372
vertex 3.532392 6.482215 2.819372
endloop
endfacet
facet normal 0 0 0
outer loop
vertex 3.532392 6.482215 2.819372
vertex 3.511916 6.461462 2.819372
vertex 3.511916 6.482215 2.819372
endloop
endfacet
facet normal 0 0 0
outer loop
vertex 3.368585 6.482215 2.819372
vertex 3.389061 6.502969 2.819372
vertex 3.389061 6.482215 2.819372
endloop
endfacet
facet normal 0 0 0
outer loop
vertex 3.409537 6.482215 2.819372
vertex 3.389061 6.482215 2.819372
vertex 3.409537 6.502969 2.819372
endloop
endfacet
facet normal 0 0 0
outer loop
vertex 3.409537 6.502969 2.819372
vertex 3.389061 6.482215 2.819372
vertex 3.389061 6.502969 2.819372
endloop
endfacet
facet normal 0 0 0
outer loop
vertex 3.430013 6.482215 2.819372
vertex 3.409537 6.482215 2.819372
vertex 3.430013 6.502969 2.819372
endloop
endfacet
facet normal 0 0 0
outer loop
vertex 3.430013 6.502969 2.819372
vertex 3.409537 6.482215 2.819372
vertex 3.409537 6.502969 2.819372
endloop
endfacet
facet normal 0 0 0
outer loop
vertex 3.450489 6.482215 2.819372
vertex 3.430013 6.482215 2.819372
vertex 3.450489 6.502969 2.819372
endloop
endfacet
facet normal 0 0 0
outer loop
vertex 3.450489 6.502969 2.819372
vertex 3.430013 6.482215 2.819372
vertex 3.430013 6.502969 2.819372
endloop
endfacet
facet normal 0 0 0
outer loop
vertex 3.470964 6.482215 2.819372
vertex 3.450489 6.482215 2.819372
vertex 3.470964 6.502969 2.819372
endloop
endfacet
facet normal 0 0 0
outer loop
vertex 3.470964 6.502969 2.819372
vertex 3.450489 6.482215 2.819372
vertex 3.450489 6.502969 2.819372
endloop
endfacet
facet normal 0 0 0
outer loop
vertex 3.491440 6.482215 2.819372
vertex 3.470964 6.482215 2.819372
vertex 3.491440 6.502969 2.819372
endloop
endfacet
facet normal 0 0 0
outer loop
vertex 3.491440 6.502969 2.819372
vertex 3.470964 6.482215 2.819372
vertex 3.470964 6.502969 2.819372
endloop
endfacet
facet normal 0 0 0
outer loop
vertex 3.511916 6.482215 2.819372
vertex 3.491440 6.482215 2.819372
vertex 3.511916 6.502969 2.819372
endloop
endfacet
facet normal 0 0 0
outer loop
vertex 3.511916 6.502969 2.819372
vertex 3.491440 6.482215 2.819372
vertex 3.491440 6.502969 2.819372
endloop
endfacet
facet normal 0 0 0
outer loop
vertex 3.532392 6.502969 2.819372
vertex 3.511916 6.482215 2.819372
vertex 3.511916 6.502969 2.819372
endloop
endfacet
facet normal 0 0 0
outer loop
vertex 3.409537 6.502969 2.819372
vertex 3.430013 6.523722 2.819372
vertex 3.430013 6.502969 2.819372
endloop
endfacet
facet normal 0 0 0
outer loop
vertex 3.450489 6.502969 2.819372
vertex 3.430013 6.502969 2.819372
vertex 3.450489 6.523722 2.819372
endloop
endfacet
facet normal 0 0 0
outer loop
vertex 3.450489 6.523722 2.819372
vertex 3.430013 6.502969 2.819372
vertex 3.430013 6.523722 2.819372
endloop
endfacet
facet normal 0 0 0
outer loop
vertex 3.470964 6.502969 2.819372
vertex 3.450489 6.502969 2.819372
vertex 3.470964 6.523722 2.819372
endloop
endfacet
facet normal 0 0 0
outer loop
vertex 3.470964 6.523722 2.819372
vertex 3.450489 6.502969 2.819372
vertex 3.450489 6.523722 2.819372
endloop
endfacet
facet normal 0 0 0
outer loop
vertex 3.470964 6.523722 2.819372
vertex 3.491440 6.502969 2.819372
vertex 3.470964 6.502969 2.819372
endloop
endfacet
facet normal 0 0 0
outer loop
vertex 3.409537 6.357696 2.819372
vertex 3.389061 6.357696 2.839372
vertex 3.389061 6.357696 2.819372
endloop
endfacet
facet normal 0 0 0
outer loop
vertex 3.450489 6.357696 2.839372
vertex 3.430013 6.357696 2.819372
vertex 3.450489 6.357696 2.819372
endloop
endfacet
facet normal 0 0 0
outer loop
vertex 3.389061 6.357696 2.839372
vertex 3.368585 6.378448 2.819372
vertex 3.389061 6.357696 2.819372
endloop
endfacet
facet normal 0 0 0
outer loop
vertex 3.368585 6.378448 2.839372
vertex 3.368585 6.378448 2.819372
vertex 3.389061 6.357696 2.839372
endloop
endfacet
facet normal 0 0 0
outer loop
vertex 3.409537 6.357696 2.819372
vertex 3.409537 6.378448 2.839372
vertex 3.389061 6.357696 2.839372
endloop
endfacet
facet normal 0 0 0
outer loop
vertex 3.430013 6.357696 2.819372
vertex 3.409537 6.378448 2.839372
vertex 3.409537 6.357696 2.819372
endloop
endfacet
facet normal 0 0 0
outer loop
vertex 3.430013 6.378448 2.839372
vertex 3.409537 6.378448 2.839372
vertex 3.430013 6.357696 2.819372
endloop
endfacet
facet normal 0 0 0
outer loop
vertex 3.450489 6.357696 2.839372
vertex 3.430013 6.378448 2.839372
vertex 3.430013 6.357696 2.819372
endloop
endfacet
facet normal 0 0 0
outer loop
vertex 3.450489 6.357696 2.819372
vertex 3.470964 6.378448 2.839372
vertex 3.450489 6.357696 2.839372
endloop
endfacet
facet normal 0 0 0
outer loop
vertex 3.470964 6.378448 2.819372
vertex 3.470964 6.378448 2.839372
vertex 3.450489 6.357696 2.819372
endloop
endfacet
facet normal 0 0 0
outer loop
vertex 3.470964 6.378448 2.819372
vertex 3.491440 6.378448 2.839372
vertex 3.470964 6.378448 2.839372
endloop
endfacet
facet normal 0 0 0
outer loop
vertex 3.368585 6.378448 2.839372
vertex 3.348109 6.399202 2.819372
vertex 3.368585 6.378448 2.819372
endloop
endfacet
facet normal 0 0 0
outer loop
vertex 3.348109 6.399202 2.839372
vertex 3.348109 6.399202 2.819372
vertex 3.368585 6.378448 2.839372
endloop
endfacet
facet normal 0 0 0
outer loop
vertex 3.470964 6.378448 2.819372
vertex 3.491440 6.399202 2.819372
vertex 3.491440 6.378448 2.839372
endloop
endfacet
facet normal 0 0 0
outer loop
vertex 3.491440 6.399202 2.819372
vertex 3.511916 6.399202 2.839372
vertex 3.491440 6.378448 2.839372
endloop
endfacet
facet normal 0 0 0
outer loop
vertex 3.348109 6.399202 2.819372
vertex 3.348109 6.399202 2.839372
vertex 3.348109 6.419955 2.819372
endloop
endfacet
facet normal 0 0 0
outer loop
vertex 3.348109 6.399202 2.839372
vertex 3.348109 6.419955 2.839372
vertex 3.348109 6.419955 2.819372
endloop
endfacet
facet normal 0 0 0
outer loop
vertex 3.511916 6.399202 2.839372
vertex 3.491440 6.419955 2.819372
vertex 3.511916 6.419955 2.839372
endloop
endfacet
facet normal 0 0 0
outer loop
vertex 3.491440 6.399202 2.819372
vertex 3.491440 6.419955 2.819372
vertex 3.511916 6.399202 2.839372
endloop
endfacet
facet normal 0 0 0
outer loop
vertex 3.327633 6.440709 2.839372
vertex 3.348109 6.440709 2.819372
vertex 3.348109 6.419955 2.839372
endloop
endfacet
facet normal 0 0 0
outer loop
vertex 3.348109 6.440709 2.819372
vertex 3.348109 6.419955 2.819372
vertex 3.348109 6.419955 2.839372
endloop
endfacet
facet normal 0 0 0
outer loop
vertex 3.491440 6.419955 2.819372
vertex 3.511916 6.440709 2.819372
vertex 3.511916 6.419955 2.839372
endloop
endfacet
facet normal 0 0 0
outer loop
vertex 3.511916 6.419955 2.839372
vertex 3.511916 6.440709 2.819372
vertex 3.511916 6.440709 2.839372
endloop
endfacet
facet normal 0 0 0
outer loop
vertex 3.327633 6.440709 2.839372
vertex 3.348109 6.461462 2.839372
vertex 3.348109 6.440709 2.819372
endloop
endfacet
facet normal 0 0 0
outer loop
vertex 3.348109 6.461462 2.839372
vertex 3.348109 6.461462 2.819372
vertex 3.348109 6.440709 2.819372
endloop
endfacet
facet normal 0 0 0
outer loop
vertex 3.532392 6.461462 2.819372
vertex 3.511916 6.461462 2.839372
vertex 3.511916 6.440709 2.819372
endloop
endfacet
facet normal 0 0 0
outer loop
vertex 3.511916 6.461462 2.839372
vertex 3.511916 6.440709 2.839372
vertex 3.511916 6.440709 2.819372
endloop
endfacet
facet normal 0 0 0
outer loop
vertex 3.348109 6.461462 2.839372
vertex 3.368585 6.482215 2.819372
vertex 3.348109 6.461462 2.819372
endloop
endfacet
facet normal 0 0 0
outer loop
vertex 3.368585 6.482215 2.839372
vertex 3.368585 6.482215 2.819372
vertex 3.348109 6.461462 2.839372
endloop
endfacet
facet normal 0 0 0
outer loop
vertex 3.511916 6.482215 2.819372
vertex 3.491440 6.482215 2.839372
vertex 3.511916 6.461462 2.839372
endloop
endfacet
facet normal 0 0 0
outer loop
vertex 3.511916 6.461462 2.839372
vertex 3.532392 6.461462 2.819372
vertex 3.511916 6.482215 2.819372
endloop
endfacet
facet normal 0 0 0
outer loop
vertex 3.532392 6.461462 2.819372
vertex 3.532392 6.482215 2.819372
vertex 3.511916 6.482215 2.819372
endloop
endfacet
facet normal 0 0 0
outer loop
vertex 3.368585 6.482215 2.839372
vertex 3.389061 6.502969 2.819372
vertex 3.368585 6.482215 2.819372
endloop
endfacet
facet normal 0 0 0
outer loop
vertex 3.389061 6.502969 2.839372
vertex 3.389061 6.502969 2.819372
vertex 3.368585 6.482215 2.839372
endloop
endfacet
facet normal 0 0 0
outer loop
vertex 3.491440 6.502969 2.819372
vertex 3.470964 6.502969 2.839372
vertex 3.491440 6.482215 2.839372
endloop
endfacet
facet normal 0 0 0
outer loop
vertex 3.491440 6.482215 2.839372
vertex 3.511916 6.482215 2.819372
vertex 3.491440 6.502969 2.819372
endloop
endfacet
facet normal 0 0 0
outer loop
vertex 3.511916 6.482215 2.819372
vertex 3.511916 6.502969 2.819372
vertex 3.491440 6.502969 2.819372
endloop
endfacet
facet normal 0 0 0
outer loop
vertex 3.532392 6.482215 2.819372
vertex 3.532392 6.502969 2.819372
vertex 3.511916 6.482215 2.819372
endloop
endfacet
facet normal 0 0 0
outer loop
vertex 3.409537 6.523722 2.839372
vertex 3.409537 6.502969 2.819372
vertex 3.389061 6.502969 2.839372
endloop
endfacet
facet normal 0 0 0
outer loop
vertex 3.409537 6.502969 2.819372
vertex 3.389061 6.502969 2.819372
vertex 3.389061 6.502969 2.839372
endloop
endfacet
facet normal 0 0 0
outer loop
vertex 3.409537 6.502969 2.819372
vertex 3.409537 6.523722 2.839372
vertex 3.430013 6.523722 2.819372
endloop
endfacet
facet normal 0 0 0
outer loop
vertex 3.470964 6.523722 2.819372
vertex 3.450489 6.523722 2.839372
vertex 3.470964 6.502969 2.839372
endloop
endfacet
facet normal 0 0 0
outer loop
vertex 3.491440 6.502969 2.819372
vertex 3.470964 6.523722 2.819372
vertex 3.470964 6.502969 2.839372
endloop
endfacet
facet normal 0 0 0
outer loop
vertex 3.430013 6.523722 2.819372
vertex 3.409537 6.523722 2.839372
vertex 3.430013 6.523722 2.839372
endloop
endfacet
facet normal 0 0 0
outer loop
vertex 3.450489 6.523722 2.819372
vertex 3.430013 6.523722 2.819372
vertex 3.450489 6.523722 2.839372
endloop
endfacet
facet normal 0 0 0
outer loop
vertex 3.430013 6.523722 2.819372
vertex 3.430013 6.523722 2.839372
vertex 3.450489 6.523722 2.839372
endloop
endfacet
facet normal 0 0 0
outer loop
vertex 3.450489 6.523722 2.839372
vertex 3.470964 6.523722 2.819372
vertex 3.450489 6.523722 2.819372
endloop
endfacet
facet normal 0 0 0
outer loop
vertex 3.368585 6.378448 2.839372
vertex 3.389061 6.357696 2.839372
vertex 3.389061 6.378448 2.839372
endloop
endfacet
facet normal 0 0 0
outer loop
vertex 3.389061 6.357696 2.839372
vertex 3.409537 6.378448 2.839372
vertex 3.389061 6.378448 2.839372
endloop
endfacet
facet normal 0 0 0
outer loop
vertex 3.430013 6.378448 2.839372
vertex 3.450489 6.357696 2.839372
vertex 3.450489 6.378448 2.839372
endloop
endfacet
facet normal 0 0 0
outer loop
vertex 3.450489 6.357696 2.839372
vertex 3.470964 6.378448 2.839372
vertex 3.450489 6.378448 2.839372
endloop
endfacet
facet normal 0 0 0
outer loop
vertex 3.348109 6.399202 2.839372
vertex 3.368585 6.378448 2.839372
vertex 3.368585 6.399202 2.839372
endloop
endfacet
facet normal 0 0 0
outer loop
vertex 3.389061 6.378448 2.839372
vertex 3.389061 6.399202 2.839372
vertex 3.368585 6.378448 2.839372
endloop
endfacet
facet normal 0 0 0
outer loop
vertex 3.389061 6.399202 2.839372
vertex 3.368585 6.399202 2.839372
vertex 3.368585 6.378448 2.839372
endloop
endfacet
facet normal 0 0 0
outer loop
vertex 3.409537 6.399202 2.859372
vertex 3.389061 6.399202 2.839372
vertex 3.409537 6.378448 2.839372
endloop
endfacet
facet normal 0 0 0
outer loop
vertex 3.389061 6.399202 2.839372
vertex 3.389061 6.378448 2.839372
vertex 3.409537 6.378448 2.839372
endloop
endfacet
facet normal 0 0 0
outer loop
vertex 3.430013 6.378448 2.839372
vertex 3.409537 6.399202 2.859372
vertex 3.409537 6.378448 2.839372
endloop
endfacet
facet normal 0 0 0
outer loop
vertex 3.430013 6.399202 2.859372
vertex 3.409537 6.399202 2.859372
vertex 3.430013 6.378448 2.839372
endloop
endfacet
facet normal 0 0 0
outer loop
vertex 3.450489 6.378448 2.839372
vertex 3.430013 6.399202 2.859372
vertex 3.430013 6.378448 2.839372
endloop
endfacet
facet normal 0 0 0
outer loop
vertex 3.450489 6.399202 2.859372
vertex 3.430013 6.399202 2.859372
vertex 3.450489 6.378448 2.839372
endloop
endfacet
facet normal 0 0 0
outer loop
vertex 3.470964 6.378448 2.839372
vertex 3.450489 6.399202 2.859372
vertex 3.450489 6.378448 2.839372
endloop
endfacet
facet normal 0 0 0
outer loop
vertex 3.470964 6.399202 2.859372
vertex 3.450489 6.399202 2.859372
vertex 3.470964 6.378448 2.839372
endloop
endfacet
facet normal 0 0 0
outer loop
vertex 3.470964 6.399202 2.859372
vertex 3.470964 6.378448 2.839372
vertex 3.491440 6.399202 2.839372
endloop
endfacet
facet normal 0 0 0
outer loop
vertex 3.470964 6.378448 2.839372
vertex 3.491440 6.378448 2.839372
vertex 3.491440 6.399202 2.839372
endloop
endfacet
facet normal 0 0 0
outer loop
vertex 3.491440 6.378448 2.839372
vertex 3.511916 6.399202 2.839372
vertex 3.491440 6.399202 2.839372
endloop
endfacet
facet normal 0 0 0
outer loop
vertex 3.368585 6.419955 2.859372
vertex 3.348109 6.419955 2.839372
vertex 3.368585 6.399202 2.839372
endloop
endfacet
facet normal 0 0 0
outer loop
vertex 3.348109 6.419955 2.839372
vertex 3.348109 6.399202 2.839372
vertex 3.368585 6.399202 2.839372
endloop
endfacet
facet normal 0 0 0
outer loop
vertex 3.389061 6.399202 2.839372
vertex 3.368585 6.419955 2.859372
vertex 3.368585 6.399202 2.839372
endloop
endfacet
facet normal 0 0 0
outer loop
vertex 3.389061 6.419955 2.859372
vertex 3.368585 6.419955 2.859372
vertex 3.389061 6.399202 2.839372
endloop
endfacet
facet normal 0 0 0
outer loop
vertex 3.409537 6.399202 2.859372
vertex 3.389061 6.419955 2.859372
vertex 3.389061 6.399202 2.839372
endloop
endfacet
facet normal 0 0 0
outer loop
vertex 3.491440 6.399202 2.839372
vertex 3.491440 6.419955 2.859372
vertex 3.470964 6.399202 2.859372
endloop
endfacet
facet normal 0 0 0
outer loop
vertex 3.491440 6.419955 2.859372
vertex 3.491440 6.399202 2.839372
vertex 3.511916 6.419955 2.839372
endloop
endfacet
facet normal 0 0 0
outer loop
vertex 3.491440 6.399202 2.839372
vertex 3.511916 6.399202 2.839372
vertex 3.511916 6.419955 2.839372
endloop
endfacet
facet normal 0 0 0
outer loop
vertex 3.348109 6.419955 2.839372
vertex 3.348109 6.440709 2.859372
vertex 3.327633 6.440709 2.839372
endloop
endfacet
facet normal 0 0 0
outer loop
vertex 3.368585 6.419955 2.859372
vertex 3.348109 6.440709 2.859372
vertex 3.348109 6.419955 2.839372
endloop
endfacet
facet normal 0 0 0
outer loop
vertex 3.511916 6.419955 2.839372
vertex 3.511916 6.440709 2.859372
vertex 3.491440 6.419955 2.859372
endloop
endfacet
facet normal 0 0 0
outer loop
vertex 3.511916 6.440709 2.859372
vertex 3.511916 6.419955 2.839372
vertex 3.511916 6.440709 2.839372
endloop
endfacet
facet normal 0 0 0
outer loop
vertex 3.327633 6.440709 2.839372
vertex 3.348109 6.440709 2.859372
vertex 3.348109 6.461462 2.839372
endloop
endfacet
facet normal 0 0 0
outer loop
vertex 3.348109 6.440709 2.859372
vertex 3.348109 6.461462 2.859372
vertex 3.348109 6.461462 2.839372
endloop
endfacet
facet normal 0 0 0
outer loop
vertex 3.511916 6.440709 2.839372
vertex 3.511916 6.461462 2.839372
vertex 3.511916 6.440709 2.859372
endloop
endfacet
facet normal 0 0 0
outer loop
vertex 3.511916 6.440709 2.859372
vertex 3.511916 6.461462 2.839372
vertex 3.511916 6.461462 2.859372
endloop
endfacet
facet normal 0 0 0
outer loop
vertex 3.348109 6.461462 2.859372
vertex 3.368585 6.482215 2.839372
vertex 3.348109 6.461462 2.839372
endloop
endfacet
facet normal 0 0 0
outer loop
vertex 3.368585 6.482215 2.859372
vertex 3.368585 6.482215 2.839372
vertex 3.348109 6.461462 2.859372
endloop
endfacet
facet normal 0 0 0
outer loop
vertex 3.511916 6.461462 2.839372
vertex 3.491440 6.482215 2.859372
vertex 3.511916 6.461462 2.859372
endloop
endfacet
facet normal 0 0 0
outer loop
vertex 3.491440 6.482215 2.839372
vertex 3.491440 6.482215 2.859372
vertex 3.511916 6.461462 2.839372
endloop
endfacet
facet normal 0 0 0
outer loop
vertex 3.368585 6.502969 2.859372
vertex 3.368585 6.482215 2.839372
vertex 3.368585 6.482215 2.859372
endloop
endfacet
facet normal 0 0 0
outer loop
vertex 3.368585 6.482215 2.839372
vertex 3.368585 6.502969 2.859372
vertex 3.389061 6.502969 2.839372
endloop
endfacet
facet normal 0 0 0
outer loop
vertex 3.491440 6.482215 2.839372
vertex 3.470964 6.502969 2.859372
vertex 3.491440 6.482215 2.859372
endloop
endfacet
facet normal 0 0 0
outer loop
vertex 3.470964 6.502969 2.839372
vertex 3.470964 6.502969 2.859372
vertex 3.491440 6.482215 2.839372
endloop
endfacet
facet normal 0 0 0
outer loop
vertex 3.389061 6.502969 2.839372
vertex 3.368585 6.502969 2.859372
vertex 3.389061 6.523722 2.859372
endloop
endfacet
facet normal 0 0 0
outer loop
vertex 3.389061 6.502969 2.839372
vertex 3.389061 6.523722 2.859372
vertex 3.409537 6.523722 2.839372
endloop
endfacet
facet normal 0 0 0
outer loop
vertex 3.470964 6.502969 2.839372
vertex 3.450489 6.523722 2.859372
vertex 3.470964 6.502969 2.859372
endloop
endfacet
facet normal 0 0 0
outer loop
vertex 3.450489 6.523722 2.839372
vertex 3.450489 6.523722 2.859372
vertex 3.470964 6.502969 2.839372
endloop
endfacet
facet normal 0 0 0
outer loop
vertex 3.409537 6.523722 2.839372
vertex 3.389061 6.523722 2.859372
vertex 3.409537 6.523722 2.859372
endloop
endfacet
facet normal 0 0 0
outer loop
vertex 3.430013 6.523722 2.839372
vertex 3.409537 6.523722 2.839372
vertex 3.430013 6.523722 2.859372
endloop
endfacet
facet normal 0 0 0
outer loop
vertex 3.409537 6.523722 2.839372
vertex 3.409537 6.523722 2.859372
vertex 3.430013 6.523722 2.859372
endloop
endfacet
facet normal 0 0 0
outer loop
vertex 3.450489 6.523722 2.839372
vertex 3.430013 6.523722 2.839372
vertex 3.450489 6.523722 2.859372
endloop
endfacet
facet normal 0 0 0
outer loop
vertex 3.430013 6.523722 2.839372
vertex 3.430013 6.523722 2.859372
vertex 3.450489 6.523722 2.859372
endloop
endfacet
facet normal 0 0 0
outer loop
vertex 3.430013 6.399202 2.859372
vertex 3.430013 6.399202 2.879372
vertex 3.409537 6.399202 2.859372
endloop
endfacet
facet normal 0 0 0
outer loop
vertex 3.409537 6.399202 2.859372
vertex 3.430013 6.399202 2.879372
vertex 3.409537 6.399202 2.879372
endloop
endfacet
facet normal 0 0 0
outer loop
vertex 3.450489 6.399202 2.859372
vertex 3.450489 6.399202 2.879372
vertex 3.430013 6.399202 2.859372
endloop
endfacet
facet normal 0 0 0
outer loop
vertex 3.430013 6.399202 2.859372
vertex 3.450489 6.399202 2.879372
vertex 3.430013 6.399202 2.879372
endloop
endfacet
facet normal 0 0 0
outer loop
vertex 3.470964 6.399202 2.859372
vertex 3.450489 6.399202 2.879372
vertex 3.450489 6.399202 2.859372
endloop
endfacet
facet normal 0 0 0
outer loop
vertex 3.389061 6.419955 2.879372
vertex 3.368585 6.419955 2.859372
vertex 3.389061 6.419955 2.859372
endloop
endfacet
facet normal 0 0 0
outer loop
vertex 3.409537 6.399202 2.879372
vertex 3.389061 6.419955 2.859372
vertex 3.409537 6.399202 2.859372
endloop
endfacet
facet normal 0 0 0
outer loop
vertex 3.389061 6.419955 2.879372
vertex 3.389061 6.419955 2.859372
vertex 3.409537 6.399202 2.879372
endloop
endfacet
facet normal 0 0 0
outer loop
vertex 3.470964 6.399202 2.859372
vertex 3.470964 6.419955 2.879372
vertex 3.450489 6.399202 2.879372
endloop
endfacet
facet normal 0 0 0
outer loop
vertex 3.491440 6.419955 2.859372
vertex 3.470964 6.419955 2.879372
vertex 3.470964 6.399202 2.859372
endloop
endfacet
facet normal 0 0 0
outer loop
vertex 3.368585 6.419955 2.859372
vertex 3.368585 6.440709 2.879372
vertex 3.348109 6.440709 2.859372
endloop
endfacet
facet normal 0 0 0
outer loop
vertex 3.389061 6.419955 2.879372
vertex 3.368585 6.440709 2.879372
vertex 3.368585 6.419955 2.859372
endloop
endfacet
facet normal 0 0 0
outer loop
vertex 3.491440 6.440709 2.859372
vertex 3.470964 6.419955 2.879372
vertex 3.491440 6.419955 2.859372
endloop
endfacet
facet normal 0 0 0
outer loop
vertex 3.470964 6.440709 2.879372
vertex 3.470964 6.419955 2.879372
vertex 3.491440 6.440709 2.859372
endloop
endfacet
facet normal 0 0 0
outer loop
vertex 3.491440 6.419955 2.859372
vertex 3.511916 6.440709 2.859372
vertex 3.491440 6.440709 2.859372
endloop
endfacet
facet normal 0 0 0
outer loop
vertex 3.368585 6.461462 2.879372
vertex 3.348109 6.440709 2.859372
vertex 3.368585 6.440709 2.879372
endloop
endfacet
facet normal 0 0 0
outer loop
vertex 3.348109 6.461462 2.859372
vertex 3.348109 6.440709 2.859372
vertex 3.368585 6.461462 2.879372
endloop
endfacet
facet normal 0 0 0
outer loop
vertex 3.491440 6.440709 2.859372
vertex 3.491440 6.461462 2.879372
vertex 3.470964 6.440709 2.879372
endloop
endfacet
facet normal 0 0 0
outer loop
vertex 3.491440 6.461462 2.879372
vertex 3.491440 6.440709 2.859372
vertex 3.511916 6.461462 2.859372
endloop
endfacet
facet normal 0 0 0
outer loop
vertex 3.491440 6.440709 2.859372
vertex 3.511916 6.440709 2.859372
vertex 3.511916 6.461462 2.859372
endloop
endfacet
facet normal 0 0 0
outer loop
vertex 3.348109 6.461462 2.859372
vertex 3.368585 6.461462 2.879372
vertex 3.368585 6.482215 2.859372
endloop
endfacet
facet normal 0 0 0
outer loop
vertex 3.368585 6.461462 2.879372
vertex 3.368585 6.482215 2.879372
vertex 3.368585 6.482215 2.859372
endloop
endfacet
facet normal 0 0 0
outer loop
vertex 3.491440 6.482215 2.859372
vertex 3.470964 6.482215 2.879372
vertex 3.491440 6.461462 2.879372
endloop
endfacet
facet normal 0 0 0
outer loop
vertex 3.511916 6.461462 2.859372
vertex 3.491440 6.482215 2.859372
vertex 3.491440 6.461462 2.879372
endloop
endfacet
facet normal 0 0 0
outer loop
vertex 3.368585 6.482215 2.879372
vertex 3.368585 6.502969 2.859372
vertex 3.368585 6.482215 2.859372
endloop
endfacet
facet normal 0 0 0
outer loop
vertex 3.368585 6.482215 2.879372
vertex 3.389061 6.502969 2.879372
vertex 3.368585 6.502969 2.859372
endloop
endfacet
facet normal 0 0 0
outer loop
vertex 3.450489 6.502969 2.859372
vertex 3.430013 6.502969 2.879372
vertex 3.450489 6.482215 2.879372
endloop
endfacet
facet normal 0 0 0
outer loop
vertex 3.450489 6.502969 2.859372
vertex 3.470964 6.482215 2.879372
vertex 3.470964 6.502969 2.859372
endloop
endfacet
facet normal 0 0 0
outer loop
vertex 3.450489 6.482215 2.879372
vertex 3.470964 6.482215 2.879372
vertex 3.450489 6.502969 2.859372
endloop
endfacet
facet normal 0 0 0
outer loop
vertex 3.491440 6.482215 2.859372
vertex 3.470964 6.502969 2.859372
vertex 3.470964 6.482215 2.879372
endloop
endfacet
facet normal 0 0 0
outer loop
vertex 3.368585 6.502969 2.859372
vertex 3.389061 6.502969 2.879372
vertex 3.389061 6.523722 2.859372
endloop
endfacet
facet normal 0 0 0
outer loop
vertex 3.389061 6.523722 2.859372
vertex 3.409537 6.502969 2.879372
vertex 3.409537 6.523722 2.859372
endloop
endfacet
facet normal 0 0 0
outer loop
vertex 3.389061 6.502969 2.879372
vertex 3.409537 6.502969 2.879372
vertex 3.389061 6.523722 2.859372
endloop
endfacet
facet normal 0 0 0
outer loop
vertex 3.409537 6.523722 2.859372
vertex 3.430013 6.502969 2.879372
vertex 3.430013 6.523722 2.859372
endloop
endfacet
facet normal 0 0 0
outer loop
vertex 3.409537 6.502969 2.879372
vertex 3.430013 6.502969 2.879372
vertex 3.409537 6.523722 2.859372
endloop
endfacet
facet normal 0 0 0
outer loop
vertex 3.430013 6.502969 2.879372
vertex 3.450489 6.502969 2.859372
vertex 3.430013 6.523722 2.859372
endloop
endfacet
facet normal 0 0 0
outer loop
vertex 3.450489 6.502969 2.859372
vertex 3.450489 6.523722 2.859372
vertex 3.430013 6.523722 2.859372
endloop
endfacet
facet normal 0 0 0
outer loop
vertex 3.470964 6.502969 2.859372
vertex 3.450489 6.523722 2.859372
vertex 3.450489 6.502969 2.859372
endloop
endfacet
facet normal 0 0 0
outer loop
vertex 3.389061 6.419955 2.879372
vertex 3.409537 6.399202 2.879372
vertex 3.409537 6.419955 2.879372
endloop
endfacet
facet normal 0 0 0
outer loop
vertex 3.430013 6.399202 2.879372
vertex 3.430013 6.419955 2.879372
vertex 3.409537 6.399202 2.879372
endloop
endfacet
facet normal 0 0 0
outer loop
vertex 3.430013 6.419955 2.879372
vertex 3.409537 6.419955 2.879372
vertex 3.409537 6.399202 2.879372
endloop
endfacet
facet normal 0 0 0
outer loop
vertex 3.450489 6.399202 2.879372
vertex 3.450489 6.419955 2.879372
vertex 3.430013 6.399202 2.879372
endloop
endfacet
facet normal 0 0 0
outer loop
vertex 3.450489 6.419955 2.879372
vertex 3.430013 6.419955 2.879372
vertex 3.430013 6.399202 2.879372
endloop
endfacet
facet normal 0 0 0
outer loop
vertex 3.450489 6.399202 2.879372
vertex 3.470964 6.419955 2.879372
vertex 3.450489 6.419955 2.879372
endloop
endfacet
facet normal 0 0 0
outer loop
vertex 3.368585 6.440709 2.879372
vertex 3.389061 6.419955 2.879372
vertex 3.389061 6.440709 2.879372
endloop
endfacet
facet normal 0 0 0
outer loop
vertex 3.409537 6.419955 2.879372
vertex 3.409537 6.440709 2.879372
vertex 3.389061 6.419955 2.879372
endloop
endfacet
facet normal 0 0 0
outer loop
vertex 3.409537 6.440709 2.879372
vertex 3.389061 6.440709 2.879372
vertex 3.389061 6.419955 2.879372
endloop
endfacet
facet normal 0 0 0
outer loop
vertex 3.430013 6.419955 2.879372
vertex 3.430013 6.440709 2.879372
vertex 3.409537 6.419955 2.879372
endloop
endfacet
facet normal 0 0 0
outer loop
vertex 3.430013 6.440709 2.879372
vertex 3.409537 6.440709 2.879372
vertex 3.409537 6.419955 2.879372
endloop
endfacet
facet normal 0 0 0
outer loop
vertex 3.450489 6.419955 2.879372
vertex 3.450489 6.440709 2.879372
vertex 3.430013 6.419955 2.879372
endloop
endfacet
facet normal 0 0 0
outer loop
vertex 3.450489 6.440709 2.879372
vertex 3.430013 6.440709 2.879372
vertex 3.430013 6.419955 2.879372
endloop
endfacet
facet normal 0 0 0
outer loop
vertex 3.470964 6.419955 2.879372
vertex 3.470964 6.440709 2.879372
vertex 3.450489 6.419955 2.879372
endloop
endfacet
facet normal 0 0 0
outer loop
vertex 3.470964 6.440709 2.879372
vertex 3.450489 6.440709 2.879372
vertex 3.450489 6.419955 2.879372
endloop
endfacet
facet normal 0 0 0
outer loop
vertex 3.389061 6.440709 2.879372
vertex 3.389061 6.461462 2.879372
vertex 3.368585 6.440709 2.879372
endloop
endfacet
facet normal 0 0 0
outer loop
vertex 3.389061 6.461462 2.879372
vertex 3.368585 6.461462 2.879372
vertex 3.368585 6.440709 2.879372
endloop
endfacet
facet normal 0 0 0
outer loop
vertex 3.409537 6.440709 2.879372
vertex 3.409537 6.461462 2.879372
vertex 3.389061 6.440709 2.879372
endloop
endfacet
facet normal 0 0 0
outer loop
vertex 3.409537 6.461462 2.879372
vertex 3.389061 6.461462 2.879372
vertex 3.389061 6.440709 2.879372
endloop
endfacet
facet normal 0 0 0
outer loop
vertex 3.430013 6.440709 2.879372
vertex 3.430013 6.461462 2.879372
vertex 3.409537 6.440709 2.879372
endloop
endfacet
facet normal 0 0 0
outer loop
vertex 3.430013 6.461462 2.879372
vertex 3.409537 6.461462 2.879372
vertex 3.409537 6.440709 2.879372
endloop
endfacet
facet normal 0 0 0
outer loop
vertex 3.450489 6.440709 2.879372
vertex 3.450489 6.461462 2.879372
vertex 3.430013 6.440709 2.879372
endloop
endfacet
facet normal 0 0 0
outer loop
vertex 3.450489 6.461462 2.879372
vertex 3.430013 6.461462 2.879372
vertex 3.430013 6.440709 2.879372
endloop
endfacet
facet normal 0 0 0
outer loop
vertex 3.470964 6.440709 2.879372
vertex 3.470964 6.461462 2.879372
vertex 3.450489 6.440709 2.879372
endloop
endfacet
facet normal 0 0 0
outer loop
vertex 3.470964 6.461462 2.879372
vertex 3.450489 6.461462 2.879372
vertex 3.450489 6.440709 2.879372
endloop
endfacet
facet normal 0 0 0
outer loop
vertex 3.470964 6.440709 2.879372
vertex 3.491440 6.461462 2.879372
vertex 3.470964 6.461462 2.879372
endloop
endfacet
facet normal 0 0 0
outer loop
vertex 3.389061 6.461462 2.879372
vertex 3.389061 6.482215 2.879372
vertex 3.368585 6.461462 2.879372
endloop
endfacet
facet normal 0 0 0
outer loop
vertex 3.389061 6.482215 2.879372
vertex 3.368585 6.482215 2.879372
vertex 3.368585 6.461462 2.879372
endloop
endfacet
facet normal 0 0 0
outer loop
vertex 3.409537 6.461462 2.879372
vertex 3.409537 6.482215 2.879372
vertex 3.389061 6.461462 2.879372
endloop
endfacet
facet normal 0 0 0
outer loop
vertex 3.409537 6.482215 2.879372
vertex 3.389061 6.482215 2.879372
vertex 3.389061 6.461462 2.879372
endloop
endfacet
facet normal 0 0 0
outer loop
vertex 3.430013 6.461462 2.879372
vertex 3.430013 6.482215 2.879372
vertex 3.409537 6.461462 2.879372
endloop
endfacet
facet normal 0 0 0
outer loop
vertex 3.430013 6.482215 2.879372
vertex 3.409537 6.482215 2.879372
vertex 3.409537 6.461462 2.879372
endloop
endfacet
facet normal 0 0 0
outer loop
vertex 3.450489 6.461462 2.879372
vertex 3.450489 6.482215 2.879372
vertex 3.430013 6.461462 2.879372
endloop
endfacet
facet normal 0 0 0
outer loop
vertex 3.450489 6.482215 2.879372
vertex 3.430013 6.482215 2.879372
vertex 3.430013 6.461462 2.879372
endloop
endfacet
facet normal 0 0 0
outer loop
vertex 3.470964 6.461462 2.879372
vertex 3.470964 6.482215 2.879372
vertex 3.450489 6.461462 2.879372
endloop
endfacet
facet normal 0 0 0
outer loop
vertex 3.470964 6.482215 2.879372
vertex 3.450489 6.482215 2.879372
vertex 3.450489 6.461462 2.879372
endloop
endfacet
facet normal 0 0 0
outer loop
vertex 3.491440 6.461462 2.879372
vertex 3.470964 6.482215 2.879372
vertex 3.470964 6.461462 2.879372
endloop
endfacet
facet normal 0 0 0
outer loop
vertex 3.389061 6.502969 2.879372
vertex 3.368585 6.482215 2.879372
vertex 3.389061 6.482215 2.879372
endloop
endfacet
facet normal 0 0 0
outer loop
vertex 3.409537 6.482215 2.879372
vertex 3.409537 6.502969 2.879372
vertex 3.389061 6.482215 2.879372
endloop
endfacet
facet normal 0 0 0
outer loop
vertex 3.409537 6.502969 2.879372
vertex 3.389061 6.502969 2.879372
vertex 3.389061 6.482215 2.879372
endloop
endfacet
facet normal 0 0 0
outer loop
vertex 3.430013 6.482215 2.879372
vertex 3.430013 6.502969 2.879372
vertex 3.409537 6.482215 2.879372
endloop
endfacet
facet normal 0 0 0
outer loop
vertex 3.430013 6.502969 2.879372
vertex 3.409537 6.502969 2.879372
vertex 3.409537 6.482215 2.879372
endloop
endfacet
facet normal 0 0 0
outer loop
vertex 3.450489 6.482215 2.879372
vertex 3.430013 6.502969 2.879372
vertex 3.430013 6.482215 2.879372
endloop
endfacet
endsolid B-16-Plag.003
