solid B-16-Plag.269
facet normal 0 0 0
outer loop
vertex 11.620333 6.689749 11.279372
vertex 11.599857 6.689749 11.279372
vertex 11.620333 6.710502 11.279372
endloop
endfacet
facet normal 0 0 0
outer loop
vertex 11.620333 6.710502 11.279372
vertex 11.599857 6.689749 11.279372
vertex 11.599857 6.710502 11.279372
endloop
endfacet
facet normal 0 0 0
outer loop
vertex 11.640808 6.689749 11.279372
vertex 11.620333 6.689749 11.279372
vertex 11.640808 6.710502 11.279372
endloop
endfacet
facet normal 0 0 0
outer loop
vertex 11.640808 6.710502 11.279372
vertex 11.620333 6.689749 11.279372
vertex 11.620333 6.710502 11.279372
endloop
endfacet
facet normal 0 0 0
outer loop
vertex 11.661283 6.710502 11.279372
vertex 11.640808 6.689749 11.279372
vertex 11.640808 6.710502 11.279372
endloop
endfacet
facet normal 0 0 0
outer loop
vertex 11.599857 6.710502 11.279372
vertex 11.579380 6.731256 11.279372
vertex 11.599857 6.731256 11.279372
endloop
endfacet
facet normal 0 0 0
outer loop
vertex 11.620333 6.710502 11.279372
vertex 11.599857 6.710502 11.279372
vertex 11.620333 6.731256 11.279372
endloop
endfacet
facet normal 0 0 0
outer loop
vertex 11.620333 6.731256 11.279372
vertex 11.599857 6.710502 11.279372
vertex 11.599857 6.731256 11.279372
endloop
endfacet
facet normal 0 0 0
outer loop
vertex 11.640808 6.710502 11.279372
vertex 11.620333 6.710502 11.279372
vertex 11.640808 6.731256 11.279372
endloop
endfacet
facet normal 0 0 0
outer loop
vertex 11.640808 6.731256 11.279372
vertex 11.620333 6.710502 11.279372
vertex 11.620333 6.731256 11.279372
endloop
endfacet
facet normal 0 0 0
outer loop
vertex 11.640808 6.731256 11.279372
vertex 11.661283 6.710502 11.279372
vertex 11.640808 6.710502 11.279372
endloop
endfacet
facet normal 0 0 0
outer loop
vertex 11.558905 6.731256 11.279372
vertex 11.579380 6.752008 11.279372
vertex 11.579380 6.731256 11.279372
endloop
endfacet
facet normal 0 0 0
outer loop
vertex 11.599857 6.731256 11.279372
vertex 11.579380 6.731256 11.279372
vertex 11.599857 6.752008 11.279372
endloop
endfacet
facet normal 0 0 0
outer loop
vertex 11.599857 6.752008 11.279372
vertex 11.579380 6.731256 11.279372
vertex 11.579380 6.752008 11.279372
endloop
endfacet
facet normal 0 0 0
outer loop
vertex 11.620333 6.731256 11.279372
vertex 11.599857 6.731256 11.279372
vertex 11.620333 6.752008 11.279372
endloop
endfacet
facet normal 0 0 0
outer loop
vertex 11.620333 6.752008 11.279372
vertex 11.599857 6.731256 11.279372
vertex 11.599857 6.752008 11.279372
endloop
endfacet
facet normal 0 0 0
outer loop
vertex 11.640808 6.731256 11.279372
vertex 11.620333 6.731256 11.279372
vertex 11.640808 6.752008 11.279372
endloop
endfacet
facet normal 0 0 0
outer loop
vertex 11.640808 6.752008 11.279372
vertex 11.620333 6.731256 11.279372
vertex 11.620333 6.752008 11.279372
endloop
endfacet
facet normal 0 0 0
outer loop
vertex 11.599857 6.752008 11.279372
vertex 11.579380 6.752008 11.279372
vertex 11.599857 6.772762 11.279372
endloop
endfacet
facet normal 0 0 0
outer loop
vertex 11.599857 6.772762 11.279372
vertex 11.579380 6.752008 11.279372
vertex 11.579380 6.772762 11.279372
endloop
endfacet
facet normal 0 0 0
outer loop
vertex 11.620333 6.752008 11.279372
vertex 11.599857 6.752008 11.279372
vertex 11.620333 6.772762 11.279372
endloop
endfacet
facet normal 0 0 0
outer loop
vertex 11.620333 6.772762 11.279372
vertex 11.599857 6.752008 11.279372
vertex 11.599857 6.772762 11.279372
endloop
endfacet
facet normal 0 0 0
outer loop
vertex 11.620333 6.772762 11.279372
vertex 11.640808 6.752008 11.279372
vertex 11.620333 6.752008 11.279372
endloop
endfacet
facet normal 0 0 0
outer loop
vertex 11.579380 6.793515 11.279372
vertex 11.599857 6.772762 11.279372
vertex 11.579380 6.772762 11.279372
endloop
endfacet
facet normal 0 0 0
outer loop
vertex 11.599857 6.668995 11.299372
vertex 11.579380 6.689749 11.299372
vertex 11.599857 6.689749 11.279372
endloop
endfacet
facet normal 0 0 0
outer loop
vertex 11.620333 6.689749 11.279372
vertex 11.599857 6.668995 11.299372
vertex 11.599857 6.689749 11.279372
endloop
endfacet
facet normal 0 0 0
outer loop
vertex 11.620333 6.668995 11.299372
vertex 11.599857 6.668995 11.299372
vertex 11.620333 6.689749 11.279372
endloop
endfacet
facet normal 0 0 0
outer loop
vertex 11.620333 6.668995 11.299372
vertex 11.620333 6.689749 11.279372
vertex 11.640808 6.689749 11.299372
endloop
endfacet
facet normal 0 0 0
outer loop
vertex 11.620333 6.689749 11.279372
vertex 11.640808 6.689749 11.279372
vertex 11.640808 6.689749 11.299372
endloop
endfacet
facet normal 0 0 0
outer loop
vertex 11.558905 6.689749 11.299372
vertex 11.538429 6.710502 11.299372
vertex 11.558905 6.710502 11.299372
endloop
endfacet
facet normal 0 0 0
outer loop
vertex 11.579380 6.689749 11.299372
vertex 11.558905 6.689749 11.299372
vertex 11.579380 6.710502 11.299372
endloop
endfacet
facet normal 0 0 0
outer loop
vertex 11.579380 6.710502 11.299372
vertex 11.558905 6.689749 11.299372
vertex 11.558905 6.710502 11.299372
endloop
endfacet
facet normal 0 0 0
outer loop
vertex 11.599857 6.689749 11.279372
vertex 11.579380 6.710502 11.299372
vertex 11.599857 6.710502 11.279372
endloop
endfacet
facet normal 0 0 0
outer loop
vertex 11.579380 6.689749 11.299372
vertex 11.579380 6.710502 11.299372
vertex 11.599857 6.689749 11.279372
endloop
endfacet
facet normal 0 0 0
outer loop
vertex 11.661283 6.710502 11.279372
vertex 11.640808 6.710502 11.299372
vertex 11.640808 6.689749 11.279372
endloop
endfacet
facet normal 0 0 0
outer loop
vertex 11.640808 6.710502 11.299372
vertex 11.640808 6.689749 11.299372
vertex 11.640808 6.689749 11.279372
endloop
endfacet
facet normal 0 0 0
outer loop
vertex 11.538429 6.710502 11.299372
vertex 11.517954 6.731256 11.299372
vertex 11.538429 6.731256 11.299372
endloop
endfacet
facet normal 0 0 0
outer loop
vertex 11.558905 6.731256 11.279372
vertex 11.558905 6.710502 11.299372
vertex 11.538429 6.731256 11.299372
endloop
endfacet
facet normal 0 0 0
outer loop
vertex 11.558905 6.710502 11.299372
vertex 11.538429 6.710502 11.299372
vertex 11.538429 6.731256 11.299372
endloop
endfacet
facet normal 0 0 0
outer loop
vertex 11.579380 6.731256 11.279372
vertex 11.558905 6.710502 11.299372
vertex 11.558905 6.731256 11.279372
endloop
endfacet
facet normal 0 0 0
outer loop
vertex 11.579380 6.710502 11.299372
vertex 11.558905 6.710502 11.299372
vertex 11.579380 6.731256 11.279372
endloop
endfacet
facet normal 0 0 0
outer loop
vertex 11.599857 6.710502 11.279372
vertex 11.579380 6.710502 11.299372
vertex 11.579380 6.731256 11.279372
endloop
endfacet
facet normal 0 0 0
outer loop
vertex 11.661283 6.710502 11.279372
vertex 11.640808 6.731256 11.279372
vertex 11.640808 6.710502 11.299372
endloop
endfacet
facet normal 0 0 0
outer loop
vertex 11.640808 6.731256 11.279372
vertex 11.640808 6.731256 11.299372
vertex 11.640808 6.710502 11.299372
endloop
endfacet
facet normal 0 0 0
outer loop
vertex 11.517954 6.731256 11.299372
vertex 11.497478 6.752008 11.299372
vertex 11.517954 6.752008 11.299372
endloop
endfacet
facet normal 0 0 0
outer loop
vertex 11.538429 6.731256 11.299372
vertex 11.517954 6.731256 11.299372
vertex 11.538429 6.752008 11.299372
endloop
endfacet
facet normal 0 0 0
outer loop
vertex 11.538429 6.752008 11.299372
vertex 11.517954 6.731256 11.299372
vertex 11.517954 6.752008 11.299372
endloop
endfacet
facet normal 0 0 0
outer loop
vertex 11.558905 6.731256 11.279372
vertex 11.538429 6.731256 11.299372
vertex 11.558905 6.752008 11.299372
endloop
endfacet
facet normal 0 0 0
outer loop
vertex 11.538429 6.731256 11.299372
vertex 11.538429 6.752008 11.299372
vertex 11.558905 6.752008 11.299372
endloop
endfacet
facet normal 0 0 0
outer loop
vertex 11.558905 6.731256 11.279372
vertex 11.558905 6.752008 11.299372
vertex 11.579380 6.752008 11.279372
endloop
endfacet
facet normal 0 0 0
outer loop
vertex 11.640808 6.752008 11.279372
vertex 11.620333 6.752008 11.299372
vertex 11.640808 6.731256 11.299372
endloop
endfacet
facet normal 0 0 0
outer loop
vertex 11.640808 6.752008 11.279372
vertex 11.640808 6.731256 11.299372
vertex 11.640808 6.731256 11.279372
endloop
endfacet
facet normal 0 0 0
outer loop
vertex 11.517954 6.752008 11.299372
vertex 11.497478 6.752008 11.299372
vertex 11.517954 6.772762 11.299372
endloop
endfacet
facet normal 0 0 0
outer loop
vertex 11.517954 6.772762 11.299372
vertex 11.497478 6.752008 11.299372
vertex 11.497478 6.772762 11.299372
endloop
endfacet
facet normal 0 0 0
outer loop
vertex 11.538429 6.752008 11.299372
vertex 11.517954 6.752008 11.299372
vertex 11.538429 6.772762 11.299372
endloop
endfacet
facet normal 0 0 0
outer loop
vertex 11.538429 6.772762 11.299372
vertex 11.517954 6.752008 11.299372
vertex 11.517954 6.772762 11.299372
endloop
endfacet
facet normal 0 0 0
outer loop
vertex 11.558905 6.752008 11.299372
vertex 11.538429 6.752008 11.299372
vertex 11.558905 6.772762 11.299372
endloop
endfacet
facet normal 0 0 0
outer loop
vertex 11.558905 6.772762 11.299372
vertex 11.538429 6.752008 11.299372
vertex 11.538429 6.772762 11.299372
endloop
endfacet
facet normal 0 0 0
outer loop
vertex 11.579380 6.752008 11.279372
vertex 11.558905 6.772762 11.299372
vertex 11.579380 6.772762 11.279372
endloop
endfacet
facet normal 0 0 0
outer loop
vertex 11.558905 6.752008 11.299372
vertex 11.558905 6.772762 11.299372
vertex 11.579380 6.752008 11.279372
endloop
endfacet
facet normal 0 0 0
outer loop
vertex 11.620333 6.772762 11.279372
vertex 11.599857 6.772762 11.299372
vertex 11.620333 6.752008 11.299372
endloop
endfacet
facet normal 0 0 0
outer loop
vertex 11.640808 6.752008 11.279372
vertex 11.620333 6.772762 11.279372
vertex 11.620333 6.752008 11.299372
endloop
endfacet
facet normal 0 0 0
outer loop
vertex 11.497478 6.772762 11.299372
vertex 11.517954 6.793515 11.299372
vertex 11.517954 6.772762 11.299372
endloop
endfacet
facet normal 0 0 0
outer loop
vertex 11.538429 6.772762 11.299372
vertex 11.517954 6.772762 11.299372
vertex 11.538429 6.793515 11.299372
endloop
endfacet
facet normal 0 0 0
outer loop
vertex 11.538429 6.793515 11.299372
vertex 11.517954 6.772762 11.299372
vertex 11.517954 6.793515 11.299372
endloop
endfacet
facet normal 0 0 0
outer loop
vertex 11.558905 6.772762 11.299372
vertex 11.538429 6.772762 11.299372
vertex 11.558905 6.793515 11.299372
endloop
endfacet
facet normal 0 0 0
outer loop
vertex 11.558905 6.793515 11.299372
vertex 11.538429 6.772762 11.299372
vertex 11.538429 6.793515 11.299372
endloop
endfacet
facet normal 0 0 0
outer loop
vertex 11.579380 6.772762 11.279372
vertex 11.558905 6.793515 11.299372
vertex 11.579380 6.793515 11.279372
endloop
endfacet
facet normal 0 0 0
outer loop
vertex 11.558905 6.772762 11.299372
vertex 11.558905 6.793515 11.299372
vertex 11.579380 6.772762 11.279372
endloop
endfacet
facet normal 0 0 0
outer loop
vertex 11.599857 6.772762 11.279372
vertex 11.579380 6.793515 11.279372
vertex 11.599857 6.793515 11.299372
endloop
endfacet
facet normal 0 0 0
outer loop
vertex 11.620333 6.772762 11.279372
vertex 11.599857 6.793515 11.299372
vertex 11.599857 6.772762 11.299372
endloop
endfacet
facet normal 0 0 0
outer loop
vertex 11.620333 6.772762 11.279372
vertex 11.599857 6.772762 11.279372
vertex 11.599857 6.793515 11.299372
endloop
endfacet
facet normal 0 0 0
outer loop
vertex 11.558905 6.793515 11.299372
vertex 11.579380 6.814268 11.279372
vertex 11.579380 6.793515 11.279372
endloop
endfacet
facet normal 0 0 0
outer loop
vertex 11.558905 6.793515 11.299372
vertex 11.579380 6.793515 11.299372
vertex 11.579380 6.814268 11.279372
endloop
endfacet
facet normal 0 0 0
outer loop
vertex 11.599857 6.793515 11.299372
vertex 11.579380 6.814268 11.279372
vertex 11.579380 6.793515 11.299372
endloop
endfacet
facet normal 0 0 0
outer loop
vertex 11.599857 6.793515 11.299372
vertex 11.579380 6.793515 11.279372
vertex 11.579380 6.814268 11.279372
endloop
endfacet
facet normal 0 0 0
outer loop
vertex 11.579380 6.668995 11.319372
vertex 11.599857 6.668995 11.299372
vertex 11.599857 6.668995 11.319372
endloop
endfacet
facet normal 0 0 0
outer loop
vertex 11.620333 6.668995 11.299372
vertex 11.599857 6.668995 11.319372
vertex 11.599857 6.668995 11.299372
endloop
endfacet
facet normal 0 0 0
outer loop
vertex 11.538429 6.689749 11.319372
vertex 11.558905 6.689749 11.299372
vertex 11.558905 6.689749 11.319372
endloop
endfacet
facet normal 0 0 0
outer loop
vertex 11.579380 6.668995 11.319372
vertex 11.558905 6.689749 11.319372
vertex 11.579380 6.689749 11.299372
endloop
endfacet
facet normal 0 0 0
outer loop
vertex 11.558905 6.689749 11.319372
vertex 11.558905 6.689749 11.299372
vertex 11.579380 6.689749 11.299372
endloop
endfacet
facet normal 0 0 0
outer loop
vertex 11.599857 6.668995 11.299372
vertex 11.579380 6.668995 11.319372
vertex 11.579380 6.689749 11.299372
endloop
endfacet
facet normal 0 0 0
outer loop
vertex 11.620333 6.689749 11.299372
vertex 11.599857 6.668995 11.319372
vertex 11.620333 6.668995 11.299372
endloop
endfacet
facet normal 0 0 0
outer loop
vertex 11.599857 6.689749 11.319372
vertex 11.599857 6.668995 11.319372
vertex 11.620333 6.689749 11.299372
endloop
endfacet
facet normal 0 0 0
outer loop
vertex 11.620333 6.668995 11.299372
vertex 11.640808 6.689749 11.299372
vertex 11.620333 6.689749 11.299372
endloop
endfacet
facet normal 0 0 0
outer loop
vertex 11.538429 6.710502 11.299372
vertex 11.538429 6.689749 11.319372
vertex 11.538429 6.710502 11.319372
endloop
endfacet
facet normal 0 0 0
outer loop
vertex 11.558905 6.689749 11.299372
vertex 11.538429 6.689749 11.319372
vertex 11.538429 6.710502 11.299372
endloop
endfacet
facet normal 0 0 0
outer loop
vertex 11.620333 6.689749 11.299372
vertex 11.620333 6.710502 11.319372
vertex 11.599857 6.689749 11.319372
endloop
endfacet
facet normal 0 0 0
outer loop
vertex 11.640808 6.689749 11.299372
vertex 11.620333 6.710502 11.319372
vertex 11.620333 6.689749 11.299372
endloop
endfacet
facet normal 0 0 0
outer loop
vertex 11.640808 6.710502 11.319372
vertex 11.620333 6.710502 11.319372
vertex 11.640808 6.689749 11.299372
endloop
endfacet
facet normal 0 0 0
outer loop
vertex 11.640808 6.710502 11.319372
vertex 11.640808 6.689749 11.299372
vertex 11.640808 6.710502 11.299372
endloop
endfacet
facet normal 0 0 0
outer loop
vertex 11.538429 6.710502 11.319372
vertex 11.517954 6.731256 11.299372
vertex 11.538429 6.710502 11.299372
endloop
endfacet
facet normal 0 0 0
outer loop
vertex 11.517954 6.731256 11.319372
vertex 11.517954 6.731256 11.299372
vertex 11.538429 6.710502 11.319372
endloop
endfacet
facet normal 0 0 0
outer loop
vertex 11.640808 6.710502 11.299372
vertex 11.640808 6.731256 11.299372
vertex 11.640808 6.710502 11.319372
endloop
endfacet
facet normal 0 0 0
outer loop
vertex 11.640808 6.710502 11.319372
vertex 11.640808 6.731256 11.299372
vertex 11.640808 6.731256 11.319372
endloop
endfacet
facet normal 0 0 0
outer loop
vertex 11.517954 6.731256 11.319372
vertex 11.497478 6.752008 11.299372
vertex 11.517954 6.731256 11.299372
endloop
endfacet
facet normal 0 0 0
outer loop
vertex 11.497478 6.752008 11.319372
vertex 11.497478 6.752008 11.299372
vertex 11.517954 6.731256 11.319372
endloop
endfacet
facet normal 0 0 0
outer loop
vertex 11.640808 6.731256 11.299372
vertex 11.620333 6.752008 11.319372
vertex 11.640808 6.731256 11.319372
endloop
endfacet
facet normal 0 0 0
outer loop
vertex 11.620333 6.752008 11.299372
vertex 11.620333 6.752008 11.319372
vertex 11.640808 6.731256 11.299372
endloop
endfacet
facet normal 0 0 0
outer loop
vertex 11.497478 6.752008 11.299372
vertex 11.497478 6.752008 11.319372
vertex 11.497478 6.772762 11.299372
endloop
endfacet
facet normal 0 0 0
outer loop
vertex 11.497478 6.752008 11.319372
vertex 11.497478 6.772762 11.319372
vertex 11.497478 6.772762 11.299372
endloop
endfacet
facet normal 0 0 0
outer loop
vertex 11.599857 6.772762 11.299372
vertex 11.579380 6.772762 11.319372
vertex 11.599857 6.752008 11.319372
endloop
endfacet
facet normal 0 0 0
outer loop
vertex 11.599857 6.772762 11.299372
vertex 11.599857 6.752008 11.319372
vertex 11.620333 6.752008 11.299372
endloop
endfacet
facet normal 0 0 0
outer loop
vertex 11.599857 6.752008 11.319372
vertex 11.620333 6.752008 11.319372
vertex 11.620333 6.752008 11.299372
endloop
endfacet
facet normal 0 0 0
outer loop
vertex 11.497478 6.772762 11.319372
vertex 11.517954 6.793515 11.299372
vertex 11.497478 6.772762 11.299372
endloop
endfacet
facet normal 0 0 0
outer loop
vertex 11.517954 6.793515 11.319372
vertex 11.517954 6.793515 11.299372
vertex 11.497478 6.772762 11.319372
endloop
endfacet
facet normal 0 0 0
outer loop
vertex 11.599857 6.793515 11.299372
vertex 11.579380 6.772762 11.319372
vertex 11.599857 6.772762 11.299372
endloop
endfacet
facet normal 0 0 0
outer loop
vertex 11.579380 6.793515 11.319372
vertex 11.579380 6.772762 11.319372
vertex 11.599857 6.793515 11.299372
endloop
endfacet
facet normal 0 0 0
outer loop
vertex 11.517954 6.793515 11.299372
vertex 11.497478 6.814268 11.319372
vertex 11.517954 6.814268 11.319372
endloop
endfacet
facet normal 0 0 0
outer loop
vertex 11.517954 6.793515 11.299372
vertex 11.517954 6.793515 11.319372
vertex 11.497478 6.814268 11.319372
endloop
endfacet
facet normal 0 0 0
outer loop
vertex 11.517954 6.793515 11.299372
vertex 11.538429 6.814268 11.319372
vertex 11.538429 6.793515 11.299372
endloop
endfacet
facet normal 0 0 0
outer loop
vertex 11.517954 6.814268 11.319372
vertex 11.538429 6.814268 11.319372
vertex 11.517954 6.793515 11.299372
endloop
endfacet
facet normal 0 0 0
outer loop
vertex 11.538429 6.814268 11.319372
vertex 11.558905 6.793515 11.319372
vertex 11.538429 6.793515 11.299372
endloop
endfacet
facet normal 0 0 0
outer loop
vertex 11.558905 6.793515 11.319372
vertex 11.558905 6.793515 11.299372
vertex 11.538429 6.793515 11.299372
endloop
endfacet
facet normal 0 0 0
outer loop
vertex 11.579380 6.793515 11.299372
vertex 11.558905 6.793515 11.299372
vertex 11.579380 6.793515 11.319372
endloop
endfacet
facet normal 0 0 0
outer loop
vertex 11.558905 6.793515 11.299372
vertex 11.558905 6.793515 11.319372
vertex 11.579380 6.793515 11.319372
endloop
endfacet
facet normal 0 0 0
outer loop
vertex 11.579380 6.793515 11.319372
vertex 11.599857 6.793515 11.299372
vertex 11.579380 6.793515 11.299372
endloop
endfacet
facet normal 0 0 0
outer loop
vertex 11.599857 6.668995 11.339372
vertex 11.579380 6.668995 11.319372
vertex 11.599857 6.668995 11.319372
endloop
endfacet
facet normal 0 0 0
outer loop
vertex 11.558905 6.689749 11.339372
vertex 11.538429 6.689749 11.319372
vertex 11.558905 6.689749 11.319372
endloop
endfacet
facet normal 0 0 0
outer loop
vertex 11.579380 6.668995 11.319372
vertex 11.579380 6.689749 11.339372
vertex 11.558905 6.689749 11.319372
endloop
endfacet
facet normal 0 0 0
outer loop
vertex 11.579380 6.689749 11.339372
vertex 11.558905 6.689749 11.339372
vertex 11.558905 6.689749 11.319372
endloop
endfacet
facet normal 0 0 0
outer loop
vertex 11.599857 6.668995 11.339372
vertex 11.579380 6.689749 11.339372
vertex 11.579380 6.668995 11.319372
endloop
endfacet
facet normal 0 0 0
outer loop
vertex 11.620333 6.689749 11.339372
vertex 11.599857 6.668995 11.339372
vertex 11.599857 6.689749 11.319372
endloop
endfacet
facet normal 0 0 0
outer loop
vertex 11.599857 6.668995 11.339372
vertex 11.599857 6.668995 11.319372
vertex 11.599857 6.689749 11.319372
endloop
endfacet
facet normal 0 0 0
outer loop
vertex 11.538429 6.689749 11.319372
vertex 11.538429 6.710502 11.339372
vertex 11.538429 6.710502 11.319372
endloop
endfacet
facet normal 0 0 0
outer loop
vertex 11.558905 6.689749 11.339372
vertex 11.538429 6.710502 11.339372
vertex 11.538429 6.689749 11.319372
endloop
endfacet
facet normal 0 0 0
outer loop
vertex 11.599857 6.689749 11.319372
vertex 11.620333 6.710502 11.319372
vertex 11.620333 6.689749 11.339372
endloop
endfacet
facet normal 0 0 0
outer loop
vertex 11.640808 6.710502 11.319372
vertex 11.620333 6.710502 11.339372
vertex 11.620333 6.710502 11.319372
endloop
endfacet
facet normal 0 0 0
outer loop
vertex 11.620333 6.710502 11.319372
vertex 11.620333 6.710502 11.339372
vertex 11.620333 6.689749 11.339372
endloop
endfacet
facet normal 0 0 0
outer loop
vertex 11.620333 6.689749 11.339372
vertex 11.620333 6.710502 11.339372
vertex 11.640808 6.689749 11.339372
endloop
endfacet
facet normal 0 0 0
outer loop
vertex 11.497478 6.731256 11.339372
vertex 11.517954 6.731256 11.319372
vertex 11.517954 6.731256 11.339372
endloop
endfacet
facet normal 0 0 0
outer loop
vertex 11.538429 6.710502 11.339372
vertex 11.517954 6.731256 11.319372
vertex 11.538429 6.710502 11.319372
endloop
endfacet
facet normal 0 0 0
outer loop
vertex 11.517954 6.731256 11.339372
vertex 11.517954 6.731256 11.319372
vertex 11.538429 6.710502 11.339372
endloop
endfacet
facet normal 0 0 0
outer loop
vertex 11.640808 6.731256 11.319372
vertex 11.620333 6.710502 11.339372
vertex 11.640808 6.710502 11.319372
endloop
endfacet
facet normal 0 0 0
outer loop
vertex 11.620333 6.731256 11.339372
vertex 11.620333 6.710502 11.339372
vertex 11.640808 6.731256 11.319372
endloop
endfacet
facet normal 0 0 0
outer loop
vertex 11.497478 6.752008 11.319372
vertex 11.497478 6.731256 11.339372
vertex 11.497478 6.752008 11.339372
endloop
endfacet
facet normal 0 0 0
outer loop
vertex 11.517954 6.731256 11.319372
vertex 11.497478 6.731256 11.339372
vertex 11.497478 6.752008 11.319372
endloop
endfacet
facet normal 0 0 0
outer loop
vertex 11.640808 6.731256 11.319372
vertex 11.620333 6.752008 11.319372
vertex 11.620333 6.731256 11.339372
endloop
endfacet
facet normal 0 0 0
outer loop
vertex 11.620333 6.752008 11.319372
vertex 11.620333 6.752008 11.339372
vertex 11.620333 6.731256 11.339372
endloop
endfacet
facet normal 0 0 0
outer loop
vertex 11.497478 6.752008 11.319372
vertex 11.497478 6.752008 11.339372
vertex 11.497478 6.772762 11.319372
endloop
endfacet
facet normal 0 0 0
outer loop
vertex 11.497478 6.752008 11.339372
vertex 11.497478 6.772762 11.339372
vertex 11.497478 6.772762 11.319372
endloop
endfacet
facet normal 0 0 0
outer loop
vertex 11.599857 6.752008 11.319372
vertex 11.579380 6.772762 11.319372
vertex 11.599857 6.772762 11.339372
endloop
endfacet
facet normal 0 0 0
outer loop
vertex 11.599857 6.772762 11.339372
vertex 11.620333 6.752008 11.339372
vertex 11.599857 6.752008 11.319372
endloop
endfacet
facet normal 0 0 0
outer loop
vertex 11.620333 6.752008 11.339372
vertex 11.620333 6.752008 11.319372
vertex 11.599857 6.752008 11.319372
endloop
endfacet
facet normal 0 0 0
outer loop
vertex 11.497478 6.793515 11.339372
vertex 11.497478 6.772762 11.319372
vertex 11.497478 6.772762 11.339372
endloop
endfacet
facet normal 0 0 0
outer loop
vertex 11.497478 6.772762 11.319372
vertex 11.497478 6.793515 11.339372
vertex 11.517954 6.793515 11.319372
endloop
endfacet
facet normal 0 0 0
outer loop
vertex 11.599857 6.772762 11.339372
vertex 11.579380 6.793515 11.319372
vertex 11.599857 6.793515 11.339372
endloop
endfacet
facet normal 0 0 0
outer loop
vertex 11.579380 6.772762 11.319372
vertex 11.579380 6.793515 11.319372
vertex 11.599857 6.772762 11.339372
endloop
endfacet
facet normal 0 0 0
outer loop
vertex 11.497478 6.814268 11.319372
vertex 11.497478 6.793515 11.339372
vertex 11.497478 6.814268 11.339372
endloop
endfacet
facet normal 0 0 0
outer loop
vertex 11.517954 6.793515 11.319372
vertex 11.497478 6.793515 11.339372
vertex 11.497478 6.814268 11.319372
endloop
endfacet
facet normal 0 0 0
outer loop
vertex 11.558905 6.793515 11.319372
vertex 11.538429 6.814268 11.319372
vertex 11.558905 6.814268 11.339372
endloop
endfacet
facet normal 0 0 0
outer loop
vertex 11.558905 6.814268 11.339372
vertex 11.579380 6.793515 11.339372
vertex 11.558905 6.793515 11.319372
endloop
endfacet
facet normal 0 0 0
outer loop
vertex 11.579380 6.793515 11.339372
vertex 11.579380 6.793515 11.319372
vertex 11.558905 6.793515 11.319372
endloop
endfacet
facet normal 0 0 0
outer loop
vertex 11.599857 6.793515 11.339372
vertex 11.579380 6.793515 11.319372
vertex 11.579380 6.793515 11.339372
endloop
endfacet
facet normal 0 0 0
outer loop
vertex 11.517954 6.814268 11.319372
vertex 11.497478 6.814268 11.319372
vertex 11.517954 6.814268 11.339372
endloop
endfacet
facet normal 0 0 0
outer loop
vertex 11.497478 6.814268 11.319372
vertex 11.497478 6.814268 11.339372
vertex 11.517954 6.814268 11.339372
endloop
endfacet
facet normal 0 0 0
outer loop
vertex 11.538429 6.814268 11.319372
vertex 11.517954 6.814268 11.319372
vertex 11.538429 6.814268 11.339372
endloop
endfacet
facet normal 0 0 0
outer loop
vertex 11.517954 6.814268 11.319372
vertex 11.517954 6.814268 11.339372
vertex 11.538429 6.814268 11.339372
endloop
endfacet
facet normal 0 0 0
outer loop
vertex 11.558905 6.814268 11.339372
vertex 11.538429 6.814268 11.319372
vertex 11.538429 6.814268 11.339372
endloop
endfacet
facet normal 0 0 0
outer loop
vertex 11.579380 6.689749 11.339372
vertex 11.579380 6.689749 11.359372
vertex 11.558905 6.689749 11.339372
endloop
endfacet
facet normal 0 0 0
outer loop
vertex 11.558905 6.689749 11.339372
vertex 11.579380 6.689749 11.359372
vertex 11.558905 6.689749 11.359372
endloop
endfacet
facet normal 0 0 0
outer loop
vertex 11.599857 6.668995 11.339372
vertex 11.599857 6.689749 11.359372
vertex 11.579380 6.689749 11.339372
endloop
endfacet
facet normal 0 0 0
outer loop
vertex 11.599857 6.689749 11.359372
vertex 11.579380 6.689749 11.359372
vertex 11.579380 6.689749 11.339372
endloop
endfacet
facet normal 0 0 0
outer loop
vertex 11.620333 6.689749 11.339372
vertex 11.599857 6.689749 11.359372
vertex 11.599857 6.668995 11.339372
endloop
endfacet
facet normal 0 0 0
outer loop
vertex 11.558905 6.689749 11.359372
vertex 11.538429 6.710502 11.339372
vertex 11.558905 6.689749 11.339372
endloop
endfacet
facet normal 0 0 0
outer loop
vertex 11.538429 6.710502 11.359372
vertex 11.538429 6.710502 11.339372
vertex 11.558905 6.689749 11.359372
endloop
endfacet
facet normal 0 0 0
outer loop
vertex 11.620333 6.689749 11.339372
vertex 11.620333 6.710502 11.359372
vertex 11.599857 6.689749 11.359372
endloop
endfacet
facet normal 0 0 0
outer loop
vertex 11.640808 6.689749 11.339372
vertex 11.620333 6.710502 11.339372
vertex 11.620333 6.710502 11.359372
endloop
endfacet
facet normal 0 0 0
outer loop
vertex 11.640808 6.689749 11.339372
vertex 11.620333 6.710502 11.359372
vertex 11.620333 6.689749 11.339372
endloop
endfacet
facet normal 0 0 0
outer loop
vertex 11.517954 6.731256 11.359372
vertex 11.497478 6.731256 11.339372
vertex 11.517954 6.731256 11.339372
endloop
endfacet
facet normal 0 0 0
outer loop
vertex 11.538429 6.710502 11.359372
vertex 11.517954 6.731256 11.339372
vertex 11.538429 6.710502 11.339372
endloop
endfacet
facet normal 0 0 0
outer loop
vertex 11.517954 6.731256 11.359372
vertex 11.517954 6.731256 11.339372
vertex 11.538429 6.710502 11.359372
endloop
endfacet
facet normal 0 0 0
outer loop
vertex 11.640808 6.731256 11.359372
vertex 11.620333 6.710502 11.359372
vertex 11.620333 6.731256 11.339372
endloop
endfacet
facet normal 0 0 0
outer loop
vertex 11.620333 6.710502 11.359372
vertex 11.620333 6.710502 11.339372
vertex 11.620333 6.731256 11.339372
endloop
endfacet
facet normal 0 0 0
outer loop
vertex 11.497478 6.731256 11.339372
vertex 11.497478 6.752008 11.359372
vertex 11.497478 6.752008 11.339372
endloop
endfacet
facet normal 0 0 0
outer loop
vertex 11.517954 6.731256 11.359372
vertex 11.497478 6.752008 11.359372
vertex 11.497478 6.731256 11.339372
endloop
endfacet
facet normal 0 0 0
outer loop
vertex 11.640808 6.731256 11.359372
vertex 11.620333 6.752008 11.339372
vertex 11.640808 6.752008 11.359372
endloop
endfacet
facet normal 0 0 0
outer loop
vertex 11.620333 6.731256 11.339372
vertex 11.620333 6.752008 11.339372
vertex 11.640808 6.731256 11.359372
endloop
endfacet
facet normal 0 0 0
outer loop
vertex 11.477001 6.772762 11.359372
vertex 11.497478 6.772762 11.339372
vertex 11.497478 6.752008 11.359372
endloop
endfacet
facet normal 0 0 0
outer loop
vertex 11.497478 6.772762 11.339372
vertex 11.497478 6.752008 11.339372
vertex 11.497478 6.752008 11.359372
endloop
endfacet
facet normal 0 0 0
outer loop
vertex 11.620333 6.752008 11.339372
vertex 11.599857 6.772762 11.339372
vertex 11.620333 6.772762 11.359372
endloop
endfacet
facet normal 0 0 0
outer loop
vertex 11.620333 6.752008 11.339372
vertex 11.620333 6.772762 11.359372
vertex 11.640808 6.752008 11.359372
endloop
endfacet
facet normal 0 0 0
outer loop
vertex 11.477001 6.772762 11.359372
vertex 11.497478 6.793515 11.359372
vertex 11.497478 6.772762 11.339372
endloop
endfacet
facet normal 0 0 0
outer loop
vertex 11.497478 6.793515 11.359372
vertex 11.497478 6.793515 11.339372
vertex 11.497478 6.772762 11.339372
endloop
endfacet
facet normal 0 0 0
outer loop
vertex 11.620333 6.772762 11.359372
vertex 11.599857 6.772762 11.339372
vertex 11.599857 6.793515 11.359372
endloop
endfacet
facet normal 0 0 0
outer loop
vertex 11.599857 6.772762 11.339372
vertex 11.599857 6.793515 11.339372
vertex 11.599857 6.793515 11.359372
endloop
endfacet
facet normal 0 0 0
outer loop
vertex 11.497478 6.793515 11.359372
vertex 11.497478 6.814268 11.339372
vertex 11.497478 6.793515 11.339372
endloop
endfacet
facet normal 0 0 0
outer loop
vertex 11.497478 6.793515 11.359372
vertex 11.517954 6.814268 11.359372
vertex 11.497478 6.814268 11.339372
endloop
endfacet
facet normal 0 0 0
outer loop
vertex 11.579380 6.793515 11.339372
vertex 11.558905 6.814268 11.339372
vertex 11.579380 6.814268 11.359372
endloop
endfacet
facet normal 0 0 0
outer loop
vertex 11.579380 6.814268 11.359372
vertex 11.599857 6.793515 11.359372
vertex 11.579380 6.793515 11.339372
endloop
endfacet
facet normal 0 0 0
outer loop
vertex 11.599857 6.793515 11.359372
vertex 11.599857 6.793515 11.339372
vertex 11.579380 6.793515 11.339372
endloop
endfacet
facet normal 0 0 0
outer loop
vertex 11.497478 6.814268 11.339372
vertex 11.517954 6.814268 11.359372
vertex 11.517954 6.814268 11.339372
endloop
endfacet
facet normal 0 0 0
outer loop
vertex 11.538429 6.814268 11.339372
vertex 11.517954 6.814268 11.339372
vertex 11.538429 6.814268 11.359372
endloop
endfacet
facet normal 0 0 0
outer loop
vertex 11.517954 6.814268 11.339372
vertex 11.517954 6.814268 11.359372
vertex 11.538429 6.814268 11.359372
endloop
endfacet
facet normal 0 0 0
outer loop
vertex 11.558905 6.814268 11.339372
vertex 11.538429 6.814268 11.339372
vertex 11.558905 6.814268 11.359372
endloop
endfacet
facet normal 0 0 0
outer loop
vertex 11.538429 6.814268 11.339372
vertex 11.538429 6.814268 11.359372
vertex 11.558905 6.814268 11.359372
endloop
endfacet
facet normal 0 0 0
outer loop
vertex 11.579380 6.814268 11.359372
vertex 11.558905 6.814268 11.339372
vertex 11.558905 6.814268 11.359372
endloop
endfacet
facet normal 0 0 0
outer loop
vertex 11.538429 6.668995 11.379372
vertex 11.517954 6.689749 11.379372
vertex 11.538429 6.689749 11.379372
endloop
endfacet
facet normal 0 0 0
outer loop
vertex 11.558905 6.689749 11.359372
vertex 11.558905 6.668995 11.379372
vertex 11.538429 6.689749 11.379372
endloop
endfacet
facet normal 0 0 0
outer loop
vertex 11.558905 6.668995 11.379372
vertex 11.538429 6.668995 11.379372
vertex 11.538429 6.689749 11.379372
endloop
endfacet
facet normal 0 0 0
outer loop
vertex 11.579380 6.689749 11.359372
vertex 11.558905 6.668995 11.379372
vertex 11.558905 6.689749 11.359372
endloop
endfacet
facet normal 0 0 0
outer loop
vertex 11.579380 6.668995 11.379372
vertex 11.558905 6.668995 11.379372
vertex 11.579380 6.689749 11.359372
endloop
endfacet
facet normal 0 0 0
outer loop
vertex 11.599857 6.689749 11.359372
vertex 11.579380 6.668995 11.379372
vertex 11.579380 6.689749 11.359372
endloop
endfacet
facet normal 0 0 0
outer loop
vertex 11.599857 6.668995 11.379372
vertex 11.579380 6.668995 11.379372
vertex 11.599857 6.689749 11.359372
endloop
endfacet
facet normal 0 0 0
outer loop
vertex 11.599857 6.689749 11.359372
vertex 11.620333 6.689749 11.379372
vertex 11.599857 6.668995 11.379372
endloop
endfacet
facet normal 0 0 0
outer loop
vertex 11.620333 6.689749 11.379372
vertex 11.620333 6.668995 11.379372
vertex 11.599857 6.668995 11.379372
endloop
endfacet
facet normal 0 0 0
outer loop
vertex 11.497478 6.689749 11.379372
vertex 11.477001 6.710502 11.379372
vertex 11.497478 6.710502 11.379372
endloop
endfacet
facet normal 0 0 0
outer loop
vertex 11.517954 6.689749 11.379372
vertex 11.497478 6.689749 11.379372
vertex 11.517954 6.710502 11.379372
endloop
endfacet
facet normal 0 0 0
outer loop
vertex 11.517954 6.710502 11.379372
vertex 11.497478 6.689749 11.379372
vertex 11.497478 6.710502 11.379372
endloop
endfacet
facet normal 0 0 0
outer loop
vertex 11.538429 6.710502 11.359372
vertex 11.538429 6.689749 11.379372
vertex 11.517954 6.710502 11.379372
endloop
endfacet
facet normal 0 0 0
outer loop
vertex 11.538429 6.689749 11.379372
vertex 11.517954 6.689749 11.379372
vertex 11.517954 6.710502 11.379372
endloop
endfacet
facet normal 0 0 0
outer loop
vertex 11.558905 6.689749 11.359372
vertex 11.538429 6.689749 11.379372
vertex 11.538429 6.710502 11.359372
endloop
endfacet
facet normal 0 0 0
outer loop
vertex 11.620333 6.710502 11.359372
vertex 11.599857 6.710502 11.379372
vertex 11.599857 6.689749 11.359372
endloop
endfacet
facet normal 0 0 0
outer loop
vertex 11.620333 6.689749 11.379372
vertex 11.599857 6.689749 11.359372
vertex 11.599857 6.710502 11.379372
endloop
endfacet
facet normal 0 0 0
outer loop
vertex 11.497478 6.710502 11.379372
vertex 11.477001 6.710502 11.379372
vertex 11.497478 6.731256 11.379372
endloop
endfacet
facet normal 0 0 0
outer loop
vertex 11.497478 6.731256 11.379372
vertex 11.477001 6.710502 11.379372
vertex 11.477001 6.731256 11.379372
endloop
endfacet
facet normal 0 0 0
outer loop
vertex 11.517954 6.731256 11.359372
vertex 11.517954 6.710502 11.379372
vertex 11.497478 6.731256 11.379372
endloop
endfacet
facet normal 0 0 0
outer loop
vertex 11.517954 6.710502 11.379372
vertex 11.497478 6.710502 11.379372
vertex 11.497478 6.731256 11.379372
endloop
endfacet
facet normal 0 0 0
outer loop
vertex 11.538429 6.710502 11.359372
vertex 11.517954 6.710502 11.379372
vertex 11.517954 6.731256 11.359372
endloop
endfacet
facet normal 0 0 0
outer loop
vertex 11.620333 6.731256 11.359372
vertex 11.599857 6.710502 11.379372
vertex 11.620333 6.710502 11.359372
endloop
endfacet
facet normal 0 0 0
outer loop
vertex 11.599857 6.731256 11.379372
vertex 11.599857 6.710502 11.379372
vertex 11.620333 6.731256 11.359372
endloop
endfacet
facet normal 0 0 0
outer loop
vertex 11.620333 6.710502 11.359372
vertex 11.640808 6.731256 11.359372
vertex 11.620333 6.731256 11.359372
endloop
endfacet
facet normal 0 0 0
outer loop
vertex 11.477001 6.731256 11.379372
vertex 11.456526 6.752008 11.379372
vertex 11.477001 6.752008 11.379372
endloop
endfacet
facet normal 0 0 0
outer loop
vertex 11.497478 6.752008 11.359372
vertex 11.497478 6.731256 11.379372
vertex 11.477001 6.752008 11.379372
endloop
endfacet
facet normal 0 0 0
outer loop
vertex 11.497478 6.731256 11.379372
vertex 11.477001 6.731256 11.379372
vertex 11.477001 6.752008 11.379372
endloop
endfacet
facet normal 0 0 0
outer loop
vertex 11.517954 6.731256 11.359372
vertex 11.497478 6.731256 11.379372
vertex 11.497478 6.752008 11.359372
endloop
endfacet
facet normal 0 0 0
outer loop
vertex 11.620333 6.731256 11.359372
vertex 11.620333 6.752008 11.379372
vertex 11.599857 6.731256 11.379372
endloop
endfacet
facet normal 0 0 0
outer loop
vertex 11.620333 6.752008 11.379372
vertex 11.620333 6.731256 11.359372
vertex 11.640808 6.752008 11.359372
endloop
endfacet
facet normal 0 0 0
outer loop
vertex 11.620333 6.731256 11.359372
vertex 11.640808 6.731256 11.359372
vertex 11.640808 6.752008 11.359372
endloop
endfacet
facet normal 0 0 0
outer loop
vertex 11.477001 6.772762 11.359372
vertex 11.477001 6.752008 11.379372
vertex 11.456526 6.772762 11.379372
endloop
endfacet
facet normal 0 0 0
outer loop
vertex 11.477001 6.752008 11.379372
vertex 11.456526 6.752008 11.379372
vertex 11.456526 6.772762 11.379372
endloop
endfacet
facet normal 0 0 0
outer loop
vertex 11.497478 6.752008 11.359372
vertex 11.477001 6.752008 11.379372
vertex 11.477001 6.772762 11.359372
endloop
endfacet
facet normal 0 0 0
outer loop
vertex 11.620333 6.772762 11.359372
vertex 11.599857 6.772762 11.379372
vertex 11.620333 6.752008 11.379372
endloop
endfacet
facet normal 0 0 0
outer loop
vertex 11.640808 6.752008 11.359372
vertex 11.620333 6.772762 11.359372
vertex 11.620333 6.752008 11.379372
endloop
endfacet
facet normal 0 0 0
outer loop
vertex 11.477001 6.772762 11.359372
vertex 11.456526 6.772762 11.379372
vertex 11.477001 6.793515 11.379372
endloop
endfacet
facet normal 0 0 0
outer loop
vertex 11.477001 6.772762 11.359372
vertex 11.477001 6.793515 11.379372
vertex 11.497478 6.793515 11.359372
endloop
endfacet
facet normal 0 0 0
outer loop
vertex 11.579380 6.793515 11.359372
vertex 11.558905 6.793515 11.379372
vertex 11.579380 6.772762 11.379372
endloop
endfacet
facet normal 0 0 0
outer loop
vertex 11.579380 6.793515 11.359372
vertex 11.599857 6.772762 11.379372
vertex 11.599857 6.793515 11.359372
endloop
endfacet
facet normal 0 0 0
outer loop
vertex 11.579380 6.772762 11.379372
vertex 11.599857 6.772762 11.379372
vertex 11.579380 6.793515 11.359372
endloop
endfacet
facet normal 0 0 0
outer loop
vertex 11.620333 6.772762 11.359372
vertex 11.599857 6.793515 11.359372
vertex 11.599857 6.772762 11.379372
endloop
endfacet
facet normal 0 0 0
outer loop
vertex 11.497478 6.793515 11.359372
vertex 11.477001 6.793515 11.379372
vertex 11.497478 6.814268 11.379372
endloop
endfacet
facet normal 0 0 0
outer loop
vertex 11.497478 6.814268 11.379372
vertex 11.517954 6.793515 11.379372
vertex 11.497478 6.793515 11.359372
endloop
endfacet
facet normal 0 0 0
outer loop
vertex 11.517954 6.814268 11.359372
vertex 11.497478 6.793515 11.359372
vertex 11.517954 6.793515 11.379372
endloop
endfacet
facet normal 0 0 0
outer loop
vertex 11.517954 6.814268 11.359372
vertex 11.538429 6.793515 11.379372
vertex 11.538429 6.814268 11.359372
endloop
endfacet
facet normal 0 0 0
outer loop
vertex 11.517954 6.793515 11.379372
vertex 11.538429 6.793515 11.379372
vertex 11.517954 6.814268 11.359372
endloop
endfacet
facet normal 0 0 0
outer loop
vertex 11.538429 6.814268 11.359372
vertex 11.558905 6.793515 11.379372
vertex 11.558905 6.814268 11.359372
endloop
endfacet
facet normal 0 0 0
outer loop
vertex 11.538429 6.793515 11.379372
vertex 11.558905 6.793515 11.379372
vertex 11.538429 6.814268 11.359372
endloop
endfacet
facet normal 0 0 0
outer loop
vertex 11.579380 6.814268 11.379372
vertex 11.558905 6.814268 11.359372
vertex 11.579380 6.793515 11.359372
endloop
endfacet
facet normal 0 0 0
outer loop
vertex 11.558905 6.793515 11.379372
vertex 11.579380 6.793515 11.359372
vertex 11.558905 6.814268 11.359372
endloop
endfacet
facet normal 0 0 0
outer loop
vertex 11.599857 6.793515 11.359372
vertex 11.579380 6.814268 11.359372
vertex 11.579380 6.814268 11.379372
endloop
endfacet
facet normal 0 0 0
outer loop
vertex 11.599857 6.793515 11.359372
vertex 11.579380 6.814268 11.379372
vertex 11.579380 6.793515 11.359372
endloop
endfacet
facet normal 0 0 0
outer loop
vertex 11.558905 6.814268 11.359372
vertex 11.579380 6.814268 11.379372
vertex 11.579380 6.814268 11.359372
endloop
endfacet
facet normal 0 0 0
outer loop
vertex 11.558905 6.668995 11.379372
vertex 11.558905 6.689749 11.379372
vertex 11.538429 6.668995 11.379372
endloop
endfacet
facet normal 0 0 0
outer loop
vertex 11.558905 6.689749 11.379372
vertex 11.538429 6.689749 11.379372
vertex 11.538429 6.668995 11.379372
endloop
endfacet
facet normal 0 0 0
outer loop
vertex 11.579380 6.668995 11.379372
vertex 11.579380 6.689749 11.379372
vertex 11.558905 6.668995 11.379372
endloop
endfacet
facet normal 0 0 0
outer loop
vertex 11.579380 6.689749 11.379372
vertex 11.558905 6.689749 11.379372
vertex 11.558905 6.668995 11.379372
endloop
endfacet
facet normal 0 0 0
outer loop
vertex 11.599857 6.668995 11.379372
vertex 11.599857 6.689749 11.379372
vertex 11.579380 6.668995 11.379372
endloop
endfacet
facet normal 0 0 0
outer loop
vertex 11.599857 6.689749 11.379372
vertex 11.579380 6.689749 11.379372
vertex 11.579380 6.668995 11.379372
endloop
endfacet
facet normal 0 0 0
outer loop
vertex 11.620333 6.689749 11.379372
vertex 11.599857 6.689749 11.379372
vertex 11.599857 6.668995 11.379372
endloop
endfacet
facet normal 0 0 0
outer loop
vertex 11.497478 6.689749 11.379372
vertex 11.497478 6.710502 11.399372
vertex 11.477001 6.710502 11.379372
endloop
endfacet
facet normal 0 0 0
outer loop
vertex 11.517954 6.689749 11.379372
vertex 11.497478 6.710502 11.399372
vertex 11.497478 6.689749 11.379372
endloop
endfacet
facet normal 0 0 0
outer loop
vertex 11.517954 6.710502 11.399372
vertex 11.497478 6.710502 11.399372
vertex 11.517954 6.689749 11.379372
endloop
endfacet
facet normal 0 0 0
outer loop
vertex 11.538429 6.689749 11.379372
vertex 11.517954 6.710502 11.399372
vertex 11.517954 6.689749 11.379372
endloop
endfacet
facet normal 0 0 0
outer loop
vertex 11.538429 6.710502 11.399372
vertex 11.517954 6.710502 11.399372
vertex 11.538429 6.689749 11.379372
endloop
endfacet
facet normal 0 0 0
outer loop
vertex 11.558905 6.689749 11.379372
vertex 11.538429 6.710502 11.399372
vertex 11.538429 6.689749 11.379372
endloop
endfacet
facet normal 0 0 0
outer loop
vertex 11.558905 6.710502 11.399372
vertex 11.538429 6.710502 11.399372
vertex 11.558905 6.689749 11.379372
endloop
endfacet
facet normal 0 0 0
outer loop
vertex 11.579380 6.689749 11.379372
vertex 11.558905 6.710502 11.399372
vertex 11.558905 6.689749 11.379372
endloop
endfacet
facet normal 0 0 0
outer loop
vertex 11.579380 6.710502 11.399372
vertex 11.558905 6.710502 11.399372
vertex 11.579380 6.689749 11.379372
endloop
endfacet
facet normal 0 0 0
outer loop
vertex 11.579380 6.710502 11.399372
vertex 11.579380 6.689749 11.379372
vertex 11.599857 6.710502 11.379372
endloop
endfacet
facet normal 0 0 0
outer loop
vertex 11.579380 6.689749 11.379372
vertex 11.599857 6.689749 11.379372
vertex 11.599857 6.710502 11.379372
endloop
endfacet
facet normal 0 0 0
outer loop
vertex 11.620333 6.689749 11.379372
vertex 11.599857 6.710502 11.379372
vertex 11.599857 6.689749 11.379372
endloop
endfacet
facet normal 0 0 0
outer loop
vertex 11.477001 6.710502 11.379372
vertex 11.477001 6.731256 11.399372
vertex 11.477001 6.731256 11.379372
endloop
endfacet
facet normal 0 0 0
outer loop
vertex 11.497478 6.710502 11.399372
vertex 11.477001 6.731256 11.399372
vertex 11.477001 6.710502 11.379372
endloop
endfacet
facet normal 0 0 0
outer loop
vertex 11.599857 6.731256 11.379372
vertex 11.579380 6.710502 11.399372
vertex 11.599857 6.710502 11.379372
endloop
endfacet
facet normal 0 0 0
outer loop
vertex 11.579380 6.731256 11.399372
vertex 11.579380 6.710502 11.399372
vertex 11.599857 6.731256 11.379372
endloop
endfacet
facet normal 0 0 0
outer loop
vertex 11.436050 6.752008 11.399372
vertex 11.456526 6.752008 11.379372
vertex 11.456526 6.752008 11.399372
endloop
endfacet
facet normal 0 0 0
outer loop
vertex 11.477001 6.731256 11.399372
vertex 11.456526 6.752008 11.379372
vertex 11.477001 6.731256 11.379372
endloop
endfacet
facet normal 0 0 0
outer loop
vertex 11.456526 6.752008 11.399372
vertex 11.456526 6.752008 11.379372
vertex 11.477001 6.731256 11.399372
endloop
endfacet
facet normal 0 0 0
outer loop
vertex 11.599857 6.752008 11.379372
vertex 11.579380 6.731256 11.399372
vertex 11.599857 6.731256 11.379372
endloop
endfacet
facet normal 0 0 0
outer loop
vertex 11.579380 6.752008 11.399372
vertex 11.579380 6.731256 11.399372
vertex 11.599857 6.752008 11.379372
endloop
endfacet
facet normal 0 0 0
outer loop
vertex 11.599857 6.731256 11.379372
vertex 11.620333 6.752008 11.379372
vertex 11.599857 6.752008 11.379372
endloop
endfacet
facet normal 0 0 0
outer loop
vertex 11.436050 6.752008 11.399372
vertex 11.456526 6.772762 11.379372
vertex 11.456526 6.752008 11.379372
endloop
endfacet
facet normal 0 0 0
outer loop
vertex 11.436050 6.752008 11.399372
vertex 11.456526 6.752008 11.399372
vertex 11.456526 6.772762 11.379372
endloop
endfacet
facet normal 0 0 0
outer loop
vertex 11.456526 6.752008 11.399372
vertex 11.477001 6.772762 11.399372
vertex 11.456526 6.772762 11.379372
endloop
endfacet
facet normal 0 0 0
outer loop
vertex 11.579380 6.772762 11.379372
vertex 11.558905 6.772762 11.399372
vertex 11.579380 6.752008 11.399372
endloop
endfacet
facet normal 0 0 0
outer loop
vertex 11.579380 6.752008 11.399372
vertex 11.599857 6.752008 11.379372
vertex 11.579380 6.772762 11.379372
endloop
endfacet
facet normal 0 0 0
outer loop
vertex 11.599857 6.752008 11.379372
vertex 11.599857 6.772762 11.379372
vertex 11.579380 6.772762 11.379372
endloop
endfacet
facet normal 0 0 0
outer loop
vertex 11.620333 6.752008 11.379372
vertex 11.599857 6.772762 11.379372
vertex 11.599857 6.752008 11.379372
endloop
endfacet
facet normal 0 0 0
outer loop
vertex 11.456526 6.793515 11.399372
vertex 11.477001 6.793515 11.379372
vertex 11.477001 6.772762 11.399372
endloop
endfacet
facet normal 0 0 0
outer loop
vertex 11.456526 6.772762 11.379372
vertex 11.477001 6.772762 11.399372
vertex 11.477001 6.793515 11.379372
endloop
endfacet
facet normal 0 0 0
outer loop
vertex 11.558905 6.793515 11.379372
vertex 11.538429 6.793515 11.399372
vertex 11.558905 6.772762 11.399372
endloop
endfacet
facet normal 0 0 0
outer loop
vertex 11.579380 6.772762 11.379372
vertex 11.558905 6.793515 11.379372
vertex 11.558905 6.772762 11.399372
endloop
endfacet
facet normal 0 0 0
outer loop
vertex 11.456526 6.793515 11.399372
vertex 11.436050 6.793515 11.399372
vertex 11.456526 6.814268 11.399372
endloop
endfacet
facet normal 0 0 0
outer loop
vertex 11.477001 6.793515 11.379372
vertex 11.456526 6.793515 11.399372
vertex 11.477001 6.814268 11.399372
endloop
endfacet
facet normal 0 0 0
outer loop
vertex 11.456526 6.793515 11.399372
vertex 11.456526 6.814268 11.399372
vertex 11.477001 6.814268 11.399372
endloop
endfacet
facet normal 0 0 0
outer loop
vertex 11.477001 6.793515 11.379372
vertex 11.477001 6.814268 11.399372
vertex 11.497478 6.814268 11.379372
endloop
endfacet
facet normal 0 0 0
outer loop
vertex 11.517954 6.793515 11.379372
vertex 11.497478 6.814268 11.379372
vertex 11.517954 6.814268 11.399372
endloop
endfacet
facet normal 0 0 0
outer loop
vertex 11.517954 6.793515 11.379372
vertex 11.538429 6.814268 11.399372
vertex 11.538429 6.793515 11.379372
endloop
endfacet
facet normal 0 0 0
outer loop
vertex 11.517954 6.814268 11.399372
vertex 11.538429 6.814268 11.399372
vertex 11.517954 6.793515 11.379372
endloop
endfacet
facet normal 0 0 0
outer loop
vertex 11.558905 6.793515 11.379372
vertex 11.538429 6.814268 11.399372
vertex 11.538429 6.793515 11.399372
endloop
endfacet
facet normal 0 0 0
outer loop
vertex 11.558905 6.793515 11.379372
vertex 11.538429 6.793515 11.379372
vertex 11.538429 6.814268 11.399372
endloop
endfacet
facet normal 0 0 0
outer loop
vertex 11.477001 6.814268 11.399372
vertex 11.456526 6.814268 11.399372
vertex 11.477001 6.835022 11.399372
endloop
endfacet
facet normal 0 0 0
outer loop
vertex 11.497478 6.814268 11.379372
vertex 11.477001 6.814268 11.399372
vertex 11.497478 6.835022 11.399372
endloop
endfacet
facet normal 0 0 0
outer loop
vertex 11.477001 6.814268 11.399372
vertex 11.477001 6.835022 11.399372
vertex 11.497478 6.835022 11.399372
endloop
endfacet
facet normal 0 0 0
outer loop
vertex 11.497478 6.814268 11.379372
vertex 11.497478 6.835022 11.399372
vertex 11.517954 6.814268 11.399372
endloop
endfacet
facet normal 0 0 0
outer loop
vertex 11.497478 6.710502 11.399372
vertex 11.497478 6.731256 11.419372
vertex 11.477001 6.731256 11.399372
endloop
endfacet
facet normal 0 0 0
outer loop
vertex 11.517954 6.710502 11.399372
vertex 11.497478 6.731256 11.419372
vertex 11.497478 6.710502 11.399372
endloop
endfacet
facet normal 0 0 0
outer loop
vertex 11.517954 6.731256 11.419372
vertex 11.497478 6.731256 11.419372
vertex 11.517954 6.710502 11.399372
endloop
endfacet
facet normal 0 0 0
outer loop
vertex 11.538429 6.710502 11.399372
vertex 11.517954 6.731256 11.419372
vertex 11.517954 6.710502 11.399372
endloop
endfacet
facet normal 0 0 0
outer loop
vertex 11.538429 6.731256 11.419372
vertex 11.517954 6.731256 11.419372
vertex 11.538429 6.710502 11.399372
endloop
endfacet
facet normal 0 0 0
outer loop
vertex 11.538429 6.731256 11.419372
vertex 11.538429 6.710502 11.399372
vertex 11.558905 6.731256 11.399372
endloop
endfacet
facet normal 0 0 0
outer loop
vertex 11.538429 6.710502 11.399372
vertex 11.558905 6.710502 11.399372
vertex 11.558905 6.731256 11.399372
endloop
endfacet
facet normal 0 0 0
outer loop
vertex 11.579380 6.710502 11.399372
vertex 11.579380 6.731256 11.399372
vertex 11.558905 6.710502 11.399372
endloop
endfacet
facet normal 0 0 0
outer loop
vertex 11.579380 6.731256 11.399372
vertex 11.558905 6.731256 11.399372
vertex 11.558905 6.710502 11.399372
endloop
endfacet
facet normal 0 0 0
outer loop
vertex 11.477001 6.731256 11.399372
vertex 11.477001 6.752008 11.419372
vertex 11.456526 6.752008 11.399372
endloop
endfacet
facet normal 0 0 0
outer loop
vertex 11.497478 6.731256 11.419372
vertex 11.477001 6.752008 11.419372
vertex 11.477001 6.731256 11.399372
endloop
endfacet
facet normal 0 0 0
outer loop
vertex 11.558905 6.752008 11.399372
vertex 11.538429 6.731256 11.419372
vertex 11.558905 6.731256 11.399372
endloop
endfacet
facet normal 0 0 0
outer loop
vertex 11.538429 6.752008 11.419372
vertex 11.538429 6.731256 11.419372
vertex 11.558905 6.752008 11.399372
endloop
endfacet
facet normal 0 0 0
outer loop
vertex 11.579380 6.731256 11.399372
vertex 11.579380 6.752008 11.399372
vertex 11.558905 6.731256 11.399372
endloop
endfacet
facet normal 0 0 0
outer loop
vertex 11.579380 6.752008 11.399372
vertex 11.558905 6.752008 11.399372
vertex 11.558905 6.731256 11.399372
endloop
endfacet
facet normal 0 0 0
outer loop
vertex 11.456526 6.772762 11.419372
vertex 11.477001 6.772762 11.399372
vertex 11.477001 6.752008 11.419372
endloop
endfacet
facet normal 0 0 0
outer loop
vertex 11.456526 6.752008 11.399372
vertex 11.477001 6.752008 11.419372
vertex 11.477001 6.772762 11.399372
endloop
endfacet
facet normal 0 0 0
outer loop
vertex 11.558905 6.772762 11.399372
vertex 11.538429 6.752008 11.419372
vertex 11.558905 6.752008 11.399372
endloop
endfacet
facet normal 0 0 0
outer loop
vertex 11.538429 6.772762 11.419372
vertex 11.538429 6.752008 11.419372
vertex 11.558905 6.772762 11.399372
endloop
endfacet
facet normal 0 0 0
outer loop
vertex 11.579380 6.752008 11.399372
vertex 11.558905 6.772762 11.399372
vertex 11.558905 6.752008 11.399372
endloop
endfacet
facet normal 0 0 0
outer loop
vertex 11.456526 6.772762 11.419372
vertex 11.456526 6.793515 11.419372
vertex 11.436050 6.793515 11.399372
endloop
endfacet
facet normal 0 0 0
outer loop
vertex 11.456526 6.772762 11.419372
vertex 11.436050 6.793515 11.399372
vertex 11.456526 6.793515 11.399372
endloop
endfacet
facet normal 0 0 0
outer loop
vertex 11.477001 6.772762 11.399372
vertex 11.456526 6.772762 11.419372
vertex 11.456526 6.793515 11.399372
endloop
endfacet
facet normal 0 0 0
outer loop
vertex 11.538429 6.793515 11.399372
vertex 11.517954 6.793515 11.419372
vertex 11.538429 6.772762 11.419372
endloop
endfacet
facet normal 0 0 0
outer loop
vertex 11.558905 6.772762 11.399372
vertex 11.538429 6.793515 11.399372
vertex 11.538429 6.772762 11.419372
endloop
endfacet
facet normal 0 0 0
outer loop
vertex 11.456526 6.793515 11.419372
vertex 11.456526 6.814268 11.399372
vertex 11.436050 6.793515 11.399372
endloop
endfacet
facet normal 0 0 0
outer loop
vertex 11.456526 6.814268 11.399372
vertex 11.436050 6.814268 11.399372
vertex 11.436050 6.793515 11.399372
endloop
endfacet
facet normal 0 0 0
outer loop
vertex 11.456526 6.793515 11.419372
vertex 11.477001 6.814268 11.419372
vertex 11.456526 6.814268 11.399372
endloop
endfacet
facet normal 0 0 0
outer loop
vertex 11.517954 6.814268 11.399372
vertex 11.497478 6.814268 11.419372
vertex 11.517954 6.793515 11.419372
endloop
endfacet
facet normal 0 0 0
outer loop
vertex 11.517954 6.793515 11.419372
vertex 11.538429 6.793515 11.399372
vertex 11.517954 6.814268 11.399372
endloop
endfacet
facet normal 0 0 0
outer loop
vertex 11.538429 6.793515 11.399372
vertex 11.538429 6.814268 11.399372
vertex 11.517954 6.814268 11.399372
endloop
endfacet
facet normal 0 0 0
outer loop
vertex 11.456526 6.835022 11.399372
vertex 11.436050 6.814268 11.399372
vertex 11.456526 6.814268 11.399372
endloop
endfacet
facet normal 0 0 0
outer loop
vertex 11.477001 6.814268 11.419372
vertex 11.477001 6.835022 11.399372
vertex 11.456526 6.814268 11.399372
endloop
endfacet
facet normal 0 0 0
outer loop
vertex 11.477001 6.835022 11.399372
vertex 11.456526 6.835022 11.399372
vertex 11.456526 6.814268 11.399372
endloop
endfacet
facet normal 0 0 0
outer loop
vertex 11.477001 6.835022 11.399372
vertex 11.497478 6.814268 11.419372
vertex 11.497478 6.835022 11.399372
endloop
endfacet
facet normal 0 0 0
outer loop
vertex 11.477001 6.814268 11.419372
vertex 11.497478 6.814268 11.419372
vertex 11.477001 6.835022 11.399372
endloop
endfacet
facet normal 0 0 0
outer loop
vertex 11.517954 6.814268 11.399372
vertex 11.497478 6.835022 11.399372
vertex 11.497478 6.814268 11.419372
endloop
endfacet
facet normal 0 0 0
outer loop
vertex 11.477001 6.752008 11.419372
vertex 11.497478 6.731256 11.419372
vertex 11.497478 6.752008 11.419372
endloop
endfacet
facet normal 0 0 0
outer loop
vertex 11.517954 6.731256 11.419372
vertex 11.517954 6.752008 11.419372
vertex 11.497478 6.731256 11.419372
endloop
endfacet
facet normal 0 0 0
outer loop
vertex 11.517954 6.752008 11.419372
vertex 11.497478 6.752008 11.419372
vertex 11.497478 6.731256 11.419372
endloop
endfacet
facet normal 0 0 0
outer loop
vertex 11.538429 6.731256 11.419372
vertex 11.538429 6.752008 11.419372
vertex 11.517954 6.731256 11.419372
endloop
endfacet
facet normal 0 0 0
outer loop
vertex 11.538429 6.752008 11.419372
vertex 11.517954 6.752008 11.419372
vertex 11.517954 6.731256 11.419372
endloop
endfacet
facet normal 0 0 0
outer loop
vertex 11.456526 6.772762 11.419372
vertex 11.477001 6.752008 11.419372
vertex 11.477001 6.772762 11.419372
endloop
endfacet
facet normal 0 0 0
outer loop
vertex 11.497478 6.752008 11.419372
vertex 11.497478 6.772762 11.419372
vertex 11.477001 6.752008 11.419372
endloop
endfacet
facet normal 0 0 0
outer loop
vertex 11.497478 6.772762 11.419372
vertex 11.477001 6.772762 11.419372
vertex 11.477001 6.752008 11.419372
endloop
endfacet
facet normal 0 0 0
outer loop
vertex 11.517954 6.752008 11.419372
vertex 11.517954 6.772762 11.419372
vertex 11.497478 6.752008 11.419372
endloop
endfacet
facet normal 0 0 0
outer loop
vertex 11.517954 6.772762 11.419372
vertex 11.497478 6.772762 11.419372
vertex 11.497478 6.752008 11.419372
endloop
endfacet
facet normal 0 0 0
outer loop
vertex 11.538429 6.752008 11.419372
vertex 11.538429 6.772762 11.419372
vertex 11.517954 6.752008 11.419372
endloop
endfacet
facet normal 0 0 0
outer loop
vertex 11.538429 6.772762 11.419372
vertex 11.517954 6.772762 11.419372
vertex 11.517954 6.752008 11.419372
endloop
endfacet
facet normal 0 0 0
outer loop
vertex 11.477001 6.772762 11.419372
vertex 11.477001 6.793515 11.419372
vertex 11.456526 6.772762 11.419372
endloop
endfacet
facet normal 0 0 0
outer loop
vertex 11.477001 6.793515 11.419372
vertex 11.456526 6.793515 11.419372
vertex 11.456526 6.772762 11.419372
endloop
endfacet
facet normal 0 0 0
outer loop
vertex 11.497478 6.772762 11.419372
vertex 11.497478 6.793515 11.419372
vertex 11.477001 6.772762 11.419372
endloop
endfacet
facet normal 0 0 0
outer loop
vertex 11.497478 6.793515 11.419372
vertex 11.477001 6.793515 11.419372
vertex 11.477001 6.772762 11.419372
endloop
endfacet
facet normal 0 0 0
outer loop
vertex 11.517954 6.772762 11.419372
vertex 11.517954 6.793515 11.419372
vertex 11.497478 6.772762 11.419372
endloop
endfacet
facet normal 0 0 0
outer loop
vertex 11.517954 6.793515 11.419372
vertex 11.497478 6.793515 11.419372
vertex 11.497478 6.772762 11.419372
endloop
endfacet
facet normal 0 0 0
outer loop
vertex 11.538429 6.772762 11.419372
vertex 11.517954 6.793515 11.419372
vertex 11.517954 6.772762 11.419372
endloop
endfacet
facet normal 0 0 0
outer loop
vertex 11.477001 6.814268 11.419372
vertex 11.456526 6.793515 11.419372
vertex 11.477001 6.793515 11.419372
endloop
endfacet
facet normal 0 0 0
outer loop
vertex 11.497478 6.793515 11.419372
vertex 11.497478 6.814268 11.419372
vertex 11.477001 6.793515 11.419372
endloop
endfacet
facet normal 0 0 0
outer loop
vertex 11.497478 6.814268 11.419372
vertex 11.477001 6.814268 11.419372
vertex 11.477001 6.793515 11.419372
endloop
endfacet
facet normal 0 0 0
outer loop
vertex 11.517954 6.793515 11.419372
vertex 11.497478 6.814268 11.419372
vertex 11.497478 6.793515 11.419372
endloop
endfacet
endsolid B-16-Plag.269
