solid B-16-Plag.168
facet normal 0 0 0
outer loop
vertex 14.486944 12.168626 8.239372
vertex 14.466469 12.168626 8.239372
vertex 14.486944 12.189379 8.239372
endloop
endfacet
facet normal 0 0 0
outer loop
vertex 14.486944 12.189379 8.239372
vertex 14.466469 12.168626 8.239372
vertex 14.466469 12.189379 8.239372
endloop
endfacet
facet normal 0 0 0
outer loop
vertex 14.507420 12.168626 8.239372
vertex 14.486944 12.168626 8.239372
vertex 14.507420 12.189379 8.239372
endloop
endfacet
facet normal 0 0 0
outer loop
vertex 14.507420 12.189379 8.239372
vertex 14.486944 12.168626 8.239372
vertex 14.486944 12.189379 8.239372
endloop
endfacet
facet normal 0 0 0
outer loop
vertex 14.527895 12.168626 8.239372
vertex 14.507420 12.168626 8.239372
vertex 14.527895 12.189379 8.239372
endloop
endfacet
facet normal 0 0 0
outer loop
vertex 14.527895 12.189379 8.239372
vertex 14.507420 12.168626 8.239372
vertex 14.507420 12.189379 8.239372
endloop
endfacet
facet normal 0 0 0
outer loop
vertex 14.486944 12.189379 8.239372
vertex 14.466469 12.189379 8.239372
vertex 14.486944 12.210133 8.239372
endloop
endfacet
facet normal 0 0 0
outer loop
vertex 14.486944 12.210133 8.239372
vertex 14.466469 12.189379 8.239372
vertex 14.466469 12.210133 8.239372
endloop
endfacet
facet normal 0 0 0
outer loop
vertex 14.507420 12.189379 8.239372
vertex 14.486944 12.189379 8.239372
vertex 14.507420 12.210133 8.239372
endloop
endfacet
facet normal 0 0 0
outer loop
vertex 14.507420 12.210133 8.239372
vertex 14.486944 12.189379 8.239372
vertex 14.486944 12.210133 8.239372
endloop
endfacet
facet normal 0 0 0
outer loop
vertex 14.527895 12.189379 8.239372
vertex 14.507420 12.189379 8.239372
vertex 14.527895 12.210133 8.239372
endloop
endfacet
facet normal 0 0 0
outer loop
vertex 14.527895 12.210133 8.239372
vertex 14.507420 12.189379 8.239372
vertex 14.507420 12.210133 8.239372
endloop
endfacet
facet normal 0 0 0
outer loop
vertex 14.548372 12.210133 8.239372
vertex 14.527895 12.189379 8.239372
vertex 14.527895 12.210133 8.239372
endloop
endfacet
facet normal 0 0 0
outer loop
vertex 14.486944 12.210133 8.239372
vertex 14.466469 12.210133 8.239372
vertex 14.486944 12.230886 8.239372
endloop
endfacet
facet normal 0 0 0
outer loop
vertex 14.486944 12.230886 8.239372
vertex 14.466469 12.210133 8.239372
vertex 14.466469 12.230886 8.239372
endloop
endfacet
facet normal 0 0 0
outer loop
vertex 14.507420 12.210133 8.239372
vertex 14.486944 12.210133 8.239372
vertex 14.507420 12.230886 8.239372
endloop
endfacet
facet normal 0 0 0
outer loop
vertex 14.507420 12.230886 8.239372
vertex 14.486944 12.210133 8.239372
vertex 14.486944 12.230886 8.239372
endloop
endfacet
facet normal 0 0 0
outer loop
vertex 14.527895 12.210133 8.239372
vertex 14.507420 12.210133 8.239372
vertex 14.527895 12.230886 8.239372
endloop
endfacet
facet normal 0 0 0
outer loop
vertex 14.527895 12.230886 8.239372
vertex 14.507420 12.210133 8.239372
vertex 14.507420 12.230886 8.239372
endloop
endfacet
facet normal 0 0 0
outer loop
vertex 14.527895 12.230886 8.239372
vertex 14.548372 12.210133 8.239372
vertex 14.527895 12.210133 8.239372
endloop
endfacet
facet normal 0 0 0
outer loop
vertex 14.486944 12.230886 8.239372
vertex 14.507420 12.251638 8.239372
vertex 14.507420 12.230886 8.239372
endloop
endfacet
facet normal 0 0 0
outer loop
vertex 14.507420 12.251638 8.239372
vertex 14.527895 12.230886 8.239372
vertex 14.507420 12.230886 8.239372
endloop
endfacet
facet normal 0 0 0
outer loop
vertex 14.486944 12.168626 8.239372
vertex 14.486944 12.168626 8.259372
vertex 14.466469 12.168626 8.239372
endloop
endfacet
facet normal 0 0 0
outer loop
vertex 14.466469 12.168626 8.239372
vertex 14.486944 12.168626 8.259372
vertex 14.466469 12.168626 8.259372
endloop
endfacet
facet normal 0 0 0
outer loop
vertex 14.507420 12.168626 8.239372
vertex 14.507420 12.168626 8.259372
vertex 14.486944 12.168626 8.239372
endloop
endfacet
facet normal 0 0 0
outer loop
vertex 14.486944 12.168626 8.239372
vertex 14.507420 12.168626 8.259372
vertex 14.486944 12.168626 8.259372
endloop
endfacet
facet normal 0 0 0
outer loop
vertex 14.527895 12.168626 8.239372
vertex 14.527895 12.168626 8.259372
vertex 14.507420 12.168626 8.239372
endloop
endfacet
facet normal 0 0 0
outer loop
vertex 14.507420 12.168626 8.239372
vertex 14.527895 12.168626 8.259372
vertex 14.507420 12.168626 8.259372
endloop
endfacet
facet normal 0 0 0
outer loop
vertex 14.445992 12.189379 8.259372
vertex 14.466469 12.189379 8.239372
vertex 14.466469 12.168626 8.259372
endloop
endfacet
facet normal 0 0 0
outer loop
vertex 14.466469 12.189379 8.239372
vertex 14.466469 12.168626 8.239372
vertex 14.466469 12.168626 8.259372
endloop
endfacet
facet normal 0 0 0
outer loop
vertex 14.527895 12.168626 8.239372
vertex 14.527895 12.189379 8.239372
vertex 14.527895 12.168626 8.259372
endloop
endfacet
facet normal 0 0 0
outer loop
vertex 14.527895 12.168626 8.259372
vertex 14.527895 12.189379 8.239372
vertex 14.527895 12.189379 8.259372
endloop
endfacet
facet normal 0 0 0
outer loop
vertex 14.466469 12.189379 8.239372
vertex 14.445992 12.210133 8.259372
vertex 14.466469 12.210133 8.239372
endloop
endfacet
facet normal 0 0 0
outer loop
vertex 14.445992 12.189379 8.259372
vertex 14.445992 12.210133 8.259372
vertex 14.466469 12.189379 8.239372
endloop
endfacet
facet normal 0 0 0
outer loop
vertex 14.548372 12.210133 8.239372
vertex 14.527895 12.210133 8.259372
vertex 14.527895 12.189379 8.239372
endloop
endfacet
facet normal 0 0 0
outer loop
vertex 14.527895 12.210133 8.259372
vertex 14.527895 12.189379 8.259372
vertex 14.527895 12.189379 8.239372
endloop
endfacet
facet normal 0 0 0
outer loop
vertex 14.445992 12.210133 8.259372
vertex 14.466469 12.230886 8.259372
vertex 14.466469 12.210133 8.239372
endloop
endfacet
facet normal 0 0 0
outer loop
vertex 14.466469 12.230886 8.259372
vertex 14.466469 12.230886 8.239372
vertex 14.466469 12.210133 8.239372
endloop
endfacet
facet normal 0 0 0
outer loop
vertex 14.548372 12.210133 8.239372
vertex 14.527895 12.230886 8.239372
vertex 14.527895 12.210133 8.259372
endloop
endfacet
facet normal 0 0 0
outer loop
vertex 14.527895 12.230886 8.239372
vertex 14.527895 12.230886 8.259372
vertex 14.527895 12.210133 8.259372
endloop
endfacet
facet normal 0 0 0
outer loop
vertex 14.486944 12.251638 8.259372
vertex 14.486944 12.230886 8.239372
vertex 14.466469 12.230886 8.259372
endloop
endfacet
facet normal 0 0 0
outer loop
vertex 14.486944 12.230886 8.239372
vertex 14.466469 12.230886 8.239372
vertex 14.466469 12.230886 8.259372
endloop
endfacet
facet normal 0 0 0
outer loop
vertex 14.486944 12.251638 8.259372
vertex 14.507420 12.230886 8.259372
vertex 14.486944 12.230886 8.239372
endloop
endfacet
facet normal 0 0 0
outer loop
vertex 14.507420 12.251638 8.239372
vertex 14.486944 12.230886 8.239372
vertex 14.507420 12.230886 8.259372
endloop
endfacet
facet normal 0 0 0
outer loop
vertex 14.507420 12.251638 8.239372
vertex 14.507420 12.230886 8.259372
vertex 14.527895 12.230886 8.239372
endloop
endfacet
facet normal 0 0 0
outer loop
vertex 14.507420 12.230886 8.259372
vertex 14.527895 12.230886 8.259372
vertex 14.527895 12.230886 8.239372
endloop
endfacet
facet normal 0 0 0
outer loop
vertex 14.445992 12.189379 8.259372
vertex 14.466469 12.168626 8.259372
vertex 14.466469 12.189379 8.259372
endloop
endfacet
facet normal 0 0 0
outer loop
vertex 14.486944 12.168626 8.259372
vertex 14.486944 12.189379 8.259372
vertex 14.466469 12.168626 8.259372
endloop
endfacet
facet normal 0 0 0
outer loop
vertex 14.486944 12.189379 8.259372
vertex 14.466469 12.189379 8.259372
vertex 14.466469 12.168626 8.259372
endloop
endfacet
facet normal 0 0 0
outer loop
vertex 14.507420 12.168626 8.259372
vertex 14.507420 12.189379 8.259372
vertex 14.486944 12.168626 8.259372
endloop
endfacet
facet normal 0 0 0
outer loop
vertex 14.507420 12.189379 8.259372
vertex 14.486944 12.189379 8.259372
vertex 14.486944 12.168626 8.259372
endloop
endfacet
facet normal 0 0 0
outer loop
vertex 14.527895 12.168626 8.259372
vertex 14.527895 12.189379 8.259372
vertex 14.507420 12.168626 8.259372
endloop
endfacet
facet normal 0 0 0
outer loop
vertex 14.527895 12.189379 8.259372
vertex 14.507420 12.189379 8.259372
vertex 14.507420 12.168626 8.259372
endloop
endfacet
facet normal 0 0 0
outer loop
vertex 14.466469 12.189379 8.259372
vertex 14.466469 12.210133 8.259372
vertex 14.445992 12.189379 8.259372
endloop
endfacet
facet normal 0 0 0
outer loop
vertex 14.466469 12.210133 8.259372
vertex 14.445992 12.210133 8.259372
vertex 14.445992 12.189379 8.259372
endloop
endfacet
facet normal 0 0 0
outer loop
vertex 14.486944 12.189379 8.259372
vertex 14.486944 12.210133 8.259372
vertex 14.466469 12.189379 8.259372
endloop
endfacet
facet normal 0 0 0
outer loop
vertex 14.486944 12.210133 8.259372
vertex 14.466469 12.210133 8.259372
vertex 14.466469 12.189379 8.259372
endloop
endfacet
facet normal 0 0 0
outer loop
vertex 14.507420 12.189379 8.259372
vertex 14.507420 12.210133 8.259372
vertex 14.486944 12.189379 8.259372
endloop
endfacet
facet normal 0 0 0
outer loop
vertex 14.507420 12.210133 8.259372
vertex 14.486944 12.210133 8.259372
vertex 14.486944 12.189379 8.259372
endloop
endfacet
facet normal 0 0 0
outer loop
vertex 14.527895 12.189379 8.259372
vertex 14.527895 12.210133 8.259372
vertex 14.507420 12.189379 8.259372
endloop
endfacet
facet normal 0 0 0
outer loop
vertex 14.527895 12.210133 8.259372
vertex 14.507420 12.210133 8.259372
vertex 14.507420 12.189379 8.259372
endloop
endfacet
facet normal 0 0 0
outer loop
vertex 14.466469 12.230886 8.259372
vertex 14.445992 12.210133 8.259372
vertex 14.466469 12.210133 8.259372
endloop
endfacet
facet normal 0 0 0
outer loop
vertex 14.486944 12.210133 8.259372
vertex 14.486944 12.230886 8.259372
vertex 14.466469 12.210133 8.259372
endloop
endfacet
facet normal 0 0 0
outer loop
vertex 14.486944 12.230886 8.259372
vertex 14.466469 12.230886 8.259372
vertex 14.466469 12.210133 8.259372
endloop
endfacet
facet normal 0 0 0
outer loop
vertex 14.507420 12.210133 8.259372
vertex 14.507420 12.230886 8.259372
vertex 14.486944 12.210133 8.259372
endloop
endfacet
facet normal 0 0 0
outer loop
vertex 14.507420 12.230886 8.259372
vertex 14.486944 12.230886 8.259372
vertex 14.486944 12.210133 8.259372
endloop
endfacet
facet normal 0 0 0
outer loop
vertex 14.527895 12.210133 8.259372
vertex 14.527895 12.230886 8.259372
vertex 14.507420 12.210133 8.259372
endloop
endfacet
facet normal 0 0 0
outer loop
vertex 14.527895 12.230886 8.259372
vertex 14.507420 12.230886 8.259372
vertex 14.507420 12.210133 8.259372
endloop
endfacet
facet normal 0 0 0
outer loop
vertex 14.486944 12.251638 8.259372
vertex 14.466469 12.230886 8.259372
vertex 14.486944 12.230886 8.259372
endloop
endfacet
facet normal 0 0 0
outer loop
vertex 14.507420 12.230886 8.259372
vertex 14.486944 12.251638 8.259372
vertex 14.486944 12.230886 8.259372
endloop
endfacet
endsolid B-16-Plag.168
