solid B-16-Plag.035
facet normal 0 0 0
outer loop
vertex 17.414984 10.259320 3.739372
vertex 17.394508 10.280073 3.739372
vertex 17.414984 10.280073 3.739372
endloop
endfacet
facet normal 0 0 0
outer loop
vertex 17.435459 10.280073 3.739372
vertex 17.414984 10.259320 3.739372
vertex 17.414984 10.280073 3.739372
endloop
endfacet
facet normal 0 0 0
outer loop
vertex 17.476412 10.259320 3.739372
vertex 17.455935 10.280073 3.739372
vertex 17.476412 10.280073 3.739372
endloop
endfacet
facet normal 0 0 0
outer loop
vertex 17.414984 10.280073 3.739372
vertex 17.394508 10.280073 3.739372
vertex 17.414984 10.300827 3.739372
endloop
endfacet
facet normal 0 0 0
outer loop
vertex 17.414984 10.300827 3.739372
vertex 17.394508 10.280073 3.739372
vertex 17.394508 10.300827 3.739372
endloop
endfacet
facet normal 0 0 0
outer loop
vertex 17.435459 10.280073 3.739372
vertex 17.414984 10.280073 3.739372
vertex 17.435459 10.300827 3.739372
endloop
endfacet
facet normal 0 0 0
outer loop
vertex 17.435459 10.300827 3.739372
vertex 17.414984 10.280073 3.739372
vertex 17.414984 10.300827 3.739372
endloop
endfacet
facet normal 0 0 0
outer loop
vertex 17.455935 10.280073 3.739372
vertex 17.435459 10.280073 3.739372
vertex 17.455935 10.300827 3.739372
endloop
endfacet
facet normal 0 0 0
outer loop
vertex 17.455935 10.300827 3.739372
vertex 17.435459 10.280073 3.739372
vertex 17.435459 10.300827 3.739372
endloop
endfacet
facet normal 0 0 0
outer loop
vertex 17.476412 10.280073 3.739372
vertex 17.455935 10.280073 3.739372
vertex 17.476412 10.300827 3.739372
endloop
endfacet
facet normal 0 0 0
outer loop
vertex 17.476412 10.300827 3.739372
vertex 17.455935 10.280073 3.739372
vertex 17.455935 10.300827 3.739372
endloop
endfacet
facet normal 0 0 0
outer loop
vertex 17.394508 10.300827 3.739372
vertex 17.414984 10.321580 3.739372
vertex 17.414984 10.300827 3.739372
endloop
endfacet
facet normal 0 0 0
outer loop
vertex 17.435459 10.300827 3.739372
vertex 17.414984 10.300827 3.739372
vertex 17.435459 10.321580 3.739372
endloop
endfacet
facet normal 0 0 0
outer loop
vertex 17.435459 10.321580 3.739372
vertex 17.414984 10.300827 3.739372
vertex 17.414984 10.321580 3.739372
endloop
endfacet
facet normal 0 0 0
outer loop
vertex 17.455935 10.300827 3.739372
vertex 17.435459 10.300827 3.739372
vertex 17.455935 10.321580 3.739372
endloop
endfacet
facet normal 0 0 0
outer loop
vertex 17.455935 10.321580 3.739372
vertex 17.435459 10.300827 3.739372
vertex 17.435459 10.321580 3.739372
endloop
endfacet
facet normal 0 0 0
outer loop
vertex 17.476412 10.300827 3.739372
vertex 17.455935 10.300827 3.739372
vertex 17.476412 10.321580 3.739372
endloop
endfacet
facet normal 0 0 0
outer loop
vertex 17.476412 10.321580 3.739372
vertex 17.455935 10.300827 3.739372
vertex 17.455935 10.321580 3.739372
endloop
endfacet
facet normal 0 0 0
outer loop
vertex 17.394508 10.238566 3.759372
vertex 17.374031 10.238566 3.759372
vertex 17.394508 10.259320 3.759372
endloop
endfacet
facet normal 0 0 0
outer loop
vertex 17.394508 10.259320 3.759372
vertex 17.374031 10.238566 3.759372
vertex 17.374031 10.259320 3.759372
endloop
endfacet
facet normal 0 0 0
outer loop
vertex 17.414984 10.259320 3.739372
vertex 17.414984 10.238566 3.759372
vertex 17.394508 10.259320 3.759372
endloop
endfacet
facet normal 0 0 0
outer loop
vertex 17.414984 10.238566 3.759372
vertex 17.394508 10.238566 3.759372
vertex 17.394508 10.259320 3.759372
endloop
endfacet
facet normal 0 0 0
outer loop
vertex 17.414984 10.259320 3.739372
vertex 17.435459 10.259320 3.759372
vertex 17.414984 10.238566 3.759372
endloop
endfacet
facet normal 0 0 0
outer loop
vertex 17.374031 10.259320 3.759372
vertex 17.353556 10.280073 3.759372
vertex 17.374031 10.280073 3.759372
endloop
endfacet
facet normal 0 0 0
outer loop
vertex 17.394508 10.280073 3.739372
vertex 17.394508 10.259320 3.759372
vertex 17.374031 10.280073 3.759372
endloop
endfacet
facet normal 0 0 0
outer loop
vertex 17.394508 10.259320 3.759372
vertex 17.374031 10.259320 3.759372
vertex 17.374031 10.280073 3.759372
endloop
endfacet
facet normal 0 0 0
outer loop
vertex 17.414984 10.259320 3.739372
vertex 17.394508 10.259320 3.759372
vertex 17.394508 10.280073 3.739372
endloop
endfacet
facet normal 0 0 0
outer loop
vertex 17.414984 10.259320 3.739372
vertex 17.435459 10.280073 3.739372
vertex 17.435459 10.259320 3.759372
endloop
endfacet
facet normal 0 0 0
outer loop
vertex 17.435459 10.259320 3.759372
vertex 17.435459 10.280073 3.739372
vertex 17.455935 10.280073 3.759372
endloop
endfacet
facet normal 0 0 0
outer loop
vertex 17.435459 10.280073 3.739372
vertex 17.455935 10.280073 3.739372
vertex 17.455935 10.280073 3.759372
endloop
endfacet
facet normal 0 0 0
outer loop
vertex 17.476412 10.259320 3.739372
vertex 17.455935 10.280073 3.759372
vertex 17.455935 10.280073 3.739372
endloop
endfacet
facet normal 0 0 0
outer loop
vertex 17.476412 10.259320 3.739372
vertex 17.476412 10.280073 3.739372
vertex 17.455935 10.280073 3.759372
endloop
endfacet
facet normal 0 0 0
outer loop
vertex 17.374031 10.280073 3.759372
vertex 17.353556 10.280073 3.759372
vertex 17.374031 10.300827 3.759372
endloop
endfacet
facet normal 0 0 0
outer loop
vertex 17.374031 10.300827 3.759372
vertex 17.353556 10.280073 3.759372
vertex 17.353556 10.300827 3.759372
endloop
endfacet
facet normal 0 0 0
outer loop
vertex 17.394508 10.280073 3.739372
vertex 17.374031 10.300827 3.759372
vertex 17.394508 10.300827 3.739372
endloop
endfacet
facet normal 0 0 0
outer loop
vertex 17.374031 10.280073 3.759372
vertex 17.374031 10.300827 3.759372
vertex 17.394508 10.280073 3.739372
endloop
endfacet
facet normal 0 0 0
outer loop
vertex 17.476412 10.300827 3.739372
vertex 17.455935 10.280073 3.759372
vertex 17.476412 10.280073 3.739372
endloop
endfacet
facet normal 0 0 0
outer loop
vertex 17.455935 10.300827 3.759372
vertex 17.455935 10.280073 3.759372
vertex 17.476412 10.300827 3.739372
endloop
endfacet
facet normal 0 0 0
outer loop
vertex 17.353556 10.300827 3.759372
vertex 17.374031 10.321580 3.759372
vertex 17.374031 10.300827 3.759372
endloop
endfacet
facet normal 0 0 0
outer loop
vertex 17.394508 10.300827 3.739372
vertex 17.374031 10.300827 3.759372
vertex 17.394508 10.321580 3.759372
endloop
endfacet
facet normal 0 0 0
outer loop
vertex 17.374031 10.300827 3.759372
vertex 17.374031 10.321580 3.759372
vertex 17.394508 10.321580 3.759372
endloop
endfacet
facet normal 0 0 0
outer loop
vertex 17.394508 10.300827 3.739372
vertex 17.394508 10.321580 3.759372
vertex 17.414984 10.321580 3.739372
endloop
endfacet
facet normal 0 0 0
outer loop
vertex 17.476412 10.321580 3.739372
vertex 17.455935 10.300827 3.759372
vertex 17.476412 10.300827 3.739372
endloop
endfacet
facet normal 0 0 0
outer loop
vertex 17.455935 10.321580 3.759372
vertex 17.455935 10.300827 3.759372
vertex 17.476412 10.321580 3.739372
endloop
endfacet
facet normal 0 0 0
outer loop
vertex 17.394508 10.321580 3.759372
vertex 17.374031 10.321580 3.759372
vertex 17.394508 10.342333 3.759372
endloop
endfacet
facet normal 0 0 0
outer loop
vertex 17.394508 10.342333 3.759372
vertex 17.374031 10.321580 3.759372
vertex 17.374031 10.342333 3.759372
endloop
endfacet
facet normal 0 0 0
outer loop
vertex 17.414984 10.321580 3.739372
vertex 17.394508 10.321580 3.759372
vertex 17.414984 10.342333 3.759372
endloop
endfacet
facet normal 0 0 0
outer loop
vertex 17.394508 10.321580 3.759372
vertex 17.394508 10.342333 3.759372
vertex 17.414984 10.342333 3.759372
endloop
endfacet
facet normal 0 0 0
outer loop
vertex 17.414984 10.321580 3.739372
vertex 17.435459 10.342333 3.759372
vertex 17.435459 10.321580 3.739372
endloop
endfacet
facet normal 0 0 0
outer loop
vertex 17.414984 10.342333 3.759372
vertex 17.435459 10.342333 3.759372
vertex 17.414984 10.321580 3.739372
endloop
endfacet
facet normal 0 0 0
outer loop
vertex 17.435459 10.321580 3.739372
vertex 17.455935 10.342333 3.759372
vertex 17.455935 10.321580 3.739372
endloop
endfacet
facet normal 0 0 0
outer loop
vertex 17.435459 10.342333 3.759372
vertex 17.455935 10.342333 3.759372
vertex 17.435459 10.321580 3.739372
endloop
endfacet
facet normal 0 0 0
outer loop
vertex 17.476412 10.321580 3.739372
vertex 17.455935 10.342333 3.759372
vertex 17.455935 10.321580 3.759372
endloop
endfacet
facet normal 0 0 0
outer loop
vertex 17.476412 10.321580 3.739372
vertex 17.455935 10.321580 3.739372
vertex 17.455935 10.342333 3.759372
endloop
endfacet
facet normal 0 0 0
outer loop
vertex 17.374031 10.238566 3.759372
vertex 17.374031 10.259320 3.779372
vertex 17.374031 10.259320 3.759372
endloop
endfacet
facet normal 0 0 0
outer loop
vertex 17.394508 10.238566 3.759372
vertex 17.374031 10.259320 3.779372
vertex 17.374031 10.238566 3.759372
endloop
endfacet
facet normal 0 0 0
outer loop
vertex 17.394508 10.259320 3.779372
vertex 17.374031 10.259320 3.779372
vertex 17.394508 10.238566 3.759372
endloop
endfacet
facet normal 0 0 0
outer loop
vertex 17.414984 10.238566 3.759372
vertex 17.394508 10.259320 3.779372
vertex 17.394508 10.238566 3.759372
endloop
endfacet
facet normal 0 0 0
outer loop
vertex 17.414984 10.259320 3.779372
vertex 17.394508 10.259320 3.779372
vertex 17.414984 10.238566 3.759372
endloop
endfacet
facet normal 0 0 0
outer loop
vertex 17.414984 10.238566 3.759372
vertex 17.435459 10.259320 3.759372
vertex 17.414984 10.259320 3.779372
endloop
endfacet
facet normal 0 0 0
outer loop
vertex 17.435459 10.259320 3.759372
vertex 17.435459 10.259320 3.779372
vertex 17.414984 10.259320 3.779372
endloop
endfacet
facet normal 0 0 0
outer loop
vertex 17.353556 10.280073 3.759372
vertex 17.374031 10.259320 3.759372
vertex 17.374031 10.280073 3.779372
endloop
endfacet
facet normal 0 0 0
outer loop
vertex 17.374031 10.259320 3.759372
vertex 17.374031 10.259320 3.779372
vertex 17.374031 10.280073 3.779372
endloop
endfacet
facet normal 0 0 0
outer loop
vertex 17.435459 10.259320 3.759372
vertex 17.455935 10.280073 3.779372
vertex 17.435459 10.259320 3.779372
endloop
endfacet
facet normal 0 0 0
outer loop
vertex 17.455935 10.280073 3.759372
vertex 17.455935 10.280073 3.779372
vertex 17.435459 10.259320 3.759372
endloop
endfacet
facet normal 0 0 0
outer loop
vertex 17.374031 10.300827 3.779372
vertex 17.353556 10.280073 3.759372
vertex 17.374031 10.280073 3.779372
endloop
endfacet
facet normal 0 0 0
outer loop
vertex 17.353556 10.300827 3.759372
vertex 17.353556 10.280073 3.759372
vertex 17.374031 10.300827 3.779372
endloop
endfacet
facet normal 0 0 0
outer loop
vertex 17.455935 10.280073 3.759372
vertex 17.455935 10.300827 3.759372
vertex 17.455935 10.280073 3.779372
endloop
endfacet
facet normal 0 0 0
outer loop
vertex 17.455935 10.280073 3.779372
vertex 17.455935 10.300827 3.759372
vertex 17.455935 10.300827 3.779372
endloop
endfacet
facet normal 0 0 0
outer loop
vertex 17.353556 10.300827 3.759372
vertex 17.374031 10.300827 3.779372
vertex 17.374031 10.321580 3.759372
endloop
endfacet
facet normal 0 0 0
outer loop
vertex 17.374031 10.300827 3.779372
vertex 17.374031 10.321580 3.779372
vertex 17.374031 10.321580 3.759372
endloop
endfacet
facet normal 0 0 0
outer loop
vertex 17.476412 10.321580 3.779372
vertex 17.455935 10.300827 3.779372
vertex 17.455935 10.321580 3.759372
endloop
endfacet
facet normal 0 0 0
outer loop
vertex 17.455935 10.300827 3.779372
vertex 17.455935 10.300827 3.759372
vertex 17.455935 10.321580 3.759372
endloop
endfacet
facet normal 0 0 0
outer loop
vertex 17.374031 10.321580 3.779372
vertex 17.374031 10.342333 3.759372
vertex 17.374031 10.321580 3.759372
endloop
endfacet
facet normal 0 0 0
outer loop
vertex 17.374031 10.321580 3.779372
vertex 17.394508 10.342333 3.779372
vertex 17.374031 10.342333 3.759372
endloop
endfacet
facet normal 0 0 0
outer loop
vertex 17.476412 10.321580 3.779372
vertex 17.455935 10.342333 3.759372
vertex 17.476412 10.342333 3.779372
endloop
endfacet
facet normal 0 0 0
outer loop
vertex 17.455935 10.321580 3.759372
vertex 17.455935 10.342333 3.759372
vertex 17.476412 10.321580 3.779372
endloop
endfacet
facet normal 0 0 0
outer loop
vertex 17.374031 10.342333 3.759372
vertex 17.394508 10.342333 3.779372
vertex 17.394508 10.342333 3.759372
endloop
endfacet
facet normal 0 0 0
outer loop
vertex 17.414984 10.342333 3.759372
vertex 17.394508 10.342333 3.759372
vertex 17.414984 10.342333 3.779372
endloop
endfacet
facet normal 0 0 0
outer loop
vertex 17.394508 10.342333 3.759372
vertex 17.394508 10.342333 3.779372
vertex 17.414984 10.342333 3.779372
endloop
endfacet
facet normal 0 0 0
outer loop
vertex 17.435459 10.363087 3.779372
vertex 17.435459 10.342333 3.759372
vertex 17.414984 10.342333 3.779372
endloop
endfacet
facet normal 0 0 0
outer loop
vertex 17.435459 10.342333 3.759372
vertex 17.414984 10.342333 3.759372
vertex 17.414984 10.342333 3.779372
endloop
endfacet
facet normal 0 0 0
outer loop
vertex 17.435459 10.342333 3.759372
vertex 17.455935 10.363087 3.779372
vertex 17.455935 10.342333 3.759372
endloop
endfacet
facet normal 0 0 0
outer loop
vertex 17.435459 10.363087 3.779372
vertex 17.455935 10.363087 3.779372
vertex 17.435459 10.342333 3.759372
endloop
endfacet
facet normal 0 0 0
outer loop
vertex 17.455935 10.342333 3.759372
vertex 17.455935 10.363087 3.779372
vertex 17.476412 10.342333 3.779372
endloop
endfacet
facet normal 0 0 0
outer loop
vertex 17.394508 10.259320 3.779372
vertex 17.394508 10.259320 3.799372
vertex 17.374031 10.259320 3.779372
endloop
endfacet
facet normal 0 0 0
outer loop
vertex 17.374031 10.259320 3.779372
vertex 17.394508 10.259320 3.799372
vertex 17.374031 10.259320 3.799372
endloop
endfacet
facet normal 0 0 0
outer loop
vertex 17.414984 10.259320 3.779372
vertex 17.414984 10.259320 3.799372
vertex 17.394508 10.259320 3.779372
endloop
endfacet
facet normal 0 0 0
outer loop
vertex 17.394508 10.259320 3.779372
vertex 17.414984 10.259320 3.799372
vertex 17.394508 10.259320 3.799372
endloop
endfacet
facet normal 0 0 0
outer loop
vertex 17.435459 10.259320 3.779372
vertex 17.414984 10.259320 3.799372
vertex 17.414984 10.259320 3.779372
endloop
endfacet
facet normal 0 0 0
outer loop
vertex 17.353556 10.280073 3.799372
vertex 17.374031 10.280073 3.779372
vertex 17.374031 10.259320 3.799372
endloop
endfacet
facet normal 0 0 0
outer loop
vertex 17.374031 10.280073 3.779372
vertex 17.374031 10.259320 3.779372
vertex 17.374031 10.259320 3.799372
endloop
endfacet
facet normal 0 0 0
outer loop
vertex 17.435459 10.259320 3.779372
vertex 17.435459 10.280073 3.799372
vertex 17.414984 10.259320 3.799372
endloop
endfacet
facet normal 0 0 0
outer loop
vertex 17.435459 10.259320 3.779372
vertex 17.455935 10.280073 3.779372
vertex 17.435459 10.280073 3.799372
endloop
endfacet
facet normal 0 0 0
outer loop
vertex 17.455935 10.280073 3.779372
vertex 17.455935 10.280073 3.799372
vertex 17.435459 10.280073 3.799372
endloop
endfacet
facet normal 0 0 0
outer loop
vertex 17.374031 10.280073 3.779372
vertex 17.353556 10.300827 3.799372
vertex 17.374031 10.300827 3.779372
endloop
endfacet
facet normal 0 0 0
outer loop
vertex 17.353556 10.280073 3.799372
vertex 17.353556 10.300827 3.799372
vertex 17.374031 10.280073 3.779372
endloop
endfacet
facet normal 0 0 0
outer loop
vertex 17.455935 10.280073 3.779372
vertex 17.455935 10.300827 3.779372
vertex 17.455935 10.280073 3.799372
endloop
endfacet
facet normal 0 0 0
outer loop
vertex 17.455935 10.280073 3.799372
vertex 17.455935 10.300827 3.779372
vertex 17.455935 10.300827 3.799372
endloop
endfacet
facet normal 0 0 0
outer loop
vertex 17.353556 10.300827 3.799372
vertex 17.374031 10.321580 3.799372
vertex 17.374031 10.300827 3.779372
endloop
endfacet
facet normal 0 0 0
outer loop
vertex 17.374031 10.321580 3.799372
vertex 17.374031 10.321580 3.779372
vertex 17.374031 10.300827 3.779372
endloop
endfacet
facet normal 0 0 0
outer loop
vertex 17.476412 10.321580 3.779372
vertex 17.455935 10.321580 3.799372
vertex 17.455935 10.300827 3.779372
endloop
endfacet
facet normal 0 0 0
outer loop
vertex 17.455935 10.321580 3.799372
vertex 17.455935 10.300827 3.799372
vertex 17.455935 10.300827 3.779372
endloop
endfacet
facet normal 0 0 0
outer loop
vertex 17.374031 10.342333 3.799372
vertex 17.374031 10.321580 3.779372
vertex 17.374031 10.321580 3.799372
endloop
endfacet
facet normal 0 0 0
outer loop
vertex 17.374031 10.321580 3.779372
vertex 17.374031 10.342333 3.799372
vertex 17.394508 10.342333 3.779372
endloop
endfacet
facet normal 0 0 0
outer loop
vertex 17.476412 10.342333 3.779372
vertex 17.455935 10.321580 3.799372
vertex 17.476412 10.321580 3.779372
endloop
endfacet
facet normal 0 0 0
outer loop
vertex 17.455935 10.342333 3.799372
vertex 17.455935 10.321580 3.799372
vertex 17.476412 10.342333 3.779372
endloop
endfacet
facet normal 0 0 0
outer loop
vertex 17.496887 10.321580 3.779372
vertex 17.476412 10.342333 3.779372
vertex 17.476412 10.321580 3.779372
endloop
endfacet
facet normal 0 0 0
outer loop
vertex 17.394508 10.342333 3.779372
vertex 17.374031 10.342333 3.799372
vertex 17.394508 10.342333 3.799372
endloop
endfacet
facet normal 0 0 0
outer loop
vertex 17.414984 10.342333 3.779372
vertex 17.394508 10.342333 3.779372
vertex 17.414984 10.342333 3.799372
endloop
endfacet
facet normal 0 0 0
outer loop
vertex 17.394508 10.342333 3.779372
vertex 17.394508 10.342333 3.799372
vertex 17.414984 10.342333 3.799372
endloop
endfacet
facet normal 0 0 0
outer loop
vertex 17.435459 10.363087 3.779372
vertex 17.414984 10.342333 3.779372
vertex 17.435459 10.342333 3.799372
endloop
endfacet
facet normal 0 0 0
outer loop
vertex 17.414984 10.342333 3.779372
vertex 17.414984 10.342333 3.799372
vertex 17.435459 10.342333 3.799372
endloop
endfacet
facet normal 0 0 0
outer loop
vertex 17.435459 10.363087 3.779372
vertex 17.455935 10.342333 3.799372
vertex 17.455935 10.363087 3.779372
endloop
endfacet
facet normal 0 0 0
outer loop
vertex 17.435459 10.342333 3.799372
vertex 17.455935 10.342333 3.799372
vertex 17.435459 10.363087 3.779372
endloop
endfacet
facet normal 0 0 0
outer loop
vertex 17.476412 10.342333 3.779372
vertex 17.455935 10.363087 3.779372
vertex 17.455935 10.342333 3.799372
endloop
endfacet
facet normal 0 0 0
outer loop
vertex 17.353556 10.280073 3.799372
vertex 17.374031 10.259320 3.799372
vertex 17.374031 10.280073 3.799372
endloop
endfacet
facet normal 0 0 0
outer loop
vertex 17.394508 10.259320 3.799372
vertex 17.394508 10.280073 3.799372
vertex 17.374031 10.259320 3.799372
endloop
endfacet
facet normal 0 0 0
outer loop
vertex 17.394508 10.280073 3.799372
vertex 17.374031 10.280073 3.799372
vertex 17.374031 10.259320 3.799372
endloop
endfacet
facet normal 0 0 0
outer loop
vertex 17.414984 10.259320 3.799372
vertex 17.414984 10.280073 3.799372
vertex 17.394508 10.259320 3.799372
endloop
endfacet
facet normal 0 0 0
outer loop
vertex 17.414984 10.280073 3.799372
vertex 17.394508 10.280073 3.799372
vertex 17.394508 10.259320 3.799372
endloop
endfacet
facet normal 0 0 0
outer loop
vertex 17.414984 10.259320 3.799372
vertex 17.435459 10.280073 3.799372
vertex 17.414984 10.280073 3.799372
endloop
endfacet
facet normal 0 0 0
outer loop
vertex 17.374031 10.280073 3.799372
vertex 17.374031 10.300827 3.799372
vertex 17.353556 10.280073 3.799372
endloop
endfacet
facet normal 0 0 0
outer loop
vertex 17.374031 10.300827 3.799372
vertex 17.353556 10.300827 3.799372
vertex 17.353556 10.280073 3.799372
endloop
endfacet
facet normal 0 0 0
outer loop
vertex 17.394508 10.280073 3.799372
vertex 17.394508 10.300827 3.799372
vertex 17.374031 10.280073 3.799372
endloop
endfacet
facet normal 0 0 0
outer loop
vertex 17.394508 10.300827 3.799372
vertex 17.374031 10.300827 3.799372
vertex 17.374031 10.280073 3.799372
endloop
endfacet
facet normal 0 0 0
outer loop
vertex 17.414984 10.280073 3.799372
vertex 17.414984 10.300827 3.799372
vertex 17.394508 10.280073 3.799372
endloop
endfacet
facet normal 0 0 0
outer loop
vertex 17.414984 10.300827 3.799372
vertex 17.394508 10.300827 3.799372
vertex 17.394508 10.280073 3.799372
endloop
endfacet
facet normal 0 0 0
outer loop
vertex 17.435459 10.280073 3.799372
vertex 17.435459 10.300827 3.799372
vertex 17.414984 10.280073 3.799372
endloop
endfacet
facet normal 0 0 0
outer loop
vertex 17.435459 10.300827 3.799372
vertex 17.414984 10.300827 3.799372
vertex 17.414984 10.280073 3.799372
endloop
endfacet
facet normal 0 0 0
outer loop
vertex 17.455935 10.280073 3.799372
vertex 17.455935 10.300827 3.799372
vertex 17.435459 10.280073 3.799372
endloop
endfacet
facet normal 0 0 0
outer loop
vertex 17.455935 10.300827 3.799372
vertex 17.435459 10.300827 3.799372
vertex 17.435459 10.280073 3.799372
endloop
endfacet
facet normal 0 0 0
outer loop
vertex 17.374031 10.321580 3.799372
vertex 17.353556 10.300827 3.799372
vertex 17.374031 10.300827 3.799372
endloop
endfacet
facet normal 0 0 0
outer loop
vertex 17.394508 10.300827 3.799372
vertex 17.394508 10.321580 3.799372
vertex 17.374031 10.300827 3.799372
endloop
endfacet
facet normal 0 0 0
outer loop
vertex 17.394508 10.321580 3.799372
vertex 17.374031 10.321580 3.799372
vertex 17.374031 10.300827 3.799372
endloop
endfacet
facet normal 0 0 0
outer loop
vertex 17.414984 10.300827 3.799372
vertex 17.414984 10.321580 3.799372
vertex 17.394508 10.300827 3.799372
endloop
endfacet
facet normal 0 0 0
outer loop
vertex 17.414984 10.321580 3.799372
vertex 17.394508 10.321580 3.799372
vertex 17.394508 10.300827 3.799372
endloop
endfacet
facet normal 0 0 0
outer loop
vertex 17.435459 10.300827 3.799372
vertex 17.435459 10.321580 3.799372
vertex 17.414984 10.300827 3.799372
endloop
endfacet
facet normal 0 0 0
outer loop
vertex 17.435459 10.321580 3.799372
vertex 17.414984 10.321580 3.799372
vertex 17.414984 10.300827 3.799372
endloop
endfacet
facet normal 0 0 0
outer loop
vertex 17.455935 10.300827 3.799372
vertex 17.455935 10.321580 3.799372
vertex 17.435459 10.300827 3.799372
endloop
endfacet
facet normal 0 0 0
outer loop
vertex 17.455935 10.321580 3.799372
vertex 17.435459 10.321580 3.799372
vertex 17.435459 10.300827 3.799372
endloop
endfacet
facet normal 0 0 0
outer loop
vertex 17.394508 10.321580 3.799372
vertex 17.394508 10.342333 3.799372
vertex 17.374031 10.321580 3.799372
endloop
endfacet
facet normal 0 0 0
outer loop
vertex 17.394508 10.342333 3.799372
vertex 17.374031 10.342333 3.799372
vertex 17.374031 10.321580 3.799372
endloop
endfacet
facet normal 0 0 0
outer loop
vertex 17.414984 10.321580 3.799372
vertex 17.414984 10.342333 3.799372
vertex 17.394508 10.321580 3.799372
endloop
endfacet
facet normal 0 0 0
outer loop
vertex 17.414984 10.342333 3.799372
vertex 17.394508 10.342333 3.799372
vertex 17.394508 10.321580 3.799372
endloop
endfacet
facet normal 0 0 0
outer loop
vertex 17.435459 10.321580 3.799372
vertex 17.435459 10.342333 3.799372
vertex 17.414984 10.321580 3.799372
endloop
endfacet
facet normal 0 0 0
outer loop
vertex 17.435459 10.342333 3.799372
vertex 17.414984 10.342333 3.799372
vertex 17.414984 10.321580 3.799372
endloop
endfacet
facet normal 0 0 0
outer loop
vertex 17.455935 10.321580 3.799372
vertex 17.455935 10.342333 3.799372
vertex 17.435459 10.321580 3.799372
endloop
endfacet
facet normal 0 0 0
outer loop
vertex 17.455935 10.342333 3.799372
vertex 17.435459 10.342333 3.799372
vertex 17.435459 10.321580 3.799372
endloop
endfacet
endsolid B-16-Plag.035
