solid B-16-Plag.411
facet normal 0 0 0
outer loop
vertex 16.718805 13.932658 14.959372
vertex 16.698330 13.932658 14.959372
vertex 16.718805 13.953411 14.959372
endloop
endfacet
facet normal 0 0 0
outer loop
vertex 16.718805 13.953411 14.959372
vertex 16.698330 13.932658 14.959372
vertex 16.698330 13.953411 14.959372
endloop
endfacet
facet normal 0 0 0
outer loop
vertex 16.739283 13.932658 14.959372
vertex 16.718805 13.932658 14.959372
vertex 16.739283 13.953411 14.959372
endloop
endfacet
facet normal 0 0 0
outer loop
vertex 16.739283 13.953411 14.959372
vertex 16.718805 13.932658 14.959372
vertex 16.718805 13.953411 14.959372
endloop
endfacet
facet normal 0 0 0
outer loop
vertex 16.759758 13.953411 14.959372
vertex 16.739283 13.932658 14.959372
vertex 16.739283 13.953411 14.959372
endloop
endfacet
facet normal 0 0 0
outer loop
vertex 16.718805 13.953411 14.959372
vertex 16.698330 13.953411 14.959372
vertex 16.718805 13.974165 14.959372
endloop
endfacet
facet normal 0 0 0
outer loop
vertex 16.718805 13.974165 14.959372
vertex 16.698330 13.953411 14.959372
vertex 16.698330 13.974165 14.959372
endloop
endfacet
facet normal 0 0 0
outer loop
vertex 16.739283 13.953411 14.959372
vertex 16.718805 13.953411 14.959372
vertex 16.739283 13.974165 14.959372
endloop
endfacet
facet normal 0 0 0
outer loop
vertex 16.739283 13.974165 14.959372
vertex 16.718805 13.953411 14.959372
vertex 16.718805 13.974165 14.959372
endloop
endfacet
facet normal 0 0 0
outer loop
vertex 16.739283 13.974165 14.959372
vertex 16.759758 13.953411 14.959372
vertex 16.739283 13.953411 14.959372
endloop
endfacet
facet normal 0 0 0
outer loop
vertex 16.677855 13.932658 14.979372
vertex 16.698330 13.932658 14.959372
vertex 16.698330 13.932658 14.979372
endloop
endfacet
facet normal 0 0 0
outer loop
vertex 16.718805 13.932658 14.959372
vertex 16.718805 13.932658 14.979372
vertex 16.698330 13.932658 14.959372
endloop
endfacet
facet normal 0 0 0
outer loop
vertex 16.698330 13.932658 14.959372
vertex 16.718805 13.932658 14.979372
vertex 16.698330 13.932658 14.979372
endloop
endfacet
facet normal 0 0 0
outer loop
vertex 16.739283 13.932658 14.959372
vertex 16.718805 13.932658 14.979372
vertex 16.718805 13.932658 14.959372
endloop
endfacet
facet normal 0 0 0
outer loop
vertex 16.657379 13.932658 14.979372
vertex 16.677855 13.953411 14.979372
vertex 16.677855 13.932658 14.979372
endloop
endfacet
facet normal 0 0 0
outer loop
vertex 16.698330 13.932658 14.959372
vertex 16.677855 13.953411 14.979372
vertex 16.698330 13.953411 14.959372
endloop
endfacet
facet normal 0 0 0
outer loop
vertex 16.677855 13.932658 14.979372
vertex 16.677855 13.953411 14.979372
vertex 16.698330 13.932658 14.959372
endloop
endfacet
facet normal 0 0 0
outer loop
vertex 16.739283 13.932658 14.959372
vertex 16.739283 13.953411 14.979372
vertex 16.718805 13.932658 14.979372
endloop
endfacet
facet normal 0 0 0
outer loop
vertex 16.759758 13.953411 14.959372
vertex 16.739283 13.953411 14.979372
vertex 16.739283 13.932658 14.959372
endloop
endfacet
facet normal 0 0 0
outer loop
vertex 16.677855 13.953411 14.979372
vertex 16.698330 13.974165 14.979372
vertex 16.698330 13.953411 14.959372
endloop
endfacet
facet normal 0 0 0
outer loop
vertex 16.698330 13.974165 14.979372
vertex 16.698330 13.974165 14.959372
vertex 16.698330 13.953411 14.959372
endloop
endfacet
facet normal 0 0 0
outer loop
vertex 16.759758 13.953411 14.959372
vertex 16.739283 13.974165 14.959372
vertex 16.739283 13.953411 14.979372
endloop
endfacet
facet normal 0 0 0
outer loop
vertex 16.739283 13.974165 14.959372
vertex 16.739283 13.974165 14.979372
vertex 16.739283 13.953411 14.979372
endloop
endfacet
facet normal 0 0 0
outer loop
vertex 16.698330 13.994918 14.979372
vertex 16.698330 13.974165 14.959372
vertex 16.698330 13.974165 14.979372
endloop
endfacet
facet normal 0 0 0
outer loop
vertex 16.698330 13.974165 14.959372
vertex 16.718805 13.994918 14.979372
vertex 16.718805 13.974165 14.959372
endloop
endfacet
facet normal 0 0 0
outer loop
vertex 16.698330 13.994918 14.979372
vertex 16.718805 13.994918 14.979372
vertex 16.698330 13.974165 14.959372
endloop
endfacet
facet normal 0 0 0
outer loop
vertex 16.718805 13.994918 14.979372
vertex 16.739283 13.974165 14.979372
vertex 16.718805 13.974165 14.959372
endloop
endfacet
facet normal 0 0 0
outer loop
vertex 16.739283 13.974165 14.979372
vertex 16.739283 13.974165 14.959372
vertex 16.718805 13.974165 14.959372
endloop
endfacet
facet normal 0 0 0
outer loop
vertex 16.677855 13.911904 14.999372
vertex 16.657379 13.932658 14.999372
vertex 16.677855 13.932658 14.979372
endloop
endfacet
facet normal 0 0 0
outer loop
vertex 16.657379 13.932658 14.999372
vertex 16.657379 13.932658 14.979372
vertex 16.677855 13.932658 14.979372
endloop
endfacet
facet normal 0 0 0
outer loop
vertex 16.698330 13.932658 14.979372
vertex 16.677855 13.911904 14.999372
vertex 16.677855 13.932658 14.979372
endloop
endfacet
facet normal 0 0 0
outer loop
vertex 16.698330 13.911904 14.999372
vertex 16.677855 13.911904 14.999372
vertex 16.698330 13.932658 14.979372
endloop
endfacet
facet normal 0 0 0
outer loop
vertex 16.718805 13.932658 14.979372
vertex 16.698330 13.911904 14.999372
vertex 16.698330 13.932658 14.979372
endloop
endfacet
facet normal 0 0 0
outer loop
vertex 16.718805 13.911904 14.999372
vertex 16.698330 13.911904 14.999372
vertex 16.718805 13.932658 14.979372
endloop
endfacet
facet normal 0 0 0
outer loop
vertex 16.718805 13.932658 14.979372
vertex 16.739283 13.932658 14.999372
vertex 16.718805 13.911904 14.999372
endloop
endfacet
facet normal 0 0 0
outer loop
vertex 16.657379 13.953411 14.999372
vertex 16.657379 13.932658 14.979372
vertex 16.657379 13.932658 14.999372
endloop
endfacet
facet normal 0 0 0
outer loop
vertex 16.657379 13.932658 14.979372
vertex 16.657379 13.953411 14.999372
vertex 16.677855 13.953411 14.979372
endloop
endfacet
facet normal 0 0 0
outer loop
vertex 16.718805 13.932658 14.979372
vertex 16.739283 13.953411 14.979372
vertex 16.739283 13.932658 14.999372
endloop
endfacet
facet normal 0 0 0
outer loop
vertex 16.759758 13.932658 14.999372
vertex 16.739283 13.932658 14.999372
vertex 16.739283 13.953411 14.979372
endloop
endfacet
facet normal 0 0 0
outer loop
vertex 16.759758 13.932658 14.999372
vertex 16.739283 13.953411 14.979372
vertex 16.739283 13.953411 14.999372
endloop
endfacet
facet normal 0 0 0
outer loop
vertex 16.677855 13.953411 14.979372
vertex 16.657379 13.953411 14.999372
vertex 16.677855 13.974165 14.999372
endloop
endfacet
facet normal 0 0 0
outer loop
vertex 16.677855 13.953411 14.979372
vertex 16.677855 13.974165 14.999372
vertex 16.698330 13.974165 14.979372
endloop
endfacet
facet normal 0 0 0
outer loop
vertex 16.739283 13.953411 14.979372
vertex 16.739283 13.974165 14.979372
vertex 16.739283 13.953411 14.999372
endloop
endfacet
facet normal 0 0 0
outer loop
vertex 16.739283 13.953411 14.999372
vertex 16.739283 13.974165 14.979372
vertex 16.739283 13.974165 14.999372
endloop
endfacet
facet normal 0 0 0
outer loop
vertex 16.677855 13.974165 14.999372
vertex 16.698330 13.994918 14.979372
vertex 16.698330 13.974165 14.979372
endloop
endfacet
facet normal 0 0 0
outer loop
vertex 16.677855 13.974165 14.999372
vertex 16.698330 13.974165 14.999372
vertex 16.698330 13.994918 14.979372
endloop
endfacet
facet normal 0 0 0
outer loop
vertex 16.698330 13.974165 14.999372
vertex 16.718805 13.994918 14.999372
vertex 16.698330 13.994918 14.979372
endloop
endfacet
facet normal 0 0 0
outer loop
vertex 16.739283 13.974165 14.979372
vertex 16.718805 13.994918 14.999372
vertex 16.739283 13.974165 14.999372
endloop
endfacet
facet normal 0 0 0
outer loop
vertex 16.718805 13.994918 14.979372
vertex 16.718805 13.994918 14.999372
vertex 16.739283 13.974165 14.979372
endloop
endfacet
facet normal 0 0 0
outer loop
vertex 16.698330 13.994918 14.979372
vertex 16.718805 13.994918 14.999372
vertex 16.718805 13.994918 14.979372
endloop
endfacet
facet normal 0 0 0
outer loop
vertex 16.657379 13.911904 15.019372
vertex 16.677855 13.911904 14.999372
vertex 16.677855 13.911904 15.019372
endloop
endfacet
facet normal 0 0 0
outer loop
vertex 16.698330 13.911904 14.999372
vertex 16.698330 13.911904 15.019372
vertex 16.677855 13.911904 14.999372
endloop
endfacet
facet normal 0 0 0
outer loop
vertex 16.677855 13.911904 14.999372
vertex 16.698330 13.911904 15.019372
vertex 16.677855 13.911904 15.019372
endloop
endfacet
facet normal 0 0 0
outer loop
vertex 16.718805 13.911904 14.999372
vertex 16.718805 13.911904 15.019372
vertex 16.698330 13.911904 14.999372
endloop
endfacet
facet normal 0 0 0
outer loop
vertex 16.698330 13.911904 14.999372
vertex 16.718805 13.911904 15.019372
vertex 16.698330 13.911904 15.019372
endloop
endfacet
facet normal 0 0 0
outer loop
vertex 16.657379 13.932658 14.999372
vertex 16.636904 13.911904 15.019372
vertex 16.657379 13.932658 15.019372
endloop
endfacet
facet normal 0 0 0
outer loop
vertex 16.657379 13.932658 14.999372
vertex 16.657379 13.911904 15.019372
vertex 16.636904 13.911904 15.019372
endloop
endfacet
facet normal 0 0 0
outer loop
vertex 16.677855 13.911904 14.999372
vertex 16.657379 13.911904 15.019372
vertex 16.657379 13.932658 14.999372
endloop
endfacet
facet normal 0 0 0
outer loop
vertex 16.718805 13.911904 14.999372
vertex 16.739283 13.932658 15.019372
vertex 16.718805 13.911904 15.019372
endloop
endfacet
facet normal 0 0 0
outer loop
vertex 16.739283 13.932658 14.999372
vertex 16.739283 13.932658 15.019372
vertex 16.718805 13.911904 14.999372
endloop
endfacet
facet normal 0 0 0
outer loop
vertex 16.759758 13.932658 14.999372
vertex 16.739283 13.932658 15.019372
vertex 16.739283 13.932658 14.999372
endloop
endfacet
facet normal 0 0 0
outer loop
vertex 16.657379 13.932658 15.019372
vertex 16.657379 13.953411 14.999372
vertex 16.657379 13.932658 14.999372
endloop
endfacet
facet normal 0 0 0
outer loop
vertex 16.657379 13.932658 15.019372
vertex 16.677855 13.953411 15.019372
vertex 16.657379 13.953411 14.999372
endloop
endfacet
facet normal 0 0 0
outer loop
vertex 16.759758 13.932658 14.999372
vertex 16.739283 13.953411 14.999372
vertex 16.739283 13.932658 15.019372
endloop
endfacet
facet normal 0 0 0
outer loop
vertex 16.739283 13.953411 14.999372
vertex 16.739283 13.953411 15.019372
vertex 16.739283 13.932658 15.019372
endloop
endfacet
facet normal 0 0 0
outer loop
vertex 16.657379 13.953411 14.999372
vertex 16.677855 13.953411 15.019372
vertex 16.677855 13.974165 14.999372
endloop
endfacet
facet normal 0 0 0
outer loop
vertex 16.677855 13.953411 15.019372
vertex 16.698330 13.974165 15.019372
vertex 16.677855 13.974165 14.999372
endloop
endfacet
facet normal 0 0 0
outer loop
vertex 16.739283 13.953411 14.999372
vertex 16.739283 13.974165 14.999372
vertex 16.739283 13.953411 15.019372
endloop
endfacet
facet normal 0 0 0
outer loop
vertex 16.739283 13.953411 15.019372
vertex 16.739283 13.974165 14.999372
vertex 16.739283 13.974165 15.019372
endloop
endfacet
facet normal 0 0 0
outer loop
vertex 16.677855 13.974165 14.999372
vertex 16.698330 13.974165 15.019372
vertex 16.698330 13.974165 14.999372
endloop
endfacet
facet normal 0 0 0
outer loop
vertex 16.718805 13.994918 14.999372
vertex 16.698330 13.974165 14.999372
vertex 16.718805 13.974165 15.019372
endloop
endfacet
facet normal 0 0 0
outer loop
vertex 16.698330 13.974165 14.999372
vertex 16.698330 13.974165 15.019372
vertex 16.718805 13.974165 15.019372
endloop
endfacet
facet normal 0 0 0
outer loop
vertex 16.718805 13.994918 14.999372
vertex 16.718805 13.974165 15.019372
vertex 16.739283 13.974165 14.999372
endloop
endfacet
facet normal 0 0 0
outer loop
vertex 16.718805 13.974165 15.019372
vertex 16.739283 13.974165 15.019372
vertex 16.739283 13.974165 14.999372
endloop
endfacet
facet normal 0 0 0
outer loop
vertex 16.636904 13.911904 15.019372
vertex 16.636904 13.891151 15.039371
vertex 16.616426 13.911904 15.039371
endloop
endfacet
facet normal 0 0 0
outer loop
vertex 16.636904 13.891151 15.039371
vertex 16.616426 13.891151 15.039371
vertex 16.616426 13.911904 15.039371
endloop
endfacet
facet normal 0 0 0
outer loop
vertex 16.657379 13.911904 15.019372
vertex 16.636904 13.891151 15.039371
vertex 16.636904 13.911904 15.019372
endloop
endfacet
facet normal 0 0 0
outer loop
vertex 16.657379 13.891151 15.039371
vertex 16.636904 13.891151 15.039371
vertex 16.657379 13.911904 15.019372
endloop
endfacet
facet normal 0 0 0
outer loop
vertex 16.677855 13.911904 15.019372
vertex 16.657379 13.891151 15.039371
vertex 16.657379 13.911904 15.019372
endloop
endfacet
facet normal 0 0 0
outer loop
vertex 16.677855 13.891151 15.039371
vertex 16.657379 13.891151 15.039371
vertex 16.677855 13.911904 15.019372
endloop
endfacet
facet normal 0 0 0
outer loop
vertex 16.698330 13.911904 15.019372
vertex 16.677855 13.891151 15.039371
vertex 16.677855 13.911904 15.019372
endloop
endfacet
facet normal 0 0 0
outer loop
vertex 16.698330 13.891151 15.039371
vertex 16.677855 13.891151 15.039371
vertex 16.698330 13.911904 15.019372
endloop
endfacet
facet normal 0 0 0
outer loop
vertex 16.698330 13.891151 15.039371
vertex 16.698330 13.911904 15.019372
vertex 16.718805 13.911904 15.039371
endloop
endfacet
facet normal 0 0 0
outer loop
vertex 16.698330 13.911904 15.019372
vertex 16.718805 13.911904 15.019372
vertex 16.718805 13.911904 15.039371
endloop
endfacet
facet normal 0 0 0
outer loop
vertex 16.636904 13.911904 15.019372
vertex 16.616426 13.911904 15.039371
vertex 16.636904 13.932658 15.039371
endloop
endfacet
facet normal 0 0 0
outer loop
vertex 16.616426 13.911904 15.039371
vertex 16.616426 13.932658 15.039371
vertex 16.636904 13.932658 15.039371
endloop
endfacet
facet normal 0 0 0
outer loop
vertex 16.636904 13.911904 15.019372
vertex 16.636904 13.932658 15.039371
vertex 16.657379 13.932658 15.019372
endloop
endfacet
facet normal 0 0 0
outer loop
vertex 16.739283 13.932658 15.019372
vertex 16.718805 13.932658 15.039371
vertex 16.718805 13.911904 15.019372
endloop
endfacet
facet normal 0 0 0
outer loop
vertex 16.718805 13.932658 15.039371
vertex 16.718805 13.911904 15.039371
vertex 16.718805 13.911904 15.019372
endloop
endfacet
facet normal 0 0 0
outer loop
vertex 16.616426 13.932658 15.039371
vertex 16.636904 13.953411 15.039371
vertex 16.636904 13.932658 15.039371
endloop
endfacet
facet normal 0 0 0
outer loop
vertex 16.657379 13.932658 15.019372
vertex 16.636904 13.932658 15.039371
vertex 16.657379 13.953411 15.039371
endloop
endfacet
facet normal 0 0 0
outer loop
vertex 16.636904 13.932658 15.039371
vertex 16.636904 13.953411 15.039371
vertex 16.657379 13.953411 15.039371
endloop
endfacet
facet normal 0 0 0
outer loop
vertex 16.657379 13.932658 15.019372
vertex 16.657379 13.953411 15.039371
vertex 16.677855 13.953411 15.019372
endloop
endfacet
facet normal 0 0 0
outer loop
vertex 16.739283 13.932658 15.019372
vertex 16.739283 13.953411 15.039371
vertex 16.718805 13.932658 15.039371
endloop
endfacet
facet normal 0 0 0
outer loop
vertex 16.739283 13.953411 15.039371
vertex 16.739283 13.932658 15.019372
vertex 16.739283 13.953411 15.019372
endloop
endfacet
facet normal 0 0 0
outer loop
vertex 16.636904 13.953411 15.039371
vertex 16.657379 13.974165 15.039371
vertex 16.657379 13.953411 15.039371
endloop
endfacet
facet normal 0 0 0
outer loop
vertex 16.677855 13.953411 15.019372
vertex 16.657379 13.953411 15.039371
vertex 16.677855 13.974165 15.039371
endloop
endfacet
facet normal 0 0 0
outer loop
vertex 16.657379 13.953411 15.039371
vertex 16.657379 13.974165 15.039371
vertex 16.677855 13.974165 15.039371
endloop
endfacet
facet normal 0 0 0
outer loop
vertex 16.677855 13.953411 15.019372
vertex 16.677855 13.974165 15.039371
vertex 16.698330 13.974165 15.019372
endloop
endfacet
facet normal 0 0 0
outer loop
vertex 16.739283 13.974165 15.019372
vertex 16.718805 13.974165 15.039371
vertex 16.739283 13.953411 15.039371
endloop
endfacet
facet normal 0 0 0
outer loop
vertex 16.739283 13.974165 15.019372
vertex 16.739283 13.953411 15.039371
vertex 16.739283 13.953411 15.019372
endloop
endfacet
facet normal 0 0 0
outer loop
vertex 16.698330 13.974165 15.019372
vertex 16.677855 13.974165 15.039371
vertex 16.698330 13.974165 15.039371
endloop
endfacet
facet normal 0 0 0
outer loop
vertex 16.718805 13.974165 15.019372
vertex 16.698330 13.974165 15.019372
vertex 16.718805 13.974165 15.039371
endloop
endfacet
facet normal 0 0 0
outer loop
vertex 16.698330 13.974165 15.019372
vertex 16.698330 13.974165 15.039371
vertex 16.718805 13.974165 15.039371
endloop
endfacet
facet normal 0 0 0
outer loop
vertex 16.718805 13.974165 15.039371
vertex 16.739283 13.974165 15.019372
vertex 16.718805 13.974165 15.019372
endloop
endfacet
facet normal 0 0 0
outer loop
vertex 16.636904 13.870398 15.059372
vertex 16.616426 13.891151 15.059372
vertex 16.636904 13.891151 15.039371
endloop
endfacet
facet normal 0 0 0
outer loop
vertex 16.616426 13.891151 15.059372
vertex 16.616426 13.891151 15.039371
vertex 16.636904 13.891151 15.039371
endloop
endfacet
facet normal 0 0 0
outer loop
vertex 16.657379 13.891151 15.039371
vertex 16.636904 13.870398 15.059372
vertex 16.636904 13.891151 15.039371
endloop
endfacet
facet normal 0 0 0
outer loop
vertex 16.657379 13.870398 15.059372
vertex 16.636904 13.870398 15.059372
vertex 16.657379 13.891151 15.039371
endloop
endfacet
facet normal 0 0 0
outer loop
vertex 16.657379 13.870398 15.059372
vertex 16.657379 13.891151 15.039371
vertex 16.677855 13.891151 15.059372
endloop
endfacet
facet normal 0 0 0
outer loop
vertex 16.657379 13.891151 15.039371
vertex 16.677855 13.891151 15.039371
vertex 16.677855 13.891151 15.059372
endloop
endfacet
facet normal 0 0 0
outer loop
vertex 16.698330 13.891151 15.039371
vertex 16.698330 13.891151 15.059372
vertex 16.677855 13.891151 15.039371
endloop
endfacet
facet normal 0 0 0
outer loop
vertex 16.677855 13.891151 15.039371
vertex 16.698330 13.891151 15.059372
vertex 16.677855 13.891151 15.059372
endloop
endfacet
facet normal 0 0 0
outer loop
vertex 16.616426 13.891151 15.039371
vertex 16.616426 13.891151 15.059372
vertex 16.616426 13.911904 15.039371
endloop
endfacet
facet normal 0 0 0
outer loop
vertex 16.616426 13.891151 15.059372
vertex 16.616426 13.911904 15.059372
vertex 16.616426 13.911904 15.039371
endloop
endfacet
facet normal 0 0 0
outer loop
vertex 16.698330 13.891151 15.039371
vertex 16.718805 13.911904 15.059372
vertex 16.698330 13.891151 15.059372
endloop
endfacet
facet normal 0 0 0
outer loop
vertex 16.718805 13.911904 15.039371
vertex 16.718805 13.911904 15.059372
vertex 16.698330 13.891151 15.039371
endloop
endfacet
facet normal 0 0 0
outer loop
vertex 16.616426 13.911904 15.059372
vertex 16.616426 13.932658 15.039371
vertex 16.616426 13.911904 15.039371
endloop
endfacet
facet normal 0 0 0
outer loop
vertex 16.616426 13.911904 15.059372
vertex 16.636904 13.932658 15.059372
vertex 16.616426 13.932658 15.039371
endloop
endfacet
facet normal 0 0 0
outer loop
vertex 16.718805 13.911904 15.039371
vertex 16.718805 13.932658 15.039371
vertex 16.718805 13.911904 15.059372
endloop
endfacet
facet normal 0 0 0
outer loop
vertex 16.718805 13.911904 15.059372
vertex 16.718805 13.932658 15.039371
vertex 16.718805 13.932658 15.059372
endloop
endfacet
facet normal 0 0 0
outer loop
vertex 16.616426 13.932658 15.039371
vertex 16.636904 13.932658 15.059372
vertex 16.636904 13.953411 15.039371
endloop
endfacet
facet normal 0 0 0
outer loop
vertex 16.636904 13.932658 15.059372
vertex 16.657379 13.953411 15.059372
vertex 16.636904 13.953411 15.039371
endloop
endfacet
facet normal 0 0 0
outer loop
vertex 16.739283 13.953411 15.039371
vertex 16.718805 13.953411 15.059372
vertex 16.718805 13.932658 15.039371
endloop
endfacet
facet normal 0 0 0
outer loop
vertex 16.718805 13.953411 15.059372
vertex 16.718805 13.932658 15.059372
vertex 16.718805 13.932658 15.039371
endloop
endfacet
facet normal 0 0 0
outer loop
vertex 16.636904 13.953411 15.039371
vertex 16.657379 13.953411 15.059372
vertex 16.657379 13.974165 15.039371
endloop
endfacet
facet normal 0 0 0
outer loop
vertex 16.657379 13.974165 15.039371
vertex 16.677855 13.953411 15.059372
vertex 16.677855 13.974165 15.039371
endloop
endfacet
facet normal 0 0 0
outer loop
vertex 16.657379 13.953411 15.059372
vertex 16.677855 13.953411 15.059372
vertex 16.657379 13.974165 15.039371
endloop
endfacet
facet normal 0 0 0
outer loop
vertex 16.677855 13.953411 15.059372
vertex 16.698330 13.974165 15.059372
vertex 16.677855 13.974165 15.039371
endloop
endfacet
facet normal 0 0 0
outer loop
vertex 16.718805 13.974165 15.039371
vertex 16.698330 13.974165 15.059372
vertex 16.718805 13.953411 15.059372
endloop
endfacet
facet normal 0 0 0
outer loop
vertex 16.739283 13.953411 15.039371
vertex 16.718805 13.974165 15.039371
vertex 16.718805 13.953411 15.059372
endloop
endfacet
facet normal 0 0 0
outer loop
vertex 16.677855 13.974165 15.039371
vertex 16.698330 13.974165 15.059372
vertex 16.698330 13.974165 15.039371
endloop
endfacet
facet normal 0 0 0
outer loop
vertex 16.698330 13.974165 15.059372
vertex 16.718805 13.974165 15.039371
vertex 16.698330 13.974165 15.039371
endloop
endfacet
facet normal 0 0 0
outer loop
vertex 16.616426 13.870398 15.079371
vertex 16.636904 13.870398 15.059372
vertex 16.636904 13.870398 15.079371
endloop
endfacet
facet normal 0 0 0
outer loop
vertex 16.657379 13.870398 15.059372
vertex 16.636904 13.870398 15.079371
vertex 16.636904 13.870398 15.059372
endloop
endfacet
facet normal 0 0 0
outer loop
vertex 16.616426 13.891151 15.059372
vertex 16.616426 13.870398 15.079371
vertex 16.616426 13.891151 15.079371
endloop
endfacet
facet normal 0 0 0
outer loop
vertex 16.636904 13.870398 15.059372
vertex 16.616426 13.870398 15.079371
vertex 16.616426 13.891151 15.059372
endloop
endfacet
facet normal 0 0 0
outer loop
vertex 16.657379 13.870398 15.059372
vertex 16.657379 13.891151 15.079371
vertex 16.636904 13.870398 15.079371
endloop
endfacet
facet normal 0 0 0
outer loop
vertex 16.657379 13.870398 15.059372
vertex 16.677855 13.891151 15.059372
vertex 16.657379 13.891151 15.079371
endloop
endfacet
facet normal 0 0 0
outer loop
vertex 16.677855 13.891151 15.059372
vertex 16.677855 13.891151 15.079371
vertex 16.657379 13.891151 15.079371
endloop
endfacet
facet normal 0 0 0
outer loop
vertex 16.698330 13.891151 15.059372
vertex 16.677855 13.891151 15.079371
vertex 16.677855 13.891151 15.059372
endloop
endfacet
facet normal 0 0 0
outer loop
vertex 16.616426 13.891151 15.059372
vertex 16.616426 13.891151 15.079371
vertex 16.616426 13.911904 15.059372
endloop
endfacet
facet normal 0 0 0
outer loop
vertex 16.616426 13.891151 15.079371
vertex 16.616426 13.911904 15.079371
vertex 16.616426 13.911904 15.059372
endloop
endfacet
facet normal 0 0 0
outer loop
vertex 16.698330 13.891151 15.059372
vertex 16.698330 13.911904 15.079371
vertex 16.677855 13.891151 15.079371
endloop
endfacet
facet normal 0 0 0
outer loop
vertex 16.718805 13.911904 15.059372
vertex 16.698330 13.911904 15.079371
vertex 16.698330 13.891151 15.059372
endloop
endfacet
facet normal 0 0 0
outer loop
vertex 16.616426 13.932658 15.079371
vertex 16.616426 13.911904 15.059372
vertex 16.616426 13.911904 15.079371
endloop
endfacet
facet normal 0 0 0
outer loop
vertex 16.616426 13.911904 15.059372
vertex 16.616426 13.932658 15.079371
vertex 16.636904 13.932658 15.059372
endloop
endfacet
facet normal 0 0 0
outer loop
vertex 16.718805 13.911904 15.059372
vertex 16.718805 13.932658 15.079371
vertex 16.698330 13.911904 15.079371
endloop
endfacet
facet normal 0 0 0
outer loop
vertex 16.718805 13.932658 15.079371
vertex 16.718805 13.911904 15.059372
vertex 16.718805 13.932658 15.059372
endloop
endfacet
facet normal 0 0 0
outer loop
vertex 16.636904 13.932658 15.059372
vertex 16.616426 13.932658 15.079371
vertex 16.636904 13.932658 15.079371
endloop
endfacet
facet normal 0 0 0
outer loop
vertex 16.657379 13.953411 15.059372
vertex 16.636904 13.932658 15.059372
vertex 16.657379 13.932658 15.079371
endloop
endfacet
facet normal 0 0 0
outer loop
vertex 16.636904 13.932658 15.059372
vertex 16.636904 13.932658 15.079371
vertex 16.657379 13.932658 15.079371
endloop
endfacet
facet normal 0 0 0
outer loop
vertex 16.657379 13.953411 15.059372
vertex 16.677855 13.932658 15.079371
vertex 16.677855 13.953411 15.059372
endloop
endfacet
facet normal 0 0 0
outer loop
vertex 16.657379 13.932658 15.079371
vertex 16.677855 13.932658 15.079371
vertex 16.657379 13.953411 15.059372
endloop
endfacet
facet normal 0 0 0
outer loop
vertex 16.677855 13.932658 15.079371
vertex 16.698330 13.953411 15.079371
vertex 16.677855 13.953411 15.059372
endloop
endfacet
facet normal 0 0 0
outer loop
vertex 16.718805 13.932658 15.059372
vertex 16.718805 13.953411 15.059372
vertex 16.718805 13.932658 15.079371
endloop
endfacet
facet normal 0 0 0
outer loop
vertex 16.718805 13.932658 15.079371
vertex 16.718805 13.953411 15.059372
vertex 16.718805 13.953411 15.079371
endloop
endfacet
facet normal 0 0 0
outer loop
vertex 16.677855 13.953411 15.059372
vertex 16.698330 13.953411 15.079371
vertex 16.698330 13.974165 15.059372
endloop
endfacet
facet normal 0 0 0
outer loop
vertex 16.698330 13.974165 15.059372
vertex 16.698330 13.953411 15.079371
vertex 16.718805 13.953411 15.059372
endloop
endfacet
facet normal 0 0 0
outer loop
vertex 16.698330 13.953411 15.079371
vertex 16.718805 13.953411 15.079371
vertex 16.718805 13.953411 15.059372
endloop
endfacet
facet normal 0 0 0
outer loop
vertex 16.636904 13.870398 15.079371
vertex 16.636904 13.891151 15.079371
vertex 16.616426 13.870398 15.079371
endloop
endfacet
facet normal 0 0 0
outer loop
vertex 16.636904 13.891151 15.079371
vertex 16.616426 13.891151 15.079371
vertex 16.616426 13.870398 15.079371
endloop
endfacet
facet normal 0 0 0
outer loop
vertex 16.636904 13.870398 15.079371
vertex 16.657379 13.891151 15.079371
vertex 16.636904 13.891151 15.079371
endloop
endfacet
facet normal 0 0 0
outer loop
vertex 16.616426 13.891151 15.079371
vertex 16.616426 13.911904 15.099372
vertex 16.616426 13.911904 15.079371
endloop
endfacet
facet normal 0 0 0
outer loop
vertex 16.636904 13.891151 15.079371
vertex 16.616426 13.911904 15.099372
vertex 16.616426 13.891151 15.079371
endloop
endfacet
facet normal 0 0 0
outer loop
vertex 16.636904 13.911904 15.099372
vertex 16.616426 13.911904 15.099372
vertex 16.636904 13.891151 15.079371
endloop
endfacet
facet normal 0 0 0
outer loop
vertex 16.657379 13.891151 15.079371
vertex 16.636904 13.911904 15.099372
vertex 16.636904 13.891151 15.079371
endloop
endfacet
facet normal 0 0 0
outer loop
vertex 16.657379 13.911904 15.099372
vertex 16.636904 13.911904 15.099372
vertex 16.657379 13.891151 15.079371
endloop
endfacet
facet normal 0 0 0
outer loop
vertex 16.657379 13.911904 15.099372
vertex 16.657379 13.891151 15.079371
vertex 16.677855 13.911904 15.079371
endloop
endfacet
facet normal 0 0 0
outer loop
vertex 16.657379 13.891151 15.079371
vertex 16.677855 13.891151 15.079371
vertex 16.677855 13.911904 15.079371
endloop
endfacet
facet normal 0 0 0
outer loop
vertex 16.677855 13.891151 15.079371
vertex 16.698330 13.911904 15.079371
vertex 16.677855 13.911904 15.079371
endloop
endfacet
facet normal 0 0 0
outer loop
vertex 16.595951 13.932658 15.099372
vertex 16.616426 13.932658 15.079371
vertex 16.616426 13.911904 15.099372
endloop
endfacet
facet normal 0 0 0
outer loop
vertex 16.616426 13.932658 15.079371
vertex 16.616426 13.911904 15.079371
vertex 16.616426 13.911904 15.099372
endloop
endfacet
facet normal 0 0 0
outer loop
vertex 16.677855 13.911904 15.079371
vertex 16.677855 13.932658 15.099372
vertex 16.657379 13.911904 15.099372
endloop
endfacet
facet normal 0 0 0
outer loop
vertex 16.677855 13.932658 15.099372
vertex 16.677855 13.911904 15.079371
vertex 16.698330 13.932658 15.079371
endloop
endfacet
facet normal 0 0 0
outer loop
vertex 16.677855 13.911904 15.079371
vertex 16.698330 13.911904 15.079371
vertex 16.698330 13.932658 15.079371
endloop
endfacet
facet normal 0 0 0
outer loop
vertex 16.698330 13.911904 15.079371
vertex 16.718805 13.932658 15.079371
vertex 16.698330 13.932658 15.079371
endloop
endfacet
facet normal 0 0 0
outer loop
vertex 16.616426 13.932658 15.079371
vertex 16.595951 13.932658 15.099372
vertex 16.616426 13.953411 15.099372
endloop
endfacet
facet normal 0 0 0
outer loop
vertex 16.595951 13.932658 15.099372
vertex 16.595951 13.953411 15.099372
vertex 16.616426 13.953411 15.099372
endloop
endfacet
facet normal 0 0 0
outer loop
vertex 16.616426 13.932658 15.079371
vertex 16.636904 13.953411 15.099372
vertex 16.636904 13.932658 15.079371
endloop
endfacet
facet normal 0 0 0
outer loop
vertex 16.616426 13.953411 15.099372
vertex 16.636904 13.953411 15.099372
vertex 16.616426 13.932658 15.079371
endloop
endfacet
facet normal 0 0 0
outer loop
vertex 16.636904 13.932658 15.079371
vertex 16.657379 13.953411 15.099372
vertex 16.657379 13.932658 15.079371
endloop
endfacet
facet normal 0 0 0
outer loop
vertex 16.636904 13.953411 15.099372
vertex 16.657379 13.953411 15.099372
vertex 16.636904 13.932658 15.079371
endloop
endfacet
facet normal 0 0 0
outer loop
vertex 16.657379 13.932658 15.079371
vertex 16.677855 13.953411 15.099372
vertex 16.677855 13.932658 15.079371
endloop
endfacet
facet normal 0 0 0
outer loop
vertex 16.657379 13.953411 15.099372
vertex 16.677855 13.953411 15.099372
vertex 16.657379 13.932658 15.079371
endloop
endfacet
facet normal 0 0 0
outer loop
vertex 16.698330 13.953411 15.079371
vertex 16.677855 13.932658 15.079371
vertex 16.698330 13.932658 15.079371
endloop
endfacet
facet normal 0 0 0
outer loop
vertex 16.698330 13.932658 15.079371
vertex 16.677855 13.932658 15.079371
vertex 16.677855 13.932658 15.099372
endloop
endfacet
facet normal 0 0 0
outer loop
vertex 16.677855 13.932658 15.099372
vertex 16.677855 13.932658 15.079371
vertex 16.677855 13.953411 15.099372
endloop
endfacet
facet normal 0 0 0
outer loop
vertex 16.718805 13.932658 15.079371
vertex 16.718805 13.953411 15.079371
vertex 16.698330 13.932658 15.079371
endloop
endfacet
facet normal 0 0 0
outer loop
vertex 16.718805 13.953411 15.079371
vertex 16.698330 13.953411 15.079371
vertex 16.698330 13.932658 15.079371
endloop
endfacet
facet normal 0 0 0
outer loop
vertex 16.636904 13.974165 15.099372
vertex 16.657379 13.953411 15.099372
vertex 16.636904 13.953411 15.099372
endloop
endfacet
facet normal 0 0 0
outer loop
vertex 16.595951 13.932658 15.099372
vertex 16.616426 13.911904 15.099372
vertex 16.616426 13.932658 15.099372
endloop
endfacet
facet normal 0 0 0
outer loop
vertex 16.636904 13.932658 15.119371
vertex 16.616426 13.932658 15.099372
vertex 16.636904 13.911904 15.099372
endloop
endfacet
facet normal 0 0 0
outer loop
vertex 16.616426 13.932658 15.099372
vertex 16.616426 13.911904 15.099372
vertex 16.636904 13.911904 15.099372
endloop
endfacet
facet normal 0 0 0
outer loop
vertex 16.657379 13.911904 15.099372
vertex 16.636904 13.932658 15.119371
vertex 16.636904 13.911904 15.099372
endloop
endfacet
facet normal 0 0 0
outer loop
vertex 16.657379 13.932658 15.119371
vertex 16.636904 13.932658 15.119371
vertex 16.657379 13.911904 15.099372
endloop
endfacet
facet normal 0 0 0
outer loop
vertex 16.677855 13.932658 15.099372
vertex 16.657379 13.932658 15.119371
vertex 16.657379 13.911904 15.099372
endloop
endfacet
facet normal 0 0 0
outer loop
vertex 16.616426 13.932658 15.099372
vertex 16.616426 13.953411 15.099372
vertex 16.595951 13.932658 15.099372
endloop
endfacet
facet normal 0 0 0
outer loop
vertex 16.636904 13.932658 15.119371
vertex 16.636904 13.953411 15.099372
vertex 16.616426 13.932658 15.099372
endloop
endfacet
facet normal 0 0 0
outer loop
vertex 16.636904 13.953411 15.099372
vertex 16.616426 13.953411 15.099372
vertex 16.616426 13.932658 15.099372
endloop
endfacet
facet normal 0 0 0
outer loop
vertex 16.636904 13.953411 15.099372
vertex 16.657379 13.932658 15.119371
vertex 16.657379 13.953411 15.099372
endloop
endfacet
facet normal 0 0 0
outer loop
vertex 16.636904 13.932658 15.119371
vertex 16.657379 13.932658 15.119371
vertex 16.636904 13.953411 15.099372
endloop
endfacet
facet normal 0 0 0
outer loop
vertex 16.657379 13.932658 15.119371
vertex 16.677855 13.932658 15.099372
vertex 16.657379 13.953411 15.099372
endloop
endfacet
facet normal 0 0 0
outer loop
vertex 16.677855 13.932658 15.099372
vertex 16.677855 13.953411 15.099372
vertex 16.657379 13.953411 15.099372
endloop
endfacet
facet normal 0 0 0
outer loop
vertex 16.636904 13.974165 15.099372
vertex 16.616426 13.953411 15.099372
vertex 16.636904 13.953411 15.099372
endloop
endfacet
endsolid B-16-Plag.411
