solid B-16-Plag.183
facet normal 0 0 0
outer loop
vertex 26.383385 8.723575 8.699371
vertex 26.362907 8.744328 8.699371
vertex 26.383385 8.744328 8.699371
endloop
endfacet
facet normal 0 0 0
outer loop
vertex 26.403860 8.723575 8.699371
vertex 26.383385 8.723575 8.699371
vertex 26.403860 8.744328 8.699371
endloop
endfacet
facet normal 0 0 0
outer loop
vertex 26.403860 8.744328 8.699371
vertex 26.383385 8.723575 8.699371
vertex 26.383385 8.744328 8.699371
endloop
endfacet
facet normal 0 0 0
outer loop
vertex 26.424335 8.723575 8.699371
vertex 26.403860 8.723575 8.699371
vertex 26.424335 8.744328 8.699371
endloop
endfacet
facet normal 0 0 0
outer loop
vertex 26.424335 8.744328 8.699371
vertex 26.403860 8.723575 8.699371
vertex 26.403860 8.744328 8.699371
endloop
endfacet
facet normal 0 0 0
outer loop
vertex 26.444811 8.723575 8.699371
vertex 26.424335 8.723575 8.699371
vertex 26.444811 8.744328 8.699371
endloop
endfacet
facet normal 0 0 0
outer loop
vertex 26.444811 8.744328 8.699371
vertex 26.424335 8.723575 8.699371
vertex 26.424335 8.744328 8.699371
endloop
endfacet
facet normal 0 0 0
outer loop
vertex 26.465286 8.744328 8.699371
vertex 26.444811 8.723575 8.699371
vertex 26.444811 8.744328 8.699371
endloop
endfacet
facet normal 0 0 0
outer loop
vertex 26.362907 8.744328 8.699371
vertex 26.342432 8.765080 8.699371
vertex 26.362907 8.765080 8.699371
endloop
endfacet
facet normal 0 0 0
outer loop
vertex 26.383385 8.744328 8.699371
vertex 26.362907 8.744328 8.699371
vertex 26.383385 8.765080 8.699371
endloop
endfacet
facet normal 0 0 0
outer loop
vertex 26.383385 8.765080 8.699371
vertex 26.362907 8.744328 8.699371
vertex 26.362907 8.765080 8.699371
endloop
endfacet
facet normal 0 0 0
outer loop
vertex 26.403860 8.744328 8.699371
vertex 26.383385 8.744328 8.699371
vertex 26.403860 8.765080 8.699371
endloop
endfacet
facet normal 0 0 0
outer loop
vertex 26.403860 8.765080 8.699371
vertex 26.383385 8.744328 8.699371
vertex 26.383385 8.765080 8.699371
endloop
endfacet
facet normal 0 0 0
outer loop
vertex 26.424335 8.744328 8.699371
vertex 26.403860 8.744328 8.699371
vertex 26.424335 8.765080 8.699371
endloop
endfacet
facet normal 0 0 0
outer loop
vertex 26.424335 8.765080 8.699371
vertex 26.403860 8.744328 8.699371
vertex 26.403860 8.765080 8.699371
endloop
endfacet
facet normal 0 0 0
outer loop
vertex 26.444811 8.744328 8.699371
vertex 26.424335 8.744328 8.699371
vertex 26.444811 8.765080 8.699371
endloop
endfacet
facet normal 0 0 0
outer loop
vertex 26.444811 8.765080 8.699371
vertex 26.424335 8.744328 8.699371
vertex 26.424335 8.765080 8.699371
endloop
endfacet
facet normal 0 0 0
outer loop
vertex 26.465286 8.744328 8.699371
vertex 26.444811 8.744328 8.699371
vertex 26.465286 8.765080 8.699371
endloop
endfacet
facet normal 0 0 0
outer loop
vertex 26.465286 8.765080 8.699371
vertex 26.444811 8.744328 8.699371
vertex 26.444811 8.765080 8.699371
endloop
endfacet
facet normal 0 0 0
outer loop
vertex 26.485764 8.744328 8.699371
vertex 26.465286 8.744328 8.699371
vertex 26.485764 8.765080 8.699371
endloop
endfacet
facet normal 0 0 0
outer loop
vertex 26.485764 8.765080 8.699371
vertex 26.465286 8.744328 8.699371
vertex 26.465286 8.765080 8.699371
endloop
endfacet
facet normal 0 0 0
outer loop
vertex 26.342432 8.765080 8.699371
vertex 26.321957 8.785834 8.699371
vertex 26.342432 8.785834 8.699371
endloop
endfacet
facet normal 0 0 0
outer loop
vertex 26.362907 8.765080 8.699371
vertex 26.342432 8.765080 8.699371
vertex 26.362907 8.785834 8.699371
endloop
endfacet
facet normal 0 0 0
outer loop
vertex 26.362907 8.785834 8.699371
vertex 26.342432 8.765080 8.699371
vertex 26.342432 8.785834 8.699371
endloop
endfacet
facet normal 0 0 0
outer loop
vertex 26.383385 8.765080 8.699371
vertex 26.362907 8.765080 8.699371
vertex 26.383385 8.785834 8.699371
endloop
endfacet
facet normal 0 0 0
outer loop
vertex 26.383385 8.785834 8.699371
vertex 26.362907 8.765080 8.699371
vertex 26.362907 8.785834 8.699371
endloop
endfacet
facet normal 0 0 0
outer loop
vertex 26.403860 8.765080 8.699371
vertex 26.383385 8.765080 8.699371
vertex 26.403860 8.785834 8.699371
endloop
endfacet
facet normal 0 0 0
outer loop
vertex 26.403860 8.785834 8.699371
vertex 26.383385 8.765080 8.699371
vertex 26.383385 8.785834 8.699371
endloop
endfacet
facet normal 0 0 0
outer loop
vertex 26.424335 8.765080 8.699371
vertex 26.403860 8.765080 8.699371
vertex 26.424335 8.785834 8.699371
endloop
endfacet
facet normal 0 0 0
outer loop
vertex 26.424335 8.785834 8.699371
vertex 26.403860 8.765080 8.699371
vertex 26.403860 8.785834 8.699371
endloop
endfacet
facet normal 0 0 0
outer loop
vertex 26.444811 8.765080 8.699371
vertex 26.424335 8.765080 8.699371
vertex 26.444811 8.785834 8.699371
endloop
endfacet
facet normal 0 0 0
outer loop
vertex 26.444811 8.785834 8.699371
vertex 26.424335 8.765080 8.699371
vertex 26.424335 8.785834 8.699371
endloop
endfacet
facet normal 0 0 0
outer loop
vertex 26.465286 8.765080 8.699371
vertex 26.444811 8.765080 8.699371
vertex 26.465286 8.785834 8.699371
endloop
endfacet
facet normal 0 0 0
outer loop
vertex 26.465286 8.785834 8.699371
vertex 26.444811 8.765080 8.699371
vertex 26.444811 8.785834 8.699371
endloop
endfacet
facet normal 0 0 0
outer loop
vertex 26.465286 8.785834 8.699371
vertex 26.485764 8.765080 8.699371
vertex 26.465286 8.765080 8.699371
endloop
endfacet
facet normal 0 0 0
outer loop
vertex 26.321957 8.785834 8.699371
vertex 26.342432 8.806587 8.699371
vertex 26.342432 8.785834 8.699371
endloop
endfacet
facet normal 0 0 0
outer loop
vertex 26.362907 8.785834 8.699371
vertex 26.342432 8.785834 8.699371
vertex 26.362907 8.806587 8.699371
endloop
endfacet
facet normal 0 0 0
outer loop
vertex 26.362907 8.806587 8.699371
vertex 26.342432 8.785834 8.699371
vertex 26.342432 8.806587 8.699371
endloop
endfacet
facet normal 0 0 0
outer loop
vertex 26.383385 8.785834 8.699371
vertex 26.362907 8.785834 8.699371
vertex 26.383385 8.806587 8.699371
endloop
endfacet
facet normal 0 0 0
outer loop
vertex 26.383385 8.806587 8.699371
vertex 26.362907 8.785834 8.699371
vertex 26.362907 8.806587 8.699371
endloop
endfacet
facet normal 0 0 0
outer loop
vertex 26.403860 8.785834 8.699371
vertex 26.383385 8.785834 8.699371
vertex 26.403860 8.806587 8.699371
endloop
endfacet
facet normal 0 0 0
outer loop
vertex 26.403860 8.806587 8.699371
vertex 26.383385 8.785834 8.699371
vertex 26.383385 8.806587 8.699371
endloop
endfacet
facet normal 0 0 0
outer loop
vertex 26.424335 8.785834 8.699371
vertex 26.403860 8.785834 8.699371
vertex 26.424335 8.806587 8.699371
endloop
endfacet
facet normal 0 0 0
outer loop
vertex 26.424335 8.806587 8.699371
vertex 26.403860 8.785834 8.699371
vertex 26.403860 8.806587 8.699371
endloop
endfacet
facet normal 0 0 0
outer loop
vertex 26.444811 8.785834 8.699371
vertex 26.424335 8.785834 8.699371
vertex 26.444811 8.806587 8.699371
endloop
endfacet
facet normal 0 0 0
outer loop
vertex 26.444811 8.806587 8.699371
vertex 26.424335 8.785834 8.699371
vertex 26.424335 8.806587 8.699371
endloop
endfacet
facet normal 0 0 0
outer loop
vertex 26.465286 8.785834 8.699371
vertex 26.444811 8.785834 8.699371
vertex 26.465286 8.806587 8.699371
endloop
endfacet
facet normal 0 0 0
outer loop
vertex 26.465286 8.806587 8.699371
vertex 26.444811 8.785834 8.699371
vertex 26.444811 8.806587 8.699371
endloop
endfacet
facet normal 0 0 0
outer loop
vertex 26.362907 8.806587 8.699371
vertex 26.383385 8.827341 8.699371
vertex 26.383385 8.806587 8.699371
endloop
endfacet
facet normal 0 0 0
outer loop
vertex 26.403860 8.806587 8.699371
vertex 26.383385 8.806587 8.699371
vertex 26.403860 8.827341 8.699371
endloop
endfacet
facet normal 0 0 0
outer loop
vertex 26.403860 8.827341 8.699371
vertex 26.383385 8.806587 8.699371
vertex 26.383385 8.827341 8.699371
endloop
endfacet
facet normal 0 0 0
outer loop
vertex 26.424335 8.806587 8.699371
vertex 26.403860 8.806587 8.699371
vertex 26.424335 8.827341 8.699371
endloop
endfacet
facet normal 0 0 0
outer loop
vertex 26.424335 8.827341 8.699371
vertex 26.403860 8.806587 8.699371
vertex 26.403860 8.827341 8.699371
endloop
endfacet
facet normal 0 0 0
outer loop
vertex 26.424335 8.827341 8.699371
vertex 26.444811 8.806587 8.699371
vertex 26.424335 8.806587 8.699371
endloop
endfacet
facet normal 0 0 0
outer loop
vertex 26.403860 8.723575 8.699371
vertex 26.403860 8.723575 8.719372
vertex 26.383385 8.723575 8.699371
endloop
endfacet
facet normal 0 0 0
outer loop
vertex 26.383385 8.723575 8.699371
vertex 26.403860 8.723575 8.719372
vertex 26.383385 8.723575 8.719372
endloop
endfacet
facet normal 0 0 0
outer loop
vertex 26.424335 8.723575 8.699371
vertex 26.403860 8.723575 8.719372
vertex 26.403860 8.723575 8.699371
endloop
endfacet
facet normal 0 0 0
outer loop
vertex 26.383385 8.723575 8.719372
vertex 26.362907 8.744328 8.699371
vertex 26.383385 8.723575 8.699371
endloop
endfacet
facet normal 0 0 0
outer loop
vertex 26.362907 8.744328 8.719372
vertex 26.362907 8.744328 8.699371
vertex 26.383385 8.723575 8.719372
endloop
endfacet
facet normal 0 0 0
outer loop
vertex 26.424335 8.723575 8.699371
vertex 26.424335 8.744328 8.719372
vertex 26.403860 8.723575 8.719372
endloop
endfacet
facet normal 0 0 0
outer loop
vertex 26.444811 8.723575 8.699371
vertex 26.424335 8.744328 8.719372
vertex 26.424335 8.723575 8.699371
endloop
endfacet
facet normal 0 0 0
outer loop
vertex 26.444811 8.744328 8.719372
vertex 26.424335 8.744328 8.719372
vertex 26.444811 8.723575 8.699371
endloop
endfacet
facet normal 0 0 0
outer loop
vertex 26.465286 8.723575 8.719372
vertex 26.444811 8.744328 8.719372
vertex 26.465286 8.744328 8.699371
endloop
endfacet
facet normal 0 0 0
outer loop
vertex 26.444811 8.723575 8.699371
vertex 26.465286 8.744328 8.699371
vertex 26.444811 8.744328 8.719372
endloop
endfacet
facet normal 0 0 0
outer loop
vertex 26.465286 8.723575 8.719372
vertex 26.465286 8.744328 8.699371
vertex 26.485764 8.744328 8.699371
endloop
endfacet
facet normal 0 0 0
outer loop
vertex 26.465286 8.723575 8.719372
vertex 26.485764 8.744328 8.699371
vertex 26.465286 8.744328 8.719372
endloop
endfacet
facet normal 0 0 0
outer loop
vertex 26.362907 8.744328 8.719372
vertex 26.342432 8.765080 8.699371
vertex 26.362907 8.744328 8.699371
endloop
endfacet
facet normal 0 0 0
outer loop
vertex 26.342432 8.765080 8.719372
vertex 26.342432 8.765080 8.699371
vertex 26.362907 8.744328 8.719372
endloop
endfacet
facet normal 0 0 0
outer loop
vertex 26.485764 8.744328 8.699371
vertex 26.485764 8.765080 8.719372
vertex 26.465286 8.744328 8.719372
endloop
endfacet
facet normal 0 0 0
outer loop
vertex 26.506239 8.765080 8.719372
vertex 26.485764 8.765080 8.719372
vertex 26.485764 8.765080 8.699371
endloop
endfacet
facet normal 0 0 0
outer loop
vertex 26.485764 8.765080 8.699371
vertex 26.485764 8.765080 8.719372
vertex 26.485764 8.744328 8.699371
endloop
endfacet
facet normal 0 0 0
outer loop
vertex 26.321957 8.785834 8.699371
vertex 26.342432 8.765080 8.699371
vertex 26.342432 8.785834 8.719372
endloop
endfacet
facet normal 0 0 0
outer loop
vertex 26.342432 8.765080 8.699371
vertex 26.342432 8.765080 8.719372
vertex 26.342432 8.785834 8.719372
endloop
endfacet
facet normal 0 0 0
outer loop
vertex 26.485764 8.765080 8.699371
vertex 26.465286 8.785834 8.699371
vertex 26.485764 8.785834 8.719372
endloop
endfacet
facet normal 0 0 0
outer loop
vertex 26.485764 8.765080 8.699371
vertex 26.485764 8.785834 8.719372
vertex 26.506239 8.765080 8.719372
endloop
endfacet
facet normal 0 0 0
outer loop
vertex 26.485764 8.785834 8.719372
vertex 26.506239 8.785834 8.719372
vertex 26.506239 8.765080 8.719372
endloop
endfacet
facet normal 0 0 0
outer loop
vertex 26.321957 8.785834 8.699371
vertex 26.342432 8.785834 8.719372
vertex 26.342432 8.806587 8.699371
endloop
endfacet
facet normal 0 0 0
outer loop
vertex 26.342432 8.785834 8.719372
vertex 26.342432 8.806587 8.719372
vertex 26.342432 8.806587 8.699371
endloop
endfacet
facet normal 0 0 0
outer loop
vertex 26.485764 8.785834 8.719372
vertex 26.465286 8.806587 8.699371
vertex 26.485764 8.806587 8.719372
endloop
endfacet
facet normal 0 0 0
outer loop
vertex 26.465286 8.785834 8.699371
vertex 26.465286 8.806587 8.699371
vertex 26.485764 8.785834 8.719372
endloop
endfacet
facet normal 0 0 0
outer loop
vertex 26.506239 8.785834 8.719372
vertex 26.485764 8.785834 8.719372
vertex 26.506239 8.806587 8.719372
endloop
endfacet
facet normal 0 0 0
outer loop
vertex 26.506239 8.806587 8.719372
vertex 26.485764 8.785834 8.719372
vertex 26.485764 8.806587 8.719372
endloop
endfacet
facet normal 0 0 0
outer loop
vertex 26.362907 8.827341 8.719372
vertex 26.362907 8.806587 8.699371
vertex 26.342432 8.806587 8.719372
endloop
endfacet
facet normal 0 0 0
outer loop
vertex 26.362907 8.806587 8.699371
vertex 26.342432 8.806587 8.699371
vertex 26.342432 8.806587 8.719372
endloop
endfacet
facet normal 0 0 0
outer loop
vertex 26.362907 8.806587 8.699371
vertex 26.362907 8.827341 8.719372
vertex 26.383385 8.827341 8.699371
endloop
endfacet
facet normal 0 0 0
outer loop
vertex 26.444811 8.806587 8.699371
vertex 26.424335 8.827341 8.699371
vertex 26.444811 8.827341 8.719372
endloop
endfacet
facet normal 0 0 0
outer loop
vertex 26.444811 8.806587 8.699371
vertex 26.465286 8.827341 8.719372
vertex 26.465286 8.806587 8.699371
endloop
endfacet
facet normal 0 0 0
outer loop
vertex 26.444811 8.827341 8.719372
vertex 26.465286 8.827341 8.719372
vertex 26.444811 8.806587 8.699371
endloop
endfacet
facet normal 0 0 0
outer loop
vertex 26.465286 8.806587 8.699371
vertex 26.465286 8.827341 8.719372
vertex 26.485764 8.806587 8.719372
endloop
endfacet
facet normal 0 0 0
outer loop
vertex 26.465286 8.827341 8.719372
vertex 26.485764 8.827341 8.719372
vertex 26.485764 8.806587 8.719372
endloop
endfacet
facet normal 0 0 0
outer loop
vertex 26.485764 8.827341 8.719372
vertex 26.506239 8.806587 8.719372
vertex 26.485764 8.806587 8.719372
endloop
endfacet
facet normal 0 0 0
outer loop
vertex 26.383385 8.827341 8.699371
vertex 26.362907 8.827341 8.719372
vertex 26.383385 8.827341 8.719372
endloop
endfacet
facet normal 0 0 0
outer loop
vertex 26.403860 8.827341 8.699371
vertex 26.383385 8.827341 8.699371
vertex 26.403860 8.827341 8.719372
endloop
endfacet
facet normal 0 0 0
outer loop
vertex 26.383385 8.827341 8.699371
vertex 26.383385 8.827341 8.719372
vertex 26.403860 8.827341 8.719372
endloop
endfacet
facet normal 0 0 0
outer loop
vertex 26.424335 8.827341 8.699371
vertex 26.403860 8.827341 8.699371
vertex 26.424335 8.827341 8.719372
endloop
endfacet
facet normal 0 0 0
outer loop
vertex 26.403860 8.827341 8.699371
vertex 26.403860 8.827341 8.719372
vertex 26.424335 8.827341 8.719372
endloop
endfacet
facet normal 0 0 0
outer loop
vertex 26.444811 8.827341 8.719372
vertex 26.424335 8.827341 8.699371
vertex 26.424335 8.827341 8.719372
endloop
endfacet
facet normal 0 0 0
outer loop
vertex 26.342432 8.744328 8.739372
vertex 26.362907 8.744328 8.719372
vertex 26.362907 8.744328 8.739372
endloop
endfacet
facet normal 0 0 0
outer loop
vertex 26.383385 8.723575 8.719372
vertex 26.383385 8.744328 8.739372
vertex 26.362907 8.744328 8.719372
endloop
endfacet
facet normal 0 0 0
outer loop
vertex 26.383385 8.744328 8.739372
vertex 26.362907 8.744328 8.739372
vertex 26.362907 8.744328 8.719372
endloop
endfacet
facet normal 0 0 0
outer loop
vertex 26.403860 8.723575 8.719372
vertex 26.383385 8.744328 8.739372
vertex 26.383385 8.723575 8.719372
endloop
endfacet
facet normal 0 0 0
outer loop
vertex 26.403860 8.744328 8.739372
vertex 26.383385 8.744328 8.739372
vertex 26.403860 8.723575 8.719372
endloop
endfacet
facet normal 0 0 0
outer loop
vertex 26.403860 8.723575 8.719372
vertex 26.424335 8.744328 8.719372
vertex 26.403860 8.744328 8.739372
endloop
endfacet
facet normal 0 0 0
outer loop
vertex 26.424335 8.744328 8.719372
vertex 26.424335 8.744328 8.739372
vertex 26.403860 8.744328 8.739372
endloop
endfacet
facet normal 0 0 0
outer loop
vertex 26.444811 8.744328 8.719372
vertex 26.444811 8.744328 8.739372
vertex 26.424335 8.744328 8.719372
endloop
endfacet
facet normal 0 0 0
outer loop
vertex 26.424335 8.744328 8.719372
vertex 26.444811 8.744328 8.739372
vertex 26.424335 8.744328 8.739372
endloop
endfacet
facet normal 0 0 0
outer loop
vertex 26.465286 8.723575 8.719372
vertex 26.465286 8.744328 8.739372
vertex 26.444811 8.744328 8.719372
endloop
endfacet
facet normal 0 0 0
outer loop
vertex 26.465286 8.744328 8.739372
vertex 26.444811 8.744328 8.739372
vertex 26.444811 8.744328 8.719372
endloop
endfacet
facet normal 0 0 0
outer loop
vertex 26.465286 8.723575 8.719372
vertex 26.465286 8.744328 8.719372
vertex 26.485764 8.744328 8.739372
endloop
endfacet
facet normal 0 0 0
outer loop
vertex 26.465286 8.723575 8.719372
vertex 26.485764 8.744328 8.739372
vertex 26.465286 8.744328 8.739372
endloop
endfacet
facet normal 0 0 0
outer loop
vertex 26.342432 8.765080 8.719372
vertex 26.342432 8.744328 8.739372
vertex 26.342432 8.765080 8.739372
endloop
endfacet
facet normal 0 0 0
outer loop
vertex 26.362907 8.744328 8.719372
vertex 26.342432 8.744328 8.739372
vertex 26.342432 8.765080 8.719372
endloop
endfacet
facet normal 0 0 0
outer loop
vertex 26.465286 8.744328 8.719372
vertex 26.485764 8.765080 8.719372
vertex 26.485764 8.744328 8.739372
endloop
endfacet
facet normal 0 0 0
outer loop
vertex 26.485764 8.744328 8.739372
vertex 26.485764 8.765080 8.719372
vertex 26.485764 8.765080 8.739372
endloop
endfacet
facet normal 0 0 0
outer loop
vertex 26.485764 8.765080 8.739372
vertex 26.485764 8.765080 8.719372
vertex 26.506239 8.765080 8.719372
endloop
endfacet
facet normal 0 0 0
outer loop
vertex 26.506239 8.765080 8.719372
vertex 26.485764 8.765080 8.719372
vertex 26.506239 8.744328 8.719372
endloop
endfacet
facet normal 0 0 0
outer loop
vertex 26.342432 8.765080 8.719372
vertex 26.342432 8.765080 8.739372
vertex 26.342432 8.785834 8.719372
endloop
endfacet
facet normal 0 0 0
outer loop
vertex 26.342432 8.765080 8.739372
vertex 26.342432 8.785834 8.739372
vertex 26.342432 8.785834 8.719372
endloop
endfacet
facet normal 0 0 0
outer loop
vertex 26.506239 8.785834 8.719372
vertex 26.485764 8.765080 8.739372
vertex 26.506239 8.765080 8.719372
endloop
endfacet
facet normal 0 0 0
outer loop
vertex 26.485764 8.785834 8.739372
vertex 26.485764 8.765080 8.739372
vertex 26.506239 8.785834 8.719372
endloop
endfacet
facet normal 0 0 0
outer loop
vertex 26.321957 8.806587 8.739372
vertex 26.342432 8.806587 8.719372
vertex 26.342432 8.785834 8.739372
endloop
endfacet
facet normal 0 0 0
outer loop
vertex 26.342432 8.806587 8.719372
vertex 26.342432 8.785834 8.719372
vertex 26.342432 8.785834 8.739372
endloop
endfacet
facet normal 0 0 0
outer loop
vertex 26.506239 8.806587 8.719372
vertex 26.485764 8.785834 8.739372
vertex 26.506239 8.785834 8.719372
endloop
endfacet
facet normal 0 0 0
outer loop
vertex 26.485764 8.806587 8.739372
vertex 26.485764 8.785834 8.739372
vertex 26.506239 8.806587 8.719372
endloop
endfacet
facet normal 0 0 0
outer loop
vertex 26.342432 8.806587 8.719372
vertex 26.321957 8.806587 8.739372
vertex 26.342432 8.806587 8.739372
endloop
endfacet
facet normal 0 0 0
outer loop
vertex 26.342432 8.806587 8.739372
vertex 26.362907 8.827341 8.719372
vertex 26.342432 8.806587 8.719372
endloop
endfacet
facet normal 0 0 0
outer loop
vertex 26.362907 8.827341 8.739372
vertex 26.362907 8.827341 8.719372
vertex 26.342432 8.806587 8.739372
endloop
endfacet
facet normal 0 0 0
outer loop
vertex 26.485764 8.827341 8.719372
vertex 26.465286 8.827341 8.739372
vertex 26.485764 8.806587 8.739372
endloop
endfacet
facet normal 0 0 0
outer loop
vertex 26.506239 8.806587 8.719372
vertex 26.485764 8.827341 8.719372
vertex 26.485764 8.806587 8.739372
endloop
endfacet
facet normal 0 0 0
outer loop
vertex 26.362907 8.848094 8.739372
vertex 26.362907 8.827341 8.719372
vertex 26.362907 8.827341 8.739372
endloop
endfacet
facet normal 0 0 0
outer loop
vertex 26.362907 8.827341 8.719372
vertex 26.383385 8.848094 8.739372
vertex 26.383385 8.827341 8.719372
endloop
endfacet
facet normal 0 0 0
outer loop
vertex 26.362907 8.848094 8.739372
vertex 26.383385 8.848094 8.739372
vertex 26.362907 8.827341 8.719372
endloop
endfacet
facet normal 0 0 0
outer loop
vertex 26.383385 8.827341 8.719372
vertex 26.403860 8.848094 8.739372
vertex 26.403860 8.827341 8.719372
endloop
endfacet
facet normal 0 0 0
outer loop
vertex 26.383385 8.848094 8.739372
vertex 26.403860 8.848094 8.739372
vertex 26.383385 8.827341 8.719372
endloop
endfacet
facet normal 0 0 0
outer loop
vertex 26.403860 8.827341 8.719372
vertex 26.424335 8.848094 8.739372
vertex 26.424335 8.827341 8.719372
endloop
endfacet
facet normal 0 0 0
outer loop
vertex 26.403860 8.848094 8.739372
vertex 26.424335 8.848094 8.739372
vertex 26.403860 8.827341 8.719372
endloop
endfacet
facet normal 0 0 0
outer loop
vertex 26.424335 8.848094 8.739372
vertex 26.444811 8.827341 8.739372
vertex 26.424335 8.827341 8.719372
endloop
endfacet
facet normal 0 0 0
outer loop
vertex 26.444811 8.827341 8.739372
vertex 26.444811 8.827341 8.719372
vertex 26.424335 8.827341 8.719372
endloop
endfacet
facet normal 0 0 0
outer loop
vertex 26.465286 8.827341 8.719372
vertex 26.444811 8.827341 8.719372
vertex 26.465286 8.827341 8.739372
endloop
endfacet
facet normal 0 0 0
outer loop
vertex 26.444811 8.827341 8.719372
vertex 26.444811 8.827341 8.739372
vertex 26.465286 8.827341 8.739372
endloop
endfacet
facet normal 0 0 0
outer loop
vertex 26.465286 8.827341 8.739372
vertex 26.485764 8.827341 8.719372
vertex 26.465286 8.827341 8.719372
endloop
endfacet
facet normal 0 0 0
outer loop
vertex 26.362907 8.744328 8.759372
vertex 26.342432 8.744328 8.739372
vertex 26.362907 8.744328 8.739372
endloop
endfacet
facet normal 0 0 0
outer loop
vertex 26.383385 8.744328 8.739372
vertex 26.383385 8.744328 8.759372
vertex 26.362907 8.744328 8.739372
endloop
endfacet
facet normal 0 0 0
outer loop
vertex 26.362907 8.744328 8.739372
vertex 26.383385 8.744328 8.759372
vertex 26.362907 8.744328 8.759372
endloop
endfacet
facet normal 0 0 0
outer loop
vertex 26.403860 8.744328 8.739372
vertex 26.403860 8.744328 8.759372
vertex 26.383385 8.744328 8.739372
endloop
endfacet
facet normal 0 0 0
outer loop
vertex 26.383385 8.744328 8.739372
vertex 26.403860 8.744328 8.759372
vertex 26.383385 8.744328 8.759372
endloop
endfacet
facet normal 0 0 0
outer loop
vertex 26.424335 8.744328 8.739372
vertex 26.424335 8.744328 8.759372
vertex 26.403860 8.744328 8.739372
endloop
endfacet
facet normal 0 0 0
outer loop
vertex 26.403860 8.744328 8.739372
vertex 26.424335 8.744328 8.759372
vertex 26.403860 8.744328 8.759372
endloop
endfacet
facet normal 0 0 0
outer loop
vertex 26.444811 8.744328 8.739372
vertex 26.444811 8.744328 8.759372
vertex 26.424335 8.744328 8.739372
endloop
endfacet
facet normal 0 0 0
outer loop
vertex 26.424335 8.744328 8.739372
vertex 26.444811 8.744328 8.759372
vertex 26.424335 8.744328 8.759372
endloop
endfacet
facet normal 0 0 0
outer loop
vertex 26.465286 8.744328 8.739372
vertex 26.444811 8.744328 8.759372
vertex 26.444811 8.744328 8.739372
endloop
endfacet
facet normal 0 0 0
outer loop
vertex 26.342432 8.744328 8.739372
vertex 26.342432 8.765080 8.759372
vertex 26.342432 8.765080 8.739372
endloop
endfacet
facet normal 0 0 0
outer loop
vertex 26.362907 8.744328 8.759372
vertex 26.342432 8.765080 8.759372
vertex 26.342432 8.744328 8.739372
endloop
endfacet
facet normal 0 0 0
outer loop
vertex 26.465286 8.744328 8.739372
vertex 26.465286 8.765080 8.759372
vertex 26.444811 8.744328 8.759372
endloop
endfacet
facet normal 0 0 0
outer loop
vertex 26.485764 8.744328 8.739372
vertex 26.465286 8.765080 8.759372
vertex 26.465286 8.744328 8.739372
endloop
endfacet
facet normal 0 0 0
outer loop
vertex 26.485764 8.765080 8.759372
vertex 26.465286 8.765080 8.759372
vertex 26.485764 8.744328 8.739372
endloop
endfacet
facet normal 0 0 0
outer loop
vertex 26.485764 8.744328 8.739372
vertex 26.485764 8.765080 8.739372
vertex 26.506239 8.765080 8.759372
endloop
endfacet
facet normal 0 0 0
outer loop
vertex 26.485764 8.744328 8.739372
vertex 26.506239 8.765080 8.759372
vertex 26.485764 8.765080 8.759372
endloop
endfacet
facet normal 0 0 0
outer loop
vertex 26.321957 8.785834 8.759372
vertex 26.342432 8.785834 8.739372
vertex 26.342432 8.765080 8.759372
endloop
endfacet
facet normal 0 0 0
outer loop
vertex 26.342432 8.785834 8.739372
vertex 26.342432 8.765080 8.739372
vertex 26.342432 8.765080 8.759372
endloop
endfacet
facet normal 0 0 0
outer loop
vertex 26.506239 8.765080 8.759372
vertex 26.485764 8.765080 8.739372
vertex 26.485764 8.785834 8.759372
endloop
endfacet
facet normal 0 0 0
outer loop
vertex 26.485764 8.765080 8.739372
vertex 26.485764 8.785834 8.739372
vertex 26.485764 8.785834 8.759372
endloop
endfacet
facet normal 0 0 0
outer loop
vertex 26.321957 8.785834 8.759372
vertex 26.342432 8.806587 8.759372
vertex 26.342432 8.785834 8.739372
endloop
endfacet
facet normal 0 0 0
outer loop
vertex 26.321957 8.806587 8.739372
vertex 26.342432 8.785834 8.739372
vertex 26.342432 8.806587 8.759372
endloop
endfacet
facet normal 0 0 0
outer loop
vertex 26.506239 8.806587 8.759372
vertex 26.485764 8.785834 8.759372
vertex 26.485764 8.806587 8.739372
endloop
endfacet
facet normal 0 0 0
outer loop
vertex 26.485764 8.785834 8.759372
vertex 26.485764 8.785834 8.739372
vertex 26.485764 8.806587 8.739372
endloop
endfacet
facet normal 0 0 0
outer loop
vertex 26.321957 8.806587 8.739372
vertex 26.342432 8.827341 8.759372
vertex 26.342432 8.806587 8.739372
endloop
endfacet
facet normal 0 0 0
outer loop
vertex 26.321957 8.806587 8.739372
vertex 26.342432 8.806587 8.759372
vertex 26.342432 8.827341 8.759372
endloop
endfacet
facet normal 0 0 0
outer loop
vertex 26.342432 8.806587 8.739372
vertex 26.342432 8.827341 8.759372
vertex 26.362907 8.827341 8.739372
endloop
endfacet
facet normal 0 0 0
outer loop
vertex 26.485764 8.806587 8.739372
vertex 26.465286 8.827341 8.739372
vertex 26.485764 8.827341 8.759372
endloop
endfacet
facet normal 0 0 0
outer loop
vertex 26.485764 8.806587 8.739372
vertex 26.485764 8.827341 8.759372
vertex 26.506239 8.806587 8.759372
endloop
endfacet
facet normal 0 0 0
outer loop
vertex 26.362907 8.827341 8.739372
vertex 26.342432 8.848094 8.759372
vertex 26.362907 8.848094 8.739372
endloop
endfacet
facet normal 0 0 0
outer loop
vertex 26.342432 8.827341 8.759372
vertex 26.342432 8.848094 8.759372
vertex 26.362907 8.827341 8.739372
endloop
endfacet
facet normal 0 0 0
outer loop
vertex 26.444811 8.827341 8.739372
vertex 26.424335 8.848094 8.739372
vertex 26.444811 8.848094 8.759372
endloop
endfacet
facet normal 0 0 0
outer loop
vertex 26.444811 8.827341 8.739372
vertex 26.465286 8.848094 8.759372
vertex 26.465286 8.827341 8.739372
endloop
endfacet
facet normal 0 0 0
outer loop
vertex 26.444811 8.848094 8.759372
vertex 26.465286 8.848094 8.759372
vertex 26.444811 8.827341 8.739372
endloop
endfacet
facet normal 0 0 0
outer loop
vertex 26.465286 8.827341 8.739372
vertex 26.465286 8.848094 8.759372
vertex 26.485764 8.827341 8.759372
endloop
endfacet
facet normal 0 0 0
outer loop
vertex 26.362907 8.848094 8.739372
vertex 26.342432 8.848094 8.759372
vertex 26.362907 8.848094 8.759372
endloop
endfacet
facet normal 0 0 0
outer loop
vertex 26.383385 8.848094 8.739372
vertex 26.362907 8.848094 8.739372
vertex 26.383385 8.848094 8.759372
endloop
endfacet
facet normal 0 0 0
outer loop
vertex 26.362907 8.848094 8.739372
vertex 26.362907 8.848094 8.759372
vertex 26.383385 8.848094 8.759372
endloop
endfacet
facet normal 0 0 0
outer loop
vertex 26.403860 8.848094 8.739372
vertex 26.383385 8.848094 8.739372
vertex 26.403860 8.848094 8.759372
endloop
endfacet
facet normal 0 0 0
outer loop
vertex 26.383385 8.848094 8.739372
vertex 26.383385 8.848094 8.759372
vertex 26.403860 8.848094 8.759372
endloop
endfacet
facet normal 0 0 0
outer loop
vertex 26.424335 8.848094 8.739372
vertex 26.403860 8.848094 8.739372
vertex 26.424335 8.848094 8.759372
endloop
endfacet
facet normal 0 0 0
outer loop
vertex 26.403860 8.848094 8.739372
vertex 26.403860 8.848094 8.759372
vertex 26.424335 8.848094 8.759372
endloop
endfacet
facet normal 0 0 0
outer loop
vertex 26.444811 8.848094 8.759372
vertex 26.424335 8.848094 8.739372
vertex 26.424335 8.848094 8.759372
endloop
endfacet
facet normal 0 0 0
outer loop
vertex 26.383385 8.744328 8.779371
vertex 26.362907 8.744328 8.759372
vertex 26.383385 8.744328 8.759372
endloop
endfacet
facet normal 0 0 0
outer loop
vertex 26.403860 8.744328 8.759372
vertex 26.383385 8.744328 8.779371
vertex 26.383385 8.744328 8.759372
endloop
endfacet
facet normal 0 0 0
outer loop
vertex 26.424335 8.744328 8.779371
vertex 26.403860 8.744328 8.759372
vertex 26.424335 8.744328 8.759372
endloop
endfacet
facet normal 0 0 0
outer loop
vertex 26.444811 8.744328 8.759372
vertex 26.424335 8.744328 8.779371
vertex 26.424335 8.744328 8.759372
endloop
endfacet
facet normal 0 0 0
outer loop
vertex 26.362907 8.744328 8.759372
vertex 26.362907 8.765080 8.779371
vertex 26.342432 8.765080 8.759372
endloop
endfacet
facet normal 0 0 0
outer loop
vertex 26.383385 8.744328 8.779371
vertex 26.362907 8.765080 8.779371
vertex 26.362907 8.744328 8.759372
endloop
endfacet
facet normal 0 0 0
outer loop
vertex 26.403860 8.744328 8.759372
vertex 26.403860 8.765080 8.779371
vertex 26.383385 8.744328 8.779371
endloop
endfacet
facet normal 0 0 0
outer loop
vertex 26.424335 8.744328 8.779371
vertex 26.403860 8.765080 8.779371
vertex 26.403860 8.744328 8.759372
endloop
endfacet
facet normal 0 0 0
outer loop
vertex 26.444811 8.744328 8.759372
vertex 26.444811 8.765080 8.779371
vertex 26.424335 8.744328 8.779371
endloop
endfacet
facet normal 0 0 0
outer loop
vertex 26.444811 8.744328 8.759372
vertex 26.465286 8.765080 8.759372
vertex 26.444811 8.765080 8.779371
endloop
endfacet
facet normal 0 0 0
outer loop
vertex 26.465286 8.765080 8.759372
vertex 26.465286 8.765080 8.779371
vertex 26.444811 8.765080 8.779371
endloop
endfacet
facet normal 0 0 0
outer loop
vertex 26.485764 8.765080 8.759372
vertex 26.465286 8.765080 8.779371
vertex 26.465286 8.765080 8.759372
endloop
endfacet
facet normal 0 0 0
outer loop
vertex 26.321957 8.785834 8.759372
vertex 26.342432 8.765080 8.759372
vertex 26.342432 8.785834 8.759372
endloop
endfacet
facet normal 0 0 0
outer loop
vertex 26.362907 8.785834 8.779371
vertex 26.342432 8.765080 8.759372
vertex 26.362907 8.765080 8.779371
endloop
endfacet
facet normal 0 0 0
outer loop
vertex 26.342432 8.785834 8.759372
vertex 26.342432 8.765080 8.759372
vertex 26.362907 8.785834 8.779371
endloop
endfacet
facet normal 0 0 0
outer loop
vertex 26.485764 8.765080 8.759372
vertex 26.485764 8.785834 8.779371
vertex 26.465286 8.765080 8.779371
endloop
endfacet
facet normal 0 0 0
outer loop
vertex 26.506239 8.765080 8.759372
vertex 26.485764 8.785834 8.759372
vertex 26.485764 8.785834 8.779371
endloop
endfacet
facet normal 0 0 0
outer loop
vertex 26.506239 8.765080 8.759372
vertex 26.485764 8.785834 8.779371
vertex 26.485764 8.765080 8.759372
endloop
endfacet
facet normal 0 0 0
outer loop
vertex 26.342432 8.806587 8.759372
vertex 26.321957 8.785834 8.759372
vertex 26.342432 8.785834 8.759372
endloop
endfacet
facet normal 0 0 0
outer loop
vertex 26.362907 8.806587 8.779371
vertex 26.342432 8.785834 8.759372
vertex 26.362907 8.785834 8.779371
endloop
endfacet
facet normal 0 0 0
outer loop
vertex 26.342432 8.806587 8.759372
vertex 26.342432 8.785834 8.759372
vertex 26.362907 8.806587 8.779371
endloop
endfacet
facet normal 0 0 0
outer loop
vertex 26.506239 8.806587 8.759372
vertex 26.485764 8.806587 8.779371
vertex 26.485764 8.785834 8.759372
endloop
endfacet
facet normal 0 0 0
outer loop
vertex 26.485764 8.806587 8.779371
vertex 26.485764 8.785834 8.779371
vertex 26.485764 8.785834 8.759372
endloop
endfacet
facet normal 0 0 0
outer loop
vertex 26.362907 8.827341 8.779371
vertex 26.342432 8.806587 8.759372
vertex 26.362907 8.806587 8.779371
endloop
endfacet
facet normal 0 0 0
outer loop
vertex 26.342432 8.827341 8.759372
vertex 26.342432 8.806587 8.759372
vertex 26.362907 8.827341 8.779371
endloop
endfacet
facet normal 0 0 0
outer loop
vertex 26.506239 8.806587 8.759372
vertex 26.485764 8.827341 8.759372
vertex 26.485764 8.806587 8.779371
endloop
endfacet
facet normal 0 0 0
outer loop
vertex 26.485764 8.827341 8.759372
vertex 26.485764 8.827341 8.779371
vertex 26.485764 8.806587 8.779371
endloop
endfacet
facet normal 0 0 0
outer loop
vertex 26.362907 8.848094 8.779371
vertex 26.342432 8.827341 8.759372
vertex 26.362907 8.827341 8.779371
endloop
endfacet
facet normal 0 0 0
outer loop
vertex 26.342432 8.848094 8.759372
vertex 26.342432 8.827341 8.759372
vertex 26.362907 8.848094 8.779371
endloop
endfacet
facet normal 0 0 0
outer loop
vertex 26.465286 8.848094 8.759372
vertex 26.444811 8.848094 8.779371
vertex 26.465286 8.827341 8.779371
endloop
endfacet
facet normal 0 0 0
outer loop
vertex 26.465286 8.848094 8.759372
vertex 26.465286 8.827341 8.779371
vertex 26.485764 8.827341 8.759372
endloop
endfacet
facet normal 0 0 0
outer loop
vertex 26.465286 8.827341 8.779371
vertex 26.485764 8.827341 8.779371
vertex 26.485764 8.827341 8.759372
endloop
endfacet
facet normal 0 0 0
outer loop
vertex 26.342432 8.848094 8.759372
vertex 26.362907 8.848094 8.779371
vertex 26.362907 8.848094 8.759372
endloop
endfacet
facet normal 0 0 0
outer loop
vertex 26.383385 8.848094 8.759372
vertex 26.362907 8.848094 8.759372
vertex 26.383385 8.848094 8.779371
endloop
endfacet
facet normal 0 0 0
outer loop
vertex 26.362907 8.848094 8.759372
vertex 26.362907 8.848094 8.779371
vertex 26.383385 8.848094 8.779371
endloop
endfacet
facet normal 0 0 0
outer loop
vertex 26.403860 8.848094 8.759372
vertex 26.383385 8.848094 8.759372
vertex 26.403860 8.848094 8.779371
endloop
endfacet
facet normal 0 0 0
outer loop
vertex 26.383385 8.848094 8.759372
vertex 26.383385 8.848094 8.779371
vertex 26.403860 8.848094 8.779371
endloop
endfacet
facet normal 0 0 0
outer loop
vertex 26.424335 8.848094 8.759372
vertex 26.403860 8.848094 8.759372
vertex 26.424335 8.848094 8.779371
endloop
endfacet
facet normal 0 0 0
outer loop
vertex 26.403860 8.848094 8.759372
vertex 26.403860 8.848094 8.779371
vertex 26.424335 8.848094 8.779371
endloop
endfacet
facet normal 0 0 0
outer loop
vertex 26.444811 8.848094 8.759372
vertex 26.424335 8.848094 8.759372
vertex 26.444811 8.848094 8.779371
endloop
endfacet
facet normal 0 0 0
outer loop
vertex 26.424335 8.848094 8.759372
vertex 26.424335 8.848094 8.779371
vertex 26.444811 8.848094 8.779371
endloop
endfacet
facet normal 0 0 0
outer loop
vertex 26.444811 8.848094 8.779371
vertex 26.465286 8.848094 8.759372
vertex 26.444811 8.848094 8.759372
endloop
endfacet
facet normal 0 0 0
outer loop
vertex 26.362907 8.765080 8.779371
vertex 26.383385 8.744328 8.779371
vertex 26.383385 8.765080 8.779371
endloop
endfacet
facet normal 0 0 0
outer loop
vertex 26.383385 8.744328 8.779371
vertex 26.403860 8.765080 8.779371
vertex 26.383385 8.765080 8.779371
endloop
endfacet
facet normal 0 0 0
outer loop
vertex 26.403860 8.765080 8.779371
vertex 26.424335 8.744328 8.779371
vertex 26.424335 8.765080 8.779371
endloop
endfacet
facet normal 0 0 0
outer loop
vertex 26.424335 8.744328 8.779371
vertex 26.444811 8.765080 8.779371
vertex 26.424335 8.765080 8.779371
endloop
endfacet
facet normal 0 0 0
outer loop
vertex 26.383385 8.785834 8.799372
vertex 26.362907 8.785834 8.779371
vertex 26.383385 8.765080 8.779371
endloop
endfacet
facet normal 0 0 0
outer loop
vertex 26.362907 8.785834 8.779371
vertex 26.362907 8.765080 8.779371
vertex 26.383385 8.765080 8.779371
endloop
endfacet
facet normal 0 0 0
outer loop
vertex 26.403860 8.765080 8.779371
vertex 26.383385 8.785834 8.799372
vertex 26.383385 8.765080 8.779371
endloop
endfacet
facet normal 0 0 0
outer loop
vertex 26.403860 8.785834 8.799372
vertex 26.383385 8.785834 8.799372
vertex 26.403860 8.765080 8.779371
endloop
endfacet
facet normal 0 0 0
outer loop
vertex 26.424335 8.765080 8.779371
vertex 26.403860 8.785834 8.799372
vertex 26.403860 8.765080 8.779371
endloop
endfacet
facet normal 0 0 0
outer loop
vertex 26.424335 8.785834 8.799372
vertex 26.403860 8.785834 8.799372
vertex 26.424335 8.765080 8.779371
endloop
endfacet
facet normal 0 0 0
outer loop
vertex 26.424335 8.785834 8.799372
vertex 26.424335 8.765080 8.779371
vertex 26.444811 8.785834 8.779371
endloop
endfacet
facet normal 0 0 0
outer loop
vertex 26.424335 8.765080 8.779371
vertex 26.444811 8.765080 8.779371
vertex 26.444811 8.785834 8.779371
endloop
endfacet
facet normal 0 0 0
outer loop
vertex 26.465286 8.765080 8.779371
vertex 26.465286 8.785834 8.779371
vertex 26.444811 8.765080 8.779371
endloop
endfacet
facet normal 0 0 0
outer loop
vertex 26.465286 8.785834 8.779371
vertex 26.444811 8.785834 8.779371
vertex 26.444811 8.765080 8.779371
endloop
endfacet
facet normal 0 0 0
outer loop
vertex 26.465286 8.765080 8.779371
vertex 26.485764 8.785834 8.779371
vertex 26.465286 8.785834 8.779371
endloop
endfacet
facet normal 0 0 0
outer loop
vertex 26.383385 8.785834 8.799372
vertex 26.383385 8.806587 8.779371
vertex 26.362907 8.785834 8.779371
endloop
endfacet
facet normal 0 0 0
outer loop
vertex 26.383385 8.806587 8.779371
vertex 26.362907 8.806587 8.779371
vertex 26.362907 8.785834 8.779371
endloop
endfacet
facet normal 0 0 0
outer loop
vertex 26.383385 8.806587 8.779371
vertex 26.403860 8.785834 8.799372
vertex 26.403860 8.806587 8.779371
endloop
endfacet
facet normal 0 0 0
outer loop
vertex 26.383385 8.785834 8.799372
vertex 26.403860 8.785834 8.799372
vertex 26.383385 8.806587 8.779371
endloop
endfacet
facet normal 0 0 0
outer loop
vertex 26.403860 8.806587 8.779371
vertex 26.424335 8.785834 8.799372
vertex 26.424335 8.806587 8.779371
endloop
endfacet
facet normal 0 0 0
outer loop
vertex 26.403860 8.785834 8.799372
vertex 26.424335 8.785834 8.799372
vertex 26.403860 8.806587 8.779371
endloop
endfacet
facet normal 0 0 0
outer loop
vertex 26.424335 8.785834 8.799372
vertex 26.444811 8.785834 8.779371
vertex 26.424335 8.806587 8.779371
endloop
endfacet
facet normal 0 0 0
outer loop
vertex 26.444811 8.785834 8.779371
vertex 26.444811 8.806587 8.779371
vertex 26.424335 8.806587 8.779371
endloop
endfacet
facet normal 0 0 0
outer loop
vertex 26.465286 8.785834 8.779371
vertex 26.465286 8.806587 8.779371
vertex 26.444811 8.785834 8.779371
endloop
endfacet
facet normal 0 0 0
outer loop
vertex 26.465286 8.806587 8.779371
vertex 26.444811 8.806587 8.779371
vertex 26.444811 8.785834 8.779371
endloop
endfacet
facet normal 0 0 0
outer loop
vertex 26.485764 8.785834 8.779371
vertex 26.485764 8.806587 8.779371
vertex 26.465286 8.785834 8.779371
endloop
endfacet
facet normal 0 0 0
outer loop
vertex 26.485764 8.806587 8.779371
vertex 26.465286 8.806587 8.779371
vertex 26.465286 8.785834 8.779371
endloop
endfacet
facet normal 0 0 0
outer loop
vertex 26.383385 8.806587 8.779371
vertex 26.383385 8.827341 8.779371
vertex 26.362907 8.806587 8.779371
endloop
endfacet
facet normal 0 0 0
outer loop
vertex 26.383385 8.827341 8.779371
vertex 26.362907 8.827341 8.779371
vertex 26.362907 8.806587 8.779371
endloop
endfacet
facet normal 0 0 0
outer loop
vertex 26.403860 8.806587 8.779371
vertex 26.403860 8.827341 8.779371
vertex 26.383385 8.806587 8.779371
endloop
endfacet
facet normal 0 0 0
outer loop
vertex 26.403860 8.827341 8.779371
vertex 26.383385 8.827341 8.779371
vertex 26.383385 8.806587 8.779371
endloop
endfacet
facet normal 0 0 0
outer loop
vertex 26.424335 8.806587 8.779371
vertex 26.424335 8.827341 8.779371
vertex 26.403860 8.806587 8.779371
endloop
endfacet
facet normal 0 0 0
outer loop
vertex 26.424335 8.827341 8.779371
vertex 26.403860 8.827341 8.779371
vertex 26.403860 8.806587 8.779371
endloop
endfacet
facet normal 0 0 0
outer loop
vertex 26.444811 8.806587 8.779371
vertex 26.444811 8.827341 8.779371
vertex 26.424335 8.806587 8.779371
endloop
endfacet
facet normal 0 0 0
outer loop
vertex 26.444811 8.827341 8.779371
vertex 26.424335 8.827341 8.779371
vertex 26.424335 8.806587 8.779371
endloop
endfacet
facet normal 0 0 0
outer loop
vertex 26.465286 8.806587 8.779371
vertex 26.465286 8.827341 8.779371
vertex 26.444811 8.806587 8.779371
endloop
endfacet
facet normal 0 0 0
outer loop
vertex 26.465286 8.827341 8.779371
vertex 26.444811 8.827341 8.779371
vertex 26.444811 8.806587 8.779371
endloop
endfacet
facet normal 0 0 0
outer loop
vertex 26.485764 8.806587 8.779371
vertex 26.485764 8.827341 8.779371
vertex 26.465286 8.806587 8.779371
endloop
endfacet
facet normal 0 0 0
outer loop
vertex 26.485764 8.827341 8.779371
vertex 26.465286 8.827341 8.779371
vertex 26.465286 8.806587 8.779371
endloop
endfacet
facet normal 0 0 0
outer loop
vertex 26.383385 8.827341 8.779371
vertex 26.383385 8.848094 8.779371
vertex 26.362907 8.827341 8.779371
endloop
endfacet
facet normal 0 0 0
outer loop
vertex 26.383385 8.848094 8.779371
vertex 26.362907 8.848094 8.779371
vertex 26.362907 8.827341 8.779371
endloop
endfacet
facet normal 0 0 0
outer loop
vertex 26.403860 8.827341 8.779371
vertex 26.403860 8.848094 8.779371
vertex 26.383385 8.827341 8.779371
endloop
endfacet
facet normal 0 0 0
outer loop
vertex 26.403860 8.848094 8.779371
vertex 26.383385 8.848094 8.779371
vertex 26.383385 8.827341 8.779371
endloop
endfacet
facet normal 0 0 0
outer loop
vertex 26.424335 8.827341 8.779371
vertex 26.424335 8.848094 8.779371
vertex 26.403860 8.827341 8.779371
endloop
endfacet
facet normal 0 0 0
outer loop
vertex 26.424335 8.848094 8.779371
vertex 26.403860 8.848094 8.779371
vertex 26.403860 8.827341 8.779371
endloop
endfacet
facet normal 0 0 0
outer loop
vertex 26.444811 8.827341 8.779371
vertex 26.444811 8.848094 8.779371
vertex 26.424335 8.827341 8.779371
endloop
endfacet
facet normal 0 0 0
outer loop
vertex 26.444811 8.848094 8.779371
vertex 26.424335 8.848094 8.779371
vertex 26.424335 8.827341 8.779371
endloop
endfacet
facet normal 0 0 0
outer loop
vertex 26.465286 8.827341 8.779371
vertex 26.444811 8.848094 8.779371
vertex 26.444811 8.827341 8.779371
endloop
endfacet
endsolid B-16-Plag.183
