solid B-16-Plag.088
facet normal 0 0 0
outer loop
vertex 1.955755 8.370768 5.879372
vertex 1.935279 8.370768 5.879372
vertex 1.955755 8.391521 5.879372
endloop
endfacet
facet normal 0 0 0
outer loop
vertex 1.955755 8.391521 5.879372
vertex 1.935279 8.370768 5.879372
vertex 1.935279 8.391521 5.879372
endloop
endfacet
facet normal 0 0 0
outer loop
vertex 1.976231 8.370768 5.879372
vertex 1.955755 8.370768 5.879372
vertex 1.976231 8.391521 5.879372
endloop
endfacet
facet normal 0 0 0
outer loop
vertex 1.976231 8.391521 5.879372
vertex 1.955755 8.370768 5.879372
vertex 1.955755 8.391521 5.879372
endloop
endfacet
facet normal 0 0 0
outer loop
vertex 1.996706 8.370768 5.879372
vertex 1.976231 8.370768 5.879372
vertex 1.996706 8.391521 5.879372
endloop
endfacet
facet normal 0 0 0
outer loop
vertex 1.996706 8.391521 5.879372
vertex 1.976231 8.370768 5.879372
vertex 1.976231 8.391521 5.879372
endloop
endfacet
facet normal 0 0 0
outer loop
vertex 2.017182 8.391521 5.879372
vertex 1.996706 8.370768 5.879372
vertex 1.996706 8.391521 5.879372
endloop
endfacet
facet normal 0 0 0
outer loop
vertex 1.935279 8.391521 5.879372
vertex 1.914803 8.412274 5.879372
vertex 1.935279 8.412274 5.879372
endloop
endfacet
facet normal 0 0 0
outer loop
vertex 1.955755 8.391521 5.879372
vertex 1.935279 8.391521 5.879372
vertex 1.955755 8.412274 5.879372
endloop
endfacet
facet normal 0 0 0
outer loop
vertex 1.955755 8.412274 5.879372
vertex 1.935279 8.391521 5.879372
vertex 1.935279 8.412274 5.879372
endloop
endfacet
facet normal 0 0 0
outer loop
vertex 1.976231 8.391521 5.879372
vertex 1.955755 8.391521 5.879372
vertex 1.976231 8.412274 5.879372
endloop
endfacet
facet normal 0 0 0
outer loop
vertex 1.976231 8.412274 5.879372
vertex 1.955755 8.391521 5.879372
vertex 1.955755 8.412274 5.879372
endloop
endfacet
facet normal 0 0 0
outer loop
vertex 1.996706 8.391521 5.879372
vertex 1.976231 8.391521 5.879372
vertex 1.996706 8.412274 5.879372
endloop
endfacet
facet normal 0 0 0
outer loop
vertex 1.996706 8.412274 5.879372
vertex 1.976231 8.391521 5.879372
vertex 1.976231 8.412274 5.879372
endloop
endfacet
facet normal 0 0 0
outer loop
vertex 2.017182 8.391521 5.879372
vertex 1.996706 8.391521 5.879372
vertex 2.017182 8.412274 5.879372
endloop
endfacet
facet normal 0 0 0
outer loop
vertex 2.017182 8.412274 5.879372
vertex 1.996706 8.391521 5.879372
vertex 1.996706 8.412274 5.879372
endloop
endfacet
facet normal 0 0 0
outer loop
vertex 1.935279 8.412274 5.879372
vertex 1.914803 8.412274 5.879372
vertex 1.935279 8.433027 5.879372
endloop
endfacet
facet normal 0 0 0
outer loop
vertex 1.935279 8.433027 5.879372
vertex 1.914803 8.412274 5.879372
vertex 1.914803 8.433027 5.879372
endloop
endfacet
facet normal 0 0 0
outer loop
vertex 1.955755 8.412274 5.879372
vertex 1.935279 8.412274 5.879372
vertex 1.955755 8.433027 5.879372
endloop
endfacet
facet normal 0 0 0
outer loop
vertex 1.955755 8.433027 5.879372
vertex 1.935279 8.412274 5.879372
vertex 1.935279 8.433027 5.879372
endloop
endfacet
facet normal 0 0 0
outer loop
vertex 1.976231 8.412274 5.879372
vertex 1.955755 8.412274 5.879372
vertex 1.976231 8.433027 5.879372
endloop
endfacet
facet normal 0 0 0
outer loop
vertex 1.976231 8.433027 5.879372
vertex 1.955755 8.412274 5.879372
vertex 1.955755 8.433027 5.879372
endloop
endfacet
facet normal 0 0 0
outer loop
vertex 1.996706 8.412274 5.879372
vertex 1.976231 8.412274 5.879372
vertex 1.996706 8.433027 5.879372
endloop
endfacet
facet normal 0 0 0
outer loop
vertex 1.996706 8.433027 5.879372
vertex 1.976231 8.412274 5.879372
vertex 1.976231 8.433027 5.879372
endloop
endfacet
facet normal 0 0 0
outer loop
vertex 2.017182 8.412274 5.879372
vertex 1.996706 8.412274 5.879372
vertex 2.017182 8.433027 5.879372
endloop
endfacet
facet normal 0 0 0
outer loop
vertex 2.017182 8.433027 5.879372
vertex 1.996706 8.412274 5.879372
vertex 1.996706 8.433027 5.879372
endloop
endfacet
facet normal 0 0 0
outer loop
vertex 2.037658 8.433027 5.879372
vertex 2.017182 8.412274 5.879372
vertex 2.017182 8.433027 5.879372
endloop
endfacet
facet normal 0 0 0
outer loop
vertex 1.914803 8.433027 5.879372
vertex 1.935279 8.453781 5.879372
vertex 1.935279 8.433027 5.879372
endloop
endfacet
facet normal 0 0 0
outer loop
vertex 1.955755 8.433027 5.879372
vertex 1.935279 8.433027 5.879372
vertex 1.955755 8.453781 5.879372
endloop
endfacet
facet normal 0 0 0
outer loop
vertex 1.955755 8.453781 5.879372
vertex 1.935279 8.433027 5.879372
vertex 1.935279 8.453781 5.879372
endloop
endfacet
facet normal 0 0 0
outer loop
vertex 1.976231 8.433027 5.879372
vertex 1.955755 8.433027 5.879372
vertex 1.976231 8.453781 5.879372
endloop
endfacet
facet normal 0 0 0
outer loop
vertex 1.976231 8.453781 5.879372
vertex 1.955755 8.433027 5.879372
vertex 1.955755 8.453781 5.879372
endloop
endfacet
facet normal 0 0 0
outer loop
vertex 1.996706 8.433027 5.879372
vertex 1.976231 8.433027 5.879372
vertex 1.996706 8.453781 5.879372
endloop
endfacet
facet normal 0 0 0
outer loop
vertex 1.996706 8.453781 5.879372
vertex 1.976231 8.433027 5.879372
vertex 1.976231 8.453781 5.879372
endloop
endfacet
facet normal 0 0 0
outer loop
vertex 2.017182 8.433027 5.879372
vertex 1.996706 8.433027 5.879372
vertex 2.017182 8.453781 5.879372
endloop
endfacet
facet normal 0 0 0
outer loop
vertex 2.017182 8.453781 5.879372
vertex 1.996706 8.433027 5.879372
vertex 1.996706 8.453781 5.879372
endloop
endfacet
facet normal 0 0 0
outer loop
vertex 2.017182 8.453781 5.879372
vertex 2.037658 8.433027 5.879372
vertex 2.017182 8.433027 5.879372
endloop
endfacet
facet normal 0 0 0
outer loop
vertex 1.955755 8.453781 5.879372
vertex 1.976231 8.474534 5.879372
vertex 1.976231 8.453781 5.879372
endloop
endfacet
facet normal 0 0 0
outer loop
vertex 1.976231 8.474534 5.879372
vertex 1.996706 8.453781 5.879372
vertex 1.976231 8.453781 5.879372
endloop
endfacet
facet normal 0 0 0
outer loop
vertex 1.935279 8.370768 5.879372
vertex 1.935279 8.391521 5.899372
vertex 1.914803 8.391521 5.899372
endloop
endfacet
facet normal 0 0 0
outer loop
vertex 1.935279 8.370768 5.879372
vertex 1.914803 8.391521 5.899372
vertex 1.935279 8.391521 5.879372
endloop
endfacet
facet normal 0 0 0
outer loop
vertex 1.955755 8.370768 5.879372
vertex 1.935279 8.391521 5.899372
vertex 1.935279 8.370768 5.879372
endloop
endfacet
facet normal 0 0 0
outer loop
vertex 1.955755 8.391521 5.899372
vertex 1.935279 8.391521 5.899372
vertex 1.955755 8.370768 5.879372
endloop
endfacet
facet normal 0 0 0
outer loop
vertex 1.976231 8.370768 5.879372
vertex 1.955755 8.391521 5.899372
vertex 1.955755 8.370768 5.879372
endloop
endfacet
facet normal 0 0 0
outer loop
vertex 1.976231 8.391521 5.899372
vertex 1.955755 8.391521 5.899372
vertex 1.976231 8.370768 5.879372
endloop
endfacet
facet normal 0 0 0
outer loop
vertex 1.996706 8.370768 5.879372
vertex 1.976231 8.391521 5.899372
vertex 1.976231 8.370768 5.879372
endloop
endfacet
facet normal 0 0 0
outer loop
vertex 1.996706 8.391521 5.899372
vertex 1.976231 8.391521 5.899372
vertex 1.996706 8.370768 5.879372
endloop
endfacet
facet normal 0 0 0
outer loop
vertex 2.017182 8.391521 5.879372
vertex 1.996706 8.391521 5.899372
vertex 1.996706 8.370768 5.879372
endloop
endfacet
facet normal 0 0 0
outer loop
vertex 1.914803 8.412274 5.879372
vertex 1.914803 8.391521 5.899372
vertex 1.914803 8.412274 5.899372
endloop
endfacet
facet normal 0 0 0
outer loop
vertex 1.935279 8.391521 5.879372
vertex 1.914803 8.391521 5.899372
vertex 1.914803 8.412274 5.879372
endloop
endfacet
facet normal 0 0 0
outer loop
vertex 2.017182 8.412274 5.879372
vertex 1.996706 8.391521 5.899372
vertex 2.017182 8.391521 5.879372
endloop
endfacet
facet normal 0 0 0
outer loop
vertex 1.996706 8.412274 5.899372
vertex 1.996706 8.391521 5.899372
vertex 2.017182 8.412274 5.879372
endloop
endfacet
facet normal 0 0 0
outer loop
vertex 1.894328 8.433027 5.899372
vertex 1.914803 8.433027 5.879372
vertex 1.914803 8.412274 5.899372
endloop
endfacet
facet normal 0 0 0
outer loop
vertex 1.914803 8.433027 5.879372
vertex 1.914803 8.412274 5.879372
vertex 1.914803 8.412274 5.899372
endloop
endfacet
facet normal 0 0 0
outer loop
vertex 2.017182 8.412274 5.879372
vertex 2.017182 8.433027 5.899372
vertex 1.996706 8.412274 5.899372
endloop
endfacet
facet normal 0 0 0
outer loop
vertex 2.037658 8.433027 5.879372
vertex 2.017182 8.433027 5.899372
vertex 2.017182 8.412274 5.879372
endloop
endfacet
facet normal 0 0 0
outer loop
vertex 1.914803 8.433027 5.879372
vertex 1.894328 8.433027 5.899372
vertex 1.914803 8.453781 5.899372
endloop
endfacet
facet normal 0 0 0
outer loop
vertex 1.914803 8.433027 5.879372
vertex 1.914803 8.453781 5.899372
vertex 1.935279 8.453781 5.879372
endloop
endfacet
facet normal 0 0 0
outer loop
vertex 2.037658 8.433027 5.879372
vertex 2.017182 8.453781 5.879372
vertex 2.017182 8.433027 5.899372
endloop
endfacet
facet normal 0 0 0
outer loop
vertex 2.017182 8.453781 5.879372
vertex 2.017182 8.453781 5.899372
vertex 2.017182 8.433027 5.899372
endloop
endfacet
facet normal 0 0 0
outer loop
vertex 1.914803 8.453781 5.899372
vertex 1.894328 8.453781 5.899372
vertex 1.914803 8.474534 5.899372
endloop
endfacet
facet normal 0 0 0
outer loop
vertex 1.914803 8.474534 5.899372
vertex 1.894328 8.453781 5.899372
vertex 1.894328 8.474534 5.899372
endloop
endfacet
facet normal 0 0 0
outer loop
vertex 1.935279 8.453781 5.879372
vertex 1.914803 8.453781 5.899372
vertex 1.935279 8.474534 5.899372
endloop
endfacet
facet normal 0 0 0
outer loop
vertex 1.914803 8.453781 5.899372
vertex 1.914803 8.474534 5.899372
vertex 1.935279 8.474534 5.899372
endloop
endfacet
facet normal 0 0 0
outer loop
vertex 1.935279 8.453781 5.879372
vertex 1.955755 8.474534 5.899372
vertex 1.955755 8.453781 5.879372
endloop
endfacet
facet normal 0 0 0
outer loop
vertex 1.935279 8.474534 5.899372
vertex 1.955755 8.474534 5.899372
vertex 1.935279 8.453781 5.879372
endloop
endfacet
facet normal 0 0 0
outer loop
vertex 1.955755 8.453781 5.879372
vertex 1.955755 8.474534 5.899372
vertex 1.976231 8.474534 5.879372
endloop
endfacet
facet normal 0 0 0
outer loop
vertex 1.996706 8.453781 5.879372
vertex 1.976231 8.474534 5.879372
vertex 1.996706 8.474534 5.899372
endloop
endfacet
facet normal 0 0 0
outer loop
vertex 1.996706 8.453781 5.879372
vertex 2.017182 8.474534 5.899372
vertex 2.017182 8.453781 5.879372
endloop
endfacet
facet normal 0 0 0
outer loop
vertex 1.996706 8.474534 5.899372
vertex 2.017182 8.474534 5.899372
vertex 1.996706 8.453781 5.879372
endloop
endfacet
facet normal 0 0 0
outer loop
vertex 2.017182 8.453781 5.879372
vertex 2.017182 8.474534 5.899372
vertex 2.017182 8.453781 5.899372
endloop
endfacet
facet normal 0 0 0
outer loop
vertex 1.914803 8.474534 5.899372
vertex 1.894328 8.474534 5.899372
vertex 1.914803 8.495288 5.899372
endloop
endfacet
facet normal 0 0 0
outer loop
vertex 1.914803 8.495288 5.899372
vertex 1.894328 8.474534 5.899372
vertex 1.894328 8.495288 5.899372
endloop
endfacet
facet normal 0 0 0
outer loop
vertex 1.935279 8.474534 5.899372
vertex 1.914803 8.474534 5.899372
vertex 1.935279 8.495288 5.899372
endloop
endfacet
facet normal 0 0 0
outer loop
vertex 1.935279 8.495288 5.899372
vertex 1.914803 8.474534 5.899372
vertex 1.914803 8.495288 5.899372
endloop
endfacet
facet normal 0 0 0
outer loop
vertex 1.955755 8.474534 5.899372
vertex 1.935279 8.474534 5.899372
vertex 1.955755 8.495288 5.899372
endloop
endfacet
facet normal 0 0 0
outer loop
vertex 1.955755 8.495288 5.899372
vertex 1.935279 8.474534 5.899372
vertex 1.935279 8.495288 5.899372
endloop
endfacet
facet normal 0 0 0
outer loop
vertex 1.976231 8.474534 5.879372
vertex 1.955755 8.474534 5.899372
vertex 1.976231 8.495288 5.899372
endloop
endfacet
facet normal 0 0 0
outer loop
vertex 1.955755 8.474534 5.899372
vertex 1.955755 8.495288 5.899372
vertex 1.976231 8.495288 5.899372
endloop
endfacet
facet normal 0 0 0
outer loop
vertex 1.976231 8.474534 5.879372
vertex 1.976231 8.495288 5.899372
vertex 1.996706 8.474534 5.899372
endloop
endfacet
facet normal 0 0 0
outer loop
vertex 1.976231 8.495288 5.899372
vertex 1.996706 8.495288 5.899372
vertex 1.996706 8.474534 5.899372
endloop
endfacet
facet normal 0 0 0
outer loop
vertex 2.017182 8.474534 5.899372
vertex 1.996706 8.474534 5.899372
vertex 2.017182 8.495288 5.899372
endloop
endfacet
facet normal 0 0 0
outer loop
vertex 2.017182 8.495288 5.899372
vertex 1.996706 8.474534 5.899372
vertex 1.996706 8.495288 5.899372
endloop
endfacet
facet normal 0 0 0
outer loop
vertex 1.914803 8.495288 5.899372
vertex 1.894328 8.495288 5.899372
vertex 1.914803 8.516041 5.899372
endloop
endfacet
facet normal 0 0 0
outer loop
vertex 1.914803 8.516041 5.899372
vertex 1.894328 8.495288 5.899372
vertex 1.894328 8.516041 5.899372
endloop
endfacet
facet normal 0 0 0
outer loop
vertex 1.935279 8.495288 5.899372
vertex 1.914803 8.495288 5.899372
vertex 1.935279 8.516041 5.899372
endloop
endfacet
facet normal 0 0 0
outer loop
vertex 1.935279 8.516041 5.899372
vertex 1.914803 8.495288 5.899372
vertex 1.914803 8.516041 5.899372
endloop
endfacet
facet normal 0 0 0
outer loop
vertex 1.955755 8.495288 5.899372
vertex 1.935279 8.495288 5.899372
vertex 1.955755 8.516041 5.899372
endloop
endfacet
facet normal 0 0 0
outer loop
vertex 1.955755 8.516041 5.899372
vertex 1.935279 8.495288 5.899372
vertex 1.935279 8.516041 5.899372
endloop
endfacet
facet normal 0 0 0
outer loop
vertex 1.976231 8.495288 5.899372
vertex 1.955755 8.495288 5.899372
vertex 1.976231 8.516041 5.899372
endloop
endfacet
facet normal 0 0 0
outer loop
vertex 1.976231 8.516041 5.899372
vertex 1.955755 8.495288 5.899372
vertex 1.955755 8.516041 5.899372
endloop
endfacet
facet normal 0 0 0
outer loop
vertex 1.996706 8.495288 5.899372
vertex 1.976231 8.495288 5.899372
vertex 1.996706 8.516041 5.899372
endloop
endfacet
facet normal 0 0 0
outer loop
vertex 1.996706 8.516041 5.899372
vertex 1.976231 8.495288 5.899372
vertex 1.976231 8.516041 5.899372
endloop
endfacet
facet normal 0 0 0
outer loop
vertex 2.017182 8.495288 5.899372
vertex 1.996706 8.495288 5.899372
vertex 2.017182 8.516041 5.899372
endloop
endfacet
facet normal 0 0 0
outer loop
vertex 2.017182 8.516041 5.899372
vertex 1.996706 8.495288 5.899372
vertex 1.996706 8.516041 5.899372
endloop
endfacet
facet normal 0 0 0
outer loop
vertex 1.894328 8.516041 5.899372
vertex 1.914803 8.536795 5.899372
vertex 1.914803 8.516041 5.899372
endloop
endfacet
facet normal 0 0 0
outer loop
vertex 1.935279 8.516041 5.899372
vertex 1.914803 8.516041 5.899372
vertex 1.935279 8.536795 5.899372
endloop
endfacet
facet normal 0 0 0
outer loop
vertex 1.935279 8.536795 5.899372
vertex 1.914803 8.516041 5.899372
vertex 1.914803 8.536795 5.899372
endloop
endfacet
facet normal 0 0 0
outer loop
vertex 1.955755 8.516041 5.899372
vertex 1.935279 8.516041 5.899372
vertex 1.955755 8.536795 5.899372
endloop
endfacet
facet normal 0 0 0
outer loop
vertex 1.955755 8.536795 5.899372
vertex 1.935279 8.516041 5.899372
vertex 1.935279 8.536795 5.899372
endloop
endfacet
facet normal 0 0 0
outer loop
vertex 1.976231 8.516041 5.899372
vertex 1.955755 8.516041 5.899372
vertex 1.976231 8.536795 5.899372
endloop
endfacet
facet normal 0 0 0
outer loop
vertex 1.976231 8.536795 5.899372
vertex 1.955755 8.516041 5.899372
vertex 1.955755 8.536795 5.899372
endloop
endfacet
facet normal 0 0 0
outer loop
vertex 1.996706 8.516041 5.899372
vertex 1.976231 8.516041 5.899372
vertex 1.996706 8.536795 5.899372
endloop
endfacet
facet normal 0 0 0
outer loop
vertex 1.996706 8.536795 5.899372
vertex 1.976231 8.516041 5.899372
vertex 1.976231 8.536795 5.899372
endloop
endfacet
facet normal 0 0 0
outer loop
vertex 2.017182 8.516041 5.899372
vertex 1.996706 8.516041 5.899372
vertex 2.017182 8.536795 5.899372
endloop
endfacet
facet normal 0 0 0
outer loop
vertex 2.017182 8.536795 5.899372
vertex 1.996706 8.516041 5.899372
vertex 1.996706 8.536795 5.899372
endloop
endfacet
facet normal 0 0 0
outer loop
vertex 1.935279 8.536795 5.899372
vertex 1.914803 8.536795 5.899372
vertex 1.935279 8.557548 5.899372
endloop
endfacet
facet normal 0 0 0
outer loop
vertex 1.935279 8.557548 5.899372
vertex 1.914803 8.536795 5.899372
vertex 1.914803 8.557548 5.899372
endloop
endfacet
facet normal 0 0 0
outer loop
vertex 1.955755 8.536795 5.899372
vertex 1.935279 8.536795 5.899372
vertex 1.955755 8.557548 5.899372
endloop
endfacet
facet normal 0 0 0
outer loop
vertex 1.955755 8.557548 5.899372
vertex 1.935279 8.536795 5.899372
vertex 1.935279 8.557548 5.899372
endloop
endfacet
facet normal 0 0 0
outer loop
vertex 1.976231 8.536795 5.899372
vertex 1.955755 8.536795 5.899372
vertex 1.976231 8.557548 5.899372
endloop
endfacet
facet normal 0 0 0
outer loop
vertex 1.976231 8.557548 5.899372
vertex 1.955755 8.536795 5.899372
vertex 1.955755 8.557548 5.899372
endloop
endfacet
facet normal 0 0 0
outer loop
vertex 1.996706 8.536795 5.899372
vertex 1.976231 8.536795 5.899372
vertex 1.996706 8.557548 5.899372
endloop
endfacet
facet normal 0 0 0
outer loop
vertex 1.996706 8.557548 5.899372
vertex 1.976231 8.536795 5.899372
vertex 1.976231 8.557548 5.899372
endloop
endfacet
facet normal 0 0 0
outer loop
vertex 1.996706 8.557548 5.899372
vertex 2.017182 8.536795 5.899372
vertex 1.996706 8.536795 5.899372
endloop
endfacet
facet normal 0 0 0
outer loop
vertex 1.914803 8.557548 5.899372
vertex 1.935279 8.578300 5.899372
vertex 1.935279 8.557548 5.899372
endloop
endfacet
facet normal 0 0 0
outer loop
vertex 1.955755 8.557548 5.899372
vertex 1.935279 8.557548 5.899372
vertex 1.955755 8.578300 5.899372
endloop
endfacet
facet normal 0 0 0
outer loop
vertex 1.955755 8.578300 5.899372
vertex 1.935279 8.557548 5.899372
vertex 1.935279 8.578300 5.899372
endloop
endfacet
facet normal 0 0 0
outer loop
vertex 1.976231 8.557548 5.899372
vertex 1.955755 8.557548 5.899372
vertex 1.976231 8.578300 5.899372
endloop
endfacet
facet normal 0 0 0
outer loop
vertex 1.976231 8.578300 5.899372
vertex 1.955755 8.557548 5.899372
vertex 1.955755 8.578300 5.899372
endloop
endfacet
facet normal 0 0 0
outer loop
vertex 1.996706 8.557548 5.899372
vertex 1.976231 8.557548 5.899372
vertex 1.996706 8.578300 5.899372
endloop
endfacet
facet normal 0 0 0
outer loop
vertex 1.996706 8.578300 5.899372
vertex 1.976231 8.557548 5.899372
vertex 1.976231 8.578300 5.899372
endloop
endfacet
facet normal 0 0 0
outer loop
vertex 1.935279 8.391521 5.899372
vertex 1.935279 8.412274 5.899372
vertex 1.914803 8.391521 5.899372
endloop
endfacet
facet normal 0 0 0
outer loop
vertex 1.935279 8.412274 5.899372
vertex 1.914803 8.412274 5.899372
vertex 1.914803 8.391521 5.899372
endloop
endfacet
facet normal 0 0 0
outer loop
vertex 1.955755 8.391521 5.899372
vertex 1.955755 8.412274 5.899372
vertex 1.935279 8.391521 5.899372
endloop
endfacet
facet normal 0 0 0
outer loop
vertex 1.955755 8.412274 5.899372
vertex 1.935279 8.412274 5.899372
vertex 1.935279 8.391521 5.899372
endloop
endfacet
facet normal 0 0 0
outer loop
vertex 1.976231 8.412274 5.919372
vertex 1.955755 8.412274 5.899372
vertex 1.976231 8.391521 5.899372
endloop
endfacet
facet normal 0 0 0
outer loop
vertex 1.955755 8.412274 5.899372
vertex 1.955755 8.391521 5.899372
vertex 1.976231 8.391521 5.899372
endloop
endfacet
facet normal 0 0 0
outer loop
vertex 1.996706 8.391521 5.899372
vertex 1.976231 8.412274 5.919372
vertex 1.976231 8.391521 5.899372
endloop
endfacet
facet normal 0 0 0
outer loop
vertex 1.996706 8.412274 5.919372
vertex 1.976231 8.412274 5.919372
vertex 1.996706 8.391521 5.899372
endloop
endfacet
facet normal 0 0 0
outer loop
vertex 1.996706 8.391521 5.899372
vertex 1.996706 8.412274 5.899372
vertex 2.017182 8.412274 5.919372
endloop
endfacet
facet normal 0 0 0
outer loop
vertex 1.996706 8.391521 5.899372
vertex 2.017182 8.412274 5.919372
vertex 1.996706 8.412274 5.919372
endloop
endfacet
facet normal 0 0 0
outer loop
vertex 1.894328 8.433027 5.899372
vertex 1.914803 8.412274 5.899372
vertex 1.914803 8.433027 5.899372
endloop
endfacet
facet normal 0 0 0
outer loop
vertex 1.935279 8.412274 5.899372
vertex 1.935279 8.433027 5.899372
vertex 1.914803 8.412274 5.899372
endloop
endfacet
facet normal 0 0 0
outer loop
vertex 1.935279 8.433027 5.899372
vertex 1.914803 8.433027 5.899372
vertex 1.914803 8.412274 5.899372
endloop
endfacet
facet normal 0 0 0
outer loop
vertex 1.955755 8.433027 5.919372
vertex 1.935279 8.433027 5.899372
vertex 1.955755 8.412274 5.899372
endloop
endfacet
facet normal 0 0 0
outer loop
vertex 1.935279 8.433027 5.899372
vertex 1.935279 8.412274 5.899372
vertex 1.955755 8.412274 5.899372
endloop
endfacet
facet normal 0 0 0
outer loop
vertex 1.976231 8.412274 5.919372
vertex 1.955755 8.433027 5.919372
vertex 1.955755 8.412274 5.899372
endloop
endfacet
facet normal 0 0 0
outer loop
vertex 1.996706 8.412274 5.899372
vertex 2.017182 8.433027 5.899372
vertex 2.017182 8.412274 5.919372
endloop
endfacet
facet normal 0 0 0
outer loop
vertex 2.017182 8.412274 5.919372
vertex 2.017182 8.433027 5.899372
vertex 2.017182 8.433027 5.919372
endloop
endfacet
facet normal 0 0 0
outer loop
vertex 1.914803 8.433027 5.899372
vertex 1.914803 8.453781 5.899372
vertex 1.894328 8.433027 5.899372
endloop
endfacet
facet normal 0 0 0
outer loop
vertex 1.914803 8.453781 5.899372
vertex 1.894328 8.453781 5.899372
vertex 1.894328 8.433027 5.899372
endloop
endfacet
facet normal 0 0 0
outer loop
vertex 1.935279 8.453781 5.919372
vertex 1.914803 8.453781 5.899372
vertex 1.935279 8.433027 5.899372
endloop
endfacet
facet normal 0 0 0
outer loop
vertex 1.914803 8.453781 5.899372
vertex 1.914803 8.433027 5.899372
vertex 1.935279 8.433027 5.899372
endloop
endfacet
facet normal 0 0 0
outer loop
vertex 1.955755 8.433027 5.919372
vertex 1.935279 8.453781 5.919372
vertex 1.935279 8.433027 5.899372
endloop
endfacet
facet normal 0 0 0
outer loop
vertex 2.037658 8.453781 5.919372
vertex 2.017182 8.433027 5.919372
vertex 2.017182 8.453781 5.899372
endloop
endfacet
facet normal 0 0 0
outer loop
vertex 2.017182 8.433027 5.919372
vertex 2.017182 8.433027 5.899372
vertex 2.017182 8.453781 5.899372
endloop
endfacet
facet normal 0 0 0
outer loop
vertex 1.935279 8.474534 5.919372
vertex 1.914803 8.453781 5.899372
vertex 1.935279 8.453781 5.919372
endloop
endfacet
facet normal 0 0 0
outer loop
vertex 1.914803 8.474534 5.899372
vertex 1.914803 8.453781 5.899372
vertex 1.935279 8.474534 5.919372
endloop
endfacet
facet normal 0 0 0
outer loop
vertex 2.037658 8.453781 5.919372
vertex 2.017182 8.474534 5.899372
vertex 2.037658 8.474534 5.919372
endloop
endfacet
facet normal 0 0 0
outer loop
vertex 2.017182 8.453781 5.899372
vertex 2.017182 8.474534 5.899372
vertex 2.037658 8.453781 5.919372
endloop
endfacet
facet normal 0 0 0
outer loop
vertex 1.914803 8.495288 5.919372
vertex 1.894328 8.495288 5.899372
vertex 1.914803 8.474534 5.899372
endloop
endfacet
facet normal 0 0 0
outer loop
vertex 1.894328 8.495288 5.899372
vertex 1.894328 8.474534 5.899372
vertex 1.914803 8.474534 5.899372
endloop
endfacet
facet normal 0 0 0
outer loop
vertex 1.935279 8.474534 5.919372
vertex 1.914803 8.495288 5.919372
vertex 1.914803 8.474534 5.899372
endloop
endfacet
facet normal 0 0 0
outer loop
vertex 2.037658 8.474534 5.919372
vertex 2.017182 8.495288 5.899372
vertex 2.037658 8.495288 5.919372
endloop
endfacet
facet normal 0 0 0
outer loop
vertex 2.017182 8.474534 5.899372
vertex 2.017182 8.495288 5.899372
vertex 2.037658 8.474534 5.919372
endloop
endfacet
facet normal 0 0 0
outer loop
vertex 1.914803 8.516041 5.919372
vertex 1.894328 8.495288 5.899372
vertex 1.914803 8.495288 5.919372
endloop
endfacet
facet normal 0 0 0
outer loop
vertex 1.894328 8.516041 5.899372
vertex 1.894328 8.495288 5.899372
vertex 1.914803 8.516041 5.919372
endloop
endfacet
facet normal 0 0 0
outer loop
vertex 2.037658 8.495288 5.919372
vertex 2.017182 8.516041 5.899372
vertex 2.037658 8.516041 5.919372
endloop
endfacet
facet normal 0 0 0
outer loop
vertex 2.017182 8.495288 5.899372
vertex 2.017182 8.516041 5.899372
vertex 2.037658 8.495288 5.919372
endloop
endfacet
facet normal 0 0 0
outer loop
vertex 1.894328 8.516041 5.899372
vertex 1.914803 8.516041 5.919372
vertex 1.914803 8.536795 5.899372
endloop
endfacet
facet normal 0 0 0
outer loop
vertex 1.914803 8.516041 5.919372
vertex 1.914803 8.536795 5.919372
vertex 1.914803 8.536795 5.899372
endloop
endfacet
facet normal 0 0 0
outer loop
vertex 2.037658 8.516041 5.919372
vertex 2.017182 8.536795 5.899372
vertex 2.037658 8.536795 5.919372
endloop
endfacet
facet normal 0 0 0
outer loop
vertex 2.017182 8.516041 5.899372
vertex 2.017182 8.536795 5.899372
vertex 2.037658 8.516041 5.919372
endloop
endfacet
facet normal 0 0 0
outer loop
vertex 1.914803 8.536795 5.899372
vertex 1.914803 8.536795 5.919372
vertex 1.914803 8.557548 5.899372
endloop
endfacet
facet normal 0 0 0
outer loop
vertex 1.914803 8.536795 5.919372
vertex 1.914803 8.557548 5.919372
vertex 1.914803 8.557548 5.899372
endloop
endfacet
facet normal 0 0 0
outer loop
vertex 2.017182 8.536795 5.899372
vertex 1.996706 8.557548 5.899372
vertex 2.017182 8.557548 5.919372
endloop
endfacet
facet normal 0 0 0
outer loop
vertex 2.017182 8.536795 5.899372
vertex 2.017182 8.557548 5.919372
vertex 2.037658 8.536795 5.919372
endloop
endfacet
facet normal 0 0 0
outer loop
vertex 2.017182 8.557548 5.919372
vertex 2.037658 8.557548 5.919372
vertex 2.037658 8.536795 5.919372
endloop
endfacet
facet normal 0 0 0
outer loop
vertex 1.914803 8.578300 5.919372
vertex 1.914803 8.557548 5.899372
vertex 1.914803 8.557548 5.919372
endloop
endfacet
facet normal 0 0 0
outer loop
vertex 1.914803 8.557548 5.899372
vertex 1.914803 8.578300 5.919372
vertex 1.935279 8.578300 5.899372
endloop
endfacet
facet normal 0 0 0
outer loop
vertex 2.017182 8.557548 5.919372
vertex 1.996706 8.578300 5.899372
vertex 2.017182 8.578300 5.919372
endloop
endfacet
facet normal 0 0 0
outer loop
vertex 1.996706 8.557548 5.899372
vertex 1.996706 8.578300 5.899372
vertex 2.017182 8.557548 5.919372
endloop
endfacet
facet normal 0 0 0
outer loop
vertex 2.017182 8.578300 5.919372
vertex 2.037658 8.557548 5.919372
vertex 2.017182 8.557548 5.919372
endloop
endfacet
facet normal 0 0 0
outer loop
vertex 1.935279 8.578300 5.899372
vertex 1.914803 8.578300 5.919372
vertex 1.935279 8.578300 5.919372
endloop
endfacet
facet normal 0 0 0
outer loop
vertex 1.955755 8.578300 5.899372
vertex 1.935279 8.578300 5.899372
vertex 1.955755 8.578300 5.919372
endloop
endfacet
facet normal 0 0 0
outer loop
vertex 1.935279 8.578300 5.899372
vertex 1.935279 8.578300 5.919372
vertex 1.955755 8.578300 5.919372
endloop
endfacet
facet normal 0 0 0
outer loop
vertex 1.976231 8.578300 5.899372
vertex 1.955755 8.578300 5.899372
vertex 1.976231 8.578300 5.919372
endloop
endfacet
facet normal 0 0 0
outer loop
vertex 1.955755 8.578300 5.899372
vertex 1.955755 8.578300 5.919372
vertex 1.976231 8.578300 5.919372
endloop
endfacet
facet normal 0 0 0
outer loop
vertex 1.996706 8.578300 5.899372
vertex 1.976231 8.578300 5.899372
vertex 1.996706 8.578300 5.919372
endloop
endfacet
facet normal 0 0 0
outer loop
vertex 1.976231 8.578300 5.899372
vertex 1.976231 8.578300 5.919372
vertex 1.996706 8.578300 5.919372
endloop
endfacet
facet normal 0 0 0
outer loop
vertex 2.017182 8.578300 5.919372
vertex 1.996706 8.578300 5.899372
vertex 1.996706 8.578300 5.919372
endloop
endfacet
facet normal 0 0 0
outer loop
vertex 1.955755 8.433027 5.919372
vertex 1.976231 8.412274 5.919372
vertex 1.976231 8.433027 5.919372
endloop
endfacet
facet normal 0 0 0
outer loop
vertex 1.996706 8.412274 5.919372
vertex 1.996706 8.433027 5.919372
vertex 1.976231 8.412274 5.919372
endloop
endfacet
facet normal 0 0 0
outer loop
vertex 1.996706 8.433027 5.919372
vertex 1.976231 8.433027 5.919372
vertex 1.976231 8.412274 5.919372
endloop
endfacet
facet normal 0 0 0
outer loop
vertex 2.017182 8.412274 5.919372
vertex 2.017182 8.433027 5.919372
vertex 1.996706 8.412274 5.919372
endloop
endfacet
facet normal 0 0 0
outer loop
vertex 2.017182 8.433027 5.919372
vertex 1.996706 8.433027 5.919372
vertex 1.996706 8.412274 5.919372
endloop
endfacet
facet normal 0 0 0
outer loop
vertex 1.955755 8.433027 5.919372
vertex 1.955755 8.453781 5.939372
vertex 1.935279 8.453781 5.919372
endloop
endfacet
facet normal 0 0 0
outer loop
vertex 1.955755 8.453781 5.939372
vertex 1.935279 8.453781 5.939372
vertex 1.935279 8.453781 5.919372
endloop
endfacet
facet normal 0 0 0
outer loop
vertex 1.976231 8.433027 5.919372
vertex 1.955755 8.453781 5.939372
vertex 1.955755 8.433027 5.919372
endloop
endfacet
facet normal 0 0 0
outer loop
vertex 1.976231 8.453781 5.939372
vertex 1.955755 8.453781 5.939372
vertex 1.976231 8.433027 5.919372
endloop
endfacet
facet normal 0 0 0
outer loop
vertex 1.976231 8.453781 5.939372
vertex 1.976231 8.433027 5.919372
vertex 1.996706 8.453781 5.919372
endloop
endfacet
facet normal 0 0 0
outer loop
vertex 1.976231 8.433027 5.919372
vertex 1.996706 8.433027 5.919372
vertex 1.996706 8.453781 5.919372
endloop
endfacet
facet normal 0 0 0
outer loop
vertex 2.017182 8.433027 5.919372
vertex 2.017182 8.453781 5.919372
vertex 1.996706 8.433027 5.919372
endloop
endfacet
facet normal 0 0 0
outer loop
vertex 2.017182 8.453781 5.919372
vertex 1.996706 8.453781 5.919372
vertex 1.996706 8.433027 5.919372
endloop
endfacet
facet normal 0 0 0
outer loop
vertex 2.017182 8.433027 5.919372
vertex 2.037658 8.453781 5.919372
vertex 2.017182 8.453781 5.919372
endloop
endfacet
facet normal 0 0 0
outer loop
vertex 1.914803 8.474534 5.939372
vertex 1.935279 8.474534 5.919372
vertex 1.935279 8.453781 5.939372
endloop
endfacet
facet normal 0 0 0
outer loop
vertex 1.935279 8.474534 5.919372
vertex 1.935279 8.453781 5.919372
vertex 1.935279 8.453781 5.939372
endloop
endfacet
facet normal 0 0 0
outer loop
vertex 1.996706 8.474534 5.919372
vertex 1.976231 8.453781 5.939372
vertex 1.996706 8.453781 5.919372
endloop
endfacet
facet normal 0 0 0
outer loop
vertex 1.976231 8.474534 5.939372
vertex 1.976231 8.453781 5.939372
vertex 1.996706 8.474534 5.919372
endloop
endfacet
facet normal 0 0 0
outer loop
vertex 2.017182 8.453781 5.919372
vertex 2.017182 8.474534 5.919372
vertex 1.996706 8.453781 5.919372
endloop
endfacet
facet normal 0 0 0
outer loop
vertex 2.017182 8.474534 5.919372
vertex 1.996706 8.474534 5.919372
vertex 1.996706 8.453781 5.919372
endloop
endfacet
facet normal 0 0 0
outer loop
vertex 2.037658 8.453781 5.919372
vertex 2.037658 8.474534 5.919372
vertex 2.017182 8.453781 5.919372
endloop
endfacet
facet normal 0 0 0
outer loop
vertex 2.037658 8.474534 5.919372
vertex 2.017182 8.474534 5.919372
vertex 2.017182 8.453781 5.919372
endloop
endfacet
facet normal 0 0 0
outer loop
vertex 1.914803 8.495288 5.919372
vertex 1.914803 8.474534 5.939372
vertex 1.914803 8.495288 5.939372
endloop
endfacet
facet normal 0 0 0
outer loop
vertex 1.935279 8.474534 5.919372
vertex 1.914803 8.474534 5.939372
vertex 1.914803 8.495288 5.919372
endloop
endfacet
facet normal 0 0 0
outer loop
vertex 1.996706 8.474534 5.919372
vertex 1.996706 8.495288 5.939372
vertex 1.976231 8.474534 5.939372
endloop
endfacet
facet normal 0 0 0
outer loop
vertex 1.996706 8.495288 5.939372
vertex 1.996706 8.474534 5.919372
vertex 2.017182 8.495288 5.919372
endloop
endfacet
facet normal 0 0 0
outer loop
vertex 1.996706 8.474534 5.919372
vertex 2.017182 8.474534 5.919372
vertex 2.017182 8.495288 5.919372
endloop
endfacet
facet normal 0 0 0
outer loop
vertex 2.037658 8.474534 5.919372
vertex 2.037658 8.495288 5.919372
vertex 2.017182 8.474534 5.919372
endloop
endfacet
facet normal 0 0 0
outer loop
vertex 2.037658 8.495288 5.919372
vertex 2.017182 8.495288 5.919372
vertex 2.017182 8.474534 5.919372
endloop
endfacet
facet normal 0 0 0
outer loop
vertex 1.914803 8.495288 5.919372
vertex 1.914803 8.495288 5.939372
vertex 1.914803 8.516041 5.919372
endloop
endfacet
facet normal 0 0 0
outer loop
vertex 1.914803 8.495288 5.939372
vertex 1.914803 8.516041 5.939372
vertex 1.914803 8.516041 5.919372
endloop
endfacet
facet normal 0 0 0
outer loop
vertex 2.017182 8.516041 5.919372
vertex 1.996706 8.495288 5.939372
vertex 2.017182 8.495288 5.919372
endloop
endfacet
facet normal 0 0 0
outer loop
vertex 1.996706 8.516041 5.939372
vertex 1.996706 8.495288 5.939372
vertex 2.017182 8.516041 5.919372
endloop
endfacet
facet normal 0 0 0
outer loop
vertex 2.037658 8.495288 5.919372
vertex 2.037658 8.516041 5.919372
vertex 2.017182 8.495288 5.919372
endloop
endfacet
facet normal 0 0 0
outer loop
vertex 2.037658 8.516041 5.919372
vertex 2.017182 8.516041 5.919372
vertex 2.017182 8.495288 5.919372
endloop
endfacet
facet normal 0 0 0
outer loop
vertex 1.914803 8.516041 5.919372
vertex 1.914803 8.516041 5.939372
vertex 1.914803 8.536795 5.919372
endloop
endfacet
facet normal 0 0 0
outer loop
vertex 1.914803 8.516041 5.939372
vertex 1.914803 8.536795 5.939372
vertex 1.914803 8.536795 5.919372
endloop
endfacet
facet normal 0 0 0
outer loop
vertex 2.017182 8.536795 5.919372
vertex 1.996706 8.516041 5.939372
vertex 2.017182 8.516041 5.919372
endloop
endfacet
facet normal 0 0 0
outer loop
vertex 1.996706 8.536795 5.939372
vertex 1.996706 8.516041 5.939372
vertex 2.017182 8.536795 5.919372
endloop
endfacet
facet normal 0 0 0
outer loop
vertex 2.037658 8.516041 5.919372
vertex 2.037658 8.536795 5.919372
vertex 2.017182 8.516041 5.919372
endloop
endfacet
facet normal 0 0 0
outer loop
vertex 2.037658 8.536795 5.919372
vertex 2.017182 8.536795 5.919372
vertex 2.017182 8.516041 5.919372
endloop
endfacet
facet normal 0 0 0
outer loop
vertex 1.914803 8.536795 5.919372
vertex 1.914803 8.536795 5.939372
vertex 1.914803 8.557548 5.919372
endloop
endfacet
facet normal 0 0 0
outer loop
vertex 1.914803 8.536795 5.939372
vertex 1.914803 8.557548 5.939372
vertex 1.914803 8.557548 5.919372
endloop
endfacet
facet normal 0 0 0
outer loop
vertex 2.017182 8.536795 5.919372
vertex 2.017182 8.557548 5.939372
vertex 1.996706 8.536795 5.939372
endloop
endfacet
facet normal 0 0 0
outer loop
vertex 2.017182 8.557548 5.939372
vertex 2.017182 8.536795 5.919372
vertex 2.037658 8.557548 5.919372
endloop
endfacet
facet normal 0 0 0
outer loop
vertex 2.017182 8.536795 5.919372
vertex 2.037658 8.536795 5.919372
vertex 2.037658 8.557548 5.919372
endloop
endfacet
facet normal 0 0 0
outer loop
vertex 1.914803 8.557548 5.919372
vertex 1.914803 8.557548 5.939372
vertex 1.914803 8.578300 5.919372
endloop
endfacet
facet normal 0 0 0
outer loop
vertex 1.914803 8.557548 5.939372
vertex 1.914803 8.578300 5.939372
vertex 1.914803 8.578300 5.919372
endloop
endfacet
facet normal 0 0 0
outer loop
vertex 2.017182 8.578300 5.919372
vertex 1.996706 8.578300 5.939372
vertex 2.017182 8.557548 5.939372
endloop
endfacet
facet normal 0 0 0
outer loop
vertex 2.037658 8.557548 5.919372
vertex 2.017182 8.578300 5.919372
vertex 2.017182 8.557548 5.939372
endloop
endfacet
facet normal 0 0 0
outer loop
vertex 1.935279 8.599054 5.939372
vertex 1.935279 8.578300 5.919372
vertex 1.914803 8.578300 5.939372
endloop
endfacet
facet normal 0 0 0
outer loop
vertex 1.935279 8.578300 5.919372
vertex 1.914803 8.578300 5.919372
vertex 1.914803 8.578300 5.939372
endloop
endfacet
facet normal 0 0 0
outer loop
vertex 1.935279 8.578300 5.919372
vertex 1.955755 8.599054 5.939372
vertex 1.955755 8.578300 5.919372
endloop
endfacet
facet normal 0 0 0
outer loop
vertex 1.935279 8.599054 5.939372
vertex 1.955755 8.599054 5.939372
vertex 1.935279 8.578300 5.919372
endloop
endfacet
facet normal 0 0 0
outer loop
vertex 1.955755 8.578300 5.919372
vertex 1.976231 8.599054 5.939372
vertex 1.976231 8.578300 5.919372
endloop
endfacet
facet normal 0 0 0
outer loop
vertex 1.955755 8.599054 5.939372
vertex 1.976231 8.599054 5.939372
vertex 1.955755 8.578300 5.919372
endloop
endfacet
facet normal 0 0 0
outer loop
vertex 1.976231 8.578300 5.919372
vertex 1.996706 8.599054 5.939372
vertex 1.996706 8.578300 5.919372
endloop
endfacet
facet normal 0 0 0
outer loop
vertex 1.976231 8.599054 5.939372
vertex 1.996706 8.599054 5.939372
vertex 1.976231 8.578300 5.919372
endloop
endfacet
facet normal 0 0 0
outer loop
vertex 2.017182 8.578300 5.919372
vertex 1.996706 8.599054 5.939372
vertex 1.996706 8.578300 5.939372
endloop
endfacet
facet normal 0 0 0
outer loop
vertex 2.017182 8.578300 5.919372
vertex 1.996706 8.578300 5.919372
vertex 1.996706 8.599054 5.939372
endloop
endfacet
facet normal 0 0 0
outer loop
vertex 1.914803 8.474534 5.939372
vertex 1.935279 8.453781 5.939372
vertex 1.935279 8.474534 5.939372
endloop
endfacet
facet normal 0 0 0
outer loop
vertex 1.955755 8.453781 5.939372
vertex 1.955755 8.474534 5.939372
vertex 1.935279 8.453781 5.939372
endloop
endfacet
facet normal 0 0 0
outer loop
vertex 1.955755 8.474534 5.939372
vertex 1.935279 8.474534 5.939372
vertex 1.935279 8.453781 5.939372
endloop
endfacet
facet normal 0 0 0
outer loop
vertex 1.976231 8.453781 5.939372
vertex 1.976231 8.474534 5.939372
vertex 1.955755 8.453781 5.939372
endloop
endfacet
facet normal 0 0 0
outer loop
vertex 1.976231 8.474534 5.939372
vertex 1.955755 8.474534 5.939372
vertex 1.955755 8.453781 5.939372
endloop
endfacet
facet normal 0 0 0
outer loop
vertex 1.935279 8.474534 5.939372
vertex 1.935279 8.495288 5.939372
vertex 1.914803 8.474534 5.939372
endloop
endfacet
facet normal 0 0 0
outer loop
vertex 1.935279 8.495288 5.939372
vertex 1.914803 8.495288 5.939372
vertex 1.914803 8.474534 5.939372
endloop
endfacet
facet normal 0 0 0
outer loop
vertex 1.955755 8.474534 5.939372
vertex 1.955755 8.495288 5.939372
vertex 1.935279 8.474534 5.939372
endloop
endfacet
facet normal 0 0 0
outer loop
vertex 1.955755 8.495288 5.939372
vertex 1.935279 8.495288 5.939372
vertex 1.935279 8.474534 5.939372
endloop
endfacet
facet normal 0 0 0
outer loop
vertex 1.976231 8.474534 5.939372
vertex 1.976231 8.495288 5.939372
vertex 1.955755 8.474534 5.939372
endloop
endfacet
facet normal 0 0 0
outer loop
vertex 1.976231 8.495288 5.939372
vertex 1.955755 8.495288 5.939372
vertex 1.955755 8.474534 5.939372
endloop
endfacet
facet normal 0 0 0
outer loop
vertex 1.976231 8.474534 5.939372
vertex 1.996706 8.495288 5.939372
vertex 1.976231 8.495288 5.939372
endloop
endfacet
facet normal 0 0 0
outer loop
vertex 1.935279 8.495288 5.939372
vertex 1.935279 8.516041 5.939372
vertex 1.914803 8.495288 5.939372
endloop
endfacet
facet normal 0 0 0
outer loop
vertex 1.935279 8.516041 5.939372
vertex 1.914803 8.516041 5.939372
vertex 1.914803 8.495288 5.939372
endloop
endfacet
facet normal 0 0 0
outer loop
vertex 1.955755 8.516041 5.959372
vertex 1.935279 8.516041 5.939372
vertex 1.955755 8.495288 5.939372
endloop
endfacet
facet normal 0 0 0
outer loop
vertex 1.935279 8.516041 5.939372
vertex 1.935279 8.495288 5.939372
vertex 1.955755 8.495288 5.939372
endloop
endfacet
facet normal 0 0 0
outer loop
vertex 1.955755 8.516041 5.959372
vertex 1.955755 8.495288 5.939372
vertex 1.976231 8.516041 5.939372
endloop
endfacet
facet normal 0 0 0
outer loop
vertex 1.955755 8.495288 5.939372
vertex 1.976231 8.495288 5.939372
vertex 1.976231 8.516041 5.939372
endloop
endfacet
facet normal 0 0 0
outer loop
vertex 1.996706 8.495288 5.939372
vertex 1.996706 8.516041 5.939372
vertex 1.976231 8.495288 5.939372
endloop
endfacet
facet normal 0 0 0
outer loop
vertex 1.996706 8.516041 5.939372
vertex 1.976231 8.516041 5.939372
vertex 1.976231 8.495288 5.939372
endloop
endfacet
facet normal 0 0 0
outer loop
vertex 1.935279 8.536795 5.959372
vertex 1.914803 8.536795 5.939372
vertex 1.935279 8.516041 5.939372
endloop
endfacet
facet normal 0 0 0
outer loop
vertex 1.914803 8.536795 5.939372
vertex 1.914803 8.516041 5.939372
vertex 1.935279 8.516041 5.939372
endloop
endfacet
facet normal 0 0 0
outer loop
vertex 1.935279 8.536795 5.959372
vertex 1.935279 8.516041 5.939372
vertex 1.955755 8.536795 5.939372
endloop
endfacet
facet normal 0 0 0
outer loop
vertex 1.955755 8.516041 5.959372
vertex 1.955755 8.536795 5.939372
vertex 1.935279 8.516041 5.939372
endloop
endfacet
facet normal 0 0 0
outer loop
vertex 1.955755 8.516041 5.959372
vertex 1.976231 8.516041 5.939372
vertex 1.955755 8.536795 5.939372
endloop
endfacet
facet normal 0 0 0
outer loop
vertex 1.976231 8.516041 5.939372
vertex 1.976231 8.536795 5.939372
vertex 1.955755 8.536795 5.939372
endloop
endfacet
facet normal 0 0 0
outer loop
vertex 1.996706 8.516041 5.939372
vertex 1.996706 8.536795 5.939372
vertex 1.976231 8.516041 5.939372
endloop
endfacet
facet normal 0 0 0
outer loop
vertex 1.996706 8.536795 5.939372
vertex 1.976231 8.536795 5.939372
vertex 1.976231 8.516041 5.939372
endloop
endfacet
facet normal 0 0 0
outer loop
vertex 1.935279 8.536795 5.959372
vertex 1.935279 8.557548 5.939372
vertex 1.914803 8.536795 5.939372
endloop
endfacet
facet normal 0 0 0
outer loop
vertex 1.935279 8.557548 5.939372
vertex 1.914803 8.557548 5.939372
vertex 1.914803 8.536795 5.939372
endloop
endfacet
facet normal 0 0 0
outer loop
vertex 1.935279 8.536795 5.959372
vertex 1.955755 8.536795 5.939372
vertex 1.935279 8.557548 5.939372
endloop
endfacet
facet normal 0 0 0
outer loop
vertex 1.955755 8.536795 5.939372
vertex 1.955755 8.557548 5.939372
vertex 1.935279 8.557548 5.939372
endloop
endfacet
facet normal 0 0 0
outer loop
vertex 1.976231 8.536795 5.939372
vertex 1.976231 8.557548 5.939372
vertex 1.955755 8.536795 5.939372
endloop
endfacet
facet normal 0 0 0
outer loop
vertex 1.976231 8.557548 5.939372
vertex 1.955755 8.557548 5.939372
vertex 1.955755 8.536795 5.939372
endloop
endfacet
facet normal 0 0 0
outer loop
vertex 1.996706 8.536795 5.939372
vertex 1.996706 8.557548 5.939372
vertex 1.976231 8.536795 5.939372
endloop
endfacet
facet normal 0 0 0
outer loop
vertex 1.996706 8.557548 5.939372
vertex 1.976231 8.557548 5.939372
vertex 1.976231 8.536795 5.939372
endloop
endfacet
facet normal 0 0 0
outer loop
vertex 1.996706 8.536795 5.939372
vertex 2.017182 8.557548 5.939372
vertex 1.996706 8.557548 5.939372
endloop
endfacet
facet normal 0 0 0
outer loop
vertex 1.935279 8.578300 5.959372
vertex 1.914803 8.578300 5.939372
vertex 1.935279 8.557548 5.939372
endloop
endfacet
facet normal 0 0 0
outer loop
vertex 1.914803 8.578300 5.939372
vertex 1.914803 8.557548 5.939372
vertex 1.935279 8.557548 5.939372
endloop
endfacet
facet normal 0 0 0
outer loop
vertex 1.955755 8.557548 5.939372
vertex 1.935279 8.578300 5.959372
vertex 1.935279 8.557548 5.939372
endloop
endfacet
facet normal 0 0 0
outer loop
vertex 1.955755 8.578300 5.959372
vertex 1.935279 8.578300 5.959372
vertex 1.955755 8.557548 5.939372
endloop
endfacet
facet normal 0 0 0
outer loop
vertex 1.976231 8.557548 5.939372
vertex 1.955755 8.578300 5.959372
vertex 1.955755 8.557548 5.939372
endloop
endfacet
facet normal 0 0 0
outer loop
vertex 1.976231 8.578300 5.959372
vertex 1.955755 8.578300 5.959372
vertex 1.976231 8.557548 5.939372
endloop
endfacet
facet normal 0 0 0
outer loop
vertex 1.976231 8.578300 5.959372
vertex 1.976231 8.557548 5.939372
vertex 1.996706 8.578300 5.939372
endloop
endfacet
facet normal 0 0 0
outer loop
vertex 1.976231 8.557548 5.939372
vertex 1.996706 8.557548 5.939372
vertex 1.996706 8.578300 5.939372
endloop
endfacet
facet normal 0 0 0
outer loop
vertex 2.017182 8.557548 5.939372
vertex 1.996706 8.578300 5.939372
vertex 1.996706 8.557548 5.939372
endloop
endfacet
facet normal 0 0 0
outer loop
vertex 1.914803 8.578300 5.939372
vertex 1.935279 8.578300 5.959372
vertex 1.935279 8.599054 5.939372
endloop
endfacet
facet normal 0 0 0
outer loop
vertex 1.935279 8.578300 5.959372
vertex 1.935279 8.599054 5.959372
vertex 1.935279 8.599054 5.939372
endloop
endfacet
facet normal 0 0 0
outer loop
vertex 1.976231 8.599054 5.939372
vertex 1.955755 8.599054 5.959372
vertex 1.976231 8.578300 5.959372
endloop
endfacet
facet normal 0 0 0
outer loop
vertex 1.976231 8.578300 5.959372
vertex 1.996706 8.578300 5.939372
vertex 1.976231 8.599054 5.939372
endloop
endfacet
facet normal 0 0 0
outer loop
vertex 1.996706 8.578300 5.939372
vertex 1.996706 8.599054 5.939372
vertex 1.976231 8.599054 5.939372
endloop
endfacet
facet normal 0 0 0
outer loop
vertex 1.955755 8.599054 5.939372
vertex 1.935279 8.599054 5.939372
vertex 1.955755 8.599054 5.959372
endloop
endfacet
facet normal 0 0 0
outer loop
vertex 1.935279 8.599054 5.939372
vertex 1.935279 8.599054 5.959372
vertex 1.955755 8.599054 5.959372
endloop
endfacet
facet normal 0 0 0
outer loop
vertex 1.955755 8.599054 5.959372
vertex 1.976231 8.599054 5.939372
vertex 1.955755 8.599054 5.939372
endloop
endfacet
facet normal 0 0 0
outer loop
vertex 1.955755 8.578300 5.959372
vertex 1.955755 8.599054 5.959372
vertex 1.935279 8.578300 5.959372
endloop
endfacet
facet normal 0 0 0
outer loop
vertex 1.955755 8.599054 5.959372
vertex 1.935279 8.599054 5.959372
vertex 1.935279 8.578300 5.959372
endloop
endfacet
facet normal 0 0 0
outer loop
vertex 1.976231 8.578300 5.959372
vertex 1.955755 8.599054 5.959372
vertex 1.955755 8.578300 5.959372
endloop
endfacet
endsolid B-16-Plag.088
