solid B-16-Plag.216
facet normal 0 0 0
outer loop
vertex 4.658561 13.974165 9.419372
vertex 4.638085 13.974165 9.419372
vertex 4.658561 13.994918 9.419372
endloop
endfacet
facet normal 0 0 0
outer loop
vertex 4.658561 13.994918 9.419372
vertex 4.679036 13.974165 9.419372
vertex 4.658561 13.974165 9.419372
endloop
endfacet
facet normal 0 0 0
outer loop
vertex 4.658561 13.994918 9.419372
vertex 4.638085 13.994918 9.419372
vertex 4.658561 14.015671 9.419372
endloop
endfacet
facet normal 0 0 0
outer loop
vertex 4.658561 14.015671 9.419372
vertex 4.638085 13.994918 9.419372
vertex 4.638085 14.015671 9.419372
endloop
endfacet
facet normal 0 0 0
outer loop
vertex 4.658561 14.015671 9.419372
vertex 4.638085 14.015671 9.419372
vertex 4.658561 14.036425 9.419372
endloop
endfacet
facet normal 0 0 0
outer loop
vertex 4.658561 14.036425 9.419372
vertex 4.638085 14.015671 9.419372
vertex 4.638085 14.036425 9.419372
endloop
endfacet
facet normal 0 0 0
outer loop
vertex 4.638085 14.036425 9.419372
vertex 4.617609 14.057178 9.419372
vertex 4.638085 14.057178 9.419372
endloop
endfacet
facet normal 0 0 0
outer loop
vertex 4.658561 14.036425 9.419372
vertex 4.638085 14.036425 9.419372
vertex 4.658561 14.057178 9.419372
endloop
endfacet
facet normal 0 0 0
outer loop
vertex 4.658561 14.057178 9.419372
vertex 4.638085 14.036425 9.419372
vertex 4.638085 14.057178 9.419372
endloop
endfacet
facet normal 0 0 0
outer loop
vertex 4.617609 14.057178 9.419372
vertex 4.638085 14.077931 9.419372
vertex 4.638085 14.057178 9.419372
endloop
endfacet
facet normal 0 0 0
outer loop
vertex 4.658561 14.057178 9.419372
vertex 4.638085 14.057178 9.419372
vertex 4.658561 14.077931 9.419372
endloop
endfacet
facet normal 0 0 0
outer loop
vertex 4.658561 14.077931 9.419372
vertex 4.638085 14.057178 9.419372
vertex 4.638085 14.077931 9.419372
endloop
endfacet
facet normal 0 0 0
outer loop
vertex 4.638085 14.098684 9.419372
vertex 4.658561 14.077931 9.419372
vertex 4.638085 14.077931 9.419372
endloop
endfacet
facet normal 0 0 0
outer loop
vertex 4.638085 13.994918 9.419372
vertex 4.617609 13.974165 9.419372
vertex 4.638085 13.974165 9.419372
endloop
endfacet
facet normal 0 0 0
outer loop
vertex 4.658561 13.994918 9.419372
vertex 4.638085 13.994918 9.419372
vertex 4.638085 13.974165 9.419372
endloop
endfacet
facet normal 0 0 0
outer loop
vertex 4.638085 13.994918 9.419372
vertex 4.638085 14.015671 9.439371
vertex 4.638085 14.015671 9.419372
endloop
endfacet
facet normal 0 0 0
outer loop
vertex 4.658561 13.994918 9.419372
vertex 4.638085 14.015671 9.439371
vertex 4.638085 13.994918 9.419372
endloop
endfacet
facet normal 0 0 0
outer loop
vertex 4.658561 14.015671 9.439371
vertex 4.638085 14.015671 9.439371
vertex 4.658561 13.994918 9.419372
endloop
endfacet
facet normal 0 0 0
outer loop
vertex 4.658561 14.015671 9.439371
vertex 4.658561 13.994918 9.419372
vertex 4.658561 14.015671 9.419372
endloop
endfacet
facet normal 0 0 0
outer loop
vertex 4.638085 14.015671 9.419372
vertex 4.638085 14.015671 9.439371
vertex 4.638085 14.036425 9.419372
endloop
endfacet
facet normal 0 0 0
outer loop
vertex 4.638085 14.015671 9.439371
vertex 4.638085 14.036425 9.439371
vertex 4.638085 14.036425 9.419372
endloop
endfacet
facet normal 0 0 0
outer loop
vertex 4.679036 14.036425 9.439371
vertex 4.658561 14.015671 9.439371
vertex 4.658561 14.036425 9.419372
endloop
endfacet
facet normal 0 0 0
outer loop
vertex 4.658561 14.015671 9.439371
vertex 4.658561 14.015671 9.419372
vertex 4.658561 14.036425 9.419372
endloop
endfacet
facet normal 0 0 0
outer loop
vertex 4.617609 14.057178 9.419372
vertex 4.638085 14.036425 9.419372
vertex 4.638085 14.057178 9.439371
endloop
endfacet
facet normal 0 0 0
outer loop
vertex 4.638085 14.036425 9.419372
vertex 4.638085 14.036425 9.439371
vertex 4.638085 14.057178 9.439371
endloop
endfacet
facet normal 0 0 0
outer loop
vertex 4.679036 14.036425 9.439371
vertex 4.658561 14.036425 9.419372
vertex 4.658561 14.057178 9.439371
endloop
endfacet
facet normal 0 0 0
outer loop
vertex 4.658561 14.036425 9.419372
vertex 4.658561 14.057178 9.419372
vertex 4.658561 14.057178 9.439371
endloop
endfacet
facet normal 0 0 0
outer loop
vertex 4.617609 14.057178 9.419372
vertex 4.638085 14.057178 9.439371
vertex 4.638085 14.077931 9.419372
endloop
endfacet
facet normal 0 0 0
outer loop
vertex 4.638085 14.057178 9.439371
vertex 4.638085 14.077931 9.439371
vertex 4.638085 14.077931 9.419372
endloop
endfacet
facet normal 0 0 0
outer loop
vertex 4.658561 14.057178 9.419372
vertex 4.658561 14.077931 9.419372
vertex 4.658561 14.057178 9.439371
endloop
endfacet
facet normal 0 0 0
outer loop
vertex 4.658561 14.057178 9.439371
vertex 4.658561 14.077931 9.419372
vertex 4.658561 14.077931 9.439371
endloop
endfacet
facet normal 0 0 0
outer loop
vertex 4.638085 14.077931 9.419372
vertex 4.638085 14.077931 9.439371
vertex 4.638085 14.098684 9.419372
endloop
endfacet
facet normal 0 0 0
outer loop
vertex 4.638085 14.077931 9.439371
vertex 4.638085 14.098684 9.439371
vertex 4.638085 14.098684 9.419372
endloop
endfacet
facet normal 0 0 0
outer loop
vertex 4.658561 14.077931 9.419372
vertex 4.638085 14.098684 9.419372
vertex 4.658561 14.098684 9.439371
endloop
endfacet
facet normal 0 0 0
outer loop
vertex 4.658561 14.077931 9.419372
vertex 4.658561 14.098684 9.439371
vertex 4.658561 14.077931 9.439371
endloop
endfacet
facet normal 0 0 0
outer loop
vertex 4.638085 14.119438 9.439371
vertex 4.638085 14.098684 9.419372
vertex 4.638085 14.098684 9.439371
endloop
endfacet
facet normal 0 0 0
outer loop
vertex 4.638085 14.098684 9.419372
vertex 4.638085 14.119438 9.439371
vertex 4.658561 14.098684 9.439371
endloop
endfacet
facet normal 0 0 0
outer loop
vertex 4.638085 14.119438 9.439371
vertex 4.658561 14.119438 9.439371
vertex 4.658561 14.098684 9.439371
endloop
endfacet
facet normal 0 0 0
outer loop
vertex 4.658561 14.119438 9.439371
vertex 4.638085 14.119438 9.439371
vertex 4.658561 14.140191 9.439371
endloop
endfacet
facet normal 0 0 0
outer loop
vertex 4.658561 14.140191 9.439371
vertex 4.638085 14.119438 9.439371
vertex 4.638085 14.140191 9.439371
endloop
endfacet
facet normal 0 0 0
outer loop
vertex 4.658561 14.140191 9.439371
vertex 4.638085 14.140191 9.439371
vertex 4.658561 14.160945 9.439371
endloop
endfacet
facet normal 0 0 0
outer loop
vertex 4.658561 14.160945 9.439371
vertex 4.638085 14.140191 9.439371
vertex 4.638085 14.160945 9.439371
endloop
endfacet
facet normal 0 0 0
outer loop
vertex 4.658561 14.015671 9.439371
vertex 4.658561 14.036425 9.439371
vertex 4.638085 14.015671 9.439371
endloop
endfacet
facet normal 0 0 0
outer loop
vertex 4.658561 14.036425 9.439371
vertex 4.638085 14.036425 9.439371
vertex 4.638085 14.015671 9.439371
endloop
endfacet
facet normal 0 0 0
outer loop
vertex 4.658561 14.015671 9.439371
vertex 4.679036 14.036425 9.439371
vertex 4.658561 14.036425 9.439371
endloop
endfacet
facet normal 0 0 0
outer loop
vertex 4.658561 14.036425 9.439371
vertex 4.658561 14.057178 9.439371
vertex 4.638085 14.036425 9.439371
endloop
endfacet
facet normal 0 0 0
outer loop
vertex 4.658561 14.057178 9.439371
vertex 4.638085 14.057178 9.439371
vertex 4.638085 14.036425 9.439371
endloop
endfacet
facet normal 0 0 0
outer loop
vertex 4.679036 14.036425 9.439371
vertex 4.658561 14.057178 9.439371
vertex 4.658561 14.036425 9.439371
endloop
endfacet
facet normal 0 0 0
outer loop
vertex 4.638085 14.057178 9.439371
vertex 4.638085 14.077931 9.459372
vertex 4.638085 14.077931 9.439371
endloop
endfacet
facet normal 0 0 0
outer loop
vertex 4.658561 14.057178 9.439371
vertex 4.638085 14.077931 9.459372
vertex 4.638085 14.057178 9.439371
endloop
endfacet
facet normal 0 0 0
outer loop
vertex 4.658561 14.077931 9.459372
vertex 4.638085 14.077931 9.459372
vertex 4.658561 14.057178 9.439371
endloop
endfacet
facet normal 0 0 0
outer loop
vertex 4.658561 14.077931 9.459372
vertex 4.658561 14.057178 9.439371
vertex 4.658561 14.077931 9.439371
endloop
endfacet
facet normal 0 0 0
outer loop
vertex 4.617609 14.098684 9.459372
vertex 4.638085 14.098684 9.439371
vertex 4.638085 14.077931 9.459372
endloop
endfacet
facet normal 0 0 0
outer loop
vertex 4.638085 14.098684 9.439371
vertex 4.638085 14.077931 9.439371
vertex 4.638085 14.077931 9.459372
endloop
endfacet
facet normal 0 0 0
outer loop
vertex 4.658561 14.077931 9.439371
vertex 4.658561 14.098684 9.439371
vertex 4.658561 14.077931 9.459372
endloop
endfacet
facet normal 0 0 0
outer loop
vertex 4.658561 14.077931 9.459372
vertex 4.658561 14.098684 9.439371
vertex 4.658561 14.098684 9.459372
endloop
endfacet
facet normal 0 0 0
outer loop
vertex 4.617609 14.098684 9.459372
vertex 4.638085 14.119438 9.459372
vertex 4.638085 14.098684 9.439371
endloop
endfacet
facet normal 0 0 0
outer loop
vertex 4.638085 14.119438 9.459372
vertex 4.638085 14.119438 9.439371
vertex 4.638085 14.098684 9.439371
endloop
endfacet
facet normal 0 0 0
outer loop
vertex 4.658561 14.098684 9.439371
vertex 4.658561 14.119438 9.439371
vertex 4.658561 14.098684 9.459372
endloop
endfacet
facet normal 0 0 0
outer loop
vertex 4.658561 14.098684 9.459372
vertex 4.658561 14.119438 9.439371
vertex 4.658561 14.119438 9.459372
endloop
endfacet
facet normal 0 0 0
outer loop
vertex 4.617609 14.140191 9.459372
vertex 4.638085 14.140191 9.439371
vertex 4.638085 14.119438 9.459372
endloop
endfacet
facet normal 0 0 0
outer loop
vertex 4.638085 14.140191 9.439371
vertex 4.638085 14.119438 9.439371
vertex 4.638085 14.119438 9.459372
endloop
endfacet
facet normal 0 0 0
outer loop
vertex 4.658561 14.119438 9.439371
vertex 4.658561 14.140191 9.439371
vertex 4.658561 14.119438 9.459372
endloop
endfacet
facet normal 0 0 0
outer loop
vertex 4.658561 14.119438 9.459372
vertex 4.658561 14.140191 9.439371
vertex 4.658561 14.140191 9.459372
endloop
endfacet
facet normal 0 0 0
outer loop
vertex 4.638085 14.140191 9.439371
vertex 4.617609 14.160945 9.459372
vertex 4.638085 14.160945 9.439371
endloop
endfacet
facet normal 0 0 0
outer loop
vertex 4.617609 14.140191 9.459372
vertex 4.617609 14.160945 9.459372
vertex 4.638085 14.140191 9.439371
endloop
endfacet
facet normal 0 0 0
outer loop
vertex 4.658561 14.140191 9.439371
vertex 4.658561 14.160945 9.439371
vertex 4.658561 14.140191 9.459372
endloop
endfacet
facet normal 0 0 0
outer loop
vertex 4.658561 14.140191 9.459372
vertex 4.658561 14.160945 9.439371
vertex 4.658561 14.160945 9.459372
endloop
endfacet
facet normal 0 0 0
outer loop
vertex 4.638085 14.160945 9.439371
vertex 4.617609 14.160945 9.459372
vertex 4.638085 14.181698 9.459372
endloop
endfacet
facet normal 0 0 0
outer loop
vertex 4.638085 14.160945 9.439371
vertex 4.658561 14.181698 9.459372
vertex 4.658561 14.160945 9.439371
endloop
endfacet
facet normal 0 0 0
outer loop
vertex 4.638085 14.181698 9.459372
vertex 4.658561 14.181698 9.459372
vertex 4.638085 14.160945 9.439371
endloop
endfacet
facet normal 0 0 0
outer loop
vertex 4.658561 14.160945 9.439371
vertex 4.658561 14.181698 9.459372
vertex 4.658561 14.160945 9.459372
endloop
endfacet
facet normal 0 0 0
outer loop
vertex 4.638085 14.181698 9.459372
vertex 4.617609 14.202451 9.459372
vertex 4.638085 14.202451 9.459372
endloop
endfacet
facet normal 0 0 0
outer loop
vertex 4.658561 14.181698 9.459372
vertex 4.638085 14.181698 9.459372
vertex 4.658561 14.202451 9.459372
endloop
endfacet
facet normal 0 0 0
outer loop
vertex 4.658561 14.202451 9.459372
vertex 4.638085 14.181698 9.459372
vertex 4.638085 14.202451 9.459372
endloop
endfacet
facet normal 0 0 0
outer loop
vertex 4.617609 14.202451 9.459372
vertex 4.638085 14.223205 9.459372
vertex 4.638085 14.202451 9.459372
endloop
endfacet
facet normal 0 0 0
outer loop
vertex 4.658561 14.202451 9.459372
vertex 4.638085 14.202451 9.459372
vertex 4.658561 14.223205 9.459372
endloop
endfacet
facet normal 0 0 0
outer loop
vertex 4.658561 14.223205 9.459372
vertex 4.638085 14.202451 9.459372
vertex 4.638085 14.223205 9.459372
endloop
endfacet
facet normal 0 0 0
outer loop
vertex 4.617609 14.098684 9.459372
vertex 4.638085 14.077931 9.459372
vertex 4.638085 14.098684 9.459372
endloop
endfacet
facet normal 0 0 0
outer loop
vertex 4.658561 14.077931 9.459372
vertex 4.658561 14.098684 9.459372
vertex 4.638085 14.077931 9.459372
endloop
endfacet
facet normal 0 0 0
outer loop
vertex 4.658561 14.098684 9.459372
vertex 4.638085 14.098684 9.459372
vertex 4.638085 14.077931 9.459372
endloop
endfacet
facet normal 0 0 0
outer loop
vertex 4.638085 14.119438 9.479372
vertex 4.617609 14.098684 9.459372
vertex 4.638085 14.098684 9.459372
endloop
endfacet
facet normal 0 0 0
outer loop
vertex 4.638085 14.119438 9.479372
vertex 4.638085 14.119438 9.459372
vertex 4.617609 14.098684 9.459372
endloop
endfacet
facet normal 0 0 0
outer loop
vertex 4.638085 14.119438 9.479372
vertex 4.638085 14.098684 9.459372
vertex 4.658561 14.119438 9.459372
endloop
endfacet
facet normal 0 0 0
outer loop
vertex 4.638085 14.098684 9.459372
vertex 4.658561 14.098684 9.459372
vertex 4.658561 14.119438 9.459372
endloop
endfacet
facet normal 0 0 0
outer loop
vertex 4.638085 14.119438 9.479372
vertex 4.617609 14.140191 9.459372
vertex 4.638085 14.119438 9.459372
endloop
endfacet
facet normal 0 0 0
outer loop
vertex 4.617609 14.140191 9.479372
vertex 4.617609 14.140191 9.459372
vertex 4.638085 14.119438 9.479372
endloop
endfacet
facet normal 0 0 0
outer loop
vertex 4.658561 14.119438 9.459372
vertex 4.658561 14.140191 9.479372
vertex 4.638085 14.119438 9.479372
endloop
endfacet
facet normal 0 0 0
outer loop
vertex 4.658561 14.140191 9.479372
vertex 4.658561 14.119438 9.459372
vertex 4.658561 14.140191 9.459372
endloop
endfacet
facet normal 0 0 0
outer loop
vertex 4.617609 14.140191 9.459372
vertex 4.617609 14.140191 9.479372
vertex 4.617609 14.160945 9.459372
endloop
endfacet
facet normal 0 0 0
outer loop
vertex 4.617609 14.140191 9.479372
vertex 4.617609 14.160945 9.479372
vertex 4.617609 14.160945 9.459372
endloop
endfacet
facet normal 0 0 0
outer loop
vertex 4.658561 14.140191 9.459372
vertex 4.658561 14.160945 9.459372
vertex 4.658561 14.140191 9.479372
endloop
endfacet
facet normal 0 0 0
outer loop
vertex 4.658561 14.140191 9.479372
vertex 4.658561 14.160945 9.459372
vertex 4.658561 14.160945 9.479372
endloop
endfacet
facet normal 0 0 0
outer loop
vertex 4.617609 14.181698 9.479372
vertex 4.617609 14.160945 9.459372
vertex 4.617609 14.160945 9.479372
endloop
endfacet
facet normal 0 0 0
outer loop
vertex 4.617609 14.160945 9.459372
vertex 4.617609 14.181698 9.479372
vertex 4.638085 14.181698 9.459372
endloop
endfacet
facet normal 0 0 0
outer loop
vertex 4.658561 14.160945 9.459372
vertex 4.658561 14.181698 9.459372
vertex 4.658561 14.160945 9.479372
endloop
endfacet
facet normal 0 0 0
outer loop
vertex 4.658561 14.160945 9.479372
vertex 4.658561 14.181698 9.459372
vertex 4.658561 14.181698 9.479372
endloop
endfacet
facet normal 0 0 0
outer loop
vertex 4.617609 14.202451 9.459372
vertex 4.617609 14.181698 9.479372
vertex 4.617609 14.202451 9.479372
endloop
endfacet
facet normal 0 0 0
outer loop
vertex 4.638085 14.181698 9.459372
vertex 4.617609 14.181698 9.479372
vertex 4.617609 14.202451 9.459372
endloop
endfacet
facet normal 0 0 0
outer loop
vertex 4.658561 14.181698 9.459372
vertex 4.658561 14.202451 9.459372
vertex 4.658561 14.181698 9.479372
endloop
endfacet
facet normal 0 0 0
outer loop
vertex 4.658561 14.181698 9.479372
vertex 4.658561 14.202451 9.459372
vertex 4.658561 14.202451 9.479372
endloop
endfacet
facet normal 0 0 0
outer loop
vertex 4.617609 14.223205 9.479372
vertex 4.617609 14.202451 9.459372
vertex 4.617609 14.202451 9.479372
endloop
endfacet
facet normal 0 0 0
outer loop
vertex 4.617609 14.202451 9.459372
vertex 4.617609 14.223205 9.479372
vertex 4.638085 14.223205 9.459372
endloop
endfacet
facet normal 0 0 0
outer loop
vertex 4.658561 14.202451 9.459372
vertex 4.658561 14.223205 9.459372
vertex 4.658561 14.202451 9.479372
endloop
endfacet
facet normal 0 0 0
outer loop
vertex 4.658561 14.202451 9.479372
vertex 4.658561 14.223205 9.459372
vertex 4.658561 14.223205 9.479372
endloop
endfacet
facet normal 0 0 0
outer loop
vertex 4.638085 14.223205 9.459372
vertex 4.617609 14.223205 9.479372
vertex 4.638085 14.243958 9.479372
endloop
endfacet
facet normal 0 0 0
outer loop
vertex 4.617609 14.223205 9.479372
vertex 4.617609 14.243958 9.479372
vertex 4.638085 14.243958 9.479372
endloop
endfacet
facet normal 0 0 0
outer loop
vertex 4.638085 14.223205 9.459372
vertex 4.658561 14.243958 9.479372
vertex 4.658561 14.223205 9.459372
endloop
endfacet
facet normal 0 0 0
outer loop
vertex 4.638085 14.243958 9.479372
vertex 4.658561 14.243958 9.479372
vertex 4.638085 14.223205 9.459372
endloop
endfacet
facet normal 0 0 0
outer loop
vertex 4.658561 14.223205 9.459372
vertex 4.658561 14.243958 9.479372
vertex 4.658561 14.223205 9.479372
endloop
endfacet
facet normal 0 0 0
outer loop
vertex 4.638085 14.243958 9.479372
vertex 4.617609 14.243958 9.479372
vertex 4.638085 14.264711 9.479372
endloop
endfacet
facet normal 0 0 0
outer loop
vertex 4.638085 14.264711 9.479372
vertex 4.617609 14.243958 9.479372
vertex 4.617609 14.264711 9.479372
endloop
endfacet
facet normal 0 0 0
outer loop
vertex 4.658561 14.243958 9.479372
vertex 4.638085 14.243958 9.479372
vertex 4.658561 14.264711 9.479372
endloop
endfacet
facet normal 0 0 0
outer loop
vertex 4.658561 14.264711 9.479372
vertex 4.638085 14.243958 9.479372
vertex 4.638085 14.264711 9.479372
endloop
endfacet
facet normal 0 0 0
outer loop
vertex 4.638085 14.264711 9.479372
vertex 4.617609 14.264711 9.479372
vertex 4.638085 14.285464 9.479372
endloop
endfacet
facet normal 0 0 0
outer loop
vertex 4.638085 14.285464 9.479372
vertex 4.617609 14.264711 9.479372
vertex 4.617609 14.285464 9.479372
endloop
endfacet
facet normal 0 0 0
outer loop
vertex 4.658561 14.264711 9.479372
vertex 4.638085 14.264711 9.479372
vertex 4.658561 14.285464 9.479372
endloop
endfacet
facet normal 0 0 0
outer loop
vertex 4.658561 14.285464 9.479372
vertex 4.638085 14.264711 9.479372
vertex 4.638085 14.285464 9.479372
endloop
endfacet
facet normal 0 0 0
outer loop
vertex 4.638085 14.285464 9.479372
vertex 4.617609 14.285464 9.479372
vertex 4.638085 14.306217 9.479372
endloop
endfacet
facet normal 0 0 0
outer loop
vertex 4.638085 14.306217 9.479372
vertex 4.617609 14.285464 9.479372
vertex 4.617609 14.306217 9.479372
endloop
endfacet
facet normal 0 0 0
outer loop
vertex 4.658561 14.285464 9.479372
vertex 4.638085 14.285464 9.479372
vertex 4.658561 14.306217 9.479372
endloop
endfacet
facet normal 0 0 0
outer loop
vertex 4.658561 14.306217 9.479372
vertex 4.638085 14.285464 9.479372
vertex 4.638085 14.306217 9.479372
endloop
endfacet
facet normal 0 0 0
outer loop
vertex 4.638085 14.306217 9.479372
vertex 4.617609 14.306217 9.479372
vertex 4.638085 14.326971 9.479372
endloop
endfacet
facet normal 0 0 0
outer loop
vertex 4.638085 14.326971 9.479372
vertex 4.617609 14.306217 9.479372
vertex 4.617609 14.326971 9.479372
endloop
endfacet
facet normal 0 0 0
outer loop
vertex 4.638085 14.326971 9.479372
vertex 4.658561 14.306217 9.479372
vertex 4.638085 14.306217 9.479372
endloop
endfacet
facet normal 0 0 0
outer loop
vertex 4.617609 14.140191 9.479372
vertex 4.638085 14.119438 9.479372
vertex 4.638085 14.140191 9.479372
endloop
endfacet
facet normal 0 0 0
outer loop
vertex 4.638085 14.119438 9.479372
vertex 4.658561 14.140191 9.479372
vertex 4.638085 14.140191 9.479372
endloop
endfacet
facet normal 0 0 0
outer loop
vertex 4.638085 14.140191 9.479372
vertex 4.638085 14.160945 9.479372
vertex 4.617609 14.140191 9.479372
endloop
endfacet
facet normal 0 0 0
outer loop
vertex 4.638085 14.160945 9.479372
vertex 4.617609 14.160945 9.479372
vertex 4.617609 14.140191 9.479372
endloop
endfacet
facet normal 0 0 0
outer loop
vertex 4.658561 14.140191 9.479372
vertex 4.658561 14.160945 9.479372
vertex 4.638085 14.140191 9.479372
endloop
endfacet
facet normal 0 0 0
outer loop
vertex 4.658561 14.160945 9.479372
vertex 4.638085 14.160945 9.479372
vertex 4.638085 14.140191 9.479372
endloop
endfacet
facet normal 0 0 0
outer loop
vertex 4.638085 14.160945 9.479372
vertex 4.638085 14.181698 9.479372
vertex 4.617609 14.160945 9.479372
endloop
endfacet
facet normal 0 0 0
outer loop
vertex 4.638085 14.181698 9.479372
vertex 4.617609 14.181698 9.479372
vertex 4.617609 14.160945 9.479372
endloop
endfacet
facet normal 0 0 0
outer loop
vertex 4.658561 14.160945 9.479372
vertex 4.658561 14.181698 9.479372
vertex 4.638085 14.160945 9.479372
endloop
endfacet
facet normal 0 0 0
outer loop
vertex 4.658561 14.181698 9.479372
vertex 4.638085 14.181698 9.479372
vertex 4.638085 14.160945 9.479372
endloop
endfacet
facet normal 0 0 0
outer loop
vertex 4.638085 14.181698 9.479372
vertex 4.638085 14.202451 9.479372
vertex 4.617609 14.181698 9.479372
endloop
endfacet
facet normal 0 0 0
outer loop
vertex 4.638085 14.202451 9.479372
vertex 4.617609 14.202451 9.479372
vertex 4.617609 14.181698 9.479372
endloop
endfacet
facet normal 0 0 0
outer loop
vertex 4.658561 14.181698 9.479372
vertex 4.658561 14.202451 9.479372
vertex 4.638085 14.181698 9.479372
endloop
endfacet
facet normal 0 0 0
outer loop
vertex 4.658561 14.202451 9.479372
vertex 4.638085 14.202451 9.479372
vertex 4.638085 14.181698 9.479372
endloop
endfacet
facet normal 0 0 0
outer loop
vertex 4.638085 14.223205 9.499372
vertex 4.617609 14.223205 9.479372
vertex 4.638085 14.202451 9.479372
endloop
endfacet
facet normal 0 0 0
outer loop
vertex 4.617609 14.223205 9.479372
vertex 4.617609 14.202451 9.479372
vertex 4.638085 14.202451 9.479372
endloop
endfacet
facet normal 0 0 0
outer loop
vertex 4.638085 14.223205 9.499372
vertex 4.638085 14.202451 9.479372
vertex 4.658561 14.223205 9.479372
endloop
endfacet
facet normal 0 0 0
outer loop
vertex 4.638085 14.202451 9.479372
vertex 4.658561 14.202451 9.479372
vertex 4.658561 14.223205 9.479372
endloop
endfacet
facet normal 0 0 0
outer loop
vertex 4.638085 14.243958 9.499372
vertex 4.617609 14.223205 9.479372
vertex 4.638085 14.223205 9.499372
endloop
endfacet
facet normal 0 0 0
outer loop
vertex 4.617609 14.243958 9.479372
vertex 4.617609 14.223205 9.479372
vertex 4.638085 14.243958 9.499372
endloop
endfacet
facet normal 0 0 0
outer loop
vertex 4.658561 14.223205 9.479372
vertex 4.658561 14.243958 9.499372
vertex 4.638085 14.223205 9.499372
endloop
endfacet
facet normal 0 0 0
outer loop
vertex 4.658561 14.243958 9.499372
vertex 4.658561 14.223205 9.479372
vertex 4.658561 14.243958 9.479372
endloop
endfacet
facet normal 0 0 0
outer loop
vertex 4.638085 14.264711 9.499372
vertex 4.617609 14.243958 9.479372
vertex 4.638085 14.243958 9.499372
endloop
endfacet
facet normal 0 0 0
outer loop
vertex 4.617609 14.264711 9.479372
vertex 4.617609 14.243958 9.479372
vertex 4.638085 14.264711 9.499372
endloop
endfacet
facet normal 0 0 0
outer loop
vertex 4.658561 14.243958 9.479372
vertex 4.658561 14.264711 9.479372
vertex 4.658561 14.243958 9.499372
endloop
endfacet
facet normal 0 0 0
outer loop
vertex 4.658561 14.243958 9.499372
vertex 4.658561 14.264711 9.479372
vertex 4.658561 14.264711 9.499372
endloop
endfacet
facet normal 0 0 0
outer loop
vertex 4.638085 14.285464 9.499372
vertex 4.617609 14.264711 9.479372
vertex 4.638085 14.264711 9.499372
endloop
endfacet
facet normal 0 0 0
outer loop
vertex 4.617609 14.285464 9.479372
vertex 4.617609 14.264711 9.479372
vertex 4.638085 14.285464 9.499372
endloop
endfacet
facet normal 0 0 0
outer loop
vertex 4.658561 14.264711 9.479372
vertex 4.658561 14.285464 9.479372
vertex 4.658561 14.264711 9.499372
endloop
endfacet
facet normal 0 0 0
outer loop
vertex 4.658561 14.264711 9.499372
vertex 4.658561 14.285464 9.479372
vertex 4.658561 14.285464 9.499372
endloop
endfacet
facet normal 0 0 0
outer loop
vertex 4.638085 14.306217 9.499372
vertex 4.617609 14.285464 9.479372
vertex 4.638085 14.285464 9.499372
endloop
endfacet
facet normal 0 0 0
outer loop
vertex 4.617609 14.306217 9.479372
vertex 4.617609 14.285464 9.479372
vertex 4.638085 14.306217 9.499372
endloop
endfacet
facet normal 0 0 0
outer loop
vertex 4.658561 14.285464 9.479372
vertex 4.658561 14.306217 9.479372
vertex 4.658561 14.285464 9.499372
endloop
endfacet
facet normal 0 0 0
outer loop
vertex 4.658561 14.285464 9.499372
vertex 4.658561 14.306217 9.479372
vertex 4.658561 14.306217 9.499372
endloop
endfacet
facet normal 0 0 0
outer loop
vertex 4.638085 14.326971 9.499372
vertex 4.617609 14.306217 9.479372
vertex 4.638085 14.306217 9.499372
endloop
endfacet
facet normal 0 0 0
outer loop
vertex 4.617609 14.326971 9.479372
vertex 4.617609 14.306217 9.479372
vertex 4.638085 14.326971 9.499372
endloop
endfacet
facet normal 0 0 0
outer loop
vertex 4.658561 14.306217 9.479372
vertex 4.638085 14.326971 9.479372
vertex 4.658561 14.326971 9.499372
endloop
endfacet
facet normal 0 0 0
outer loop
vertex 4.679036 14.326971 9.499372
vertex 4.658561 14.306217 9.499372
vertex 4.658561 14.306217 9.479372
endloop
endfacet
facet normal 0 0 0
outer loop
vertex 4.679036 14.326971 9.499372
vertex 4.658561 14.306217 9.479372
vertex 4.658561 14.326971 9.499372
endloop
endfacet
facet normal 0 0 0
outer loop
vertex 4.617609 14.326971 9.479372
vertex 4.638085 14.347725 9.499372
vertex 4.638085 14.326971 9.479372
endloop
endfacet
facet normal 0 0 0
outer loop
vertex 4.617609 14.326971 9.479372
vertex 4.638085 14.326971 9.499372
vertex 4.638085 14.347725 9.499372
endloop
endfacet
facet normal 0 0 0
outer loop
vertex 4.638085 14.326971 9.479372
vertex 4.638085 14.347725 9.499372
vertex 4.658561 14.326971 9.499372
endloop
endfacet
facet normal 0 0 0
outer loop
vertex 4.638085 14.347725 9.499372
vertex 4.658561 14.347725 9.499372
vertex 4.658561 14.326971 9.499372
endloop
endfacet
facet normal 0 0 0
outer loop
vertex 4.679036 14.326971 9.499372
vertex 4.658561 14.326971 9.499372
vertex 4.679036 14.347725 9.499372
endloop
endfacet
facet normal 0 0 0
outer loop
vertex 4.679036 14.347725 9.499372
vertex 4.658561 14.326971 9.499372
vertex 4.658561 14.347725 9.499372
endloop
endfacet
facet normal 0 0 0
outer loop
vertex 4.658561 14.347725 9.499372
vertex 4.638085 14.347725 9.499372
vertex 4.658561 14.368477 9.499372
endloop
endfacet
facet normal 0 0 0
outer loop
vertex 4.658561 14.368477 9.499372
vertex 4.638085 14.347725 9.499372
vertex 4.638085 14.368477 9.499372
endloop
endfacet
facet normal 0 0 0
outer loop
vertex 4.658561 14.368477 9.499372
vertex 4.679036 14.347725 9.499372
vertex 4.658561 14.347725 9.499372
endloop
endfacet
facet normal 0 0 0
outer loop
vertex 4.658561 14.368477 9.499372
vertex 4.638085 14.368477 9.499372
vertex 4.658561 14.389231 9.499372
endloop
endfacet
facet normal 0 0 0
outer loop
vertex 4.658561 14.389231 9.499372
vertex 4.638085 14.368477 9.499372
vertex 4.638085 14.389231 9.499372
endloop
endfacet
facet normal 0 0 0
outer loop
vertex 4.638085 14.223205 9.499372
vertex 4.658561 14.243958 9.499372
vertex 4.638085 14.243958 9.499372
endloop
endfacet
facet normal 0 0 0
outer loop
vertex 4.658561 14.243958 9.499372
vertex 4.658561 14.264711 9.499372
vertex 4.638085 14.243958 9.499372
endloop
endfacet
facet normal 0 0 0
outer loop
vertex 4.658561 14.264711 9.499372
vertex 4.638085 14.264711 9.499372
vertex 4.638085 14.243958 9.499372
endloop
endfacet
facet normal 0 0 0
outer loop
vertex 4.658561 14.264711 9.499372
vertex 4.658561 14.285464 9.499372
vertex 4.638085 14.264711 9.499372
endloop
endfacet
facet normal 0 0 0
outer loop
vertex 4.658561 14.285464 9.499372
vertex 4.638085 14.285464 9.499372
vertex 4.638085 14.264711 9.499372
endloop
endfacet
facet normal 0 0 0
outer loop
vertex 4.658561 14.306217 9.519372
vertex 4.638085 14.306217 9.499372
vertex 4.658561 14.285464 9.499372
endloop
endfacet
facet normal 0 0 0
outer loop
vertex 4.638085 14.306217 9.499372
vertex 4.638085 14.285464 9.499372
vertex 4.658561 14.285464 9.499372
endloop
endfacet
facet normal 0 0 0
outer loop
vertex 4.658561 14.285464 9.499372
vertex 4.658561 14.306217 9.499372
vertex 4.679036 14.306217 9.519372
endloop
endfacet
facet normal 0 0 0
outer loop
vertex 4.658561 14.285464 9.499372
vertex 4.679036 14.306217 9.519372
vertex 4.658561 14.306217 9.519372
endloop
endfacet
facet normal 0 0 0
outer loop
vertex 4.638085 14.306217 9.499372
vertex 4.638085 14.326971 9.519372
vertex 4.617609 14.326971 9.519372
endloop
endfacet
facet normal 0 0 0
outer loop
vertex 4.638085 14.306217 9.499372
vertex 4.617609 14.326971 9.519372
vertex 4.638085 14.326971 9.499372
endloop
endfacet
facet normal 0 0 0
outer loop
vertex 4.658561 14.306217 9.519372
vertex 4.638085 14.326971 9.519372
vertex 4.638085 14.306217 9.499372
endloop
endfacet
facet normal 0 0 0
outer loop
vertex 4.658561 14.306217 9.499372
vertex 4.679036 14.326971 9.499372
vertex 4.679036 14.306217 9.519372
endloop
endfacet
facet normal 0 0 0
outer loop
vertex 4.679036 14.306217 9.519372
vertex 4.679036 14.326971 9.499372
vertex 4.679036 14.326971 9.519372
endloop
endfacet
facet normal 0 0 0
outer loop
vertex 4.617609 14.326971 9.519372
vertex 4.638085 14.347725 9.519372
vertex 4.638085 14.326971 9.499372
endloop
endfacet
facet normal 0 0 0
outer loop
vertex 4.638085 14.347725 9.519372
vertex 4.638085 14.347725 9.499372
vertex 4.638085 14.326971 9.499372
endloop
endfacet
facet normal 0 0 0
outer loop
vertex 4.679036 14.326971 9.499372
vertex 4.679036 14.347725 9.499372
vertex 4.679036 14.326971 9.519372
endloop
endfacet
facet normal 0 0 0
outer loop
vertex 4.679036 14.326971 9.519372
vertex 4.679036 14.347725 9.499372
vertex 4.679036 14.347725 9.519372
endloop
endfacet
facet normal 0 0 0
outer loop
vertex 4.638085 14.347725 9.499372
vertex 4.638085 14.347725 9.519372
vertex 4.638085 14.368477 9.499372
endloop
endfacet
facet normal 0 0 0
outer loop
vertex 4.638085 14.347725 9.519372
vertex 4.638085 14.368477 9.519372
vertex 4.638085 14.368477 9.499372
endloop
endfacet
facet normal 0 0 0
outer loop
vertex 4.679036 14.347725 9.499372
vertex 4.658561 14.368477 9.519372
vertex 4.679036 14.347725 9.519372
endloop
endfacet
facet normal 0 0 0
outer loop
vertex 4.658561 14.368477 9.499372
vertex 4.658561 14.368477 9.519372
vertex 4.679036 14.347725 9.499372
endloop
endfacet
facet normal 0 0 0
outer loop
vertex 4.638085 14.368477 9.499372
vertex 4.638085 14.368477 9.519372
vertex 4.638085 14.389231 9.499372
endloop
endfacet
facet normal 0 0 0
outer loop
vertex 4.638085 14.368477 9.519372
vertex 4.638085 14.389231 9.519372
vertex 4.638085 14.389231 9.499372
endloop
endfacet
facet normal 0 0 0
outer loop
vertex 4.679036 14.389231 9.519372
vertex 4.658561 14.368477 9.519372
vertex 4.658561 14.389231 9.499372
endloop
endfacet
facet normal 0 0 0
outer loop
vertex 4.658561 14.368477 9.519372
vertex 4.658561 14.368477 9.499372
vertex 4.658561 14.389231 9.499372
endloop
endfacet
facet normal 0 0 0
outer loop
vertex 4.638085 14.409985 9.519372
vertex 4.638085 14.389231 9.499372
vertex 4.638085 14.389231 9.519372
endloop
endfacet
facet normal 0 0 0
outer loop
vertex 4.638085 14.389231 9.499372
vertex 4.658561 14.409985 9.519372
vertex 4.658561 14.389231 9.499372
endloop
endfacet
facet normal 0 0 0
outer loop
vertex 4.638085 14.409985 9.519372
vertex 4.658561 14.409985 9.519372
vertex 4.638085 14.389231 9.499372
endloop
endfacet
facet normal 0 0 0
outer loop
vertex 4.658561 14.389231 9.499372
vertex 4.658561 14.409985 9.519372
vertex 4.679036 14.389231 9.519372
endloop
endfacet
facet normal 0 0 0
outer loop
vertex 4.658561 14.409985 9.519372
vertex 4.679036 14.409985 9.519372
vertex 4.679036 14.389231 9.519372
endloop
endfacet
facet normal 0 0 0
outer loop
vertex 4.638085 14.326971 9.519372
vertex 4.658561 14.306217 9.519372
vertex 4.658561 14.326971 9.519372
endloop
endfacet
facet normal 0 0 0
outer loop
vertex 4.679036 14.306217 9.519372
vertex 4.679036 14.326971 9.519372
vertex 4.658561 14.306217 9.519372
endloop
endfacet
facet normal 0 0 0
outer loop
vertex 4.679036 14.326971 9.519372
vertex 4.658561 14.326971 9.519372
vertex 4.658561 14.306217 9.519372
endloop
endfacet
facet normal 0 0 0
outer loop
vertex 4.638085 14.347725 9.519372
vertex 4.617609 14.326971 9.519372
vertex 4.638085 14.326971 9.519372
endloop
endfacet
facet normal 0 0 0
outer loop
vertex 4.658561 14.326971 9.519372
vertex 4.658561 14.347725 9.519372
vertex 4.638085 14.326971 9.519372
endloop
endfacet
facet normal 0 0 0
outer loop
vertex 4.658561 14.347725 9.519372
vertex 4.638085 14.347725 9.519372
vertex 4.638085 14.326971 9.519372
endloop
endfacet
facet normal 0 0 0
outer loop
vertex 4.679036 14.326971 9.519372
vertex 4.679036 14.347725 9.519372
vertex 4.658561 14.326971 9.519372
endloop
endfacet
facet normal 0 0 0
outer loop
vertex 4.679036 14.347725 9.519372
vertex 4.658561 14.347725 9.519372
vertex 4.658561 14.326971 9.519372
endloop
endfacet
facet normal 0 0 0
outer loop
vertex 4.658561 14.347725 9.519372
vertex 4.658561 14.368477 9.519372
vertex 4.638085 14.347725 9.519372
endloop
endfacet
facet normal 0 0 0
outer loop
vertex 4.658561 14.368477 9.519372
vertex 4.638085 14.368477 9.519372
vertex 4.638085 14.347725 9.519372
endloop
endfacet
facet normal 0 0 0
outer loop
vertex 4.679036 14.347725 9.519372
vertex 4.658561 14.368477 9.519372
vertex 4.658561 14.347725 9.519372
endloop
endfacet
facet normal 0 0 0
outer loop
vertex 4.638085 14.368477 9.519372
vertex 4.638085 14.389231 9.539371
vertex 4.638085 14.389231 9.519372
endloop
endfacet
facet normal 0 0 0
outer loop
vertex 4.638085 14.389231 9.539371
vertex 4.638085 14.368477 9.519372
vertex 4.658561 14.389231 9.519372
endloop
endfacet
facet normal 0 0 0
outer loop
vertex 4.638085 14.368477 9.519372
vertex 4.658561 14.368477 9.519372
vertex 4.658561 14.389231 9.519372
endloop
endfacet
facet normal 0 0 0
outer loop
vertex 4.658561 14.368477 9.519372
vertex 4.679036 14.389231 9.519372
vertex 4.658561 14.389231 9.519372
endloop
endfacet
facet normal 0 0 0
outer loop
vertex 4.638085 14.389231 9.539371
vertex 4.638085 14.409985 9.519372
vertex 4.638085 14.389231 9.519372
endloop
endfacet
facet normal 0 0 0
outer loop
vertex 4.638085 14.389231 9.539371
vertex 4.658561 14.389231 9.519372
vertex 4.638085 14.409985 9.519372
endloop
endfacet
facet normal 0 0 0
outer loop
vertex 4.658561 14.389231 9.519372
vertex 4.658561 14.409985 9.519372
vertex 4.638085 14.409985 9.519372
endloop
endfacet
facet normal 0 0 0
outer loop
vertex 4.679036 14.389231 9.519372
vertex 4.679036 14.409985 9.519372
vertex 4.658561 14.389231 9.519372
endloop
endfacet
facet normal 0 0 0
outer loop
vertex 4.679036 14.409985 9.519372
vertex 4.658561 14.409985 9.519372
vertex 4.658561 14.389231 9.519372
endloop
endfacet
endsolid B-16-Plag.216
