solid B-16-Plag.083
facet normal 0 0 0
outer loop
vertex 21.510143 13.102525 5.739372
vertex 21.489668 13.102525 5.739372
vertex 21.510143 13.123279 5.739372
endloop
endfacet
facet normal 0 0 0
outer loop
vertex 21.510143 13.123279 5.739372
vertex 21.489668 13.102525 5.739372
vertex 21.489668 13.123279 5.739372
endloop
endfacet
facet normal 0 0 0
outer loop
vertex 21.530619 13.102525 5.739372
vertex 21.510143 13.102525 5.739372
vertex 21.530619 13.123279 5.739372
endloop
endfacet
facet normal 0 0 0
outer loop
vertex 21.530619 13.123279 5.739372
vertex 21.510143 13.102525 5.739372
vertex 21.510143 13.123279 5.739372
endloop
endfacet
facet normal 0 0 0
outer loop
vertex 21.551096 13.102525 5.739372
vertex 21.530619 13.102525 5.739372
vertex 21.551096 13.123279 5.739372
endloop
endfacet
facet normal 0 0 0
outer loop
vertex 21.551096 13.123279 5.739372
vertex 21.530619 13.102525 5.739372
vertex 21.530619 13.123279 5.739372
endloop
endfacet
facet normal 0 0 0
outer loop
vertex 21.571571 13.102525 5.739372
vertex 21.551096 13.102525 5.739372
vertex 21.571571 13.123279 5.739372
endloop
endfacet
facet normal 0 0 0
outer loop
vertex 21.571571 13.123279 5.739372
vertex 21.551096 13.102525 5.739372
vertex 21.551096 13.123279 5.739372
endloop
endfacet
facet normal 0 0 0
outer loop
vertex 21.592047 13.102525 5.739372
vertex 21.571571 13.102525 5.739372
vertex 21.592047 13.123279 5.739372
endloop
endfacet
facet normal 0 0 0
outer loop
vertex 21.592047 13.123279 5.739372
vertex 21.571571 13.102525 5.739372
vertex 21.571571 13.123279 5.739372
endloop
endfacet
facet normal 0 0 0
outer loop
vertex 21.612522 13.123279 5.739372
vertex 21.592047 13.102525 5.739372
vertex 21.592047 13.123279 5.739372
endloop
endfacet
facet normal 0 0 0
outer loop
vertex 21.530619 13.123279 5.739372
vertex 21.551096 13.144032 5.739372
vertex 21.551096 13.123279 5.739372
endloop
endfacet
facet normal 0 0 0
outer loop
vertex 21.571571 13.123279 5.739372
vertex 21.551096 13.123279 5.739372
vertex 21.571571 13.144032 5.739372
endloop
endfacet
facet normal 0 0 0
outer loop
vertex 21.571571 13.144032 5.739372
vertex 21.551096 13.123279 5.739372
vertex 21.551096 13.144032 5.739372
endloop
endfacet
facet normal 0 0 0
outer loop
vertex 21.592047 13.123279 5.739372
vertex 21.571571 13.123279 5.739372
vertex 21.592047 13.144032 5.739372
endloop
endfacet
facet normal 0 0 0
outer loop
vertex 21.592047 13.144032 5.739372
vertex 21.571571 13.123279 5.739372
vertex 21.571571 13.144032 5.739372
endloop
endfacet
facet normal 0 0 0
outer loop
vertex 21.612522 13.123279 5.739372
vertex 21.592047 13.123279 5.739372
vertex 21.612522 13.144032 5.739372
endloop
endfacet
facet normal 0 0 0
outer loop
vertex 21.612522 13.144032 5.739372
vertex 21.592047 13.123279 5.739372
vertex 21.592047 13.144032 5.739372
endloop
endfacet
facet normal 0 0 0
outer loop
vertex 21.632998 13.123279 5.739372
vertex 21.612522 13.123279 5.739372
vertex 21.632998 13.144032 5.739372
endloop
endfacet
facet normal 0 0 0
outer loop
vertex 21.632998 13.144032 5.739372
vertex 21.612522 13.123279 5.739372
vertex 21.612522 13.144032 5.739372
endloop
endfacet
facet normal 0 0 0
outer loop
vertex 21.571571 13.144032 5.739372
vertex 21.551096 13.144032 5.739372
vertex 21.571571 13.164785 5.739372
endloop
endfacet
facet normal 0 0 0
outer loop
vertex 21.571571 13.164785 5.739372
vertex 21.551096 13.144032 5.739372
vertex 21.551096 13.164785 5.739372
endloop
endfacet
facet normal 0 0 0
outer loop
vertex 21.571571 13.164785 5.739372
vertex 21.592047 13.144032 5.739372
vertex 21.571571 13.144032 5.739372
endloop
endfacet
facet normal 0 0 0
outer loop
vertex 21.469193 13.102525 5.759372
vertex 21.489668 13.102525 5.739372
vertex 21.489668 13.102525 5.759372
endloop
endfacet
facet normal 0 0 0
outer loop
vertex 21.510143 13.102525 5.739372
vertex 21.510143 13.102525 5.759372
vertex 21.489668 13.102525 5.739372
endloop
endfacet
facet normal 0 0 0
outer loop
vertex 21.489668 13.102525 5.739372
vertex 21.510143 13.102525 5.759372
vertex 21.489668 13.102525 5.759372
endloop
endfacet
facet normal 0 0 0
outer loop
vertex 21.530619 13.102525 5.739372
vertex 21.530619 13.102525 5.759372
vertex 21.510143 13.102525 5.739372
endloop
endfacet
facet normal 0 0 0
outer loop
vertex 21.510143 13.102525 5.739372
vertex 21.530619 13.102525 5.759372
vertex 21.510143 13.102525 5.759372
endloop
endfacet
facet normal 0 0 0
outer loop
vertex 21.551096 13.102525 5.739372
vertex 21.530619 13.102525 5.759372
vertex 21.530619 13.102525 5.739372
endloop
endfacet
facet normal 0 0 0
outer loop
vertex 21.448715 13.102525 5.759372
vertex 21.428240 13.102525 5.759372
vertex 21.448715 13.123279 5.759372
endloop
endfacet
facet normal 0 0 0
outer loop
vertex 21.448715 13.123279 5.759372
vertex 21.428240 13.102525 5.759372
vertex 21.428240 13.123279 5.759372
endloop
endfacet
facet normal 0 0 0
outer loop
vertex 21.469193 13.102525 5.759372
vertex 21.448715 13.102525 5.759372
vertex 21.469193 13.123279 5.759372
endloop
endfacet
facet normal 0 0 0
outer loop
vertex 21.469193 13.123279 5.759372
vertex 21.448715 13.102525 5.759372
vertex 21.448715 13.123279 5.759372
endloop
endfacet
facet normal 0 0 0
outer loop
vertex 21.489668 13.102525 5.739372
vertex 21.469193 13.123279 5.759372
vertex 21.489668 13.123279 5.739372
endloop
endfacet
facet normal 0 0 0
outer loop
vertex 21.469193 13.102525 5.759372
vertex 21.469193 13.123279 5.759372
vertex 21.489668 13.102525 5.739372
endloop
endfacet
facet normal 0 0 0
outer loop
vertex 21.551096 13.102525 5.739372
vertex 21.551096 13.123279 5.759372
vertex 21.530619 13.102525 5.759372
endloop
endfacet
facet normal 0 0 0
outer loop
vertex 21.571571 13.102525 5.739372
vertex 21.551096 13.123279 5.759372
vertex 21.551096 13.102525 5.739372
endloop
endfacet
facet normal 0 0 0
outer loop
vertex 21.571571 13.123279 5.759372
vertex 21.551096 13.123279 5.759372
vertex 21.571571 13.102525 5.739372
endloop
endfacet
facet normal 0 0 0
outer loop
vertex 21.592047 13.102525 5.739372
vertex 21.571571 13.123279 5.759372
vertex 21.571571 13.102525 5.739372
endloop
endfacet
facet normal 0 0 0
outer loop
vertex 21.592047 13.123279 5.759372
vertex 21.571571 13.123279 5.759372
vertex 21.592047 13.102525 5.739372
endloop
endfacet
facet normal 0 0 0
outer loop
vertex 21.592047 13.102525 5.739372
vertex 21.612522 13.123279 5.739372
vertex 21.592047 13.123279 5.759372
endloop
endfacet
facet normal 0 0 0
outer loop
vertex 21.612522 13.123279 5.739372
vertex 21.612522 13.123279 5.759372
vertex 21.592047 13.123279 5.759372
endloop
endfacet
facet normal 0 0 0
outer loop
vertex 21.632998 13.123279 5.739372
vertex 21.612522 13.123279 5.759372
vertex 21.612522 13.123279 5.739372
endloop
endfacet
facet normal 0 0 0
outer loop
vertex 21.489668 13.123279 5.739372
vertex 21.469193 13.123279 5.759372
vertex 21.489668 13.123279 5.759372
endloop
endfacet
facet normal 0 0 0
outer loop
vertex 21.510143 13.123279 5.739372
vertex 21.489668 13.123279 5.739372
vertex 21.510143 13.123279 5.759372
endloop
endfacet
facet normal 0 0 0
outer loop
vertex 21.489668 13.123279 5.739372
vertex 21.489668 13.123279 5.759372
vertex 21.510143 13.123279 5.759372
endloop
endfacet
facet normal 0 0 0
outer loop
vertex 21.530619 13.144032 5.759372
vertex 21.530619 13.123279 5.739372
vertex 21.510143 13.123279 5.759372
endloop
endfacet
facet normal 0 0 0
outer loop
vertex 21.530619 13.123279 5.739372
vertex 21.510143 13.123279 5.739372
vertex 21.510143 13.123279 5.759372
endloop
endfacet
facet normal 0 0 0
outer loop
vertex 21.530619 13.123279 5.739372
vertex 21.530619 13.144032 5.759372
vertex 21.551096 13.144032 5.739372
endloop
endfacet
facet normal 0 0 0
outer loop
vertex 21.632998 13.123279 5.739372
vertex 21.632998 13.144032 5.759372
vertex 21.612522 13.123279 5.759372
endloop
endfacet
facet normal 0 0 0
outer loop
vertex 21.632998 13.144032 5.759372
vertex 21.632998 13.123279 5.739372
vertex 21.632998 13.144032 5.739372
endloop
endfacet
facet normal 0 0 0
outer loop
vertex 21.530619 13.144032 5.759372
vertex 21.551096 13.164785 5.739372
vertex 21.551096 13.144032 5.739372
endloop
endfacet
facet normal 0 0 0
outer loop
vertex 21.530619 13.144032 5.759372
vertex 21.551096 13.144032 5.759372
vertex 21.551096 13.164785 5.739372
endloop
endfacet
facet normal 0 0 0
outer loop
vertex 21.551096 13.164785 5.739372
vertex 21.571571 13.144032 5.759372
vertex 21.571571 13.164785 5.739372
endloop
endfacet
facet normal 0 0 0
outer loop
vertex 21.551096 13.144032 5.759372
vertex 21.571571 13.144032 5.759372
vertex 21.551096 13.164785 5.739372
endloop
endfacet
facet normal 0 0 0
outer loop
vertex 21.571571 13.164785 5.739372
vertex 21.571571 13.144032 5.759372
vertex 21.592047 13.144032 5.739372
endloop
endfacet
facet normal 0 0 0
outer loop
vertex 21.592047 13.164785 5.759372
vertex 21.592047 13.144032 5.739372
vertex 21.571571 13.144032 5.759372
endloop
endfacet
facet normal 0 0 0
outer loop
vertex 21.592047 13.144032 5.739372
vertex 21.612522 13.164785 5.759372
vertex 21.612522 13.144032 5.739372
endloop
endfacet
facet normal 0 0 0
outer loop
vertex 21.592047 13.164785 5.759372
vertex 21.612522 13.164785 5.759372
vertex 21.592047 13.144032 5.739372
endloop
endfacet
facet normal 0 0 0
outer loop
vertex 21.612522 13.144032 5.739372
vertex 21.632998 13.164785 5.759372
vertex 21.632998 13.144032 5.739372
endloop
endfacet
facet normal 0 0 0
outer loop
vertex 21.612522 13.164785 5.759372
vertex 21.632998 13.164785 5.759372
vertex 21.612522 13.144032 5.739372
endloop
endfacet
facet normal 0 0 0
outer loop
vertex 21.632998 13.144032 5.739372
vertex 21.632998 13.164785 5.759372
vertex 21.632998 13.144032 5.759372
endloop
endfacet
facet normal 0 0 0
outer loop
vertex 21.448715 13.102525 5.759372
vertex 21.448715 13.102525 5.779372
vertex 21.428240 13.102525 5.759372
endloop
endfacet
facet normal 0 0 0
outer loop
vertex 21.428240 13.102525 5.759372
vertex 21.448715 13.102525 5.779372
vertex 21.428240 13.102525 5.779372
endloop
endfacet
facet normal 0 0 0
outer loop
vertex 21.469193 13.102525 5.759372
vertex 21.469193 13.102525 5.779372
vertex 21.448715 13.102525 5.759372
endloop
endfacet
facet normal 0 0 0
outer loop
vertex 21.448715 13.102525 5.759372
vertex 21.469193 13.102525 5.779372
vertex 21.448715 13.102525 5.779372
endloop
endfacet
facet normal 0 0 0
outer loop
vertex 21.489668 13.102525 5.759372
vertex 21.489668 13.102525 5.779372
vertex 21.469193 13.102525 5.759372
endloop
endfacet
facet normal 0 0 0
outer loop
vertex 21.469193 13.102525 5.759372
vertex 21.489668 13.102525 5.779372
vertex 21.469193 13.102525 5.779372
endloop
endfacet
facet normal 0 0 0
outer loop
vertex 21.510143 13.102525 5.759372
vertex 21.489668 13.102525 5.779372
vertex 21.489668 13.102525 5.759372
endloop
endfacet
facet normal 0 0 0
outer loop
vertex 21.407764 13.123279 5.779372
vertex 21.428240 13.123279 5.759372
vertex 21.428240 13.102525 5.779372
endloop
endfacet
facet normal 0 0 0
outer loop
vertex 21.428240 13.123279 5.759372
vertex 21.428240 13.102525 5.759372
vertex 21.428240 13.102525 5.779372
endloop
endfacet
facet normal 0 0 0
outer loop
vertex 21.510143 13.102525 5.759372
vertex 21.510143 13.123279 5.779372
vertex 21.489668 13.102525 5.779372
endloop
endfacet
facet normal 0 0 0
outer loop
vertex 21.530619 13.102525 5.759372
vertex 21.510143 13.123279 5.779372
vertex 21.510143 13.102525 5.759372
endloop
endfacet
facet normal 0 0 0
outer loop
vertex 21.530619 13.123279 5.779372
vertex 21.510143 13.123279 5.779372
vertex 21.530619 13.102525 5.759372
endloop
endfacet
facet normal 0 0 0
outer loop
vertex 21.530619 13.102525 5.759372
vertex 21.551096 13.123279 5.759372
vertex 21.530619 13.123279 5.779372
endloop
endfacet
facet normal 0 0 0
outer loop
vertex 21.551096 13.123279 5.759372
vertex 21.551096 13.123279 5.779372
vertex 21.530619 13.123279 5.779372
endloop
endfacet
facet normal 0 0 0
outer loop
vertex 21.571571 13.123279 5.759372
vertex 21.571571 13.123279 5.779372
vertex 21.551096 13.123279 5.759372
endloop
endfacet
facet normal 0 0 0
outer loop
vertex 21.551096 13.123279 5.759372
vertex 21.571571 13.123279 5.779372
vertex 21.551096 13.123279 5.779372
endloop
endfacet
facet normal 0 0 0
outer loop
vertex 21.592047 13.123279 5.759372
vertex 21.592047 13.123279 5.779372
vertex 21.571571 13.123279 5.759372
endloop
endfacet
facet normal 0 0 0
outer loop
vertex 21.571571 13.123279 5.759372
vertex 21.592047 13.123279 5.779372
vertex 21.571571 13.123279 5.779372
endloop
endfacet
facet normal 0 0 0
outer loop
vertex 21.612522 13.123279 5.759372
vertex 21.592047 13.123279 5.779372
vertex 21.592047 13.123279 5.759372
endloop
endfacet
facet normal 0 0 0
outer loop
vertex 21.428240 13.123279 5.759372
vertex 21.407764 13.123279 5.779372
vertex 21.428240 13.144032 5.779372
endloop
endfacet
facet normal 0 0 0
outer loop
vertex 21.428240 13.123279 5.759372
vertex 21.448715 13.144032 5.779372
vertex 21.448715 13.123279 5.759372
endloop
endfacet
facet normal 0 0 0
outer loop
vertex 21.428240 13.144032 5.779372
vertex 21.448715 13.144032 5.779372
vertex 21.428240 13.123279 5.759372
endloop
endfacet
facet normal 0 0 0
outer loop
vertex 21.448715 13.123279 5.759372
vertex 21.469193 13.144032 5.779372
vertex 21.469193 13.123279 5.759372
endloop
endfacet
facet normal 0 0 0
outer loop
vertex 21.448715 13.144032 5.779372
vertex 21.469193 13.144032 5.779372
vertex 21.448715 13.123279 5.759372
endloop
endfacet
facet normal 0 0 0
outer loop
vertex 21.469193 13.123279 5.759372
vertex 21.489668 13.144032 5.779372
vertex 21.489668 13.123279 5.759372
endloop
endfacet
facet normal 0 0 0
outer loop
vertex 21.469193 13.144032 5.779372
vertex 21.489668 13.144032 5.779372
vertex 21.469193 13.123279 5.759372
endloop
endfacet
facet normal 0 0 0
outer loop
vertex 21.489668 13.123279 5.759372
vertex 21.510143 13.144032 5.779372
vertex 21.510143 13.123279 5.759372
endloop
endfacet
facet normal 0 0 0
outer loop
vertex 21.489668 13.144032 5.779372
vertex 21.510143 13.144032 5.779372
vertex 21.489668 13.123279 5.759372
endloop
endfacet
facet normal 0 0 0
outer loop
vertex 21.510143 13.123279 5.759372
vertex 21.510143 13.144032 5.779372
vertex 21.530619 13.144032 5.759372
endloop
endfacet
facet normal 0 0 0
outer loop
vertex 21.612522 13.123279 5.759372
vertex 21.612522 13.144032 5.779372
vertex 21.592047 13.123279 5.779372
endloop
endfacet
facet normal 0 0 0
outer loop
vertex 21.632998 13.144032 5.759372
vertex 21.612522 13.144032 5.779372
vertex 21.612522 13.123279 5.759372
endloop
endfacet
facet normal 0 0 0
outer loop
vertex 21.530619 13.144032 5.759372
vertex 21.510143 13.144032 5.779372
vertex 21.530619 13.164785 5.779372
endloop
endfacet
facet normal 0 0 0
outer loop
vertex 21.530619 13.144032 5.759372
vertex 21.551096 13.164785 5.779372
vertex 21.551096 13.144032 5.759372
endloop
endfacet
facet normal 0 0 0
outer loop
vertex 21.530619 13.164785 5.779372
vertex 21.551096 13.164785 5.779372
vertex 21.530619 13.144032 5.759372
endloop
endfacet
facet normal 0 0 0
outer loop
vertex 21.551096 13.144032 5.759372
vertex 21.571571 13.164785 5.779372
vertex 21.571571 13.144032 5.759372
endloop
endfacet
facet normal 0 0 0
outer loop
vertex 21.551096 13.164785 5.779372
vertex 21.571571 13.164785 5.779372
vertex 21.551096 13.144032 5.759372
endloop
endfacet
facet normal 0 0 0
outer loop
vertex 21.571571 13.144032 5.759372
vertex 21.571571 13.164785 5.779372
vertex 21.592047 13.164785 5.759372
endloop
endfacet
facet normal 0 0 0
outer loop
vertex 21.632998 13.164785 5.759372
vertex 21.612522 13.144032 5.779372
vertex 21.632998 13.144032 5.759372
endloop
endfacet
facet normal 0 0 0
outer loop
vertex 21.612522 13.164785 5.779372
vertex 21.612522 13.144032 5.779372
vertex 21.632998 13.164785 5.759372
endloop
endfacet
facet normal 0 0 0
outer loop
vertex 21.592047 13.164785 5.759372
vertex 21.571571 13.164785 5.779372
vertex 21.592047 13.164785 5.779372
endloop
endfacet
facet normal 0 0 0
outer loop
vertex 21.612522 13.185538 5.779372
vertex 21.612522 13.164785 5.759372
vertex 21.592047 13.164785 5.779372
endloop
endfacet
facet normal 0 0 0
outer loop
vertex 21.612522 13.164785 5.759372
vertex 21.592047 13.164785 5.759372
vertex 21.592047 13.164785 5.779372
endloop
endfacet
facet normal 0 0 0
outer loop
vertex 21.632998 13.164785 5.759372
vertex 21.612522 13.185538 5.779372
vertex 21.612522 13.164785 5.779372
endloop
endfacet
facet normal 0 0 0
outer loop
vertex 21.632998 13.164785 5.759372
vertex 21.612522 13.164785 5.759372
vertex 21.612522 13.185538 5.779372
endloop
endfacet
facet normal 0 0 0
outer loop
vertex 21.428240 13.102525 5.779372
vertex 21.428240 13.123279 5.799372
vertex 21.407764 13.123279 5.779372
endloop
endfacet
facet normal 0 0 0
outer loop
vertex 21.428240 13.123279 5.799372
vertex 21.407764 13.123279 5.799372
vertex 21.407764 13.123279 5.779372
endloop
endfacet
facet normal 0 0 0
outer loop
vertex 21.448715 13.102525 5.779372
vertex 21.428240 13.123279 5.799372
vertex 21.428240 13.102525 5.779372
endloop
endfacet
facet normal 0 0 0
outer loop
vertex 21.448715 13.123279 5.799372
vertex 21.428240 13.123279 5.799372
vertex 21.448715 13.102525 5.779372
endloop
endfacet
facet normal 0 0 0
outer loop
vertex 21.469193 13.102525 5.779372
vertex 21.448715 13.123279 5.799372
vertex 21.448715 13.102525 5.779372
endloop
endfacet
facet normal 0 0 0
outer loop
vertex 21.469193 13.123279 5.799372
vertex 21.448715 13.123279 5.799372
vertex 21.469193 13.102525 5.779372
endloop
endfacet
facet normal 0 0 0
outer loop
vertex 21.489668 13.102525 5.779372
vertex 21.469193 13.123279 5.799372
vertex 21.469193 13.102525 5.779372
endloop
endfacet
facet normal 0 0 0
outer loop
vertex 21.489668 13.123279 5.799372
vertex 21.469193 13.123279 5.799372
vertex 21.489668 13.102525 5.779372
endloop
endfacet
facet normal 0 0 0
outer loop
vertex 21.510143 13.123279 5.779372
vertex 21.489668 13.123279 5.799372
vertex 21.489668 13.102525 5.779372
endloop
endfacet
facet normal 0 0 0
outer loop
vertex 21.407764 13.144032 5.799372
vertex 21.407764 13.123279 5.779372
vertex 21.407764 13.123279 5.799372
endloop
endfacet
facet normal 0 0 0
outer loop
vertex 21.407764 13.123279 5.779372
vertex 21.407764 13.144032 5.799372
vertex 21.428240 13.144032 5.779372
endloop
endfacet
facet normal 0 0 0
outer loop
vertex 21.510143 13.123279 5.779372
vertex 21.510143 13.144032 5.799372
vertex 21.489668 13.123279 5.799372
endloop
endfacet
facet normal 0 0 0
outer loop
vertex 21.530619 13.123279 5.779372
vertex 21.510143 13.144032 5.799372
vertex 21.510143 13.123279 5.779372
endloop
endfacet
facet normal 0 0 0
outer loop
vertex 21.530619 13.144032 5.799372
vertex 21.510143 13.144032 5.799372
vertex 21.530619 13.123279 5.779372
endloop
endfacet
facet normal 0 0 0
outer loop
vertex 21.551096 13.123279 5.779372
vertex 21.530619 13.144032 5.799372
vertex 21.530619 13.123279 5.779372
endloop
endfacet
facet normal 0 0 0
outer loop
vertex 21.551096 13.144032 5.799372
vertex 21.530619 13.144032 5.799372
vertex 21.551096 13.123279 5.779372
endloop
endfacet
facet normal 0 0 0
outer loop
vertex 21.551096 13.144032 5.799372
vertex 21.551096 13.123279 5.779372
vertex 21.571571 13.144032 5.779372
endloop
endfacet
facet normal 0 0 0
outer loop
vertex 21.551096 13.123279 5.779372
vertex 21.571571 13.123279 5.779372
vertex 21.571571 13.144032 5.779372
endloop
endfacet
facet normal 0 0 0
outer loop
vertex 21.592047 13.123279 5.779372
vertex 21.592047 13.144032 5.779372
vertex 21.571571 13.123279 5.779372
endloop
endfacet
facet normal 0 0 0
outer loop
vertex 21.592047 13.144032 5.779372
vertex 21.571571 13.144032 5.779372
vertex 21.571571 13.123279 5.779372
endloop
endfacet
facet normal 0 0 0
outer loop
vertex 21.592047 13.123279 5.779372
vertex 21.612522 13.144032 5.779372
vertex 21.592047 13.144032 5.779372
endloop
endfacet
facet normal 0 0 0
outer loop
vertex 21.428240 13.144032 5.779372
vertex 21.407764 13.144032 5.799372
vertex 21.428240 13.144032 5.799372
endloop
endfacet
facet normal 0 0 0
outer loop
vertex 21.448715 13.144032 5.779372
vertex 21.428240 13.144032 5.779372
vertex 21.448715 13.144032 5.799372
endloop
endfacet
facet normal 0 0 0
outer loop
vertex 21.428240 13.144032 5.779372
vertex 21.428240 13.144032 5.799372
vertex 21.448715 13.144032 5.799372
endloop
endfacet
facet normal 0 0 0
outer loop
vertex 21.469193 13.164785 5.799372
vertex 21.469193 13.144032 5.779372
vertex 21.448715 13.144032 5.799372
endloop
endfacet
facet normal 0 0 0
outer loop
vertex 21.469193 13.144032 5.779372
vertex 21.448715 13.144032 5.779372
vertex 21.448715 13.144032 5.799372
endloop
endfacet
facet normal 0 0 0
outer loop
vertex 21.469193 13.144032 5.779372
vertex 21.489668 13.164785 5.799372
vertex 21.489668 13.144032 5.779372
endloop
endfacet
facet normal 0 0 0
outer loop
vertex 21.469193 13.164785 5.799372
vertex 21.489668 13.164785 5.799372
vertex 21.469193 13.144032 5.779372
endloop
endfacet
facet normal 0 0 0
outer loop
vertex 21.489668 13.144032 5.779372
vertex 21.510143 13.164785 5.799372
vertex 21.510143 13.144032 5.779372
endloop
endfacet
facet normal 0 0 0
outer loop
vertex 21.489668 13.164785 5.799372
vertex 21.510143 13.164785 5.799372
vertex 21.489668 13.144032 5.779372
endloop
endfacet
facet normal 0 0 0
outer loop
vertex 21.510143 13.144032 5.779372
vertex 21.510143 13.164785 5.799372
vertex 21.530619 13.164785 5.779372
endloop
endfacet
facet normal 0 0 0
outer loop
vertex 21.571571 13.164785 5.779372
vertex 21.551096 13.144032 5.799372
vertex 21.571571 13.144032 5.779372
endloop
endfacet
facet normal 0 0 0
outer loop
vertex 21.551096 13.164785 5.799372
vertex 21.551096 13.144032 5.799372
vertex 21.571571 13.164785 5.779372
endloop
endfacet
facet normal 0 0 0
outer loop
vertex 21.592047 13.144032 5.779372
vertex 21.592047 13.164785 5.779372
vertex 21.571571 13.144032 5.779372
endloop
endfacet
facet normal 0 0 0
outer loop
vertex 21.592047 13.164785 5.779372
vertex 21.571571 13.164785 5.779372
vertex 21.571571 13.144032 5.779372
endloop
endfacet
facet normal 0 0 0
outer loop
vertex 21.612522 13.144032 5.779372
vertex 21.612522 13.164785 5.779372
vertex 21.592047 13.144032 5.779372
endloop
endfacet
facet normal 0 0 0
outer loop
vertex 21.612522 13.164785 5.779372
vertex 21.592047 13.164785 5.779372
vertex 21.592047 13.144032 5.779372
endloop
endfacet
facet normal 0 0 0
outer loop
vertex 21.530619 13.164785 5.779372
vertex 21.510143 13.164785 5.799372
vertex 21.530619 13.164785 5.799372
endloop
endfacet
facet normal 0 0 0
outer loop
vertex 21.551096 13.164785 5.779372
vertex 21.530619 13.164785 5.779372
vertex 21.551096 13.164785 5.799372
endloop
endfacet
facet normal 0 0 0
outer loop
vertex 21.530619 13.164785 5.779372
vertex 21.530619 13.164785 5.799372
vertex 21.551096 13.164785 5.799372
endloop
endfacet
facet normal 0 0 0
outer loop
vertex 21.551096 13.164785 5.799372
vertex 21.571571 13.164785 5.779372
vertex 21.551096 13.164785 5.779372
endloop
endfacet
facet normal 0 0 0
outer loop
vertex 21.612522 13.185538 5.779372
vertex 21.592047 13.164785 5.779372
vertex 21.612522 13.164785 5.779372
endloop
endfacet
facet normal 0 0 0
outer loop
vertex 21.428240 13.123279 5.799372
vertex 21.428240 13.144032 5.799372
vertex 21.407764 13.123279 5.799372
endloop
endfacet
facet normal 0 0 0
outer loop
vertex 21.428240 13.144032 5.799372
vertex 21.407764 13.144032 5.799372
vertex 21.407764 13.123279 5.799372
endloop
endfacet
facet normal 0 0 0
outer loop
vertex 21.448715 13.123279 5.799372
vertex 21.448715 13.144032 5.799372
vertex 21.428240 13.123279 5.799372
endloop
endfacet
facet normal 0 0 0
outer loop
vertex 21.448715 13.144032 5.799372
vertex 21.428240 13.144032 5.799372
vertex 21.428240 13.123279 5.799372
endloop
endfacet
facet normal 0 0 0
outer loop
vertex 21.469193 13.123279 5.799372
vertex 21.469193 13.144032 5.799372
vertex 21.448715 13.123279 5.799372
endloop
endfacet
facet normal 0 0 0
outer loop
vertex 21.469193 13.144032 5.799372
vertex 21.448715 13.144032 5.799372
vertex 21.448715 13.123279 5.799372
endloop
endfacet
facet normal 0 0 0
outer loop
vertex 21.489668 13.123279 5.799372
vertex 21.489668 13.144032 5.799372
vertex 21.469193 13.123279 5.799372
endloop
endfacet
facet normal 0 0 0
outer loop
vertex 21.489668 13.144032 5.799372
vertex 21.469193 13.144032 5.799372
vertex 21.469193 13.123279 5.799372
endloop
endfacet
facet normal 0 0 0
outer loop
vertex 21.489668 13.123279 5.799372
vertex 21.510143 13.144032 5.799372
vertex 21.489668 13.144032 5.799372
endloop
endfacet
facet normal 0 0 0
outer loop
vertex 21.469193 13.164785 5.799372
vertex 21.448715 13.144032 5.799372
vertex 21.469193 13.144032 5.799372
endloop
endfacet
facet normal 0 0 0
outer loop
vertex 21.489668 13.144032 5.799372
vertex 21.489668 13.164785 5.799372
vertex 21.469193 13.144032 5.799372
endloop
endfacet
facet normal 0 0 0
outer loop
vertex 21.489668 13.164785 5.799372
vertex 21.469193 13.164785 5.799372
vertex 21.469193 13.144032 5.799372
endloop
endfacet
facet normal 0 0 0
outer loop
vertex 21.510143 13.144032 5.799372
vertex 21.510143 13.164785 5.799372
vertex 21.489668 13.144032 5.799372
endloop
endfacet
facet normal 0 0 0
outer loop
vertex 21.510143 13.164785 5.799372
vertex 21.489668 13.164785 5.799372
vertex 21.489668 13.144032 5.799372
endloop
endfacet
facet normal 0 0 0
outer loop
vertex 21.530619 13.144032 5.799372
vertex 21.530619 13.164785 5.799372
vertex 21.510143 13.144032 5.799372
endloop
endfacet
facet normal 0 0 0
outer loop
vertex 21.530619 13.164785 5.799372
vertex 21.510143 13.164785 5.799372
vertex 21.510143 13.144032 5.799372
endloop
endfacet
facet normal 0 0 0
outer loop
vertex 21.551096 13.144032 5.799372
vertex 21.551096 13.164785 5.799372
vertex 21.530619 13.144032 5.799372
endloop
endfacet
facet normal 0 0 0
outer loop
vertex 21.551096 13.164785 5.799372
vertex 21.530619 13.164785 5.799372
vertex 21.530619 13.144032 5.799372
endloop
endfacet
endsolid B-16-Plag.083
