solid B-16-Plag.255
facet normal 0 0 0
outer loop
vertex 7.975640 10.508360 10.579372
vertex 7.955164 10.529113 10.579372
vertex 7.975640 10.529113 10.579372
endloop
endfacet
facet normal 0 0 0
outer loop
vertex 7.996116 10.508360 10.579372
vertex 7.975640 10.508360 10.579372
vertex 7.996116 10.529113 10.579372
endloop
endfacet
facet normal 0 0 0
outer loop
vertex 7.996116 10.529113 10.579372
vertex 7.975640 10.508360 10.579372
vertex 7.975640 10.529113 10.579372
endloop
endfacet
facet normal 0 0 0
outer loop
vertex 8.016592 10.508360 10.579372
vertex 7.996116 10.508360 10.579372
vertex 8.016592 10.529113 10.579372
endloop
endfacet
facet normal 0 0 0
outer loop
vertex 8.016592 10.529113 10.579372
vertex 7.996116 10.508360 10.579372
vertex 7.996116 10.529113 10.579372
endloop
endfacet
facet normal 0 0 0
outer loop
vertex 7.975640 10.529113 10.579372
vertex 7.955164 10.529113 10.579372
vertex 7.975640 10.549867 10.579372
endloop
endfacet
facet normal 0 0 0
outer loop
vertex 7.975640 10.549867 10.579372
vertex 7.955164 10.529113 10.579372
vertex 7.955164 10.549867 10.579372
endloop
endfacet
facet normal 0 0 0
outer loop
vertex 7.996116 10.529113 10.579372
vertex 7.975640 10.529113 10.579372
vertex 7.996116 10.549867 10.579372
endloop
endfacet
facet normal 0 0 0
outer loop
vertex 7.996116 10.549867 10.579372
vertex 7.975640 10.529113 10.579372
vertex 7.975640 10.549867 10.579372
endloop
endfacet
facet normal 0 0 0
outer loop
vertex 8.016592 10.529113 10.579372
vertex 7.996116 10.529113 10.579372
vertex 8.016592 10.549867 10.579372
endloop
endfacet
facet normal 0 0 0
outer loop
vertex 8.016592 10.549867 10.579372
vertex 7.996116 10.529113 10.579372
vertex 7.996116 10.549867 10.579372
endloop
endfacet
facet normal 0 0 0
outer loop
vertex 8.037067 10.549867 10.579372
vertex 8.016592 10.529113 10.579372
vertex 8.016592 10.549867 10.579372
endloop
endfacet
facet normal 0 0 0
outer loop
vertex 7.975640 10.549867 10.579372
vertex 7.955164 10.549867 10.579372
vertex 7.975640 10.570620 10.579372
endloop
endfacet
facet normal 0 0 0
outer loop
vertex 7.975640 10.570620 10.579372
vertex 7.955164 10.549867 10.579372
vertex 7.955164 10.570620 10.579372
endloop
endfacet
facet normal 0 0 0
outer loop
vertex 7.996116 10.549867 10.579372
vertex 7.975640 10.549867 10.579372
vertex 7.996116 10.570620 10.579372
endloop
endfacet
facet normal 0 0 0
outer loop
vertex 7.996116 10.570620 10.579372
vertex 7.975640 10.549867 10.579372
vertex 7.975640 10.570620 10.579372
endloop
endfacet
facet normal 0 0 0
outer loop
vertex 8.016592 10.549867 10.579372
vertex 7.996116 10.549867 10.579372
vertex 8.016592 10.570620 10.579372
endloop
endfacet
facet normal 0 0 0
outer loop
vertex 8.016592 10.570620 10.579372
vertex 7.996116 10.549867 10.579372
vertex 7.996116 10.570620 10.579372
endloop
endfacet
facet normal 0 0 0
outer loop
vertex 8.016592 10.570620 10.579372
vertex 8.037067 10.549867 10.579372
vertex 8.016592 10.549867 10.579372
endloop
endfacet
facet normal 0 0 0
outer loop
vertex 7.955164 10.570620 10.579372
vertex 7.975640 10.591373 10.579372
vertex 7.975640 10.570620 10.579372
endloop
endfacet
facet normal 0 0 0
outer loop
vertex 7.996116 10.570620 10.579372
vertex 7.975640 10.570620 10.579372
vertex 7.996116 10.591373 10.579372
endloop
endfacet
facet normal 0 0 0
outer loop
vertex 7.996116 10.591373 10.579372
vertex 7.975640 10.570620 10.579372
vertex 7.975640 10.591373 10.579372
endloop
endfacet
facet normal 0 0 0
outer loop
vertex 7.996116 10.591373 10.579372
vertex 8.016592 10.570620 10.579372
vertex 7.996116 10.570620 10.579372
endloop
endfacet
facet normal 0 0 0
outer loop
vertex 7.975640 10.487607 10.599372
vertex 7.955164 10.508360 10.599372
vertex 7.975640 10.508360 10.579372
endloop
endfacet
facet normal 0 0 0
outer loop
vertex 7.996116 10.508360 10.579372
vertex 7.975640 10.487607 10.599372
vertex 7.975640 10.508360 10.579372
endloop
endfacet
facet normal 0 0 0
outer loop
vertex 7.996116 10.487607 10.599372
vertex 7.975640 10.487607 10.599372
vertex 7.996116 10.508360 10.579372
endloop
endfacet
facet normal 0 0 0
outer loop
vertex 7.996116 10.487607 10.599372
vertex 7.996116 10.508360 10.579372
vertex 8.016592 10.508360 10.599372
endloop
endfacet
facet normal 0 0 0
outer loop
vertex 7.996116 10.508360 10.579372
vertex 8.016592 10.508360 10.579372
vertex 8.016592 10.508360 10.599372
endloop
endfacet
facet normal 0 0 0
outer loop
vertex 8.016592 10.508360 10.579372
vertex 8.037067 10.508360 10.599372
vertex 8.016592 10.508360 10.599372
endloop
endfacet
facet normal 0 0 0
outer loop
vertex 7.955164 10.529113 10.579372
vertex 7.955164 10.508360 10.599372
vertex 7.955164 10.529113 10.599372
endloop
endfacet
facet normal 0 0 0
outer loop
vertex 7.975640 10.508360 10.579372
vertex 7.955164 10.508360 10.599372
vertex 7.955164 10.529113 10.579372
endloop
endfacet
facet normal 0 0 0
outer loop
vertex 8.037067 10.508360 10.599372
vertex 8.016592 10.529113 10.579372
vertex 8.037067 10.529113 10.599372
endloop
endfacet
facet normal 0 0 0
outer loop
vertex 8.016592 10.508360 10.579372
vertex 8.016592 10.529113 10.579372
vertex 8.037067 10.508360 10.599372
endloop
endfacet
facet normal 0 0 0
outer loop
vertex 8.037067 10.529113 10.599372
vertex 8.057543 10.508360 10.599372
vertex 8.037067 10.508360 10.599372
endloop
endfacet
facet normal 0 0 0
outer loop
vertex 7.934688 10.549867 10.599372
vertex 7.955164 10.549867 10.579372
vertex 7.955164 10.529113 10.599372
endloop
endfacet
facet normal 0 0 0
outer loop
vertex 7.955164 10.549867 10.579372
vertex 7.955164 10.529113 10.579372
vertex 7.955164 10.529113 10.599372
endloop
endfacet
facet normal 0 0 0
outer loop
vertex 8.016592 10.529113 10.579372
vertex 8.037067 10.549867 10.579372
vertex 8.037067 10.529113 10.599372
endloop
endfacet
facet normal 0 0 0
outer loop
vertex 8.037067 10.549867 10.579372
vertex 8.057543 10.549867 10.599372
vertex 8.037067 10.529113 10.599372
endloop
endfacet
facet normal 0 0 0
outer loop
vertex 7.934688 10.549867 10.599372
vertex 7.955164 10.570620 10.599372
vertex 7.955164 10.549867 10.579372
endloop
endfacet
facet normal 0 0 0
outer loop
vertex 7.955164 10.570620 10.599372
vertex 7.955164 10.570620 10.579372
vertex 7.955164 10.549867 10.579372
endloop
endfacet
facet normal 0 0 0
outer loop
vertex 8.037067 10.549867 10.579372
vertex 8.016592 10.570620 10.599372
vertex 8.037067 10.549867 10.599372
endloop
endfacet
facet normal 0 0 0
outer loop
vertex 8.016592 10.570620 10.579372
vertex 8.016592 10.570620 10.599372
vertex 8.037067 10.549867 10.579372
endloop
endfacet
facet normal 0 0 0
outer loop
vertex 8.057543 10.549867 10.599372
vertex 8.037067 10.549867 10.579372
vertex 8.037067 10.549867 10.599372
endloop
endfacet
facet normal 0 0 0
outer loop
vertex 7.955164 10.570620 10.599372
vertex 7.975640 10.591373 10.579372
vertex 7.955164 10.570620 10.579372
endloop
endfacet
facet normal 0 0 0
outer loop
vertex 7.975640 10.591373 10.599372
vertex 7.975640 10.591373 10.579372
vertex 7.955164 10.570620 10.599372
endloop
endfacet
facet normal 0 0 0
outer loop
vertex 8.016592 10.570620 10.579372
vertex 7.996116 10.591373 10.579372
vertex 8.016592 10.591373 10.599372
endloop
endfacet
facet normal 0 0 0
outer loop
vertex 8.016592 10.570620 10.579372
vertex 8.016592 10.591373 10.599372
vertex 8.016592 10.570620 10.599372
endloop
endfacet
facet normal 0 0 0
outer loop
vertex 7.996116 10.591373 10.579372
vertex 7.975640 10.591373 10.579372
vertex 7.996116 10.591373 10.599372
endloop
endfacet
facet normal 0 0 0
outer loop
vertex 7.975640 10.591373 10.579372
vertex 7.975640 10.591373 10.599372
vertex 7.996116 10.591373 10.599372
endloop
endfacet
facet normal 0 0 0
outer loop
vertex 8.016592 10.591373 10.599372
vertex 7.996116 10.591373 10.579372
vertex 7.996116 10.591373 10.599372
endloop
endfacet
facet normal 0 0 0
outer loop
vertex 7.975640 10.487607 10.599372
vertex 7.975640 10.466853 10.619371
vertex 7.955164 10.487607 10.619371
endloop
endfacet
facet normal 0 0 0
outer loop
vertex 7.975640 10.466853 10.619371
vertex 7.955164 10.466853 10.619371
vertex 7.955164 10.487607 10.619371
endloop
endfacet
facet normal 0 0 0
outer loop
vertex 7.996116 10.487607 10.599372
vertex 7.975640 10.466853 10.619371
vertex 7.975640 10.487607 10.599372
endloop
endfacet
facet normal 0 0 0
outer loop
vertex 7.996116 10.466853 10.619371
vertex 7.975640 10.466853 10.619371
vertex 7.996116 10.487607 10.599372
endloop
endfacet
facet normal 0 0 0
outer loop
vertex 7.996116 10.466853 10.619371
vertex 7.996116 10.487607 10.599372
vertex 7.996116 10.487607 10.619371
endloop
endfacet
facet normal 0 0 0
outer loop
vertex 7.955164 10.487607 10.619371
vertex 7.934688 10.508360 10.619371
vertex 7.955164 10.508360 10.599372
endloop
endfacet
facet normal 0 0 0
outer loop
vertex 7.975640 10.487607 10.599372
vertex 7.955164 10.487607 10.619371
vertex 7.955164 10.508360 10.599372
endloop
endfacet
facet normal 0 0 0
outer loop
vertex 7.996116 10.487607 10.599372
vertex 8.016592 10.508360 10.619371
vertex 7.996116 10.487607 10.619371
endloop
endfacet
facet normal 0 0 0
outer loop
vertex 8.016592 10.508360 10.599372
vertex 8.016592 10.508360 10.619371
vertex 7.996116 10.487607 10.599372
endloop
endfacet
facet normal 0 0 0
outer loop
vertex 8.037067 10.508360 10.599372
vertex 8.037067 10.508360 10.619371
vertex 8.016592 10.508360 10.599372
endloop
endfacet
facet normal 0 0 0
outer loop
vertex 8.016592 10.508360 10.599372
vertex 8.037067 10.508360 10.619371
vertex 8.016592 10.508360 10.619371
endloop
endfacet
facet normal 0 0 0
outer loop
vertex 8.057543 10.508360 10.599372
vertex 8.037067 10.508360 10.619371
vertex 8.037067 10.508360 10.599372
endloop
endfacet
facet normal 0 0 0
outer loop
vertex 7.934688 10.508360 10.619371
vertex 7.914213 10.529113 10.619371
vertex 7.934688 10.529113 10.619371
endloop
endfacet
facet normal 0 0 0
outer loop
vertex 7.955164 10.508360 10.599372
vertex 7.934688 10.529113 10.619371
vertex 7.955164 10.529113 10.599372
endloop
endfacet
facet normal 0 0 0
outer loop
vertex 7.934688 10.508360 10.619371
vertex 7.934688 10.529113 10.619371
vertex 7.955164 10.508360 10.599372
endloop
endfacet
facet normal 0 0 0
outer loop
vertex 8.057543 10.508360 10.599372
vertex 8.037067 10.529113 10.599372
vertex 8.037067 10.508360 10.619371
endloop
endfacet
facet normal 0 0 0
outer loop
vertex 8.037067 10.529113 10.599372
vertex 8.037067 10.529113 10.619371
vertex 8.037067 10.508360 10.619371
endloop
endfacet
facet normal 0 0 0
outer loop
vertex 7.893737 10.529113 10.619371
vertex 7.914213 10.549867 10.619371
vertex 7.914213 10.529113 10.619371
endloop
endfacet
facet normal 0 0 0
outer loop
vertex 7.934688 10.549867 10.599372
vertex 7.934688 10.529113 10.619371
vertex 7.914213 10.549867 10.619371
endloop
endfacet
facet normal 0 0 0
outer loop
vertex 7.934688 10.529113 10.619371
vertex 7.914213 10.529113 10.619371
vertex 7.914213 10.549867 10.619371
endloop
endfacet
facet normal 0 0 0
outer loop
vertex 7.955164 10.529113 10.599372
vertex 7.934688 10.529113 10.619371
vertex 7.934688 10.549867 10.599372
endloop
endfacet
facet normal 0 0 0
outer loop
vertex 8.057543 10.549867 10.599372
vertex 8.037067 10.549867 10.619371
vertex 8.037067 10.529113 10.599372
endloop
endfacet
facet normal 0 0 0
outer loop
vertex 8.037067 10.549867 10.619371
vertex 8.037067 10.529113 10.619371
vertex 8.037067 10.529113 10.599372
endloop
endfacet
facet normal 0 0 0
outer loop
vertex 7.934688 10.549867 10.599372
vertex 7.914213 10.549867 10.619371
vertex 7.934688 10.570620 10.619371
endloop
endfacet
facet normal 0 0 0
outer loop
vertex 7.914213 10.549867 10.619371
vertex 7.914213 10.570620 10.619371
vertex 7.934688 10.570620 10.619371
endloop
endfacet
facet normal 0 0 0
outer loop
vertex 7.934688 10.549867 10.599372
vertex 7.934688 10.570620 10.619371
vertex 7.955164 10.570620 10.599372
endloop
endfacet
facet normal 0 0 0
outer loop
vertex 8.037067 10.549867 10.599372
vertex 8.016592 10.570620 10.599372
vertex 8.037067 10.570620 10.619371
endloop
endfacet
facet normal 0 0 0
outer loop
vertex 8.057543 10.549867 10.599372
vertex 8.037067 10.570620 10.619371
vertex 8.037067 10.549867 10.619371
endloop
endfacet
facet normal 0 0 0
outer loop
vertex 8.057543 10.549867 10.599372
vertex 8.037067 10.549867 10.599372
vertex 8.037067 10.570620 10.619371
endloop
endfacet
facet normal 0 0 0
outer loop
vertex 7.914213 10.570620 10.619371
vertex 7.934688 10.591373 10.619371
vertex 7.934688 10.570620 10.619371
endloop
endfacet
facet normal 0 0 0
outer loop
vertex 7.955164 10.570620 10.599372
vertex 7.934688 10.570620 10.619371
vertex 7.955164 10.591373 10.619371
endloop
endfacet
facet normal 0 0 0
outer loop
vertex 7.934688 10.570620 10.619371
vertex 7.934688 10.591373 10.619371
vertex 7.955164 10.591373 10.619371
endloop
endfacet
facet normal 0 0 0
outer loop
vertex 7.955164 10.570620 10.599372
vertex 7.955164 10.591373 10.619371
vertex 7.975640 10.591373 10.599372
endloop
endfacet
facet normal 0 0 0
outer loop
vertex 8.037067 10.570620 10.619371
vertex 8.016592 10.570620 10.599372
vertex 8.016592 10.591373 10.619371
endloop
endfacet
facet normal 0 0 0
outer loop
vertex 8.016592 10.570620 10.599372
vertex 8.016592 10.591373 10.599372
vertex 8.016592 10.591373 10.619371
endloop
endfacet
facet normal 0 0 0
outer loop
vertex 7.975640 10.591373 10.599372
vertex 7.955164 10.591373 10.619371
vertex 7.975640 10.591373 10.619371
endloop
endfacet
facet normal 0 0 0
outer loop
vertex 7.996116 10.591373 10.599372
vertex 7.975640 10.591373 10.599372
vertex 7.996116 10.591373 10.619371
endloop
endfacet
facet normal 0 0 0
outer loop
vertex 7.975640 10.591373 10.599372
vertex 7.975640 10.591373 10.619371
vertex 7.996116 10.591373 10.619371
endloop
endfacet
facet normal 0 0 0
outer loop
vertex 8.016592 10.591373 10.599372
vertex 7.996116 10.591373 10.599372
vertex 8.016592 10.591373 10.619371
endloop
endfacet
facet normal 0 0 0
outer loop
vertex 7.996116 10.591373 10.599372
vertex 7.996116 10.591373 10.619371
vertex 8.016592 10.591373 10.619371
endloop
endfacet
facet normal 0 0 0
outer loop
vertex 7.975640 10.466853 10.639372
vertex 7.955164 10.466853 10.619371
vertex 7.975640 10.466853 10.619371
endloop
endfacet
facet normal 0 0 0
outer loop
vertex 7.996116 10.466853 10.619371
vertex 7.996116 10.466853 10.639372
vertex 7.975640 10.466853 10.619371
endloop
endfacet
facet normal 0 0 0
outer loop
vertex 7.975640 10.466853 10.619371
vertex 7.996116 10.466853 10.639372
vertex 7.975640 10.466853 10.639372
endloop
endfacet
facet normal 0 0 0
outer loop
vertex 7.955164 10.466853 10.619371
vertex 7.955164 10.487607 10.639372
vertex 7.934688 10.487607 10.639372
endloop
endfacet
facet normal 0 0 0
outer loop
vertex 7.955164 10.466853 10.619371
vertex 7.934688 10.487607 10.639372
vertex 7.955164 10.487607 10.619371
endloop
endfacet
facet normal 0 0 0
outer loop
vertex 7.975640 10.466853 10.639372
vertex 7.955164 10.487607 10.639372
vertex 7.955164 10.466853 10.619371
endloop
endfacet
facet normal 0 0 0
outer loop
vertex 8.016592 10.487607 10.639372
vertex 7.996116 10.466853 10.639372
vertex 7.996116 10.487607 10.619371
endloop
endfacet
facet normal 0 0 0
outer loop
vertex 7.996116 10.466853 10.639372
vertex 7.996116 10.466853 10.619371
vertex 7.996116 10.487607 10.619371
endloop
endfacet
facet normal 0 0 0
outer loop
vertex 7.934688 10.487607 10.639372
vertex 7.914213 10.508360 10.639372
vertex 7.934688 10.508360 10.619371
endloop
endfacet
facet normal 0 0 0
outer loop
vertex 7.955164 10.487607 10.619371
vertex 7.934688 10.487607 10.639372
vertex 7.934688 10.508360 10.619371
endloop
endfacet
facet normal 0 0 0
outer loop
vertex 7.996116 10.487607 10.619371
vertex 8.016592 10.508360 10.619371
vertex 8.016592 10.487607 10.639372
endloop
endfacet
facet normal 0 0 0
outer loop
vertex 8.016592 10.487607 10.639372
vertex 8.016592 10.508360 10.619371
vertex 8.037067 10.508360 10.619371
endloop
endfacet
facet normal 0 0 0
outer loop
vertex 8.016592 10.487607 10.639372
vertex 8.037067 10.508360 10.619371
vertex 8.016592 10.508360 10.639372
endloop
endfacet
facet normal 0 0 0
outer loop
vertex 7.914213 10.508360 10.639372
vertex 7.893737 10.529113 10.639372
vertex 7.914213 10.529113 10.619371
endloop
endfacet
facet normal 0 0 0
outer loop
vertex 7.893737 10.529113 10.639372
vertex 7.893737 10.529113 10.619371
vertex 7.914213 10.529113 10.619371
endloop
endfacet
facet normal 0 0 0
outer loop
vertex 7.934688 10.508360 10.619371
vertex 7.914213 10.508360 10.639372
vertex 7.914213 10.529113 10.619371
endloop
endfacet
facet normal 0 0 0
outer loop
vertex 8.037067 10.508360 10.619371
vertex 8.037067 10.529113 10.639372
vertex 8.016592 10.508360 10.639372
endloop
endfacet
facet normal 0 0 0
outer loop
vertex 8.037067 10.529113 10.639372
vertex 8.037067 10.508360 10.619371
vertex 8.037067 10.529113 10.619371
endloop
endfacet
facet normal 0 0 0
outer loop
vertex 7.893737 10.549867 10.639372
vertex 7.893737 10.529113 10.619371
vertex 7.893737 10.529113 10.639372
endloop
endfacet
facet normal 0 0 0
outer loop
vertex 7.893737 10.529113 10.619371
vertex 7.893737 10.549867 10.639372
vertex 7.914213 10.549867 10.619371
endloop
endfacet
facet normal 0 0 0
outer loop
vertex 8.037067 10.549867 10.619371
vertex 8.016592 10.549867 10.639372
vertex 8.037067 10.529113 10.639372
endloop
endfacet
facet normal 0 0 0
outer loop
vertex 8.037067 10.549867 10.619371
vertex 8.037067 10.529113 10.639372
vertex 8.037067 10.529113 10.619371
endloop
endfacet
facet normal 0 0 0
outer loop
vertex 7.914213 10.549867 10.619371
vertex 7.893737 10.570620 10.639372
vertex 7.914213 10.570620 10.619371
endloop
endfacet
facet normal 0 0 0
outer loop
vertex 7.893737 10.549867 10.639372
vertex 7.893737 10.570620 10.639372
vertex 7.914213 10.549867 10.619371
endloop
endfacet
facet normal 0 0 0
outer loop
vertex 8.037067 10.570620 10.619371
vertex 8.016592 10.549867 10.639372
vertex 8.037067 10.549867 10.619371
endloop
endfacet
facet normal 0 0 0
outer loop
vertex 8.016592 10.570620 10.639372
vertex 8.016592 10.549867 10.639372
vertex 8.037067 10.570620 10.619371
endloop
endfacet
facet normal 0 0 0
outer loop
vertex 7.914213 10.570620 10.619371
vertex 7.893737 10.570620 10.639372
vertex 7.914213 10.591373 10.639372
endloop
endfacet
facet normal 0 0 0
outer loop
vertex 7.914213 10.570620 10.619371
vertex 7.914213 10.591373 10.639372
vertex 7.934688 10.591373 10.619371
endloop
endfacet
facet normal 0 0 0
outer loop
vertex 8.016592 10.591373 10.619371
vertex 7.996116 10.591373 10.639372
vertex 8.016592 10.570620 10.639372
endloop
endfacet
facet normal 0 0 0
outer loop
vertex 8.037067 10.570620 10.619371
vertex 8.016592 10.591373 10.619371
vertex 8.016592 10.570620 10.639372
endloop
endfacet
facet normal 0 0 0
outer loop
vertex 7.934688 10.591373 10.619371
vertex 7.914213 10.591373 10.639372
vertex 7.934688 10.612126 10.639372
endloop
endfacet
facet normal 0 0 0
outer loop
vertex 7.934688 10.591373 10.619371
vertex 7.955164 10.612126 10.639372
vertex 7.955164 10.591373 10.619371
endloop
endfacet
facet normal 0 0 0
outer loop
vertex 7.934688 10.612126 10.639372
vertex 7.955164 10.612126 10.639372
vertex 7.934688 10.591373 10.619371
endloop
endfacet
facet normal 0 0 0
outer loop
vertex 7.955164 10.612126 10.639372
vertex 7.975640 10.591373 10.639372
vertex 7.955164 10.591373 10.619371
endloop
endfacet
facet normal 0 0 0
outer loop
vertex 7.975640 10.591373 10.639372
vertex 7.975640 10.591373 10.619371
vertex 7.955164 10.591373 10.619371
endloop
endfacet
facet normal 0 0 0
outer loop
vertex 7.996116 10.591373 10.619371
vertex 7.975640 10.591373 10.619371
vertex 7.996116 10.591373 10.639372
endloop
endfacet
facet normal 0 0 0
outer loop
vertex 7.975640 10.591373 10.619371
vertex 7.975640 10.591373 10.639372
vertex 7.996116 10.591373 10.639372
endloop
endfacet
facet normal 0 0 0
outer loop
vertex 7.996116 10.591373 10.639372
vertex 8.016592 10.591373 10.619371
vertex 7.996116 10.591373 10.619371
endloop
endfacet
facet normal 0 0 0
outer loop
vertex 7.975640 10.466853 10.639372
vertex 7.975640 10.487607 10.659372
vertex 7.955164 10.487607 10.639372
endloop
endfacet
facet normal 0 0 0
outer loop
vertex 7.975640 10.487607 10.659372
vertex 7.975640 10.466853 10.639372
vertex 7.996116 10.487607 10.639372
endloop
endfacet
facet normal 0 0 0
outer loop
vertex 7.975640 10.466853 10.639372
vertex 7.996116 10.466853 10.639372
vertex 7.996116 10.487607 10.639372
endloop
endfacet
facet normal 0 0 0
outer loop
vertex 7.996116 10.466853 10.639372
vertex 8.016592 10.487607 10.639372
vertex 7.996116 10.487607 10.639372
endloop
endfacet
facet normal 0 0 0
outer loop
vertex 7.934688 10.487607 10.639372
vertex 7.934688 10.508360 10.659372
vertex 7.914213 10.508360 10.639372
endloop
endfacet
facet normal 0 0 0
outer loop
vertex 7.955164 10.487607 10.639372
vertex 7.934688 10.508360 10.659372
vertex 7.934688 10.487607 10.639372
endloop
endfacet
facet normal 0 0 0
outer loop
vertex 7.955164 10.508360 10.659372
vertex 7.934688 10.508360 10.659372
vertex 7.955164 10.487607 10.639372
endloop
endfacet
facet normal 0 0 0
outer loop
vertex 7.975640 10.487607 10.659372
vertex 7.955164 10.508360 10.659372
vertex 7.955164 10.487607 10.639372
endloop
endfacet
facet normal 0 0 0
outer loop
vertex 7.996116 10.487607 10.639372
vertex 7.996116 10.508360 10.659372
vertex 7.975640 10.487607 10.659372
endloop
endfacet
facet normal 0 0 0
outer loop
vertex 8.016592 10.487607 10.639372
vertex 7.996116 10.508360 10.659372
vertex 7.996116 10.487607 10.639372
endloop
endfacet
facet normal 0 0 0
outer loop
vertex 8.016592 10.508360 10.659372
vertex 7.996116 10.508360 10.659372
vertex 8.016592 10.487607 10.639372
endloop
endfacet
facet normal 0 0 0
outer loop
vertex 8.016592 10.508360 10.659372
vertex 8.016592 10.487607 10.639372
vertex 8.016592 10.508360 10.639372
endloop
endfacet
facet normal 0 0 0
outer loop
vertex 7.914213 10.508360 10.639372
vertex 7.914213 10.529113 10.659372
vertex 7.893737 10.529113 10.639372
endloop
endfacet
facet normal 0 0 0
outer loop
vertex 7.934688 10.508360 10.659372
vertex 7.914213 10.529113 10.659372
vertex 7.914213 10.508360 10.639372
endloop
endfacet
facet normal 0 0 0
outer loop
vertex 8.016592 10.529113 10.639372
vertex 7.996116 10.529113 10.659372
vertex 8.016592 10.508360 10.659372
endloop
endfacet
facet normal 0 0 0
outer loop
vertex 8.037067 10.529113 10.639372
vertex 8.016592 10.529113 10.639372
vertex 8.016592 10.508360 10.659372
endloop
endfacet
facet normal 0 0 0
outer loop
vertex 8.037067 10.529113 10.639372
vertex 8.016592 10.508360 10.659372
vertex 8.016592 10.508360 10.639372
endloop
endfacet
facet normal 0 0 0
outer loop
vertex 7.893737 10.529113 10.639372
vertex 7.893737 10.549867 10.659372
vertex 7.893737 10.549867 10.639372
endloop
endfacet
facet normal 0 0 0
outer loop
vertex 7.914213 10.529113 10.659372
vertex 7.893737 10.549867 10.659372
vertex 7.893737 10.529113 10.639372
endloop
endfacet
facet normal 0 0 0
outer loop
vertex 8.016592 10.529113 10.639372
vertex 8.016592 10.549867 10.659372
vertex 7.996116 10.529113 10.659372
endloop
endfacet
facet normal 0 0 0
outer loop
vertex 8.037067 10.529113 10.639372
vertex 8.016592 10.549867 10.639372
vertex 8.016592 10.549867 10.659372
endloop
endfacet
facet normal 0 0 0
outer loop
vertex 8.037067 10.529113 10.639372
vertex 8.016592 10.549867 10.659372
vertex 8.016592 10.529113 10.639372
endloop
endfacet
facet normal 0 0 0
outer loop
vertex 7.893737 10.549867 10.639372
vertex 7.893737 10.549867 10.659372
vertex 7.893737 10.570620 10.639372
endloop
endfacet
facet normal 0 0 0
outer loop
vertex 7.893737 10.549867 10.659372
vertex 7.893737 10.570620 10.659372
vertex 7.893737 10.570620 10.639372
endloop
endfacet
facet normal 0 0 0
outer loop
vertex 8.016592 10.570620 10.639372
vertex 7.996116 10.570620 10.659372
vertex 8.016592 10.549867 10.659372
endloop
endfacet
facet normal 0 0 0
outer loop
vertex 8.016592 10.570620 10.639372
vertex 8.016592 10.549867 10.659372
vertex 8.016592 10.549867 10.639372
endloop
endfacet
facet normal 0 0 0
outer loop
vertex 7.893737 10.591373 10.659372
vertex 7.893737 10.570620 10.639372
vertex 7.893737 10.570620 10.659372
endloop
endfacet
facet normal 0 0 0
outer loop
vertex 7.893737 10.570620 10.639372
vertex 7.893737 10.591373 10.659372
vertex 7.914213 10.591373 10.639372
endloop
endfacet
facet normal 0 0 0
outer loop
vertex 7.996116 10.591373 10.639372
vertex 7.975640 10.591373 10.659372
vertex 7.996116 10.570620 10.659372
endloop
endfacet
facet normal 0 0 0
outer loop
vertex 8.016592 10.570620 10.639372
vertex 7.996116 10.591373 10.639372
vertex 7.996116 10.570620 10.659372
endloop
endfacet
facet normal 0 0 0
outer loop
vertex 7.914213 10.591373 10.639372
vertex 7.893737 10.591373 10.659372
vertex 7.914213 10.612126 10.659372
endloop
endfacet
facet normal 0 0 0
outer loop
vertex 7.914213 10.591373 10.639372
vertex 7.914213 10.612126 10.659372
vertex 7.934688 10.612126 10.639372
endloop
endfacet
facet normal 0 0 0
outer loop
vertex 7.975640 10.591373 10.639372
vertex 7.955164 10.612126 10.659372
vertex 7.975640 10.591373 10.659372
endloop
endfacet
facet normal 0 0 0
outer loop
vertex 7.955164 10.612126 10.639372
vertex 7.955164 10.612126 10.659372
vertex 7.975640 10.591373 10.639372
endloop
endfacet
facet normal 0 0 0
outer loop
vertex 7.975640 10.591373 10.659372
vertex 7.996116 10.591373 10.639372
vertex 7.975640 10.591373 10.639372
endloop
endfacet
facet normal 0 0 0
outer loop
vertex 7.934688 10.612126 10.639372
vertex 7.914213 10.612126 10.659372
vertex 7.934688 10.612126 10.659372
endloop
endfacet
facet normal 0 0 0
outer loop
vertex 7.955164 10.612126 10.639372
vertex 7.934688 10.612126 10.639372
vertex 7.955164 10.612126 10.659372
endloop
endfacet
facet normal 0 0 0
outer loop
vertex 7.934688 10.612126 10.639372
vertex 7.934688 10.612126 10.659372
vertex 7.955164 10.612126 10.659372
endloop
endfacet
facet normal 0 0 0
outer loop
vertex 7.955164 10.508360 10.659372
vertex 7.955164 10.508360 10.679372
vertex 7.934688 10.508360 10.659372
endloop
endfacet
facet normal 0 0 0
outer loop
vertex 7.934688 10.508360 10.659372
vertex 7.955164 10.508360 10.679372
vertex 7.934688 10.508360 10.679372
endloop
endfacet
facet normal 0 0 0
outer loop
vertex 7.975640 10.487607 10.659372
vertex 7.955164 10.508360 10.679372
vertex 7.955164 10.508360 10.659372
endloop
endfacet
facet normal 0 0 0
outer loop
vertex 7.975640 10.487607 10.659372
vertex 7.975640 10.508360 10.659372
vertex 7.955164 10.508360 10.679372
endloop
endfacet
facet normal 0 0 0
outer loop
vertex 7.975640 10.487607 10.659372
vertex 7.996116 10.508360 10.659372
vertex 7.975640 10.508360 10.659372
endloop
endfacet
facet normal 0 0 0
outer loop
vertex 7.934688 10.508360 10.679372
vertex 7.914213 10.529113 10.659372
vertex 7.934688 10.508360 10.659372
endloop
endfacet
facet normal 0 0 0
outer loop
vertex 7.914213 10.529113 10.679372
vertex 7.914213 10.529113 10.659372
vertex 7.934688 10.508360 10.679372
endloop
endfacet
facet normal 0 0 0
outer loop
vertex 7.975640 10.508360 10.659372
vertex 7.975640 10.529113 10.679372
vertex 7.955164 10.508360 10.679372
endloop
endfacet
facet normal 0 0 0
outer loop
vertex 7.975640 10.529113 10.679372
vertex 7.975640 10.508360 10.659372
vertex 7.996116 10.529113 10.659372
endloop
endfacet
facet normal 0 0 0
outer loop
vertex 7.975640 10.508360 10.659372
vertex 7.996116 10.508360 10.659372
vertex 7.996116 10.529113 10.659372
endloop
endfacet
facet normal 0 0 0
outer loop
vertex 8.016592 10.508360 10.659372
vertex 7.996116 10.529113 10.659372
vertex 7.996116 10.508360 10.659372
endloop
endfacet
facet normal 0 0 0
outer loop
vertex 7.914213 10.529113 10.679372
vertex 7.893737 10.549867 10.659372
vertex 7.914213 10.529113 10.659372
endloop
endfacet
facet normal 0 0 0
outer loop
vertex 7.893737 10.549867 10.679372
vertex 7.893737 10.549867 10.659372
vertex 7.914213 10.529113 10.679372
endloop
endfacet
facet normal 0 0 0
outer loop
vertex 7.996116 10.529113 10.659372
vertex 7.996116 10.549867 10.679372
vertex 7.975640 10.529113 10.679372
endloop
endfacet
facet normal 0 0 0
outer loop
vertex 8.016592 10.549867 10.659372
vertex 7.996116 10.549867 10.679372
vertex 7.996116 10.529113 10.659372
endloop
endfacet
facet normal 0 0 0
outer loop
vertex 7.873261 10.570620 10.679372
vertex 7.893737 10.570620 10.659372
vertex 7.893737 10.549867 10.679372
endloop
endfacet
facet normal 0 0 0
outer loop
vertex 7.893737 10.570620 10.659372
vertex 7.893737 10.549867 10.659372
vertex 7.893737 10.549867 10.679372
endloop
endfacet
facet normal 0 0 0
outer loop
vertex 8.016592 10.549867 10.659372
vertex 7.996116 10.570620 10.659372
vertex 7.996116 10.549867 10.679372
endloop
endfacet
facet normal 0 0 0
outer loop
vertex 7.996116 10.570620 10.659372
vertex 7.996116 10.570620 10.679372
vertex 7.996116 10.549867 10.679372
endloop
endfacet
facet normal 0 0 0
outer loop
vertex 7.873261 10.570620 10.679372
vertex 7.893737 10.591373 10.679372
vertex 7.893737 10.570620 10.659372
endloop
endfacet
facet normal 0 0 0
outer loop
vertex 7.893737 10.591373 10.679372
vertex 7.893737 10.591373 10.659372
vertex 7.893737 10.570620 10.659372
endloop
endfacet
facet normal 0 0 0
outer loop
vertex 7.996116 10.570620 10.659372
vertex 7.975640 10.591373 10.679372
vertex 7.996116 10.570620 10.679372
endloop
endfacet
facet normal 0 0 0
outer loop
vertex 7.975640 10.591373 10.659372
vertex 7.975640 10.591373 10.679372
vertex 7.996116 10.570620 10.659372
endloop
endfacet
facet normal 0 0 0
outer loop
vertex 7.893737 10.612126 10.679372
vertex 7.893737 10.591373 10.659372
vertex 7.893737 10.591373 10.679372
endloop
endfacet
facet normal 0 0 0
outer loop
vertex 7.893737 10.591373 10.659372
vertex 7.893737 10.612126 10.679372
vertex 7.914213 10.612126 10.659372
endloop
endfacet
facet normal 0 0 0
outer loop
vertex 7.975640 10.591373 10.659372
vertex 7.955164 10.612126 10.659372
vertex 7.975640 10.612126 10.679372
endloop
endfacet
facet normal 0 0 0
outer loop
vertex 7.975640 10.591373 10.659372
vertex 7.975640 10.612126 10.679372
vertex 7.975640 10.591373 10.679372
endloop
endfacet
facet normal 0 0 0
outer loop
vertex 7.914213 10.612126 10.659372
vertex 7.893737 10.612126 10.679372
vertex 7.914213 10.612126 10.679372
endloop
endfacet
facet normal 0 0 0
outer loop
vertex 7.934688 10.632880 10.679372
vertex 7.934688 10.612126 10.659372
vertex 7.914213 10.612126 10.679372
endloop
endfacet
facet normal 0 0 0
outer loop
vertex 7.934688 10.612126 10.659372
vertex 7.914213 10.612126 10.659372
vertex 7.914213 10.612126 10.679372
endloop
endfacet
facet normal 0 0 0
outer loop
vertex 7.934688 10.612126 10.659372
vertex 7.955164 10.632880 10.679372
vertex 7.955164 10.612126 10.659372
endloop
endfacet
facet normal 0 0 0
outer loop
vertex 7.934688 10.632880 10.679372
vertex 7.955164 10.632880 10.679372
vertex 7.934688 10.612126 10.659372
endloop
endfacet
facet normal 0 0 0
outer loop
vertex 7.955164 10.612126 10.659372
vertex 7.955164 10.632880 10.679372
vertex 7.975640 10.612126 10.679372
endloop
endfacet
facet normal 0 0 0
outer loop
vertex 7.934688 10.508360 10.679372
vertex 7.934688 10.529113 10.699371
vertex 7.914213 10.529113 10.679372
endloop
endfacet
facet normal 0 0 0
outer loop
vertex 7.934688 10.529113 10.699371
vertex 7.914213 10.529113 10.699371
vertex 7.914213 10.529113 10.679372
endloop
endfacet
facet normal 0 0 0
outer loop
vertex 7.955164 10.508360 10.679372
vertex 7.934688 10.529113 10.699371
vertex 7.934688 10.508360 10.679372
endloop
endfacet
facet normal 0 0 0
outer loop
vertex 7.955164 10.529113 10.699371
vertex 7.934688 10.529113 10.699371
vertex 7.955164 10.508360 10.679372
endloop
endfacet
facet normal 0 0 0
outer loop
vertex 7.975640 10.529113 10.679372
vertex 7.955164 10.529113 10.699371
vertex 7.955164 10.508360 10.679372
endloop
endfacet
facet normal 0 0 0
outer loop
vertex 7.914213 10.529113 10.699371
vertex 7.893737 10.549867 10.679372
vertex 7.914213 10.529113 10.679372
endloop
endfacet
facet normal 0 0 0
outer loop
vertex 7.893737 10.549867 10.699371
vertex 7.893737 10.549867 10.679372
vertex 7.914213 10.529113 10.699371
endloop
endfacet
facet normal 0 0 0
outer loop
vertex 7.975640 10.529113 10.679372
vertex 7.975640 10.549867 10.699371
vertex 7.955164 10.529113 10.699371
endloop
endfacet
facet normal 0 0 0
outer loop
vertex 7.996116 10.549867 10.679372
vertex 7.975640 10.549867 10.699371
vertex 7.975640 10.529113 10.679372
endloop
endfacet
facet normal 0 0 0
outer loop
vertex 7.873261 10.570620 10.679372
vertex 7.893737 10.549867 10.679372
vertex 7.893737 10.570620 10.699371
endloop
endfacet
facet normal 0 0 0
outer loop
vertex 7.893737 10.549867 10.679372
vertex 7.893737 10.549867 10.699371
vertex 7.893737 10.570620 10.699371
endloop
endfacet
facet normal 0 0 0
outer loop
vertex 7.996116 10.549867 10.679372
vertex 7.996116 10.570620 10.699371
vertex 7.975640 10.549867 10.699371
endloop
endfacet
facet normal 0 0 0
outer loop
vertex 7.996116 10.570620 10.699371
vertex 7.996116 10.549867 10.679372
vertex 7.996116 10.570620 10.679372
endloop
endfacet
facet normal 0 0 0
outer loop
vertex 7.873261 10.570620 10.679372
vertex 7.893737 10.570620 10.699371
vertex 7.893737 10.591373 10.679372
endloop
endfacet
facet normal 0 0 0
outer loop
vertex 7.893737 10.570620 10.699371
vertex 7.893737 10.591373 10.699371
vertex 7.893737 10.591373 10.679372
endloop
endfacet
facet normal 0 0 0
outer loop
vertex 7.996116 10.570620 10.679372
vertex 7.975640 10.591373 10.699371
vertex 7.996116 10.570620 10.699371
endloop
endfacet
facet normal 0 0 0
outer loop
vertex 7.975640 10.591373 10.679372
vertex 7.975640 10.591373 10.699371
vertex 7.996116 10.570620 10.679372
endloop
endfacet
facet normal 0 0 0
outer loop
vertex 7.893737 10.591373 10.679372
vertex 7.893737 10.591373 10.699371
vertex 7.893737 10.612126 10.679372
endloop
endfacet
facet normal 0 0 0
outer loop
vertex 7.893737 10.591373 10.699371
vertex 7.893737 10.612126 10.699371
vertex 7.893737 10.612126 10.679372
endloop
endfacet
facet normal 0 0 0
outer loop
vertex 7.955164 10.612126 10.679372
vertex 7.934688 10.612126 10.699371
vertex 7.955164 10.591373 10.699371
endloop
endfacet
facet normal 0 0 0
outer loop
vertex 7.955164 10.612126 10.679372
vertex 7.975640 10.591373 10.699371
vertex 7.975640 10.612126 10.679372
endloop
endfacet
facet normal 0 0 0
outer loop
vertex 7.955164 10.591373 10.699371
vertex 7.975640 10.591373 10.699371
vertex 7.955164 10.612126 10.679372
endloop
endfacet
facet normal 0 0 0
outer loop
vertex 7.975640 10.612126 10.679372
vertex 7.975640 10.591373 10.699371
vertex 7.975640 10.591373 10.679372
endloop
endfacet
facet normal 0 0 0
outer loop
vertex 7.914213 10.632880 10.699371
vertex 7.914213 10.612126 10.679372
vertex 7.893737 10.612126 10.699371
endloop
endfacet
facet normal 0 0 0
outer loop
vertex 7.914213 10.612126 10.679372
vertex 7.893737 10.612126 10.679372
vertex 7.893737 10.612126 10.699371
endloop
endfacet
facet normal 0 0 0
outer loop
vertex 7.914213 10.632880 10.699371
vertex 7.934688 10.612126 10.699371
vertex 7.914213 10.612126 10.679372
endloop
endfacet
facet normal 0 0 0
outer loop
vertex 7.934688 10.632880 10.679372
vertex 7.914213 10.612126 10.679372
vertex 7.934688 10.612126 10.699371
endloop
endfacet
facet normal 0 0 0
outer loop
vertex 7.934688 10.612126 10.699371
vertex 7.955164 10.612126 10.679372
vertex 7.934688 10.632880 10.679372
endloop
endfacet
facet normal 0 0 0
outer loop
vertex 7.955164 10.612126 10.679372
vertex 7.955164 10.632880 10.679372
vertex 7.934688 10.632880 10.679372
endloop
endfacet
facet normal 0 0 0
outer loop
vertex 7.975640 10.612126 10.679372
vertex 7.955164 10.632880 10.679372
vertex 7.955164 10.612126 10.679372
endloop
endfacet
facet normal 0 0 0
outer loop
vertex 7.893737 10.549867 10.699371
vertex 7.914213 10.529113 10.699371
vertex 7.914213 10.549867 10.699371
endloop
endfacet
facet normal 0 0 0
outer loop
vertex 7.934688 10.529113 10.699371
vertex 7.934688 10.549867 10.699371
vertex 7.914213 10.529113 10.699371
endloop
endfacet
facet normal 0 0 0
outer loop
vertex 7.934688 10.549867 10.699371
vertex 7.914213 10.549867 10.699371
vertex 7.914213 10.529113 10.699371
endloop
endfacet
facet normal 0 0 0
outer loop
vertex 7.955164 10.529113 10.699371
vertex 7.955164 10.549867 10.699371
vertex 7.934688 10.529113 10.699371
endloop
endfacet
facet normal 0 0 0
outer loop
vertex 7.955164 10.549867 10.699371
vertex 7.934688 10.549867 10.699371
vertex 7.934688 10.529113 10.699371
endloop
endfacet
facet normal 0 0 0
outer loop
vertex 7.955164 10.529113 10.699371
vertex 7.975640 10.549867 10.699371
vertex 7.955164 10.549867 10.699371
endloop
endfacet
facet normal 0 0 0
outer loop
vertex 7.914213 10.549867 10.699371
vertex 7.914213 10.570620 10.699371
vertex 7.893737 10.549867 10.699371
endloop
endfacet
facet normal 0 0 0
outer loop
vertex 7.914213 10.570620 10.699371
vertex 7.893737 10.570620 10.699371
vertex 7.893737 10.549867 10.699371
endloop
endfacet
facet normal 0 0 0
outer loop
vertex 7.934688 10.549867 10.699371
vertex 7.934688 10.570620 10.699371
vertex 7.914213 10.549867 10.699371
endloop
endfacet
facet normal 0 0 0
outer loop
vertex 7.934688 10.570620 10.699371
vertex 7.914213 10.570620 10.699371
vertex 7.914213 10.549867 10.699371
endloop
endfacet
facet normal 0 0 0
outer loop
vertex 7.955164 10.549867 10.699371
vertex 7.955164 10.570620 10.699371
vertex 7.934688 10.549867 10.699371
endloop
endfacet
facet normal 0 0 0
outer loop
vertex 7.955164 10.570620 10.699371
vertex 7.934688 10.570620 10.699371
vertex 7.934688 10.549867 10.699371
endloop
endfacet
facet normal 0 0 0
outer loop
vertex 7.975640 10.549867 10.699371
vertex 7.975640 10.570620 10.699371
vertex 7.955164 10.549867 10.699371
endloop
endfacet
facet normal 0 0 0
outer loop
vertex 7.975640 10.570620 10.699371
vertex 7.955164 10.570620 10.699371
vertex 7.955164 10.549867 10.699371
endloop
endfacet
facet normal 0 0 0
outer loop
vertex 7.975640 10.549867 10.699371
vertex 7.996116 10.570620 10.699371
vertex 7.975640 10.570620 10.699371
endloop
endfacet
facet normal 0 0 0
outer loop
vertex 7.914213 10.570620 10.699371
vertex 7.914213 10.591373 10.699371
vertex 7.893737 10.570620 10.699371
endloop
endfacet
facet normal 0 0 0
outer loop
vertex 7.914213 10.591373 10.699371
vertex 7.893737 10.591373 10.699371
vertex 7.893737 10.570620 10.699371
endloop
endfacet
facet normal 0 0 0
outer loop
vertex 7.934688 10.570620 10.699371
vertex 7.934688 10.591373 10.699371
vertex 7.914213 10.570620 10.699371
endloop
endfacet
facet normal 0 0 0
outer loop
vertex 7.934688 10.591373 10.699371
vertex 7.914213 10.591373 10.699371
vertex 7.914213 10.570620 10.699371
endloop
endfacet
facet normal 0 0 0
outer loop
vertex 7.955164 10.570620 10.699371
vertex 7.955164 10.591373 10.699371
vertex 7.934688 10.570620 10.699371
endloop
endfacet
facet normal 0 0 0
outer loop
vertex 7.955164 10.591373 10.699371
vertex 7.934688 10.591373 10.699371
vertex 7.934688 10.570620 10.699371
endloop
endfacet
facet normal 0 0 0
outer loop
vertex 7.975640 10.570620 10.699371
vertex 7.975640 10.591373 10.699371
vertex 7.955164 10.570620 10.699371
endloop
endfacet
facet normal 0 0 0
outer loop
vertex 7.975640 10.591373 10.699371
vertex 7.955164 10.591373 10.699371
vertex 7.955164 10.570620 10.699371
endloop
endfacet
facet normal 0 0 0
outer loop
vertex 7.996116 10.570620 10.699371
vertex 7.975640 10.591373 10.699371
vertex 7.975640 10.570620 10.699371
endloop
endfacet
facet normal 0 0 0
outer loop
vertex 7.914213 10.591373 10.699371
vertex 7.914213 10.612126 10.699371
vertex 7.893737 10.591373 10.699371
endloop
endfacet
facet normal 0 0 0
outer loop
vertex 7.914213 10.612126 10.699371
vertex 7.893737 10.612126 10.699371
vertex 7.893737 10.591373 10.699371
endloop
endfacet
facet normal 0 0 0
outer loop
vertex 7.934688 10.591373 10.699371
vertex 7.934688 10.612126 10.699371
vertex 7.914213 10.591373 10.699371
endloop
endfacet
facet normal 0 0 0
outer loop
vertex 7.934688 10.612126 10.699371
vertex 7.914213 10.612126 10.699371
vertex 7.914213 10.591373 10.699371
endloop
endfacet
facet normal 0 0 0
outer loop
vertex 7.955164 10.591373 10.699371
vertex 7.934688 10.612126 10.699371
vertex 7.934688 10.591373 10.699371
endloop
endfacet
facet normal 0 0 0
outer loop
vertex 7.914213 10.632880 10.699371
vertex 7.893737 10.612126 10.699371
vertex 7.914213 10.612126 10.699371
endloop
endfacet
facet normal 0 0 0
outer loop
vertex 7.934688 10.612126 10.699371
vertex 7.914213 10.632880 10.699371
vertex 7.914213 10.612126 10.699371
endloop
endfacet
endsolid B-16-Plag.255
