solid B-16-Plag.213
facet normal 0 0 0
outer loop
vertex 4.638085 13.725124 9.339372
vertex 4.617609 13.745878 9.339372
vertex 4.638085 13.745878 9.339372
endloop
endfacet
facet normal 0 0 0
outer loop
vertex 4.658561 13.725124 9.339372
vertex 4.638085 13.725124 9.339372
vertex 4.658561 13.745878 9.339372
endloop
endfacet
facet normal 0 0 0
outer loop
vertex 4.658561 13.745878 9.339372
vertex 4.638085 13.725124 9.339372
vertex 4.638085 13.745878 9.339372
endloop
endfacet
facet normal 0 0 0
outer loop
vertex 4.679036 13.725124 9.339372
vertex 4.658561 13.725124 9.339372
vertex 4.679036 13.745878 9.339372
endloop
endfacet
facet normal 0 0 0
outer loop
vertex 4.679036 13.745878 9.339372
vertex 4.658561 13.725124 9.339372
vertex 4.658561 13.745878 9.339372
endloop
endfacet
facet normal 0 0 0
outer loop
vertex 4.699512 13.725124 9.339372
vertex 4.679036 13.725124 9.339372
vertex 4.699512 13.745878 9.339372
endloop
endfacet
facet normal 0 0 0
outer loop
vertex 4.699512 13.745878 9.339372
vertex 4.679036 13.725124 9.339372
vertex 4.679036 13.745878 9.339372
endloop
endfacet
facet normal 0 0 0
outer loop
vertex 4.638085 13.745878 9.339372
vertex 4.617609 13.745878 9.339372
vertex 4.638085 13.766631 9.339372
endloop
endfacet
facet normal 0 0 0
outer loop
vertex 4.638085 13.766631 9.339372
vertex 4.617609 13.745878 9.339372
vertex 4.617609 13.766631 9.339372
endloop
endfacet
facet normal 0 0 0
outer loop
vertex 4.658561 13.745878 9.339372
vertex 4.638085 13.745878 9.339372
vertex 4.658561 13.766631 9.339372
endloop
endfacet
facet normal 0 0 0
outer loop
vertex 4.658561 13.766631 9.339372
vertex 4.638085 13.745878 9.339372
vertex 4.638085 13.766631 9.339372
endloop
endfacet
facet normal 0 0 0
outer loop
vertex 4.679036 13.745878 9.339372
vertex 4.658561 13.745878 9.339372
vertex 4.679036 13.766631 9.339372
endloop
endfacet
facet normal 0 0 0
outer loop
vertex 4.679036 13.766631 9.339372
vertex 4.658561 13.745878 9.339372
vertex 4.658561 13.766631 9.339372
endloop
endfacet
facet normal 0 0 0
outer loop
vertex 4.699512 13.745878 9.339372
vertex 4.679036 13.745878 9.339372
vertex 4.699512 13.766631 9.339372
endloop
endfacet
facet normal 0 0 0
outer loop
vertex 4.699512 13.766631 9.339372
vertex 4.679036 13.745878 9.339372
vertex 4.679036 13.766631 9.339372
endloop
endfacet
facet normal 0 0 0
outer loop
vertex 4.638085 13.766631 9.339372
vertex 4.617609 13.766631 9.339372
vertex 4.638085 13.787385 9.339372
endloop
endfacet
facet normal 0 0 0
outer loop
vertex 4.638085 13.787385 9.339372
vertex 4.617609 13.766631 9.339372
vertex 4.617609 13.787385 9.339372
endloop
endfacet
facet normal 0 0 0
outer loop
vertex 4.658561 13.766631 9.339372
vertex 4.638085 13.766631 9.339372
vertex 4.658561 13.787385 9.339372
endloop
endfacet
facet normal 0 0 0
outer loop
vertex 4.658561 13.787385 9.339372
vertex 4.638085 13.766631 9.339372
vertex 4.638085 13.787385 9.339372
endloop
endfacet
facet normal 0 0 0
outer loop
vertex 4.679036 13.766631 9.339372
vertex 4.658561 13.766631 9.339372
vertex 4.679036 13.787385 9.339372
endloop
endfacet
facet normal 0 0 0
outer loop
vertex 4.679036 13.787385 9.339372
vertex 4.658561 13.766631 9.339372
vertex 4.658561 13.787385 9.339372
endloop
endfacet
facet normal 0 0 0
outer loop
vertex 4.699512 13.766631 9.339372
vertex 4.679036 13.766631 9.339372
vertex 4.699512 13.787385 9.339372
endloop
endfacet
facet normal 0 0 0
outer loop
vertex 4.699512 13.787385 9.339372
vertex 4.679036 13.766631 9.339372
vertex 4.679036 13.787385 9.339372
endloop
endfacet
facet normal 0 0 0
outer loop
vertex 4.617609 13.787385 9.339372
vertex 4.597133 13.808138 9.339372
vertex 4.617609 13.808138 9.339372
endloop
endfacet
facet normal 0 0 0
outer loop
vertex 4.638085 13.787385 9.339372
vertex 4.617609 13.787385 9.339372
vertex 4.638085 13.808138 9.339372
endloop
endfacet
facet normal 0 0 0
outer loop
vertex 4.638085 13.808138 9.339372
vertex 4.617609 13.787385 9.339372
vertex 4.617609 13.808138 9.339372
endloop
endfacet
facet normal 0 0 0
outer loop
vertex 4.658561 13.787385 9.339372
vertex 4.638085 13.787385 9.339372
vertex 4.658561 13.808138 9.339372
endloop
endfacet
facet normal 0 0 0
outer loop
vertex 4.658561 13.808138 9.339372
vertex 4.638085 13.787385 9.339372
vertex 4.638085 13.808138 9.339372
endloop
endfacet
facet normal 0 0 0
outer loop
vertex 4.679036 13.787385 9.339372
vertex 4.658561 13.787385 9.339372
vertex 4.679036 13.808138 9.339372
endloop
endfacet
facet normal 0 0 0
outer loop
vertex 4.679036 13.808138 9.339372
vertex 4.658561 13.787385 9.339372
vertex 4.658561 13.808138 9.339372
endloop
endfacet
facet normal 0 0 0
outer loop
vertex 4.679036 13.808138 9.339372
vertex 4.699512 13.787385 9.339372
vertex 4.679036 13.787385 9.339372
endloop
endfacet
facet normal 0 0 0
outer loop
vertex 4.597133 13.808138 9.339372
vertex 4.617609 13.828892 9.339372
vertex 4.617609 13.808138 9.339372
endloop
endfacet
facet normal 0 0 0
outer loop
vertex 4.638085 13.808138 9.339372
vertex 4.617609 13.808138 9.339372
vertex 4.638085 13.828892 9.339372
endloop
endfacet
facet normal 0 0 0
outer loop
vertex 4.638085 13.828892 9.339372
vertex 4.617609 13.808138 9.339372
vertex 4.617609 13.828892 9.339372
endloop
endfacet
facet normal 0 0 0
outer loop
vertex 4.658561 13.808138 9.339372
vertex 4.638085 13.808138 9.339372
vertex 4.658561 13.828892 9.339372
endloop
endfacet
facet normal 0 0 0
outer loop
vertex 4.658561 13.828892 9.339372
vertex 4.638085 13.808138 9.339372
vertex 4.638085 13.828892 9.339372
endloop
endfacet
facet normal 0 0 0
outer loop
vertex 4.658561 13.828892 9.339372
vertex 4.679036 13.808138 9.339372
vertex 4.658561 13.808138 9.339372
endloop
endfacet
facet normal 0 0 0
outer loop
vertex 4.617609 13.725124 9.359371
vertex 4.638085 13.725124 9.339372
vertex 4.638085 13.725124 9.359371
endloop
endfacet
facet normal 0 0 0
outer loop
vertex 4.658561 13.725124 9.339372
vertex 4.658561 13.725124 9.359371
vertex 4.638085 13.725124 9.339372
endloop
endfacet
facet normal 0 0 0
outer loop
vertex 4.638085 13.725124 9.339372
vertex 4.658561 13.725124 9.359371
vertex 4.638085 13.725124 9.359371
endloop
endfacet
facet normal 0 0 0
outer loop
vertex 4.679036 13.725124 9.339372
vertex 4.679036 13.725124 9.359371
vertex 4.658561 13.725124 9.339372
endloop
endfacet
facet normal 0 0 0
outer loop
vertex 4.658561 13.725124 9.339372
vertex 4.679036 13.725124 9.359371
vertex 4.658561 13.725124 9.359371
endloop
endfacet
facet normal 0 0 0
outer loop
vertex 4.699512 13.725124 9.339372
vertex 4.699512 13.725124 9.359371
vertex 4.679036 13.725124 9.339372
endloop
endfacet
facet normal 0 0 0
outer loop
vertex 4.679036 13.725124 9.339372
vertex 4.699512 13.725124 9.359371
vertex 4.679036 13.725124 9.359371
endloop
endfacet
facet normal 0 0 0
outer loop
vertex 4.699512 13.725124 9.339372
vertex 4.719988 13.725124 9.359371
vertex 4.699512 13.725124 9.359371
endloop
endfacet
facet normal 0 0 0
outer loop
vertex 4.617609 13.725124 9.359371
vertex 4.597133 13.745878 9.359371
vertex 4.617609 13.745878 9.339372
endloop
endfacet
facet normal 0 0 0
outer loop
vertex 4.638085 13.725124 9.339372
vertex 4.617609 13.725124 9.359371
vertex 4.617609 13.745878 9.339372
endloop
endfacet
facet normal 0 0 0
outer loop
vertex 4.719988 13.725124 9.359371
vertex 4.699512 13.745878 9.339372
vertex 4.719988 13.745878 9.359371
endloop
endfacet
facet normal 0 0 0
outer loop
vertex 4.699512 13.725124 9.339372
vertex 4.699512 13.745878 9.339372
vertex 4.719988 13.725124 9.359371
endloop
endfacet
facet normal 0 0 0
outer loop
vertex 4.617609 13.745878 9.339372
vertex 4.597133 13.766631 9.359371
vertex 4.617609 13.766631 9.339372
endloop
endfacet
facet normal 0 0 0
outer loop
vertex 4.597133 13.745878 9.359371
vertex 4.597133 13.766631 9.359371
vertex 4.617609 13.745878 9.339372
endloop
endfacet
facet normal 0 0 0
outer loop
vertex 4.719988 13.745878 9.359371
vertex 4.699512 13.745878 9.339372
vertex 4.699512 13.766631 9.359371
endloop
endfacet
facet normal 0 0 0
outer loop
vertex 4.699512 13.745878 9.339372
vertex 4.699512 13.766631 9.339372
vertex 4.699512 13.766631 9.359371
endloop
endfacet
facet normal 0 0 0
outer loop
vertex 4.617609 13.766631 9.339372
vertex 4.597133 13.787385 9.359371
vertex 4.617609 13.787385 9.339372
endloop
endfacet
facet normal 0 0 0
outer loop
vertex 4.597133 13.766631 9.359371
vertex 4.597133 13.787385 9.359371
vertex 4.617609 13.766631 9.339372
endloop
endfacet
facet normal 0 0 0
outer loop
vertex 4.699512 13.766631 9.339372
vertex 4.699512 13.787385 9.339372
vertex 4.699512 13.766631 9.359371
endloop
endfacet
facet normal 0 0 0
outer loop
vertex 4.699512 13.766631 9.359371
vertex 4.699512 13.787385 9.339372
vertex 4.699512 13.787385 9.359371
endloop
endfacet
facet normal 0 0 0
outer loop
vertex 4.597133 13.808138 9.339372
vertex 4.597133 13.787385 9.359371
vertex 4.597133 13.808138 9.359371
endloop
endfacet
facet normal 0 0 0
outer loop
vertex 4.617609 13.787385 9.339372
vertex 4.597133 13.787385 9.359371
vertex 4.597133 13.808138 9.339372
endloop
endfacet
facet normal 0 0 0
outer loop
vertex 4.699512 13.787385 9.339372
vertex 4.679036 13.808138 9.339372
vertex 4.699512 13.808138 9.359371
endloop
endfacet
facet normal 0 0 0
outer loop
vertex 4.699512 13.787385 9.339372
vertex 4.699512 13.808138 9.359371
vertex 4.699512 13.787385 9.359371
endloop
endfacet
facet normal 0 0 0
outer loop
vertex 4.597133 13.808138 9.339372
vertex 4.576657 13.828892 9.359371
vertex 4.597133 13.828892 9.359371
endloop
endfacet
facet normal 0 0 0
outer loop
vertex 4.597133 13.808138 9.339372
vertex 4.597133 13.808138 9.359371
vertex 4.576657 13.828892 9.359371
endloop
endfacet
facet normal 0 0 0
outer loop
vertex 4.597133 13.808138 9.339372
vertex 4.597133 13.828892 9.359371
vertex 4.617609 13.828892 9.339372
endloop
endfacet
facet normal 0 0 0
outer loop
vertex 4.679036 13.808138 9.339372
vertex 4.658561 13.828892 9.359371
vertex 4.679036 13.808138 9.359371
endloop
endfacet
facet normal 0 0 0
outer loop
vertex 4.658561 13.828892 9.339372
vertex 4.658561 13.828892 9.359371
vertex 4.679036 13.808138 9.339372
endloop
endfacet
facet normal 0 0 0
outer loop
vertex 4.699512 13.808138 9.359371
vertex 4.679036 13.808138 9.339372
vertex 4.679036 13.808138 9.359371
endloop
endfacet
facet normal 0 0 0
outer loop
vertex 4.617609 13.828892 9.339372
vertex 4.597133 13.828892 9.359371
vertex 4.617609 13.849645 9.359371
endloop
endfacet
facet normal 0 0 0
outer loop
vertex 4.617609 13.828892 9.339372
vertex 4.638085 13.849645 9.359371
vertex 4.638085 13.828892 9.339372
endloop
endfacet
facet normal 0 0 0
outer loop
vertex 4.617609 13.849645 9.359371
vertex 4.638085 13.849645 9.359371
vertex 4.617609 13.828892 9.339372
endloop
endfacet
facet normal 0 0 0
outer loop
vertex 4.638085 13.828892 9.339372
vertex 4.658561 13.849645 9.359371
vertex 4.658561 13.828892 9.339372
endloop
endfacet
facet normal 0 0 0
outer loop
vertex 4.638085 13.849645 9.359371
vertex 4.658561 13.849645 9.359371
vertex 4.638085 13.828892 9.339372
endloop
endfacet
facet normal 0 0 0
outer loop
vertex 4.658561 13.828892 9.339372
vertex 4.658561 13.849645 9.359371
vertex 4.658561 13.828892 9.359371
endloop
endfacet
facet normal 0 0 0
outer loop
vertex 4.638085 13.704371 9.379372
vertex 4.617609 13.725124 9.379372
vertex 4.638085 13.725124 9.359371
endloop
endfacet
facet normal 0 0 0
outer loop
vertex 4.617609 13.725124 9.379372
vertex 4.617609 13.725124 9.359371
vertex 4.638085 13.725124 9.359371
endloop
endfacet
facet normal 0 0 0
outer loop
vertex 4.638085 13.704371 9.379372
vertex 4.638085 13.725124 9.359371
vertex 4.658561 13.725124 9.379372
endloop
endfacet
facet normal 0 0 0
outer loop
vertex 4.638085 13.725124 9.359371
vertex 4.658561 13.725124 9.359371
vertex 4.658561 13.725124 9.379372
endloop
endfacet
facet normal 0 0 0
outer loop
vertex 4.679036 13.725124 9.359371
vertex 4.679036 13.725124 9.379372
vertex 4.658561 13.725124 9.359371
endloop
endfacet
facet normal 0 0 0
outer loop
vertex 4.658561 13.725124 9.359371
vertex 4.679036 13.725124 9.379372
vertex 4.658561 13.725124 9.379372
endloop
endfacet
facet normal 0 0 0
outer loop
vertex 4.699512 13.725124 9.359371
vertex 4.699512 13.725124 9.379372
vertex 4.679036 13.725124 9.359371
endloop
endfacet
facet normal 0 0 0
outer loop
vertex 4.679036 13.725124 9.359371
vertex 4.699512 13.725124 9.379372
vertex 4.679036 13.725124 9.379372
endloop
endfacet
facet normal 0 0 0
outer loop
vertex 4.719988 13.725124 9.359371
vertex 4.719988 13.725124 9.379372
vertex 4.699512 13.725124 9.359371
endloop
endfacet
facet normal 0 0 0
outer loop
vertex 4.699512 13.725124 9.359371
vertex 4.719988 13.725124 9.379372
vertex 4.699512 13.725124 9.379372
endloop
endfacet
facet normal 0 0 0
outer loop
vertex 4.597133 13.745878 9.359371
vertex 4.617609 13.725124 9.359371
vertex 4.617609 13.745878 9.379372
endloop
endfacet
facet normal 0 0 0
outer loop
vertex 4.617609 13.725124 9.359371
vertex 4.617609 13.725124 9.379372
vertex 4.617609 13.745878 9.379372
endloop
endfacet
facet normal 0 0 0
outer loop
vertex 4.719988 13.725124 9.359371
vertex 4.719988 13.745878 9.359371
vertex 4.719988 13.725124 9.379372
endloop
endfacet
facet normal 0 0 0
outer loop
vertex 4.719988 13.725124 9.379372
vertex 4.719988 13.745878 9.359371
vertex 4.719988 13.745878 9.379372
endloop
endfacet
facet normal 0 0 0
outer loop
vertex 4.617609 13.766631 9.379372
vertex 4.597133 13.745878 9.359371
vertex 4.617609 13.745878 9.379372
endloop
endfacet
facet normal 0 0 0
outer loop
vertex 4.597133 13.766631 9.359371
vertex 4.597133 13.745878 9.359371
vertex 4.617609 13.766631 9.379372
endloop
endfacet
facet normal 0 0 0
outer loop
vertex 4.719988 13.745878 9.359371
vertex 4.699512 13.766631 9.379372
vertex 4.719988 13.745878 9.379372
endloop
endfacet
facet normal 0 0 0
outer loop
vertex 4.699512 13.766631 9.359371
vertex 4.699512 13.766631 9.379372
vertex 4.719988 13.745878 9.359371
endloop
endfacet
facet normal 0 0 0
outer loop
vertex 4.597133 13.766631 9.359371
vertex 4.597133 13.787385 9.379372
vertex 4.597133 13.787385 9.359371
endloop
endfacet
facet normal 0 0 0
outer loop
vertex 4.617609 13.766631 9.379372
vertex 4.597133 13.787385 9.379372
vertex 4.597133 13.766631 9.359371
endloop
endfacet
facet normal 0 0 0
outer loop
vertex 4.699512 13.766631 9.359371
vertex 4.699512 13.787385 9.359371
vertex 4.699512 13.766631 9.379372
endloop
endfacet
facet normal 0 0 0
outer loop
vertex 4.699512 13.766631 9.379372
vertex 4.699512 13.787385 9.359371
vertex 4.699512 13.787385 9.379372
endloop
endfacet
facet normal 0 0 0
outer loop
vertex 4.597133 13.787385 9.359371
vertex 4.597133 13.787385 9.379372
vertex 4.597133 13.808138 9.359371
endloop
endfacet
facet normal 0 0 0
outer loop
vertex 4.597133 13.787385 9.379372
vertex 4.597133 13.808138 9.379372
vertex 4.597133 13.808138 9.359371
endloop
endfacet
facet normal 0 0 0
outer loop
vertex 4.699512 13.808138 9.359371
vertex 4.679036 13.808138 9.379372
vertex 4.699512 13.787385 9.379372
endloop
endfacet
facet normal 0 0 0
outer loop
vertex 4.699512 13.808138 9.359371
vertex 4.699512 13.787385 9.379372
vertex 4.699512 13.787385 9.359371
endloop
endfacet
facet normal 0 0 0
outer loop
vertex 4.576657 13.828892 9.359371
vertex 4.597133 13.808138 9.359371
vertex 4.597133 13.828892 9.379372
endloop
endfacet
facet normal 0 0 0
outer loop
vertex 4.597133 13.808138 9.359371
vertex 4.597133 13.808138 9.379372
vertex 4.597133 13.828892 9.379372
endloop
endfacet
facet normal 0 0 0
outer loop
vertex 4.679036 13.808138 9.359371
vertex 4.658561 13.828892 9.359371
vertex 4.679036 13.828892 9.379372
endloop
endfacet
facet normal 0 0 0
outer loop
vertex 4.699512 13.808138 9.359371
vertex 4.679036 13.828892 9.379372
vertex 4.679036 13.808138 9.379372
endloop
endfacet
facet normal 0 0 0
outer loop
vertex 4.699512 13.808138 9.359371
vertex 4.679036 13.808138 9.359371
vertex 4.679036 13.828892 9.379372
endloop
endfacet
facet normal 0 0 0
outer loop
vertex 4.576657 13.828892 9.359371
vertex 4.597133 13.828892 9.379372
vertex 4.597133 13.828892 9.359371
endloop
endfacet
facet normal 0 0 0
outer loop
vertex 4.617609 13.849645 9.359371
vertex 4.597133 13.828892 9.359371
vertex 4.617609 13.828892 9.379372
endloop
endfacet
facet normal 0 0 0
outer loop
vertex 4.597133 13.828892 9.359371
vertex 4.597133 13.828892 9.379372
vertex 4.617609 13.828892 9.379372
endloop
endfacet
facet normal 0 0 0
outer loop
vertex 4.617609 13.828892 9.379372
vertex 4.638085 13.849645 9.379372
vertex 4.617609 13.849645 9.359371
endloop
endfacet
facet normal 0 0 0
outer loop
vertex 4.679036 13.828892 9.379372
vertex 4.658561 13.828892 9.359371
vertex 4.658561 13.849645 9.379372
endloop
endfacet
facet normal 0 0 0
outer loop
vertex 4.658561 13.828892 9.359371
vertex 4.658561 13.849645 9.359371
vertex 4.658561 13.849645 9.379372
endloop
endfacet
facet normal 0 0 0
outer loop
vertex 4.617609 13.849645 9.359371
vertex 4.638085 13.849645 9.379372
vertex 4.638085 13.849645 9.359371
endloop
endfacet
facet normal 0 0 0
outer loop
vertex 4.658561 13.849645 9.359371
vertex 4.638085 13.849645 9.359371
vertex 4.658561 13.849645 9.379372
endloop
endfacet
facet normal 0 0 0
outer loop
vertex 4.638085 13.849645 9.359371
vertex 4.638085 13.849645 9.379372
vertex 4.658561 13.849645 9.379372
endloop
endfacet
facet normal 0 0 0
outer loop
vertex 4.617609 13.704371 9.399372
vertex 4.597133 13.725124 9.399372
vertex 4.617609 13.725124 9.379372
endloop
endfacet
facet normal 0 0 0
outer loop
vertex 4.617609 13.704371 9.399372
vertex 4.617609 13.725124 9.379372
vertex 4.638085 13.725124 9.399372
endloop
endfacet
facet normal 0 0 0
outer loop
vertex 4.638085 13.704371 9.379372
vertex 4.638085 13.725124 9.399372
vertex 4.617609 13.725124 9.379372
endloop
endfacet
facet normal 0 0 0
outer loop
vertex 4.638085 13.704371 9.379372
vertex 4.658561 13.725124 9.379372
vertex 4.638085 13.725124 9.399372
endloop
endfacet
facet normal 0 0 0
outer loop
vertex 4.658561 13.725124 9.379372
vertex 4.658561 13.725124 9.399372
vertex 4.638085 13.725124 9.399372
endloop
endfacet
facet normal 0 0 0
outer loop
vertex 4.679036 13.725124 9.379372
vertex 4.679036 13.725124 9.399372
vertex 4.658561 13.725124 9.379372
endloop
endfacet
facet normal 0 0 0
outer loop
vertex 4.658561 13.725124 9.379372
vertex 4.679036 13.725124 9.399372
vertex 4.658561 13.725124 9.399372
endloop
endfacet
facet normal 0 0 0
outer loop
vertex 4.699512 13.725124 9.379372
vertex 4.699512 13.725124 9.399372
vertex 4.679036 13.725124 9.379372
endloop
endfacet
facet normal 0 0 0
outer loop
vertex 4.679036 13.725124 9.379372
vertex 4.699512 13.725124 9.399372
vertex 4.679036 13.725124 9.399372
endloop
endfacet
facet normal 0 0 0
outer loop
vertex 4.719988 13.725124 9.379372
vertex 4.699512 13.725124 9.399372
vertex 4.699512 13.725124 9.379372
endloop
endfacet
facet normal 0 0 0
outer loop
vertex 4.597133 13.725124 9.399372
vertex 4.617609 13.745878 9.399372
vertex 4.617609 13.725124 9.379372
endloop
endfacet
facet normal 0 0 0
outer loop
vertex 4.617609 13.745878 9.399372
vertex 4.617609 13.745878 9.379372
vertex 4.617609 13.725124 9.379372
endloop
endfacet
facet normal 0 0 0
outer loop
vertex 4.699512 13.745878 9.379372
vertex 4.679036 13.745878 9.399372
vertex 4.699512 13.725124 9.399372
endloop
endfacet
facet normal 0 0 0
outer loop
vertex 4.699512 13.725124 9.399372
vertex 4.719988 13.725124 9.379372
vertex 4.699512 13.745878 9.379372
endloop
endfacet
facet normal 0 0 0
outer loop
vertex 4.719988 13.725124 9.379372
vertex 4.719988 13.745878 9.379372
vertex 4.699512 13.745878 9.379372
endloop
endfacet
facet normal 0 0 0
outer loop
vertex 4.597133 13.766631 9.399372
vertex 4.617609 13.766631 9.379372
vertex 4.617609 13.745878 9.399372
endloop
endfacet
facet normal 0 0 0
outer loop
vertex 4.617609 13.766631 9.379372
vertex 4.617609 13.745878 9.379372
vertex 4.617609 13.745878 9.399372
endloop
endfacet
facet normal 0 0 0
outer loop
vertex 4.699512 13.745878 9.379372
vertex 4.699512 13.766631 9.399372
vertex 4.679036 13.745878 9.399372
endloop
endfacet
facet normal 0 0 0
outer loop
vertex 4.719988 13.745878 9.379372
vertex 4.699512 13.766631 9.379372
vertex 4.699512 13.745878 9.379372
endloop
endfacet
facet normal 0 0 0
outer loop
vertex 4.699512 13.745878 9.379372
vertex 4.699512 13.766631 9.379372
vertex 4.699512 13.766631 9.399372
endloop
endfacet
facet normal 0 0 0
outer loop
vertex 4.699512 13.766631 9.399372
vertex 4.699512 13.766631 9.379372
vertex 4.719988 13.766631 9.399372
endloop
endfacet
facet normal 0 0 0
outer loop
vertex 4.597133 13.787385 9.379372
vertex 4.597133 13.766631 9.399372
vertex 4.597133 13.787385 9.399372
endloop
endfacet
facet normal 0 0 0
outer loop
vertex 4.617609 13.766631 9.379372
vertex 4.597133 13.766631 9.399372
vertex 4.597133 13.787385 9.379372
endloop
endfacet
facet normal 0 0 0
outer loop
vertex 4.699512 13.787385 9.379372
vertex 4.679036 13.787385 9.399372
vertex 4.699512 13.766631 9.399372
endloop
endfacet
facet normal 0 0 0
outer loop
vertex 4.719988 13.766631 9.399372
vertex 4.699512 13.787385 9.379372
vertex 4.699512 13.766631 9.399372
endloop
endfacet
facet normal 0 0 0
outer loop
vertex 4.719988 13.766631 9.399372
vertex 4.699512 13.766631 9.379372
vertex 4.699512 13.787385 9.379372
endloop
endfacet
facet normal 0 0 0
outer loop
vertex 4.576657 13.808138 9.399372
vertex 4.597133 13.808138 9.379372
vertex 4.597133 13.787385 9.399372
endloop
endfacet
facet normal 0 0 0
outer loop
vertex 4.597133 13.808138 9.379372
vertex 4.597133 13.787385 9.379372
vertex 4.597133 13.787385 9.399372
endloop
endfacet
facet normal 0 0 0
outer loop
vertex 4.699512 13.787385 9.379372
vertex 4.679036 13.808138 9.379372
vertex 4.679036 13.787385 9.399372
endloop
endfacet
facet normal 0 0 0
outer loop
vertex 4.679036 13.808138 9.379372
vertex 4.679036 13.808138 9.399372
vertex 4.679036 13.787385 9.399372
endloop
endfacet
facet normal 0 0 0
outer loop
vertex 4.597133 13.808138 9.379372
vertex 4.576657 13.828892 9.399372
vertex 4.597133 13.828892 9.379372
endloop
endfacet
facet normal 0 0 0
outer loop
vertex 4.576657 13.808138 9.399372
vertex 4.576657 13.828892 9.399372
vertex 4.597133 13.808138 9.379372
endloop
endfacet
facet normal 0 0 0
outer loop
vertex 4.679036 13.808138 9.379372
vertex 4.679036 13.828892 9.379372
vertex 4.679036 13.808138 9.399372
endloop
endfacet
facet normal 0 0 0
outer loop
vertex 4.679036 13.808138 9.399372
vertex 4.679036 13.828892 9.379372
vertex 4.679036 13.828892 9.399372
endloop
endfacet
facet normal 0 0 0
outer loop
vertex 4.597133 13.828892 9.379372
vertex 4.576657 13.828892 9.399372
vertex 4.597133 13.849645 9.399372
endloop
endfacet
facet normal 0 0 0
outer loop
vertex 4.597133 13.828892 9.379372
vertex 4.617609 13.849645 9.399372
vertex 4.617609 13.828892 9.379372
endloop
endfacet
facet normal 0 0 0
outer loop
vertex 4.597133 13.849645 9.399372
vertex 4.617609 13.849645 9.399372
vertex 4.597133 13.828892 9.379372
endloop
endfacet
facet normal 0 0 0
outer loop
vertex 4.617609 13.849645 9.399372
vertex 4.638085 13.828892 9.399372
vertex 4.617609 13.828892 9.379372
endloop
endfacet
facet normal 0 0 0
outer loop
vertex 4.638085 13.849645 9.379372
vertex 4.617609 13.828892 9.379372
vertex 4.638085 13.828892 9.399372
endloop
endfacet
facet normal 0 0 0
outer loop
vertex 4.638085 13.828892 9.399372
vertex 4.658561 13.849645 9.399372
vertex 4.638085 13.849645 9.379372
endloop
endfacet
facet normal 0 0 0
outer loop
vertex 4.679036 13.828892 9.379372
vertex 4.658561 13.849645 9.379372
vertex 4.679036 13.849645 9.399372
endloop
endfacet
facet normal 0 0 0
outer loop
vertex 4.679036 13.828892 9.379372
vertex 4.679036 13.849645 9.399372
vertex 4.679036 13.828892 9.399372
endloop
endfacet
facet normal 0 0 0
outer loop
vertex 4.638085 13.849645 9.379372
vertex 4.658561 13.870398 9.399372
vertex 4.658561 13.849645 9.379372
endloop
endfacet
facet normal 0 0 0
outer loop
vertex 4.638085 13.849645 9.379372
vertex 4.658561 13.849645 9.399372
vertex 4.658561 13.870398 9.399372
endloop
endfacet
facet normal 0 0 0
outer loop
vertex 4.658561 13.849645 9.379372
vertex 4.658561 13.870398 9.399372
vertex 4.679036 13.849645 9.399372
endloop
endfacet
facet normal 0 0 0
outer loop
vertex 4.597133 13.725124 9.399372
vertex 4.617609 13.704371 9.399372
vertex 4.617609 13.725124 9.399372
endloop
endfacet
facet normal 0 0 0
outer loop
vertex 4.617609 13.704371 9.399372
vertex 4.638085 13.725124 9.399372
vertex 4.617609 13.725124 9.399372
endloop
endfacet
facet normal 0 0 0
outer loop
vertex 4.617609 13.745878 9.399372
vertex 4.597133 13.725124 9.399372
vertex 4.617609 13.725124 9.399372
endloop
endfacet
facet normal 0 0 0
outer loop
vertex 4.638085 13.725124 9.399372
vertex 4.638085 13.745878 9.399372
vertex 4.617609 13.725124 9.399372
endloop
endfacet
facet normal 0 0 0
outer loop
vertex 4.638085 13.745878 9.399372
vertex 4.617609 13.745878 9.399372
vertex 4.617609 13.725124 9.399372
endloop
endfacet
facet normal 0 0 0
outer loop
vertex 4.658561 13.725124 9.399372
vertex 4.658561 13.745878 9.399372
vertex 4.638085 13.725124 9.399372
endloop
endfacet
facet normal 0 0 0
outer loop
vertex 4.658561 13.745878 9.399372
vertex 4.638085 13.745878 9.399372
vertex 4.638085 13.725124 9.399372
endloop
endfacet
facet normal 0 0 0
outer loop
vertex 4.679036 13.725124 9.399372
vertex 4.679036 13.745878 9.399372
vertex 4.658561 13.725124 9.399372
endloop
endfacet
facet normal 0 0 0
outer loop
vertex 4.679036 13.745878 9.399372
vertex 4.658561 13.745878 9.399372
vertex 4.658561 13.725124 9.399372
endloop
endfacet
facet normal 0 0 0
outer loop
vertex 4.699512 13.725124 9.399372
vertex 4.679036 13.745878 9.399372
vertex 4.679036 13.725124 9.399372
endloop
endfacet
facet normal 0 0 0
outer loop
vertex 4.597133 13.766631 9.399372
vertex 4.617609 13.745878 9.399372
vertex 4.617609 13.766631 9.399372
endloop
endfacet
facet normal 0 0 0
outer loop
vertex 4.638085 13.745878 9.399372
vertex 4.638085 13.766631 9.399372
vertex 4.617609 13.745878 9.399372
endloop
endfacet
facet normal 0 0 0
outer loop
vertex 4.638085 13.766631 9.399372
vertex 4.617609 13.766631 9.399372
vertex 4.617609 13.745878 9.399372
endloop
endfacet
facet normal 0 0 0
outer loop
vertex 4.658561 13.745878 9.399372
vertex 4.658561 13.766631 9.399372
vertex 4.638085 13.745878 9.399372
endloop
endfacet
facet normal 0 0 0
outer loop
vertex 4.658561 13.766631 9.399372
vertex 4.638085 13.766631 9.399372
vertex 4.638085 13.745878 9.399372
endloop
endfacet
facet normal 0 0 0
outer loop
vertex 4.679036 13.745878 9.399372
vertex 4.679036 13.766631 9.399372
vertex 4.658561 13.745878 9.399372
endloop
endfacet
facet normal 0 0 0
outer loop
vertex 4.679036 13.766631 9.399372
vertex 4.658561 13.766631 9.399372
vertex 4.658561 13.745878 9.399372
endloop
endfacet
facet normal 0 0 0
outer loop
vertex 4.679036 13.745878 9.399372
vertex 4.699512 13.766631 9.399372
vertex 4.679036 13.766631 9.399372
endloop
endfacet
facet normal 0 0 0
outer loop
vertex 4.617609 13.766631 9.399372
vertex 4.617609 13.787385 9.399372
vertex 4.597133 13.766631 9.399372
endloop
endfacet
facet normal 0 0 0
outer loop
vertex 4.617609 13.787385 9.399372
vertex 4.597133 13.787385 9.399372
vertex 4.597133 13.766631 9.399372
endloop
endfacet
facet normal 0 0 0
outer loop
vertex 4.638085 13.766631 9.399372
vertex 4.638085 13.787385 9.399372
vertex 4.617609 13.766631 9.399372
endloop
endfacet
facet normal 0 0 0
outer loop
vertex 4.638085 13.787385 9.399372
vertex 4.617609 13.787385 9.399372
vertex 4.617609 13.766631 9.399372
endloop
endfacet
facet normal 0 0 0
outer loop
vertex 4.658561 13.766631 9.399372
vertex 4.658561 13.787385 9.399372
vertex 4.638085 13.766631 9.399372
endloop
endfacet
facet normal 0 0 0
outer loop
vertex 4.658561 13.787385 9.399372
vertex 4.638085 13.787385 9.399372
vertex 4.638085 13.766631 9.399372
endloop
endfacet
facet normal 0 0 0
outer loop
vertex 4.679036 13.766631 9.399372
vertex 4.679036 13.787385 9.399372
vertex 4.658561 13.766631 9.399372
endloop
endfacet
facet normal 0 0 0
outer loop
vertex 4.679036 13.787385 9.399372
vertex 4.658561 13.787385 9.399372
vertex 4.658561 13.766631 9.399372
endloop
endfacet
facet normal 0 0 0
outer loop
vertex 4.699512 13.766631 9.399372
vertex 4.679036 13.787385 9.399372
vertex 4.679036 13.766631 9.399372
endloop
endfacet
facet normal 0 0 0
outer loop
vertex 4.576657 13.808138 9.399372
vertex 4.597133 13.787385 9.399372
vertex 4.597133 13.808138 9.399372
endloop
endfacet
facet normal 0 0 0
outer loop
vertex 4.617609 13.787385 9.399372
vertex 4.617609 13.808138 9.399372
vertex 4.597133 13.787385 9.399372
endloop
endfacet
facet normal 0 0 0
outer loop
vertex 4.617609 13.808138 9.399372
vertex 4.597133 13.808138 9.399372
vertex 4.597133 13.787385 9.399372
endloop
endfacet
facet normal 0 0 0
outer loop
vertex 4.638085 13.787385 9.399372
vertex 4.638085 13.808138 9.399372
vertex 4.617609 13.787385 9.399372
endloop
endfacet
facet normal 0 0 0
outer loop
vertex 4.638085 13.808138 9.399372
vertex 4.617609 13.808138 9.399372
vertex 4.617609 13.787385 9.399372
endloop
endfacet
facet normal 0 0 0
outer loop
vertex 4.658561 13.787385 9.399372
vertex 4.658561 13.808138 9.399372
vertex 4.638085 13.787385 9.399372
endloop
endfacet
facet normal 0 0 0
outer loop
vertex 4.658561 13.808138 9.399372
vertex 4.638085 13.808138 9.399372
vertex 4.638085 13.787385 9.399372
endloop
endfacet
facet normal 0 0 0
outer loop
vertex 4.679036 13.787385 9.399372
vertex 4.679036 13.808138 9.399372
vertex 4.658561 13.787385 9.399372
endloop
endfacet
facet normal 0 0 0
outer loop
vertex 4.679036 13.808138 9.399372
vertex 4.658561 13.808138 9.399372
vertex 4.658561 13.787385 9.399372
endloop
endfacet
facet normal 0 0 0
outer loop
vertex 4.597133 13.808138 9.399372
vertex 4.597133 13.828892 9.399372
vertex 4.576657 13.808138 9.399372
endloop
endfacet
facet normal 0 0 0
outer loop
vertex 4.597133 13.828892 9.399372
vertex 4.576657 13.828892 9.399372
vertex 4.576657 13.808138 9.399372
endloop
endfacet
facet normal 0 0 0
outer loop
vertex 4.617609 13.808138 9.399372
vertex 4.617609 13.828892 9.399372
vertex 4.597133 13.808138 9.399372
endloop
endfacet
facet normal 0 0 0
outer loop
vertex 4.617609 13.828892 9.399372
vertex 4.597133 13.828892 9.399372
vertex 4.597133 13.808138 9.399372
endloop
endfacet
facet normal 0 0 0
outer loop
vertex 4.638085 13.808138 9.399372
vertex 4.638085 13.828892 9.399372
vertex 4.617609 13.808138 9.399372
endloop
endfacet
facet normal 0 0 0
outer loop
vertex 4.638085 13.828892 9.399372
vertex 4.617609 13.828892 9.399372
vertex 4.617609 13.808138 9.399372
endloop
endfacet
facet normal 0 0 0
outer loop
vertex 4.658561 13.808138 9.399372
vertex 4.658561 13.828892 9.399372
vertex 4.638085 13.808138 9.399372
endloop
endfacet
facet normal 0 0 0
outer loop
vertex 4.658561 13.828892 9.399372
vertex 4.638085 13.828892 9.399372
vertex 4.638085 13.808138 9.399372
endloop
endfacet
facet normal 0 0 0
outer loop
vertex 4.679036 13.808138 9.399372
vertex 4.679036 13.828892 9.399372
vertex 4.658561 13.808138 9.399372
endloop
endfacet
facet normal 0 0 0
outer loop
vertex 4.679036 13.828892 9.399372
vertex 4.658561 13.828892 9.399372
vertex 4.658561 13.808138 9.399372
endloop
endfacet
facet normal 0 0 0
outer loop
vertex 4.597133 13.849645 9.399372
vertex 4.576657 13.828892 9.399372
vertex 4.597133 13.828892 9.399372
endloop
endfacet
facet normal 0 0 0
outer loop
vertex 4.617609 13.828892 9.399372
vertex 4.617609 13.849645 9.399372
vertex 4.597133 13.828892 9.399372
endloop
endfacet
facet normal 0 0 0
outer loop
vertex 4.617609 13.849645 9.399372
vertex 4.597133 13.849645 9.399372
vertex 4.597133 13.828892 9.399372
endloop
endfacet
facet normal 0 0 0
outer loop
vertex 4.638085 13.828892 9.399372
vertex 4.617609 13.849645 9.399372
vertex 4.617609 13.828892 9.399372
endloop
endfacet
facet normal 0 0 0
outer loop
vertex 4.658561 13.849645 9.399372
vertex 4.638085 13.828892 9.399372
vertex 4.658561 13.828892 9.399372
endloop
endfacet
facet normal 0 0 0
outer loop
vertex 4.679036 13.828892 9.399372
vertex 4.679036 13.849645 9.399372
vertex 4.658561 13.828892 9.399372
endloop
endfacet
facet normal 0 0 0
outer loop
vertex 4.679036 13.849645 9.399372
vertex 4.658561 13.849645 9.399372
vertex 4.658561 13.828892 9.399372
endloop
endfacet
facet normal 0 0 0
outer loop
vertex 4.679036 13.849645 9.399372
vertex 4.658561 13.870398 9.399372
vertex 4.658561 13.849645 9.399372
endloop
endfacet
endsolid B-16-Plag.213
