solid B-16-Plag.030
facet normal 0 0 0
outer loop
vertex 17.681170 1.874978 3.499372
vertex 17.701645 1.874978 3.519372
vertex 17.701645 1.854224 3.519372
endloop
endfacet
facet normal 0 0 0
outer loop
vertex 17.681170 1.874978 3.499372
vertex 17.701645 1.854224 3.519372
vertex 17.681170 1.874978 3.519372
endloop
endfacet
facet normal 0 0 0
outer loop
vertex 17.722120 1.854224 3.519372
vertex 17.701645 1.854224 3.519372
vertex 17.722120 1.874978 3.519372
endloop
endfacet
facet normal 0 0 0
outer loop
vertex 17.722120 1.874978 3.519372
vertex 17.742596 1.854224 3.519372
vertex 17.722120 1.854224 3.519372
endloop
endfacet
facet normal 0 0 0
outer loop
vertex 17.681170 1.895731 3.519372
vertex 17.681170 1.874978 3.499372
vertex 17.681170 1.874978 3.519372
endloop
endfacet
facet normal 0 0 0
outer loop
vertex 17.681170 1.874978 3.499372
vertex 17.681170 1.895731 3.519372
vertex 17.701645 1.874978 3.519372
endloop
endfacet
facet normal 0 0 0
outer loop
vertex 17.681170 1.895731 3.519372
vertex 17.701645 1.895731 3.519372
vertex 17.701645 1.874978 3.519372
endloop
endfacet
facet normal 0 0 0
outer loop
vertex 17.722120 1.895731 3.519372
vertex 17.701645 1.874978 3.519372
vertex 17.701645 1.895731 3.519372
endloop
endfacet
facet normal 0 0 0
outer loop
vertex 17.681170 1.874978 3.519372
vertex 17.701645 1.854224 3.519372
vertex 17.701645 1.874978 3.519372
endloop
endfacet
facet normal 0 0 0
outer loop
vertex 17.722120 1.874978 3.519372
vertex 17.701645 1.874978 3.519372
vertex 17.701645 1.854224 3.519372
endloop
endfacet
facet normal 0 0 0
outer loop
vertex 17.681170 1.874978 3.519372
vertex 17.681170 1.895731 3.539372
vertex 17.681170 1.895731 3.519372
endloop
endfacet
facet normal 0 0 0
outer loop
vertex 17.701645 1.874978 3.519372
vertex 17.681170 1.895731 3.539372
vertex 17.681170 1.874978 3.519372
endloop
endfacet
facet normal 0 0 0
outer loop
vertex 17.701645 1.895731 3.539372
vertex 17.681170 1.895731 3.539372
vertex 17.701645 1.874978 3.519372
endloop
endfacet
facet normal 0 0 0
outer loop
vertex 17.701645 1.895731 3.539372
vertex 17.701645 1.874978 3.519372
vertex 17.722120 1.895731 3.519372
endloop
endfacet
facet normal 0 0 0
outer loop
vertex 17.701645 1.874978 3.519372
vertex 17.722120 1.874978 3.519372
vertex 17.722120 1.895731 3.519372
endloop
endfacet
facet normal 0 0 0
outer loop
vertex 17.681170 1.916484 3.539372
vertex 17.681170 1.895731 3.519372
vertex 17.681170 1.895731 3.539372
endloop
endfacet
facet normal 0 0 0
outer loop
vertex 17.681170 1.895731 3.519372
vertex 17.701645 1.916484 3.539372
vertex 17.701645 1.895731 3.519372
endloop
endfacet
facet normal 0 0 0
outer loop
vertex 17.681170 1.916484 3.539372
vertex 17.701645 1.916484 3.539372
vertex 17.681170 1.895731 3.519372
endloop
endfacet
facet normal 0 0 0
outer loop
vertex 17.722120 1.895731 3.519372
vertex 17.701645 1.916484 3.539372
vertex 17.701645 1.895731 3.539372
endloop
endfacet
facet normal 0 0 0
outer loop
vertex 17.722120 1.895731 3.519372
vertex 17.701645 1.895731 3.519372
vertex 17.701645 1.916484 3.539372
endloop
endfacet
facet normal 0 0 0
outer loop
vertex 17.701645 1.916484 3.539372
vertex 17.681170 1.916484 3.539372
vertex 17.701645 1.937238 3.539372
endloop
endfacet
facet normal 0 0 0
outer loop
vertex 17.701645 1.937238 3.539372
vertex 17.681170 1.916484 3.539372
vertex 17.681170 1.937238 3.539372
endloop
endfacet
facet normal 0 0 0
outer loop
vertex 17.681170 1.957991 3.539372
vertex 17.701645 1.937238 3.539372
vertex 17.681170 1.937238 3.539372
endloop
endfacet
facet normal 0 0 0
outer loop
vertex 17.701645 1.854224 3.559372
vertex 17.681170 1.874978 3.559372
vertex 17.701645 1.874978 3.559372
endloop
endfacet
facet normal 0 0 0
outer loop
vertex 17.722120 1.854224 3.559372
vertex 17.701645 1.854224 3.559372
vertex 17.722120 1.874978 3.559372
endloop
endfacet
facet normal 0 0 0
outer loop
vertex 17.722120 1.874978 3.559372
vertex 17.701645 1.854224 3.559372
vertex 17.701645 1.874978 3.559372
endloop
endfacet
facet normal 0 0 0
outer loop
vertex 17.742596 1.854224 3.559372
vertex 17.722120 1.854224 3.559372
vertex 17.742596 1.874978 3.559372
endloop
endfacet
facet normal 0 0 0
outer loop
vertex 17.742596 1.874978 3.559372
vertex 17.722120 1.854224 3.559372
vertex 17.722120 1.874978 3.559372
endloop
endfacet
facet normal 0 0 0
outer loop
vertex 17.681170 1.895731 3.539372
vertex 17.681170 1.874978 3.559372
vertex 17.660692 1.895731 3.559372
endloop
endfacet
facet normal 0 0 0
outer loop
vertex 17.701645 1.895731 3.539372
vertex 17.681170 1.874978 3.559372
vertex 17.681170 1.895731 3.539372
endloop
endfacet
facet normal 0 0 0
outer loop
vertex 17.701645 1.874978 3.559372
vertex 17.681170 1.874978 3.559372
vertex 17.701645 1.895731 3.539372
endloop
endfacet
facet normal 0 0 0
outer loop
vertex 17.701645 1.895731 3.539372
vertex 17.722120 1.895731 3.559372
vertex 17.701645 1.874978 3.559372
endloop
endfacet
facet normal 0 0 0
outer loop
vertex 17.722120 1.895731 3.559372
vertex 17.722120 1.874978 3.559372
vertex 17.701645 1.874978 3.559372
endloop
endfacet
facet normal 0 0 0
outer loop
vertex 17.742596 1.874978 3.559372
vertex 17.722120 1.874978 3.559372
vertex 17.742596 1.895731 3.559372
endloop
endfacet
facet normal 0 0 0
outer loop
vertex 17.742596 1.895731 3.559372
vertex 17.722120 1.874978 3.559372
vertex 17.722120 1.895731 3.559372
endloop
endfacet
facet normal 0 0 0
outer loop
vertex 17.681170 1.895731 3.539372
vertex 17.660692 1.916484 3.559372
vertex 17.681170 1.916484 3.539372
endloop
endfacet
facet normal 0 0 0
outer loop
vertex 17.660692 1.895731 3.559372
vertex 17.660692 1.916484 3.559372
vertex 17.681170 1.895731 3.539372
endloop
endfacet
facet normal 0 0 0
outer loop
vertex 17.722120 1.895731 3.559372
vertex 17.701645 1.916484 3.539372
vertex 17.722120 1.916484 3.559372
endloop
endfacet
facet normal 0 0 0
outer loop
vertex 17.701645 1.895731 3.539372
vertex 17.701645 1.916484 3.539372
vertex 17.722120 1.895731 3.559372
endloop
endfacet
facet normal 0 0 0
outer loop
vertex 17.742596 1.895731 3.559372
vertex 17.722120 1.895731 3.559372
vertex 17.742596 1.916484 3.559372
endloop
endfacet
facet normal 0 0 0
outer loop
vertex 17.742596 1.916484 3.559372
vertex 17.722120 1.895731 3.559372
vertex 17.722120 1.916484 3.559372
endloop
endfacet
facet normal 0 0 0
outer loop
vertex 17.681170 1.916484 3.539372
vertex 17.660692 1.937238 3.559372
vertex 17.681170 1.937238 3.539372
endloop
endfacet
facet normal 0 0 0
outer loop
vertex 17.660692 1.916484 3.559372
vertex 17.660692 1.937238 3.559372
vertex 17.681170 1.916484 3.539372
endloop
endfacet
facet normal 0 0 0
outer loop
vertex 17.722120 1.916484 3.559372
vertex 17.701645 1.937238 3.539372
vertex 17.722120 1.937238 3.559372
endloop
endfacet
facet normal 0 0 0
outer loop
vertex 17.701645 1.916484 3.539372
vertex 17.701645 1.937238 3.539372
vertex 17.722120 1.916484 3.559372
endloop
endfacet
facet normal 0 0 0
outer loop
vertex 17.722120 1.937238 3.559372
vertex 17.742596 1.916484 3.559372
vertex 17.722120 1.916484 3.559372
endloop
endfacet
facet normal 0 0 0
outer loop
vertex 17.660692 1.937238 3.559372
vertex 17.681170 1.957991 3.559372
vertex 17.681170 1.937238 3.539372
endloop
endfacet
facet normal 0 0 0
outer loop
vertex 17.681170 1.957991 3.559372
vertex 17.681170 1.957991 3.539372
vertex 17.681170 1.937238 3.539372
endloop
endfacet
facet normal 0 0 0
outer loop
vertex 17.701645 1.937238 3.539372
vertex 17.681170 1.957991 3.539372
vertex 17.701645 1.957991 3.559372
endloop
endfacet
facet normal 0 0 0
outer loop
vertex 17.701645 1.937238 3.539372
vertex 17.701645 1.957991 3.559372
vertex 17.722120 1.937238 3.559372
endloop
endfacet
facet normal 0 0 0
outer loop
vertex 17.701645 1.957991 3.559372
vertex 17.722120 1.957991 3.559372
vertex 17.722120 1.937238 3.559372
endloop
endfacet
facet normal 0 0 0
outer loop
vertex 17.701645 1.957991 3.559372
vertex 17.681170 1.957991 3.539372
vertex 17.681170 1.957991 3.559372
endloop
endfacet
facet normal 0 0 0
outer loop
vertex 17.722120 1.854224 3.579372
vertex 17.701645 1.854224 3.559372
vertex 17.722120 1.854224 3.559372
endloop
endfacet
facet normal 0 0 0
outer loop
vertex 17.742596 1.854224 3.559372
vertex 17.722120 1.854224 3.579372
vertex 17.722120 1.854224 3.559372
endloop
endfacet
facet normal 0 0 0
outer loop
vertex 17.701645 1.854224 3.559372
vertex 17.701645 1.874978 3.579372
vertex 17.681170 1.874978 3.559372
endloop
endfacet
facet normal 0 0 0
outer loop
vertex 17.722120 1.854224 3.579372
vertex 17.701645 1.874978 3.579372
vertex 17.701645 1.854224 3.559372
endloop
endfacet
facet normal 0 0 0
outer loop
vertex 17.742596 1.854224 3.559372
vertex 17.742596 1.874978 3.579372
vertex 17.722120 1.854224 3.579372
endloop
endfacet
facet normal 0 0 0
outer loop
vertex 17.742596 1.874978 3.579372
vertex 17.742596 1.854224 3.559372
vertex 17.742596 1.874978 3.559372
endloop
endfacet
facet normal 0 0 0
outer loop
vertex 17.681170 1.895731 3.579372
vertex 17.660692 1.895731 3.559372
vertex 17.681170 1.874978 3.559372
endloop
endfacet
facet normal 0 0 0
outer loop
vertex 17.660692 1.895731 3.559372
vertex 17.660692 1.874978 3.559372
vertex 17.681170 1.874978 3.559372
endloop
endfacet
facet normal 0 0 0
outer loop
vertex 17.701645 1.874978 3.579372
vertex 17.681170 1.895731 3.579372
vertex 17.681170 1.874978 3.559372
endloop
endfacet
facet normal 0 0 0
outer loop
vertex 17.742596 1.874978 3.559372
vertex 17.742596 1.895731 3.559372
vertex 17.742596 1.874978 3.579372
endloop
endfacet
facet normal 0 0 0
outer loop
vertex 17.742596 1.874978 3.579372
vertex 17.742596 1.895731 3.559372
vertex 17.742596 1.895731 3.579372
endloop
endfacet
facet normal 0 0 0
outer loop
vertex 17.681170 1.916484 3.579372
vertex 17.660692 1.895731 3.559372
vertex 17.681170 1.895731 3.579372
endloop
endfacet
facet normal 0 0 0
outer loop
vertex 17.660692 1.916484 3.559372
vertex 17.660692 1.895731 3.559372
vertex 17.681170 1.916484 3.579372
endloop
endfacet
facet normal 0 0 0
outer loop
vertex 17.742596 1.895731 3.559372
vertex 17.742596 1.916484 3.559372
vertex 17.742596 1.895731 3.579372
endloop
endfacet
facet normal 0 0 0
outer loop
vertex 17.742596 1.895731 3.579372
vertex 17.742596 1.916484 3.559372
vertex 17.742596 1.916484 3.579372
endloop
endfacet
facet normal 0 0 0
outer loop
vertex 17.681170 1.937238 3.579372
vertex 17.660692 1.916484 3.559372
vertex 17.681170 1.916484 3.579372
endloop
endfacet
facet normal 0 0 0
outer loop
vertex 17.660692 1.937238 3.559372
vertex 17.660692 1.916484 3.559372
vertex 17.681170 1.937238 3.579372
endloop
endfacet
facet normal 0 0 0
outer loop
vertex 17.742596 1.916484 3.559372
vertex 17.722120 1.937238 3.559372
vertex 17.742596 1.937238 3.579372
endloop
endfacet
facet normal 0 0 0
outer loop
vertex 17.742596 1.916484 3.559372
vertex 17.742596 1.937238 3.579372
vertex 17.742596 1.916484 3.579372
endloop
endfacet
facet normal 0 0 0
outer loop
vertex 17.660692 1.937238 3.559372
vertex 17.681170 1.937238 3.579372
vertex 17.681170 1.957991 3.559372
endloop
endfacet
facet normal 0 0 0
outer loop
vertex 17.681170 1.937238 3.579372
vertex 17.701645 1.957991 3.579372
vertex 17.681170 1.957991 3.559372
endloop
endfacet
facet normal 0 0 0
outer loop
vertex 17.742596 1.937238 3.579372
vertex 17.722120 1.937238 3.559372
vertex 17.722120 1.957991 3.579372
endloop
endfacet
facet normal 0 0 0
outer loop
vertex 17.722120 1.937238 3.559372
vertex 17.722120 1.957991 3.559372
vertex 17.722120 1.957991 3.579372
endloop
endfacet
facet normal 0 0 0
outer loop
vertex 17.681170 1.957991 3.559372
vertex 17.701645 1.957991 3.579372
vertex 17.701645 1.957991 3.559372
endloop
endfacet
facet normal 0 0 0
outer loop
vertex 17.722120 1.957991 3.559372
vertex 17.701645 1.957991 3.559372
vertex 17.722120 1.957991 3.579372
endloop
endfacet
facet normal 0 0 0
outer loop
vertex 17.701645 1.957991 3.559372
vertex 17.701645 1.957991 3.579372
vertex 17.722120 1.957991 3.579372
endloop
endfacet
facet normal 0 0 0
outer loop
vertex 17.701645 1.874978 3.579372
vertex 17.722120 1.854224 3.579372
vertex 17.722120 1.874978 3.579372
endloop
endfacet
facet normal 0 0 0
outer loop
vertex 17.722120 1.854224 3.579372
vertex 17.742596 1.874978 3.579372
vertex 17.722120 1.874978 3.579372
endloop
endfacet
facet normal 0 0 0
outer loop
vertex 17.681170 1.895731 3.579372
vertex 17.701645 1.874978 3.579372
vertex 17.701645 1.895731 3.579372
endloop
endfacet
facet normal 0 0 0
outer loop
vertex 17.722120 1.874978 3.579372
vertex 17.722120 1.895731 3.579372
vertex 17.701645 1.874978 3.579372
endloop
endfacet
facet normal 0 0 0
outer loop
vertex 17.722120 1.895731 3.579372
vertex 17.701645 1.895731 3.579372
vertex 17.701645 1.874978 3.579372
endloop
endfacet
facet normal 0 0 0
outer loop
vertex 17.742596 1.874978 3.579372
vertex 17.742596 1.895731 3.579372
vertex 17.722120 1.874978 3.579372
endloop
endfacet
facet normal 0 0 0
outer loop
vertex 17.742596 1.895731 3.579372
vertex 17.722120 1.895731 3.579372
vertex 17.722120 1.874978 3.579372
endloop
endfacet
facet normal 0 0 0
outer loop
vertex 17.701645 1.895731 3.579372
vertex 17.701645 1.916484 3.579372
vertex 17.681170 1.895731 3.579372
endloop
endfacet
facet normal 0 0 0
outer loop
vertex 17.701645 1.916484 3.579372
vertex 17.681170 1.916484 3.579372
vertex 17.681170 1.895731 3.579372
endloop
endfacet
facet normal 0 0 0
outer loop
vertex 17.722120 1.895731 3.579372
vertex 17.722120 1.916484 3.579372
vertex 17.701645 1.895731 3.579372
endloop
endfacet
facet normal 0 0 0
outer loop
vertex 17.722120 1.916484 3.579372
vertex 17.701645 1.916484 3.579372
vertex 17.701645 1.895731 3.579372
endloop
endfacet
facet normal 0 0 0
outer loop
vertex 17.742596 1.895731 3.579372
vertex 17.742596 1.916484 3.579372
vertex 17.722120 1.895731 3.579372
endloop
endfacet
facet normal 0 0 0
outer loop
vertex 17.742596 1.916484 3.579372
vertex 17.722120 1.916484 3.579372
vertex 17.722120 1.895731 3.579372
endloop
endfacet
facet normal 0 0 0
outer loop
vertex 17.701645 1.916484 3.579372
vertex 17.701645 1.937238 3.579372
vertex 17.681170 1.916484 3.579372
endloop
endfacet
facet normal 0 0 0
outer loop
vertex 17.701645 1.937238 3.579372
vertex 17.681170 1.937238 3.579372
vertex 17.681170 1.916484 3.579372
endloop
endfacet
facet normal 0 0 0
outer loop
vertex 17.722120 1.916484 3.579372
vertex 17.722120 1.937238 3.579372
vertex 17.701645 1.916484 3.579372
endloop
endfacet
facet normal 0 0 0
outer loop
vertex 17.722120 1.937238 3.579372
vertex 17.701645 1.937238 3.579372
vertex 17.701645 1.916484 3.579372
endloop
endfacet
facet normal 0 0 0
outer loop
vertex 17.742596 1.916484 3.579372
vertex 17.742596 1.937238 3.579372
vertex 17.722120 1.916484 3.579372
endloop
endfacet
facet normal 0 0 0
outer loop
vertex 17.742596 1.937238 3.579372
vertex 17.722120 1.937238 3.579372
vertex 17.722120 1.916484 3.579372
endloop
endfacet
facet normal 0 0 0
outer loop
vertex 17.701645 1.957991 3.579372
vertex 17.681170 1.937238 3.579372
vertex 17.701645 1.937238 3.579372
endloop
endfacet
facet normal 0 0 0
outer loop
vertex 17.722120 1.937238 3.579372
vertex 17.722120 1.957991 3.579372
vertex 17.701645 1.937238 3.579372
endloop
endfacet
facet normal 0 0 0
outer loop
vertex 17.722120 1.957991 3.579372
vertex 17.701645 1.957991 3.579372
vertex 17.701645 1.937238 3.579372
endloop
endfacet
facet normal 0 0 0
outer loop
vertex 17.742596 1.937238 3.579372
vertex 17.722120 1.957991 3.579372
vertex 17.722120 1.937238 3.579372
endloop
endfacet
endsolid B-16-Plag.030
