solid B-16-Plag.429
facet normal 0 0 0
outer loop
vertex 5.600447 12.957252 15.539371
vertex 5.620923 12.957252 15.519372
vertex 5.620923 12.957252 15.539371
endloop
endfacet
facet normal 0 0 0
outer loop
vertex 5.641399 12.936499 15.539371
vertex 5.620923 12.957252 15.539371
vertex 5.641399 12.957252 15.519372
endloop
endfacet
facet normal 0 0 0
outer loop
vertex 5.620923 12.957252 15.539371
vertex 5.620923 12.957252 15.519372
vertex 5.641399 12.957252 15.519372
endloop
endfacet
facet normal 0 0 0
outer loop
vertex 5.661875 12.957252 15.519372
vertex 5.641399 12.936499 15.539371
vertex 5.641399 12.957252 15.519372
endloop
endfacet
facet normal 0 0 0
outer loop
vertex 5.661875 12.936499 15.539371
vertex 5.641399 12.936499 15.539371
vertex 5.661875 12.957252 15.519372
endloop
endfacet
facet normal 0 0 0
outer loop
vertex 5.661875 12.957252 15.519372
vertex 5.682351 12.957252 15.539371
vertex 5.661875 12.936499 15.539371
endloop
endfacet
facet normal 0 0 0
outer loop
vertex 5.682351 12.957252 15.539371
vertex 5.682351 12.936499 15.539371
vertex 5.661875 12.936499 15.539371
endloop
endfacet
facet normal 0 0 0
outer loop
vertex 5.702826 12.957252 15.539371
vertex 5.682351 12.936499 15.539371
vertex 5.682351 12.957252 15.539371
endloop
endfacet
facet normal 0 0 0
outer loop
vertex 5.579971 12.957252 15.539371
vertex 5.600447 12.978005 15.539371
vertex 5.600447 12.957252 15.539371
endloop
endfacet
facet normal 0 0 0
outer loop
vertex 5.620923 12.957252 15.519372
vertex 5.600447 12.957252 15.539371
vertex 5.620923 12.978005 15.539371
endloop
endfacet
facet normal 0 0 0
outer loop
vertex 5.600447 12.957252 15.539371
vertex 5.600447 12.978005 15.539371
vertex 5.620923 12.978005 15.539371
endloop
endfacet
facet normal 0 0 0
outer loop
vertex 5.620923 12.957252 15.519372
vertex 5.641399 12.978005 15.539371
vertex 5.641399 12.957252 15.519372
endloop
endfacet
facet normal 0 0 0
outer loop
vertex 5.620923 12.978005 15.539371
vertex 5.641399 12.978005 15.539371
vertex 5.620923 12.957252 15.519372
endloop
endfacet
facet normal 0 0 0
outer loop
vertex 5.641399 12.957252 15.519372
vertex 5.661875 12.978005 15.539371
vertex 5.661875 12.957252 15.519372
endloop
endfacet
facet normal 0 0 0
outer loop
vertex 5.641399 12.978005 15.539371
vertex 5.661875 12.978005 15.539371
vertex 5.641399 12.957252 15.519372
endloop
endfacet
facet normal 0 0 0
outer loop
vertex 5.661875 12.957252 15.519372
vertex 5.661875 12.978005 15.539371
vertex 5.682351 12.957252 15.539371
endloop
endfacet
facet normal 0 0 0
outer loop
vertex 5.661875 12.978005 15.539371
vertex 5.682351 12.978005 15.539371
vertex 5.682351 12.957252 15.539371
endloop
endfacet
facet normal 0 0 0
outer loop
vertex 5.702826 12.957252 15.539371
vertex 5.682351 12.957252 15.539371
vertex 5.702826 12.978005 15.539371
endloop
endfacet
facet normal 0 0 0
outer loop
vertex 5.702826 12.978005 15.539371
vertex 5.682351 12.957252 15.539371
vertex 5.682351 12.978005 15.539371
endloop
endfacet
facet normal 0 0 0
outer loop
vertex 5.723302 12.978005 15.539371
vertex 5.702826 12.957252 15.539371
vertex 5.702826 12.978005 15.539371
endloop
endfacet
facet normal 0 0 0
outer loop
vertex 5.661875 12.978005 15.539371
vertex 5.682351 12.998758 15.539371
vertex 5.682351 12.978005 15.539371
endloop
endfacet
facet normal 0 0 0
outer loop
vertex 5.682351 12.998758 15.539371
vertex 5.702826 12.978005 15.539371
vertex 5.682351 12.978005 15.539371
endloop
endfacet
facet normal 0 0 0
outer loop
vertex 5.620923 12.936499 15.559372
vertex 5.641399 12.936499 15.539371
vertex 5.641399 12.936499 15.559372
endloop
endfacet
facet normal 0 0 0
outer loop
vertex 5.661875 12.936499 15.539371
vertex 5.661875 12.936499 15.559372
vertex 5.641399 12.936499 15.539371
endloop
endfacet
facet normal 0 0 0
outer loop
vertex 5.641399 12.936499 15.539371
vertex 5.661875 12.936499 15.559372
vertex 5.641399 12.936499 15.559372
endloop
endfacet
facet normal 0 0 0
outer loop
vertex 5.682351 12.936499 15.539371
vertex 5.682351 12.936499 15.559372
vertex 5.661875 12.936499 15.539371
endloop
endfacet
facet normal 0 0 0
outer loop
vertex 5.661875 12.936499 15.539371
vertex 5.682351 12.936499 15.559372
vertex 5.661875 12.936499 15.559372
endloop
endfacet
facet normal 0 0 0
outer loop
vertex 5.682351 12.936499 15.539371
vertex 5.702826 12.936499 15.559372
vertex 5.682351 12.936499 15.559372
endloop
endfacet
facet normal 0 0 0
outer loop
vertex 5.600447 12.936499 15.559372
vertex 5.600447 12.957252 15.559372
vertex 5.579971 12.957252 15.539371
endloop
endfacet
facet normal 0 0 0
outer loop
vertex 5.600447 12.936499 15.559372
vertex 5.579971 12.957252 15.539371
vertex 5.600447 12.957252 15.539371
endloop
endfacet
facet normal 0 0 0
outer loop
vertex 5.620923 12.957252 15.539371
vertex 5.600447 12.936499 15.559372
vertex 5.600447 12.957252 15.539371
endloop
endfacet
facet normal 0 0 0
outer loop
vertex 5.620923 12.936499 15.559372
vertex 5.600447 12.936499 15.559372
vertex 5.620923 12.957252 15.539371
endloop
endfacet
facet normal 0 0 0
outer loop
vertex 5.641399 12.936499 15.539371
vertex 5.620923 12.936499 15.559372
vertex 5.620923 12.957252 15.539371
endloop
endfacet
facet normal 0 0 0
outer loop
vertex 5.682351 12.936499 15.539371
vertex 5.702826 12.957252 15.539371
vertex 5.702826 12.936499 15.559372
endloop
endfacet
facet normal 0 0 0
outer loop
vertex 5.702826 12.957252 15.539371
vertex 5.723302 12.957252 15.559372
vertex 5.702826 12.936499 15.559372
endloop
endfacet
facet normal 0 0 0
outer loop
vertex 5.579971 12.978005 15.559372
vertex 5.600447 12.978005 15.539371
vertex 5.600447 12.957252 15.559372
endloop
endfacet
facet normal 0 0 0
outer loop
vertex 5.579971 12.957252 15.539371
vertex 5.600447 12.957252 15.559372
vertex 5.600447 12.978005 15.539371
endloop
endfacet
facet normal 0 0 0
outer loop
vertex 5.723302 12.978005 15.539371
vertex 5.702826 12.978005 15.559372
vertex 5.702826 12.957252 15.539371
endloop
endfacet
facet normal 0 0 0
outer loop
vertex 5.723302 12.957252 15.559372
vertex 5.702826 12.957252 15.539371
vertex 5.702826 12.978005 15.559372
endloop
endfacet
facet normal 0 0 0
outer loop
vertex 5.600447 12.978005 15.539371
vertex 5.579971 12.978005 15.559372
vertex 5.600447 12.978005 15.559372
endloop
endfacet
facet normal 0 0 0
outer loop
vertex 5.620923 12.998758 15.559372
vertex 5.620923 12.978005 15.539371
vertex 5.600447 12.978005 15.559372
endloop
endfacet
facet normal 0 0 0
outer loop
vertex 5.620923 12.978005 15.539371
vertex 5.600447 12.978005 15.539371
vertex 5.600447 12.978005 15.559372
endloop
endfacet
facet normal 0 0 0
outer loop
vertex 5.620923 12.978005 15.539371
vertex 5.641399 12.998758 15.559372
vertex 5.641399 12.978005 15.539371
endloop
endfacet
facet normal 0 0 0
outer loop
vertex 5.620923 12.998758 15.559372
vertex 5.641399 12.998758 15.559372
vertex 5.620923 12.978005 15.539371
endloop
endfacet
facet normal 0 0 0
outer loop
vertex 5.641399 12.978005 15.539371
vertex 5.661875 12.998758 15.559372
vertex 5.661875 12.978005 15.539371
endloop
endfacet
facet normal 0 0 0
outer loop
vertex 5.641399 12.998758 15.559372
vertex 5.661875 12.998758 15.559372
vertex 5.641399 12.978005 15.539371
endloop
endfacet
facet normal 0 0 0
outer loop
vertex 5.661875 12.978005 15.539371
vertex 5.661875 12.998758 15.559372
vertex 5.682351 12.998758 15.539371
endloop
endfacet
facet normal 0 0 0
outer loop
vertex 5.702826 12.978005 15.539371
vertex 5.682351 12.998758 15.539371
vertex 5.702826 12.998758 15.559372
endloop
endfacet
facet normal 0 0 0
outer loop
vertex 5.723302 12.978005 15.539371
vertex 5.702826 12.998758 15.559372
vertex 5.702826 12.978005 15.559372
endloop
endfacet
facet normal 0 0 0
outer loop
vertex 5.723302 12.978005 15.539371
vertex 5.702826 12.978005 15.539371
vertex 5.702826 12.998758 15.559372
endloop
endfacet
facet normal 0 0 0
outer loop
vertex 5.620923 13.019512 15.559372
vertex 5.641399 12.998758 15.559372
vertex 5.620923 12.998758 15.559372
endloop
endfacet
facet normal 0 0 0
outer loop
vertex 5.641399 12.998758 15.559372
vertex 5.661875 13.019512 15.559372
vertex 5.661875 12.998758 15.559372
endloop
endfacet
facet normal 0 0 0
outer loop
vertex 5.682351 12.998758 15.539371
vertex 5.661875 12.998758 15.559372
vertex 5.661875 13.019512 15.559372
endloop
endfacet
facet normal 0 0 0
outer loop
vertex 5.682351 12.998758 15.539371
vertex 5.661875 13.019512 15.559372
vertex 5.682351 12.998758 15.559372
endloop
endfacet
facet normal 0 0 0
outer loop
vertex 5.702826 12.998758 15.559372
vertex 5.682351 12.998758 15.539371
vertex 5.682351 12.998758 15.559372
endloop
endfacet
facet normal 0 0 0
outer loop
vertex 5.661875 13.040265 15.559372
vertex 5.641399 13.061018 15.559372
vertex 5.661875 13.061018 15.559372
endloop
endfacet
facet normal 0 0 0
outer loop
vertex 5.620923 12.915745 15.579371
vertex 5.600447 12.936499 15.579371
vertex 5.620923 12.936499 15.559372
endloop
endfacet
facet normal 0 0 0
outer loop
vertex 5.600447 12.936499 15.579371
vertex 5.600447 12.936499 15.559372
vertex 5.620923 12.936499 15.559372
endloop
endfacet
facet normal 0 0 0
outer loop
vertex 5.641399 12.936499 15.559372
vertex 5.620923 12.915745 15.579371
vertex 5.620923 12.936499 15.559372
endloop
endfacet
facet normal 0 0 0
outer loop
vertex 5.641399 12.915745 15.579371
vertex 5.620923 12.915745 15.579371
vertex 5.641399 12.936499 15.559372
endloop
endfacet
facet normal 0 0 0
outer loop
vertex 5.661875 12.936499 15.559372
vertex 5.641399 12.915745 15.579371
vertex 5.641399 12.936499 15.559372
endloop
endfacet
facet normal 0 0 0
outer loop
vertex 5.661875 12.915745 15.579371
vertex 5.641399 12.915745 15.579371
vertex 5.661875 12.936499 15.559372
endloop
endfacet
facet normal 0 0 0
outer loop
vertex 5.661875 12.915745 15.579371
vertex 5.661875 12.936499 15.559372
vertex 5.682351 12.936499 15.579371
endloop
endfacet
facet normal 0 0 0
outer loop
vertex 5.661875 12.936499 15.559372
vertex 5.682351 12.936499 15.559372
vertex 5.682351 12.936499 15.579371
endloop
endfacet
facet normal 0 0 0
outer loop
vertex 5.702826 12.936499 15.559372
vertex 5.702826 12.936499 15.579371
vertex 5.682351 12.936499 15.559372
endloop
endfacet
facet normal 0 0 0
outer loop
vertex 5.682351 12.936499 15.559372
vertex 5.702826 12.936499 15.579371
vertex 5.682351 12.936499 15.579371
endloop
endfacet
facet normal 0 0 0
outer loop
vertex 5.579971 12.957252 15.579371
vertex 5.600447 12.957252 15.559372
vertex 5.600447 12.936499 15.579371
endloop
endfacet
facet normal 0 0 0
outer loop
vertex 5.600447 12.957252 15.559372
vertex 5.600447 12.936499 15.559372
vertex 5.600447 12.936499 15.579371
endloop
endfacet
facet normal 0 0 0
outer loop
vertex 5.723302 12.957252 15.559372
vertex 5.702826 12.957252 15.579371
vertex 5.702826 12.936499 15.559372
endloop
endfacet
facet normal 0 0 0
outer loop
vertex 5.702826 12.957252 15.579371
vertex 5.702826 12.936499 15.579371
vertex 5.702826 12.936499 15.559372
endloop
endfacet
facet normal 0 0 0
outer loop
vertex 5.579971 12.957252 15.579371
vertex 5.600447 12.978005 15.579371
vertex 5.600447 12.957252 15.559372
endloop
endfacet
facet normal 0 0 0
outer loop
vertex 5.579971 12.978005 15.559372
vertex 5.600447 12.957252 15.559372
vertex 5.600447 12.978005 15.579371
endloop
endfacet
facet normal 0 0 0
outer loop
vertex 5.702826 12.978005 15.559372
vertex 5.682351 12.978005 15.579371
vertex 5.702826 12.957252 15.579371
endloop
endfacet
facet normal 0 0 0
outer loop
vertex 5.723302 12.957252 15.559372
vertex 5.702826 12.978005 15.559372
vertex 5.702826 12.957252 15.579371
endloop
endfacet
facet normal 0 0 0
outer loop
vertex 5.579971 12.978005 15.559372
vertex 5.600447 12.978005 15.579371
vertex 5.600447 12.978005 15.559372
endloop
endfacet
facet normal 0 0 0
outer loop
vertex 5.620923 12.998758 15.559372
vertex 5.600447 12.978005 15.559372
vertex 5.620923 12.978005 15.579371
endloop
endfacet
facet normal 0 0 0
outer loop
vertex 5.600447 12.978005 15.559372
vertex 5.600447 12.978005 15.579371
vertex 5.620923 12.978005 15.579371
endloop
endfacet
facet normal 0 0 0
outer loop
vertex 5.620923 12.978005 15.579371
vertex 5.641399 12.998758 15.579371
vertex 5.620923 12.998758 15.559372
endloop
endfacet
facet normal 0 0 0
outer loop
vertex 5.661875 12.998758 15.559372
vertex 5.641399 12.998758 15.579371
vertex 5.661875 12.978005 15.579371
endloop
endfacet
facet normal 0 0 0
outer loop
vertex 5.661875 12.998758 15.559372
vertex 5.682351 12.978005 15.579371
vertex 5.682351 12.998758 15.559372
endloop
endfacet
facet normal 0 0 0
outer loop
vertex 5.661875 12.978005 15.579371
vertex 5.682351 12.978005 15.579371
vertex 5.661875 12.998758 15.559372
endloop
endfacet
facet normal 0 0 0
outer loop
vertex 5.682351 12.978005 15.579371
vertex 5.702826 12.978005 15.559372
vertex 5.682351 12.998758 15.559372
endloop
endfacet
facet normal 0 0 0
outer loop
vertex 5.702826 12.978005 15.559372
vertex 5.702826 12.998758 15.559372
vertex 5.682351 12.998758 15.559372
endloop
endfacet
facet normal 0 0 0
outer loop
vertex 5.620923 13.019512 15.579371
vertex 5.620923 12.998758 15.559372
vertex 5.620923 13.019512 15.559372
endloop
endfacet
facet normal 0 0 0
outer loop
vertex 5.641399 12.998758 15.559372
vertex 5.620923 12.998758 15.559372
vertex 5.641399 12.998758 15.579371
endloop
endfacet
facet normal 0 0 0
outer loop
vertex 5.661875 13.019512 15.559372
vertex 5.641399 12.998758 15.579371
vertex 5.661875 12.998758 15.559372
endloop
endfacet
facet normal 0 0 0
outer loop
vertex 5.661875 13.019512 15.559372
vertex 5.641399 12.998758 15.559372
vertex 5.641399 12.998758 15.579371
endloop
endfacet
facet normal 0 0 0
outer loop
vertex 5.682351 12.998758 15.559372
vertex 5.661875 13.019512 15.559372
vertex 5.661875 12.998758 15.559372
endloop
endfacet
facet normal 0 0 0
outer loop
vertex 5.661875 13.019512 15.559372
vertex 5.661875 13.040265 15.579371
vertex 5.661875 13.040265 15.559372
endloop
endfacet
facet normal 0 0 0
outer loop
vertex 5.661875 13.019512 15.559372
vertex 5.661875 13.040265 15.559372
vertex 5.682351 13.040265 15.579371
endloop
endfacet
facet normal 0 0 0
outer loop
vertex 5.661875 13.019512 15.559372
vertex 5.682351 13.040265 15.579371
vertex 5.661875 13.040265 15.579371
endloop
endfacet
facet normal 0 0 0
outer loop
vertex 5.661875 13.040265 15.579371
vertex 5.641399 13.061018 15.559372
vertex 5.661875 13.040265 15.559372
endloop
endfacet
facet normal 0 0 0
outer loop
vertex 5.661875 13.040265 15.579371
vertex 5.661875 13.061018 15.559372
vertex 5.641399 13.061018 15.559372
endloop
endfacet
facet normal 0 0 0
outer loop
vertex 5.682351 13.040265 15.579371
vertex 5.661875 13.061018 15.559372
vertex 5.661875 13.040265 15.579371
endloop
endfacet
facet normal 0 0 0
outer loop
vertex 5.682351 13.040265 15.579371
vertex 5.661875 13.040265 15.559372
vertex 5.661875 13.061018 15.559372
endloop
endfacet
facet normal 0 0 0
outer loop
vertex 5.641399 12.915745 15.599372
vertex 5.620923 12.915745 15.579371
vertex 5.641399 12.915745 15.579371
endloop
endfacet
facet normal 0 0 0
outer loop
vertex 5.661875 12.915745 15.579371
vertex 5.661875 12.915745 15.599372
vertex 5.641399 12.915745 15.579371
endloop
endfacet
facet normal 0 0 0
outer loop
vertex 5.641399 12.915745 15.579371
vertex 5.661875 12.915745 15.599372
vertex 5.641399 12.915745 15.599372
endloop
endfacet
facet normal 0 0 0
outer loop
vertex 5.661875 12.915745 15.579371
vertex 5.682351 12.915745 15.599372
vertex 5.661875 12.915745 15.599372
endloop
endfacet
facet normal 0 0 0
outer loop
vertex 5.579971 12.936499 15.599372
vertex 5.600447 12.936499 15.579371
vertex 5.600447 12.936499 15.599372
endloop
endfacet
facet normal 0 0 0
outer loop
vertex 5.620923 12.915745 15.579371
vertex 5.620923 12.936499 15.599372
vertex 5.600447 12.936499 15.579371
endloop
endfacet
facet normal 0 0 0
outer loop
vertex 5.620923 12.936499 15.599372
vertex 5.600447 12.936499 15.599372
vertex 5.600447 12.936499 15.579371
endloop
endfacet
facet normal 0 0 0
outer loop
vertex 5.641399 12.915745 15.599372
vertex 5.620923 12.936499 15.599372
vertex 5.620923 12.915745 15.579371
endloop
endfacet
facet normal 0 0 0
outer loop
vertex 5.661875 12.915745 15.579371
vertex 5.682351 12.936499 15.579371
vertex 5.682351 12.915745 15.599372
endloop
endfacet
facet normal 0 0 0
outer loop
vertex 5.682351 12.915745 15.599372
vertex 5.682351 12.936499 15.579371
vertex 5.702826 12.936499 15.599372
endloop
endfacet
facet normal 0 0 0
outer loop
vertex 5.682351 12.936499 15.579371
vertex 5.702826 12.936499 15.579371
vertex 5.702826 12.936499 15.599372
endloop
endfacet
facet normal 0 0 0
outer loop
vertex 5.579971 12.936499 15.599372
vertex 5.559496 12.957252 15.599372
vertex 5.579971 12.957252 15.579371
endloop
endfacet
facet normal 0 0 0
outer loop
vertex 5.600447 12.936499 15.579371
vertex 5.579971 12.936499 15.599372
vertex 5.579971 12.957252 15.579371
endloop
endfacet
facet normal 0 0 0
outer loop
vertex 5.702826 12.936499 15.579371
vertex 5.702826 12.957252 15.579371
vertex 5.702826 12.936499 15.599372
endloop
endfacet
facet normal 0 0 0
outer loop
vertex 5.702826 12.936499 15.599372
vertex 5.702826 12.957252 15.579371
vertex 5.702826 12.957252 15.599372
endloop
endfacet
facet normal 0 0 0
outer loop
vertex 5.579971 12.978005 15.599372
vertex 5.579971 12.957252 15.579371
vertex 5.559496 12.957252 15.599372
endloop
endfacet
facet normal 0 0 0
outer loop
vertex 5.579971 12.957252 15.579371
vertex 5.559496 12.957252 15.579371
vertex 5.559496 12.957252 15.599372
endloop
endfacet
facet normal 0 0 0
outer loop
vertex 5.579971 12.957252 15.579371
vertex 5.579971 12.978005 15.599372
vertex 5.600447 12.978005 15.579371
endloop
endfacet
facet normal 0 0 0
outer loop
vertex 5.702826 12.957252 15.579371
vertex 5.682351 12.978005 15.599372
vertex 5.702826 12.957252 15.599372
endloop
endfacet
facet normal 0 0 0
outer loop
vertex 5.682351 12.978005 15.579371
vertex 5.682351 12.978005 15.599372
vertex 5.702826 12.957252 15.579371
endloop
endfacet
facet normal 0 0 0
outer loop
vertex 5.600447 12.978005 15.579371
vertex 5.579971 12.978005 15.599372
vertex 5.600447 12.998758 15.599372
endloop
endfacet
facet normal 0 0 0
outer loop
vertex 5.600447 12.978005 15.579371
vertex 5.620923 12.998758 15.599372
vertex 5.620923 12.978005 15.579371
endloop
endfacet
facet normal 0 0 0
outer loop
vertex 5.600447 12.998758 15.599372
vertex 5.620923 12.998758 15.599372
vertex 5.600447 12.978005 15.579371
endloop
endfacet
facet normal 0 0 0
outer loop
vertex 5.620923 12.978005 15.579371
vertex 5.620923 12.998758 15.599372
vertex 5.641399 12.998758 15.579371
endloop
endfacet
facet normal 0 0 0
outer loop
vertex 5.661875 12.978005 15.579371
vertex 5.641399 12.998758 15.579371
vertex 5.661875 12.998758 15.599372
endloop
endfacet
facet normal 0 0 0
outer loop
vertex 5.661875 12.978005 15.579371
vertex 5.682351 12.998758 15.599372
vertex 5.682351 12.978005 15.579371
endloop
endfacet
facet normal 0 0 0
outer loop
vertex 5.661875 12.998758 15.599372
vertex 5.682351 12.998758 15.599372
vertex 5.661875 12.978005 15.579371
endloop
endfacet
facet normal 0 0 0
outer loop
vertex 5.682351 12.978005 15.579371
vertex 5.682351 12.998758 15.599372
vertex 5.682351 12.978005 15.599372
endloop
endfacet
facet normal 0 0 0
outer loop
vertex 5.620923 12.998758 15.599372
vertex 5.600447 12.998758 15.599372
vertex 5.600447 13.019512 15.599372
endloop
endfacet
facet normal 0 0 0
outer loop
vertex 5.641399 12.998758 15.579371
vertex 5.620923 12.998758 15.599372
vertex 5.641399 12.998758 15.599372
endloop
endfacet
facet normal 0 0 0
outer loop
vertex 5.661875 12.998758 15.599372
vertex 5.641399 12.998758 15.579371
vertex 5.641399 12.998758 15.599372
endloop
endfacet
facet normal 0 0 0
outer loop
vertex 5.682351 12.915745 15.619371
vertex 5.661875 12.915745 15.599372
vertex 5.682351 12.915745 15.599372
endloop
endfacet
facet normal 0 0 0
outer loop
vertex 5.620923 12.936499 15.619371
vertex 5.600447 12.936499 15.599372
vertex 5.620923 12.936499 15.599372
endloop
endfacet
facet normal 0 0 0
outer loop
vertex 5.641399 12.915745 15.599372
vertex 5.641399 12.936499 15.619371
vertex 5.620923 12.936499 15.599372
endloop
endfacet
facet normal 0 0 0
outer loop
vertex 5.641399 12.936499 15.619371
vertex 5.620923 12.936499 15.619371
vertex 5.620923 12.936499 15.599372
endloop
endfacet
facet normal 0 0 0
outer loop
vertex 5.661875 12.915745 15.599372
vertex 5.641399 12.936499 15.619371
vertex 5.641399 12.915745 15.599372
endloop
endfacet
facet normal 0 0 0
outer loop
vertex 5.661875 12.936499 15.619371
vertex 5.641399 12.936499 15.619371
vertex 5.661875 12.915745 15.599372
endloop
endfacet
facet normal 0 0 0
outer loop
vertex 5.682351 12.915745 15.619371
vertex 5.661875 12.936499 15.619371
vertex 5.661875 12.915745 15.599372
endloop
endfacet
facet normal 0 0 0
outer loop
vertex 5.682351 12.915745 15.599372
vertex 5.702826 12.936499 15.619371
vertex 5.682351 12.915745 15.619371
endloop
endfacet
facet normal 0 0 0
outer loop
vertex 5.702826 12.936499 15.599372
vertex 5.702826 12.936499 15.619371
vertex 5.682351 12.915745 15.599372
endloop
endfacet
facet normal 0 0 0
outer loop
vertex 5.702826 12.936499 15.599372
vertex 5.723302 12.936499 15.619371
vertex 5.702826 12.936499 15.619371
endloop
endfacet
facet normal 0 0 0
outer loop
vertex 5.579971 12.936499 15.599372
vertex 5.579971 12.957252 15.619371
vertex 5.559496 12.957252 15.599372
endloop
endfacet
facet normal 0 0 0
outer loop
vertex 5.600447 12.936499 15.599372
vertex 5.579971 12.957252 15.619371
vertex 5.579971 12.936499 15.599372
endloop
endfacet
facet normal 0 0 0
outer loop
vertex 5.600447 12.957252 15.619371
vertex 5.579971 12.957252 15.619371
vertex 5.600447 12.936499 15.599372
endloop
endfacet
facet normal 0 0 0
outer loop
vertex 5.620923 12.936499 15.619371
vertex 5.600447 12.957252 15.619371
vertex 5.600447 12.936499 15.599372
endloop
endfacet
facet normal 0 0 0
outer loop
vertex 5.723302 12.936499 15.619371
vertex 5.702826 12.936499 15.599372
vertex 5.702826 12.957252 15.619371
endloop
endfacet
facet normal 0 0 0
outer loop
vertex 5.702826 12.936499 15.599372
vertex 5.702826 12.957252 15.599372
vertex 5.702826 12.957252 15.619371
endloop
endfacet
facet normal 0 0 0
outer loop
vertex 5.559496 12.978005 15.619371
vertex 5.579971 12.978005 15.599372
vertex 5.579971 12.957252 15.619371
endloop
endfacet
facet normal 0 0 0
outer loop
vertex 5.559496 12.957252 15.599372
vertex 5.579971 12.957252 15.619371
vertex 5.579971 12.978005 15.599372
endloop
endfacet
facet normal 0 0 0
outer loop
vertex 5.702826 12.957252 15.599372
vertex 5.682351 12.978005 15.599372
vertex 5.702826 12.978005 15.619371
endloop
endfacet
facet normal 0 0 0
outer loop
vertex 5.702826 12.957252 15.599372
vertex 5.702826 12.978005 15.619371
vertex 5.702826 12.957252 15.619371
endloop
endfacet
facet normal 0 0 0
outer loop
vertex 5.579971 12.978005 15.599372
vertex 5.559496 12.978005 15.619371
vertex 5.579971 12.978005 15.619371
endloop
endfacet
facet normal 0 0 0
outer loop
vertex 5.579971 12.978005 15.619371
vertex 5.600447 12.998758 15.599372
vertex 5.579971 12.978005 15.599372
endloop
endfacet
facet normal 0 0 0
outer loop
vertex 5.600447 12.998758 15.619371
vertex 5.600447 12.998758 15.599372
vertex 5.579971 12.978005 15.619371
endloop
endfacet
facet normal 0 0 0
outer loop
vertex 5.702826 12.978005 15.619371
vertex 5.682351 12.978005 15.599372
vertex 5.682351 12.998758 15.619371
endloop
endfacet
facet normal 0 0 0
outer loop
vertex 5.682351 12.978005 15.599372
vertex 5.682351 12.998758 15.599372
vertex 5.682351 12.998758 15.619371
endloop
endfacet
facet normal 0 0 0
outer loop
vertex 5.600447 12.998758 15.619371
vertex 5.600447 13.019512 15.599372
vertex 5.600447 12.998758 15.599372
endloop
endfacet
facet normal 0 0 0
outer loop
vertex 5.600447 13.019512 15.599372
vertex 5.600447 12.998758 15.619371
vertex 5.620923 12.998758 15.599372
endloop
endfacet
facet normal 0 0 0
outer loop
vertex 5.600447 12.998758 15.619371
vertex 5.620923 12.998758 15.619371
vertex 5.620923 12.998758 15.599372
endloop
endfacet
facet normal 0 0 0
outer loop
vertex 5.641399 13.019512 15.619371
vertex 5.641399 12.998758 15.599372
vertex 5.620923 12.998758 15.619371
endloop
endfacet
facet normal 0 0 0
outer loop
vertex 5.641399 12.998758 15.599372
vertex 5.620923 12.998758 15.599372
vertex 5.620923 12.998758 15.619371
endloop
endfacet
facet normal 0 0 0
outer loop
vertex 5.641399 12.998758 15.599372
vertex 5.661875 13.019512 15.619371
vertex 5.661875 12.998758 15.599372
endloop
endfacet
facet normal 0 0 0
outer loop
vertex 5.641399 13.019512 15.619371
vertex 5.661875 13.019512 15.619371
vertex 5.641399 12.998758 15.599372
endloop
endfacet
facet normal 0 0 0
outer loop
vertex 5.661875 13.019512 15.619371
vertex 5.682351 12.998758 15.619371
vertex 5.661875 12.998758 15.599372
endloop
endfacet
facet normal 0 0 0
outer loop
vertex 5.682351 12.998758 15.619371
vertex 5.682351 12.998758 15.599372
vertex 5.661875 12.998758 15.599372
endloop
endfacet
facet normal 0 0 0
outer loop
vertex 5.600447 12.915745 15.639372
vertex 5.579971 12.936499 15.639372
vertex 5.600447 12.936499 15.639372
endloop
endfacet
facet normal 0 0 0
outer loop
vertex 5.620923 12.936499 15.619371
vertex 5.620923 12.915745 15.639372
vertex 5.600447 12.936499 15.639372
endloop
endfacet
facet normal 0 0 0
outer loop
vertex 5.620923 12.915745 15.639372
vertex 5.600447 12.915745 15.639372
vertex 5.600447 12.936499 15.639372
endloop
endfacet
facet normal 0 0 0
outer loop
vertex 5.641399 12.936499 15.619371
vertex 5.620923 12.915745 15.639372
vertex 5.620923 12.936499 15.619371
endloop
endfacet
facet normal 0 0 0
outer loop
vertex 5.641399 12.915745 15.639372
vertex 5.620923 12.915745 15.639372
vertex 5.641399 12.936499 15.619371
endloop
endfacet
facet normal 0 0 0
outer loop
vertex 5.661875 12.936499 15.619371
vertex 5.641399 12.915745 15.639372
vertex 5.641399 12.936499 15.619371
endloop
endfacet
facet normal 0 0 0
outer loop
vertex 5.661875 12.915745 15.639372
vertex 5.641399 12.915745 15.639372
vertex 5.661875 12.936499 15.619371
endloop
endfacet
facet normal 0 0 0
outer loop
vertex 5.661875 12.915745 15.639372
vertex 5.661875 12.936499 15.619371
vertex 5.682351 12.936499 15.639372
endloop
endfacet
facet normal 0 0 0
outer loop
vertex 5.682351 12.915745 15.619371
vertex 5.682351 12.936499 15.639372
vertex 5.661875 12.936499 15.619371
endloop
endfacet
facet normal 0 0 0
outer loop
vertex 5.702826 12.936499 15.619371
vertex 5.682351 12.936499 15.639372
vertex 5.682351 12.915745 15.619371
endloop
endfacet
facet normal 0 0 0
outer loop
vertex 5.579971 12.936499 15.639372
vertex 5.559496 12.957252 15.639372
vertex 5.579971 12.957252 15.619371
endloop
endfacet
facet normal 0 0 0
outer loop
vertex 5.600447 12.957252 15.619371
vertex 5.579971 12.936499 15.639372
vertex 5.579971 12.957252 15.619371
endloop
endfacet
facet normal 0 0 0
outer loop
vertex 5.600447 12.936499 15.639372
vertex 5.579971 12.936499 15.639372
vertex 5.600447 12.957252 15.619371
endloop
endfacet
facet normal 0 0 0
outer loop
vertex 5.620923 12.936499 15.619371
vertex 5.600447 12.936499 15.639372
vertex 5.600447 12.957252 15.619371
endloop
endfacet
facet normal 0 0 0
outer loop
vertex 5.702826 12.957252 15.619371
vertex 5.682351 12.936499 15.639372
vertex 5.702826 12.936499 15.619371
endloop
endfacet
facet normal 0 0 0
outer loop
vertex 5.682351 12.957252 15.639372
vertex 5.682351 12.936499 15.639372
vertex 5.702826 12.957252 15.619371
endloop
endfacet
facet normal 0 0 0
outer loop
vertex 5.723302 12.936499 15.619371
vertex 5.702826 12.957252 15.619371
vertex 5.702826 12.936499 15.619371
endloop
endfacet
facet normal 0 0 0
outer loop
vertex 5.559496 12.978005 15.619371
vertex 5.559496 12.957252 15.639372
vertex 5.559496 12.978005 15.639372
endloop
endfacet
facet normal 0 0 0
outer loop
vertex 5.579971 12.957252 15.619371
vertex 5.559496 12.957252 15.639372
vertex 5.559496 12.978005 15.619371
endloop
endfacet
facet normal 0 0 0
outer loop
vertex 5.702826 12.978005 15.619371
vertex 5.682351 12.957252 15.639372
vertex 5.702826 12.957252 15.619371
endloop
endfacet
facet normal 0 0 0
outer loop
vertex 5.682351 12.978005 15.639372
vertex 5.682351 12.957252 15.639372
vertex 5.702826 12.978005 15.619371
endloop
endfacet
facet normal 0 0 0
outer loop
vertex 5.559496 12.998758 15.639372
vertex 5.559496 12.978005 15.619371
vertex 5.559496 12.978005 15.639372
endloop
endfacet
facet normal 0 0 0
outer loop
vertex 5.559496 12.998758 15.639372
vertex 5.579971 12.978005 15.639372
vertex 5.559496 12.978005 15.619371
endloop
endfacet
facet normal 0 0 0
outer loop
vertex 5.579971 12.978005 15.639372
vertex 5.579971 12.978005 15.619371
vertex 5.559496 12.978005 15.619371
endloop
endfacet
facet normal 0 0 0
outer loop
vertex 5.579971 12.978005 15.639372
vertex 5.600447 12.998758 15.619371
vertex 5.579971 12.978005 15.619371
endloop
endfacet
facet normal 0 0 0
outer loop
vertex 5.600447 12.998758 15.639372
vertex 5.600447 12.998758 15.619371
vertex 5.579971 12.978005 15.639372
endloop
endfacet
facet normal 0 0 0
outer loop
vertex 5.682351 12.998758 15.619371
vertex 5.661875 12.998758 15.639372
vertex 5.682351 12.978005 15.639372
endloop
endfacet
facet normal 0 0 0
outer loop
vertex 5.702826 12.978005 15.619371
vertex 5.682351 12.998758 15.619371
vertex 5.682351 12.978005 15.639372
endloop
endfacet
facet normal 0 0 0
outer loop
vertex 5.620923 13.019512 15.639372
vertex 5.620923 12.998758 15.619371
vertex 5.600447 12.998758 15.639372
endloop
endfacet
facet normal 0 0 0
outer loop
vertex 5.620923 12.998758 15.619371
vertex 5.600447 12.998758 15.619371
vertex 5.600447 12.998758 15.639372
endloop
endfacet
facet normal 0 0 0
outer loop
vertex 5.620923 12.998758 15.619371
vertex 5.620923 13.019512 15.639372
vertex 5.641399 13.019512 15.619371
endloop
endfacet
facet normal 0 0 0
outer loop
vertex 5.682351 12.998758 15.619371
vertex 5.661875 13.019512 15.619371
vertex 5.661875 12.998758 15.639372
endloop
endfacet
facet normal 0 0 0
outer loop
vertex 5.661875 13.019512 15.619371
vertex 5.661875 13.019512 15.639372
vertex 5.661875 12.998758 15.639372
endloop
endfacet
facet normal 0 0 0
outer loop
vertex 5.641399 13.019512 15.619371
vertex 5.620923 13.019512 15.639372
vertex 5.641399 13.019512 15.639372
endloop
endfacet
facet normal 0 0 0
outer loop
vertex 5.661875 13.019512 15.619371
vertex 5.641399 13.019512 15.619371
vertex 5.661875 13.019512 15.639372
endloop
endfacet
facet normal 0 0 0
outer loop
vertex 5.641399 13.019512 15.619371
vertex 5.641399 13.019512 15.639372
vertex 5.661875 13.019512 15.639372
endloop
endfacet
facet normal 0 0 0
outer loop
vertex 5.600447 12.915745 15.639372
vertex 5.600447 12.936499 15.659371
vertex 5.579971 12.936499 15.639372
endloop
endfacet
facet normal 0 0 0
outer loop
vertex 5.620923 12.915745 15.639372
vertex 5.600447 12.936499 15.659371
vertex 5.600447 12.915745 15.639372
endloop
endfacet
facet normal 0 0 0
outer loop
vertex 5.620923 12.936499 15.659371
vertex 5.600447 12.936499 15.659371
vertex 5.620923 12.915745 15.639372
endloop
endfacet
facet normal 0 0 0
outer loop
vertex 5.641399 12.915745 15.639372
vertex 5.620923 12.936499 15.659371
vertex 5.620923 12.915745 15.639372
endloop
endfacet
facet normal 0 0 0
outer loop
vertex 5.641399 12.936499 15.659371
vertex 5.620923 12.936499 15.659371
vertex 5.641399 12.915745 15.639372
endloop
endfacet
facet normal 0 0 0
outer loop
vertex 5.661875 12.915745 15.639372
vertex 5.641399 12.936499 15.659371
vertex 5.641399 12.915745 15.639372
endloop
endfacet
facet normal 0 0 0
outer loop
vertex 5.661875 12.936499 15.659371
vertex 5.641399 12.936499 15.659371
vertex 5.661875 12.915745 15.639372
endloop
endfacet
facet normal 0 0 0
outer loop
vertex 5.661875 12.915745 15.639372
vertex 5.682351 12.936499 15.639372
vertex 5.661875 12.936499 15.659371
endloop
endfacet
facet normal 0 0 0
outer loop
vertex 5.682351 12.936499 15.639372
vertex 5.682351 12.936499 15.659371
vertex 5.661875 12.936499 15.659371
endloop
endfacet
facet normal 0 0 0
outer loop
vertex 5.682351 12.936499 15.639372
vertex 5.702826 12.936499 15.659371
vertex 5.682351 12.936499 15.659371
endloop
endfacet
facet normal 0 0 0
outer loop
vertex 5.579971 12.936499 15.639372
vertex 5.579971 12.957252 15.659371
vertex 5.559496 12.957252 15.639372
endloop
endfacet
facet normal 0 0 0
outer loop
vertex 5.600447 12.936499 15.659371
vertex 5.579971 12.957252 15.659371
vertex 5.579971 12.936499 15.639372
endloop
endfacet
facet normal 0 0 0
outer loop
vertex 5.702826 12.936499 15.659371
vertex 5.682351 12.957252 15.639372
vertex 5.702826 12.957252 15.659371
endloop
endfacet
facet normal 0 0 0
outer loop
vertex 5.682351 12.936499 15.639372
vertex 5.682351 12.957252 15.639372
vertex 5.702826 12.936499 15.659371
endloop
endfacet
facet normal 0 0 0
outer loop
vertex 5.579971 12.978005 15.659371
vertex 5.559496 12.957252 15.639372
vertex 5.579971 12.957252 15.659371
endloop
endfacet
facet normal 0 0 0
outer loop
vertex 5.559496 12.978005 15.639372
vertex 5.559496 12.957252 15.639372
vertex 5.579971 12.978005 15.659371
endloop
endfacet
facet normal 0 0 0
outer loop
vertex 5.702826 12.957252 15.659371
vertex 5.682351 12.978005 15.639372
vertex 5.702826 12.978005 15.659371
endloop
endfacet
facet normal 0 0 0
outer loop
vertex 5.682351 12.957252 15.639372
vertex 5.682351 12.978005 15.639372
vertex 5.702826 12.957252 15.659371
endloop
endfacet
facet normal 0 0 0
outer loop
vertex 5.559496 12.978005 15.639372
vertex 5.559496 12.998758 15.659371
vertex 5.559496 12.998758 15.639372
endloop
endfacet
facet normal 0 0 0
outer loop
vertex 5.559496 12.998758 15.639372
vertex 5.559496 12.998758 15.659371
vertex 5.539020 12.998758 15.659371
endloop
endfacet
facet normal 0 0 0
outer loop
vertex 5.579971 12.978005 15.639372
vertex 5.559496 12.998758 15.639372
vertex 5.579971 12.998758 15.659371
endloop
endfacet
facet normal 0 0 0
outer loop
vertex 5.559496 12.978005 15.639372
vertex 5.579971 12.978005 15.659371
vertex 5.559496 12.998758 15.659371
endloop
endfacet
facet normal 0 0 0
outer loop
vertex 5.579971 12.978005 15.639372
vertex 5.579971 12.998758 15.659371
vertex 5.600447 12.998758 15.639372
endloop
endfacet
facet normal 0 0 0
outer loop
vertex 5.682351 12.978005 15.639372
vertex 5.661875 12.998758 15.659371
vertex 5.682351 12.978005 15.659371
endloop
endfacet
facet normal 0 0 0
outer loop
vertex 5.661875 12.998758 15.639372
vertex 5.661875 12.998758 15.659371
vertex 5.682351 12.978005 15.639372
endloop
endfacet
facet normal 0 0 0
outer loop
vertex 5.702826 12.978005 15.659371
vertex 5.682351 12.978005 15.639372
vertex 5.682351 12.978005 15.659371
endloop
endfacet
facet normal 0 0 0
outer loop
vertex 5.559496 12.998758 15.639372
vertex 5.559496 12.998758 15.659371
vertex 5.579971 13.019512 15.659371
endloop
endfacet
facet normal 0 0 0
outer loop
vertex 5.559496 12.998758 15.639372
vertex 5.579971 13.019512 15.659371
vertex 5.579971 12.998758 15.659371
endloop
endfacet
facet normal 0 0 0
outer loop
vertex 5.600447 12.998758 15.639372
vertex 5.579971 12.998758 15.659371
vertex 5.600447 13.019512 15.659371
endloop
endfacet
facet normal 0 0 0
outer loop
vertex 5.579971 12.998758 15.659371
vertex 5.579971 13.019512 15.659371
vertex 5.600447 13.019512 15.659371
endloop
endfacet
facet normal 0 0 0
outer loop
vertex 5.600447 12.998758 15.639372
vertex 5.600447 13.019512 15.659371
vertex 5.620923 13.019512 15.639372
endloop
endfacet
facet normal 0 0 0
outer loop
vertex 5.661875 12.998758 15.639372
vertex 5.661875 13.019512 15.639372
vertex 5.661875 12.998758 15.659371
endloop
endfacet
facet normal 0 0 0
outer loop
vertex 5.661875 12.998758 15.659371
vertex 5.661875 13.019512 15.639372
vertex 5.661875 13.019512 15.659371
endloop
endfacet
facet normal 0 0 0
outer loop
vertex 5.620923 13.019512 15.639372
vertex 5.600447 13.019512 15.659371
vertex 5.620923 13.019512 15.659371
endloop
endfacet
facet normal 0 0 0
outer loop
vertex 5.641399 13.019512 15.639372
vertex 5.620923 13.019512 15.639372
vertex 5.641399 13.019512 15.659371
endloop
endfacet
facet normal 0 0 0
outer loop
vertex 5.620923 13.019512 15.639372
vertex 5.620923 13.019512 15.659371
vertex 5.641399 13.019512 15.659371
endloop
endfacet
facet normal 0 0 0
outer loop
vertex 5.661875 13.040265 15.659371
vertex 5.661875 13.019512 15.639372
vertex 5.641399 13.019512 15.659371
endloop
endfacet
facet normal 0 0 0
outer loop
vertex 5.661875 13.019512 15.639372
vertex 5.641399 13.019512 15.639372
vertex 5.641399 13.019512 15.659371
endloop
endfacet
facet normal 0 0 0
outer loop
vertex 5.682351 13.040265 15.659371
vertex 5.661875 13.019512 15.659371
vertex 5.661875 13.019512 15.639372
endloop
endfacet
facet normal 0 0 0
outer loop
vertex 5.682351 13.040265 15.659371
vertex 5.661875 13.019512 15.639372
vertex 5.661875 13.040265 15.659371
endloop
endfacet
facet normal 0 0 0
outer loop
vertex 5.579971 12.957252 15.659371
vertex 5.600447 12.936499 15.659371
vertex 5.600447 12.957252 15.659371
endloop
endfacet
facet normal 0 0 0
outer loop
vertex 5.620923 12.936499 15.659371
vertex 5.620923 12.957252 15.659371
vertex 5.600447 12.936499 15.659371
endloop
endfacet
facet normal 0 0 0
outer loop
vertex 5.620923 12.957252 15.659371
vertex 5.600447 12.957252 15.659371
vertex 5.600447 12.936499 15.659371
endloop
endfacet
facet normal 0 0 0
outer loop
vertex 5.641399 12.936499 15.659371
vertex 5.641399 12.957252 15.659371
vertex 5.620923 12.936499 15.659371
endloop
endfacet
facet normal 0 0 0
outer loop
vertex 5.641399 12.957252 15.659371
vertex 5.620923 12.957252 15.659371
vertex 5.620923 12.936499 15.659371
endloop
endfacet
facet normal 0 0 0
outer loop
vertex 5.661875 12.936499 15.659371
vertex 5.661875 12.957252 15.659371
vertex 5.641399 12.936499 15.659371
endloop
endfacet
facet normal 0 0 0
outer loop
vertex 5.661875 12.957252 15.659371
vertex 5.641399 12.957252 15.659371
vertex 5.641399 12.936499 15.659371
endloop
endfacet
facet normal 0 0 0
outer loop
vertex 5.682351 12.936499 15.659371
vertex 5.682351 12.957252 15.659371
vertex 5.661875 12.936499 15.659371
endloop
endfacet
facet normal 0 0 0
outer loop
vertex 5.682351 12.957252 15.659371
vertex 5.661875 12.957252 15.659371
vertex 5.661875 12.936499 15.659371
endloop
endfacet
facet normal 0 0 0
outer loop
vertex 5.702826 12.936499 15.659371
vertex 5.702826 12.957252 15.659371
vertex 5.682351 12.936499 15.659371
endloop
endfacet
facet normal 0 0 0
outer loop
vertex 5.702826 12.957252 15.659371
vertex 5.682351 12.957252 15.659371
vertex 5.682351 12.936499 15.659371
endloop
endfacet
facet normal 0 0 0
outer loop
vertex 5.723302 12.936499 15.659371
vertex 5.723302 12.957252 15.659371
vertex 5.702826 12.936499 15.659371
endloop
endfacet
facet normal 0 0 0
outer loop
vertex 5.723302 12.957252 15.659371
vertex 5.702826 12.957252 15.659371
vertex 5.702826 12.936499 15.659371
endloop
endfacet
facet normal 0 0 0
outer loop
vertex 5.600447 12.957252 15.659371
vertex 5.600447 12.978005 15.659371
vertex 5.579971 12.957252 15.659371
endloop
endfacet
facet normal 0 0 0
outer loop
vertex 5.600447 12.978005 15.659371
vertex 5.579971 12.978005 15.659371
vertex 5.579971 12.957252 15.659371
endloop
endfacet
facet normal 0 0 0
outer loop
vertex 5.620923 12.957252 15.659371
vertex 5.620923 12.978005 15.659371
vertex 5.600447 12.957252 15.659371
endloop
endfacet
facet normal 0 0 0
outer loop
vertex 5.620923 12.978005 15.659371
vertex 5.600447 12.978005 15.659371
vertex 5.600447 12.957252 15.659371
endloop
endfacet
facet normal 0 0 0
outer loop
vertex 5.641399 12.957252 15.659371
vertex 5.641399 12.978005 15.659371
vertex 5.620923 12.957252 15.659371
endloop
endfacet
facet normal 0 0 0
outer loop
vertex 5.641399 12.978005 15.659371
vertex 5.620923 12.978005 15.659371
vertex 5.620923 12.957252 15.659371
endloop
endfacet
facet normal 0 0 0
outer loop
vertex 5.661875 12.957252 15.659371
vertex 5.661875 12.978005 15.659371
vertex 5.641399 12.957252 15.659371
endloop
endfacet
facet normal 0 0 0
outer loop
vertex 5.661875 12.978005 15.659371
vertex 5.641399 12.978005 15.659371
vertex 5.641399 12.957252 15.659371
endloop
endfacet
facet normal 0 0 0
outer loop
vertex 5.682351 12.957252 15.659371
vertex 5.682351 12.978005 15.659371
vertex 5.661875 12.957252 15.659371
endloop
endfacet
facet normal 0 0 0
outer loop
vertex 5.682351 12.978005 15.659371
vertex 5.661875 12.978005 15.659371
vertex 5.661875 12.957252 15.659371
endloop
endfacet
facet normal 0 0 0
outer loop
vertex 5.702826 12.957252 15.659371
vertex 5.702826 12.978005 15.659371
vertex 5.682351 12.957252 15.659371
endloop
endfacet
facet normal 0 0 0
outer loop
vertex 5.702826 12.978005 15.659371
vertex 5.682351 12.978005 15.659371
vertex 5.682351 12.957252 15.659371
endloop
endfacet
facet normal 0 0 0
outer loop
vertex 5.723302 12.957252 15.659371
vertex 5.702826 12.978005 15.659371
vertex 5.702826 12.957252 15.659371
endloop
endfacet
facet normal 0 0 0
outer loop
vertex 5.518544 12.998758 15.659371
vertex 5.539020 12.978005 15.659371
vertex 5.539020 12.998758 15.659371
endloop
endfacet
facet normal 0 0 0
outer loop
vertex 5.539020 12.978005 15.659371
vertex 5.559496 12.998758 15.659371
vertex 5.539020 12.998758 15.659371
endloop
endfacet
facet normal 0 0 0
outer loop
vertex 5.559496 12.998758 15.659371
vertex 5.579971 12.978005 15.659371
vertex 5.579971 12.998758 15.659371
endloop
endfacet
facet normal 0 0 0
outer loop
vertex 5.600447 12.978005 15.659371
vertex 5.600447 12.998758 15.659371
vertex 5.579971 12.978005 15.659371
endloop
endfacet
facet normal 0 0 0
outer loop
vertex 5.600447 12.998758 15.659371
vertex 5.579971 12.998758 15.659371
vertex 5.579971 12.978005 15.659371
endloop
endfacet
facet normal 0 0 0
outer loop
vertex 5.620923 12.978005 15.659371
vertex 5.620923 12.998758 15.659371
vertex 5.600447 12.978005 15.659371
endloop
endfacet
facet normal 0 0 0
outer loop
vertex 5.620923 12.998758 15.659371
vertex 5.600447 12.998758 15.659371
vertex 5.600447 12.978005 15.659371
endloop
endfacet
facet normal 0 0 0
outer loop
vertex 5.641399 12.978005 15.659371
vertex 5.641399 12.998758 15.659371
vertex 5.620923 12.978005 15.659371
endloop
endfacet
facet normal 0 0 0
outer loop
vertex 5.641399 12.998758 15.659371
vertex 5.620923 12.998758 15.659371
vertex 5.620923 12.978005 15.659371
endloop
endfacet
facet normal 0 0 0
outer loop
vertex 5.661875 12.978005 15.659371
vertex 5.661875 12.998758 15.659371
vertex 5.641399 12.978005 15.659371
endloop
endfacet
facet normal 0 0 0
outer loop
vertex 5.661875 12.998758 15.659371
vertex 5.641399 12.998758 15.659371
vertex 5.641399 12.978005 15.659371
endloop
endfacet
facet normal 0 0 0
outer loop
vertex 5.682351 12.978005 15.659371
vertex 5.661875 12.998758 15.659371
vertex 5.661875 12.978005 15.659371
endloop
endfacet
facet normal 0 0 0
outer loop
vertex 5.579971 13.019512 15.659371
vertex 5.559496 12.998758 15.659371
vertex 5.579971 12.998758 15.659371
endloop
endfacet
facet normal 0 0 0
outer loop
vertex 5.600447 12.998758 15.659371
vertex 5.600447 13.019512 15.659371
vertex 5.579971 12.998758 15.659371
endloop
endfacet
facet normal 0 0 0
outer loop
vertex 5.620923 12.998758 15.659371
vertex 5.620923 13.019512 15.659371
vertex 5.600447 12.998758 15.659371
endloop
endfacet
facet normal 0 0 0
outer loop
vertex 5.620923 13.019512 15.659371
vertex 5.600447 13.019512 15.659371
vertex 5.600447 12.998758 15.659371
endloop
endfacet
facet normal 0 0 0
outer loop
vertex 5.641399 12.998758 15.659371
vertex 5.641399 13.019512 15.659371
vertex 5.620923 12.998758 15.659371
endloop
endfacet
facet normal 0 0 0
outer loop
vertex 5.641399 13.019512 15.659371
vertex 5.620923 13.019512 15.659371
vertex 5.620923 12.998758 15.659371
endloop
endfacet
facet normal 0 0 0
outer loop
vertex 5.661875 12.998758 15.659371
vertex 5.661875 13.019512 15.659371
vertex 5.641399 12.998758 15.659371
endloop
endfacet
facet normal 0 0 0
outer loop
vertex 5.661875 13.019512 15.659371
vertex 5.641399 13.019512 15.659371
vertex 5.641399 12.998758 15.659371
endloop
endfacet
facet normal 0 0 0
outer loop
vertex 5.661875 13.040265 15.659371
vertex 5.641399 13.019512 15.659371
vertex 5.661875 13.019512 15.659371
endloop
endfacet
facet normal 0 0 0
outer loop
vertex 5.661875 13.019512 15.659371
vertex 5.682351 13.040265 15.659371
vertex 5.661875 13.040265 15.659371
endloop
endfacet
endsolid B-16-Plag.429
