solid B-16-Plag.123
facet normal 0 0 0
outer loop
vertex 10.125599 12.417665 6.919372
vertex 10.105124 12.438418 6.919372
vertex 10.125599 12.438418 6.919372
endloop
endfacet
facet normal 0 0 0
outer loop
vertex 10.146074 12.417665 6.919372
vertex 10.125599 12.417665 6.919372
vertex 10.146074 12.438418 6.919372
endloop
endfacet
facet normal 0 0 0
outer loop
vertex 10.146074 12.438418 6.919372
vertex 10.125599 12.417665 6.919372
vertex 10.125599 12.438418 6.919372
endloop
endfacet
facet normal 0 0 0
outer loop
vertex 10.166552 12.438418 6.919372
vertex 10.146074 12.417665 6.919372
vertex 10.146074 12.438418 6.919372
endloop
endfacet
facet normal 0 0 0
outer loop
vertex 10.125599 12.438418 6.919372
vertex 10.105124 12.438418 6.919372
vertex 10.125599 12.459172 6.919372
endloop
endfacet
facet normal 0 0 0
outer loop
vertex 10.125599 12.459172 6.919372
vertex 10.105124 12.438418 6.919372
vertex 10.105124 12.459172 6.919372
endloop
endfacet
facet normal 0 0 0
outer loop
vertex 10.146074 12.438418 6.919372
vertex 10.125599 12.438418 6.919372
vertex 10.146074 12.459172 6.919372
endloop
endfacet
facet normal 0 0 0
outer loop
vertex 10.146074 12.459172 6.919372
vertex 10.125599 12.438418 6.919372
vertex 10.125599 12.459172 6.919372
endloop
endfacet
facet normal 0 0 0
outer loop
vertex 10.166552 12.438418 6.919372
vertex 10.146074 12.438418 6.919372
vertex 10.166552 12.459172 6.919372
endloop
endfacet
facet normal 0 0 0
outer loop
vertex 10.166552 12.459172 6.919372
vertex 10.146074 12.438418 6.919372
vertex 10.146074 12.459172 6.919372
endloop
endfacet
facet normal 0 0 0
outer loop
vertex 10.187027 12.459172 6.919372
vertex 10.166552 12.438418 6.919372
vertex 10.166552 12.459172 6.919372
endloop
endfacet
facet normal 0 0 0
outer loop
vertex 10.125599 12.459172 6.919372
vertex 10.105124 12.459172 6.919372
vertex 10.125599 12.479925 6.919372
endloop
endfacet
facet normal 0 0 0
outer loop
vertex 10.125599 12.479925 6.919372
vertex 10.105124 12.459172 6.919372
vertex 10.105124 12.479925 6.919372
endloop
endfacet
facet normal 0 0 0
outer loop
vertex 10.146074 12.459172 6.919372
vertex 10.125599 12.459172 6.919372
vertex 10.146074 12.479925 6.919372
endloop
endfacet
facet normal 0 0 0
outer loop
vertex 10.146074 12.479925 6.919372
vertex 10.125599 12.459172 6.919372
vertex 10.125599 12.479925 6.919372
endloop
endfacet
facet normal 0 0 0
outer loop
vertex 10.166552 12.459172 6.919372
vertex 10.146074 12.459172 6.919372
vertex 10.166552 12.479925 6.919372
endloop
endfacet
facet normal 0 0 0
outer loop
vertex 10.166552 12.479925 6.919372
vertex 10.146074 12.459172 6.919372
vertex 10.146074 12.479925 6.919372
endloop
endfacet
facet normal 0 0 0
outer loop
vertex 10.166552 12.479925 6.919372
vertex 10.187027 12.459172 6.919372
vertex 10.166552 12.459172 6.919372
endloop
endfacet
facet normal 0 0 0
outer loop
vertex 10.125599 12.479925 6.919372
vertex 10.105124 12.479925 6.919372
vertex 10.125599 12.500679 6.919372
endloop
endfacet
facet normal 0 0 0
outer loop
vertex 10.125599 12.500679 6.919372
vertex 10.105124 12.479925 6.919372
vertex 10.105124 12.500679 6.919372
endloop
endfacet
facet normal 0 0 0
outer loop
vertex 10.146074 12.479925 6.919372
vertex 10.125599 12.479925 6.919372
vertex 10.146074 12.500679 6.919372
endloop
endfacet
facet normal 0 0 0
outer loop
vertex 10.146074 12.500679 6.919372
vertex 10.125599 12.479925 6.919372
vertex 10.125599 12.500679 6.919372
endloop
endfacet
facet normal 0 0 0
outer loop
vertex 10.166552 12.479925 6.919372
vertex 10.146074 12.479925 6.919372
vertex 10.166552 12.500679 6.919372
endloop
endfacet
facet normal 0 0 0
outer loop
vertex 10.166552 12.500679 6.919372
vertex 10.146074 12.479925 6.919372
vertex 10.146074 12.500679 6.919372
endloop
endfacet
facet normal 0 0 0
outer loop
vertex 10.125599 12.500679 6.919372
vertex 10.146074 12.521432 6.919372
vertex 10.146074 12.500679 6.919372
endloop
endfacet
facet normal 0 0 0
outer loop
vertex 10.146074 12.521432 6.919372
vertex 10.166552 12.500679 6.919372
vertex 10.146074 12.500679 6.919372
endloop
endfacet
facet normal 0 0 0
outer loop
vertex 10.125599 12.417665 6.919372
vertex 10.125599 12.438418 6.939372
vertex 10.105124 12.438418 6.919372
endloop
endfacet
facet normal 0 0 0
outer loop
vertex 10.146074 12.417665 6.919372
vertex 10.125599 12.438418 6.939372
vertex 10.125599 12.417665 6.919372
endloop
endfacet
facet normal 0 0 0
outer loop
vertex 10.146074 12.438418 6.939372
vertex 10.125599 12.438418 6.939372
vertex 10.146074 12.417665 6.919372
endloop
endfacet
facet normal 0 0 0
outer loop
vertex 10.146074 12.417665 6.919372
vertex 10.166552 12.438418 6.919372
vertex 10.146074 12.438418 6.939372
endloop
endfacet
facet normal 0 0 0
outer loop
vertex 10.166552 12.438418 6.919372
vertex 10.166552 12.438418 6.939372
vertex 10.146074 12.438418 6.939372
endloop
endfacet
facet normal 0 0 0
outer loop
vertex 10.105124 12.438418 6.919372
vertex 10.105124 12.459172 6.939372
vertex 10.105124 12.459172 6.919372
endloop
endfacet
facet normal 0 0 0
outer loop
vertex 10.125599 12.438418 6.939372
vertex 10.105124 12.459172 6.939372
vertex 10.105124 12.438418 6.919372
endloop
endfacet
facet normal 0 0 0
outer loop
vertex 10.187027 12.459172 6.919372
vertex 10.166552 12.459172 6.939372
vertex 10.166552 12.438418 6.919372
endloop
endfacet
facet normal 0 0 0
outer loop
vertex 10.166552 12.459172 6.939372
vertex 10.166552 12.438418 6.939372
vertex 10.166552 12.438418 6.919372
endloop
endfacet
facet normal 0 0 0
outer loop
vertex 10.084648 12.479925 6.939372
vertex 10.105124 12.479925 6.919372
vertex 10.105124 12.459172 6.939372
endloop
endfacet
facet normal 0 0 0
outer loop
vertex 10.105124 12.479925 6.919372
vertex 10.105124 12.459172 6.919372
vertex 10.105124 12.459172 6.939372
endloop
endfacet
facet normal 0 0 0
outer loop
vertex 10.187027 12.459172 6.919372
vertex 10.166552 12.479925 6.919372
vertex 10.166552 12.459172 6.939372
endloop
endfacet
facet normal 0 0 0
outer loop
vertex 10.166552 12.479925 6.919372
vertex 10.166552 12.479925 6.939372
vertex 10.166552 12.459172 6.939372
endloop
endfacet
facet normal 0 0 0
outer loop
vertex 10.105124 12.479925 6.919372
vertex 10.084648 12.500679 6.939372
vertex 10.105124 12.500679 6.919372
endloop
endfacet
facet normal 0 0 0
outer loop
vertex 10.084648 12.479925 6.939372
vertex 10.084648 12.500679 6.939372
vertex 10.105124 12.479925 6.919372
endloop
endfacet
facet normal 0 0 0
outer loop
vertex 10.166552 12.479925 6.919372
vertex 10.166552 12.500679 6.919372
vertex 10.166552 12.479925 6.939372
endloop
endfacet
facet normal 0 0 0
outer loop
vertex 10.166552 12.479925 6.939372
vertex 10.166552 12.500679 6.919372
vertex 10.166552 12.500679 6.939372
endloop
endfacet
facet normal 0 0 0
outer loop
vertex 10.105124 12.500679 6.919372
vertex 10.084648 12.500679 6.939372
vertex 10.105124 12.521432 6.939372
endloop
endfacet
facet normal 0 0 0
outer loop
vertex 10.105124 12.500679 6.919372
vertex 10.125599 12.521432 6.939372
vertex 10.125599 12.500679 6.919372
endloop
endfacet
facet normal 0 0 0
outer loop
vertex 10.105124 12.521432 6.939372
vertex 10.125599 12.521432 6.939372
vertex 10.105124 12.500679 6.919372
endloop
endfacet
facet normal 0 0 0
outer loop
vertex 10.125599 12.500679 6.919372
vertex 10.125599 12.521432 6.939372
vertex 10.146074 12.521432 6.919372
endloop
endfacet
facet normal 0 0 0
outer loop
vertex 10.166552 12.500679 6.919372
vertex 10.146074 12.521432 6.919372
vertex 10.166552 12.521432 6.939372
endloop
endfacet
facet normal 0 0 0
outer loop
vertex 10.166552 12.500679 6.919372
vertex 10.166552 12.521432 6.939372
vertex 10.166552 12.500679 6.939372
endloop
endfacet
facet normal 0 0 0
outer loop
vertex 10.125599 12.521432 6.939372
vertex 10.105124 12.521432 6.939372
vertex 10.125599 12.542186 6.939372
endloop
endfacet
facet normal 0 0 0
outer loop
vertex 10.125599 12.542186 6.939372
vertex 10.105124 12.521432 6.939372
vertex 10.105124 12.542186 6.939372
endloop
endfacet
facet normal 0 0 0
outer loop
vertex 10.146074 12.521432 6.919372
vertex 10.125599 12.521432 6.939372
vertex 10.146074 12.542186 6.939372
endloop
endfacet
facet normal 0 0 0
outer loop
vertex 10.125599 12.521432 6.939372
vertex 10.125599 12.542186 6.939372
vertex 10.146074 12.542186 6.939372
endloop
endfacet
facet normal 0 0 0
outer loop
vertex 10.146074 12.521432 6.919372
vertex 10.146074 12.542186 6.939372
vertex 10.166552 12.521432 6.939372
endloop
endfacet
facet normal 0 0 0
outer loop
vertex 10.146074 12.542186 6.939372
vertex 10.166552 12.542186 6.939372
vertex 10.166552 12.521432 6.939372
endloop
endfacet
facet normal 0 0 0
outer loop
vertex 10.105124 12.542186 6.939372
vertex 10.084648 12.562939 6.939372
vertex 10.105124 12.562939 6.939372
endloop
endfacet
facet normal 0 0 0
outer loop
vertex 10.125599 12.542186 6.939372
vertex 10.105124 12.542186 6.939372
vertex 10.125599 12.562939 6.939372
endloop
endfacet
facet normal 0 0 0
outer loop
vertex 10.125599 12.562939 6.939372
vertex 10.105124 12.542186 6.939372
vertex 10.105124 12.562939 6.939372
endloop
endfacet
facet normal 0 0 0
outer loop
vertex 10.146074 12.542186 6.939372
vertex 10.125599 12.542186 6.939372
vertex 10.146074 12.562939 6.939372
endloop
endfacet
facet normal 0 0 0
outer loop
vertex 10.146074 12.562939 6.939372
vertex 10.125599 12.542186 6.939372
vertex 10.125599 12.562939 6.939372
endloop
endfacet
facet normal 0 0 0
outer loop
vertex 10.166552 12.542186 6.939372
vertex 10.146074 12.542186 6.939372
vertex 10.166552 12.562939 6.939372
endloop
endfacet
facet normal 0 0 0
outer loop
vertex 10.166552 12.562939 6.939372
vertex 10.146074 12.542186 6.939372
vertex 10.146074 12.562939 6.939372
endloop
endfacet
facet normal 0 0 0
outer loop
vertex 10.084648 12.562939 6.939372
vertex 10.105124 12.583692 6.939372
vertex 10.105124 12.562939 6.939372
endloop
endfacet
facet normal 0 0 0
outer loop
vertex 10.125599 12.562939 6.939372
vertex 10.105124 12.562939 6.939372
vertex 10.125599 12.583692 6.939372
endloop
endfacet
facet normal 0 0 0
outer loop
vertex 10.125599 12.583692 6.939372
vertex 10.105124 12.562939 6.939372
vertex 10.105124 12.583692 6.939372
endloop
endfacet
facet normal 0 0 0
outer loop
vertex 10.146074 12.562939 6.939372
vertex 10.125599 12.562939 6.939372
vertex 10.146074 12.583692 6.939372
endloop
endfacet
facet normal 0 0 0
outer loop
vertex 10.146074 12.583692 6.939372
vertex 10.125599 12.562939 6.939372
vertex 10.125599 12.583692 6.939372
endloop
endfacet
facet normal 0 0 0
outer loop
vertex 10.166552 12.562939 6.939372
vertex 10.146074 12.562939 6.939372
vertex 10.166552 12.583692 6.939372
endloop
endfacet
facet normal 0 0 0
outer loop
vertex 10.166552 12.583692 6.939372
vertex 10.146074 12.562939 6.939372
vertex 10.146074 12.583692 6.939372
endloop
endfacet
facet normal 0 0 0
outer loop
vertex 10.125599 12.583692 6.939372
vertex 10.105124 12.583692 6.939372
vertex 10.125599 12.604445 6.939372
endloop
endfacet
facet normal 0 0 0
outer loop
vertex 10.125599 12.604445 6.939372
vertex 10.105124 12.583692 6.939372
vertex 10.105124 12.604445 6.939372
endloop
endfacet
facet normal 0 0 0
outer loop
vertex 10.125599 12.604445 6.939372
vertex 10.146074 12.583692 6.939372
vertex 10.125599 12.583692 6.939372
endloop
endfacet
facet normal 0 0 0
outer loop
vertex 10.146074 12.583692 6.939372
vertex 10.166552 12.604445 6.939372
vertex 10.166552 12.583692 6.939372
endloop
endfacet
facet normal 0 0 0
outer loop
vertex 10.105124 12.625198 6.939372
vertex 10.125599 12.604445 6.939372
vertex 10.105124 12.604445 6.939372
endloop
endfacet
facet normal 0 0 0
outer loop
vertex 10.105124 12.459172 6.939372
vertex 10.125599 12.438418 6.939372
vertex 10.125599 12.459172 6.939372
endloop
endfacet
facet normal 0 0 0
outer loop
vertex 10.146074 12.438418 6.939372
vertex 10.146074 12.459172 6.939372
vertex 10.125599 12.438418 6.939372
endloop
endfacet
facet normal 0 0 0
outer loop
vertex 10.146074 12.459172 6.939372
vertex 10.125599 12.459172 6.939372
vertex 10.125599 12.438418 6.939372
endloop
endfacet
facet normal 0 0 0
outer loop
vertex 10.166552 12.438418 6.939372
vertex 10.166552 12.459172 6.939372
vertex 10.146074 12.438418 6.939372
endloop
endfacet
facet normal 0 0 0
outer loop
vertex 10.166552 12.459172 6.939372
vertex 10.146074 12.459172 6.939372
vertex 10.146074 12.438418 6.939372
endloop
endfacet
facet normal 0 0 0
outer loop
vertex 10.084648 12.479925 6.939372
vertex 10.105124 12.459172 6.939372
vertex 10.105124 12.479925 6.939372
endloop
endfacet
facet normal 0 0 0
outer loop
vertex 10.125599 12.479925 6.959372
vertex 10.105124 12.479925 6.939372
vertex 10.125599 12.459172 6.939372
endloop
endfacet
facet normal 0 0 0
outer loop
vertex 10.105124 12.479925 6.939372
vertex 10.105124 12.459172 6.939372
vertex 10.125599 12.459172 6.939372
endloop
endfacet
facet normal 0 0 0
outer loop
vertex 10.146074 12.459172 6.939372
vertex 10.125599 12.479925 6.959372
vertex 10.125599 12.459172 6.939372
endloop
endfacet
facet normal 0 0 0
outer loop
vertex 10.146074 12.479925 6.959372
vertex 10.125599 12.479925 6.959372
vertex 10.146074 12.459172 6.939372
endloop
endfacet
facet normal 0 0 0
outer loop
vertex 10.166552 12.459172 6.939372
vertex 10.146074 12.479925 6.959372
vertex 10.146074 12.459172 6.939372
endloop
endfacet
facet normal 0 0 0
outer loop
vertex 10.166552 12.479925 6.959372
vertex 10.146074 12.479925 6.959372
vertex 10.166552 12.459172 6.939372
endloop
endfacet
facet normal 0 0 0
outer loop
vertex 10.166552 12.479925 6.959372
vertex 10.166552 12.459172 6.939372
vertex 10.166552 12.479925 6.939372
endloop
endfacet
facet normal 0 0 0
outer loop
vertex 10.105124 12.479925 6.939372
vertex 10.105124 12.500679 6.939372
vertex 10.084648 12.479925 6.939372
endloop
endfacet
facet normal 0 0 0
outer loop
vertex 10.105124 12.500679 6.939372
vertex 10.084648 12.500679 6.939372
vertex 10.084648 12.479925 6.939372
endloop
endfacet
facet normal 0 0 0
outer loop
vertex 10.125599 12.500679 6.959372
vertex 10.105124 12.479925 6.939372
vertex 10.125599 12.479925 6.959372
endloop
endfacet
facet normal 0 0 0
outer loop
vertex 10.105124 12.500679 6.939372
vertex 10.105124 12.479925 6.939372
vertex 10.125599 12.500679 6.959372
endloop
endfacet
facet normal 0 0 0
outer loop
vertex 10.187027 12.500679 6.959372
vertex 10.166552 12.479925 6.959372
vertex 10.166552 12.500679 6.939372
endloop
endfacet
facet normal 0 0 0
outer loop
vertex 10.166552 12.479925 6.959372
vertex 10.166552 12.479925 6.939372
vertex 10.166552 12.500679 6.939372
endloop
endfacet
facet normal 0 0 0
outer loop
vertex 10.105124 12.521432 6.939372
vertex 10.084648 12.500679 6.939372
vertex 10.105124 12.500679 6.939372
endloop
endfacet
facet normal 0 0 0
outer loop
vertex 10.125599 12.521432 6.959372
vertex 10.105124 12.500679 6.939372
vertex 10.125599 12.500679 6.959372
endloop
endfacet
facet normal 0 0 0
outer loop
vertex 10.105124 12.521432 6.939372
vertex 10.105124 12.500679 6.939372
vertex 10.125599 12.521432 6.959372
endloop
endfacet
facet normal 0 0 0
outer loop
vertex 10.187027 12.500679 6.959372
vertex 10.166552 12.521432 6.939372
vertex 10.187027 12.521432 6.959372
endloop
endfacet
facet normal 0 0 0
outer loop
vertex 10.166552 12.500679 6.939372
vertex 10.166552 12.521432 6.939372
vertex 10.187027 12.500679 6.959372
endloop
endfacet
facet normal 0 0 0
outer loop
vertex 10.105124 12.521432 6.939372
vertex 10.105124 12.542186 6.959372
vertex 10.105124 12.542186 6.939372
endloop
endfacet
facet normal 0 0 0
outer loop
vertex 10.125599 12.521432 6.959372
vertex 10.105124 12.542186 6.959372
vertex 10.105124 12.521432 6.939372
endloop
endfacet
facet normal 0 0 0
outer loop
vertex 10.187027 12.521432 6.959372
vertex 10.166552 12.521432 6.939372
vertex 10.166552 12.542186 6.959372
endloop
endfacet
facet normal 0 0 0
outer loop
vertex 10.166552 12.521432 6.939372
vertex 10.166552 12.542186 6.939372
vertex 10.166552 12.542186 6.959372
endloop
endfacet
facet normal 0 0 0
outer loop
vertex 10.084648 12.562939 6.939372
vertex 10.105124 12.542186 6.939372
vertex 10.105124 12.562939 6.959372
endloop
endfacet
facet normal 0 0 0
outer loop
vertex 10.105124 12.542186 6.939372
vertex 10.105124 12.542186 6.959372
vertex 10.105124 12.562939 6.959372
endloop
endfacet
facet normal 0 0 0
outer loop
vertex 10.166552 12.542186 6.939372
vertex 10.166552 12.562939 6.939372
vertex 10.166552 12.542186 6.959372
endloop
endfacet
facet normal 0 0 0
outer loop
vertex 10.166552 12.542186 6.959372
vertex 10.166552 12.562939 6.939372
vertex 10.166552 12.562939 6.959372
endloop
endfacet
facet normal 0 0 0
outer loop
vertex 10.084648 12.562939 6.939372
vertex 10.105124 12.562939 6.959372
vertex 10.105124 12.583692 6.939372
endloop
endfacet
facet normal 0 0 0
outer loop
vertex 10.105124 12.562939 6.959372
vertex 10.105124 12.583692 6.959372
vertex 10.105124 12.583692 6.939372
endloop
endfacet
facet normal 0 0 0
outer loop
vertex 10.166552 12.562939 6.939372
vertex 10.166552 12.583692 6.939372
vertex 10.166552 12.562939 6.959372
endloop
endfacet
facet normal 0 0 0
outer loop
vertex 10.166552 12.562939 6.959372
vertex 10.166552 12.583692 6.939372
vertex 10.166552 12.583692 6.959372
endloop
endfacet
facet normal 0 0 0
outer loop
vertex 10.105124 12.583692 6.939372
vertex 10.105124 12.583692 6.959372
vertex 10.105124 12.604445 6.939372
endloop
endfacet
facet normal 0 0 0
outer loop
vertex 10.105124 12.583692 6.959372
vertex 10.105124 12.604445 6.959372
vertex 10.105124 12.604445 6.939372
endloop
endfacet
facet normal 0 0 0
outer loop
vertex 10.146074 12.583692 6.939372
vertex 10.125599 12.604445 6.939372
vertex 10.146074 12.604445 6.959372
endloop
endfacet
facet normal 0 0 0
outer loop
vertex 10.146074 12.583692 6.939372
vertex 10.146074 12.604445 6.959372
vertex 10.166552 12.604445 6.939372
endloop
endfacet
facet normal 0 0 0
outer loop
vertex 10.166552 12.583692 6.939372
vertex 10.166552 12.604445 6.939372
vertex 10.166552 12.583692 6.959372
endloop
endfacet
facet normal 0 0 0
outer loop
vertex 10.166552 12.583692 6.959372
vertex 10.166552 12.604445 6.939372
vertex 10.166552 12.604445 6.959372
endloop
endfacet
facet normal 0 0 0
outer loop
vertex 10.105124 12.604445 6.939372
vertex 10.105124 12.604445 6.959372
vertex 10.105124 12.625198 6.939372
endloop
endfacet
facet normal 0 0 0
outer loop
vertex 10.105124 12.604445 6.959372
vertex 10.105124 12.625198 6.959372
vertex 10.105124 12.625198 6.939372
endloop
endfacet
facet normal 0 0 0
outer loop
vertex 10.125599 12.604445 6.939372
vertex 10.105124 12.625198 6.939372
vertex 10.125599 12.625198 6.959372
endloop
endfacet
facet normal 0 0 0
outer loop
vertex 10.125599 12.604445 6.939372
vertex 10.125599 12.625198 6.959372
vertex 10.146074 12.604445 6.959372
endloop
endfacet
facet normal 0 0 0
outer loop
vertex 10.125599 12.625198 6.959372
vertex 10.146074 12.625198 6.959372
vertex 10.146074 12.604445 6.959372
endloop
endfacet
facet normal 0 0 0
outer loop
vertex 10.166552 12.604445 6.939372
vertex 10.146074 12.604445 6.959372
vertex 10.166552 12.625198 6.959372
endloop
endfacet
facet normal 0 0 0
outer loop
vertex 10.146074 12.604445 6.959372
vertex 10.146074 12.625198 6.959372
vertex 10.166552 12.625198 6.959372
endloop
endfacet
facet normal 0 0 0
outer loop
vertex 10.166552 12.604445 6.939372
vertex 10.166552 12.625198 6.959372
vertex 10.166552 12.604445 6.959372
endloop
endfacet
facet normal 0 0 0
outer loop
vertex 10.105124 12.625198 6.939372
vertex 10.084648 12.645952 6.959372
vertex 10.105124 12.645952 6.959372
endloop
endfacet
facet normal 0 0 0
outer loop
vertex 10.105124 12.625198 6.939372
vertex 10.105124 12.625198 6.959372
vertex 10.084648 12.645952 6.959372
endloop
endfacet
facet normal 0 0 0
outer loop
vertex 10.105124 12.625198 6.939372
vertex 10.105124 12.645952 6.959372
vertex 10.125599 12.625198 6.959372
endloop
endfacet
facet normal 0 0 0
outer loop
vertex 10.105124 12.645952 6.959372
vertex 10.125599 12.645952 6.959372
vertex 10.125599 12.625198 6.959372
endloop
endfacet
facet normal 0 0 0
outer loop
vertex 10.146074 12.625198 6.959372
vertex 10.125599 12.625198 6.959372
vertex 10.146074 12.645952 6.959372
endloop
endfacet
facet normal 0 0 0
outer loop
vertex 10.146074 12.645952 6.959372
vertex 10.125599 12.625198 6.959372
vertex 10.125599 12.645952 6.959372
endloop
endfacet
facet normal 0 0 0
outer loop
vertex 10.166552 12.625198 6.959372
vertex 10.146074 12.625198 6.959372
vertex 10.166552 12.645952 6.959372
endloop
endfacet
facet normal 0 0 0
outer loop
vertex 10.166552 12.645952 6.959372
vertex 10.146074 12.625198 6.959372
vertex 10.146074 12.645952 6.959372
endloop
endfacet
facet normal 0 0 0
outer loop
vertex 10.105124 12.645952 6.959372
vertex 10.084648 12.645952 6.959372
vertex 10.105124 12.666705 6.959372
endloop
endfacet
facet normal 0 0 0
outer loop
vertex 10.105124 12.666705 6.959372
vertex 10.084648 12.645952 6.959372
vertex 10.084648 12.666705 6.959372
endloop
endfacet
facet normal 0 0 0
outer loop
vertex 10.125599 12.645952 6.959372
vertex 10.105124 12.645952 6.959372
vertex 10.125599 12.666705 6.959372
endloop
endfacet
facet normal 0 0 0
outer loop
vertex 10.125599 12.666705 6.959372
vertex 10.105124 12.645952 6.959372
vertex 10.105124 12.666705 6.959372
endloop
endfacet
facet normal 0 0 0
outer loop
vertex 10.146074 12.645952 6.959372
vertex 10.125599 12.645952 6.959372
vertex 10.146074 12.666705 6.959372
endloop
endfacet
facet normal 0 0 0
outer loop
vertex 10.146074 12.666705 6.959372
vertex 10.125599 12.645952 6.959372
vertex 10.125599 12.666705 6.959372
endloop
endfacet
facet normal 0 0 0
outer loop
vertex 10.146074 12.666705 6.959372
vertex 10.166552 12.645952 6.959372
vertex 10.146074 12.645952 6.959372
endloop
endfacet
facet normal 0 0 0
outer loop
vertex 10.105124 12.666705 6.959372
vertex 10.084648 12.666705 6.959372
vertex 10.105124 12.687459 6.959372
endloop
endfacet
facet normal 0 0 0
outer loop
vertex 10.105124 12.687459 6.959372
vertex 10.084648 12.666705 6.959372
vertex 10.084648 12.687459 6.959372
endloop
endfacet
facet normal 0 0 0
outer loop
vertex 10.125599 12.666705 6.959372
vertex 10.105124 12.666705 6.959372
vertex 10.125599 12.687459 6.959372
endloop
endfacet
facet normal 0 0 0
outer loop
vertex 10.125599 12.687459 6.959372
vertex 10.105124 12.666705 6.959372
vertex 10.105124 12.687459 6.959372
endloop
endfacet
facet normal 0 0 0
outer loop
vertex 10.146074 12.666705 6.959372
vertex 10.125599 12.666705 6.959372
vertex 10.146074 12.687459 6.959372
endloop
endfacet
facet normal 0 0 0
outer loop
vertex 10.146074 12.687459 6.959372
vertex 10.125599 12.666705 6.959372
vertex 10.125599 12.687459 6.959372
endloop
endfacet
facet normal 0 0 0
outer loop
vertex 10.105124 12.687459 6.959372
vertex 10.084648 12.687459 6.959372
vertex 10.105124 12.708212 6.959372
endloop
endfacet
facet normal 0 0 0
outer loop
vertex 10.105124 12.708212 6.959372
vertex 10.084648 12.687459 6.959372
vertex 10.084648 12.708212 6.959372
endloop
endfacet
facet normal 0 0 0
outer loop
vertex 10.125599 12.687459 6.959372
vertex 10.105124 12.687459 6.959372
vertex 10.125599 12.708212 6.959372
endloop
endfacet
facet normal 0 0 0
outer loop
vertex 10.125599 12.708212 6.959372
vertex 10.105124 12.687459 6.959372
vertex 10.105124 12.708212 6.959372
endloop
endfacet
facet normal 0 0 0
outer loop
vertex 10.146074 12.687459 6.959372
vertex 10.125599 12.687459 6.959372
vertex 10.146074 12.708212 6.959372
endloop
endfacet
facet normal 0 0 0
outer loop
vertex 10.146074 12.708212 6.959372
vertex 10.125599 12.687459 6.959372
vertex 10.125599 12.708212 6.959372
endloop
endfacet
facet normal 0 0 0
outer loop
vertex 10.084648 12.708212 6.959372
vertex 10.105124 12.728966 6.959372
vertex 10.105124 12.708212 6.959372
endloop
endfacet
facet normal 0 0 0
outer loop
vertex 10.125599 12.708212 6.959372
vertex 10.105124 12.708212 6.959372
vertex 10.125599 12.728966 6.959372
endloop
endfacet
facet normal 0 0 0
outer loop
vertex 10.125599 12.728966 6.959372
vertex 10.105124 12.708212 6.959372
vertex 10.105124 12.728966 6.959372
endloop
endfacet
facet normal 0 0 0
outer loop
vertex 10.125599 12.728966 6.959372
vertex 10.146074 12.708212 6.959372
vertex 10.125599 12.708212 6.959372
endloop
endfacet
facet normal 0 0 0
outer loop
vertex 10.146074 12.479925 6.959372
vertex 10.146074 12.500679 6.959372
vertex 10.125599 12.479925 6.959372
endloop
endfacet
facet normal 0 0 0
outer loop
vertex 10.146074 12.500679 6.959372
vertex 10.125599 12.500679 6.959372
vertex 10.125599 12.479925 6.959372
endloop
endfacet
facet normal 0 0 0
outer loop
vertex 10.166552 12.479925 6.959372
vertex 10.166552 12.500679 6.959372
vertex 10.146074 12.479925 6.959372
endloop
endfacet
facet normal 0 0 0
outer loop
vertex 10.166552 12.500679 6.959372
vertex 10.146074 12.500679 6.959372
vertex 10.146074 12.479925 6.959372
endloop
endfacet
facet normal 0 0 0
outer loop
vertex 10.166552 12.479925 6.959372
vertex 10.187027 12.500679 6.959372
vertex 10.166552 12.500679 6.959372
endloop
endfacet
facet normal 0 0 0
outer loop
vertex 10.146074 12.500679 6.959372
vertex 10.146074 12.521432 6.959372
vertex 10.125599 12.500679 6.959372
endloop
endfacet
facet normal 0 0 0
outer loop
vertex 10.146074 12.521432 6.959372
vertex 10.125599 12.521432 6.959372
vertex 10.125599 12.500679 6.959372
endloop
endfacet
facet normal 0 0 0
outer loop
vertex 10.166552 12.500679 6.959372
vertex 10.166552 12.521432 6.959372
vertex 10.146074 12.500679 6.959372
endloop
endfacet
facet normal 0 0 0
outer loop
vertex 10.166552 12.521432 6.959372
vertex 10.146074 12.521432 6.959372
vertex 10.146074 12.500679 6.959372
endloop
endfacet
facet normal 0 0 0
outer loop
vertex 10.187027 12.500679 6.959372
vertex 10.187027 12.521432 6.959372
vertex 10.166552 12.500679 6.959372
endloop
endfacet
facet normal 0 0 0
outer loop
vertex 10.187027 12.521432 6.959372
vertex 10.166552 12.521432 6.959372
vertex 10.166552 12.500679 6.959372
endloop
endfacet
facet normal 0 0 0
outer loop
vertex 10.105124 12.542186 6.959372
vertex 10.125599 12.521432 6.959372
vertex 10.125599 12.542186 6.959372
endloop
endfacet
facet normal 0 0 0
outer loop
vertex 10.146074 12.521432 6.959372
vertex 10.146074 12.542186 6.959372
vertex 10.125599 12.521432 6.959372
endloop
endfacet
facet normal 0 0 0
outer loop
vertex 10.146074 12.542186 6.959372
vertex 10.125599 12.542186 6.959372
vertex 10.125599 12.521432 6.959372
endloop
endfacet
facet normal 0 0 0
outer loop
vertex 10.166552 12.521432 6.959372
vertex 10.166552 12.542186 6.959372
vertex 10.146074 12.521432 6.959372
endloop
endfacet
facet normal 0 0 0
outer loop
vertex 10.166552 12.542186 6.959372
vertex 10.146074 12.542186 6.959372
vertex 10.146074 12.521432 6.959372
endloop
endfacet
facet normal 0 0 0
outer loop
vertex 10.187027 12.521432 6.959372
vertex 10.166552 12.542186 6.959372
vertex 10.166552 12.521432 6.959372
endloop
endfacet
facet normal 0 0 0
outer loop
vertex 10.125599 12.542186 6.959372
vertex 10.125599 12.562939 6.959372
vertex 10.105124 12.542186 6.959372
endloop
endfacet
facet normal 0 0 0
outer loop
vertex 10.125599 12.562939 6.959372
vertex 10.105124 12.562939 6.959372
vertex 10.105124 12.542186 6.959372
endloop
endfacet
facet normal 0 0 0
outer loop
vertex 10.146074 12.542186 6.959372
vertex 10.146074 12.562939 6.959372
vertex 10.125599 12.542186 6.959372
endloop
endfacet
facet normal 0 0 0
outer loop
vertex 10.146074 12.562939 6.959372
vertex 10.125599 12.562939 6.959372
vertex 10.125599 12.542186 6.959372
endloop
endfacet
facet normal 0 0 0
outer loop
vertex 10.166552 12.542186 6.959372
vertex 10.166552 12.562939 6.959372
vertex 10.146074 12.542186 6.959372
endloop
endfacet
facet normal 0 0 0
outer loop
vertex 10.166552 12.562939 6.959372
vertex 10.146074 12.562939 6.959372
vertex 10.146074 12.542186 6.959372
endloop
endfacet
facet normal 0 0 0
outer loop
vertex 10.125599 12.583692 6.979372
vertex 10.105124 12.583692 6.959372
vertex 10.125599 12.562939 6.959372
endloop
endfacet
facet normal 0 0 0
outer loop
vertex 10.105124 12.583692 6.959372
vertex 10.105124 12.562939 6.959372
vertex 10.125599 12.562939 6.959372
endloop
endfacet
facet normal 0 0 0
outer loop
vertex 10.146074 12.562939 6.959372
vertex 10.125599 12.583692 6.979372
vertex 10.125599 12.562939 6.959372
endloop
endfacet
facet normal 0 0 0
outer loop
vertex 10.146074 12.583692 6.979372
vertex 10.125599 12.583692 6.979372
vertex 10.146074 12.562939 6.959372
endloop
endfacet
facet normal 0 0 0
outer loop
vertex 10.166552 12.562939 6.959372
vertex 10.146074 12.583692 6.979372
vertex 10.146074 12.562939 6.959372
endloop
endfacet
facet normal 0 0 0
outer loop
vertex 10.166552 12.583692 6.979372
vertex 10.146074 12.583692 6.979372
vertex 10.166552 12.562939 6.959372
endloop
endfacet
facet normal 0 0 0
outer loop
vertex 10.166552 12.583692 6.979372
vertex 10.166552 12.562939 6.959372
vertex 10.166552 12.583692 6.959372
endloop
endfacet
facet normal 0 0 0
outer loop
vertex 10.105124 12.583692 6.959372
vertex 10.105124 12.604445 6.979372
vertex 10.105124 12.604445 6.959372
endloop
endfacet
facet normal 0 0 0
outer loop
vertex 10.125599 12.583692 6.979372
vertex 10.105124 12.604445 6.979372
vertex 10.105124 12.583692 6.959372
endloop
endfacet
facet normal 0 0 0
outer loop
vertex 10.166552 12.583692 6.959372
vertex 10.166552 12.604445 6.959372
vertex 10.166552 12.583692 6.979372
endloop
endfacet
facet normal 0 0 0
outer loop
vertex 10.166552 12.583692 6.979372
vertex 10.166552 12.604445 6.959372
vertex 10.166552 12.604445 6.979372
endloop
endfacet
facet normal 0 0 0
outer loop
vertex 10.105124 12.604445 6.959372
vertex 10.105124 12.604445 6.979372
vertex 10.105124 12.625198 6.959372
endloop
endfacet
facet normal 0 0 0
outer loop
vertex 10.105124 12.604445 6.979372
vertex 10.105124 12.625198 6.979372
vertex 10.105124 12.625198 6.959372
endloop
endfacet
facet normal 0 0 0
outer loop
vertex 10.187027 12.625198 6.979372
vertex 10.166552 12.604445 6.979372
vertex 10.166552 12.625198 6.959372
endloop
endfacet
facet normal 0 0 0
outer loop
vertex 10.166552 12.604445 6.979372
vertex 10.166552 12.604445 6.959372
vertex 10.166552 12.625198 6.959372
endloop
endfacet
facet normal 0 0 0
outer loop
vertex 10.084648 12.645952 6.959372
vertex 10.105124 12.625198 6.959372
vertex 10.105124 12.645952 6.979372
endloop
endfacet
facet normal 0 0 0
outer loop
vertex 10.105124 12.625198 6.959372
vertex 10.105124 12.625198 6.979372
vertex 10.105124 12.645952 6.979372
endloop
endfacet
facet normal 0 0 0
outer loop
vertex 10.187027 12.625198 6.979372
vertex 10.166552 12.625198 6.959372
vertex 10.166552 12.645952 6.979372
endloop
endfacet
facet normal 0 0 0
outer loop
vertex 10.166552 12.625198 6.959372
vertex 10.166552 12.645952 6.959372
vertex 10.166552 12.645952 6.979372
endloop
endfacet
facet normal 0 0 0
outer loop
vertex 10.105124 12.666705 6.979372
vertex 10.084648 12.645952 6.959372
vertex 10.105124 12.645952 6.979372
endloop
endfacet
facet normal 0 0 0
outer loop
vertex 10.084648 12.666705 6.959372
vertex 10.084648 12.645952 6.959372
vertex 10.105124 12.666705 6.979372
endloop
endfacet
facet normal 0 0 0
outer loop
vertex 10.166552 12.645952 6.959372
vertex 10.146074 12.666705 6.959372
vertex 10.166552 12.666705 6.979372
endloop
endfacet
facet normal 0 0 0
outer loop
vertex 10.166552 12.645952 6.959372
vertex 10.166552 12.666705 6.979372
vertex 10.166552 12.645952 6.979372
endloop
endfacet
facet normal 0 0 0
outer loop
vertex 10.105124 12.687459 6.979372
vertex 10.084648 12.666705 6.959372
vertex 10.105124 12.666705 6.979372
endloop
endfacet
facet normal 0 0 0
outer loop
vertex 10.084648 12.687459 6.959372
vertex 10.084648 12.666705 6.959372
vertex 10.105124 12.687459 6.979372
endloop
endfacet
facet normal 0 0 0
outer loop
vertex 10.166552 12.666705 6.979372
vertex 10.146074 12.687459 6.959372
vertex 10.166552 12.687459 6.979372
endloop
endfacet
facet normal 0 0 0
outer loop
vertex 10.146074 12.666705 6.959372
vertex 10.146074 12.687459 6.959372
vertex 10.166552 12.666705 6.979372
endloop
endfacet
facet normal 0 0 0
outer loop
vertex 10.105124 12.708212 6.979372
vertex 10.084648 12.687459 6.959372
vertex 10.105124 12.687459 6.979372
endloop
endfacet
facet normal 0 0 0
outer loop
vertex 10.084648 12.708212 6.959372
vertex 10.084648 12.687459 6.959372
vertex 10.105124 12.708212 6.979372
endloop
endfacet
facet normal 0 0 0
outer loop
vertex 10.166552 12.687459 6.979372
vertex 10.146074 12.708212 6.959372
vertex 10.166552 12.708212 6.979372
endloop
endfacet
facet normal 0 0 0
outer loop
vertex 10.146074 12.687459 6.959372
vertex 10.146074 12.708212 6.959372
vertex 10.166552 12.687459 6.979372
endloop
endfacet
facet normal 0 0 0
outer loop
vertex 10.084648 12.708212 6.959372
vertex 10.105124 12.708212 6.979372
vertex 10.105124 12.728966 6.959372
endloop
endfacet
facet normal 0 0 0
outer loop
vertex 10.105124 12.708212 6.979372
vertex 10.105124 12.728966 6.979372
vertex 10.105124 12.728966 6.959372
endloop
endfacet
facet normal 0 0 0
outer loop
vertex 10.146074 12.708212 6.959372
vertex 10.125599 12.728966 6.959372
vertex 10.146074 12.728966 6.979372
endloop
endfacet
facet normal 0 0 0
outer loop
vertex 10.146074 12.708212 6.959372
vertex 10.146074 12.728966 6.979372
vertex 10.166552 12.708212 6.979372
endloop
endfacet
facet normal 0 0 0
outer loop
vertex 10.146074 12.728966 6.979372
vertex 10.166552 12.728966 6.979372
vertex 10.166552 12.708212 6.979372
endloop
endfacet
facet normal 0 0 0
outer loop
vertex 10.105124 12.728966 6.959372
vertex 10.084648 12.749719 6.979372
vertex 10.105124 12.749719 6.979372
endloop
endfacet
facet normal 0 0 0
outer loop
vertex 10.105124 12.728966 6.959372
vertex 10.105124 12.728966 6.979372
vertex 10.084648 12.749719 6.979372
endloop
endfacet
facet normal 0 0 0
outer loop
vertex 10.105124 12.728966 6.959372
vertex 10.125599 12.749719 6.979372
vertex 10.125599 12.728966 6.959372
endloop
endfacet
facet normal 0 0 0
outer loop
vertex 10.105124 12.749719 6.979372
vertex 10.125599 12.749719 6.979372
vertex 10.105124 12.728966 6.959372
endloop
endfacet
facet normal 0 0 0
outer loop
vertex 10.125599 12.728966 6.959372
vertex 10.125599 12.749719 6.979372
vertex 10.146074 12.728966 6.979372
endloop
endfacet
facet normal 0 0 0
outer loop
vertex 10.125599 12.749719 6.979372
vertex 10.146074 12.749719 6.979372
vertex 10.146074 12.728966 6.979372
endloop
endfacet
facet normal 0 0 0
outer loop
vertex 10.166552 12.728966 6.979372
vertex 10.146074 12.728966 6.979372
vertex 10.166552 12.749719 6.979372
endloop
endfacet
facet normal 0 0 0
outer loop
vertex 10.166552 12.749719 6.979372
vertex 10.146074 12.728966 6.979372
vertex 10.146074 12.749719 6.979372
endloop
endfacet
facet normal 0 0 0
outer loop
vertex 10.105124 12.749719 6.979372
vertex 10.084648 12.749719 6.979372
vertex 10.105124 12.770472 6.979372
endloop
endfacet
facet normal 0 0 0
outer loop
vertex 10.105124 12.770472 6.979372
vertex 10.084648 12.749719 6.979372
vertex 10.084648 12.770472 6.979372
endloop
endfacet
facet normal 0 0 0
outer loop
vertex 10.125599 12.749719 6.979372
vertex 10.105124 12.749719 6.979372
vertex 10.125599 12.770472 6.979372
endloop
endfacet
facet normal 0 0 0
outer loop
vertex 10.125599 12.770472 6.979372
vertex 10.105124 12.749719 6.979372
vertex 10.105124 12.770472 6.979372
endloop
endfacet
facet normal 0 0 0
outer loop
vertex 10.146074 12.749719 6.979372
vertex 10.125599 12.749719 6.979372
vertex 10.146074 12.770472 6.979372
endloop
endfacet
facet normal 0 0 0
outer loop
vertex 10.146074 12.770472 6.979372
vertex 10.125599 12.749719 6.979372
vertex 10.125599 12.770472 6.979372
endloop
endfacet
facet normal 0 0 0
outer loop
vertex 10.146074 12.770472 6.979372
vertex 10.166552 12.749719 6.979372
vertex 10.146074 12.749719 6.979372
endloop
endfacet
facet normal 0 0 0
outer loop
vertex 10.084648 12.770472 6.979372
vertex 10.105124 12.791225 6.979372
vertex 10.105124 12.770472 6.979372
endloop
endfacet
facet normal 0 0 0
outer loop
vertex 10.125599 12.770472 6.979372
vertex 10.105124 12.770472 6.979372
vertex 10.125599 12.791225 6.979372
endloop
endfacet
facet normal 0 0 0
outer loop
vertex 10.125599 12.791225 6.979372
vertex 10.105124 12.770472 6.979372
vertex 10.105124 12.791225 6.979372
endloop
endfacet
facet normal 0 0 0
outer loop
vertex 10.125599 12.791225 6.979372
vertex 10.146074 12.770472 6.979372
vertex 10.125599 12.770472 6.979372
endloop
endfacet
facet normal 0 0 0
outer loop
vertex 10.105124 12.604445 6.979372
vertex 10.125599 12.583692 6.979372
vertex 10.125599 12.604445 6.979372
endloop
endfacet
facet normal 0 0 0
outer loop
vertex 10.146074 12.583692 6.979372
vertex 10.146074 12.604445 6.979372
vertex 10.125599 12.583692 6.979372
endloop
endfacet
facet normal 0 0 0
outer loop
vertex 10.146074 12.604445 6.979372
vertex 10.125599 12.604445 6.979372
vertex 10.125599 12.583692 6.979372
endloop
endfacet
facet normal 0 0 0
outer loop
vertex 10.166552 12.583692 6.979372
vertex 10.166552 12.604445 6.979372
vertex 10.146074 12.583692 6.979372
endloop
endfacet
facet normal 0 0 0
outer loop
vertex 10.166552 12.604445 6.979372
vertex 10.146074 12.604445 6.979372
vertex 10.146074 12.583692 6.979372
endloop
endfacet
facet normal 0 0 0
outer loop
vertex 10.125599 12.604445 6.979372
vertex 10.125599 12.625198 6.979372
vertex 10.105124 12.604445 6.979372
endloop
endfacet
facet normal 0 0 0
outer loop
vertex 10.125599 12.625198 6.979372
vertex 10.105124 12.625198 6.979372
vertex 10.105124 12.604445 6.979372
endloop
endfacet
facet normal 0 0 0
outer loop
vertex 10.146074 12.604445 6.979372
vertex 10.146074 12.625198 6.979372
vertex 10.125599 12.604445 6.979372
endloop
endfacet
facet normal 0 0 0
outer loop
vertex 10.146074 12.625198 6.979372
vertex 10.125599 12.625198 6.979372
vertex 10.125599 12.604445 6.979372
endloop
endfacet
facet normal 0 0 0
outer loop
vertex 10.166552 12.604445 6.979372
vertex 10.166552 12.625198 6.979372
vertex 10.146074 12.604445 6.979372
endloop
endfacet
facet normal 0 0 0
outer loop
vertex 10.166552 12.625198 6.979372
vertex 10.146074 12.625198 6.979372
vertex 10.146074 12.604445 6.979372
endloop
endfacet
facet normal 0 0 0
outer loop
vertex 10.166552 12.604445 6.979372
vertex 10.187027 12.625198 6.979372
vertex 10.166552 12.625198 6.979372
endloop
endfacet
facet normal 0 0 0
outer loop
vertex 10.125599 12.645952 6.999372
vertex 10.105124 12.645952 6.979372
vertex 10.125599 12.625198 6.979372
endloop
endfacet
facet normal 0 0 0
outer loop
vertex 10.105124 12.645952 6.979372
vertex 10.105124 12.625198 6.979372
vertex 10.125599 12.625198 6.979372
endloop
endfacet
facet normal 0 0 0
outer loop
vertex 10.125599 12.645952 6.999372
vertex 10.125599 12.625198 6.979372
vertex 10.146074 12.645952 6.979372
endloop
endfacet
facet normal 0 0 0
outer loop
vertex 10.125599 12.625198 6.979372
vertex 10.146074 12.625198 6.979372
vertex 10.146074 12.645952 6.979372
endloop
endfacet
facet normal 0 0 0
outer loop
vertex 10.166552 12.625198 6.979372
vertex 10.166552 12.645952 6.979372
vertex 10.146074 12.625198 6.979372
endloop
endfacet
facet normal 0 0 0
outer loop
vertex 10.166552 12.645952 6.979372
vertex 10.146074 12.645952 6.979372
vertex 10.146074 12.625198 6.979372
endloop
endfacet
facet normal 0 0 0
outer loop
vertex 10.187027 12.625198 6.979372
vertex 10.166552 12.645952 6.979372
vertex 10.166552 12.625198 6.979372
endloop
endfacet
facet normal 0 0 0
outer loop
vertex 10.105124 12.645952 6.979372
vertex 10.105124 12.666705 6.999372
vertex 10.105124 12.666705 6.979372
endloop
endfacet
facet normal 0 0 0
outer loop
vertex 10.125599 12.645952 6.999372
vertex 10.105124 12.666705 6.999372
vertex 10.105124 12.645952 6.979372
endloop
endfacet
facet normal 0 0 0
outer loop
vertex 10.146074 12.645952 6.979372
vertex 10.146074 12.666705 6.999372
vertex 10.125599 12.645952 6.999372
endloop
endfacet
facet normal 0 0 0
outer loop
vertex 10.146074 12.666705 6.999372
vertex 10.146074 12.645952 6.979372
vertex 10.166552 12.666705 6.979372
endloop
endfacet
facet normal 0 0 0
outer loop
vertex 10.146074 12.645952 6.979372
vertex 10.166552 12.645952 6.979372
vertex 10.166552 12.666705 6.979372
endloop
endfacet
facet normal 0 0 0
outer loop
vertex 10.084648 12.687459 6.999372
vertex 10.105124 12.687459 6.979372
vertex 10.105124 12.666705 6.999372
endloop
endfacet
facet normal 0 0 0
outer loop
vertex 10.105124 12.687459 6.979372
vertex 10.105124 12.666705 6.979372
vertex 10.105124 12.666705 6.999372
endloop
endfacet
facet normal 0 0 0
outer loop
vertex 10.166552 12.687459 6.979372
vertex 10.146074 12.666705 6.999372
vertex 10.166552 12.666705 6.979372
endloop
endfacet
facet normal 0 0 0
outer loop
vertex 10.146074 12.687459 6.999372
vertex 10.146074 12.666705 6.999372
vertex 10.166552 12.687459 6.979372
endloop
endfacet
facet normal 0 0 0
outer loop
vertex 10.084648 12.687459 6.999372
vertex 10.105124 12.708212 6.999372
vertex 10.105124 12.687459 6.979372
endloop
endfacet
facet normal 0 0 0
outer loop
vertex 10.105124 12.708212 6.999372
vertex 10.105124 12.708212 6.979372
vertex 10.105124 12.687459 6.979372
endloop
endfacet
facet normal 0 0 0
outer loop
vertex 10.166552 12.708212 6.979372
vertex 10.146074 12.687459 6.999372
vertex 10.166552 12.687459 6.979372
endloop
endfacet
facet normal 0 0 0
outer loop
vertex 10.146074 12.708212 6.999372
vertex 10.146074 12.687459 6.999372
vertex 10.166552 12.708212 6.979372
endloop
endfacet
facet normal 0 0 0
outer loop
vertex 10.084648 12.728966 6.999372
vertex 10.105124 12.728966 6.979372
vertex 10.105124 12.708212 6.999372
endloop
endfacet
facet normal 0 0 0
outer loop
vertex 10.105124 12.728966 6.979372
vertex 10.105124 12.708212 6.979372
vertex 10.105124 12.708212 6.999372
endloop
endfacet
facet normal 0 0 0
outer loop
vertex 10.166552 12.728966 6.979372
vertex 10.146074 12.708212 6.999372
vertex 10.166552 12.708212 6.979372
endloop
endfacet
facet normal 0 0 0
outer loop
vertex 10.146074 12.728966 6.999372
vertex 10.146074 12.708212 6.999372
vertex 10.166552 12.728966 6.979372
endloop
endfacet
facet normal 0 0 0
outer loop
vertex 10.084648 12.749719 6.979372
vertex 10.084648 12.728966 6.999372
vertex 10.084648 12.749719 6.999372
endloop
endfacet
facet normal 0 0 0
outer loop
vertex 10.105124 12.728966 6.979372
vertex 10.084648 12.728966 6.999372
vertex 10.084648 12.749719 6.979372
endloop
endfacet
facet normal 0 0 0
outer loop
vertex 10.166552 12.749719 6.979372
vertex 10.146074 12.728966 6.999372
vertex 10.166552 12.728966 6.979372
endloop
endfacet
facet normal 0 0 0
outer loop
vertex 10.146074 12.749719 6.999372
vertex 10.146074 12.728966 6.999372
vertex 10.166552 12.749719 6.979372
endloop
endfacet
facet normal 0 0 0
outer loop
vertex 10.084648 12.749719 6.979372
vertex 10.084648 12.749719 6.999372
vertex 10.084648 12.770472 6.979372
endloop
endfacet
facet normal 0 0 0
outer loop
vertex 10.084648 12.749719 6.999372
vertex 10.084648 12.770472 6.999372
vertex 10.084648 12.770472 6.979372
endloop
endfacet
facet normal 0 0 0
outer loop
vertex 10.166552 12.749719 6.979372
vertex 10.146074 12.770472 6.979372
vertex 10.146074 12.749719 6.999372
endloop
endfacet
facet normal 0 0 0
outer loop
vertex 10.146074 12.770472 6.979372
vertex 10.146074 12.770472 6.999372
vertex 10.146074 12.749719 6.999372
endloop
endfacet
facet normal 0 0 0
outer loop
vertex 10.084648 12.791225 6.999372
vertex 10.084648 12.770472 6.979372
vertex 10.084648 12.770472 6.999372
endloop
endfacet
facet normal 0 0 0
outer loop
vertex 10.084648 12.770472 6.979372
vertex 10.084648 12.791225 6.999372
vertex 10.105124 12.791225 6.979372
endloop
endfacet
facet normal 0 0 0
outer loop
vertex 10.146074 12.770472 6.979372
vertex 10.125599 12.791225 6.979372
vertex 10.146074 12.791225 6.999372
endloop
endfacet
facet normal 0 0 0
outer loop
vertex 10.146074 12.770472 6.979372
vertex 10.146074 12.791225 6.999372
vertex 10.146074 12.770472 6.999372
endloop
endfacet
facet normal 0 0 0
outer loop
vertex 10.105124 12.791225 6.979372
vertex 10.084648 12.791225 6.999372
vertex 10.105124 12.811978 6.999372
endloop
endfacet
facet normal 0 0 0
outer loop
vertex 10.084648 12.791225 6.999372
vertex 10.084648 12.811978 6.999372
vertex 10.105124 12.811978 6.999372
endloop
endfacet
facet normal 0 0 0
outer loop
vertex 10.105124 12.791225 6.979372
vertex 10.125599 12.811978 6.999372
vertex 10.125599 12.791225 6.979372
endloop
endfacet
facet normal 0 0 0
outer loop
vertex 10.105124 12.811978 6.999372
vertex 10.125599 12.811978 6.999372
vertex 10.105124 12.791225 6.979372
endloop
endfacet
facet normal 0 0 0
outer loop
vertex 10.125599 12.791225 6.979372
vertex 10.125599 12.811978 6.999372
vertex 10.146074 12.791225 6.999372
endloop
endfacet
facet normal 0 0 0
outer loop
vertex 10.125599 12.811978 6.999372
vertex 10.146074 12.811978 6.999372
vertex 10.146074 12.791225 6.999372
endloop
endfacet
facet normal 0 0 0
outer loop
vertex 10.105124 12.811978 6.999372
vertex 10.084648 12.811978 6.999372
vertex 10.105124 12.832732 6.999372
endloop
endfacet
facet normal 0 0 0
outer loop
vertex 10.105124 12.832732 6.999372
vertex 10.084648 12.811978 6.999372
vertex 10.084648 12.832732 6.999372
endloop
endfacet
facet normal 0 0 0
outer loop
vertex 10.125599 12.811978 6.999372
vertex 10.105124 12.811978 6.999372
vertex 10.125599 12.832732 6.999372
endloop
endfacet
facet normal 0 0 0
outer loop
vertex 10.125599 12.832732 6.999372
vertex 10.105124 12.811978 6.999372
vertex 10.105124 12.832732 6.999372
endloop
endfacet
facet normal 0 0 0
outer loop
vertex 10.146074 12.811978 6.999372
vertex 10.125599 12.811978 6.999372
vertex 10.146074 12.832732 6.999372
endloop
endfacet
facet normal 0 0 0
outer loop
vertex 10.146074 12.832732 6.999372
vertex 10.125599 12.811978 6.999372
vertex 10.125599 12.832732 6.999372
endloop
endfacet
facet normal 0 0 0
outer loop
vertex 10.105124 12.832732 6.999372
vertex 10.084648 12.832732 6.999372
vertex 10.105124 12.853485 6.999372
endloop
endfacet
facet normal 0 0 0
outer loop
vertex 10.105124 12.853485 6.999372
vertex 10.084648 12.832732 6.999372
vertex 10.084648 12.853485 6.999372
endloop
endfacet
facet normal 0 0 0
outer loop
vertex 10.125599 12.832732 6.999372
vertex 10.105124 12.832732 6.999372
vertex 10.125599 12.853485 6.999372
endloop
endfacet
facet normal 0 0 0
outer loop
vertex 10.125599 12.853485 6.999372
vertex 10.105124 12.832732 6.999372
vertex 10.105124 12.853485 6.999372
endloop
endfacet
facet normal 0 0 0
outer loop
vertex 10.125599 12.853485 6.999372
vertex 10.146074 12.832732 6.999372
vertex 10.125599 12.832732 6.999372
endloop
endfacet
facet normal 0 0 0
outer loop
vertex 10.084648 12.874239 6.999372
vertex 10.105124 12.853485 6.999372
vertex 10.084648 12.853485 6.999372
endloop
endfacet
facet normal 0 0 0
outer loop
vertex 10.105124 12.666705 6.999372
vertex 10.125599 12.645952 6.999372
vertex 10.125599 12.666705 6.999372
endloop
endfacet
facet normal 0 0 0
outer loop
vertex 10.125599 12.645952 6.999372
vertex 10.146074 12.666705 6.999372
vertex 10.125599 12.666705 6.999372
endloop
endfacet
facet normal 0 0 0
outer loop
vertex 10.084648 12.687459 6.999372
vertex 10.105124 12.666705 6.999372
vertex 10.105124 12.687459 6.999372
endloop
endfacet
facet normal 0 0 0
outer loop
vertex 10.125599 12.666705 6.999372
vertex 10.125599 12.687459 6.999372
vertex 10.105124 12.666705 6.999372
endloop
endfacet
facet normal 0 0 0
outer loop
vertex 10.125599 12.687459 6.999372
vertex 10.105124 12.687459 6.999372
vertex 10.105124 12.666705 6.999372
endloop
endfacet
facet normal 0 0 0
outer loop
vertex 10.146074 12.666705 6.999372
vertex 10.146074 12.687459 6.999372
vertex 10.125599 12.666705 6.999372
endloop
endfacet
facet normal 0 0 0
outer loop
vertex 10.146074 12.687459 6.999372
vertex 10.125599 12.687459 6.999372
vertex 10.125599 12.666705 6.999372
endloop
endfacet
facet normal 0 0 0
outer loop
vertex 10.105124 12.708212 6.999372
vertex 10.084648 12.687459 6.999372
vertex 10.105124 12.687459 6.999372
endloop
endfacet
facet normal 0 0 0
outer loop
vertex 10.125599 12.687459 6.999372
vertex 10.125599 12.708212 6.999372
vertex 10.105124 12.687459 6.999372
endloop
endfacet
facet normal 0 0 0
outer loop
vertex 10.125599 12.708212 6.999372
vertex 10.105124 12.708212 6.999372
vertex 10.105124 12.687459 6.999372
endloop
endfacet
facet normal 0 0 0
outer loop
vertex 10.146074 12.687459 6.999372
vertex 10.146074 12.708212 6.999372
vertex 10.125599 12.687459 6.999372
endloop
endfacet
facet normal 0 0 0
outer loop
vertex 10.146074 12.708212 6.999372
vertex 10.125599 12.708212 6.999372
vertex 10.125599 12.687459 6.999372
endloop
endfacet
facet normal 0 0 0
outer loop
vertex 10.084648 12.728966 6.999372
vertex 10.105124 12.708212 6.999372
vertex 10.105124 12.728966 6.999372
endloop
endfacet
facet normal 0 0 0
outer loop
vertex 10.125599 12.708212 6.999372
vertex 10.125599 12.728966 6.999372
vertex 10.105124 12.708212 6.999372
endloop
endfacet
facet normal 0 0 0
outer loop
vertex 10.125599 12.728966 6.999372
vertex 10.105124 12.728966 6.999372
vertex 10.105124 12.708212 6.999372
endloop
endfacet
facet normal 0 0 0
outer loop
vertex 10.146074 12.728966 7.019372
vertex 10.125599 12.728966 6.999372
vertex 10.146074 12.708212 6.999372
endloop
endfacet
facet normal 0 0 0
outer loop
vertex 10.125599 12.728966 6.999372
vertex 10.125599 12.708212 6.999372
vertex 10.146074 12.708212 6.999372
endloop
endfacet
facet normal 0 0 0
outer loop
vertex 10.146074 12.728966 7.019372
vertex 10.146074 12.708212 6.999372
vertex 10.146074 12.728966 6.999372
endloop
endfacet
facet normal 0 0 0
outer loop
vertex 10.105124 12.749719 7.019372
vertex 10.084648 12.749719 6.999372
vertex 10.105124 12.728966 6.999372
endloop
endfacet
facet normal 0 0 0
outer loop
vertex 10.084648 12.749719 6.999372
vertex 10.084648 12.728966 6.999372
vertex 10.105124 12.728966 6.999372
endloop
endfacet
facet normal 0 0 0
outer loop
vertex 10.125599 12.728966 6.999372
vertex 10.105124 12.749719 7.019372
vertex 10.105124 12.728966 6.999372
endloop
endfacet
facet normal 0 0 0
outer loop
vertex 10.125599 12.749719 7.019372
vertex 10.105124 12.749719 7.019372
vertex 10.125599 12.728966 6.999372
endloop
endfacet
facet normal 0 0 0
outer loop
vertex 10.146074 12.728966 7.019372
vertex 10.125599 12.749719 7.019372
vertex 10.125599 12.728966 6.999372
endloop
endfacet
facet normal 0 0 0
outer loop
vertex 10.166552 12.749719 7.019372
vertex 10.146074 12.728966 7.019372
vertex 10.146074 12.749719 6.999372
endloop
endfacet
facet normal 0 0 0
outer loop
vertex 10.146074 12.728966 7.019372
vertex 10.146074 12.728966 6.999372
vertex 10.146074 12.749719 6.999372
endloop
endfacet
facet normal 0 0 0
outer loop
vertex 10.105124 12.770472 7.019372
vertex 10.084648 12.749719 6.999372
vertex 10.105124 12.749719 7.019372
endloop
endfacet
facet normal 0 0 0
outer loop
vertex 10.084648 12.770472 6.999372
vertex 10.084648 12.749719 6.999372
vertex 10.105124 12.770472 7.019372
endloop
endfacet
facet normal 0 0 0
outer loop
vertex 10.166552 12.749719 7.019372
vertex 10.146074 12.770472 6.999372
vertex 10.166552 12.770472 7.019372
endloop
endfacet
facet normal 0 0 0
outer loop
vertex 10.146074 12.749719 6.999372
vertex 10.146074 12.770472 6.999372
vertex 10.166552 12.749719 7.019372
endloop
endfacet
facet normal 0 0 0
outer loop
vertex 10.084648 12.770472 6.999372
vertex 10.084648 12.791225 7.019372
vertex 10.084648 12.791225 6.999372
endloop
endfacet
facet normal 0 0 0
outer loop
vertex 10.105124 12.770472 7.019372
vertex 10.084648 12.791225 7.019372
vertex 10.084648 12.770472 6.999372
endloop
endfacet
facet normal 0 0 0
outer loop
vertex 10.166552 12.770472 7.019372
vertex 10.146074 12.791225 6.999372
vertex 10.166552 12.791225 7.019372
endloop
endfacet
facet normal 0 0 0
outer loop
vertex 10.146074 12.770472 6.999372
vertex 10.146074 12.791225 6.999372
vertex 10.166552 12.770472 7.019372
endloop
endfacet
facet normal 0 0 0
outer loop
vertex 10.084648 12.791225 6.999372
vertex 10.084648 12.791225 7.019372
vertex 10.084648 12.811978 6.999372
endloop
endfacet
facet normal 0 0 0
outer loop
vertex 10.084648 12.791225 7.019372
vertex 10.084648 12.811978 7.019372
vertex 10.084648 12.811978 6.999372
endloop
endfacet
facet normal 0 0 0
outer loop
vertex 10.166552 12.791225 7.019372
vertex 10.146074 12.811978 6.999372
vertex 10.166552 12.811978 7.019372
endloop
endfacet
facet normal 0 0 0
outer loop
vertex 10.146074 12.791225 6.999372
vertex 10.146074 12.811978 6.999372
vertex 10.166552 12.791225 7.019372
endloop
endfacet
facet normal 0 0 0
outer loop
vertex 10.084648 12.811978 6.999372
vertex 10.084648 12.811978 7.019372
vertex 10.084648 12.832732 6.999372
endloop
endfacet
facet normal 0 0 0
outer loop
vertex 10.084648 12.811978 7.019372
vertex 10.084648 12.832732 7.019372
vertex 10.084648 12.832732 6.999372
endloop
endfacet
facet normal 0 0 0
outer loop
vertex 10.166552 12.811978 7.019372
vertex 10.146074 12.832732 6.999372
vertex 10.166552 12.832732 7.019372
endloop
endfacet
facet normal 0 0 0
outer loop
vertex 10.146074 12.811978 6.999372
vertex 10.146074 12.832732 6.999372
vertex 10.166552 12.811978 7.019372
endloop
endfacet
facet normal 0 0 0
outer loop
vertex 10.084648 12.832732 7.019372
vertex 10.084648 12.853485 6.999372
vertex 10.084648 12.832732 6.999372
endloop
endfacet
facet normal 0 0 0
outer loop
vertex 10.084648 12.832732 7.019372
vertex 10.105124 12.853485 7.019372
vertex 10.084648 12.853485 6.999372
endloop
endfacet
facet normal 0 0 0
outer loop
vertex 10.146074 12.832732 6.999372
vertex 10.125599 12.853485 6.999372
vertex 10.146074 12.853485 7.019372
endloop
endfacet
facet normal 0 0 0
outer loop
vertex 10.146074 12.832732 6.999372
vertex 10.146074 12.853485 7.019372
vertex 10.166552 12.832732 7.019372
endloop
endfacet
facet normal 0 0 0
outer loop
vertex 10.146074 12.853485 7.019372
vertex 10.166552 12.853485 7.019372
vertex 10.166552 12.832732 7.019372
endloop
endfacet
facet normal 0 0 0
outer loop
vertex 10.105124 12.874239 7.019372
vertex 10.105124 12.853485 6.999372
vertex 10.105124 12.853485 7.019372
endloop
endfacet
facet normal 0 0 0
outer loop
vertex 10.105124 12.853485 7.019372
vertex 10.105124 12.853485 6.999372
vertex 10.084648 12.853485 6.999372
endloop
endfacet
facet normal 0 0 0
outer loop
vertex 10.105124 12.853485 6.999372
vertex 10.125599 12.874239 7.019372
vertex 10.125599 12.853485 6.999372
endloop
endfacet
facet normal 0 0 0
outer loop
vertex 10.105124 12.874239 7.019372
vertex 10.125599 12.874239 7.019372
vertex 10.105124 12.853485 6.999372
endloop
endfacet
facet normal 0 0 0
outer loop
vertex 10.125599 12.853485 6.999372
vertex 10.125599 12.874239 7.019372
vertex 10.146074 12.853485 7.019372
endloop
endfacet
facet normal 0 0 0
outer loop
vertex 10.125599 12.874239 7.019372
vertex 10.146074 12.874239 7.019372
vertex 10.146074 12.853485 7.019372
endloop
endfacet
facet normal 0 0 0
outer loop
vertex 10.166552 12.874239 7.019372
vertex 10.146074 12.853485 7.019372
vertex 10.146074 12.874239 7.019372
endloop
endfacet
facet normal 0 0 0
outer loop
vertex 10.125599 12.749719 7.019372
vertex 10.146074 12.728966 7.019372
vertex 10.146074 12.749719 7.019372
endloop
endfacet
facet normal 0 0 0
outer loop
vertex 10.146074 12.728966 7.019372
vertex 10.166552 12.749719 7.019372
vertex 10.146074 12.749719 7.019372
endloop
endfacet
facet normal 0 0 0
outer loop
vertex 10.125599 12.749719 7.019372
vertex 10.125599 12.770472 7.019372
vertex 10.105124 12.749719 7.019372
endloop
endfacet
facet normal 0 0 0
outer loop
vertex 10.125599 12.770472 7.019372
vertex 10.105124 12.770472 7.019372
vertex 10.105124 12.749719 7.019372
endloop
endfacet
facet normal 0 0 0
outer loop
vertex 10.146074 12.749719 7.019372
vertex 10.146074 12.770472 7.019372
vertex 10.125599 12.749719 7.019372
endloop
endfacet
facet normal 0 0 0
outer loop
vertex 10.146074 12.770472 7.019372
vertex 10.125599 12.770472 7.019372
vertex 10.125599 12.749719 7.019372
endloop
endfacet
facet normal 0 0 0
outer loop
vertex 10.166552 12.749719 7.019372
vertex 10.166552 12.770472 7.019372
vertex 10.146074 12.749719 7.019372
endloop
endfacet
facet normal 0 0 0
outer loop
vertex 10.166552 12.770472 7.019372
vertex 10.146074 12.770472 7.019372
vertex 10.146074 12.749719 7.019372
endloop
endfacet
facet normal 0 0 0
outer loop
vertex 10.084648 12.791225 7.019372
vertex 10.105124 12.770472 7.019372
vertex 10.105124 12.791225 7.019372
endloop
endfacet
facet normal 0 0 0
outer loop
vertex 10.125599 12.770472 7.019372
vertex 10.125599 12.791225 7.019372
vertex 10.105124 12.770472 7.019372
endloop
endfacet
facet normal 0 0 0
outer loop
vertex 10.125599 12.791225 7.019372
vertex 10.105124 12.791225 7.019372
vertex 10.105124 12.770472 7.019372
endloop
endfacet
facet normal 0 0 0
outer loop
vertex 10.146074 12.770472 7.019372
vertex 10.146074 12.791225 7.019372
vertex 10.125599 12.770472 7.019372
endloop
endfacet
facet normal 0 0 0
outer loop
vertex 10.146074 12.791225 7.019372
vertex 10.125599 12.791225 7.019372
vertex 10.125599 12.770472 7.019372
endloop
endfacet
facet normal 0 0 0
outer loop
vertex 10.166552 12.770472 7.019372
vertex 10.166552 12.791225 7.019372
vertex 10.146074 12.770472 7.019372
endloop
endfacet
facet normal 0 0 0
outer loop
vertex 10.166552 12.791225 7.019372
vertex 10.146074 12.791225 7.019372
vertex 10.146074 12.770472 7.019372
endloop
endfacet
facet normal 0 0 0
outer loop
vertex 10.105124 12.791225 7.019372
vertex 10.105124 12.811978 7.019372
vertex 10.084648 12.791225 7.019372
endloop
endfacet
facet normal 0 0 0
outer loop
vertex 10.105124 12.811978 7.019372
vertex 10.084648 12.811978 7.019372
vertex 10.084648 12.791225 7.019372
endloop
endfacet
facet normal 0 0 0
outer loop
vertex 10.125599 12.791225 7.019372
vertex 10.125599 12.811978 7.019372
vertex 10.105124 12.791225 7.019372
endloop
endfacet
facet normal 0 0 0
outer loop
vertex 10.125599 12.811978 7.019372
vertex 10.105124 12.811978 7.019372
vertex 10.105124 12.791225 7.019372
endloop
endfacet
facet normal 0 0 0
outer loop
vertex 10.146074 12.791225 7.019372
vertex 10.146074 12.811978 7.019372
vertex 10.125599 12.791225 7.019372
endloop
endfacet
facet normal 0 0 0
outer loop
vertex 10.146074 12.811978 7.019372
vertex 10.125599 12.811978 7.019372
vertex 10.125599 12.791225 7.019372
endloop
endfacet
facet normal 0 0 0
outer loop
vertex 10.166552 12.791225 7.019372
vertex 10.166552 12.811978 7.019372
vertex 10.146074 12.791225 7.019372
endloop
endfacet
facet normal 0 0 0
outer loop
vertex 10.166552 12.811978 7.019372
vertex 10.146074 12.811978 7.019372
vertex 10.146074 12.791225 7.019372
endloop
endfacet
facet normal 0 0 0
outer loop
vertex 10.105124 12.811978 7.019372
vertex 10.105124 12.832732 7.019372
vertex 10.084648 12.811978 7.019372
endloop
endfacet
facet normal 0 0 0
outer loop
vertex 10.105124 12.832732 7.019372
vertex 10.084648 12.832732 7.019372
vertex 10.084648 12.811978 7.019372
endloop
endfacet
facet normal 0 0 0
outer loop
vertex 10.125599 12.811978 7.019372
vertex 10.125599 12.832732 7.019372
vertex 10.105124 12.811978 7.019372
endloop
endfacet
facet normal 0 0 0
outer loop
vertex 10.125599 12.832732 7.019372
vertex 10.105124 12.832732 7.019372
vertex 10.105124 12.811978 7.019372
endloop
endfacet
facet normal 0 0 0
outer loop
vertex 10.146074 12.811978 7.019372
vertex 10.146074 12.832732 7.019372
vertex 10.125599 12.811978 7.019372
endloop
endfacet
facet normal 0 0 0
outer loop
vertex 10.146074 12.832732 7.019372
vertex 10.125599 12.832732 7.019372
vertex 10.125599 12.811978 7.019372
endloop
endfacet
facet normal 0 0 0
outer loop
vertex 10.166552 12.811978 7.019372
vertex 10.166552 12.832732 7.019372
vertex 10.146074 12.811978 7.019372
endloop
endfacet
facet normal 0 0 0
outer loop
vertex 10.166552 12.832732 7.019372
vertex 10.146074 12.832732 7.019372
vertex 10.146074 12.811978 7.019372
endloop
endfacet
facet normal 0 0 0
outer loop
vertex 10.105124 12.853485 7.019372
vertex 10.084648 12.832732 7.019372
vertex 10.105124 12.832732 7.019372
endloop
endfacet
facet normal 0 0 0
outer loop
vertex 10.125599 12.832732 7.019372
vertex 10.125599 12.853485 7.019372
vertex 10.105124 12.832732 7.019372
endloop
endfacet
facet normal 0 0 0
outer loop
vertex 10.125599 12.853485 7.019372
vertex 10.105124 12.853485 7.019372
vertex 10.105124 12.832732 7.019372
endloop
endfacet
facet normal 0 0 0
outer loop
vertex 10.146074 12.832732 7.019372
vertex 10.146074 12.853485 7.019372
vertex 10.125599 12.832732 7.019372
endloop
endfacet
facet normal 0 0 0
outer loop
vertex 10.146074 12.853485 7.019372
vertex 10.125599 12.853485 7.019372
vertex 10.125599 12.832732 7.019372
endloop
endfacet
facet normal 0 0 0
outer loop
vertex 10.166552 12.832732 7.019372
vertex 10.166552 12.853485 7.019372
vertex 10.146074 12.832732 7.019372
endloop
endfacet
facet normal 0 0 0
outer loop
vertex 10.166552 12.853485 7.019372
vertex 10.146074 12.853485 7.019372
vertex 10.146074 12.832732 7.019372
endloop
endfacet
facet normal 0 0 0
outer loop
vertex 10.125599 12.853485 7.019372
vertex 10.125599 12.874239 7.019372
vertex 10.105124 12.853485 7.019372
endloop
endfacet
facet normal 0 0 0
outer loop
vertex 10.125599 12.874239 7.019372
vertex 10.105124 12.874239 7.019372
vertex 10.105124 12.853485 7.019372
endloop
endfacet
facet normal 0 0 0
outer loop
vertex 10.146074 12.853485 7.019372
vertex 10.146074 12.874239 7.019372
vertex 10.125599 12.853485 7.019372
endloop
endfacet
facet normal 0 0 0
outer loop
vertex 10.146074 12.874239 7.019372
vertex 10.125599 12.874239 7.019372
vertex 10.125599 12.853485 7.019372
endloop
endfacet
facet normal 0 0 0
outer loop
vertex 10.166552 12.853485 7.019372
vertex 10.166552 12.874239 7.019372
vertex 10.146074 12.853485 7.019372
endloop
endfacet
endsolid B-16-Plag.123
