solid B-16-Plag.041
facet normal 0 0 0
outer loop
vertex 23.373442 12.210133 4.019372
vertex 23.352966 12.230886 4.019372
vertex 23.373442 12.230886 4.019372
endloop
endfacet
facet normal 0 0 0
outer loop
vertex 23.393917 12.210133 4.019372
vertex 23.373442 12.210133 4.019372
vertex 23.393917 12.230886 4.019372
endloop
endfacet
facet normal 0 0 0
outer loop
vertex 23.393917 12.230886 4.019372
vertex 23.373442 12.210133 4.019372
vertex 23.373442 12.230886 4.019372
endloop
endfacet
facet normal 0 0 0
outer loop
vertex 23.414392 12.230886 4.019372
vertex 23.393917 12.210133 4.019372
vertex 23.393917 12.230886 4.019372
endloop
endfacet
facet normal 0 0 0
outer loop
vertex 23.373442 12.230886 4.019372
vertex 23.352966 12.230886 4.019372
vertex 23.373442 12.251638 4.019372
endloop
endfacet
facet normal 0 0 0
outer loop
vertex 23.373442 12.251638 4.019372
vertex 23.352966 12.230886 4.019372
vertex 23.352966 12.251638 4.019372
endloop
endfacet
facet normal 0 0 0
outer loop
vertex 23.393917 12.230886 4.019372
vertex 23.373442 12.230886 4.019372
vertex 23.393917 12.251638 4.019372
endloop
endfacet
facet normal 0 0 0
outer loop
vertex 23.393917 12.251638 4.019372
vertex 23.373442 12.230886 4.019372
vertex 23.373442 12.251638 4.019372
endloop
endfacet
facet normal 0 0 0
outer loop
vertex 23.414392 12.230886 4.019372
vertex 23.393917 12.230886 4.019372
vertex 23.414392 12.251638 4.019372
endloop
endfacet
facet normal 0 0 0
outer loop
vertex 23.414392 12.251638 4.019372
vertex 23.393917 12.230886 4.019372
vertex 23.393917 12.251638 4.019372
endloop
endfacet
facet normal 0 0 0
outer loop
vertex 23.352966 12.251638 4.019372
vertex 23.373442 12.272392 4.019372
vertex 23.373442 12.251638 4.019372
endloop
endfacet
facet normal 0 0 0
outer loop
vertex 23.393917 12.251638 4.019372
vertex 23.373442 12.251638 4.019372
vertex 23.393917 12.272392 4.019372
endloop
endfacet
facet normal 0 0 0
outer loop
vertex 23.393917 12.272392 4.019372
vertex 23.373442 12.251638 4.019372
vertex 23.373442 12.272392 4.019372
endloop
endfacet
facet normal 0 0 0
outer loop
vertex 23.414392 12.251638 4.019372
vertex 23.393917 12.251638 4.019372
vertex 23.414392 12.272392 4.019372
endloop
endfacet
facet normal 0 0 0
outer loop
vertex 23.414392 12.272392 4.019372
vertex 23.393917 12.251638 4.019372
vertex 23.393917 12.272392 4.019372
endloop
endfacet
facet normal 0 0 0
outer loop
vertex 23.393917 12.272392 4.019372
vertex 23.373442 12.272392 4.019372
vertex 23.393917 12.293145 4.019372
endloop
endfacet
facet normal 0 0 0
outer loop
vertex 23.393917 12.293145 4.019372
vertex 23.373442 12.272392 4.019372
vertex 23.373442 12.293145 4.019372
endloop
endfacet
facet normal 0 0 0
outer loop
vertex 23.393917 12.293145 4.019372
vertex 23.414392 12.272392 4.019372
vertex 23.393917 12.272392 4.019372
endloop
endfacet
facet normal 0 0 0
outer loop
vertex 23.352966 12.210133 4.039372
vertex 23.373442 12.210133 4.019372
vertex 23.373442 12.210133 4.039372
endloop
endfacet
facet normal 0 0 0
outer loop
vertex 23.393917 12.210133 4.019372
vertex 23.393917 12.210133 4.039372
vertex 23.373442 12.210133 4.019372
endloop
endfacet
facet normal 0 0 0
outer loop
vertex 23.373442 12.210133 4.019372
vertex 23.393917 12.210133 4.039372
vertex 23.373442 12.210133 4.039372
endloop
endfacet
facet normal 0 0 0
outer loop
vertex 23.393917 12.210133 4.019372
vertex 23.414392 12.210133 4.039372
vertex 23.393917 12.210133 4.039372
endloop
endfacet
facet normal 0 0 0
outer loop
vertex 23.352966 12.210133 4.039372
vertex 23.332489 12.230886 4.039372
vertex 23.352966 12.230886 4.019372
endloop
endfacet
facet normal 0 0 0
outer loop
vertex 23.373442 12.210133 4.019372
vertex 23.352966 12.210133 4.039372
vertex 23.352966 12.230886 4.019372
endloop
endfacet
facet normal 0 0 0
outer loop
vertex 23.393917 12.210133 4.019372
vertex 23.414392 12.230886 4.019372
vertex 23.414392 12.210133 4.039372
endloop
endfacet
facet normal 0 0 0
outer loop
vertex 23.414392 12.210133 4.039372
vertex 23.414392 12.230886 4.019372
vertex 23.414392 12.230886 4.039372
endloop
endfacet
facet normal 0 0 0
outer loop
vertex 23.352966 12.230886 4.019372
vertex 23.332489 12.251638 4.039372
vertex 23.352966 12.251638 4.019372
endloop
endfacet
facet normal 0 0 0
outer loop
vertex 23.332489 12.230886 4.039372
vertex 23.332489 12.251638 4.039372
vertex 23.352966 12.230886 4.019372
endloop
endfacet
facet normal 0 0 0
outer loop
vertex 23.414392 12.230886 4.019372
vertex 23.414392 12.251638 4.019372
vertex 23.414392 12.230886 4.039372
endloop
endfacet
facet normal 0 0 0
outer loop
vertex 23.414392 12.230886 4.039372
vertex 23.414392 12.251638 4.019372
vertex 23.414392 12.251638 4.039372
endloop
endfacet
facet normal 0 0 0
outer loop
vertex 23.352966 12.251638 4.019372
vertex 23.332489 12.251638 4.039372
vertex 23.352966 12.272392 4.039372
endloop
endfacet
facet normal 0 0 0
outer loop
vertex 23.332489 12.251638 4.039372
vertex 23.332489 12.272392 4.039372
vertex 23.352966 12.272392 4.039372
endloop
endfacet
facet normal 0 0 0
outer loop
vertex 23.352966 12.251638 4.019372
vertex 23.352966 12.272392 4.039372
vertex 23.373442 12.272392 4.019372
endloop
endfacet
facet normal 0 0 0
outer loop
vertex 23.414392 12.251638 4.019372
vertex 23.414392 12.272392 4.019372
vertex 23.414392 12.251638 4.039372
endloop
endfacet
facet normal 0 0 0
outer loop
vertex 23.414392 12.251638 4.039372
vertex 23.414392 12.272392 4.019372
vertex 23.414392 12.272392 4.039372
endloop
endfacet
facet normal 0 0 0
outer loop
vertex 23.332489 12.272392 4.039372
vertex 23.312014 12.293145 4.039372
vertex 23.332489 12.293145 4.039372
endloop
endfacet
facet normal 0 0 0
outer loop
vertex 23.352966 12.272392 4.039372
vertex 23.332489 12.272392 4.039372
vertex 23.352966 12.293145 4.039372
endloop
endfacet
facet normal 0 0 0
outer loop
vertex 23.352966 12.293145 4.039372
vertex 23.332489 12.272392 4.039372
vertex 23.332489 12.293145 4.039372
endloop
endfacet
facet normal 0 0 0
outer loop
vertex 23.373442 12.272392 4.019372
vertex 23.352966 12.293145 4.039372
vertex 23.373442 12.293145 4.019372
endloop
endfacet
facet normal 0 0 0
outer loop
vertex 23.352966 12.272392 4.039372
vertex 23.352966 12.293145 4.039372
vertex 23.373442 12.272392 4.019372
endloop
endfacet
facet normal 0 0 0
outer loop
vertex 23.414392 12.272392 4.019372
vertex 23.393917 12.293145 4.039372
vertex 23.414392 12.272392 4.039372
endloop
endfacet
facet normal 0 0 0
outer loop
vertex 23.393917 12.293145 4.019372
vertex 23.393917 12.293145 4.039372
vertex 23.414392 12.272392 4.019372
endloop
endfacet
facet normal 0 0 0
outer loop
vertex 23.312014 12.293145 4.039372
vertex 23.332489 12.313899 4.039372
vertex 23.332489 12.293145 4.039372
endloop
endfacet
facet normal 0 0 0
outer loop
vertex 23.352966 12.293145 4.039372
vertex 23.332489 12.293145 4.039372
vertex 23.352966 12.313899 4.039372
endloop
endfacet
facet normal 0 0 0
outer loop
vertex 23.352966 12.313899 4.039372
vertex 23.332489 12.293145 4.039372
vertex 23.332489 12.313899 4.039372
endloop
endfacet
facet normal 0 0 0
outer loop
vertex 23.373442 12.293145 4.019372
vertex 23.352966 12.293145 4.039372
vertex 23.373442 12.313899 4.039372
endloop
endfacet
facet normal 0 0 0
outer loop
vertex 23.352966 12.293145 4.039372
vertex 23.352966 12.313899 4.039372
vertex 23.373442 12.313899 4.039372
endloop
endfacet
facet normal 0 0 0
outer loop
vertex 23.373442 12.293145 4.019372
vertex 23.393917 12.313899 4.039372
vertex 23.393917 12.293145 4.019372
endloop
endfacet
facet normal 0 0 0
outer loop
vertex 23.373442 12.313899 4.039372
vertex 23.393917 12.313899 4.039372
vertex 23.373442 12.293145 4.019372
endloop
endfacet
facet normal 0 0 0
outer loop
vertex 23.393917 12.293145 4.019372
vertex 23.393917 12.313899 4.039372
vertex 23.393917 12.293145 4.039372
endloop
endfacet
facet normal 0 0 0
outer loop
vertex 23.352966 12.313899 4.039372
vertex 23.332489 12.313899 4.039372
vertex 23.352966 12.334652 4.039372
endloop
endfacet
facet normal 0 0 0
outer loop
vertex 23.352966 12.334652 4.039372
vertex 23.332489 12.313899 4.039372
vertex 23.332489 12.334652 4.039372
endloop
endfacet
facet normal 0 0 0
outer loop
vertex 23.373442 12.313899 4.039372
vertex 23.352966 12.313899 4.039372
vertex 23.373442 12.334652 4.039372
endloop
endfacet
facet normal 0 0 0
outer loop
vertex 23.373442 12.334652 4.039372
vertex 23.352966 12.313899 4.039372
vertex 23.352966 12.334652 4.039372
endloop
endfacet
facet normal 0 0 0
outer loop
vertex 23.393917 12.313899 4.039372
vertex 23.373442 12.313899 4.039372
vertex 23.393917 12.334652 4.039372
endloop
endfacet
facet normal 0 0 0
outer loop
vertex 23.393917 12.334652 4.039372
vertex 23.373442 12.313899 4.039372
vertex 23.373442 12.334652 4.039372
endloop
endfacet
facet normal 0 0 0
outer loop
vertex 23.352966 12.334652 4.039372
vertex 23.332489 12.334652 4.039372
vertex 23.352966 12.355406 4.039372
endloop
endfacet
facet normal 0 0 0
outer loop
vertex 23.352966 12.355406 4.039372
vertex 23.332489 12.334652 4.039372
vertex 23.332489 12.355406 4.039372
endloop
endfacet
facet normal 0 0 0
outer loop
vertex 23.373442 12.334652 4.039372
vertex 23.352966 12.334652 4.039372
vertex 23.373442 12.355406 4.039372
endloop
endfacet
facet normal 0 0 0
outer loop
vertex 23.373442 12.355406 4.039372
vertex 23.352966 12.334652 4.039372
vertex 23.352966 12.355406 4.039372
endloop
endfacet
facet normal 0 0 0
outer loop
vertex 23.373442 12.355406 4.039372
vertex 23.393917 12.334652 4.039372
vertex 23.373442 12.334652 4.039372
endloop
endfacet
facet normal 0 0 0
outer loop
vertex 23.352966 12.355406 4.039372
vertex 23.332489 12.355406 4.039372
vertex 23.352966 12.376159 4.039372
endloop
endfacet
facet normal 0 0 0
outer loop
vertex 23.352966 12.376159 4.039372
vertex 23.332489 12.355406 4.039372
vertex 23.332489 12.376159 4.039372
endloop
endfacet
facet normal 0 0 0
outer loop
vertex 23.373442 12.355406 4.039372
vertex 23.352966 12.355406 4.039372
vertex 23.373442 12.376159 4.039372
endloop
endfacet
facet normal 0 0 0
outer loop
vertex 23.373442 12.376159 4.039372
vertex 23.352966 12.355406 4.039372
vertex 23.352966 12.376159 4.039372
endloop
endfacet
facet normal 0 0 0
outer loop
vertex 23.332489 12.376159 4.039372
vertex 23.352966 12.396913 4.039372
vertex 23.352966 12.376159 4.039372
endloop
endfacet
facet normal 0 0 0
outer loop
vertex 23.352966 12.396913 4.039372
vertex 23.373442 12.376159 4.039372
vertex 23.352966 12.376159 4.039372
endloop
endfacet
facet normal 0 0 0
outer loop
vertex 23.332489 12.210133 4.059372
vertex 23.352966 12.210133 4.039372
vertex 23.352966 12.210133 4.059372
endloop
endfacet
facet normal 0 0 0
outer loop
vertex 23.373442 12.210133 4.039372
vertex 23.373442 12.210133 4.059372
vertex 23.352966 12.210133 4.039372
endloop
endfacet
facet normal 0 0 0
outer loop
vertex 23.352966 12.210133 4.039372
vertex 23.373442 12.210133 4.059372
vertex 23.352966 12.210133 4.059372
endloop
endfacet
facet normal 0 0 0
outer loop
vertex 23.393917 12.189379 4.059372
vertex 23.373442 12.210133 4.059372
vertex 23.393917 12.210133 4.039372
endloop
endfacet
facet normal 0 0 0
outer loop
vertex 23.373442 12.210133 4.059372
vertex 23.373442 12.210133 4.039372
vertex 23.393917 12.210133 4.039372
endloop
endfacet
facet normal 0 0 0
outer loop
vertex 23.393917 12.189379 4.059372
vertex 23.393917 12.210133 4.039372
vertex 23.414392 12.210133 4.059372
endloop
endfacet
facet normal 0 0 0
outer loop
vertex 23.393917 12.210133 4.039372
vertex 23.414392 12.210133 4.039372
vertex 23.414392 12.210133 4.059372
endloop
endfacet
facet normal 0 0 0
outer loop
vertex 23.332489 12.230886 4.039372
vertex 23.332489 12.210133 4.059372
vertex 23.332489 12.230886 4.059372
endloop
endfacet
facet normal 0 0 0
outer loop
vertex 23.352966 12.210133 4.039372
vertex 23.332489 12.210133 4.059372
vertex 23.332489 12.230886 4.039372
endloop
endfacet
facet normal 0 0 0
outer loop
vertex 23.414392 12.210133 4.039372
vertex 23.414392 12.230886 4.039372
vertex 23.414392 12.210133 4.059372
endloop
endfacet
facet normal 0 0 0
outer loop
vertex 23.414392 12.210133 4.059372
vertex 23.414392 12.230886 4.039372
vertex 23.414392 12.230886 4.059372
endloop
endfacet
facet normal 0 0 0
outer loop
vertex 23.332489 12.230886 4.039372
vertex 23.332489 12.230886 4.059372
vertex 23.332489 12.251638 4.039372
endloop
endfacet
facet normal 0 0 0
outer loop
vertex 23.332489 12.230886 4.059372
vertex 23.332489 12.251638 4.059372
vertex 23.332489 12.251638 4.039372
endloop
endfacet
facet normal 0 0 0
outer loop
vertex 23.434868 12.251638 4.059372
vertex 23.414392 12.230886 4.059372
vertex 23.414392 12.251638 4.039372
endloop
endfacet
facet normal 0 0 0
outer loop
vertex 23.414392 12.230886 4.059372
vertex 23.414392 12.230886 4.039372
vertex 23.414392 12.251638 4.039372
endloop
endfacet
facet normal 0 0 0
outer loop
vertex 23.332489 12.251638 4.039372
vertex 23.332489 12.251638 4.059372
vertex 23.332489 12.272392 4.039372
endloop
endfacet
facet normal 0 0 0
outer loop
vertex 23.332489 12.251638 4.059372
vertex 23.332489 12.272392 4.059372
vertex 23.332489 12.272392 4.039372
endloop
endfacet
facet normal 0 0 0
outer loop
vertex 23.434868 12.251638 4.059372
vertex 23.414392 12.272392 4.039372
vertex 23.434868 12.272392 4.059372
endloop
endfacet
facet normal 0 0 0
outer loop
vertex 23.414392 12.251638 4.039372
vertex 23.414392 12.272392 4.039372
vertex 23.434868 12.251638 4.059372
endloop
endfacet
facet normal 0 0 0
outer loop
vertex 23.312014 12.293145 4.039372
vertex 23.332489 12.272392 4.039372
vertex 23.332489 12.293145 4.059372
endloop
endfacet
facet normal 0 0 0
outer loop
vertex 23.332489 12.272392 4.039372
vertex 23.332489 12.272392 4.059372
vertex 23.332489 12.293145 4.059372
endloop
endfacet
facet normal 0 0 0
outer loop
vertex 23.414392 12.272392 4.039372
vertex 23.393917 12.293145 4.039372
vertex 23.414392 12.293145 4.059372
endloop
endfacet
facet normal 0 0 0
outer loop
vertex 23.414392 12.272392 4.039372
vertex 23.414392 12.293145 4.059372
vertex 23.434868 12.272392 4.059372
endloop
endfacet
facet normal 0 0 0
outer loop
vertex 23.414392 12.293145 4.059372
vertex 23.434868 12.293145 4.059372
vertex 23.434868 12.272392 4.059372
endloop
endfacet
facet normal 0 0 0
outer loop
vertex 23.312014 12.293145 4.039372
vertex 23.332489 12.293145 4.059372
vertex 23.332489 12.313899 4.039372
endloop
endfacet
facet normal 0 0 0
outer loop
vertex 23.332489 12.293145 4.059372
vertex 23.332489 12.313899 4.059372
vertex 23.332489 12.313899 4.039372
endloop
endfacet
facet normal 0 0 0
outer loop
vertex 23.414392 12.293145 4.059372
vertex 23.393917 12.313899 4.039372
vertex 23.414392 12.313899 4.059372
endloop
endfacet
facet normal 0 0 0
outer loop
vertex 23.393917 12.293145 4.039372
vertex 23.393917 12.313899 4.039372
vertex 23.414392 12.293145 4.059372
endloop
endfacet
facet normal 0 0 0
outer loop
vertex 23.414392 12.313899 4.059372
vertex 23.434868 12.293145 4.059372
vertex 23.414392 12.293145 4.059372
endloop
endfacet
facet normal 0 0 0
outer loop
vertex 23.332489 12.313899 4.039372
vertex 23.332489 12.313899 4.059372
vertex 23.332489 12.334652 4.039372
endloop
endfacet
facet normal 0 0 0
outer loop
vertex 23.332489 12.313899 4.059372
vertex 23.332489 12.334652 4.059372
vertex 23.332489 12.334652 4.039372
endloop
endfacet
facet normal 0 0 0
outer loop
vertex 23.414392 12.313899 4.059372
vertex 23.393917 12.334652 4.039372
vertex 23.414392 12.334652 4.059372
endloop
endfacet
facet normal 0 0 0
outer loop
vertex 23.393917 12.313899 4.039372
vertex 23.393917 12.334652 4.039372
vertex 23.414392 12.313899 4.059372
endloop
endfacet
facet normal 0 0 0
outer loop
vertex 23.332489 12.334652 4.039372
vertex 23.332489 12.334652 4.059372
vertex 23.332489 12.355406 4.039372
endloop
endfacet
facet normal 0 0 0
outer loop
vertex 23.332489 12.334652 4.059372
vertex 23.332489 12.355406 4.059372
vertex 23.332489 12.355406 4.039372
endloop
endfacet
facet normal 0 0 0
outer loop
vertex 23.393917 12.334652 4.039372
vertex 23.373442 12.355406 4.039372
vertex 23.393917 12.355406 4.059372
endloop
endfacet
facet normal 0 0 0
outer loop
vertex 23.393917 12.334652 4.039372
vertex 23.393917 12.355406 4.059372
vertex 23.414392 12.334652 4.059372
endloop
endfacet
facet normal 0 0 0
outer loop
vertex 23.393917 12.355406 4.059372
vertex 23.414392 12.355406 4.059372
vertex 23.414392 12.334652 4.059372
endloop
endfacet
facet normal 0 0 0
outer loop
vertex 23.332489 12.355406 4.039372
vertex 23.332489 12.355406 4.059372
vertex 23.332489 12.376159 4.039372
endloop
endfacet
facet normal 0 0 0
outer loop
vertex 23.332489 12.355406 4.059372
vertex 23.332489 12.376159 4.059372
vertex 23.332489 12.376159 4.039372
endloop
endfacet
facet normal 0 0 0
outer loop
vertex 23.393917 12.355406 4.059372
vertex 23.373442 12.376159 4.039372
vertex 23.393917 12.376159 4.059372
endloop
endfacet
facet normal 0 0 0
outer loop
vertex 23.373442 12.355406 4.039372
vertex 23.373442 12.376159 4.039372
vertex 23.393917 12.355406 4.059372
endloop
endfacet
facet normal 0 0 0
outer loop
vertex 23.414392 12.355406 4.059372
vertex 23.393917 12.355406 4.059372
vertex 23.414392 12.376159 4.059372
endloop
endfacet
facet normal 0 0 0
outer loop
vertex 23.414392 12.376159 4.059372
vertex 23.393917 12.355406 4.059372
vertex 23.393917 12.376159 4.059372
endloop
endfacet
facet normal 0 0 0
outer loop
vertex 23.332489 12.396913 4.059372
vertex 23.332489 12.376159 4.039372
vertex 23.332489 12.376159 4.059372
endloop
endfacet
facet normal 0 0 0
outer loop
vertex 23.332489 12.376159 4.039372
vertex 23.332489 12.396913 4.059372
vertex 23.352966 12.396913 4.039372
endloop
endfacet
facet normal 0 0 0
outer loop
vertex 23.373442 12.376159 4.039372
vertex 23.352966 12.396913 4.039372
vertex 23.373442 12.396913 4.059372
endloop
endfacet
facet normal 0 0 0
outer loop
vertex 23.373442 12.376159 4.039372
vertex 23.373442 12.396913 4.059372
vertex 23.393917 12.376159 4.059372
endloop
endfacet
facet normal 0 0 0
outer loop
vertex 23.373442 12.396913 4.059372
vertex 23.393917 12.396913 4.059372
vertex 23.393917 12.376159 4.059372
endloop
endfacet
facet normal 0 0 0
outer loop
vertex 23.414392 12.376159 4.059372
vertex 23.393917 12.376159 4.059372
vertex 23.414392 12.396913 4.059372
endloop
endfacet
facet normal 0 0 0
outer loop
vertex 23.414392 12.396913 4.059372
vertex 23.393917 12.376159 4.059372
vertex 23.393917 12.396913 4.059372
endloop
endfacet
facet normal 0 0 0
outer loop
vertex 23.352966 12.396913 4.039372
vertex 23.332489 12.396913 4.059372
vertex 23.352966 12.417665 4.059372
endloop
endfacet
facet normal 0 0 0
outer loop
vertex 23.332489 12.396913 4.059372
vertex 23.332489 12.417665 4.059372
vertex 23.352966 12.417665 4.059372
endloop
endfacet
facet normal 0 0 0
outer loop
vertex 23.352966 12.396913 4.039372
vertex 23.352966 12.417665 4.059372
vertex 23.373442 12.396913 4.059372
endloop
endfacet
facet normal 0 0 0
outer loop
vertex 23.352966 12.417665 4.059372
vertex 23.373442 12.417665 4.059372
vertex 23.373442 12.396913 4.059372
endloop
endfacet
facet normal 0 0 0
outer loop
vertex 23.393917 12.396913 4.059372
vertex 23.373442 12.396913 4.059372
vertex 23.393917 12.417665 4.059372
endloop
endfacet
facet normal 0 0 0
outer loop
vertex 23.393917 12.417665 4.059372
vertex 23.373442 12.396913 4.059372
vertex 23.373442 12.417665 4.059372
endloop
endfacet
facet normal 0 0 0
outer loop
vertex 23.393917 12.417665 4.059372
vertex 23.414392 12.396913 4.059372
vertex 23.393917 12.396913 4.059372
endloop
endfacet
facet normal 0 0 0
outer loop
vertex 23.352966 12.417665 4.059372
vertex 23.332489 12.417665 4.059372
vertex 23.352966 12.438418 4.059372
endloop
endfacet
facet normal 0 0 0
outer loop
vertex 23.352966 12.438418 4.059372
vertex 23.332489 12.417665 4.059372
vertex 23.332489 12.438418 4.059372
endloop
endfacet
facet normal 0 0 0
outer loop
vertex 23.373442 12.417665 4.059372
vertex 23.352966 12.417665 4.059372
vertex 23.373442 12.438418 4.059372
endloop
endfacet
facet normal 0 0 0
outer loop
vertex 23.373442 12.438418 4.059372
vertex 23.352966 12.417665 4.059372
vertex 23.352966 12.438418 4.059372
endloop
endfacet
facet normal 0 0 0
outer loop
vertex 23.393917 12.417665 4.059372
vertex 23.373442 12.417665 4.059372
vertex 23.393917 12.438418 4.059372
endloop
endfacet
facet normal 0 0 0
outer loop
vertex 23.393917 12.438418 4.059372
vertex 23.373442 12.417665 4.059372
vertex 23.373442 12.438418 4.059372
endloop
endfacet
facet normal 0 0 0
outer loop
vertex 23.332489 12.438418 4.059372
vertex 23.352966 12.459172 4.059372
vertex 23.352966 12.438418 4.059372
endloop
endfacet
facet normal 0 0 0
outer loop
vertex 23.373442 12.438418 4.059372
vertex 23.352966 12.438418 4.059372
vertex 23.373442 12.459172 4.059372
endloop
endfacet
facet normal 0 0 0
outer loop
vertex 23.373442 12.459172 4.059372
vertex 23.352966 12.438418 4.059372
vertex 23.352966 12.459172 4.059372
endloop
endfacet
facet normal 0 0 0
outer loop
vertex 23.393917 12.438418 4.059372
vertex 23.373442 12.438418 4.059372
vertex 23.393917 12.459172 4.059372
endloop
endfacet
facet normal 0 0 0
outer loop
vertex 23.393917 12.459172 4.059372
vertex 23.373442 12.438418 4.059372
vertex 23.373442 12.459172 4.059372
endloop
endfacet
facet normal 0 0 0
outer loop
vertex 23.352966 12.459172 4.059372
vertex 23.373442 12.479925 4.059372
vertex 23.373442 12.459172 4.059372
endloop
endfacet
facet normal 0 0 0
outer loop
vertex 23.393917 12.459172 4.059372
vertex 23.373442 12.459172 4.059372
vertex 23.393917 12.479925 4.059372
endloop
endfacet
facet normal 0 0 0
outer loop
vertex 23.393917 12.479925 4.059372
vertex 23.373442 12.459172 4.059372
vertex 23.373442 12.479925 4.059372
endloop
endfacet
facet normal 0 0 0
outer loop
vertex 23.373442 12.189379 4.079372
vertex 23.393917 12.189379 4.059372
vertex 23.393917 12.189379 4.079372
endloop
endfacet
facet normal 0 0 0
outer loop
vertex 23.393917 12.189379 4.059372
vertex 23.414392 12.189379 4.079372
vertex 23.393917 12.189379 4.079372
endloop
endfacet
facet normal 0 0 0
outer loop
vertex 23.352966 12.210133 4.079372
vertex 23.332489 12.210133 4.059372
vertex 23.352966 12.210133 4.059372
endloop
endfacet
facet normal 0 0 0
outer loop
vertex 23.373442 12.189379 4.079372
vertex 23.352966 12.210133 4.079372
vertex 23.373442 12.210133 4.059372
endloop
endfacet
facet normal 0 0 0
outer loop
vertex 23.352966 12.210133 4.079372
vertex 23.352966 12.210133 4.059372
vertex 23.373442 12.210133 4.059372
endloop
endfacet
facet normal 0 0 0
outer loop
vertex 23.393917 12.189379 4.059372
vertex 23.373442 12.189379 4.079372
vertex 23.373442 12.210133 4.059372
endloop
endfacet
facet normal 0 0 0
outer loop
vertex 23.393917 12.189379 4.059372
vertex 23.414392 12.210133 4.059372
vertex 23.414392 12.189379 4.079372
endloop
endfacet
facet normal 0 0 0
outer loop
vertex 23.414392 12.210133 4.059372
vertex 23.434868 12.210133 4.079372
vertex 23.414392 12.189379 4.079372
endloop
endfacet
facet normal 0 0 0
outer loop
vertex 23.352966 12.230886 4.079372
vertex 23.332489 12.210133 4.059372
vertex 23.352966 12.210133 4.079372
endloop
endfacet
facet normal 0 0 0
outer loop
vertex 23.332489 12.230886 4.059372
vertex 23.332489 12.210133 4.059372
vertex 23.352966 12.230886 4.079372
endloop
endfacet
facet normal 0 0 0
outer loop
vertex 23.434868 12.210133 4.079372
vertex 23.414392 12.230886 4.059372
vertex 23.434868 12.230886 4.079372
endloop
endfacet
facet normal 0 0 0
outer loop
vertex 23.414392 12.210133 4.059372
vertex 23.414392 12.230886 4.059372
vertex 23.434868 12.210133 4.079372
endloop
endfacet
facet normal 0 0 0
outer loop
vertex 23.352966 12.251638 4.079372
vertex 23.332489 12.230886 4.059372
vertex 23.352966 12.230886 4.079372
endloop
endfacet
facet normal 0 0 0
outer loop
vertex 23.332489 12.251638 4.059372
vertex 23.332489 12.230886 4.059372
vertex 23.352966 12.251638 4.079372
endloop
endfacet
facet normal 0 0 0
outer loop
vertex 23.414392 12.230886 4.059372
vertex 23.434868 12.251638 4.059372
vertex 23.434868 12.230886 4.079372
endloop
endfacet
facet normal 0 0 0
outer loop
vertex 23.434868 12.230886 4.079372
vertex 23.434868 12.251638 4.059372
vertex 23.434868 12.251638 4.079372
endloop
endfacet
facet normal 0 0 0
outer loop
vertex 23.352966 12.272392 4.079372
vertex 23.332489 12.251638 4.059372
vertex 23.352966 12.251638 4.079372
endloop
endfacet
facet normal 0 0 0
outer loop
vertex 23.332489 12.272392 4.059372
vertex 23.332489 12.251638 4.059372
vertex 23.352966 12.272392 4.079372
endloop
endfacet
facet normal 0 0 0
outer loop
vertex 23.455345 12.272392 4.079372
vertex 23.434868 12.251638 4.079372
vertex 23.434868 12.272392 4.059372
endloop
endfacet
facet normal 0 0 0
outer loop
vertex 23.434868 12.251638 4.079372
vertex 23.434868 12.251638 4.059372
vertex 23.434868 12.272392 4.059372
endloop
endfacet
facet normal 0 0 0
outer loop
vertex 23.332489 12.272392 4.059372
vertex 23.332489 12.293145 4.079372
vertex 23.332489 12.293145 4.059372
endloop
endfacet
facet normal 0 0 0
outer loop
vertex 23.352966 12.272392 4.079372
vertex 23.332489 12.293145 4.079372
vertex 23.332489 12.272392 4.059372
endloop
endfacet
facet normal 0 0 0
outer loop
vertex 23.455345 12.272392 4.079372
vertex 23.434868 12.293145 4.059372
vertex 23.455345 12.293145 4.079372
endloop
endfacet
facet normal 0 0 0
outer loop
vertex 23.434868 12.272392 4.059372
vertex 23.434868 12.293145 4.059372
vertex 23.455345 12.272392 4.079372
endloop
endfacet
facet normal 0 0 0
outer loop
vertex 23.332489 12.293145 4.059372
vertex 23.332489 12.293145 4.079372
vertex 23.332489 12.313899 4.059372
endloop
endfacet
facet normal 0 0 0
outer loop
vertex 23.332489 12.293145 4.079372
vertex 23.332489 12.313899 4.079372
vertex 23.332489 12.313899 4.059372
endloop
endfacet
facet normal 0 0 0
outer loop
vertex 23.434868 12.293145 4.059372
vertex 23.414392 12.313899 4.059372
vertex 23.434868 12.313899 4.079372
endloop
endfacet
facet normal 0 0 0
outer loop
vertex 23.434868 12.293145 4.059372
vertex 23.434868 12.313899 4.079372
vertex 23.455345 12.293145 4.079372
endloop
endfacet
facet normal 0 0 0
outer loop
vertex 23.434868 12.313899 4.079372
vertex 23.455345 12.313899 4.079372
vertex 23.455345 12.293145 4.079372
endloop
endfacet
facet normal 0 0 0
outer loop
vertex 23.332489 12.313899 4.059372
vertex 23.332489 12.313899 4.079372
vertex 23.332489 12.334652 4.059372
endloop
endfacet
facet normal 0 0 0
outer loop
vertex 23.332489 12.313899 4.079372
vertex 23.332489 12.334652 4.079372
vertex 23.332489 12.334652 4.059372
endloop
endfacet
facet normal 0 0 0
outer loop
vertex 23.434868 12.313899 4.079372
vertex 23.414392 12.334652 4.059372
vertex 23.434868 12.334652 4.079372
endloop
endfacet
facet normal 0 0 0
outer loop
vertex 23.414392 12.313899 4.059372
vertex 23.414392 12.334652 4.059372
vertex 23.434868 12.313899 4.079372
endloop
endfacet
facet normal 0 0 0
outer loop
vertex 23.434868 12.334652 4.079372
vertex 23.455345 12.313899 4.079372
vertex 23.434868 12.313899 4.079372
endloop
endfacet
facet normal 0 0 0
outer loop
vertex 23.332489 12.334652 4.059372
vertex 23.332489 12.334652 4.079372
vertex 23.332489 12.355406 4.059372
endloop
endfacet
facet normal 0 0 0
outer loop
vertex 23.332489 12.334652 4.079372
vertex 23.332489 12.355406 4.079372
vertex 23.332489 12.355406 4.059372
endloop
endfacet
facet normal 0 0 0
outer loop
vertex 23.434868 12.334652 4.079372
vertex 23.414392 12.355406 4.059372
vertex 23.434868 12.355406 4.079372
endloop
endfacet
facet normal 0 0 0
outer loop
vertex 23.414392 12.334652 4.059372
vertex 23.414392 12.355406 4.059372
vertex 23.434868 12.334652 4.079372
endloop
endfacet
facet normal 0 0 0
outer loop
vertex 23.332489 12.355406 4.059372
vertex 23.332489 12.355406 4.079372
vertex 23.332489 12.376159 4.059372
endloop
endfacet
facet normal 0 0 0
outer loop
vertex 23.332489 12.355406 4.079372
vertex 23.332489 12.376159 4.079372
vertex 23.332489 12.376159 4.059372
endloop
endfacet
facet normal 0 0 0
outer loop
vertex 23.434868 12.355406 4.079372
vertex 23.414392 12.376159 4.059372
vertex 23.434868 12.376159 4.079372
endloop
endfacet
facet normal 0 0 0
outer loop
vertex 23.414392 12.355406 4.059372
vertex 23.414392 12.376159 4.059372
vertex 23.434868 12.355406 4.079372
endloop
endfacet
facet normal 0 0 0
outer loop
vertex 23.332489 12.376159 4.059372
vertex 23.332489 12.376159 4.079372
vertex 23.332489 12.396913 4.059372
endloop
endfacet
facet normal 0 0 0
outer loop
vertex 23.332489 12.376159 4.079372
vertex 23.332489 12.396913 4.079372
vertex 23.332489 12.396913 4.059372
endloop
endfacet
facet normal 0 0 0
outer loop
vertex 23.434868 12.376159 4.079372
vertex 23.414392 12.396913 4.059372
vertex 23.434868 12.396913 4.079372
endloop
endfacet
facet normal 0 0 0
outer loop
vertex 23.414392 12.376159 4.059372
vertex 23.414392 12.396913 4.059372
vertex 23.434868 12.376159 4.079372
endloop
endfacet
facet normal 0 0 0
outer loop
vertex 23.332489 12.396913 4.059372
vertex 23.332489 12.396913 4.079372
vertex 23.332489 12.417665 4.059372
endloop
endfacet
facet normal 0 0 0
outer loop
vertex 23.332489 12.396913 4.079372
vertex 23.332489 12.417665 4.079372
vertex 23.332489 12.417665 4.059372
endloop
endfacet
facet normal 0 0 0
outer loop
vertex 23.414392 12.396913 4.059372
vertex 23.393917 12.417665 4.059372
vertex 23.414392 12.417665 4.079372
endloop
endfacet
facet normal 0 0 0
outer loop
vertex 23.414392 12.396913 4.059372
vertex 23.414392 12.417665 4.079372
vertex 23.434868 12.396913 4.079372
endloop
endfacet
facet normal 0 0 0
outer loop
vertex 23.414392 12.417665 4.079372
vertex 23.434868 12.417665 4.079372
vertex 23.434868 12.396913 4.079372
endloop
endfacet
facet normal 0 0 0
outer loop
vertex 23.332489 12.417665 4.059372
vertex 23.332489 12.417665 4.079372
vertex 23.332489 12.438418 4.059372
endloop
endfacet
facet normal 0 0 0
outer loop
vertex 23.332489 12.417665 4.079372
vertex 23.332489 12.438418 4.079372
vertex 23.332489 12.438418 4.059372
endloop
endfacet
facet normal 0 0 0
outer loop
vertex 23.414392 12.417665 4.079372
vertex 23.393917 12.438418 4.059372
vertex 23.414392 12.438418 4.079372
endloop
endfacet
facet normal 0 0 0
outer loop
vertex 23.393917 12.417665 4.059372
vertex 23.393917 12.438418 4.059372
vertex 23.414392 12.417665 4.079372
endloop
endfacet
facet normal 0 0 0
outer loop
vertex 23.434868 12.417665 4.079372
vertex 23.414392 12.417665 4.079372
vertex 23.434868 12.438418 4.079372
endloop
endfacet
facet normal 0 0 0
outer loop
vertex 23.434868 12.438418 4.079372
vertex 23.414392 12.417665 4.079372
vertex 23.414392 12.438418 4.079372
endloop
endfacet
facet normal 0 0 0
outer loop
vertex 23.332489 12.459172 4.079372
vertex 23.332489 12.438418 4.059372
vertex 23.332489 12.438418 4.079372
endloop
endfacet
facet normal 0 0 0
outer loop
vertex 23.332489 12.438418 4.059372
vertex 23.332489 12.459172 4.079372
vertex 23.352966 12.459172 4.059372
endloop
endfacet
facet normal 0 0 0
outer loop
vertex 23.414392 12.438418 4.079372
vertex 23.393917 12.459172 4.059372
vertex 23.414392 12.459172 4.079372
endloop
endfacet
facet normal 0 0 0
outer loop
vertex 23.393917 12.438418 4.059372
vertex 23.393917 12.459172 4.059372
vertex 23.414392 12.438418 4.079372
endloop
endfacet
facet normal 0 0 0
outer loop
vertex 23.414392 12.459172 4.079372
vertex 23.434868 12.438418 4.079372
vertex 23.414392 12.438418 4.079372
endloop
endfacet
facet normal 0 0 0
outer loop
vertex 23.352966 12.459172 4.059372
vertex 23.332489 12.459172 4.079372
vertex 23.352966 12.479925 4.079372
endloop
endfacet
facet normal 0 0 0
outer loop
vertex 23.332489 12.459172 4.079372
vertex 23.332489 12.479925 4.079372
vertex 23.352966 12.479925 4.079372
endloop
endfacet
facet normal 0 0 0
outer loop
vertex 23.352966 12.459172 4.059372
vertex 23.352966 12.479925 4.079372
vertex 23.373442 12.479925 4.059372
endloop
endfacet
facet normal 0 0 0
outer loop
vertex 23.414392 12.459172 4.079372
vertex 23.393917 12.459172 4.059372
vertex 23.393917 12.479925 4.079372
endloop
endfacet
facet normal 0 0 0
outer loop
vertex 23.393917 12.459172 4.059372
vertex 23.393917 12.479925 4.059372
vertex 23.393917 12.479925 4.079372
endloop
endfacet
facet normal 0 0 0
outer loop
vertex 23.332489 12.479925 4.079372
vertex 23.352966 12.500679 4.079372
vertex 23.352966 12.479925 4.079372
endloop
endfacet
facet normal 0 0 0
outer loop
vertex 23.373442 12.479925 4.059372
vertex 23.352966 12.479925 4.079372
vertex 23.373442 12.500679 4.079372
endloop
endfacet
facet normal 0 0 0
outer loop
vertex 23.352966 12.479925 4.079372
vertex 23.352966 12.500679 4.079372
vertex 23.373442 12.500679 4.079372
endloop
endfacet
facet normal 0 0 0
outer loop
vertex 23.373442 12.479925 4.059372
vertex 23.393917 12.500679 4.079372
vertex 23.393917 12.479925 4.059372
endloop
endfacet
facet normal 0 0 0
outer loop
vertex 23.373442 12.500679 4.079372
vertex 23.393917 12.500679 4.079372
vertex 23.373442 12.479925 4.059372
endloop
endfacet
facet normal 0 0 0
outer loop
vertex 23.393917 12.479925 4.059372
vertex 23.393917 12.500679 4.079372
vertex 23.393917 12.479925 4.079372
endloop
endfacet
facet normal 0 0 0
outer loop
vertex 23.352966 12.210133 4.079372
vertex 23.373442 12.189379 4.079372
vertex 23.373442 12.210133 4.079372
endloop
endfacet
facet normal 0 0 0
outer loop
vertex 23.393917 12.189379 4.079372
vertex 23.393917 12.210133 4.079372
vertex 23.373442 12.189379 4.079372
endloop
endfacet
facet normal 0 0 0
outer loop
vertex 23.393917 12.210133 4.079372
vertex 23.373442 12.210133 4.079372
vertex 23.373442 12.189379 4.079372
endloop
endfacet
facet normal 0 0 0
outer loop
vertex 23.414392 12.189379 4.079372
vertex 23.414392 12.210133 4.079372
vertex 23.393917 12.189379 4.079372
endloop
endfacet
facet normal 0 0 0
outer loop
vertex 23.414392 12.210133 4.079372
vertex 23.393917 12.210133 4.079372
vertex 23.393917 12.189379 4.079372
endloop
endfacet
facet normal 0 0 0
outer loop
vertex 23.414392 12.189379 4.079372
vertex 23.434868 12.210133 4.079372
vertex 23.414392 12.210133 4.079372
endloop
endfacet
facet normal 0 0 0
outer loop
vertex 23.352966 12.210133 4.079372
vertex 23.352966 12.230886 4.099372
vertex 23.352966 12.230886 4.079372
endloop
endfacet
facet normal 0 0 0
outer loop
vertex 23.373442 12.210133 4.079372
vertex 23.352966 12.230886 4.099372
vertex 23.352966 12.210133 4.079372
endloop
endfacet
facet normal 0 0 0
outer loop
vertex 23.373442 12.230886 4.099372
vertex 23.352966 12.230886 4.099372
vertex 23.373442 12.210133 4.079372
endloop
endfacet
facet normal 0 0 0
outer loop
vertex 23.393917 12.210133 4.079372
vertex 23.373442 12.230886 4.099372
vertex 23.373442 12.210133 4.079372
endloop
endfacet
facet normal 0 0 0
outer loop
vertex 23.393917 12.230886 4.099372
vertex 23.373442 12.230886 4.099372
vertex 23.393917 12.210133 4.079372
endloop
endfacet
facet normal 0 0 0
outer loop
vertex 23.414392 12.210133 4.079372
vertex 23.393917 12.230886 4.099372
vertex 23.393917 12.210133 4.079372
endloop
endfacet
facet normal 0 0 0
outer loop
vertex 23.414392 12.230886 4.099372
vertex 23.393917 12.230886 4.099372
vertex 23.414392 12.210133 4.079372
endloop
endfacet
facet normal 0 0 0
outer loop
vertex 23.414392 12.230886 4.099372
vertex 23.414392 12.210133 4.079372
vertex 23.434868 12.230886 4.079372
endloop
endfacet
facet normal 0 0 0
outer loop
vertex 23.414392 12.210133 4.079372
vertex 23.434868 12.210133 4.079372
vertex 23.434868 12.230886 4.079372
endloop
endfacet
facet normal 0 0 0
outer loop
vertex 23.352966 12.230886 4.079372
vertex 23.352966 12.230886 4.099372
vertex 23.352966 12.251638 4.079372
endloop
endfacet
facet normal 0 0 0
outer loop
vertex 23.352966 12.230886 4.099372
vertex 23.352966 12.251638 4.099372
vertex 23.352966 12.251638 4.079372
endloop
endfacet
facet normal 0 0 0
outer loop
vertex 23.434868 12.230886 4.079372
vertex 23.434868 12.251638 4.099372
vertex 23.414392 12.230886 4.099372
endloop
endfacet
facet normal 0 0 0
outer loop
vertex 23.434868 12.251638 4.099372
vertex 23.434868 12.230886 4.079372
vertex 23.434868 12.251638 4.079372
endloop
endfacet
facet normal 0 0 0
outer loop
vertex 23.332489 12.272392 4.099372
vertex 23.352966 12.272392 4.079372
vertex 23.352966 12.251638 4.099372
endloop
endfacet
facet normal 0 0 0
outer loop
vertex 23.352966 12.272392 4.079372
vertex 23.352966 12.251638 4.079372
vertex 23.352966 12.251638 4.099372
endloop
endfacet
facet normal 0 0 0
outer loop
vertex 23.455345 12.272392 4.079372
vertex 23.434868 12.272392 4.099372
vertex 23.434868 12.251638 4.079372
endloop
endfacet
facet normal 0 0 0
outer loop
vertex 23.434868 12.272392 4.099372
vertex 23.434868 12.251638 4.099372
vertex 23.434868 12.251638 4.079372
endloop
endfacet
facet normal 0 0 0
outer loop
vertex 23.332489 12.272392 4.099372
vertex 23.352966 12.293145 4.099372
vertex 23.352966 12.272392 4.079372
endloop
endfacet
facet normal 0 0 0
outer loop
vertex 23.332489 12.293145 4.079372
vertex 23.352966 12.272392 4.079372
vertex 23.352966 12.293145 4.099372
endloop
endfacet
facet normal 0 0 0
outer loop
vertex 23.455345 12.293145 4.079372
vertex 23.434868 12.272392 4.099372
vertex 23.455345 12.272392 4.079372
endloop
endfacet
facet normal 0 0 0
outer loop
vertex 23.434868 12.293145 4.099372
vertex 23.434868 12.272392 4.099372
vertex 23.455345 12.293145 4.079372
endloop
endfacet
facet normal 0 0 0
outer loop
vertex 23.352966 12.313899 4.099372
vertex 23.332489 12.293145 4.079372
vertex 23.352966 12.293145 4.099372
endloop
endfacet
facet normal 0 0 0
outer loop
vertex 23.332489 12.313899 4.079372
vertex 23.332489 12.293145 4.079372
vertex 23.352966 12.313899 4.099372
endloop
endfacet
facet normal 0 0 0
outer loop
vertex 23.455345 12.313899 4.079372
vertex 23.434868 12.293145 4.099372
vertex 23.455345 12.293145 4.079372
endloop
endfacet
facet normal 0 0 0
outer loop
vertex 23.434868 12.313899 4.099372
vertex 23.434868 12.293145 4.099372
vertex 23.455345 12.313899 4.079372
endloop
endfacet
facet normal 0 0 0
outer loop
vertex 23.352966 12.334652 4.099372
vertex 23.332489 12.313899 4.079372
vertex 23.352966 12.313899 4.099372
endloop
endfacet
facet normal 0 0 0
outer loop
vertex 23.332489 12.334652 4.079372
vertex 23.332489 12.313899 4.079372
vertex 23.352966 12.334652 4.099372
endloop
endfacet
facet normal 0 0 0
outer loop
vertex 23.455345 12.313899 4.079372
vertex 23.434868 12.334652 4.079372
vertex 23.434868 12.313899 4.099372
endloop
endfacet
facet normal 0 0 0
outer loop
vertex 23.434868 12.334652 4.079372
vertex 23.434868 12.334652 4.099372
vertex 23.434868 12.313899 4.099372
endloop
endfacet
facet normal 0 0 0
outer loop
vertex 23.332489 12.334652 4.079372
vertex 23.332489 12.355406 4.099372
vertex 23.332489 12.355406 4.079372
endloop
endfacet
facet normal 0 0 0
outer loop
vertex 23.352966 12.334652 4.099372
vertex 23.332489 12.355406 4.099372
vertex 23.332489 12.334652 4.079372
endloop
endfacet
facet normal 0 0 0
outer loop
vertex 23.434868 12.334652 4.079372
vertex 23.434868 12.355406 4.079372
vertex 23.434868 12.334652 4.099372
endloop
endfacet
facet normal 0 0 0
outer loop
vertex 23.434868 12.334652 4.099372
vertex 23.434868 12.355406 4.079372
vertex 23.434868 12.355406 4.099372
endloop
endfacet
facet normal 0 0 0
outer loop
vertex 23.332489 12.355406 4.079372
vertex 23.332489 12.355406 4.099372
vertex 23.332489 12.376159 4.079372
endloop
endfacet
facet normal 0 0 0
outer loop
vertex 23.332489 12.355406 4.099372
vertex 23.332489 12.376159 4.099372
vertex 23.332489 12.376159 4.079372
endloop
endfacet
facet normal 0 0 0
outer loop
vertex 23.434868 12.355406 4.079372
vertex 23.434868 12.376159 4.079372
vertex 23.434868 12.355406 4.099372
endloop
endfacet
facet normal 0 0 0
outer loop
vertex 23.434868 12.355406 4.099372
vertex 23.434868 12.376159 4.079372
vertex 23.434868 12.376159 4.099372
endloop
endfacet
facet normal 0 0 0
outer loop
vertex 23.332489 12.376159 4.079372
vertex 23.332489 12.376159 4.099372
vertex 23.332489 12.396913 4.079372
endloop
endfacet
facet normal 0 0 0
outer loop
vertex 23.332489 12.376159 4.099372
vertex 23.332489 12.396913 4.099372
vertex 23.332489 12.396913 4.079372
endloop
endfacet
facet normal 0 0 0
outer loop
vertex 23.434868 12.376159 4.079372
vertex 23.434868 12.396913 4.079372
vertex 23.434868 12.376159 4.099372
endloop
endfacet
facet normal 0 0 0
outer loop
vertex 23.434868 12.376159 4.099372
vertex 23.434868 12.396913 4.079372
vertex 23.434868 12.396913 4.099372
endloop
endfacet
facet normal 0 0 0
outer loop
vertex 23.332489 12.396913 4.079372
vertex 23.332489 12.396913 4.099372
vertex 23.332489 12.417665 4.079372
endloop
endfacet
facet normal 0 0 0
outer loop
vertex 23.332489 12.396913 4.099372
vertex 23.332489 12.417665 4.099372
vertex 23.332489 12.417665 4.079372
endloop
endfacet
facet normal 0 0 0
outer loop
vertex 23.434868 12.396913 4.079372
vertex 23.434868 12.417665 4.079372
vertex 23.434868 12.396913 4.099372
endloop
endfacet
facet normal 0 0 0
outer loop
vertex 23.434868 12.396913 4.099372
vertex 23.434868 12.417665 4.079372
vertex 23.434868 12.417665 4.099372
endloop
endfacet
facet normal 0 0 0
outer loop
vertex 23.332489 12.417665 4.079372
vertex 23.332489 12.417665 4.099372
vertex 23.332489 12.438418 4.079372
endloop
endfacet
facet normal 0 0 0
outer loop
vertex 23.332489 12.417665 4.099372
vertex 23.332489 12.438418 4.099372
vertex 23.332489 12.438418 4.079372
endloop
endfacet
facet normal 0 0 0
outer loop
vertex 23.434868 12.417665 4.079372
vertex 23.434868 12.438418 4.079372
vertex 23.434868 12.417665 4.099372
endloop
endfacet
facet normal 0 0 0
outer loop
vertex 23.434868 12.417665 4.099372
vertex 23.434868 12.438418 4.079372
vertex 23.434868 12.438418 4.099372
endloop
endfacet
facet normal 0 0 0
outer loop
vertex 23.332489 12.438418 4.079372
vertex 23.332489 12.438418 4.099372
vertex 23.332489 12.459172 4.079372
endloop
endfacet
facet normal 0 0 0
outer loop
vertex 23.332489 12.438418 4.099372
vertex 23.332489 12.459172 4.099372
vertex 23.332489 12.459172 4.079372
endloop
endfacet
facet normal 0 0 0
outer loop
vertex 23.434868 12.438418 4.079372
vertex 23.414392 12.459172 4.079372
vertex 23.434868 12.459172 4.099372
endloop
endfacet
facet normal 0 0 0
outer loop
vertex 23.434868 12.438418 4.079372
vertex 23.434868 12.459172 4.099372
vertex 23.434868 12.438418 4.099372
endloop
endfacet
facet normal 0 0 0
outer loop
vertex 23.332489 12.459172 4.079372
vertex 23.332489 12.459172 4.099372
vertex 23.332489 12.479925 4.079372
endloop
endfacet
facet normal 0 0 0
outer loop
vertex 23.332489 12.459172 4.099372
vertex 23.332489 12.479925 4.099372
vertex 23.332489 12.479925 4.079372
endloop
endfacet
facet normal 0 0 0
outer loop
vertex 23.414392 12.459172 4.079372
vertex 23.393917 12.479925 4.079372
vertex 23.414392 12.479925 4.099372
endloop
endfacet
facet normal 0 0 0
outer loop
vertex 23.414392 12.459172 4.079372
vertex 23.414392 12.479925 4.099372
vertex 23.434868 12.459172 4.099372
endloop
endfacet
facet normal 0 0 0
outer loop
vertex 23.332489 12.479925 4.099372
vertex 23.352966 12.500679 4.079372
vertex 23.332489 12.479925 4.079372
endloop
endfacet
facet normal 0 0 0
outer loop
vertex 23.352966 12.500679 4.099372
vertex 23.352966 12.500679 4.079372
vertex 23.332489 12.479925 4.099372
endloop
endfacet
facet normal 0 0 0
outer loop
vertex 23.393917 12.500679 4.079372
vertex 23.373442 12.500679 4.099372
vertex 23.393917 12.479925 4.099372
endloop
endfacet
facet normal 0 0 0
outer loop
vertex 23.414392 12.479925 4.099372
vertex 23.393917 12.500679 4.079372
vertex 23.393917 12.479925 4.099372
endloop
endfacet
facet normal 0 0 0
outer loop
vertex 23.414392 12.479925 4.099372
vertex 23.393917 12.479925 4.079372
vertex 23.393917 12.500679 4.079372
endloop
endfacet
facet normal 0 0 0
outer loop
vertex 23.373442 12.500679 4.079372
vertex 23.352966 12.500679 4.079372
vertex 23.373442 12.500679 4.099372
endloop
endfacet
facet normal 0 0 0
outer loop
vertex 23.352966 12.500679 4.079372
vertex 23.352966 12.500679 4.099372
vertex 23.373442 12.500679 4.099372
endloop
endfacet
facet normal 0 0 0
outer loop
vertex 23.373442 12.500679 4.099372
vertex 23.393917 12.500679 4.079372
vertex 23.373442 12.500679 4.079372
endloop
endfacet
facet normal 0 0 0
outer loop
vertex 23.373442 12.230886 4.119372
vertex 23.352966 12.230886 4.099372
vertex 23.373442 12.230886 4.099372
endloop
endfacet
facet normal 0 0 0
outer loop
vertex 23.393917 12.230886 4.099372
vertex 23.393917 12.230886 4.119372
vertex 23.373442 12.230886 4.099372
endloop
endfacet
facet normal 0 0 0
outer loop
vertex 23.373442 12.230886 4.099372
vertex 23.393917 12.230886 4.119372
vertex 23.373442 12.230886 4.119372
endloop
endfacet
facet normal 0 0 0
outer loop
vertex 23.414392 12.230886 4.099372
vertex 23.414392 12.230886 4.119372
vertex 23.393917 12.230886 4.099372
endloop
endfacet
facet normal 0 0 0
outer loop
vertex 23.393917 12.230886 4.099372
vertex 23.414392 12.230886 4.119372
vertex 23.393917 12.230886 4.119372
endloop
endfacet
facet normal 0 0 0
outer loop
vertex 23.373442 12.251638 4.119372
vertex 23.352966 12.230886 4.099372
vertex 23.373442 12.230886 4.119372
endloop
endfacet
facet normal 0 0 0
outer loop
vertex 23.352966 12.251638 4.099372
vertex 23.352966 12.230886 4.099372
vertex 23.373442 12.251638 4.119372
endloop
endfacet
facet normal 0 0 0
outer loop
vertex 23.414392 12.230886 4.099372
vertex 23.434868 12.251638 4.119372
vertex 23.414392 12.230886 4.119372
endloop
endfacet
facet normal 0 0 0
outer loop
vertex 23.434868 12.251638 4.099372
vertex 23.434868 12.251638 4.119372
vertex 23.414392 12.230886 4.099372
endloop
endfacet
facet normal 0 0 0
outer loop
vertex 23.352966 12.251638 4.099372
vertex 23.352966 12.272392 4.119372
vertex 23.332489 12.272392 4.099372
endloop
endfacet
facet normal 0 0 0
outer loop
vertex 23.373442 12.251638 4.119372
vertex 23.352966 12.272392 4.119372
vertex 23.352966 12.251638 4.099372
endloop
endfacet
facet normal 0 0 0
outer loop
vertex 23.434868 12.251638 4.099372
vertex 23.434868 12.272392 4.099372
vertex 23.434868 12.251638 4.119372
endloop
endfacet
facet normal 0 0 0
outer loop
vertex 23.434868 12.251638 4.119372
vertex 23.434868 12.272392 4.099372
vertex 23.434868 12.272392 4.119372
endloop
endfacet
facet normal 0 0 0
outer loop
vertex 23.332489 12.272392 4.099372
vertex 23.352966 12.272392 4.119372
vertex 23.352966 12.293145 4.099372
endloop
endfacet
facet normal 0 0 0
outer loop
vertex 23.352966 12.272392 4.119372
vertex 23.352966 12.293145 4.119372
vertex 23.352966 12.293145 4.099372
endloop
endfacet
facet normal 0 0 0
outer loop
vertex 23.434868 12.293145 4.099372
vertex 23.414392 12.293145 4.119372
vertex 23.434868 12.272392 4.119372
endloop
endfacet
facet normal 0 0 0
outer loop
vertex 23.434868 12.293145 4.099372
vertex 23.434868 12.272392 4.119372
vertex 23.434868 12.272392 4.099372
endloop
endfacet
facet normal 0 0 0
outer loop
vertex 23.352966 12.293145 4.099372
vertex 23.352966 12.293145 4.119372
vertex 23.352966 12.313899 4.099372
endloop
endfacet
facet normal 0 0 0
outer loop
vertex 23.352966 12.293145 4.119372
vertex 23.352966 12.313899 4.119372
vertex 23.352966 12.313899 4.099372
endloop
endfacet
facet normal 0 0 0
outer loop
vertex 23.434868 12.293145 4.099372
vertex 23.434868 12.313899 4.119372
vertex 23.414392 12.293145 4.119372
endloop
endfacet
facet normal 0 0 0
outer loop
vertex 23.434868 12.313899 4.119372
vertex 23.434868 12.293145 4.099372
vertex 23.434868 12.313899 4.099372
endloop
endfacet
facet normal 0 0 0
outer loop
vertex 23.352966 12.313899 4.099372
vertex 23.352966 12.313899 4.119372
vertex 23.352966 12.334652 4.099372
endloop
endfacet
facet normal 0 0 0
outer loop
vertex 23.352966 12.313899 4.119372
vertex 23.352966 12.334652 4.119372
vertex 23.352966 12.334652 4.099372
endloop
endfacet
facet normal 0 0 0
outer loop
vertex 23.434868 12.313899 4.099372
vertex 23.434868 12.334652 4.099372
vertex 23.434868 12.313899 4.119372
endloop
endfacet
facet normal 0 0 0
outer loop
vertex 23.434868 12.313899 4.119372
vertex 23.434868 12.334652 4.099372
vertex 23.434868 12.334652 4.119372
endloop
endfacet
facet normal 0 0 0
outer loop
vertex 23.332489 12.355406 4.099372
vertex 23.352966 12.334652 4.099372
vertex 23.352966 12.355406 4.119372
endloop
endfacet
facet normal 0 0 0
outer loop
vertex 23.352966 12.334652 4.099372
vertex 23.352966 12.334652 4.119372
vertex 23.352966 12.355406 4.119372
endloop
endfacet
facet normal 0 0 0
outer loop
vertex 23.434868 12.334652 4.099372
vertex 23.434868 12.355406 4.099372
vertex 23.434868 12.334652 4.119372
endloop
endfacet
facet normal 0 0 0
outer loop
vertex 23.434868 12.334652 4.119372
vertex 23.434868 12.355406 4.099372
vertex 23.434868 12.355406 4.119372
endloop
endfacet
facet normal 0 0 0
outer loop
vertex 23.352966 12.376159 4.119372
vertex 23.332489 12.355406 4.099372
vertex 23.352966 12.355406 4.119372
endloop
endfacet
facet normal 0 0 0
outer loop
vertex 23.332489 12.376159 4.099372
vertex 23.332489 12.355406 4.099372
vertex 23.352966 12.376159 4.119372
endloop
endfacet
facet normal 0 0 0
outer loop
vertex 23.434868 12.355406 4.099372
vertex 23.434868 12.376159 4.099372
vertex 23.434868 12.355406 4.119372
endloop
endfacet
facet normal 0 0 0
outer loop
vertex 23.434868 12.355406 4.119372
vertex 23.434868 12.376159 4.099372
vertex 23.434868 12.376159 4.119372
endloop
endfacet
facet normal 0 0 0
outer loop
vertex 23.352966 12.396913 4.119372
vertex 23.332489 12.376159 4.099372
vertex 23.352966 12.376159 4.119372
endloop
endfacet
facet normal 0 0 0
outer loop
vertex 23.332489 12.396913 4.099372
vertex 23.332489 12.376159 4.099372
vertex 23.352966 12.396913 4.119372
endloop
endfacet
facet normal 0 0 0
outer loop
vertex 23.434868 12.376159 4.099372
vertex 23.434868 12.396913 4.099372
vertex 23.434868 12.376159 4.119372
endloop
endfacet
facet normal 0 0 0
outer loop
vertex 23.434868 12.376159 4.119372
vertex 23.434868 12.396913 4.099372
vertex 23.434868 12.396913 4.119372
endloop
endfacet
facet normal 0 0 0
outer loop
vertex 23.352966 12.417665 4.119372
vertex 23.332489 12.396913 4.099372
vertex 23.352966 12.396913 4.119372
endloop
endfacet
facet normal 0 0 0
outer loop
vertex 23.332489 12.417665 4.099372
vertex 23.332489 12.396913 4.099372
vertex 23.352966 12.417665 4.119372
endloop
endfacet
facet normal 0 0 0
outer loop
vertex 23.434868 12.396913 4.099372
vertex 23.434868 12.417665 4.099372
vertex 23.434868 12.396913 4.119372
endloop
endfacet
facet normal 0 0 0
outer loop
vertex 23.434868 12.396913 4.119372
vertex 23.434868 12.417665 4.099372
vertex 23.434868 12.417665 4.119372
endloop
endfacet
facet normal 0 0 0
outer loop
vertex 23.332489 12.417665 4.099372
vertex 23.332489 12.438418 4.119372
vertex 23.332489 12.438418 4.099372
endloop
endfacet
facet normal 0 0 0
outer loop
vertex 23.352966 12.417665 4.119372
vertex 23.332489 12.438418 4.119372
vertex 23.332489 12.417665 4.099372
endloop
endfacet
facet normal 0 0 0
outer loop
vertex 23.434868 12.417665 4.099372
vertex 23.434868 12.438418 4.099372
vertex 23.434868 12.417665 4.119372
endloop
endfacet
facet normal 0 0 0
outer loop
vertex 23.434868 12.417665 4.119372
vertex 23.434868 12.438418 4.099372
vertex 23.434868 12.438418 4.119372
endloop
endfacet
facet normal 0 0 0
outer loop
vertex 23.332489 12.438418 4.099372
vertex 23.332489 12.438418 4.119372
vertex 23.332489 12.459172 4.099372
endloop
endfacet
facet normal 0 0 0
outer loop
vertex 23.332489 12.438418 4.119372
vertex 23.332489 12.459172 4.119372
vertex 23.332489 12.459172 4.099372
endloop
endfacet
facet normal 0 0 0
outer loop
vertex 23.434868 12.438418 4.099372
vertex 23.434868 12.459172 4.099372
vertex 23.434868 12.438418 4.119372
endloop
endfacet
facet normal 0 0 0
outer loop
vertex 23.434868 12.438418 4.119372
vertex 23.434868 12.459172 4.099372
vertex 23.434868 12.459172 4.119372
endloop
endfacet
facet normal 0 0 0
outer loop
vertex 23.332489 12.459172 4.099372
vertex 23.332489 12.459172 4.119372
vertex 23.332489 12.479925 4.099372
endloop
endfacet
facet normal 0 0 0
outer loop
vertex 23.332489 12.459172 4.119372
vertex 23.332489 12.479925 4.119372
vertex 23.332489 12.479925 4.099372
endloop
endfacet
facet normal 0 0 0
outer loop
vertex 23.434868 12.459172 4.099372
vertex 23.414392 12.479925 4.119372
vertex 23.434868 12.459172 4.119372
endloop
endfacet
facet normal 0 0 0
outer loop
vertex 23.414392 12.479925 4.099372
vertex 23.414392 12.479925 4.119372
vertex 23.434868 12.459172 4.099372
endloop
endfacet
facet normal 0 0 0
outer loop
vertex 23.332489 12.500679 4.119372
vertex 23.332489 12.479925 4.099372
vertex 23.332489 12.479925 4.119372
endloop
endfacet
facet normal 0 0 0
outer loop
vertex 23.332489 12.479925 4.099372
vertex 23.332489 12.500679 4.119372
vertex 23.352966 12.500679 4.099372
endloop
endfacet
facet normal 0 0 0
outer loop
vertex 23.393917 12.479925 4.099372
vertex 23.373442 12.500679 4.119372
vertex 23.393917 12.479925 4.119372
endloop
endfacet
facet normal 0 0 0
outer loop
vertex 23.373442 12.500679 4.099372
vertex 23.373442 12.500679 4.119372
vertex 23.393917 12.479925 4.099372
endloop
endfacet
facet normal 0 0 0
outer loop
vertex 23.414392 12.479925 4.099372
vertex 23.393917 12.479925 4.099372
vertex 23.414392 12.479925 4.119372
endloop
endfacet
facet normal 0 0 0
outer loop
vertex 23.393917 12.479925 4.099372
vertex 23.393917 12.479925 4.119372
vertex 23.414392 12.479925 4.119372
endloop
endfacet
facet normal 0 0 0
outer loop
vertex 23.352966 12.500679 4.099372
vertex 23.332489 12.500679 4.119372
vertex 23.352966 12.500679 4.119372
endloop
endfacet
facet normal 0 0 0
outer loop
vertex 23.373442 12.521432 4.119372
vertex 23.373442 12.500679 4.099372
vertex 23.352966 12.500679 4.119372
endloop
endfacet
facet normal 0 0 0
outer loop
vertex 23.373442 12.500679 4.099372
vertex 23.352966 12.500679 4.099372
vertex 23.352966 12.500679 4.119372
endloop
endfacet
facet normal 0 0 0
outer loop
vertex 23.373442 12.500679 4.099372
vertex 23.373442 12.521432 4.119372
vertex 23.373442 12.500679 4.119372
endloop
endfacet
facet normal 0 0 0
outer loop
vertex 23.393917 12.230886 4.119372
vertex 23.393917 12.251638 4.119372
vertex 23.373442 12.230886 4.119372
endloop
endfacet
facet normal 0 0 0
outer loop
vertex 23.393917 12.251638 4.119372
vertex 23.373442 12.251638 4.119372
vertex 23.373442 12.230886 4.119372
endloop
endfacet
facet normal 0 0 0
outer loop
vertex 23.414392 12.230886 4.119372
vertex 23.414392 12.251638 4.119372
vertex 23.393917 12.230886 4.119372
endloop
endfacet
facet normal 0 0 0
outer loop
vertex 23.414392 12.251638 4.119372
vertex 23.393917 12.251638 4.119372
vertex 23.393917 12.230886 4.119372
endloop
endfacet
facet normal 0 0 0
outer loop
vertex 23.414392 12.230886 4.119372
vertex 23.434868 12.251638 4.119372
vertex 23.414392 12.251638 4.119372
endloop
endfacet
facet normal 0 0 0
outer loop
vertex 23.352966 12.272392 4.119372
vertex 23.373442 12.251638 4.119372
vertex 23.373442 12.272392 4.119372
endloop
endfacet
facet normal 0 0 0
outer loop
vertex 23.393917 12.251638 4.119372
vertex 23.393917 12.272392 4.119372
vertex 23.373442 12.251638 4.119372
endloop
endfacet
facet normal 0 0 0
outer loop
vertex 23.393917 12.272392 4.119372
vertex 23.373442 12.272392 4.119372
vertex 23.373442 12.251638 4.119372
endloop
endfacet
facet normal 0 0 0
outer loop
vertex 23.414392 12.251638 4.119372
vertex 23.414392 12.272392 4.119372
vertex 23.393917 12.251638 4.119372
endloop
endfacet
facet normal 0 0 0
outer loop
vertex 23.414392 12.272392 4.119372
vertex 23.393917 12.272392 4.119372
vertex 23.393917 12.251638 4.119372
endloop
endfacet
facet normal 0 0 0
outer loop
vertex 23.434868 12.251638 4.119372
vertex 23.434868 12.272392 4.119372
vertex 23.414392 12.251638 4.119372
endloop
endfacet
facet normal 0 0 0
outer loop
vertex 23.434868 12.272392 4.119372
vertex 23.414392 12.272392 4.119372
vertex 23.414392 12.251638 4.119372
endloop
endfacet
facet normal 0 0 0
outer loop
vertex 23.373442 12.272392 4.119372
vertex 23.373442 12.293145 4.119372
vertex 23.352966 12.272392 4.119372
endloop
endfacet
facet normal 0 0 0
outer loop
vertex 23.373442 12.293145 4.119372
vertex 23.352966 12.293145 4.119372
vertex 23.352966 12.272392 4.119372
endloop
endfacet
facet normal 0 0 0
outer loop
vertex 23.393917 12.272392 4.119372
vertex 23.393917 12.293145 4.119372
vertex 23.373442 12.272392 4.119372
endloop
endfacet
facet normal 0 0 0
outer loop
vertex 23.393917 12.293145 4.119372
vertex 23.373442 12.293145 4.119372
vertex 23.373442 12.272392 4.119372
endloop
endfacet
facet normal 0 0 0
outer loop
vertex 23.414392 12.272392 4.119372
vertex 23.414392 12.293145 4.119372
vertex 23.393917 12.272392 4.119372
endloop
endfacet
facet normal 0 0 0
outer loop
vertex 23.414392 12.293145 4.119372
vertex 23.393917 12.293145 4.119372
vertex 23.393917 12.272392 4.119372
endloop
endfacet
facet normal 0 0 0
outer loop
vertex 23.434868 12.272392 4.119372
vertex 23.414392 12.293145 4.119372
vertex 23.414392 12.272392 4.119372
endloop
endfacet
facet normal 0 0 0
outer loop
vertex 23.373442 12.313899 4.139372
vertex 23.352966 12.313899 4.119372
vertex 23.373442 12.293145 4.119372
endloop
endfacet
facet normal 0 0 0
outer loop
vertex 23.352966 12.313899 4.119372
vertex 23.352966 12.293145 4.119372
vertex 23.373442 12.293145 4.119372
endloop
endfacet
facet normal 0 0 0
outer loop
vertex 23.393917 12.293145 4.119372
vertex 23.373442 12.313899 4.139372
vertex 23.373442 12.293145 4.119372
endloop
endfacet
facet normal 0 0 0
outer loop
vertex 23.393917 12.313899 4.139372
vertex 23.373442 12.313899 4.139372
vertex 23.393917 12.293145 4.119372
endloop
endfacet
facet normal 0 0 0
outer loop
vertex 23.393917 12.313899 4.139372
vertex 23.393917 12.293145 4.119372
vertex 23.414392 12.313899 4.119372
endloop
endfacet
facet normal 0 0 0
outer loop
vertex 23.393917 12.293145 4.119372
vertex 23.414392 12.293145 4.119372
vertex 23.414392 12.313899 4.119372
endloop
endfacet
facet normal 0 0 0
outer loop
vertex 23.414392 12.293145 4.119372
vertex 23.434868 12.313899 4.119372
vertex 23.414392 12.313899 4.119372
endloop
endfacet
facet normal 0 0 0
outer loop
vertex 23.352966 12.313899 4.119372
vertex 23.352966 12.334652 4.139372
vertex 23.352966 12.334652 4.119372
endloop
endfacet
facet normal 0 0 0
outer loop
vertex 23.373442 12.313899 4.139372
vertex 23.352966 12.334652 4.139372
vertex 23.352966 12.313899 4.119372
endloop
endfacet
facet normal 0 0 0
outer loop
vertex 23.414392 12.313899 4.119372
vertex 23.414392 12.334652 4.139372
vertex 23.393917 12.313899 4.139372
endloop
endfacet
facet normal 0 0 0
outer loop
vertex 23.414392 12.334652 4.139372
vertex 23.414392 12.313899 4.119372
vertex 23.434868 12.334652 4.119372
endloop
endfacet
facet normal 0 0 0
outer loop
vertex 23.414392 12.313899 4.119372
vertex 23.434868 12.313899 4.119372
vertex 23.434868 12.334652 4.119372
endloop
endfacet
facet normal 0 0 0
outer loop
vertex 23.352966 12.334652 4.119372
vertex 23.352966 12.334652 4.139372
vertex 23.352966 12.355406 4.119372
endloop
endfacet
facet normal 0 0 0
outer loop
vertex 23.352966 12.334652 4.139372
vertex 23.352966 12.355406 4.139372
vertex 23.352966 12.355406 4.119372
endloop
endfacet
facet normal 0 0 0
outer loop
vertex 23.434868 12.355406 4.119372
vertex 23.414392 12.334652 4.139372
vertex 23.434868 12.334652 4.119372
endloop
endfacet
facet normal 0 0 0
outer loop
vertex 23.414392 12.355406 4.139372
vertex 23.414392 12.334652 4.139372
vertex 23.434868 12.355406 4.119372
endloop
endfacet
facet normal 0 0 0
outer loop
vertex 23.352966 12.355406 4.119372
vertex 23.352966 12.355406 4.139372
vertex 23.352966 12.376159 4.119372
endloop
endfacet
facet normal 0 0 0
outer loop
vertex 23.352966 12.355406 4.139372
vertex 23.352966 12.376159 4.139372
vertex 23.352966 12.376159 4.119372
endloop
endfacet
facet normal 0 0 0
outer loop
vertex 23.434868 12.355406 4.119372
vertex 23.434868 12.376159 4.139372
vertex 23.414392 12.355406 4.139372
endloop
endfacet
facet normal 0 0 0
outer loop
vertex 23.434868 12.376159 4.139372
vertex 23.434868 12.355406 4.119372
vertex 23.434868 12.376159 4.119372
endloop
endfacet
facet normal 0 0 0
outer loop
vertex 23.352966 12.376159 4.119372
vertex 23.352966 12.376159 4.139372
vertex 23.352966 12.396913 4.119372
endloop
endfacet
facet normal 0 0 0
outer loop
vertex 23.352966 12.376159 4.139372
vertex 23.352966 12.396913 4.139372
vertex 23.352966 12.396913 4.119372
endloop
endfacet
facet normal 0 0 0
outer loop
vertex 23.434868 12.376159 4.119372
vertex 23.434868 12.396913 4.119372
vertex 23.434868 12.376159 4.139372
endloop
endfacet
facet normal 0 0 0
outer loop
vertex 23.434868 12.376159 4.139372
vertex 23.434868 12.396913 4.119372
vertex 23.434868 12.396913 4.139372
endloop
endfacet
facet normal 0 0 0
outer loop
vertex 23.352966 12.396913 4.119372
vertex 23.352966 12.396913 4.139372
vertex 23.352966 12.417665 4.119372
endloop
endfacet
facet normal 0 0 0
outer loop
vertex 23.352966 12.396913 4.139372
vertex 23.352966 12.417665 4.139372
vertex 23.352966 12.417665 4.119372
endloop
endfacet
facet normal 0 0 0
outer loop
vertex 23.434868 12.396913 4.119372
vertex 23.434868 12.417665 4.119372
vertex 23.434868 12.396913 4.139372
endloop
endfacet
facet normal 0 0 0
outer loop
vertex 23.434868 12.396913 4.139372
vertex 23.434868 12.417665 4.119372
vertex 23.434868 12.417665 4.139372
endloop
endfacet
facet normal 0 0 0
outer loop
vertex 23.332489 12.438418 4.119372
vertex 23.352966 12.417665 4.119372
vertex 23.352966 12.438418 4.139372
endloop
endfacet
facet normal 0 0 0
outer loop
vertex 23.352966 12.417665 4.119372
vertex 23.352966 12.417665 4.139372
vertex 23.352966 12.438418 4.139372
endloop
endfacet
facet normal 0 0 0
outer loop
vertex 23.434868 12.417665 4.119372
vertex 23.434868 12.438418 4.119372
vertex 23.434868 12.417665 4.139372
endloop
endfacet
facet normal 0 0 0
outer loop
vertex 23.434868 12.417665 4.139372
vertex 23.434868 12.438418 4.119372
vertex 23.434868 12.438418 4.139372
endloop
endfacet
facet normal 0 0 0
outer loop
vertex 23.352966 12.459172 4.139372
vertex 23.332489 12.438418 4.119372
vertex 23.352966 12.438418 4.139372
endloop
endfacet
facet normal 0 0 0
outer loop
vertex 23.332489 12.459172 4.119372
vertex 23.332489 12.438418 4.119372
vertex 23.352966 12.459172 4.139372
endloop
endfacet
facet normal 0 0 0
outer loop
vertex 23.434868 12.438418 4.119372
vertex 23.434868 12.459172 4.119372
vertex 23.434868 12.438418 4.139372
endloop
endfacet
facet normal 0 0 0
outer loop
vertex 23.434868 12.438418 4.139372
vertex 23.434868 12.459172 4.119372
vertex 23.434868 12.459172 4.139372
endloop
endfacet
facet normal 0 0 0
outer loop
vertex 23.352966 12.479925 4.139372
vertex 23.332489 12.459172 4.119372
vertex 23.352966 12.459172 4.139372
endloop
endfacet
facet normal 0 0 0
outer loop
vertex 23.332489 12.479925 4.119372
vertex 23.332489 12.459172 4.119372
vertex 23.352966 12.479925 4.139372
endloop
endfacet
facet normal 0 0 0
outer loop
vertex 23.434868 12.459172 4.119372
vertex 23.414392 12.479925 4.119372
vertex 23.434868 12.479925 4.139372
endloop
endfacet
facet normal 0 0 0
outer loop
vertex 23.434868 12.459172 4.119372
vertex 23.434868 12.479925 4.139372
vertex 23.434868 12.459172 4.139372
endloop
endfacet
facet normal 0 0 0
outer loop
vertex 23.352966 12.500679 4.139372
vertex 23.332489 12.479925 4.119372
vertex 23.352966 12.479925 4.139372
endloop
endfacet
facet normal 0 0 0
outer loop
vertex 23.332489 12.500679 4.119372
vertex 23.332489 12.479925 4.119372
vertex 23.352966 12.500679 4.139372
endloop
endfacet
facet normal 0 0 0
outer loop
vertex 23.393917 12.479925 4.119372
vertex 23.373442 12.500679 4.119372
vertex 23.393917 12.500679 4.139372
endloop
endfacet
facet normal 0 0 0
outer loop
vertex 23.393917 12.479925 4.119372
vertex 23.414392 12.500679 4.139372
vertex 23.414392 12.479925 4.119372
endloop
endfacet
facet normal 0 0 0
outer loop
vertex 23.393917 12.500679 4.139372
vertex 23.414392 12.500679 4.139372
vertex 23.393917 12.479925 4.119372
endloop
endfacet
facet normal 0 0 0
outer loop
vertex 23.414392 12.479925 4.119372
vertex 23.414392 12.500679 4.139372
vertex 23.434868 12.479925 4.139372
endloop
endfacet
facet normal 0 0 0
outer loop
vertex 23.332489 12.500679 4.119372
vertex 23.352966 12.500679 4.139372
vertex 23.352966 12.500679 4.119372
endloop
endfacet
facet normal 0 0 0
outer loop
vertex 23.373442 12.521432 4.119372
vertex 23.352966 12.500679 4.119372
vertex 23.373442 12.500679 4.139372
endloop
endfacet
facet normal 0 0 0
outer loop
vertex 23.352966 12.500679 4.119372
vertex 23.352966 12.500679 4.139372
vertex 23.373442 12.500679 4.139372
endloop
endfacet
facet normal 0 0 0
outer loop
vertex 23.373442 12.521432 4.119372
vertex 23.373442 12.500679 4.139372
vertex 23.373442 12.500679 4.119372
endloop
endfacet
facet normal 0 0 0
outer loop
vertex 23.373442 12.500679 4.119372
vertex 23.373442 12.500679 4.139372
vertex 23.393917 12.500679 4.139372
endloop
endfacet
facet normal 0 0 0
outer loop
vertex 23.393917 12.500679 4.139372
vertex 23.373442 12.500679 4.139372
vertex 23.393917 12.521432 4.139372
endloop
endfacet
facet normal 0 0 0
outer loop
vertex 23.393917 12.521432 4.139372
vertex 23.414392 12.500679 4.139372
vertex 23.393917 12.500679 4.139372
endloop
endfacet
facet normal 0 0 0
outer loop
vertex 23.352966 12.334652 4.139372
vertex 23.373442 12.313899 4.139372
vertex 23.373442 12.334652 4.139372
endloop
endfacet
facet normal 0 0 0
outer loop
vertex 23.393917 12.313899 4.139372
vertex 23.393917 12.334652 4.139372
vertex 23.373442 12.313899 4.139372
endloop
endfacet
facet normal 0 0 0
outer loop
vertex 23.393917 12.334652 4.139372
vertex 23.373442 12.334652 4.139372
vertex 23.373442 12.313899 4.139372
endloop
endfacet
facet normal 0 0 0
outer loop
vertex 23.393917 12.313899 4.139372
vertex 23.414392 12.334652 4.139372
vertex 23.393917 12.334652 4.139372
endloop
endfacet
facet normal 0 0 0
outer loop
vertex 23.373442 12.355406 4.159372
vertex 23.352966 12.355406 4.139372
vertex 23.373442 12.334652 4.139372
endloop
endfacet
facet normal 0 0 0
outer loop
vertex 23.352966 12.355406 4.139372
vertex 23.352966 12.334652 4.139372
vertex 23.373442 12.334652 4.139372
endloop
endfacet
facet normal 0 0 0
outer loop
vertex 23.393917 12.334652 4.139372
vertex 23.373442 12.355406 4.159372
vertex 23.373442 12.334652 4.139372
endloop
endfacet
facet normal 0 0 0
outer loop
vertex 23.393917 12.355406 4.159372
vertex 23.373442 12.355406 4.159372
vertex 23.393917 12.334652 4.139372
endloop
endfacet
facet normal 0 0 0
outer loop
vertex 23.393917 12.355406 4.159372
vertex 23.393917 12.334652 4.139372
vertex 23.414392 12.355406 4.139372
endloop
endfacet
facet normal 0 0 0
outer loop
vertex 23.393917 12.334652 4.139372
vertex 23.414392 12.334652 4.139372
vertex 23.414392 12.355406 4.139372
endloop
endfacet
facet normal 0 0 0
outer loop
vertex 23.373442 12.376159 4.159372
vertex 23.352966 12.355406 4.139372
vertex 23.373442 12.355406 4.159372
endloop
endfacet
facet normal 0 0 0
outer loop
vertex 23.352966 12.376159 4.139372
vertex 23.352966 12.355406 4.139372
vertex 23.373442 12.376159 4.159372
endloop
endfacet
facet normal 0 0 0
outer loop
vertex 23.414392 12.355406 4.139372
vertex 23.414392 12.376159 4.159372
vertex 23.393917 12.355406 4.159372
endloop
endfacet
facet normal 0 0 0
outer loop
vertex 23.434868 12.376159 4.139372
vertex 23.414392 12.376159 4.159372
vertex 23.414392 12.355406 4.139372
endloop
endfacet
facet normal 0 0 0
outer loop
vertex 23.373442 12.396913 4.159372
vertex 23.352966 12.376159 4.139372
vertex 23.373442 12.376159 4.159372
endloop
endfacet
facet normal 0 0 0
outer loop
vertex 23.352966 12.396913 4.139372
vertex 23.352966 12.376159 4.139372
vertex 23.373442 12.396913 4.159372
endloop
endfacet
facet normal 0 0 0
outer loop
vertex 23.434868 12.376159 4.139372
vertex 23.434868 12.396913 4.159372
vertex 23.414392 12.376159 4.159372
endloop
endfacet
facet normal 0 0 0
outer loop
vertex 23.434868 12.396913 4.159372
vertex 23.434868 12.376159 4.139372
vertex 23.434868 12.396913 4.139372
endloop
endfacet
facet normal 0 0 0
outer loop
vertex 23.373442 12.417665 4.159372
vertex 23.352966 12.396913 4.139372
vertex 23.373442 12.396913 4.159372
endloop
endfacet
facet normal 0 0 0
outer loop
vertex 23.352966 12.417665 4.139372
vertex 23.352966 12.396913 4.139372
vertex 23.373442 12.417665 4.159372
endloop
endfacet
facet normal 0 0 0
outer loop
vertex 23.434868 12.396913 4.139372
vertex 23.434868 12.417665 4.139372
vertex 23.434868 12.396913 4.159372
endloop
endfacet
facet normal 0 0 0
outer loop
vertex 23.434868 12.396913 4.159372
vertex 23.434868 12.417665 4.139372
vertex 23.434868 12.417665 4.159372
endloop
endfacet
facet normal 0 0 0
outer loop
vertex 23.352966 12.417665 4.139372
vertex 23.352966 12.438418 4.159372
vertex 23.352966 12.438418 4.139372
endloop
endfacet
facet normal 0 0 0
outer loop
vertex 23.373442 12.417665 4.159372
vertex 23.352966 12.438418 4.159372
vertex 23.352966 12.417665 4.139372
endloop
endfacet
facet normal 0 0 0
outer loop
vertex 23.434868 12.438418 4.139372
vertex 23.414392 12.438418 4.159372
vertex 23.434868 12.417665 4.159372
endloop
endfacet
facet normal 0 0 0
outer loop
vertex 23.434868 12.438418 4.139372
vertex 23.434868 12.417665 4.159372
vertex 23.434868 12.417665 4.139372
endloop
endfacet
facet normal 0 0 0
outer loop
vertex 23.352966 12.438418 4.139372
vertex 23.352966 12.438418 4.159372
vertex 23.352966 12.459172 4.139372
endloop
endfacet
facet normal 0 0 0
outer loop
vertex 23.352966 12.438418 4.159372
vertex 23.352966 12.459172 4.159372
vertex 23.352966 12.459172 4.139372
endloop
endfacet
facet normal 0 0 0
outer loop
vertex 23.434868 12.438418 4.139372
vertex 23.434868 12.459172 4.159372
vertex 23.414392 12.438418 4.159372
endloop
endfacet
facet normal 0 0 0
outer loop
vertex 23.434868 12.459172 4.159372
vertex 23.434868 12.438418 4.139372
vertex 23.434868 12.459172 4.139372
endloop
endfacet
facet normal 0 0 0
outer loop
vertex 23.352966 12.459172 4.139372
vertex 23.352966 12.459172 4.159372
vertex 23.352966 12.479925 4.139372
endloop
endfacet
facet normal 0 0 0
outer loop
vertex 23.352966 12.459172 4.159372
vertex 23.352966 12.479925 4.159372
vertex 23.352966 12.479925 4.139372
endloop
endfacet
facet normal 0 0 0
outer loop
vertex 23.434868 12.459172 4.139372
vertex 23.434868 12.479925 4.139372
vertex 23.434868 12.459172 4.159372
endloop
endfacet
facet normal 0 0 0
outer loop
vertex 23.434868 12.459172 4.159372
vertex 23.434868 12.479925 4.139372
vertex 23.434868 12.479925 4.159372
endloop
endfacet
facet normal 0 0 0
outer loop
vertex 23.352966 12.479925 4.139372
vertex 23.352966 12.479925 4.159372
vertex 23.352966 12.500679 4.139372
endloop
endfacet
facet normal 0 0 0
outer loop
vertex 23.352966 12.479925 4.159372
vertex 23.352966 12.500679 4.159372
vertex 23.352966 12.500679 4.139372
endloop
endfacet
facet normal 0 0 0
outer loop
vertex 23.434868 12.479925 4.139372
vertex 23.414392 12.500679 4.159372
vertex 23.434868 12.479925 4.159372
endloop
endfacet
facet normal 0 0 0
outer loop
vertex 23.414392 12.500679 4.139372
vertex 23.414392 12.500679 4.159372
vertex 23.434868 12.479925 4.139372
endloop
endfacet
facet normal 0 0 0
outer loop
vertex 23.352966 12.521432 4.159372
vertex 23.352966 12.500679 4.139372
vertex 23.352966 12.500679 4.159372
endloop
endfacet
facet normal 0 0 0
outer loop
vertex 23.352966 12.500679 4.139372
vertex 23.373442 12.521432 4.159372
vertex 23.373442 12.500679 4.139372
endloop
endfacet
facet normal 0 0 0
outer loop
vertex 23.352966 12.521432 4.159372
vertex 23.373442 12.521432 4.159372
vertex 23.352966 12.500679 4.139372
endloop
endfacet
facet normal 0 0 0
outer loop
vertex 23.373442 12.500679 4.139372
vertex 23.373442 12.521432 4.159372
vertex 23.393917 12.521432 4.139372
endloop
endfacet
facet normal 0 0 0
outer loop
vertex 23.414392 12.500679 4.139372
vertex 23.393917 12.521432 4.159372
vertex 23.414392 12.500679 4.159372
endloop
endfacet
facet normal 0 0 0
outer loop
vertex 23.393917 12.521432 4.139372
vertex 23.393917 12.521432 4.159372
vertex 23.414392 12.500679 4.139372
endloop
endfacet
facet normal 0 0 0
outer loop
vertex 23.393917 12.521432 4.139372
vertex 23.373442 12.521432 4.159372
vertex 23.393917 12.521432 4.159372
endloop
endfacet
facet normal 0 0 0
outer loop
vertex 23.393917 12.355406 4.159372
vertex 23.393917 12.376159 4.159372
vertex 23.373442 12.355406 4.159372
endloop
endfacet
facet normal 0 0 0
outer loop
vertex 23.393917 12.376159 4.159372
vertex 23.373442 12.376159 4.159372
vertex 23.373442 12.355406 4.159372
endloop
endfacet
facet normal 0 0 0
outer loop
vertex 23.393917 12.355406 4.159372
vertex 23.414392 12.376159 4.159372
vertex 23.393917 12.376159 4.159372
endloop
endfacet
facet normal 0 0 0
outer loop
vertex 23.393917 12.376159 4.159372
vertex 23.393917 12.396913 4.159372
vertex 23.373442 12.376159 4.159372
endloop
endfacet
facet normal 0 0 0
outer loop
vertex 23.393917 12.396913 4.159372
vertex 23.373442 12.396913 4.159372
vertex 23.373442 12.376159 4.159372
endloop
endfacet
facet normal 0 0 0
outer loop
vertex 23.414392 12.376159 4.159372
vertex 23.414392 12.396913 4.159372
vertex 23.393917 12.376159 4.159372
endloop
endfacet
facet normal 0 0 0
outer loop
vertex 23.414392 12.396913 4.159372
vertex 23.393917 12.396913 4.159372
vertex 23.393917 12.376159 4.159372
endloop
endfacet
facet normal 0 0 0
outer loop
vertex 23.414392 12.376159 4.159372
vertex 23.434868 12.396913 4.159372
vertex 23.414392 12.396913 4.159372
endloop
endfacet
facet normal 0 0 0
outer loop
vertex 23.393917 12.396913 4.159372
vertex 23.393917 12.417665 4.159372
vertex 23.373442 12.396913 4.159372
endloop
endfacet
facet normal 0 0 0
outer loop
vertex 23.393917 12.417665 4.159372
vertex 23.373442 12.417665 4.159372
vertex 23.373442 12.396913 4.159372
endloop
endfacet
facet normal 0 0 0
outer loop
vertex 23.414392 12.396913 4.159372
vertex 23.414392 12.417665 4.159372
vertex 23.393917 12.396913 4.159372
endloop
endfacet
facet normal 0 0 0
outer loop
vertex 23.414392 12.417665 4.159372
vertex 23.393917 12.417665 4.159372
vertex 23.393917 12.396913 4.159372
endloop
endfacet
facet normal 0 0 0
outer loop
vertex 23.434868 12.396913 4.159372
vertex 23.434868 12.417665 4.159372
vertex 23.414392 12.396913 4.159372
endloop
endfacet
facet normal 0 0 0
outer loop
vertex 23.434868 12.417665 4.159372
vertex 23.414392 12.417665 4.159372
vertex 23.414392 12.396913 4.159372
endloop
endfacet
facet normal 0 0 0
outer loop
vertex 23.352966 12.438418 4.159372
vertex 23.373442 12.417665 4.159372
vertex 23.373442 12.438418 4.159372
endloop
endfacet
facet normal 0 0 0
outer loop
vertex 23.393917 12.417665 4.159372
vertex 23.393917 12.438418 4.159372
vertex 23.373442 12.417665 4.159372
endloop
endfacet
facet normal 0 0 0
outer loop
vertex 23.393917 12.438418 4.159372
vertex 23.373442 12.438418 4.159372
vertex 23.373442 12.417665 4.159372
endloop
endfacet
facet normal 0 0 0
outer loop
vertex 23.414392 12.417665 4.159372
vertex 23.414392 12.438418 4.159372
vertex 23.393917 12.417665 4.159372
endloop
endfacet
facet normal 0 0 0
outer loop
vertex 23.414392 12.438418 4.159372
vertex 23.393917 12.438418 4.159372
vertex 23.393917 12.417665 4.159372
endloop
endfacet
facet normal 0 0 0
outer loop
vertex 23.434868 12.417665 4.159372
vertex 23.414392 12.438418 4.159372
vertex 23.414392 12.417665 4.159372
endloop
endfacet
facet normal 0 0 0
outer loop
vertex 23.373442 12.438418 4.159372
vertex 23.373442 12.459172 4.159372
vertex 23.352966 12.438418 4.159372
endloop
endfacet
facet normal 0 0 0
outer loop
vertex 23.373442 12.459172 4.159372
vertex 23.352966 12.459172 4.159372
vertex 23.352966 12.438418 4.159372
endloop
endfacet
facet normal 0 0 0
outer loop
vertex 23.393917 12.438418 4.159372
vertex 23.393917 12.459172 4.159372
vertex 23.373442 12.438418 4.159372
endloop
endfacet
facet normal 0 0 0
outer loop
vertex 23.393917 12.459172 4.159372
vertex 23.373442 12.459172 4.159372
vertex 23.373442 12.438418 4.159372
endloop
endfacet
facet normal 0 0 0
outer loop
vertex 23.414392 12.438418 4.159372
vertex 23.414392 12.459172 4.159372
vertex 23.393917 12.438418 4.159372
endloop
endfacet
facet normal 0 0 0
outer loop
vertex 23.414392 12.459172 4.159372
vertex 23.393917 12.459172 4.159372
vertex 23.393917 12.438418 4.159372
endloop
endfacet
facet normal 0 0 0
outer loop
vertex 23.414392 12.438418 4.159372
vertex 23.434868 12.459172 4.159372
vertex 23.414392 12.459172 4.159372
endloop
endfacet
facet normal 0 0 0
outer loop
vertex 23.373442 12.459172 4.159372
vertex 23.373442 12.479925 4.159372
vertex 23.352966 12.459172 4.159372
endloop
endfacet
facet normal 0 0 0
outer loop
vertex 23.373442 12.479925 4.159372
vertex 23.352966 12.479925 4.159372
vertex 23.352966 12.459172 4.159372
endloop
endfacet
facet normal 0 0 0
outer loop
vertex 23.393917 12.459172 4.159372
vertex 23.393917 12.479925 4.159372
vertex 23.373442 12.459172 4.159372
endloop
endfacet
facet normal 0 0 0
outer loop
vertex 23.393917 12.479925 4.159372
vertex 23.373442 12.479925 4.159372
vertex 23.373442 12.459172 4.159372
endloop
endfacet
facet normal 0 0 0
outer loop
vertex 23.414392 12.459172 4.159372
vertex 23.414392 12.479925 4.159372
vertex 23.393917 12.459172 4.159372
endloop
endfacet
facet normal 0 0 0
outer loop
vertex 23.414392 12.479925 4.159372
vertex 23.393917 12.479925 4.159372
vertex 23.393917 12.459172 4.159372
endloop
endfacet
facet normal 0 0 0
outer loop
vertex 23.434868 12.459172 4.159372
vertex 23.434868 12.479925 4.159372
vertex 23.414392 12.459172 4.159372
endloop
endfacet
facet normal 0 0 0
outer loop
vertex 23.434868 12.479925 4.159372
vertex 23.414392 12.479925 4.159372
vertex 23.414392 12.459172 4.159372
endloop
endfacet
facet normal 0 0 0
outer loop
vertex 23.373442 12.479925 4.159372
vertex 23.373442 12.500679 4.159372
vertex 23.352966 12.479925 4.159372
endloop
endfacet
facet normal 0 0 0
outer loop
vertex 23.373442 12.500679 4.159372
vertex 23.352966 12.500679 4.159372
vertex 23.352966 12.479925 4.159372
endloop
endfacet
facet normal 0 0 0
outer loop
vertex 23.393917 12.479925 4.159372
vertex 23.393917 12.500679 4.159372
vertex 23.373442 12.479925 4.159372
endloop
endfacet
facet normal 0 0 0
outer loop
vertex 23.393917 12.500679 4.159372
vertex 23.373442 12.500679 4.159372
vertex 23.373442 12.479925 4.159372
endloop
endfacet
facet normal 0 0 0
outer loop
vertex 23.414392 12.479925 4.159372
vertex 23.414392 12.500679 4.159372
vertex 23.393917 12.479925 4.159372
endloop
endfacet
facet normal 0 0 0
outer loop
vertex 23.414392 12.500679 4.159372
vertex 23.393917 12.500679 4.159372
vertex 23.393917 12.479925 4.159372
endloop
endfacet
facet normal 0 0 0
outer loop
vertex 23.434868 12.479925 4.159372
vertex 23.414392 12.500679 4.159372
vertex 23.414392 12.479925 4.159372
endloop
endfacet
facet normal 0 0 0
outer loop
vertex 23.373442 12.500679 4.159372
vertex 23.373442 12.521432 4.159372
vertex 23.352966 12.500679 4.159372
endloop
endfacet
facet normal 0 0 0
outer loop
vertex 23.373442 12.521432 4.159372
vertex 23.352966 12.521432 4.159372
vertex 23.352966 12.500679 4.159372
endloop
endfacet
facet normal 0 0 0
outer loop
vertex 23.393917 12.500679 4.159372
vertex 23.393917 12.521432 4.159372
vertex 23.373442 12.500679 4.159372
endloop
endfacet
facet normal 0 0 0
outer loop
vertex 23.393917 12.521432 4.159372
vertex 23.373442 12.521432 4.159372
vertex 23.373442 12.500679 4.159372
endloop
endfacet
facet normal 0 0 0
outer loop
vertex 23.414392 12.500679 4.159372
vertex 23.393917 12.521432 4.159372
vertex 23.393917 12.500679 4.159372
endloop
endfacet
endsolid B-16-Plag.041
