solid B-16-Plag.276
facet normal 0 0 0
outer loop
vertex 12.275558 14.202451 11.579371
vertex 12.255083 14.223205 11.579371
vertex 12.275558 14.223205 11.579371
endloop
endfacet
facet normal 0 0 0
outer loop
vertex 12.255083 14.202451 11.599372
vertex 12.275558 14.202451 11.579371
vertex 12.275558 14.202451 11.599372
endloop
endfacet
facet normal 0 0 0
outer loop
vertex 12.255083 14.223205 11.579371
vertex 12.255083 14.202451 11.599372
vertex 12.234606 14.223205 11.599372
endloop
endfacet
facet normal 0 0 0
outer loop
vertex 12.255083 14.202451 11.599372
vertex 12.234606 14.202451 11.599372
vertex 12.234606 14.223205 11.599372
endloop
endfacet
facet normal 0 0 0
outer loop
vertex 12.275558 14.202451 11.579371
vertex 12.255083 14.202451 11.599372
vertex 12.255083 14.223205 11.579371
endloop
endfacet
facet normal 0 0 0
outer loop
vertex 12.296034 14.223205 11.599372
vertex 12.275558 14.202451 11.599372
vertex 12.275558 14.223205 11.579371
endloop
endfacet
facet normal 0 0 0
outer loop
vertex 12.275558 14.202451 11.599372
vertex 12.275558 14.202451 11.579371
vertex 12.275558 14.223205 11.579371
endloop
endfacet
facet normal 0 0 0
outer loop
vertex 12.255083 14.223205 11.579371
vertex 12.234606 14.223205 11.599372
vertex 12.255083 14.243958 11.599372
endloop
endfacet
facet normal 0 0 0
outer loop
vertex 12.234606 14.223205 11.599372
vertex 12.234606 14.243958 11.599372
vertex 12.255083 14.243958 11.599372
endloop
endfacet
facet normal 0 0 0
outer loop
vertex 12.255083 14.223205 11.579371
vertex 12.275558 14.243958 11.599372
vertex 12.275558 14.223205 11.579371
endloop
endfacet
facet normal 0 0 0
outer loop
vertex 12.255083 14.243958 11.599372
vertex 12.275558 14.243958 11.599372
vertex 12.255083 14.223205 11.579371
endloop
endfacet
facet normal 0 0 0
outer loop
vertex 12.275558 14.223205 11.579371
vertex 12.275558 14.243958 11.599372
vertex 12.296034 14.223205 11.599372
endloop
endfacet
facet normal 0 0 0
outer loop
vertex 12.275558 14.243958 11.599372
vertex 12.296034 14.243958 11.599372
vertex 12.296034 14.223205 11.599372
endloop
endfacet
facet normal 0 0 0
outer loop
vertex 12.234606 14.202451 11.599372
vertex 12.234606 14.181698 11.619371
vertex 12.214130 14.202451 11.619371
endloop
endfacet
facet normal 0 0 0
outer loop
vertex 12.234606 14.181698 11.619371
vertex 12.214130 14.181698 11.619371
vertex 12.214130 14.202451 11.619371
endloop
endfacet
facet normal 0 0 0
outer loop
vertex 12.255083 14.202451 11.599372
vertex 12.234606 14.181698 11.619371
vertex 12.234606 14.202451 11.599372
endloop
endfacet
facet normal 0 0 0
outer loop
vertex 12.255083 14.181698 11.619371
vertex 12.234606 14.181698 11.619371
vertex 12.255083 14.202451 11.599372
endloop
endfacet
facet normal 0 0 0
outer loop
vertex 12.275558 14.202451 11.599372
vertex 12.255083 14.181698 11.619371
vertex 12.255083 14.202451 11.599372
endloop
endfacet
facet normal 0 0 0
outer loop
vertex 12.275558 14.181698 11.619371
vertex 12.255083 14.181698 11.619371
vertex 12.275558 14.202451 11.599372
endloop
endfacet
facet normal 0 0 0
outer loop
vertex 12.296034 14.181698 11.619371
vertex 12.275558 14.181698 11.619371
vertex 12.275558 14.202451 11.599372
endloop
endfacet
facet normal 0 0 0
outer loop
vertex 12.296034 14.181698 11.619371
vertex 12.275558 14.202451 11.599372
vertex 12.275558 14.202451 11.619371
endloop
endfacet
facet normal 0 0 0
outer loop
vertex 12.234606 14.202451 11.599372
vertex 12.214130 14.223205 11.619371
vertex 12.234606 14.223205 11.599372
endloop
endfacet
facet normal 0 0 0
outer loop
vertex 12.214130 14.202451 11.619371
vertex 12.214130 14.223205 11.619371
vertex 12.234606 14.202451 11.599372
endloop
endfacet
facet normal 0 0 0
outer loop
vertex 12.275558 14.202451 11.599372
vertex 12.296034 14.223205 11.619371
vertex 12.275558 14.202451 11.619371
endloop
endfacet
facet normal 0 0 0
outer loop
vertex 12.296034 14.223205 11.599372
vertex 12.296034 14.223205 11.619371
vertex 12.275558 14.202451 11.599372
endloop
endfacet
facet normal 0 0 0
outer loop
vertex 12.214130 14.243958 11.599372
vertex 12.234606 14.223205 11.599372
vertex 12.234606 14.243958 11.599372
endloop
endfacet
facet normal 0 0 0
outer loop
vertex 12.234606 14.243958 11.599372
vertex 12.234606 14.223205 11.599372
vertex 12.234606 14.223205 11.619371
endloop
endfacet
facet normal 0 0 0
outer loop
vertex 12.234606 14.223205 11.619371
vertex 12.234606 14.223205 11.599372
vertex 12.214130 14.223205 11.619371
endloop
endfacet
facet normal 0 0 0
outer loop
vertex 12.234606 14.243958 11.599372
vertex 12.255083 14.223205 11.619371
vertex 12.255083 14.243958 11.599372
endloop
endfacet
facet normal 0 0 0
outer loop
vertex 12.234606 14.223205 11.619371
vertex 12.255083 14.223205 11.619371
vertex 12.234606 14.243958 11.599372
endloop
endfacet
facet normal 0 0 0
outer loop
vertex 12.255083 14.243958 11.599372
vertex 12.275558 14.223205 11.619371
vertex 12.275558 14.243958 11.599372
endloop
endfacet
facet normal 0 0 0
outer loop
vertex 12.255083 14.223205 11.619371
vertex 12.275558 14.223205 11.619371
vertex 12.255083 14.243958 11.599372
endloop
endfacet
facet normal 0 0 0
outer loop
vertex 12.275558 14.243958 11.599372
vertex 12.296034 14.223205 11.619371
vertex 12.296034 14.243958 11.599372
endloop
endfacet
facet normal 0 0 0
outer loop
vertex 12.275558 14.223205 11.619371
vertex 12.296034 14.223205 11.619371
vertex 12.275558 14.243958 11.599372
endloop
endfacet
facet normal 0 0 0
outer loop
vertex 12.296034 14.243958 11.599372
vertex 12.296034 14.223205 11.619371
vertex 12.296034 14.223205 11.599372
endloop
endfacet
facet normal 0 0 0
outer loop
vertex 12.214130 14.181698 11.619371
vertex 12.214130 14.202451 11.639372
vertex 12.214130 14.202451 11.619371
endloop
endfacet
facet normal 0 0 0
outer loop
vertex 12.234606 14.181698 11.619371
vertex 12.214130 14.202451 11.639372
vertex 12.214130 14.181698 11.619371
endloop
endfacet
facet normal 0 0 0
outer loop
vertex 12.234606 14.202451 11.639372
vertex 12.214130 14.202451 11.639372
vertex 12.234606 14.181698 11.619371
endloop
endfacet
facet normal 0 0 0
outer loop
vertex 12.255083 14.181698 11.619371
vertex 12.234606 14.202451 11.639372
vertex 12.234606 14.181698 11.619371
endloop
endfacet
facet normal 0 0 0
outer loop
vertex 12.255083 14.202451 11.639372
vertex 12.234606 14.202451 11.639372
vertex 12.255083 14.181698 11.619371
endloop
endfacet
facet normal 0 0 0
outer loop
vertex 12.255083 14.202451 11.639372
vertex 12.255083 14.181698 11.619371
vertex 12.275558 14.202451 11.619371
endloop
endfacet
facet normal 0 0 0
outer loop
vertex 12.255083 14.181698 11.619371
vertex 12.275558 14.181698 11.619371
vertex 12.275558 14.202451 11.619371
endloop
endfacet
facet normal 0 0 0
outer loop
vertex 12.296034 14.181698 11.619371
vertex 12.275558 14.202451 11.619371
vertex 12.275558 14.181698 11.619371
endloop
endfacet
facet normal 0 0 0
outer loop
vertex 12.214130 14.202451 11.619371
vertex 12.214130 14.202451 11.639372
vertex 12.214130 14.223205 11.619371
endloop
endfacet
facet normal 0 0 0
outer loop
vertex 12.214130 14.202451 11.639372
vertex 12.214130 14.223205 11.639372
vertex 12.214130 14.223205 11.619371
endloop
endfacet
facet normal 0 0 0
outer loop
vertex 12.275558 14.223205 11.619371
vertex 12.255083 14.202451 11.639372
vertex 12.275558 14.202451 11.619371
endloop
endfacet
facet normal 0 0 0
outer loop
vertex 12.255083 14.223205 11.639372
vertex 12.255083 14.202451 11.639372
vertex 12.275558 14.223205 11.619371
endloop
endfacet
facet normal 0 0 0
outer loop
vertex 12.275558 14.202451 11.619371
vertex 12.296034 14.223205 11.619371
vertex 12.275558 14.223205 11.619371
endloop
endfacet
facet normal 0 0 0
outer loop
vertex 12.214130 14.243958 11.639372
vertex 12.214130 14.223205 11.619371
vertex 12.214130 14.223205 11.639372
endloop
endfacet
facet normal 0 0 0
outer loop
vertex 12.214130 14.223205 11.619371
vertex 12.234606 14.243958 11.639372
vertex 12.234606 14.223205 11.619371
endloop
endfacet
facet normal 0 0 0
outer loop
vertex 12.214130 14.243958 11.639372
vertex 12.234606 14.243958 11.639372
vertex 12.214130 14.223205 11.619371
endloop
endfacet
facet normal 0 0 0
outer loop
vertex 12.234606 14.223205 11.619371
vertex 12.255083 14.243958 11.639372
vertex 12.255083 14.223205 11.619371
endloop
endfacet
facet normal 0 0 0
outer loop
vertex 12.234606 14.243958 11.639372
vertex 12.255083 14.243958 11.639372
vertex 12.234606 14.223205 11.619371
endloop
endfacet
facet normal 0 0 0
outer loop
vertex 12.275558 14.223205 11.619371
vertex 12.255083 14.243958 11.639372
vertex 12.255083 14.223205 11.639372
endloop
endfacet
facet normal 0 0 0
outer loop
vertex 12.275558 14.223205 11.619371
vertex 12.255083 14.223205 11.619371
vertex 12.255083 14.243958 11.639372
endloop
endfacet
facet normal 0 0 0
outer loop
vertex 12.234606 14.202451 11.639372
vertex 12.234606 14.223205 11.639372
vertex 12.214130 14.202451 11.639372
endloop
endfacet
facet normal 0 0 0
outer loop
vertex 12.234606 14.223205 11.639372
vertex 12.214130 14.223205 11.639372
vertex 12.214130 14.202451 11.639372
endloop
endfacet
facet normal 0 0 0
outer loop
vertex 12.255083 14.202451 11.639372
vertex 12.255083 14.223205 11.639372
vertex 12.234606 14.202451 11.639372
endloop
endfacet
facet normal 0 0 0
outer loop
vertex 12.255083 14.223205 11.639372
vertex 12.234606 14.223205 11.639372
vertex 12.234606 14.202451 11.639372
endloop
endfacet
facet normal 0 0 0
outer loop
vertex 12.234606 14.223205 11.639372
vertex 12.234606 14.243958 11.639372
vertex 12.214130 14.223205 11.639372
endloop
endfacet
facet normal 0 0 0
outer loop
vertex 12.234606 14.243958 11.639372
vertex 12.214130 14.243958 11.639372
vertex 12.214130 14.223205 11.639372
endloop
endfacet
facet normal 0 0 0
outer loop
vertex 12.255083 14.223205 11.639372
vertex 12.255083 14.243958 11.639372
vertex 12.234606 14.223205 11.639372
endloop
endfacet
facet normal 0 0 0
outer loop
vertex 12.255083 14.243958 11.639372
vertex 12.234606 14.243958 11.639372
vertex 12.234606 14.223205 11.639372
endloop
endfacet
endsolid B-16-Plag.276
