solid B-16-Plag.135
facet normal 0 0 0
outer loop
vertex 14.957888 7.914195 7.439372
vertex 14.937412 7.914195 7.439372
vertex 14.957888 7.934948 7.439372
endloop
endfacet
facet normal 0 0 0
outer loop
vertex 14.957888 7.934948 7.439372
vertex 14.937412 7.914195 7.439372
vertex 14.937412 7.934948 7.439372
endloop
endfacet
facet normal 0 0 0
outer loop
vertex 14.978363 7.914195 7.439372
vertex 14.957888 7.914195 7.439372
vertex 14.978363 7.934948 7.439372
endloop
endfacet
facet normal 0 0 0
outer loop
vertex 14.978363 7.934948 7.439372
vertex 14.957888 7.914195 7.439372
vertex 14.957888 7.934948 7.439372
endloop
endfacet
facet normal 0 0 0
outer loop
vertex 14.978363 7.934948 7.439372
vertex 14.998838 7.914195 7.439372
vertex 14.978363 7.914195 7.439372
endloop
endfacet
facet normal 0 0 0
outer loop
vertex 14.957888 7.934948 7.439372
vertex 14.937412 7.934948 7.439372
vertex 14.957888 7.955701 7.439372
endloop
endfacet
facet normal 0 0 0
outer loop
vertex 14.957888 7.955701 7.439372
vertex 14.937412 7.934948 7.439372
vertex 14.937412 7.955701 7.439372
endloop
endfacet
facet normal 0 0 0
outer loop
vertex 14.978363 7.934948 7.439372
vertex 14.957888 7.934948 7.439372
vertex 14.978363 7.955701 7.439372
endloop
endfacet
facet normal 0 0 0
outer loop
vertex 14.978363 7.955701 7.439372
vertex 14.957888 7.934948 7.439372
vertex 14.957888 7.955701 7.439372
endloop
endfacet
facet normal 0 0 0
outer loop
vertex 14.998838 7.955701 7.439372
vertex 14.978363 7.934948 7.439372
vertex 14.978363 7.955701 7.439372
endloop
endfacet
facet normal 0 0 0
outer loop
vertex 14.957888 7.955701 7.439372
vertex 14.937412 7.955701 7.439372
vertex 14.957888 7.976455 7.439372
endloop
endfacet
facet normal 0 0 0
outer loop
vertex 14.957888 7.976455 7.439372
vertex 14.937412 7.955701 7.439372
vertex 14.937412 7.976455 7.439372
endloop
endfacet
facet normal 0 0 0
outer loop
vertex 14.978363 7.955701 7.439372
vertex 14.957888 7.955701 7.439372
vertex 14.978363 7.976455 7.439372
endloop
endfacet
facet normal 0 0 0
outer loop
vertex 14.978363 7.976455 7.439372
vertex 14.957888 7.955701 7.439372
vertex 14.957888 7.976455 7.439372
endloop
endfacet
facet normal 0 0 0
outer loop
vertex 14.998838 7.955701 7.439372
vertex 14.978363 7.955701 7.439372
vertex 14.998838 7.976455 7.439372
endloop
endfacet
facet normal 0 0 0
outer loop
vertex 14.998838 7.976455 7.439372
vertex 14.978363 7.955701 7.439372
vertex 14.978363 7.976455 7.439372
endloop
endfacet
facet normal 0 0 0
outer loop
vertex 15.019316 7.955701 7.439372
vertex 14.998838 7.955701 7.439372
vertex 15.019316 7.976455 7.439372
endloop
endfacet
facet normal 0 0 0
outer loop
vertex 15.019316 7.976455 7.439372
vertex 14.998838 7.955701 7.439372
vertex 14.998838 7.976455 7.439372
endloop
endfacet
facet normal 0 0 0
outer loop
vertex 15.019316 7.976455 7.439372
vertex 15.039791 7.955701 7.439372
vertex 15.019316 7.955701 7.439372
endloop
endfacet
facet normal 0 0 0
outer loop
vertex 14.957888 7.914195 7.439372
vertex 14.957888 7.914195 7.459372
vertex 14.937412 7.914195 7.439372
endloop
endfacet
facet normal 0 0 0
outer loop
vertex 14.937412 7.914195 7.439372
vertex 14.957888 7.914195 7.459372
vertex 14.937412 7.914195 7.459372
endloop
endfacet
facet normal 0 0 0
outer loop
vertex 14.978363 7.914195 7.439372
vertex 14.978363 7.914195 7.459372
vertex 14.957888 7.914195 7.439372
endloop
endfacet
facet normal 0 0 0
outer loop
vertex 14.957888 7.914195 7.439372
vertex 14.978363 7.914195 7.459372
vertex 14.957888 7.914195 7.459372
endloop
endfacet
facet normal 0 0 0
outer loop
vertex 14.998838 7.914195 7.439372
vertex 14.998838 7.914195 7.459372
vertex 14.978363 7.914195 7.439372
endloop
endfacet
facet normal 0 0 0
outer loop
vertex 14.978363 7.914195 7.439372
vertex 14.998838 7.914195 7.459372
vertex 14.978363 7.914195 7.459372
endloop
endfacet
facet normal 0 0 0
outer loop
vertex 15.019316 7.914195 7.439372
vertex 15.019316 7.914195 7.459372
vertex 14.998838 7.914195 7.439372
endloop
endfacet
facet normal 0 0 0
outer loop
vertex 14.998838 7.914195 7.439372
vertex 15.019316 7.914195 7.459372
vertex 14.998838 7.914195 7.459372
endloop
endfacet
facet normal 0 0 0
outer loop
vertex 15.039791 7.914195 7.439372
vertex 15.019316 7.914195 7.459372
vertex 15.019316 7.914195 7.439372
endloop
endfacet
facet normal 0 0 0
outer loop
vertex 14.937412 7.914195 7.439372
vertex 14.937412 7.914195 7.459372
vertex 14.937412 7.934948 7.439372
endloop
endfacet
facet normal 0 0 0
outer loop
vertex 14.937412 7.914195 7.459372
vertex 14.937412 7.934948 7.459372
vertex 14.937412 7.934948 7.439372
endloop
endfacet
facet normal 0 0 0
outer loop
vertex 14.998838 7.914195 7.439372
vertex 14.978363 7.934948 7.439372
vertex 14.998838 7.934948 7.459372
endloop
endfacet
facet normal 0 0 0
outer loop
vertex 14.998838 7.914195 7.439372
vertex 15.019316 7.934948 7.459372
vertex 15.019316 7.914195 7.439372
endloop
endfacet
facet normal 0 0 0
outer loop
vertex 14.998838 7.934948 7.459372
vertex 15.019316 7.934948 7.459372
vertex 14.998838 7.914195 7.439372
endloop
endfacet
facet normal 0 0 0
outer loop
vertex 15.039791 7.934948 7.459372
vertex 15.019316 7.914195 7.459372
vertex 15.019316 7.934948 7.459372
endloop
endfacet
facet normal 0 0 0
outer loop
vertex 15.019316 7.934948 7.459372
vertex 15.019316 7.914195 7.459372
vertex 15.019316 7.914195 7.439372
endloop
endfacet
facet normal 0 0 0
outer loop
vertex 14.937412 7.934948 7.439372
vertex 14.937412 7.934948 7.459372
vertex 14.937412 7.955701 7.439372
endloop
endfacet
facet normal 0 0 0
outer loop
vertex 14.937412 7.934948 7.459372
vertex 14.937412 7.955701 7.459372
vertex 14.937412 7.955701 7.439372
endloop
endfacet
facet normal 0 0 0
outer loop
vertex 14.978363 7.934948 7.439372
vertex 14.998838 7.955701 7.439372
vertex 14.998838 7.934948 7.459372
endloop
endfacet
facet normal 0 0 0
outer loop
vertex 15.019316 7.955701 7.439372
vertex 14.998838 7.934948 7.459372
vertex 14.998838 7.955701 7.439372
endloop
endfacet
facet normal 0 0 0
outer loop
vertex 15.019316 7.934948 7.459372
vertex 14.998838 7.934948 7.459372
vertex 15.019316 7.955701 7.439372
endloop
endfacet
facet normal 0 0 0
outer loop
vertex 15.039791 7.955701 7.439372
vertex 15.019316 7.934948 7.459372
vertex 15.019316 7.955701 7.439372
endloop
endfacet
facet normal 0 0 0
outer loop
vertex 15.039791 7.934948 7.459372
vertex 15.019316 7.934948 7.459372
vertex 15.039791 7.955701 7.439372
endloop
endfacet
facet normal 0 0 0
outer loop
vertex 15.039791 7.934948 7.459372
vertex 15.039791 7.955701 7.439372
vertex 15.060266 7.955701 7.439372
endloop
endfacet
facet normal 0 0 0
outer loop
vertex 15.039791 7.934948 7.459372
vertex 15.060266 7.955701 7.439372
vertex 15.039791 7.955701 7.459372
endloop
endfacet
facet normal 0 0 0
outer loop
vertex 14.916935 7.976455 7.459372
vertex 14.937412 7.976455 7.439372
vertex 14.937412 7.955701 7.459372
endloop
endfacet
facet normal 0 0 0
outer loop
vertex 14.937412 7.976455 7.439372
vertex 14.937412 7.955701 7.439372
vertex 14.937412 7.955701 7.459372
endloop
endfacet
facet normal 0 0 0
outer loop
vertex 15.039791 7.955701 7.439372
vertex 15.019316 7.976455 7.459372
vertex 15.039791 7.955701 7.459372
endloop
endfacet
facet normal 0 0 0
outer loop
vertex 15.019316 7.976455 7.439372
vertex 15.019316 7.976455 7.459372
vertex 15.039791 7.955701 7.439372
endloop
endfacet
facet normal 0 0 0
outer loop
vertex 15.039791 7.955701 7.459372
vertex 15.060266 7.955701 7.439372
vertex 15.039791 7.955701 7.439372
endloop
endfacet
facet normal 0 0 0
outer loop
vertex 14.937412 7.976455 7.439372
vertex 14.916935 7.976455 7.459372
vertex 14.937412 7.976455 7.459372
endloop
endfacet
facet normal 0 0 0
outer loop
vertex 14.957888 7.976455 7.439372
vertex 14.937412 7.976455 7.439372
vertex 14.957888 7.976455 7.459372
endloop
endfacet
facet normal 0 0 0
outer loop
vertex 14.937412 7.976455 7.439372
vertex 14.937412 7.976455 7.459372
vertex 14.957888 7.976455 7.459372
endloop
endfacet
facet normal 0 0 0
outer loop
vertex 14.978363 7.976455 7.439372
vertex 14.957888 7.976455 7.439372
vertex 14.978363 7.976455 7.459372
endloop
endfacet
facet normal 0 0 0
outer loop
vertex 14.957888 7.976455 7.439372
vertex 14.957888 7.976455 7.459372
vertex 14.978363 7.976455 7.459372
endloop
endfacet
facet normal 0 0 0
outer loop
vertex 14.998838 7.997208 7.459372
vertex 14.998838 7.976455 7.439372
vertex 14.978363 7.976455 7.459372
endloop
endfacet
facet normal 0 0 0
outer loop
vertex 14.998838 7.976455 7.439372
vertex 14.978363 7.976455 7.439372
vertex 14.978363 7.976455 7.459372
endloop
endfacet
facet normal 0 0 0
outer loop
vertex 14.998838 7.997208 7.459372
vertex 15.019316 7.976455 7.459372
vertex 14.998838 7.976455 7.439372
endloop
endfacet
facet normal 0 0 0
outer loop
vertex 15.019316 7.976455 7.459372
vertex 15.019316 7.976455 7.439372
vertex 14.998838 7.976455 7.439372
endloop
endfacet
facet normal 0 0 0
outer loop
vertex 14.957888 7.914195 7.479372
vertex 14.937412 7.914195 7.459372
vertex 14.957888 7.914195 7.459372
endloop
endfacet
facet normal 0 0 0
outer loop
vertex 14.978363 7.893441 7.479372
vertex 14.957888 7.914195 7.479372
vertex 14.978363 7.914195 7.459372
endloop
endfacet
facet normal 0 0 0
outer loop
vertex 14.957888 7.914195 7.479372
vertex 14.957888 7.914195 7.459372
vertex 14.978363 7.914195 7.459372
endloop
endfacet
facet normal 0 0 0
outer loop
vertex 14.978363 7.893441 7.479372
vertex 14.978363 7.914195 7.459372
vertex 14.998838 7.914195 7.479372
endloop
endfacet
facet normal 0 0 0
outer loop
vertex 14.978363 7.914195 7.459372
vertex 14.998838 7.914195 7.459372
vertex 14.998838 7.914195 7.479372
endloop
endfacet
facet normal 0 0 0
outer loop
vertex 15.019316 7.914195 7.459372
vertex 15.019316 7.914195 7.479372
vertex 14.998838 7.914195 7.459372
endloop
endfacet
facet normal 0 0 0
outer loop
vertex 14.998838 7.914195 7.459372
vertex 15.019316 7.914195 7.479372
vertex 14.998838 7.914195 7.479372
endloop
endfacet
facet normal 0 0 0
outer loop
vertex 15.019316 7.914195 7.459372
vertex 15.039791 7.914195 7.479372
vertex 15.019316 7.914195 7.479372
endloop
endfacet
facet normal 0 0 0
outer loop
vertex 14.937412 7.914195 7.459372
vertex 14.937412 7.934948 7.479372
vertex 14.916935 7.934948 7.479372
endloop
endfacet
facet normal 0 0 0
outer loop
vertex 14.937412 7.914195 7.459372
vertex 14.916935 7.934948 7.479372
vertex 14.937412 7.934948 7.459372
endloop
endfacet
facet normal 0 0 0
outer loop
vertex 14.957888 7.914195 7.479372
vertex 14.937412 7.934948 7.479372
vertex 14.937412 7.914195 7.459372
endloop
endfacet
facet normal 0 0 0
outer loop
vertex 15.019316 7.914195 7.459372
vertex 15.039791 7.934948 7.459372
vertex 15.039791 7.914195 7.479372
endloop
endfacet
facet normal 0 0 0
outer loop
vertex 15.039791 7.914195 7.479372
vertex 15.039791 7.934948 7.459372
vertex 15.039791 7.934948 7.479372
endloop
endfacet
facet normal 0 0 0
outer loop
vertex 14.937412 7.934948 7.459372
vertex 14.916935 7.955701 7.479372
vertex 14.937412 7.955701 7.459372
endloop
endfacet
facet normal 0 0 0
outer loop
vertex 14.916935 7.934948 7.479372
vertex 14.916935 7.955701 7.479372
vertex 14.937412 7.934948 7.459372
endloop
endfacet
facet normal 0 0 0
outer loop
vertex 15.039791 7.955701 7.459372
vertex 15.019316 7.955701 7.479372
vertex 15.039791 7.934948 7.479372
endloop
endfacet
facet normal 0 0 0
outer loop
vertex 15.039791 7.955701 7.459372
vertex 15.039791 7.934948 7.479372
vertex 15.039791 7.934948 7.459372
endloop
endfacet
facet normal 0 0 0
outer loop
vertex 14.916935 7.955701 7.479372
vertex 14.937412 7.976455 7.479372
vertex 14.937412 7.955701 7.459372
endloop
endfacet
facet normal 0 0 0
outer loop
vertex 14.916935 7.976455 7.459372
vertex 14.937412 7.955701 7.459372
vertex 14.937412 7.976455 7.479372
endloop
endfacet
facet normal 0 0 0
outer loop
vertex 15.039791 7.955701 7.459372
vertex 15.019316 7.976455 7.459372
vertex 15.019316 7.955701 7.479372
endloop
endfacet
facet normal 0 0 0
outer loop
vertex 15.019316 7.976455 7.459372
vertex 15.019316 7.976455 7.479372
vertex 15.019316 7.955701 7.479372
endloop
endfacet
facet normal 0 0 0
outer loop
vertex 14.916935 7.976455 7.459372
vertex 14.937412 7.997208 7.479372
vertex 14.937412 7.976455 7.459372
endloop
endfacet
facet normal 0 0 0
outer loop
vertex 14.916935 7.976455 7.459372
vertex 14.937412 7.976455 7.479372
vertex 14.937412 7.997208 7.479372
endloop
endfacet
facet normal 0 0 0
outer loop
vertex 14.937412 7.976455 7.459372
vertex 14.957888 7.997208 7.479372
vertex 14.957888 7.976455 7.459372
endloop
endfacet
facet normal 0 0 0
outer loop
vertex 14.937412 7.997208 7.479372
vertex 14.957888 7.997208 7.479372
vertex 14.937412 7.976455 7.459372
endloop
endfacet
facet normal 0 0 0
outer loop
vertex 14.957888 7.976455 7.459372
vertex 14.978363 7.997208 7.479372
vertex 14.978363 7.976455 7.459372
endloop
endfacet
facet normal 0 0 0
outer loop
vertex 14.957888 7.997208 7.479372
vertex 14.978363 7.997208 7.479372
vertex 14.957888 7.976455 7.459372
endloop
endfacet
facet normal 0 0 0
outer loop
vertex 14.978363 7.976455 7.459372
vertex 14.978363 7.997208 7.479372
vertex 14.998838 7.997208 7.459372
endloop
endfacet
facet normal 0 0 0
outer loop
vertex 15.019316 7.976455 7.459372
vertex 14.998838 7.997208 7.479372
vertex 15.019316 7.976455 7.479372
endloop
endfacet
facet normal 0 0 0
outer loop
vertex 14.998838 7.997208 7.459372
vertex 14.998838 7.997208 7.479372
vertex 15.019316 7.976455 7.459372
endloop
endfacet
facet normal 0 0 0
outer loop
vertex 14.998838 7.997208 7.459372
vertex 14.978363 7.997208 7.479372
vertex 14.998838 7.997208 7.479372
endloop
endfacet
facet normal 0 0 0
outer loop
vertex 14.978363 7.893441 7.479372
vertex 14.978363 7.914195 7.499372
vertex 14.957888 7.914195 7.479372
endloop
endfacet
facet normal 0 0 0
outer loop
vertex 14.998838 7.914195 7.479372
vertex 14.978363 7.914195 7.499372
vertex 14.978363 7.893441 7.479372
endloop
endfacet
facet normal 0 0 0
outer loop
vertex 14.937412 7.934948 7.499372
vertex 14.916935 7.934948 7.479372
vertex 14.937412 7.934948 7.479372
endloop
endfacet
facet normal 0 0 0
outer loop
vertex 14.957888 7.914195 7.479372
vertex 14.957888 7.934948 7.499372
vertex 14.937412 7.934948 7.479372
endloop
endfacet
facet normal 0 0 0
outer loop
vertex 14.957888 7.934948 7.499372
vertex 14.937412 7.934948 7.499372
vertex 14.937412 7.934948 7.479372
endloop
endfacet
facet normal 0 0 0
outer loop
vertex 14.978363 7.914195 7.499372
vertex 14.957888 7.934948 7.499372
vertex 14.957888 7.914195 7.479372
endloop
endfacet
facet normal 0 0 0
outer loop
vertex 14.998838 7.934948 7.479372
vertex 14.978363 7.914195 7.499372
vertex 14.998838 7.914195 7.479372
endloop
endfacet
facet normal 0 0 0
outer loop
vertex 14.978363 7.934948 7.499372
vertex 14.978363 7.914195 7.499372
vertex 14.998838 7.934948 7.479372
endloop
endfacet
facet normal 0 0 0
outer loop
vertex 15.019316 7.914195 7.479372
vertex 15.019316 7.934948 7.479372
vertex 14.998838 7.914195 7.479372
endloop
endfacet
facet normal 0 0 0
outer loop
vertex 15.019316 7.934948 7.479372
vertex 14.998838 7.934948 7.479372
vertex 14.998838 7.914195 7.479372
endloop
endfacet
facet normal 0 0 0
outer loop
vertex 15.039791 7.914195 7.479372
vertex 15.039791 7.934948 7.479372
vertex 15.019316 7.914195 7.479372
endloop
endfacet
facet normal 0 0 0
outer loop
vertex 15.039791 7.934948 7.479372
vertex 15.019316 7.934948 7.479372
vertex 15.019316 7.914195 7.479372
endloop
endfacet
facet normal 0 0 0
outer loop
vertex 14.916935 7.934948 7.479372
vertex 14.916935 7.955701 7.499372
vertex 14.916935 7.955701 7.479372
endloop
endfacet
facet normal 0 0 0
outer loop
vertex 14.937412 7.934948 7.499372
vertex 14.916935 7.955701 7.499372
vertex 14.916935 7.934948 7.479372
endloop
endfacet
facet normal 0 0 0
outer loop
vertex 14.998838 7.934948 7.479372
vertex 14.998838 7.955701 7.499372
vertex 14.978363 7.934948 7.499372
endloop
endfacet
facet normal 0 0 0
outer loop
vertex 15.019316 7.934948 7.479372
vertex 14.998838 7.955701 7.499372
vertex 14.998838 7.934948 7.479372
endloop
endfacet
facet normal 0 0 0
outer loop
vertex 15.019316 7.955701 7.499372
vertex 14.998838 7.955701 7.499372
vertex 15.019316 7.934948 7.479372
endloop
endfacet
facet normal 0 0 0
outer loop
vertex 15.039791 7.934948 7.479372
vertex 15.019316 7.955701 7.479372
vertex 15.019316 7.955701 7.499372
endloop
endfacet
facet normal 0 0 0
outer loop
vertex 15.039791 7.934948 7.479372
vertex 15.019316 7.955701 7.499372
vertex 15.019316 7.934948 7.479372
endloop
endfacet
facet normal 0 0 0
outer loop
vertex 14.916935 7.955701 7.479372
vertex 14.896460 7.976455 7.499372
vertex 14.916935 7.976455 7.499372
endloop
endfacet
facet normal 0 0 0
outer loop
vertex 14.916935 7.955701 7.479372
vertex 14.916935 7.955701 7.499372
vertex 14.896460 7.976455 7.499372
endloop
endfacet
facet normal 0 0 0
outer loop
vertex 14.916935 7.955701 7.479372
vertex 14.916935 7.976455 7.499372
vertex 14.937412 7.976455 7.479372
endloop
endfacet
facet normal 0 0 0
outer loop
vertex 15.039791 7.976455 7.499372
vertex 15.019316 7.955701 7.499372
vertex 15.019316 7.976455 7.479372
endloop
endfacet
facet normal 0 0 0
outer loop
vertex 15.019316 7.955701 7.499372
vertex 15.019316 7.955701 7.479372
vertex 15.019316 7.976455 7.479372
endloop
endfacet
facet normal 0 0 0
outer loop
vertex 14.896460 7.976455 7.499372
vertex 14.916935 7.997208 7.499372
vertex 14.916935 7.976455 7.499372
endloop
endfacet
facet normal 0 0 0
outer loop
vertex 14.937412 7.976455 7.479372
vertex 14.916935 7.997208 7.499372
vertex 14.937412 7.997208 7.479372
endloop
endfacet
facet normal 0 0 0
outer loop
vertex 14.916935 7.976455 7.499372
vertex 14.916935 7.997208 7.499372
vertex 14.937412 7.976455 7.479372
endloop
endfacet
facet normal 0 0 0
outer loop
vertex 15.019316 7.976455 7.479372
vertex 14.998838 7.997208 7.499372
vertex 15.019316 7.976455 7.499372
endloop
endfacet
facet normal 0 0 0
outer loop
vertex 14.998838 7.997208 7.479372
vertex 14.998838 7.997208 7.499372
vertex 15.019316 7.976455 7.479372
endloop
endfacet
facet normal 0 0 0
outer loop
vertex 15.039791 7.976455 7.499372
vertex 15.019316 7.976455 7.479372
vertex 15.019316 7.976455 7.499372
endloop
endfacet
facet normal 0 0 0
outer loop
vertex 14.937412 7.997208 7.479372
vertex 14.916935 7.997208 7.499372
vertex 14.937412 7.997208 7.499372
endloop
endfacet
facet normal 0 0 0
outer loop
vertex 14.957888 7.997208 7.479372
vertex 14.937412 7.997208 7.479372
vertex 14.957888 7.997208 7.499372
endloop
endfacet
facet normal 0 0 0
outer loop
vertex 14.937412 7.997208 7.479372
vertex 14.937412 7.997208 7.499372
vertex 14.957888 7.997208 7.499372
endloop
endfacet
facet normal 0 0 0
outer loop
vertex 14.978363 7.997208 7.479372
vertex 14.957888 7.997208 7.479372
vertex 14.978363 7.997208 7.499372
endloop
endfacet
facet normal 0 0 0
outer loop
vertex 14.957888 7.997208 7.479372
vertex 14.957888 7.997208 7.499372
vertex 14.978363 7.997208 7.499372
endloop
endfacet
facet normal 0 0 0
outer loop
vertex 14.998838 7.997208 7.479372
vertex 14.978363 7.997208 7.479372
vertex 14.998838 7.997208 7.499372
endloop
endfacet
facet normal 0 0 0
outer loop
vertex 14.978363 7.997208 7.479372
vertex 14.978363 7.997208 7.499372
vertex 14.998838 7.997208 7.499372
endloop
endfacet
facet normal 0 0 0
outer loop
vertex 14.916935 7.934948 7.519372
vertex 14.937412 7.934948 7.499372
vertex 14.937412 7.934948 7.519372
endloop
endfacet
facet normal 0 0 0
outer loop
vertex 14.957888 7.934948 7.499372
vertex 14.957888 7.934948 7.519372
vertex 14.937412 7.934948 7.499372
endloop
endfacet
facet normal 0 0 0
outer loop
vertex 14.937412 7.934948 7.499372
vertex 14.957888 7.934948 7.519372
vertex 14.937412 7.934948 7.519372
endloop
endfacet
facet normal 0 0 0
outer loop
vertex 14.978363 7.914195 7.499372
vertex 14.978363 7.934948 7.519372
vertex 14.957888 7.934948 7.499372
endloop
endfacet
facet normal 0 0 0
outer loop
vertex 14.978363 7.934948 7.519372
vertex 14.957888 7.934948 7.519372
vertex 14.957888 7.934948 7.499372
endloop
endfacet
facet normal 0 0 0
outer loop
vertex 14.978363 7.934948 7.519372
vertex 14.978363 7.914195 7.499372
vertex 14.978363 7.934948 7.499372
endloop
endfacet
facet normal 0 0 0
outer loop
vertex 14.916935 7.934948 7.519372
vertex 14.896460 7.955701 7.519372
vertex 14.916935 7.955701 7.499372
endloop
endfacet
facet normal 0 0 0
outer loop
vertex 14.937412 7.934948 7.499372
vertex 14.916935 7.934948 7.519372
vertex 14.916935 7.955701 7.499372
endloop
endfacet
facet normal 0 0 0
outer loop
vertex 14.978363 7.934948 7.499372
vertex 14.998838 7.955701 7.519372
vertex 14.978363 7.934948 7.519372
endloop
endfacet
facet normal 0 0 0
outer loop
vertex 14.998838 7.955701 7.499372
vertex 14.998838 7.955701 7.519372
vertex 14.978363 7.934948 7.499372
endloop
endfacet
facet normal 0 0 0
outer loop
vertex 15.019316 7.955701 7.499372
vertex 15.019316 7.955701 7.519372
vertex 14.998838 7.955701 7.499372
endloop
endfacet
facet normal 0 0 0
outer loop
vertex 14.998838 7.955701 7.499372
vertex 15.019316 7.955701 7.519372
vertex 14.998838 7.955701 7.519372
endloop
endfacet
facet normal 0 0 0
outer loop
vertex 14.896460 7.976455 7.499372
vertex 14.896460 7.955701 7.519372
vertex 14.896460 7.976455 7.519372
endloop
endfacet
facet normal 0 0 0
outer loop
vertex 14.916935 7.955701 7.499372
vertex 14.896460 7.955701 7.519372
vertex 14.896460 7.976455 7.499372
endloop
endfacet
facet normal 0 0 0
outer loop
vertex 15.039791 7.976455 7.499372
vertex 15.019316 7.976455 7.519372
vertex 15.019316 7.955701 7.499372
endloop
endfacet
facet normal 0 0 0
outer loop
vertex 15.019316 7.976455 7.519372
vertex 15.019316 7.955701 7.519372
vertex 15.019316 7.955701 7.499372
endloop
endfacet
facet normal 0 0 0
outer loop
vertex 14.896460 7.997208 7.519372
vertex 14.896460 7.976455 7.499372
vertex 14.896460 7.976455 7.519372
endloop
endfacet
facet normal 0 0 0
outer loop
vertex 14.896460 7.976455 7.499372
vertex 14.896460 7.997208 7.519372
vertex 14.916935 7.997208 7.499372
endloop
endfacet
facet normal 0 0 0
outer loop
vertex 15.019316 7.976455 7.499372
vertex 14.998838 7.997208 7.519372
vertex 15.019316 7.976455 7.519372
endloop
endfacet
facet normal 0 0 0
outer loop
vertex 14.998838 7.997208 7.499372
vertex 14.998838 7.997208 7.519372
vertex 15.019316 7.976455 7.499372
endloop
endfacet
facet normal 0 0 0
outer loop
vertex 15.019316 7.976455 7.519372
vertex 15.039791 7.976455 7.499372
vertex 15.019316 7.976455 7.499372
endloop
endfacet
facet normal 0 0 0
outer loop
vertex 14.916935 7.997208 7.499372
vertex 14.896460 7.997208 7.519372
vertex 14.916935 7.997208 7.519372
endloop
endfacet
facet normal 0 0 0
outer loop
vertex 14.937412 8.017962 7.519372
vertex 14.937412 7.997208 7.499372
vertex 14.916935 7.997208 7.519372
endloop
endfacet
facet normal 0 0 0
outer loop
vertex 14.937412 7.997208 7.499372
vertex 14.916935 7.997208 7.499372
vertex 14.916935 7.997208 7.519372
endloop
endfacet
facet normal 0 0 0
outer loop
vertex 14.937412 7.997208 7.499372
vertex 14.957888 8.017962 7.519372
vertex 14.957888 7.997208 7.499372
endloop
endfacet
facet normal 0 0 0
outer loop
vertex 14.937412 8.017962 7.519372
vertex 14.957888 8.017962 7.519372
vertex 14.937412 7.997208 7.499372
endloop
endfacet
facet normal 0 0 0
outer loop
vertex 14.957888 8.017962 7.519372
vertex 14.978363 7.997208 7.519372
vertex 14.957888 7.997208 7.499372
endloop
endfacet
facet normal 0 0 0
outer loop
vertex 14.978363 7.997208 7.519372
vertex 14.978363 7.997208 7.499372
vertex 14.957888 7.997208 7.499372
endloop
endfacet
facet normal 0 0 0
outer loop
vertex 14.998838 7.997208 7.499372
vertex 14.978363 7.997208 7.499372
vertex 14.998838 7.997208 7.519372
endloop
endfacet
facet normal 0 0 0
outer loop
vertex 14.978363 7.997208 7.499372
vertex 14.978363 7.997208 7.519372
vertex 14.998838 7.997208 7.519372
endloop
endfacet
facet normal 0 0 0
outer loop
vertex 14.937412 7.934948 7.539372
vertex 14.916935 7.934948 7.519372
vertex 14.937412 7.934948 7.519372
endloop
endfacet
facet normal 0 0 0
outer loop
vertex 14.957888 7.934948 7.519372
vertex 14.957888 7.934948 7.539372
vertex 14.937412 7.934948 7.519372
endloop
endfacet
facet normal 0 0 0
outer loop
vertex 14.937412 7.934948 7.519372
vertex 14.957888 7.934948 7.539372
vertex 14.937412 7.934948 7.539372
endloop
endfacet
facet normal 0 0 0
outer loop
vertex 14.978363 7.934948 7.519372
vertex 14.978363 7.934948 7.539372
vertex 14.957888 7.934948 7.519372
endloop
endfacet
facet normal 0 0 0
outer loop
vertex 14.957888 7.934948 7.519372
vertex 14.978363 7.934948 7.539372
vertex 14.957888 7.934948 7.539372
endloop
endfacet
facet normal 0 0 0
outer loop
vertex 14.916935 7.934948 7.519372
vertex 14.916935 7.955701 7.539372
vertex 14.896460 7.955701 7.519372
endloop
endfacet
facet normal 0 0 0
outer loop
vertex 14.916935 7.955701 7.539372
vertex 14.896460 7.955701 7.539372
vertex 14.896460 7.955701 7.519372
endloop
endfacet
facet normal 0 0 0
outer loop
vertex 14.937412 7.934948 7.539372
vertex 14.916935 7.955701 7.539372
vertex 14.916935 7.934948 7.519372
endloop
endfacet
facet normal 0 0 0
outer loop
vertex 14.998838 7.955701 7.519372
vertex 14.978363 7.955701 7.539372
vertex 14.978363 7.934948 7.519372
endloop
endfacet
facet normal 0 0 0
outer loop
vertex 14.978363 7.955701 7.539372
vertex 14.978363 7.934948 7.539372
vertex 14.978363 7.934948 7.519372
endloop
endfacet
facet normal 0 0 0
outer loop
vertex 14.896460 7.955701 7.519372
vertex 14.896460 7.955701 7.539372
vertex 14.896460 7.976455 7.519372
endloop
endfacet
facet normal 0 0 0
outer loop
vertex 14.896460 7.955701 7.539372
vertex 14.896460 7.976455 7.539372
vertex 14.896460 7.976455 7.519372
endloop
endfacet
facet normal 0 0 0
outer loop
vertex 14.998838 7.955701 7.519372
vertex 14.998838 7.976455 7.539372
vertex 14.978363 7.955701 7.539372
endloop
endfacet
facet normal 0 0 0
outer loop
vertex 14.998838 7.976455 7.539372
vertex 14.998838 7.955701 7.519372
vertex 15.019316 7.976455 7.519372
endloop
endfacet
facet normal 0 0 0
outer loop
vertex 14.998838 7.955701 7.519372
vertex 15.019316 7.955701 7.519372
vertex 15.019316 7.976455 7.519372
endloop
endfacet
facet normal 0 0 0
outer loop
vertex 14.875984 7.997208 7.539372
vertex 14.896460 7.997208 7.519372
vertex 14.896460 7.976455 7.539372
endloop
endfacet
facet normal 0 0 0
outer loop
vertex 14.896460 7.997208 7.519372
vertex 14.896460 7.976455 7.519372
vertex 14.896460 7.976455 7.539372
endloop
endfacet
facet normal 0 0 0
outer loop
vertex 14.998838 7.997208 7.519372
vertex 14.978363 7.997208 7.539372
vertex 14.998838 7.976455 7.539372
endloop
endfacet
facet normal 0 0 0
outer loop
vertex 15.019316 7.976455 7.519372
vertex 14.998838 7.997208 7.519372
vertex 14.998838 7.976455 7.539372
endloop
endfacet
facet normal 0 0 0
outer loop
vertex 14.896460 7.997208 7.519372
vertex 14.875984 7.997208 7.539372
vertex 14.896460 8.017962 7.539372
endloop
endfacet
facet normal 0 0 0
outer loop
vertex 14.896460 7.997208 7.519372
vertex 14.916935 8.017962 7.539372
vertex 14.916935 7.997208 7.519372
endloop
endfacet
facet normal 0 0 0
outer loop
vertex 14.896460 8.017962 7.539372
vertex 14.916935 8.017962 7.539372
vertex 14.896460 7.997208 7.519372
endloop
endfacet
facet normal 0 0 0
outer loop
vertex 14.916935 7.997208 7.519372
vertex 14.916935 8.017962 7.539372
vertex 14.937412 8.017962 7.519372
endloop
endfacet
facet normal 0 0 0
outer loop
vertex 14.978363 7.997208 7.519372
vertex 14.957888 8.017962 7.539372
vertex 14.978363 7.997208 7.539372
endloop
endfacet
facet normal 0 0 0
outer loop
vertex 14.957888 8.017962 7.519372
vertex 14.957888 8.017962 7.539372
vertex 14.978363 7.997208 7.519372
endloop
endfacet
facet normal 0 0 0
outer loop
vertex 14.978363 7.997208 7.539372
vertex 14.998838 7.997208 7.519372
vertex 14.978363 7.997208 7.519372
endloop
endfacet
facet normal 0 0 0
outer loop
vertex 14.896460 8.038714 7.539372
vertex 14.916935 8.017962 7.539372
vertex 14.896460 8.017962 7.539372
endloop
endfacet
facet normal 0 0 0
outer loop
vertex 14.937412 8.017962 7.519372
vertex 14.916935 8.017962 7.539372
vertex 14.937412 8.017962 7.539372
endloop
endfacet
facet normal 0 0 0
outer loop
vertex 14.957888 8.017962 7.519372
vertex 14.937412 8.017962 7.519372
vertex 14.957888 8.017962 7.539372
endloop
endfacet
facet normal 0 0 0
outer loop
vertex 14.937412 8.017962 7.519372
vertex 14.937412 8.017962 7.539372
vertex 14.957888 8.017962 7.539372
endloop
endfacet
facet normal 0 0 0
outer loop
vertex 14.916935 7.955701 7.559372
vertex 14.896460 7.955701 7.539372
vertex 14.916935 7.955701 7.539372
endloop
endfacet
facet normal 0 0 0
outer loop
vertex 14.937412 7.934948 7.539372
vertex 14.937412 7.955701 7.559372
vertex 14.916935 7.955701 7.539372
endloop
endfacet
facet normal 0 0 0
outer loop
vertex 14.937412 7.955701 7.559372
vertex 14.916935 7.955701 7.559372
vertex 14.916935 7.955701 7.539372
endloop
endfacet
facet normal 0 0 0
outer loop
vertex 14.957888 7.934948 7.539372
vertex 14.937412 7.955701 7.559372
vertex 14.937412 7.934948 7.539372
endloop
endfacet
facet normal 0 0 0
outer loop
vertex 14.957888 7.955701 7.559372
vertex 14.937412 7.955701 7.559372
vertex 14.957888 7.934948 7.539372
endloop
endfacet
facet normal 0 0 0
outer loop
vertex 14.957888 7.955701 7.559372
vertex 14.957888 7.934948 7.539372
vertex 14.978363 7.955701 7.539372
endloop
endfacet
facet normal 0 0 0
outer loop
vertex 14.957888 7.934948 7.539372
vertex 14.978363 7.934948 7.539372
vertex 14.978363 7.955701 7.539372
endloop
endfacet
facet normal 0 0 0
outer loop
vertex 14.896460 7.955701 7.539372
vertex 14.896460 7.976455 7.559372
vertex 14.896460 7.976455 7.539372
endloop
endfacet
facet normal 0 0 0
outer loop
vertex 14.916935 7.955701 7.559372
vertex 14.896460 7.976455 7.559372
vertex 14.896460 7.955701 7.539372
endloop
endfacet
facet normal 0 0 0
outer loop
vertex 14.978363 7.955701 7.539372
vertex 14.978363 7.976455 7.559372
vertex 14.957888 7.955701 7.559372
endloop
endfacet
facet normal 0 0 0
outer loop
vertex 14.998838 7.976455 7.539372
vertex 14.978363 7.976455 7.559372
vertex 14.978363 7.955701 7.539372
endloop
endfacet
facet normal 0 0 0
outer loop
vertex 14.896460 7.976455 7.559372
vertex 14.875984 7.997208 7.539372
vertex 14.896460 7.976455 7.539372
endloop
endfacet
facet normal 0 0 0
outer loop
vertex 14.896460 7.976455 7.559372
vertex 14.896460 7.997208 7.539372
vertex 14.875984 7.997208 7.539372
endloop
endfacet
facet normal 0 0 0
outer loop
vertex 14.896460 7.976455 7.559372
vertex 14.916935 7.997208 7.559372
vertex 14.896460 7.997208 7.539372
endloop
endfacet
facet normal 0 0 0
outer loop
vertex 14.998838 7.976455 7.539372
vertex 14.978363 7.997208 7.539372
vertex 14.978363 7.976455 7.559372
endloop
endfacet
facet normal 0 0 0
outer loop
vertex 14.978363 7.997208 7.539372
vertex 14.978363 7.997208 7.559372
vertex 14.978363 7.976455 7.559372
endloop
endfacet
facet normal 0 0 0
outer loop
vertex 14.896460 8.017962 7.559372
vertex 14.875984 7.997208 7.539372
vertex 14.896460 7.997208 7.539372
endloop
endfacet
facet normal 0 0 0
outer loop
vertex 14.896460 8.017962 7.559372
vertex 14.896460 8.017962 7.539372
vertex 14.875984 7.997208 7.539372
endloop
endfacet
facet normal 0 0 0
outer loop
vertex 14.916935 7.997208 7.559372
vertex 14.896460 8.017962 7.559372
vertex 14.896460 7.997208 7.539372
endloop
endfacet
facet normal 0 0 0
outer loop
vertex 14.978363 7.997208 7.539372
vertex 14.957888 8.017962 7.539372
vertex 14.978363 8.017962 7.559372
endloop
endfacet
facet normal 0 0 0
outer loop
vertex 14.978363 7.997208 7.539372
vertex 14.978363 8.017962 7.559372
vertex 14.978363 7.997208 7.559372
endloop
endfacet
facet normal 0 0 0
outer loop
vertex 14.896460 8.017962 7.559372
vertex 14.896460 8.038714 7.539372
vertex 14.896460 8.017962 7.539372
endloop
endfacet
facet normal 0 0 0
outer loop
vertex 14.896460 8.038714 7.539372
vertex 14.896460 8.017962 7.559372
vertex 14.916935 8.017962 7.539372
endloop
endfacet
facet normal 0 0 0
outer loop
vertex 14.896460 8.017962 7.559372
vertex 14.916935 8.017962 7.559372
vertex 14.916935 8.017962 7.539372
endloop
endfacet
facet normal 0 0 0
outer loop
vertex 14.937412 8.017962 7.539372
vertex 14.916935 8.017962 7.539372
vertex 14.937412 8.017962 7.559372
endloop
endfacet
facet normal 0 0 0
outer loop
vertex 14.916935 8.017962 7.539372
vertex 14.916935 8.017962 7.559372
vertex 14.937412 8.017962 7.559372
endloop
endfacet
facet normal 0 0 0
outer loop
vertex 14.957888 8.038714 7.559372
vertex 14.957888 8.017962 7.539372
vertex 14.937412 8.017962 7.559372
endloop
endfacet
facet normal 0 0 0
outer loop
vertex 14.957888 8.017962 7.539372
vertex 14.937412 8.017962 7.539372
vertex 14.937412 8.017962 7.559372
endloop
endfacet
facet normal 0 0 0
outer loop
vertex 14.957888 8.017962 7.539372
vertex 14.957888 8.038714 7.559372
vertex 14.978363 8.017962 7.559372
endloop
endfacet
facet normal 0 0 0
outer loop
vertex 14.896460 7.976455 7.559372
vertex 14.916935 7.955701 7.559372
vertex 14.916935 7.976455 7.559372
endloop
endfacet
facet normal 0 0 0
outer loop
vertex 14.937412 7.955701 7.559372
vertex 14.937412 7.976455 7.559372
vertex 14.916935 7.955701 7.559372
endloop
endfacet
facet normal 0 0 0
outer loop
vertex 14.937412 7.976455 7.559372
vertex 14.916935 7.976455 7.559372
vertex 14.916935 7.955701 7.559372
endloop
endfacet
facet normal 0 0 0
outer loop
vertex 14.957888 7.955701 7.559372
vertex 14.957888 7.976455 7.559372
vertex 14.937412 7.955701 7.559372
endloop
endfacet
facet normal 0 0 0
outer loop
vertex 14.957888 7.976455 7.559372
vertex 14.937412 7.976455 7.559372
vertex 14.937412 7.955701 7.559372
endloop
endfacet
facet normal 0 0 0
outer loop
vertex 14.957888 7.955701 7.559372
vertex 14.978363 7.976455 7.559372
vertex 14.957888 7.976455 7.559372
endloop
endfacet
facet normal 0 0 0
outer loop
vertex 14.916935 7.997208 7.559372
vertex 14.896460 7.976455 7.559372
vertex 14.916935 7.976455 7.559372
endloop
endfacet
facet normal 0 0 0
outer loop
vertex 14.937412 7.976455 7.559372
vertex 14.937412 7.997208 7.559372
vertex 14.916935 7.976455 7.559372
endloop
endfacet
facet normal 0 0 0
outer loop
vertex 14.937412 7.997208 7.559372
vertex 14.916935 7.997208 7.559372
vertex 14.916935 7.976455 7.559372
endloop
endfacet
facet normal 0 0 0
outer loop
vertex 14.957888 7.976455 7.559372
vertex 14.957888 7.997208 7.559372
vertex 14.937412 7.976455 7.559372
endloop
endfacet
facet normal 0 0 0
outer loop
vertex 14.957888 7.997208 7.559372
vertex 14.937412 7.997208 7.559372
vertex 14.937412 7.976455 7.559372
endloop
endfacet
facet normal 0 0 0
outer loop
vertex 14.978363 7.976455 7.559372
vertex 14.978363 7.997208 7.559372
vertex 14.957888 7.976455 7.559372
endloop
endfacet
facet normal 0 0 0
outer loop
vertex 14.978363 7.997208 7.559372
vertex 14.957888 7.997208 7.559372
vertex 14.957888 7.976455 7.559372
endloop
endfacet
facet normal 0 0 0
outer loop
vertex 14.896460 8.017962 7.559372
vertex 14.916935 7.997208 7.559372
vertex 14.916935 8.017962 7.559372
endloop
endfacet
facet normal 0 0 0
outer loop
vertex 14.937412 7.997208 7.559372
vertex 14.937412 8.017962 7.559372
vertex 14.916935 7.997208 7.559372
endloop
endfacet
facet normal 0 0 0
outer loop
vertex 14.937412 8.017962 7.559372
vertex 14.916935 8.017962 7.559372
vertex 14.916935 7.997208 7.559372
endloop
endfacet
facet normal 0 0 0
outer loop
vertex 14.957888 7.997208 7.559372
vertex 14.957888 8.017962 7.559372
vertex 14.937412 7.997208 7.559372
endloop
endfacet
facet normal 0 0 0
outer loop
vertex 14.957888 8.017962 7.559372
vertex 14.937412 8.017962 7.559372
vertex 14.937412 7.997208 7.559372
endloop
endfacet
facet normal 0 0 0
outer loop
vertex 14.978363 7.997208 7.559372
vertex 14.978363 8.017962 7.559372
vertex 14.957888 7.997208 7.559372
endloop
endfacet
facet normal 0 0 0
outer loop
vertex 14.978363 8.017962 7.559372
vertex 14.957888 8.017962 7.559372
vertex 14.957888 7.997208 7.559372
endloop
endfacet
facet normal 0 0 0
outer loop
vertex 14.957888 8.038714 7.559372
vertex 14.937412 8.017962 7.559372
vertex 14.957888 8.017962 7.559372
endloop
endfacet
facet normal 0 0 0
outer loop
vertex 14.978363 8.017962 7.559372
vertex 14.957888 8.038714 7.559372
vertex 14.957888 8.017962 7.559372
endloop
endfacet
endsolid B-16-Plag.135
