solid B-16-Plag.206
facet normal 0 0 0
outer loop
vertex 7.729930 10.425346 9.239372
vertex 7.709455 10.446100 9.239372
vertex 7.729930 10.446100 9.239372
endloop
endfacet
facet normal 0 0 0
outer loop
vertex 7.688979 10.404593 9.259372
vertex 7.668503 10.383840 9.259372
vertex 7.668503 10.404593 9.259372
endloop
endfacet
facet normal 0 0 0
outer loop
vertex 7.648027 10.404593 9.259372
vertex 7.627552 10.425346 9.259372
vertex 7.648027 10.425346 9.259372
endloop
endfacet
facet normal 0 0 0
outer loop
vertex 7.668503 10.404593 9.259372
vertex 7.648027 10.404593 9.259372
vertex 7.668503 10.425346 9.259372
endloop
endfacet
facet normal 0 0 0
outer loop
vertex 7.668503 10.425346 9.259372
vertex 7.648027 10.404593 9.259372
vertex 7.648027 10.425346 9.259372
endloop
endfacet
facet normal 0 0 0
outer loop
vertex 7.688979 10.404593 9.259372
vertex 7.668503 10.404593 9.259372
vertex 7.688979 10.425346 9.259372
endloop
endfacet
facet normal 0 0 0
outer loop
vertex 7.688979 10.425346 9.259372
vertex 7.668503 10.404593 9.259372
vertex 7.668503 10.425346 9.259372
endloop
endfacet
facet normal 0 0 0
outer loop
vertex 7.709455 10.404593 9.259372
vertex 7.688979 10.404593 9.259372
vertex 7.709455 10.425346 9.259372
endloop
endfacet
facet normal 0 0 0
outer loop
vertex 7.709455 10.425346 9.259372
vertex 7.688979 10.404593 9.259372
vertex 7.688979 10.425346 9.259372
endloop
endfacet
facet normal 0 0 0
outer loop
vertex 7.729930 10.425346 9.239372
vertex 7.729930 10.404593 9.259372
vertex 7.709455 10.425346 9.259372
endloop
endfacet
facet normal 0 0 0
outer loop
vertex 7.729930 10.404593 9.259372
vertex 7.709455 10.404593 9.259372
vertex 7.709455 10.425346 9.259372
endloop
endfacet
facet normal 0 0 0
outer loop
vertex 7.729930 10.425346 9.239372
vertex 7.750407 10.425346 9.259372
vertex 7.729930 10.404593 9.259372
endloop
endfacet
facet normal 0 0 0
outer loop
vertex 7.750407 10.425346 9.259372
vertex 7.750407 10.404593 9.259372
vertex 7.729930 10.404593 9.259372
endloop
endfacet
facet normal 0 0 0
outer loop
vertex 7.770882 10.425346 9.259372
vertex 7.750407 10.404593 9.259372
vertex 7.750407 10.425346 9.259372
endloop
endfacet
facet normal 0 0 0
outer loop
vertex 7.627552 10.425346 9.259372
vertex 7.648027 10.446100 9.259372
vertex 7.648027 10.425346 9.259372
endloop
endfacet
facet normal 0 0 0
outer loop
vertex 7.668503 10.425346 9.259372
vertex 7.648027 10.425346 9.259372
vertex 7.668503 10.446100 9.259372
endloop
endfacet
facet normal 0 0 0
outer loop
vertex 7.668503 10.446100 9.259372
vertex 7.648027 10.425346 9.259372
vertex 7.648027 10.446100 9.259372
endloop
endfacet
facet normal 0 0 0
outer loop
vertex 7.688979 10.446100 9.239372
vertex 7.688979 10.425346 9.259372
vertex 7.668503 10.446100 9.259372
endloop
endfacet
facet normal 0 0 0
outer loop
vertex 7.688979 10.425346 9.259372
vertex 7.668503 10.425346 9.259372
vertex 7.668503 10.446100 9.259372
endloop
endfacet
facet normal 0 0 0
outer loop
vertex 7.709455 10.446100 9.239372
vertex 7.688979 10.425346 9.259372
vertex 7.688979 10.446100 9.239372
endloop
endfacet
facet normal 0 0 0
outer loop
vertex 7.709455 10.425346 9.259372
vertex 7.688979 10.425346 9.259372
vertex 7.709455 10.446100 9.239372
endloop
endfacet
facet normal 0 0 0
outer loop
vertex 7.729930 10.425346 9.239372
vertex 7.709455 10.425346 9.259372
vertex 7.709455 10.446100 9.239372
endloop
endfacet
facet normal 0 0 0
outer loop
vertex 7.750407 10.425346 9.259372
vertex 7.729930 10.446100 9.239372
vertex 7.750407 10.446100 9.259372
endloop
endfacet
facet normal 0 0 0
outer loop
vertex 7.729930 10.425346 9.239372
vertex 7.729930 10.446100 9.239372
vertex 7.750407 10.425346 9.259372
endloop
endfacet
facet normal 0 0 0
outer loop
vertex 7.770882 10.425346 9.259372
vertex 7.750407 10.425346 9.259372
vertex 7.770882 10.446100 9.259372
endloop
endfacet
facet normal 0 0 0
outer loop
vertex 7.770882 10.446100 9.259372
vertex 7.750407 10.425346 9.259372
vertex 7.750407 10.446100 9.259372
endloop
endfacet
facet normal 0 0 0
outer loop
vertex 7.770882 10.446100 9.259372
vertex 7.791358 10.425346 9.259372
vertex 7.770882 10.425346 9.259372
endloop
endfacet
facet normal 0 0 0
outer loop
vertex 7.688979 10.446100 9.239372
vertex 7.668503 10.446100 9.259372
vertex 7.688979 10.466853 9.259372
endloop
endfacet
facet normal 0 0 0
outer loop
vertex 7.688979 10.446100 9.239372
vertex 7.709455 10.466853 9.259372
vertex 7.709455 10.446100 9.239372
endloop
endfacet
facet normal 0 0 0
outer loop
vertex 7.688979 10.466853 9.259372
vertex 7.709455 10.466853 9.259372
vertex 7.688979 10.446100 9.239372
endloop
endfacet
facet normal 0 0 0
outer loop
vertex 7.709455 10.466853 9.259372
vertex 7.729930 10.446100 9.259372
vertex 7.709455 10.446100 9.239372
endloop
endfacet
facet normal 0 0 0
outer loop
vertex 7.729930 10.446100 9.259372
vertex 7.729930 10.446100 9.239372
vertex 7.709455 10.446100 9.239372
endloop
endfacet
facet normal 0 0 0
outer loop
vertex 7.750407 10.446100 9.259372
vertex 7.729930 10.446100 9.239372
vertex 7.729930 10.446100 9.259372
endloop
endfacet
facet normal 0 0 0
outer loop
vertex 7.648027 10.404593 9.259372
vertex 7.668503 10.383840 9.259372
vertex 7.668503 10.404593 9.259372
endloop
endfacet
facet normal 0 0 0
outer loop
vertex 7.668503 10.383840 9.259372
vertex 7.688979 10.404593 9.279371
vertex 7.668503 10.404593 9.259372
endloop
endfacet
facet normal 0 0 0
outer loop
vertex 7.668503 10.383840 9.259372
vertex 7.688979 10.404593 9.259372
vertex 7.688979 10.404593 9.279371
endloop
endfacet
facet normal 0 0 0
outer loop
vertex 7.709455 10.404593 9.259372
vertex 7.709455 10.404593 9.279371
vertex 7.688979 10.404593 9.259372
endloop
endfacet
facet normal 0 0 0
outer loop
vertex 7.688979 10.404593 9.259372
vertex 7.709455 10.404593 9.279371
vertex 7.688979 10.404593 9.279371
endloop
endfacet
facet normal 0 0 0
outer loop
vertex 7.729930 10.404593 9.259372
vertex 7.729930 10.404593 9.279371
vertex 7.709455 10.404593 9.259372
endloop
endfacet
facet normal 0 0 0
outer loop
vertex 7.709455 10.404593 9.259372
vertex 7.729930 10.404593 9.279371
vertex 7.709455 10.404593 9.279371
endloop
endfacet
facet normal 0 0 0
outer loop
vertex 7.750407 10.404593 9.259372
vertex 7.729930 10.404593 9.279371
vertex 7.729930 10.404593 9.259372
endloop
endfacet
facet normal 0 0 0
outer loop
vertex 7.648027 10.404593 9.259372
vertex 7.648027 10.425346 9.279371
vertex 7.627552 10.425346 9.259372
endloop
endfacet
facet normal 0 0 0
outer loop
vertex 7.648027 10.425346 9.279371
vertex 7.627552 10.425346 9.279371
vertex 7.627552 10.425346 9.259372
endloop
endfacet
facet normal 0 0 0
outer loop
vertex 7.668503 10.404593 9.259372
vertex 7.648027 10.425346 9.279371
vertex 7.648027 10.404593 9.259372
endloop
endfacet
facet normal 0 0 0
outer loop
vertex 7.668503 10.425346 9.279371
vertex 7.648027 10.425346 9.279371
vertex 7.668503 10.404593 9.259372
endloop
endfacet
facet normal 0 0 0
outer loop
vertex 7.688979 10.404593 9.279371
vertex 7.668503 10.425346 9.279371
vertex 7.668503 10.404593 9.259372
endloop
endfacet
facet normal 0 0 0
outer loop
vertex 7.750407 10.404593 9.259372
vertex 7.750407 10.425346 9.279371
vertex 7.729930 10.404593 9.279371
endloop
endfacet
facet normal 0 0 0
outer loop
vertex 7.770882 10.425346 9.259372
vertex 7.750407 10.425346 9.279371
vertex 7.750407 10.404593 9.259372
endloop
endfacet
facet normal 0 0 0
outer loop
vertex 7.627552 10.446100 9.279371
vertex 7.627552 10.425346 9.259372
vertex 7.627552 10.425346 9.279371
endloop
endfacet
facet normal 0 0 0
outer loop
vertex 7.627552 10.425346 9.259372
vertex 7.627552 10.446100 9.279371
vertex 7.648027 10.446100 9.259372
endloop
endfacet
facet normal 0 0 0
outer loop
vertex 7.770882 10.425346 9.259372
vertex 7.770882 10.446100 9.279371
vertex 7.750407 10.425346 9.279371
endloop
endfacet
facet normal 0 0 0
outer loop
vertex 7.791358 10.425346 9.259372
vertex 7.770882 10.446100 9.259372
vertex 7.770882 10.446100 9.279371
endloop
endfacet
facet normal 0 0 0
outer loop
vertex 7.791358 10.425346 9.259372
vertex 7.770882 10.446100 9.279371
vertex 7.770882 10.425346 9.259372
endloop
endfacet
facet normal 0 0 0
outer loop
vertex 7.648027 10.446100 9.259372
vertex 7.627552 10.446100 9.279371
vertex 7.648027 10.466853 9.279371
endloop
endfacet
facet normal 0 0 0
outer loop
vertex 7.627552 10.446100 9.279371
vertex 7.627552 10.466853 9.279371
vertex 7.648027 10.466853 9.279371
endloop
endfacet
facet normal 0 0 0
outer loop
vertex 7.648027 10.446100 9.259372
vertex 7.668503 10.466853 9.279371
vertex 7.668503 10.446100 9.259372
endloop
endfacet
facet normal 0 0 0
outer loop
vertex 7.648027 10.466853 9.279371
vertex 7.668503 10.466853 9.279371
vertex 7.648027 10.446100 9.259372
endloop
endfacet
facet normal 0 0 0
outer loop
vertex 7.668503 10.446100 9.259372
vertex 7.668503 10.466853 9.279371
vertex 7.688979 10.466853 9.259372
endloop
endfacet
facet normal 0 0 0
outer loop
vertex 7.729930 10.446100 9.259372
vertex 7.709455 10.466853 9.259372
vertex 7.729930 10.466853 9.279371
endloop
endfacet
facet normal 0 0 0
outer loop
vertex 7.729930 10.446100 9.259372
vertex 7.750407 10.466853 9.279371
vertex 7.750407 10.446100 9.259372
endloop
endfacet
facet normal 0 0 0
outer loop
vertex 7.729930 10.466853 9.279371
vertex 7.750407 10.466853 9.279371
vertex 7.729930 10.446100 9.259372
endloop
endfacet
facet normal 0 0 0
outer loop
vertex 7.750407 10.446100 9.259372
vertex 7.770882 10.466853 9.279371
vertex 7.770882 10.446100 9.259372
endloop
endfacet
facet normal 0 0 0
outer loop
vertex 7.750407 10.466853 9.279371
vertex 7.770882 10.466853 9.279371
vertex 7.750407 10.446100 9.259372
endloop
endfacet
facet normal 0 0 0
outer loop
vertex 7.770882 10.446100 9.259372
vertex 7.770882 10.466853 9.279371
vertex 7.770882 10.446100 9.279371
endloop
endfacet
facet normal 0 0 0
outer loop
vertex 7.648027 10.466853 9.279371
vertex 7.668503 10.487607 9.279371
vertex 7.668503 10.466853 9.279371
endloop
endfacet
facet normal 0 0 0
outer loop
vertex 7.688979 10.466853 9.259372
vertex 7.668503 10.466853 9.279371
vertex 7.688979 10.487607 9.279371
endloop
endfacet
facet normal 0 0 0
outer loop
vertex 7.668503 10.466853 9.279371
vertex 7.668503 10.487607 9.279371
vertex 7.688979 10.487607 9.279371
endloop
endfacet
facet normal 0 0 0
outer loop
vertex 7.688979 10.466853 9.259372
vertex 7.709455 10.487607 9.279371
vertex 7.709455 10.466853 9.259372
endloop
endfacet
facet normal 0 0 0
outer loop
vertex 7.688979 10.487607 9.279371
vertex 7.709455 10.487607 9.279371
vertex 7.688979 10.466853 9.259372
endloop
endfacet
facet normal 0 0 0
outer loop
vertex 7.709455 10.466853 9.259372
vertex 7.709455 10.487607 9.279371
vertex 7.729930 10.466853 9.279371
endloop
endfacet
facet normal 0 0 0
outer loop
vertex 7.709455 10.487607 9.279371
vertex 7.729930 10.487607 9.279371
vertex 7.729930 10.466853 9.279371
endloop
endfacet
facet normal 0 0 0
outer loop
vertex 7.750407 10.466853 9.279371
vertex 7.729930 10.466853 9.279371
vertex 7.750407 10.487607 9.279371
endloop
endfacet
facet normal 0 0 0
outer loop
vertex 7.750407 10.487607 9.279371
vertex 7.729930 10.466853 9.279371
vertex 7.729930 10.487607 9.279371
endloop
endfacet
facet normal 0 0 0
outer loop
vertex 7.750407 10.487607 9.279371
vertex 7.770882 10.466853 9.279371
vertex 7.750407 10.466853 9.279371
endloop
endfacet
facet normal 0 0 0
outer loop
vertex 7.668503 10.404593 9.299372
vertex 7.688979 10.404593 9.279371
vertex 7.688979 10.404593 9.299372
endloop
endfacet
facet normal 0 0 0
outer loop
vertex 7.709455 10.404593 9.279371
vertex 7.709455 10.404593 9.299372
vertex 7.688979 10.404593 9.279371
endloop
endfacet
facet normal 0 0 0
outer loop
vertex 7.688979 10.404593 9.279371
vertex 7.709455 10.404593 9.299372
vertex 7.688979 10.404593 9.299372
endloop
endfacet
facet normal 0 0 0
outer loop
vertex 7.729930 10.404593 9.279371
vertex 7.729930 10.404593 9.299372
vertex 7.709455 10.404593 9.279371
endloop
endfacet
facet normal 0 0 0
outer loop
vertex 7.709455 10.404593 9.279371
vertex 7.729930 10.404593 9.299372
vertex 7.709455 10.404593 9.299372
endloop
endfacet
facet normal 0 0 0
outer loop
vertex 7.648027 10.404593 9.299372
vertex 7.627552 10.425346 9.299372
vertex 7.648027 10.425346 9.279371
endloop
endfacet
facet normal 0 0 0
outer loop
vertex 7.627552 10.425346 9.299372
vertex 7.627552 10.425346 9.279371
vertex 7.648027 10.425346 9.279371
endloop
endfacet
facet normal 0 0 0
outer loop
vertex 7.668503 10.425346 9.279371
vertex 7.648027 10.404593 9.299372
vertex 7.648027 10.425346 9.279371
endloop
endfacet
facet normal 0 0 0
outer loop
vertex 7.668503 10.404593 9.299372
vertex 7.648027 10.404593 9.299372
vertex 7.668503 10.425346 9.279371
endloop
endfacet
facet normal 0 0 0
outer loop
vertex 7.688979 10.404593 9.279371
vertex 7.668503 10.404593 9.299372
vertex 7.668503 10.425346 9.279371
endloop
endfacet
facet normal 0 0 0
outer loop
vertex 7.729930 10.404593 9.279371
vertex 7.750407 10.425346 9.299372
vertex 7.729930 10.404593 9.299372
endloop
endfacet
facet normal 0 0 0
outer loop
vertex 7.750407 10.425346 9.279371
vertex 7.750407 10.425346 9.299372
vertex 7.729930 10.404593 9.279371
endloop
endfacet
facet normal 0 0 0
outer loop
vertex 7.750407 10.425346 9.279371
vertex 7.770882 10.425346 9.299372
vertex 7.750407 10.425346 9.299372
endloop
endfacet
facet normal 0 0 0
outer loop
vertex 7.627552 10.425346 9.299372
vertex 7.627552 10.446100 9.279371
vertex 7.627552 10.425346 9.279371
endloop
endfacet
facet normal 0 0 0
outer loop
vertex 7.627552 10.425346 9.299372
vertex 7.648027 10.446100 9.299372
vertex 7.627552 10.446100 9.279371
endloop
endfacet
facet normal 0 0 0
outer loop
vertex 7.750407 10.425346 9.279371
vertex 7.770882 10.446100 9.279371
vertex 7.770882 10.425346 9.299372
endloop
endfacet
facet normal 0 0 0
outer loop
vertex 7.791358 10.425346 9.299372
vertex 7.770882 10.425346 9.299372
vertex 7.770882 10.446100 9.279371
endloop
endfacet
facet normal 0 0 0
outer loop
vertex 7.791358 10.425346 9.299372
vertex 7.770882 10.446100 9.279371
vertex 7.770882 10.446100 9.299372
endloop
endfacet
facet normal 0 0 0
outer loop
vertex 7.648027 10.466853 9.299372
vertex 7.627552 10.446100 9.279371
vertex 7.648027 10.446100 9.299372
endloop
endfacet
facet normal 0 0 0
outer loop
vertex 7.627552 10.466853 9.279371
vertex 7.627552 10.446100 9.279371
vertex 7.648027 10.466853 9.299372
endloop
endfacet
facet normal 0 0 0
outer loop
vertex 7.791358 10.466853 9.299372
vertex 7.770882 10.446100 9.299372
vertex 7.770882 10.466853 9.279371
endloop
endfacet
facet normal 0 0 0
outer loop
vertex 7.770882 10.446100 9.299372
vertex 7.770882 10.446100 9.279371
vertex 7.770882 10.466853 9.279371
endloop
endfacet
facet normal 0 0 0
outer loop
vertex 7.627552 10.466853 9.279371
vertex 7.648027 10.487607 9.299372
vertex 7.648027 10.466853 9.279371
endloop
endfacet
facet normal 0 0 0
outer loop
vertex 7.627552 10.466853 9.279371
vertex 7.648027 10.466853 9.299372
vertex 7.648027 10.487607 9.299372
endloop
endfacet
facet normal 0 0 0
outer loop
vertex 7.648027 10.466853 9.279371
vertex 7.648027 10.487607 9.299372
vertex 7.668503 10.487607 9.279371
endloop
endfacet
facet normal 0 0 0
outer loop
vertex 7.770882 10.466853 9.279371
vertex 7.750407 10.487607 9.279371
vertex 7.770882 10.487607 9.299372
endloop
endfacet
facet normal 0 0 0
outer loop
vertex 7.770882 10.466853 9.279371
vertex 7.770882 10.487607 9.299372
vertex 7.791358 10.466853 9.299372
endloop
endfacet
facet normal 0 0 0
outer loop
vertex 7.668503 10.487607 9.279371
vertex 7.648027 10.487607 9.299372
vertex 7.668503 10.487607 9.299372
endloop
endfacet
facet normal 0 0 0
outer loop
vertex 7.688979 10.487607 9.279371
vertex 7.668503 10.487607 9.279371
vertex 7.688979 10.487607 9.299372
endloop
endfacet
facet normal 0 0 0
outer loop
vertex 7.668503 10.487607 9.279371
vertex 7.668503 10.487607 9.299372
vertex 7.688979 10.487607 9.299372
endloop
endfacet
facet normal 0 0 0
outer loop
vertex 7.709455 10.487607 9.279371
vertex 7.688979 10.487607 9.279371
vertex 7.709455 10.487607 9.299372
endloop
endfacet
facet normal 0 0 0
outer loop
vertex 7.688979 10.487607 9.279371
vertex 7.688979 10.487607 9.299372
vertex 7.709455 10.487607 9.299372
endloop
endfacet
facet normal 0 0 0
outer loop
vertex 7.729930 10.508360 9.299372
vertex 7.729930 10.487607 9.279371
vertex 7.709455 10.487607 9.299372
endloop
endfacet
facet normal 0 0 0
outer loop
vertex 7.729930 10.487607 9.279371
vertex 7.709455 10.487607 9.279371
vertex 7.709455 10.487607 9.299372
endloop
endfacet
facet normal 0 0 0
outer loop
vertex 7.729930 10.487607 9.279371
vertex 7.750407 10.508360 9.299372
vertex 7.750407 10.487607 9.279371
endloop
endfacet
facet normal 0 0 0
outer loop
vertex 7.729930 10.508360 9.299372
vertex 7.750407 10.508360 9.299372
vertex 7.729930 10.487607 9.279371
endloop
endfacet
facet normal 0 0 0
outer loop
vertex 7.750407 10.487607 9.279371
vertex 7.750407 10.508360 9.299372
vertex 7.770882 10.487607 9.299372
endloop
endfacet
facet normal 0 0 0
outer loop
vertex 7.668503 10.404593 9.299372
vertex 7.668503 10.404593 9.319372
vertex 7.648027 10.404593 9.299372
endloop
endfacet
facet normal 0 0 0
outer loop
vertex 7.648027 10.404593 9.299372
vertex 7.668503 10.404593 9.319372
vertex 7.648027 10.404593 9.319372
endloop
endfacet
facet normal 0 0 0
outer loop
vertex 7.688979 10.404593 9.299372
vertex 7.688979 10.404593 9.319372
vertex 7.668503 10.404593 9.299372
endloop
endfacet
facet normal 0 0 0
outer loop
vertex 7.668503 10.404593 9.299372
vertex 7.688979 10.404593 9.319372
vertex 7.668503 10.404593 9.319372
endloop
endfacet
facet normal 0 0 0
outer loop
vertex 7.709455 10.404593 9.299372
vertex 7.709455 10.404593 9.319372
vertex 7.688979 10.404593 9.299372
endloop
endfacet
facet normal 0 0 0
outer loop
vertex 7.688979 10.404593 9.299372
vertex 7.709455 10.404593 9.319372
vertex 7.688979 10.404593 9.319372
endloop
endfacet
facet normal 0 0 0
outer loop
vertex 7.729930 10.404593 9.299372
vertex 7.729930 10.404593 9.319372
vertex 7.709455 10.404593 9.299372
endloop
endfacet
facet normal 0 0 0
outer loop
vertex 7.709455 10.404593 9.299372
vertex 7.729930 10.404593 9.319372
vertex 7.709455 10.404593 9.319372
endloop
endfacet
facet normal 0 0 0
outer loop
vertex 7.607076 10.425346 9.319372
vertex 7.627552 10.425346 9.299372
vertex 7.627552 10.425346 9.319372
endloop
endfacet
facet normal 0 0 0
outer loop
vertex 7.648027 10.404593 9.319372
vertex 7.627552 10.425346 9.299372
vertex 7.648027 10.404593 9.299372
endloop
endfacet
facet normal 0 0 0
outer loop
vertex 7.627552 10.425346 9.319372
vertex 7.627552 10.425346 9.299372
vertex 7.648027 10.404593 9.319372
endloop
endfacet
facet normal 0 0 0
outer loop
vertex 7.729930 10.404593 9.299372
vertex 7.750407 10.425346 9.319372
vertex 7.729930 10.404593 9.319372
endloop
endfacet
facet normal 0 0 0
outer loop
vertex 7.750407 10.425346 9.299372
vertex 7.750407 10.425346 9.319372
vertex 7.729930 10.404593 9.299372
endloop
endfacet
facet normal 0 0 0
outer loop
vertex 7.770882 10.425346 9.299372
vertex 7.750407 10.425346 9.319372
vertex 7.750407 10.425346 9.299372
endloop
endfacet
facet normal 0 0 0
outer loop
vertex 7.627552 10.425346 9.299372
vertex 7.607076 10.425346 9.319372
vertex 7.627552 10.446100 9.319372
endloop
endfacet
facet normal 0 0 0
outer loop
vertex 7.627552 10.425346 9.299372
vertex 7.627552 10.446100 9.319372
vertex 7.648027 10.446100 9.299372
endloop
endfacet
facet normal 0 0 0
outer loop
vertex 7.770882 10.425346 9.299372
vertex 7.770882 10.446100 9.319372
vertex 7.750407 10.425346 9.319372
endloop
endfacet
facet normal 0 0 0
outer loop
vertex 7.791358 10.425346 9.299372
vertex 7.770882 10.446100 9.299372
vertex 7.770882 10.446100 9.319372
endloop
endfacet
facet normal 0 0 0
outer loop
vertex 7.791358 10.425346 9.299372
vertex 7.770882 10.446100 9.319372
vertex 7.770882 10.425346 9.299372
endloop
endfacet
facet normal 0 0 0
outer loop
vertex 7.627552 10.446100 9.319372
vertex 7.648027 10.466853 9.319372
vertex 7.648027 10.446100 9.299372
endloop
endfacet
facet normal 0 0 0
outer loop
vertex 7.648027 10.466853 9.319372
vertex 7.648027 10.466853 9.299372
vertex 7.648027 10.446100 9.299372
endloop
endfacet
facet normal 0 0 0
outer loop
vertex 7.791358 10.466853 9.299372
vertex 7.770882 10.466853 9.319372
vertex 7.770882 10.446100 9.299372
endloop
endfacet
facet normal 0 0 0
outer loop
vertex 7.770882 10.466853 9.319372
vertex 7.770882 10.446100 9.319372
vertex 7.770882 10.446100 9.299372
endloop
endfacet
facet normal 0 0 0
outer loop
vertex 7.648027 10.466853 9.319372
vertex 7.648027 10.487607 9.299372
vertex 7.648027 10.466853 9.299372
endloop
endfacet
facet normal 0 0 0
outer loop
vertex 7.648027 10.466853 9.319372
vertex 7.668503 10.487607 9.319372
vertex 7.648027 10.487607 9.299372
endloop
endfacet
facet normal 0 0 0
outer loop
vertex 7.770882 10.487607 9.299372
vertex 7.750407 10.487607 9.319372
vertex 7.770882 10.466853 9.319372
endloop
endfacet
facet normal 0 0 0
outer loop
vertex 7.791358 10.466853 9.299372
vertex 7.770882 10.487607 9.299372
vertex 7.770882 10.466853 9.319372
endloop
endfacet
facet normal 0 0 0
outer loop
vertex 7.648027 10.487607 9.299372
vertex 7.668503 10.487607 9.319372
vertex 7.668503 10.487607 9.299372
endloop
endfacet
facet normal 0 0 0
outer loop
vertex 7.688979 10.487607 9.299372
vertex 7.668503 10.487607 9.299372
vertex 7.688979 10.487607 9.319372
endloop
endfacet
facet normal 0 0 0
outer loop
vertex 7.668503 10.487607 9.299372
vertex 7.668503 10.487607 9.319372
vertex 7.688979 10.487607 9.319372
endloop
endfacet
facet normal 0 0 0
outer loop
vertex 7.709455 10.487607 9.299372
vertex 7.688979 10.487607 9.299372
vertex 7.709455 10.487607 9.319372
endloop
endfacet
facet normal 0 0 0
outer loop
vertex 7.688979 10.487607 9.299372
vertex 7.688979 10.487607 9.319372
vertex 7.709455 10.487607 9.319372
endloop
endfacet
facet normal 0 0 0
outer loop
vertex 7.729930 10.508360 9.299372
vertex 7.709455 10.487607 9.299372
vertex 7.729930 10.487607 9.319372
endloop
endfacet
facet normal 0 0 0
outer loop
vertex 7.709455 10.487607 9.299372
vertex 7.709455 10.487607 9.319372
vertex 7.729930 10.487607 9.319372
endloop
endfacet
facet normal 0 0 0
outer loop
vertex 7.729930 10.508360 9.299372
vertex 7.750407 10.487607 9.319372
vertex 7.750407 10.508360 9.299372
endloop
endfacet
facet normal 0 0 0
outer loop
vertex 7.729930 10.487607 9.319372
vertex 7.750407 10.487607 9.319372
vertex 7.729930 10.508360 9.299372
endloop
endfacet
facet normal 0 0 0
outer loop
vertex 7.770882 10.487607 9.299372
vertex 7.750407 10.508360 9.299372
vertex 7.750407 10.487607 9.319372
endloop
endfacet
facet normal 0 0 0
outer loop
vertex 7.688979 10.404593 9.339372
vertex 7.668503 10.404593 9.319372
vertex 7.688979 10.404593 9.319372
endloop
endfacet
facet normal 0 0 0
outer loop
vertex 7.709455 10.404593 9.319372
vertex 7.688979 10.404593 9.339372
vertex 7.688979 10.404593 9.319372
endloop
endfacet
facet normal 0 0 0
outer loop
vertex 7.627552 10.425346 9.339372
vertex 7.607076 10.425346 9.319372
vertex 7.627552 10.425346 9.319372
endloop
endfacet
facet normal 0 0 0
outer loop
vertex 7.648027 10.404593 9.319372
vertex 7.648027 10.425346 9.339372
vertex 7.627552 10.425346 9.319372
endloop
endfacet
facet normal 0 0 0
outer loop
vertex 7.648027 10.425346 9.339372
vertex 7.627552 10.425346 9.339372
vertex 7.627552 10.425346 9.319372
endloop
endfacet
facet normal 0 0 0
outer loop
vertex 7.668503 10.404593 9.319372
vertex 7.648027 10.425346 9.339372
vertex 7.648027 10.404593 9.319372
endloop
endfacet
facet normal 0 0 0
outer loop
vertex 7.668503 10.425346 9.339372
vertex 7.648027 10.425346 9.339372
vertex 7.668503 10.404593 9.319372
endloop
endfacet
facet normal 0 0 0
outer loop
vertex 7.688979 10.404593 9.339372
vertex 7.668503 10.425346 9.339372
vertex 7.668503 10.404593 9.319372
endloop
endfacet
facet normal 0 0 0
outer loop
vertex 7.709455 10.404593 9.319372
vertex 7.709455 10.425346 9.339372
vertex 7.688979 10.404593 9.339372
endloop
endfacet
facet normal 0 0 0
outer loop
vertex 7.729930 10.404593 9.319372
vertex 7.709455 10.425346 9.339372
vertex 7.709455 10.404593 9.319372
endloop
endfacet
facet normal 0 0 0
outer loop
vertex 7.729930 10.425346 9.339372
vertex 7.709455 10.425346 9.339372
vertex 7.729930 10.404593 9.319372
endloop
endfacet
facet normal 0 0 0
outer loop
vertex 7.729930 10.404593 9.319372
vertex 7.750407 10.425346 9.319372
vertex 7.729930 10.425346 9.339372
endloop
endfacet
facet normal 0 0 0
outer loop
vertex 7.750407 10.425346 9.319372
vertex 7.750407 10.425346 9.339372
vertex 7.729930 10.425346 9.339372
endloop
endfacet
facet normal 0 0 0
outer loop
vertex 7.607076 10.425346 9.319372
vertex 7.627552 10.425346 9.339372
vertex 7.627552 10.446100 9.319372
endloop
endfacet
facet normal 0 0 0
outer loop
vertex 7.627552 10.425346 9.339372
vertex 7.627552 10.446100 9.339372
vertex 7.627552 10.446100 9.319372
endloop
endfacet
facet normal 0 0 0
outer loop
vertex 7.770882 10.446100 9.319372
vertex 7.750407 10.446100 9.339372
vertex 7.750407 10.425346 9.319372
endloop
endfacet
facet normal 0 0 0
outer loop
vertex 7.750407 10.446100 9.339372
vertex 7.750407 10.425346 9.339372
vertex 7.750407 10.425346 9.319372
endloop
endfacet
facet normal 0 0 0
outer loop
vertex 7.627552 10.446100 9.339372
vertex 7.648027 10.466853 9.319372
vertex 7.627552 10.446100 9.319372
endloop
endfacet
facet normal 0 0 0
outer loop
vertex 7.648027 10.466853 9.339372
vertex 7.648027 10.466853 9.319372
vertex 7.627552 10.446100 9.339372
endloop
endfacet
facet normal 0 0 0
outer loop
vertex 7.770882 10.466853 9.319372
vertex 7.750407 10.446100 9.339372
vertex 7.770882 10.446100 9.319372
endloop
endfacet
facet normal 0 0 0
outer loop
vertex 7.750407 10.466853 9.339372
vertex 7.750407 10.446100 9.339372
vertex 7.770882 10.466853 9.319372
endloop
endfacet
facet normal 0 0 0
outer loop
vertex 7.648027 10.466853 9.339372
vertex 7.668503 10.487607 9.319372
vertex 7.648027 10.466853 9.319372
endloop
endfacet
facet normal 0 0 0
outer loop
vertex 7.668503 10.487607 9.339372
vertex 7.668503 10.487607 9.319372
vertex 7.648027 10.466853 9.339372
endloop
endfacet
facet normal 0 0 0
outer loop
vertex 7.729930 10.487607 9.319372
vertex 7.709455 10.487607 9.339372
vertex 7.729930 10.466853 9.339372
endloop
endfacet
facet normal 0 0 0
outer loop
vertex 7.729930 10.466853 9.339372
vertex 7.750407 10.487607 9.339372
vertex 7.729930 10.487607 9.319372
endloop
endfacet
facet normal 0 0 0
outer loop
vertex 7.770882 10.466853 9.319372
vertex 7.750407 10.487607 9.319372
vertex 7.750407 10.466853 9.339372
endloop
endfacet
facet normal 0 0 0
outer loop
vertex 7.750407 10.487607 9.319372
vertex 7.750407 10.487607 9.339372
vertex 7.750407 10.466853 9.339372
endloop
endfacet
facet normal 0 0 0
outer loop
vertex 7.688979 10.487607 9.319372
vertex 7.668503 10.487607 9.319372
vertex 7.688979 10.487607 9.339372
endloop
endfacet
facet normal 0 0 0
outer loop
vertex 7.668503 10.487607 9.319372
vertex 7.668503 10.487607 9.339372
vertex 7.688979 10.487607 9.339372
endloop
endfacet
facet normal 0 0 0
outer loop
vertex 7.709455 10.508360 9.339372
vertex 7.709455 10.487607 9.319372
vertex 7.688979 10.487607 9.339372
endloop
endfacet
facet normal 0 0 0
outer loop
vertex 7.709455 10.487607 9.319372
vertex 7.688979 10.487607 9.319372
vertex 7.688979 10.487607 9.339372
endloop
endfacet
facet normal 0 0 0
outer loop
vertex 7.729930 10.487607 9.319372
vertex 7.709455 10.508360 9.339372
vertex 7.709455 10.487607 9.339372
endloop
endfacet
facet normal 0 0 0
outer loop
vertex 7.729930 10.487607 9.319372
vertex 7.709455 10.487607 9.319372
vertex 7.709455 10.508360 9.339372
endloop
endfacet
facet normal 0 0 0
outer loop
vertex 7.729930 10.487607 9.319372
vertex 7.750407 10.487607 9.339372
vertex 7.750407 10.487607 9.319372
endloop
endfacet
facet normal 0 0 0
outer loop
vertex 7.668503 10.425346 9.339372
vertex 7.688979 10.404593 9.339372
vertex 7.688979 10.425346 9.339372
endloop
endfacet
facet normal 0 0 0
outer loop
vertex 7.688979 10.404593 9.339372
vertex 7.709455 10.425346 9.339372
vertex 7.688979 10.425346 9.339372
endloop
endfacet
facet normal 0 0 0
outer loop
vertex 7.648027 10.425346 9.339372
vertex 7.648027 10.446100 9.339372
vertex 7.627552 10.425346 9.339372
endloop
endfacet
facet normal 0 0 0
outer loop
vertex 7.648027 10.446100 9.339372
vertex 7.627552 10.446100 9.339372
vertex 7.627552 10.425346 9.339372
endloop
endfacet
facet normal 0 0 0
outer loop
vertex 7.668503 10.425346 9.339372
vertex 7.668503 10.446100 9.339372
vertex 7.648027 10.425346 9.339372
endloop
endfacet
facet normal 0 0 0
outer loop
vertex 7.668503 10.446100 9.339372
vertex 7.648027 10.446100 9.339372
vertex 7.648027 10.425346 9.339372
endloop
endfacet
facet normal 0 0 0
outer loop
vertex 7.688979 10.425346 9.339372
vertex 7.688979 10.446100 9.339372
vertex 7.668503 10.425346 9.339372
endloop
endfacet
facet normal 0 0 0
outer loop
vertex 7.688979 10.446100 9.339372
vertex 7.668503 10.446100 9.339372
vertex 7.668503 10.425346 9.339372
endloop
endfacet
facet normal 0 0 0
outer loop
vertex 7.709455 10.425346 9.339372
vertex 7.709455 10.446100 9.339372
vertex 7.688979 10.425346 9.339372
endloop
endfacet
facet normal 0 0 0
outer loop
vertex 7.709455 10.446100 9.339372
vertex 7.688979 10.446100 9.339372
vertex 7.688979 10.425346 9.339372
endloop
endfacet
facet normal 0 0 0
outer loop
vertex 7.729930 10.425346 9.339372
vertex 7.729930 10.446100 9.339372
vertex 7.709455 10.425346 9.339372
endloop
endfacet
facet normal 0 0 0
outer loop
vertex 7.729930 10.446100 9.339372
vertex 7.709455 10.446100 9.339372
vertex 7.709455 10.425346 9.339372
endloop
endfacet
facet normal 0 0 0
outer loop
vertex 7.750407 10.425346 9.339372
vertex 7.750407 10.446100 9.339372
vertex 7.729930 10.425346 9.339372
endloop
endfacet
facet normal 0 0 0
outer loop
vertex 7.750407 10.446100 9.339372
vertex 7.729930 10.446100 9.339372
vertex 7.729930 10.425346 9.339372
endloop
endfacet
facet normal 0 0 0
outer loop
vertex 7.648027 10.466853 9.339372
vertex 7.627552 10.446100 9.339372
vertex 7.648027 10.446100 9.339372
endloop
endfacet
facet normal 0 0 0
outer loop
vertex 7.668503 10.446100 9.339372
vertex 7.668503 10.466853 9.339372
vertex 7.648027 10.446100 9.339372
endloop
endfacet
facet normal 0 0 0
outer loop
vertex 7.668503 10.466853 9.339372
vertex 7.648027 10.466853 9.339372
vertex 7.648027 10.446100 9.339372
endloop
endfacet
facet normal 0 0 0
outer loop
vertex 7.688979 10.446100 9.339372
vertex 7.688979 10.466853 9.339372
vertex 7.668503 10.446100 9.339372
endloop
endfacet
facet normal 0 0 0
outer loop
vertex 7.688979 10.466853 9.339372
vertex 7.668503 10.466853 9.339372
vertex 7.668503 10.446100 9.339372
endloop
endfacet
facet normal 0 0 0
outer loop
vertex 7.709455 10.446100 9.339372
vertex 7.709455 10.466853 9.339372
vertex 7.688979 10.446100 9.339372
endloop
endfacet
facet normal 0 0 0
outer loop
vertex 7.709455 10.466853 9.339372
vertex 7.688979 10.466853 9.339372
vertex 7.688979 10.446100 9.339372
endloop
endfacet
facet normal 0 0 0
outer loop
vertex 7.729930 10.446100 9.339372
vertex 7.729930 10.466853 9.339372
vertex 7.709455 10.446100 9.339372
endloop
endfacet
facet normal 0 0 0
outer loop
vertex 7.729930 10.466853 9.339372
vertex 7.709455 10.466853 9.339372
vertex 7.709455 10.446100 9.339372
endloop
endfacet
facet normal 0 0 0
outer loop
vertex 7.750407 10.446100 9.339372
vertex 7.750407 10.466853 9.339372
vertex 7.729930 10.446100 9.339372
endloop
endfacet
facet normal 0 0 0
outer loop
vertex 7.750407 10.466853 9.339372
vertex 7.729930 10.466853 9.339372
vertex 7.729930 10.446100 9.339372
endloop
endfacet
facet normal 0 0 0
outer loop
vertex 7.668503 10.487607 9.339372
vertex 7.648027 10.466853 9.339372
vertex 7.668503 10.466853 9.339372
endloop
endfacet
facet normal 0 0 0
outer loop
vertex 7.688979 10.466853 9.339372
vertex 7.688979 10.487607 9.339372
vertex 7.668503 10.466853 9.339372
endloop
endfacet
facet normal 0 0 0
outer loop
vertex 7.688979 10.487607 9.339372
vertex 7.668503 10.487607 9.339372
vertex 7.668503 10.466853 9.339372
endloop
endfacet
facet normal 0 0 0
outer loop
vertex 7.709455 10.466853 9.339372
vertex 7.709455 10.487607 9.339372
vertex 7.688979 10.466853 9.339372
endloop
endfacet
facet normal 0 0 0
outer loop
vertex 7.709455 10.487607 9.339372
vertex 7.688979 10.487607 9.339372
vertex 7.688979 10.466853 9.339372
endloop
endfacet
facet normal 0 0 0
outer loop
vertex 7.729930 10.466853 9.339372
vertex 7.709455 10.487607 9.339372
vertex 7.709455 10.466853 9.339372
endloop
endfacet
facet normal 0 0 0
outer loop
vertex 7.750407 10.487607 9.339372
vertex 7.729930 10.466853 9.339372
vertex 7.750407 10.466853 9.339372
endloop
endfacet
facet normal 0 0 0
outer loop
vertex 7.709455 10.508360 9.339372
vertex 7.688979 10.487607 9.339372
vertex 7.709455 10.487607 9.339372
endloop
endfacet
endsolid B-16-Plag.206
