solid B-16-Plag.416
facet normal 0 0 0
outer loop
vertex 23.803432 12.998758 15.199371
vertex 23.782957 13.019512 15.199371
vertex 23.803432 13.019512 15.199371
endloop
endfacet
facet normal 0 0 0
outer loop
vertex 23.823910 12.998758 15.199371
vertex 23.803432 12.998758 15.199371
vertex 23.823910 13.019512 15.199371
endloop
endfacet
facet normal 0 0 0
outer loop
vertex 23.823910 13.019512 15.199371
vertex 23.803432 12.998758 15.199371
vertex 23.803432 13.019512 15.199371
endloop
endfacet
facet normal 0 0 0
outer loop
vertex 23.844385 12.998758 15.199371
vertex 23.823910 12.998758 15.199371
vertex 23.844385 13.019512 15.199371
endloop
endfacet
facet normal 0 0 0
outer loop
vertex 23.844385 13.019512 15.199371
vertex 23.823910 12.998758 15.199371
vertex 23.823910 13.019512 15.199371
endloop
endfacet
facet normal 0 0 0
outer loop
vertex 23.864861 12.998758 15.199371
vertex 23.844385 12.998758 15.199371
vertex 23.864861 13.019512 15.199371
endloop
endfacet
facet normal 0 0 0
outer loop
vertex 23.864861 13.019512 15.199371
vertex 23.844385 12.998758 15.199371
vertex 23.844385 13.019512 15.199371
endloop
endfacet
facet normal 0 0 0
outer loop
vertex 23.762482 12.978005 15.219372
vertex 23.742006 12.998758 15.219372
vertex 23.762482 12.998758 15.219372
endloop
endfacet
facet normal 0 0 0
outer loop
vertex 23.782957 12.978005 15.219372
vertex 23.762482 12.978005 15.219372
vertex 23.782957 12.998758 15.219372
endloop
endfacet
facet normal 0 0 0
outer loop
vertex 23.782957 12.998758 15.219372
vertex 23.762482 12.978005 15.219372
vertex 23.762482 12.998758 15.219372
endloop
endfacet
facet normal 0 0 0
outer loop
vertex 23.803432 12.998758 15.199371
vertex 23.803432 12.978005 15.219372
vertex 23.782957 12.998758 15.219372
endloop
endfacet
facet normal 0 0 0
outer loop
vertex 23.803432 12.978005 15.219372
vertex 23.782957 12.978005 15.219372
vertex 23.782957 12.998758 15.219372
endloop
endfacet
facet normal 0 0 0
outer loop
vertex 23.823910 12.998758 15.199371
vertex 23.803432 12.978005 15.219372
vertex 23.803432 12.998758 15.199371
endloop
endfacet
facet normal 0 0 0
outer loop
vertex 23.823910 12.978005 15.219372
vertex 23.803432 12.978005 15.219372
vertex 23.823910 12.998758 15.199371
endloop
endfacet
facet normal 0 0 0
outer loop
vertex 23.844385 12.998758 15.199371
vertex 23.823910 12.978005 15.219372
vertex 23.823910 12.998758 15.199371
endloop
endfacet
facet normal 0 0 0
outer loop
vertex 23.844385 12.978005 15.219372
vertex 23.823910 12.978005 15.219372
vertex 23.844385 12.998758 15.199371
endloop
endfacet
facet normal 0 0 0
outer loop
vertex 23.844385 12.978005 15.219372
vertex 23.844385 12.998758 15.199371
vertex 23.864861 12.998758 15.219372
endloop
endfacet
facet normal 0 0 0
outer loop
vertex 23.844385 12.998758 15.199371
vertex 23.864861 12.998758 15.199371
vertex 23.864861 12.998758 15.219372
endloop
endfacet
facet normal 0 0 0
outer loop
vertex 23.762482 12.998758 15.219372
vertex 23.742006 12.998758 15.219372
vertex 23.762482 13.019512 15.219372
endloop
endfacet
facet normal 0 0 0
outer loop
vertex 23.762482 13.019512 15.219372
vertex 23.742006 12.998758 15.219372
vertex 23.742006 13.019512 15.219372
endloop
endfacet
facet normal 0 0 0
outer loop
vertex 23.782957 13.019512 15.199371
vertex 23.782957 12.998758 15.219372
vertex 23.762482 13.019512 15.219372
endloop
endfacet
facet normal 0 0 0
outer loop
vertex 23.782957 12.998758 15.219372
vertex 23.762482 12.998758 15.219372
vertex 23.762482 13.019512 15.219372
endloop
endfacet
facet normal 0 0 0
outer loop
vertex 23.803432 12.998758 15.199371
vertex 23.782957 12.998758 15.219372
vertex 23.782957 13.019512 15.199371
endloop
endfacet
facet normal 0 0 0
outer loop
vertex 23.885336 13.019512 15.219372
vertex 23.864861 12.998758 15.219372
vertex 23.864861 13.019512 15.199371
endloop
endfacet
facet normal 0 0 0
outer loop
vertex 23.864861 12.998758 15.219372
vertex 23.864861 12.998758 15.199371
vertex 23.864861 13.019512 15.199371
endloop
endfacet
facet normal 0 0 0
outer loop
vertex 23.742006 13.019512 15.219372
vertex 23.762482 13.040265 15.219372
vertex 23.762482 13.019512 15.219372
endloop
endfacet
facet normal 0 0 0
outer loop
vertex 23.782957 13.019512 15.199371
vertex 23.762482 13.019512 15.219372
vertex 23.782957 13.040265 15.219372
endloop
endfacet
facet normal 0 0 0
outer loop
vertex 23.762482 13.019512 15.219372
vertex 23.762482 13.040265 15.219372
vertex 23.782957 13.040265 15.219372
endloop
endfacet
facet normal 0 0 0
outer loop
vertex 23.782957 13.019512 15.199371
vertex 23.803432 13.040265 15.219372
vertex 23.803432 13.019512 15.199371
endloop
endfacet
facet normal 0 0 0
outer loop
vertex 23.782957 13.040265 15.219372
vertex 23.803432 13.040265 15.219372
vertex 23.782957 13.019512 15.199371
endloop
endfacet
facet normal 0 0 0
outer loop
vertex 23.803432 13.019512 15.199371
vertex 23.823910 13.040265 15.219372
vertex 23.823910 13.019512 15.199371
endloop
endfacet
facet normal 0 0 0
outer loop
vertex 23.803432 13.040265 15.219372
vertex 23.823910 13.040265 15.219372
vertex 23.803432 13.019512 15.199371
endloop
endfacet
facet normal 0 0 0
outer loop
vertex 23.823910 13.019512 15.199371
vertex 23.844385 13.040265 15.219372
vertex 23.844385 13.019512 15.199371
endloop
endfacet
facet normal 0 0 0
outer loop
vertex 23.823910 13.040265 15.219372
vertex 23.844385 13.040265 15.219372
vertex 23.823910 13.019512 15.199371
endloop
endfacet
facet normal 0 0 0
outer loop
vertex 23.844385 13.019512 15.199371
vertex 23.864861 13.040265 15.219372
vertex 23.864861 13.019512 15.199371
endloop
endfacet
facet normal 0 0 0
outer loop
vertex 23.844385 13.040265 15.219372
vertex 23.864861 13.040265 15.219372
vertex 23.844385 13.019512 15.199371
endloop
endfacet
facet normal 0 0 0
outer loop
vertex 23.864861 13.019512 15.199371
vertex 23.864861 13.040265 15.219372
vertex 23.885336 13.019512 15.219372
endloop
endfacet
facet normal 0 0 0
outer loop
vertex 23.885336 13.040265 15.199371
vertex 23.885336 13.019512 15.219372
vertex 23.864861 13.040265 15.219372
endloop
endfacet
facet normal 0 0 0
outer loop
vertex 23.885336 13.040265 15.199371
vertex 23.905811 13.040265 15.219372
vertex 23.885336 13.019512 15.219372
endloop
endfacet
facet normal 0 0 0
outer loop
vertex 23.803432 13.040265 15.219372
vertex 23.823910 13.061018 15.219372
vertex 23.823910 13.040265 15.219372
endloop
endfacet
facet normal 0 0 0
outer loop
vertex 23.844385 13.040265 15.219372
vertex 23.823910 13.040265 15.219372
vertex 23.844385 13.061018 15.219372
endloop
endfacet
facet normal 0 0 0
outer loop
vertex 23.844385 13.061018 15.219372
vertex 23.823910 13.040265 15.219372
vertex 23.823910 13.061018 15.219372
endloop
endfacet
facet normal 0 0 0
outer loop
vertex 23.864861 13.040265 15.219372
vertex 23.844385 13.040265 15.219372
vertex 23.864861 13.061018 15.219372
endloop
endfacet
facet normal 0 0 0
outer loop
vertex 23.864861 13.061018 15.219372
vertex 23.844385 13.040265 15.219372
vertex 23.844385 13.061018 15.219372
endloop
endfacet
facet normal 0 0 0
outer loop
vertex 23.885336 13.040265 15.199371
vertex 23.864861 13.040265 15.219372
vertex 23.885336 13.061018 15.219372
endloop
endfacet
facet normal 0 0 0
outer loop
vertex 23.864861 13.040265 15.219372
vertex 23.864861 13.061018 15.219372
vertex 23.885336 13.061018 15.219372
endloop
endfacet
facet normal 0 0 0
outer loop
vertex 23.885336 13.040265 15.199371
vertex 23.885336 13.061018 15.219372
vertex 23.905811 13.040265 15.219372
endloop
endfacet
facet normal 0 0 0
outer loop
vertex 23.885336 13.061018 15.219372
vertex 23.905811 13.061018 15.219372
vertex 23.905811 13.040265 15.219372
endloop
endfacet
facet normal 0 0 0
outer loop
vertex 23.803432 12.915745 15.239372
vertex 23.782957 12.915745 15.239372
vertex 23.803432 12.936499 15.239372
endloop
endfacet
facet normal 0 0 0
outer loop
vertex 23.803432 12.936499 15.239372
vertex 23.782957 12.915745 15.239372
vertex 23.782957 12.936499 15.239372
endloop
endfacet
facet normal 0 0 0
outer loop
vertex 23.823910 12.936499 15.239372
vertex 23.803432 12.915745 15.239372
vertex 23.803432 12.936499 15.239372
endloop
endfacet
facet normal 0 0 0
outer loop
vertex 23.782957 12.936499 15.239372
vertex 23.762482 12.957252 15.239372
vertex 23.782957 12.957252 15.239372
endloop
endfacet
facet normal 0 0 0
outer loop
vertex 23.803432 12.936499 15.239372
vertex 23.782957 12.936499 15.239372
vertex 23.803432 12.957252 15.239372
endloop
endfacet
facet normal 0 0 0
outer loop
vertex 23.803432 12.957252 15.239372
vertex 23.782957 12.936499 15.239372
vertex 23.782957 12.957252 15.239372
endloop
endfacet
facet normal 0 0 0
outer loop
vertex 23.823910 12.936499 15.239372
vertex 23.803432 12.936499 15.239372
vertex 23.823910 12.957252 15.239372
endloop
endfacet
facet normal 0 0 0
outer loop
vertex 23.823910 12.957252 15.239372
vertex 23.803432 12.936499 15.239372
vertex 23.803432 12.957252 15.239372
endloop
endfacet
facet normal 0 0 0
outer loop
vertex 23.844385 12.957252 15.239372
vertex 23.823910 12.936499 15.239372
vertex 23.823910 12.957252 15.239372
endloop
endfacet
facet normal 0 0 0
outer loop
vertex 23.762482 12.978005 15.219372
vertex 23.762482 12.957252 15.239372
vertex 23.762482 12.978005 15.239372
endloop
endfacet
facet normal 0 0 0
outer loop
vertex 23.782957 12.978005 15.219372
vertex 23.762482 12.957252 15.239372
vertex 23.762482 12.978005 15.219372
endloop
endfacet
facet normal 0 0 0
outer loop
vertex 23.782957 12.957252 15.239372
vertex 23.762482 12.957252 15.239372
vertex 23.782957 12.978005 15.219372
endloop
endfacet
facet normal 0 0 0
outer loop
vertex 23.803432 12.978005 15.219372
vertex 23.782957 12.957252 15.239372
vertex 23.782957 12.978005 15.219372
endloop
endfacet
facet normal 0 0 0
outer loop
vertex 23.803432 12.957252 15.239372
vertex 23.782957 12.957252 15.239372
vertex 23.803432 12.978005 15.219372
endloop
endfacet
facet normal 0 0 0
outer loop
vertex 23.823910 12.978005 15.219372
vertex 23.803432 12.957252 15.239372
vertex 23.803432 12.978005 15.219372
endloop
endfacet
facet normal 0 0 0
outer loop
vertex 23.823910 12.957252 15.239372
vertex 23.803432 12.957252 15.239372
vertex 23.823910 12.978005 15.219372
endloop
endfacet
facet normal 0 0 0
outer loop
vertex 23.844385 12.978005 15.219372
vertex 23.823910 12.957252 15.239372
vertex 23.823910 12.978005 15.219372
endloop
endfacet
facet normal 0 0 0
outer loop
vertex 23.844385 12.957252 15.239372
vertex 23.823910 12.957252 15.239372
vertex 23.844385 12.978005 15.219372
endloop
endfacet
facet normal 0 0 0
outer loop
vertex 23.844385 12.978005 15.219372
vertex 23.864861 12.978005 15.239372
vertex 23.844385 12.957252 15.239372
endloop
endfacet
facet normal 0 0 0
outer loop
vertex 23.742006 12.998758 15.219372
vertex 23.762482 12.978005 15.219372
vertex 23.762482 12.998758 15.239372
endloop
endfacet
facet normal 0 0 0
outer loop
vertex 23.762482 12.978005 15.219372
vertex 23.762482 12.978005 15.239372
vertex 23.762482 12.998758 15.239372
endloop
endfacet
facet normal 0 0 0
outer loop
vertex 23.844385 12.978005 15.219372
vertex 23.864861 12.998758 15.219372
vertex 23.864861 12.978005 15.239372
endloop
endfacet
facet normal 0 0 0
outer loop
vertex 23.864861 12.998758 15.219372
vertex 23.885336 12.998758 15.239372
vertex 23.864861 12.978005 15.239372
endloop
endfacet
facet normal 0 0 0
outer loop
vertex 23.762482 13.019512 15.239372
vertex 23.742006 12.998758 15.219372
vertex 23.762482 12.998758 15.239372
endloop
endfacet
facet normal 0 0 0
outer loop
vertex 23.742006 13.019512 15.219372
vertex 23.742006 12.998758 15.219372
vertex 23.762482 13.019512 15.239372
endloop
endfacet
facet normal 0 0 0
outer loop
vertex 23.864861 12.998758 15.219372
vertex 23.885336 13.019512 15.219372
vertex 23.885336 12.998758 15.239372
endloop
endfacet
facet normal 0 0 0
outer loop
vertex 23.885336 12.998758 15.239372
vertex 23.885336 13.019512 15.219372
vertex 23.885336 13.019512 15.239372
endloop
endfacet
facet normal 0 0 0
outer loop
vertex 23.742006 13.019512 15.219372
vertex 23.762482 13.019512 15.239372
vertex 23.762482 13.040265 15.219372
endloop
endfacet
facet normal 0 0 0
outer loop
vertex 23.762482 13.019512 15.239372
vertex 23.782957 13.040265 15.239372
vertex 23.762482 13.040265 15.219372
endloop
endfacet
facet normal 0 0 0
outer loop
vertex 23.885336 13.019512 15.219372
vertex 23.905811 13.040265 15.239372
vertex 23.885336 13.019512 15.239372
endloop
endfacet
facet normal 0 0 0
outer loop
vertex 23.905811 13.040265 15.219372
vertex 23.905811 13.040265 15.239372
vertex 23.885336 13.019512 15.219372
endloop
endfacet
facet normal 0 0 0
outer loop
vertex 23.762482 13.040265 15.219372
vertex 23.782957 13.040265 15.239372
vertex 23.782957 13.040265 15.219372
endloop
endfacet
facet normal 0 0 0
outer loop
vertex 23.803432 13.061018 15.239372
vertex 23.803432 13.040265 15.219372
vertex 23.782957 13.040265 15.239372
endloop
endfacet
facet normal 0 0 0
outer loop
vertex 23.803432 13.040265 15.219372
vertex 23.782957 13.040265 15.219372
vertex 23.782957 13.040265 15.239372
endloop
endfacet
facet normal 0 0 0
outer loop
vertex 23.803432 13.040265 15.219372
vertex 23.803432 13.061018 15.239372
vertex 23.823910 13.061018 15.219372
endloop
endfacet
facet normal 0 0 0
outer loop
vertex 23.926289 13.061018 15.239372
vertex 23.905811 13.040265 15.239372
vertex 23.905811 13.061018 15.219372
endloop
endfacet
facet normal 0 0 0
outer loop
vertex 23.905811 13.040265 15.239372
vertex 23.905811 13.040265 15.219372
vertex 23.905811 13.061018 15.219372
endloop
endfacet
facet normal 0 0 0
outer loop
vertex 23.823910 13.061018 15.219372
vertex 23.803432 13.061018 15.239372
vertex 23.823910 13.061018 15.239372
endloop
endfacet
facet normal 0 0 0
outer loop
vertex 23.844385 13.061018 15.219372
vertex 23.823910 13.061018 15.219372
vertex 23.844385 13.061018 15.239372
endloop
endfacet
facet normal 0 0 0
outer loop
vertex 23.823910 13.061018 15.219372
vertex 23.823910 13.061018 15.239372
vertex 23.844385 13.061018 15.239372
endloop
endfacet
facet normal 0 0 0
outer loop
vertex 23.864861 13.081772 15.239372
vertex 23.864861 13.061018 15.219372
vertex 23.844385 13.061018 15.239372
endloop
endfacet
facet normal 0 0 0
outer loop
vertex 23.864861 13.061018 15.219372
vertex 23.844385 13.061018 15.219372
vertex 23.844385 13.061018 15.239372
endloop
endfacet
facet normal 0 0 0
outer loop
vertex 23.864861 13.081772 15.239372
vertex 23.885336 13.061018 15.239372
vertex 23.864861 13.061018 15.219372
endloop
endfacet
facet normal 0 0 0
outer loop
vertex 23.885336 13.061018 15.239372
vertex 23.885336 13.061018 15.219372
vertex 23.864861 13.061018 15.219372
endloop
endfacet
facet normal 0 0 0
outer loop
vertex 23.905811 13.061018 15.219372
vertex 23.885336 13.061018 15.219372
vertex 23.905811 13.061018 15.239372
endloop
endfacet
facet normal 0 0 0
outer loop
vertex 23.885336 13.061018 15.219372
vertex 23.885336 13.061018 15.239372
vertex 23.905811 13.061018 15.239372
endloop
endfacet
facet normal 0 0 0
outer loop
vertex 23.926289 13.061018 15.239372
vertex 23.905811 13.061018 15.219372
vertex 23.905811 13.061018 15.239372
endloop
endfacet
facet normal 0 0 0
outer loop
vertex 23.782957 12.915745 15.239372
vertex 23.782957 12.936499 15.259372
vertex 23.782957 12.936499 15.239372
endloop
endfacet
facet normal 0 0 0
outer loop
vertex 23.803432 12.915745 15.239372
vertex 23.782957 12.936499 15.259372
vertex 23.782957 12.915745 15.239372
endloop
endfacet
facet normal 0 0 0
outer loop
vertex 23.803432 12.936499 15.259372
vertex 23.782957 12.936499 15.259372
vertex 23.803432 12.915745 15.239372
endloop
endfacet
facet normal 0 0 0
outer loop
vertex 23.803432 12.915745 15.239372
vertex 23.823910 12.936499 15.239372
vertex 23.803432 12.936499 15.259372
endloop
endfacet
facet normal 0 0 0
outer loop
vertex 23.823910 12.936499 15.239372
vertex 23.823910 12.936499 15.259372
vertex 23.803432 12.936499 15.259372
endloop
endfacet
facet normal 0 0 0
outer loop
vertex 23.823910 12.936499 15.239372
vertex 23.844385 12.936499 15.259372
vertex 23.823910 12.936499 15.259372
endloop
endfacet
facet normal 0 0 0
outer loop
vertex 23.782957 12.936499 15.259372
vertex 23.762482 12.957252 15.239372
vertex 23.782957 12.936499 15.239372
endloop
endfacet
facet normal 0 0 0
outer loop
vertex 23.762482 12.957252 15.259372
vertex 23.762482 12.957252 15.239372
vertex 23.782957 12.936499 15.259372
endloop
endfacet
facet normal 0 0 0
outer loop
vertex 23.823910 12.936499 15.239372
vertex 23.844385 12.957252 15.239372
vertex 23.844385 12.936499 15.259372
endloop
endfacet
facet normal 0 0 0
outer loop
vertex 23.844385 12.936499 15.259372
vertex 23.844385 12.957252 15.239372
vertex 23.844385 12.957252 15.259372
endloop
endfacet
facet normal 0 0 0
outer loop
vertex 23.742006 12.978005 15.259372
vertex 23.762482 12.978005 15.239372
vertex 23.762482 12.957252 15.259372
endloop
endfacet
facet normal 0 0 0
outer loop
vertex 23.762482 12.978005 15.239372
vertex 23.762482 12.957252 15.239372
vertex 23.762482 12.957252 15.259372
endloop
endfacet
facet normal 0 0 0
outer loop
vertex 23.844385 12.957252 15.239372
vertex 23.864861 12.978005 15.259372
vertex 23.844385 12.957252 15.259372
endloop
endfacet
facet normal 0 0 0
outer loop
vertex 23.864861 12.978005 15.239372
vertex 23.864861 12.978005 15.259372
vertex 23.844385 12.957252 15.239372
endloop
endfacet
facet normal 0 0 0
outer loop
vertex 23.742006 12.978005 15.259372
vertex 23.762482 12.998758 15.259372
vertex 23.762482 12.978005 15.239372
endloop
endfacet
facet normal 0 0 0
outer loop
vertex 23.762482 12.998758 15.259372
vertex 23.762482 12.998758 15.239372
vertex 23.762482 12.978005 15.239372
endloop
endfacet
facet normal 0 0 0
outer loop
vertex 23.885336 12.998758 15.239372
vertex 23.864861 12.998758 15.259372
vertex 23.864861 12.978005 15.239372
endloop
endfacet
facet normal 0 0 0
outer loop
vertex 23.864861 12.998758 15.259372
vertex 23.864861 12.978005 15.259372
vertex 23.864861 12.978005 15.239372
endloop
endfacet
facet normal 0 0 0
outer loop
vertex 23.762482 12.998758 15.239372
vertex 23.762482 12.998758 15.259372
vertex 23.762482 13.019512 15.239372
endloop
endfacet
facet normal 0 0 0
outer loop
vertex 23.762482 12.998758 15.259372
vertex 23.762482 13.019512 15.259372
vertex 23.762482 13.019512 15.239372
endloop
endfacet
facet normal 0 0 0
outer loop
vertex 23.885336 12.998758 15.239372
vertex 23.885336 13.019512 15.259372
vertex 23.864861 12.998758 15.259372
endloop
endfacet
facet normal 0 0 0
outer loop
vertex 23.885336 12.998758 15.239372
vertex 23.885336 13.019512 15.239372
vertex 23.905811 13.019512 15.259372
endloop
endfacet
facet normal 0 0 0
outer loop
vertex 23.885336 12.998758 15.239372
vertex 23.905811 13.019512 15.259372
vertex 23.885336 13.019512 15.259372
endloop
endfacet
facet normal 0 0 0
outer loop
vertex 23.762482 13.040265 15.259372
vertex 23.762482 13.019512 15.239372
vertex 23.762482 13.019512 15.259372
endloop
endfacet
facet normal 0 0 0
outer loop
vertex 23.762482 13.019512 15.239372
vertex 23.762482 13.040265 15.259372
vertex 23.782957 13.040265 15.239372
endloop
endfacet
facet normal 0 0 0
outer loop
vertex 23.885336 13.019512 15.239372
vertex 23.905811 13.040265 15.239372
vertex 23.905811 13.019512 15.259372
endloop
endfacet
facet normal 0 0 0
outer loop
vertex 23.905811 13.019512 15.259372
vertex 23.905811 13.040265 15.239372
vertex 23.905811 13.040265 15.259372
endloop
endfacet
facet normal 0 0 0
outer loop
vertex 23.782957 13.040265 15.239372
vertex 23.762482 13.040265 15.259372
vertex 23.782957 13.061018 15.259372
endloop
endfacet
facet normal 0 0 0
outer loop
vertex 23.782957 13.040265 15.239372
vertex 23.782957 13.061018 15.259372
vertex 23.803432 13.061018 15.239372
endloop
endfacet
facet normal 0 0 0
outer loop
vertex 23.905811 13.040265 15.239372
vertex 23.926289 13.061018 15.259372
vertex 23.905811 13.040265 15.259372
endloop
endfacet
facet normal 0 0 0
outer loop
vertex 23.926289 13.061018 15.239372
vertex 23.926289 13.061018 15.259372
vertex 23.905811 13.040265 15.239372
endloop
endfacet
facet normal 0 0 0
outer loop
vertex 23.803432 13.061018 15.239372
vertex 23.782957 13.061018 15.259372
vertex 23.803432 13.081772 15.259372
endloop
endfacet
facet normal 0 0 0
outer loop
vertex 23.803432 13.061018 15.239372
vertex 23.823910 13.081772 15.259372
vertex 23.823910 13.061018 15.239372
endloop
endfacet
facet normal 0 0 0
outer loop
vertex 23.803432 13.081772 15.259372
vertex 23.823910 13.081772 15.259372
vertex 23.803432 13.061018 15.239372
endloop
endfacet
facet normal 0 0 0
outer loop
vertex 23.823910 13.061018 15.239372
vertex 23.844385 13.081772 15.259372
vertex 23.844385 13.061018 15.239372
endloop
endfacet
facet normal 0 0 0
outer loop
vertex 23.823910 13.081772 15.259372
vertex 23.844385 13.081772 15.259372
vertex 23.823910 13.061018 15.239372
endloop
endfacet
facet normal 0 0 0
outer loop
vertex 23.844385 13.061018 15.239372
vertex 23.844385 13.081772 15.259372
vertex 23.864861 13.081772 15.239372
endloop
endfacet
facet normal 0 0 0
outer loop
vertex 23.885336 13.061018 15.239372
vertex 23.864861 13.081772 15.239372
vertex 23.885336 13.081772 15.259372
endloop
endfacet
facet normal 0 0 0
outer loop
vertex 23.885336 13.061018 15.239372
vertex 23.905811 13.081772 15.259372
vertex 23.905811 13.061018 15.239372
endloop
endfacet
facet normal 0 0 0
outer loop
vertex 23.885336 13.081772 15.259372
vertex 23.905811 13.081772 15.259372
vertex 23.885336 13.061018 15.239372
endloop
endfacet
facet normal 0 0 0
outer loop
vertex 23.905811 13.081772 15.259372
vertex 23.926289 13.061018 15.259372
vertex 23.905811 13.061018 15.239372
endloop
endfacet
facet normal 0 0 0
outer loop
vertex 23.926289 13.061018 15.259372
vertex 23.926289 13.061018 15.239372
vertex 23.905811 13.061018 15.239372
endloop
endfacet
facet normal 0 0 0
outer loop
vertex 23.864861 13.081772 15.239372
vertex 23.844385 13.081772 15.259372
vertex 23.864861 13.081772 15.259372
endloop
endfacet
facet normal 0 0 0
outer loop
vertex 23.885336 13.081772 15.259372
vertex 23.864861 13.081772 15.239372
vertex 23.864861 13.081772 15.259372
endloop
endfacet
facet normal 0 0 0
outer loop
vertex 23.762482 12.936499 15.279372
vertex 23.782957 12.936499 15.259372
vertex 23.782957 12.936499 15.279372
endloop
endfacet
facet normal 0 0 0
outer loop
vertex 23.803432 12.936499 15.259372
vertex 23.803432 12.936499 15.279372
vertex 23.782957 12.936499 15.259372
endloop
endfacet
facet normal 0 0 0
outer loop
vertex 23.782957 12.936499 15.259372
vertex 23.803432 12.936499 15.279372
vertex 23.782957 12.936499 15.279372
endloop
endfacet
facet normal 0 0 0
outer loop
vertex 23.823910 12.936499 15.259372
vertex 23.803432 12.936499 15.279372
vertex 23.803432 12.936499 15.259372
endloop
endfacet
facet normal 0 0 0
outer loop
vertex 23.762482 12.936499 15.279372
vertex 23.742006 12.957252 15.279372
vertex 23.762482 12.957252 15.259372
endloop
endfacet
facet normal 0 0 0
outer loop
vertex 23.782957 12.936499 15.259372
vertex 23.762482 12.936499 15.279372
vertex 23.762482 12.957252 15.259372
endloop
endfacet
facet normal 0 0 0
outer loop
vertex 23.823910 12.936499 15.259372
vertex 23.823910 12.957252 15.279372
vertex 23.803432 12.936499 15.279372
endloop
endfacet
facet normal 0 0 0
outer loop
vertex 23.823910 12.957252 15.279372
vertex 23.823910 12.936499 15.259372
vertex 23.844385 12.957252 15.259372
endloop
endfacet
facet normal 0 0 0
outer loop
vertex 23.823910 12.936499 15.259372
vertex 23.844385 12.936499 15.259372
vertex 23.844385 12.957252 15.259372
endloop
endfacet
facet normal 0 0 0
outer loop
vertex 23.742006 12.957252 15.279372
vertex 23.721529 12.978005 15.279372
vertex 23.742006 12.978005 15.259372
endloop
endfacet
facet normal 0 0 0
outer loop
vertex 23.762482 12.957252 15.259372
vertex 23.742006 12.957252 15.279372
vertex 23.742006 12.978005 15.259372
endloop
endfacet
facet normal 0 0 0
outer loop
vertex 23.844385 12.957252 15.259372
vertex 23.844385 12.978005 15.279372
vertex 23.823910 12.957252 15.279372
endloop
endfacet
facet normal 0 0 0
outer loop
vertex 23.864861 12.978005 15.259372
vertex 23.844385 12.978005 15.279372
vertex 23.844385 12.957252 15.259372
endloop
endfacet
facet normal 0 0 0
outer loop
vertex 23.742006 12.978005 15.259372
vertex 23.721529 12.978005 15.279372
vertex 23.742006 12.998758 15.279372
endloop
endfacet
facet normal 0 0 0
outer loop
vertex 23.721529 12.978005 15.279372
vertex 23.721529 12.998758 15.279372
vertex 23.742006 12.998758 15.279372
endloop
endfacet
facet normal 0 0 0
outer loop
vertex 23.742006 12.978005 15.259372
vertex 23.742006 12.998758 15.279372
vertex 23.762482 12.998758 15.259372
endloop
endfacet
facet normal 0 0 0
outer loop
vertex 23.864861 12.998758 15.259372
vertex 23.844385 12.978005 15.279372
vertex 23.864861 12.978005 15.259372
endloop
endfacet
facet normal 0 0 0
outer loop
vertex 23.844385 12.998758 15.279372
vertex 23.844385 12.978005 15.279372
vertex 23.864861 12.998758 15.259372
endloop
endfacet
facet normal 0 0 0
outer loop
vertex 23.721529 12.998758 15.279372
vertex 23.742006 13.019512 15.279372
vertex 23.742006 12.998758 15.279372
endloop
endfacet
facet normal 0 0 0
outer loop
vertex 23.762482 12.998758 15.259372
vertex 23.742006 13.019512 15.279372
vertex 23.762482 13.019512 15.259372
endloop
endfacet
facet normal 0 0 0
outer loop
vertex 23.742006 12.998758 15.279372
vertex 23.742006 13.019512 15.279372
vertex 23.762482 12.998758 15.259372
endloop
endfacet
facet normal 0 0 0
outer loop
vertex 23.864861 12.998758 15.259372
vertex 23.864861 13.019512 15.279372
vertex 23.844385 12.998758 15.279372
endloop
endfacet
facet normal 0 0 0
outer loop
vertex 23.885336 13.019512 15.259372
vertex 23.864861 13.019512 15.279372
vertex 23.864861 12.998758 15.259372
endloop
endfacet
facet normal 0 0 0
outer loop
vertex 23.742006 13.019512 15.279372
vertex 23.762482 13.040265 15.279372
vertex 23.762482 13.019512 15.259372
endloop
endfacet
facet normal 0 0 0
outer loop
vertex 23.762482 13.040265 15.279372
vertex 23.762482 13.040265 15.259372
vertex 23.762482 13.019512 15.259372
endloop
endfacet
facet normal 0 0 0
outer loop
vertex 23.885336 13.019512 15.259372
vertex 23.885336 13.040265 15.279372
vertex 23.864861 13.019512 15.279372
endloop
endfacet
facet normal 0 0 0
outer loop
vertex 23.885336 13.040265 15.279372
vertex 23.885336 13.019512 15.259372
vertex 23.905811 13.040265 15.259372
endloop
endfacet
facet normal 0 0 0
outer loop
vertex 23.885336 13.019512 15.259372
vertex 23.905811 13.019512 15.259372
vertex 23.905811 13.040265 15.259372
endloop
endfacet
facet normal 0 0 0
outer loop
vertex 23.762482 13.061018 15.279372
vertex 23.762482 13.040265 15.259372
vertex 23.762482 13.040265 15.279372
endloop
endfacet
facet normal 0 0 0
outer loop
vertex 23.762482 13.040265 15.259372
vertex 23.762482 13.061018 15.279372
vertex 23.782957 13.061018 15.259372
endloop
endfacet
facet normal 0 0 0
outer loop
vertex 23.905811 13.040265 15.259372
vertex 23.905811 13.061018 15.279372
vertex 23.885336 13.040265 15.279372
endloop
endfacet
facet normal 0 0 0
outer loop
vertex 23.926289 13.061018 15.259372
vertex 23.905811 13.061018 15.279372
vertex 23.905811 13.040265 15.259372
endloop
endfacet
facet normal 0 0 0
outer loop
vertex 23.782957 13.061018 15.259372
vertex 23.762482 13.061018 15.279372
vertex 23.782957 13.081772 15.279372
endloop
endfacet
facet normal 0 0 0
outer loop
vertex 23.782957 13.061018 15.259372
vertex 23.782957 13.081772 15.279372
vertex 23.803432 13.081772 15.259372
endloop
endfacet
facet normal 0 0 0
outer loop
vertex 23.905811 13.081772 15.259372
vertex 23.885336 13.081772 15.279372
vertex 23.905811 13.061018 15.279372
endloop
endfacet
facet normal 0 0 0
outer loop
vertex 23.926289 13.061018 15.259372
vertex 23.905811 13.081772 15.259372
vertex 23.905811 13.061018 15.279372
endloop
endfacet
facet normal 0 0 0
outer loop
vertex 23.803432 13.081772 15.259372
vertex 23.782957 13.081772 15.279372
vertex 23.803432 13.102525 15.279372
endloop
endfacet
facet normal 0 0 0
outer loop
vertex 23.803432 13.081772 15.259372
vertex 23.823910 13.102525 15.279372
vertex 23.823910 13.081772 15.259372
endloop
endfacet
facet normal 0 0 0
outer loop
vertex 23.803432 13.102525 15.279372
vertex 23.823910 13.102525 15.279372
vertex 23.803432 13.081772 15.259372
endloop
endfacet
facet normal 0 0 0
outer loop
vertex 23.823910 13.081772 15.259372
vertex 23.844385 13.102525 15.279372
vertex 23.844385 13.081772 15.259372
endloop
endfacet
facet normal 0 0 0
outer loop
vertex 23.823910 13.102525 15.279372
vertex 23.844385 13.102525 15.279372
vertex 23.823910 13.081772 15.259372
endloop
endfacet
facet normal 0 0 0
outer loop
vertex 23.844385 13.081772 15.259372
vertex 23.864861 13.102525 15.279372
vertex 23.864861 13.081772 15.259372
endloop
endfacet
facet normal 0 0 0
outer loop
vertex 23.844385 13.102525 15.279372
vertex 23.864861 13.102525 15.279372
vertex 23.844385 13.081772 15.259372
endloop
endfacet
facet normal 0 0 0
outer loop
vertex 23.864861 13.081772 15.259372
vertex 23.885336 13.102525 15.279372
vertex 23.885336 13.081772 15.259372
endloop
endfacet
facet normal 0 0 0
outer loop
vertex 23.864861 13.102525 15.279372
vertex 23.885336 13.102525 15.279372
vertex 23.864861 13.081772 15.259372
endloop
endfacet
facet normal 0 0 0
outer loop
vertex 23.885336 13.102525 15.279372
vertex 23.885336 13.081772 15.279372
vertex 23.885336 13.081772 15.259372
endloop
endfacet
facet normal 0 0 0
outer loop
vertex 23.885336 13.081772 15.259372
vertex 23.885336 13.081772 15.279372
vertex 23.905811 13.081772 15.259372
endloop
endfacet
facet normal 0 0 0
outer loop
vertex 23.905811 13.123279 15.259372
vertex 23.885336 13.102525 15.279372
vertex 23.905811 13.123279 15.279372
endloop
endfacet
facet normal 0 0 0
outer loop
vertex 23.905811 13.123279 15.259372
vertex 23.905811 13.102525 15.279372
vertex 23.885336 13.102525 15.279372
endloop
endfacet
facet normal 0 0 0
outer loop
vertex 23.905811 13.102525 15.279372
vertex 23.905811 13.123279 15.259372
vertex 23.905811 13.123279 15.279372
endloop
endfacet
facet normal 0 0 0
outer loop
vertex 23.782957 12.936499 15.279372
vertex 23.762482 12.936499 15.299372
vertex 23.762482 12.936499 15.279372
endloop
endfacet
facet normal 0 0 0
outer loop
vertex 23.762482 12.936499 15.299372
vertex 23.742006 12.957252 15.279372
vertex 23.762482 12.936499 15.279372
endloop
endfacet
facet normal 0 0 0
outer loop
vertex 23.742006 12.957252 15.299372
vertex 23.742006 12.957252 15.279372
vertex 23.762482 12.936499 15.299372
endloop
endfacet
facet normal 0 0 0
outer loop
vertex 23.782957 12.936499 15.279372
vertex 23.782957 12.957252 15.299372
vertex 23.762482 12.936499 15.299372
endloop
endfacet
facet normal 0 0 0
outer loop
vertex 23.803432 12.936499 15.279372
vertex 23.782957 12.957252 15.299372
vertex 23.782957 12.936499 15.279372
endloop
endfacet
facet normal 0 0 0
outer loop
vertex 23.803432 12.957252 15.299372
vertex 23.782957 12.957252 15.299372
vertex 23.803432 12.936499 15.279372
endloop
endfacet
facet normal 0 0 0
outer loop
vertex 23.803432 12.936499 15.279372
vertex 23.823910 12.957252 15.279372
vertex 23.803432 12.957252 15.299372
endloop
endfacet
facet normal 0 0 0
outer loop
vertex 23.823910 12.957252 15.279372
vertex 23.823910 12.957252 15.299372
vertex 23.803432 12.957252 15.299372
endloop
endfacet
facet normal 0 0 0
outer loop
vertex 23.742006 12.957252 15.299372
vertex 23.721529 12.978005 15.279372
vertex 23.742006 12.957252 15.279372
endloop
endfacet
facet normal 0 0 0
outer loop
vertex 23.721529 12.978005 15.299372
vertex 23.721529 12.978005 15.279372
vertex 23.742006 12.957252 15.299372
endloop
endfacet
facet normal 0 0 0
outer loop
vertex 23.823910 12.957252 15.279372
vertex 23.844385 12.978005 15.299372
vertex 23.823910 12.957252 15.299372
endloop
endfacet
facet normal 0 0 0
outer loop
vertex 23.844385 12.978005 15.279372
vertex 23.844385 12.978005 15.299372
vertex 23.823910 12.957252 15.279372
endloop
endfacet
facet normal 0 0 0
outer loop
vertex 23.721529 12.978005 15.279372
vertex 23.721529 12.978005 15.299372
vertex 23.721529 12.998758 15.279372
endloop
endfacet
facet normal 0 0 0
outer loop
vertex 23.721529 12.978005 15.299372
vertex 23.721529 12.998758 15.299372
vertex 23.721529 12.998758 15.279372
endloop
endfacet
facet normal 0 0 0
outer loop
vertex 23.844385 12.978005 15.279372
vertex 23.844385 12.998758 15.279372
vertex 23.844385 12.978005 15.299372
endloop
endfacet
facet normal 0 0 0
outer loop
vertex 23.844385 12.978005 15.299372
vertex 23.844385 12.998758 15.279372
vertex 23.844385 12.998758 15.299372
endloop
endfacet
facet normal 0 0 0
outer loop
vertex 23.721529 13.019512 15.299372
vertex 23.721529 12.998758 15.279372
vertex 23.721529 12.998758 15.299372
endloop
endfacet
facet normal 0 0 0
outer loop
vertex 23.721529 12.998758 15.279372
vertex 23.721529 13.019512 15.299372
vertex 23.742006 13.019512 15.279372
endloop
endfacet
facet normal 0 0 0
outer loop
vertex 23.844385 12.998758 15.279372
vertex 23.864861 13.019512 15.299372
vertex 23.844385 12.998758 15.299372
endloop
endfacet
facet normal 0 0 0
outer loop
vertex 23.864861 13.019512 15.279372
vertex 23.864861 13.019512 15.299372
vertex 23.844385 12.998758 15.279372
endloop
endfacet
facet normal 0 0 0
outer loop
vertex 23.742006 13.019512 15.279372
vertex 23.721529 13.019512 15.299372
vertex 23.742006 13.040265 15.299372
endloop
endfacet
facet normal 0 0 0
outer loop
vertex 23.742006 13.019512 15.279372
vertex 23.742006 13.040265 15.299372
vertex 23.762482 13.040265 15.279372
endloop
endfacet
facet normal 0 0 0
outer loop
vertex 23.885336 13.040265 15.279372
vertex 23.864861 13.040265 15.299372
vertex 23.864861 13.019512 15.279372
endloop
endfacet
facet normal 0 0 0
outer loop
vertex 23.864861 13.040265 15.299372
vertex 23.864861 13.019512 15.299372
vertex 23.864861 13.019512 15.279372
endloop
endfacet
facet normal 0 0 0
outer loop
vertex 23.742006 13.040265 15.299372
vertex 23.762482 13.061018 15.299372
vertex 23.762482 13.040265 15.279372
endloop
endfacet
facet normal 0 0 0
outer loop
vertex 23.762482 13.061018 15.299372
vertex 23.762482 13.061018 15.279372
vertex 23.762482 13.040265 15.279372
endloop
endfacet
facet normal 0 0 0
outer loop
vertex 23.885336 13.040265 15.279372
vertex 23.885336 13.061018 15.299372
vertex 23.864861 13.040265 15.299372
endloop
endfacet
facet normal 0 0 0
outer loop
vertex 23.905811 13.061018 15.279372
vertex 23.885336 13.061018 15.299372
vertex 23.885336 13.040265 15.279372
endloop
endfacet
facet normal 0 0 0
outer loop
vertex 23.762482 13.081772 15.299372
vertex 23.762482 13.061018 15.279372
vertex 23.762482 13.061018 15.299372
endloop
endfacet
facet normal 0 0 0
outer loop
vertex 23.762482 13.061018 15.279372
vertex 23.762482 13.081772 15.299372
vertex 23.782957 13.081772 15.279372
endloop
endfacet
facet normal 0 0 0
outer loop
vertex 23.885336 13.081772 15.279372
vertex 23.864861 13.081772 15.299372
vertex 23.885336 13.061018 15.299372
endloop
endfacet
facet normal 0 0 0
outer loop
vertex 23.905811 13.061018 15.279372
vertex 23.885336 13.081772 15.279372
vertex 23.885336 13.061018 15.299372
endloop
endfacet
facet normal 0 0 0
outer loop
vertex 23.782957 13.081772 15.279372
vertex 23.762482 13.081772 15.299372
vertex 23.782957 13.102525 15.299372
endloop
endfacet
facet normal 0 0 0
outer loop
vertex 23.782957 13.081772 15.279372
vertex 23.782957 13.102525 15.299372
vertex 23.803432 13.102525 15.279372
endloop
endfacet
facet normal 0 0 0
outer loop
vertex 23.885336 13.102525 15.279372
vertex 23.864861 13.081772 15.299372
vertex 23.885336 13.081772 15.279372
endloop
endfacet
facet normal 0 0 0
outer loop
vertex 23.864861 13.102525 15.299372
vertex 23.864861 13.081772 15.299372
vertex 23.885336 13.102525 15.279372
endloop
endfacet
facet normal 0 0 0
outer loop
vertex 23.885336 13.081772 15.279372
vertex 23.905811 13.102525 15.279372
vertex 23.885336 13.102525 15.279372
endloop
endfacet
facet normal 0 0 0
outer loop
vertex 23.803432 13.102525 15.279372
vertex 23.782957 13.102525 15.299372
vertex 23.803432 13.123279 15.299372
endloop
endfacet
facet normal 0 0 0
outer loop
vertex 23.803432 13.102525 15.279372
vertex 23.823910 13.123279 15.299372
vertex 23.823910 13.102525 15.279372
endloop
endfacet
facet normal 0 0 0
outer loop
vertex 23.803432 13.123279 15.299372
vertex 23.823910 13.123279 15.299372
vertex 23.803432 13.102525 15.279372
endloop
endfacet
facet normal 0 0 0
outer loop
vertex 23.823910 13.102525 15.279372
vertex 23.844385 13.123279 15.299372
vertex 23.844385 13.102525 15.279372
endloop
endfacet
facet normal 0 0 0
outer loop
vertex 23.823910 13.123279 15.299372
vertex 23.844385 13.123279 15.299372
vertex 23.823910 13.102525 15.279372
endloop
endfacet
facet normal 0 0 0
outer loop
vertex 23.844385 13.102525 15.279372
vertex 23.864861 13.123279 15.299372
vertex 23.864861 13.102525 15.279372
endloop
endfacet
facet normal 0 0 0
outer loop
vertex 23.844385 13.123279 15.299372
vertex 23.864861 13.123279 15.299372
vertex 23.844385 13.102525 15.279372
endloop
endfacet
facet normal 0 0 0
outer loop
vertex 23.885336 13.102525 15.279372
vertex 23.864861 13.123279 15.299372
vertex 23.864861 13.102525 15.299372
endloop
endfacet
facet normal 0 0 0
outer loop
vertex 23.885336 13.102525 15.279372
vertex 23.864861 13.102525 15.279372
vertex 23.864861 13.123279 15.299372
endloop
endfacet
facet normal 0 0 0
outer loop
vertex 23.905811 13.123279 15.279372
vertex 23.885336 13.102525 15.279372
vertex 23.905811 13.102525 15.279372
endloop
endfacet
facet normal 0 0 0
outer loop
vertex 23.762482 12.936499 15.299372
vertex 23.762482 12.957252 15.319372
vertex 23.742006 12.957252 15.299372
endloop
endfacet
facet normal 0 0 0
outer loop
vertex 23.782957 12.957252 15.299372
vertex 23.762482 12.957252 15.319372
vertex 23.762482 12.936499 15.299372
endloop
endfacet
facet normal 0 0 0
outer loop
vertex 23.803432 12.957252 15.319372
vertex 23.782957 12.957252 15.299372
vertex 23.803432 12.957252 15.299372
endloop
endfacet
facet normal 0 0 0
outer loop
vertex 23.823910 12.957252 15.299372
vertex 23.803432 12.957252 15.319372
vertex 23.803432 12.957252 15.299372
endloop
endfacet
facet normal 0 0 0
outer loop
vertex 23.742006 12.957252 15.299372
vertex 23.742006 12.978005 15.319372
vertex 23.721529 12.978005 15.299372
endloop
endfacet
facet normal 0 0 0
outer loop
vertex 23.742006 12.978005 15.319372
vertex 23.721529 12.978005 15.319372
vertex 23.721529 12.978005 15.299372
endloop
endfacet
facet normal 0 0 0
outer loop
vertex 23.762482 12.957252 15.319372
vertex 23.742006 12.978005 15.319372
vertex 23.742006 12.957252 15.299372
endloop
endfacet
facet normal 0 0 0
outer loop
vertex 23.782957 12.957252 15.299372
vertex 23.782957 12.978005 15.319372
vertex 23.762482 12.957252 15.319372
endloop
endfacet
facet normal 0 0 0
outer loop
vertex 23.803432 12.957252 15.319372
vertex 23.782957 12.978005 15.319372
vertex 23.782957 12.957252 15.299372
endloop
endfacet
facet normal 0 0 0
outer loop
vertex 23.823910 12.957252 15.299372
vertex 23.823910 12.978005 15.319372
vertex 23.803432 12.957252 15.319372
endloop
endfacet
facet normal 0 0 0
outer loop
vertex 23.844385 12.978005 15.299372
vertex 23.823910 12.978005 15.319372
vertex 23.823910 12.957252 15.299372
endloop
endfacet
facet normal 0 0 0
outer loop
vertex 23.721529 12.978005 15.299372
vertex 23.721529 12.978005 15.319372
vertex 23.721529 12.998758 15.299372
endloop
endfacet
facet normal 0 0 0
outer loop
vertex 23.721529 12.978005 15.319372
vertex 23.721529 12.998758 15.319372
vertex 23.721529 12.998758 15.299372
endloop
endfacet
facet normal 0 0 0
outer loop
vertex 23.844385 12.978005 15.299372
vertex 23.844385 12.998758 15.319372
vertex 23.823910 12.978005 15.319372
endloop
endfacet
facet normal 0 0 0
outer loop
vertex 23.844385 12.978005 15.299372
vertex 23.844385 12.998758 15.299372
vertex 23.864861 12.998758 15.319372
endloop
endfacet
facet normal 0 0 0
outer loop
vertex 23.844385 12.978005 15.299372
vertex 23.864861 12.998758 15.319372
vertex 23.844385 12.998758 15.319372
endloop
endfacet
facet normal 0 0 0
outer loop
vertex 23.721529 12.998758 15.319372
vertex 23.721529 13.019512 15.299372
vertex 23.721529 12.998758 15.299372
endloop
endfacet
facet normal 0 0 0
outer loop
vertex 23.721529 12.998758 15.319372
vertex 23.742006 13.019512 15.319372
vertex 23.721529 13.019512 15.299372
endloop
endfacet
facet normal 0 0 0
outer loop
vertex 23.844385 12.998758 15.299372
vertex 23.864861 13.019512 15.299372
vertex 23.864861 12.998758 15.319372
endloop
endfacet
facet normal 0 0 0
outer loop
vertex 23.864861 12.998758 15.319372
vertex 23.864861 13.019512 15.299372
vertex 23.864861 13.019512 15.319372
endloop
endfacet
facet normal 0 0 0
outer loop
vertex 23.721529 13.019512 15.299372
vertex 23.742006 13.019512 15.319372
vertex 23.742006 13.040265 15.299372
endloop
endfacet
facet normal 0 0 0
outer loop
vertex 23.742006 13.019512 15.319372
vertex 23.762482 13.040265 15.319372
vertex 23.742006 13.040265 15.299372
endloop
endfacet
facet normal 0 0 0
outer loop
vertex 23.885336 13.040265 15.319372
vertex 23.864861 13.019512 15.319372
vertex 23.864861 13.040265 15.299372
endloop
endfacet
facet normal 0 0 0
outer loop
vertex 23.864861 13.019512 15.319372
vertex 23.864861 13.019512 15.299372
vertex 23.864861 13.040265 15.299372
endloop
endfacet
facet normal 0 0 0
outer loop
vertex 23.742006 13.040265 15.299372
vertex 23.762482 13.040265 15.319372
vertex 23.762482 13.061018 15.299372
endloop
endfacet
facet normal 0 0 0
outer loop
vertex 23.762482 13.040265 15.319372
vertex 23.762482 13.061018 15.319372
vertex 23.762482 13.061018 15.299372
endloop
endfacet
facet normal 0 0 0
outer loop
vertex 23.864861 13.040265 15.299372
vertex 23.885336 13.061018 15.299372
vertex 23.885336 13.040265 15.319372
endloop
endfacet
facet normal 0 0 0
outer loop
vertex 23.905811 13.040265 15.299372
vertex 23.885336 13.040265 15.319372
vertex 23.905811 13.040265 15.319372
endloop
endfacet
facet normal 0 0 0
outer loop
vertex 23.905811 13.040265 15.319372
vertex 23.885336 13.040265 15.319372
vertex 23.885336 13.061018 15.319372
endloop
endfacet
facet normal 0 0 0
outer loop
vertex 23.885336 13.061018 15.319372
vertex 23.885336 13.040265 15.319372
vertex 23.885336 13.061018 15.299372
endloop
endfacet
facet normal 0 0 0
outer loop
vertex 23.762482 13.061018 15.319372
vertex 23.762482 13.081772 15.299372
vertex 23.762482 13.061018 15.299372
endloop
endfacet
facet normal 0 0 0
outer loop
vertex 23.762482 13.061018 15.319372
vertex 23.782957 13.081772 15.319372
vertex 23.762482 13.081772 15.299372
endloop
endfacet
facet normal 0 0 0
outer loop
vertex 23.885336 13.061018 15.299372
vertex 23.864861 13.081772 15.319372
vertex 23.885336 13.061018 15.319372
endloop
endfacet
facet normal 0 0 0
outer loop
vertex 23.864861 13.081772 15.299372
vertex 23.864861 13.081772 15.319372
vertex 23.885336 13.061018 15.299372
endloop
endfacet
facet normal 0 0 0
outer loop
vertex 23.762482 13.081772 15.299372
vertex 23.782957 13.081772 15.319372
vertex 23.782957 13.102525 15.299372
endloop
endfacet
facet normal 0 0 0
outer loop
vertex 23.782957 13.081772 15.319372
vertex 23.782957 13.102525 15.319372
vertex 23.782957 13.102525 15.299372
endloop
endfacet
facet normal 0 0 0
outer loop
vertex 23.864861 13.081772 15.299372
vertex 23.864861 13.102525 15.299372
vertex 23.864861 13.081772 15.319372
endloop
endfacet
facet normal 0 0 0
outer loop
vertex 23.864861 13.081772 15.319372
vertex 23.864861 13.102525 15.299372
vertex 23.864861 13.102525 15.319372
endloop
endfacet
facet normal 0 0 0
outer loop
vertex 23.782957 13.102525 15.319372
vertex 23.803432 13.123279 15.299372
vertex 23.782957 13.102525 15.299372
endloop
endfacet
facet normal 0 0 0
outer loop
vertex 23.803432 13.123279 15.319372
vertex 23.803432 13.123279 15.299372
vertex 23.782957 13.102525 15.319372
endloop
endfacet
facet normal 0 0 0
outer loop
vertex 23.864861 13.123279 15.299372
vertex 23.844385 13.123279 15.319372
vertex 23.864861 13.102525 15.319372
endloop
endfacet
facet normal 0 0 0
outer loop
vertex 23.864861 13.123279 15.299372
vertex 23.864861 13.102525 15.319372
vertex 23.864861 13.102525 15.299372
endloop
endfacet
facet normal 0 0 0
outer loop
vertex 23.823910 13.123279 15.299372
vertex 23.803432 13.123279 15.299372
vertex 23.823910 13.123279 15.319372
endloop
endfacet
facet normal 0 0 0
outer loop
vertex 23.803432 13.123279 15.299372
vertex 23.803432 13.123279 15.319372
vertex 23.823910 13.123279 15.319372
endloop
endfacet
facet normal 0 0 0
outer loop
vertex 23.844385 13.144032 15.319372
vertex 23.844385 13.123279 15.299372
vertex 23.823910 13.123279 15.319372
endloop
endfacet
facet normal 0 0 0
outer loop
vertex 23.844385 13.123279 15.299372
vertex 23.823910 13.123279 15.299372
vertex 23.823910 13.123279 15.319372
endloop
endfacet
facet normal 0 0 0
outer loop
vertex 23.864861 13.123279 15.299372
vertex 23.844385 13.144032 15.319372
vertex 23.844385 13.123279 15.319372
endloop
endfacet
facet normal 0 0 0
outer loop
vertex 23.864861 13.123279 15.299372
vertex 23.844385 13.123279 15.299372
vertex 23.844385 13.144032 15.319372
endloop
endfacet
facet normal 0 0 0
outer loop
vertex 23.762482 12.957252 15.319372
vertex 23.762482 12.978005 15.339372
vertex 23.742006 12.978005 15.319372
endloop
endfacet
facet normal 0 0 0
outer loop
vertex 23.762482 12.957252 15.319372
vertex 23.782957 12.978005 15.319372
vertex 23.762482 12.978005 15.339372
endloop
endfacet
facet normal 0 0 0
outer loop
vertex 23.782957 12.978005 15.319372
vertex 23.782957 12.978005 15.339372
vertex 23.762482 12.978005 15.339372
endloop
endfacet
facet normal 0 0 0
outer loop
vertex 23.803432 12.957252 15.319372
vertex 23.803432 12.978005 15.339372
vertex 23.782957 12.978005 15.319372
endloop
endfacet
facet normal 0 0 0
outer loop
vertex 23.803432 12.978005 15.339372
vertex 23.782957 12.978005 15.339372
vertex 23.782957 12.978005 15.319372
endloop
endfacet
facet normal 0 0 0
outer loop
vertex 23.823910 12.978005 15.319372
vertex 23.803432 12.978005 15.339372
vertex 23.803432 12.957252 15.319372
endloop
endfacet
facet normal 0 0 0
outer loop
vertex 23.721529 12.978005 15.319372
vertex 23.721529 12.998758 15.339372
vertex 23.721529 12.998758 15.319372
endloop
endfacet
facet normal 0 0 0
outer loop
vertex 23.742006 12.978005 15.319372
vertex 23.721529 12.998758 15.339372
vertex 23.721529 12.978005 15.319372
endloop
endfacet
facet normal 0 0 0
outer loop
vertex 23.742006 12.998758 15.339372
vertex 23.721529 12.998758 15.339372
vertex 23.742006 12.978005 15.319372
endloop
endfacet
facet normal 0 0 0
outer loop
vertex 23.762482 12.978005 15.339372
vertex 23.742006 12.998758 15.339372
vertex 23.742006 12.978005 15.319372
endloop
endfacet
facet normal 0 0 0
outer loop
vertex 23.823910 12.978005 15.319372
vertex 23.823910 12.998758 15.339372
vertex 23.803432 12.978005 15.339372
endloop
endfacet
facet normal 0 0 0
outer loop
vertex 23.823910 12.978005 15.319372
vertex 23.844385 12.998758 15.319372
vertex 23.823910 12.998758 15.339372
endloop
endfacet
facet normal 0 0 0
outer loop
vertex 23.844385 12.998758 15.319372
vertex 23.844385 12.998758 15.339372
vertex 23.823910 12.998758 15.339372
endloop
endfacet
facet normal 0 0 0
outer loop
vertex 23.864861 12.998758 15.319372
vertex 23.864861 12.998758 15.339372
vertex 23.844385 12.998758 15.319372
endloop
endfacet
facet normal 0 0 0
outer loop
vertex 23.844385 12.998758 15.319372
vertex 23.864861 12.998758 15.339372
vertex 23.844385 12.998758 15.339372
endloop
endfacet
facet normal 0 0 0
outer loop
vertex 23.721529 12.998758 15.339372
vertex 23.742006 13.019512 15.319372
vertex 23.721529 12.998758 15.319372
endloop
endfacet
facet normal 0 0 0
outer loop
vertex 23.742006 13.019512 15.339372
vertex 23.742006 13.019512 15.319372
vertex 23.721529 12.998758 15.339372
endloop
endfacet
facet normal 0 0 0
outer loop
vertex 23.885336 13.019512 15.339372
vertex 23.864861 12.998758 15.339372
vertex 23.864861 13.019512 15.319372
endloop
endfacet
facet normal 0 0 0
outer loop
vertex 23.864861 12.998758 15.339372
vertex 23.864861 12.998758 15.319372
vertex 23.864861 13.019512 15.319372
endloop
endfacet
facet normal 0 0 0
outer loop
vertex 23.742006 13.019512 15.339372
vertex 23.762482 13.040265 15.319372
vertex 23.742006 13.019512 15.319372
endloop
endfacet
facet normal 0 0 0
outer loop
vertex 23.762482 13.040265 15.339372
vertex 23.762482 13.040265 15.319372
vertex 23.742006 13.019512 15.339372
endloop
endfacet
facet normal 0 0 0
outer loop
vertex 23.864861 13.019512 15.319372
vertex 23.885336 13.040265 15.319372
vertex 23.885336 13.019512 15.339372
endloop
endfacet
facet normal 0 0 0
outer loop
vertex 23.885336 13.019512 15.339372
vertex 23.885336 13.040265 15.319372
vertex 23.905811 13.040265 15.319372
endloop
endfacet
facet normal 0 0 0
outer loop
vertex 23.885336 13.019512 15.339372
vertex 23.905811 13.040265 15.319372
vertex 23.885336 13.040265 15.339372
endloop
endfacet
facet normal 0 0 0
outer loop
vertex 23.762482 13.040265 15.339372
vertex 23.762482 13.061018 15.319372
vertex 23.762482 13.040265 15.319372
endloop
endfacet
facet normal 0 0 0
outer loop
vertex 23.762482 13.040265 15.339372
vertex 23.782957 13.061018 15.339372
vertex 23.762482 13.061018 15.319372
endloop
endfacet
facet normal 0 0 0
outer loop
vertex 23.905811 13.040265 15.319372
vertex 23.885336 13.061018 15.319372
vertex 23.885336 13.040265 15.339372
endloop
endfacet
facet normal 0 0 0
outer loop
vertex 23.885336 13.061018 15.319372
vertex 23.885336 13.061018 15.339372
vertex 23.885336 13.040265 15.339372
endloop
endfacet
facet normal 0 0 0
outer loop
vertex 23.762482 13.061018 15.319372
vertex 23.782957 13.061018 15.339372
vertex 23.782957 13.081772 15.319372
endloop
endfacet
facet normal 0 0 0
outer loop
vertex 23.782957 13.061018 15.339372
vertex 23.782957 13.081772 15.339372
vertex 23.782957 13.081772 15.319372
endloop
endfacet
facet normal 0 0 0
outer loop
vertex 23.885336 13.061018 15.319372
vertex 23.864861 13.081772 15.319372
vertex 23.885336 13.081772 15.339372
endloop
endfacet
facet normal 0 0 0
outer loop
vertex 23.885336 13.061018 15.319372
vertex 23.885336 13.081772 15.339372
vertex 23.885336 13.061018 15.339372
endloop
endfacet
facet normal 0 0 0
outer loop
vertex 23.782957 13.081772 15.339372
vertex 23.782957 13.102525 15.319372
vertex 23.782957 13.081772 15.319372
endloop
endfacet
facet normal 0 0 0
outer loop
vertex 23.782957 13.081772 15.339372
vertex 23.803432 13.102525 15.339372
vertex 23.782957 13.102525 15.319372
endloop
endfacet
facet normal 0 0 0
outer loop
vertex 23.885336 13.081772 15.339372
vertex 23.864861 13.081772 15.319372
vertex 23.864861 13.102525 15.339372
endloop
endfacet
facet normal 0 0 0
outer loop
vertex 23.864861 13.081772 15.319372
vertex 23.864861 13.102525 15.319372
vertex 23.864861 13.102525 15.339372
endloop
endfacet
facet normal 0 0 0
outer loop
vertex 23.782957 13.102525 15.319372
vertex 23.803432 13.102525 15.339372
vertex 23.803432 13.123279 15.319372
endloop
endfacet
facet normal 0 0 0
outer loop
vertex 23.803432 13.102525 15.339372
vertex 23.803432 13.123279 15.339372
vertex 23.803432 13.123279 15.319372
endloop
endfacet
facet normal 0 0 0
outer loop
vertex 23.864861 13.102525 15.319372
vertex 23.844385 13.123279 15.319372
vertex 23.864861 13.123279 15.339372
endloop
endfacet
facet normal 0 0 0
outer loop
vertex 23.864861 13.102525 15.319372
vertex 23.864861 13.123279 15.339372
vertex 23.864861 13.102525 15.339372
endloop
endfacet
facet normal 0 0 0
outer loop
vertex 23.823910 13.144032 15.339372
vertex 23.823910 13.123279 15.319372
vertex 23.803432 13.123279 15.339372
endloop
endfacet
facet normal 0 0 0
outer loop
vertex 23.823910 13.123279 15.319372
vertex 23.803432 13.123279 15.319372
vertex 23.803432 13.123279 15.339372
endloop
endfacet
facet normal 0 0 0
outer loop
vertex 23.823910 13.123279 15.319372
vertex 23.823910 13.144032 15.339372
vertex 23.844385 13.144032 15.319372
endloop
endfacet
facet normal 0 0 0
outer loop
vertex 23.864861 13.123279 15.339372
vertex 23.844385 13.123279 15.319372
vertex 23.844385 13.144032 15.339372
endloop
endfacet
facet normal 0 0 0
outer loop
vertex 23.844385 13.123279 15.319372
vertex 23.844385 13.144032 15.319372
vertex 23.844385 13.144032 15.339372
endloop
endfacet
facet normal 0 0 0
outer loop
vertex 23.844385 13.144032 15.319372
vertex 23.823910 13.144032 15.339372
vertex 23.844385 13.144032 15.339372
endloop
endfacet
facet normal 0 0 0
outer loop
vertex 23.742006 12.978005 15.359372
vertex 23.762482 12.978005 15.339372
vertex 23.762482 12.978005 15.359372
endloop
endfacet
facet normal 0 0 0
outer loop
vertex 23.782957 12.978005 15.339372
vertex 23.762482 12.978005 15.359372
vertex 23.762482 12.978005 15.339372
endloop
endfacet
facet normal 0 0 0
outer loop
vertex 23.721529 12.978005 15.359372
vertex 23.742006 12.998758 15.359372
vertex 23.742006 12.978005 15.359372
endloop
endfacet
facet normal 0 0 0
outer loop
vertex 23.742006 12.978005 15.359372
vertex 23.742006 12.998758 15.359372
vertex 23.742006 12.998758 15.339372
endloop
endfacet
facet normal 0 0 0
outer loop
vertex 23.742006 12.998758 15.339372
vertex 23.742006 12.998758 15.359372
vertex 23.721529 12.998758 15.339372
endloop
endfacet
facet normal 0 0 0
outer loop
vertex 23.762482 12.978005 15.339372
vertex 23.742006 12.978005 15.359372
vertex 23.742006 12.998758 15.339372
endloop
endfacet
facet normal 0 0 0
outer loop
vertex 23.782957 12.978005 15.339372
vertex 23.782957 12.998758 15.359372
vertex 23.762482 12.978005 15.359372
endloop
endfacet
facet normal 0 0 0
outer loop
vertex 23.803432 12.978005 15.339372
vertex 23.782957 12.998758 15.359372
vertex 23.782957 12.978005 15.339372
endloop
endfacet
facet normal 0 0 0
outer loop
vertex 23.803432 12.998758 15.359372
vertex 23.782957 12.998758 15.359372
vertex 23.803432 12.978005 15.339372
endloop
endfacet
facet normal 0 0 0
outer loop
vertex 23.803432 12.978005 15.339372
vertex 23.823910 12.998758 15.339372
vertex 23.803432 12.998758 15.359372
endloop
endfacet
facet normal 0 0 0
outer loop
vertex 23.823910 12.998758 15.339372
vertex 23.823910 12.998758 15.359372
vertex 23.803432 12.998758 15.359372
endloop
endfacet
facet normal 0 0 0
outer loop
vertex 23.844385 12.998758 15.339372
vertex 23.844385 12.998758 15.359372
vertex 23.823910 12.998758 15.339372
endloop
endfacet
facet normal 0 0 0
outer loop
vertex 23.823910 12.998758 15.339372
vertex 23.844385 12.998758 15.359372
vertex 23.823910 12.998758 15.359372
endloop
endfacet
facet normal 0 0 0
outer loop
vertex 23.864861 12.998758 15.339372
vertex 23.864861 12.998758 15.359372
vertex 23.844385 12.998758 15.339372
endloop
endfacet
facet normal 0 0 0
outer loop
vertex 23.844385 12.998758 15.339372
vertex 23.864861 12.998758 15.359372
vertex 23.844385 12.998758 15.359372
endloop
endfacet
facet normal 0 0 0
outer loop
vertex 23.721529 12.998758 15.339372
vertex 23.742006 12.998758 15.359372
vertex 23.742006 13.019512 15.339372
endloop
endfacet
facet normal 0 0 0
outer loop
vertex 23.742006 12.998758 15.359372
vertex 23.762482 13.019512 15.359372
vertex 23.742006 13.019512 15.339372
endloop
endfacet
facet normal 0 0 0
outer loop
vertex 23.885336 13.019512 15.339372
vertex 23.864861 13.019512 15.359372
vertex 23.864861 12.998758 15.339372
endloop
endfacet
facet normal 0 0 0
outer loop
vertex 23.864861 13.019512 15.359372
vertex 23.864861 12.998758 15.359372
vertex 23.864861 12.998758 15.339372
endloop
endfacet
facet normal 0 0 0
outer loop
vertex 23.742006 13.019512 15.339372
vertex 23.762482 13.019512 15.359372
vertex 23.762482 13.040265 15.339372
endloop
endfacet
facet normal 0 0 0
outer loop
vertex 23.762482 13.019512 15.359372
vertex 23.762482 13.040265 15.359372
vertex 23.762482 13.040265 15.339372
endloop
endfacet
facet normal 0 0 0
outer loop
vertex 23.885336 13.040265 15.339372
vertex 23.864861 13.019512 15.359372
vertex 23.885336 13.019512 15.339372
endloop
endfacet
facet normal 0 0 0
outer loop
vertex 23.864861 13.040265 15.359372
vertex 23.864861 13.019512 15.359372
vertex 23.885336 13.040265 15.339372
endloop
endfacet
facet normal 0 0 0
outer loop
vertex 23.762482 13.040265 15.359372
vertex 23.782957 13.061018 15.339372
vertex 23.762482 13.040265 15.339372
endloop
endfacet
facet normal 0 0 0
outer loop
vertex 23.782957 13.061018 15.359372
vertex 23.782957 13.061018 15.339372
vertex 23.762482 13.040265 15.359372
endloop
endfacet
facet normal 0 0 0
outer loop
vertex 23.885336 13.040265 15.339372
vertex 23.885336 13.061018 15.359372
vertex 23.864861 13.040265 15.359372
endloop
endfacet
facet normal 0 0 0
outer loop
vertex 23.885336 13.061018 15.359372
vertex 23.885336 13.040265 15.339372
vertex 23.885336 13.061018 15.339372
endloop
endfacet
facet normal 0 0 0
outer loop
vertex 23.782957 13.061018 15.359372
vertex 23.782957 13.081772 15.339372
vertex 23.782957 13.061018 15.339372
endloop
endfacet
facet normal 0 0 0
outer loop
vertex 23.782957 13.061018 15.359372
vertex 23.803432 13.081772 15.359372
vertex 23.782957 13.081772 15.339372
endloop
endfacet
facet normal 0 0 0
outer loop
vertex 23.885336 13.081772 15.339372
vertex 23.864861 13.081772 15.359372
vertex 23.885336 13.061018 15.359372
endloop
endfacet
facet normal 0 0 0
outer loop
vertex 23.885336 13.081772 15.339372
vertex 23.885336 13.061018 15.359372
vertex 23.885336 13.061018 15.339372
endloop
endfacet
facet normal 0 0 0
outer loop
vertex 23.782957 13.081772 15.339372
vertex 23.803432 13.081772 15.359372
vertex 23.803432 13.102525 15.339372
endloop
endfacet
facet normal 0 0 0
outer loop
vertex 23.803432 13.081772 15.359372
vertex 23.823910 13.102525 15.359372
vertex 23.803432 13.102525 15.339372
endloop
endfacet
facet normal 0 0 0
outer loop
vertex 23.864861 13.102525 15.339372
vertex 23.844385 13.102525 15.359372
vertex 23.864861 13.081772 15.359372
endloop
endfacet
facet normal 0 0 0
outer loop
vertex 23.885336 13.081772 15.339372
vertex 23.864861 13.102525 15.339372
vertex 23.864861 13.081772 15.359372
endloop
endfacet
facet normal 0 0 0
outer loop
vertex 23.803432 13.102525 15.339372
vertex 23.803432 13.123279 15.359372
vertex 23.803432 13.123279 15.339372
endloop
endfacet
facet normal 0 0 0
outer loop
vertex 23.823910 13.102525 15.359372
vertex 23.803432 13.123279 15.359372
vertex 23.803432 13.102525 15.339372
endloop
endfacet
facet normal 0 0 0
outer loop
vertex 23.864861 13.123279 15.339372
vertex 23.844385 13.102525 15.359372
vertex 23.864861 13.102525 15.339372
endloop
endfacet
facet normal 0 0 0
outer loop
vertex 23.844385 13.123279 15.359372
vertex 23.844385 13.102525 15.359372
vertex 23.864861 13.123279 15.339372
endloop
endfacet
facet normal 0 0 0
outer loop
vertex 23.823910 13.144032 15.339372
vertex 23.803432 13.123279 15.339372
vertex 23.823910 13.123279 15.359372
endloop
endfacet
facet normal 0 0 0
outer loop
vertex 23.803432 13.123279 15.339372
vertex 23.803432 13.123279 15.359372
vertex 23.823910 13.123279 15.359372
endloop
endfacet
facet normal 0 0 0
outer loop
vertex 23.823910 13.144032 15.339372
vertex 23.844385 13.123279 15.359372
vertex 23.844385 13.144032 15.339372
endloop
endfacet
facet normal 0 0 0
outer loop
vertex 23.823910 13.123279 15.359372
vertex 23.844385 13.123279 15.359372
vertex 23.823910 13.144032 15.339372
endloop
endfacet
facet normal 0 0 0
outer loop
vertex 23.864861 13.123279 15.339372
vertex 23.844385 13.144032 15.339372
vertex 23.844385 13.123279 15.359372
endloop
endfacet
facet normal 0 0 0
outer loop
vertex 23.762482 12.978005 15.359372
vertex 23.762482 12.998758 15.359372
vertex 23.742006 12.978005 15.359372
endloop
endfacet
facet normal 0 0 0
outer loop
vertex 23.762482 12.998758 15.359372
vertex 23.742006 12.998758 15.359372
vertex 23.742006 12.978005 15.359372
endloop
endfacet
facet normal 0 0 0
outer loop
vertex 23.762482 12.978005 15.359372
vertex 23.782957 12.998758 15.359372
vertex 23.762482 12.998758 15.359372
endloop
endfacet
facet normal 0 0 0
outer loop
vertex 23.864861 12.998758 15.379372
vertex 23.844385 12.998758 15.359372
vertex 23.864861 12.998758 15.359372
endloop
endfacet
facet normal 0 0 0
outer loop
vertex 23.762482 13.019512 15.379372
vertex 23.742006 12.998758 15.359372
vertex 23.762482 12.998758 15.359372
endloop
endfacet
facet normal 0 0 0
outer loop
vertex 23.762482 13.019512 15.379372
vertex 23.762482 13.019512 15.359372
vertex 23.742006 12.998758 15.359372
endloop
endfacet
facet normal 0 0 0
outer loop
vertex 23.782957 12.998758 15.359372
vertex 23.762482 13.019512 15.379372
vertex 23.762482 12.998758 15.359372
endloop
endfacet
facet normal 0 0 0
outer loop
vertex 23.782957 13.019512 15.379372
vertex 23.762482 13.019512 15.379372
vertex 23.782957 12.998758 15.359372
endloop
endfacet
facet normal 0 0 0
outer loop
vertex 23.803432 12.998758 15.359372
vertex 23.782957 13.019512 15.379372
vertex 23.782957 12.998758 15.359372
endloop
endfacet
facet normal 0 0 0
outer loop
vertex 23.803432 13.019512 15.379372
vertex 23.782957 13.019512 15.379372
vertex 23.803432 12.998758 15.359372
endloop
endfacet
facet normal 0 0 0
outer loop
vertex 23.823910 12.998758 15.359372
vertex 23.803432 13.019512 15.379372
vertex 23.803432 12.998758 15.359372
endloop
endfacet
facet normal 0 0 0
outer loop
vertex 23.823910 13.019512 15.379372
vertex 23.803432 13.019512 15.379372
vertex 23.823910 12.998758 15.359372
endloop
endfacet
facet normal 0 0 0
outer loop
vertex 23.823910 13.019512 15.379372
vertex 23.823910 12.998758 15.359372
vertex 23.844385 13.019512 15.359372
endloop
endfacet
facet normal 0 0 0
outer loop
vertex 23.823910 12.998758 15.359372
vertex 23.844385 12.998758 15.359372
vertex 23.844385 13.019512 15.359372
endloop
endfacet
facet normal 0 0 0
outer loop
vertex 23.864861 12.998758 15.379372
vertex 23.864861 13.019512 15.359372
vertex 23.844385 12.998758 15.359372
endloop
endfacet
facet normal 0 0 0
outer loop
vertex 23.864861 13.019512 15.359372
vertex 23.844385 13.019512 15.359372
vertex 23.844385 12.998758 15.359372
endloop
endfacet
facet normal 0 0 0
outer loop
vertex 23.864861 13.019512 15.359372
vertex 23.864861 12.998758 15.379372
vertex 23.864861 12.998758 15.359372
endloop
endfacet
facet normal 0 0 0
outer loop
vertex 23.762482 13.019512 15.359372
vertex 23.762482 13.019512 15.379372
vertex 23.762482 13.040265 15.359372
endloop
endfacet
facet normal 0 0 0
outer loop
vertex 23.762482 13.019512 15.379372
vertex 23.762482 13.040265 15.379372
vertex 23.762482 13.040265 15.359372
endloop
endfacet
facet normal 0 0 0
outer loop
vertex 23.844385 13.019512 15.359372
vertex 23.844385 13.040265 15.379372
vertex 23.823910 13.019512 15.379372
endloop
endfacet
facet normal 0 0 0
outer loop
vertex 23.864861 13.019512 15.359372
vertex 23.844385 13.040265 15.379372
vertex 23.844385 13.019512 15.359372
endloop
endfacet
facet normal 0 0 0
outer loop
vertex 23.864861 13.040265 15.379372
vertex 23.844385 13.040265 15.379372
vertex 23.864861 13.019512 15.359372
endloop
endfacet
facet normal 0 0 0
outer loop
vertex 23.864861 13.040265 15.379372
vertex 23.864861 13.019512 15.359372
vertex 23.864861 13.040265 15.359372
endloop
endfacet
facet normal 0 0 0
outer loop
vertex 23.762482 13.061018 15.379372
vertex 23.762482 13.040265 15.359372
vertex 23.762482 13.040265 15.379372
endloop
endfacet
facet normal 0 0 0
outer loop
vertex 23.762482 13.040265 15.359372
vertex 23.762482 13.061018 15.379372
vertex 23.782957 13.061018 15.359372
endloop
endfacet
facet normal 0 0 0
outer loop
vertex 23.864861 13.040265 15.359372
vertex 23.885336 13.061018 15.379372
vertex 23.864861 13.040265 15.379372
endloop
endfacet
facet normal 0 0 0
outer loop
vertex 23.885336 13.061018 15.359372
vertex 23.885336 13.061018 15.379372
vertex 23.864861 13.040265 15.359372
endloop
endfacet
facet normal 0 0 0
outer loop
vertex 23.782957 13.061018 15.359372
vertex 23.762482 13.061018 15.379372
vertex 23.782957 13.081772 15.379372
endloop
endfacet
facet normal 0 0 0
outer loop
vertex 23.762482 13.061018 15.379372
vertex 23.762482 13.081772 15.379372
vertex 23.782957 13.081772 15.379372
endloop
endfacet
facet normal 0 0 0
outer loop
vertex 23.782957 13.061018 15.359372
vertex 23.782957 13.081772 15.379372
vertex 23.803432 13.081772 15.359372
endloop
endfacet
facet normal 0 0 0
outer loop
vertex 23.885336 13.061018 15.359372
vertex 23.864861 13.081772 15.379372
vertex 23.885336 13.061018 15.379372
endloop
endfacet
facet normal 0 0 0
outer loop
vertex 23.864861 13.081772 15.359372
vertex 23.864861 13.081772 15.379372
vertex 23.885336 13.061018 15.359372
endloop
endfacet
facet normal 0 0 0
outer loop
vertex 23.762482 13.081772 15.379372
vertex 23.782957 13.102525 15.379372
vertex 23.782957 13.081772 15.379372
endloop
endfacet
facet normal 0 0 0
outer loop
vertex 23.803432 13.081772 15.359372
vertex 23.782957 13.081772 15.379372
vertex 23.803432 13.102525 15.379372
endloop
endfacet
facet normal 0 0 0
outer loop
vertex 23.782957 13.081772 15.379372
vertex 23.782957 13.102525 15.379372
vertex 23.803432 13.102525 15.379372
endloop
endfacet
facet normal 0 0 0
outer loop
vertex 23.803432 13.081772 15.359372
vertex 23.803432 13.102525 15.379372
vertex 23.823910 13.102525 15.359372
endloop
endfacet
facet normal 0 0 0
outer loop
vertex 23.864861 13.081772 15.359372
vertex 23.844385 13.102525 15.359372
vertex 23.864861 13.102525 15.379372
endloop
endfacet
facet normal 0 0 0
outer loop
vertex 23.864861 13.081772 15.359372
vertex 23.864861 13.102525 15.379372
vertex 23.864861 13.081772 15.379372
endloop
endfacet
facet normal 0 0 0
outer loop
vertex 23.803432 13.102525 15.379372
vertex 23.823910 13.123279 15.379372
vertex 23.823910 13.102525 15.359372
endloop
endfacet
facet normal 0 0 0
outer loop
vertex 23.803432 13.123279 15.359372
vertex 23.823910 13.102525 15.359372
vertex 23.823910 13.123279 15.379372
endloop
endfacet
facet normal 0 0 0
outer loop
vertex 23.864861 13.102525 15.379372
vertex 23.844385 13.102525 15.359372
vertex 23.844385 13.123279 15.379372
endloop
endfacet
facet normal 0 0 0
outer loop
vertex 23.844385 13.102525 15.359372
vertex 23.844385 13.123279 15.359372
vertex 23.844385 13.123279 15.379372
endloop
endfacet
facet normal 0 0 0
outer loop
vertex 23.803432 13.123279 15.359372
vertex 23.823910 13.123279 15.379372
vertex 23.823910 13.123279 15.359372
endloop
endfacet
facet normal 0 0 0
outer loop
vertex 23.844385 13.123279 15.359372
vertex 23.823910 13.123279 15.359372
vertex 23.844385 13.123279 15.379372
endloop
endfacet
facet normal 0 0 0
outer loop
vertex 23.823910 13.123279 15.359372
vertex 23.823910 13.123279 15.379372
vertex 23.844385 13.123279 15.379372
endloop
endfacet
facet normal 0 0 0
outer loop
vertex 23.742006 13.019512 15.399372
vertex 23.762482 13.019512 15.379372
vertex 23.762482 13.019512 15.399372
endloop
endfacet
facet normal 0 0 0
outer loop
vertex 23.782957 13.019512 15.379372
vertex 23.782957 13.019512 15.399372
vertex 23.762482 13.019512 15.379372
endloop
endfacet
facet normal 0 0 0
outer loop
vertex 23.762482 13.019512 15.379372
vertex 23.782957 13.019512 15.399372
vertex 23.762482 13.019512 15.399372
endloop
endfacet
facet normal 0 0 0
outer loop
vertex 23.803432 13.019512 15.379372
vertex 23.803432 13.019512 15.399372
vertex 23.782957 13.019512 15.379372
endloop
endfacet
facet normal 0 0 0
outer loop
vertex 23.782957 13.019512 15.379372
vertex 23.803432 13.019512 15.399372
vertex 23.782957 13.019512 15.399372
endloop
endfacet
facet normal 0 0 0
outer loop
vertex 23.823910 13.019512 15.379372
vertex 23.823910 13.019512 15.399372
vertex 23.803432 13.019512 15.379372
endloop
endfacet
facet normal 0 0 0
outer loop
vertex 23.803432 13.019512 15.379372
vertex 23.823910 13.019512 15.399372
vertex 23.803432 13.019512 15.399372
endloop
endfacet
facet normal 0 0 0
outer loop
vertex 23.823910 13.019512 15.379372
vertex 23.844385 13.019512 15.399372
vertex 23.823910 13.019512 15.399372
endloop
endfacet
facet normal 0 0 0
outer loop
vertex 23.742006 13.019512 15.399372
vertex 23.762482 13.040265 15.399372
vertex 23.762482 13.019512 15.379372
endloop
endfacet
facet normal 0 0 0
outer loop
vertex 23.762482 13.040265 15.399372
vertex 23.762482 13.040265 15.379372
vertex 23.762482 13.019512 15.379372
endloop
endfacet
facet normal 0 0 0
outer loop
vertex 23.823910 13.019512 15.379372
vertex 23.844385 13.040265 15.379372
vertex 23.844385 13.019512 15.399372
endloop
endfacet
facet normal 0 0 0
outer loop
vertex 23.844385 13.019512 15.399372
vertex 23.844385 13.040265 15.379372
vertex 23.864861 13.040265 15.399372
endloop
endfacet
facet normal 0 0 0
outer loop
vertex 23.844385 13.040265 15.379372
vertex 23.864861 13.040265 15.379372
vertex 23.864861 13.040265 15.399372
endloop
endfacet
facet normal 0 0 0
outer loop
vertex 23.762482 13.040265 15.399372
vertex 23.762482 13.061018 15.379372
vertex 23.762482 13.040265 15.379372
endloop
endfacet
facet normal 0 0 0
outer loop
vertex 23.762482 13.040265 15.399372
vertex 23.782957 13.061018 15.399372
vertex 23.762482 13.061018 15.379372
endloop
endfacet
facet normal 0 0 0
outer loop
vertex 23.864861 13.040265 15.379372
vertex 23.885336 13.061018 15.399372
vertex 23.864861 13.040265 15.399372
endloop
endfacet
facet normal 0 0 0
outer loop
vertex 23.885336 13.061018 15.379372
vertex 23.885336 13.061018 15.399372
vertex 23.864861 13.040265 15.379372
endloop
endfacet
facet normal 0 0 0
outer loop
vertex 23.885336 13.061018 15.379372
vertex 23.905811 13.061018 15.399372
vertex 23.885336 13.061018 15.399372
endloop
endfacet
facet normal 0 0 0
outer loop
vertex 23.782957 13.061018 15.399372
vertex 23.782957 13.081772 15.379372
vertex 23.762482 13.061018 15.379372
endloop
endfacet
facet normal 0 0 0
outer loop
vertex 23.782957 13.061018 15.399372
vertex 23.803432 13.081772 15.399372
vertex 23.782957 13.081772 15.379372
endloop
endfacet
facet normal 0 0 0
outer loop
vertex 23.885336 13.061018 15.379372
vertex 23.864861 13.081772 15.379372
vertex 23.885336 13.081772 15.399372
endloop
endfacet
facet normal 0 0 0
outer loop
vertex 23.885336 13.061018 15.379372
vertex 23.885336 13.081772 15.399372
vertex 23.905811 13.061018 15.399372
endloop
endfacet
facet normal 0 0 0
outer loop
vertex 23.803432 13.102525 15.399372
vertex 23.782957 13.081772 15.379372
vertex 23.803432 13.081772 15.399372
endloop
endfacet
facet normal 0 0 0
outer loop
vertex 23.782957 13.102525 15.379372
vertex 23.782957 13.081772 15.379372
vertex 23.803432 13.102525 15.399372
endloop
endfacet
facet normal 0 0 0
outer loop
vertex 23.844385 13.102525 15.379372
vertex 23.823910 13.102525 15.399372
vertex 23.844385 13.081772 15.399372
endloop
endfacet
facet normal 0 0 0
outer loop
vertex 23.844385 13.102525 15.379372
vertex 23.864861 13.081772 15.399372
vertex 23.864861 13.102525 15.379372
endloop
endfacet
facet normal 0 0 0
outer loop
vertex 23.844385 13.081772 15.399372
vertex 23.864861 13.081772 15.399372
vertex 23.844385 13.102525 15.379372
endloop
endfacet
facet normal 0 0 0
outer loop
vertex 23.885336 13.081772 15.399372
vertex 23.864861 13.102525 15.379372
vertex 23.864861 13.081772 15.399372
endloop
endfacet
facet normal 0 0 0
outer loop
vertex 23.885336 13.081772 15.399372
vertex 23.864861 13.081772 15.379372
vertex 23.864861 13.102525 15.379372
endloop
endfacet
facet normal 0 0 0
outer loop
vertex 23.782957 13.102525 15.379372
vertex 23.803432 13.123279 15.399372
vertex 23.803432 13.102525 15.379372
endloop
endfacet
facet normal 0 0 0
outer loop
vertex 23.782957 13.102525 15.379372
vertex 23.803432 13.102525 15.399372
vertex 23.803432 13.123279 15.399372
endloop
endfacet
facet normal 0 0 0
outer loop
vertex 23.803432 13.123279 15.399372
vertex 23.823910 13.102525 15.399372
vertex 23.803432 13.102525 15.379372
endloop
endfacet
facet normal 0 0 0
outer loop
vertex 23.823910 13.123279 15.379372
vertex 23.803432 13.102525 15.379372
vertex 23.823910 13.102525 15.399372
endloop
endfacet
facet normal 0 0 0
outer loop
vertex 23.823910 13.102525 15.399372
vertex 23.844385 13.102525 15.379372
vertex 23.823910 13.123279 15.379372
endloop
endfacet
facet normal 0 0 0
outer loop
vertex 23.844385 13.102525 15.379372
vertex 23.844385 13.123279 15.379372
vertex 23.823910 13.123279 15.379372
endloop
endfacet
facet normal 0 0 0
outer loop
vertex 23.864861 13.102525 15.379372
vertex 23.844385 13.123279 15.379372
vertex 23.844385 13.102525 15.379372
endloop
endfacet
facet normal 0 0 0
outer loop
vertex 23.762482 13.040265 15.399372
vertex 23.742006 13.019512 15.399372
vertex 23.762482 13.019512 15.399372
endloop
endfacet
facet normal 0 0 0
outer loop
vertex 23.782957 13.019512 15.399372
vertex 23.782957 13.040265 15.399372
vertex 23.762482 13.019512 15.399372
endloop
endfacet
facet normal 0 0 0
outer loop
vertex 23.782957 13.040265 15.399372
vertex 23.762482 13.040265 15.399372
vertex 23.762482 13.019512 15.399372
endloop
endfacet
facet normal 0 0 0
outer loop
vertex 23.803432 13.019512 15.399372
vertex 23.803432 13.040265 15.399372
vertex 23.782957 13.019512 15.399372
endloop
endfacet
facet normal 0 0 0
outer loop
vertex 23.803432 13.040265 15.399372
vertex 23.782957 13.040265 15.399372
vertex 23.782957 13.019512 15.399372
endloop
endfacet
facet normal 0 0 0
outer loop
vertex 23.823910 13.019512 15.399372
vertex 23.823910 13.040265 15.399372
vertex 23.803432 13.019512 15.399372
endloop
endfacet
facet normal 0 0 0
outer loop
vertex 23.823910 13.040265 15.399372
vertex 23.803432 13.040265 15.399372
vertex 23.803432 13.019512 15.399372
endloop
endfacet
facet normal 0 0 0
outer loop
vertex 23.844385 13.019512 15.399372
vertex 23.844385 13.040265 15.399372
vertex 23.823910 13.019512 15.399372
endloop
endfacet
facet normal 0 0 0
outer loop
vertex 23.844385 13.040265 15.399372
vertex 23.823910 13.040265 15.399372
vertex 23.823910 13.019512 15.399372
endloop
endfacet
facet normal 0 0 0
outer loop
vertex 23.844385 13.019512 15.399372
vertex 23.864861 13.040265 15.399372
vertex 23.844385 13.040265 15.399372
endloop
endfacet
facet normal 0 0 0
outer loop
vertex 23.762482 13.061018 15.419372
vertex 23.782957 13.061018 15.399372
vertex 23.782957 13.061018 15.419372
endloop
endfacet
facet normal 0 0 0
outer loop
vertex 23.782957 13.061018 15.419372
vertex 23.782957 13.061018 15.399372
vertex 23.782957 13.040265 15.399372
endloop
endfacet
facet normal 0 0 0
outer loop
vertex 23.782957 13.040265 15.399372
vertex 23.782957 13.061018 15.399372
vertex 23.762482 13.040265 15.399372
endloop
endfacet
facet normal 0 0 0
outer loop
vertex 23.803432 13.040265 15.399372
vertex 23.782957 13.061018 15.419372
vertex 23.782957 13.040265 15.399372
endloop
endfacet
facet normal 0 0 0
outer loop
vertex 23.803432 13.061018 15.419372
vertex 23.782957 13.061018 15.419372
vertex 23.803432 13.040265 15.399372
endloop
endfacet
facet normal 0 0 0
outer loop
vertex 23.823910 13.040265 15.399372
vertex 23.803432 13.061018 15.419372
vertex 23.803432 13.040265 15.399372
endloop
endfacet
facet normal 0 0 0
outer loop
vertex 23.823910 13.061018 15.419372
vertex 23.803432 13.061018 15.419372
vertex 23.823910 13.040265 15.399372
endloop
endfacet
facet normal 0 0 0
outer loop
vertex 23.844385 13.040265 15.399372
vertex 23.823910 13.061018 15.419372
vertex 23.823910 13.040265 15.399372
endloop
endfacet
facet normal 0 0 0
outer loop
vertex 23.844385 13.061018 15.419372
vertex 23.823910 13.061018 15.419372
vertex 23.844385 13.040265 15.399372
endloop
endfacet
facet normal 0 0 0
outer loop
vertex 23.864861 13.040265 15.399372
vertex 23.844385 13.061018 15.419372
vertex 23.844385 13.040265 15.399372
endloop
endfacet
facet normal 0 0 0
outer loop
vertex 23.864861 13.061018 15.419372
vertex 23.844385 13.061018 15.419372
vertex 23.864861 13.040265 15.399372
endloop
endfacet
facet normal 0 0 0
outer loop
vertex 23.885336 13.061018 15.399372
vertex 23.864861 13.061018 15.419372
vertex 23.864861 13.040265 15.399372
endloop
endfacet
facet normal 0 0 0
outer loop
vertex 23.742006 13.061018 15.419372
vertex 23.762482 13.081772 15.419372
vertex 23.762482 13.061018 15.419372
endloop
endfacet
facet normal 0 0 0
outer loop
vertex 23.782957 13.061018 15.399372
vertex 23.762482 13.061018 15.419372
vertex 23.782957 13.081772 15.419372
endloop
endfacet
facet normal 0 0 0
outer loop
vertex 23.762482 13.061018 15.419372
vertex 23.762482 13.081772 15.419372
vertex 23.782957 13.081772 15.419372
endloop
endfacet
facet normal 0 0 0
outer loop
vertex 23.782957 13.061018 15.399372
vertex 23.782957 13.081772 15.419372
vertex 23.803432 13.081772 15.399372
endloop
endfacet
facet normal 0 0 0
outer loop
vertex 23.864861 13.081772 15.399372
vertex 23.844385 13.081772 15.419372
vertex 23.864861 13.061018 15.419372
endloop
endfacet
facet normal 0 0 0
outer loop
vertex 23.864861 13.061018 15.419372
vertex 23.885336 13.061018 15.399372
vertex 23.864861 13.081772 15.399372
endloop
endfacet
facet normal 0 0 0
outer loop
vertex 23.885336 13.061018 15.399372
vertex 23.885336 13.081772 15.399372
vertex 23.864861 13.081772 15.399372
endloop
endfacet
facet normal 0 0 0
outer loop
vertex 23.905811 13.061018 15.399372
vertex 23.885336 13.081772 15.399372
vertex 23.885336 13.061018 15.399372
endloop
endfacet
facet normal 0 0 0
outer loop
vertex 23.782957 13.081772 15.419372
vertex 23.762482 13.081772 15.419372
vertex 23.782957 13.102525 15.419372
endloop
endfacet
facet normal 0 0 0
outer loop
vertex 23.782957 13.102525 15.419372
vertex 23.762482 13.081772 15.419372
vertex 23.762482 13.102525 15.419372
endloop
endfacet
facet normal 0 0 0
outer loop
vertex 23.803432 13.081772 15.399372
vertex 23.782957 13.102525 15.419372
vertex 23.803432 13.102525 15.399372
endloop
endfacet
facet normal 0 0 0
outer loop
vertex 23.782957 13.081772 15.419372
vertex 23.782957 13.102525 15.419372
vertex 23.803432 13.081772 15.399372
endloop
endfacet
facet normal 0 0 0
outer loop
vertex 23.844385 13.081772 15.399372
vertex 23.823910 13.102525 15.399372
vertex 23.844385 13.102525 15.419372
endloop
endfacet
facet normal 0 0 0
outer loop
vertex 23.864861 13.102525 15.419372
vertex 23.844385 13.081772 15.419372
vertex 23.844385 13.102525 15.419372
endloop
endfacet
facet normal 0 0 0
outer loop
vertex 23.844385 13.102525 15.419372
vertex 23.844385 13.081772 15.419372
vertex 23.844385 13.081772 15.399372
endloop
endfacet
facet normal 0 0 0
outer loop
vertex 23.844385 13.081772 15.399372
vertex 23.844385 13.081772 15.419372
vertex 23.864861 13.081772 15.399372
endloop
endfacet
facet normal 0 0 0
outer loop
vertex 23.782957 13.102525 15.419372
vertex 23.803432 13.123279 15.399372
vertex 23.803432 13.102525 15.399372
endloop
endfacet
facet normal 0 0 0
outer loop
vertex 23.782957 13.102525 15.419372
vertex 23.803432 13.102525 15.419372
vertex 23.803432 13.123279 15.399372
endloop
endfacet
facet normal 0 0 0
outer loop
vertex 23.803432 13.123279 15.399372
vertex 23.803432 13.102525 15.419372
vertex 23.823910 13.102525 15.399372
endloop
endfacet
facet normal 0 0 0
outer loop
vertex 23.803432 13.102525 15.419372
vertex 23.823910 13.102525 15.419372
vertex 23.823910 13.102525 15.399372
endloop
endfacet
facet normal 0 0 0
outer loop
vertex 23.844385 13.102525 15.419372
vertex 23.823910 13.102525 15.399372
vertex 23.823910 13.102525 15.419372
endloop
endfacet
facet normal 0 0 0
outer loop
vertex 23.782957 13.061018 15.439372
vertex 23.762482 13.061018 15.419372
vertex 23.782957 13.061018 15.419372
endloop
endfacet
facet normal 0 0 0
outer loop
vertex 23.803432 13.061018 15.419372
vertex 23.803432 13.061018 15.439372
vertex 23.782957 13.061018 15.419372
endloop
endfacet
facet normal 0 0 0
outer loop
vertex 23.782957 13.061018 15.419372
vertex 23.803432 13.061018 15.439372
vertex 23.782957 13.061018 15.439372
endloop
endfacet
facet normal 0 0 0
outer loop
vertex 23.823910 13.061018 15.419372
vertex 23.823910 13.061018 15.439372
vertex 23.803432 13.061018 15.419372
endloop
endfacet
facet normal 0 0 0
outer loop
vertex 23.803432 13.061018 15.419372
vertex 23.823910 13.061018 15.439372
vertex 23.803432 13.061018 15.439372
endloop
endfacet
facet normal 0 0 0
outer loop
vertex 23.844385 13.061018 15.419372
vertex 23.844385 13.061018 15.439372
vertex 23.823910 13.061018 15.419372
endloop
endfacet
facet normal 0 0 0
outer loop
vertex 23.823910 13.061018 15.419372
vertex 23.844385 13.061018 15.439372
vertex 23.823910 13.061018 15.439372
endloop
endfacet
facet normal 0 0 0
outer loop
vertex 23.864861 13.061018 15.419372
vertex 23.844385 13.061018 15.439372
vertex 23.844385 13.061018 15.419372
endloop
endfacet
facet normal 0 0 0
outer loop
vertex 23.762482 13.081772 15.439372
vertex 23.742006 13.061018 15.419372
vertex 23.762482 13.061018 15.419372
endloop
endfacet
facet normal 0 0 0
outer loop
vertex 23.762482 13.081772 15.439372
vertex 23.762482 13.081772 15.419372
vertex 23.742006 13.061018 15.419372
endloop
endfacet
facet normal 0 0 0
outer loop
vertex 23.782957 13.061018 15.439372
vertex 23.762482 13.081772 15.439372
vertex 23.762482 13.061018 15.419372
endloop
endfacet
facet normal 0 0 0
outer loop
vertex 23.864861 13.081772 15.439372
vertex 23.844385 13.061018 15.439372
vertex 23.844385 13.081772 15.419372
endloop
endfacet
facet normal 0 0 0
outer loop
vertex 23.864861 13.061018 15.419372
vertex 23.844385 13.081772 15.419372
vertex 23.844385 13.061018 15.439372
endloop
endfacet
facet normal 0 0 0
outer loop
vertex 23.762482 13.081772 15.439372
vertex 23.762482 13.102525 15.419372
vertex 23.762482 13.081772 15.419372
endloop
endfacet
facet normal 0 0 0
outer loop
vertex 23.762482 13.081772 15.439372
vertex 23.782957 13.102525 15.439372
vertex 23.762482 13.102525 15.419372
endloop
endfacet
facet normal 0 0 0
outer loop
vertex 23.864861 13.102525 15.419372
vertex 23.844385 13.102525 15.439372
vertex 23.844385 13.081772 15.419372
endloop
endfacet
facet normal 0 0 0
outer loop
vertex 23.864861 13.081772 15.439372
vertex 23.844385 13.081772 15.419372
vertex 23.844385 13.102525 15.439372
endloop
endfacet
facet normal 0 0 0
outer loop
vertex 23.762482 13.102525 15.419372
vertex 23.782957 13.102525 15.439372
vertex 23.782957 13.102525 15.419372
endloop
endfacet
facet normal 0 0 0
outer loop
vertex 23.803432 13.102525 15.419372
vertex 23.782957 13.102525 15.419372
vertex 23.803432 13.102525 15.439372
endloop
endfacet
facet normal 0 0 0
outer loop
vertex 23.782957 13.102525 15.419372
vertex 23.782957 13.102525 15.439372
vertex 23.803432 13.102525 15.439372
endloop
endfacet
facet normal 0 0 0
outer loop
vertex 23.823910 13.102525 15.419372
vertex 23.803432 13.102525 15.419372
vertex 23.823910 13.102525 15.439372
endloop
endfacet
facet normal 0 0 0
outer loop
vertex 23.803432 13.102525 15.419372
vertex 23.803432 13.102525 15.439372
vertex 23.823910 13.102525 15.439372
endloop
endfacet
facet normal 0 0 0
outer loop
vertex 23.844385 13.123279 15.439372
vertex 23.844385 13.102525 15.419372
vertex 23.823910 13.102525 15.439372
endloop
endfacet
facet normal 0 0 0
outer loop
vertex 23.844385 13.102525 15.419372
vertex 23.823910 13.102525 15.419372
vertex 23.823910 13.102525 15.439372
endloop
endfacet
facet normal 0 0 0
outer loop
vertex 23.864861 13.123279 15.439372
vertex 23.844385 13.102525 15.439372
vertex 23.844385 13.123279 15.439372
endloop
endfacet
facet normal 0 0 0
outer loop
vertex 23.844385 13.123279 15.439372
vertex 23.844385 13.102525 15.439372
vertex 23.844385 13.102525 15.419372
endloop
endfacet
facet normal 0 0 0
outer loop
vertex 23.844385 13.102525 15.419372
vertex 23.844385 13.102525 15.439372
vertex 23.864861 13.102525 15.419372
endloop
endfacet
facet normal 0 0 0
outer loop
vertex 23.762482 13.081772 15.439372
vertex 23.782957 13.061018 15.439372
vertex 23.782957 13.081772 15.439372
endloop
endfacet
facet normal 0 0 0
outer loop
vertex 23.803432 13.061018 15.439372
vertex 23.803432 13.081772 15.439372
vertex 23.782957 13.061018 15.439372
endloop
endfacet
facet normal 0 0 0
outer loop
vertex 23.803432 13.081772 15.439372
vertex 23.782957 13.081772 15.439372
vertex 23.782957 13.061018 15.439372
endloop
endfacet
facet normal 0 0 0
outer loop
vertex 23.823910 13.061018 15.439372
vertex 23.823910 13.081772 15.439372
vertex 23.803432 13.061018 15.439372
endloop
endfacet
facet normal 0 0 0
outer loop
vertex 23.823910 13.081772 15.439372
vertex 23.803432 13.081772 15.439372
vertex 23.803432 13.061018 15.439372
endloop
endfacet
facet normal 0 0 0
outer loop
vertex 23.844385 13.061018 15.439372
vertex 23.844385 13.081772 15.439372
vertex 23.823910 13.061018 15.439372
endloop
endfacet
facet normal 0 0 0
outer loop
vertex 23.844385 13.081772 15.439372
vertex 23.823910 13.081772 15.439372
vertex 23.823910 13.061018 15.439372
endloop
endfacet
facet normal 0 0 0
outer loop
vertex 23.844385 13.061018 15.439372
vertex 23.864861 13.081772 15.439372
vertex 23.844385 13.081772 15.439372
endloop
endfacet
facet normal 0 0 0
outer loop
vertex 23.782957 13.102525 15.439372
vertex 23.762482 13.081772 15.439372
vertex 23.782957 13.081772 15.439372
endloop
endfacet
facet normal 0 0 0
outer loop
vertex 23.803432 13.081772 15.439372
vertex 23.803432 13.102525 15.439372
vertex 23.782957 13.081772 15.439372
endloop
endfacet
facet normal 0 0 0
outer loop
vertex 23.803432 13.102525 15.439372
vertex 23.782957 13.102525 15.439372
vertex 23.782957 13.081772 15.439372
endloop
endfacet
facet normal 0 0 0
outer loop
vertex 23.823910 13.081772 15.439372
vertex 23.823910 13.102525 15.439372
vertex 23.803432 13.081772 15.439372
endloop
endfacet
facet normal 0 0 0
outer loop
vertex 23.823910 13.102525 15.439372
vertex 23.803432 13.102525 15.439372
vertex 23.803432 13.081772 15.439372
endloop
endfacet
facet normal 0 0 0
outer loop
vertex 23.844385 13.081772 15.439372
vertex 23.844385 13.102525 15.439372
vertex 23.823910 13.081772 15.439372
endloop
endfacet
facet normal 0 0 0
outer loop
vertex 23.844385 13.102525 15.439372
vertex 23.823910 13.102525 15.439372
vertex 23.823910 13.081772 15.439372
endloop
endfacet
facet normal 0 0 0
outer loop
vertex 23.864861 13.081772 15.439372
vertex 23.844385 13.102525 15.439372
vertex 23.844385 13.081772 15.439372
endloop
endfacet
facet normal 0 0 0
outer loop
vertex 23.844385 13.123279 15.439372
vertex 23.823910 13.102525 15.439372
vertex 23.844385 13.102525 15.439372
endloop
endfacet
endsolid B-16-Plag.416
